0
SECTION
2
HEADER
9
$INSUNITS
70
4
9
$ACADVER
1
AC1014
9
$HANDSEED
5
FFFF
0
ENDSEC
0
SECTION
2
TABLES
0
TABLE
2
VPORT
5
8
100
AcDbSymbolTable
0
ENDTAB
0
TABLE
2
LTYPE
5
5
100
AcDbSymbolTable
0
LTYPE
5
14
100
AcDbSymbolTableRecord
100
AcDbLinetypeTableRecord
2
BYBLOCK
70
0
0
LTYPE
5
15
100
AcDbSymbolTableRecord
100
AcDbLinetypeTableRecord
2
BYLAYER
70
0
0
ENDTAB
0
TABLE
2
LAYER
5
2
100
AcDbSymbolTable
70
2
0
LAYER
5
50
100
AcDbSymbolTableRecord
100
AcDbLayerTableRecord
2
0
70
0
6
CONTINUOUS
0
ENDTAB
0
TABLE
2
STYLE
5
3
100
AcDbSymbolTable
70
1
0
STYLE
5
11
100
AcDbSymbolTableRecord
100
AcDbTextStyleTableRecord
2
STANDARD
70
0
0
ENDTAB
0
TABLE
2
VIEW
5
6
100
AcDbSymbolTable
70
0
0
ENDTAB
0
TABLE
2
UCS
5
7
100
AcDbSymbolTable
70
0
0
ENDTAB
0
TABLE
2
APPID
5
9
100
AcDbSymbolTable
70
2
0
APPID
5
12
100
AcDbSymbolTableRecord
100
AcDbRegAppTableRecord
2
ACAD
70
0
0
ENDTAB
0
TABLE
2
DIMSTYLE
5
A
100
AcDbSymbolTable
70
1
0
ENDTAB
0
TABLE
2
BLOCK_RECORD
5
1
100
AcDbSymbolTable
70
1
0
BLOCK_RECORD
5
1F
100
AcDbSymbolTableRecord
100
AcDbBlockTableRecord
2
*MODEL_SPACE
0
BLOCK_RECORD
5
1B
100
AcDbSymbolTableRecord
100
AcDbBlockTableRecord
2
*PAPER_SPACE
0
ENDTAB
0
ENDSEC
0
SECTION
2
BLOCKS
0
BLOCK
5
20
100
AcDbEntity
100
AcDbBlockBegin
2
*MODEL_SPACE
0
ENDBLK
5
21
100
AcDbEntity
100
AcDbBlockEnd
0
BLOCK
5
1C
100
AcDbEntity
100
AcDbBlockBegin
2
*PAPER_SPACE
0
ENDBLK
5
1D
100
AcDbEntity
100
AcDbBlockEnd
0
ENDSEC
0
SECTION
2
ENTITIES
0
LWPOLYLINE
5
100
100
AcDbEntity
8
0
100
AcDbPolyline
90
24
70
1
43
0.0
10
-11.499999888919842
20
-148.49999999999943
10
-11.499999888919842
20
-145.49999999999943
10
-21.499999888919852
20
-145.49999999999943
10
-21.499999888919852
20
-148.49999999999943
10
-41.000004261730382
20
-148.49999999999952
10
-41.000004261730382
20
0.5000000074507196
10
-21.499999888919877
20
0.50000000000016587
10
-21.499999888919877
20
-2.4999999999998348
10
-11.499999888919881
20
-2.4999999999998348
10
-11.499999888919881
20
0.50000000000016587
10
-4.4408920985006241e-013
20
0.50000000745071604
10
-4.4630965589931293e-013
20
-18.999999999999815
10
-3.0000000000004459
20
-18.999999999999815
10
-3.0000000000004459
20
-28.999999999999794
10
-4.4630965589931273e-013
20
-28.999999999999794
10
-4.4630965589931293e-013
20
-68.999999999999702
10
-3.0000000000004459
20
-68.999999999999702
10
-3.0000000000004459
20
-78.999999999999673
10
-4.4630965589931273e-013
20
-78.999999999999673
10
-4.4630965589931293e-013
20
-118.99999999999957
10
-3.0000000000004459
20
-118.99999999999957
10
-3.0000000000004459
20
-128.99999999999955
10
-4.4630965589931273e-013
20
-128.99999999999955
10
-4.4408920985006262e-013
20
-148.49999999999952
0
LWPOLYLINE
5
101
100
AcDbEntity
8
0
100
AcDbPolyline
90
24
70
1
43
0.0
10
-11.499999888920129
20
-148.49999999999955
10
-11.499999888920129
20
-145.49999999999955
10
-21.499999888920147
20
-145.49999999999955
10
-21.499999888920147
20
-148.49999999999955
10
-41.00000426173068
20
-148.49999999999963
10
-41.00000426173068
20
0.50000000745093387
10
-21.499999888920168
20
0.50000000000038014
10
-21.499999888920168
20
-2.499999999999627
10
-11.499999888920168
20
-2.499999999999627
10
-11.499999888920168
20
0.50000000000038014
10
-7.2830630415410269e-013
20
0.50000000745093143
10
-7.30526750203353e-013
20
-18.999999999999645
10
-3.000000000000731
20
-18.999999999999645
10
-3.000000000000731
20
-28.999999999999645
10
-7.30526750203353e-013
20
-28.999999999999645
10
-7.30526750203353e-013
20
-68.999999999999645
10
-3.000000000000731
20
-68.999999999999645
10
-3.000000000000731
20
-78.999999999999645
10
-7.30526750203353e-013
20
-78.999999999999645
10
-7.30526750203353e-013
20
-118.99999999999963
10
-3.000000000000731
20
-118.99999999999963
10
-3.000000000000731
20
-128.99999999999963
10
-7.30526750203353e-013
20
-128.99999999999963
10
-7.2830630415410269e-013
20
-148.49999999999963
0
ENDSEC
0
SECTION
2
OBJECTS
0
DICTIONARY
5
C
100
AcDbDictionary
3
ACAD_GROUP
350
D
3
ACAD_MLINESTYLE
350
17
0
DICTIONARY
5
D
100
AcDbDictionary
0
DICTIONARY
5
1A
330
C
100
AcDbDictionary
0
DICTIONARY
5
17
100
AcDbDictionary
0
ENDSEC
0
EOF
