0
SECTION
2
HEADER
9
$INSUNITS
70
4
9
$ACADVER
1
AC1014
9
$HANDSEED
5
FFFF
0
ENDSEC
0
SECTION
2
TABLES
0
TABLE
2
VPORT
5
8
100
AcDbSymbolTable
0
ENDTAB
0
TABLE
2
LTYPE
5
5
100
AcDbSymbolTable
0
LTYPE
5
14
100
AcDbSymbolTableRecord
100
AcDbLinetypeTableRecord
2
BYBLOCK
70
0
0
LTYPE
5
15
100
AcDbSymbolTableRecord
100
AcDbLinetypeTableRecord
2
BYLAYER
70
0
0
ENDTAB
0
TABLE
2
LAYER
5
2
100
AcDbSymbolTable
70
2
0
LAYER
5
50
100
AcDbSymbolTableRecord
100
AcDbLayerTableRecord
2
0
70
0
6
CONTINUOUS
0
ENDTAB
0
TABLE
2
STYLE
5
3
100
AcDbSymbolTable
70
1
0
STYLE
5
11
100
AcDbSymbolTableRecord
100
AcDbTextStyleTableRecord
2
STANDARD
70
0
0
ENDTAB
0
TABLE
2
VIEW
5
6
100
AcDbSymbolTable
70
0
0
ENDTAB
0
TABLE
2
UCS
5
7
100
AcDbSymbolTable
70
0
0
ENDTAB
0
TABLE
2
APPID
5
9
100
AcDbSymbolTable
70
2
0
APPID
5
12
100
AcDbSymbolTableRecord
100
AcDbRegAppTableRecord
2
ACAD
70
0
0
ENDTAB
0
TABLE
2
DIMSTYLE
5
A
100
AcDbSymbolTable
70
1
0
ENDTAB
0
TABLE
2
BLOCK_RECORD
5
1
100
AcDbSymbolTable
70
1
0
BLOCK_RECORD
5
1F
100
AcDbSymbolTableRecord
100
AcDbBlockTableRecord
2
*MODEL_SPACE
0
BLOCK_RECORD
5
1B
100
AcDbSymbolTableRecord
100
AcDbBlockTableRecord
2
*PAPER_SPACE
0
ENDTAB
0
ENDSEC
0
SECTION
2
BLOCKS
0
BLOCK
5
20
100
AcDbEntity
100
AcDbBlockBegin
2
*MODEL_SPACE
0
ENDBLK
5
21
100
AcDbEntity
100
AcDbBlockEnd
0
BLOCK
5
1C
100
AcDbEntity
100
AcDbBlockBegin
2
*PAPER_SPACE
0
ENDBLK
5
1D
100
AcDbEntity
100
AcDbBlockEnd
0
ENDSEC
0
SECTION
2
ENTITIES
0
LWPOLYLINE
5
100
100
AcDbEntity
8
0
100
AcDbPolyline
90
4
70
1
43
0.0
10
148.49999999999977
20
5.0000000000000089
10
145.49999999999977
20
5.0000000000000089
10
145.49999999999977
20
-4.9999999999999911
10
148.49999999999977
20
-4.9999999999999911
0
LWPOLYLINE
5
101
100
AcDbEntity
8
0
100
AcDbPolyline
90
4
70
1
43
0.0
10
-0.50000000000009537
20
-4.9999999999999911
10
2.4999999999999085
20
-4.9999999999999911
10
2.4999999999999085
20
5.0000000000000089
10
-0.50000000000009537
20
5.0000000000000089
0
LWPOLYLINE
5
102
100
AcDbEntity
8
0
100
AcDbPolyline
90
44
70
1
43
0.0
10
-0.50000000000007061
20
12.500000000000009
10
-0.50000000000007372
20
62.000000000000014
10
18.999999999999908
20
62.000000000000014
10
18.999999999999908
20
65.000000000000014
10
28.999999999999897
20
65.000000000000014
10
28.999999999999897
20
62.000000000000014
10
68.999999999999844
20
62.000000000000014
10
68.999999999999844
20
65.000000000000014
10
78.999999999999829
20
65
10
78.999999999999829
20
62
10
118.99999999999979
20
62
10
118.99999999999979
20
65
10
128.99999999999977
20
65
10
128.99999999999977
20
62
10
148.49999999999977
20
62
10
148.49999999999977
20
12.500000000000009
10
154.49999999999974
20
12.500000000000009
10
154.49999999999974
20
-12.499999999999991
10
148.49999999999977
20
-12.499999999999991
10
148.49999999999977
20
-67
10
138.99999999999974
20
-67
10
138.99999999999974
20
-70
10
128.99999999999977
20
-70
10
128.99999999999977
20
-67
10
108.99999999999979
20
-67
10
108.99999999999979
20
-70
10
98.999999999999801
20
-70
10
98.999999999999801
20
-67
10
78.999999999999829
20
-67
10
78.999999999999829
20
-70
10
68.999999999999844
20
-69.999999999999986
10
68.999999999999844
20
-67
10
48.999999999999872
20
-67
10
48.999999999999872
20
-69.999999999999986
10
38.999999999999872
20
-69.999999999999986
10
38.999999999999872
20
-67
10
18.999999999999901
20
-67
10
18.999999999999901
20
-69.999999999999986
10
8.9999999999999112
20
-69.999999999999986
10
8.9999999999999094
20
-67
10
-0.50000000000007039
20
-66.999999999999986
10
-0.50000000000007039
20
-12.499999999999991
10
-6.5000000000000648
20
-12.499999999999991
10
-6.5000000000000648
20
12.500000000000009
0
LWPOLYLINE
5
103
100
AcDbEntity
8
0
100
AcDbPolyline
90
4
70
1
43
0.0
10
148.49999999999977
20
5.0000000000000089
10
145.49999999999977
20
5.0000000000000089
10
145.49999999999977
20
-4.9999999999999911
10
148.49999999999977
20
-4.9999999999999911
0
LWPOLYLINE
5
104
100
AcDbEntity
8
0
100
AcDbPolyline
90
4
70
1
43
0.0
10
-0.50000000000023803
20
-4.9999999999999911
10
2.4999999999997691
20
-4.9999999999999911
10
2.4999999999997691
20
5.0000000000000089
10
-0.50000000000023803
20
5.0000000000000089
0
LWPOLYLINE
5
105
100
AcDbEntity
8
0
100
AcDbPolyline
90
44
70
1
43
0.0
10
-0.50000000000021338
20
12.500000000000009
10
-0.50000000000021583
20
62.000000000000014
10
18.999999999999787
20
62.000000000000014
10
18.999999999999787
20
65.000000000000014
10
28.999999999999787
20
65.000000000000014
10
28.999999999999787
20
62.000000000000014
10
68.999999999999787
20
62.000000000000014
10
68.999999999999787
20
65.000000000000014
10
78.999999999999787
20
65
10
78.999999999999787
20
62
10
118.99999999999977
20
62
10
118.99999999999977
20
65
10
128.99999999999977
20
65
10
128.99999999999977
20
62
10
148.49999999999977
20
62
10
148.49999999999977
20
12.500000000000009
10
154.49999999999977
20
12.500000000000009
10
154.49999999999977
20
-12.499999999999991
10
148.49999999999977
20
-12.499999999999991
10
148.49999999999977
20
-67
10
138.99999999999977
20
-67
10
138.99999999999977
20
-70
10
128.99999999999977
20
-70
10
128.99999999999977
20
-67
10
108.99999999999977
20
-67
10
108.99999999999977
20
-70
10
98.999999999999773
20
-70
10
98.999999999999773
20
-67
10
78.999999999999787
20
-67
10
78.999999999999787
20
-70
10
68.999999999999787
20
-69.999999999999986
10
68.999999999999787
20
-67
10
48.99999999999978
20
-67
10
48.99999999999978
20
-69.999999999999986
10
38.99999999999978
20
-69.999999999999986
10
38.99999999999978
20
-67
10
18.999999999999776
20
-67
10
18.999999999999776
20
-69.999999999999986
10
8.999999999999778
20
-69.999999999999986
10
8.9999999999997762
20
-67
10
-0.50000000000021305
20
-66.999999999999986
10
-0.50000000000021361
20
-12.499999999999991
10
-6.5000000000002149
20
-12.499999999999991
10
-6.5000000000002149
20
12.500000000000009
0
ENDSEC
0
SECTION
2
OBJECTS
0
DICTIONARY
5
C
100
AcDbDictionary
3
ACAD_GROUP
350
D
3
ACAD_MLINESTYLE
350
17
0
DICTIONARY
5
D
100
AcDbDictionary
0
DICTIONARY
5
1A
330
C
100
AcDbDictionary
0
DICTIONARY
5
17
100
AcDbDictionary
0
ENDSEC
0
EOF
