0
SECTION
2
HEADER
9
$INSUNITS
70
4
9
$ACADVER
1
AC1014
9
$HANDSEED
5
FFFF
0
ENDSEC
0
SECTION
2
TABLES
0
TABLE
2
VPORT
5
8
100
AcDbSymbolTable
0
ENDTAB
0
TABLE
2
LTYPE
5
5
100
AcDbSymbolTable
0
LTYPE
5
14
100
AcDbSymbolTableRecord
100
AcDbLinetypeTableRecord
2
BYBLOCK
70
0
0
LTYPE
5
15
100
AcDbSymbolTableRecord
100
AcDbLinetypeTableRecord
2
BYLAYER
70
0
0
ENDTAB
0
TABLE
2
LAYER
5
2
100
AcDbSymbolTable
70
2
0
LAYER
5
50
100
AcDbSymbolTableRecord
100
AcDbLayerTableRecord
2
0
70
0
6
CONTINUOUS
0
ENDTAB
0
TABLE
2
STYLE
5
3
100
AcDbSymbolTable
70
1
0
STYLE
5
11
100
AcDbSymbolTableRecord
100
AcDbTextStyleTableRecord
2
STANDARD
70
0
0
ENDTAB
0
TABLE
2
VIEW
5
6
100
AcDbSymbolTable
70
0
0
ENDTAB
0
TABLE
2
UCS
5
7
100
AcDbSymbolTable
70
0
0
ENDTAB
0
TABLE
2
APPID
5
9
100
AcDbSymbolTable
70
2
0
APPID
5
12
100
AcDbSymbolTableRecord
100
AcDbRegAppTableRecord
2
ACAD
70
0
0
ENDTAB
0
TABLE
2
DIMSTYLE
5
A
100
AcDbSymbolTable
70
1
0
ENDTAB
0
TABLE
2
BLOCK_RECORD
5
1
100
AcDbSymbolTable
70
1
0
BLOCK_RECORD
5
1F
100
AcDbSymbolTableRecord
100
AcDbBlockTableRecord
2
*MODEL_SPACE
0
BLOCK_RECORD
5
1B
100
AcDbSymbolTableRecord
100
AcDbBlockTableRecord
2
*PAPER_SPACE
0
ENDTAB
0
ENDSEC
0
SECTION
2
BLOCKS
0
BLOCK
5
20
100
AcDbEntity
100
AcDbBlockBegin
2
*MODEL_SPACE
0
ENDBLK
5
21
100
AcDbEntity
100
AcDbBlockEnd
0
BLOCK
5
1C
100
AcDbEntity
100
AcDbBlockBegin
2
*PAPER_SPACE
0
ENDBLK
5
1D
100
AcDbEntity
100
AcDbBlockEnd
0
ENDSEC
0
SECTION
2
ENTITIES
0
LWPOLYLINE
5
100
100
AcDbEntity
8
0
100
AcDbPolyline
90
32
70
1
43
0.0
10
-3.1752378504279477e-013
20
-139.00000000000003
10
-1.1920992637470817e-007
20
-148.50000000000006
10
-11.499999888919731
20
-148.50000000000006
10
-11.499999888919731
20
-145.50000000000006
10
-21.499999888919721
20
-145.50000000000006
10
-21.499999888919721
20
-148.50000000000006
10
-41.000003814695688
20
-148.50000000000006
10
-41.000003814695688
20
0.499999999999994
10
-21.499999888919721
20
0.50000000000002487
10
-21.499999888919721
20
-2.4999999999999831
10
-11.499999888919731
20
-2.4999999999999831
10
-11.499999888919731
20
0.50000000000002509
10
-1.1920992970537714e-007
20
0.49999999999999822
10
-5.9605123059469634e-008
20
-8.9999999999999964
10
-3.0000000000003153
20
-8.9999999999999947
10
-3.0000000000003153
20
-19
10
-3.1752378504279477e-013
20
-19
10
-5.9605122504358121e-008
20
-39.000000000000014
10
-3.0000000000003153
20
-39.000000000000007
10
-3.0000000000003153
20
-49.000000000000014
10
-3.1752378504279477e-013
20
-49.000000000000014
10
-5.9605121949246609e-008
20
-69.000000000000028
10
-3.0000000000003153
20
-69.000000000000028
10
-3.0000000000003153
20
-79.000000000000028
10
-3.1752378504279477e-013
20
-79.000000000000028
10
-5.9605121949246609e-008
20
-99.000000000000028
10
-3.0000000000003153
20
-99.000000000000028
10
-3.0000000000003153
20
-109.00000000000004
10
-3.1752378504279477e-013
20
-109.00000000000004
10
-5.9605121394135097e-008
20
-129.00000000000003
10
-3.0000000000003153
20
-129.00000000000003
10
-3.0000000000003153
20
-139.00000000000003
0
LWPOLYLINE
5
101
100
AcDbEntity
8
0
100
AcDbPolyline
90
32
70
1
43
0.0
10
-3.1752378504279477e-013
20
-138.99999999999991
10
-1.1920992637470817e-007
20
-148.49999999999991
10
-11.499999888919742
20
-148.49999999999991
10
-11.499999888919742
20
-145.49999999999991
10
-21.499999888919742
20
-145.49999999999991
10
-21.499999888919742
20
-148.49999999999991
10
-41.000003814695731
20
-148.49999999999991
10
-41.000003814695731
20
0.50000000000006484
10
-21.499999888919742
20
0.50000000000009592
10
-21.499999888919742
20
-2.4999999999999112
10
-11.499999888919742
20
-2.4999999999999112
10
-11.499999888919742
20
0.50000000000009592
10
-1.1920992970537725e-007
20
0.50000000000006928
10
-5.9605123059469634e-008
20
-8.9999999999999218
10
-3.000000000000318
20
-8.9999999999999201
10
-3.000000000000318
20
-18.999999999999918
10
-3.1752378504279477e-013
20
-18.999999999999918
10
-5.9605122504358121e-008
20
-38.999999999999922
10
-3.000000000000318
20
-38.999999999999922
10
-3.000000000000318
20
-48.999999999999922
10
-3.1752378504279477e-013
20
-48.999999999999922
10
-5.9605121949246609e-008
20
-68.999999999999929
10
-3.000000000000318
20
-68.999999999999929
10
-3.000000000000318
20
-78.999999999999929
10
-3.1752378504279477e-013
20
-78.999999999999929
10
-5.9605121949246609e-008
20
-98.999999999999915
10
-3.000000000000318
20
-98.999999999999915
10
-3.000000000000318
20
-108.99999999999991
10
-3.1752378504279477e-013
20
-108.99999999999991
10
-5.9605121394135097e-008
20
-128.99999999999991
10
-3.000000000000318
20
-128.99999999999991
10
-3.000000000000318
20
-138.99999999999991
0
ENDSEC
0
SECTION
2
OBJECTS
0
DICTIONARY
5
C
100
AcDbDictionary
3
ACAD_GROUP
350
D
3
ACAD_MLINESTYLE
350
17
0
DICTIONARY
5
D
100
AcDbDictionary
0
DICTIONARY
5
1A
330
C
100
AcDbDictionary
0
DICTIONARY
5
17
100
AcDbDictionary
0
ENDSEC
0
EOF
