solid OpenSCAD_Model
  facet normal -0.998626 0.0524081 0
    outer loop
      vertex 16.0078 20 -86.5
      vertex 16.0297 20.4173 -64.5
      vertex 16.0297 20.4173 -86.5
    endloop
  endfacet
  facet normal -0.998626 0.0524081 0
    outer loop
      vertex 16.0297 20.4173 -64.5
      vertex 16.0078 20 -86.5
      vertex 16.0078 20 -64.5
    endloop
  endfacet
  facet normal -0.987675 0.156516 0
    outer loop
      vertex 16.0297 20.4173 -86.5
      vertex 16.0951 20.83 -64.5
      vertex 16.0951 20.83 -86.5
    endloop
  endfacet
  facet normal -0.987675 0.156516 0
    outer loop
      vertex 16.0951 20.83 -64.5
      vertex 16.0297 20.4173 -86.5
      vertex 16.0297 20.4173 -64.5
    endloop
  endfacet
  facet normal 0.0524081 -0.998626 0
    outer loop
      vertex 20 16.0078 -86.5
      vertex 20.4173 16.0297 -64.5
      vertex 20 16.0078 -64.5
    endloop
  endfacet
  facet normal 0.0524081 -0.998626 0
    outer loop
      vertex 20.4173 16.0297 -64.5
      vertex 20 16.0078 -86.5
      vertex 20.4173 16.0297 -86.5
    endloop
  endfacet
  facet normal -0.25866 -0.965968 0
    outer loop
      vertex 18.7663 16.2032 -86.5
      vertex 19.17 16.0951 -64.5
      vertex 18.7663 16.2032 -64.5
    endloop
  endfacet
  facet normal -0.25866 -0.965968 -0
    outer loop
      vertex 19.17 16.0951 -64.5
      vertex 18.7663 16.2032 -86.5
      vertex 19.17 16.0951 -86.5
    endloop
  endfacet
  facet normal -0.0524081 -0.998626 0
    outer loop
      vertex 19.5827 16.0297 -86.5
      vertex 20 16.0078 -64.5
      vertex 19.5827 16.0297 -64.5
    endloop
  endfacet
  facet normal -0.0524081 -0.998626 -0
    outer loop
      vertex 20 16.0078 -64.5
      vertex 19.5827 16.0297 -86.5
      vertex 20 16.0078 -86.5
    endloop
  endfacet
  facet normal -0.358482 -0.933537 0
    outer loop
      vertex 18.3762 16.353 -86.5
      vertex 18.7663 16.2032 -64.5
      vertex 18.3762 16.353 -64.5
    endloop
  endfacet
  facet normal -0.358482 -0.933537 -0
    outer loop
      vertex 18.7663 16.2032 -64.5
      vertex 18.3762 16.353 -86.5
      vertex 18.7663 16.2032 -86.5
    endloop
  endfacet
  facet normal 0 0 -1
    outer loop
      vertex 23.9703 19.5827 -86.5
      vertex 23.9703 20.4173 -86.5
      vertex 23.9922 20 -86.5
    endloop
  endfacet
  facet normal 0 0 -1
    outer loop
      vertex 23.9049 19.17 -86.5
      vertex 23.9703 20.4173 -86.5
      vertex 23.9703 19.5827 -86.5
    endloop
  endfacet
  facet normal 0 0 -1
    outer loop
      vertex 23.9049 19.17 -86.5
      vertex 23.9049 20.83 -86.5
      vertex 23.9703 20.4173 -86.5
    endloop
  endfacet
  facet normal 0 0 -1
    outer loop
      vertex 23.7968 18.7663 -86.5
      vertex 23.9049 20.83 -86.5
      vertex 23.9049 19.17 -86.5
    endloop
  endfacet
  facet normal 0 0 -1
    outer loop
      vertex 23.7968 18.7663 -86.5
      vertex 23.7968 21.2337 -86.5
      vertex 23.9049 20.83 -86.5
    endloop
  endfacet
  facet normal 0 0 -1
    outer loop
      vertex 23.647 18.3762 -86.5
      vertex 23.7968 21.2337 -86.5
      vertex 23.7968 18.7663 -86.5
    endloop
  endfacet
  facet normal 0 0 -1
    outer loop
      vertex 23.647 18.3762 -86.5
      vertex 23.647 21.6238 -86.5
      vertex 23.7968 21.2337 -86.5
    endloop
  endfacet
  facet normal 0 0 -1
    outer loop
      vertex 23.4573 18.0039 -86.5
      vertex 23.647 21.6238 -86.5
      vertex 23.647 18.3762 -86.5
    endloop
  endfacet
  facet normal 0 0 -1
    outer loop
      vertex 23.4573 18.0039 -86.5
      vertex 23.4573 21.9961 -86.5
      vertex 23.647 21.6238 -86.5
    endloop
  endfacet
  facet normal 0 0 -1
    outer loop
      vertex 23.2297 17.6535 -86.5
      vertex 23.4573 21.9961 -86.5
      vertex 23.4573 18.0039 -86.5
    endloop
  endfacet
  facet normal 0 0 -1
    outer loop
      vertex 23.2297 17.6535 -86.5
      vertex 23.2297 22.3465 -86.5
      vertex 23.4573 21.9961 -86.5
    endloop
  endfacet
  facet normal 0 0 -1
    outer loop
      vertex 22.9668 17.3287 -86.5
      vertex 23.2297 22.3465 -86.5
      vertex 23.2297 17.6535 -86.5
    endloop
  endfacet
  facet normal 0 0 -1
    outer loop
      vertex 22.9668 17.3287 -86.5
      vertex 22.9668 22.6713 -86.5
      vertex 23.2297 22.3465 -86.5
    endloop
  endfacet
  facet normal 0 0 -1
    outer loop
      vertex 22.6713 17.0332 -86.5
      vertex 22.9668 22.6713 -86.5
      vertex 22.9668 17.3287 -86.5
    endloop
  endfacet
  facet normal 0 0 -1
    outer loop
      vertex 22.6713 17.0332 -86.5
      vertex 22.6713 22.9668 -86.5
      vertex 22.9668 22.6713 -86.5
    endloop
  endfacet
  facet normal 0 0 -1
    outer loop
      vertex 22.3465 16.7703 -86.5
      vertex 22.6713 22.9668 -86.5
      vertex 22.6713 17.0332 -86.5
    endloop
  endfacet
  facet normal 0 0 -1
    outer loop
      vertex 22.3465 16.7703 -86.5
      vertex 22.3465 23.2297 -86.5
      vertex 22.6713 22.9668 -86.5
    endloop
  endfacet
  facet normal 0 0 -1
    outer loop
      vertex 21.9961 16.5427 -86.5
      vertex 22.3465 23.2297 -86.5
      vertex 22.3465 16.7703 -86.5
    endloop
  endfacet
  facet normal 0 0 -1
    outer loop
      vertex 21.9961 16.5427 -86.5
      vertex 21.9961 23.4573 -86.5
      vertex 22.3465 23.2297 -86.5
    endloop
  endfacet
  facet normal 0 0 -1
    outer loop
      vertex 21.6238 16.353 -86.5
      vertex 21.9961 23.4573 -86.5
      vertex 21.9961 16.5427 -86.5
    endloop
  endfacet
  facet normal 0 0 -1
    outer loop
      vertex 21.6238 16.353 -86.5
      vertex 21.6238 23.647 -86.5
      vertex 21.9961 23.4573 -86.5
    endloop
  endfacet
  facet normal 0 0 -1
    outer loop
      vertex 21.2337 16.2032 -86.5
      vertex 21.6238 23.647 -86.5
      vertex 21.6238 16.353 -86.5
    endloop
  endfacet
  facet normal 0 0 -1
    outer loop
      vertex 21.2337 16.2032 -86.5
      vertex 21.2337 23.7968 -86.5
      vertex 21.6238 23.647 -86.5
    endloop
  endfacet
  facet normal 0 0 -1
    outer loop
      vertex 20.83 16.0951 -86.5
      vertex 21.2337 23.7968 -86.5
      vertex 21.2337 16.2032 -86.5
    endloop
  endfacet
  facet normal 0 0 -1
    outer loop
      vertex 20.83 16.0951 -86.5
      vertex 20.83 23.9049 -86.5
      vertex 21.2337 23.7968 -86.5
    endloop
  endfacet
  facet normal 0 0 -1
    outer loop
      vertex 20.4173 16.0297 -86.5
      vertex 20.83 23.9049 -86.5
      vertex 20.83 16.0951 -86.5
    endloop
  endfacet
  facet normal 0 0 -1
    outer loop
      vertex 20.4173 16.0297 -86.5
      vertex 20.4173 23.9703 -86.5
      vertex 20.83 23.9049 -86.5
    endloop
  endfacet
  facet normal 0 0 -1
    outer loop
      vertex 20 16.0078 -86.5
      vertex 20.4173 23.9703 -86.5
      vertex 20.4173 16.0297 -86.5
    endloop
  endfacet
  facet normal 0 0 -1
    outer loop
      vertex 20 16.0078 -86.5
      vertex 20 23.9922 -86.5
      vertex 20.4173 23.9703 -86.5
    endloop
  endfacet
  facet normal 0 0 -1
    outer loop
      vertex 19.5827 16.0297 -86.5
      vertex 20 23.9922 -86.5
      vertex 20 16.0078 -86.5
    endloop
  endfacet
  facet normal 0 0 -1
    outer loop
      vertex 19.5827 16.0297 -86.5
      vertex 19.5827 23.9703 -86.5
      vertex 20 23.9922 -86.5
    endloop
  endfacet
  facet normal 0 0 -1
    outer loop
      vertex 19.17 16.0951 -86.5
      vertex 19.5827 23.9703 -86.5
      vertex 19.5827 16.0297 -86.5
    endloop
  endfacet
  facet normal 0 0 -1
    outer loop
      vertex 19.17 16.0951 -86.5
      vertex 19.17 23.9049 -86.5
      vertex 19.5827 23.9703 -86.5
    endloop
  endfacet
  facet normal 0 0 -1
    outer loop
      vertex 18.7663 16.2032 -86.5
      vertex 19.17 23.9049 -86.5
      vertex 19.17 16.0951 -86.5
    endloop
  endfacet
  facet normal 0 0 -1
    outer loop
      vertex 18.7663 16.2032 -86.5
      vertex 18.7663 23.7968 -86.5
      vertex 19.17 23.9049 -86.5
    endloop
  endfacet
  facet normal 0 0 -1
    outer loop
      vertex 18.3762 16.353 -86.5
      vertex 18.7663 23.7968 -86.5
      vertex 18.7663 16.2032 -86.5
    endloop
  endfacet
  facet normal 0 0 -1
    outer loop
      vertex 18.3762 16.353 -86.5
      vertex 18.3762 23.647 -86.5
      vertex 18.7663 23.7968 -86.5
    endloop
  endfacet
  facet normal 0 0 -1
    outer loop
      vertex 18.0039 16.5427 -86.5
      vertex 18.3762 23.647 -86.5
      vertex 18.3762 16.353 -86.5
    endloop
  endfacet
  facet normal 0 0 -1
    outer loop
      vertex 18.0039 16.5427 -86.5
      vertex 18.0039 23.4573 -86.5
      vertex 18.3762 23.647 -86.5
    endloop
  endfacet
  facet normal 0 0 -1
    outer loop
      vertex 17.6535 16.7703 -86.5
      vertex 18.0039 23.4573 -86.5
      vertex 18.0039 16.5427 -86.5
    endloop
  endfacet
  facet normal 0 0 -1
    outer loop
      vertex 17.6535 16.7703 -86.5
      vertex 17.6535 23.2297 -86.5
      vertex 18.0039 23.4573 -86.5
    endloop
  endfacet
  facet normal 0 0 -1
    outer loop
      vertex 17.3287 17.0332 -86.5
      vertex 17.6535 23.2297 -86.5
      vertex 17.6535 16.7703 -86.5
    endloop
  endfacet
  facet normal 0 0 -1
    outer loop
      vertex 17.3287 17.0332 -86.5
      vertex 17.3287 22.9668 -86.5
      vertex 17.6535 23.2297 -86.5
    endloop
  endfacet
  facet normal 0 0 -1
    outer loop
      vertex 17.0332 17.3287 -86.5
      vertex 17.3287 22.9668 -86.5
      vertex 17.3287 17.0332 -86.5
    endloop
  endfacet
  facet normal 0 0 -1
    outer loop
      vertex 17.0332 17.3287 -86.5
      vertex 17.0332 22.6713 -86.5
      vertex 17.3287 22.9668 -86.5
    endloop
  endfacet
  facet normal 0 0 -1
    outer loop
      vertex 16.7703 17.6535 -86.5
      vertex 17.0332 22.6713 -86.5
      vertex 17.0332 17.3287 -86.5
    endloop
  endfacet
  facet normal 0 0 -1
    outer loop
      vertex 16.7703 17.6535 -86.5
      vertex 16.7703 22.3465 -86.5
      vertex 17.0332 22.6713 -86.5
    endloop
  endfacet
  facet normal 0 0 -1
    outer loop
      vertex 16.5427 18.0039 -86.5
      vertex 16.7703 22.3465 -86.5
      vertex 16.7703 17.6535 -86.5
    endloop
  endfacet
  facet normal 0 0 -1
    outer loop
      vertex 16.5427 18.0039 -86.5
      vertex 16.5427 21.9961 -86.5
      vertex 16.7703 22.3465 -86.5
    endloop
  endfacet
  facet normal 0 0 -1
    outer loop
      vertex 16.353 18.3762 -86.5
      vertex 16.5427 21.9961 -86.5
      vertex 16.5427 18.0039 -86.5
    endloop
  endfacet
  facet normal 0 0 -1
    outer loop
      vertex 16.353 18.3762 -86.5
      vertex 16.353 21.6238 -86.5
      vertex 16.5427 21.9961 -86.5
    endloop
  endfacet
  facet normal 0 0 -1
    outer loop
      vertex 16.2032 18.7663 -86.5
      vertex 16.353 21.6238 -86.5
      vertex 16.353 18.3762 -86.5
    endloop
  endfacet
  facet normal 0 0 -1
    outer loop
      vertex 16.2032 18.7663 -86.5
      vertex 16.2032 21.2337 -86.5
      vertex 16.353 21.6238 -86.5
    endloop
  endfacet
  facet normal 0 0 -1
    outer loop
      vertex 16.0951 19.17 -86.5
      vertex 16.2032 21.2337 -86.5
      vertex 16.2032 18.7663 -86.5
    endloop
  endfacet
  facet normal 0 0 -1
    outer loop
      vertex 16.0951 19.17 -86.5
      vertex 16.0951 20.83 -86.5
      vertex 16.2032 21.2337 -86.5
    endloop
  endfacet
  facet normal 0 0 -1
    outer loop
      vertex 16.0297 19.5827 -86.5
      vertex 16.0951 20.83 -86.5
      vertex 16.0951 19.17 -86.5
    endloop
  endfacet
  facet normal 0 0 -1
    outer loop
      vertex 16.0297 19.5827 -86.5
      vertex 16.0297 20.4173 -86.5
      vertex 16.0951 20.83 -86.5
    endloop
  endfacet
  facet normal 0 -0 -1
    outer loop
      vertex 16.0297 20.4173 -86.5
      vertex 16.0297 19.5827 -86.5
      vertex 16.0078 20 -86.5
    endloop
  endfacet
  facet normal -0 0 -1
    outer loop
      vertex 27.5 20 0
      vertex 23.9781 19.5819 0
      vertex 24 20 0
    endloop
  endfacet
  facet normal 0 0 -1
    outer loop
      vertex 27.5 20 0
      vertex 23.9126 19.1684 0
      vertex 23.9781 19.5819 0
    endloop
  endfacet
  facet normal 0 0 -1
    outer loop
      vertex 27.5 20 0
      vertex 23.8042 18.7639 0
      vertex 23.9126 19.1684 0
    endloop
  endfacet
  facet normal 0 0 -1
    outer loop
      vertex 23.4641 18 0
      vertex 27.5 20 0
      vertex 23.75 13.5048 0
    endloop
  endfacet
  facet normal 0 0 -1
    outer loop
      vertex 27.5 20 0
      vertex 23.6542 18.3731 0
      vertex 23.8042 18.7639 0
    endloop
  endfacet
  facet normal 0 0 -1
    outer loop
      vertex 27.5 20 0
      vertex 23.4641 18 0
      vertex 23.6542 18.3731 0
    endloop
  endfacet
  facet normal 0 0 -1
    outer loop
      vertex 23.75 13.5048 0
      vertex 23.2361 17.6489 0
      vertex 23.4641 18 0
    endloop
  endfacet
  facet normal 0 0 -1
    outer loop
      vertex 23.75 13.5048 0
      vertex 22.9726 17.3235 0
      vertex 23.2361 17.6489 0
    endloop
  endfacet
  facet normal 0 0 -1
    outer loop
      vertex 23.75 13.5048 0
      vertex 22.6765 17.0274 0
      vertex 22.9726 17.3235 0
    endloop
  endfacet
  facet normal 0 0 -1
    outer loop
      vertex 23.75 13.5048 0
      vertex 22.3511 16.7639 0
      vertex 22.6765 17.0274 0
    endloop
  endfacet
  facet normal 0 0 -1
    outer loop
      vertex 23.75 13.5048 0
      vertex 22 16.5359 0
      vertex 22.3511 16.7639 0
    endloop
  endfacet
  facet normal 0 0 -1
    outer loop
      vertex 23.75 13.5048 0
      vertex 21.6269 16.3458 0
      vertex 22 16.5359 0
    endloop
  endfacet
  facet normal 0 0 -1
    outer loop
      vertex 23.75 13.5048 0
      vertex 21.2361 16.1958 0
      vertex 21.6269 16.3458 0
    endloop
  endfacet
  facet normal 0 0 -1
    outer loop
      vertex 23.75 13.5048 0
      vertex 20.8316 16.0874 0
      vertex 21.2361 16.1958 0
    endloop
  endfacet
  facet normal 0 0 -1
    outer loop
      vertex 23.75 13.5048 0
      vertex 20.4181 16.0219 0
      vertex 20.8316 16.0874 0
    endloop
  endfacet
  facet normal 0 0 -1
    outer loop
      vertex 23.75 13.5048 0
      vertex 20 16 0
      vertex 20.4181 16.0219 0
    endloop
  endfacet
  facet normal 0 0 -1
    outer loop
      vertex 16.25 13.5048 0
      vertex 20 16 0
      vertex 23.75 13.5048 0
    endloop
  endfacet
  facet normal -0 0 -1
    outer loop
      vertex 20 16 0
      vertex 16.25 13.5048 0
      vertex 19.5819 16.0219 0
    endloop
  endfacet
  facet normal -0 0 -1
    outer loop
      vertex 19.5819 16.0219 0
      vertex 16.25 13.5048 0
      vertex 19.1684 16.0874 0
    endloop
  endfacet
  facet normal -0 0 -1
    outer loop
      vertex 19.1684 16.0874 0
      vertex 16.25 13.5048 0
      vertex 18.7639 16.1958 0
    endloop
  endfacet
  facet normal -0 0 -1
    outer loop
      vertex 18.7639 16.1958 0
      vertex 16.25 13.5048 0
      vertex 18.3731 16.3458 0
    endloop
  endfacet
  facet normal -0 0 -1
    outer loop
      vertex 18.3731 16.3458 0
      vertex 16.25 13.5048 0
      vertex 18 16.5359 0
    endloop
  endfacet
  facet normal 0 0 -1
    outer loop
      vertex 16.25 13.5048 0
      vertex 17.6489 16.7639 0
      vertex 18 16.5359 0
    endloop
  endfacet
  facet normal 0 0 -1
    outer loop
      vertex 16.25 13.5048 0
      vertex 17.3235 17.0274 0
      vertex 17.6489 16.7639 0
    endloop
  endfacet
  facet normal 0 0 -1
    outer loop
      vertex 16.25 13.5048 0
      vertex 17.0274 17.3235 0
      vertex 17.3235 17.0274 0
    endloop
  endfacet
  facet normal 0 0 -1
    outer loop
      vertex 16.25 13.5048 0
      vertex 16.7639 17.6489 0
      vertex 17.0274 17.3235 0
    endloop
  endfacet
  facet normal 0 0 -1
    outer loop
      vertex 16.25 13.5048 0
      vertex 16.5359 18 0
      vertex 16.7639 17.6489 0
    endloop
  endfacet
  facet normal 0 0 -1
    outer loop
      vertex 12.5 20 0
      vertex 16.5359 18 0
      vertex 16.25 13.5048 0
    endloop
  endfacet
  facet normal 0 0 -1
    outer loop
      vertex 16.5359 18 0
      vertex 12.5 20 0
      vertex 16.3458 18.3731 0
    endloop
  endfacet
  facet normal 0 0 -1
    outer loop
      vertex 16.3458 18.3731 0
      vertex 12.5 20 0
      vertex 16.1958 18.7639 0
    endloop
  endfacet
  facet normal 0 0 -1
    outer loop
      vertex 16.1958 18.7639 0
      vertex 12.5 20 0
      vertex 16.0874 19.1684 0
    endloop
  endfacet
  facet normal 0 0 -1
    outer loop
      vertex 16.0874 19.1684 0
      vertex 12.5 20 0
      vertex 16.0219 19.5819 0
    endloop
  endfacet
  facet normal 0 0 -1
    outer loop
      vertex 16.0219 19.5819 0
      vertex 12.5 20 0
      vertex 16 20 0
    endloop
  endfacet
  facet normal 0 0 -1
    outer loop
      vertex 23.9781 20.4181 0
      vertex 27.5 20 0
      vertex 24 20 0
    endloop
  endfacet
  facet normal 0 0 -1
    outer loop
      vertex 23.9126 20.8316 0
      vertex 27.5 20 0
      vertex 23.9781 20.4181 0
    endloop
  endfacet
  facet normal 0 0 -1
    outer loop
      vertex 23.8042 21.2361 0
      vertex 27.5 20 0
      vertex 23.9126 20.8316 0
    endloop
  endfacet
  facet normal 0 0 -1
    outer loop
      vertex 23.6542 21.6269 0
      vertex 27.5 20 0
      vertex 23.8042 21.2361 0
    endloop
  endfacet
  facet normal 0 0 -1
    outer loop
      vertex 23.4641 22 0
      vertex 27.5 20 0
      vertex 23.6542 21.6269 0
    endloop
  endfacet
  facet normal 0 0 -1
    outer loop
      vertex 27.5 20 0
      vertex 23.4641 22 0
      vertex 23.75 26.4952 0
    endloop
  endfacet
  facet normal 0 0 -1
    outer loop
      vertex 23.2361 22.3511 0
      vertex 23.75 26.4952 0
      vertex 23.4641 22 0
    endloop
  endfacet
  facet normal 0 0 -1
    outer loop
      vertex 22.9726 22.6765 0
      vertex 23.75 26.4952 0
      vertex 23.2361 22.3511 0
    endloop
  endfacet
  facet normal 0 0 -1
    outer loop
      vertex 22.6765 22.9726 0
      vertex 23.75 26.4952 0
      vertex 22.9726 22.6765 0
    endloop
  endfacet
  facet normal 0 0 -1
    outer loop
      vertex 22.3511 23.2361 0
      vertex 23.75 26.4952 0
      vertex 22.6765 22.9726 0
    endloop
  endfacet
  facet normal 0 0 -1
    outer loop
      vertex 22 23.4641 0
      vertex 23.75 26.4952 0
      vertex 22.3511 23.2361 0
    endloop
  endfacet
  facet normal 0 0 -1
    outer loop
      vertex 21.6269 23.6542 0
      vertex 23.75 26.4952 0
      vertex 22 23.4641 0
    endloop
  endfacet
  facet normal 0 0 -1
    outer loop
      vertex 21.2361 23.8042 0
      vertex 23.75 26.4952 0
      vertex 21.6269 23.6542 0
    endloop
  endfacet
  facet normal 0 0 -1
    outer loop
      vertex 20.8316 23.9126 0
      vertex 23.75 26.4952 0
      vertex 21.2361 23.8042 0
    endloop
  endfacet
  facet normal 0 0 -1
    outer loop
      vertex 20.4181 23.9781 0
      vertex 23.75 26.4952 0
      vertex 20.8316 23.9126 0
    endloop
  endfacet
  facet normal 0 0 -1
    outer loop
      vertex 20 24 0
      vertex 23.75 26.4952 0
      vertex 20.4181 23.9781 0
    endloop
  endfacet
  facet normal 0 0 -1
    outer loop
      vertex 16.25 26.4952 0
      vertex 20 24 0
      vertex 19.5819 23.9781 0
    endloop
  endfacet
  facet normal 0 0 -1
    outer loop
      vertex 16.25 26.4952 0
      vertex 19.5819 23.9781 0
      vertex 19.1684 23.9126 0
    endloop
  endfacet
  facet normal 0 0 -1
    outer loop
      vertex 16.25 26.4952 0
      vertex 19.1684 23.9126 0
      vertex 18.7639 23.8042 0
    endloop
  endfacet
  facet normal 0 0 -1
    outer loop
      vertex 16.25 26.4952 0
      vertex 18.7639 23.8042 0
      vertex 18.3731 23.6542 0
    endloop
  endfacet
  facet normal 0 0 -1
    outer loop
      vertex 16.25 26.4952 0
      vertex 18.3731 23.6542 0
      vertex 18 23.4641 0
    endloop
  endfacet
  facet normal 0 0 -1
    outer loop
      vertex 20 24 0
      vertex 16.25 26.4952 0
      vertex 23.75 26.4952 0
    endloop
  endfacet
  facet normal 0 0 -1
    outer loop
      vertex 17.6489 23.2361 0
      vertex 16.25 26.4952 0
      vertex 18 23.4641 0
    endloop
  endfacet
  facet normal 0 0 -1
    outer loop
      vertex 17.3235 22.9726 0
      vertex 16.25 26.4952 0
      vertex 17.6489 23.2361 0
    endloop
  endfacet
  facet normal 0 0 -1
    outer loop
      vertex 17.0274 22.6765 0
      vertex 16.25 26.4952 0
      vertex 17.3235 22.9726 0
    endloop
  endfacet
  facet normal 0 0 -1
    outer loop
      vertex 16.7639 22.3511 0
      vertex 16.25 26.4952 0
      vertex 17.0274 22.6765 0
    endloop
  endfacet
  facet normal 0 0 -1
    outer loop
      vertex 16.5359 22 0
      vertex 16.25 26.4952 0
      vertex 16.7639 22.3511 0
    endloop
  endfacet
  facet normal 0 0 -1
    outer loop
      vertex 12.5 20 0
      vertex 16.5359 22 0
      vertex 16.3458 21.6269 0
    endloop
  endfacet
  facet normal 0 0 -1
    outer loop
      vertex 12.5 20 0
      vertex 16.3458 21.6269 0
      vertex 16.1958 21.2361 0
    endloop
  endfacet
  facet normal 0 0 -1
    outer loop
      vertex 12.5 20 0
      vertex 16.1958 21.2361 0
      vertex 16.0874 20.8316 0
    endloop
  endfacet
  facet normal 0 0 -1
    outer loop
      vertex 12.5 20 0
      vertex 16.0874 20.8316 0
      vertex 16.0219 20.4181 0
    endloop
  endfacet
  facet normal 0 0 -1
    outer loop
      vertex 12.5 20 0
      vertex 16.0219 20.4181 0
      vertex 16 20 0
    endloop
  endfacet
  facet normal -0 0 -1
    outer loop
      vertex 16.5359 22 0
      vertex 12.5 20 0
      vertex 16.25 26.4952 0
    endloop
  endfacet
  facet normal -0.891003 0.453997 0
    outer loop
      vertex 16.353 21.6238 -86.5
      vertex 16.5427 21.9961 -64.5
      vertex 16.5427 21.9961 -86.5
    endloop
  endfacet
  facet normal -0.891003 0.453997 0
    outer loop
      vertex 16.5427 21.9961 -64.5
      vertex 16.353 21.6238 -86.5
      vertex 16.353 21.6238 -64.5
    endloop
  endfacet
  facet normal -0.25866 0.965968 0
    outer loop
      vertex 19.17 23.9049 -86.5
      vertex 18.7663 23.7968 -64.5
      vertex 19.17 23.9049 -64.5
    endloop
  endfacet
  facet normal -0.25866 0.965968 0
    outer loop
      vertex 18.7663 23.7968 -64.5
      vertex 19.17 23.9049 -86.5
      vertex 18.7663 23.7968 -86.5
    endloop
  endfacet
  facet normal -0.62915 0.777284 0
    outer loop
      vertex 17.6535 23.2297 -86.5
      vertex 17.3287 22.9668 -64.5
      vertex 17.6535 23.2297 -64.5
    endloop
  endfacet
  facet normal -0.62915 0.777284 0
    outer loop
      vertex 17.3287 22.9668 -64.5
      vertex 17.6535 23.2297 -86.5
      vertex 17.3287 22.9668 -86.5
    endloop
  endfacet
  facet normal 0.998626 -0.0524081 0
    outer loop
      vertex 23.9703 19.5827 -64.5
      vertex 23.9922 20 -86.5
      vertex 23.9922 20 -64.5
    endloop
  endfacet
  facet normal 0.998626 -0.0524081 0
    outer loop
      vertex 23.9922 20 -86.5
      vertex 23.9703 19.5827 -64.5
      vertex 23.9703 19.5827 -86.5
    endloop
  endfacet
  facet normal -0.838619 -0.544719 0
    outer loop
      vertex 16.7703 17.6535 -86.5
      vertex 16.5427 18.0039 -64.5
      vertex 16.5427 18.0039 -86.5
    endloop
  endfacet
  facet normal -0.838619 -0.544719 0
    outer loop
      vertex 16.5427 18.0039 -64.5
      vertex 16.7703 17.6535 -86.5
      vertex 16.7703 17.6535 -64.5
    endloop
  endfacet
  facet normal -0.998626 -0.0524081 0
    outer loop
      vertex 16.0297 19.5827 -86.5
      vertex 16.0078 20 -64.5
      vertex 16.0078 20 -86.5
    endloop
  endfacet
  facet normal -0.998626 -0.0524081 0
    outer loop
      vertex 16.0078 20 -64.5
      vertex 16.0297 19.5827 -86.5
      vertex 16.0297 19.5827 -64.5
    endloop
  endfacet
  facet normal -0.965968 0.25866 0
    outer loop
      vertex 16.0951 20.83 -86.5
      vertex 16.2032 21.2337 -64.5
      vertex 16.2032 21.2337 -86.5
    endloop
  endfacet
  facet normal -0.965968 0.25866 0
    outer loop
      vertex 16.2032 21.2337 -64.5
      vertex 16.0951 20.83 -86.5
      vertex 16.0951 20.83 -64.5
    endloop
  endfacet
  facet normal -0.933537 0.358482 0
    outer loop
      vertex 16.2032 21.2337 -86.5
      vertex 16.353 21.6238 -64.5
      vertex 16.353 21.6238 -86.5
    endloop
  endfacet
  facet normal -0.933537 0.358482 0
    outer loop
      vertex 16.353 21.6238 -64.5
      vertex 16.2032 21.2337 -86.5
      vertex 16.2032 21.2337 -64.5
    endloop
  endfacet
  facet normal -0.156516 0.987675 0
    outer loop
      vertex 19.5827 23.9703 -86.5
      vertex 19.17 23.9049 -64.5
      vertex 19.5827 23.9703 -64.5
    endloop
  endfacet
  facet normal -0.156516 0.987675 0
    outer loop
      vertex 19.17 23.9049 -64.5
      vertex 19.5827 23.9703 -86.5
      vertex 19.17 23.9049 -86.5
    endloop
  endfacet
  facet normal -0.0524081 0.998626 0
    outer loop
      vertex 20 23.9922 -86.5
      vertex 19.5827 23.9703 -64.5
      vertex 20 23.9922 -64.5
    endloop
  endfacet
  facet normal -0.0524081 0.998626 0
    outer loop
      vertex 19.5827 23.9703 -64.5
      vertex 20 23.9922 -86.5
      vertex 19.5827 23.9703 -86.5
    endloop
  endfacet
  facet normal 0.0524081 0.998626 -0
    outer loop
      vertex 20.4173 23.9703 -86.5
      vertex 20 23.9922 -64.5
      vertex 20.4173 23.9703 -64.5
    endloop
  endfacet
  facet normal 0.0524081 0.998626 0
    outer loop
      vertex 20 23.9922 -64.5
      vertex 20.4173 23.9703 -86.5
      vertex 20 23.9922 -86.5
    endloop
  endfacet
  facet normal -0.453997 0.891003 0
    outer loop
      vertex 18.3762 23.647 -86.5
      vertex 18.0039 23.4573 -64.5
      vertex 18.3762 23.647 -64.5
    endloop
  endfacet
  facet normal -0.453997 0.891003 0
    outer loop
      vertex 18.0039 23.4573 -64.5
      vertex 18.3762 23.647 -86.5
      vertex 18.0039 23.4573 -86.5
    endloop
  endfacet
  facet normal -0.358482 0.933537 0
    outer loop
      vertex 18.7663 23.7968 -86.5
      vertex 18.3762 23.647 -64.5
      vertex 18.7663 23.7968 -64.5
    endloop
  endfacet
  facet normal -0.358482 0.933537 0
    outer loop
      vertex 18.3762 23.647 -64.5
      vertex 18.7663 23.7968 -86.5
      vertex 18.3762 23.647 -86.5
    endloop
  endfacet
  facet normal -0.544719 0.838619 0
    outer loop
      vertex 18.0039 23.4573 -86.5
      vertex 17.6535 23.2297 -64.5
      vertex 18.0039 23.4573 -64.5
    endloop
  endfacet
  facet normal -0.544719 0.838619 0
    outer loop
      vertex 17.6535 23.2297 -64.5
      vertex 18.0039 23.4573 -86.5
      vertex 17.6535 23.2297 -86.5
    endloop
  endfacet
  facet normal 0.707107 -0.707107 0
    outer loop
      vertex 22.6713 17.0332 -64.5
      vertex 22.9668 17.3287 -86.5
      vertex 22.9668 17.3287 -64.5
    endloop
  endfacet
  facet normal 0.707107 -0.707107 0
    outer loop
      vertex 22.9668 17.3287 -86.5
      vertex 22.6713 17.0332 -64.5
      vertex 22.6713 17.0332 -86.5
    endloop
  endfacet
  facet normal 0.62915 -0.777284 0
    outer loop
      vertex 22.3465 16.7703 -86.5
      vertex 22.6713 17.0332 -64.5
      vertex 22.3465 16.7703 -64.5
    endloop
  endfacet
  facet normal 0.62915 -0.777284 0
    outer loop
      vertex 22.6713 17.0332 -64.5
      vertex 22.3465 16.7703 -86.5
      vertex 22.6713 17.0332 -86.5
    endloop
  endfacet
  facet normal 0.891003 0.453997 0
    outer loop
      vertex 23.647 21.6238 -64.5
      vertex 23.4573 21.9961 -86.5
      vertex 23.4573 21.9961 -64.5
    endloop
  endfacet
  facet normal 0.891003 0.453997 0
    outer loop
      vertex 23.4573 21.9961 -86.5
      vertex 23.647 21.6238 -64.5
      vertex 23.647 21.6238 -86.5
    endloop
  endfacet
  facet normal 0.998626 0.0524081 0
    outer loop
      vertex 23.9922 20 -64.5
      vertex 23.9703 20.4173 -86.5
      vertex 23.9703 20.4173 -64.5
    endloop
  endfacet
  facet normal 0.998626 0.0524081 0
    outer loop
      vertex 23.9703 20.4173 -86.5
      vertex 23.9922 20 -64.5
      vertex 23.9922 20 -86.5
    endloop
  endfacet
  facet normal 0.707107 0.707107 0
    outer loop
      vertex 22.9668 22.6713 -64.5
      vertex 22.6713 22.9668 -86.5
      vertex 22.6713 22.9668 -64.5
    endloop
  endfacet
  facet normal 0.707107 0.707107 0
    outer loop
      vertex 22.6713 22.9668 -86.5
      vertex 22.9668 22.6713 -64.5
      vertex 22.9668 22.6713 -86.5
    endloop
  endfacet
  facet normal 0.453997 0.891003 -0
    outer loop
      vertex 21.9961 23.4573 -86.5
      vertex 21.6238 23.647 -64.5
      vertex 21.9961 23.4573 -64.5
    endloop
  endfacet
  facet normal 0.453997 0.891003 0
    outer loop
      vertex 21.6238 23.647 -64.5
      vertex 21.9961 23.4573 -86.5
      vertex 21.6238 23.647 -86.5
    endloop
  endfacet
  facet normal -0.62915 -0.777284 0
    outer loop
      vertex 17.3287 17.0332 -86.5
      vertex 17.6535 16.7703 -64.5
      vertex 17.3287 17.0332 -64.5
    endloop
  endfacet
  facet normal -0.62915 -0.777284 -0
    outer loop
      vertex 17.6535 16.7703 -64.5
      vertex 17.3287 17.0332 -86.5
      vertex 17.6535 16.7703 -86.5
    endloop
  endfacet
  facet normal -0.156516 -0.987675 0
    outer loop
      vertex 19.17 16.0951 -86.5
      vertex 19.5827 16.0297 -64.5
      vertex 19.17 16.0951 -64.5
    endloop
  endfacet
  facet normal -0.156516 -0.987675 -0
    outer loop
      vertex 19.5827 16.0297 -64.5
      vertex 19.17 16.0951 -86.5
      vertex 19.5827 16.0297 -86.5
    endloop
  endfacet
  facet normal -0.933537 -0.358482 0
    outer loop
      vertex 16.353 18.3762 -86.5
      vertex 16.2032 18.7663 -64.5
      vertex 16.2032 18.7663 -86.5
    endloop
  endfacet
  facet normal -0.933537 -0.358482 0
    outer loop
      vertex 16.2032 18.7663 -64.5
      vertex 16.353 18.3762 -86.5
      vertex 16.353 18.3762 -64.5
    endloop
  endfacet
  facet normal -0.777284 -0.62915 0
    outer loop
      vertex 17.0332 17.3287 -86.5
      vertex 16.7703 17.6535 -64.5
      vertex 16.7703 17.6535 -86.5
    endloop
  endfacet
  facet normal -0.777284 -0.62915 0
    outer loop
      vertex 16.7703 17.6535 -64.5
      vertex 17.0332 17.3287 -86.5
      vertex 17.0332 17.3287 -64.5
    endloop
  endfacet
  facet normal -0.965968 -0.25866 0
    outer loop
      vertex 16.2032 18.7663 -86.5
      vertex 16.0951 19.17 -64.5
      vertex 16.0951 19.17 -86.5
    endloop
  endfacet
  facet normal -0.965968 -0.25866 0
    outer loop
      vertex 16.0951 19.17 -64.5
      vertex 16.2032 18.7663 -86.5
      vertex 16.2032 18.7663 -64.5
    endloop
  endfacet
  facet normal -0.707107 0.707107 0
    outer loop
      vertex 17.0332 22.6713 -86.5
      vertex 17.3287 22.9668 -64.5
      vertex 17.3287 22.9668 -86.5
    endloop
  endfacet
  facet normal -0.707107 0.707107 0
    outer loop
      vertex 17.3287 22.9668 -64.5
      vertex 17.0332 22.6713 -86.5
      vertex 17.0332 22.6713 -64.5
    endloop
  endfacet
  facet normal 0.777284 -0.62915 0
    outer loop
      vertex 22.9668 17.3287 -64.5
      vertex 23.2297 17.6535 -86.5
      vertex 23.2297 17.6535 -64.5
    endloop
  endfacet
  facet normal 0.777284 -0.62915 0
    outer loop
      vertex 23.2297 17.6535 -86.5
      vertex 22.9668 17.3287 -64.5
      vertex 22.9668 17.3287 -86.5
    endloop
  endfacet
  facet normal 0.838619 -0.544719 0
    outer loop
      vertex 23.2297 17.6535 -64.5
      vertex 23.4573 18.0039 -86.5
      vertex 23.4573 18.0039 -64.5
    endloop
  endfacet
  facet normal 0.838619 -0.544719 0
    outer loop
      vertex 23.4573 18.0039 -86.5
      vertex 23.2297 17.6535 -64.5
      vertex 23.2297 17.6535 -86.5
    endloop
  endfacet
  facet normal 0.891003 -0.453997 0
    outer loop
      vertex 23.4573 18.0039 -64.5
      vertex 23.647 18.3762 -86.5
      vertex 23.647 18.3762 -64.5
    endloop
  endfacet
  facet normal 0.891003 -0.453997 0
    outer loop
      vertex 23.647 18.3762 -86.5
      vertex 23.4573 18.0039 -64.5
      vertex 23.4573 18.0039 -86.5
    endloop
  endfacet
  facet normal 0.965968 -0.25866 0
    outer loop
      vertex 23.7968 18.7663 -64.5
      vertex 23.9049 19.17 -86.5
      vertex 23.9049 19.17 -64.5
    endloop
  endfacet
  facet normal 0.965968 -0.25866 0
    outer loop
      vertex 23.9049 19.17 -86.5
      vertex 23.7968 18.7663 -64.5
      vertex 23.7968 18.7663 -86.5
    endloop
  endfacet
  facet normal 0.453997 -0.891003 0
    outer loop
      vertex 21.6238 16.353 -86.5
      vertex 21.9961 16.5427 -64.5
      vertex 21.6238 16.353 -64.5
    endloop
  endfacet
  facet normal 0.453997 -0.891003 0
    outer loop
      vertex 21.9961 16.5427 -64.5
      vertex 21.6238 16.353 -86.5
      vertex 21.9961 16.5427 -86.5
    endloop
  endfacet
  facet normal 0.156516 -0.987675 0
    outer loop
      vertex 20.4173 16.0297 -86.5
      vertex 20.83 16.0951 -64.5
      vertex 20.4173 16.0297 -64.5
    endloop
  endfacet
  facet normal 0.156516 -0.987675 0
    outer loop
      vertex 20.83 16.0951 -64.5
      vertex 20.4173 16.0297 -86.5
      vertex 20.83 16.0951 -86.5
    endloop
  endfacet
  facet normal 0.777284 0.62915 0
    outer loop
      vertex 23.2297 22.3465 -64.5
      vertex 22.9668 22.6713 -86.5
      vertex 22.9668 22.6713 -64.5
    endloop
  endfacet
  facet normal 0.777284 0.62915 0
    outer loop
      vertex 22.9668 22.6713 -86.5
      vertex 23.2297 22.3465 -64.5
      vertex 23.2297 22.3465 -86.5
    endloop
  endfacet
  facet normal 0.933537 0.358482 0
    outer loop
      vertex 23.7968 21.2337 -64.5
      vertex 23.647 21.6238 -86.5
      vertex 23.647 21.6238 -64.5
    endloop
  endfacet
  facet normal 0.933537 0.358482 0
    outer loop
      vertex 23.647 21.6238 -86.5
      vertex 23.7968 21.2337 -64.5
      vertex 23.7968 21.2337 -86.5
    endloop
  endfacet
  facet normal 0.965968 0.25866 0
    outer loop
      vertex 23.9049 20.83 -64.5
      vertex 23.7968 21.2337 -86.5
      vertex 23.7968 21.2337 -64.5
    endloop
  endfacet
  facet normal 0.965968 0.25866 0
    outer loop
      vertex 23.7968 21.2337 -86.5
      vertex 23.9049 20.83 -64.5
      vertex 23.9049 20.83 -86.5
    endloop
  endfacet
  facet normal 0.987675 0.156516 0
    outer loop
      vertex 23.9703 20.4173 -64.5
      vertex 23.9049 20.83 -86.5
      vertex 23.9049 20.83 -64.5
    endloop
  endfacet
  facet normal 0.987675 0.156516 0
    outer loop
      vertex 23.9049 20.83 -86.5
      vertex 23.9703 20.4173 -64.5
      vertex 23.9703 20.4173 -86.5
    endloop
  endfacet
  facet normal 0.62915 0.777284 -0
    outer loop
      vertex 22.6713 22.9668 -86.5
      vertex 22.3465 23.2297 -64.5
      vertex 22.6713 22.9668 -64.5
    endloop
  endfacet
  facet normal 0.62915 0.777284 0
    outer loop
      vertex 22.3465 23.2297 -64.5
      vertex 22.6713 22.9668 -86.5
      vertex 22.3465 23.2297 -86.5
    endloop
  endfacet
  facet normal 0.544719 0.838619 -0
    outer loop
      vertex 22.3465 23.2297 -86.5
      vertex 21.9961 23.4573 -64.5
      vertex 22.3465 23.2297 -64.5
    endloop
  endfacet
  facet normal 0.544719 0.838619 0
    outer loop
      vertex 21.9961 23.4573 -64.5
      vertex 22.3465 23.2297 -86.5
      vertex 21.9961 23.4573 -86.5
    endloop
  endfacet
  facet normal 0.25866 0.965968 -0
    outer loop
      vertex 21.2337 23.7968 -86.5
      vertex 20.83 23.9049 -64.5
      vertex 21.2337 23.7968 -64.5
    endloop
  endfacet
  facet normal 0.25866 0.965968 0
    outer loop
      vertex 20.83 23.9049 -64.5
      vertex 21.2337 23.7968 -86.5
      vertex 20.83 23.9049 -86.5
    endloop
  endfacet
  facet normal 0.358482 0.933537 -0
    outer loop
      vertex 21.6238 23.647 -86.5
      vertex 21.2337 23.7968 -64.5
      vertex 21.6238 23.647 -64.5
    endloop
  endfacet
  facet normal 0.358482 0.933537 0
    outer loop
      vertex 21.2337 23.7968 -64.5
      vertex 21.6238 23.647 -86.5
      vertex 21.2337 23.7968 -86.5
    endloop
  endfacet
  facet normal 0.156516 0.987675 -0
    outer loop
      vertex 20.83 23.9049 -86.5
      vertex 20.4173 23.9703 -64.5
      vertex 20.83 23.9049 -64.5
    endloop
  endfacet
  facet normal 0.156516 0.987675 0
    outer loop
      vertex 20.4173 23.9703 -64.5
      vertex 20.83 23.9049 -86.5
      vertex 20.4173 23.9703 -86.5
    endloop
  endfacet
  facet normal -0.544719 -0.838619 0
    outer loop
      vertex 17.6535 16.7703 -86.5
      vertex 18.0039 16.5427 -64.5
      vertex 17.6535 16.7703 -64.5
    endloop
  endfacet
  facet normal -0.544719 -0.838619 -0
    outer loop
      vertex 18.0039 16.5427 -64.5
      vertex 17.6535 16.7703 -86.5
      vertex 18.0039 16.5427 -86.5
    endloop
  endfacet
  facet normal -0.707107 -0.707107 0
    outer loop
      vertex 17.3287 17.0332 -86.5
      vertex 17.0332 17.3287 -64.5
      vertex 17.0332 17.3287 -86.5
    endloop
  endfacet
  facet normal -0.707107 -0.707107 0
    outer loop
      vertex 17.0332 17.3287 -64.5
      vertex 17.3287 17.0332 -86.5
      vertex 17.3287 17.0332 -64.5
    endloop
  endfacet
  facet normal -0.891003 -0.453997 0
    outer loop
      vertex 16.5427 18.0039 -86.5
      vertex 16.353 18.3762 -64.5
      vertex 16.353 18.3762 -86.5
    endloop
  endfacet
  facet normal -0.891003 -0.453997 0
    outer loop
      vertex 16.353 18.3762 -64.5
      vertex 16.5427 18.0039 -86.5
      vertex 16.5427 18.0039 -64.5
    endloop
  endfacet
  facet normal -0.987675 -0.156516 0
    outer loop
      vertex 16.0951 19.17 -86.5
      vertex 16.0297 19.5827 -64.5
      vertex 16.0297 19.5827 -86.5
    endloop
  endfacet
  facet normal -0.987675 -0.156516 0
    outer loop
      vertex 16.0297 19.5827 -64.5
      vertex 16.0951 19.17 -86.5
      vertex 16.0951 19.17 -64.5
    endloop
  endfacet
  facet normal -0.838619 0.544719 0
    outer loop
      vertex 16.5427 21.9961 -86.5
      vertex 16.7703 22.3465 -64.5
      vertex 16.7703 22.3465 -86.5
    endloop
  endfacet
  facet normal -0.838619 0.544719 0
    outer loop
      vertex 16.7703 22.3465 -64.5
      vertex 16.5427 21.9961 -86.5
      vertex 16.5427 21.9961 -64.5
    endloop
  endfacet
  facet normal -0.777284 0.62915 0
    outer loop
      vertex 16.7703 22.3465 -86.5
      vertex 17.0332 22.6713 -64.5
      vertex 17.0332 22.6713 -86.5
    endloop
  endfacet
  facet normal -0.777284 0.62915 0
    outer loop
      vertex 17.0332 22.6713 -64.5
      vertex 16.7703 22.3465 -86.5
      vertex 16.7703 22.3465 -64.5
    endloop
  endfacet
  facet normal 0.933537 -0.358482 0
    outer loop
      vertex 23.647 18.3762 -64.5
      vertex 23.7968 18.7663 -86.5
      vertex 23.7968 18.7663 -64.5
    endloop
  endfacet
  facet normal 0.933537 -0.358482 0
    outer loop
      vertex 23.7968 18.7663 -86.5
      vertex 23.647 18.3762 -64.5
      vertex 23.647 18.3762 -86.5
    endloop
  endfacet
  facet normal 0.987675 -0.156516 0
    outer loop
      vertex 23.9049 19.17 -64.5
      vertex 23.9703 19.5827 -86.5
      vertex 23.9703 19.5827 -64.5
    endloop
  endfacet
  facet normal 0.987675 -0.156516 0
    outer loop
      vertex 23.9703 19.5827 -86.5
      vertex 23.9049 19.17 -64.5
      vertex 23.9049 19.17 -86.5
    endloop
  endfacet
  facet normal 0.544719 -0.838619 0
    outer loop
      vertex 21.9961 16.5427 -86.5
      vertex 22.3465 16.7703 -64.5
      vertex 21.9961 16.5427 -64.5
    endloop
  endfacet
  facet normal 0.544719 -0.838619 0
    outer loop
      vertex 22.3465 16.7703 -64.5
      vertex 21.9961 16.5427 -86.5
      vertex 22.3465 16.7703 -86.5
    endloop
  endfacet
  facet normal 0.358482 -0.933537 0
    outer loop
      vertex 21.2337 16.2032 -86.5
      vertex 21.6238 16.353 -64.5
      vertex 21.2337 16.2032 -64.5
    endloop
  endfacet
  facet normal 0.358482 -0.933537 0
    outer loop
      vertex 21.6238 16.353 -64.5
      vertex 21.2337 16.2032 -86.5
      vertex 21.6238 16.353 -86.5
    endloop
  endfacet
  facet normal 0.838619 0.544719 0
    outer loop
      vertex 23.4573 21.9961 -64.5
      vertex 23.2297 22.3465 -86.5
      vertex 23.2297 22.3465 -64.5
    endloop
  endfacet
  facet normal 0.838619 0.544719 0
    outer loop
      vertex 23.2297 22.3465 -86.5
      vertex 23.4573 21.9961 -64.5
      vertex 23.4573 21.9961 -86.5
    endloop
  endfacet
  facet normal -0.453997 -0.891003 0
    outer loop
      vertex 18.0039 16.5427 -86.5
      vertex 18.3762 16.353 -64.5
      vertex 18.0039 16.5427 -64.5
    endloop
  endfacet
  facet normal -0.453997 -0.891003 -0
    outer loop
      vertex 18.3762 16.353 -64.5
      vertex 18.0039 16.5427 -86.5
      vertex 18.3762 16.353 -86.5
    endloop
  endfacet
  facet normal 0.25866 -0.965968 0
    outer loop
      vertex 20.83 16.0951 -86.5
      vertex 21.2337 16.2032 -64.5
      vertex 20.83 16.0951 -64.5
    endloop
  endfacet
  facet normal 0.25866 -0.965968 0
    outer loop
      vertex 21.2337 16.2032 -64.5
      vertex 20.83 16.0951 -86.5
      vertex 21.2337 16.2032 -86.5
    endloop
  endfacet
  facet normal 0.998631 0.0523081 0
    outer loop
      vertex 24 20 0
      vertex 23.9781 20.4181 -64.5
      vertex 23.9781 20.4181 0
    endloop
  endfacet
  facet normal 0.998631 0.0523081 0
    outer loop
      vertex 23.9781 20.4181 -64.5
      vertex 24 20 0
      vertex 24 20 -64.5
    endloop
  endfacet
  facet normal -0.998631 0.0523081 0
    outer loop
      vertex 16 20 -64.5
      vertex 16.0219 20.4181 0
      vertex 16.0219 20.4181 -64.5
    endloop
  endfacet
  facet normal -0.998631 0.0523081 0
    outer loop
      vertex 16.0219 20.4181 0
      vertex 16 20 -64.5
      vertex 16 20 0
    endloop
  endfacet
  facet normal 0.0523081 0.998631 -0
    outer loop
      vertex 20.4181 23.9781 -64.5
      vertex 20 24 0
      vertex 20.4181 23.9781 0
    endloop
  endfacet
  facet normal 0.0523081 0.998631 0
    outer loop
      vertex 20 24 0
      vertex 20.4181 23.9781 -64.5
      vertex 20 24 -64.5
    endloop
  endfacet
  facet normal 0.707107 0.707107 0
    outer loop
      vertex 22.9726 22.6765 0
      vertex 22.6765 22.9726 -64.5
      vertex 22.6765 22.9726 0
    endloop
  endfacet
  facet normal 0.707107 0.707107 0
    outer loop
      vertex 22.6765 22.9726 -64.5
      vertex 22.9726 22.6765 0
      vertex 22.9726 22.6765 -64.5
    endloop
  endfacet
  facet normal -0.629315 0.77715 0
    outer loop
      vertex 17.6489 23.2361 -64.5
      vertex 17.3235 22.9726 0
      vertex 17.6489 23.2361 0
    endloop
  endfacet
  facet normal -0.629315 0.77715 0
    outer loop
      vertex 17.3235 22.9726 0
      vertex 17.6489 23.2361 -64.5
      vertex 17.3235 22.9726 -64.5
    endloop
  endfacet
  facet normal -0.258851 0.965917 0
    outer loop
      vertex 19.1684 23.9126 -64.5
      vertex 18.7639 23.8042 0
      vertex 19.1684 23.9126 0
    endloop
  endfacet
  facet normal -0.258851 0.965917 0
    outer loop
      vertex 18.7639 23.8042 0
      vertex 19.1684 23.9126 -64.5
      vertex 18.7639 23.8042 -64.5
    endloop
  endfacet
  facet normal 0.933592 0.358339 0
    outer loop
      vertex 23.8042 21.2361 0
      vertex 23.6542 21.6269 -64.5
      vertex 23.6542 21.6269 0
    endloop
  endfacet
  facet normal 0.933592 0.358339 0
    outer loop
      vertex 23.6542 21.6269 -64.5
      vertex 23.8042 21.2361 0
      vertex 23.8042 21.2361 -64.5
    endloop
  endfacet
  facet normal 0.358339 0.933592 -0
    outer loop
      vertex 21.6269 23.6542 -64.5
      vertex 21.2361 23.8042 0
      vertex 21.6269 23.6542 0
    endloop
  endfacet
  facet normal 0.358339 0.933592 0
    outer loop
      vertex 21.2361 23.8042 0
      vertex 21.6269 23.6542 -64.5
      vertex 21.2361 23.8042 -64.5
    endloop
  endfacet
  facet normal 0.544627 0.838678 -0
    outer loop
      vertex 22.3511 23.2361 -64.5
      vertex 22 23.4641 0
      vertex 22.3511 23.2361 0
    endloop
  endfacet
  facet normal 0.544627 0.838678 0
    outer loop
      vertex 22 23.4641 0
      vertex 22.3511 23.2361 -64.5
      vertex 22 23.4641 -64.5
    endloop
  endfacet
  facet normal -0.89101 0.453983 0
    outer loop
      vertex 16.3458 21.6269 -64.5
      vertex 16.5359 22 0
      vertex 16.5359 22 -64.5
    endloop
  endfacet
  facet normal -0.89101 0.453983 0
    outer loop
      vertex 16.5359 22 0
      vertex 16.3458 21.6269 -64.5
      vertex 16.3458 21.6269 0
    endloop
  endfacet
  facet normal -0.0523081 0.998631 0
    outer loop
      vertex 20 24 -64.5
      vertex 19.5819 23.9781 0
      vertex 20 24 0
    endloop
  endfacet
  facet normal -0.0523081 0.998631 0
    outer loop
      vertex 19.5819 23.9781 0
      vertex 20 24 -64.5
      vertex 19.5819 23.9781 -64.5
    endloop
  endfacet
  facet normal -0.998631 -0.0523081 0
    outer loop
      vertex 16.0219 19.5819 -64.5
      vertex 16 20 0
      vertex 16 20 -64.5
    endloop
  endfacet
  facet normal -0.998631 -0.0523081 0
    outer loop
      vertex 16 20 0
      vertex 16.0219 19.5819 -64.5
      vertex 16.0219 19.5819 0
    endloop
  endfacet
  facet normal 0.965917 0.258851 0
    outer loop
      vertex 23.9126 20.8316 0
      vertex 23.8042 21.2361 -64.5
      vertex 23.8042 21.2361 0
    endloop
  endfacet
  facet normal 0.965917 0.258851 0
    outer loop
      vertex 23.8042 21.2361 -64.5
      vertex 23.9126 20.8316 0
      vertex 23.9126 20.8316 -64.5
    endloop
  endfacet
  facet normal 0.987685 0.156453 0
    outer loop
      vertex 23.9781 20.4181 0
      vertex 23.9126 20.8316 -64.5
      vertex 23.9126 20.8316 0
    endloop
  endfacet
  facet normal 0.987685 0.156453 0
    outer loop
      vertex 23.9126 20.8316 -64.5
      vertex 23.9781 20.4181 0
      vertex 23.9781 20.4181 -64.5
    endloop
  endfacet
  facet normal 0.838678 0.544627 0
    outer loop
      vertex 23.4641 22 0
      vertex 23.2361 22.3511 -64.5
      vertex 23.2361 22.3511 0
    endloop
  endfacet
  facet normal 0.838678 0.544627 0
    outer loop
      vertex 23.2361 22.3511 -64.5
      vertex 23.4641 22 0
      vertex 23.4641 22 -64.5
    endloop
  endfacet
  facet normal 0.77715 0.629315 0
    outer loop
      vertex 23.2361 22.3511 0
      vertex 22.9726 22.6765 -64.5
      vertex 22.9726 22.6765 0
    endloop
  endfacet
  facet normal 0.77715 0.629315 0
    outer loop
      vertex 22.9726 22.6765 -64.5
      vertex 23.2361 22.3511 0
      vertex 23.2361 22.3511 -64.5
    endloop
  endfacet
  facet normal 0.89101 0.453983 0
    outer loop
      vertex 23.6542 21.6269 0
      vertex 23.4641 22 -64.5
      vertex 23.4641 22 0
    endloop
  endfacet
  facet normal 0.89101 0.453983 0
    outer loop
      vertex 23.4641 22 -64.5
      vertex 23.6542 21.6269 0
      vertex 23.6542 21.6269 -64.5
    endloop
  endfacet
  facet normal 0.258851 0.965917 -0
    outer loop
      vertex 21.2361 23.8042 -64.5
      vertex 20.8316 23.9126 0
      vertex 21.2361 23.8042 0
    endloop
  endfacet
  facet normal 0.258851 0.965917 0
    outer loop
      vertex 20.8316 23.9126 0
      vertex 21.2361 23.8042 -64.5
      vertex 20.8316 23.9126 -64.5
    endloop
  endfacet
  facet normal 0.156453 0.987685 -0
    outer loop
      vertex 20.8316 23.9126 -64.5
      vertex 20.4181 23.9781 0
      vertex 20.8316 23.9126 0
    endloop
  endfacet
  facet normal 0.156453 0.987685 0
    outer loop
      vertex 20.4181 23.9781 0
      vertex 20.8316 23.9126 -64.5
      vertex 20.4181 23.9781 -64.5
    endloop
  endfacet
  facet normal 0.453983 0.89101 -0
    outer loop
      vertex 22 23.4641 -64.5
      vertex 21.6269 23.6542 0
      vertex 22 23.4641 0
    endloop
  endfacet
  facet normal 0.453983 0.89101 0
    outer loop
      vertex 21.6269 23.6542 0
      vertex 22 23.4641 -64.5
      vertex 21.6269 23.6542 -64.5
    endloop
  endfacet
  facet normal 0.629315 0.77715 -0
    outer loop
      vertex 22.6765 22.9726 -64.5
      vertex 22.3511 23.2361 0
      vertex 22.6765 22.9726 0
    endloop
  endfacet
  facet normal 0.629315 0.77715 0
    outer loop
      vertex 22.3511 23.2361 0
      vertex 22.6765 22.9726 -64.5
      vertex 22.3511 23.2361 -64.5
    endloop
  endfacet
  facet normal -0.965917 0.258851 0
    outer loop
      vertex 16.0874 20.8316 -64.5
      vertex 16.1958 21.2361 0
      vertex 16.1958 21.2361 -64.5
    endloop
  endfacet
  facet normal -0.965917 0.258851 0
    outer loop
      vertex 16.1958 21.2361 0
      vertex 16.0874 20.8316 -64.5
      vertex 16.0874 20.8316 0
    endloop
  endfacet
  facet normal 0 0 -1
    outer loop
      vertex 23.9781 19.5819 -64.5
      vertex 23.9922 20 -64.5
      vertex 24 20 -64.5
    endloop
  endfacet
  facet normal 0 0 -1
    outer loop
      vertex 23.9781 19.5819 -64.5
      vertex 23.9703 19.5827 -64.5
      vertex 23.9922 20 -64.5
    endloop
  endfacet
  facet normal 0 0 -1
    outer loop
      vertex 23.9126 19.1684 -64.5
      vertex 23.9703 19.5827 -64.5
      vertex 23.9781 19.5819 -64.5
    endloop
  endfacet
  facet normal 0 0 -1
    outer loop
      vertex 23.9126 19.1684 -64.5
      vertex 23.9049 19.17 -64.5
      vertex 23.9703 19.5827 -64.5
    endloop
  endfacet
  facet normal 0 0 -1
    outer loop
      vertex 23.8042 18.7639 -64.5
      vertex 23.9049 19.17 -64.5
      vertex 23.9126 19.1684 -64.5
    endloop
  endfacet
  facet normal 0 0 -1
    outer loop
      vertex 23.8042 18.7639 -64.5
      vertex 23.7968 18.7663 -64.5
      vertex 23.9049 19.17 -64.5
    endloop
  endfacet
  facet normal 0 0 -1
    outer loop
      vertex 23.6542 18.3731 -64.5
      vertex 23.7968 18.7663 -64.5
      vertex 23.8042 18.7639 -64.5
    endloop
  endfacet
  facet normal 0 0 -1
    outer loop
      vertex 23.6542 18.3731 -64.5
      vertex 23.647 18.3762 -64.5
      vertex 23.7968 18.7663 -64.5
    endloop
  endfacet
  facet normal 0 0 -1
    outer loop
      vertex 23.4641 18 -64.5
      vertex 23.647 18.3762 -64.5
      vertex 23.6542 18.3731 -64.5
    endloop
  endfacet
  facet normal 0 0 -1
    outer loop
      vertex 23.4641 18 -64.5
      vertex 23.4573 18.0039 -64.5
      vertex 23.647 18.3762 -64.5
    endloop
  endfacet
  facet normal 0 0 -1
    outer loop
      vertex 23.2361 17.6489 -64.5
      vertex 23.4573 18.0039 -64.5
      vertex 23.4641 18 -64.5
    endloop
  endfacet
  facet normal 0 0 -1
    outer loop
      vertex 23.2361 17.6489 -64.5
      vertex 23.2297 17.6535 -64.5
      vertex 23.4573 18.0039 -64.5
    endloop
  endfacet
  facet normal 0 0 -1
    outer loop
      vertex 22.9726 17.3235 -64.5
      vertex 23.2297 17.6535 -64.5
      vertex 23.2361 17.6489 -64.5
    endloop
  endfacet
  facet normal 0 0 -1
    outer loop
      vertex 22.9726 17.3235 -64.5
      vertex 22.9668 17.3287 -64.5
      vertex 23.2297 17.6535 -64.5
    endloop
  endfacet
  facet normal 0 0 -1
    outer loop
      vertex 22.6765 17.0274 -64.5
      vertex 22.9668 17.3287 -64.5
      vertex 22.9726 17.3235 -64.5
    endloop
  endfacet
  facet normal 0 0 -1
    outer loop
      vertex 22.6765 17.0274 -64.5
      vertex 22.6713 17.0332 -64.5
      vertex 22.9668 17.3287 -64.5
    endloop
  endfacet
  facet normal 0 0 -1
    outer loop
      vertex 22.3511 16.7639 -64.5
      vertex 22.6713 17.0332 -64.5
      vertex 22.6765 17.0274 -64.5
    endloop
  endfacet
  facet normal 0 0 -1
    outer loop
      vertex 22.3511 16.7639 -64.5
      vertex 22.3465 16.7703 -64.5
      vertex 22.6713 17.0332 -64.5
    endloop
  endfacet
  facet normal 0 0 -1
    outer loop
      vertex 22 16.5359 -64.5
      vertex 22.3465 16.7703 -64.5
      vertex 22.3511 16.7639 -64.5
    endloop
  endfacet
  facet normal 0 0 -1
    outer loop
      vertex 22 16.5359 -64.5
      vertex 21.9961 16.5427 -64.5
      vertex 22.3465 16.7703 -64.5
    endloop
  endfacet
  facet normal 0 0 -1
    outer loop
      vertex 21.6269 16.3458 -64.5
      vertex 21.9961 16.5427 -64.5
      vertex 22 16.5359 -64.5
    endloop
  endfacet
  facet normal 0 0 -1
    outer loop
      vertex 21.6269 16.3458 -64.5
      vertex 21.6238 16.353 -64.5
      vertex 21.9961 16.5427 -64.5
    endloop
  endfacet
  facet normal 0 0 -1
    outer loop
      vertex 21.2361 16.1958 -64.5
      vertex 21.6238 16.353 -64.5
      vertex 21.6269 16.3458 -64.5
    endloop
  endfacet
  facet normal 0 0 -1
    outer loop
      vertex 21.2361 16.1958 -64.5
      vertex 21.2337 16.2032 -64.5
      vertex 21.6238 16.353 -64.5
    endloop
  endfacet
  facet normal 0 0 -1
    outer loop
      vertex 20.8316 16.0874 -64.5
      vertex 21.2337 16.2032 -64.5
      vertex 21.2361 16.1958 -64.5
    endloop
  endfacet
  facet normal 0 0 -1
    outer loop
      vertex 20.8316 16.0874 -64.5
      vertex 20.83 16.0951 -64.5
      vertex 21.2337 16.2032 -64.5
    endloop
  endfacet
  facet normal 0 0 -1
    outer loop
      vertex 20.4181 16.0219 -64.5
      vertex 20.83 16.0951 -64.5
      vertex 20.8316 16.0874 -64.5
    endloop
  endfacet
  facet normal 0 0 -1
    outer loop
      vertex 20.4181 16.0219 -64.5
      vertex 20.4173 16.0297 -64.5
      vertex 20.83 16.0951 -64.5
    endloop
  endfacet
  facet normal 0 0 -1
    outer loop
      vertex 20 16 -64.5
      vertex 20.4173 16.0297 -64.5
      vertex 20.4181 16.0219 -64.5
    endloop
  endfacet
  facet normal 0 0 -1
    outer loop
      vertex 20 16 -64.5
      vertex 20 16.0078 -64.5
      vertex 20.4173 16.0297 -64.5
    endloop
  endfacet
  facet normal 0 0 -1
    outer loop
      vertex 20 16 -64.5
      vertex 19.5827 16.0297 -64.5
      vertex 20 16.0078 -64.5
    endloop
  endfacet
  facet normal 0 0 -1
    outer loop
      vertex 19.5819 16.0219 -64.5
      vertex 19.5827 16.0297 -64.5
      vertex 20 16 -64.5
    endloop
  endfacet
  facet normal 0 0 -1
    outer loop
      vertex 19.5819 16.0219 -64.5
      vertex 19.17 16.0951 -64.5
      vertex 19.5827 16.0297 -64.5
    endloop
  endfacet
  facet normal 0 0 -1
    outer loop
      vertex 19.1684 16.0874 -64.5
      vertex 19.17 16.0951 -64.5
      vertex 19.5819 16.0219 -64.5
    endloop
  endfacet
  facet normal 0 0 -1
    outer loop
      vertex 19.1684 16.0874 -64.5
      vertex 18.7663 16.2032 -64.5
      vertex 19.17 16.0951 -64.5
    endloop
  endfacet
  facet normal 0 0 -1
    outer loop
      vertex 18.7639 16.1958 -64.5
      vertex 18.7663 16.2032 -64.5
      vertex 19.1684 16.0874 -64.5
    endloop
  endfacet
  facet normal 0 0 -1
    outer loop
      vertex 18.7639 16.1958 -64.5
      vertex 18.3762 16.353 -64.5
      vertex 18.7663 16.2032 -64.5
    endloop
  endfacet
  facet normal 0 0 -1
    outer loop
      vertex 18.3731 16.3458 -64.5
      vertex 18.3762 16.353 -64.5
      vertex 18.7639 16.1958 -64.5
    endloop
  endfacet
  facet normal 0 0 -1
    outer loop
      vertex 18.3731 16.3458 -64.5
      vertex 18.0039 16.5427 -64.5
      vertex 18.3762 16.353 -64.5
    endloop
  endfacet
  facet normal 0 0 -1
    outer loop
      vertex 18 16.5359 -64.5
      vertex 18.0039 16.5427 -64.5
      vertex 18.3731 16.3458 -64.5
    endloop
  endfacet
  facet normal 0 0 -1
    outer loop
      vertex 18 16.5359 -64.5
      vertex 17.6535 16.7703 -64.5
      vertex 18.0039 16.5427 -64.5
    endloop
  endfacet
  facet normal 0 0 -1
    outer loop
      vertex 17.6489 16.7639 -64.5
      vertex 17.6535 16.7703 -64.5
      vertex 18 16.5359 -64.5
    endloop
  endfacet
  facet normal 0 0 -1
    outer loop
      vertex 17.6489 16.7639 -64.5
      vertex 17.3287 17.0332 -64.5
      vertex 17.6535 16.7703 -64.5
    endloop
  endfacet
  facet normal 0 0 -1
    outer loop
      vertex 17.3235 17.0274 -64.5
      vertex 17.3287 17.0332 -64.5
      vertex 17.6489 16.7639 -64.5
    endloop
  endfacet
  facet normal 0 0 -1
    outer loop
      vertex 17.3235 17.0274 -64.5
      vertex 17.0332 17.3287 -64.5
      vertex 17.3287 17.0332 -64.5
    endloop
  endfacet
  facet normal 0 0 -1
    outer loop
      vertex 17.0274 17.3235 -64.5
      vertex 17.0332 17.3287 -64.5
      vertex 17.3235 17.0274 -64.5
    endloop
  endfacet
  facet normal 0 0 -1
    outer loop
      vertex 17.0274 17.3235 -64.5
      vertex 16.7703 17.6535 -64.5
      vertex 17.0332 17.3287 -64.5
    endloop
  endfacet
  facet normal 0 0 -1
    outer loop
      vertex 16.7639 17.6489 -64.5
      vertex 16.7703 17.6535 -64.5
      vertex 17.0274 17.3235 -64.5
    endloop
  endfacet
  facet normal 0 0 -1
    outer loop
      vertex 16.7639 17.6489 -64.5
      vertex 16.5427 18.0039 -64.5
      vertex 16.7703 17.6535 -64.5
    endloop
  endfacet
  facet normal 0 0 -1
    outer loop
      vertex 16.5359 18 -64.5
      vertex 16.5427 18.0039 -64.5
      vertex 16.7639 17.6489 -64.5
    endloop
  endfacet
  facet normal 0 0 -1
    outer loop
      vertex 16.5359 18 -64.5
      vertex 16.353 18.3762 -64.5
      vertex 16.5427 18.0039 -64.5
    endloop
  endfacet
  facet normal 0 0 -1
    outer loop
      vertex 16.3458 18.3731 -64.5
      vertex 16.353 18.3762 -64.5
      vertex 16.5359 18 -64.5
    endloop
  endfacet
  facet normal 0 0 -1
    outer loop
      vertex 16.3458 18.3731 -64.5
      vertex 16.2032 18.7663 -64.5
      vertex 16.353 18.3762 -64.5
    endloop
  endfacet
  facet normal 0 0 -1
    outer loop
      vertex 16.1958 18.7639 -64.5
      vertex 16.2032 18.7663 -64.5
      vertex 16.3458 18.3731 -64.5
    endloop
  endfacet
  facet normal 0 0 -1
    outer loop
      vertex 16.1958 18.7639 -64.5
      vertex 16.0951 19.17 -64.5
      vertex 16.2032 18.7663 -64.5
    endloop
  endfacet
  facet normal 0 0 -1
    outer loop
      vertex 16.0874 19.1684 -64.5
      vertex 16.0951 19.17 -64.5
      vertex 16.1958 18.7639 -64.5
    endloop
  endfacet
  facet normal 0 0 -1
    outer loop
      vertex 16.0874 19.1684 -64.5
      vertex 16.0297 19.5827 -64.5
      vertex 16.0951 19.17 -64.5
    endloop
  endfacet
  facet normal 0 0 -1
    outer loop
      vertex 16.0219 19.5819 -64.5
      vertex 16.0297 19.5827 -64.5
      vertex 16.0874 19.1684 -64.5
    endloop
  endfacet
  facet normal 0 0 -1
    outer loop
      vertex 16.0219 19.5819 -64.5
      vertex 16.0078 20 -64.5
      vertex 16.0297 19.5827 -64.5
    endloop
  endfacet
  facet normal -0 -0 -1
    outer loop
      vertex 16.0078 20 -64.5
      vertex 16.0219 19.5819 -64.5
      vertex 16 20 -64.5
    endloop
  endfacet
  facet normal 0 0 -1
    outer loop
      vertex 23.9922 20 -64.5
      vertex 23.9781 20.4181 -64.5
      vertex 24 20 -64.5
    endloop
  endfacet
  facet normal 0 0 -1
    outer loop
      vertex 23.9703 20.4173 -64.5
      vertex 23.9781 20.4181 -64.5
      vertex 23.9922 20 -64.5
    endloop
  endfacet
  facet normal 0 0 -1
    outer loop
      vertex 23.9703 20.4173 -64.5
      vertex 23.9126 20.8316 -64.5
      vertex 23.9781 20.4181 -64.5
    endloop
  endfacet
  facet normal 0 0 -1
    outer loop
      vertex 23.9049 20.83 -64.5
      vertex 23.9126 20.8316 -64.5
      vertex 23.9703 20.4173 -64.5
    endloop
  endfacet
  facet normal 0 0 -1
    outer loop
      vertex 23.9049 20.83 -64.5
      vertex 23.8042 21.2361 -64.5
      vertex 23.9126 20.8316 -64.5
    endloop
  endfacet
  facet normal 0 0 -1
    outer loop
      vertex 23.7968 21.2337 -64.5
      vertex 23.8042 21.2361 -64.5
      vertex 23.9049 20.83 -64.5
    endloop
  endfacet
  facet normal 0 0 -1
    outer loop
      vertex 23.7968 21.2337 -64.5
      vertex 23.6542 21.6269 -64.5
      vertex 23.8042 21.2361 -64.5
    endloop
  endfacet
  facet normal 0 0 -1
    outer loop
      vertex 23.647 21.6238 -64.5
      vertex 23.6542 21.6269 -64.5
      vertex 23.7968 21.2337 -64.5
    endloop
  endfacet
  facet normal 0 0 -1
    outer loop
      vertex 23.647 21.6238 -64.5
      vertex 23.4641 22 -64.5
      vertex 23.6542 21.6269 -64.5
    endloop
  endfacet
  facet normal 0 0 -1
    outer loop
      vertex 23.4573 21.9961 -64.5
      vertex 23.4641 22 -64.5
      vertex 23.647 21.6238 -64.5
    endloop
  endfacet
  facet normal 0 0 -1
    outer loop
      vertex 23.4573 21.9961 -64.5
      vertex 23.2361 22.3511 -64.5
      vertex 23.4641 22 -64.5
    endloop
  endfacet
  facet normal 0 0 -1
    outer loop
      vertex 23.2297 22.3465 -64.5
      vertex 23.2361 22.3511 -64.5
      vertex 23.4573 21.9961 -64.5
    endloop
  endfacet
  facet normal 0 0 -1
    outer loop
      vertex 23.2297 22.3465 -64.5
      vertex 22.9726 22.6765 -64.5
      vertex 23.2361 22.3511 -64.5
    endloop
  endfacet
  facet normal 0 0 -1
    outer loop
      vertex 22.9668 22.6713 -64.5
      vertex 22.9726 22.6765 -64.5
      vertex 23.2297 22.3465 -64.5
    endloop
  endfacet
  facet normal 0 0 -1
    outer loop
      vertex 22.9668 22.6713 -64.5
      vertex 22.6765 22.9726 -64.5
      vertex 22.9726 22.6765 -64.5
    endloop
  endfacet
  facet normal 0 0 -1
    outer loop
      vertex 22.6713 22.9668 -64.5
      vertex 22.6765 22.9726 -64.5
      vertex 22.9668 22.6713 -64.5
    endloop
  endfacet
  facet normal 0 0 -1
    outer loop
      vertex 22.6713 22.9668 -64.5
      vertex 22.3511 23.2361 -64.5
      vertex 22.6765 22.9726 -64.5
    endloop
  endfacet
  facet normal 0 0 -1
    outer loop
      vertex 22.3465 23.2297 -64.5
      vertex 22.3511 23.2361 -64.5
      vertex 22.6713 22.9668 -64.5
    endloop
  endfacet
  facet normal 0 0 -1
    outer loop
      vertex 22.3465 23.2297 -64.5
      vertex 22 23.4641 -64.5
      vertex 22.3511 23.2361 -64.5
    endloop
  endfacet
  facet normal 0 0 -1
    outer loop
      vertex 21.9961 23.4573 -64.5
      vertex 22 23.4641 -64.5
      vertex 22.3465 23.2297 -64.5
    endloop
  endfacet
  facet normal 0 0 -1
    outer loop
      vertex 21.9961 23.4573 -64.5
      vertex 21.6269 23.6542 -64.5
      vertex 22 23.4641 -64.5
    endloop
  endfacet
  facet normal 0 0 -1
    outer loop
      vertex 21.6238 23.647 -64.5
      vertex 21.6269 23.6542 -64.5
      vertex 21.9961 23.4573 -64.5
    endloop
  endfacet
  facet normal 0 0 -1
    outer loop
      vertex 21.6238 23.647 -64.5
      vertex 21.2361 23.8042 -64.5
      vertex 21.6269 23.6542 -64.5
    endloop
  endfacet
  facet normal 0 0 -1
    outer loop
      vertex 21.2337 23.7968 -64.5
      vertex 21.2361 23.8042 -64.5
      vertex 21.6238 23.647 -64.5
    endloop
  endfacet
  facet normal 0 0 -1
    outer loop
      vertex 21.2337 23.7968 -64.5
      vertex 20.8316 23.9126 -64.5
      vertex 21.2361 23.8042 -64.5
    endloop
  endfacet
  facet normal 0 0 -1
    outer loop
      vertex 20.83 23.9049 -64.5
      vertex 20.8316 23.9126 -64.5
      vertex 21.2337 23.7968 -64.5
    endloop
  endfacet
  facet normal 0 0 -1
    outer loop
      vertex 20.83 23.9049 -64.5
      vertex 20.4181 23.9781 -64.5
      vertex 20.8316 23.9126 -64.5
    endloop
  endfacet
  facet normal 0 0 -1
    outer loop
      vertex 20.4173 23.9703 -64.5
      vertex 20.4181 23.9781 -64.5
      vertex 20.83 23.9049 -64.5
    endloop
  endfacet
  facet normal 0 0 -1
    outer loop
      vertex 20 23.9922 -64.5
      vertex 20.4181 23.9781 -64.5
      vertex 20.4173 23.9703 -64.5
    endloop
  endfacet
  facet normal 0 0 -1
    outer loop
      vertex 20 23.9922 -64.5
      vertex 20 24 -64.5
      vertex 20.4181 23.9781 -64.5
    endloop
  endfacet
  facet normal 0 0 -1
    outer loop
      vertex 19.5827 23.9703 -64.5
      vertex 20 24 -64.5
      vertex 20 23.9922 -64.5
    endloop
  endfacet
  facet normal 0 0 -1
    outer loop
      vertex 19.5827 23.9703 -64.5
      vertex 19.5819 23.9781 -64.5
      vertex 20 24 -64.5
    endloop
  endfacet
  facet normal 0 0 -1
    outer loop
      vertex 19.17 23.9049 -64.5
      vertex 19.5819 23.9781 -64.5
      vertex 19.5827 23.9703 -64.5
    endloop
  endfacet
  facet normal 0 0 -1
    outer loop
      vertex 19.17 23.9049 -64.5
      vertex 19.1684 23.9126 -64.5
      vertex 19.5819 23.9781 -64.5
    endloop
  endfacet
  facet normal 0 0 -1
    outer loop
      vertex 18.7663 23.7968 -64.5
      vertex 19.1684 23.9126 -64.5
      vertex 19.17 23.9049 -64.5
    endloop
  endfacet
  facet normal 0 0 -1
    outer loop
      vertex 18.7663 23.7968 -64.5
      vertex 18.7639 23.8042 -64.5
      vertex 19.1684 23.9126 -64.5
    endloop
  endfacet
  facet normal 0 0 -1
    outer loop
      vertex 18.3762 23.647 -64.5
      vertex 18.7639 23.8042 -64.5
      vertex 18.7663 23.7968 -64.5
    endloop
  endfacet
  facet normal 0 0 -1
    outer loop
      vertex 18.3762 23.647 -64.5
      vertex 18.3731 23.6542 -64.5
      vertex 18.7639 23.8042 -64.5
    endloop
  endfacet
  facet normal 0 0 -1
    outer loop
      vertex 18.0039 23.4573 -64.5
      vertex 18.3731 23.6542 -64.5
      vertex 18.3762 23.647 -64.5
    endloop
  endfacet
  facet normal 0 0 -1
    outer loop
      vertex 18.0039 23.4573 -64.5
      vertex 18 23.4641 -64.5
      vertex 18.3731 23.6542 -64.5
    endloop
  endfacet
  facet normal 0 0 -1
    outer loop
      vertex 17.6535 23.2297 -64.5
      vertex 18 23.4641 -64.5
      vertex 18.0039 23.4573 -64.5
    endloop
  endfacet
  facet normal 0 0 -1
    outer loop
      vertex 17.6535 23.2297 -64.5
      vertex 17.6489 23.2361 -64.5
      vertex 18 23.4641 -64.5
    endloop
  endfacet
  facet normal 0 0 -1
    outer loop
      vertex 17.3287 22.9668 -64.5
      vertex 17.6489 23.2361 -64.5
      vertex 17.6535 23.2297 -64.5
    endloop
  endfacet
  facet normal 0 0 -1
    outer loop
      vertex 17.3287 22.9668 -64.5
      vertex 17.3235 22.9726 -64.5
      vertex 17.6489 23.2361 -64.5
    endloop
  endfacet
  facet normal 0 0 -1
    outer loop
      vertex 17.0332 22.6713 -64.5
      vertex 17.3235 22.9726 -64.5
      vertex 17.3287 22.9668 -64.5
    endloop
  endfacet
  facet normal 0 0 -1
    outer loop
      vertex 17.0332 22.6713 -64.5
      vertex 17.0274 22.6765 -64.5
      vertex 17.3235 22.9726 -64.5
    endloop
  endfacet
  facet normal 0 0 -1
    outer loop
      vertex 16.7703 22.3465 -64.5
      vertex 17.0274 22.6765 -64.5
      vertex 17.0332 22.6713 -64.5
    endloop
  endfacet
  facet normal 0 0 -1
    outer loop
      vertex 16.7703 22.3465 -64.5
      vertex 16.7639 22.3511 -64.5
      vertex 17.0274 22.6765 -64.5
    endloop
  endfacet
  facet normal 0 0 -1
    outer loop
      vertex 16.5427 21.9961 -64.5
      vertex 16.7639 22.3511 -64.5
      vertex 16.7703 22.3465 -64.5
    endloop
  endfacet
  facet normal 0 0 -1
    outer loop
      vertex 16.5427 21.9961 -64.5
      vertex 16.5359 22 -64.5
      vertex 16.7639 22.3511 -64.5
    endloop
  endfacet
  facet normal 0 0 -1
    outer loop
      vertex 16.353 21.6238 -64.5
      vertex 16.5359 22 -64.5
      vertex 16.5427 21.9961 -64.5
    endloop
  endfacet
  facet normal 0 0 -1
    outer loop
      vertex 16.353 21.6238 -64.5
      vertex 16.3458 21.6269 -64.5
      vertex 16.5359 22 -64.5
    endloop
  endfacet
  facet normal 0 0 -1
    outer loop
      vertex 16.2032 21.2337 -64.5
      vertex 16.3458 21.6269 -64.5
      vertex 16.353 21.6238 -64.5
    endloop
  endfacet
  facet normal 0 0 -1
    outer loop
      vertex 16.2032 21.2337 -64.5
      vertex 16.1958 21.2361 -64.5
      vertex 16.3458 21.6269 -64.5
    endloop
  endfacet
  facet normal 0 0 -1
    outer loop
      vertex 16.0951 20.83 -64.5
      vertex 16.1958 21.2361 -64.5
      vertex 16.2032 21.2337 -64.5
    endloop
  endfacet
  facet normal 0 0 -1
    outer loop
      vertex 16.0951 20.83 -64.5
      vertex 16.0874 20.8316 -64.5
      vertex 16.1958 21.2361 -64.5
    endloop
  endfacet
  facet normal 0 0 -1
    outer loop
      vertex 16.0297 20.4173 -64.5
      vertex 16.0874 20.8316 -64.5
      vertex 16.0951 20.83 -64.5
    endloop
  endfacet
  facet normal 0 0 -1
    outer loop
      vertex 16.0297 20.4173 -64.5
      vertex 16.0219 20.4181 -64.5
      vertex 16.0874 20.8316 -64.5
    endloop
  endfacet
  facet normal 0 0 -1
    outer loop
      vertex 16.0078 20 -64.5
      vertex 16.0219 20.4181 -64.5
      vertex 16.0297 20.4173 -64.5
    endloop
  endfacet
  facet normal 0 0 -1
    outer loop
      vertex 16.0219 20.4181 -64.5
      vertex 16.0078 20 -64.5
      vertex 16 20 -64.5
    endloop
  endfacet
  facet normal -0.77715 0.629315 0
    outer loop
      vertex 16.7639 22.3511 -64.5
      vertex 17.0274 22.6765 0
      vertex 17.0274 22.6765 -64.5
    endloop
  endfacet
  facet normal -0.77715 0.629315 0
    outer loop
      vertex 17.0274 22.6765 0
      vertex 16.7639 22.3511 -64.5
      vertex 16.7639 22.3511 0
    endloop
  endfacet
  facet normal -0.707107 0.707107 0
    outer loop
      vertex 17.0274 22.6765 -64.5
      vertex 17.3235 22.9726 0
      vertex 17.3235 22.9726 -64.5
    endloop
  endfacet
  facet normal -0.707107 0.707107 0
    outer loop
      vertex 17.3235 22.9726 0
      vertex 17.0274 22.6765 -64.5
      vertex 17.0274 22.6765 0
    endloop
  endfacet
  facet normal -0.838678 0.544627 0
    outer loop
      vertex 16.5359 22 -64.5
      vertex 16.7639 22.3511 0
      vertex 16.7639 22.3511 -64.5
    endloop
  endfacet
  facet normal -0.838678 0.544627 0
    outer loop
      vertex 16.7639 22.3511 0
      vertex 16.5359 22 -64.5
      vertex 16.5359 22 0
    endloop
  endfacet
  facet normal -0.933592 0.358339 0
    outer loop
      vertex 16.1958 21.2361 -64.5
      vertex 16.3458 21.6269 0
      vertex 16.3458 21.6269 -64.5
    endloop
  endfacet
  facet normal -0.933592 0.358339 0
    outer loop
      vertex 16.3458 21.6269 0
      vertex 16.1958 21.2361 -64.5
      vertex 16.1958 21.2361 0
    endloop
  endfacet
  facet normal -0.987685 0.156453 0
    outer loop
      vertex 16.0219 20.4181 -64.5
      vertex 16.0874 20.8316 0
      vertex 16.0874 20.8316 -64.5
    endloop
  endfacet
  facet normal -0.987685 0.156453 0
    outer loop
      vertex 16.0874 20.8316 0
      vertex 16.0219 20.4181 -64.5
      vertex 16.0219 20.4181 0
    endloop
  endfacet
  facet normal -0.453983 0.89101 0
    outer loop
      vertex 18.3731 23.6542 -64.5
      vertex 18 23.4641 0
      vertex 18.3731 23.6542 0
    endloop
  endfacet
  facet normal -0.453983 0.89101 0
    outer loop
      vertex 18 23.4641 0
      vertex 18.3731 23.6542 -64.5
      vertex 18 23.4641 -64.5
    endloop
  endfacet
  facet normal -0.358339 0.933592 0
    outer loop
      vertex 18.7639 23.8042 -64.5
      vertex 18.3731 23.6542 0
      vertex 18.7639 23.8042 0
    endloop
  endfacet
  facet normal -0.358339 0.933592 0
    outer loop
      vertex 18.3731 23.6542 0
      vertex 18.7639 23.8042 -64.5
      vertex 18.3731 23.6542 -64.5
    endloop
  endfacet
  facet normal -0.544627 0.838678 0
    outer loop
      vertex 18 23.4641 -64.5
      vertex 17.6489 23.2361 0
      vertex 18 23.4641 0
    endloop
  endfacet
  facet normal -0.544627 0.838678 0
    outer loop
      vertex 17.6489 23.2361 0
      vertex 18 23.4641 -64.5
      vertex 17.6489 23.2361 -64.5
    endloop
  endfacet
  facet normal -0.156453 0.987685 0
    outer loop
      vertex 19.5819 23.9781 -64.5
      vertex 19.1684 23.9126 0
      vertex 19.5819 23.9781 0
    endloop
  endfacet
  facet normal -0.156453 0.987685 0
    outer loop
      vertex 19.1684 23.9126 0
      vertex 19.5819 23.9781 -64.5
      vertex 19.1684 23.9126 -64.5
    endloop
  endfacet
  facet normal 0.998631 -0.0523081 0
    outer loop
      vertex 23.9781 19.5819 0
      vertex 24 20 -64.5
      vertex 24 20 0
    endloop
  endfacet
  facet normal 0.998631 -0.0523081 0
    outer loop
      vertex 24 20 -64.5
      vertex 23.9781 19.5819 0
      vertex 23.9781 19.5819 -64.5
    endloop
  endfacet
  facet normal 0.0523081 -0.998631 0
    outer loop
      vertex 20 16 -64.5
      vertex 20.4181 16.0219 0
      vertex 20 16 0
    endloop
  endfacet
  facet normal 0.0523081 -0.998631 0
    outer loop
      vertex 20.4181 16.0219 0
      vertex 20 16 -64.5
      vertex 20.4181 16.0219 -64.5
    endloop
  endfacet
  facet normal 0.258851 -0.965917 0
    outer loop
      vertex 20.8316 16.0874 -64.5
      vertex 21.2361 16.1958 0
      vertex 20.8316 16.0874 0
    endloop
  endfacet
  facet normal 0.258851 -0.965917 0
    outer loop
      vertex 21.2361 16.1958 0
      vertex 20.8316 16.0874 -64.5
      vertex 21.2361 16.1958 -64.5
    endloop
  endfacet
  facet normal 0.629315 -0.77715 0
    outer loop
      vertex 22.3511 16.7639 -64.5
      vertex 22.6765 17.0274 0
      vertex 22.3511 16.7639 0
    endloop
  endfacet
  facet normal 0.629315 -0.77715 0
    outer loop
      vertex 22.6765 17.0274 0
      vertex 22.3511 16.7639 -64.5
      vertex 22.6765 17.0274 -64.5
    endloop
  endfacet
  facet normal 0.453983 -0.89101 0
    outer loop
      vertex 21.6269 16.3458 -64.5
      vertex 22 16.5359 0
      vertex 21.6269 16.3458 0
    endloop
  endfacet
  facet normal 0.453983 -0.89101 0
    outer loop
      vertex 22 16.5359 0
      vertex 21.6269 16.3458 -64.5
      vertex 22 16.5359 -64.5
    endloop
  endfacet
  facet normal 0.77715 -0.629315 0
    outer loop
      vertex 22.9726 17.3235 0
      vertex 23.2361 17.6489 -64.5
      vertex 23.2361 17.6489 0
    endloop
  endfacet
  facet normal 0.77715 -0.629315 0
    outer loop
      vertex 23.2361 17.6489 -64.5
      vertex 22.9726 17.3235 0
      vertex 22.9726 17.3235 -64.5
    endloop
  endfacet
  facet normal 0.89101 -0.453983 0
    outer loop
      vertex 23.4641 18 0
      vertex 23.6542 18.3731 -64.5
      vertex 23.6542 18.3731 0
    endloop
  endfacet
  facet normal 0.89101 -0.453983 0
    outer loop
      vertex 23.6542 18.3731 -64.5
      vertex 23.4641 18 0
      vertex 23.4641 18 -64.5
    endloop
  endfacet
  facet normal -0.707107 -0.707107 0
    outer loop
      vertex 17.3235 17.0274 -64.5
      vertex 17.0274 17.3235 0
      vertex 17.0274 17.3235 -64.5
    endloop
  endfacet
  facet normal -0.707107 -0.707107 0
    outer loop
      vertex 17.0274 17.3235 0
      vertex 17.3235 17.0274 -64.5
      vertex 17.3235 17.0274 0
    endloop
  endfacet
  facet normal -0.544627 -0.838678 0
    outer loop
      vertex 17.6489 16.7639 -64.5
      vertex 18 16.5359 0
      vertex 17.6489 16.7639 0
    endloop
  endfacet
  facet normal -0.544627 -0.838678 -0
    outer loop
      vertex 18 16.5359 0
      vertex 17.6489 16.7639 -64.5
      vertex 18 16.5359 -64.5
    endloop
  endfacet
  facet normal -0.358339 -0.933592 0
    outer loop
      vertex 18.3731 16.3458 -64.5
      vertex 18.7639 16.1958 0
      vertex 18.3731 16.3458 0
    endloop
  endfacet
  facet normal -0.358339 -0.933592 -0
    outer loop
      vertex 18.7639 16.1958 0
      vertex 18.3731 16.3458 -64.5
      vertex 18.7639 16.1958 -64.5
    endloop
  endfacet
  facet normal -0.156453 -0.987685 0
    outer loop
      vertex 19.1684 16.0874 -64.5
      vertex 19.5819 16.0219 0
      vertex 19.1684 16.0874 0
    endloop
  endfacet
  facet normal -0.156453 -0.987685 -0
    outer loop
      vertex 19.5819 16.0219 0
      vertex 19.1684 16.0874 -64.5
      vertex 19.5819 16.0219 -64.5
    endloop
  endfacet
  facet normal -0.933592 -0.358339 0
    outer loop
      vertex 16.3458 18.3731 -64.5
      vertex 16.1958 18.7639 0
      vertex 16.1958 18.7639 -64.5
    endloop
  endfacet
  facet normal -0.933592 -0.358339 0
    outer loop
      vertex 16.1958 18.7639 0
      vertex 16.3458 18.3731 -64.5
      vertex 16.3458 18.3731 0
    endloop
  endfacet
  facet normal -0.838678 -0.544627 0
    outer loop
      vertex 16.7639 17.6489 -64.5
      vertex 16.5359 18 0
      vertex 16.5359 18 -64.5
    endloop
  endfacet
  facet normal -0.838678 -0.544627 0
    outer loop
      vertex 16.5359 18 0
      vertex 16.7639 17.6489 -64.5
      vertex 16.7639 17.6489 0
    endloop
  endfacet
  facet normal -0.987685 -0.156453 0
    outer loop
      vertex 16.0874 19.1684 -64.5
      vertex 16.0219 19.5819 0
      vertex 16.0219 19.5819 -64.5
    endloop
  endfacet
  facet normal -0.987685 -0.156453 0
    outer loop
      vertex 16.0219 19.5819 0
      vertex 16.0874 19.1684 -64.5
      vertex 16.0874 19.1684 0
    endloop
  endfacet
  facet normal -0.965917 -0.258851 0
    outer loop
      vertex 16.1958 18.7639 -64.5
      vertex 16.0874 19.1684 0
      vertex 16.0874 19.1684 -64.5
    endloop
  endfacet
  facet normal -0.965917 -0.258851 0
    outer loop
      vertex 16.0874 19.1684 0
      vertex 16.1958 18.7639 -64.5
      vertex 16.1958 18.7639 0
    endloop
  endfacet
  facet normal 0.156453 -0.987685 0
    outer loop
      vertex 20.4181 16.0219 -64.5
      vertex 20.8316 16.0874 0
      vertex 20.4181 16.0219 0
    endloop
  endfacet
  facet normal 0.156453 -0.987685 0
    outer loop
      vertex 20.8316 16.0874 0
      vertex 20.4181 16.0219 -64.5
      vertex 20.8316 16.0874 -64.5
    endloop
  endfacet
  facet normal 0.358339 -0.933592 0
    outer loop
      vertex 21.2361 16.1958 -64.5
      vertex 21.6269 16.3458 0
      vertex 21.2361 16.1958 0
    endloop
  endfacet
  facet normal 0.358339 -0.933592 0
    outer loop
      vertex 21.6269 16.3458 0
      vertex 21.2361 16.1958 -64.5
      vertex 21.6269 16.3458 -64.5
    endloop
  endfacet
  facet normal 0.707107 -0.707107 0
    outer loop
      vertex 22.6765 17.0274 0
      vertex 22.9726 17.3235 -64.5
      vertex 22.9726 17.3235 0
    endloop
  endfacet
  facet normal 0.707107 -0.707107 0
    outer loop
      vertex 22.9726 17.3235 -64.5
      vertex 22.6765 17.0274 0
      vertex 22.6765 17.0274 -64.5
    endloop
  endfacet
  facet normal 0.544627 -0.838678 0
    outer loop
      vertex 22 16.5359 -64.5
      vertex 22.3511 16.7639 0
      vertex 22 16.5359 0
    endloop
  endfacet
  facet normal 0.544627 -0.838678 0
    outer loop
      vertex 22.3511 16.7639 0
      vertex 22 16.5359 -64.5
      vertex 22.3511 16.7639 -64.5
    endloop
  endfacet
  facet normal 0.838678 -0.544627 0
    outer loop
      vertex 23.2361 17.6489 0
      vertex 23.4641 18 -64.5
      vertex 23.4641 18 0
    endloop
  endfacet
  facet normal 0.838678 -0.544627 0
    outer loop
      vertex 23.4641 18 -64.5
      vertex 23.2361 17.6489 0
      vertex 23.2361 17.6489 -64.5
    endloop
  endfacet
  facet normal 0.933592 -0.358339 0
    outer loop
      vertex 23.6542 18.3731 0
      vertex 23.8042 18.7639 -64.5
      vertex 23.8042 18.7639 0
    endloop
  endfacet
  facet normal 0.933592 -0.358339 0
    outer loop
      vertex 23.8042 18.7639 -64.5
      vertex 23.6542 18.3731 0
      vertex 23.6542 18.3731 -64.5
    endloop
  endfacet
  facet normal 0.987685 -0.156453 0
    outer loop
      vertex 23.9126 19.1684 0
      vertex 23.9781 19.5819 -64.5
      vertex 23.9781 19.5819 0
    endloop
  endfacet
  facet normal 0.987685 -0.156453 0
    outer loop
      vertex 23.9781 19.5819 -64.5
      vertex 23.9126 19.1684 0
      vertex 23.9126 19.1684 -64.5
    endloop
  endfacet
  facet normal 0.965917 -0.258851 0
    outer loop
      vertex 23.8042 18.7639 0
      vertex 23.9126 19.1684 -64.5
      vertex 23.9126 19.1684 0
    endloop
  endfacet
  facet normal 0.965917 -0.258851 0
    outer loop
      vertex 23.9126 19.1684 -64.5
      vertex 23.8042 18.7639 0
      vertex 23.8042 18.7639 -64.5
    endloop
  endfacet
  facet normal -0.629315 -0.77715 0
    outer loop
      vertex 17.3235 17.0274 -64.5
      vertex 17.6489 16.7639 0
      vertex 17.3235 17.0274 0
    endloop
  endfacet
  facet normal -0.629315 -0.77715 -0
    outer loop
      vertex 17.6489 16.7639 0
      vertex 17.3235 17.0274 -64.5
      vertex 17.6489 16.7639 -64.5
    endloop
  endfacet
  facet normal -0.453983 -0.89101 0
    outer loop
      vertex 18 16.5359 -64.5
      vertex 18.3731 16.3458 0
      vertex 18 16.5359 0
    endloop
  endfacet
  facet normal -0.453983 -0.89101 -0
    outer loop
      vertex 18.3731 16.3458 0
      vertex 18 16.5359 -64.5
      vertex 18.3731 16.3458 -64.5
    endloop
  endfacet
  facet normal -0.258851 -0.965917 0
    outer loop
      vertex 18.7639 16.1958 -64.5
      vertex 19.1684 16.0874 0
      vertex 18.7639 16.1958 0
    endloop
  endfacet
  facet normal -0.258851 -0.965917 -0
    outer loop
      vertex 19.1684 16.0874 0
      vertex 18.7639 16.1958 -64.5
      vertex 19.1684 16.0874 -64.5
    endloop
  endfacet
  facet normal -0.0523081 -0.998631 0
    outer loop
      vertex 19.5819 16.0219 -64.5
      vertex 20 16 0
      vertex 19.5819 16.0219 0
    endloop
  endfacet
  facet normal -0.0523081 -0.998631 -0
    outer loop
      vertex 20 16 0
      vertex 19.5819 16.0219 -64.5
      vertex 20 16 -64.5
    endloop
  endfacet
  facet normal -0.89101 -0.453983 0
    outer loop
      vertex 16.5359 18 -64.5
      vertex 16.3458 18.3731 0
      vertex 16.3458 18.3731 -64.5
    endloop
  endfacet
  facet normal -0.89101 -0.453983 0
    outer loop
      vertex 16.3458 18.3731 0
      vertex 16.5359 18 -64.5
      vertex 16.5359 18 0
    endloop
  endfacet
  facet normal -0.77715 -0.629315 0
    outer loop
      vertex 17.0274 17.3235 -64.5
      vertex 16.7639 17.6489 0
      vertex 16.7639 17.6489 -64.5
    endloop
  endfacet
  facet normal -0.77715 -0.629315 0
    outer loop
      vertex 16.7639 17.6489 0
      vertex 17.0274 17.3235 -64.5
      vertex 17.0274 17.3235 0
    endloop
  endfacet
  facet normal 0.866026 0.499999 0
    outer loop
      vertex 27.5 20 5.65
      vertex 23.75 26.4952 0
      vertex 23.75 26.4952 5.65
    endloop
  endfacet
  facet normal 0.866026 0.499999 0
    outer loop
      vertex 23.75 26.4952 0
      vertex 27.5 20 5.65
      vertex 27.5 20 0
    endloop
  endfacet
  facet normal -0.866026 0.499999 0
    outer loop
      vertex 12.5 20 0
      vertex 16.25 26.4952 5.65
      vertex 16.25 26.4952 0
    endloop
  endfacet
  facet normal -0.866026 0.499999 0
    outer loop
      vertex 16.25 26.4952 5.65
      vertex 12.5 20 0
      vertex 12.5 20 5.65
    endloop
  endfacet
  facet normal 0 1 -0
    outer loop
      vertex 23.75 26.4952 0
      vertex 16.25 26.4952 5.65
      vertex 23.75 26.4952 5.65
    endloop
  endfacet
  facet normal 0 1 0
    outer loop
      vertex 16.25 26.4952 5.65
      vertex 23.75 26.4952 0
      vertex 16.25 26.4952 0
    endloop
  endfacet
  facet normal 0 0 1
    outer loop
      vertex 23.75 26.4952 5.65
      vertex 23.75 13.5048 5.65
      vertex 27.5 20 5.65
    endloop
  endfacet
  facet normal -0 0 1
    outer loop
      vertex 16.25 26.4952 5.65
      vertex 23.75 13.5048 5.65
      vertex 23.75 26.4952 5.65
    endloop
  endfacet
  facet normal 0 0 1
    outer loop
      vertex 16.25 26.4952 5.65
      vertex 16.25 13.5048 5.65
      vertex 23.75 13.5048 5.65
    endloop
  endfacet
  facet normal 0 -0 1
    outer loop
      vertex 16.25 13.5048 5.65
      vertex 16.25 26.4952 5.65
      vertex 12.5 20 5.65
    endloop
  endfacet
  facet normal 0.866026 -0.499999 0
    outer loop
      vertex 23.75 13.5048 5.65
      vertex 27.5 20 0
      vertex 27.5 20 5.65
    endloop
  endfacet
  facet normal 0.866026 -0.499999 0
    outer loop
      vertex 27.5 20 0
      vertex 23.75 13.5048 5.65
      vertex 23.75 13.5048 0
    endloop
  endfacet
  facet normal 0 -1 0
    outer loop
      vertex 16.25 13.5048 0
      vertex 23.75 13.5048 5.65
      vertex 16.25 13.5048 5.65
    endloop
  endfacet
  facet normal 0 -1 -0
    outer loop
      vertex 23.75 13.5048 5.65
      vertex 16.25 13.5048 0
      vertex 23.75 13.5048 0
    endloop
  endfacet
  facet normal -0.866026 -0.499999 0
    outer loop
      vertex 16.25 13.5048 0
      vertex 12.5 20 5.65
      vertex 12.5 20 0
    endloop
  endfacet
  facet normal -0.866026 -0.499999 0
    outer loop
      vertex 12.5 20 5.65
      vertex 16.25 13.5048 0
      vertex 16.25 13.5048 5.65
    endloop
  endfacet
endsolid OpenSCAD_Model
