solid OpenSCAD_Model
  facet normal 0.994523 0.104519 0
    outer loop
      vertex 12.7 0 190.5
      vertex 12.4225 2.64048 0
      vertex 12.4225 2.64048 190.5
    endloop
  endfacet
  facet normal 0.994523 0.104519 0
    outer loop
      vertex 12.4225 2.64048 0
      vertex 12.7 0 190.5
      vertex 12.7 0 0
    endloop
  endfacet
  facet normal -0.994523 0.104519 0
    outer loop
      vertex -12.7 0 0
      vertex -12.4225 2.64048 190.5
      vertex -12.4225 2.64048 0
    endloop
  endfacet
  facet normal -0.994523 0.104519 0
    outer loop
      vertex -12.4225 2.64048 190.5
      vertex -12.7 0 0
      vertex -12.7 0 190.5
    endloop
  endfacet
  facet normal 0 1 -0
    outer loop
      vertex 1.32751 12.6304 0
      vertex -1.32751 12.6304 190.5
      vertex 1.32751 12.6304 190.5
    endloop
  endfacet
  facet normal 0 1 0
    outer loop
      vertex -1.32751 12.6304 190.5
      vertex 1.32751 12.6304 0
      vertex -1.32751 12.6304 0
    endloop
  endfacet
  facet normal 0.743149 0.669126 0
    outer loop
      vertex 10.2745 7.46487 190.5
      vertex 8.49796 9.43794 0
      vertex 8.49796 9.43794 190.5
    endloop
  endfacet
  facet normal 0.743149 0.669126 0
    outer loop
      vertex 8.49796 9.43794 0
      vertex 10.2745 7.46487 190.5
      vertex 10.2745 7.46487 0
    endloop
  endfacet
  facet normal 0.951051 0.309035 0
    outer loop
      vertex 12.4225 2.64048 190.5
      vertex 11.602 5.16556 0
      vertex 11.602 5.16556 190.5
    endloop
  endfacet
  facet normal 0.951051 0.309035 0
    outer loop
      vertex 11.602 5.16556 0
      vertex 12.4225 2.64048 190.5
      vertex 12.4225 2.64048 0
    endloop
  endfacet
  facet normal -0.587779 0.809021 0
    outer loop
      vertex -6.35 10.9985 0
      vertex -8.49796 9.43794 190.5
      vertex -6.35 10.9985 190.5
    endloop
  endfacet
  facet normal -0.587779 0.809021 0
    outer loop
      vertex -8.49796 9.43794 190.5
      vertex -6.35 10.9985 0
      vertex -8.49796 9.43794 0
    endloop
  endfacet
  facet normal -0.207908 0.978148 0
    outer loop
      vertex -1.32751 12.6304 0
      vertex -3.92452 12.0784 190.5
      vertex -1.32751 12.6304 190.5
    endloop
  endfacet
  facet normal -0.207908 0.978148 0
    outer loop
      vertex -3.92452 12.0784 190.5
      vertex -1.32751 12.6304 0
      vertex -3.92452 12.0784 0
    endloop
  endfacet
  facet normal 0.866027 0.499998 0
    outer loop
      vertex 11.602 5.16556 190.5
      vertex 10.2745 7.46487 0
      vertex 10.2745 7.46487 190.5
    endloop
  endfacet
  facet normal 0.866027 0.499998 0
    outer loop
      vertex 10.2745 7.46487 0
      vertex 11.602 5.16556 190.5
      vertex 11.602 5.16556 0
    endloop
  endfacet
  facet normal 0.406739 0.913545 -0
    outer loop
      vertex 6.35 10.9985 0
      vertex 3.92452 12.0784 190.5
      vertex 6.35 10.9985 190.5
    endloop
  endfacet
  facet normal 0.406739 0.913545 0
    outer loop
      vertex 3.92452 12.0784 190.5
      vertex 6.35 10.9985 0
      vertex 3.92452 12.0784 0
    endloop
  endfacet
  facet normal 0.207908 0.978148 -0
    outer loop
      vertex 3.92452 12.0784 0
      vertex 1.32751 12.6304 190.5
      vertex 3.92452 12.0784 190.5
    endloop
  endfacet
  facet normal 0.207908 0.978148 0
    outer loop
      vertex 1.32751 12.6304 190.5
      vertex 3.92452 12.0784 0
      vertex 1.32751 12.6304 0
    endloop
  endfacet
  facet normal 0.587779 0.809021 -0
    outer loop
      vertex 8.49796 9.43794 0
      vertex 6.35 10.9985 190.5
      vertex 8.49796 9.43794 190.5
    endloop
  endfacet
  facet normal 0.587779 0.809021 0
    outer loop
      vertex 6.35 10.9985 190.5
      vertex 8.49796 9.43794 0
      vertex 6.35 10.9985 0
    endloop
  endfacet
  facet normal -0.866027 0.499998 0
    outer loop
      vertex -11.602 5.16556 0
      vertex -10.2745 7.46487 190.5
      vertex -10.2745 7.46487 0
    endloop
  endfacet
  facet normal -0.866027 0.499998 0
    outer loop
      vertex -10.2745 7.46487 190.5
      vertex -11.602 5.16556 0
      vertex -11.602 5.16556 190.5
    endloop
  endfacet
  facet normal -0.743149 0.669126 0
    outer loop
      vertex -10.2745 7.46487 0
      vertex -8.49796 9.43794 190.5
      vertex -8.49796 9.43794 0
    endloop
  endfacet
  facet normal -0.743149 0.669126 0
    outer loop
      vertex -8.49796 9.43794 190.5
      vertex -10.2745 7.46487 0
      vertex -10.2745 7.46487 190.5
    endloop
  endfacet
  facet normal -0.951051 0.309035 0
    outer loop
      vertex -12.4225 2.64048 0
      vertex -11.602 5.16556 190.5
      vertex -11.602 5.16556 0
    endloop
  endfacet
  facet normal -0.951051 0.309035 0
    outer loop
      vertex -11.602 5.16556 190.5
      vertex -12.4225 2.64048 0
      vertex -12.4225 2.64048 190.5
    endloop
  endfacet
  facet normal 0 0 1
    outer loop
      vertex 3.175 -6.35 190.5
      vertex 12.7 0 190.5
      vertex 12.4225 2.64048 190.5
    endloop
  endfacet
  facet normal 0 0 1
    outer loop
      vertex 3.175 -6.35 190.5
      vertex 12.4225 2.64048 190.5
      vertex 11.602 5.16556 190.5
    endloop
  endfacet
  facet normal 0 0 1
    outer loop
      vertex 12.7 0 190.5
      vertex 3.175 -6.35 190.5
      vertex 12.4225 -2.64048 190.5
    endloop
  endfacet
  facet normal 0 0 1
    outer loop
      vertex 3.175 -6.35 190.5
      vertex 11.602 5.16556 190.5
      vertex 10.2745 7.46487 190.5
    endloop
  endfacet
  facet normal 0 0 1
    outer loop
      vertex 12.4225 -2.64048 190.5
      vertex 3.175 -6.35 190.5
      vertex 11.602 -5.16556 190.5
    endloop
  endfacet
  facet normal 0 0 1
    outer loop
      vertex 3.175 -6.35 190.5
      vertex 10.2745 7.46487 190.5
      vertex 8.49796 9.43794 190.5
    endloop
  endfacet
  facet normal 0 0 1
    outer loop
      vertex 11.602 -5.16556 190.5
      vertex 3.175 -6.35 190.5
      vertex 10.2745 -7.46487 190.5
    endloop
  endfacet
  facet normal 0 0 1
    outer loop
      vertex 3.175 -6.35 190.5
      vertex 8.49796 9.43794 190.5
      vertex 6.35 10.9985 190.5
    endloop
  endfacet
  facet normal 0 0 1
    outer loop
      vertex 10.2745 -7.46487 190.5
      vertex 3.175 -6.35 190.5
      vertex 8.49796 -9.43794 190.5
    endloop
  endfacet
  facet normal 0 0 1
    outer loop
      vertex 3.175 -6.35 190.5
      vertex 6.35 10.9985 190.5
      vertex 3.92452 12.0784 190.5
    endloop
  endfacet
  facet normal 0 0 1
    outer loop
      vertex 8.49796 -9.43794 190.5
      vertex 3.175 -6.35 190.5
      vertex 6.35 -10.9985 190.5
    endloop
  endfacet
  facet normal 0 0 1
    outer loop
      vertex 6.35 -10.9985 190.5
      vertex 3.175 -6.35 190.5
      vertex 3.92452 -12.0784 190.5
    endloop
  endfacet
  facet normal 0 0 1
    outer loop
      vertex 1.32751 12.6304 190.5
      vertex 3.175 -6.35 190.5
      vertex 3.92452 12.0784 190.5
    endloop
  endfacet
  facet normal -0 0 1
    outer loop
      vertex -1.32751 12.6304 190.5
      vertex 3.175 -6.35 190.5
      vertex 1.32751 12.6304 190.5
    endloop
  endfacet
  facet normal 0 0 1
    outer loop
      vertex -1.32751 12.6304 190.5
      vertex -3.175 -6.35 190.5
      vertex 3.175 -6.35 190.5
    endloop
  endfacet
  facet normal -0 0 1
    outer loop
      vertex -3.92452 12.0784 190.5
      vertex -3.175 -6.35 190.5
      vertex -1.32751 12.6304 190.5
    endloop
  endfacet
  facet normal -0 0 1
    outer loop
      vertex -6.35 10.9985 190.5
      vertex -3.175 -6.35 190.5
      vertex -3.92452 12.0784 190.5
    endloop
  endfacet
  facet normal -0 0 1
    outer loop
      vertex -8.49796 9.43794 190.5
      vertex -3.175 -6.35 190.5
      vertex -6.35 10.9985 190.5
    endloop
  endfacet
  facet normal -0 0 1
    outer loop
      vertex -10.2745 7.46487 190.5
      vertex -3.175 -6.35 190.5
      vertex -8.49796 9.43794 190.5
    endloop
  endfacet
  facet normal 0 0 1
    outer loop
      vertex -3.175 -6.35 190.5
      vertex -3.92452 -12.0784 190.5
      vertex -3.175 -12.2377 190.5
    endloop
  endfacet
  facet normal 0 -0 1
    outer loop
      vertex -6.35 -10.9985 190.5
      vertex -3.175 -6.35 190.5
      vertex -8.49796 -9.43794 190.5
    endloop
  endfacet
  facet normal 0 -0 1
    outer loop
      vertex -3.92452 -12.0784 190.5
      vertex -3.175 -6.35 190.5
      vertex -6.35 -10.9985 190.5
    endloop
  endfacet
  facet normal -0 0 1
    outer loop
      vertex -11.602 5.16556 190.5
      vertex -3.175 -6.35 190.5
      vertex -10.2745 7.46487 190.5
    endloop
  endfacet
  facet normal 0 0 1
    outer loop
      vertex -3.175 -6.35 190.5
      vertex -10.2745 -7.46487 190.5
      vertex -8.49796 -9.43794 190.5
    endloop
  endfacet
  facet normal -0 0 1
    outer loop
      vertex -12.4225 2.64048 190.5
      vertex -3.175 -6.35 190.5
      vertex -11.602 5.16556 190.5
    endloop
  endfacet
  facet normal 0 0 1
    outer loop
      vertex -3.175 -6.35 190.5
      vertex -11.602 -5.16556 190.5
      vertex -10.2745 -7.46487 190.5
    endloop
  endfacet
  facet normal -0 0 1
    outer loop
      vertex -12.7 0 190.5
      vertex -3.175 -6.35 190.5
      vertex -12.4225 2.64048 190.5
    endloop
  endfacet
  facet normal 0 0 1
    outer loop
      vertex -3.175 -6.35 190.5
      vertex -12.4225 -2.64048 190.5
      vertex -11.602 -5.16556 190.5
    endloop
  endfacet
  facet normal 0 0 1
    outer loop
      vertex -3.175 -6.35 190.5
      vertex -12.7 0 190.5
      vertex -12.4225 -2.64048 190.5
    endloop
  endfacet
  facet normal 0 0 1
    outer loop
      vertex 3.92452 -12.0784 190.5
      vertex 3.175 -6.35 190.5
      vertex 3.175 -12.2377 190.5
    endloop
  endfacet
  facet normal -0.406739 0.913545 0
    outer loop
      vertex -3.92452 12.0784 0
      vertex -6.35 10.9985 190.5
      vertex -3.92452 12.0784 190.5
    endloop
  endfacet
  facet normal -0.406739 0.913545 0
    outer loop
      vertex -6.35 10.9985 190.5
      vertex -3.92452 12.0784 0
      vertex -6.35 10.9985 0
    endloop
  endfacet
  facet normal 0.994523 -0.104519 0
    outer loop
      vertex 12.4225 -2.64048 190.5
      vertex 12.7 0 0
      vertex 12.7 0 190.5
    endloop
  endfacet
  facet normal 0.994523 -0.104519 0
    outer loop
      vertex 12.7 0 0
      vertex 12.4225 -2.64048 190.5
      vertex 12.4225 -2.64048 0
    endloop
  endfacet
  facet normal 0 0 -1
    outer loop
      vertex -3.175 -12.2377 0
      vertex -3.92452 -12.0784 0
      vertex -3.175 -6.35 0
    endloop
  endfacet
  facet normal 0 0 -1
    outer loop
      vertex 3.175 -6.35 0
      vertex 12.7 0 0
      vertex 12.4225 -2.64048 0
    endloop
  endfacet
  facet normal 0 0 -1
    outer loop
      vertex 3.175 -6.35 0
      vertex 12.4225 -2.64048 0
      vertex 11.602 -5.16556 0
    endloop
  endfacet
  facet normal -0 0 -1
    outer loop
      vertex 12.7 0 0
      vertex 3.175 -6.35 0
      vertex 12.4225 2.64048 0
    endloop
  endfacet
  facet normal 0 0 -1
    outer loop
      vertex 3.175 -6.35 0
      vertex 11.602 -5.16556 0
      vertex 10.2745 -7.46487 0
    endloop
  endfacet
  facet normal -0 0 -1
    outer loop
      vertex 12.4225 2.64048 0
      vertex 3.175 -6.35 0
      vertex 11.602 5.16556 0
    endloop
  endfacet
  facet normal 0 0 -1
    outer loop
      vertex 3.175 -6.35 0
      vertex 10.2745 -7.46487 0
      vertex 8.49796 -9.43794 0
    endloop
  endfacet
  facet normal -0 0 -1
    outer loop
      vertex 11.602 5.16556 0
      vertex 3.175 -6.35 0
      vertex 10.2745 7.46487 0
    endloop
  endfacet
  facet normal 0 0 -1
    outer loop
      vertex 3.175 -6.35 0
      vertex 8.49796 -9.43794 0
      vertex 6.35 -10.9985 0
    endloop
  endfacet
  facet normal -0 0 -1
    outer loop
      vertex 10.2745 7.46487 0
      vertex 3.175 -6.35 0
      vertex 8.49796 9.43794 0
    endloop
  endfacet
  facet normal 0 0 -1
    outer loop
      vertex 3.175 -6.35 0
      vertex 6.35 -10.9985 0
      vertex 3.92452 -12.0784 0
    endloop
  endfacet
  facet normal -0 0 -1
    outer loop
      vertex 8.49796 9.43794 0
      vertex 3.175 -6.35 0
      vertex 6.35 10.9985 0
    endloop
  endfacet
  facet normal 0 0 -1
    outer loop
      vertex 3.175 -6.35 0
      vertex 3.92452 -12.0784 0
      vertex 3.175 -12.2377 0
    endloop
  endfacet
  facet normal -0 0 -1
    outer loop
      vertex 6.35 10.9985 0
      vertex 3.175 -6.35 0
      vertex 3.92452 12.0784 0
    endloop
  endfacet
  facet normal 0 0 -1
    outer loop
      vertex 3.175 -6.35 0
      vertex 1.32751 12.6304 0
      vertex 3.92452 12.0784 0
    endloop
  endfacet
  facet normal 0 0 -1
    outer loop
      vertex 3.175 -6.35 0
      vertex -1.32751 12.6304 0
      vertex 1.32751 12.6304 0
    endloop
  endfacet
  facet normal 0 0 -1
    outer loop
      vertex -3.175 -6.35 0
      vertex -1.32751 12.6304 0
      vertex 3.175 -6.35 0
    endloop
  endfacet
  facet normal 0 0 -1
    outer loop
      vertex -6.35 -10.9985 0
      vertex -3.175 -6.35 0
      vertex -3.92452 -12.0784 0
    endloop
  endfacet
  facet normal 0 0 -1
    outer loop
      vertex -3.175 -6.35 0
      vertex -3.92452 12.0784 0
      vertex -1.32751 12.6304 0
    endloop
  endfacet
  facet normal 0 0 -1
    outer loop
      vertex -8.49796 -9.43794 0
      vertex -3.175 -6.35 0
      vertex -6.35 -10.9985 0
    endloop
  endfacet
  facet normal 0 0 -1
    outer loop
      vertex -3.175 -6.35 0
      vertex -6.35 10.9985 0
      vertex -3.92452 12.0784 0
    endloop
  endfacet
  facet normal 0 0 -1
    outer loop
      vertex -10.2745 -7.46487 0
      vertex -3.175 -6.35 0
      vertex -8.49796 -9.43794 0
    endloop
  endfacet
  facet normal 0 0 -1
    outer loop
      vertex -3.175 -6.35 0
      vertex -8.49796 9.43794 0
      vertex -6.35 10.9985 0
    endloop
  endfacet
  facet normal 0 0 -1
    outer loop
      vertex -11.602 -5.16556 0
      vertex -3.175 -6.35 0
      vertex -10.2745 -7.46487 0
    endloop
  endfacet
  facet normal 0 0 -1
    outer loop
      vertex -3.175 -6.35 0
      vertex -10.2745 7.46487 0
      vertex -8.49796 9.43794 0
    endloop
  endfacet
  facet normal 0 0 -1
    outer loop
      vertex -12.4225 -2.64048 0
      vertex -3.175 -6.35 0
      vertex -11.602 -5.16556 0
    endloop
  endfacet
  facet normal 0 0 -1
    outer loop
      vertex -3.175 -6.35 0
      vertex -11.602 5.16556 0
      vertex -10.2745 7.46487 0
    endloop
  endfacet
  facet normal 0 0 -1
    outer loop
      vertex -12.7 0 0
      vertex -3.175 -6.35 0
      vertex -12.4225 -2.64048 0
    endloop
  endfacet
  facet normal 0 0 -1
    outer loop
      vertex -3.175 -6.35 0
      vertex -12.4225 2.64048 0
      vertex -11.602 5.16556 0
    endloop
  endfacet
  facet normal 0 0 -1
    outer loop
      vertex -3.175 -6.35 0
      vertex -12.7 0 0
      vertex -12.4225 2.64048 0
    endloop
  endfacet
  facet normal 0.207892 -0.978152 0
    outer loop
      vertex 3.175 -12.2377 0
      vertex 3.92452 -12.0784 190.5
      vertex 3.175 -12.2377 190.5
    endloop
  endfacet
  facet normal 0.207892 -0.978152 0
    outer loop
      vertex 3.92452 -12.0784 190.5
      vertex 3.175 -12.2377 0
      vertex 3.92452 -12.0784 0
    endloop
  endfacet
  facet normal 0.866027 -0.499998 0
    outer loop
      vertex 10.2745 -7.46487 190.5
      vertex 11.602 -5.16556 0
      vertex 11.602 -5.16556 190.5
    endloop
  endfacet
  facet normal 0.866027 -0.499998 0
    outer loop
      vertex 11.602 -5.16556 0
      vertex 10.2745 -7.46487 190.5
      vertex 10.2745 -7.46487 0
    endloop
  endfacet
  facet normal -0.587779 -0.809021 0
    outer loop
      vertex -8.49796 -9.43794 0
      vertex -6.35 -10.9985 190.5
      vertex -8.49796 -9.43794 190.5
    endloop
  endfacet
  facet normal -0.587779 -0.809021 -0
    outer loop
      vertex -6.35 -10.9985 190.5
      vertex -8.49796 -9.43794 0
      vertex -6.35 -10.9985 0
    endloop
  endfacet
  facet normal -0.866027 -0.499998 0
    outer loop
      vertex -10.2745 -7.46487 0
      vertex -11.602 -5.16556 190.5
      vertex -11.602 -5.16556 0
    endloop
  endfacet
  facet normal -0.866027 -0.499998 0
    outer loop
      vertex -11.602 -5.16556 190.5
      vertex -10.2745 -7.46487 0
      vertex -10.2745 -7.46487 190.5
    endloop
  endfacet
  facet normal -0.743149 -0.669126 0
    outer loop
      vertex -8.49796 -9.43794 0
      vertex -10.2745 -7.46487 190.5
      vertex -10.2745 -7.46487 0
    endloop
  endfacet
  facet normal -0.743149 -0.669126 0
    outer loop
      vertex -10.2745 -7.46487 190.5
      vertex -8.49796 -9.43794 0
      vertex -8.49796 -9.43794 190.5
    endloop
  endfacet
  facet normal 0.587779 -0.809021 0
    outer loop
      vertex 6.35 -10.9985 0
      vertex 8.49796 -9.43794 190.5
      vertex 6.35 -10.9985 190.5
    endloop
  endfacet
  facet normal 0.587779 -0.809021 0
    outer loop
      vertex 8.49796 -9.43794 190.5
      vertex 6.35 -10.9985 0
      vertex 8.49796 -9.43794 0
    endloop
  endfacet
  facet normal 0.406739 -0.913545 0
    outer loop
      vertex 3.92452 -12.0784 0
      vertex 6.35 -10.9985 190.5
      vertex 3.92452 -12.0784 190.5
    endloop
  endfacet
  facet normal 0.406739 -0.913545 0
    outer loop
      vertex 6.35 -10.9985 190.5
      vertex 3.92452 -12.0784 0
      vertex 6.35 -10.9985 0
    endloop
  endfacet
  facet normal 0.951051 -0.309035 0
    outer loop
      vertex 11.602 -5.16556 190.5
      vertex 12.4225 -2.64048 0
      vertex 12.4225 -2.64048 190.5
    endloop
  endfacet
  facet normal 0.951051 -0.309035 0
    outer loop
      vertex 12.4225 -2.64048 0
      vertex 11.602 -5.16556 190.5
      vertex 11.602 -5.16556 0
    endloop
  endfacet
  facet normal -0.207892 -0.978152 0
    outer loop
      vertex -3.92452 -12.0784 0
      vertex -3.175 -12.2377 190.5
      vertex -3.92452 -12.0784 190.5
    endloop
  endfacet
  facet normal -0.207892 -0.978152 -0
    outer loop
      vertex -3.175 -12.2377 190.5
      vertex -3.92452 -12.0784 0
      vertex -3.175 -12.2377 0
    endloop
  endfacet
  facet normal -0.951051 -0.309035 0
    outer loop
      vertex -11.602 -5.16556 0
      vertex -12.4225 -2.64048 190.5
      vertex -12.4225 -2.64048 0
    endloop
  endfacet
  facet normal -0.951051 -0.309035 0
    outer loop
      vertex -12.4225 -2.64048 190.5
      vertex -11.602 -5.16556 0
      vertex -11.602 -5.16556 190.5
    endloop
  endfacet
  facet normal -0.994523 -0.104519 0
    outer loop
      vertex -12.4225 -2.64048 0
      vertex -12.7 0 190.5
      vertex -12.7 0 0
    endloop
  endfacet
  facet normal -0.994523 -0.104519 0
    outer loop
      vertex -12.7 0 190.5
      vertex -12.4225 -2.64048 0
      vertex -12.4225 -2.64048 190.5
    endloop
  endfacet
  facet normal 0.743149 -0.669126 0
    outer loop
      vertex 8.49796 -9.43794 190.5
      vertex 10.2745 -7.46487 0
      vertex 10.2745 -7.46487 190.5
    endloop
  endfacet
  facet normal 0.743149 -0.669126 0
    outer loop
      vertex 10.2745 -7.46487 0
      vertex 8.49796 -9.43794 190.5
      vertex 8.49796 -9.43794 0
    endloop
  endfacet
  facet normal -0.406739 -0.913545 0
    outer loop
      vertex -6.35 -10.9985 0
      vertex -3.92452 -12.0784 190.5
      vertex -6.35 -10.9985 190.5
    endloop
  endfacet
  facet normal -0.406739 -0.913545 -0
    outer loop
      vertex -3.92452 -12.0784 190.5
      vertex -6.35 -10.9985 0
      vertex -3.92452 -12.0784 0
    endloop
  endfacet
  facet normal 1 -0 0
    outer loop
      vertex -3.175 -12.2377 190.5
      vertex -3.175 -6.35 0
      vertex -3.175 -6.35 190.5
    endloop
  endfacet
  facet normal 1 0 0
    outer loop
      vertex -3.175 -6.35 0
      vertex -3.175 -12.2377 190.5
      vertex -3.175 -12.2377 0
    endloop
  endfacet
  facet normal -1 0 0
    outer loop
      vertex 3.175 -12.2377 0
      vertex 3.175 -6.35 190.5
      vertex 3.175 -6.35 0
    endloop
  endfacet
  facet normal -1 -0 0
    outer loop
      vertex 3.175 -6.35 190.5
      vertex 3.175 -12.2377 0
      vertex 3.175 -12.2377 190.5
    endloop
  endfacet
  facet normal 0 -1 0
    outer loop
      vertex -3.175 -6.35 0
      vertex 3.175 -6.35 190.5
      vertex -3.175 -6.35 190.5
    endloop
  endfacet
  facet normal 0 -1 -0
    outer loop
      vertex 3.175 -6.35 190.5
      vertex -3.175 -6.35 0
      vertex 3.175 -6.35 0
    endloop
  endfacet
endsolid OpenSCAD_Model
