solid OpenSCAD_Model
  facet normal 0.994521 0.104536 0
    outer loop
      vertex 42.225 20 100
      vertex 41.7393 24.6208 0
      vertex 41.7393 24.6208 100
    endloop
  endfacet
  facet normal 0.994521 0.104536 0
    outer loop
      vertex 41.7393 24.6208 0
      vertex 42.225 20 100
      vertex 42.225 20 0
    endloop
  endfacet
  facet normal -0.994522 0.104529 0
    outer loop
      vertex -2.225 20 0
      vertex -1.73933 24.6208 100
      vertex -1.73933 24.6208 0
    endloop
  endfacet
  facet normal -0.994522 0.104529 0
    outer loop
      vertex -1.73933 24.6208 100
      vertex -2.225 20 0
      vertex -2.225 20 100
    endloop
  endfacet
  facet normal 0 1 -0
    outer loop
      vertex 22.3231 42.1032 0
      vertex 17.6769 42.1032 100
      vertex 22.3231 42.1032 100
    endloop
  endfacet
  facet normal 0 1 0
    outer loop
      vertex 17.6769 42.1032 100
      vertex 22.3231 42.1032 0
      vertex 17.6769 42.1032 0
    endloop
  endfacet
  facet normal 0 -1 0
    outer loop
      vertex 17.6769 -2.10325 0
      vertex 22.3231 -2.10325 100
      vertex 17.6769 -2.10325 100
    endloop
  endfacet
  facet normal 0 -1 -0
    outer loop
      vertex 22.3231 -2.10325 100
      vertex 17.6769 -2.10325 0
      vertex 22.3231 -2.10325 0
    endloop
  endfacet
  facet normal 0.743145 0.66913 0
    outer loop
      vertex 37.9804 33.0635 100
      vertex 34.8714 36.5164 0
      vertex 34.8714 36.5164 100
    endloop
  endfacet
  facet normal 0.743145 0.66913 0
    outer loop
      vertex 34.8714 36.5164 0
      vertex 37.9804 33.0635 100
      vertex 37.9804 33.0635 0
    endloop
  endfacet
  facet normal -0.587782 0.809019 0
    outer loop
      vertex 8.8875 39.2474 0
      vertex 5.12857 36.5164 100
      vertex 8.8875 39.2474 100
    endloop
  endfacet
  facet normal -0.587782 0.809019 0
    outer loop
      vertex 5.12857 36.5164 100
      vertex 8.8875 39.2474 0
      vertex 5.12857 36.5164 0
    endloop
  endfacet
  facet normal -0.406733 0.913547 0
    outer loop
      vertex 13.1321 41.1372 0
      vertex 8.8875 39.2474 100
      vertex 13.1321 41.1372 100
    endloop
  endfacet
  facet normal -0.406733 0.913547 0
    outer loop
      vertex 8.8875 39.2474 100
      vertex 13.1321 41.1372 0
      vertex 8.8875 39.2474 0
    endloop
  endfacet
  facet normal 0.866029 0.499993 0
    outer loop
      vertex 40.3035 29.0397 100
      vertex 37.9804 33.0635 0
      vertex 37.9804 33.0635 100
    endloop
  endfacet
  facet normal 0.866029 0.499993 0
    outer loop
      vertex 37.9804 33.0635 0
      vertex 40.3035 29.0397 100
      vertex 40.3035 29.0397 0
    endloop
  endfacet
  facet normal 0.951056 0.309019 0
    outer loop
      vertex 41.7393 24.6208 100
      vertex 40.3035 29.0397 0
      vertex 40.3035 29.0397 100
    endloop
  endfacet
  facet normal 0.951056 0.309019 0
    outer loop
      vertex 40.3035 29.0397 0
      vertex 41.7393 24.6208 100
      vertex 41.7393 24.6208 0
    endloop
  endfacet
  facet normal 0.406733 0.913547 -0
    outer loop
      vertex 31.1125 39.2474 0
      vertex 26.8679 41.1372 100
      vertex 31.1125 39.2474 100
    endloop
  endfacet
  facet normal 0.406733 0.913547 0
    outer loop
      vertex 26.8679 41.1372 100
      vertex 31.1125 39.2474 0
      vertex 26.8679 41.1372 0
    endloop
  endfacet
  facet normal 0.207906 0.978149 -0
    outer loop
      vertex 26.8679 41.1372 0
      vertex 22.3231 42.1032 100
      vertex 26.8679 41.1372 100
    endloop
  endfacet
  facet normal 0.207906 0.978149 0
    outer loop
      vertex 22.3231 42.1032 100
      vertex 26.8679 41.1372 0
      vertex 22.3231 42.1032 0
    endloop
  endfacet
  facet normal 0.587785 0.809017 -0
    outer loop
      vertex 34.8714 36.5164 0
      vertex 31.1125 39.2474 100
      vertex 34.8714 36.5164 100
    endloop
  endfacet
  facet normal 0.587785 0.809017 0
    outer loop
      vertex 31.1125 39.2474 100
      vertex 34.8714 36.5164 0
      vertex 31.1125 39.2474 0
    endloop
  endfacet
  facet normal -0.866025 0.500001 0
    outer loop
      vertex -0.303547 29.0397 0
      vertex 2.0196 33.0635 100
      vertex 2.0196 33.0635 0
    endloop
  endfacet
  facet normal -0.866025 0.500001 0
    outer loop
      vertex 2.0196 33.0635 100
      vertex -0.303547 29.0397 0
      vertex -0.303547 29.0397 100
    endloop
  endfacet
  facet normal -0.743149 0.669126 0
    outer loop
      vertex 2.0196 33.0635 0
      vertex 5.12857 36.5164 100
      vertex 5.12857 36.5164 0
    endloop
  endfacet
  facet normal -0.743149 0.669126 0
    outer loop
      vertex 5.12857 36.5164 100
      vertex 2.0196 33.0635 0
      vertex 2.0196 33.0635 100
    endloop
  endfacet
  facet normal -0.951057 0.309016 0
    outer loop
      vertex -1.73933 24.6208 0
      vertex -0.303547 29.0397 100
      vertex -0.303547 29.0397 0
    endloop
  endfacet
  facet normal -0.951057 0.309016 0
    outer loop
      vertex -0.303547 29.0397 100
      vertex -1.73933 24.6208 0
      vertex -1.73933 24.6208 100
    endloop
  endfacet
  facet normal 0 0 1
    outer loop
      vertex 16.825 7.76227 100
      vertex 16.0755 7.92158 100
      vertex 16.825 4.125 100
    endloop
  endfacet
  facet normal 0 0 1
    outer loop
      vertex 32.7 20 100
      vertex 42.225 20 100
      vertex 41.7393 24.6208 100
    endloop
  endfacet
  facet normal 0 0 1
    outer loop
      vertex 32.4225 22.6405 100
      vertex 41.7393 24.6208 100
      vertex 40.3035 29.0397 100
    endloop
  endfacet
  facet normal 0 0 1
    outer loop
      vertex 42.225 20 100
      vertex 32.7 20 100
      vertex 41.7393 15.3792 100
    endloop
  endfacet
  facet normal 0 0 1
    outer loop
      vertex 31.602 25.1656 100
      vertex 40.3035 29.0397 100
      vertex 37.9804 33.0635 100
    endloop
  endfacet
  facet normal -0 0 1
    outer loop
      vertex 32.4225 17.3595 100
      vertex 41.7393 15.3792 100
      vertex 32.7 20 100
    endloop
  endfacet
  facet normal 0 0 1
    outer loop
      vertex 30.2745 27.4649 100
      vertex 37.9804 33.0635 100
      vertex 34.8714 36.5164 100
    endloop
  endfacet
  facet normal 0 0 1
    outer loop
      vertex 41.7393 15.3792 100
      vertex 32.4225 17.3595 100
      vertex 40.3035 10.9603 100
    endloop
  endfacet
  facet normal -0 0 1
    outer loop
      vertex 31.602 14.8344 100
      vertex 40.3035 10.9603 100
      vertex 32.4225 17.3595 100
    endloop
  endfacet
  facet normal 0 0 1
    outer loop
      vertex 41.7393 24.6208 100
      vertex 32.4225 22.6405 100
      vertex 32.7 20 100
    endloop
  endfacet
  facet normal 0 0 1
    outer loop
      vertex 40.3035 29.0397 100
      vertex 31.602 25.1656 100
      vertex 32.4225 22.6405 100
    endloop
  endfacet
  facet normal 0 0 1
    outer loop
      vertex 28.498 29.4379 100
      vertex 34.8714 36.5164 100
      vertex 31.1125 39.2474 100
    endloop
  endfacet
  facet normal 0 0 1
    outer loop
      vertex 37.9804 33.0635 100
      vertex 30.2745 27.4649 100
      vertex 31.602 25.1656 100
    endloop
  endfacet
  facet normal 0 0 1
    outer loop
      vertex 34.8714 36.5164 100
      vertex 28.498 29.4379 100
      vertex 30.2745 27.4649 100
    endloop
  endfacet
  facet normal 0 0 1
    outer loop
      vertex 26.35 30.9985 100
      vertex 31.1125 39.2474 100
      vertex 26.8679 41.1372 100
    endloop
  endfacet
  facet normal 0 0 1
    outer loop
      vertex 31.1125 39.2474 100
      vertex 26.35 30.9985 100
      vertex 28.498 29.4379 100
    endloop
  endfacet
  facet normal 0 0 1
    outer loop
      vertex 26.8679 41.1372 100
      vertex 23.9245 32.0784 100
      vertex 26.35 30.9985 100
    endloop
  endfacet
  facet normal 0 0 1
    outer loop
      vertex 22.3231 42.1032 100
      vertex 23.9245 32.0784 100
      vertex 26.8679 41.1372 100
    endloop
  endfacet
  facet normal 0 0 1
    outer loop
      vertex 22.3231 42.1032 100
      vertex 21.3275 32.6304 100
      vertex 23.9245 32.0784 100
    endloop
  endfacet
  facet normal 0 0 1
    outer loop
      vertex 22.3231 42.1032 100
      vertex 18.6725 32.6304 100
      vertex 21.3275 32.6304 100
    endloop
  endfacet
  facet normal -0 0 1
    outer loop
      vertex 17.6769 42.1032 100
      vertex 18.6725 32.6304 100
      vertex 22.3231 42.1032 100
    endloop
  endfacet
  facet normal 0 0 1
    outer loop
      vertex 17.6769 42.1032 100
      vertex 16.0755 32.0784 100
      vertex 18.6725 32.6304 100
    endloop
  endfacet
  facet normal -0 0 1
    outer loop
      vertex 13.1321 41.1372 100
      vertex 16.0755 32.0784 100
      vertex 17.6769 42.1032 100
    endloop
  endfacet
  facet normal 0 0 1
    outer loop
      vertex 16.0755 32.0784 100
      vertex 13.1321 41.1372 100
      vertex 13.65 30.9985 100
    endloop
  endfacet
  facet normal -0 0 1
    outer loop
      vertex 8.8875 39.2474 100
      vertex 13.65 30.9985 100
      vertex 13.1321 41.1372 100
    endloop
  endfacet
  facet normal 0 0 1
    outer loop
      vertex 13.65 30.9985 100
      vertex 8.8875 39.2474 100
      vertex 11.502 29.4379 100
    endloop
  endfacet
  facet normal -0 0 1
    outer loop
      vertex 5.12857 36.5164 100
      vertex 11.502 29.4379 100
      vertex 8.8875 39.2474 100
    endloop
  endfacet
  facet normal 0 0 1
    outer loop
      vertex 11.502 29.4379 100
      vertex 5.12857 36.5164 100
      vertex 9.72548 27.4649 100
    endloop
  endfacet
  facet normal -0 0 1
    outer loop
      vertex 2.0196 33.0635 100
      vertex 9.72548 27.4649 100
      vertex 5.12857 36.5164 100
    endloop
  endfacet
  facet normal 0 0 1
    outer loop
      vertex 9.72548 27.4649 100
      vertex 2.0196 33.0635 100
      vertex 8.39797 25.1656 100
    endloop
  endfacet
  facet normal -0 0 1
    outer loop
      vertex -0.303547 29.0397 100
      vertex 8.39797 25.1656 100
      vertex 2.0196 33.0635 100
    endloop
  endfacet
  facet normal 0 0 1
    outer loop
      vertex 40.3035 10.9603 100
      vertex 31.602 14.8344 100
      vertex 37.9804 6.93647 100
    endloop
  endfacet
  facet normal -0 0 1
    outer loop
      vertex 30.2745 12.5351 100
      vertex 37.9804 6.93647 100
      vertex 31.602 14.8344 100
    endloop
  endfacet
  facet normal 0 0 1
    outer loop
      vertex 37.9804 6.93647 100
      vertex 30.2745 12.5351 100
      vertex 34.8714 3.48361 100
    endloop
  endfacet
  facet normal -0 0 1
    outer loop
      vertex 28.498 10.5621 100
      vertex 34.8714 3.48361 100
      vertex 30.2745 12.5351 100
    endloop
  endfacet
  facet normal 0 0 1
    outer loop
      vertex 34.8714 3.48361 100
      vertex 28.498 10.5621 100
      vertex 31.1125 0.752585 100
    endloop
  endfacet
  facet normal -0 0 1
    outer loop
      vertex 26.35 9.00148 100
      vertex 31.1125 0.752585 100
      vertex 28.498 10.5621 100
    endloop
  endfacet
  facet normal -0 0 1
    outer loop
      vertex 23.175 4.125 100
      vertex 31.1125 0.752585 100
      vertex 26.35 9.00148 100
    endloop
  endfacet
  facet normal 0 0 1
    outer loop
      vertex 23.175 4.125 100
      vertex 26.35 9.00148 100
      vertex 23.9245 7.92158 100
    endloop
  endfacet
  facet normal 0 0 1
    outer loop
      vertex 23.175 4.125 100
      vertex 23.9245 7.92158 100
      vertex 23.175 7.76227 100
    endloop
  endfacet
  facet normal 0 0 1
    outer loop
      vertex 31.1125 0.752585 100
      vertex 23.175 4.125 100
      vertex 26.8679 -1.13723 100
    endloop
  endfacet
  facet normal 0 0 1
    outer loop
      vertex 23.175 4.125 100
      vertex 22.3231 -2.10325 100
      vertex 26.8679 -1.13723 100
    endloop
  endfacet
  facet normal 0 0 1
    outer loop
      vertex 23.175 4.125 100
      vertex 17.6769 -2.10325 100
      vertex 22.3231 -2.10325 100
    endloop
  endfacet
  facet normal -0 0 1
    outer loop
      vertex 16.825 4.125 100
      vertex 17.6769 -2.10325 100
      vertex 23.175 4.125 100
    endloop
  endfacet
  facet normal 0 0 1
    outer loop
      vertex 13.65 9.00148 100
      vertex 16.825 4.125 100
      vertex 16.0755 7.92158 100
    endloop
  endfacet
  facet normal 0 0 1
    outer loop
      vertex 8.8875 0.752585 100
      vertex 16.825 4.125 100
      vertex 13.65 9.00148 100
    endloop
  endfacet
  facet normal 0 0 1
    outer loop
      vertex 16.825 4.125 100
      vertex 13.1321 -1.13723 100
      vertex 17.6769 -2.10325 100
    endloop
  endfacet
  facet normal 0 0 1
    outer loop
      vertex 8.8875 0.752585 100
      vertex 13.65 9.00148 100
      vertex 11.502 10.5621 100
    endloop
  endfacet
  facet normal 0 0 1
    outer loop
      vertex 5.12857 3.48361 100
      vertex 11.502 10.5621 100
      vertex 9.72548 12.5351 100
    endloop
  endfacet
  facet normal 0 0 1
    outer loop
      vertex 16.825 4.125 100
      vertex 8.8875 0.752585 100
      vertex 13.1321 -1.13723 100
    endloop
  endfacet
  facet normal 0 0 1
    outer loop
      vertex 2.0196 6.93647 100
      vertex 9.72548 12.5351 100
      vertex 8.39797 14.8344 100
    endloop
  endfacet
  facet normal 0 0 1
    outer loop
      vertex -0.303547 10.9603 100
      vertex 8.39797 14.8344 100
      vertex 7.57753 17.3595 100
    endloop
  endfacet
  facet normal 0 0 1
    outer loop
      vertex -1.73933 15.3792 100
      vertex 7.57753 17.3595 100
      vertex 7.3 20 100
    endloop
  endfacet
  facet normal 0 0 1
    outer loop
      vertex 8.39797 25.1656 100
      vertex -0.303547 29.0397 100
      vertex 7.57753 22.6405 100
    endloop
  endfacet
  facet normal 0 0 1
    outer loop
      vertex 11.502 10.5621 100
      vertex 5.12857 3.48361 100
      vertex 8.8875 0.752585 100
    endloop
  endfacet
  facet normal -0 0 1
    outer loop
      vertex -1.73933 24.6208 100
      vertex 7.57753 22.6405 100
      vertex -0.303547 29.0397 100
    endloop
  endfacet
  facet normal 0 0 1
    outer loop
      vertex 9.72548 12.5351 100
      vertex 2.0196 6.93647 100
      vertex 5.12857 3.48361 100
    endloop
  endfacet
  facet normal 0 0 1
    outer loop
      vertex 7.57753 22.6405 100
      vertex -1.73933 24.6208 100
      vertex 7.3 20 100
    endloop
  endfacet
  facet normal 0 0 1
    outer loop
      vertex 8.39797 14.8344 100
      vertex -0.303547 10.9603 100
      vertex 2.0196 6.93647 100
    endloop
  endfacet
  facet normal 0 0 1
    outer loop
      vertex -2.225 20 100
      vertex 7.3 20 100
      vertex -1.73933 24.6208 100
    endloop
  endfacet
  facet normal 0 0 1
    outer loop
      vertex 7.57753 17.3595 100
      vertex -1.73933 15.3792 100
      vertex -0.303547 10.9603 100
    endloop
  endfacet
  facet normal 0 0 1
    outer loop
      vertex 7.3 20 100
      vertex -2.225 20 100
      vertex -1.73933 15.3792 100
    endloop
  endfacet
  facet normal -0.207906 0.978149 0
    outer loop
      vertex 17.6769 42.1032 0
      vertex 13.1321 41.1372 100
      vertex 17.6769 42.1032 100
    endloop
  endfacet
  facet normal -0.207906 0.978149 0
    outer loop
      vertex 13.1321 41.1372 100
      vertex 17.6769 42.1032 0
      vertex 13.1321 41.1372 0
    endloop
  endfacet
  facet normal 0.994521 -0.104536 0
    outer loop
      vertex 41.7393 15.3792 100
      vertex 42.225 20 0
      vertex 42.225 20 100
    endloop
  endfacet
  facet normal 0.994521 -0.104536 0
    outer loop
      vertex 42.225 20 0
      vertex 41.7393 15.3792 100
      vertex 41.7393 15.3792 0
    endloop
  endfacet
  facet normal 0 0 -1
    outer loop
      vertex 32.7 20 0
      vertex 42.225 20 0
      vertex 41.7393 15.3792 0
    endloop
  endfacet
  facet normal 0 0 -1
    outer loop
      vertex 32.4225 17.3595 0
      vertex 41.7393 15.3792 0
      vertex 40.3035 10.9603 0
    endloop
  endfacet
  facet normal 0 0 -1
    outer loop
      vertex 42.225 20 0
      vertex 32.7 20 0
      vertex 41.7393 24.6208 0
    endloop
  endfacet
  facet normal 0 0 -1
    outer loop
      vertex 31.602 14.8344 0
      vertex 40.3035 10.9603 0
      vertex 37.9804 6.93647 0
    endloop
  endfacet
  facet normal 0 0 -1
    outer loop
      vertex 32.4225 22.6405 0
      vertex 41.7393 24.6208 0
      vertex 32.7 20 0
    endloop
  endfacet
  facet normal 0 0 -1
    outer loop
      vertex 30.2745 12.5351 0
      vertex 37.9804 6.93647 0
      vertex 34.8714 3.48361 0
    endloop
  endfacet
  facet normal -0 0 -1
    outer loop
      vertex 41.7393 24.6208 0
      vertex 32.4225 22.6405 0
      vertex 40.3035 29.0397 0
    endloop
  endfacet
  facet normal 0 0 -1
    outer loop
      vertex 31.602 25.1656 0
      vertex 40.3035 29.0397 0
      vertex 32.4225 22.6405 0
    endloop
  endfacet
  facet normal 0 0 -1
    outer loop
      vertex 41.7393 15.3792 0
      vertex 32.4225 17.3595 0
      vertex 32.7 20 0
    endloop
  endfacet
  facet normal 0 0 -1
    outer loop
      vertex 40.3035 10.9603 0
      vertex 31.602 14.8344 0
      vertex 32.4225 17.3595 0
    endloop
  endfacet
  facet normal 0 0 -1
    outer loop
      vertex 28.498 10.5621 0
      vertex 34.8714 3.48361 0
      vertex 31.1125 0.752585 0
    endloop
  endfacet
  facet normal 0 0 -1
    outer loop
      vertex 37.9804 6.93647 0
      vertex 30.2745 12.5351 0
      vertex 31.602 14.8344 0
    endloop
  endfacet
  facet normal 0 0 -1
    outer loop
      vertex 34.8714 3.48361 0
      vertex 28.498 10.5621 0
      vertex 30.2745 12.5351 0
    endloop
  endfacet
  facet normal 0 0 -1
    outer loop
      vertex 23.175 4.125 0
      vertex 31.1125 0.752585 0
      vertex 26.8679 -1.13723 0
    endloop
  endfacet
  facet normal 0 0 -1
    outer loop
      vertex 31.1125 0.752585 0
      vertex 26.35 9.00148 0
      vertex 28.498 10.5621 0
    endloop
  endfacet
  facet normal 0 0 -1
    outer loop
      vertex 31.1125 0.752585 0
      vertex 23.175 4.125 0
      vertex 26.35 9.00148 0
    endloop
  endfacet
  facet normal 0 0 -1
    outer loop
      vertex 26.35 9.00148 0
      vertex 23.175 4.125 0
      vertex 23.9245 7.92158 0
    endloop
  endfacet
  facet normal 0 0 -1
    outer loop
      vertex 22.3231 -2.10325 0
      vertex 23.175 4.125 0
      vertex 26.8679 -1.13723 0
    endloop
  endfacet
  facet normal 0 0 -1
    outer loop
      vertex 17.6769 -2.10325 0
      vertex 23.175 4.125 0
      vertex 22.3231 -2.10325 0
    endloop
  endfacet
  facet normal 0 0 -1
    outer loop
      vertex 17.6769 -2.10325 0
      vertex 16.825 4.125 0
      vertex 23.175 4.125 0
    endloop
  endfacet
  facet normal 0 0 -1
    outer loop
      vertex 16.825 4.125 0
      vertex 16.0755 7.92158 0
      vertex 16.825 7.76227 0
    endloop
  endfacet
  facet normal 0 0 -1
    outer loop
      vertex 13.1321 -1.13723 0
      vertex 16.825 4.125 0
      vertex 17.6769 -2.10325 0
    endloop
  endfacet
  facet normal 0 0 -1
    outer loop
      vertex 8.8875 0.752585 0
      vertex 16.825 4.125 0
      vertex 13.1321 -1.13723 0
    endloop
  endfacet
  facet normal 0 0 -1
    outer loop
      vertex 16.825 4.125 0
      vertex 13.65 9.00148 0
      vertex 16.0755 7.92158 0
    endloop
  endfacet
  facet normal -0 0 -1
    outer loop
      vertex 16.825 4.125 0
      vertex 8.8875 0.752585 0
      vertex 13.65 9.00148 0
    endloop
  endfacet
  facet normal -0 0 -1
    outer loop
      vertex 13.65 9.00148 0
      vertex 8.8875 0.752585 0
      vertex 11.502 10.5621 0
    endloop
  endfacet
  facet normal 0 0 -1
    outer loop
      vertex 5.12857 3.48361 0
      vertex 11.502 10.5621 0
      vertex 8.8875 0.752585 0
    endloop
  endfacet
  facet normal -0 0 -1
    outer loop
      vertex 11.502 10.5621 0
      vertex 5.12857 3.48361 0
      vertex 9.72548 12.5351 0
    endloop
  endfacet
  facet normal 0 0 -1
    outer loop
      vertex 2.0196 6.93647 0
      vertex 9.72548 12.5351 0
      vertex 5.12857 3.48361 0
    endloop
  endfacet
  facet normal -0 0 -1
    outer loop
      vertex 9.72548 12.5351 0
      vertex 2.0196 6.93647 0
      vertex 8.39797 14.8344 0
    endloop
  endfacet
  facet normal 0 0 -1
    outer loop
      vertex -0.303547 10.9603 0
      vertex 8.39797 14.8344 0
      vertex 2.0196 6.93647 0
    endloop
  endfacet
  facet normal -0 0 -1
    outer loop
      vertex 40.3035 29.0397 0
      vertex 31.602 25.1656 0
      vertex 37.9804 33.0635 0
    endloop
  endfacet
  facet normal 0 0 -1
    outer loop
      vertex 30.2745 27.4649 0
      vertex 37.9804 33.0635 0
      vertex 31.602 25.1656 0
    endloop
  endfacet
  facet normal -0 0 -1
    outer loop
      vertex 37.9804 33.0635 0
      vertex 30.2745 27.4649 0
      vertex 34.8714 36.5164 0
    endloop
  endfacet
  facet normal 0 0 -1
    outer loop
      vertex 28.498 29.4379 0
      vertex 34.8714 36.5164 0
      vertex 30.2745 27.4649 0
    endloop
  endfacet
  facet normal -0 0 -1
    outer loop
      vertex 34.8714 36.5164 0
      vertex 28.498 29.4379 0
      vertex 31.1125 39.2474 0
    endloop
  endfacet
  facet normal 0 0 -1
    outer loop
      vertex 26.35 30.9985 0
      vertex 31.1125 39.2474 0
      vertex 28.498 29.4379 0
    endloop
  endfacet
  facet normal -0 0 -1
    outer loop
      vertex 31.1125 39.2474 0
      vertex 26.35 30.9985 0
      vertex 26.8679 41.1372 0
    endloop
  endfacet
  facet normal 0 0 -1
    outer loop
      vertex 23.9245 32.0784 0
      vertex 26.8679 41.1372 0
      vertex 26.35 30.9985 0
    endloop
  endfacet
  facet normal 0 0 -1
    outer loop
      vertex 23.9245 32.0784 0
      vertex 22.3231 42.1032 0
      vertex 26.8679 41.1372 0
    endloop
  endfacet
  facet normal 0 0 -1
    outer loop
      vertex 21.3275 32.6304 0
      vertex 22.3231 42.1032 0
      vertex 23.9245 32.0784 0
    endloop
  endfacet
  facet normal 0 0 -1
    outer loop
      vertex 18.6725 32.6304 0
      vertex 22.3231 42.1032 0
      vertex 21.3275 32.6304 0
    endloop
  endfacet
  facet normal 0 0 -1
    outer loop
      vertex 18.6725 32.6304 0
      vertex 17.6769 42.1032 0
      vertex 22.3231 42.1032 0
    endloop
  endfacet
  facet normal 0 0 -1
    outer loop
      vertex 16.0755 32.0784 0
      vertex 17.6769 42.1032 0
      vertex 18.6725 32.6304 0
    endloop
  endfacet
  facet normal 0 0 -1
    outer loop
      vertex 13.1321 41.1372 0
      vertex 16.0755 32.0784 0
      vertex 13.65 30.9985 0
    endloop
  endfacet
  facet normal 0 0 -1
    outer loop
      vertex 16.0755 32.0784 0
      vertex 13.1321 41.1372 0
      vertex 17.6769 42.1032 0
    endloop
  endfacet
  facet normal 0 0 -1
    outer loop
      vertex 8.8875 39.2474 0
      vertex 13.65 30.9985 0
      vertex 11.502 29.4379 0
    endloop
  endfacet
  facet normal 0 0 -1
    outer loop
      vertex 5.12857 36.5164 0
      vertex 11.502 29.4379 0
      vertex 9.72548 27.4649 0
    endloop
  endfacet
  facet normal 0 0 -1
    outer loop
      vertex 13.65 30.9985 0
      vertex 8.8875 39.2474 0
      vertex 13.1321 41.1372 0
    endloop
  endfacet
  facet normal 0 0 -1
    outer loop
      vertex 2.0196 33.0635 0
      vertex 9.72548 27.4649 0
      vertex 8.39797 25.1656 0
    endloop
  endfacet
  facet normal 0 0 -1
    outer loop
      vertex -0.303547 29.0397 0
      vertex 8.39797 25.1656 0
      vertex 7.57753 22.6405 0
    endloop
  endfacet
  facet normal 0 0 -1
    outer loop
      vertex -1.73933 24.6208 0
      vertex 7.57753 22.6405 0
      vertex 7.3 20 0
    endloop
  endfacet
  facet normal -0 0 -1
    outer loop
      vertex 8.39797 14.8344 0
      vertex -0.303547 10.9603 0
      vertex 7.57753 17.3595 0
    endloop
  endfacet
  facet normal 0 0 -1
    outer loop
      vertex 11.502 29.4379 0
      vertex 5.12857 36.5164 0
      vertex 8.8875 39.2474 0
    endloop
  endfacet
  facet normal 0 0 -1
    outer loop
      vertex -1.73933 15.3792 0
      vertex 7.57753 17.3595 0
      vertex -0.303547 10.9603 0
    endloop
  endfacet
  facet normal 0 0 -1
    outer loop
      vertex 9.72548 27.4649 0
      vertex 2.0196 33.0635 0
      vertex 5.12857 36.5164 0
    endloop
  endfacet
  facet normal -0 0 -1
    outer loop
      vertex 7.57753 17.3595 0
      vertex -1.73933 15.3792 0
      vertex 7.3 20 0
    endloop
  endfacet
  facet normal 0 0 -1
    outer loop
      vertex 8.39797 25.1656 0
      vertex -0.303547 29.0397 0
      vertex 2.0196 33.0635 0
    endloop
  endfacet
  facet normal 0 0 -1
    outer loop
      vertex -2.225 20 0
      vertex 7.3 20 0
      vertex -1.73933 15.3792 0
    endloop
  endfacet
  facet normal 0 0 -1
    outer loop
      vertex 7.57753 22.6405 0
      vertex -1.73933 24.6208 0
      vertex -0.303547 29.0397 0
    endloop
  endfacet
  facet normal 0 0 -1
    outer loop
      vertex 7.3 20 0
      vertex -2.225 20 0
      vertex -1.73933 24.6208 0
    endloop
  endfacet
  facet normal 0 0 -1
    outer loop
      vertex 23.9245 7.92158 0
      vertex 23.175 4.125 0
      vertex 23.175 7.76227 0
    endloop
  endfacet
  facet normal 0.20791 -0.978148 0
    outer loop
      vertex 22.3231 -2.10325 0
      vertex 26.8679 -1.13723 100
      vertex 22.3231 -2.10325 100
    endloop
  endfacet
  facet normal 0.20791 -0.978148 0
    outer loop
      vertex 26.8679 -1.13723 100
      vertex 22.3231 -2.10325 0
      vertex 26.8679 -1.13723 0
    endloop
  endfacet
  facet normal 0.866031 -0.49999 0
    outer loop
      vertex 37.9804 6.93647 100
      vertex 40.3035 10.9603 0
      vertex 40.3035 10.9603 100
    endloop
  endfacet
  facet normal 0.866031 -0.49999 0
    outer loop
      vertex 40.3035 10.9603 0
      vertex 37.9804 6.93647 100
      vertex 37.9804 6.93647 0
    endloop
  endfacet
  facet normal -0.866027 -0.499998 0
    outer loop
      vertex 2.0196 6.93647 0
      vertex -0.303547 10.9603 100
      vertex -0.303547 10.9603 0
    endloop
  endfacet
  facet normal -0.866027 -0.499998 0
    outer loop
      vertex -0.303547 10.9603 100
      vertex 2.0196 6.93647 0
      vertex 2.0196 6.93647 100
    endloop
  endfacet
  facet normal -0.743145 -0.669131 0
    outer loop
      vertex 5.12857 3.48361 0
      vertex 2.0196 6.93647 100
      vertex 2.0196 6.93647 0
    endloop
  endfacet
  facet normal -0.743145 -0.669131 0
    outer loop
      vertex 2.0196 6.93647 100
      vertex 5.12857 3.48361 0
      vertex 5.12857 3.48361 100
    endloop
  endfacet
  facet normal 0.587789 -0.809015 0
    outer loop
      vertex 31.1125 0.752585 0
      vertex 34.8714 3.48361 100
      vertex 31.1125 0.752585 100
    endloop
  endfacet
  facet normal 0.587789 -0.809015 0
    outer loop
      vertex 34.8714 3.48361 100
      vertex 31.1125 0.752585 0
      vertex 34.8714 3.48361 0
    endloop
  endfacet
  facet normal 0.406736 -0.913546 0
    outer loop
      vertex 26.8679 -1.13723 0
      vertex 31.1125 0.752585 100
      vertex 26.8679 -1.13723 100
    endloop
  endfacet
  facet normal 0.406736 -0.913546 0
    outer loop
      vertex 31.1125 0.752585 100
      vertex 26.8679 -1.13723 0
      vertex 31.1125 0.752585 0
    endloop
  endfacet
  facet normal 0.951056 -0.309019 0
    outer loop
      vertex 40.3035 10.9603 100
      vertex 41.7393 15.3792 0
      vertex 41.7393 15.3792 100
    endloop
  endfacet
  facet normal 0.951056 -0.309019 0
    outer loop
      vertex 41.7393 15.3792 0
      vertex 40.3035 10.9603 100
      vertex 40.3035 10.9603 0
    endloop
  endfacet
  facet normal -0.20791 -0.978148 0
    outer loop
      vertex 13.1321 -1.13723 0
      vertex 17.6769 -2.10325 100
      vertex 13.1321 -1.13723 100
    endloop
  endfacet
  facet normal -0.20791 -0.978148 -0
    outer loop
      vertex 17.6769 -2.10325 100
      vertex 13.1321 -1.13723 0
      vertex 17.6769 -2.10325 0
    endloop
  endfacet
  facet normal -0.951057 -0.309016 0
    outer loop
      vertex -0.303547 10.9603 0
      vertex -1.73933 15.3792 100
      vertex -1.73933 15.3792 0
    endloop
  endfacet
  facet normal -0.951057 -0.309016 0
    outer loop
      vertex -1.73933 15.3792 100
      vertex -0.303547 10.9603 0
      vertex -0.303547 10.9603 100
    endloop
  endfacet
  facet normal -0.994522 -0.104529 0
    outer loop
      vertex -1.73933 15.3792 0
      vertex -2.225 20 100
      vertex -2.225 20 0
    endloop
  endfacet
  facet normal -0.994522 -0.104529 0
    outer loop
      vertex -2.225 20 100
      vertex -1.73933 15.3792 0
      vertex -1.73933 15.3792 100
    endloop
  endfacet
  facet normal 0.743142 -0.669134 0
    outer loop
      vertex 34.8714 3.48361 100
      vertex 37.9804 6.93647 0
      vertex 37.9804 6.93647 100
    endloop
  endfacet
  facet normal 0.743142 -0.669134 0
    outer loop
      vertex 37.9804 6.93647 0
      vertex 34.8714 3.48361 100
      vertex 34.8714 3.48361 0
    endloop
  endfacet
  facet normal -0.406736 -0.913546 0
    outer loop
      vertex 8.8875 0.752585 0
      vertex 13.1321 -1.13723 100
      vertex 8.8875 0.752585 100
    endloop
  endfacet
  facet normal -0.406736 -0.913546 -0
    outer loop
      vertex 13.1321 -1.13723 100
      vertex 8.8875 0.752585 0
      vertex 13.1321 -1.13723 0
    endloop
  endfacet
  facet normal -0.587786 -0.809017 0
    outer loop
      vertex 5.12857 3.48361 0
      vertex 8.8875 0.752585 100
      vertex 5.12857 3.48361 100
    endloop
  endfacet
  facet normal -0.587786 -0.809017 -0
    outer loop
      vertex 8.8875 0.752585 100
      vertex 5.12857 3.48361 0
      vertex 8.8875 0.752585 0
    endloop
  endfacet
  facet normal 1 -0 0
    outer loop
      vertex 16.825 4.125 100
      vertex 16.825 7.76227 0
      vertex 16.825 7.76227 100
    endloop
  endfacet
  facet normal 1 0 0
    outer loop
      vertex 16.825 7.76227 0
      vertex 16.825 4.125 100
      vertex 16.825 4.125 0
    endloop
  endfacet
  facet normal -1 0 0
    outer loop
      vertex 23.175 4.125 0
      vertex 23.175 7.76227 100
      vertex 23.175 7.76227 0
    endloop
  endfacet
  facet normal -1 -0 0
    outer loop
      vertex 23.175 7.76227 100
      vertex 23.175 4.125 0
      vertex 23.175 4.125 100
    endloop
  endfacet
  facet normal 0 1 -0
    outer loop
      vertex 23.175 4.125 0
      vertex 16.825 4.125 100
      vertex 23.175 4.125 100
    endloop
  endfacet
  facet normal 0 1 0
    outer loop
      vertex 16.825 4.125 100
      vertex 23.175 4.125 0
      vertex 16.825 4.125 0
    endloop
  endfacet
  facet normal 0.951058 -0.309012 0
    outer loop
      vertex 7.57753 22.6405 100
      vertex 8.39797 25.1656 0
      vertex 8.39797 25.1656 100
    endloop
  endfacet
  facet normal 0.951058 -0.309012 0
    outer loop
      vertex 8.39797 25.1656 0
      vertex 7.57753 22.6405 100
      vertex 7.57753 22.6405 0
    endloop
  endfacet
  facet normal -0.866026 -0.5 0
    outer loop
      vertex 31.602 25.1656 0
      vertex 30.2745 27.4649 100
      vertex 30.2745 27.4649 0
    endloop
  endfacet
  facet normal -0.866026 -0.5 0
    outer loop
      vertex 30.2745 27.4649 100
      vertex 31.602 25.1656 0
      vertex 31.602 25.1656 100
    endloop
  endfacet
  facet normal -0.951052 -0.309032 0
    outer loop
      vertex 32.4225 22.6405 0
      vertex 31.602 25.1656 100
      vertex 31.602 25.1656 0
    endloop
  endfacet
  facet normal -0.951052 -0.309032 0
    outer loop
      vertex 31.602 25.1656 100
      vertex 32.4225 22.6405 0
      vertex 32.4225 22.6405 100
    endloop
  endfacet
  facet normal -0.207908 -0.978148 0
    outer loop
      vertex 21.3275 32.6304 0
      vertex 23.9245 32.0784 100
      vertex 21.3275 32.6304 100
    endloop
  endfacet
  facet normal -0.207908 -0.978148 -0
    outer loop
      vertex 23.9245 32.0784 100
      vertex 21.3275 32.6304 0
      vertex 23.9245 32.0784 0
    endloop
  endfacet
  facet normal -0.406736 -0.913546 0
    outer loop
      vertex 23.9245 32.0784 0
      vertex 26.35 30.9985 100
      vertex 23.9245 32.0784 100
    endloop
  endfacet
  facet normal -0.406736 -0.913546 -0
    outer loop
      vertex 26.35 30.9985 100
      vertex 23.9245 32.0784 0
      vertex 26.35 30.9985 0
    endloop
  endfacet
  facet normal 0.207908 -0.978148 0
    outer loop
      vertex 16.0755 32.0784 0
      vertex 18.6725 32.6304 100
      vertex 16.0755 32.0784 100
    endloop
  endfacet
  facet normal 0.207908 -0.978148 0
    outer loop
      vertex 18.6725 32.6304 100
      vertex 16.0755 32.0784 0
      vertex 18.6725 32.6304 0
    endloop
  endfacet
  facet normal 0.866024 -0.500002 0
    outer loop
      vertex 8.39797 25.1656 100
      vertex 9.72548 27.4649 0
      vertex 9.72548 27.4649 100
    endloop
  endfacet
  facet normal 0.866024 -0.500002 0
    outer loop
      vertex 9.72548 27.4649 0
      vertex 8.39797 25.1656 100
      vertex 8.39797 25.1656 0
    endloop
  endfacet
  facet normal -0.994523 0.104518 0
    outer loop
      vertex 32.4225 17.3595 0
      vertex 32.7 20 100
      vertex 32.7 20 0
    endloop
  endfacet
  facet normal -0.994523 0.104518 0
    outer loop
      vertex 32.7 20 100
      vertex 32.4225 17.3595 0
      vertex 32.4225 17.3595 100
    endloop
  endfacet
  facet normal -0.743144 -0.669131 0
    outer loop
      vertex 30.2745 27.4649 0
      vertex 28.498 29.4379 100
      vertex 28.498 29.4379 0
    endloop
  endfacet
  facet normal -0.743144 -0.669131 0
    outer loop
      vertex 28.498 29.4379 100
      vertex 30.2745 27.4649 0
      vertex 30.2745 27.4649 100
    endloop
  endfacet
  facet normal 0 -1 0
    outer loop
      vertex 18.6725 32.6304 0
      vertex 21.3275 32.6304 100
      vertex 18.6725 32.6304 100
    endloop
  endfacet
  facet normal 0 -1 -0
    outer loop
      vertex 21.3275 32.6304 100
      vertex 18.6725 32.6304 0
      vertex 21.3275 32.6304 0
    endloop
  endfacet
  facet normal -0.587782 -0.809019 0
    outer loop
      vertex 26.35 30.9985 0
      vertex 28.498 29.4379 100
      vertex 26.35 30.9985 100
    endloop
  endfacet
  facet normal -0.587782 -0.809019 -0
    outer loop
      vertex 28.498 29.4379 100
      vertex 26.35 30.9985 0
      vertex 28.498 29.4379 0
    endloop
  endfacet
  facet normal 0.994522 -0.104529 0
    outer loop
      vertex 7.3 20 100
      vertex 7.57753 22.6405 0
      vertex 7.57753 22.6405 100
    endloop
  endfacet
  facet normal 0.994522 -0.104529 0
    outer loop
      vertex 7.57753 22.6405 0
      vertex 7.3 20 100
      vertex 7.3 20 0
    endloop
  endfacet
  facet normal 0.743141 -0.669135 0
    outer loop
      vertex 9.72548 27.4649 100
      vertex 11.502 29.4379 0
      vertex 11.502 29.4379 100
    endloop
  endfacet
  facet normal 0.743141 -0.669135 0
    outer loop
      vertex 11.502 29.4379 0
      vertex 9.72548 27.4649 100
      vertex 9.72548 27.4649 0
    endloop
  endfacet
  facet normal 0.406736 -0.913546 0
    outer loop
      vertex 13.65 30.9985 0
      vertex 16.0755 32.0784 100
      vertex 13.65 30.9985 100
    endloop
  endfacet
  facet normal 0.406736 -0.913546 0
    outer loop
      vertex 16.0755 32.0784 100
      vertex 13.65 30.9985 0
      vertex 16.0755 32.0784 0
    endloop
  endfacet
  facet normal 0.587782 -0.809019 0
    outer loop
      vertex 11.502 29.4379 0
      vertex 13.65 30.9985 100
      vertex 11.502 29.4379 100
    endloop
  endfacet
  facet normal 0.587782 -0.809019 0
    outer loop
      vertex 13.65 30.9985 100
      vertex 11.502 29.4379 0
      vertex 13.65 30.9985 0
    endloop
  endfacet
  facet normal -0.994523 -0.104518 0
    outer loop
      vertex 32.7 20 0
      vertex 32.4225 22.6405 100
      vertex 32.4225 22.6405 0
    endloop
  endfacet
  facet normal -0.994523 -0.104518 0
    outer loop
      vertex 32.4225 22.6405 100
      vertex 32.7 20 0
      vertex 32.7 20 100
    endloop
  endfacet
  facet normal -0.587787 0.809016 0
    outer loop
      vertex 28.498 10.5621 0
      vertex 26.35 9.00148 100
      vertex 28.498 10.5621 100
    endloop
  endfacet
  facet normal -0.587787 0.809016 0
    outer loop
      vertex 26.35 9.00148 100
      vertex 28.498 10.5621 0
      vertex 26.35 9.00148 0
    endloop
  endfacet
  facet normal -0.951052 0.309032 0
    outer loop
      vertex 31.602 14.8344 0
      vertex 32.4225 17.3595 100
      vertex 32.4225 17.3595 0
    endloop
  endfacet
  facet normal -0.951052 0.309032 0
    outer loop
      vertex 32.4225 17.3595 100
      vertex 31.602 14.8344 0
      vertex 31.602 14.8344 100
    endloop
  endfacet
  facet normal -0.866026 0.5 0
    outer loop
      vertex 30.2745 12.5351 0
      vertex 31.602 14.8344 100
      vertex 31.602 14.8344 0
    endloop
  endfacet
  facet normal -0.866026 0.5 0
    outer loop
      vertex 31.602 14.8344 100
      vertex 30.2745 12.5351 0
      vertex 30.2745 12.5351 100
    endloop
  endfacet
  facet normal 0.20791 0.978148 -0
    outer loop
      vertex 16.825 7.76227 0
      vertex 16.0755 7.92158 100
      vertex 16.825 7.76227 100
    endloop
  endfacet
  facet normal 0.20791 0.978148 0
    outer loop
      vertex 16.0755 7.92158 100
      vertex 16.825 7.76227 0
      vertex 16.0755 7.92158 0
    endloop
  endfacet
  facet normal 0.994522 0.104529 0
    outer loop
      vertex 7.57753 17.3595 100
      vertex 7.3 20 0
      vertex 7.3 20 100
    endloop
  endfacet
  facet normal 0.994522 0.104529 0
    outer loop
      vertex 7.3 20 0
      vertex 7.57753 17.3595 100
      vertex 7.57753 17.3595 0
    endloop
  endfacet
  facet normal -0.20791 0.978148 0
    outer loop
      vertex 23.9245 7.92158 0
      vertex 23.175 7.76227 100
      vertex 23.9245 7.92158 100
    endloop
  endfacet
  facet normal -0.20791 0.978148 0
    outer loop
      vertex 23.175 7.76227 100
      vertex 23.9245 7.92158 0
      vertex 23.175 7.76227 0
    endloop
  endfacet
  facet normal -0.406736 0.913546 0
    outer loop
      vertex 26.35 9.00148 0
      vertex 23.9245 7.92158 100
      vertex 26.35 9.00148 100
    endloop
  endfacet
  facet normal -0.406736 0.913546 0
    outer loop
      vertex 23.9245 7.92158 100
      vertex 26.35 9.00148 0
      vertex 23.9245 7.92158 0
    endloop
  endfacet
  facet normal -0.743144 0.669131 0
    outer loop
      vertex 28.498 10.5621 0
      vertex 30.2745 12.5351 100
      vertex 30.2745 12.5351 0
    endloop
  endfacet
  facet normal -0.743144 0.669131 0
    outer loop
      vertex 30.2745 12.5351 100
      vertex 28.498 10.5621 0
      vertex 28.498 10.5621 100
    endloop
  endfacet
  facet normal 0.587787 0.809016 -0
    outer loop
      vertex 13.65 9.00148 0
      vertex 11.502 10.5621 100
      vertex 13.65 9.00148 100
    endloop
  endfacet
  facet normal 0.587787 0.809016 0
    outer loop
      vertex 11.502 10.5621 100
      vertex 13.65 9.00148 0
      vertex 11.502 10.5621 0
    endloop
  endfacet
  facet normal 0.406736 0.913546 -0
    outer loop
      vertex 16.0755 7.92158 0
      vertex 13.65 9.00148 100
      vertex 16.0755 7.92158 100
    endloop
  endfacet
  facet normal 0.406736 0.913546 0
    outer loop
      vertex 13.65 9.00148 100
      vertex 16.0755 7.92158 0
      vertex 13.65 9.00148 0
    endloop
  endfacet
  facet normal 0.951058 0.309012 0
    outer loop
      vertex 8.39797 14.8344 100
      vertex 7.57753 17.3595 0
      vertex 7.57753 17.3595 100
    endloop
  endfacet
  facet normal 0.951058 0.309012 0
    outer loop
      vertex 7.57753 17.3595 0
      vertex 8.39797 14.8344 100
      vertex 8.39797 14.8344 0
    endloop
  endfacet
  facet normal 0.743141 0.669135 0
    outer loop
      vertex 11.502 10.5621 100
      vertex 9.72548 12.5351 0
      vertex 9.72548 12.5351 100
    endloop
  endfacet
  facet normal 0.743141 0.669135 0
    outer loop
      vertex 9.72548 12.5351 0
      vertex 11.502 10.5621 100
      vertex 11.502 10.5621 0
    endloop
  endfacet
  facet normal 0.866024 0.500002 0
    outer loop
      vertex 9.72548 12.5351 100
      vertex 8.39797 14.8344 0
      vertex 8.39797 14.8344 100
    endloop
  endfacet
  facet normal 0.866024 0.500002 0
    outer loop
      vertex 8.39797 14.8344 0
      vertex 9.72548 12.5351 100
      vertex 9.72548 12.5351 0
    endloop
  endfacet
endsolid OpenSCAD_Model
