solid OpenSCAD_Model
  facet normal -1 0 0
    outer loop
      vertex 0 0 0
      vertex 0 38.1 38.1
      vertex 0 38.1 0
    endloop
  endfacet
  facet normal -1 -0 0
    outer loop
      vertex 0 38.1 38.1
      vertex 0 0 0
      vertex 0 0 38.1
    endloop
  endfacet
  facet normal 0 0 1
    outer loop
      vertex 114.3 38.1 38.1
      vertex 99.75 19.05 38.1
      vertex 114.3 0 38.1
    endloop
  endfacet
  facet normal 0 0 1
    outer loop
      vertex 114.3 38.1 38.1
      vertex 99.361 20.8803 38.1
      vertex 99.75 19.05 38.1
    endloop
  endfacet
  facet normal 0 0 1
    outer loop
      vertex 114.3 38.1 38.1
      vertex 98.2611 22.3942 38.1
      vertex 99.361 20.8803 38.1
    endloop
  endfacet
  facet normal 0 0 1
    outer loop
      vertex 114.3 38.1 38.1
      vertex 96.6406 23.3298 38.1
      vertex 98.2611 22.3942 38.1
    endloop
  endfacet
  facet normal -0 0 1
    outer loop
      vertex 84.65 38.1 38.1
      vertex 96.6406 23.3298 38.1
      vertex 114.3 38.1 38.1
    endloop
  endfacet
  facet normal 0 0 1
    outer loop
      vertex 96.6406 23.3298 38.1
      vertex 84.65 38.1 38.1
      vertex 94.7796 23.5253 38.1
    endloop
  endfacet
  facet normal 0 0 1
    outer loop
      vertex 90.8483 19.9856 38.1
      vertex 84.65 38.1 38.1
      vertex 90.8483 18.1144 38.1
    endloop
  endfacet
  facet normal 0 0 1
    outer loop
      vertex 91.6094 21.695 38.1
      vertex 84.65 38.1 38.1
      vertex 90.8483 19.9856 38.1
    endloop
  endfacet
  facet normal 0 0 1
    outer loop
      vertex 93 22.9471 38.1
      vertex 84.65 38.1 38.1
      vertex 91.6094 21.695 38.1
    endloop
  endfacet
  facet normal 0 0 1
    outer loop
      vertex 94.7796 23.5253 38.1
      vertex 84.65 38.1 38.1
      vertex 93 22.9471 38.1
    endloop
  endfacet
  facet normal -0 0 1
    outer loop
      vertex 99.361 17.2197 38.1
      vertex 114.3 0 38.1
      vertex 99.75 19.05 38.1
    endloop
  endfacet
  facet normal -0 0 1
    outer loop
      vertex 98.2611 15.7058 38.1
      vertex 114.3 0 38.1
      vertex 99.361 17.2197 38.1
    endloop
  endfacet
  facet normal -0 0 1
    outer loop
      vertex 96.6406 14.7702 38.1
      vertex 114.3 0 38.1
      vertex 98.2611 15.7058 38.1
    endloop
  endfacet
  facet normal 0 0 1
    outer loop
      vertex 84.65 0 38.1
      vertex 96.6406 14.7702 38.1
      vertex 94.7796 14.5747 38.1
    endloop
  endfacet
  facet normal 0 0 1
    outer loop
      vertex 84.65 0 38.1
      vertex 94.7796 14.5747 38.1
      vertex 93 15.1529 38.1
    endloop
  endfacet
  facet normal 0 0 1
    outer loop
      vertex 96.6406 14.7702 38.1
      vertex 84.65 0 38.1
      vertex 114.3 0 38.1
    endloop
  endfacet
  facet normal 0 0 1
    outer loop
      vertex 91.6094 16.405 38.1
      vertex 84.65 0 38.1
      vertex 93 15.1529 38.1
    endloop
  endfacet
  facet normal 0 0 1
    outer loop
      vertex 90.8483 18.1144 38.1
      vertex 84.65 0 38.1
      vertex 91.6094 16.405 38.1
    endloop
  endfacet
  facet normal 0 0 1
    outer loop
      vertex 84.65 0 38.1
      vertex 90.8483 18.1144 38.1
      vertex 84.65 38.1 38.1
    endloop
  endfacet
  facet normal 0 0 1
    outer loop
      vertex 29.65 38.1 38.1
      vertex 23.55 19.05 38.1
      vertex 29.65 0 38.1
    endloop
  endfacet
  facet normal 0 0 1
    outer loop
      vertex 29.65 38.1 38.1
      vertex 23.161 20.8803 38.1
      vertex 23.55 19.05 38.1
    endloop
  endfacet
  facet normal 0 0 1
    outer loop
      vertex 29.65 38.1 38.1
      vertex 22.0611 22.3942 38.1
      vertex 23.161 20.8803 38.1
    endloop
  endfacet
  facet normal 0 0 1
    outer loop
      vertex 29.65 38.1 38.1
      vertex 20.4406 23.3298 38.1
      vertex 22.0611 22.3942 38.1
    endloop
  endfacet
  facet normal 0 0 1
    outer loop
      vertex 29.65 38.1 38.1
      vertex 18.5796 23.5253 38.1
      vertex 20.4406 23.3298 38.1
    endloop
  endfacet
  facet normal -0 0 1
    outer loop
      vertex 0 38.1 38.1
      vertex 18.5796 23.5253 38.1
      vertex 29.65 38.1 38.1
    endloop
  endfacet
  facet normal 0 0 1
    outer loop
      vertex 18.5796 23.5253 38.1
      vertex 0 38.1 38.1
      vertex 16.8 22.9471 38.1
    endloop
  endfacet
  facet normal 0 0 1
    outer loop
      vertex 14.6483 19.9856 38.1
      vertex 0 38.1 38.1
      vertex 14.6483 18.1144 38.1
    endloop
  endfacet
  facet normal 0 0 1
    outer loop
      vertex 15.4094 21.695 38.1
      vertex 0 38.1 38.1
      vertex 14.6483 19.9856 38.1
    endloop
  endfacet
  facet normal 0 0 1
    outer loop
      vertex 16.8 22.9471 38.1
      vertex 0 38.1 38.1
      vertex 15.4094 21.695 38.1
    endloop
  endfacet
  facet normal -0 0 1
    outer loop
      vertex 23.161 17.2197 38.1
      vertex 29.65 0 38.1
      vertex 23.55 19.05 38.1
    endloop
  endfacet
  facet normal -0 0 1
    outer loop
      vertex 22.0611 15.7058 38.1
      vertex 29.65 0 38.1
      vertex 23.161 17.2197 38.1
    endloop
  endfacet
  facet normal -0 0 1
    outer loop
      vertex 20.4406 14.7702 38.1
      vertex 29.65 0 38.1
      vertex 22.0611 15.7058 38.1
    endloop
  endfacet
  facet normal -0 0 1
    outer loop
      vertex 18.5796 14.5747 38.1
      vertex 29.65 0 38.1
      vertex 20.4406 14.7702 38.1
    endloop
  endfacet
  facet normal 0 0 1
    outer loop
      vertex 0 0 38.1
      vertex 18.5796 14.5747 38.1
      vertex 16.8 15.1529 38.1
    endloop
  endfacet
  facet normal 0 0 1
    outer loop
      vertex 0 0 38.1
      vertex 16.8 15.1529 38.1
      vertex 15.4094 16.405 38.1
    endloop
  endfacet
  facet normal 0 0 1
    outer loop
      vertex 0 0 38.1
      vertex 14.6483 18.1144 38.1
      vertex 0 38.1 38.1
    endloop
  endfacet
  facet normal 0 0 1
    outer loop
      vertex 18.5796 14.5747 38.1
      vertex 0 0 38.1
      vertex 29.65 0 38.1
    endloop
  endfacet
  facet normal 0 0 1
    outer loop
      vertex 14.6483 18.1144 38.1
      vertex 0 0 38.1
      vertex 15.4094 16.405 38.1
    endloop
  endfacet
  facet normal 1 -0 0
    outer loop
      vertex 114.3 0 38.1
      vertex 114.3 38.1 0
      vertex 114.3 38.1 38.1
    endloop
  endfacet
  facet normal 1 0 0
    outer loop
      vertex 114.3 38.1 0
      vertex 114.3 0 38.1
      vertex 114.3 0 0
    endloop
  endfacet
  facet normal 0 0 -1
    outer loop
      vertex 114.3 0 0
      vertex 99.75 19.05 0
      vertex 114.3 38.1 0
    endloop
  endfacet
  facet normal 0 0 -1
    outer loop
      vertex 114.3 0 0
      vertex 99.361 17.2197 0
      vertex 99.75 19.05 0
    endloop
  endfacet
  facet normal 0 0 -1
    outer loop
      vertex 114.3 0 0
      vertex 98.2611 15.7058 0
      vertex 99.361 17.2197 0
    endloop
  endfacet
  facet normal 0 0 -1
    outer loop
      vertex 114.3 0 0
      vertex 96.6406 14.7702 0
      vertex 98.2611 15.7058 0
    endloop
  endfacet
  facet normal 0 0 -1
    outer loop
      vertex 114.3 0 0
      vertex 94.7796 14.5747 0
      vertex 96.6406 14.7702 0
    endloop
  endfacet
  facet normal 0 0 -1
    outer loop
      vertex 114.3 0 0
      vertex 93 15.1529 0
      vertex 94.7796 14.5747 0
    endloop
  endfacet
  facet normal 0 0 -1
    outer loop
      vertex 90.8483 18.1144 0
      vertex 61.65 19.05 0
      vertex 90.8483 19.9856 0
    endloop
  endfacet
  facet normal 0 0 -1
    outer loop
      vertex 61.261 17.2197 0
      vertex 90.8483 18.1144 0
      vertex 91.6094 16.405 0
    endloop
  endfacet
  facet normal 0 0 -1
    outer loop
      vertex 60.1611 15.7058 0
      vertex 91.6094 16.405 0
      vertex 93 15.1529 0
    endloop
  endfacet
  facet normal 0 0 -1
    outer loop
      vertex 58.5406 14.7702 0
      vertex 93 15.1529 0
      vertex 114.3 0 0
    endloop
  endfacet
  facet normal -0 0 -1
    outer loop
      vertex 90.8483 18.1144 0
      vertex 61.261 17.2197 0
      vertex 61.65 19.05 0
    endloop
  endfacet
  facet normal -0 0 -1
    outer loop
      vertex 91.6094 16.405 0
      vertex 60.1611 15.7058 0
      vertex 61.261 17.2197 0
    endloop
  endfacet
  facet normal -0 0 -1
    outer loop
      vertex 93 15.1529 0
      vertex 58.5406 14.7702 0
      vertex 60.1611 15.7058 0
    endloop
  endfacet
  facet normal 0 0 -1
    outer loop
      vertex 114.3 0 0
      vertex 56.6796 14.5747 0
      vertex 58.5406 14.7702 0
    endloop
  endfacet
  facet normal 0 0 -1
    outer loop
      vertex 52.7483 18.1144 0
      vertex 23.55 19.05 0
      vertex 52.7483 19.9856 0
    endloop
  endfacet
  facet normal 0 0 -1
    outer loop
      vertex 23.161 17.2197 0
      vertex 52.7483 18.1144 0
      vertex 53.5094 16.405 0
    endloop
  endfacet
  facet normal 0 0 -1
    outer loop
      vertex 22.0611 15.7058 0
      vertex 53.5094 16.405 0
      vertex 54.9 15.1529 0
    endloop
  endfacet
  facet normal 0 0 -1
    outer loop
      vertex 0 0 0
      vertex 54.9 15.1529 0
      vertex 56.6796 14.5747 0
    endloop
  endfacet
  facet normal 0 0 -1
    outer loop
      vertex 0 0 0
      vertex 56.6796 14.5747 0
      vertex 114.3 0 0
    endloop
  endfacet
  facet normal -0 0 -1
    outer loop
      vertex 52.7483 18.1144 0
      vertex 23.161 17.2197 0
      vertex 23.55 19.05 0
    endloop
  endfacet
  facet normal -0 0 -1
    outer loop
      vertex 53.5094 16.405 0
      vertex 22.0611 15.7058 0
      vertex 23.161 17.2197 0
    endloop
  endfacet
  facet normal -0 0 -1
    outer loop
      vertex 54.9 15.1529 0
      vertex 20.4406 14.7702 0
      vertex 22.0611 15.7058 0
    endloop
  endfacet
  facet normal 0 0 -1
    outer loop
      vertex 54.9 15.1529 0
      vertex 0 0 0
      vertex 20.4406 14.7702 0
    endloop
  endfacet
  facet normal -0 0 -1
    outer loop
      vertex 14.6483 18.1144 0
      vertex 0 0 0
      vertex 14.6483 19.9856 0
    endloop
  endfacet
  facet normal -0 0 -1
    outer loop
      vertex 15.4094 16.405 0
      vertex 0 0 0
      vertex 14.6483 18.1144 0
    endloop
  endfacet
  facet normal -0 0 -1
    outer loop
      vertex 16.8 15.1529 0
      vertex 0 0 0
      vertex 15.4094 16.405 0
    endloop
  endfacet
  facet normal -0 0 -1
    outer loop
      vertex 18.5796 14.5747 0
      vertex 0 0 0
      vertex 16.8 15.1529 0
    endloop
  endfacet
  facet normal 0 0 -1
    outer loop
      vertex 20.4406 14.7702 0
      vertex 0 0 0
      vertex 18.5796 14.5747 0
    endloop
  endfacet
  facet normal 0 0 -1
    outer loop
      vertex 99.361 20.8803 0
      vertex 114.3 38.1 0
      vertex 99.75 19.05 0
    endloop
  endfacet
  facet normal 0 0 -1
    outer loop
      vertex 98.2611 22.3942 0
      vertex 114.3 38.1 0
      vertex 99.361 20.8803 0
    endloop
  endfacet
  facet normal 0 0 -1
    outer loop
      vertex 96.6406 23.3298 0
      vertex 114.3 38.1 0
      vertex 98.2611 22.3942 0
    endloop
  endfacet
  facet normal 0 0 -1
    outer loop
      vertex 94.7796 23.5253 0
      vertex 114.3 38.1 0
      vertex 96.6406 23.3298 0
    endloop
  endfacet
  facet normal 0 0 -1
    outer loop
      vertex 93 22.9471 0
      vertex 114.3 38.1 0
      vertex 94.7796 23.5253 0
    endloop
  endfacet
  facet normal 0 0 -1
    outer loop
      vertex 61.261 20.8803 0
      vertex 90.8483 19.9856 0
      vertex 61.65 19.05 0
    endloop
  endfacet
  facet normal 0 0 -1
    outer loop
      vertex 90.8483 19.9856 0
      vertex 61.261 20.8803 0
      vertex 91.6094 21.695 0
    endloop
  endfacet
  facet normal 0 0 -1
    outer loop
      vertex 60.1611 22.3942 0
      vertex 91.6094 21.695 0
      vertex 61.261 20.8803 0
    endloop
  endfacet
  facet normal 0 0 -1
    outer loop
      vertex 91.6094 21.695 0
      vertex 60.1611 22.3942 0
      vertex 93 22.9471 0
    endloop
  endfacet
  facet normal 0 0 -1
    outer loop
      vertex 58.5406 23.3298 0
      vertex 93 22.9471 0
      vertex 60.1611 22.3942 0
    endloop
  endfacet
  facet normal 0 0 -1
    outer loop
      vertex 93 22.9471 0
      vertex 58.5406 23.3298 0
      vertex 114.3 38.1 0
    endloop
  endfacet
  facet normal 0 0 -1
    outer loop
      vertex 56.6796 23.5253 0
      vertex 114.3 38.1 0
      vertex 58.5406 23.3298 0
    endloop
  endfacet
  facet normal 0 0 -1
    outer loop
      vertex 23.161 20.8803 0
      vertex 52.7483 19.9856 0
      vertex 23.55 19.05 0
    endloop
  endfacet
  facet normal 0 0 -1
    outer loop
      vertex 52.7483 19.9856 0
      vertex 23.161 20.8803 0
      vertex 53.5094 21.695 0
    endloop
  endfacet
  facet normal 0 0 -1
    outer loop
      vertex 22.0611 22.3942 0
      vertex 53.5094 21.695 0
      vertex 23.161 20.8803 0
    endloop
  endfacet
  facet normal 0 0 -1
    outer loop
      vertex 53.5094 21.695 0
      vertex 22.0611 22.3942 0
      vertex 54.9 22.9471 0
    endloop
  endfacet
  facet normal 0 0 -1
    outer loop
      vertex 20.4406 23.3298 0
      vertex 54.9 22.9471 0
      vertex 22.0611 22.3942 0
    endloop
  endfacet
  facet normal 0 0 -1
    outer loop
      vertex 0 38.1 0
      vertex 54.9 22.9471 0
      vertex 20.4406 23.3298 0
    endloop
  endfacet
  facet normal 0 0 -1
    outer loop
      vertex 54.9 22.9471 0
      vertex 0 38.1 0
      vertex 56.6796 23.5253 0
    endloop
  endfacet
  facet normal 0 0 -1
    outer loop
      vertex 0 38.1 0
      vertex 20.4406 23.3298 0
      vertex 18.5796 23.5253 0
    endloop
  endfacet
  facet normal 0 0 -1
    outer loop
      vertex 0 38.1 0
      vertex 14.6483 19.9856 0
      vertex 0 0 0
    endloop
  endfacet
  facet normal 0 0 -1
    outer loop
      vertex 56.6796 23.5253 0
      vertex 0 38.1 0
      vertex 114.3 38.1 0
    endloop
  endfacet
  facet normal 0 0 -1
    outer loop
      vertex 16.8 22.9471 0
      vertex 0 38.1 0
      vertex 18.5796 23.5253 0
    endloop
  endfacet
  facet normal 0 0 -1
    outer loop
      vertex 15.4094 21.695 0
      vertex 0 38.1 0
      vertex 16.8 22.9471 0
    endloop
  endfacet
  facet normal 0 0 -1
    outer loop
      vertex 14.6483 19.9856 0
      vertex 0 38.1 0
      vertex 15.4094 21.695 0
    endloop
  endfacet
  facet normal 0 -1 0
    outer loop
      vertex 0 0 38.1
      vertex 30.2509 0 32.3824
      vertex 29.65 0 38.1
    endloop
  endfacet
  facet normal 0 -1 0
    outer loop
      vertex 0 0 38.1
      vertex 32.0275 0 26.9147
      vertex 30.2509 0 32.3824
    endloop
  endfacet
  facet normal 0 -1 0
    outer loop
      vertex 0 0 0
      vertex 32.0275 0 26.9147
      vertex 0 0 38.1
    endloop
  endfacet
  facet normal 0 -1 -0
    outer loop
      vertex 32.0275 0 26.9147
      vertex 0 0 0
      vertex 34.902 0 21.9359
    endloop
  endfacet
  facet normal 0 -1 -0
    outer loop
      vertex 34.902 0 21.9359
      vertex 0 0 0
      vertex 38.7489 0 17.6635
    endloop
  endfacet
  facet normal 0 -1 -0
    outer loop
      vertex 54.2755 0 10.7506
      vertex 0 0 0
      vertex 60.0245 0 10.7506
    endloop
  endfacet
  facet normal 0 -1 -0
    outer loop
      vertex 48.652 0 11.9459
      vertex 0 0 0
      vertex 54.2755 0 10.7506
    endloop
  endfacet
  facet normal 0 -1 -0
    outer loop
      vertex 43.4 0 14.2843
      vertex 0 0 0
      vertex 48.652 0 11.9459
    endloop
  endfacet
  facet normal 0 -1 -0
    outer loop
      vertex 38.7489 0 17.6635
      vertex 0 0 0
      vertex 43.4 0 14.2843
    endloop
  endfacet
  facet normal 0 -1 0
    outer loop
      vertex 84.0491 0 32.3824
      vertex 114.3 0 38.1
      vertex 84.65 0 38.1
    endloop
  endfacet
  facet normal 0 -1 0
    outer loop
      vertex 82.2725 0 26.9147
      vertex 114.3 0 38.1
      vertex 84.0491 0 32.3824
    endloop
  endfacet
  facet normal 0 -1 0
    outer loop
      vertex 114.3 0 0
      vertex 82.2725 0 26.9147
      vertex 79.398 0 21.9359
    endloop
  endfacet
  facet normal 0 -1 0
    outer loop
      vertex 114.3 0 0
      vertex 79.398 0 21.9359
      vertex 75.5511 0 17.6635
    endloop
  endfacet
  facet normal 0 -1 0
    outer loop
      vertex 114.3 0 0
      vertex 75.5511 0 17.6635
      vertex 70.9 0 14.2843
    endloop
  endfacet
  facet normal 0 -1 0
    outer loop
      vertex 82.2725 0 26.9147
      vertex 114.3 0 0
      vertex 114.3 0 38.1
    endloop
  endfacet
  facet normal 0 -1 0
    outer loop
      vertex 65.648 0 11.9459
      vertex 114.3 0 0
      vertex 70.9 0 14.2843
    endloop
  endfacet
  facet normal 0 -1 0
    outer loop
      vertex 60.0245 0 10.7506
      vertex 114.3 0 0
      vertex 65.648 0 11.9459
    endloop
  endfacet
  facet normal 0 -1 0
    outer loop
      vertex 114.3 0 0
      vertex 60.0245 0 10.7506
      vertex 0 0 0
    endloop
  endfacet
  facet normal 0 1 0
    outer loop
      vertex 114.3 38.1 38.1
      vertex 84.0491 38.1 32.3824
      vertex 84.65 38.1 38.1
    endloop
  endfacet
  facet normal 0 1 0
    outer loop
      vertex 114.3 38.1 38.1
      vertex 82.2725 38.1 26.9147
      vertex 84.0491 38.1 32.3824
    endloop
  endfacet
  facet normal 0 1 -0
    outer loop
      vertex 114.3 38.1 0
      vertex 82.2725 38.1 26.9147
      vertex 114.3 38.1 38.1
    endloop
  endfacet
  facet normal 0 1 0
    outer loop
      vertex 82.2725 38.1 26.9147
      vertex 114.3 38.1 0
      vertex 79.398 38.1 21.9359
    endloop
  endfacet
  facet normal 0 1 0
    outer loop
      vertex 79.398 38.1 21.9359
      vertex 114.3 38.1 0
      vertex 75.5511 38.1 17.6635
    endloop
  endfacet
  facet normal 0 1 0
    outer loop
      vertex 60.0245 38.1 10.7506
      vertex 114.3 38.1 0
      vertex 54.2755 38.1 10.7506
    endloop
  endfacet
  facet normal 0 1 0
    outer loop
      vertex 65.648 38.1 11.9459
      vertex 114.3 38.1 0
      vertex 60.0245 38.1 10.7506
    endloop
  endfacet
  facet normal 0 1 0
    outer loop
      vertex 70.9 38.1 14.2843
      vertex 114.3 38.1 0
      vertex 65.648 38.1 11.9459
    endloop
  endfacet
  facet normal 0 1 0
    outer loop
      vertex 75.5511 38.1 17.6635
      vertex 114.3 38.1 0
      vertex 70.9 38.1 14.2843
    endloop
  endfacet
  facet normal 0 1 0
    outer loop
      vertex 30.2509 38.1 32.3824
      vertex 0 38.1 38.1
      vertex 29.65 38.1 38.1
    endloop
  endfacet
  facet normal 0 1 0
    outer loop
      vertex 32.0275 38.1 26.9147
      vertex 0 38.1 38.1
      vertex 30.2509 38.1 32.3824
    endloop
  endfacet
  facet normal 0 1 0
    outer loop
      vertex 0 38.1 0
      vertex 32.0275 38.1 26.9147
      vertex 34.902 38.1 21.9359
    endloop
  endfacet
  facet normal 0 1 0
    outer loop
      vertex 0 38.1 0
      vertex 34.902 38.1 21.9359
      vertex 38.7489 38.1 17.6635
    endloop
  endfacet
  facet normal 0 1 0
    outer loop
      vertex 0 38.1 0
      vertex 38.7489 38.1 17.6635
      vertex 43.4 38.1 14.2843
    endloop
  endfacet
  facet normal 0 1 0
    outer loop
      vertex 32.0275 38.1 26.9147
      vertex 0 38.1 0
      vertex 0 38.1 38.1
    endloop
  endfacet
  facet normal 0 1 0
    outer loop
      vertex 48.652 38.1 11.9459
      vertex 0 38.1 0
      vertex 43.4 38.1 14.2843
    endloop
  endfacet
  facet normal 0 1 0
    outer loop
      vertex 54.2755 38.1 10.7506
      vertex 0 38.1 0
      vertex 48.652 38.1 11.9459
    endloop
  endfacet
  facet normal 0 1 0
    outer loop
      vertex 0 38.1 0
      vertex 54.2755 38.1 10.7506
      vertex 114.3 38.1 0
    endloop
  endfacet
  facet normal -0.994523 0 0.104521
    outer loop
      vertex 84.0491 0 32.3824
      vertex 84.65 38.1 38.1
      vertex 84.0491 38.1 32.3824
    endloop
  endfacet
  facet normal -0.994523 0 0.104521
    outer loop
      vertex 84.65 38.1 38.1
      vertex 84.0491 0 32.3824
      vertex 84.65 0 38.1
    endloop
  endfacet
  facet normal -0.207888 0 0.978153
    outer loop
      vertex 65.648 38.1 11.9459
      vertex 61.65 19.05 11.0962
      vertex 65.648 0 11.9459
    endloop
  endfacet
  facet normal -0.207919 6.72775e-06 0.978146
    outer loop
      vertex 65.648 38.1 11.9459
      vertex 61.261 20.8803 11.0135
      vertex 61.65 19.05 11.0962
    endloop
  endfacet
  facet normal -0.207913 5.11759e-06 0.978147
    outer loop
      vertex 65.648 38.1 11.9459
      vertex 60.1611 22.3942 10.7797
      vertex 61.261 20.8803 11.0135
    endloop
  endfacet
  facet normal -0.20791 0 0.978148
    outer loop
      vertex 60.0245 22.473 10.7506
      vertex 65.648 38.1 11.9459
      vertex 60.0245 38.1 10.7506
    endloop
  endfacet
  facet normal -0.208279 0.00013882 0.978069
    outer loop
      vertex 65.648 38.1 11.9459
      vertex 60.0245 22.473 10.7506
      vertex 60.1611 22.3942 10.7797
    endloop
  endfacet
  facet normal -0.207919 -6.72775e-06 0.978146
    outer loop
      vertex 61.261 17.2197 11.0135
      vertex 65.648 0 11.9459
      vertex 61.65 19.05 11.0962
    endloop
  endfacet
  facet normal -0.207913 -5.11759e-06 0.978147
    outer loop
      vertex 60.1611 15.7058 10.7797
      vertex 65.648 0 11.9459
      vertex 61.261 17.2197 11.0135
    endloop
  endfacet
  facet normal -0.208279 -0.00013882 0.978069
    outer loop
      vertex 60.0245 15.627 10.7506
      vertex 65.648 0 11.9459
      vertex 60.1611 15.7058 10.7797
    endloop
  endfacet
  facet normal -0.20791 0 0.978148
    outer loop
      vertex 65.648 0 11.9459
      vertex 60.0245 15.627 10.7506
      vertex 60.0245 0 10.7506
    endloop
  endfacet
  facet normal 0.743144 -0 0.669132
    outer loop
      vertex 34.902 0 21.9359
      vertex 38.7489 38.1 17.6635
      vertex 34.902 38.1 21.9359
    endloop
  endfacet
  facet normal 0.743144 0 0.669132
    outer loop
      vertex 38.7489 38.1 17.6635
      vertex 34.902 0 21.9359
      vertex 38.7489 0 17.6635
    endloop
  endfacet
  facet normal 0.866026 -0 0.499998
    outer loop
      vertex 32.0275 0 26.9147
      vertex 34.902 38.1 21.9359
      vertex 32.0275 38.1 26.9147
    endloop
  endfacet
  facet normal 0.866026 0 0.499998
    outer loop
      vertex 34.902 38.1 21.9359
      vertex 32.0275 0 26.9147
      vertex 34.902 0 21.9359
    endloop
  endfacet
  facet normal 0.951055 -0 0.309023
    outer loop
      vertex 30.2509 0 32.3824
      vertex 32.0275 38.1 26.9147
      vertex 30.2509 38.1 32.3824
    endloop
  endfacet
  facet normal 0.951055 0 0.309023
    outer loop
      vertex 32.0275 38.1 26.9147
      vertex 30.2509 0 32.3824
      vertex 32.0275 0 26.9147
    endloop
  endfacet
  facet normal -0 0 1
    outer loop
      vertex 58.5406 14.7702 10.7506
      vertex 60.0245 0 10.7506
      vertex 60.0245 15.627 10.7506
    endloop
  endfacet
  facet normal -0 0 1
    outer loop
      vertex 56.6796 14.5747 10.7506
      vertex 60.0245 0 10.7506
      vertex 58.5406 14.7702 10.7506
    endloop
  endfacet
  facet normal 0 0 1
    outer loop
      vertex 54.2755 0 10.7506
      vertex 56.6796 14.5747 10.7506
      vertex 54.9 15.1529 10.7506
    endloop
  endfacet
  facet normal 0 0 1
    outer loop
      vertex 54.2755 0 10.7506
      vertex 54.9 15.1529 10.7506
      vertex 54.2755 15.7152 10.7506
    endloop
  endfacet
  facet normal 0 0 1
    outer loop
      vertex 56.6796 14.5747 10.7506
      vertex 54.2755 0 10.7506
      vertex 60.0245 0 10.7506
    endloop
  endfacet
  facet normal 0 0 1
    outer loop
      vertex 60.0245 38.1 10.7506
      vertex 58.5406 23.3298 10.7506
      vertex 60.0245 22.473 10.7506
    endloop
  endfacet
  facet normal 0 0 1
    outer loop
      vertex 60.0245 38.1 10.7506
      vertex 56.6796 23.5253 10.7506
      vertex 58.5406 23.3298 10.7506
    endloop
  endfacet
  facet normal -0 0 1
    outer loop
      vertex 54.2755 38.1 10.7506
      vertex 56.6796 23.5253 10.7506
      vertex 60.0245 38.1 10.7506
    endloop
  endfacet
  facet normal 0 0 1
    outer loop
      vertex 56.6796 23.5253 10.7506
      vertex 54.2755 38.1 10.7506
      vertex 54.9 22.9471 10.7506
    endloop
  endfacet
  facet normal 0 0 1
    outer loop
      vertex 54.9 22.9471 10.7506
      vertex 54.2755 38.1 10.7506
      vertex 54.2755 22.3848 10.7506
    endloop
  endfacet
  facet normal -0.951055 0 0.309023
    outer loop
      vertex 82.2725 0 26.9147
      vertex 84.0491 38.1 32.3824
      vertex 82.2725 38.1 26.9147
    endloop
  endfacet
  facet normal -0.951055 0 0.309023
    outer loop
      vertex 84.0491 38.1 32.3824
      vertex 82.2725 0 26.9147
      vertex 84.0491 0 32.3824
    endloop
  endfacet
  facet normal -0.866026 0 0.499998
    outer loop
      vertex 79.398 0 21.9359
      vertex 82.2725 38.1 26.9147
      vertex 79.398 38.1 21.9359
    endloop
  endfacet
  facet normal -0.866026 0 0.499998
    outer loop
      vertex 82.2725 38.1 26.9147
      vertex 79.398 0 21.9359
      vertex 82.2725 0 26.9147
    endloop
  endfacet
  facet normal 0.994523 -0 0.104521
    outer loop
      vertex 29.65 0 38.1
      vertex 30.2509 38.1 32.3824
      vertex 29.65 38.1 38.1
    endloop
  endfacet
  facet normal 0.994523 0 0.104521
    outer loop
      vertex 30.2509 38.1 32.3824
      vertex 29.65 0 38.1
      vertex 30.2509 0 32.3824
    endloop
  endfacet
  facet normal -0.406745 0 0.913542
    outer loop
      vertex 65.648 38.1 11.9459
      vertex 70.9 0 14.2843
      vertex 70.9 38.1 14.2843
    endloop
  endfacet
  facet normal -0.406745 0 0.913542
    outer loop
      vertex 70.9 0 14.2843
      vertex 65.648 38.1 11.9459
      vertex 65.648 0 11.9459
    endloop
  endfacet
  facet normal -0.587783 0 0.809019
    outer loop
      vertex 70.9 38.1 14.2843
      vertex 75.5511 0 17.6635
      vertex 75.5511 38.1 17.6635
    endloop
  endfacet
  facet normal -0.587783 0 0.809019
    outer loop
      vertex 75.5511 0 17.6635
      vertex 70.9 38.1 14.2843
      vertex 70.9 0 14.2843
    endloop
  endfacet
  facet normal -0.743144 0 0.669132
    outer loop
      vertex 75.5511 0 17.6635
      vertex 79.398 38.1 21.9359
      vertex 75.5511 38.1 17.6635
    endloop
  endfacet
  facet normal -0.743144 0 0.669132
    outer loop
      vertex 79.398 38.1 21.9359
      vertex 75.5511 0 17.6635
      vertex 79.398 0 21.9359
    endloop
  endfacet
  facet normal 0.587783 0 0.809019
    outer loop
      vertex 38.7489 38.1 17.6635
      vertex 43.4 0 14.2843
      vertex 43.4 38.1 14.2843
    endloop
  endfacet
  facet normal 0.587783 0 0.809019
    outer loop
      vertex 43.4 0 14.2843
      vertex 38.7489 38.1 17.6635
      vertex 38.7489 0 17.6635
    endloop
  endfacet
  facet normal 0.406745 0 0.913542
    outer loop
      vertex 43.4 38.1 14.2843
      vertex 48.652 0 11.9459
      vertex 48.652 38.1 11.9459
    endloop
  endfacet
  facet normal 0.406745 0 0.913542
    outer loop
      vertex 48.652 0 11.9459
      vertex 43.4 38.1 14.2843
      vertex 43.4 0 14.2843
    endloop
  endfacet
  facet normal 0.20791 0 0.978148
    outer loop
      vertex 48.652 38.1 11.9459
      vertex 54.2755 22.3848 10.7506
      vertex 54.2755 38.1 10.7506
    endloop
  endfacet
  facet normal 0.207967 2.14338e-05 0.978136
    outer loop
      vertex 54.2755 22.3848 10.7506
      vertex 48.652 38.1 11.9459
      vertex 53.5094 21.695 10.9135
    endloop
  endfacet
  facet normal 0.207913 0 0.978147
    outer loop
      vertex 52.7483 19.9856 11.0752
      vertex 48.652 38.1 11.9459
      vertex 52.7483 18.1144 11.0752
    endloop
  endfacet
  facet normal 0.207849 -1.49652e-05 0.978161
    outer loop
      vertex 53.5094 21.695 10.9135
      vertex 48.652 38.1 11.9459
      vertex 52.7483 19.9856 11.0752
    endloop
  endfacet
  facet normal 0.207967 -2.14338e-05 0.978136
    outer loop
      vertex 48.652 0 11.9459
      vertex 54.2755 15.7152 10.7506
      vertex 53.5094 16.405 10.9135
    endloop
  endfacet
  facet normal 0.207849 1.49652e-05 0.978161
    outer loop
      vertex 48.652 0 11.9459
      vertex 53.5094 16.405 10.9135
      vertex 52.7483 18.1144 11.0752
    endloop
  endfacet
  facet normal 0.207913 -0 0.978147
    outer loop
      vertex 48.652 0 11.9459
      vertex 52.7483 18.1144 11.0752
      vertex 48.652 38.1 11.9459
    endloop
  endfacet
  facet normal 0.20791 0 0.978148
    outer loop
      vertex 54.2755 15.7152 10.7506
      vertex 48.652 0 11.9459
      vertex 54.2755 0 10.7506
    endloop
  endfacet
  facet normal -0.978152 -0.20789 0
    outer loop
      vertex 23.55 19.05 0
      vertex 23.161 20.8803 38.1
      vertex 23.161 20.8803 0
    endloop
  endfacet
  facet normal -0.978152 -0.20789 0
    outer loop
      vertex 23.161 20.8803 38.1
      vertex 23.55 19.05 0
      vertex 23.55 19.05 38.1
    endloop
  endfacet
  facet normal 1 -0 0
    outer loop
      vertex 14.6483 18.1144 38.1
      vertex 14.6483 19.9856 0
      vertex 14.6483 19.9856 38.1
    endloop
  endfacet
  facet normal 1 0 0
    outer loop
      vertex 14.6483 19.9856 0
      vertex 14.6483 18.1144 38.1
      vertex 14.6483 18.1144 0
    endloop
  endfacet
  facet normal 0.309004 -0.951061 0
    outer loop
      vertex 16.8 22.9471 0
      vertex 18.5796 23.5253 38.1
      vertex 16.8 22.9471 38.1
    endloop
  endfacet
  facet normal 0.309004 -0.951061 0
    outer loop
      vertex 18.5796 23.5253 38.1
      vertex 16.8 22.9471 0
      vertex 18.5796 23.5253 0
    endloop
  endfacet
  facet normal 0.66913 -0.743145 0
    outer loop
      vertex 15.4094 21.695 0
      vertex 16.8 22.9471 38.1
      vertex 15.4094 21.695 38.1
    endloop
  endfacet
  facet normal 0.66913 -0.743145 0
    outer loop
      vertex 16.8 22.9471 38.1
      vertex 15.4094 21.695 0
      vertex 16.8 22.9471 0
    endloop
  endfacet
  facet normal -0.104476 0.994527 0
    outer loop
      vertex 20.4406 14.7702 0
      vertex 18.5796 14.5747 38.1
      vertex 20.4406 14.7702 38.1
    endloop
  endfacet
  facet normal -0.104476 0.994527 0
    outer loop
      vertex 18.5796 14.5747 38.1
      vertex 20.4406 14.7702 0
      vertex 18.5796 14.5747 0
    endloop
  endfacet
  facet normal -0.500002 0.866025 0
    outer loop
      vertex 22.0611 15.7058 0
      vertex 20.4406 14.7702 38.1
      vertex 22.0611 15.7058 38.1
    endloop
  endfacet
  facet normal -0.500002 0.866025 0
    outer loop
      vertex 20.4406 14.7702 38.1
      vertex 22.0611 15.7058 0
      vertex 20.4406 14.7702 0
    endloop
  endfacet
  facet normal -0.500002 -0.866025 0
    outer loop
      vertex 20.4406 23.3298 0
      vertex 22.0611 22.3942 38.1
      vertex 20.4406 23.3298 38.1
    endloop
  endfacet
  facet normal -0.500002 -0.866025 -0
    outer loop
      vertex 22.0611 22.3942 38.1
      vertex 20.4406 23.3298 0
      vertex 22.0611 22.3942 0
    endloop
  endfacet
  facet normal -0.80902 -0.587781 0
    outer loop
      vertex 23.161 20.8803 0
      vertex 22.0611 22.3942 38.1
      vertex 22.0611 22.3942 0
    endloop
  endfacet
  facet normal -0.80902 -0.587781 0
    outer loop
      vertex 22.0611 22.3942 38.1
      vertex 23.161 20.8803 0
      vertex 23.161 20.8803 38.1
    endloop
  endfacet
  facet normal -0.104476 -0.994527 0
    outer loop
      vertex 18.5796 23.5253 0
      vertex 20.4406 23.3298 38.1
      vertex 18.5796 23.5253 38.1
    endloop
  endfacet
  facet normal -0.104476 -0.994527 -0
    outer loop
      vertex 20.4406 23.3298 38.1
      vertex 18.5796 23.5253 0
      vertex 20.4406 23.3298 0
    endloop
  endfacet
  facet normal 0.91354 -0.406748 0
    outer loop
      vertex 14.6483 19.9856 38.1
      vertex 15.4094 21.695 0
      vertex 15.4094 21.695 38.1
    endloop
  endfacet
  facet normal 0.91354 -0.406748 0
    outer loop
      vertex 15.4094 21.695 0
      vertex 14.6483 19.9856 38.1
      vertex 14.6483 19.9856 0
    endloop
  endfacet
  facet normal 0.309004 0.951061 -0
    outer loop
      vertex 18.5796 14.5747 0
      vertex 16.8 15.1529 38.1
      vertex 18.5796 14.5747 38.1
    endloop
  endfacet
  facet normal 0.309004 0.951061 0
    outer loop
      vertex 16.8 15.1529 38.1
      vertex 18.5796 14.5747 0
      vertex 16.8 15.1529 0
    endloop
  endfacet
  facet normal -0.80902 0.587781 0
    outer loop
      vertex 22.0611 15.7058 0
      vertex 23.161 17.2197 38.1
      vertex 23.161 17.2197 0
    endloop
  endfacet
  facet normal -0.80902 0.587781 0
    outer loop
      vertex 23.161 17.2197 38.1
      vertex 22.0611 15.7058 0
      vertex 22.0611 15.7058 38.1
    endloop
  endfacet
  facet normal -0.978152 0.20789 0
    outer loop
      vertex 23.161 17.2197 0
      vertex 23.55 19.05 38.1
      vertex 23.55 19.05 0
    endloop
  endfacet
  facet normal -0.978152 0.20789 0
    outer loop
      vertex 23.55 19.05 38.1
      vertex 23.161 17.2197 0
      vertex 23.161 17.2197 38.1
    endloop
  endfacet
  facet normal 0.66913 0.743145 -0
    outer loop
      vertex 16.8 15.1529 0
      vertex 15.4094 16.405 38.1
      vertex 16.8 15.1529 38.1
    endloop
  endfacet
  facet normal 0.66913 0.743145 0
    outer loop
      vertex 15.4094 16.405 38.1
      vertex 16.8 15.1529 0
      vertex 15.4094 16.405 0
    endloop
  endfacet
  facet normal 0.91354 0.406748 0
    outer loop
      vertex 15.4094 16.405 38.1
      vertex 14.6483 18.1144 0
      vertex 14.6483 18.1144 38.1
    endloop
  endfacet
  facet normal 0.91354 0.406748 0
    outer loop
      vertex 14.6483 18.1144 0
      vertex 15.4094 16.405 38.1
      vertex 15.4094 16.405 0
    endloop
  endfacet
  facet normal -0.978152 -0.20789 0
    outer loop
      vertex 61.65 19.05 0
      vertex 61.261 20.8803 3
      vertex 61.261 20.8803 0
    endloop
  endfacet
  facet normal -0.978152 -0.20789 0
    outer loop
      vertex 61.261 20.8803 3
      vertex 61.65 19.05 0
      vertex 61.65 19.05 3
    endloop
  endfacet
  facet normal -0.978152 -0.20789 0
    outer loop
      vertex 61.65 19.05 9.9
      vertex 61.261 20.8803 11.0135
      vertex 61.261 20.8803 9.9
    endloop
  endfacet
  facet normal -0.978152 -0.20789 0
    outer loop
      vertex 61.261 20.8803 11.0135
      vertex 61.65 19.05 9.9
      vertex 61.65 19.05 11.0962
    endloop
  endfacet
  facet normal 1 -0 0
    outer loop
      vertex 52.7483 18.1144 3
      vertex 52.7483 19.9856 0
      vertex 52.7483 19.9856 3
    endloop
  endfacet
  facet normal 1 0 0
    outer loop
      vertex 52.7483 19.9856 0
      vertex 52.7483 18.1144 3
      vertex 52.7483 18.1144 0
    endloop
  endfacet
  facet normal 1 -0 0
    outer loop
      vertex 52.7483 18.1144 11.0752
      vertex 52.7483 19.9856 9.9
      vertex 52.7483 19.9856 11.0752
    endloop
  endfacet
  facet normal 1 0 0
    outer loop
      vertex 52.7483 19.9856 9.9
      vertex 52.7483 18.1144 11.0752
      vertex 52.7483 18.1144 9.9
    endloop
  endfacet
  facet normal 0.91354 0.406748 0
    outer loop
      vertex 53.5094 16.405 3
      vertex 52.7483 18.1144 0
      vertex 52.7483 18.1144 3
    endloop
  endfacet
  facet normal 0.91354 0.406748 0
    outer loop
      vertex 52.7483 18.1144 0
      vertex 53.5094 16.405 3
      vertex 53.5094 16.405 0
    endloop
  endfacet
  facet normal 0.91354 0.406748 0
    outer loop
      vertex 53.5094 16.405 10.9135
      vertex 52.7483 18.1144 9.9
      vertex 52.7483 18.1144 11.0752
    endloop
  endfacet
  facet normal 0.91354 0.406748 0
    outer loop
      vertex 52.7483 18.1144 9.9
      vertex 53.5094 16.405 10.9135
      vertex 53.5094 16.405 9.9
    endloop
  endfacet
  facet normal 0.309004 -0.951061 0
    outer loop
      vertex 54.9 22.9471 0
      vertex 56.6796 23.5253 3
      vertex 54.9 22.9471 3
    endloop
  endfacet
  facet normal 0.309004 -0.951061 0
    outer loop
      vertex 56.6796 23.5253 3
      vertex 54.9 22.9471 0
      vertex 56.6796 23.5253 0
    endloop
  endfacet
  facet normal 0.309004 -0.951061 0
    outer loop
      vertex 54.9 22.9471 9.9
      vertex 56.6796 23.5253 10.7506
      vertex 54.9 22.9471 10.7506
    endloop
  endfacet
  facet normal 0.309004 -0.951061 0
    outer loop
      vertex 56.6796 23.5253 10.7506
      vertex 54.9 22.9471 9.9
      vertex 56.6796 23.5253 9.9
    endloop
  endfacet
  facet normal -0.500031 -0.866008 -0
    outer loop
      vertex 58.5406 23.3298 10.7506
      vertex 58.5406 23.3298 9.9
      vertex 60.0245 22.473 10.7506
    endloop
  endfacet
  facet normal -0.500002 -0.866025 -6.75782e-05
    outer loop
      vertex 60.1611 22.3942 9.9
      vertex 60.0245 22.473 10.7506
      vertex 58.5406 23.3298 9.9
    endloop
  endfacet
  facet normal -0.499686 -0.866207 0
    outer loop
      vertex 60.0245 22.473 10.7506
      vertex 60.1611 22.3942 9.9
      vertex 60.1611 22.3942 10.7797
    endloop
  endfacet
  facet normal -0.500002 -0.866025 0
    outer loop
      vertex 58.5406 23.3298 0
      vertex 60.1611 22.3942 3
      vertex 58.5406 23.3298 3
    endloop
  endfacet
  facet normal -0.500002 -0.866025 -0
    outer loop
      vertex 60.1611 22.3942 3
      vertex 58.5406 23.3298 0
      vertex 60.1611 22.3942 0
    endloop
  endfacet
  facet normal -0.80902 -0.587781 0
    outer loop
      vertex 61.261 20.8803 0
      vertex 60.1611 22.3942 3
      vertex 60.1611 22.3942 0
    endloop
  endfacet
  facet normal -0.80902 -0.587781 0
    outer loop
      vertex 60.1611 22.3942 3
      vertex 61.261 20.8803 0
      vertex 61.261 20.8803 3
    endloop
  endfacet
  facet normal -0.80902 -0.587781 0
    outer loop
      vertex 61.261 20.8803 9.9
      vertex 60.1611 22.3942 10.7797
      vertex 60.1611 22.3942 9.9
    endloop
  endfacet
  facet normal -0.80902 -0.587781 0
    outer loop
      vertex 60.1611 22.3942 10.7797
      vertex 61.261 20.8803 9.9
      vertex 61.261 20.8803 11.0135
    endloop
  endfacet
  facet normal 0.669131 -0.743145 0
    outer loop
      vertex 53.5094 21.695 9.9
      vertex 54.2755 22.3848 10.7506
      vertex 53.5094 21.695 10.9135
    endloop
  endfacet
  facet normal 0.66913 -0.743145 1.30052e-06
    outer loop
      vertex 54.9 22.9471 9.9
      vertex 54.2755 22.3848 10.7506
      vertex 53.5094 21.695 9.9
    endloop
  endfacet
  facet normal 0.669129 -0.743146 0
    outer loop
      vertex 54.2755 22.3848 10.7506
      vertex 54.9 22.9471 9.9
      vertex 54.9 22.9471 10.7506
    endloop
  endfacet
  facet normal 0.66913 -0.743145 0
    outer loop
      vertex 53.5094 21.695 0
      vertex 54.9 22.9471 3
      vertex 53.5094 21.695 3
    endloop
  endfacet
  facet normal 0.66913 -0.743145 0
    outer loop
      vertex 54.9 22.9471 3
      vertex 53.5094 21.695 0
      vertex 54.9 22.9471 0
    endloop
  endfacet
  facet normal 0.91354 -0.406748 0
    outer loop
      vertex 52.7483 19.9856 3
      vertex 53.5094 21.695 0
      vertex 53.5094 21.695 3
    endloop
  endfacet
  facet normal 0.91354 -0.406748 0
    outer loop
      vertex 53.5094 21.695 0
      vertex 52.7483 19.9856 3
      vertex 52.7483 19.9856 0
    endloop
  endfacet
  facet normal 0.91354 -0.406748 0
    outer loop
      vertex 52.7483 19.9856 9.9
      vertex 53.5094 21.695 10.9135
      vertex 52.7483 19.9856 11.0752
    endloop
  endfacet
  facet normal 0.91354 -0.406748 0
    outer loop
      vertex 53.5094 21.695 10.9135
      vertex 52.7483 19.9856 9.9
      vertex 53.5094 21.695 9.9
    endloop
  endfacet
  facet normal -0.104476 -0.994527 0
    outer loop
      vertex 56.6796 23.5253 0
      vertex 58.5406 23.3298 3
      vertex 56.6796 23.5253 3
    endloop
  endfacet
  facet normal -0.104476 -0.994527 -0
    outer loop
      vertex 58.5406 23.3298 3
      vertex 56.6796 23.5253 0
      vertex 58.5406 23.3298 0
    endloop
  endfacet
  facet normal -0.104476 -0.994527 0
    outer loop
      vertex 56.6796 23.5253 9.9
      vertex 58.5406 23.3298 10.7506
      vertex 56.6796 23.5253 10.7506
    endloop
  endfacet
  facet normal -0.104476 -0.994527 -0
    outer loop
      vertex 58.5406 23.3298 10.7506
      vertex 56.6796 23.5253 9.9
      vertex 58.5406 23.3298 9.9
    endloop
  endfacet
  facet normal 0.309004 0.951061 -0
    outer loop
      vertex 56.6796 14.5747 0
      vertex 54.9 15.1529 3
      vertex 56.6796 14.5747 3
    endloop
  endfacet
  facet normal 0.309004 0.951061 0
    outer loop
      vertex 54.9 15.1529 3
      vertex 56.6796 14.5747 0
      vertex 54.9 15.1529 0
    endloop
  endfacet
  facet normal 0.309004 0.951061 -0
    outer loop
      vertex 56.6796 14.5747 9.9
      vertex 54.9 15.1529 10.7506
      vertex 56.6796 14.5747 10.7506
    endloop
  endfacet
  facet normal 0.309004 0.951061 0
    outer loop
      vertex 54.9 15.1529 10.7506
      vertex 56.6796 14.5747 9.9
      vertex 54.9 15.1529 9.9
    endloop
  endfacet
  facet normal 0.669129 0.743146 0
    outer loop
      vertex 54.9 15.1529 10.7506
      vertex 54.9 15.1529 9.9
      vertex 54.2755 15.7152 10.7506
    endloop
  endfacet
  facet normal 0.66913 0.743145 1.30052e-06
    outer loop
      vertex 53.5094 16.405 9.9
      vertex 54.2755 15.7152 10.7506
      vertex 54.9 15.1529 9.9
    endloop
  endfacet
  facet normal 0.669131 0.743145 0
    outer loop
      vertex 54.2755 15.7152 10.7506
      vertex 53.5094 16.405 9.9
      vertex 53.5094 16.405 10.9135
    endloop
  endfacet
  facet normal 0.66913 0.743145 -0
    outer loop
      vertex 54.9 15.1529 0
      vertex 53.5094 16.405 3
      vertex 54.9 15.1529 3
    endloop
  endfacet
  facet normal 0.66913 0.743145 0
    outer loop
      vertex 53.5094 16.405 3
      vertex 54.9 15.1529 0
      vertex 53.5094 16.405 0
    endloop
  endfacet
  facet normal -0.499686 0.866207 0
    outer loop
      vertex 60.1611 15.7058 9.9
      vertex 60.0245 15.627 10.7506
      vertex 60.1611 15.7058 10.7797
    endloop
  endfacet
  facet normal -0.500002 0.866025 -6.75782e-05
    outer loop
      vertex 58.5406 14.7702 9.9
      vertex 60.0245 15.627 10.7506
      vertex 60.1611 15.7058 9.9
    endloop
  endfacet
  facet normal -0.500031 0.866008 0
    outer loop
      vertex 60.0245 15.627 10.7506
      vertex 58.5406 14.7702 9.9
      vertex 58.5406 14.7702 10.7506
    endloop
  endfacet
  facet normal -0.500002 0.866025 0
    outer loop
      vertex 60.1611 15.7058 0
      vertex 58.5406 14.7702 3
      vertex 60.1611 15.7058 3
    endloop
  endfacet
  facet normal -0.500002 0.866025 0
    outer loop
      vertex 58.5406 14.7702 3
      vertex 60.1611 15.7058 0
      vertex 58.5406 14.7702 0
    endloop
  endfacet
  facet normal -0.80902 0.587781 0
    outer loop
      vertex 60.1611 15.7058 0
      vertex 61.261 17.2197 3
      vertex 61.261 17.2197 0
    endloop
  endfacet
  facet normal -0.80902 0.587781 0
    outer loop
      vertex 61.261 17.2197 3
      vertex 60.1611 15.7058 0
      vertex 60.1611 15.7058 3
    endloop
  endfacet
  facet normal -0.80902 0.587781 0
    outer loop
      vertex 60.1611 15.7058 10.7797
      vertex 61.261 17.2197 9.9
      vertex 60.1611 15.7058 9.9
    endloop
  endfacet
  facet normal -0.80902 0.587781 0
    outer loop
      vertex 61.261 17.2197 9.9
      vertex 60.1611 15.7058 10.7797
      vertex 61.261 17.2197 11.0135
    endloop
  endfacet
  facet normal -0.978152 0.20789 0
    outer loop
      vertex 61.261 17.2197 0
      vertex 61.65 19.05 3
      vertex 61.65 19.05 0
    endloop
  endfacet
  facet normal -0.978152 0.20789 0
    outer loop
      vertex 61.65 19.05 3
      vertex 61.261 17.2197 0
      vertex 61.261 17.2197 3
    endloop
  endfacet
  facet normal -0.978152 0.20789 0
    outer loop
      vertex 61.261 17.2197 11.0135
      vertex 61.65 19.05 9.9
      vertex 61.261 17.2197 9.9
    endloop
  endfacet
  facet normal -0.978152 0.20789 0
    outer loop
      vertex 61.65 19.05 9.9
      vertex 61.261 17.2197 11.0135
      vertex 61.65 19.05 11.0962
    endloop
  endfacet
  facet normal -0.104476 0.994527 0
    outer loop
      vertex 58.5406 14.7702 0
      vertex 56.6796 14.5747 3
      vertex 58.5406 14.7702 3
    endloop
  endfacet
  facet normal -0.104476 0.994527 0
    outer loop
      vertex 56.6796 14.5747 3
      vertex 58.5406 14.7702 0
      vertex 56.6796 14.5747 0
    endloop
  endfacet
  facet normal -0.104476 0.994527 0
    outer loop
      vertex 58.5406 14.7702 9.9
      vertex 56.6796 14.5747 10.7506
      vertex 58.5406 14.7702 10.7506
    endloop
  endfacet
  facet normal -0.104476 0.994527 0
    outer loop
      vertex 56.6796 14.5747 10.7506
      vertex 58.5406 14.7702 9.9
      vertex 56.6796 14.5747 9.9
    endloop
  endfacet
  facet normal -0.866025 -0.5 0
    outer loop
      vertex 65.05 19.05 3
      vertex 61.1 25.8916 9.9
      vertex 61.1 25.8916 3
    endloop
  endfacet
  facet normal -0.866025 -0.5 0
    outer loop
      vertex 61.1 25.8916 9.9
      vertex 65.05 19.05 3
      vertex 65.05 19.05 9.9
    endloop
  endfacet
  facet normal 0.866025 -0.5 0
    outer loop
      vertex 49.25 19.05 9.9
      vertex 53.2 25.8916 3
      vertex 53.2 25.8916 9.9
    endloop
  endfacet
  facet normal 0.866025 -0.5 0
    outer loop
      vertex 53.2 25.8916 3
      vertex 49.25 19.05 9.9
      vertex 49.25 19.05 3
    endloop
  endfacet
  facet normal 0 -1 0
    outer loop
      vertex 53.2 25.8916 3
      vertex 61.1 25.8916 9.9
      vertex 53.2 25.8916 9.9
    endloop
  endfacet
  facet normal 0 -1 -0
    outer loop
      vertex 61.1 25.8916 9.9
      vertex 53.2 25.8916 3
      vertex 61.1 25.8916 3
    endloop
  endfacet
  facet normal -0 0 -1
    outer loop
      vertex 65.05 19.05 9.9
      vertex 61.261 17.2197 9.9
      vertex 61.65 19.05 9.9
    endloop
  endfacet
  facet normal 0 0 -1
    outer loop
      vertex 61.1 12.2084 9.9
      vertex 61.261 17.2197 9.9
      vertex 65.05 19.05 9.9
    endloop
  endfacet
  facet normal 0 0 -1
    outer loop
      vertex 61.1 12.2084 9.9
      vertex 60.1611 15.7058 9.9
      vertex 61.261 17.2197 9.9
    endloop
  endfacet
  facet normal 0 0 -1
    outer loop
      vertex 61.1 12.2084 9.9
      vertex 58.5406 14.7702 9.9
      vertex 60.1611 15.7058 9.9
    endloop
  endfacet
  facet normal 0 0 -1
    outer loop
      vertex 61.1 12.2084 9.9
      vertex 56.6796 14.5747 9.9
      vertex 58.5406 14.7702 9.9
    endloop
  endfacet
  facet normal 0 0 -1
    outer loop
      vertex 53.2 12.2084 9.9
      vertex 56.6796 14.5747 9.9
      vertex 61.1 12.2084 9.9
    endloop
  endfacet
  facet normal -0 0 -1
    outer loop
      vertex 56.6796 14.5747 9.9
      vertex 53.2 12.2084 9.9
      vertex 54.9 15.1529 9.9
    endloop
  endfacet
  facet normal 0 0 -1
    outer loop
      vertex 53.2 12.2084 9.9
      vertex 53.5094 16.405 9.9
      vertex 54.9 15.1529 9.9
    endloop
  endfacet
  facet normal 0 0 -1
    outer loop
      vertex 49.25 19.05 9.9
      vertex 53.5094 16.405 9.9
      vertex 53.2 12.2084 9.9
    endloop
  endfacet
  facet normal 0 0 -1
    outer loop
      vertex 52.7483 18.1144 9.9
      vertex 49.25 19.05 9.9
      vertex 52.7483 19.9856 9.9
    endloop
  endfacet
  facet normal 0 0 -1
    outer loop
      vertex 53.5094 16.405 9.9
      vertex 49.25 19.05 9.9
      vertex 52.7483 18.1144 9.9
    endloop
  endfacet
  facet normal 0 0 -1
    outer loop
      vertex 61.261 20.8803 9.9
      vertex 65.05 19.05 9.9
      vertex 61.65 19.05 9.9
    endloop
  endfacet
  facet normal 0 0 -1
    outer loop
      vertex 61.261 20.8803 9.9
      vertex 61.1 25.8916 9.9
      vertex 65.05 19.05 9.9
    endloop
  endfacet
  facet normal 0 0 -1
    outer loop
      vertex 60.1611 22.3942 9.9
      vertex 61.1 25.8916 9.9
      vertex 61.261 20.8803 9.9
    endloop
  endfacet
  facet normal 0 0 -1
    outer loop
      vertex 58.5406 23.3298 9.9
      vertex 61.1 25.8916 9.9
      vertex 60.1611 22.3942 9.9
    endloop
  endfacet
  facet normal 0 0 -1
    outer loop
      vertex 56.6796 23.5253 9.9
      vertex 61.1 25.8916 9.9
      vertex 58.5406 23.3298 9.9
    endloop
  endfacet
  facet normal 0 0 -1
    outer loop
      vertex 53.2 25.8916 9.9
      vertex 56.6796 23.5253 9.9
      vertex 54.9 22.9471 9.9
    endloop
  endfacet
  facet normal 0 0 -1
    outer loop
      vertex 56.6796 23.5253 9.9
      vertex 53.2 25.8916 9.9
      vertex 61.1 25.8916 9.9
    endloop
  endfacet
  facet normal 0 0 -1
    outer loop
      vertex 53.5094 21.695 9.9
      vertex 53.2 25.8916 9.9
      vertex 54.9 22.9471 9.9
    endloop
  endfacet
  facet normal 0 0 -1
    outer loop
      vertex 49.25 19.05 9.9
      vertex 53.5094 21.695 9.9
      vertex 52.7483 19.9856 9.9
    endloop
  endfacet
  facet normal -0 0 -1
    outer loop
      vertex 53.5094 21.695 9.9
      vertex 49.25 19.05 9.9
      vertex 53.2 25.8916 9.9
    endloop
  endfacet
  facet normal 0.866025 0.5 0
    outer loop
      vertex 53.2 12.2084 9.9
      vertex 49.25 19.05 3
      vertex 49.25 19.05 9.9
    endloop
  endfacet
  facet normal 0.866025 0.5 0
    outer loop
      vertex 49.25 19.05 3
      vertex 53.2 12.2084 9.9
      vertex 53.2 12.2084 3
    endloop
  endfacet
  facet normal -0.866025 0.5 0
    outer loop
      vertex 61.1 12.2084 3
      vertex 65.05 19.05 9.9
      vertex 65.05 19.05 3
    endloop
  endfacet
  facet normal -0.866025 0.5 0
    outer loop
      vertex 65.05 19.05 9.9
      vertex 61.1 12.2084 3
      vertex 61.1 12.2084 9.9
    endloop
  endfacet
  facet normal 0 0 1
    outer loop
      vertex 65.05 19.05 3
      vertex 61.261 20.8803 3
      vertex 61.65 19.05 3
    endloop
  endfacet
  facet normal 0 0 1
    outer loop
      vertex 61.1 25.8916 3
      vertex 61.261 20.8803 3
      vertex 65.05 19.05 3
    endloop
  endfacet
  facet normal 0 0 1
    outer loop
      vertex 61.1 25.8916 3
      vertex 60.1611 22.3942 3
      vertex 61.261 20.8803 3
    endloop
  endfacet
  facet normal 0 0 1
    outer loop
      vertex 61.1 25.8916 3
      vertex 58.5406 23.3298 3
      vertex 60.1611 22.3942 3
    endloop
  endfacet
  facet normal 0 0 1
    outer loop
      vertex 61.1 25.8916 3
      vertex 56.6796 23.5253 3
      vertex 58.5406 23.3298 3
    endloop
  endfacet
  facet normal -0 0 1
    outer loop
      vertex 53.2 25.8916 3
      vertex 56.6796 23.5253 3
      vertex 61.1 25.8916 3
    endloop
  endfacet
  facet normal 0 0 1
    outer loop
      vertex 56.6796 23.5253 3
      vertex 53.2 25.8916 3
      vertex 54.9 22.9471 3
    endloop
  endfacet
  facet normal 0 0 1
    outer loop
      vertex 53.2 25.8916 3
      vertex 53.5094 21.695 3
      vertex 54.9 22.9471 3
    endloop
  endfacet
  facet normal 0 0 1
    outer loop
      vertex 49.25 19.05 3
      vertex 53.5094 21.695 3
      vertex 53.2 25.8916 3
    endloop
  endfacet
  facet normal 0 0 1
    outer loop
      vertex 52.7483 19.9856 3
      vertex 49.25 19.05 3
      vertex 52.7483 18.1144 3
    endloop
  endfacet
  facet normal 0 0 1
    outer loop
      vertex 53.5094 21.695 3
      vertex 49.25 19.05 3
      vertex 52.7483 19.9856 3
    endloop
  endfacet
  facet normal 0 0 1
    outer loop
      vertex 61.261 17.2197 3
      vertex 65.05 19.05 3
      vertex 61.65 19.05 3
    endloop
  endfacet
  facet normal -0 0 1
    outer loop
      vertex 61.261 17.2197 3
      vertex 61.1 12.2084 3
      vertex 65.05 19.05 3
    endloop
  endfacet
  facet normal -0 0 1
    outer loop
      vertex 60.1611 15.7058 3
      vertex 61.1 12.2084 3
      vertex 61.261 17.2197 3
    endloop
  endfacet
  facet normal -0 0 1
    outer loop
      vertex 58.5406 14.7702 3
      vertex 61.1 12.2084 3
      vertex 60.1611 15.7058 3
    endloop
  endfacet
  facet normal -0 0 1
    outer loop
      vertex 56.6796 14.5747 3
      vertex 61.1 12.2084 3
      vertex 58.5406 14.7702 3
    endloop
  endfacet
  facet normal 0 0 1
    outer loop
      vertex 53.2 12.2084 3
      vertex 56.6796 14.5747 3
      vertex 54.9 15.1529 3
    endloop
  endfacet
  facet normal 0 0 1
    outer loop
      vertex 56.6796 14.5747 3
      vertex 53.2 12.2084 3
      vertex 61.1 12.2084 3
    endloop
  endfacet
  facet normal 0 0 1
    outer loop
      vertex 53.5094 16.405 3
      vertex 53.2 12.2084 3
      vertex 54.9 15.1529 3
    endloop
  endfacet
  facet normal 0 0 1
    outer loop
      vertex 49.25 19.05 3
      vertex 53.5094 16.405 3
      vertex 52.7483 18.1144 3
    endloop
  endfacet
  facet normal 0 0 1
    outer loop
      vertex 53.5094 16.405 3
      vertex 49.25 19.05 3
      vertex 53.2 12.2084 3
    endloop
  endfacet
  facet normal 0 1 -0
    outer loop
      vertex 61.1 12.2084 3
      vertex 53.2 12.2084 9.9
      vertex 61.1 12.2084 9.9
    endloop
  endfacet
  facet normal 0 1 0
    outer loop
      vertex 53.2 12.2084 9.9
      vertex 61.1 12.2084 3
      vertex 53.2 12.2084 3
    endloop
  endfacet
  facet normal -0.978152 -0.20789 0
    outer loop
      vertex 99.75 19.05 0
      vertex 99.361 20.8803 38.1
      vertex 99.361 20.8803 0
    endloop
  endfacet
  facet normal -0.978152 -0.20789 0
    outer loop
      vertex 99.361 20.8803 38.1
      vertex 99.75 19.05 0
      vertex 99.75 19.05 38.1
    endloop
  endfacet
  facet normal 1 -0 0
    outer loop
      vertex 90.8483 18.1144 38.1
      vertex 90.8483 19.9856 0
      vertex 90.8483 19.9856 38.1
    endloop
  endfacet
  facet normal 1 0 0
    outer loop
      vertex 90.8483 19.9856 0
      vertex 90.8483 18.1144 38.1
      vertex 90.8483 18.1144 0
    endloop
  endfacet
  facet normal 0.309004 -0.951061 0
    outer loop
      vertex 93 22.9471 0
      vertex 94.7796 23.5253 38.1
      vertex 93 22.9471 38.1
    endloop
  endfacet
  facet normal 0.309004 -0.951061 0
    outer loop
      vertex 94.7796 23.5253 38.1
      vertex 93 22.9471 0
      vertex 94.7796 23.5253 0
    endloop
  endfacet
  facet normal 0.66913 -0.743145 0
    outer loop
      vertex 91.6094 21.695 0
      vertex 93 22.9471 38.1
      vertex 91.6094 21.695 38.1
    endloop
  endfacet
  facet normal 0.66913 -0.743145 0
    outer loop
      vertex 93 22.9471 38.1
      vertex 91.6094 21.695 0
      vertex 93 22.9471 0
    endloop
  endfacet
  facet normal -0.500002 -0.866025 0
    outer loop
      vertex 96.6406 23.3298 0
      vertex 98.2611 22.3942 38.1
      vertex 96.6406 23.3298 38.1
    endloop
  endfacet
  facet normal -0.500002 -0.866025 -0
    outer loop
      vertex 98.2611 22.3942 38.1
      vertex 96.6406 23.3298 0
      vertex 98.2611 22.3942 0
    endloop
  endfacet
  facet normal -0.80902 -0.587781 0
    outer loop
      vertex 99.361 20.8803 0
      vertex 98.2611 22.3942 38.1
      vertex 98.2611 22.3942 0
    endloop
  endfacet
  facet normal -0.80902 -0.587781 0
    outer loop
      vertex 98.2611 22.3942 38.1
      vertex 99.361 20.8803 0
      vertex 99.361 20.8803 38.1
    endloop
  endfacet
  facet normal 0.91354 -0.406748 0
    outer loop
      vertex 90.8483 19.9856 38.1
      vertex 91.6094 21.695 0
      vertex 91.6094 21.695 38.1
    endloop
  endfacet
  facet normal 0.91354 -0.406748 0
    outer loop
      vertex 91.6094 21.695 0
      vertex 90.8483 19.9856 38.1
      vertex 90.8483 19.9856 0
    endloop
  endfacet
  facet normal -0.978152 0.20789 0
    outer loop
      vertex 99.361 17.2197 0
      vertex 99.75 19.05 38.1
      vertex 99.75 19.05 0
    endloop
  endfacet
  facet normal -0.978152 0.20789 0
    outer loop
      vertex 99.75 19.05 38.1
      vertex 99.361 17.2197 0
      vertex 99.361 17.2197 38.1
    endloop
  endfacet
  facet normal 0.91354 0.406748 0
    outer loop
      vertex 91.6094 16.405 38.1
      vertex 90.8483 18.1144 0
      vertex 90.8483 18.1144 38.1
    endloop
  endfacet
  facet normal 0.91354 0.406748 0
    outer loop
      vertex 90.8483 18.1144 0
      vertex 91.6094 16.405 38.1
      vertex 91.6094 16.405 0
    endloop
  endfacet
  facet normal -0.104476 0.994527 0
    outer loop
      vertex 96.6406 14.7702 0
      vertex 94.7796 14.5747 38.1
      vertex 96.6406 14.7702 38.1
    endloop
  endfacet
  facet normal -0.104476 0.994527 0
    outer loop
      vertex 94.7796 14.5747 38.1
      vertex 96.6406 14.7702 0
      vertex 94.7796 14.5747 0
    endloop
  endfacet
  facet normal 0.66913 0.743145 -0
    outer loop
      vertex 93 15.1529 0
      vertex 91.6094 16.405 38.1
      vertex 93 15.1529 38.1
    endloop
  endfacet
  facet normal 0.66913 0.743145 0
    outer loop
      vertex 91.6094 16.405 38.1
      vertex 93 15.1529 0
      vertex 91.6094 16.405 0
    endloop
  endfacet
  facet normal -0.104476 -0.994527 0
    outer loop
      vertex 94.7796 23.5253 0
      vertex 96.6406 23.3298 38.1
      vertex 94.7796 23.5253 38.1
    endloop
  endfacet
  facet normal -0.104476 -0.994527 -0
    outer loop
      vertex 96.6406 23.3298 38.1
      vertex 94.7796 23.5253 0
      vertex 96.6406 23.3298 0
    endloop
  endfacet
  facet normal 0.309004 0.951061 -0
    outer loop
      vertex 94.7796 14.5747 0
      vertex 93 15.1529 38.1
      vertex 94.7796 14.5747 38.1
    endloop
  endfacet
  facet normal 0.309004 0.951061 0
    outer loop
      vertex 93 15.1529 38.1
      vertex 94.7796 14.5747 0
      vertex 93 15.1529 0
    endloop
  endfacet
  facet normal -0.500002 0.866025 0
    outer loop
      vertex 98.2611 15.7058 0
      vertex 96.6406 14.7702 38.1
      vertex 98.2611 15.7058 38.1
    endloop
  endfacet
  facet normal -0.500002 0.866025 0
    outer loop
      vertex 96.6406 14.7702 38.1
      vertex 98.2611 15.7058 0
      vertex 96.6406 14.7702 0
    endloop
  endfacet
  facet normal -0.80902 0.587781 0
    outer loop
      vertex 98.2611 15.7058 0
      vertex 99.361 17.2197 38.1
      vertex 99.361 17.2197 0
    endloop
  endfacet
  facet normal -0.80902 0.587781 0
    outer loop
      vertex 99.361 17.2197 38.1
      vertex 98.2611 15.7058 0
      vertex 98.2611 15.7058 38.1
    endloop
  endfacet
endsolid OpenSCAD_Model
