  0
SECTION
  2
HEADER
  9
$ACADVER
  1
AC1009
  9
$EXTMIN
 10
0.0
 20
0.0
 30
0.0
  9
$EXTMAX
 10
1000.0
 20
1000.0
 30
0.0
  9
$FILLMODE
 70
 0
  9
$SPLFRAME
 70
 1
  0
ENDSEC
  0
SECTION
  2
TABLES
  0
TABLE
  2
LAYER
 70
1
  0
LAYER
  2
0
 70
     0
 62
     7
  6
CONTINUOUS
  0
ENDTAB
  0
ENDSEC
  0
SECTION
  2
ENTITIES
  0
LINE
  8
0
 62
     0
 10
10.9583
 20
4.59722
 30
0.0
 11
10.8939
 21
5.00006
 31
0.0
  0
LINE
  8
0
 62
     0
 10
10.8939
 20
5.00006
 30
0.0
 11
10.7569
 21
5.40278
 31
0.0
  0
LINE
  8
0
 62
     0
 10
10.7569
 20
5.40278
 30
0.0
 11
10.5556
 21
5.78478
 31
0.0
  0
LINE
  8
0
 62
     0
 10
10.5556
 20
5.78478
 30
0.0
 11
10.2986
 21
6.125
 31
0.0
  0
LINE
  8
0
 62
     0
 10
10.2986
 20
6.125
 30
0.0
 11
9.98953
 21
6.41493
 31
0.0
  0
LINE
  8
0
 62
     0
 10
9.98953
 20
6.41493
 30
0.0
 11
9.63194
 21
6.64583
 31
0.0
  0
LINE
  8
0
 62
     0
 10
9.63194
 20
6.64583
 30
0.0
 11
9.43793
 21
6.734
 31
0.0
  0
LINE
  8
0
 62
     0
 10
9.43793
 20
6.734
 30
0.0
 11
9.23785
 21
6.79693
 31
0.0
  0
LINE
  8
0
 62
     0
 10
9.23785
 20
6.79693
 30
0.0
 11
9.03168
 21
6.83469
 31
0.0
  0
LINE
  8
0
 62
     0
 10
9.03168
 20
6.83469
 30
0.0
 11
8.81944
 21
6.84722
 31
0.0
  0
LINE
  8
0
 62
     0
 10
8.81944
 20
6.84722
 30
0.0
 11
8.60286
 21
6.83599
 31
0.0
  0
LINE
  8
0
 62
     0
 10
8.60286
 20
6.83599
 30
0.0
 11
8.39757
 21
6.80214
 31
0.0
  0
LINE
  8
0
 62
     0
 10
8.39757
 20
6.80214
 30
0.0
 11
8.20356
 21
6.74571
 31
0.0
  0
LINE
  8
0
 62
     0
 10
8.20356
 20
6.74571
 30
0.0
 11
8.02083
 21
6.66667
 31
0.0
  0
LINE
  8
0
 62
     0
 10
8.02083
 20
6.66667
 30
0.0
 11
7.68924
 21
6.45486
 31
0.0
  0
LINE
  8
0
 62
     0
 10
7.68924
 20
6.45486
 30
0.0
 11
7.40278
 21
6.18056
 31
0.0
  0
LINE
  8
0
 62
     0
 10
7.40278
 20
6.18056
 30
0.0
 11
7.1614
 21
5.84896
 31
0.0
  0
LINE
  8
0
 62
     0
 10
7.1614
 20
5.84896
 30
0.0
 11
6.96528
 21
5.46528
 31
0.0
  0
LINE
  8
0
 62
     0
 10
6.96528
 20
5.46528
 30
0.0
 11
6.81771
 21
5.0434
 31
0.0
  0
LINE
  8
0
 62
     0
 10
6.81771
 20
5.0434
 30
0.0
 11
6.72222
 21
4.59722
 31
0.0
  0
LINE
  8
0
 62
     0
 10
6.72222
 20
4.59722
 30
0.0
 11
10.9583
 21
4.59722
 31
0.0
  0
LINE
  8
0
 62
     0
 10
5.65278
 20
3.76389
 30
0.0
 11
5.31597
 21
3.77957
 31
0.0
  0
LINE
  8
0
 62
     0
 10
5.31597
 20
3.77957
 30
0.0
 11
4.88889
 21
3.79861
 31
0.0
  0
LINE
  8
0
 62
     0
 10
4.88889
 20
3.79861
 30
0.0
 11
4.63971
 21
3.80599
 31
0.0
  0
LINE
  8
0
 62
     0
 10
4.63971
 20
3.80599
 30
0.0
 11
4.36453
 21
3.80729
 31
0.0
  0
LINE
  8
0
 62
     0
 10
4.36453
 20
3.80729
 30
0.0
 11
4.06332
 21
3.80251
 31
0.0
  0
LINE
  8
0
 62
     0
 10
4.06332
 20
3.80251
 30
0.0
 11
3.73611
 21
3.79167
 31
0.0
  0
LINE
  8
0
 62
     0
 10
3.73611
 20
3.79167
 30
0.0
 11
3.26557
 21
3.74869
 31
0.0
  0
LINE
  8
0
 62
     0
 10
3.26557
 20
3.74869
 30
0.0
 11
2.85411
 21
3.66146
 31
0.0
  0
LINE
  8
0
 62
     0
 10
2.85411
 20
3.66146
 30
0.0
 11
2.50168
 21
3.52994
 31
0.0
  0
LINE
  8
0
 62
     0
 10
2.50168
 20
3.52994
 30
0.0
 11
2.20833
 21
3.35417
 31
0.0
  0
LINE
  8
0
 62
     0
 10
2.20833
 20
3.35417
 30
0.0
 11
1.97743
 21
3.14453
 31
0.0
  0
LINE
  8
0
 62
     0
 10
1.97743
 20
3.14453
 30
0.0
 11
1.8125
 21
2.91146
 31
0.0
  0
LINE
  8
0
 62
     0
 10
1.8125
 20
2.91146
 30
0.0
 11
1.71354
 21
2.65494
 31
0.0
  0
LINE
  8
0
 62
     0
 10
1.71354
 20
2.65494
 30
0.0
 11
1.68056
 21
2.375
 31
0.0
  0
LINE
  8
0
 62
     0
 10
1.68056
 20
2.375
 30
0.0
 11
1.71001
 21
2.07639
 31
0.0
  0
LINE
  8
0
 62
     0
 10
1.71001
 20
2.07639
 30
0.0
 11
1.79861
 21
1.79167
 31
0.0
  0
LINE
  8
0
 62
     0
 10
1.79861
 20
1.79167
 30
0.0
 11
1.94444
 21
1.52951
 31
0.0
  0
LINE
  8
0
 62
     0
 10
1.94444
 20
1.52951
 30
0.0
 11
2.14583
 21
1.29861
 31
0.0
  0
LINE
  8
0
 62
     0
 10
2.14583
 20
1.29861
 30
0.0
 11
2.40104
 21
1.10596
 31
0.0
  0
LINE
  8
0
 62
     0
 10
2.40104
 20
1.10596
 30
0.0
 11
2.70833
 21
0.958333
 31
0.0
  0
LINE
  8
0
 62
     0
 10
2.70833
 20
0.958333
 30
0.0
 11
2.88103
 21
0.903646
 31
0.0
  0
LINE
  8
0
 62
     0
 10
2.88103
 20
0.903646
 30
0.0
 11
3.06592
 21
0.864583
 31
0.0
  0
LINE
  8
0
 62
     0
 10
3.06592
 20
0.864583
 30
0.0
 11
3.26297
 21
0.841146
 31
0.0
  0
LINE
  8
0
 62
     0
 10
3.26297
 20
0.841146
 30
0.0
 11
3.47222
 21
0.833333
 31
0.0
  0
LINE
  8
0
 62
     0
 10
3.47222
 20
0.833333
 30
0.0
 11
3.92708
 21
0.868056
 31
0.0
  0
LINE
  8
0
 62
     0
 10
3.92708
 20
0.868056
 30
0.0
 11
4.34722
 21
0.972222
 31
0.0
  0
LINE
  8
0
 62
     0
 10
4.34722
 20
0.972222
 30
0.0
 11
4.54161
 21
1.04867
 31
0.0
  0
LINE
  8
0
 62
     0
 10
4.54161
 20
1.04867
 30
0.0
 11
4.72217
 21
1.13894
 31
0.0
  0
LINE
  8
0
 62
     0
 10
4.72217
 20
1.13894
 30
0.0
 11
4.88883
 21
1.24311
 31
0.0
  0
LINE
  8
0
 62
     0
 10
4.88883
 20
1.24311
 30
0.0
 11
5.04167
 21
1.36111
 31
0.0
  0
LINE
  8
0
 62
     0
 10
5.04167
 20
1.36111
 30
0.0
 11
5.17919
 21
1.49181
 31
0.0
  0
LINE
  8
0
 62
     0
 10
5.17919
 20
1.49181
 30
0.0
 11
5.30029
 21
1.63374
 31
0.0
  0
LINE
  8
0
 62
     0
 10
5.30029
 20
1.63374
 30
0.0
 11
5.40489
 21
1.78694
 31
0.0
  0
LINE
  8
0
 62
     0
 10
5.40489
 20
1.78694
 30
0.0
 11
5.49306
 21
1.95139
 31
0.0
  0
LINE
  8
0
 62
     0
 10
5.49306
 20
1.95139
 30
0.0
 11
5.56293
 21
2.12543
 31
0.0
  0
LINE
  8
0
 62
     0
 10
5.56293
 20
2.12543
 30
0.0
 11
5.61285
 21
2.30729
 31
0.0
  0
LINE
  8
0
 62
     0
 10
5.61285
 20
2.30729
 30
0.0
 11
5.64279
 21
2.49701
 31
0.0
  0
LINE
  8
0
 62
     0
 10
5.64279
 20
2.49701
 30
0.0
 11
5.65278
 21
2.69444
 31
0.0
  0
LINE
  8
0
 62
     0
 10
5.65278
 20
2.69444
 30
0.0
 11
5.65278
 21
3.76389
 31
0.0
  0
LINE
  8
0
 62
     0
 10
12.125
 20
3.72222
 30
0.0
 11
6.73611
 21
3.72222
 31
0.0
  0
LINE
  8
0
 62
     0
 10
6.73611
 20
3.72222
 30
0.0
 11
6.75261
 21
3.34901
 31
0.0
  0
LINE
  8
0
 62
     0
 10
6.75261
 20
3.34901
 30
0.0
 11
6.78819
 21
3.00694
 31
0.0
  0
LINE
  8
0
 62
     0
 10
6.78819
 20
3.00694
 30
0.0
 11
6.84289
 21
2.69618
 31
0.0
  0
LINE
  8
0
 62
     0
 10
6.84289
 20
2.69618
 30
0.0
 11
6.91667
 21
2.41667
 31
0.0
  0
LINE
  8
0
 62
     0
 10
6.91667
 20
2.41667
 30
0.0
 11
7.00911
 21
2.16542
 31
0.0
  0
LINE
  8
0
 62
     0
 10
7.00911
 20
2.16542
 30
0.0
 11
7.11979
 21
1.93929
 31
0.0
  0
LINE
  8
0
 62
     0
 10
7.11979
 20
1.93929
 30
0.0
 11
7.24869
 21
1.73833
 31
0.0
  0
LINE
  8
0
 62
     0
 10
7.24869
 20
1.73833
 30
0.0
 11
7.39583
 21
1.5625
 31
0.0
  0
LINE
  8
0
 62
     0
 10
7.39583
 20
1.5625
 30
0.0
 11
7.55989
 21
1.41058
 31
0.0
  0
LINE
  8
0
 62
     0
 10
7.55989
 20
1.41058
 30
0.0
 11
7.73958
 21
1.28125
 31
0.0
  0
LINE
  8
0
 62
     0
 10
7.73958
 20
1.28125
 30
0.0
 11
7.93489
 21
1.17448
 31
0.0
  0
LINE
  8
0
 62
     0
 10
7.93489
 20
1.17448
 30
0.0
 11
8.14583
 21
1.09028
 31
0.0
  0
LINE
  8
0
 62
     0
 10
8.14583
 20
1.09028
 30
0.0
 11
8.3719
 21
1.02647
 31
0.0
  0
LINE
  8
0
 62
     0
 10
8.3719
 20
1.02647
 30
0.0
 11
8.61279
 21
0.980903
 31
0.0
  0
LINE
  8
0
 62
     0
 10
8.61279
 20
0.980903
 30
0.0
 11
8.86843
 21
0.953558
 31
0.0
  0
LINE
  8
0
 62
     0
 10
8.86843
 20
0.953558
 30
0.0
 11
9.13889
 21
0.944444
 31
0.0
  0
LINE
  8
0
 62
     0
 10
9.13889
 20
0.944444
 30
0.0
 11
9.54465
 21
0.95535
 31
0.0
  0
LINE
  8
0
 62
     0
 10
9.54465
 20
0.95535
 30
0.0
 11
9.92876
 21
0.987901
 31
0.0
  0
LINE
  8
0
 62
     0
 10
9.92876
 20
0.987901
 30
0.0
 11
10.2912
 21
1.04216
 31
0.0
  0
LINE
  8
0
 62
     0
 10
10.2912
 20
1.04216
 30
0.0
 11
10.6319
 21
1.11806
 31
0.0
  0
LINE
  8
0
 62
     0
 10
10.6319
 20
1.11806
 30
0.0
 11
10.9536
 21
1.21311
 31
0.0
  0
LINE
  8
0
 62
     0
 10
10.9536
 20
1.21311
 30
0.0
 11
11.2587
 21
1.32465
 31
0.0
  0
LINE
  8
0
 62
     0
 10
11.2587
 20
1.32465
 30
0.0
 11
11.5473
 21
1.45269
 31
0.0
  0
LINE
  8
0
 62
     0
 10
11.5473
 20
1.45269
 30
0.0
 11
11.8194
 21
1.59722
 31
0.0
  0
LINE
  8
0
 62
     0
 10
11.8194
 20
1.59722
 30
0.0
 11
11.8194
 21
0.444444
 31
0.0
  0
LINE
  8
0
 62
     0
 10
11.8194
 20
0.444444
 30
0.0
 11
11.5451
 21
0.331651
 31
0.0
  0
LINE
  8
0
 62
     0
 10
11.5451
 20
0.331651
 30
0.0
 11
11.2499
 21
0.229167
 31
0.0
  0
LINE
  8
0
 62
     0
 10
11.2499
 20
0.229167
 30
0.0
 11
10.934
 21
0.137153
 31
0.0
  0
LINE
  8
0
 62
     0
 10
10.934
 20
0.137153
 30
0.0
 11
10.5972
 21
0.0555556
 31
0.0
  0
LINE
  8
0
 62
     0
 10
10.5972
 20
0.0555556
 30
0.0
 11
10.2439
 21
-0.0112305
 31
0.0
  0
LINE
  8
0
 62
     0
 10
10.2439
 20
-0.0112305
 30
0.0
 11
9.87847
 21
-0.0589735
 31
0.0
  0
LINE
  8
0
 62
     0
 10
9.87847
 20
-0.0589735
 30
0.0
 11
9.50086
 21
-0.0876193
 31
0.0
  0
LINE
  8
0
 62
     0
 10
9.50086
 20
-0.0876193
 30
0.0
 11
9.11111
 21
-0.0972222
 31
0.0
  0
LINE
  8
0
 62
     0
 10
9.11111
 20
-0.0972222
 30
0.0
 11
8.62586
 21
-0.0745985
 31
0.0
  0
LINE
  8
0
 62
     0
 10
8.62586
 20
-0.0745985
 30
0.0
 11
8.17014
 21
-0.00689019
 31
0.0
  0
LINE
  8
0
 62
     0
 10
8.17014
 20
-0.00689019
 30
0.0
 11
7.74392
 21
0.105957
 31
0.0
  0
LINE
  8
0
 62
     0
 10
7.74392
 20
0.105957
 30
0.0
 11
7.34722
 21
0.263889
 31
0.0
  0
LINE
  8
0
 62
     0
 10
7.34722
 20
0.263889
 30
0.0
 11
6.98519
 21
0.471354
 31
0.0
  0
LINE
  8
0
 62
     0
 10
6.98519
 20
0.471354
 30
0.0
 11
6.66314
 21
0.732639
 31
0.0
  0
LINE
  8
0
 62
     0
 10
6.66314
 20
0.732639
 30
0.0
 11
6.38103
 21
1.04774
 31
0.0
  0
LINE
  8
0
 62
     0
 10
6.38103
 20
1.04774
 30
0.0
 11
6.13889
 21
1.41667
 31
0.0
  0
LINE
  8
0
 62
     0
 10
6.13889
 20
1.41667
 30
0.0
 11
5.97222
 21
1.1875
 31
0.0
  0
LINE
  8
0
 62
     0
 10
5.97222
 20
1.1875
 30
0.0
 11
5.76389
 21
0.930556
 31
0.0
  0
LINE
  8
0
 62
     0
 10
5.76389
 20
0.930556
 30
0.0
 11
5.48475
 21
0.684082
 31
0.0
  0
LINE
  8
0
 62
     0
 10
5.48475
 20
0.684082
 30
0.0
 11
5.20307
 21
0.472276
 31
0.0
  0
LINE
  8
0
 62
     0
 10
5.20307
 20
0.472276
 30
0.0
 11
4.91878
 21
0.295193
 31
0.0
  0
LINE
  8
0
 62
     0
 10
4.91878
 20
0.295193
 30
0.0
 11
4.63194
 21
0.152778
 31
0.0
  0
LINE
  8
0
 62
     0
 10
4.63194
 20
0.152778
 30
0.0
 11
4.33979
 21
0.0434028
 31
0.0
  0
LINE
  8
0
 62
     0
 10
4.33979
 20
0.0434028
 30
0.0
 11
4.03988
 21
-0.0347222
 31
0.0
  0
LINE
  8
0
 62
     0
 10
4.03988
 20
-0.0347222
 30
0.0
 11
3.73215
 21
-0.0815972
 31
0.0
  0
LINE
  8
0
 62
     0
 10
3.73215
 20
-0.0815972
 30
0.0
 11
3.41667
 21
-0.0972222
 31
0.0
  0
LINE
  8
0
 62
     0
 10
3.41667
 20
-0.0972222
 30
0.0
 11
3.07958
 21
-0.0868056
 31
0.0
  0
LINE
  8
0
 62
     0
 10
3.07958
 20
-0.0868056
 30
0.0
 11
2.76297
 21
-0.0555556
 31
0.0
  0
LINE
  8
0
 62
     0
 10
2.76297
 20
-0.0555556
 30
0.0
 11
2.46674
 21
-0.00347222
 31
0.0
  0
LINE
  8
0
 62
     0
 10
2.46674
 20
-0.00347222
 30
0.0
 11
2.19092
 21
0.0694444
 31
0.0
  0
LINE
  8
0
 62
     0
 10
2.19092
 20
0.0694444
 30
0.0
 11
1.93549
 21
0.163194
 31
0.0
  0
LINE
  8
0
 62
     0
 10
1.93549
 20
0.163194
 30
0.0
 11
1.70047
 21
0.277778
 31
0.0
  0
LINE
  8
0
 62
     0
 10
1.70047
 20
0.277778
 30
0.0
 11
1.48583
 21
0.413194
 31
0.0
  0
LINE
  8
0
 62
     0
 10
1.48583
 20
0.413194
 30
0.0
 11
1.29167
 21
0.569444
 31
0.0
  0
LINE
  8
0
 62
     0
 10
1.29167
 20
0.569444
 30
0.0
 11
1.11914
 21
0.742622
 31
0.0
  0
LINE
  8
0
 62
     0
 10
1.11914
 20
0.742622
 30
0.0
 11
0.969618
 21
0.928819
 31
0.0
  0
LINE
  8
0
 62
     0
 10
0.969618
 20
0.928819
 30
0.0
 11
0.843099
 21
1.12804
 31
0.0
  0
LINE
  8
0
 62
     0
 10
0.843099
 20
1.12804
 30
0.0
 11
0.739583
 21
1.34028
 31
0.0
  0
LINE
  8
0
 62
     0
 10
0.739583
 20
1.34028
 30
0.0
 11
0.659071
 21
1.56554
 31
0.0
  0
LINE
  8
0
 62
     0
 10
0.659071
 20
1.56554
 30
0.0
 11
0.601563
 21
1.80382
 31
0.0
  0
LINE
  8
0
 62
     0
 10
0.601563
 20
1.80382
 30
0.0
 11
0.567057
 21
2.05512
 31
0.0
  0
LINE
  8
0
 62
     0
 10
0.567057
 20
2.05512
 30
0.0
 11
0.555556
 21
2.31944
 31
0.0
  0
LINE
  8
0
 62
     0
 10
0.555556
 20
2.31944
 30
0.0
 11
0.568033
 21
2.59256
 31
0.0
  0
LINE
  8
0
 62
     0
 10
0.568033
 20
2.59256
 30
0.0
 11
0.605469
 21
2.84939
 31
0.0
  0
LINE
  8
0
 62
     0
 10
0.605469
 20
2.84939
 30
0.0
 11
0.66786
 21
3.08996
 31
0.0
  0
LINE
  8
0
 62
     0
 10
0.66786
 20
3.08996
 30
0.0
 11
0.755208
 21
3.31424
 31
0.0
  0
LINE
  8
0
 62
     0
 10
0.755208
 20
3.31424
 30
0.0
 11
0.867512
 21
3.52225
 31
0.0
  0
LINE
  8
0
 62
     0
 10
0.867512
 20
3.52225
 30
0.0
 11
1.00478
 21
3.71397
 31
0.0
  0
LINE
  8
0
 62
     0
 10
1.00478
 20
3.71397
 30
0.0
 11
1.16699
 21
3.88943
 31
0.0
  0
LINE
  8
0
 62
     0
 10
1.16699
 20
3.88943
 30
0.0
 11
1.35417
 21
4.04861
 31
0.0
  0
LINE
  8
0
 62
     0
 10
1.35417
 20
4.04861
 30
0.0
 11
1.56168
 21
4.19069
 31
0.0
  0
LINE
  8
0
 62
     0
 10
1.56168
 20
4.19069
 30
0.0
 11
1.7851
 21
4.31472
 31
0.0
  0
LINE
  8
0
 62
     0
 10
1.7851
 20
4.31472
 30
0.0
 11
2.02436
 21
4.42074
 31
0.0
  0
LINE
  8
0
 62
     0
 10
2.02436
 20
4.42074
 30
0.0
 11
2.27946
 21
4.50874
 31
0.0
  0
LINE
  8
0
 62
     0
 10
2.27946
 20
4.50874
 30
0.0
 11
2.5504
 21
4.57872
 31
0.0
  0
LINE
  8
0
 62
     0
 10
2.5504
 20
4.57872
 30
0.0
 11
2.83718
 21
4.63069
 31
0.0
  0
LINE
  8
0
 62
     0
 10
2.83718
 20
4.63069
 30
0.0
 11
3.13981
 21
4.66465
 31
0.0
  0
LINE
  8
0
 62
     0
 10
3.13981
 20
4.66465
 30
0.0
 11
3.45833
 21
4.68056
 31
0.0
  0
LINE
  8
0
 62
     0
 10
3.45833
 20
4.68056
 30
0.0
 11
3.98611
 21
4.68056
 31
0.0
  0
LINE
  8
0
 62
     0
 10
3.98611
 20
4.68056
 30
0.0
 11
4.58333
 21
4.67361
 31
0.0
  0
LINE
  8
0
 62
     0
 10
4.58333
 20
4.67361
 30
0.0
 11
5.16667
 21
4.65278
 31
0.0
  0
LINE
  8
0
 62
     0
 10
5.16667
 20
4.65278
 30
0.0
 11
5.42703
 21
4.63889
 31
0.0
  0
LINE
  8
0
 62
     0
 10
5.42703
 20
4.63889
 30
0.0
 11
5.65278
 21
4.625
 31
0.0
  0
LINE
  8
0
 62
     0
 10
5.65278
 20
4.625
 30
0.0
 11
5.64757
 21
5.03646
 31
0.0
  0
LINE
  8
0
 62
     0
 10
5.64757
 20
5.03646
 30
0.0
 11
5.60417
 21
5.4375
 31
0.0
  0
LINE
  8
0
 62
     0
 10
5.60417
 20
5.4375
 30
0.0
 11
5.51042
 21
5.8125
 31
0.0
  0
LINE
  8
0
 62
     0
 10
5.51042
 20
5.8125
 30
0.0
 11
5.35417
 21
6.14583
 31
0.0
  0
LINE
  8
0
 62
     0
 10
5.35417
 20
6.14583
 30
0.0
 11
5.25174
 21
6.29428
 31
0.0
  0
LINE
  8
0
 62
     0
 10
5.25174
 20
6.29428
 30
0.0
 11
5.13194
 21
6.42708
 31
0.0
  0
LINE
  8
0
 62
     0
 10
5.13194
 20
6.42708
 30
0.0
 11
4.99479
 21
6.54428
 31
0.0
  0
LINE
  8
0
 62
     0
 10
4.99479
 20
6.54428
 30
0.0
 11
4.84028
 21
6.64583
 31
0.0
  0
LINE
  8
0
 62
     0
 10
4.84028
 20
6.64583
 30
0.0
 11
4.66531
 21
6.72786
 31
0.0
  0
LINE
  8
0
 62
     0
 10
4.66531
 20
6.72786
 30
0.0
 11
4.46696
 21
6.78646
 31
0.0
  0
LINE
  8
0
 62
     0
 10
4.46696
 20
6.78646
 30
0.0
 11
4.24517
 21
6.82161
 31
0.0
  0
LINE
  8
0
 62
     0
 10
4.24517
 20
6.82161
 30
0.0
 11
4
 21
6.83333
 31
0.0
  0
LINE
  8
0
 62
     0
 10
4
 20
6.83333
 30
0.0
 11
3.29861
 21
6.80035
 31
0.0
  0
LINE
  8
0
 62
     0
 10
3.29861
 20
6.80035
 30
0.0
 11
2.61111
 21
6.70139
 31
0.0
  0
LINE
  8
0
 62
     0
 10
2.61111
 20
6.70139
 30
0.0
 11
1.93397
 21
6.5434
 31
0.0
  0
LINE
  8
0
 62
     0
 10
1.93397
 20
6.5434
 30
0.0
 11
1.26389
 21
6.33333
 31
0.0
  0
LINE
  8
0
 62
     0
 10
1.26389
 20
6.33333
 30
0.0
 11
1.26389
 21
7.375
 31
0.0
  0
LINE
  8
0
 62
     0
 10
1.26389
 20
7.375
 30
0.0
 11
1.84722
 21
7.57639
 31
0.0
  0
LINE
  8
0
 62
     0
 10
1.84722
 20
7.57639
 30
0.0
 11
2.14583
 21
7.65972
 31
0.0
  0
LINE
  8
0
 62
     0
 10
2.14583
 20
7.65972
 30
0.0
 11
2.45833
 21
7.72917
 31
0.0
  0
LINE
  8
0
 62
     0
 10
2.45833
 20
7.72917
 30
0.0
 11
2.7934
 21
7.78472
 31
0.0
  0
LINE
  8
0
 62
     0
 10
2.7934
 20
7.78472
 30
0.0
 11
3.15972
 21
7.82639
 31
0.0
  0
LINE
  8
0
 62
     0
 10
3.15972
 20
7.82639
 30
0.0
 11
3.56418
 21
7.85249
 31
0.0
  0
LINE
  8
0
 62
     0
 10
3.56418
 20
7.85249
 30
0.0
 11
4.01389
 21
7.86111
 31
0.0
  0
LINE
  8
0
 62
     0
 10
4.01389
 20
7.86111
 30
0.0
 11
4.41624
 21
7.83985
 31
0.0
  0
LINE
  8
0
 62
     0
 10
4.41624
 20
7.83985
 30
0.0
 11
4.78993
 21
7.77604
 31
0.0
  0
LINE
  8
0
 62
     0
 10
4.78993
 20
7.77604
 30
0.0
 11
5.13499
 21
7.66971
 31
0.0
  0
LINE
  8
0
 62
     0
 10
5.13499
 20
7.66971
 30
0.0
 11
5.45139
 21
7.52083
 31
0.0
  0
LINE
  8
0
 62
     0
 10
5.45139
 20
7.52083
 30
0.0
 11
5.73568
 21
7.3355
 31
0.0
  0
LINE
  8
0
 62
     0
 10
5.73568
 20
7.3355
 30
0.0
 11
5.98438
 21
7.11979
 31
0.0
  0
LINE
  8
0
 62
     0
 10
5.98438
 20
7.11979
 30
0.0
 11
6.19749
 21
6.87369
 31
0.0
  0
LINE
  8
0
 62
     0
 10
6.19749
 20
6.87369
 30
0.0
 11
6.375
 21
6.59722
 31
0.0
  0
LINE
  8
0
 62
     0
 10
6.375
 20
6.59722
 30
0.0
 11
6.61632
 21
6.89068
 31
0.0
  0
LINE
  8
0
 62
     0
 10
6.61632
 20
6.89068
 30
0.0
 11
6.88194
 21
7.14589
 31
0.0
  0
LINE
  8
0
 62
     0
 10
6.88194
 20
7.14589
 30
0.0
 11
7.17188
 21
7.3629
 31
0.0
  0
LINE
  8
0
 62
     0
 10
7.17188
 20
7.3629
 30
0.0
 11
7.48611
 21
7.54167
 31
0.0
  0
LINE
  8
0
 62
     0
 10
7.48611
 20
7.54167
 30
0.0
 11
7.81853
 21
7.68142
 31
0.0
  0
LINE
  8
0
 62
     0
 10
7.81853
 20
7.68142
 30
0.0
 11
8.16314
 21
7.78125
 31
0.0
  0
LINE
  8
0
 62
     0
 10
8.16314
 20
7.78125
 30
0.0
 11
8.51992
 21
7.84114
 31
0.0
  0
LINE
  8
0
 62
     0
 10
8.51992
 20
7.84114
 30
0.0
 11
8.88889
 21
7.86111
 31
0.0
  0
LINE
  8
0
 62
     0
 10
8.88889
 20
7.86111
 30
0.0
 11
9.22353
 21
7.84506
 31
0.0
  0
LINE
  8
0
 62
     0
 10
9.22353
 20
7.84506
 30
0.0
 11
9.54688
 21
7.79688
 31
0.0
  0
LINE
  8
0
 62
     0
 10
9.54688
 20
7.79688
 30
0.0
 11
9.85894
 21
7.71658
 31
0.0
  0
LINE
  8
0
 62
     0
 10
9.85894
 20
7.71658
 30
0.0
 11
10.1597
 21
7.60417
 31
0.0
  0
LINE
  8
0
 62
     0
 10
10.1597
 20
7.60417
 30
0.0
 11
10.4453
 21
7.46229
 31
0.0
  0
LINE
  8
0
 62
     0
 10
10.4453
 20
7.46229
 30
0.0
 11
10.7117
 21
7.29346
 31
0.0
  0
LINE
  8
0
 62
     0
 10
10.7117
 20
7.29346
 30
0.0
 11
10.9592
 21
7.09771
 31
0.0
  0
LINE
  8
0
 62
     0
 10
10.9592
 20
7.09771
 30
0.0
 11
11.1875
 21
6.875
 31
0.0
  0
LINE
  8
0
 62
     0
 10
11.1875
 20
6.875
 30
0.0
 11
11.3945
 21
6.62674
 31
0.0
  0
LINE
  8
0
 62
     0
 10
11.3945
 20
6.62674
 30
0.0
 11
11.5781
 21
6.35417
 31
0.0
  0
LINE
  8
0
 62
     0
 10
11.5781
 20
6.35417
 30
0.0
 11
11.7383
 21
6.05729
 31
0.0
  0
LINE
  8
0
 62
     0
 10
11.7383
 20
6.05729
 30
0.0
 11
11.875
 21
5.73611
 31
0.0
  0
LINE
  8
0
 62
     0
 10
11.875
 20
5.73611
 30
0.0
 11
11.9844
 21
5.39322
 31
0.0
  0
LINE
  8
0
 62
     0
 10
11.9844
 20
5.39322
 30
0.0
 11
12.0625
 21
5.03125
 31
0.0
  0
LINE
  8
0
 62
     0
 10
12.0625
 20
5.03125
 30
0.0
 11
12.1094
 21
4.65017
 31
0.0
  0
LINE
  8
0
 62
     0
 10
12.1094
 20
4.65017
 30
0.0
 11
12.125
 21
4.25
 31
0.0
  0
LINE
  8
0
 62
     0
 10
12.125
 20
4.25
 30
0.0
 11
12.125
 21
3.72222
 31
0.0
  0
ENDSEC
  0
EOF
