  0
SECTION
  2
HEADER
  9
$ACADVER
  1
AC1009
  9
$EXTMIN
 10
0.0
 20
0.0
 30
0.0
  9
$EXTMAX
 10
1000.0
 20
1000.0
 30
0.0
  9
$FILLMODE
 70
 0
  9
$SPLFRAME
 70
 1
  0
ENDSEC
  0
SECTION
  2
TABLES
  0
TABLE
  2
LAYER
 70
1
  0
LAYER
  2
0
 70
     0
 62
     7
  6
CONTINUOUS
  0
ENDTAB
  0
ENDSEC
  0
SECTION
  2
ENTITIES
  0
LINE
  8
0
 62
     0
 10
5.91667
 20
11.0278
 30
0.0
 11
5.89231
 21
11.2409
 31
0.0
  0
LINE
  8
0
 62
     0
 10
5.89231
 20
11.2409
 30
0.0
 11
5.83328
 21
11.4358
 31
0.0
  0
LINE
  8
0
 62
     0
 10
5.83328
 20
11.4358
 30
0.0
 11
5.73953
 21
11.6125
 31
0.0
  0
LINE
  8
0
 62
     0
 10
5.73953
 20
11.6125
 30
0.0
 11
5.61111
 21
11.7708
 31
0.0
  0
LINE
  8
0
 62
     0
 10
5.61111
 20
11.7708
 30
0.0
 11
5.45568
 21
11.9015
 31
0.0
  0
LINE
  8
0
 62
     0
 10
5.45568
 20
11.9015
 30
0.0
 11
5.28119
 21
11.9948
 31
0.0
  0
LINE
  8
0
 62
     0
 10
5.28119
 20
11.9948
 30
0.0
 11
5.08762
 21
12.0508
 31
0.0
  0
LINE
  8
0
 62
     0
 10
5.08762
 20
12.0508
 30
0.0
 11
4.875
 21
12.0694
 31
0.0
  0
LINE
  8
0
 62
     0
 10
4.875
 20
12.0694
 30
0.0
 11
4.66189
 21
12.0504
 31
0.0
  0
LINE
  8
0
 62
     0
 10
4.66189
 20
12.0504
 30
0.0
 11
4.46701
 21
11.9931
 31
0.0
  0
LINE
  8
0
 62
     0
 10
4.46701
 20
11.9931
 30
0.0
 11
4.29031
 21
11.8976
 31
0.0
  0
LINE
  8
0
 62
     0
 10
4.29031
 20
11.8976
 30
0.0
 11
4.13194
 21
11.7639
 31
0.0
  0
LINE
  8
0
 62
     0
 10
4.13194
 20
11.7639
 30
0.0
 11
4.00131
 21
11.6033
 31
0.0
  0
LINE
  8
0
 62
     0
 10
4.00131
 20
11.6033
 30
0.0
 11
3.90799
 21
11.4271
 31
0.0
  0
LINE
  8
0
 62
     0
 10
3.90799
 20
11.4271
 30
0.0
 11
3.852
 21
11.2353
 31
0.0
  0
LINE
  8
0
 62
     0
 10
3.852
 20
11.2353
 30
0.0
 11
3.83333
 21
11.0278
 31
0.0
  0
LINE
  8
0
 62
     0
 10
3.83333
 20
11.0278
 30
0.0
 11
3.852
 21
10.8086
 31
0.0
  0
LINE
  8
0
 62
     0
 10
3.852
 20
10.8086
 30
0.0
 11
3.90799
 21
10.6094
 31
0.0
  0
LINE
  8
0
 62
     0
 10
3.90799
 20
10.6094
 30
0.0
 11
4.00131
 21
10.4301
 31
0.0
  0
LINE
  8
0
 62
     0
 10
4.00131
 20
10.4301
 30
0.0
 11
4.13194
 21
10.2708
 31
0.0
  0
LINE
  8
0
 62
     0
 10
4.13194
 20
10.2708
 30
0.0
 11
4.29031
 21
10.1403
 31
0.0
  0
LINE
  8
0
 62
     0
 10
4.29031
 20
10.1403
 30
0.0
 11
4.46701
 21
10.0469
 31
0.0
  0
LINE
  8
0
 62
     0
 10
4.46701
 20
10.0469
 30
0.0
 11
4.66189
 21
9.99094
 31
0.0
  0
LINE
  8
0
 62
     0
 10
4.66189
 20
9.99094
 30
0.0
 11
4.875
 21
9.97222
 31
0.0
  0
LINE
  8
0
 62
     0
 10
4.875
 20
9.97222
 30
0.0
 11
5.08849
 21
9.99094
 31
0.0
  0
LINE
  8
0
 62
     0
 10
5.08849
 20
9.99094
 30
0.0
 11
5.28467
 21
10.0469
 31
0.0
  0
LINE
  8
0
 62
     0
 10
5.28467
 20
10.0469
 30
0.0
 11
5.46349
 21
10.1403
 31
0.0
  0
LINE
  8
0
 62
     0
 10
5.46349
 20
10.1403
 30
0.0
 11
5.625
 21
10.2708
 31
0.0
  0
LINE
  8
0
 62
     0
 10
5.625
 20
10.2708
 30
0.0
 11
5.75781
 21
10.4301
 31
0.0
  0
LINE
  8
0
 62
     0
 10
5.75781
 20
10.4301
 30
0.0
 11
5.85069
 21
10.6094
 31
0.0
  0
LINE
  8
0
 62
     0
 10
5.85069
 20
10.6094
 30
0.0
 11
5.90364
 21
10.8086
 31
0.0
  0
LINE
  8
0
 62
     0
 10
5.90364
 20
10.8086
 30
0.0
 11
5.91667
 21
11.0278
 31
0.0
  0
LINE
  8
0
 62
     0
 10
3.04167
 20
3.59722
 30
0.0
 11
6.63889
 21
3.59722
 31
0.0
  0
LINE
  8
0
 62
     0
 10
6.63889
 20
3.59722
 30
0.0
 11
4.83333
 21
8.65278
 31
0.0
  0
LINE
  8
0
 62
     0
 10
4.83333
 20
8.65278
 30
0.0
 11
3.04167
 21
3.59722
 31
0.0
  0
LINE
  8
0
 62
     0
 10
7.91667
 20
-0
 30
0.0
 11
7.02778
 21
2.48611
 31
0.0
  0
LINE
  8
0
 62
     0
 10
7.02778
 20
2.48611
 30
0.0
 11
2.63889
 21
2.48611
 31
0.0
  0
LINE
  8
0
 62
     0
 10
2.63889
 20
2.48611
 30
0.0
 11
1.76389
 21
-0
 31
0.0
  0
LINE
  8
0
 62
     0
 10
1.76389
 20
-0
 30
0.0
 11
0.486111
 21
-0
 31
0.0
  0
LINE
  8
0
 62
     0
 10
0.486111
 20
-0
 30
0.0
 11
4
 21
9.44444
 31
0.0
  0
LINE
  8
0
 62
     0
 10
4
 20
9.44444
 30
0.0
 11
3.78863
 21
9.56776
 31
0.0
  0
LINE
  8
0
 62
     0
 10
3.78863
 20
9.56776
 30
0.0
 11
3.59896
 21
9.71533
 31
0.0
  0
LINE
  8
0
 62
     0
 10
3.59896
 20
9.71533
 30
0.0
 11
3.43099
 21
9.88721
 31
0.0
  0
LINE
  8
0
 62
     0
 10
3.43099
 20
9.88721
 30
0.0
 11
3.28472
 21
10.0833
 31
0.0
  0
LINE
  8
0
 62
     0
 10
3.28472
 20
10.0833
 30
0.0
 11
3.16624
 21
10.2987
 31
0.0
  0
LINE
  8
0
 62
     0
 10
3.16624
 20
10.2987
 30
0.0
 11
3.0816
 21
10.5278
 31
0.0
  0
LINE
  8
0
 62
     0
 10
3.0816
 20
10.5278
 30
0.0
 11
3.03082
 21
10.7709
 31
0.0
  0
LINE
  8
0
 62
     0
 10
3.03082
 20
10.7709
 30
0.0
 11
3.01389
 21
11.0278
 31
0.0
  0
LINE
  8
0
 62
     0
 10
3.01389
 20
11.0278
 30
0.0
 11
3.05035
 21
11.3924
 31
0.0
  0
LINE
  8
0
 62
     0
 10
3.05035
 20
11.3924
 30
0.0
 11
3.15972
 21
11.7361
 31
0.0
  0
LINE
  8
0
 62
     0
 10
3.15972
 20
11.7361
 30
0.0
 11
3.33333
 21
12.0452
 31
0.0
  0
LINE
  8
0
 62
     0
 10
3.33333
 20
12.0452
 30
0.0
 11
3.5625
 21
12.3056
 31
0.0
  0
LINE
  8
0
 62
     0
 10
3.5625
 20
12.3056
 30
0.0
 11
3.84028
 21
12.5174
 31
0.0
  0
LINE
  8
0
 62
     0
 10
3.84028
 20
12.5174
 30
0.0
 11
4.15972
 21
12.6806
 31
0.0
  0
LINE
  8
0
 62
     0
 10
4.15972
 20
12.6806
 30
0.0
 11
4.50863
 21
12.7848
 31
0.0
  0
LINE
  8
0
 62
     0
 10
4.50863
 20
12.7848
 30
0.0
 11
4.875
 21
12.8194
 31
0.0
  0
LINE
  8
0
 62
     0
 10
4.875
 20
12.8194
 30
0.0
 11
5.24132
 21
12.7848
 31
0.0
  0
LINE
  8
0
 62
     0
 10
5.24132
 20
12.7848
 30
0.0
 11
5.59028
 21
12.6806
 31
0.0
  0
LINE
  8
0
 62
     0
 10
5.59028
 20
12.6806
 30
0.0
 11
5.90972
 21
12.5174
 31
0.0
  0
LINE
  8
0
 62
     0
 10
5.90972
 20
12.5174
 30
0.0
 11
6.1875
 21
12.3056
 31
0.0
  0
LINE
  8
0
 62
     0
 10
6.1875
 20
12.3056
 30
0.0
 11
6.41661
 21
12.0469
 31
0.0
  0
LINE
  8
0
 62
     0
 10
6.41661
 20
12.0469
 30
0.0
 11
6.59028
 21
11.7431
 31
0.0
  0
LINE
  8
0
 62
     0
 10
6.59028
 20
11.7431
 30
0.0
 11
6.69965
 21
11.401
 31
0.0
  0
LINE
  8
0
 62
     0
 10
6.69965
 20
11.401
 30
0.0
 11
6.73611
 21
11.0278
 31
0.0
  0
LINE
  8
0
 62
     0
 10
6.73611
 20
11.0278
 30
0.0
 11
6.71918
 21
10.7713
 31
0.0
  0
LINE
  8
0
 62
     0
 10
6.71918
 20
10.7713
 30
0.0
 11
6.6684
 21
10.5296
 31
0.0
  0
LINE
  8
0
 62
     0
 10
6.6684
 20
10.5296
 30
0.0
 11
6.58376
 21
10.3026
 31
0.0
  0
LINE
  8
0
 62
     0
 10
6.58376
 20
10.3026
 30
0.0
 11
6.46528
 21
10.0903
 31
0.0
  0
LINE
  8
0
 62
     0
 10
6.46528
 20
10.0903
 30
0.0
 11
6.31988
 21
9.89714
 31
0.0
  0
LINE
  8
0
 62
     0
 10
6.31988
 20
9.89714
 30
0.0
 11
6.15451
 21
9.72743
 31
0.0
  0
LINE
  8
0
 62
     0
 10
6.15451
 20
9.72743
 30
0.0
 11
5.96918
 21
9.58122
 31
0.0
  0
LINE
  8
0
 62
     0
 10
5.96918
 20
9.58122
 30
0.0
 11
5.76389
 21
9.45833
 31
0.0
  0
LINE
  8
0
 62
     0
 10
5.76389
 20
9.45833
 30
0.0
 11
9.26389
 21
-0
 31
0.0
  0
LINE
  8
0
 62
     0
 10
9.26389
 20
-0
 30
0.0
 11
7.91667
 21
-0
 31
0.0
  0
ENDSEC
  0
EOF
