  0
SECTION
  2
HEADER
  9
$ACADVER
  1
AC1009
  9
$EXTMIN
 10
0.0
 20
0.0
 30
0.0
  9
$EXTMAX
 10
1000.0
 20
1000.0
 30
0.0
  9
$FILLMODE
 70
 0
  9
$SPLFRAME
 70
 1
  0
ENDSEC
  0
SECTION
  2
TABLES
  0
TABLE
  2
LAYER
 70
1
  0
LAYER
  2
0
 70
     0
 62
     7
  6
CONTINUOUS
  0
ENDTAB
  0
ENDSEC
  0
SECTION
  2
ENTITIES
  0
LINE
  8
0
 62
     0
 10
8.55556
 20
3.56944
 30
0.0
 11
8.65446
 21
3.72917
 31
0.0
  0
LINE
  8
0
 62
     0
 10
8.65446
 20
3.72917
 30
0.0
 11
8.72917
 21
3.90278
 31
0.0
  0
LINE
  8
0
 62
     0
 10
8.72917
 20
3.90278
 30
0.0
 11
8.78299
 21
4.10075
 31
0.0
  0
LINE
  8
0
 62
     0
 10
8.78299
 20
4.10075
 30
0.0
 11
8.81944
 21
4.33333
 31
0.0
  0
LINE
  8
0
 62
     0
 10
8.81944
 20
4.33333
 30
0.0
 11
8.84201
 21
4.61117
 31
0.0
  0
LINE
  8
0
 62
     0
 10
8.84201
 20
4.61117
 30
0.0
 11
8.85417
 21
4.94444
 31
0.0
  0
LINE
  8
0
 62
     0
 10
8.85417
 20
4.94444
 30
0.0
 11
8.85932
 21
5.34722
 31
0.0
  0
LINE
  8
0
 62
     0
 10
8.85932
 20
5.34722
 30
0.0
 11
8.86111
 21
5.83333
 31
0.0
  0
LINE
  8
0
 62
     0
 10
8.86111
 20
5.83333
 30
0.0
 11
8.37494
 21
5.83681
 31
0.0
  0
LINE
  8
0
 62
     0
 10
8.37494
 20
5.83681
 30
0.0
 11
7.91667
 21
5.84722
 31
0.0
  0
LINE
  8
0
 62
     0
 10
7.91667
 20
5.84722
 30
0.0
 11
7.48958
 21
5.85422
 31
0.0
  0
LINE
  8
0
 62
     0
 10
7.48958
 20
5.85422
 30
0.0
 11
7.09722
 21
5.84722
 31
0.0
  0
LINE
  8
0
 62
     0
 10
7.09722
 20
5.84722
 30
0.0
 11
6.73958
 21
5.82465
 31
0.0
  0
LINE
  8
0
 62
     0
 10
6.73958
 20
5.82465
 30
0.0
 11
6.41667
 21
5.78472
 31
0.0
  0
LINE
  8
0
 62
     0
 10
6.41667
 20
5.78472
 30
0.0
 11
6.13189
 21
5.7136
 31
0.0
  0
LINE
  8
0
 62
     0
 10
6.13189
 20
5.7136
 30
0.0
 11
5.88889
 21
5.59722
 31
0.0
  0
LINE
  8
0
 62
     0
 10
5.88889
 20
5.59722
 30
0.0
 11
5.68571
 21
5.4605
 31
0.0
  0
LINE
  8
0
 62
     0
 10
5.68571
 20
5.4605
 30
0.0
 11
5.50689
 21
5.31424
 31
0.0
  0
LINE
  8
0
 62
     0
 10
5.50689
 20
5.31424
 30
0.0
 11
5.35238
 21
5.15842
 31
0.0
  0
LINE
  8
0
 62
     0
 10
5.35238
 20
5.15842
 30
0.0
 11
5.22222
 21
4.99306
 31
0.0
  0
LINE
  8
0
 62
     0
 10
5.22222
 20
4.99306
 30
0.0
 11
5.12067
 21
4.81386
 31
0.0
  0
LINE
  8
0
 62
     0
 10
5.12067
 20
4.81386
 30
0.0
 11
5.05208
 21
4.61632
 31
0.0
  0
LINE
  8
0
 62
     0
 10
5.05208
 20
4.61632
 30
0.0
 11
5.0165
 21
4.40061
 31
0.0
  0
LINE
  8
0
 62
     0
 10
5.0165
 20
4.40061
 30
0.0
 11
5.01389
 21
4.16667
 31
0.0
  0
LINE
  8
0
 62
     0
 10
5.01389
 20
4.16667
 30
0.0
 11
5.05724
 21
3.83382
 31
0.0
  0
LINE
  8
0
 62
     0
 10
5.05724
 20
3.83382
 30
0.0
 11
5.15967
 21
3.54346
 31
0.0
  0
LINE
  8
0
 62
     0
 10
5.15967
 20
3.54346
 30
0.0
 11
5.32113
 21
3.29563
 31
0.0
  0
LINE
  8
0
 62
     0
 10
5.32113
 20
3.29563
 30
0.0
 11
5.54167
 21
3.09028
 31
0.0
  0
LINE
  8
0
 62
     0
 10
5.54167
 20
3.09028
 30
0.0
 11
5.81511
 21
2.92925
 31
0.0
  0
LINE
  8
0
 62
     0
 10
5.81511
 20
2.92925
 30
0.0
 11
6.13542
 21
2.81424
 31
0.0
  0
LINE
  8
0
 62
     0
 10
6.13542
 20
2.81424
 30
0.0
 11
6.50261
 21
2.74522
 31
0.0
  0
LINE
  8
0
 62
     0
 10
6.50261
 20
2.74522
 30
0.0
 11
6.91667
 21
2.72222
 31
0.0
  0
LINE
  8
0
 62
     0
 10
6.91667
 20
2.72222
 30
0.0
 11
7.15662
 21
2.73611
 31
0.0
  0
LINE
  8
0
 62
     0
 10
7.15662
 20
2.73611
 30
0.0
 11
7.39057
 21
2.77778
 31
0.0
  0
LINE
  8
0
 62
     0
 10
7.39057
 20
2.77778
 30
0.0
 11
7.61843
 21
2.84722
 31
0.0
  0
LINE
  8
0
 62
     0
 10
7.61843
 20
2.84722
 30
0.0
 11
7.84028
 21
2.94444
 31
0.0
  0
LINE
  8
0
 62
     0
 10
7.84028
 20
2.94444
 30
0.0
 11
8.04904
 21
3.06689
 31
0.0
  0
LINE
  8
0
 62
     0
 10
8.04904
 20
3.06689
 30
0.0
 11
8.23785
 21
3.21186
 31
0.0
  0
LINE
  8
0
 62
     0
 10
8.23785
 20
3.21186
 30
0.0
 11
8.40668
 21
3.37939
 31
0.0
  0
LINE
  8
0
 62
     0
 10
8.40668
 20
3.37939
 30
0.0
 11
8.55556
 21
3.56944
 31
0.0
  0
LINE
  8
0
 62
     0
 10
9.06944
 20
-0.666667
 30
0.0
 11
8.4279
 21
-0.915744
 31
0.0
  0
LINE
  8
0
 62
     0
 10
8.4279
 20
-0.915744
 30
0.0
 11
7.76731
 21
-1.0937
 31
0.0
  0
LINE
  8
0
 62
     0
 10
7.76731
 20
-1.0937
 30
0.0
 11
7.08762
 21
-1.20047
 31
0.0
  0
LINE
  8
0
 62
     0
 10
7.08762
 20
-1.20047
 30
0.0
 11
6.38889
 21
-1.23611
 31
0.0
  0
LINE
  8
0
 62
     0
 10
6.38889
 20
-1.23611
 30
0.0
 11
5.8884
 21
-1.21609
 31
0.0
  0
LINE
  8
0
 62
     0
 10
5.8884
 20
-1.21609
 30
0.0
 11
5.3871
 21
-1.1562
 31
0.0
  0
LINE
  8
0
 62
     0
 10
5.3871
 20
-1.1562
 30
0.0
 11
4.88493
 21
-1.05637
 31
0.0
  0
LINE
  8
0
 62
     0
 10
4.88493
 20
-1.05637
 30
0.0
 11
4.38194
 21
-0.916667
 31
0.0
  0
LINE
  8
0
 62
     0
 10
4.38194
 20
-0.916667
 30
0.0
 11
3.8915
 21
-0.733507
 31
0.0
  0
LINE
  8
0
 62
     0
 10
3.8915
 20
-0.733507
 30
0.0
 11
3.42708
 21
-0.503472
 31
0.0
  0
LINE
  8
0
 62
     0
 10
3.42708
 20
-0.503472
 30
0.0
 11
2.98867
 21
-0.226508
 31
0.0
  0
LINE
  8
0
 62
     0
 10
2.98867
 20
-0.226508
 30
0.0
 11
2.57639
 21
0.0972222
 31
0.0
  0
LINE
  8
0
 62
     0
 10
2.57639
 20
0.0972222
 30
0.0
 11
2.19531
 21
0.469183
 31
0.0
  0
LINE
  8
0
 62
     0
 10
2.19531
 20
0.469183
 30
0.0
 11
1.85069
 21
0.890625
 31
0.0
  0
LINE
  8
0
 62
     0
 10
1.85069
 20
0.890625
 30
0.0
 11
1.54249
 21
1.3616
 31
0.0
  0
LINE
  8
0
 62
     0
 10
1.54249
 20
1.3616
 30
0.0
 11
1.27083
 21
1.88194
 31
0.0
  0
LINE
  8
0
 62
     0
 10
1.27083
 20
1.88194
 30
0.0
 11
1.15202
 21
2.16157
 31
0.0
  0
LINE
  8
0
 62
     0
 10
1.15202
 20
2.16157
 30
0.0
 11
1.04904
 21
2.45529
 31
0.0
  0
LINE
  8
0
 62
     0
 10
1.04904
 20
2.45529
 30
0.0
 11
0.961914
 21
2.76313
 31
0.0
  0
LINE
  8
0
 62
     0
 10
0.961914
 20
2.76313
 30
0.0
 11
0.890625
 21
3.08507
 31
0.0
  0
LINE
  8
0
 62
     0
 10
0.890625
 20
3.08507
 30
0.0
 11
0.835178
 21
3.42111
 31
0.0
  0
LINE
  8
0
 62
     0
 10
0.835178
 20
3.42111
 30
0.0
 11
0.795572
 21
3.77126
 31
0.0
  0
LINE
  8
0
 62
     0
 10
0.795572
 20
3.77126
 30
0.0
 11
0.77181
 21
4.13553
 31
0.0
  0
LINE
  8
0
 62
     0
 10
0.77181
 20
4.13553
 30
0.0
 11
0.763889
 21
4.51389
 31
0.0
  0
LINE
  8
0
 62
     0
 10
0.763889
 20
4.51389
 30
0.0
 11
0.771213
 21
4.90522
 31
0.0
  0
LINE
  8
0
 62
     0
 10
0.771213
 20
4.90522
 30
0.0
 11
0.793349
 21
5.28043
 31
0.0
  0
LINE
  8
0
 62
     0
 10
0.793349
 20
5.28043
 30
0.0
 11
0.83024
 21
5.6396
 31
0.0
  0
LINE
  8
0
 62
     0
 10
0.83024
 20
5.6396
 30
0.0
 11
0.88189
 21
5.98269
 31
0.0
  0
LINE
  8
0
 62
     0
 10
0.88189
 20
5.98269
 30
0.0
 11
0.948296
 21
6.30974
 31
0.0
  0
LINE
  8
0
 62
     0
 10
0.948296
 20
6.30974
 30
0.0
 11
1.02946
 21
6.62071
 31
0.0
  0
LINE
  8
0
 62
     0
 10
1.02946
 20
6.62071
 30
0.0
 11
1.12538
 21
6.91564
 31
0.0
  0
LINE
  8
0
 62
     0
 10
1.12538
 20
6.91564
 30
0.0
 11
1.23611
 21
7.19444
 31
0.0
  0
LINE
  8
0
 62
     0
 10
1.23611
 20
7.19444
 30
0.0
 11
1.48958
 21
7.71007
 31
0.0
  0
LINE
  8
0
 62
     0
 10
1.48958
 20
7.71007
 30
0.0
 11
1.77778
 21
8.17361
 31
0.0
  0
LINE
  8
0
 62
     0
 10
1.77778
 20
8.17361
 30
0.0
 11
2.10069
 21
8.58507
 31
0.0
  0
LINE
  8
0
 62
     0
 10
2.10069
 20
8.58507
 30
0.0
 11
2.45833
 21
8.94444
 31
0.0
  0
LINE
  8
0
 62
     0
 10
2.45833
 20
8.94444
 30
0.0
 11
2.84326
 21
9.25433
 31
0.0
  0
LINE
  8
0
 62
     0
 10
2.84326
 20
9.25433
 30
0.0
 11
3.24821
 21
9.51736
 31
0.0
  0
LINE
  8
0
 62
     0
 10
3.24821
 20
9.51736
 30
0.0
 11
3.67312
 21
9.7335
 31
0.0
  0
LINE
  8
0
 62
     0
 10
3.67312
 20
9.7335
 30
0.0
 11
4.11806
 21
9.90278
 31
0.0
  0
LINE
  8
0
 62
     0
 10
4.11806
 20
9.90278
 30
0.0
 11
4.57075
 21
10.0304
 31
0.0
  0
LINE
  8
0
 62
     0
 10
4.57075
 20
10.0304
 30
0.0
 11
5.0191
 21
10.1215
 31
0.0
  0
LINE
  8
0
 62
     0
 10
5.0191
 20
10.1215
 30
0.0
 11
5.46311
 21
10.1762
 31
0.0
  0
LINE
  8
0
 62
     0
 10
5.46311
 20
10.1762
 30
0.0
 11
5.90278
 21
10.1944
 31
0.0
  0
LINE
  8
0
 62
     0
 10
5.90278
 20
10.1944
 30
0.0
 11
6.36806
 21
10.1788
 31
0.0
  0
LINE
  8
0
 62
     0
 10
6.36806
 20
10.1788
 30
0.0
 11
6.80556
 21
10.1319
 31
0.0
  0
LINE
  8
0
 62
     0
 10
6.80556
 20
10.1319
 30
0.0
 11
7.21528
 21
10.0538
 31
0.0
  0
LINE
  8
0
 62
     0
 10
7.21528
 20
10.0538
 30
0.0
 11
7.59722
 21
9.94444
 31
0.0
  0
LINE
  8
0
 62
     0
 10
7.59722
 20
9.94444
 30
0.0
 11
7.9509
 21
9.80599
 31
0.0
  0
LINE
  8
0
 62
     0
 10
7.9509
 20
9.80599
 30
0.0
 11
8.27604
 21
9.64063
 31
0.0
  0
LINE
  8
0
 62
     0
 10
8.27604
 20
9.64063
 30
0.0
 11
8.57249
 21
9.44835
 31
0.0
  0
LINE
  8
0
 62
     0
 10
8.57249
 20
9.44835
 30
0.0
 11
8.84028
 21
9.22917
 31
0.0
  0
LINE
  8
0
 62
     0
 10
8.84028
 20
9.22917
 30
0.0
 11
9.07807
 21
8.98443
 31
0.0
  0
LINE
  8
0
 62
     0
 10
9.07807
 20
8.98443
 30
0.0
 11
9.28472
 21
8.71533
 31
0.0
  0
LINE
  8
0
 62
     0
 10
9.28472
 20
8.71533
 30
0.0
 11
9.46007
 21
8.42193
 31
0.0
  0
LINE
  8
0
 62
     0
 10
9.46007
 20
8.42193
 30
0.0
 11
9.60417
 21
8.10417
 31
0.0
  0
LINE
  8
0
 62
     0
 10
9.60417
 20
8.10417
 30
0.0
 11
9.71653
 21
7.76346
 31
0.0
  0
LINE
  8
0
 62
     0
 10
9.71653
 20
7.76346
 30
0.0
 11
9.79682
 21
7.40104
 31
0.0
  0
LINE
  8
0
 62
     0
 10
9.79682
 20
7.40104
 30
0.0
 11
9.845
 21
7.01693
 31
0.0
  0
LINE
  8
0
 62
     0
 10
9.845
 20
7.01693
 30
0.0
 11
9.86111
 21
6.61111
 31
0.0
  0
LINE
  8
0
 62
     0
 10
9.86111
 20
6.61111
 30
0.0
 11
9.86111
 21
1.95833
 31
0.0
  0
LINE
  8
0
 62
     0
 10
9.86111
 20
1.95833
 30
0.0
 11
8.86111
 21
1.95833
 31
0.0
  0
LINE
  8
0
 62
     0
 10
8.86111
 20
1.95833
 30
0.0
 11
8.86111
 21
2.65278
 31
0.0
  0
LINE
  8
0
 62
     0
 10
8.86111
 20
2.65278
 30
0.0
 11
8.65446
 21
2.46272
 31
0.0
  0
LINE
  8
0
 62
     0
 10
8.65446
 20
2.46272
 30
0.0
 11
8.42356
 21
2.29519
 31
0.0
  0
LINE
  8
0
 62
     0
 10
8.42356
 20
2.29519
 30
0.0
 11
8.16835
 21
2.15022
 31
0.0
  0
LINE
  8
0
 62
     0
 10
8.16835
 20
2.15022
 30
0.0
 11
7.88889
 21
2.02778
 31
0.0
  0
LINE
  8
0
 62
     0
 10
7.88889
 20
2.02778
 30
0.0
 11
7.59461
 21
1.93056
 31
0.0
  0
LINE
  8
0
 62
     0
 10
7.59461
 20
1.93056
 30
0.0
 11
7.29514
 21
1.86111
 31
0.0
  0
LINE
  8
0
 62
     0
 10
7.29514
 20
1.86111
 30
0.0
 11
6.99044
 21
1.81944
 31
0.0
  0
LINE
  8
0
 62
     0
 10
6.99044
 20
1.81944
 30
0.0
 11
6.68056
 21
1.80556
 31
0.0
  0
LINE
  8
0
 62
     0
 10
6.68056
 20
1.80556
 30
0.0
 11
6.37061
 21
1.81646
 31
0.0
  0
LINE
  8
0
 62
     0
 10
6.37061
 20
1.81646
 30
0.0
 11
6.07981
 21
1.84901
 31
0.0
  0
LINE
  8
0
 62
     0
 10
6.07981
 20
1.84901
 30
0.0
 11
5.80811
 21
1.90326
 31
0.0
  0
LINE
  8
0
 62
     0
 10
5.80811
 20
1.90326
 30
0.0
 11
5.55556
 21
1.97917
 31
0.0
  0
LINE
  8
0
 62
     0
 10
5.55556
 20
1.97917
 30
0.0
 11
5.32161
 21
2.07422
 31
0.0
  0
LINE
  8
0
 62
     0
 10
5.32161
 20
2.07422
 30
0.0
 11
5.1059
 21
2.18576
 31
0.0
  0
LINE
  8
0
 62
     0
 10
5.1059
 20
2.18576
 30
0.0
 11
4.90836
 21
2.31381
 31
0.0
  0
LINE
  8
0
 62
     0
 10
4.90836
 20
2.31381
 30
0.0
 11
4.72917
 21
2.45833
 31
0.0
  0
LINE
  8
0
 62
     0
 10
4.72917
 20
2.45833
 30
0.0
 11
4.56901
 21
2.61897
 31
0.0
  0
LINE
  8
0
 62
     0
 10
4.56901
 20
2.61897
 30
0.0
 11
4.42882
 21
2.79514
 31
0.0
  0
LINE
  8
0
 62
     0
 10
4.42882
 20
2.79514
 30
0.0
 11
4.3086
 21
2.98697
 31
0.0
  0
LINE
  8
0
 62
     0
 10
4.3086
 20
2.98697
 30
0.0
 11
4.20833
 21
3.19444
 31
0.0
  0
LINE
  8
0
 62
     0
 10
4.20833
 20
3.19444
 30
0.0
 11
4.12842
 21
3.41499
 31
0.0
  0
LINE
  8
0
 62
     0
 10
4.12842
 20
3.41499
 30
0.0
 11
4.06939
 21
3.64583
 31
0.0
  0
LINE
  8
0
 62
     0
 10
4.06939
 20
3.64583
 30
0.0
 11
4.03119
 21
3.88715
 31
0.0
  0
LINE
  8
0
 62
     0
 10
4.03119
 20
3.88715
 30
0.0
 11
4.01389
 21
4.13889
 31
0.0
  0
LINE
  8
0
 62
     0
 10
4.01389
 20
4.13889
 30
0.0
 11
4.02864
 21
4.57725
 31
0.0
  0
LINE
  8
0
 62
     0
 10
4.02864
 20
4.57725
 30
0.0
 11
4.10069
 21
4.97569
 31
0.0
  0
LINE
  8
0
 62
     0
 10
4.10069
 20
4.97569
 30
0.0
 11
4.22999
 21
5.33419
 31
0.0
  0
LINE
  8
0
 62
     0
 10
4.22999
 20
5.33419
 30
0.0
 11
4.41667
 21
5.65278
 31
0.0
  0
LINE
  8
0
 62
     0
 10
4.41667
 20
5.65278
 30
0.0
 11
4.6684
 21
5.93494
 31
0.0
  0
LINE
  8
0
 62
     0
 10
4.6684
 20
5.93494
 30
0.0
 11
4.99306
 21
6.18408
 31
0.0
  0
LINE
  8
0
 62
     0
 10
4.99306
 20
6.18408
 30
0.0
 11
5.39057
 21
6.40022
 31
0.0
  0
LINE
  8
0
 62
     0
 10
5.39057
 20
6.40022
 30
0.0
 11
5.86111
 21
6.58333
 31
0.0
  0
LINE
  8
0
 62
     0
 10
5.86111
 20
6.58333
 30
0.0
 11
6.18012
 21
6.67447
 31
0.0
  0
LINE
  8
0
 62
     0
 10
6.18012
 20
6.67447
 30
0.0
 11
6.51215
 21
6.73958
 31
0.0
  0
LINE
  8
0
 62
     0
 10
6.51215
 20
6.73958
 30
0.0
 11
6.85721
 21
6.77864
 31
0.0
  0
LINE
  8
0
 62
     0
 10
6.85721
 20
6.77864
 30
0.0
 11
7.21528
 21
6.79167
 31
0.0
  0
LINE
  8
0
 62
     0
 10
7.21528
 20
6.79167
 30
0.0
 11
8.81944
 21
6.79167
 31
0.0
  0
LINE
  8
0
 62
     0
 10
8.81944
 20
6.79167
 30
0.0
 11
8.81944
 21
7.15278
 31
0.0
  0
LINE
  8
0
 62
     0
 10
8.81944
 20
7.15278
 30
0.0
 11
8.80251
 21
7.38374
 31
0.0
  0
LINE
  8
0
 62
     0
 10
8.80251
 20
7.38374
 30
0.0
 11
8.75174
 21
7.60422
 31
0.0
  0
LINE
  8
0
 62
     0
 10
8.75174
 20
7.60422
 30
0.0
 11
8.6671
 21
7.81429
 31
0.0
  0
LINE
  8
0
 62
     0
 10
8.6671
 20
7.81429
 30
0.0
 11
8.54861
 21
8.01389
 31
0.0
  0
LINE
  8
0
 62
     0
 10
8.54861
 20
8.01389
 30
0.0
 11
8.4036
 21
8.20144
 31
0.0
  0
LINE
  8
0
 62
     0
 10
8.4036
 20
8.20144
 30
0.0
 11
8.23953
 21
8.37506
 31
0.0
  0
LINE
  8
0
 62
     0
 10
8.23953
 20
8.37506
 30
0.0
 11
8.05638
 21
8.53478
 31
0.0
  0
LINE
  8
0
 62
     0
 10
8.05638
 20
8.53478
 30
0.0
 11
7.85417
 21
8.68056
 31
0.0
  0
LINE
  8
0
 62
     0
 10
7.85417
 20
8.68056
 30
0.0
 11
7.63542
 21
8.81164
 31
0.0
  0
LINE
  8
0
 62
     0
 10
7.63542
 20
8.81164
 30
0.0
 11
7.40278
 21
8.92708
 31
0.0
  0
LINE
  8
0
 62
     0
 10
7.40278
 20
8.92708
 30
0.0
 11
7.15625
 21
9.02696
 31
0.0
  0
LINE
  8
0
 62
     0
 10
7.15625
 20
9.02696
 30
0.0
 11
6.89583
 21
9.11111
 31
0.0
  0
LINE
  8
0
 62
     0
 10
6.89583
 20
9.11111
 30
0.0
 11
6.36279
 21
9.22569
 31
0.0
  0
LINE
  8
0
 62
     0
 10
6.36279
 20
9.22569
 30
0.0
 11
5.83333
 21
9.26389
 31
0.0
  0
LINE
  8
0
 62
     0
 10
5.83333
 20
9.26389
 30
0.0
 11
5.4796
 21
9.24615
 31
0.0
  0
LINE
  8
0
 62
     0
 10
5.4796
 20
9.24615
 30
0.0
 11
5.12674
 21
9.19276
 31
0.0
  0
LINE
  8
0
 62
     0
 10
5.12674
 20
9.19276
 30
0.0
 11
4.77474
 21
9.10379
 31
0.0
  0
LINE
  8
0
 62
     0
 10
4.77474
 20
9.10379
 30
0.0
 11
4.42361
 21
8.97917
 31
0.0
  0
LINE
  8
0
 62
     0
 10
4.42361
 20
8.97917
 30
0.0
 11
4.08197
 21
8.81814
 31
0.0
  0
LINE
  8
0
 62
     0
 10
4.08197
 20
8.81814
 30
0.0
 11
3.75868
 21
8.61979
 31
0.0
  0
LINE
  8
0
 62
     0
 10
3.75868
 20
8.61979
 30
0.0
 11
3.45356
 21
8.38411
 31
0.0
  0
LINE
  8
0
 62
     0
 10
3.45356
 20
8.38411
 30
0.0
 11
3.16667
 21
8.11111
 31
0.0
  0
LINE
  8
0
 62
     0
 10
3.16667
 20
8.11111
 30
0.0
 11
2.90186
 21
7.8004
 31
0.0
  0
LINE
  8
0
 62
     0
 10
2.90186
 20
7.8004
 30
0.0
 11
2.66319
 21
7.45144
 31
0.0
  0
LINE
  8
0
 62
     0
 10
2.66319
 20
7.45144
 30
0.0
 11
2.45053
 21
7.06429
 31
0.0
  0
LINE
  8
0
 62
     0
 10
2.45053
 20
7.06429
 30
0.0
 11
2.26389
 21
6.63889
 31
0.0
  0
LINE
  8
0
 62
     0
 10
2.26389
 20
6.63889
 30
0.0
 11
2.11193
 21
6.17447
 31
0.0
  0
LINE
  8
0
 62
     0
 10
2.11193
 20
6.17447
 30
0.0
 11
2.00342
 21
5.67014
 31
0.0
  0
LINE
  8
0
 62
     0
 10
2.00342
 20
5.67014
 30
0.0
 11
1.93832
 21
5.12586
 31
0.0
  0
LINE
  8
0
 62
     0
 10
1.93832
 20
5.12586
 30
0.0
 11
1.91667
 21
4.54167
 31
0.0
  0
LINE
  8
0
 62
     0
 10
1.91667
 20
4.54167
 30
0.0
 11
1.94353
 21
3.91363
 31
0.0
  0
LINE
  8
0
 62
     0
 10
1.94353
 20
3.91363
 30
0.0
 11
2.02425
 21
3.33507
 31
0.0
  0
LINE
  8
0
 62
     0
 10
2.02425
 20
3.33507
 30
0.0
 11
2.15881
 21
2.80604
 31
0.0
  0
LINE
  8
0
 62
     0
 10
2.15881
 20
2.80604
 30
0.0
 11
2.34722
 21
2.32639
 31
0.0
  0
LINE
  8
0
 62
     0
 10
2.34722
 20
2.32639
 30
0.0
 11
2.57725
 21
1.89236
 31
0.0
  0
LINE
  8
0
 62
     0
 10
2.57725
 20
1.89236
 30
0.0
 11
2.83681
 21
1.5
 31
0.0
  0
LINE
  8
0
 62
     0
 10
2.83681
 20
1.5
 30
0.0
 11
3.12586
 21
1.14936
 31
0.0
  0
LINE
  8
0
 62
     0
 10
3.12586
 20
1.14936
 30
0.0
 11
3.44444
 21
0.840278
 31
0.0
  0
LINE
  8
0
 62
     0
 10
3.44444
 20
0.840278
 30
0.0
 11
3.78733
 21
0.572049
 31
0.0
  0
LINE
  8
0
 62
     0
 10
3.78733
 20
0.572049
 30
0.0
 11
4.14931
 21
0.34375
 31
0.0
  0
LINE
  8
0
 62
     0
 10
4.14931
 20
0.34375
 30
0.0
 11
4.53039
 21
0.155382
 31
0.0
  0
LINE
  8
0
 62
     0
 10
4.53039
 20
0.155382
 30
0.0
 11
4.93056
 21
0.00694444
 31
0.0
  0
LINE
  8
0
 62
     0
 10
4.93056
 20
0.00694444
 30
0.0
 11
5.33767
 21
-0.105414
 31
0.0
  0
LINE
  8
0
 62
     0
 10
5.33767
 20
-0.105414
 30
0.0
 11
5.73958
 21
-0.18571
 31
0.0
  0
LINE
  8
0
 62
     0
 10
5.73958
 20
-0.18571
 30
0.0
 11
6.13628
 21
-0.233886
 31
0.0
  0
LINE
  8
0
 62
     0
 10
6.13628
 20
-0.233886
 30
0.0
 11
6.52778
 21
-0.25
 31
0.0
  0
LINE
  8
0
 62
     0
 10
6.52778
 20
-0.25
 30
0.0
 11
6.84028
 21
-0.239583
 31
0.0
  0
LINE
  8
0
 62
     0
 10
6.84028
 20
-0.239583
 30
0.0
 11
7.16667
 21
-0.208333
 31
0.0
  0
LINE
  8
0
 62
     0
 10
7.16667
 20
-0.208333
 30
0.0
 11
7.83333
 21
-0.0833333
 31
0.0
  0
LINE
  8
0
 62
     0
 10
7.83333
 20
-0.0833333
 30
0.0
 11
8.48611
 21
0.118056
 31
0.0
  0
LINE
  8
0
 62
     0
 10
8.48611
 20
0.118056
 30
0.0
 11
8.79161
 21
0.244846
 31
0.0
  0
LINE
  8
0
 62
     0
 10
8.79161
 20
0.244846
 30
0.0
 11
9.06944
 21
0.388889
 31
0.0
  0
LINE
  8
0
 62
     0
 10
9.06944
 20
0.388889
 30
0.0
 11
9.06944
 21
-0.666667
 31
0.0
  0
ENDSEC
  0
EOF
