  0
SECTION
  2
HEADER
  9
$ACADVER
  1
AC1009
  9
$EXTMIN
 10
0.0
 20
0.0
 30
0.0
  9
$EXTMAX
 10
1000.0
 20
1000.0
 30
0.0
  9
$FILLMODE
 70
 0
  9
$SPLFRAME
 70
 1
  0
ENDSEC
  0
SECTION
  2
TABLES
  0
TABLE
  2
LAYER
 70
1
  0
LAYER
  2
0
 70
     0
 62
     7
  6
CONTINUOUS
  0
ENDTAB
  0
ENDSEC
  0
SECTION
  2
ENTITIES
  0
LINE
  8
0
 62
     0
 10
4.11111
 20
6.86111
 30
0.0
 11
3.82856
 21
6.84506
 31
0.0
  0
LINE
  8
0
 62
     0
 10
3.82856
 20
6.84506
 30
0.0
 11
3.56424
 21
6.79688
 31
0.0
  0
LINE
  8
0
 62
     0
 10
3.56424
 20
6.79688
 30
0.0
 11
3.31814
 21
6.71658
 31
0.0
  0
LINE
  8
0
 62
     0
 10
3.31814
 20
6.71658
 30
0.0
 11
3.09028
 21
6.60417
 31
0.0
  0
LINE
  8
0
 62
     0
 10
3.09028
 20
6.60417
 30
0.0
 11
2.88108
 21
6.46533
 31
0.0
  0
LINE
  8
0
 62
     0
 10
2.88108
 20
6.46533
 30
0.0
 11
2.69097
 21
6.30556
 31
0.0
  0
LINE
  8
0
 62
     0
 10
2.69097
 20
6.30556
 30
0.0
 11
2.51997
 21
6.125
 31
0.0
  0
LINE
  8
0
 62
     0
 10
2.51997
 20
6.125
 30
0.0
 11
2.36806
 21
5.92361
 31
0.0
  0
LINE
  8
0
 62
     0
 10
2.36806
 20
5.92361
 30
0.0
 11
2.23432
 21
5.70492
 31
0.0
  0
LINE
  8
0
 62
     0
 10
2.23432
 20
5.70492
 30
0.0
 11
2.118
 21
5.47228
 31
0.0
  0
LINE
  8
0
 62
     0
 10
2.118
 20
5.47228
 30
0.0
 11
2.01904
 21
5.22575
 31
0.0
  0
LINE
  8
0
 62
     0
 10
2.01904
 20
5.22575
 30
0.0
 11
1.9375
 21
4.96528
 31
0.0
  0
LINE
  8
0
 62
     0
 10
1.9375
 20
4.96528
 30
0.0
 11
1.82813
 21
4.42535
 31
0.0
  0
LINE
  8
0
 62
     0
 10
1.82813
 20
4.42535
 30
0.0
 11
1.79167
 21
3.875
 31
0.0
  0
LINE
  8
0
 62
     0
 10
1.79167
 20
3.875
 30
0.0
 11
1.82465
 21
3.28304
 31
0.0
  0
LINE
  8
0
 62
     0
 10
1.82465
 20
3.28304
 30
0.0
 11
1.92361
 21
2.72917
 31
0.0
  0
LINE
  8
0
 62
     0
 10
1.92361
 20
2.72917
 30
0.0
 11
1.99864
 21
2.47049
 31
0.0
  0
LINE
  8
0
 62
     0
 10
1.99864
 20
2.47049
 30
0.0
 11
2.09201
 21
2.22917
 31
0.0
  0
LINE
  8
0
 62
     0
 10
2.09201
 20
2.22917
 30
0.0
 11
2.20356
 21
2.00521
 31
0.0
  0
LINE
  8
0
 62
     0
 10
2.20356
 20
2.00521
 30
0.0
 11
2.33333
 21
1.79861
 31
0.0
  0
LINE
  8
0
 62
     0
 10
2.33333
 20
1.79861
 30
0.0
 11
2.48085
 21
1.61068
 31
0.0
  0
LINE
  8
0
 62
     0
 10
2.48085
 20
1.61068
 30
0.0
 11
2.64578
 21
1.44271
 31
0.0
  0
LINE
  8
0
 62
     0
 10
2.64578
 20
1.44271
 30
0.0
 11
2.82807
 21
1.29471
 31
0.0
  0
LINE
  8
0
 62
     0
 10
2.82807
 20
1.29471
 30
0.0
 11
3.02778
 21
1.16667
 31
0.0
  0
LINE
  8
0
 62
     0
 10
3.02778
 20
1.16667
 30
0.0
 11
3.24653
 21
1.06342
 31
0.0
  0
LINE
  8
0
 62
     0
 10
3.24653
 20
1.06342
 30
0.0
 11
3.48611
 21
0.989637
 31
0.0
  0
LINE
  8
0
 62
     0
 10
3.48611
 20
0.989637
 30
0.0
 11
3.74653
 21
0.945367
 31
0.0
  0
LINE
  8
0
 62
     0
 10
3.74653
 20
0.945367
 30
0.0
 11
4.02778
 21
0.930556
 31
0.0
  0
LINE
  8
0
 62
     0
 10
4.02778
 20
0.930556
 30
0.0
 11
4.352
 21
0.942762
 31
0.0
  0
LINE
  8
0
 62
     0
 10
4.352
 20
0.942762
 30
0.0
 11
4.65799
 21
0.979221
 31
0.0
  0
LINE
  8
0
 62
     0
 10
4.65799
 20
0.979221
 30
0.0
 11
4.94575
 21
1.03998
 31
0.0
  0
LINE
  8
0
 62
     0
 10
4.94575
 20
1.03998
 30
0.0
 11
5.21528
 21
1.125
 31
0.0
  0
LINE
  8
0
 62
     0
 10
5.21528
 20
1.125
 30
0.0
 11
5.46311
 21
1.23351
 31
0.0
  0
LINE
  8
0
 62
     0
 10
5.46311
 20
1.23351
 30
0.0
 11
5.68576
 21
1.36458
 31
0.0
  0
LINE
  8
0
 62
     0
 10
5.68576
 20
1.36458
 30
0.0
 11
5.88325
 21
1.51822
 31
0.0
  0
LINE
  8
0
 62
     0
 10
5.88325
 20
1.51822
 30
0.0
 11
6.05556
 21
1.69444
 31
0.0
  0
LINE
  8
0
 62
     0
 10
6.05556
 20
1.69444
 30
0.0
 11
6.05556
 21
5.88889
 31
0.0
  0
LINE
  8
0
 62
     0
 10
6.05556
 20
5.88889
 30
0.0
 11
5.90408
 21
6.10553
 31
0.0
  0
LINE
  8
0
 62
     0
 10
5.90408
 20
6.10553
 30
0.0
 11
5.72743
 21
6.29693
 31
0.0
  0
LINE
  8
0
 62
     0
 10
5.72743
 20
6.29693
 30
0.0
 11
5.52561
 21
6.46317
 31
0.0
  0
LINE
  8
0
 62
     0
 10
5.52561
 20
6.46317
 30
0.0
 11
5.29861
 21
6.60417
 31
0.0
  0
LINE
  8
0
 62
     0
 10
5.29861
 20
6.60417
 30
0.0
 11
5.04471
 21
6.71658
 31
0.0
  0
LINE
  8
0
 62
     0
 10
5.04471
 20
6.71658
 30
0.0
 11
4.76215
 21
6.79688
 31
0.0
  0
LINE
  8
0
 62
     0
 10
4.76215
 20
6.79688
 30
0.0
 11
4.45096
 21
6.84506
 31
0.0
  0
LINE
  8
0
 62
     0
 10
4.45096
 20
6.84506
 30
0.0
 11
4.11111
 21
6.86111
 31
0.0
  0
LINE
  8
0
 62
     0
 10
4
 20
7.86111
 30
0.0
 11
4.28728
 21
7.84939
 31
0.0
  0
LINE
  8
0
 62
     0
 10
4.28728
 20
7.84939
 30
0.0
 11
4.56592
 21
7.81424
 31
0.0
  0
LINE
  8
0
 62
     0
 10
4.56592
 20
7.81424
 30
0.0
 11
4.83589
 21
7.75564
 31
0.0
  0
LINE
  8
0
 62
     0
 10
4.83589
 20
7.75564
 30
0.0
 11
5.09722
 21
7.67361
 31
0.0
  0
LINE
  8
0
 62
     0
 10
5.09722
 20
7.67361
 30
0.0
 11
5.34983
 21
7.56381
 31
0.0
  0
LINE
  8
0
 62
     0
 10
5.34983
 20
7.56381
 30
0.0
 11
5.59375
 21
7.42188
 31
0.0
  0
LINE
  8
0
 62
     0
 10
5.59375
 20
7.42188
 30
0.0
 11
5.829
 21
7.24783
 31
0.0
  0
LINE
  8
0
 62
     0
 10
5.829
 20
7.24783
 30
0.0
 11
6.05556
 21
7.04167
 31
0.0
  0
LINE
  8
0
 62
     0
 10
6.05556
 20
7.04167
 30
0.0
 11
6.05556
 21
7.72222
 31
0.0
  0
LINE
  8
0
 62
     0
 10
6.05556
 20
7.72222
 30
0.0
 11
7.20833
 21
7.72222
 31
0.0
  0
LINE
  8
0
 62
     0
 10
7.20833
 20
7.72222
 30
0.0
 11
7.20833
 21
-0
 31
0.0
  0
LINE
  8
0
 62
     0
 10
7.20833
 20
-0
 30
0.0
 11
6.05556
 21
-0
 31
0.0
  0
LINE
  8
0
 62
     0
 10
6.05556
 20
-0
 30
0.0
 11
6.05556
 21
0.569444
 31
0.0
  0
LINE
  8
0
 62
     0
 10
6.05556
 20
0.569444
 30
0.0
 11
5.82856
 21
0.407553
 31
0.0
  0
LINE
  8
0
 62
     0
 10
5.82856
 20
0.407553
 30
0.0
 11
5.59201
 21
0.269097
 31
0.0
  0
LINE
  8
0
 62
     0
 10
5.59201
 20
0.269097
 30
0.0
 11
5.34592
 21
0.154135
 31
0.0
  0
LINE
  8
0
 62
     0
 10
5.34592
 20
0.154135
 30
0.0
 11
5.09028
 21
0.0625
 31
0.0
  0
LINE
  8
0
 62
     0
 10
5.09028
 20
0.0625
 30
0.0
 11
4.56076
 21
-0.0572917
 31
0.0
  0
LINE
  8
0
 62
     0
 10
4.56076
 20
-0.0572917
 30
0.0
 11
4.01389
 21
-0.0972222
 31
0.0
  0
LINE
  8
0
 62
     0
 10
4.01389
 20
-0.0972222
 30
0.0
 11
3.66536
 21
-0.0815972
 31
0.0
  0
LINE
  8
0
 62
     0
 10
3.66536
 20
-0.0815972
 30
0.0
 11
3.32813
 21
-0.0347222
 31
0.0
  0
LINE
  8
0
 62
     0
 10
3.32813
 20
-0.0347222
 30
0.0
 11
3.00217
 21
0.0434028
 31
0.0
  0
LINE
  8
0
 62
     0
 10
3.00217
 20
0.0434028
 30
0.0
 11
2.6875
 21
0.152778
 31
0.0
  0
LINE
  8
0
 62
     0
 10
2.6875
 20
0.152778
 30
0.0
 11
2.3884
 21
0.293403
 31
0.0
  0
LINE
  8
0
 62
     0
 10
2.3884
 20
0.293403
 30
0.0
 11
2.10932
 21
0.465278
 31
0.0
  0
LINE
  8
0
 62
     0
 10
2.10932
 20
0.465278
 30
0.0
 11
1.85021
 21
0.668403
 31
0.0
  0
LINE
  8
0
 62
     0
 10
1.85021
 20
0.668403
 30
0.0
 11
1.61111
 21
0.902778
 31
0.0
  0
LINE
  8
0
 62
     0
 10
1.61111
 20
0.902778
 30
0.0
 11
1.3941
 21
1.1684
 31
0.0
  0
LINE
  8
0
 62
     0
 10
1.3941
 20
1.1684
 30
0.0
 11
1.20139
 21
1.46528
 31
0.0
  0
LINE
  8
0
 62
     0
 10
1.20139
 20
1.46528
 30
0.0
 11
1.03299
 21
1.7934
 31
0.0
  0
LINE
  8
0
 62
     0
 10
1.03299
 20
1.7934
 30
0.0
 11
0.888889
 21
2.15278
 31
0.0
  0
LINE
  8
0
 62
     0
 10
0.888889
 20
2.15278
 30
0.0
 11
0.773383
 21
2.5434
 31
0.0
  0
LINE
  8
0
 62
     0
 10
0.773383
 20
2.5434
 30
0.0
 11
0.690918
 21
2.96528
 31
0.0
  0
LINE
  8
0
 62
     0
 10
0.690918
 20
2.96528
 30
0.0
 11
0.641439
 21
3.4184
 31
0.0
  0
LINE
  8
0
 62
     0
 10
0.641439
 20
3.4184
 30
0.0
 11
0.625
 21
3.90278
 31
0.0
  0
LINE
  8
0
 62
     0
 10
0.625
 20
3.90278
 30
0.0
 11
0.641439
 21
4.34988
 31
0.0
  0
LINE
  8
0
 62
     0
 10
0.641439
 20
4.34988
 30
0.0
 11
0.690918
 21
4.77436
 31
0.0
  0
LINE
  8
0
 62
     0
 10
0.690918
 20
4.77436
 30
0.0
 11
0.773383
 21
5.17626
 31
0.0
  0
LINE
  8
0
 62
     0
 10
0.773383
 20
5.17626
 30
0.0
 11
0.888889
 21
5.55556
 31
0.0
  0
LINE
  8
0
 62
     0
 10
0.888889
 20
5.55556
 30
0.0
 11
1.03299
 21
5.90972
 31
0.0
  0
LINE
  8
0
 62
     0
 10
1.03299
 20
5.90972
 30
0.0
 11
1.20139
 21
6.23611
 31
0.0
  0
LINE
  8
0
 62
     0
 10
1.20139
 20
6.23611
 30
0.0
 11
1.3941
 21
6.53472
 31
0.0
  0
LINE
  8
0
 62
     0
 10
1.3941
 20
6.53472
 30
0.0
 11
1.61111
 21
6.80556
 31
0.0
  0
LINE
  8
0
 62
     0
 10
1.61111
 20
6.80556
 30
0.0
 11
1.85021
 21
7.04736
 31
0.0
  0
LINE
  8
0
 62
     0
 10
1.85021
 20
7.04736
 30
0.0
 11
2.10932
 21
7.25874
 31
0.0
  0
LINE
  8
0
 62
     0
 10
2.10932
 20
7.25874
 30
0.0
 11
2.3884
 21
7.43972
 31
0.0
  0
LINE
  8
0
 62
     0
 10
2.3884
 20
7.43972
 30
0.0
 11
2.6875
 21
7.59028
 31
0.0
  0
LINE
  8
0
 62
     0
 10
2.6875
 20
7.59028
 30
0.0
 11
3.00131
 21
7.70876
 31
0.0
  0
LINE
  8
0
 62
     0
 10
3.00131
 20
7.70876
 30
0.0
 11
3.32465
 21
7.7934
 31
0.0
  0
LINE
  8
0
 62
     0
 10
3.32465
 20
7.7934
 30
0.0
 11
3.65756
 21
7.84418
 31
0.0
  0
LINE
  8
0
 62
     0
 10
3.65756
 20
7.84418
 30
0.0
 11
4
 21
7.86111
 31
0.0
  0
LINE
  8
0
 62
     0
 10
1.34722
 20
9.40278
 30
0.0
 11
1.36285
 21
9.66146
 31
0.0
  0
LINE
  8
0
 62
     0
 10
1.36285
 20
9.66146
 30
0.0
 11
1.40972
 21
9.9375
 31
0.0
  0
LINE
  8
0
 62
     0
 10
1.40972
 20
9.9375
 30
0.0
 11
1.49826
 21
10.2118
 31
0.0
  0
LINE
  8
0
 62
     0
 10
1.49826
 20
10.2118
 30
0.0
 11
1.63889
 21
10.4653
 31
0.0
  0
LINE
  8
0
 62
     0
 10
1.63889
 20
10.4653
 30
0.0
 11
1.83333
 21
10.6876
 31
0.0
  0
LINE
  8
0
 62
     0
 10
1.83333
 20
10.6876
 30
0.0
 11
2.08333
 21
10.8681
 31
0.0
  0
LINE
  8
0
 62
     0
 10
2.08333
 20
10.8681
 30
0.0
 11
2.23085
 21
10.938
 31
0.0
  0
LINE
  8
0
 62
     0
 10
2.23085
 20
10.938
 30
0.0
 11
2.39578
 21
10.9879
 31
0.0
  0
LINE
  8
0
 62
     0
 10
2.39578
 20
10.9879
 30
0.0
 11
2.57807
 21
11.0178
 31
0.0
  0
LINE
  8
0
 62
     0
 10
2.57807
 20
11.0178
 30
0.0
 11
2.77778
 21
11.0278
 31
0.0
  0
LINE
  8
0
 62
     0
 10
2.77778
 20
11.0278
 30
0.0
 11
2.97831
 21
11.0178
 31
0.0
  0
LINE
  8
0
 62
     0
 10
2.97831
 20
11.0178
 30
0.0
 11
3.16319
 21
10.9879
 31
0.0
  0
LINE
  8
0
 62
     0
 10
3.16319
 20
10.9879
 30
0.0
 11
3.33247
 21
10.938
 31
0.0
  0
LINE
  8
0
 62
     0
 10
3.33247
 20
10.938
 30
0.0
 11
3.48611
 21
10.8681
 31
0.0
  0
LINE
  8
0
 62
     0
 10
3.48611
 20
10.8681
 30
0.0
 11
3.76215
 21
10.7014
 31
0.0
  0
LINE
  8
0
 62
     0
 10
3.76215
 20
10.7014
 30
0.0
 11
4.00694
 21
10.5208
 31
0.0
  0
LINE
  8
0
 62
     0
 10
4.00694
 20
10.5208
 30
0.0
 11
4.2309
 21
10.342
 31
0.0
  0
LINE
  8
0
 62
     0
 10
4.2309
 20
10.342
 30
0.0
 11
4.44444
 21
10.1806
 31
0.0
  0
LINE
  8
0
 62
     0
 10
4.44444
 20
10.1806
 30
0.0
 11
4.65972
 21
10.066
 31
0.0
  0
LINE
  8
0
 62
     0
 10
4.65972
 20
10.066
 30
0.0
 11
4.88889
 21
10.0278
 31
0.0
  0
LINE
  8
0
 62
     0
 10
4.88889
 20
10.0278
 30
0.0
 11
5.07113
 21
10.0521
 31
0.0
  0
LINE
  8
0
 62
     0
 10
5.07113
 20
10.0521
 30
0.0
 11
5.22917
 21
10.125
 31
0.0
  0
LINE
  8
0
 62
     0
 10
5.22917
 20
10.125
 30
0.0
 11
5.36279
 21
10.2344
 31
0.0
  0
LINE
  8
0
 62
     0
 10
5.36279
 20
10.2344
 30
0.0
 11
5.47222
 21
10.3681
 31
0.0
  0
LINE
  8
0
 62
     0
 10
5.47222
 20
10.3681
 30
0.0
 11
5.55729
 21
10.5209
 31
0.0
  0
LINE
  8
0
 62
     0
 10
5.55729
 20
10.5209
 30
0.0
 11
5.61806
 21
10.6875
 31
0.0
  0
LINE
  8
0
 62
     0
 10
5.61806
 20
10.6875
 30
0.0
 11
5.65446
 21
10.8594
 31
0.0
  0
LINE
  8
0
 62
     0
 10
5.65446
 20
10.8594
 30
0.0
 11
5.66667
 21
11.0278
 31
0.0
  0
LINE
  8
0
 62
     0
 10
5.66667
 20
11.0278
 30
0.0
 11
6.43056
 21
11.0278
 31
0.0
  0
LINE
  8
0
 62
     0
 10
6.43056
 20
11.0278
 30
0.0
 11
6.40104
 21
10.7483
 31
0.0
  0
LINE
  8
0
 62
     0
 10
6.40104
 20
10.7483
 30
0.0
 11
6.3125
 21
10.4653
 31
0.0
  0
LINE
  8
0
 62
     0
 10
6.3125
 20
10.4653
 30
0.0
 11
6.17182
 21
10.1927
 31
0.0
  0
LINE
  8
0
 62
     0
 10
6.17182
 20
10.1927
 30
0.0
 11
5.98611
 21
9.94444
 31
0.0
  0
LINE
  8
0
 62
     0
 10
5.98611
 20
9.94444
 30
0.0
 11
5.76036
 21
9.72911
 31
0.0
  0
LINE
  8
0
 62
     0
 10
5.76036
 20
9.72911
 30
0.0
 11
5.5
 21
9.55556
 31
0.0
  0
LINE
  8
0
 62
     0
 10
5.5
 20
9.55556
 30
0.0
 11
5.21528
 21
9.44103
 31
0.0
  0
LINE
  8
0
 62
     0
 10
5.21528
 20
9.44103
 30
0.0
 11
4.91667
 21
9.40278
 31
0.0
  0
LINE
  8
0
 62
     0
 10
4.91667
 20
9.40278
 30
0.0
 11
4.66753
 21
9.41276
 31
0.0
  0
LINE
  8
0
 62
     0
 10
4.66753
 20
9.41276
 30
0.0
 11
4.44792
 21
9.44271
 31
0.0
  0
LINE
  8
0
 62
     0
 10
4.44792
 20
9.44271
 30
0.0
 11
4.25781
 21
9.49262
 31
0.0
  0
LINE
  8
0
 62
     0
 10
4.25781
 20
9.49262
 30
0.0
 11
4.09722
 21
9.5625
 31
0.0
  0
LINE
  8
0
 62
     0
 10
4.09722
 20
9.5625
 30
0.0
 11
3.82981
 21
9.72922
 31
0.0
  0
LINE
  8
0
 62
     0
 10
3.82981
 20
9.72922
 30
0.0
 11
3.61111
 21
9.90972
 31
0.0
  0
LINE
  8
0
 62
     0
 10
3.61111
 20
9.90972
 30
0.0
 11
3.22917
 21
10.2569
 31
0.0
  0
LINE
  8
0
 62
     0
 10
3.22917
 20
10.2569
 30
0.0
 11
3.12711
 21
10.3269
 31
0.0
  0
LINE
  8
0
 62
     0
 10
3.12711
 20
10.3269
 30
0.0
 11
3.00863
 21
10.3768
 31
0.0
  0
LINE
  8
0
 62
     0
 10
3.00863
 20
10.3768
 30
0.0
 11
2.87364
 21
10.4067
 31
0.0
  0
LINE
  8
0
 62
     0
 10
2.87364
 20
10.4067
 30
0.0
 11
2.72222
 21
10.4167
 31
0.0
  0
LINE
  8
0
 62
     0
 10
2.72222
 20
10.4167
 30
0.0
 11
2.53472
 21
10.3906
 31
0.0
  0
LINE
  8
0
 62
     0
 10
2.53472
 20
10.3906
 30
0.0
 11
2.38889
 21
10.3125
 31
0.0
  0
LINE
  8
0
 62
     0
 10
2.38889
 20
10.3125
 30
0.0
 11
2.27772
 21
10.1962
 31
0.0
  0
LINE
  8
0
 62
     0
 10
2.27772
 20
10.1962
 30
0.0
 11
2.19444
 21
10.0556
 31
0.0
  0
LINE
  8
0
 62
     0
 10
2.19444
 20
10.0556
 30
0.0
 11
2.13715
 21
9.89589
 31
0.0
  0
LINE
  8
0
 62
     0
 10
2.13715
 20
9.89589
 30
0.0
 11
2.10417
 21
9.72222
 31
0.0
  0
LINE
  8
0
 62
     0
 10
2.10417
 20
9.72222
 30
0.0
 11
2.08854
 21
9.55208
 31
0.0
  0
LINE
  8
0
 62
     0
 10
2.08854
 20
9.55208
 30
0.0
 11
2.08333
 21
9.40278
 31
0.0
  0
LINE
  8
0
 62
     0
 10
2.08333
 20
9.40278
 30
0.0
 11
1.34722
 21
9.40278
 31
0.0
  0
ENDSEC
  0
EOF
