  0
SECTION
  2
HEADER
  9
$ACADVER
  1
AC1009
  9
$EXTMIN
 10
0.0
 20
0.0
 30
0.0
  9
$EXTMAX
 10
1000.0
 20
1000.0
 30
0.0
  9
$FILLMODE
 70
 0
  9
$SPLFRAME
 70
 1
  0
ENDSEC
  0
SECTION
  2
TABLES
  0
TABLE
  2
LAYER
 70
1
  0
LAYER
  2
0
 70
     0
 62
     7
  6
CONTINUOUS
  0
ENDTAB
  0
ENDSEC
  0
SECTION
  2
ENTITIES
  0
LINE
  8
0
 62
     0
 10
2.26389
 20
9.02778
 30
0.0
 11
2.26389
 21
5.84722
 31
0.0
  0
LINE
  8
0
 62
     0
 10
2.26389
 20
5.84722
 30
0.0
 11
4.94444
 21
5.84722
 31
0.0
  0
LINE
  8
0
 62
     0
 10
4.94444
 20
5.84722
 30
0.0
 11
5.31076
 21
5.87847
 31
0.0
  0
LINE
  8
0
 62
     0
 10
5.31076
 20
5.87847
 30
0.0
 11
5.65972
 21
5.97222
 31
0.0
  0
LINE
  8
0
 62
     0
 10
5.65972
 20
5.97222
 30
0.0
 11
5.97738
 21
6.11985
 31
0.0
  0
LINE
  8
0
 62
     0
 10
5.97738
 20
6.11985
 30
0.0
 11
6.25
 21
6.3125
 31
0.0
  0
LINE
  8
0
 62
     0
 10
6.25
 20
6.3125
 30
0.0
 11
6.47396
 21
6.54867
 31
0.0
  0
LINE
  8
0
 62
     0
 10
6.47396
 20
6.54867
 30
0.0
 11
6.64583
 21
6.82639
 31
0.0
  0
LINE
  8
0
 62
     0
 10
6.64583
 20
6.82639
 30
0.0
 11
6.75521
 21
7.13368
 31
0.0
  0
LINE
  8
0
 62
     0
 10
6.75521
 20
7.13368
 30
0.0
 11
6.79167
 21
7.45833
 31
0.0
  0
LINE
  8
0
 62
     0
 10
6.79167
 20
7.45833
 30
0.0
 11
6.76042
 21
7.73785
 31
0.0
  0
LINE
  8
0
 62
     0
 10
6.76042
 20
7.73785
 30
0.0
 11
6.66667
 21
8.02083
 31
0.0
  0
LINE
  8
0
 62
     0
 10
6.66667
 20
8.02083
 30
0.0
 11
6.51383
 21
8.29004
 31
0.0
  0
LINE
  8
0
 62
     0
 10
6.51383
 20
8.29004
 30
0.0
 11
6.30556
 21
8.52778
 31
0.0
  0
LINE
  8
0
 62
     0
 10
6.30556
 20
8.52778
 30
0.0
 11
6.04167
 21
8.72928
 31
0.0
  0
LINE
  8
0
 62
     0
 10
6.04167
 20
8.72928
 30
0.0
 11
5.72222
 21
8.88889
 31
0.0
  0
LINE
  8
0
 62
     0
 10
5.72222
 20
8.88889
 30
0.0
 11
5.54335
 21
8.94971
 31
0.0
  0
LINE
  8
0
 62
     0
 10
5.54335
 20
8.94971
 30
0.0
 11
5.35411
 21
8.99311
 31
0.0
  0
LINE
  8
0
 62
     0
 10
5.35411
 20
8.99311
 30
0.0
 11
5.15446
 21
9.01915
 31
0.0
  0
LINE
  8
0
 62
     0
 10
5.15446
 20
9.01915
 30
0.0
 11
4.94444
 21
9.02778
 31
0.0
  0
LINE
  8
0
 62
     0
 10
4.94444
 20
9.02778
 30
0.0
 11
2.26389
 21
9.02778
 31
0.0
  0
LINE
  8
0
 62
     0
 10
5
 20
1.11111
 30
0.0
 11
5.26247
 21
1.11876
 31
0.0
  0
LINE
  8
0
 62
     0
 10
5.26247
 20
1.11876
 30
0.0
 11
5.50825
 21
1.14155
 31
0.0
  0
LINE
  8
0
 62
     0
 10
5.50825
 20
1.14155
 30
0.0
 11
5.73731
 21
1.17952
 31
0.0
  0
LINE
  8
0
 62
     0
 10
5.73731
 20
1.17952
 30
0.0
 11
5.94965
 21
1.23269
 31
0.0
  0
LINE
  8
0
 62
     0
 10
5.94965
 20
1.23269
 30
0.0
 11
6.14529
 21
1.30105
 31
0.0
  0
LINE
  8
0
 62
     0
 10
6.14529
 20
1.30105
 30
0.0
 11
6.32422
 21
1.3846
 31
0.0
  0
LINE
  8
0
 62
     0
 10
6.32422
 20
1.3846
 30
0.0
 11
6.48643
 21
1.48335
 31
0.0
  0
LINE
  8
0
 62
     0
 10
6.48643
 20
1.48335
 30
0.0
 11
6.63194
 21
1.59722
 31
0.0
  0
LINE
  8
0
 62
     0
 10
6.63194
 20
1.59722
 30
0.0
 11
6.76047
 21
1.72418
 31
0.0
  0
LINE
  8
0
 62
     0
 10
6.76047
 20
1.72418
 30
0.0
 11
6.8719
 21
1.86197
 31
0.0
  0
LINE
  8
0
 62
     0
 10
6.8719
 20
1.86197
 30
0.0
 11
6.96619
 21
2.01064
 31
0.0
  0
LINE
  8
0
 62
     0
 10
6.96619
 20
2.01064
 30
0.0
 11
7.04335
 21
2.17014
 31
0.0
  0
LINE
  8
0
 62
     0
 10
7.04335
 20
2.17014
 30
0.0
 11
7.10335
 21
2.3405
 31
0.0
  0
LINE
  8
0
 62
     0
 10
7.10335
 20
2.3405
 30
0.0
 11
7.14621
 21
2.52169
 31
0.0
  0
LINE
  8
0
 62
     0
 10
7.14621
 20
2.52169
 30
0.0
 11
7.17193
 21
2.71376
 31
0.0
  0
LINE
  8
0
 62
     0
 10
7.17193
 20
2.71376
 30
0.0
 11
7.18056
 21
2.91667
 31
0.0
  0
LINE
  8
0
 62
     0
 10
7.18056
 20
2.91667
 30
0.0
 11
7.14231
 21
3.29172
 31
0.0
  0
LINE
  8
0
 62
     0
 10
7.14231
 20
3.29172
 30
0.0
 11
7.02778
 21
3.63889
 31
0.0
  0
LINE
  8
0
 62
     0
 10
7.02778
 20
3.63889
 30
0.0
 11
6.94314
 21
3.79992
 31
0.0
  0
LINE
  8
0
 62
     0
 10
6.94314
 20
3.79992
 30
0.0
 11
6.84201
 21
3.94965
 31
0.0
  0
LINE
  8
0
 62
     0
 10
6.84201
 20
3.94965
 30
0.0
 11
6.72439
 21
4.08811
 31
0.0
  0
LINE
  8
0
 62
     0
 10
6.72439
 20
4.08811
 30
0.0
 11
6.59028
 21
4.21528
 31
0.0
  0
LINE
  8
0
 62
     0
 10
6.59028
 20
4.21528
 30
0.0
 11
6.44049
 21
4.33035
 31
0.0
  0
LINE
  8
0
 62
     0
 10
6.44049
 20
4.33035
 30
0.0
 11
6.27599
 21
4.43229
 31
0.0
  0
LINE
  8
0
 62
     0
 10
6.27599
 20
4.43229
 30
0.0
 11
6.09674
 21
4.52126
 31
0.0
  0
LINE
  8
0
 62
     0
 10
6.09674
 20
4.52126
 30
0.0
 11
5.90278
 21
4.59722
 31
0.0
  0
LINE
  8
0
 62
     0
 10
5.90278
 20
4.59722
 30
0.0
 11
5.69531
 21
4.65804
 31
0.0
  0
LINE
  8
0
 62
     0
 10
5.69531
 20
4.65804
 30
0.0
 11
5.47569
 21
4.70144
 31
0.0
  0
LINE
  8
0
 62
     0
 10
5.47569
 20
4.70144
 30
0.0
 11
5.24392
 21
4.72749
 31
0.0
  0
LINE
  8
0
 62
     0
 10
5.24392
 20
4.72749
 30
0.0
 11
5
 21
4.73611
 31
0.0
  0
LINE
  8
0
 62
     0
 10
5
 20
4.73611
 30
0.0
 11
2.26389
 21
4.73611
 31
0.0
  0
LINE
  8
0
 62
     0
 10
2.26389
 20
4.73611
 30
0.0
 11
2.26389
 21
1.11111
 31
0.0
  0
LINE
  8
0
 62
     0
 10
2.26389
 20
1.11111
 30
0.0
 11
5
 21
1.11111
 31
0.0
  0
LINE
  8
0
 62
     0
 10
6.56944
 20
5.33333
 30
0.0
 11
6.85585
 21
5.22743
 31
0.0
  0
LINE
  8
0
 62
     0
 10
6.85585
 20
5.22743
 30
0.0
 11
7.15972
 21
5.04861
 31
0.0
  0
LINE
  8
0
 62
     0
 10
7.15972
 20
5.04861
 30
0.0
 11
7.46181
 21
4.80729
 31
0.0
  0
LINE
  8
0
 62
     0
 10
7.46181
 20
4.80729
 30
0.0
 11
7.74306
 21
4.51389
 31
0.0
  0
LINE
  8
0
 62
     0
 10
7.74306
 20
4.51389
 30
0.0
 11
7.98958
 21
4.1684
 31
0.0
  0
LINE
  8
0
 62
     0
 10
7.98958
 20
4.1684
 30
0.0
 11
8.1875
 21
3.77083
 31
0.0
  0
LINE
  8
0
 62
     0
 10
8.1875
 20
3.77083
 30
0.0
 11
8.2634
 21
3.55518
 31
0.0
  0
LINE
  8
0
 62
     0
 10
8.2634
 20
3.55518
 30
0.0
 11
8.31765
 21
3.3316
 31
0.0
  0
LINE
  8
0
 62
     0
 10
8.31765
 20
3.3316
 30
0.0
 11
8.35021
 21
3.10026
 31
0.0
  0
LINE
  8
0
 62
     0
 10
8.35021
 20
3.10026
 30
0.0
 11
8.36111
 21
2.86111
 31
0.0
  0
LINE
  8
0
 62
     0
 10
8.36111
 20
2.86111
 30
0.0
 11
8.34744
 21
2.5084
 31
0.0
  0
LINE
  8
0
 62
     0
 10
8.34744
 20
2.5084
 30
0.0
 11
8.30642
 21
2.17931
 31
0.0
  0
LINE
  8
0
 62
     0
 10
8.30642
 20
2.17931
 30
0.0
 11
8.23807
 21
1.87386
 31
0.0
  0
LINE
  8
0
 62
     0
 10
8.23807
 20
1.87386
 30
0.0
 11
8.14236
 21
1.59207
 31
0.0
  0
LINE
  8
0
 62
     0
 10
8.14236
 20
1.59207
 30
0.0
 11
8.01932
 21
1.33393
 31
0.0
  0
LINE
  8
0
 62
     0
 10
8.01932
 20
1.33393
 30
0.0
 11
7.86892
 21
1.09945
 31
0.0
  0
LINE
  8
0
 62
     0
 10
7.86892
 20
1.09945
 30
0.0
 11
7.69119
 21
0.888618
 31
0.0
  0
LINE
  8
0
 62
     0
 10
7.69119
 20
0.888618
 30
0.0
 11
7.48611
 21
0.701389
 31
0.0
  0
LINE
  8
0
 62
     0
 10
7.48611
 20
0.701389
 30
0.0
 11
7.25711
 21
0.537001
 31
0.0
  0
LINE
  8
0
 62
     0
 10
7.25711
 20
0.537001
 30
0.0
 11
7.00776
 21
0.394531
 31
0.0
  0
LINE
  8
0
 62
     0
 10
7.00776
 20
0.394531
 30
0.0
 11
6.73801
 21
0.273981
 31
0.0
  0
LINE
  8
0
 62
     0
 10
6.73801
 20
0.273981
 30
0.0
 11
6.44786
 21
0.175347
 31
0.0
  0
LINE
  8
0
 62
     0
 10
6.44786
 20
0.175347
 30
0.0
 11
6.13732
 21
0.0986328
 31
0.0
  0
LINE
  8
0
 62
     0
 10
6.13732
 20
0.0986328
 30
0.0
 11
5.80637
 21
0.0438368
 31
0.0
  0
LINE
  8
0
 62
     0
 10
5.80637
 20
0.0438368
 30
0.0
 11
5.45503
 21
0.0109592
 31
0.0
  0
LINE
  8
0
 62
     0
 10
5.45503
 20
0.0109592
 30
0.0
 11
5.08333
 21
-0
 31
0.0
  0
LINE
  8
0
 62
     0
 10
5.08333
 20
-0
 30
0.0
 11
1.08333
 21
-0
 31
0.0
  0
LINE
  8
0
 62
     0
 10
1.08333
 20
-0
 30
0.0
 11
1.08333
 21
10.1389
 31
0.0
  0
LINE
  8
0
 62
     0
 10
1.08333
 20
10.1389
 30
0.0
 11
4.93056
 21
10.1389
 31
0.0
  0
LINE
  8
0
 62
     0
 10
4.93056
 20
10.1389
 30
0.0
 11
5.23258
 21
10.1264
 31
0.0
  0
LINE
  8
0
 62
     0
 10
5.23258
 20
10.1264
 30
0.0
 11
5.52772
 21
10.0886
 31
0.0
  0
LINE
  8
0
 62
     0
 10
5.52772
 20
10.0886
 30
0.0
 11
5.81592
 21
10.0257
 31
0.0
  0
LINE
  8
0
 62
     0
 10
5.81592
 20
10.0257
 30
0.0
 11
6.09722
 21
9.9375
 31
0.0
  0
LINE
  8
0
 62
     0
 10
6.09722
 20
9.9375
 30
0.0
 11
6.36632
 21
9.82682
 31
0.0
  0
LINE
  8
0
 62
     0
 10
6.36632
 20
9.82682
 30
0.0
 11
6.61806
 21
9.69618
 31
0.0
  0
LINE
  8
0
 62
     0
 10
6.61806
 20
9.69618
 30
0.0
 11
6.85243
 21
9.54557
 31
0.0
  0
LINE
  8
0
 62
     0
 10
6.85243
 20
9.54557
 30
0.0
 11
7.06944
 21
9.375
 31
0.0
  0
LINE
  8
0
 62
     0
 10
7.06944
 20
9.375
 30
0.0
 11
7.26688
 21
9.18664
 31
0.0
  0
LINE
  8
0
 62
     0
 10
7.26688
 20
9.18664
 30
0.0
 11
7.44265
 21
8.98264
 31
0.0
  0
LINE
  8
0
 62
     0
 10
7.44265
 20
8.98264
 30
0.0
 11
7.59674
 21
8.76303
 31
0.0
  0
LINE
  8
0
 62
     0
 10
7.59674
 20
8.76303
 30
0.0
 11
7.72917
 21
8.52778
 31
0.0
  0
LINE
  8
0
 62
     0
 10
7.72917
 20
8.52778
 30
0.0
 11
7.8355
 21
8.27869
 31
0.0
  0
LINE
  8
0
 62
     0
 10
7.8355
 20
8.27869
 30
0.0
 11
7.91146
 21
8.01742
 31
0.0
  0
LINE
  8
0
 62
     0
 10
7.91146
 20
8.01742
 30
0.0
 11
7.95703
 21
7.74397
 31
0.0
  0
LINE
  8
0
 62
     0
 10
7.95703
 20
7.74397
 30
0.0
 11
7.97222
 21
7.45833
 31
0.0
  0
LINE
  8
0
 62
     0
 10
7.97222
 20
7.45833
 30
0.0
 11
7.94097
 21
7.13547
 31
0.0
  0
LINE
  8
0
 62
     0
 10
7.94097
 20
7.13547
 30
0.0
 11
7.84722
 21
6.80556
 31
0.0
  0
LINE
  8
0
 62
     0
 10
7.84722
 20
6.80556
 30
0.0
 11
7.70481
 21
6.48264
 31
0.0
  0
LINE
  8
0
 62
     0
 10
7.70481
 20
6.48264
 30
0.0
 11
7.52778
 21
6.18056
 31
0.0
  0
LINE
  8
0
 62
     0
 10
7.52778
 20
6.18056
 30
0.0
 11
7.31771
 21
5.90451
 31
0.0
  0
LINE
  8
0
 62
     0
 10
7.31771
 20
5.90451
 30
0.0
 11
7.07639
 21
5.65972
 31
0.0
  0
LINE
  8
0
 62
     0
 10
7.07639
 20
5.65972
 30
0.0
 11
6.82118
 21
5.4636
 31
0.0
  0
LINE
  8
0
 62
     0
 10
6.82118
 20
5.4636
 30
0.0
 11
6.56944
 21
5.33333
 31
0.0
  0
ENDSEC
  0
EOF
