  0
SECTION
  2
HEADER
  9
$ACADVER
  1
AC1009
  9
$EXTMIN
 10
0.0
 20
0.0
 30
0.0
  9
$EXTMAX
 10
1000.0
 20
1000.0
 30
0.0
  9
$FILLMODE
 70
 0
  9
$SPLFRAME
 70
 1
  0
ENDSEC
  0
SECTION
  2
TABLES
  0
TABLE
  2
LAYER
 70
1
  0
LAYER
  2
0
 70
     0
 62
     7
  6
CONTINUOUS
  0
ENDTAB
  0
ENDSEC
  0
SECTION
  2
ENTITIES
  0
LINE
  8
0
 62
     0
 10
0.763889
 20
-1.59722
 30
0.0
 11
0.763889
 21
-0.736111
 31
0.0
  0
LINE
  8
0
 62
     0
 10
0.763889
 20
-0.736111
 30
0.0
 11
1.06944
 21
-0.708333
 31
0.0
  0
LINE
  8
0
 62
     0
 10
1.06944
 20
-0.708333
 30
0.0
 11
1.42182
 21
-0.697917
 31
0.0
  0
LINE
  8
0
 62
     0
 10
1.42182
 20
-0.697917
 30
0.0
 11
1.72917
 21
-0.666667
 31
0.0
  0
LINE
  8
0
 62
     0
 10
1.72917
 20
-0.666667
 30
0.0
 11
1.85981
 21
-0.642361
 31
0.0
  0
LINE
  8
0
 62
     0
 10
1.85981
 20
-0.642361
 30
0.0
 11
1.96701
 21
-0.611111
 31
0.0
  0
LINE
  8
0
 62
     0
 10
1.96701
 20
-0.611111
 30
0.0
 11
2.05078
 21
-0.572917
 31
0.0
  0
LINE
  8
0
 62
     0
 10
2.05078
 20
-0.572917
 30
0.0
 11
2.11111
 21
-0.527778
 31
0.0
  0
LINE
  8
0
 62
     0
 10
2.11111
 20
-0.527778
 30
0.0
 11
2.20139
 21
-0.388889
 31
0.0
  0
LINE
  8
0
 62
     0
 10
2.20139
 20
-0.388889
 30
0.0
 11
2.25
 21
-0.222222
 31
0.0
  0
LINE
  8
0
 62
     0
 10
2.25
 20
-0.222222
 30
0.0
 11
2.2621
 21
-0.118869
 31
0.0
  0
LINE
  8
0
 62
     0
 10
2.2621
 20
-0.118869
 30
0.0
 11
2.27078
 21
0.0104167
 31
0.0
  0
LINE
  8
0
 62
     0
 10
2.27078
 20
0.0104167
 30
0.0
 11
2.27599
 21
0.165799
 31
0.0
  0
LINE
  8
0
 62
     0
 10
2.27599
 20
0.165799
 30
0.0
 11
2.27778
 21
0.347222
 31
0.0
  0
LINE
  8
0
 62
     0
 10
2.27778
 20
0.347222
 30
0.0
 11
2.27778
 21
2.90278
 31
0.0
  0
LINE
  8
0
 62
     0
 10
2.27778
 20
2.90278
 30
0.0
 11
2.30556
 21
3.1754
 31
0.0
  0
LINE
  8
0
 62
     0
 10
2.30556
 20
3.1754
 30
0.0
 11
2.38889
 21
3.40972
 31
0.0
  0
LINE
  8
0
 62
     0
 10
2.38889
 20
3.40972
 30
0.0
 11
2.51563
 21
3.61111
 31
0.0
  0
LINE
  8
0
 62
     0
 10
2.51563
 20
3.61111
 30
0.0
 11
2.67361
 21
3.78472
 31
0.0
  0
LINE
  8
0
 62
     0
 10
2.67361
 20
3.78472
 30
0.0
 11
2.85764
 21
3.93403
 31
0.0
  0
LINE
  8
0
 62
     0
 10
2.85764
 20
3.93403
 30
0.0
 11
3.0625
 21
4.0625
 31
0.0
  0
LINE
  8
0
 62
     0
 10
3.0625
 20
4.0625
 30
0.0
 11
3.47222
 21
4.27778
 31
0.0
  0
LINE
  8
0
 62
     0
 10
3.47222
 20
4.27778
 30
0.0
 11
3.0625
 21
4.48611
 31
0.0
  0
LINE
  8
0
 62
     0
 10
3.0625
 20
4.48611
 30
0.0
 11
2.85758
 21
4.60938
 31
0.0
  0
LINE
  8
0
 62
     0
 10
2.85758
 20
4.60938
 30
0.0
 11
2.67361
 21
4.75694
 31
0.0
  0
LINE
  8
0
 62
     0
 10
2.67361
 20
4.75694
 30
0.0
 11
2.51557
 21
4.93061
 31
0.0
  0
LINE
  8
0
 62
     0
 10
2.51557
 20
4.93061
 30
0.0
 11
2.38889
 21
5.13194
 31
0.0
  0
LINE
  8
0
 62
     0
 10
2.38889
 20
5.13194
 30
0.0
 11
2.30556
 21
5.36632
 31
0.0
  0
LINE
  8
0
 62
     0
 10
2.30556
 20
5.36632
 30
0.0
 11
2.27778
 21
5.63889
 31
0.0
  0
LINE
  8
0
 62
     0
 10
2.27778
 20
5.63889
 30
0.0
 11
2.27778
 21
8.19444
 31
0.0
  0
LINE
  8
0
 62
     0
 10
2.27778
 20
8.19444
 30
0.0
 11
2.27599
 21
8.37592
 31
0.0
  0
LINE
  8
0
 62
     0
 10
2.27599
 20
8.37592
 30
0.0
 11
2.27078
 21
8.53131
 31
0.0
  0
LINE
  8
0
 62
     0
 10
2.27078
 20
8.53131
 30
0.0
 11
2.2621
 21
8.66064
 31
0.0
  0
LINE
  8
0
 62
     0
 10
2.2621
 20
8.66064
 30
0.0
 11
2.25
 21
8.76389
 31
0.0
  0
LINE
  8
0
 62
     0
 10
2.25
 20
8.76389
 30
0.0
 11
2.20133
 21
8.93061
 31
0.0
  0
LINE
  8
0
 62
     0
 10
2.20133
 20
8.93061
 30
0.0
 11
2.11111
 21
9.06944
 31
0.0
  0
LINE
  8
0
 62
     0
 10
2.11111
 20
9.06944
 30
0.0
 11
2.05072
 21
9.12022
 31
0.0
  0
LINE
  8
0
 62
     0
 10
2.05072
 20
9.12022
 30
0.0
 11
1.96701
 21
9.16146
 31
0.0
  0
LINE
  8
0
 62
     0
 10
1.96701
 20
9.16146
 30
0.0
 11
1.85981
 21
9.19314
 31
0.0
  0
LINE
  8
0
 62
     0
 10
1.85981
 20
9.19314
 30
0.0
 11
1.72917
 21
9.21528
 31
0.0
  0
LINE
  8
0
 62
     0
 10
1.72917
 20
9.21528
 30
0.0
 11
1.42182
 21
9.24138
 31
0.0
  0
LINE
  8
0
 62
     0
 10
1.42182
 20
9.24138
 30
0.0
 11
1.06944
 21
9.25
 31
0.0
  0
LINE
  8
0
 62
     0
 10
1.06944
 20
9.25
 30
0.0
 11
0.763889
 21
9.27778
 31
0.0
  0
LINE
  8
0
 62
     0
 10
0.763889
 20
9.27778
 30
0.0
 11
0.763889
 21
10.1389
 31
0.0
  0
LINE
  8
0
 62
     0
 10
0.763889
 20
10.1389
 30
0.0
 11
1.26389
 21
10.1389
 31
0.0
  0
LINE
  8
0
 62
     0
 10
1.26389
 20
10.1389
 30
0.0
 11
1.76563
 21
10.1181
 31
0.0
  0
LINE
  8
0
 62
     0
 10
1.76563
 20
10.1181
 30
0.0
 11
2.21528
 21
10.0556
 31
0.0
  0
LINE
  8
0
 62
     0
 10
2.21528
 20
10.0556
 30
0.0
 11
2.41531
 21
10.0043
 31
0.0
  0
LINE
  8
0
 62
     0
 10
2.41531
 20
10.0043
 30
0.0
 11
2.59201
 21
9.93403
 31
0.0
  0
LINE
  8
0
 62
     0
 10
2.59201
 20
9.93403
 30
0.0
 11
2.74522
 21
9.84461
 31
0.0
  0
LINE
  8
0
 62
     0
 10
2.74522
 20
9.84461
 30
0.0
 11
2.875
 21
9.73611
 31
0.0
  0
LINE
  8
0
 62
     0
 10
2.875
 20
9.73611
 30
0.0
 11
3.06597
 21
9.49479
 31
0.0
  0
LINE
  8
0
 62
     0
 10
3.06597
 20
9.49479
 30
0.0
 11
3.19444
 21
9.21528
 31
0.0
  0
LINE
  8
0
 62
     0
 10
3.19444
 20
9.21528
 30
0.0
 11
3.23697
 21
9.05083
 31
0.0
  0
LINE
  8
0
 62
     0
 10
3.23697
 20
9.05083
 30
0.0
 11
3.26736
 21
8.85596
 31
0.0
  0
LINE
  8
0
 62
     0
 10
3.26736
 20
8.85596
 30
0.0
 11
3.28558
 21
8.63069
 31
0.0
  0
LINE
  8
0
 62
     0
 10
3.28558
 20
8.63069
 30
0.0
 11
3.29167
 21
8.375
 31
0.0
  0
LINE
  8
0
 62
     0
 10
3.29167
 20
8.375
 30
0.0
 11
3.29167
 21
5.77778
 31
0.0
  0
LINE
  8
0
 62
     0
 10
3.29167
 20
5.77778
 30
0.0
 11
3.30251
 21
5.63764
 31
0.0
  0
LINE
  8
0
 62
     0
 10
3.30251
 20
5.63764
 30
0.0
 11
3.33507
 21
5.50874
 31
0.0
  0
LINE
  8
0
 62
     0
 10
3.33507
 20
5.50874
 30
0.0
 11
3.38932
 21
5.39111
 31
0.0
  0
LINE
  8
0
 62
     0
 10
3.38932
 20
5.39111
 30
0.0
 11
3.46528
 21
5.28472
 31
0.0
  0
LINE
  8
0
 62
     0
 10
3.46528
 20
5.28472
 30
0.0
 11
3.62668
 21
5.09896
 31
0.0
  0
LINE
  8
0
 62
     0
 10
3.62668
 20
5.09896
 30
0.0
 11
3.76389
 21
4.94444
 31
0.0
  0
LINE
  8
0
 62
     0
 10
3.76389
 20
4.94444
 30
0.0
 11
3.87674
 21
4.8559
 31
0.0
  0
LINE
  8
0
 62
     0
 10
3.87674
 20
4.8559
 30
0.0
 11
4.02083
 21
4.78472
 31
0.0
  0
LINE
  8
0
 62
     0
 10
4.02083
 20
4.78472
 30
0.0
 11
4.19271
 21
4.73785
 31
0.0
  0
LINE
  8
0
 62
     0
 10
4.19271
 20
4.73785
 30
0.0
 11
4.38889
 21
4.72222
 31
0.0
  0
LINE
  8
0
 62
     0
 10
4.38889
 20
4.72222
 30
0.0
 11
4.73611
 21
4.72222
 31
0.0
  0
LINE
  8
0
 62
     0
 10
4.73611
 20
4.72222
 30
0.0
 11
4.73611
 21
3.83333
 31
0.0
  0
LINE
  8
0
 62
     0
 10
4.73611
 20
3.83333
 30
0.0
 11
4.38889
 21
3.83333
 31
0.0
  0
LINE
  8
0
 62
     0
 10
4.38889
 20
3.83333
 30
0.0
 11
4.19358
 21
3.81858
 31
0.0
  0
LINE
  8
0
 62
     0
 10
4.19358
 20
3.81858
 30
0.0
 11
4.02431
 21
3.77431
 31
0.0
  0
LINE
  8
0
 62
     0
 10
4.02431
 20
3.77431
 30
0.0
 11
3.88108
 21
3.70053
 31
0.0
  0
LINE
  8
0
 62
     0
 10
3.88108
 20
3.70053
 30
0.0
 11
3.76389
 21
3.59722
 31
0.0
  0
LINE
  8
0
 62
     0
 10
3.76389
 20
3.59722
 30
0.0
 11
3.62668
 21
3.44271
 31
0.0
  0
LINE
  8
0
 62
     0
 10
3.62668
 20
3.44271
 30
0.0
 11
3.46528
 21
3.25694
 31
0.0
  0
LINE
  8
0
 62
     0
 10
3.46528
 20
3.25694
 30
0.0
 11
3.38932
 21
3.15147
 31
0.0
  0
LINE
  8
0
 62
     0
 10
3.38932
 20
3.15147
 30
0.0
 11
3.33507
 21
3.03646
 31
0.0
  0
LINE
  8
0
 62
     0
 10
3.33507
 20
3.03646
 30
0.0
 11
3.30251
 21
2.91189
 31
0.0
  0
LINE
  8
0
 62
     0
 10
3.30251
 20
2.91189
 30
0.0
 11
3.29167
 21
2.77778
 31
0.0
  0
LINE
  8
0
 62
     0
 10
3.29167
 20
2.77778
 30
0.0
 11
3.29167
 21
0.166667
 31
0.0
  0
LINE
  8
0
 62
     0
 10
3.29167
 20
0.166667
 30
0.0
 11
3.28558
 21
-0.0885417
 31
0.0
  0
LINE
  8
0
 62
     0
 10
3.28558
 20
-0.0885417
 30
0.0
 11
3.26736
 21
-0.3125
 31
0.0
  0
LINE
  8
0
 62
     0
 10
3.26736
 20
-0.3125
 30
0.0
 11
3.23697
 21
-0.505208
 31
0.0
  0
LINE
  8
0
 62
     0
 10
3.23697
 20
-0.505208
 30
0.0
 11
3.19444
 21
-0.666667
 31
0.0
  0
LINE
  8
0
 62
     0
 10
3.19444
 20
-0.666667
 30
0.0
 11
3.06597
 21
-0.940918
 31
0.0
  0
LINE
  8
0
 62
     0
 10
3.06597
 20
-0.940918
 30
0.0
 11
2.875
 21
-1.18056
 31
0.0
  0
LINE
  8
0
 62
     0
 10
2.875
 20
-1.18056
 30
0.0
 11
2.75217
 21
-1.28944
 31
0.0
  0
LINE
  8
0
 62
     0
 10
2.75217
 20
-1.28944
 30
0.0
 11
2.61979
 21
-1.38021
 31
0.0
  0
LINE
  8
0
 62
     0
 10
2.61979
 20
-1.38021
 30
0.0
 11
2.47786
 21
-1.45269
 31
0.0
  0
LINE
  8
0
 62
     0
 10
2.47786
 20
-1.45269
 30
0.0
 11
2.32639
 21
-1.50694
 31
0.0
  0
LINE
  8
0
 62
     0
 10
2.32639
 20
-1.50694
 30
0.0
 11
2.15662
 21
-1.54639
 31
0.0
  0
LINE
  8
0
 62
     0
 10
2.15662
 20
-1.54639
 30
0.0
 11
1.96001
 21
-1.5746
 31
0.0
  0
LINE
  8
0
 62
     0
 10
1.96001
 20
-1.5746
 30
0.0
 11
1.73649
 21
-1.59153
 31
0.0
  0
LINE
  8
0
 62
     0
 10
1.73649
 20
-1.59153
 30
0.0
 11
1.48611
 21
-1.59722
 31
0.0
  0
LINE
  8
0
 62
     0
 10
1.48611
 20
-1.59722
 30
0.0
 11
0.763889
 21
-1.59722
 31
0.0
  0
ENDSEC
  0
EOF
