  0
SECTION
  2
HEADER
  9
$ACADVER
  1
AC1009
  9
$EXTMIN
 10
0.0
 20
0.0
 30
0.0
  9
$EXTMAX
 10
1000.0
 20
1000.0
 30
0.0
  9
$FILLMODE
 70
 0
  9
$SPLFRAME
 70
 1
  0
ENDSEC
  0
SECTION
  2
TABLES
  0
TABLE
  2
LAYER
 70
1
  0
LAYER
  2
0
 70
     0
 62
     7
  6
CONTINUOUS
  0
ENDTAB
  0
ENDSEC
  0
SECTION
  2
ENTITIES
  0
LINE
  8
0
 62
     0
 10
8.38889
 20
1.51389
 30
0.0
 11
8.23697
 21
1.3004
 31
0.0
  0
LINE
  8
0
 62
     0
 10
8.23697
 20
1.3004
 30
0.0
 11
8.07292
 21
1.10422
 31
0.0
  0
LINE
  8
0
 62
     0
 10
8.07292
 20
1.10422
 30
0.0
 11
7.89669
 21
0.925401
 31
0.0
  0
LINE
  8
0
 62
     0
 10
7.89669
 20
0.925401
 30
0.0
 11
7.70833
 21
0.763889
 31
0.0
  0
LINE
  8
0
 62
     0
 10
7.70833
 20
0.763889
 30
0.0
 11
7.3055
 21
0.486111
 31
0.0
  0
LINE
  8
0
 62
     0
 10
7.3055
 20
0.486111
 30
0.0
 11
6.875
 21
0.263889
 31
0.0
  0
LINE
  8
0
 62
     0
 10
6.875
 20
0.263889
 30
0.0
 11
6.42014
 21
0.0972765
 31
0.0
  0
LINE
  8
0
 62
     0
 10
6.42014
 20
0.0972765
 30
0.0
 11
5.94444
 21
-0.0138889
 31
0.0
  0
LINE
  8
0
 62
     0
 10
5.94444
 20
-0.0138889
 30
0.0
 11
5.46181
 21
-0.0763889
 31
0.0
  0
LINE
  8
0
 62
     0
 10
5.46181
 20
-0.0763889
 30
0.0
 11
4.98611
 21
-0.0972222
 31
0.0
  0
LINE
  8
0
 62
     0
 10
4.98611
 20
-0.0972222
 30
0.0
 11
4.57986
 21
-0.0807292
 31
0.0
  0
LINE
  8
0
 62
     0
 10
4.57986
 20
-0.0807292
 30
0.0
 11
4.18056
 21
-0.03125
 31
0.0
  0
LINE
  8
0
 62
     0
 10
4.18056
 20
-0.03125
 30
0.0
 11
3.78819
 21
0.0512153
 31
0.0
  0
LINE
  8
0
 62
     0
 10
3.78819
 20
0.0512153
 30
0.0
 11
3.40278
 21
0.166667
 31
0.0
  0
LINE
  8
0
 62
     0
 10
3.40278
 20
0.166667
 30
0.0
 11
3.03119
 21
0.319933
 31
0.0
  0
LINE
  8
0
 62
     0
 10
3.03119
 20
0.319933
 30
0.0
 11
2.68056
 21
0.515679
 31
0.0
  0
LINE
  8
0
 62
     0
 10
2.68056
 20
0.515679
 30
0.0
 11
2.35069
 21
0.753961
 31
0.0
  0
LINE
  8
0
 62
     0
 10
2.35069
 20
0.753961
 30
0.0
 11
2.04167
 21
1.03472
 31
0.0
  0
LINE
  8
0
 62
     0
 10
2.04167
 20
1.03472
 30
0.0
 11
1.75776
 21
1.36073
 31
0.0
  0
LINE
  8
0
 62
     0
 10
1.75776
 20
1.36073
 30
0.0
 11
1.50342
 21
1.73443
 31
0.0
  0
LINE
  8
0
 62
     0
 10
1.50342
 20
1.73443
 30
0.0
 11
1.27859
 21
2.15588
 31
0.0
  0
LINE
  8
0
 62
     0
 10
1.27859
 20
2.15588
 30
0.0
 11
1.08333
 21
2.625
 31
0.0
  0
LINE
  8
0
 62
     0
 10
1.08333
 20
2.625
 30
0.0
 11
0.925347
 21
3.14757
 31
0.0
  0
LINE
  8
0
 62
     0
 10
0.925347
 20
3.14757
 30
0.0
 11
0.8125
 21
3.72917
 31
0.0
  0
LINE
  8
0
 62
     0
 10
0.8125
 20
3.72917
 30
0.0
 11
0.744792
 21
4.36979
 31
0.0
  0
LINE
  8
0
 62
     0
 10
0.744792
 20
4.36979
 30
0.0
 11
0.722222
 21
5.06944
 31
0.0
  0
LINE
  8
0
 62
     0
 10
0.722222
 20
5.06944
 30
0.0
 11
0.744792
 21
5.70188
 31
0.0
  0
LINE
  8
0
 62
     0
 10
0.744792
 20
5.70188
 30
0.0
 11
0.8125
 21
6.29346
 31
0.0
  0
LINE
  8
0
 62
     0
 10
0.8125
 20
6.29346
 30
0.0
 11
0.925347
 21
6.84424
 31
0.0
  0
LINE
  8
0
 62
     0
 10
0.925347
 20
6.84424
 30
0.0
 11
1.08333
 21
7.35417
 31
0.0
  0
LINE
  8
0
 62
     0
 10
1.08333
 20
7.35417
 30
0.0
 11
1.27859
 21
7.82292
 31
0.0
  0
LINE
  8
0
 62
     0
 10
1.27859
 20
7.82292
 30
0.0
 11
1.50342
 21
8.25
 31
0.0
  0
LINE
  8
0
 62
     0
 10
1.50342
 20
8.25
 30
0.0
 11
1.75776
 21
8.63542
 31
0.0
  0
LINE
  8
0
 62
     0
 10
1.75776
 20
8.63542
 30
0.0
 11
2.04167
 21
8.97917
 31
0.0
  0
LINE
  8
0
 62
     0
 10
2.04167
 20
8.97917
 30
0.0
 11
2.35069
 21
9.28174
 31
0.0
  0
LINE
  8
0
 62
     0
 10
2.35069
 20
9.28174
 30
0.0
 11
2.68056
 21
9.54346
 31
0.0
  0
LINE
  8
0
 62
     0
 10
2.68056
 20
9.54346
 30
0.0
 11
3.03119
 21
9.76437
 31
0.0
  0
LINE
  8
0
 62
     0
 10
3.03119
 20
9.76437
 30
0.0
 11
3.40278
 21
9.94444
 31
0.0
  0
LINE
  8
0
 62
     0
 10
3.40278
 20
9.94444
 30
0.0
 11
3.78819
 21
10.0842
 31
0.0
  0
LINE
  8
0
 62
     0
 10
3.78819
 20
10.0842
 30
0.0
 11
4.18056
 21
10.184
 31
0.0
  0
LINE
  8
0
 62
     0
 10
4.18056
 20
10.184
 30
0.0
 11
4.57986
 21
10.2439
 31
0.0
  0
LINE
  8
0
 62
     0
 10
4.57986
 20
10.2439
 30
0.0
 11
4.98611
 21
10.2639
 31
0.0
  0
LINE
  8
0
 62
     0
 10
4.98611
 20
10.2639
 30
0.0
 11
5.29731
 21
10.2569
 31
0.0
  0
LINE
  8
0
 62
     0
 10
5.29731
 20
10.2569
 30
0.0
 11
5.59201
 21
10.2361
 31
0.0
  0
LINE
  8
0
 62
     0
 10
5.59201
 20
10.2361
 30
0.0
 11
5.87022
 21
10.2014
 31
0.0
  0
LINE
  8
0
 62
     0
 10
5.87022
 20
10.2014
 30
0.0
 11
6.13194
 21
10.1528
 31
0.0
  0
LINE
  8
0
 62
     0
 10
6.13194
 20
10.1528
 30
0.0
 11
6.61285
 21
10.0139
 31
0.0
  0
LINE
  8
0
 62
     0
 10
6.61285
 20
10.0139
 30
0.0
 11
7.04167
 21
9.81944
 31
0.0
  0
LINE
  8
0
 62
     0
 10
7.04167
 20
9.81944
 30
0.0
 11
7.42529
 21
9.56944
 31
0.0
  0
LINE
  8
0
 62
     0
 10
7.42529
 20
9.56944
 30
0.0
 11
7.77083
 21
9.26389
 31
0.0
  0
LINE
  8
0
 62
     0
 10
7.77083
 20
9.26389
 30
0.0
 11
8.08507
 21
8.90278
 31
0.0
  0
LINE
  8
0
 62
     0
 10
8.08507
 20
8.90278
 30
0.0
 11
8.375
 21
8.48611
 31
0.0
  0
LINE
  8
0
 62
     0
 10
8.375
 20
8.48611
 30
0.0
 11
7.48611
 21
7.70833
 31
0.0
  0
LINE
  8
0
 62
     0
 10
7.48611
 20
7.70833
 30
0.0
 11
7.2895
 21
8.01307
 31
0.0
  0
LINE
  8
0
 62
     0
 10
7.2895
 20
8.01307
 30
0.0
 11
7.06071
 21
8.28825
 31
0.0
  0
LINE
  8
0
 62
     0
 10
7.06071
 20
8.28825
 30
0.0
 11
6.79986
 21
8.5339
 31
0.0
  0
LINE
  8
0
 62
     0
 10
6.79986
 20
8.5339
 30
0.0
 11
6.50694
 21
8.75
 31
0.0
  0
LINE
  8
0
 62
     0
 10
6.50694
 20
8.75
 30
0.0
 11
6.18181
 21
8.92622
 31
0.0
  0
LINE
  8
0
 62
     0
 10
6.18181
 20
8.92622
 30
0.0
 11
5.8246
 21
9.05208
 31
0.0
  0
LINE
  8
0
 62
     0
 10
5.8246
 20
9.05208
 30
0.0
 11
5.43528
 21
9.12761
 31
0.0
  0
LINE
  8
0
 62
     0
 10
5.43528
 20
9.12761
 30
0.0
 11
5.01389
 21
9.15278
 31
0.0
  0
LINE
  8
0
 62
     0
 10
5.01389
 20
9.15278
 30
0.0
 11
4.61849
 21
9.13151
 31
0.0
  0
LINE
  8
0
 62
     0
 10
4.61849
 20
9.13151
 30
0.0
 11
4.25174
 21
9.06771
 31
0.0
  0
LINE
  8
0
 62
     0
 10
4.25174
 20
9.06771
 30
0.0
 11
3.91357
 21
8.96137
 31
0.0
  0
LINE
  8
0
 62
     0
 10
3.91357
 20
8.96137
 30
0.0
 11
3.60417
 21
8.8125
 31
0.0
  0
LINE
  8
0
 62
     0
 10
3.60417
 20
8.8125
 30
0.0
 11
3.32249
 21
8.62804
 31
0.0
  0
LINE
  8
0
 62
     0
 10
3.32249
 20
8.62804
 30
0.0
 11
3.06771
 21
8.41493
 31
0.0
  0
LINE
  8
0
 62
     0
 10
3.06771
 20
8.41493
 30
0.0
 11
2.83985
 21
8.17318
 31
0.0
  0
LINE
  8
0
 62
     0
 10
2.83985
 20
8.17318
 30
0.0
 11
2.63889
 21
7.90278
 31
0.0
  0
LINE
  8
0
 62
     0
 10
2.63889
 20
7.90278
 30
0.0
 11
2.46354
 21
7.60769
 31
0.0
  0
LINE
  8
0
 62
     0
 10
2.46354
 20
7.60769
 30
0.0
 11
2.3125
 21
7.29167
 31
0.0
  0
LINE
  8
0
 62
     0
 10
2.3125
 20
7.29167
 30
0.0
 11
2.18576
 21
6.95486
 31
0.0
  0
LINE
  8
0
 62
     0
 10
2.18576
 20
6.95486
 30
0.0
 11
2.08333
 21
6.59722
 31
0.0
  0
LINE
  8
0
 62
     0
 10
2.08333
 20
6.59722
 30
0.0
 11
2.00429
 21
6.22575
 31
0.0
  0
LINE
  8
0
 62
     0
 10
2.00429
 20
6.22575
 30
0.0
 11
1.94786
 21
5.84728
 31
0.0
  0
LINE
  8
0
 62
     0
 10
1.94786
 20
5.84728
 30
0.0
 11
1.91401
 21
5.46186
 31
0.0
  0
LINE
  8
0
 62
     0
 10
1.91401
 20
5.46186
 30
0.0
 11
1.90278
 21
5.06944
 31
0.0
  0
LINE
  8
0
 62
     0
 10
1.90278
 20
5.06944
 30
0.0
 11
1.91363
 21
4.66542
 31
0.0
  0
LINE
  8
0
 62
     0
 10
1.91363
 20
4.66542
 30
0.0
 11
1.94618
 21
4.27263
 31
0.0
  0
LINE
  8
0
 62
     0
 10
1.94618
 20
4.27263
 30
0.0
 11
2.00043
 21
3.89111
 31
0.0
  0
LINE
  8
0
 62
     0
 10
2.00043
 20
3.89111
 30
0.0
 11
2.07639
 21
3.52083
 31
0.0
  0
LINE
  8
0
 62
     0
 10
2.07639
 20
3.52083
 30
0.0
 11
2.17572
 21
3.16667
 31
0.0
  0
LINE
  8
0
 62
     0
 10
2.17572
 20
3.16667
 30
0.0
 11
2.30029
 21
2.83333
 31
0.0
  0
LINE
  8
0
 62
     0
 10
2.30029
 20
2.83333
 30
0.0
 11
2.45003
 21
2.52083
 31
0.0
  0
LINE
  8
0
 62
     0
 10
2.45003
 20
2.52083
 30
0.0
 11
2.625
 21
2.22917
 31
0.0
  0
LINE
  8
0
 62
     0
 10
2.625
 20
2.22917
 30
0.0
 11
2.82553
 21
1.96272
 31
0.0
  0
LINE
  8
0
 62
     0
 10
2.82553
 20
1.96272
 30
0.0
 11
3.05208
 21
1.72575
 31
0.0
  0
LINE
  8
0
 62
     0
 10
3.05208
 20
1.72575
 30
0.0
 11
3.30469
 21
1.51828
 31
0.0
  0
LINE
  8
0
 62
     0
 10
3.30469
 20
1.51828
 30
0.0
 11
3.58333
 21
1.34028
 31
0.0
  0
LINE
  8
0
 62
     0
 10
3.58333
 20
1.34028
 30
0.0
 11
3.88975
 21
1.19748
 31
0.0
  0
LINE
  8
0
 62
     0
 10
3.88975
 20
1.19748
 30
0.0
 11
4.22569
 21
1.09549
 31
0.0
  0
LINE
  8
0
 62
     0
 10
4.22569
 20
1.09549
 30
0.0
 11
4.59114
 21
1.03429
 31
0.0
  0
LINE
  8
0
 62
     0
 10
4.59114
 20
1.03429
 30
0.0
 11
4.98611
 21
1.01389
 31
0.0
  0
LINE
  8
0
 62
     0
 10
4.98611
 20
1.01389
 30
0.0
 11
5.40881
 21
1.03733
 31
0.0
  0
LINE
  8
0
 62
     0
 10
5.40881
 20
1.03733
 30
0.0
 11
5.80203
 21
1.10764
 31
0.0
  0
LINE
  8
0
 62
     0
 10
5.80203
 20
1.10764
 30
0.0
 11
6.16575
 21
1.22483
 31
0.0
  0
LINE
  8
0
 62
     0
 10
6.16575
 20
1.22483
 30
0.0
 11
6.5
 21
1.38889
 31
0.0
  0
LINE
  8
0
 62
     0
 10
6.5
 20
1.38889
 30
0.0
 11
6.80208
 21
1.59201
 31
0.0
  0
LINE
  8
0
 62
     0
 10
6.80208
 20
1.59201
 30
0.0
 11
7.06944
 21
1.82639
 31
0.0
  0
LINE
  8
0
 62
     0
 10
7.06944
 20
1.82639
 30
0.0
 11
7.30208
 21
2.09201
 31
0.0
  0
LINE
  8
0
 62
     0
 10
7.30208
 20
2.09201
 30
0.0
 11
7.5
 21
2.38889
 31
0.0
  0
LINE
  8
0
 62
     0
 10
7.5
 20
2.38889
 30
0.0
 11
8.38889
 21
1.51389
 31
0.0
  0
ENDSEC
  0
EOF
