  0
SECTION
  2
HEADER
  9
$ACADVER
  1
AC1009
  9
$EXTMIN
 10
0.0
 20
0.0
 30
0.0
  9
$EXTMAX
 10
1000.0
 20
1000.0
 30
0.0
  9
$FILLMODE
 70
 0
  9
$SPLFRAME
 70
 1
  0
ENDSEC
  0
SECTION
  2
TABLES
  0
TABLE
  2
LAYER
 70
1
  0
LAYER
  2
0
 70
     0
 62
     7
  6
CONTINUOUS
  0
ENDTAB
  0
ENDSEC
  0
SECTION
  2
ENTITIES
  0
LINE
  8
0
 62
     0
 10
3.61111
 20
0.263889
 30
0.0
 11
3.73611
 21
-0.236111
 31
0.0
  0
LINE
  8
0
 62
     0
 10
3.73611
 20
-0.236111
 30
0.0
 11
3.79335
 21
-0.486057
 31
0.0
  0
LINE
  8
0
 62
     0
 10
3.79335
 20
-0.486057
 30
0.0
 11
3.82639
 21
-0.763889
 31
0.0
  0
LINE
  8
0
 62
     0
 10
3.82639
 20
-0.763889
 30
0.0
 11
3.83333
 21
-1.36111
 31
0.0
  0
LINE
  8
0
 62
     0
 10
3.83333
 20
-1.36111
 30
0.0
 11
3.79508
 21
-1.65972
 31
0.0
  0
LINE
  8
0
 62
     0
 10
3.79508
 20
-1.65972
 30
0.0
 11
3.70833
 21
-1.91667
 31
0.0
  0
LINE
  8
0
 62
     0
 10
3.70833
 20
-1.91667
 30
0.0
 11
3.58507
 21
-2.13883
 31
0.0
  0
LINE
  8
0
 62
     0
 10
3.58507
 20
-2.13883
 30
0.0
 11
3.4375
 21
-2.33333
 31
0.0
  0
LINE
  8
0
 62
     0
 10
3.4375
 20
-2.33333
 30
0.0
 11
3.27078
 21
-2.5
 31
0.0
  0
LINE
  8
0
 62
     0
 10
3.27078
 20
-2.5
 30
0.0
 11
3.09028
 21
-2.63889
 31
0.0
  0
LINE
  8
0
 62
     0
 10
3.09028
 20
-2.63889
 30
0.0
 11
2.72222
 21
-2.84722
 31
0.0
  0
LINE
  8
0
 62
     0
 10
2.72222
 20
-2.84722
 30
0.0
 11
2.51731
 21
-2.92356
 31
0.0
  0
LINE
  8
0
 62
     0
 10
2.51731
 20
-2.92356
 30
0.0
 11
2.26389
 21
-2.98611
 31
0.0
  0
LINE
  8
0
 62
     0
 10
2.26389
 20
-2.98611
 30
0.0
 11
1.70833
 21
-3.06944
 31
0.0
  0
LINE
  8
0
 62
     0
 10
1.70833
 20
-3.06944
 30
0.0
 11
1.38889
 21
-3.10417
 31
0.0
  0
LINE
  8
0
 62
     0
 10
1.38889
 20
-3.10417
 30
0.0
 11
1.04167
 21
-3.125
 31
0.0
  0
LINE
  8
0
 62
     0
 10
1.04167
 20
-3.125
 30
0.0
 11
1.04167
 21
-2.22222
 31
0.0
  0
LINE
  8
0
 62
     0
 10
1.04167
 20
-2.22222
 30
0.0
 11
1.22917
 21
-2.22222
 31
0.0
  0
LINE
  8
0
 62
     0
 10
1.22917
 20
-2.22222
 30
0.0
 11
1.41667
 21
-2.20833
 31
0.0
  0
LINE
  8
0
 62
     0
 10
1.41667
 20
-2.20833
 30
0.0
 11
1.74306
 21
-2.17361
 31
0.0
  0
LINE
  8
0
 62
     0
 10
1.74306
 20
-2.17361
 30
0.0
 11
1.90446
 21
-2.14757
 31
0.0
  0
LINE
  8
0
 62
     0
 10
1.90446
 20
-2.14757
 30
0.0
 11
2.04167
 21
-2.11111
 31
0.0
  0
LINE
  8
0
 62
     0
 10
2.04167
 20
-2.11111
 30
0.0
 11
2.27078
 21
-1.99474
 31
0.0
  0
LINE
  8
0
 62
     0
 10
2.27078
 20
-1.99474
 30
0.0
 11
2.48611
 21
-1.8125
 31
0.0
  0
LINE
  8
0
 62
     0
 10
2.48611
 20
-1.8125
 30
0.0
 11
2.57725
 21
-1.69487
 31
0.0
  0
LINE
  8
0
 62
     0
 10
2.57725
 20
-1.69487
 30
0.0
 11
2.64236
 21
-1.55729
 31
0.0
  0
LINE
  8
0
 62
     0
 10
2.64236
 20
-1.55729
 30
0.0
 11
2.68142
 21
-1.39974
 31
0.0
  0
LINE
  8
0
 62
     0
 10
2.68142
 20
-1.39974
 30
0.0
 11
2.69444
 21
-1.22222
 31
0.0
  0
LINE
  8
0
 62
     0
 10
2.69444
 20
-1.22222
 30
0.0
 11
2.68744
 21
-1.03293
 31
0.0
  0
LINE
  8
0
 62
     0
 10
2.68744
 20
-1.03293
 30
0.0
 11
2.66667
 21
-0.826389
 31
0.0
  0
LINE
  8
0
 62
     0
 10
2.66667
 20
-0.826389
 30
0.0
 11
2.61111
 21
-0.430556
 31
0.0
  0
LINE
  8
0
 62
     0
 10
2.61111
 20
-0.430556
 30
0.0
 11
2.52778
 21
-0.0138889
 31
0.0
  0
LINE
  8
0
 62
     0
 10
2.52778
 20
-0.0138889
 30
0.0
 11
3.61111
 21
0.263889
 31
0.0
  0
ENDSEC
  0
EOF
