  0
SECTION
  2
HEADER
  9
$ACADVER
  1
AC1009
  9
$EXTMIN
 10
0.0
 20
0.0
 30
0.0
  9
$EXTMAX
 10
1000.0
 20
1000.0
 30
0.0
  9
$FILLMODE
 70
 0
  9
$SPLFRAME
 70
 1
  0
ENDSEC
  0
SECTION
  2
TABLES
  0
TABLE
  2
LAYER
 70
1
  0
LAYER
  2
0
 70
     0
 62
     7
  6
CONTINUOUS
  0
ENDTAB
  0
ENDSEC
  0
SECTION
  2
ENTITIES
  0
LINE
  8
0
 62
     0
 10
5.02778
 20
11.3333
 30
0.0
 11
3.68056
 21
9.44444
 31
0.0
  0
LINE
  8
0
 62
     0
 10
3.68056
 20
9.44444
 30
0.0
 11
2.70833
 21
9.44444
 31
0.0
  0
LINE
  8
0
 62
     0
 10
2.70833
 20
9.44444
 30
0.0
 11
3.79167
 21
11.3333
 31
0.0
  0
LINE
  8
0
 62
     0
 10
3.79167
 20
11.3333
 30
0.0
 11
5.02778
 21
11.3333
 31
0.0
  0
LINE
  8
0
 62
     0
 10
3.91667
 20
6.84722
 30
0.0
 11
3.70053
 21
6.83637
 31
0.0
  0
LINE
  8
0
 62
     0
 10
3.70053
 20
6.83637
 30
0.0
 11
3.49653
 21
6.80382
 31
0.0
  0
LINE
  8
0
 62
     0
 10
3.49653
 20
6.80382
 30
0.0
 11
3.30469
 21
6.74957
 31
0.0
  0
LINE
  8
0
 62
     0
 10
3.30469
 20
6.74957
 30
0.0
 11
3.125
 21
6.67361
 31
0.0
  0
LINE
  8
0
 62
     0
 10
3.125
 20
6.67361
 30
0.0
 11
2.79861
 21
6.46875
 31
0.0
  0
LINE
  8
0
 62
     0
 10
2.79861
 20
6.46875
 30
0.0
 11
2.51389
 21
6.20139
 31
0.0
  0
LINE
  8
0
 62
     0
 10
2.51389
 20
6.20139
 30
0.0
 11
2.27425
 21
5.87853
 31
0.0
  0
LINE
  8
0
 62
     0
 10
2.27425
 20
5.87853
 30
0.0
 11
2.08333
 21
5.50694
 31
0.0
  0
LINE
  8
0
 62
     0
 10
2.08333
 20
5.50694
 30
0.0
 11
1.9375
 21
5.09549
 31
0.0
  0
LINE
  8
0
 62
     0
 10
1.9375
 20
5.09549
 30
0.0
 11
1.83333
 21
4.65278
 31
0.0
  0
LINE
  8
0
 62
     0
 10
1.83333
 20
4.65278
 30
0.0
 11
6.05556
 21
4.65278
 31
0.0
  0
LINE
  8
0
 62
     0
 10
6.05556
 20
4.65278
 30
0.0
 11
5.99132
 21
5.04346
 31
0.0
  0
LINE
  8
0
 62
     0
 10
5.99132
 20
5.04346
 30
0.0
 11
5.85417
 21
5.4375
 31
0.0
  0
LINE
  8
0
 62
     0
 10
5.85417
 20
5.4375
 30
0.0
 11
5.65104
 21
5.8125
 31
0.0
  0
LINE
  8
0
 62
     0
 10
5.65104
 20
5.8125
 30
0.0
 11
5.38889
 21
6.14583
 31
0.0
  0
LINE
  8
0
 62
     0
 10
5.38889
 20
6.14583
 30
0.0
 11
5.07639
 21
6.42888
 31
0.0
  0
LINE
  8
0
 62
     0
 10
5.07639
 20
6.42888
 30
0.0
 11
4.72222
 21
6.65278
 31
0.0
  0
LINE
  8
0
 62
     0
 10
4.72222
 20
6.65278
 30
0.0
 11
4.53125
 21
6.73785
 31
0.0
  0
LINE
  8
0
 62
     0
 10
4.53125
 20
6.73785
 30
0.0
 11
4.33333
 21
6.79861
 31
0.0
  0
LINE
  8
0
 62
     0
 10
4.33333
 20
6.79861
 30
0.0
 11
4.12847
 21
6.83507
 31
0.0
  0
LINE
  8
0
 62
     0
 10
4.12847
 20
6.83507
 30
0.0
 11
3.91667
 21
6.84722
 31
0.0
  0
LINE
  8
0
 62
     0
 10
1.76389
 20
3.77778
 30
0.0
 11
1.78039
 21
3.39757
 31
0.0
  0
LINE
  8
0
 62
     0
 10
1.78039
 20
3.39757
 30
0.0
 11
1.81597
 21
3.04861
 31
0.0
  0
LINE
  8
0
 62
     0
 10
1.81597
 20
3.04861
 30
0.0
 11
1.87067
 21
2.7309
 31
0.0
  0
LINE
  8
0
 62
     0
 10
1.87067
 20
2.7309
 30
0.0
 11
1.94444
 21
2.44444
 31
0.0
  0
LINE
  8
0
 62
     0
 10
1.94444
 20
2.44444
 30
0.0
 11
2.0364
 21
2.18664
 31
0.0
  0
LINE
  8
0
 62
     0
 10
2.0364
 20
2.18664
 30
0.0
 11
2.14578
 21
1.95486
 31
0.0
  0
LINE
  8
0
 62
     0
 10
2.14578
 20
1.95486
 30
0.0
 11
2.27251
 21
1.74914
 31
0.0
  0
LINE
  8
0
 62
     0
 10
2.27251
 20
1.74914
 30
0.0
 11
2.41667
 21
1.56944
 31
0.0
  0
LINE
  8
0
 62
     0
 10
2.41667
 20
1.56944
 30
0.0
 11
2.57769
 21
1.4145
 31
0.0
  0
LINE
  8
0
 62
     0
 10
2.57769
 20
1.4145
 30
0.0
 11
2.75521
 21
1.28299
 31
0.0
  0
LINE
  8
0
 62
     0
 10
2.75521
 20
1.28299
 30
0.0
 11
2.94922
 21
1.17491
 31
0.0
  0
LINE
  8
0
 62
     0
 10
2.94922
 20
1.17491
 30
0.0
 11
3.15972
 21
1.09028
 31
0.0
  0
LINE
  8
0
 62
     0
 10
3.15972
 20
1.09028
 30
0.0
 11
3.38672
 21
1.02647
 31
0.0
  0
LINE
  8
0
 62
     0
 10
3.38672
 20
1.02647
 30
0.0
 11
3.63021
 21
0.980903
 31
0.0
  0
LINE
  8
0
 62
     0
 10
3.63021
 20
0.980903
 30
0.0
 11
3.89019
 21
0.953558
 31
0.0
  0
LINE
  8
0
 62
     0
 10
3.89019
 20
0.953558
 30
0.0
 11
4.16667
 21
0.944444
 31
0.0
  0
LINE
  8
0
 62
     0
 10
4.16667
 20
0.944444
 30
0.0
 11
4.57243
 21
0.95535
 31
0.0
  0
LINE
  8
0
 62
     0
 10
4.57243
 20
0.95535
 30
0.0
 11
4.95654
 21
0.987901
 31
0.0
  0
LINE
  8
0
 62
     0
 10
4.95654
 20
0.987901
 30
0.0
 11
5.31896
 21
1.04216
 31
0.0
  0
LINE
  8
0
 62
     0
 10
5.31896
 20
1.04216
 30
0.0
 11
5.65972
 21
1.11806
 31
0.0
  0
LINE
  8
0
 62
     0
 10
5.65972
 20
1.11806
 30
0.0
 11
5.98133
 21
1.21311
 31
0.0
  0
LINE
  8
0
 62
     0
 10
5.98133
 20
1.21311
 30
0.0
 11
6.28646
 21
1.32465
 31
0.0
  0
LINE
  8
0
 62
     0
 10
6.28646
 20
1.32465
 30
0.0
 11
6.57508
 21
1.45269
 31
0.0
  0
LINE
  8
0
 62
     0
 10
6.57508
 20
1.45269
 30
0.0
 11
6.84722
 21
1.59722
 31
0.0
  0
LINE
  8
0
 62
     0
 10
6.84722
 20
1.59722
 30
0.0
 11
6.84722
 21
0.444444
 31
0.0
  0
LINE
  8
0
 62
     0
 10
6.84722
 20
0.444444
 30
0.0
 11
6.57292
 21
0.331651
 31
0.0
  0
LINE
  8
0
 62
     0
 10
6.57292
 20
0.331651
 30
0.0
 11
6.27778
 21
0.229167
 31
0.0
  0
LINE
  8
0
 62
     0
 10
6.27778
 20
0.229167
 30
0.0
 11
5.96175
 21
0.137153
 31
0.0
  0
LINE
  8
0
 62
     0
 10
5.96175
 20
0.137153
 30
0.0
 11
5.625
 21
0.0555556
 31
0.0
  0
LINE
  8
0
 62
     0
 10
5.625
 20
0.0555556
 30
0.0
 11
5.27169
 21
-0.0112305
 31
0.0
  0
LINE
  8
0
 62
     0
 10
5.27169
 20
-0.0112305
 30
0.0
 11
4.90625
 21
-0.0589735
 31
0.0
  0
LINE
  8
0
 62
     0
 10
4.90625
 20
-0.0589735
 30
0.0
 11
4.52864
 21
-0.0876193
 31
0.0
  0
LINE
  8
0
 62
     0
 10
4.52864
 20
-0.0876193
 30
0.0
 11
4.13889
 21
-0.0972222
 31
0.0
  0
LINE
  8
0
 62
     0
 10
4.13889
 20
-0.0972222
 30
0.0
 11
3.75217
 21
-0.082411
 31
0.0
  0
LINE
  8
0
 62
     0
 10
3.75217
 20
-0.082411
 30
0.0
 11
3.38368
 21
-0.0381401
 31
0.0
  0
LINE
  8
0
 62
     0
 10
3.38368
 20
-0.0381401
 30
0.0
 11
3.03342
 21
0.0356446
 31
0.0
  0
LINE
  8
0
 62
     0
 10
3.03342
 20
0.0356446
 30
0.0
 11
2.70139
 21
0.138889
 31
0.0
  0
LINE
  8
0
 62
     0
 10
2.70139
 20
0.138889
 30
0.0
 11
2.39019
 21
0.272569
 31
0.0
  0
LINE
  8
0
 62
     0
 10
2.39019
 20
0.272569
 30
0.0
 11
2.10243
 21
0.4375
 31
0.0
  0
LINE
  8
0
 62
     0
 10
2.10243
 20
0.4375
 30
0.0
 11
1.83811
 21
0.633735
 31
0.0
  0
LINE
  8
0
 62
     0
 10
1.83811
 20
0.633735
 30
0.0
 11
1.59722
 21
0.861111
 31
0.0
  0
LINE
  8
0
 62
     0
 10
1.59722
 20
0.861111
 30
0.0
 11
1.38059
 21
1.12109
 31
0.0
  0
LINE
  8
0
 62
     0
 10
1.38059
 20
1.12109
 30
0.0
 11
1.18918
 21
1.41493
 31
0.0
  0
LINE
  8
0
 62
     0
 10
1.18918
 20
1.41493
 30
0.0
 11
1.02295
 21
1.74268
 31
0.0
  0
LINE
  8
0
 62
     0
 10
1.02295
 20
1.74268
 30
0.0
 11
0.881944
 21
2.10417
 31
0.0
  0
LINE
  8
0
 62
     0
 10
0.881944
 20
2.10417
 30
0.0
 11
0.769531
 21
2.49957
 31
0.0
  0
LINE
  8
0
 62
     0
 10
0.769531
 20
2.49957
 30
0.0
 11
0.689236
 21
2.92882
 31
0.0
  0
LINE
  8
0
 62
     0
 10
0.689236
 20
2.92882
 30
0.0
 11
0.641058
 21
3.39199
 31
0.0
  0
LINE
  8
0
 62
     0
 10
0.641058
 20
3.39199
 30
0.0
 11
0.625
 21
3.88889
 31
0.0
  0
LINE
  8
0
 62
     0
 10
0.625
 20
3.88889
 30
0.0
 11
0.641058
 21
4.3425
 31
0.0
  0
LINE
  8
0
 62
     0
 10
0.641058
 20
4.3425
 30
0.0
 11
0.689236
 21
4.77257
 31
0.0
  0
LINE
  8
0
 62
     0
 10
0.689236
 20
4.77257
 30
0.0
 11
0.769531
 21
5.17925
 31
0.0
  0
LINE
  8
0
 62
     0
 10
0.769531
 20
5.17925
 30
0.0
 11
0.881944
 21
5.5625
 31
0.0
  0
LINE
  8
0
 62
     0
 10
0.881944
 20
5.5625
 30
0.0
 11
1.02252
 21
5.91932
 31
0.0
  0
LINE
  8
0
 62
     0
 10
1.02252
 20
5.91932
 30
0.0
 11
1.18745
 21
6.24658
 31
0.0
  0
LINE
  8
0
 62
     0
 10
1.18745
 20
6.24658
 30
0.0
 11
1.37668
 21
6.54432
 31
0.0
  0
LINE
  8
0
 62
     0
 10
1.37668
 20
6.54432
 30
0.0
 11
1.59028
 21
6.8125
 31
0.0
  0
LINE
  8
0
 62
     0
 10
1.59028
 20
6.8125
 30
0.0
 11
1.82508
 21
7.05122
 31
0.0
  0
LINE
  8
0
 62
     0
 10
1.82508
 20
7.05122
 30
0.0
 11
2.07813
 21
7.26042
 31
0.0
  0
LINE
  8
0
 62
     0
 10
2.07813
 20
7.26042
 30
0.0
 11
2.34933
 21
7.44011
 31
0.0
  0
LINE
  8
0
 62
     0
 10
2.34933
 20
7.44011
 30
0.0
 11
2.63889
 21
7.59028
 31
0.0
  0
LINE
  8
0
 62
     0
 10
2.63889
 20
7.59028
 30
0.0
 11
2.94271
 21
7.70876
 31
0.0
  0
LINE
  8
0
 62
     0
 10
2.94271
 20
7.70876
 30
0.0
 11
3.25694
 21
7.7934
 31
0.0
  0
LINE
  8
0
 62
     0
 10
3.25694
 20
7.7934
 30
0.0
 11
3.58154
 21
7.84418
 31
0.0
  0
LINE
  8
0
 62
     0
 10
3.58154
 20
7.84418
 30
0.0
 11
3.91667
 21
7.86111
 31
0.0
  0
LINE
  8
0
 62
     0
 10
3.91667
 20
7.86111
 30
0.0
 11
4.25131
 21
7.84549
 31
0.0
  0
LINE
  8
0
 62
     0
 10
4.25131
 20
7.84549
 30
0.0
 11
4.57465
 21
7.79861
 31
0.0
  0
LINE
  8
0
 62
     0
 10
4.57465
 20
7.79861
 30
0.0
 11
4.88672
 21
7.72049
 31
0.0
  0
LINE
  8
0
 62
     0
 10
4.88672
 20
7.72049
 30
0.0
 11
5.1875
 21
7.61111
 31
0.0
  0
LINE
  8
0
 62
     0
 10
5.1875
 20
7.61111
 30
0.0
 11
5.47304
 21
7.47308
 31
0.0
  0
LINE
  8
0
 62
     0
 10
5.47304
 20
7.47308
 30
0.0
 11
5.73953
 21
7.30903
 31
0.0
  0
LINE
  8
0
 62
     0
 10
5.73953
 20
7.30903
 30
0.0
 11
5.98693
 21
7.11892
 31
0.0
  0
LINE
  8
0
 62
     0
 10
5.98693
 20
7.11892
 30
0.0
 11
6.21528
 21
6.90278
 31
0.0
  0
LINE
  8
0
 62
     0
 10
6.21528
 20
6.90278
 30
0.0
 11
6.42231
 21
6.66108
 31
0.0
  0
LINE
  8
0
 62
     0
 10
6.42231
 20
6.66108
 30
0.0
 11
6.6059
 21
6.39415
 31
0.0
  0
LINE
  8
0
 62
     0
 10
6.6059
 20
6.39415
 30
0.0
 11
6.76606
 21
6.10206
 31
0.0
  0
LINE
  8
0
 62
     0
 10
6.76606
 20
6.10206
 30
0.0
 11
6.90278
 21
5.78472
 31
0.0
  0
LINE
  8
0
 62
     0
 10
6.90278
 20
5.78472
 30
0.0
 11
7.01215
 21
5.44488
 31
0.0
  0
LINE
  8
0
 62
     0
 10
7.01215
 20
5.44488
 30
0.0
 11
7.09028
 21
5.08507
 31
0.0
  0
LINE
  8
0
 62
     0
 10
7.09028
 20
5.08507
 30
0.0
 11
7.13715
 21
4.70529
 31
0.0
  0
LINE
  8
0
 62
     0
 10
7.13715
 20
4.70529
 30
0.0
 11
7.15278
 21
4.30556
 31
0.0
  0
LINE
  8
0
 62
     0
 10
7.15278
 20
4.30556
 30
0.0
 11
7.15278
 21
3.77778
 31
0.0
  0
LINE
  8
0
 62
     0
 10
7.15278
 20
3.77778
 30
0.0
 11
1.76389
 21
3.77778
 31
0.0
  0
ENDSEC
  0
EOF
