  0
SECTION
  2
HEADER
  9
$ACADVER
  1
AC1009
  9
$EXTMIN
 10
0.0
 20
0.0
 30
0.0
  9
$EXTMAX
 10
1000.0
 20
1000.0
 30
0.0
  9
$FILLMODE
 70
 0
  9
$SPLFRAME
 70
 1
  0
ENDSEC
  0
SECTION
  2
TABLES
  0
TABLE
  2
LAYER
 70
1
  0
LAYER
  2
0
 70
     0
 62
     7
  6
CONTINUOUS
  0
ENDTAB
  0
ENDSEC
  0
SECTION
  2
ENTITIES
  0
LINE
  8
0
 62
     0
 10
4.01389
 20
5.86111
 30
0.0
 11
4.37668
 21
5.89236
 31
0.0
  0
LINE
  8
0
 62
     0
 10
4.37668
 20
5.89236
 30
0.0
 11
4.71528
 21
5.98611
 31
0.0
  0
LINE
  8
0
 62
     0
 10
4.71528
 20
5.98611
 30
0.0
 11
5.02257
 21
6.13542
 31
0.0
  0
LINE
  8
0
 62
     0
 10
5.02257
 20
6.13542
 30
0.0
 11
5.29167
 21
6.33333
 31
0.0
  0
LINE
  8
0
 62
     0
 10
5.29167
 20
6.33333
 30
0.0
 11
5.51383
 21
6.57992
 31
0.0
  0
LINE
  8
0
 62
     0
 10
5.51383
 20
6.57992
 30
0.0
 11
5.68056
 21
6.875
 31
0.0
  0
LINE
  8
0
 62
     0
 10
5.68056
 20
6.875
 30
0.0
 11
5.78472
 21
7.20833
 31
0.0
  0
LINE
  8
0
 62
     0
 10
5.78472
 20
7.20833
 30
0.0
 11
5.81944
 21
7.56944
 31
0.0
  0
LINE
  8
0
 62
     0
 10
5.81944
 20
7.56944
 30
0.0
 11
5.78472
 21
7.92014
 31
0.0
  0
LINE
  8
0
 62
     0
 10
5.78472
 20
7.92014
 30
0.0
 11
5.68056
 21
8.25
 31
0.0
  0
LINE
  8
0
 62
     0
 10
5.68056
 20
8.25
 30
0.0
 11
5.51557
 21
8.54861
 31
0.0
  0
LINE
  8
0
 62
     0
 10
5.51557
 20
8.54861
 30
0.0
 11
5.29861
 21
8.80556
 31
0.0
  0
LINE
  8
0
 62
     0
 10
5.29861
 20
8.80556
 30
0.0
 11
5.03293
 21
9.01563
 31
0.0
  0
LINE
  8
0
 62
     0
 10
5.03293
 20
9.01563
 30
0.0
 11
4.72222
 21
9.17361
 31
0.0
  0
LINE
  8
0
 62
     0
 10
4.72222
 20
9.17361
 30
0.0
 11
4.375
 21
9.27257
 31
0.0
  0
LINE
  8
0
 62
     0
 10
4.375
 20
9.27257
 30
0.0
 11
4
 21
9.30556
 31
0.0
  0
LINE
  8
0
 62
     0
 10
4
 20
9.30556
 30
0.0
 11
3.77078
 21
9.29644
 31
0.0
  0
LINE
  8
0
 62
     0
 10
3.77078
 20
9.29644
 30
0.0
 11
3.5555
 21
9.2691
 31
0.0
  0
LINE
  8
0
 62
     0
 10
3.5555
 20
9.2691
 30
0.0
 11
3.35411
 21
9.22353
 31
0.0
  0
LINE
  8
0
 62
     0
 10
3.35411
 20
9.22353
 30
0.0
 11
3.16667
 21
9.15972
 31
0.0
  0
LINE
  8
0
 62
     0
 10
3.16667
 20
9.15972
 30
0.0
 11
2.83333
 21
8.99132
 31
0.0
  0
LINE
  8
0
 62
     0
 10
2.83333
 20
8.99132
 30
0.0
 11
2.55556
 21
8.77778
 31
0.0
  0
LINE
  8
0
 62
     0
 10
2.55556
 20
8.77778
 30
0.0
 11
2.33681
 21
8.52263
 31
0.0
  0
LINE
  8
0
 62
     0
 10
2.33681
 20
8.52263
 30
0.0
 11
2.18056
 21
8.22917
 31
0.0
  0
LINE
  8
0
 62
     0
 10
2.18056
 20
8.22917
 30
0.0
 11
2.08681
 21
7.91146
 31
0.0
  0
LINE
  8
0
 62
     0
 10
2.08681
 20
7.91146
 30
0.0
 11
2.05556
 21
7.58333
 31
0.0
  0
LINE
  8
0
 62
     0
 10
2.05556
 20
7.58333
 30
0.0
 11
2.08681
 21
7.24479
 31
0.0
  0
LINE
  8
0
 62
     0
 10
2.08681
 20
7.24479
 30
0.0
 11
2.18056
 21
6.92361
 31
0.0
  0
LINE
  8
0
 62
     0
 10
2.18056
 20
6.92361
 30
0.0
 11
2.3316
 21
6.63021
 31
0.0
  0
LINE
  8
0
 62
     0
 10
2.3316
 20
6.63021
 30
0.0
 11
2.53472
 21
6.375
 31
0.0
  0
LINE
  8
0
 62
     0
 10
2.53472
 20
6.375
 30
0.0
 11
2.78993
 21
6.16325
 31
0.0
  0
LINE
  8
0
 62
     0
 10
2.78993
 20
6.16325
 30
0.0
 11
3.09722
 21
6
 31
0.0
  0
LINE
  8
0
 62
     0
 10
3.09722
 20
6
 30
0.0
 11
3.2691
 21
5.93924
 31
0.0
  0
LINE
  8
0
 62
     0
 10
3.2691
 20
5.93924
 30
0.0
 11
3.45139
 21
5.89583
 31
0.0
  0
LINE
  8
0
 62
     0
 10
3.45139
 20
5.89583
 30
0.0
 11
3.6441
 21
5.86979
 31
0.0
  0
LINE
  8
0
 62
     0
 10
3.6441
 20
5.86979
 30
0.0
 11
3.84722
 21
5.86111
 31
0.0
  0
LINE
  8
0
 62
     0
 10
3.84722
 20
5.86111
 30
0.0
 11
3.94444
 21
5.86111
 31
0.0
  0
LINE
  8
0
 62
     0
 10
3.94444
 20
5.86111
 30
0.0
 11
4.01389
 21
5.86111
 31
0.0
  0
LINE
  8
0
 62
     0
 10
3.90278
 20
0.930556
 30
0.0
 11
4.3316
 21
0.965278
 31
0.0
  0
LINE
  8
0
 62
     0
 10
4.3316
 20
0.965278
 30
0.0
 11
4.72917
 21
1.06944
 31
0.0
  0
LINE
  8
0
 62
     0
 10
4.72917
 20
1.06944
 30
0.0
 11
4.91363
 21
1.14632
 31
0.0
  0
LINE
  8
0
 62
     0
 10
4.91363
 20
1.14632
 30
0.0
 11
5.08507
 21
1.2379
 31
0.0
  0
LINE
  8
0
 62
     0
 10
5.08507
 20
1.2379
 30
0.0
 11
5.24349
 21
1.34424
 31
0.0
  0
LINE
  8
0
 62
     0
 10
5.24349
 20
1.34424
 30
0.0
 11
5.38889
 21
1.46528
 31
0.0
  0
LINE
  8
0
 62
     0
 10
5.38889
 20
1.46528
 30
0.0
 11
5.51997
 21
1.59983
 31
0.0
  0
LINE
  8
0
 62
     0
 10
5.51997
 20
1.59983
 30
0.0
 11
5.63542
 21
1.74653
 31
0.0
  0
LINE
  8
0
 62
     0
 10
5.63542
 20
1.74653
 30
0.0
 11
5.73525
 21
1.90539
 31
0.0
  0
LINE
  8
0
 62
     0
 10
5.73525
 20
1.90539
 30
0.0
 11
5.81944
 21
2.07639
 31
0.0
  0
LINE
  8
0
 62
     0
 10
5.81944
 20
2.07639
 30
0.0
 11
5.88624
 21
2.25917
 31
0.0
  0
LINE
  8
0
 62
     0
 10
5.88624
 20
2.25917
 30
0.0
 11
5.93397
 21
2.45318
 31
0.0
  0
LINE
  8
0
 62
     0
 10
5.93397
 20
2.45318
 30
0.0
 11
5.96262
 21
2.65847
 31
0.0
  0
LINE
  8
0
 62
     0
 10
5.96262
 20
2.65847
 30
0.0
 11
5.97222
 21
2.875
 31
0.0
  0
LINE
  8
0
 62
     0
 10
5.97222
 20
2.875
 30
0.0
 11
5.94271
 21
3.2691
 31
0.0
  0
LINE
  8
0
 62
     0
 10
5.94271
 20
3.2691
 30
0.0
 11
5.85417
 21
3.64583
 31
0.0
  0
LINE
  8
0
 62
     0
 10
5.85417
 20
3.64583
 30
0.0
 11
5.70481
 21
3.99306
 31
0.0
  0
LINE
  8
0
 62
     0
 10
5.70481
 20
3.99306
 30
0.0
 11
5.49306
 21
4.29861
 31
0.0
  0
LINE
  8
0
 62
     0
 10
5.49306
 20
4.29861
 30
0.0
 11
5.3641
 21
4.43365
 31
0.0
  0
LINE
  8
0
 62
     0
 10
5.3641
 20
4.43365
 30
0.0
 11
5.22043
 21
4.55388
 31
0.0
  0
LINE
  8
0
 62
     0
 10
5.22043
 20
4.55388
 30
0.0
 11
5.06201
 21
4.65935
 31
0.0
  0
LINE
  8
0
 62
     0
 10
5.06201
 20
4.65935
 30
0.0
 11
4.88889
 21
4.75
 31
0.0
  0
LINE
  8
0
 62
     0
 10
4.88889
 20
4.75
 30
0.0
 11
4.70053
 21
4.82292
 31
0.0
  0
LINE
  8
0
 62
     0
 10
4.70053
 20
4.82292
 30
0.0
 11
4.49653
 21
4.875
 31
0.0
  0
LINE
  8
0
 62
     0
 10
4.49653
 20
4.875
 30
0.0
 11
4.27686
 21
4.90625
 31
0.0
  0
LINE
  8
0
 62
     0
 10
4.27686
 20
4.90625
 30
0.0
 11
4.04167
 21
4.91667
 31
0.0
  0
LINE
  8
0
 62
     0
 10
4.04167
 20
4.91667
 30
0.0
 11
3.94444
 21
4.91667
 31
0.0
  0
LINE
  8
0
 62
     0
 10
3.94444
 20
4.91667
 30
0.0
 11
3.70747
 21
4.90582
 31
0.0
  0
LINE
  8
0
 62
     0
 10
3.70747
 20
4.90582
 30
0.0
 11
3.48264
 21
4.87326
 31
0.0
  0
LINE
  8
0
 62
     0
 10
3.48264
 20
4.87326
 30
0.0
 11
3.26997
 21
4.81901
 31
0.0
  0
LINE
  8
0
 62
     0
 10
3.26997
 20
4.81901
 30
0.0
 11
3.06944
 21
4.74306
 31
0.0
  0
LINE
  8
0
 62
     0
 10
3.06944
 20
4.74306
 30
0.0
 11
2.7066
 21
4.54172
 31
0.0
  0
LINE
  8
0
 62
     0
 10
2.7066
 20
4.54172
 30
0.0
 11
2.39583
 21
4.28472
 31
0.0
  0
LINE
  8
0
 62
     0
 10
2.39583
 20
4.28472
 30
0.0
 11
2.14404
 21
3.97917
 31
0.0
  0
LINE
  8
0
 62
     0
 10
2.14404
 20
3.97917
 30
0.0
 11
1.95833
 21
3.63194
 31
0.0
  0
LINE
  8
0
 62
     0
 10
1.95833
 20
3.63194
 30
0.0
 11
1.84375
 21
3.26215
 31
0.0
  0
LINE
  8
0
 62
     0
 10
1.84375
 20
3.26215
 30
0.0
 11
1.80556
 21
2.88889
 31
0.0
  0
LINE
  8
0
 62
     0
 10
1.80556
 20
2.88889
 30
0.0
 11
1.84022
 21
2.49832
 31
0.0
  0
LINE
  8
0
 62
     0
 10
1.84022
 20
2.49832
 30
0.0
 11
1.94444
 21
2.13194
 31
0.0
  0
LINE
  8
0
 62
     0
 10
1.94444
 20
2.13194
 30
0.0
 11
2.11458
 21
1.8004
 31
0.0
  0
LINE
  8
0
 62
     0
 10
2.11458
 20
1.8004
 30
0.0
 11
2.34722
 21
1.51389
 31
0.0
  0
LINE
  8
0
 62
     0
 10
2.34722
 20
1.51389
 30
0.0
 11
2.48742
 21
1.38846
 31
0.0
  0
LINE
  8
0
 62
     0
 10
2.48742
 20
1.38846
 30
0.0
 11
2.6441
 21
1.27604
 31
0.0
  0
LINE
  8
0
 62
     0
 10
2.6441
 20
1.27604
 30
0.0
 11
2.81728
 21
1.1767
 31
0.0
  0
LINE
  8
0
 62
     0
 10
2.81728
 20
1.1767
 30
0.0
 11
3.00694
 21
1.09028
 31
0.0
  0
LINE
  8
0
 62
     0
 10
3.00694
 20
1.09028
 30
0.0
 11
3.21137
 21
1.0204
 31
0.0
  0
LINE
  8
0
 62
     0
 10
3.21137
 20
1.0204
 30
0.0
 11
3.42882
 21
0.970486
 31
0.0
  0
LINE
  8
0
 62
     0
 10
3.42882
 20
0.970486
 30
0.0
 11
3.65929
 21
0.940539
 31
0.0
  0
LINE
  8
0
 62
     0
 10
3.65929
 20
0.940539
 30
0.0
 11
3.90278
 21
0.930556
 31
0.0
  0
LINE
  8
0
 62
     0
 10
3.98611
 20
10.2361
 30
0.0
 11
4.53299
 21
10.1962
 31
0.0
  0
LINE
  8
0
 62
     0
 10
4.53299
 20
10.1962
 30
0.0
 11
5.0625
 21
10.0764
 31
0.0
  0
LINE
  8
0
 62
     0
 10
5.0625
 20
10.0764
 30
0.0
 11
5.31592
 21
9.98568
 31
0.0
  0
LINE
  8
0
 62
     0
 10
5.31592
 20
9.98568
 30
0.0
 11
5.5555
 21
9.87326
 31
0.0
  0
LINE
  8
0
 62
     0
 10
5.5555
 20
9.87326
 30
0.0
 11
5.78119
 21
9.73915
 31
0.0
  0
LINE
  8
0
 62
     0
 10
5.78119
 20
9.73915
 30
0.0
 11
5.99306
 21
9.58333
 31
0.0
  0
LINE
  8
0
 62
     0
 10
5.99306
 20
9.58333
 30
0.0
 11
6.1875
 21
9.40625
 31
0.0
  0
LINE
  8
0
 62
     0
 10
6.1875
 20
9.40625
 30
0.0
 11
6.36111
 21
9.20833
 31
0.0
  0
LINE
  8
0
 62
     0
 10
6.36111
 20
9.20833
 30
0.0
 11
6.51383
 21
8.98958
 31
0.0
  0
LINE
  8
0
 62
     0
 10
6.51383
 20
8.98958
 30
0.0
 11
6.64583
 21
8.75
 31
0.0
  0
LINE
  8
0
 62
     0
 10
6.64583
 20
8.75
 30
0.0
 11
6.75217
 21
8.48876
 31
0.0
  0
LINE
  8
0
 62
     0
 10
6.75217
 20
8.48876
 30
0.0
 11
6.82813
 21
8.20492
 31
0.0
  0
LINE
  8
0
 62
     0
 10
6.82813
 20
8.20492
 30
0.0
 11
6.87369
 21
7.89849
 31
0.0
  0
LINE
  8
0
 62
     0
 10
6.87369
 20
7.89849
 30
0.0
 11
6.88889
 21
7.56944
 31
0.0
  0
LINE
  8
0
 62
     0
 10
6.88889
 20
7.56944
 30
0.0
 11
6.86887
 21
7.20225
 31
0.0
  0
LINE
  8
0
 62
     0
 10
6.86887
 20
7.20225
 30
0.0
 11
6.80897
 21
6.86458
 31
0.0
  0
LINE
  8
0
 62
     0
 10
6.80897
 20
6.86458
 30
0.0
 11
6.70915
 21
6.55642
 31
0.0
  0
LINE
  8
0
 62
     0
 10
6.70915
 20
6.55642
 30
0.0
 11
6.56944
 21
6.27778
 31
0.0
  0
LINE
  8
0
 62
     0
 10
6.56944
 20
6.27778
 30
0.0
 11
6.39931
 21
6.02696
 31
0.0
  0
LINE
  8
0
 62
     0
 10
6.39931
 20
6.02696
 30
0.0
 11
6.20833
 21
5.80208
 31
0.0
  0
LINE
  8
0
 62
     0
 10
6.20833
 20
5.80208
 30
0.0
 11
5.99647
 21
5.60331
 31
0.0
  0
LINE
  8
0
 62
     0
 10
5.99647
 20
5.60331
 30
0.0
 11
5.76389
 21
5.43056
 31
0.0
  0
LINE
  8
0
 62
     0
 10
5.76389
 20
5.43056
 30
0.0
 11
6.0785
 21
5.23269
 31
0.0
  0
LINE
  8
0
 62
     0
 10
6.0785
 20
5.23269
 30
0.0
 11
6.35585
 21
5.00006
 31
0.0
  0
LINE
  8
0
 62
     0
 10
6.35585
 20
5.00006
 30
0.0
 11
6.59586
 21
4.73269
 31
0.0
  0
LINE
  8
0
 62
     0
 10
6.59586
 20
4.73269
 30
0.0
 11
6.79861
 21
4.43056
 31
0.0
  0
LINE
  8
0
 62
     0
 10
6.79861
 20
4.43056
 30
0.0
 11
6.95964
 21
4.09375
 31
0.0
  0
LINE
  8
0
 62
     0
 10
6.95964
 20
4.09375
 30
0.0
 11
7.07465
 21
3.72222
 31
0.0
  0
LINE
  8
0
 62
     0
 10
7.07465
 20
3.72222
 30
0.0
 11
7.14367
 21
3.31597
 31
0.0
  0
LINE
  8
0
 62
     0
 10
7.14367
 20
3.31597
 30
0.0
 11
7.16667
 21
2.875
 31
0.0
  0
LINE
  8
0
 62
     0
 10
7.16667
 20
2.875
 30
0.0
 11
7.14887
 21
2.51828
 31
0.0
  0
LINE
  8
0
 62
     0
 10
7.14887
 20
2.51828
 30
0.0
 11
7.09549
 21
2.18408
 31
0.0
  0
LINE
  8
0
 62
     0
 10
7.09549
 20
2.18408
 30
0.0
 11
7.00651
 21
1.87244
 31
0.0
  0
LINE
  8
0
 62
     0
 10
7.00651
 20
1.87244
 30
0.0
 11
6.88194
 21
1.58333
 31
0.0
  0
LINE
  8
0
 62
     0
 10
6.88194
 20
1.58333
 30
0.0
 11
6.72825
 21
1.31684
 31
0.0
  0
LINE
  8
0
 62
     0
 10
6.72825
 20
1.31684
 30
0.0
 11
6.55203
 21
1.07292
 31
0.0
  0
LINE
  8
0
 62
     0
 10
6.55203
 20
1.07292
 30
0.0
 11
6.35325
 21
0.851563
 31
0.0
  0
LINE
  8
0
 62
     0
 10
6.35325
 20
0.851563
 30
0.0
 11
6.13194
 21
0.652778
 31
0.0
  0
LINE
  8
0
 62
     0
 10
6.13194
 20
0.652778
 30
0.0
 11
5.89193
 21
0.476997
 31
0.0
  0
LINE
  8
0
 62
     0
 10
5.89193
 20
0.476997
 30
0.0
 11
5.63715
 21
0.324653
 31
0.0
  0
LINE
  8
0
 62
     0
 10
5.63715
 20
0.324653
 30
0.0
 11
5.36762
 21
0.195747
 31
0.0
  0
LINE
  8
0
 62
     0
 10
5.36762
 20
0.195747
 30
0.0
 11
5.08333
 21
0.0902778
 31
0.0
  0
LINE
  8
0
 62
     0
 10
5.08333
 20
0.0902778
 30
0.0
 11
4.49653
 21
-0.0503472
 31
0.0
  0
LINE
  8
0
 62
     0
 10
4.49653
 20
-0.0503472
 30
0.0
 11
3.90278
 21
-0.0972222
 31
0.0
  0
LINE
  8
0
 62
     0
 10
3.90278
 20
-0.0972222
 30
0.0
 11
3.58029
 21
-0.0855035
 31
0.0
  0
LINE
  8
0
 62
     0
 10
3.58029
 20
-0.0855035
 30
0.0
 11
3.26563
 21
-0.0503472
 31
0.0
  0
LINE
  8
0
 62
     0
 10
3.26563
 20
-0.0503472
 30
0.0
 11
2.95871
 21
0.00824653
 31
0.0
  0
LINE
  8
0
 62
     0
 10
2.95871
 20
0.00824653
 30
0.0
 11
2.65972
 21
0.0902778
 31
0.0
  0
LINE
  8
0
 62
     0
 10
2.65972
 20
0.0902778
 30
0.0
 11
2.37326
 21
0.195747
 31
0.0
  0
LINE
  8
0
 62
     0
 10
2.37326
 20
0.195747
 30
0.0
 11
2.10417
 21
0.324653
 31
0.0
  0
LINE
  8
0
 62
     0
 10
2.10417
 20
0.324653
 30
0.0
 11
1.85243
 21
0.476997
 31
0.0
  0
LINE
  8
0
 62
     0
 10
1.85243
 20
0.476997
 30
0.0
 11
1.61806
 21
0.652778
 31
0.0
  0
LINE
  8
0
 62
     0
 10
1.61806
 20
0.652778
 30
0.0
 11
1.4036
 21
0.851563
 31
0.0
  0
LINE
  8
0
 62
     0
 10
1.4036
 20
0.851563
 30
0.0
 11
1.21175
 21
1.07292
 31
0.0
  0
LINE
  8
0
 62
     0
 10
1.21175
 20
1.07292
 30
0.0
 11
1.04248
 21
1.31684
 31
0.0
  0
LINE
  8
0
 62
     0
 10
1.04248
 20
1.31684
 30
0.0
 11
0.895833
 21
1.58333
 31
0.0
  0
LINE
  8
0
 62
     0
 10
0.895833
 20
1.58333
 30
0.0
 11
0.777344
 21
1.87244
 31
0.0
  0
LINE
  8
0
 62
     0
 10
0.777344
 20
1.87244
 30
0.0
 11
0.692708
 21
2.18408
 31
0.0
  0
LINE
  8
0
 62
     0
 10
0.692708
 20
2.18408
 30
0.0
 11
0.641928
 21
2.51828
 31
0.0
  0
LINE
  8
0
 62
     0
 10
0.641928
 20
2.51828
 30
0.0
 11
0.625
 21
2.875
 31
0.0
  0
LINE
  8
0
 62
     0
 10
0.625
 20
2.875
 30
0.0
 11
0.649251
 21
3.3156
 31
0.0
  0
LINE
  8
0
 62
     0
 10
0.649251
 20
3.3156
 30
0.0
 11
0.722168
 21
3.72054
 31
0.0
  0
LINE
  8
0
 62
     0
 10
0.722168
 20
3.72054
 30
0.0
 11
0.843696
 21
4.0899
 31
0.0
  0
LINE
  8
0
 62
     0
 10
0.843696
 20
4.0899
 30
0.0
 11
1.01389
 21
4.42361
 31
0.0
  0
LINE
  8
0
 62
     0
 10
1.01389
 20
4.42361
 30
0.0
 11
1.22569
 21
4.72271
 31
0.0
  0
LINE
  8
0
 62
     0
 10
1.22569
 20
4.72271
 30
0.0
 11
1.47222
 21
4.9879
 31
0.0
  0
LINE
  8
0
 62
     0
 10
1.47222
 20
4.9879
 30
0.0
 11
1.75347
 21
5.21924
 31
0.0
  0
LINE
  8
0
 62
     0
 10
1.75347
 20
5.21924
 30
0.0
 11
2.06944
 21
5.41667
 31
0.0
  0
LINE
  8
0
 62
     0
 10
2.06944
 20
5.41667
 30
0.0
 11
1.83811
 21
5.58897
 31
0.0
  0
LINE
  8
0
 62
     0
 10
1.83811
 20
5.58897
 30
0.0
 11
1.63021
 21
5.78646
 31
0.0
  0
LINE
  8
0
 62
     0
 10
1.63021
 20
5.78646
 30
0.0
 11
1.44569
 21
6.00911
 31
0.0
  0
LINE
  8
0
 62
     0
 10
1.44569
 20
6.00911
 30
0.0
 11
1.28472
 21
6.25694
 31
0.0
  0
LINE
  8
0
 62
     0
 10
1.28472
 20
6.25694
 30
0.0
 11
1.15408
 21
6.53429
 31
0.0
  0
LINE
  8
0
 62
     0
 10
1.15408
 20
6.53429
 30
0.0
 11
1.06076
 21
6.84549
 31
0.0
  0
LINE
  8
0
 62
     0
 10
1.06076
 20
6.84549
 30
0.0
 11
1.00478
 21
7.19054
 31
0.0
  0
LINE
  8
0
 62
     0
 10
1.00478
 20
7.19054
 30
0.0
 11
0.986111
 21
7.56944
 31
0.0
  0
LINE
  8
0
 62
     0
 10
0.986111
 20
7.56944
 30
0.0
 11
1.00087
 21
7.89893
 31
0.0
  0
LINE
  8
0
 62
     0
 10
1.00087
 20
7.89893
 30
0.0
 11
1.04514
 21
8.20665
 31
0.0
  0
LINE
  8
0
 62
     0
 10
1.04514
 20
8.20665
 30
0.0
 11
1.11892
 21
8.49268
 31
0.0
  0
LINE
  8
0
 62
     0
 10
1.11892
 20
8.49268
 30
0.0
 11
1.22222
 21
8.75694
 31
0.0
  0
LINE
  8
0
 62
     0
 10
1.22222
 20
8.75694
 30
0.0
 11
1.35107
 21
8.99914
 31
0.0
  0
LINE
  8
0
 62
     0
 10
1.35107
 20
8.99914
 30
0.0
 11
1.50168
 21
9.21875
 31
0.0
  0
LINE
  8
0
 62
     0
 10
1.50168
 20
9.21875
 30
0.0
 11
1.67399
 21
9.41581
 31
0.0
  0
LINE
  8
0
 62
     0
 10
1.67399
 20
9.41581
 30
0.0
 11
1.86806
 21
9.59028
 31
0.0
  0
LINE
  8
0
 62
     0
 10
1.86806
 20
9.59028
 30
0.0
 11
2.0816
 21
9.74311
 31
0.0
  0
LINE
  8
0
 62
     0
 10
2.0816
 20
9.74311
 30
0.0
 11
2.3125
 21
9.87506
 31
0.0
  0
LINE
  8
0
 62
     0
 10
2.3125
 20
9.87506
 30
0.0
 11
2.56076
 21
9.98617
 31
0.0
  0
LINE
  8
0
 62
     0
 10
2.56076
 20
9.98617
 30
0.0
 11
2.82639
 21
10.0764
 31
0.0
  0
LINE
  8
0
 62
     0
 10
2.82639
 20
10.0764
 30
0.0
 11
3.10454
 21
10.1463
 31
0.0
  0
LINE
  8
0
 62
     0
 10
3.10454
 20
10.1463
 30
0.0
 11
3.39063
 21
10.1962
 31
0.0
  0
LINE
  8
0
 62
     0
 10
3.39063
 20
10.1962
 30
0.0
 11
3.68446
 21
10.2262
 31
0.0
  0
LINE
  8
0
 62
     0
 10
3.68446
 20
10.2262
 30
0.0
 11
3.98611
 21
10.2361
 31
0.0
  0
ENDSEC
  0
EOF
