  0
SECTION
  2
HEADER
  9
$ACADVER
  1
AC1009
  9
$EXTMIN
 10
0.0
 20
0.0
 30
0.0
  9
$EXTMAX
 10
1000.0
 20
1000.0
 30
0.0
  9
$FILLMODE
 70
 0
  9
$SPLFRAME
 70
 1
  0
ENDSEC
  0
SECTION
  2
TABLES
  0
TABLE
  2
LAYER
 70
1
  0
LAYER
  2
0
 70
     0
 62
     7
  6
CONTINUOUS
  0
ENDTAB
  0
ENDSEC
  0
SECTION
  2
ENTITIES
  0
LINE
  8
0
 62
     0
 10
5.34722
 20
4.51389
 30
0.0
 11
2.93056
 21
4.51389
 31
0.0
  0
LINE
  8
0
 62
     0
 10
2.93056
 20
4.51389
 30
0.0
 11
2.93056
 21
1.11111
 31
0.0
  0
LINE
  8
0
 62
     0
 10
2.93056
 20
1.11111
 30
0.0
 11
4.95833
 21
1.11111
 31
0.0
  0
LINE
  8
0
 62
     0
 10
4.95833
 20
1.11111
 30
0.0
 11
5.26904
 21
1.12804
 31
0.0
  0
LINE
  8
0
 62
     0
 10
5.26904
 20
1.12804
 30
0.0
 11
5.57633
 21
1.17882
 31
0.0
  0
LINE
  8
0
 62
     0
 10
5.57633
 20
1.17882
 30
0.0
 11
5.88015
 21
1.26346
 31
0.0
  0
LINE
  8
0
 62
     0
 10
5.88015
 20
1.26346
 30
0.0
 11
6.18056
 21
1.38194
 31
0.0
  0
LINE
  8
0
 62
     0
 10
6.18056
 20
1.38194
 30
0.0
 11
6.47049
 21
1.53256
 31
0.0
  0
LINE
  8
0
 62
     0
 10
6.47049
 20
1.53256
 30
0.0
 11
6.74306
 21
1.71354
 31
0.0
  0
LINE
  8
0
 62
     0
 10
6.74306
 20
1.71354
 30
0.0
 11
6.99826
 21
1.92492
 31
0.0
  0
LINE
  8
0
 62
     0
 10
6.99826
 20
1.92492
 30
0.0
 11
7.23611
 21
2.16667
 31
0.0
  0
LINE
  8
0
 62
     0
 10
7.23611
 20
2.16667
 30
0.0
 11
7.454
 21
2.43756
 31
0.0
  0
LINE
  8
0
 62
     0
 10
7.454
 20
2.43756
 30
0.0
 11
7.64931
 21
2.73617
 31
0.0
  0
LINE
  8
0
 62
     0
 10
7.64931
 20
2.73617
 30
0.0
 11
7.82206
 21
3.06256
 31
0.0
  0
LINE
  8
0
 62
     0
 10
7.82206
 20
3.06256
 30
0.0
 11
7.97222
 21
3.41667
 31
0.0
  0
LINE
  8
0
 62
     0
 10
7.97222
 20
3.41667
 30
0.0
 11
8.09369
 21
3.79688
 31
0.0
  0
LINE
  8
0
 62
     0
 10
8.09369
 20
3.79688
 30
0.0
 11
8.1805
 21
4.20139
 31
0.0
  0
LINE
  8
0
 62
     0
 10
8.1805
 20
4.20139
 30
0.0
 11
8.23258
 21
4.63021
 31
0.0
  0
LINE
  8
0
 62
     0
 10
8.23258
 20
4.63021
 30
0.0
 11
8.25
 21
5.08333
 31
0.0
  0
LINE
  8
0
 62
     0
 10
8.25
 20
5.08333
 30
0.0
 11
8.23128
 21
5.54867
 31
0.0
  0
LINE
  8
0
 62
     0
 10
8.23128
 20
5.54867
 30
0.0
 11
8.17529
 21
5.98617
 31
0.0
  0
LINE
  8
0
 62
     0
 10
8.17529
 20
5.98617
 30
0.0
 11
8.08197
 21
6.39589
 31
0.0
  0
LINE
  8
0
 62
     0
 10
8.08197
 20
6.39589
 30
0.0
 11
7.95139
 21
6.77778
 31
0.0
  0
LINE
  8
0
 62
     0
 10
7.95139
 20
6.77778
 30
0.0
 11
7.79081
 21
7.13108
 31
0.0
  0
LINE
  8
0
 62
     0
 10
7.79081
 20
7.13108
 30
0.0
 11
7.60764
 21
7.45486
 31
0.0
  0
LINE
  8
0
 62
     0
 10
7.60764
 20
7.45486
 30
0.0
 11
7.40192
 21
7.74914
 31
0.0
  0
LINE
  8
0
 62
     0
 10
7.40192
 20
7.74914
 30
0.0
 11
7.17361
 21
8.01389
 31
0.0
  0
LINE
  8
0
 62
     0
 10
7.17361
 20
8.01389
 30
0.0
 11
6.92622
 21
8.24875
 31
0.0
  0
LINE
  8
0
 62
     0
 10
6.92622
 20
8.24875
 30
0.0
 11
6.66319
 21
8.45318
 31
0.0
  0
LINE
  8
0
 62
     0
 10
6.66319
 20
8.45318
 30
0.0
 11
6.38456
 21
8.62722
 31
0.0
  0
LINE
  8
0
 62
     0
 10
6.38456
 20
8.62722
 30
0.0
 11
6.09028
 21
8.77083
 31
0.0
  0
LINE
  8
0
 62
     0
 10
6.09028
 20
8.77083
 30
0.0
 11
5.78863
 21
8.88325
 31
0.0
  0
LINE
  8
0
 62
     0
 10
5.78863
 20
8.88325
 30
0.0
 11
5.48785
 21
8.96354
 31
0.0
  0
LINE
  8
0
 62
     0
 10
5.48785
 20
8.96354
 30
0.0
 11
5.18793
 21
9.01172
 31
0.0
  0
LINE
  8
0
 62
     0
 10
5.18793
 20
9.01172
 30
0.0
 11
4.88889
 21
9.02778
 31
0.0
  0
LINE
  8
0
 62
     0
 10
4.88889
 20
9.02778
 30
0.0
 11
2.93056
 21
9.02778
 31
0.0
  0
LINE
  8
0
 62
     0
 10
2.93056
 20
9.02778
 30
0.0
 11
2.93056
 21
5.625
 31
0.0
  0
LINE
  8
0
 62
     0
 10
2.93056
 20
5.625
 30
0.0
 11
5.34722
 21
5.625
 31
0.0
  0
LINE
  8
0
 62
     0
 10
5.34722
 20
5.625
 30
0.0
 11
5.34722
 21
4.51389
 31
0.0
  0
LINE
  8
0
 62
     0
 10
4.72222
 20
10.1389
 30
0.0
 11
5.15793
 21
10.1202
 31
0.0
  0
LINE
  8
0
 62
     0
 10
5.15793
 20
10.1202
 30
0.0
 11
5.59022
 21
10.0642
 31
0.0
  0
LINE
  8
0
 62
     0
 10
5.59022
 20
10.0642
 30
0.0
 11
6.01904
 21
9.97092
 31
0.0
  0
LINE
  8
0
 62
     0
 10
6.01904
 20
9.97092
 30
0.0
 11
6.44444
 21
9.84028
 31
0.0
  0
LINE
  8
0
 62
     0
 10
6.44444
 20
9.84028
 30
0.0
 11
6.85721
 21
9.67062
 31
0.0
  0
LINE
  8
0
 62
     0
 10
6.85721
 20
9.67062
 30
0.0
 11
7.24826
 21
9.46013
 31
0.0
  0
LINE
  8
0
 62
     0
 10
7.24826
 20
9.46013
 30
0.0
 11
7.61762
 21
9.20882
 31
0.0
  0
LINE
  8
0
 62
     0
 10
7.61762
 20
9.20882
 30
0.0
 11
7.96528
 21
8.91667
 31
0.0
  0
LINE
  8
0
 62
     0
 10
7.96528
 20
8.91667
 30
0.0
 11
8.28554
 21
8.58382
 31
0.0
  0
LINE
  8
0
 62
     0
 10
8.28554
 20
8.58382
 30
0.0
 11
8.57286
 21
8.21013
 31
0.0
  0
LINE
  8
0
 62
     0
 10
8.57286
 20
8.21013
 30
0.0
 11
8.82721
 21
7.79562
 31
0.0
  0
LINE
  8
0
 62
     0
 10
8.82721
 20
7.79562
 30
0.0
 11
9.04861
 21
7.34028
 31
0.0
  0
LINE
  8
0
 62
     0
 10
9.04861
 20
7.34028
 30
0.0
 11
9.22786
 21
6.84244
 31
0.0
  0
LINE
  8
0
 62
     0
 10
9.22786
 20
6.84244
 30
0.0
 11
9.3559
 21
6.30035
 31
0.0
  0
LINE
  8
0
 62
     0
 10
9.3559
 20
6.30035
 30
0.0
 11
9.43272
 21
5.71397
 31
0.0
  0
LINE
  8
0
 62
     0
 10
9.43272
 20
5.71397
 30
0.0
 11
9.45833
 21
5.08333
 31
0.0
  0
LINE
  8
0
 62
     0
 10
9.45833
 20
5.08333
 30
0.0
 11
9.43272
 21
4.39669
 31
0.0
  0
LINE
  8
0
 62
     0
 10
9.43272
 20
4.39669
 30
0.0
 11
9.3559
 21
3.76736
 31
0.0
  0
LINE
  8
0
 62
     0
 10
9.3559
 20
3.76736
 30
0.0
 11
9.22786
 21
3.19536
 31
0.0
  0
LINE
  8
0
 62
     0
 10
9.22786
 20
3.19536
 30
0.0
 11
9.04861
 21
2.68056
 31
0.0
  0
LINE
  8
0
 62
     0
 10
9.04861
 20
2.68056
 30
0.0
 11
8.82894
 21
2.21789
 31
0.0
  0
LINE
  8
0
 62
     0
 10
8.82894
 20
2.21789
 30
0.0
 11
8.57981
 21
1.80208
 31
0.0
  0
LINE
  8
0
 62
     0
 10
8.57981
 20
1.80208
 30
0.0
 11
8.30117
 21
1.43321
 31
0.0
  0
LINE
  8
0
 62
     0
 10
8.30117
 20
1.43321
 30
0.0
 11
7.99306
 21
1.11111
 31
0.0
  0
LINE
  8
0
 62
     0
 10
7.99306
 20
1.11111
 30
0.0
 11
7.66015
 21
0.833767
 31
0.0
  0
LINE
  8
0
 62
     0
 10
7.66015
 20
0.833767
 30
0.0
 11
7.30729
 21
0.598958
 31
0.0
  0
LINE
  8
0
 62
     0
 10
7.30729
 20
0.598958
 30
0.0
 11
6.93446
 21
0.406683
 31
0.0
  0
LINE
  8
0
 62
     0
 10
6.93446
 20
0.406683
 30
0.0
 11
6.54167
 21
0.256944
 31
0.0
  0
LINE
  8
0
 62
     0
 10
6.54167
 20
0.256944
 30
0.0
 11
6.13883
 21
0.144586
 31
0.0
  0
LINE
  8
0
 62
     0
 10
6.13883
 20
0.144586
 30
0.0
 11
5.73606
 21
0.0642904
 31
0.0
  0
LINE
  8
0
 62
     0
 10
5.73606
 20
0.0642904
 30
0.0
 11
5.33328
 21
0.0161133
 31
0.0
  0
LINE
  8
0
 62
     0
 10
5.33328
 20
0.0161133
 30
0.0
 11
4.93056
 21
-0
 31
0.0
  0
LINE
  8
0
 62
     0
 10
4.93056
 20
-0
 30
0.0
 11
1.75
 21
-0
 31
0.0
  0
LINE
  8
0
 62
     0
 10
1.75
 20
-0
 30
0.0
 11
1.75
 21
4.51389
 31
0.0
  0
LINE
  8
0
 62
     0
 10
1.75
 20
4.51389
 30
0.0
 11
0.583333
 21
4.51389
 31
0.0
  0
LINE
  8
0
 62
     0
 10
0.583333
 20
4.51389
 30
0.0
 11
0.583333
 21
5.625
 31
0.0
  0
LINE
  8
0
 62
     0
 10
0.583333
 20
5.625
 30
0.0
 11
1.75
 21
5.625
 31
0.0
  0
LINE
  8
0
 62
     0
 10
1.75
 20
5.625
 30
0.0
 11
1.75
 21
10.1389
 31
0.0
  0
LINE
  8
0
 62
     0
 10
1.75
 20
10.1389
 30
0.0
 11
4.72222
 21
10.1389
 31
0.0
  0
ENDSEC
  0
EOF
