  0
SECTION
  2
HEADER
  9
$ACADVER
  1
AC1009
  9
$EXTMIN
 10
0.0
 20
0.0
 30
0.0
  9
$EXTMAX
 10
1000.0
 20
1000.0
 30
0.0
  9
$FILLMODE
 70
 0
  9
$SPLFRAME
 70
 1
  0
ENDSEC
  0
SECTION
  2
TABLES
  0
TABLE
  2
LAYER
 70
1
  0
LAYER
  2
0
 70
     0
 62
     7
  6
CONTINUOUS
  0
ENDTAB
  0
ENDSEC
  0
SECTION
  2
ENTITIES
  0
LINE
  8
0
 62
     0
 10
5.43056
 20
5.81944
 30
0.0
 11
2.84722
 21
5.81944
 31
0.0
  0
LINE
  8
0
 62
     0
 10
2.84722
 20
5.81944
 30
0.0
 11
2.80556
 21
5.06944
 31
0.0
  0
LINE
  8
0
 62
     0
 10
2.80556
 20
5.06944
 30
0.0
 11
2.8125
 21
4.76389
 31
0.0
  0
LINE
  8
0
 62
     0
 10
2.8125
 20
4.76389
 30
0.0
 11
2.83333
 21
4.45833
 31
0.0
  0
LINE
  8
0
 62
     0
 10
2.83333
 20
4.45833
 30
0.0
 11
4.94444
 21
4.45833
 31
0.0
  0
LINE
  8
0
 62
     0
 10
4.94444
 20
4.45833
 30
0.0
 11
4.94444
 21
3.54167
 31
0.0
  0
LINE
  8
0
 62
     0
 10
4.94444
 20
3.54167
 30
0.0
 11
2.97222
 21
3.54167
 31
0.0
  0
LINE
  8
0
 62
     0
 10
2.97222
 20
3.54167
 30
0.0
 11
3.12668
 21
3.02083
 31
0.0
  0
LINE
  8
0
 62
     0
 10
3.12668
 20
3.02083
 30
0.0
 11
3.34028
 21
2.54167
 31
0.0
  0
LINE
  8
0
 62
     0
 10
3.34028
 20
2.54167
 30
0.0
 11
3.46875
 21
2.32031
 31
0.0
  0
LINE
  8
0
 62
     0
 10
3.46875
 20
2.32031
 30
0.0
 11
3.61111
 21
2.11458
 31
0.0
  0
LINE
  8
0
 62
     0
 10
3.61111
 20
2.11458
 30
0.0
 11
3.76736
 21
1.92447
 31
0.0
  0
LINE
  8
0
 62
     0
 10
3.76736
 20
1.92447
 30
0.0
 11
3.9375
 21
1.75
 31
0.0
  0
LINE
  8
0
 62
     0
 10
3.9375
 20
1.75
 30
0.0
 11
4.12239
 21
1.59244
 31
0.0
  0
LINE
  8
0
 62
     0
 10
4.12239
 20
1.59244
 30
0.0
 11
4.32292
 21
1.45313
 31
0.0
  0
LINE
  8
0
 62
     0
 10
4.32292
 20
1.45313
 30
0.0
 11
4.53906
 21
1.33203
 31
0.0
  0
LINE
  8
0
 62
     0
 10
4.53906
 20
1.33203
 30
0.0
 11
4.77083
 21
1.22917
 31
0.0
  0
LINE
  8
0
 62
     0
 10
4.77083
 20
1.22917
 30
0.0
 11
5.01867
 21
1.14714
 31
0.0
  0
LINE
  8
0
 62
     0
 10
5.01867
 20
1.14714
 30
0.0
 11
5.28299
 21
1.08854
 31
0.0
  0
LINE
  8
0
 62
     0
 10
5.28299
 20
1.08854
 30
0.0
 11
5.56381
 21
1.05339
 31
0.0
  0
LINE
  8
0
 62
     0
 10
5.56381
 20
1.05339
 30
0.0
 11
5.86111
 21
1.04167
 31
0.0
  0
LINE
  8
0
 62
     0
 10
5.86111
 20
1.04167
 30
0.0
 11
6.28381
 21
1.0651
 31
0.0
  0
LINE
  8
0
 62
     0
 10
6.28381
 20
1.0651
 30
0.0
 11
6.67703
 21
1.13542
 31
0.0
  0
LINE
  8
0
 62
     0
 10
6.67703
 20
1.13542
 30
0.0
 11
7.04075
 21
1.2526
 31
0.0
  0
LINE
  8
0
 62
     0
 10
7.04075
 20
1.2526
 30
0.0
 11
7.375
 21
1.41667
 31
0.0
  0
LINE
  8
0
 62
     0
 10
7.375
 20
1.41667
 30
0.0
 11
7.67708
 21
1.61979
 31
0.0
  0
LINE
  8
0
 62
     0
 10
7.67708
 20
1.61979
 30
0.0
 11
7.94444
 21
1.85417
 31
0.0
  0
LINE
  8
0
 62
     0
 10
7.94444
 20
1.85417
 30
0.0
 11
8.17708
 21
2.11979
 31
0.0
  0
LINE
  8
0
 62
     0
 10
8.17708
 20
2.11979
 30
0.0
 11
8.375
 21
2.41667
 31
0.0
  0
LINE
  8
0
 62
     0
 10
8.375
 20
2.41667
 30
0.0
 11
9.26389
 21
1.51389
 31
0.0
  0
LINE
  8
0
 62
     0
 10
9.26389
 20
1.51389
 30
0.0
 11
9.11197
 21
1.3004
 31
0.0
  0
LINE
  8
0
 62
     0
 10
9.11197
 20
1.3004
 30
0.0
 11
8.94792
 21
1.10422
 31
0.0
  0
LINE
  8
0
 62
     0
 10
8.94792
 20
1.10422
 30
0.0
 11
8.77169
 21
0.925401
 31
0.0
  0
LINE
  8
0
 62
     0
 10
8.77169
 20
0.925401
 30
0.0
 11
8.58333
 21
0.763889
 31
0.0
  0
LINE
  8
0
 62
     0
 10
8.58333
 20
0.763889
 30
0.0
 11
8.1805
 21
0.486111
 31
0.0
  0
LINE
  8
0
 62
     0
 10
8.1805
 20
0.486111
 30
0.0
 11
7.75
 21
0.263889
 31
0.0
  0
LINE
  8
0
 62
     0
 10
7.75
 20
0.263889
 30
0.0
 11
7.29514
 21
0.0972765
 31
0.0
  0
LINE
  8
0
 62
     0
 10
7.29514
 20
0.0972765
 30
0.0
 11
6.81944
 21
-0.0138889
 31
0.0
  0
LINE
  8
0
 62
     0
 10
6.81944
 20
-0.0138889
 30
0.0
 11
6.33681
 21
-0.0763889
 31
0.0
  0
LINE
  8
0
 62
     0
 10
6.33681
 20
-0.0763889
 30
0.0
 11
5.86111
 21
-0.0972222
 31
0.0
  0
LINE
  8
0
 62
     0
 10
5.86111
 20
-0.0972222
 30
0.0
 11
5.17361
 21
-0.0503472
 31
0.0
  0
LINE
  8
0
 62
     0
 10
5.17361
 20
-0.0503472
 30
0.0
 11
4.5
 21
0.0902778
 31
0.0
  0
LINE
  8
0
 62
     0
 10
4.5
 20
0.0902778
 30
0.0
 11
4.17361
 21
0.199219
 31
0.0
  0
LINE
  8
0
 62
     0
 10
4.17361
 20
0.199219
 30
0.0
 11
3.86111
 21
0.338542
 31
0.0
  0
LINE
  8
0
 62
     0
 10
3.86111
 20
0.338542
 30
0.0
 11
3.5625
 21
0.508247
 31
0.0
  0
LINE
  8
0
 62
     0
 10
3.5625
 20
0.508247
 30
0.0
 11
3.27778
 21
0.708333
 31
0.0
  0
LINE
  8
0
 62
     0
 10
3.27778
 20
0.708333
 30
0.0
 11
3.00906
 21
0.940158
 31
0.0
  0
LINE
  8
0
 62
     0
 10
3.00906
 20
0.940158
 30
0.0
 11
2.75868
 21
1.20492
 31
0.0
  0
LINE
  8
0
 62
     0
 10
2.75868
 20
1.20492
 30
0.0
 11
2.52647
 21
1.50265
 31
0.0
  0
LINE
  8
0
 62
     0
 10
2.52647
 20
1.50265
 30
0.0
 11
2.3125
 21
1.83333
 31
0.0
  0
LINE
  8
0
 62
     0
 10
2.3125
 20
1.83333
 30
0.0
 11
2.1219
 21
2.20053
 31
0.0
  0
LINE
  8
0
 62
     0
 10
2.1219
 20
2.20053
 30
0.0
 11
1.96007
 21
2.60764
 31
0.0
  0
LINE
  8
0
 62
     0
 10
1.96007
 20
2.60764
 30
0.0
 11
1.82682
 21
3.05469
 31
0.0
  0
LINE
  8
0
 62
     0
 10
1.82682
 20
3.05469
 30
0.0
 11
1.72222
 21
3.54167
 31
0.0
  0
LINE
  8
0
 62
     0
 10
1.72222
 20
3.54167
 30
0.0
 11
0.555556
 21
3.54167
 31
0.0
  0
LINE
  8
0
 62
     0
 10
0.555556
 20
3.54167
 30
0.0
 11
0.555556
 21
4.45833
 31
0.0
  0
LINE
  8
0
 62
     0
 10
0.555556
 20
4.45833
 30
0.0
 11
1.61111
 21
4.45833
 31
0.0
  0
LINE
  8
0
 62
     0
 10
1.61111
 20
4.45833
 30
0.0
 11
1.59722
 21
4.76389
 31
0.0
  0
LINE
  8
0
 62
     0
 10
1.59722
 20
4.76389
 30
0.0
 11
1.59722
 21
5.06944
 31
0.0
  0
LINE
  8
0
 62
     0
 10
1.59722
 20
5.06944
 30
0.0
 11
1.60417
 21
5.44444
 31
0.0
  0
LINE
  8
0
 62
     0
 10
1.60417
 20
5.44444
 30
0.0
 11
1.625
 21
5.81944
 31
0.0
  0
LINE
  8
0
 62
     0
 10
1.625
 20
5.81944
 30
0.0
 11
0.555556
 21
5.81944
 31
0.0
  0
LINE
  8
0
 62
     0
 10
0.555556
 20
5.81944
 30
0.0
 11
0.555556
 21
6.73611
 31
0.0
  0
LINE
  8
0
 62
     0
 10
0.555556
 20
6.73611
 30
0.0
 11
1.77778
 21
6.73611
 31
0.0
  0
LINE
  8
0
 62
     0
 10
1.77778
 20
6.73611
 30
0.0
 11
1.89447
 21
7.16672
 31
0.0
  0
LINE
  8
0
 62
     0
 10
1.89447
 20
7.16672
 30
0.0
 11
2.0364
 21
7.5695
 31
0.0
  0
LINE
  8
0
 62
     0
 10
2.0364
 20
7.5695
 30
0.0
 11
2.2035
 21
7.9445
 31
0.0
  0
LINE
  8
0
 62
     0
 10
2.2035
 20
7.9445
 30
0.0
 11
2.39583
 21
8.29167
 31
0.0
  0
LINE
  8
0
 62
     0
 10
2.39583
 20
8.29167
 30
0.0
 11
2.60938
 21
8.61068
 31
0.0
  0
LINE
  8
0
 62
     0
 10
2.60938
 20
8.61068
 30
0.0
 11
2.84028
 21
8.90104
 31
0.0
  0
LINE
  8
0
 62
     0
 10
2.84028
 20
8.90104
 30
0.0
 11
3.08854
 21
9.16276
 31
0.0
  0
LINE
  8
0
 62
     0
 10
3.08854
 20
9.16276
 30
0.0
 11
3.35417
 21
9.39583
 31
0.0
  0
LINE
  8
0
 62
     0
 10
3.35417
 20
9.39583
 30
0.0
 11
3.6345
 21
9.60075
 31
0.0
  0
LINE
  8
0
 62
     0
 10
3.6345
 20
9.60075
 30
0.0
 11
3.92703
 21
9.77783
 31
0.0
  0
LINE
  8
0
 62
     0
 10
3.92703
 20
9.77783
 30
0.0
 11
4.23172
 21
9.92714
 31
0.0
  0
LINE
  8
0
 62
     0
 10
4.23172
 20
9.92714
 30
0.0
 11
4.54861
 21
10.0486
 31
0.0
  0
LINE
  8
0
 62
     0
 10
4.54861
 20
10.0486
 30
0.0
 11
4.87283
 21
10.1428
 31
0.0
  0
LINE
  8
0
 62
     0
 10
4.87283
 20
10.1428
 30
0.0
 11
5.19965
 21
10.2101
 31
0.0
  0
LINE
  8
0
 62
     0
 10
5.19965
 20
10.2101
 30
0.0
 11
5.52908
 21
10.2504
 31
0.0
  0
LINE
  8
0
 62
     0
 10
5.52908
 20
10.2504
 30
0.0
 11
5.86111
 21
10.2639
 31
0.0
  0
LINE
  8
0
 62
     0
 10
5.86111
 20
10.2639
 30
0.0
 11
6.17231
 21
10.2569
 31
0.0
  0
LINE
  8
0
 62
     0
 10
6.17231
 20
10.2569
 30
0.0
 11
6.46701
 21
10.2361
 31
0.0
  0
LINE
  8
0
 62
     0
 10
6.46701
 20
10.2361
 30
0.0
 11
6.74522
 21
10.2014
 31
0.0
  0
LINE
  8
0
 62
     0
 10
6.74522
 20
10.2014
 30
0.0
 11
7.00694
 21
10.1528
 31
0.0
  0
LINE
  8
0
 62
     0
 10
7.00694
 20
10.1528
 30
0.0
 11
7.48785
 21
10.0139
 31
0.0
  0
LINE
  8
0
 62
     0
 10
7.48785
 20
10.0139
 30
0.0
 11
7.91667
 21
9.81944
 31
0.0
  0
LINE
  8
0
 62
     0
 10
7.91667
 20
9.81944
 30
0.0
 11
8.30029
 21
9.56944
 31
0.0
  0
LINE
  8
0
 62
     0
 10
8.30029
 20
9.56944
 30
0.0
 11
8.64583
 21
9.26389
 31
0.0
  0
LINE
  8
0
 62
     0
 10
8.64583
 20
9.26389
 30
0.0
 11
8.96007
 21
8.90278
 31
0.0
  0
LINE
  8
0
 62
     0
 10
8.96007
 20
8.90278
 30
0.0
 11
9.25
 21
8.48611
 31
0.0
  0
LINE
  8
0
 62
     0
 10
9.25
 20
8.48611
 30
0.0
 11
8.36111
 21
7.68056
 31
0.0
  0
LINE
  8
0
 62
     0
 10
8.36111
 20
7.68056
 30
0.0
 11
8.1645
 21
7.98529
 31
0.0
  0
LINE
  8
0
 62
     0
 10
8.1645
 20
7.98529
 30
0.0
 11
7.93576
 21
8.26047
 31
0.0
  0
LINE
  8
0
 62
     0
 10
7.93576
 20
8.26047
 30
0.0
 11
7.67492
 21
8.50612
 31
0.0
  0
LINE
  8
0
 62
     0
 10
7.67492
 20
8.50612
 30
0.0
 11
7.38194
 21
8.72222
 31
0.0
  0
LINE
  8
0
 62
     0
 10
7.38194
 20
8.72222
 30
0.0
 11
7.05681
 21
8.89844
 31
0.0
  0
LINE
  8
0
 62
     0
 10
7.05681
 20
8.89844
 30
0.0
 11
6.6996
 21
9.02431
 31
0.0
  0
LINE
  8
0
 62
     0
 10
6.6996
 20
9.02431
 30
0.0
 11
6.31028
 21
9.09983
 31
0.0
  0
LINE
  8
0
 62
     0
 10
6.31028
 20
9.09983
 30
0.0
 11
5.88889
 21
9.125
 31
0.0
  0
LINE
  8
0
 62
     0
 10
5.88889
 20
9.125
 30
0.0
 11
5.60417
 21
9.11376
 31
0.0
  0
LINE
  8
0
 62
     0
 10
5.60417
 20
9.11376
 30
0.0
 11
5.33333
 21
9.07992
 31
0.0
  0
LINE
  8
0
 62
     0
 10
5.33333
 20
9.07992
 30
0.0
 11
5.07639
 21
9.02349
 31
0.0
  0
LINE
  8
0
 62
     0
 10
5.07639
 20
9.02349
 30
0.0
 11
4.83333
 21
8.94444
 31
0.0
  0
LINE
  8
0
 62
     0
 10
4.83333
 20
8.94444
 30
0.0
 11
4.60454
 21
8.84549
 31
0.0
  0
LINE
  8
0
 62
     0
 10
4.60454
 20
8.84549
 30
0.0
 11
4.39057
 21
8.72917
 31
0.0
  0
LINE
  8
0
 62
     0
 10
4.39057
 20
8.72917
 30
0.0
 11
4.19135
 21
8.59549
 31
0.0
  0
LINE
  8
0
 62
     0
 10
4.19135
 20
8.59549
 30
0.0
 11
4.00694
 21
8.44444
 31
0.0
  0
LINE
  8
0
 62
     0
 10
4.00694
 20
8.44444
 30
0.0
 11
3.83637
 21
8.2774
 31
0.0
  0
LINE
  8
0
 62
     0
 10
3.83637
 20
8.2774
 30
0.0
 11
3.67882
 21
8.09554
 31
0.0
  0
LINE
  8
0
 62
     0
 10
3.67882
 20
8.09554
 30
0.0
 11
3.53429
 21
7.89893
 31
0.0
  0
LINE
  8
0
 62
     0
 10
3.53429
 20
7.89893
 30
0.0
 11
3.40278
 21
7.6875
 31
0.0
  0
LINE
  8
0
 62
     0
 10
3.40278
 20
7.6875
 30
0.0
 11
3.18056
 21
7.23096
 31
0.0
  0
LINE
  8
0
 62
     0
 10
3.18056
 20
7.23096
 30
0.0
 11
3.01389
 21
6.73611
 31
0.0
  0
LINE
  8
0
 62
     0
 10
3.01389
 20
6.73611
 30
0.0
 11
5.43056
 21
6.73611
 31
0.0
  0
LINE
  8
0
 62
     0
 10
5.43056
 20
6.73611
 30
0.0
 11
5.43056
 21
5.81944
 31
0.0
  0
ENDSEC
  0
EOF
