  0
SECTION
  2
HEADER
  9
$ACADVER
  1
AC1009
  9
$EXTMIN
 10
0.0
 20
0.0
 30
0.0
  9
$EXTMAX
 10
1000.0
 20
1000.0
 30
0.0
  9
$FILLMODE
 70
 0
  9
$SPLFRAME
 70
 1
  0
ENDSEC
  0
SECTION
  2
TABLES
  0
TABLE
  2
LAYER
 70
1
  0
LAYER
  2
0
 70
     0
 62
     7
  6
CONTINUOUS
  0
ENDTAB
  0
ENDSEC
  0
SECTION
  2
ENTITIES
  0
LINE
  8
0
 62
     0
 10
8.76389
 20
5.41667
 30
0.0
 11
8.76389
 21
-0
 31
0.0
  0
LINE
  8
0
 62
     0
 10
8.76389
 20
-0
 30
0.0
 11
7.63889
 21
-0
 31
0.0
  0
LINE
  8
0
 62
     0
 10
7.63889
 20
-0
 30
0.0
 11
7.63889
 21
1.01389
 31
0.0
  0
LINE
  8
0
 62
     0
 10
7.63889
 20
1.01389
 30
0.0
 11
7.41183
 21
0.764811
 31
0.0
  0
LINE
  8
0
 62
     0
 10
7.41183
 20
0.764811
 30
0.0
 11
7.16146
 21
0.545193
 31
0.0
  0
LINE
  8
0
 62
     0
 10
7.16146
 20
0.545193
 30
0.0
 11
6.88758
 21
0.355089
 31
0.0
  0
LINE
  8
0
 62
     0
 10
6.88758
 20
0.355089
 30
0.0
 11
6.59028
 21
0.194444
 31
0.0
  0
LINE
  8
0
 62
     0
 10
6.59028
 20
0.194444
 30
0.0
 11
6.27035
 21
0.0668403
 31
0.0
  0
LINE
  8
0
 62
     0
 10
6.27035
 20
0.0668403
 30
0.0
 11
5.92876
 21
-0.0243056
 31
0.0
  0
LINE
  8
0
 62
     0
 10
5.92876
 20
-0.0243056
 30
0.0
 11
5.56549
 21
-0.0789931
 31
0.0
  0
LINE
  8
0
 62
     0
 10
5.56549
 20
-0.0789931
 30
0.0
 11
5.18056
 21
-0.0972222
 31
0.0
  0
LINE
  8
0
 62
     0
 10
5.18056
 20
-0.0972222
 30
0.0
 11
4.7539
 21
-0.0807292
 31
0.0
  0
LINE
  8
0
 62
     0
 10
4.7539
 20
-0.0807292
 30
0.0
 11
4.33507
 21
-0.03125
 31
0.0
  0
LINE
  8
0
 62
     0
 10
4.33507
 20
-0.03125
 30
0.0
 11
3.92399
 21
0.0512153
 31
0.0
  0
LINE
  8
0
 62
     0
 10
3.92399
 20
0.0512153
 30
0.0
 11
3.52083
 21
0.166667
 31
0.0
  0
LINE
  8
0
 62
     0
 10
3.52083
 20
0.166667
 30
0.0
 11
3.13238
 21
0.319933
 31
0.0
  0
LINE
  8
0
 62
     0
 10
3.13238
 20
0.319933
 30
0.0
 11
2.76563
 21
0.515679
 31
0.0
  0
LINE
  8
0
 62
     0
 10
2.76563
 20
0.515679
 30
0.0
 11
2.42057
 21
0.753961
 31
0.0
  0
LINE
  8
0
 62
     0
 10
2.42057
 20
0.753961
 30
0.0
 11
2.09722
 21
1.03472
 31
0.0
  0
LINE
  8
0
 62
     0
 10
2.09722
 20
1.03472
 30
0.0
 11
1.80035
 21
1.36073
 31
0.0
  0
LINE
  8
0
 62
     0
 10
1.80035
 20
1.36073
 30
0.0
 11
1.53472
 21
1.73443
 31
0.0
  0
LINE
  8
0
 62
     0
 10
1.53472
 20
1.73443
 30
0.0
 11
1.30035
 21
2.15588
 31
0.0
  0
LINE
  8
0
 62
     0
 10
1.30035
 20
2.15588
 30
0.0
 11
1.09722
 21
2.625
 31
0.0
  0
LINE
  8
0
 62
     0
 10
1.09722
 20
2.625
 30
0.0
 11
0.93316
 21
3.14757
 31
0.0
  0
LINE
  8
0
 62
     0
 10
0.93316
 20
3.14757
 30
0.0
 11
0.815972
 21
3.72917
 31
0.0
  0
LINE
  8
0
 62
     0
 10
0.815972
 20
3.72917
 30
0.0
 11
0.74566
 21
4.36979
 31
0.0
  0
LINE
  8
0
 62
     0
 10
0.74566
 20
4.36979
 30
0.0
 11
0.722222
 21
5.06944
 31
0.0
  0
LINE
  8
0
 62
     0
 10
0.722222
 20
5.06944
 30
0.0
 11
0.746474
 21
5.70188
 31
0.0
  0
LINE
  8
0
 62
     0
 10
0.746474
 20
5.70188
 30
0.0
 11
0.81939
 21
6.29346
 31
0.0
  0
LINE
  8
0
 62
     0
 10
0.81939
 20
6.29346
 30
0.0
 11
0.940918
 21
6.84424
 31
0.0
  0
LINE
  8
0
 62
     0
 10
0.940918
 20
6.84424
 30
0.0
 11
1.11111
 21
7.35417
 31
0.0
  0
LINE
  8
0
 62
     0
 10
1.11111
 20
7.35417
 30
0.0
 11
1.32118
 21
7.82292
 31
0.0
  0
LINE
  8
0
 62
     0
 10
1.32118
 20
7.82292
 30
0.0
 11
1.5625
 21
8.25
 31
0.0
  0
LINE
  8
0
 62
     0
 10
1.5625
 20
8.25
 30
0.0
 11
1.83501
 21
8.63542
 31
0.0
  0
LINE
  8
0
 62
     0
 10
1.83501
 20
8.63542
 30
0.0
 11
2.13889
 21
8.97917
 31
0.0
  0
LINE
  8
0
 62
     0
 10
2.13889
 20
8.97917
 30
0.0
 11
2.46918
 21
9.28174
 31
0.0
  0
LINE
  8
0
 62
     0
 10
2.46918
 20
9.28174
 30
0.0
 11
2.82118
 21
9.54346
 31
0.0
  0
LINE
  8
0
 62
     0
 10
2.82118
 20
9.54346
 30
0.0
 11
3.19488
 21
9.76437
 31
0.0
  0
LINE
  8
0
 62
     0
 10
3.19488
 20
9.76437
 30
0.0
 11
3.59028
 21
9.94444
 31
0.0
  0
LINE
  8
0
 62
     0
 10
3.59028
 20
9.94444
 30
0.0
 11
3.99864
 21
10.0842
 31
0.0
  0
LINE
  8
0
 62
     0
 10
3.99864
 20
10.0842
 30
0.0
 11
4.4114
 21
10.184
 31
0.0
  0
LINE
  8
0
 62
     0
 10
4.4114
 20
10.184
 30
0.0
 11
4.8285
 21
10.2439
 31
0.0
  0
LINE
  8
0
 62
     0
 10
4.8285
 20
10.2439
 30
0.0
 11
5.25
 21
10.2639
 31
0.0
  0
LINE
  8
0
 62
     0
 10
5.25
 20
10.2639
 30
0.0
 11
5.56076
 21
10.2569
 31
0.0
  0
LINE
  8
0
 62
     0
 10
5.56076
 20
10.2569
 30
0.0
 11
5.85417
 21
10.2361
 31
0.0
  0
LINE
  8
0
 62
     0
 10
5.85417
 20
10.2361
 30
0.0
 11
6.13021
 21
10.2014
 31
0.0
  0
LINE
  8
0
 62
     0
 10
6.13021
 20
10.2014
 30
0.0
 11
6.38889
 21
10.1528
 31
0.0
  0
LINE
  8
0
 62
     0
 10
6.38889
 20
10.1528
 30
0.0
 11
6.86285
 21
10.0139
 31
0.0
  0
LINE
  8
0
 62
     0
 10
6.86285
 20
10.0139
 30
0.0
 11
7.28472
 21
9.81944
 31
0.0
  0
LINE
  8
0
 62
     0
 10
7.28472
 20
9.81944
 30
0.0
 11
7.66146
 21
9.56944
 31
0.0
  0
LINE
  8
0
 62
     0
 10
7.66146
 20
9.56944
 30
0.0
 11
8
 21
9.26389
 31
0.0
  0
LINE
  8
0
 62
     0
 10
8
 20
9.26389
 30
0.0
 11
8.30903
 21
8.90278
 31
0.0
  0
LINE
  8
0
 62
     0
 10
8.30903
 20
8.90278
 30
0.0
 11
8.59722
 21
8.48611
 31
0.0
  0
LINE
  8
0
 62
     0
 10
8.59722
 20
8.48611
 30
0.0
 11
7.70833
 21
7.70833
 31
0.0
  0
LINE
  8
0
 62
     0
 10
7.70833
 20
7.70833
 30
0.0
 11
7.51303
 21
8.01307
 31
0.0
  0
LINE
  8
0
 62
     0
 10
7.51303
 20
8.01307
 30
0.0
 11
7.28819
 21
8.28825
 31
0.0
  0
LINE
  8
0
 62
     0
 10
7.28819
 20
8.28825
 30
0.0
 11
7.03386
 21
8.5339
 31
0.0
  0
LINE
  8
0
 62
     0
 10
7.03386
 20
8.5339
 30
0.0
 11
6.75
 21
8.75
 31
0.0
  0
LINE
  8
0
 62
     0
 10
6.75
 20
8.75
 30
0.0
 11
6.43397
 21
8.92622
 31
0.0
  0
LINE
  8
0
 62
     0
 10
6.43397
 20
8.92622
 30
0.0
 11
6.08328
 21
9.05208
 31
0.0
  0
LINE
  8
0
 62
     0
 10
6.08328
 20
9.05208
 30
0.0
 11
5.69786
 21
9.12761
 31
0.0
  0
LINE
  8
0
 62
     0
 10
5.69786
 20
9.12761
 30
0.0
 11
5.27778
 21
9.15278
 31
0.0
  0
LINE
  8
0
 62
     0
 10
5.27778
 20
9.15278
 30
0.0
 11
4.86757
 21
9.13151
 31
0.0
  0
LINE
  8
0
 62
     0
 10
4.86757
 20
9.13151
 30
0.0
 11
4.48432
 21
9.06771
 31
0.0
  0
LINE
  8
0
 62
     0
 10
4.48432
 20
9.06771
 30
0.0
 11
4.12799
 21
8.96137
 31
0.0
  0
LINE
  8
0
 62
     0
 10
4.12799
 20
8.96137
 30
0.0
 11
3.79861
 21
8.8125
 31
0.0
  0
LINE
  8
0
 62
     0
 10
3.79861
 20
8.8125
 30
0.0
 11
3.49561
 21
8.62804
 31
0.0
  0
LINE
  8
0
 62
     0
 10
3.49561
 20
8.62804
 30
0.0
 11
3.21869
 21
8.41493
 31
0.0
  0
LINE
  8
0
 62
     0
 10
3.21869
 20
8.41493
 30
0.0
 11
2.96783
 21
8.17318
 31
0.0
  0
LINE
  8
0
 62
     0
 10
2.96783
 20
8.17318
 30
0.0
 11
2.74306
 21
7.90278
 31
0.0
  0
LINE
  8
0
 62
     0
 10
2.74306
 20
7.90278
 30
0.0
 11
2.54471
 21
7.60769
 31
0.0
  0
LINE
  8
0
 62
     0
 10
2.54471
 20
7.60769
 30
0.0
 11
2.37326
 21
7.29167
 31
0.0
  0
LINE
  8
0
 62
     0
 10
2.37326
 20
7.29167
 30
0.0
 11
2.22874
 21
6.95486
 31
0.0
  0
LINE
  8
0
 62
     0
 10
2.22874
 20
6.95486
 30
0.0
 11
2.11111
 21
6.59722
 31
0.0
  0
LINE
  8
0
 62
     0
 10
2.11111
 20
6.59722
 30
0.0
 11
2.01997
 21
6.22575
 31
0.0
  0
LINE
  8
0
 62
     0
 10
2.01997
 20
6.22575
 30
0.0
 11
1.95486
 21
5.84728
 31
0.0
  0
LINE
  8
0
 62
     0
 10
1.95486
 20
5.84728
 30
0.0
 11
1.91581
 21
5.46186
 31
0.0
  0
LINE
  8
0
 62
     0
 10
1.91581
 20
5.46186
 30
0.0
 11
1.90278
 21
5.06944
 31
0.0
  0
LINE
  8
0
 62
     0
 10
1.90278
 20
5.06944
 30
0.0
 11
1.91581
 21
4.66542
 31
0.0
  0
LINE
  8
0
 62
     0
 10
1.91581
 20
4.66542
 30
0.0
 11
1.95486
 21
4.27263
 31
0.0
  0
LINE
  8
0
 62
     0
 10
1.95486
 20
4.27263
 30
0.0
 11
2.01997
 21
3.89111
 31
0.0
  0
LINE
  8
0
 62
     0
 10
2.01997
 20
3.89111
 30
0.0
 11
2.11111
 21
3.52083
 31
0.0
  0
LINE
  8
0
 62
     0
 10
2.11111
 20
3.52083
 30
0.0
 11
2.22831
 21
3.16667
 31
0.0
  0
LINE
  8
0
 62
     0
 10
2.22831
 20
3.16667
 30
0.0
 11
2.37153
 21
2.83333
 31
0.0
  0
LINE
  8
0
 62
     0
 10
2.37153
 20
2.83333
 30
0.0
 11
2.54081
 21
2.52083
 31
0.0
  0
LINE
  8
0
 62
     0
 10
2.54081
 20
2.52083
 30
0.0
 11
2.73611
 21
2.22917
 31
0.0
  0
LINE
  8
0
 62
     0
 10
2.73611
 20
2.22917
 30
0.0
 11
2.95747
 21
1.96272
 31
0.0
  0
LINE
  8
0
 62
     0
 10
2.95747
 20
1.96272
 30
0.0
 11
3.20486
 21
1.72575
 31
0.0
  0
LINE
  8
0
 62
     0
 10
3.20486
 20
1.72575
 30
0.0
 11
3.47831
 21
1.51828
 31
0.0
  0
LINE
  8
0
 62
     0
 10
3.47831
 20
1.51828
 30
0.0
 11
3.77778
 21
1.34028
 31
0.0
  0
LINE
  8
0
 62
     0
 10
3.77778
 20
1.34028
 30
0.0
 11
4.10411
 21
1.19748
 31
0.0
  0
LINE
  8
0
 62
     0
 10
4.10411
 20
1.19748
 30
0.0
 11
4.45828
 21
1.09549
 31
0.0
  0
LINE
  8
0
 62
     0
 10
4.45828
 20
1.09549
 30
0.0
 11
4.84022
 21
1.03429
 31
0.0
  0
LINE
  8
0
 62
     0
 10
4.84022
 20
1.03429
 30
0.0
 11
5.25
 21
1.01389
 31
0.0
  0
LINE
  8
0
 62
     0
 10
5.25
 20
1.01389
 30
0.0
 11
5.40972
 21
1.02089
 31
0.0
  0
LINE
  8
0
 62
     0
 10
5.40972
 20
1.02089
 30
0.0
 11
5.58333
 21
1.04172
 31
0.0
  0
LINE
  8
0
 62
     0
 10
5.58333
 20
1.04172
 30
0.0
 11
5.77083
 21
1.07644
 31
0.0
  0
LINE
  8
0
 62
     0
 10
5.77083
 20
1.07644
 30
0.0
 11
5.97222
 21
1.125
 31
0.0
  0
LINE
  8
0
 62
     0
 10
5.97222
 20
1.125
 30
0.0
 11
6.37668
 21
1.26389
 31
0.0
  0
LINE
  8
0
 62
     0
 10
6.37668
 20
1.26389
 30
0.0
 11
6.75694
 21
1.45833
 31
0.0
  0
LINE
  8
0
 62
     0
 10
6.75694
 20
1.45833
 30
0.0
 11
7.09722
 21
1.7066
 31
0.0
  0
LINE
  8
0
 62
     0
 10
7.09722
 20
1.7066
 30
0.0
 11
7.38194
 21
2.00694
 31
0.0
  0
LINE
  8
0
 62
     0
 10
7.38194
 20
2.00694
 30
0.0
 11
7.49431
 21
2.17671
 31
0.0
  0
LINE
  8
0
 62
     0
 10
7.49431
 20
2.17671
 30
0.0
 11
7.5746
 21
2.35938
 31
0.0
  0
LINE
  8
0
 62
     0
 10
7.5746
 20
2.35938
 30
0.0
 11
7.62278
 21
2.55512
 31
0.0
  0
LINE
  8
0
 62
     0
 10
7.62278
 20
2.55512
 30
0.0
 11
7.63889
 21
2.76389
 31
0.0
  0
LINE
  8
0
 62
     0
 10
7.63889
 20
2.76389
 30
0.0
 11
7.63889
 21
4.33333
 31
0.0
  0
LINE
  8
0
 62
     0
 10
7.63889
 20
4.33333
 30
0.0
 11
5.09722
 21
4.33333
 31
0.0
  0
LINE
  8
0
 62
     0
 10
5.09722
 20
4.33333
 30
0.0
 11
5.09722
 21
5.41667
 31
0.0
  0
LINE
  8
0
 62
     0
 10
5.09722
 20
5.41667
 30
0.0
 11
8.76389
 21
5.41667
 31
0.0
  0
ENDSEC
  0
EOF
