  0
SECTION
  2
HEADER
  9
$ACADVER
  1
AC1009
  9
$EXTMIN
 10
0.0
 20
0.0
 30
0.0
  9
$EXTMAX
 10
1000.0
 20
1000.0
 30
0.0
  9
$FILLMODE
 70
 0
  9
$SPLFRAME
 70
 1
  0
ENDSEC
  0
SECTION
  2
TABLES
  0
TABLE
  2
LAYER
 70
1
  0
LAYER
  2
0
 70
     0
 62
     7
  6
CONTINUOUS
  0
ENDTAB
  0
ENDSEC
  0
SECTION
  2
ENTITIES
  0
LINE
  8
0
 62
     0
 10
2.15278
 20
5.76389
 30
0.0
 11
2.38064
 21
5.99522
 31
0.0
  0
LINE
  8
0
 62
     0
 10
2.38064
 20
5.99522
 30
0.0
 11
2.63368
 21
6.20313
 31
0.0
  0
LINE
  8
0
 62
     0
 10
2.63368
 20
6.20313
 30
0.0
 11
2.91189
 21
6.38764
 31
0.0
  0
LINE
  8
0
 62
     0
 10
2.91189
 20
6.38764
 30
0.0
 11
3.21528
 21
6.54861
 31
0.0
  0
LINE
  8
0
 62
     0
 10
3.21528
 20
6.54861
 30
0.0
 11
3.53597
 21
6.67925
 31
0.0
  0
LINE
  8
0
 62
     0
 10
3.53597
 20
6.67925
 30
0.0
 11
3.86626
 21
6.77257
 31
0.0
  0
LINE
  8
0
 62
     0
 10
3.86626
 20
6.77257
 30
0.0
 11
4.20611
 21
6.82856
 31
0.0
  0
LINE
  8
0
 62
     0
 10
4.20611
 20
6.82856
 30
0.0
 11
4.55556
 21
6.84722
 31
0.0
  0
LINE
  8
0
 62
     0
 10
4.55556
 20
6.84722
 30
0.0
 11
4.74447
 21
6.83599
 31
0.0
  0
LINE
  8
0
 62
     0
 10
4.74447
 20
6.83599
 30
0.0
 11
4.92231
 21
6.80214
 31
0.0
  0
LINE
  8
0
 62
     0
 10
4.92231
 20
6.80214
 30
0.0
 11
5.08908
 21
6.74571
 31
0.0
  0
LINE
  8
0
 62
     0
 10
5.08908
 20
6.74571
 30
0.0
 11
5.24479
 21
6.66672
 31
0.0
  0
LINE
  8
0
 62
     0
 10
5.24479
 20
6.66672
 30
0.0
 11
5.38943
 21
6.56515
 31
0.0
  0
LINE
  8
0
 62
     0
 10
5.38943
 20
6.56515
 30
0.0
 11
5.523
 21
6.44103
 31
0.0
  0
LINE
  8
0
 62
     0
 10
5.523
 20
6.44103
 30
0.0
 11
5.64551
 21
6.29432
 31
0.0
  0
LINE
  8
0
 62
     0
 10
5.64551
 20
6.29432
 30
0.0
 11
5.75694
 21
6.125
 31
0.0
  0
LINE
  8
0
 62
     0
 10
5.75694
 20
6.125
 30
0.0
 11
5.94222
 21
5.73611
 31
0.0
  0
LINE
  8
0
 62
     0
 10
5.94222
 20
5.73611
 30
0.0
 11
6.0746
 21
5.29167
 31
0.0
  0
LINE
  8
0
 62
     0
 10
6.0746
 20
5.29167
 30
0.0
 11
6.15403
 21
4.79167
 31
0.0
  0
LINE
  8
0
 62
     0
 10
6.15403
 20
4.79167
 30
0.0
 11
6.18056
 21
4.23611
 31
0.0
  0
LINE
  8
0
 62
     0
 10
6.18056
 20
4.23611
 30
0.0
 11
6.18056
 21
-0
 31
0.0
  0
LINE
  8
0
 62
     0
 10
6.18056
 20
-0
 30
0.0
 11
7.33333
 21
-0
 31
0.0
  0
LINE
  8
0
 62
     0
 10
7.33333
 20
-0
 30
0.0
 11
7.33333
 21
4.22222
 31
0.0
  0
LINE
  8
0
 62
     0
 10
7.33333
 20
4.22222
 30
0.0
 11
7.32503
 21
4.61025
 31
0.0
  0
LINE
  8
0
 62
     0
 10
7.32503
 20
4.61025
 30
0.0
 11
7.30029
 21
4.98264
 31
0.0
  0
LINE
  8
0
 62
     0
 10
7.30029
 20
4.98264
 30
0.0
 11
7.25906
 21
5.33942
 31
0.0
  0
LINE
  8
0
 62
     0
 10
7.25906
 20
5.33942
 30
0.0
 11
7.20139
 21
5.68056
 31
0.0
  0
LINE
  8
0
 62
     0
 10
7.20139
 20
5.68056
 30
0.0
 11
7.12369
 21
6.00304
 31
0.0
  0
LINE
  8
0
 62
     0
 10
7.12369
 20
6.00304
 30
0.0
 11
7.02257
 21
6.30382
 31
0.0
  0
LINE
  8
0
 62
     0
 10
7.02257
 20
6.30382
 30
0.0
 11
6.89794
 21
6.5829
 31
0.0
  0
LINE
  8
0
 62
     0
 10
6.89794
 20
6.5829
 30
0.0
 11
6.75
 21
6.84028
 31
0.0
  0
LINE
  8
0
 62
     0
 10
6.75
 20
6.84028
 30
0.0
 11
6.57725
 21
7.07297
 31
0.0
  0
LINE
  8
0
 62
     0
 10
6.57725
 20
7.07297
 30
0.0
 11
6.37847
 21
7.27783
 31
0.0
  0
LINE
  8
0
 62
     0
 10
6.37847
 20
7.27783
 30
0.0
 11
6.1536
 21
7.45492
 31
0.0
  0
LINE
  8
0
 62
     0
 10
6.1536
 20
7.45492
 30
0.0
 11
5.90278
 21
7.60417
 31
0.0
  0
LINE
  8
0
 62
     0
 10
5.90278
 20
7.60417
 30
0.0
 11
5.62239
 21
7.72265
 31
0.0
  0
LINE
  8
0
 62
     0
 10
5.62239
 20
7.72265
 30
0.0
 11
5.30903
 21
7.80729
 31
0.0
  0
LINE
  8
0
 62
     0
 10
5.30903
 20
7.80729
 30
0.0
 11
4.96267
 21
7.85807
 31
0.0
  0
LINE
  8
0
 62
     0
 10
4.96267
 20
7.85807
 30
0.0
 11
4.58333
 21
7.875
 31
0.0
  0
LINE
  8
0
 62
     0
 10
4.58333
 20
7.875
 30
0.0
 11
4.25211
 21
7.85764
 31
0.0
  0
LINE
  8
0
 62
     0
 10
4.25211
 20
7.85764
 30
0.0
 11
3.92529
 21
7.80556
 31
0.0
  0
LINE
  8
0
 62
     0
 10
3.92529
 20
7.80556
 30
0.0
 11
3.60281
 21
7.71875
 31
0.0
  0
LINE
  8
0
 62
     0
 10
3.60281
 20
7.71875
 30
0.0
 11
3.28472
 21
7.59722
 31
0.0
  0
LINE
  8
0
 62
     0
 10
3.28472
 20
7.59722
 30
0.0
 11
2.977
 21
7.44624
 31
0.0
  0
LINE
  8
0
 62
     0
 10
2.977
 20
7.44624
 30
0.0
 11
2.68576
 21
7.27089
 31
0.0
  0
LINE
  8
0
 62
     0
 10
2.68576
 20
7.27089
 30
0.0
 11
2.41103
 21
7.07124
 31
0.0
  0
LINE
  8
0
 62
     0
 10
2.41103
 20
7.07124
 30
0.0
 11
2.15278
 21
6.84722
 31
0.0
  0
LINE
  8
0
 62
     0
 10
2.15278
 20
6.84722
 30
0.0
 11
2.15278
 21
7.72222
 31
0.0
  0
LINE
  8
0
 62
     0
 10
2.15278
 20
7.72222
 30
0.0
 11
1
 21
7.72222
 31
0.0
  0
LINE
  8
0
 62
     0
 10
1
 20
7.72222
 30
0.0
 11
1
 21
-0
 31
0.0
  0
LINE
  8
0
 62
     0
 10
1
 20
-0
 30
0.0
 11
2.15278
 21
-0
 31
0.0
  0
LINE
  8
0
 62
     0
 10
2.15278
 20
-0
 30
0.0
 11
2.15278
 21
5.76389
 31
0.0
  0
LINE
  8
0
 62
     0
 10
1.66667
 20
9.40278
 30
0.0
 11
1.68229
 21
9.66146
 31
0.0
  0
LINE
  8
0
 62
     0
 10
1.68229
 20
9.66146
 30
0.0
 11
1.72917
 21
9.9375
 31
0.0
  0
LINE
  8
0
 62
     0
 10
1.72917
 20
9.9375
 30
0.0
 11
1.81771
 21
10.2118
 31
0.0
  0
LINE
  8
0
 62
     0
 10
1.81771
 20
10.2118
 30
0.0
 11
1.95833
 21
10.4653
 31
0.0
  0
LINE
  8
0
 62
     0
 10
1.95833
 20
10.4653
 30
0.0
 11
2.15278
 21
10.6876
 31
0.0
  0
LINE
  8
0
 62
     0
 10
2.15278
 20
10.6876
 30
0.0
 11
2.40278
 21
10.8681
 31
0.0
  0
LINE
  8
0
 62
     0
 10
2.40278
 20
10.8681
 30
0.0
 11
2.55029
 21
10.938
 31
0.0
  0
LINE
  8
0
 62
     0
 10
2.55029
 20
10.938
 30
0.0
 11
2.71522
 21
10.9879
 31
0.0
  0
LINE
  8
0
 62
     0
 10
2.71522
 20
10.9879
 30
0.0
 11
2.89751
 21
11.0178
 31
0.0
  0
LINE
  8
0
 62
     0
 10
2.89751
 20
11.0178
 30
0.0
 11
3.09722
 21
11.0278
 31
0.0
  0
LINE
  8
0
 62
     0
 10
3.09722
 20
11.0278
 30
0.0
 11
3.29775
 21
11.0178
 31
0.0
  0
LINE
  8
0
 62
     0
 10
3.29775
 20
11.0178
 30
0.0
 11
3.48264
 21
10.9879
 31
0.0
  0
LINE
  8
0
 62
     0
 10
3.48264
 20
10.9879
 30
0.0
 11
3.65192
 21
10.938
 31
0.0
  0
LINE
  8
0
 62
     0
 10
3.65192
 20
10.938
 30
0.0
 11
3.80556
 21
10.8681
 31
0.0
  0
LINE
  8
0
 62
     0
 10
3.80556
 20
10.8681
 30
0.0
 11
4.0816
 21
10.7014
 31
0.0
  0
LINE
  8
0
 62
     0
 10
4.0816
 20
10.7014
 30
0.0
 11
4.32639
 21
10.5208
 31
0.0
  0
LINE
  8
0
 62
     0
 10
4.32639
 20
10.5208
 30
0.0
 11
4.55035
 21
10.342
 31
0.0
  0
LINE
  8
0
 62
     0
 10
4.55035
 20
10.342
 30
0.0
 11
4.76389
 21
10.1806
 31
0.0
  0
LINE
  8
0
 62
     0
 10
4.76389
 20
10.1806
 30
0.0
 11
4.97917
 21
10.066
 31
0.0
  0
LINE
  8
0
 62
     0
 10
4.97917
 20
10.066
 30
0.0
 11
5.20833
 21
10.0278
 31
0.0
  0
LINE
  8
0
 62
     0
 10
5.20833
 20
10.0278
 30
0.0
 11
5.39057
 21
10.0521
 31
0.0
  0
LINE
  8
0
 62
     0
 10
5.39057
 20
10.0521
 30
0.0
 11
5.54861
 21
10.125
 31
0.0
  0
LINE
  8
0
 62
     0
 10
5.54861
 20
10.125
 30
0.0
 11
5.68224
 21
10.2344
 31
0.0
  0
LINE
  8
0
 62
     0
 10
5.68224
 20
10.2344
 30
0.0
 11
5.79167
 21
10.3681
 31
0.0
  0
LINE
  8
0
 62
     0
 10
5.79167
 20
10.3681
 30
0.0
 11
5.87674
 21
10.5209
 31
0.0
  0
LINE
  8
0
 62
     0
 10
5.87674
 20
10.5209
 30
0.0
 11
5.9375
 21
10.6875
 31
0.0
  0
LINE
  8
0
 62
     0
 10
5.9375
 20
10.6875
 30
0.0
 11
5.9739
 21
10.8594
 31
0.0
  0
LINE
  8
0
 62
     0
 10
5.9739
 20
10.8594
 30
0.0
 11
5.98611
 21
11.0278
 31
0.0
  0
LINE
  8
0
 62
     0
 10
5.98611
 20
11.0278
 30
0.0
 11
6.75
 21
11.0278
 31
0.0
  0
LINE
  8
0
 62
     0
 10
6.75
 20
11.0278
 30
0.0
 11
6.72049
 21
10.7483
 31
0.0
  0
LINE
  8
0
 62
     0
 10
6.72049
 20
10.7483
 30
0.0
 11
6.63194
 21
10.4653
 31
0.0
  0
LINE
  8
0
 62
     0
 10
6.63194
 20
10.4653
 30
0.0
 11
6.49126
 21
10.1927
 31
0.0
  0
LINE
  8
0
 62
     0
 10
6.49126
 20
10.1927
 30
0.0
 11
6.30556
 21
9.94444
 31
0.0
  0
LINE
  8
0
 62
     0
 10
6.30556
 20
9.94444
 30
0.0
 11
6.07981
 21
9.72911
 31
0.0
  0
LINE
  8
0
 62
     0
 10
6.07981
 20
9.72911
 30
0.0
 11
5.81944
 21
9.55556
 31
0.0
  0
LINE
  8
0
 62
     0
 10
5.81944
 20
9.55556
 30
0.0
 11
5.53472
 21
9.44103
 31
0.0
  0
LINE
  8
0
 62
     0
 10
5.53472
 20
9.44103
 30
0.0
 11
5.23611
 21
9.40278
 31
0.0
  0
LINE
  8
0
 62
     0
 10
5.23611
 20
9.40278
 30
0.0
 11
4.98697
 21
9.41276
 31
0.0
  0
LINE
  8
0
 62
     0
 10
4.98697
 20
9.41276
 30
0.0
 11
4.76736
 21
9.44271
 31
0.0
  0
LINE
  8
0
 62
     0
 10
4.76736
 20
9.44271
 30
0.0
 11
4.57725
 21
9.49262
 31
0.0
  0
LINE
  8
0
 62
     0
 10
4.57725
 20
9.49262
 30
0.0
 11
4.41667
 21
9.5625
 31
0.0
  0
LINE
  8
0
 62
     0
 10
4.41667
 20
9.5625
 30
0.0
 11
4.14925
 21
9.72922
 31
0.0
  0
LINE
  8
0
 62
     0
 10
4.14925
 20
9.72922
 30
0.0
 11
3.93056
 21
9.90972
 31
0.0
  0
LINE
  8
0
 62
     0
 10
3.93056
 20
9.90972
 30
0.0
 11
3.54861
 21
10.2569
 31
0.0
  0
LINE
  8
0
 62
     0
 10
3.54861
 20
10.2569
 30
0.0
 11
3.44656
 21
10.3269
 31
0.0
  0
LINE
  8
0
 62
     0
 10
3.44656
 20
10.3269
 30
0.0
 11
3.32807
 21
10.3768
 31
0.0
  0
LINE
  8
0
 62
     0
 10
3.32807
 20
10.3768
 30
0.0
 11
3.19308
 21
10.4067
 31
0.0
  0
LINE
  8
0
 62
     0
 10
3.19308
 20
10.4067
 30
0.0
 11
3.04167
 21
10.4167
 31
0.0
  0
LINE
  8
0
 62
     0
 10
3.04167
 20
10.4167
 30
0.0
 11
2.85417
 21
10.3906
 31
0.0
  0
LINE
  8
0
 62
     0
 10
2.85417
 20
10.3906
 30
0.0
 11
2.70833
 21
10.3125
 31
0.0
  0
LINE
  8
0
 62
     0
 10
2.70833
 20
10.3125
 30
0.0
 11
2.59717
 21
10.1962
 31
0.0
  0
LINE
  8
0
 62
     0
 10
2.59717
 20
10.1962
 30
0.0
 11
2.51389
 21
10.0556
 31
0.0
  0
LINE
  8
0
 62
     0
 10
2.51389
 20
10.0556
 30
0.0
 11
2.4566
 21
9.89589
 31
0.0
  0
LINE
  8
0
 62
     0
 10
2.4566
 20
9.89589
 30
0.0
 11
2.42361
 21
9.72222
 31
0.0
  0
LINE
  8
0
 62
     0
 10
2.42361
 20
9.72222
 30
0.0
 11
2.40799
 21
9.55208
 31
0.0
  0
LINE
  8
0
 62
     0
 10
2.40799
 20
9.55208
 30
0.0
 11
2.40278
 21
9.40278
 31
0.0
  0
LINE
  8
0
 62
     0
 10
2.40278
 20
9.40278
 30
0.0
 11
1.66667
 21
9.40278
 31
0.0
  0
ENDSEC
  0
EOF
