  0
SECTION
  2
HEADER
  9
$ACADVER
  1
AC1009
  9
$EXTMIN
 10
0.0
 20
0.0
 30
0.0
  9
$EXTMAX
 10
1000.0
 20
1000.0
 30
0.0
  9
$FILLMODE
 70
 0
  9
$SPLFRAME
 70
 1
  0
ENDSEC
  0
SECTION
  2
TABLES
  0
TABLE
  2
LAYER
 70
1
  0
LAYER
  2
0
 70
     0
 62
     7
  6
CONTINUOUS
  0
ENDTAB
  0
ENDSEC
  0
SECTION
  2
ENTITIES
  0
LINE
  8
0
 62
     0
 10
2.15278
 20
-0
 30
0.0
 11
2.15278
 21
8.38889
 31
0.0
  0
LINE
  8
0
 62
     0
 10
2.15278
 20
8.38889
 30
0.0
 11
7.36111
 21
-0
 31
0.0
  0
LINE
  8
0
 62
     0
 10
7.36111
 20
-0
 30
0.0
 11
8.76389
 21
-0
 31
0.0
  0
LINE
  8
0
 62
     0
 10
8.76389
 20
-0
 30
0.0
 11
8.76389
 21
10.1389
 31
0.0
  0
LINE
  8
0
 62
     0
 10
8.76389
 20
10.1389
 30
0.0
 11
7.61111
 21
10.1389
 31
0.0
  0
LINE
  8
0
 62
     0
 10
7.61111
 20
10.1389
 30
0.0
 11
7.61111
 21
1.625
 31
0.0
  0
LINE
  8
0
 62
     0
 10
7.61111
 20
1.625
 30
0.0
 11
2.31944
 21
10.1389
 31
0.0
  0
LINE
  8
0
 62
     0
 10
2.31944
 20
10.1389
 30
0.0
 11
1
 21
10.1389
 31
0.0
  0
LINE
  8
0
 62
     0
 10
1
 20
10.1389
 30
0.0
 11
1
 21
-0
 31
0.0
  0
LINE
  8
0
 62
     0
 10
1
 20
-0
 30
0.0
 11
2.15278
 21
-0
 31
0.0
  0
LINE
  8
0
 62
     0
 10
2.61111
 20
11.3611
 30
0.0
 11
2.62674
 21
11.6198
 31
0.0
  0
LINE
  8
0
 62
     0
 10
2.62674
 20
11.6198
 30
0.0
 11
2.67361
 21
11.8958
 31
0.0
  0
LINE
  8
0
 62
     0
 10
2.67361
 20
11.8958
 30
0.0
 11
2.76215
 21
12.1703
 31
0.0
  0
LINE
  8
0
 62
     0
 10
2.76215
 20
12.1703
 30
0.0
 11
2.90278
 21
12.4236
 31
0.0
  0
LINE
  8
0
 62
     0
 10
2.90278
 20
12.4236
 30
0.0
 11
3.09722
 21
12.6459
 31
0.0
  0
LINE
  8
0
 62
     0
 10
3.09722
 20
12.6459
 30
0.0
 11
3.34722
 21
12.8264
 31
0.0
  0
LINE
  8
0
 62
     0
 10
3.34722
 20
12.8264
 30
0.0
 11
3.49474
 21
12.8963
 31
0.0
  0
LINE
  8
0
 62
     0
 10
3.49474
 20
12.8963
 30
0.0
 11
3.65967
 21
12.9462
 31
0.0
  0
LINE
  8
0
 62
     0
 10
3.65967
 20
12.9462
 30
0.0
 11
3.84196
 21
12.9762
 31
0.0
  0
LINE
  8
0
 62
     0
 10
3.84196
 20
12.9762
 30
0.0
 11
4.04167
 21
12.9861
 31
0.0
  0
LINE
  8
0
 62
     0
 10
4.04167
 20
12.9861
 30
0.0
 11
4.24219
 21
12.9762
 31
0.0
  0
LINE
  8
0
 62
     0
 10
4.24219
 20
12.9762
 30
0.0
 11
4.42708
 21
12.9462
 31
0.0
  0
LINE
  8
0
 62
     0
 10
4.42708
 20
12.9462
 30
0.0
 11
4.59636
 21
12.8963
 31
0.0
  0
LINE
  8
0
 62
     0
 10
4.59636
 20
12.8963
 30
0.0
 11
4.75
 21
12.8264
 31
0.0
  0
LINE
  8
0
 62
     0
 10
4.75
 20
12.8264
 30
0.0
 11
5.02604
 21
12.6597
 31
0.0
  0
LINE
  8
0
 62
     0
 10
5.02604
 20
12.6597
 30
0.0
 11
5.27083
 21
12.4792
 31
0.0
  0
LINE
  8
0
 62
     0
 10
5.27083
 20
12.4792
 30
0.0
 11
5.49479
 21
12.3003
 31
0.0
  0
LINE
  8
0
 62
     0
 10
5.49479
 20
12.3003
 30
0.0
 11
5.70833
 21
12.1389
 31
0.0
  0
LINE
  8
0
 62
     0
 10
5.70833
 20
12.1389
 30
0.0
 11
5.92361
 21
12.0244
 31
0.0
  0
LINE
  8
0
 62
     0
 10
5.92361
 20
12.0244
 30
0.0
 11
6.15278
 21
11.9861
 31
0.0
  0
LINE
  8
0
 62
     0
 10
6.15278
 20
11.9861
 30
0.0
 11
6.33501
 21
12.0104
 31
0.0
  0
LINE
  8
0
 62
     0
 10
6.33501
 20
12.0104
 30
0.0
 11
6.49306
 21
12.0833
 31
0.0
  0
LINE
  8
0
 62
     0
 10
6.49306
 20
12.0833
 30
0.0
 11
6.62668
 21
12.1928
 31
0.0
  0
LINE
  8
0
 62
     0
 10
6.62668
 20
12.1928
 30
0.0
 11
6.73611
 21
12.3264
 31
0.0
  0
LINE
  8
0
 62
     0
 10
6.73611
 20
12.3264
 30
0.0
 11
6.82118
 21
12.4792
 31
0.0
  0
LINE
  8
0
 62
     0
 10
6.82118
 20
12.4792
 30
0.0
 11
6.88194
 21
12.6458
 31
0.0
  0
LINE
  8
0
 62
     0
 10
6.88194
 20
12.6458
 30
0.0
 11
6.91835
 21
12.8177
 31
0.0
  0
LINE
  8
0
 62
     0
 10
6.91835
 20
12.8177
 30
0.0
 11
6.93056
 21
12.9861
 31
0.0
  0
LINE
  8
0
 62
     0
 10
6.93056
 20
12.9861
 30
0.0
 11
7.69444
 21
12.9861
 31
0.0
  0
LINE
  8
0
 62
     0
 10
7.69444
 20
12.9861
 30
0.0
 11
7.66493
 21
12.7067
 31
0.0
  0
LINE
  8
0
 62
     0
 10
7.66493
 20
12.7067
 30
0.0
 11
7.57639
 21
12.4236
 31
0.0
  0
LINE
  8
0
 62
     0
 10
7.57639
 20
12.4236
 30
0.0
 11
7.43571
 21
12.151
 31
0.0
  0
LINE
  8
0
 62
     0
 10
7.43571
 20
12.151
 30
0.0
 11
7.25
 21
11.9028
 31
0.0
  0
LINE
  8
0
 62
     0
 10
7.25
 20
11.9028
 30
0.0
 11
7.02425
 21
11.6874
 31
0.0
  0
LINE
  8
0
 62
     0
 10
7.02425
 20
11.6874
 30
0.0
 11
6.76389
 21
11.5139
 31
0.0
  0
LINE
  8
0
 62
     0
 10
6.76389
 20
11.5139
 30
0.0
 11
6.47917
 21
11.3994
 31
0.0
  0
LINE
  8
0
 62
     0
 10
6.47917
 20
11.3994
 30
0.0
 11
6.18056
 21
11.3611
 31
0.0
  0
LINE
  8
0
 62
     0
 10
6.18056
 20
11.3611
 30
0.0
 11
5.93142
 21
11.3711
 31
0.0
  0
LINE
  8
0
 62
     0
 10
5.93142
 20
11.3711
 30
0.0
 11
5.71181
 21
11.401
 31
0.0
  0
LINE
  8
0
 62
     0
 10
5.71181
 20
11.401
 30
0.0
 11
5.52169
 21
11.451
 31
0.0
  0
LINE
  8
0
 62
     0
 10
5.52169
 20
11.451
 30
0.0
 11
5.36111
 21
11.5208
 31
0.0
  0
LINE
  8
0
 62
     0
 10
5.36111
 20
11.5208
 30
0.0
 11
5.09369
 21
11.6876
 31
0.0
  0
LINE
  8
0
 62
     0
 10
5.09369
 20
11.6876
 30
0.0
 11
4.875
 21
11.8681
 31
0.0
  0
LINE
  8
0
 62
     0
 10
4.875
 20
11.8681
 30
0.0
 11
4.49306
 21
12.2153
 31
0.0
  0
LINE
  8
0
 62
     0
 10
4.49306
 20
12.2153
 30
0.0
 11
4.391
 21
12.2852
 31
0.0
  0
LINE
  8
0
 62
     0
 10
4.391
 20
12.2852
 30
0.0
 11
4.27251
 21
12.3351
 31
0.0
  0
LINE
  8
0
 62
     0
 10
4.27251
 20
12.3351
 30
0.0
 11
4.13753
 21
12.3651
 31
0.0
  0
LINE
  8
0
 62
     0
 10
4.13753
 20
12.3651
 30
0.0
 11
3.98611
 21
12.375
 31
0.0
  0
LINE
  8
0
 62
     0
 10
3.98611
 20
12.375
 30
0.0
 11
3.79861
 21
12.349
 31
0.0
  0
LINE
  8
0
 62
     0
 10
3.79861
 20
12.349
 30
0.0
 11
3.65278
 21
12.2708
 31
0.0
  0
LINE
  8
0
 62
     0
 10
3.65278
 20
12.2708
 30
0.0
 11
3.54161
 21
12.1545
 31
0.0
  0
LINE
  8
0
 62
     0
 10
3.54161
 20
12.1545
 30
0.0
 11
3.45833
 21
12.0139
 31
0.0
  0
LINE
  8
0
 62
     0
 10
3.45833
 20
12.0139
 30
0.0
 11
3.40104
 21
11.8542
 31
0.0
  0
LINE
  8
0
 62
     0
 10
3.40104
 20
11.8542
 30
0.0
 11
3.36806
 21
11.6806
 31
0.0
  0
LINE
  8
0
 62
     0
 10
3.36806
 20
11.6806
 30
0.0
 11
3.35243
 21
11.5104
 31
0.0
  0
LINE
  8
0
 62
     0
 10
3.35243
 20
11.5104
 30
0.0
 11
3.34722
 21
11.3611
 31
0.0
  0
LINE
  8
0
 62
     0
 10
3.34722
 20
11.3611
 30
0.0
 11
2.61111
 21
11.3611
 31
0.0
  0
ENDSEC
  0
EOF
