  0
SECTION
  2
HEADER
  9
$ACADVER
  1
AC1009
  9
$EXTMIN
 10
0.0
 20
0.0
 30
0.0
  9
$EXTMAX
 10
1000.0
 20
1000.0
 30
0.0
  9
$FILLMODE
 70
 0
  9
$SPLFRAME
 70
 1
  0
ENDSEC
  0
SECTION
  2
TABLES
  0
TABLE
  2
LAYER
 70
1
  0
LAYER
  2
0
 70
     0
 62
     7
  6
CONTINUOUS
  0
ENDTAB
  0
ENDSEC
  0
SECTION
  2
ENTITIES
  0
LINE
  8
0
 62
     0
 10
4.97222
 20
1.05556
 30
0.0
 11
5.37326
 21
1.07596
 31
0.0
  0
LINE
  8
0
 62
     0
 10
5.37326
 20
1.07596
 30
0.0
 11
5.74306
 21
1.13715
 31
0.0
  0
LINE
  8
0
 62
     0
 10
5.74306
 20
1.13715
 30
0.0
 11
6.0816
 21
1.23915
 31
0.0
  0
LINE
  8
0
 62
     0
 10
6.0816
 20
1.23915
 30
0.0
 11
6.38889
 21
1.38194
 31
0.0
  0
LINE
  8
0
 62
     0
 10
6.38889
 20
1.38194
 30
0.0
 11
6.66667
 21
1.55908
 31
0.0
  0
LINE
  8
0
 62
     0
 10
6.66667
 20
1.55908
 30
0.0
 11
6.91667
 21
1.76394
 31
0.0
  0
LINE
  8
0
 62
     0
 10
6.91667
 20
1.76394
 30
0.0
 11
7.13889
 21
1.99658
 31
0.0
  0
LINE
  8
0
 62
     0
 10
7.13889
 20
1.99658
 30
0.0
 11
7.33333
 21
2.25694
 31
0.0
  0
LINE
  8
0
 62
     0
 10
7.33333
 20
2.25694
 30
0.0
 11
7.50168
 21
2.54297
 31
0.0
  0
LINE
  8
0
 62
     0
 10
7.50168
 20
2.54297
 30
0.0
 11
7.64578
 21
2.85243
 31
0.0
  0
LINE
  8
0
 62
     0
 10
7.64578
 20
2.85243
 30
0.0
 11
7.76557
 21
3.18539
 31
0.0
  0
LINE
  8
0
 62
     0
 10
7.76557
 20
3.18539
 30
0.0
 11
7.86111
 21
3.54167
 31
0.0
  0
LINE
  8
0
 62
     0
 10
7.86111
 20
3.54167
 30
0.0
 11
7.93403
 21
3.91581
 31
0.0
  0
LINE
  8
0
 62
     0
 10
7.93403
 20
3.91581
 30
0.0
 11
7.98611
 21
4.30208
 31
0.0
  0
LINE
  8
0
 62
     0
 10
7.98611
 20
4.30208
 30
0.0
 11
8.01736
 21
4.70053
 31
0.0
  0
LINE
  8
0
 62
     0
 10
8.01736
 20
4.70053
 30
0.0
 11
8.02778
 21
5.11111
 31
0.0
  0
LINE
  8
0
 62
     0
 10
8.02778
 20
5.11111
 30
0.0
 11
7.98785
 21
5.875
 31
0.0
  0
LINE
  8
0
 62
     0
 10
7.98785
 20
5.875
 30
0.0
 11
7.86806
 21
6.61111
 31
0.0
  0
LINE
  8
0
 62
     0
 10
7.86806
 20
6.61111
 30
0.0
 11
7.77556
 21
6.96186
 31
0.0
  0
LINE
  8
0
 62
     0
 10
7.77556
 20
6.96186
 30
0.0
 11
7.65793
 21
7.29167
 31
0.0
  0
LINE
  8
0
 62
     0
 10
7.65793
 20
7.29167
 30
0.0
 11
7.51514
 21
7.60069
 31
0.0
  0
LINE
  8
0
 62
     0
 10
7.51514
 20
7.60069
 30
0.0
 11
7.34722
 21
7.88889
 31
0.0
  0
LINE
  8
0
 62
     0
 10
7.34722
 20
7.88889
 30
0.0
 11
7.15321
 21
8.15283
 31
0.0
  0
LINE
  8
0
 62
     0
 10
7.15321
 20
8.15283
 30
0.0
 11
6.93229
 21
8.38894
 31
0.0
  0
LINE
  8
0
 62
     0
 10
6.93229
 20
8.38894
 30
0.0
 11
6.68446
 21
8.59728
 31
0.0
  0
LINE
  8
0
 62
     0
 10
6.68446
 20
8.59728
 30
0.0
 11
6.40972
 21
8.77778
 31
0.0
  0
LINE
  8
0
 62
     0
 10
6.40972
 20
8.77778
 30
0.0
 11
6.10542
 21
8.92361
 31
0.0
  0
LINE
  8
0
 62
     0
 10
6.10542
 20
8.92361
 30
0.0
 11
5.76904
 21
9.02778
 31
0.0
  0
LINE
  8
0
 62
     0
 10
5.76904
 20
9.02778
 30
0.0
 11
5.40056
 21
9.09028
 31
0.0
  0
LINE
  8
0
 62
     0
 10
5.40056
 20
9.09028
 30
0.0
 11
5
 21
9.11111
 31
0.0
  0
LINE
  8
0
 62
     0
 10
5
 20
9.11111
 30
0.0
 11
4.59896
 21
9.09076
 31
0.0
  0
LINE
  8
0
 62
     0
 10
4.59896
 20
9.09076
 30
0.0
 11
4.22917
 21
9.02957
 31
0.0
  0
LINE
  8
0
 62
     0
 10
4.22917
 20
9.02957
 30
0.0
 11
3.89063
 21
8.92757
 31
0.0
  0
LINE
  8
0
 62
     0
 10
3.89063
 20
8.92757
 30
0.0
 11
3.58333
 21
8.78472
 31
0.0
  0
LINE
  8
0
 62
     0
 10
3.58333
 20
8.78472
 30
0.0
 11
3.30512
 21
8.60764
 31
0.0
  0
LINE
  8
0
 62
     0
 10
3.30512
 20
8.60764
 30
0.0
 11
3.05382
 21
8.40278
 31
0.0
  0
LINE
  8
0
 62
     0
 10
3.05382
 20
8.40278
 30
0.0
 11
2.82943
 21
8.17014
 31
0.0
  0
LINE
  8
0
 62
     0
 10
2.82943
 20
8.17014
 30
0.0
 11
2.63194
 21
7.90972
 31
0.0
  0
LINE
  8
0
 62
     0
 10
2.63194
 20
7.90972
 30
0.0
 11
2.46089
 21
7.625
 31
0.0
  0
LINE
  8
0
 62
     0
 10
2.46089
 20
7.625
 30
0.0
 11
2.31597
 21
7.31944
 31
0.0
  0
LINE
  8
0
 62
     0
 10
2.31597
 20
7.31944
 30
0.0
 11
2.19706
 21
6.99306
 31
0.0
  0
LINE
  8
0
 62
     0
 10
2.19706
 20
6.99306
 30
0.0
 11
2.10417
 21
6.64583
 31
0.0
  0
LINE
  8
0
 62
     0
 10
2.10417
 20
6.64583
 30
0.0
 11
2.03424
 21
6.28347
 31
0.0
  0
LINE
  8
0
 62
     0
 10
2.03424
 20
6.28347
 30
0.0
 11
1.98432
 21
5.91151
 31
0.0
  0
LINE
  8
0
 62
     0
 10
1.98432
 20
5.91151
 30
0.0
 11
1.95437
 21
5.53
 31
0.0
  0
LINE
  8
0
 62
     0
 10
1.95437
 20
5.53
 30
0.0
 11
1.94444
 21
5.13889
 31
0.0
  0
LINE
  8
0
 62
     0
 10
1.94444
 20
5.13889
 30
0.0
 11
1.95437
 21
4.73443
 31
0.0
  0
LINE
  8
0
 62
     0
 10
1.95437
 20
4.73443
 30
0.0
 11
1.98432
 21
4.34028
 31
0.0
  0
LINE
  8
0
 62
     0
 10
1.98432
 20
4.34028
 30
0.0
 11
2.03424
 21
3.9566
 31
0.0
  0
LINE
  8
0
 62
     0
 10
2.03424
 20
3.9566
 30
0.0
 11
2.10417
 21
3.58333
 31
0.0
  0
LINE
  8
0
 62
     0
 10
2.10417
 20
3.58333
 30
0.0
 11
2.19661
 21
3.22618
 31
0.0
  0
LINE
  8
0
 62
     0
 10
2.19661
 20
3.22618
 30
0.0
 11
2.31424
 21
2.89068
 31
0.0
  0
LINE
  8
0
 62
     0
 10
2.31424
 20
2.89068
 30
0.0
 11
2.45703
 21
2.57688
 31
0.0
  0
LINE
  8
0
 62
     0
 10
2.45703
 20
2.57688
 30
0.0
 11
2.625
 21
2.28472
 31
0.0
  0
LINE
  8
0
 62
     0
 10
2.625
 20
2.28472
 30
0.0
 11
2.81896
 21
2.01779
 31
0.0
  0
LINE
  8
0
 62
     0
 10
2.81896
 20
2.01779
 30
0.0
 11
3.03988
 21
1.77951
 31
0.0
  0
LINE
  8
0
 62
     0
 10
3.03988
 20
1.77951
 30
0.0
 11
3.28771
 21
1.56987
 31
0.0
  0
LINE
  8
0
 62
     0
 10
3.28771
 20
1.56987
 30
0.0
 11
3.5625
 21
1.38889
 31
0.0
  0
LINE
  8
0
 62
     0
 10
3.5625
 20
1.38889
 30
0.0
 11
3.86675
 21
1.24306
 31
0.0
  0
LINE
  8
0
 62
     0
 10
3.86675
 20
1.24306
 30
0.0
 11
4.20313
 21
1.13889
 31
0.0
  0
LINE
  8
0
 62
     0
 10
4.20313
 20
1.13889
 30
0.0
 11
4.57161
 21
1.07639
 31
0.0
  0
LINE
  8
0
 62
     0
 10
4.57161
 20
1.07639
 30
0.0
 11
4.97222
 21
1.05556
 31
0.0
  0
LINE
  8
0
 62
     0
 10
4.97222
 20
10.2639
 30
0.0
 11
5.38542
 21
10.2444
 31
0.0
  0
LINE
  8
0
 62
     0
 10
5.38542
 20
10.2444
 30
0.0
 11
5.79167
 21
10.1858
 31
0.0
  0
LINE
  8
0
 62
     0
 10
5.79167
 20
10.1858
 30
0.0
 11
6.19097
 21
10.0881
 31
0.0
  0
LINE
  8
0
 62
     0
 10
6.19097
 20
10.0881
 30
0.0
 11
6.58333
 21
9.95139
 31
0.0
  0
LINE
  8
0
 62
     0
 10
6.58333
 20
9.95139
 30
0.0
 11
6.96044
 21
9.77517
 31
0.0
  0
LINE
  8
0
 62
     0
 10
6.96044
 20
9.77517
 30
0.0
 11
7.31424
 21
9.55903
 31
0.0
  0
LINE
  8
0
 62
     0
 10
7.31424
 20
9.55903
 30
0.0
 11
7.64453
 21
9.30294
 31
0.0
  0
LINE
  8
0
 62
     0
 10
7.64453
 20
9.30294
 30
0.0
 11
7.95139
 21
9.00694
 31
0.0
  0
LINE
  8
0
 62
     0
 10
7.95139
 20
9.00694
 30
0.0
 11
8.23172
 21
8.66976
 31
0.0
  0
LINE
  8
0
 62
     0
 10
8.23172
 20
8.66976
 30
0.0
 11
8.48258
 21
8.28999
 31
0.0
  0
LINE
  8
0
 62
     0
 10
8.48258
 20
8.28999
 30
0.0
 11
8.70394
 21
7.86768
 31
0.0
  0
LINE
  8
0
 62
     0
 10
8.70394
 20
7.86768
 30
0.0
 11
8.89583
 21
7.40278
 31
0.0
  0
LINE
  8
0
 62
     0
 10
8.89583
 20
7.40278
 30
0.0
 11
9.05078
 21
6.89497
 31
0.0
  0
LINE
  8
0
 62
     0
 10
9.05078
 20
6.89497
 30
0.0
 11
9.16146
 21
6.34375
 31
0.0
  0
LINE
  8
0
 62
     0
 10
9.16146
 20
6.34375
 30
0.0
 11
9.22786
 21
5.74914
 31
0.0
  0
LINE
  8
0
 62
     0
 10
9.22786
 20
5.74914
 30
0.0
 11
9.25
 21
5.11111
 31
0.0
  0
LINE
  8
0
 62
     0
 10
9.25
 20
5.11111
 30
0.0
 11
9.22786
 21
4.40451
 31
0.0
  0
LINE
  8
0
 62
     0
 10
9.22786
 20
4.40451
 30
0.0
 11
9.16146
 21
3.75694
 31
0.0
  0
LINE
  8
0
 62
     0
 10
9.16146
 20
3.75694
 30
0.0
 11
9.05078
 21
3.1684
 31
0.0
  0
LINE
  8
0
 62
     0
 10
9.05078
 20
3.1684
 30
0.0
 11
8.89583
 21
2.63889
 31
0.0
  0
LINE
  8
0
 62
     0
 10
8.89583
 20
2.63889
 30
0.0
 11
8.70356
 21
2.16363
 31
0.0
  0
LINE
  8
0
 62
     0
 10
8.70356
 20
2.16363
 30
0.0
 11
8.4809
 21
1.73785
 31
0.0
  0
LINE
  8
0
 62
     0
 10
8.4809
 20
1.73785
 30
0.0
 11
8.22786
 21
1.36154
 31
0.0
  0
LINE
  8
0
 62
     0
 10
8.22786
 20
1.36154
 30
0.0
 11
7.94444
 21
1.03472
 31
0.0
  0
LINE
  8
0
 62
     0
 10
7.94444
 20
1.03472
 30
0.0
 11
7.63493
 21
0.753961
 31
0.0
  0
LINE
  8
0
 62
     0
 10
7.63493
 20
0.753961
 30
0.0
 11
7.30376
 21
0.515679
 31
0.0
  0
LINE
  8
0
 62
     0
 10
7.30376
 20
0.515679
 30
0.0
 11
6.9509
 21
0.319933
 31
0.0
  0
LINE
  8
0
 62
     0
 10
6.9509
 20
0.319933
 30
0.0
 11
6.57639
 21
0.166667
 31
0.0
  0
LINE
  8
0
 62
     0
 10
6.57639
 20
0.166667
 30
0.0
 11
6.18707
 21
0.0512153
 31
0.0
  0
LINE
  8
0
 62
     0
 10
6.18707
 20
0.0512153
 30
0.0
 11
5.78993
 21
-0.03125
 31
0.0
  0
LINE
  8
0
 62
     0
 10
5.78993
 20
-0.03125
 30
0.0
 11
5.38499
 21
-0.0807292
 31
0.0
  0
LINE
  8
0
 62
     0
 10
5.38499
 20
-0.0807292
 30
0.0
 11
4.97222
 21
-0.0972222
 31
0.0
  0
LINE
  8
0
 62
     0
 10
4.97222
 20
-0.0972222
 30
0.0
 11
4.55989
 21
-0.0802951
 31
0.0
  0
LINE
  8
0
 62
     0
 10
4.55989
 20
-0.0802951
 30
0.0
 11
4.15625
 21
-0.0295139
 31
0.0
  0
LINE
  8
0
 62
     0
 10
4.15625
 20
-0.0295139
 30
0.0
 11
3.76128
 21
0.0551215
 31
0.0
  0
LINE
  8
0
 62
     0
 10
3.76128
 20
0.0551215
 30
0.0
 11
3.375
 21
0.173611
 31
0.0
  0
LINE
  8
0
 62
     0
 10
3.375
 20
0.173611
 30
0.0
 11
3.00385
 21
0.330729
 31
0.0
  0
LINE
  8
0
 62
     0
 10
3.00385
 20
0.330729
 30
0.0
 11
2.65446
 21
0.53125
 31
0.0
  0
LINE
  8
0
 62
     0
 10
2.65446
 20
0.53125
 30
0.0
 11
2.32676
 21
0.775174
 31
0.0
  0
LINE
  8
0
 62
     0
 10
2.32676
 20
0.775174
 30
0.0
 11
2.02083
 21
1.0625
 31
0.0
  0
LINE
  8
0
 62
     0
 10
2.02083
 20
1.0625
 30
0.0
 11
1.74044
 21
1.39546
 31
0.0
  0
LINE
  8
0
 62
     0
 10
1.74044
 20
1.39546
 30
0.0
 11
1.48958
 21
1.7761
 31
0.0
  0
LINE
  8
0
 62
     0
 10
1.48958
 20
1.7761
 30
0.0
 11
1.26823
 21
2.20449
 31
0.0
  0
LINE
  8
0
 62
     0
 10
1.26823
 20
2.20449
 30
0.0
 11
1.07639
 21
2.68056
 31
0.0
  0
LINE
  8
0
 62
     0
 10
1.07639
 20
2.68056
 30
0.0
 11
0.921442
 21
3.20919
 31
0.0
  0
LINE
  8
0
 62
     0
 10
0.921442
 20
3.20919
 30
0.0
 11
0.810764
 21
3.79514
 31
0.0
  0
LINE
  8
0
 62
     0
 10
0.810764
 20
3.79514
 30
0.0
 11
0.744358
 21
4.43836
 31
0.0
  0
LINE
  8
0
 62
     0
 10
0.744358
 20
4.43836
 30
0.0
 11
0.722222
 21
5.13889
 31
0.0
  0
LINE
  8
0
 62
     0
 10
0.722222
 20
5.13889
 30
0.0
 11
0.744358
 21
5.77653
 31
0.0
  0
LINE
  8
0
 62
     0
 10
0.744358
 20
5.77653
 30
0.0
 11
0.810764
 21
6.36985
 31
0.0
  0
LINE
  8
0
 62
     0
 10
0.810764
 20
6.36985
 30
0.0
 11
0.921442
 21
6.91889
 31
0.0
  0
LINE
  8
0
 62
     0
 10
0.921442
 20
6.91889
 30
0.0
 11
1.07639
 21
7.42361
 31
0.0
  0
LINE
  8
0
 62
     0
 10
1.07639
 20
7.42361
 30
0.0
 11
1.26779
 21
7.88542
 31
0.0
  0
LINE
  8
0
 62
     0
 10
1.26779
 20
7.88542
 30
0.0
 11
1.48785
 21
8.30556
 31
0.0
  0
LINE
  8
0
 62
     0
 10
1.48785
 20
8.30556
 30
0.0
 11
1.73654
 21
8.68408
 31
0.0
  0
LINE
  8
0
 62
     0
 10
1.73654
 20
8.68408
 30
0.0
 11
2.01389
 21
9.02083
 31
0.0
  0
LINE
  8
0
 62
     0
 10
2.01389
 20
9.02083
 30
0.0
 11
2.31728
 21
9.3164
 31
0.0
  0
LINE
  8
0
 62
     0
 10
2.31728
 20
9.3164
 30
0.0
 11
2.6441
 21
9.57118
 31
0.0
  0
LINE
  8
0
 62
     0
 10
2.6441
 20
9.57118
 30
0.0
 11
2.99436
 21
9.78515
 31
0.0
  0
LINE
  8
0
 62
     0
 10
2.99436
 20
9.78515
 30
0.0
 11
3.36806
 21
9.95833
 31
0.0
  0
LINE
  8
0
 62
     0
 10
3.36806
 20
9.95833
 30
0.0
 11
3.75738
 21
10.0921
 31
0.0
  0
LINE
  8
0
 62
     0
 10
3.75738
 20
10.0921
 30
0.0
 11
4.15451
 21
10.1876
 31
0.0
  0
LINE
  8
0
 62
     0
 10
4.15451
 20
10.1876
 30
0.0
 11
4.55946
 21
10.2448
 31
0.0
  0
LINE
  8
0
 62
     0
 10
4.55946
 20
10.2448
 30
0.0
 11
4.97222
 21
10.2639
 31
0.0
  0
ENDSEC
  0
EOF
