  0
SECTION
  2
HEADER
  9
$ACADVER
  1
AC1009
  9
$EXTMIN
 10
0.0
 20
0.0
 30
0.0
  9
$EXTMAX
 10
1000.0
 20
1000.0
 30
0.0
  9
$FILLMODE
 70
 0
  9
$SPLFRAME
 70
 1
  0
ENDSEC
  0
SECTION
  2
TABLES
  0
TABLE
  2
LAYER
 70
1
  0
LAYER
  2
0
 70
     0
 62
     7
  6
CONTINUOUS
  0
ENDTAB
  0
ENDSEC
  0
SECTION
  2
ENTITIES
  0
LINE
  8
0
 62
     0
 10
4.97222
 20
0.930556
 30
0.0
 11
5.37326
 21
0.950956
 31
0.0
  0
LINE
  8
0
 62
     0
 10
5.37326
 20
0.950956
 30
0.0
 11
5.74306
 21
1.01215
 31
0.0
  0
LINE
  8
0
 62
     0
 10
5.74306
 20
1.01215
 30
0.0
 11
6.0816
 21
1.11415
 31
0.0
  0
LINE
  8
0
 62
     0
 10
6.0816
 20
1.11415
 30
0.0
 11
6.38889
 21
1.25694
 31
0.0
  0
LINE
  8
0
 62
     0
 10
6.38889
 20
1.25694
 30
0.0
 11
6.66667
 21
1.43408
 31
0.0
  0
LINE
  8
0
 62
     0
 10
6.66667
 20
1.43408
 30
0.0
 11
6.91667
 21
1.63894
 31
0.0
  0
LINE
  8
0
 62
     0
 10
6.91667
 20
1.63894
 30
0.0
 11
7.13889
 21
1.87158
 31
0.0
  0
LINE
  8
0
 62
     0
 10
7.13889
 20
1.87158
 30
0.0
 11
7.33333
 21
2.13194
 31
0.0
  0
LINE
  8
0
 62
     0
 10
7.33333
 20
2.13194
 30
0.0
 11
7.50168
 21
2.41797
 31
0.0
  0
LINE
  8
0
 62
     0
 10
7.50168
 20
2.41797
 30
0.0
 11
7.64578
 21
2.72743
 31
0.0
  0
LINE
  8
0
 62
     0
 10
7.64578
 20
2.72743
 30
0.0
 11
7.76557
 21
3.06039
 31
0.0
  0
LINE
  8
0
 62
     0
 10
7.76557
 20
3.06039
 30
0.0
 11
7.86111
 21
3.41667
 31
0.0
  0
LINE
  8
0
 62
     0
 10
7.86111
 20
3.41667
 30
0.0
 11
7.93403
 21
3.79081
 31
0.0
  0
LINE
  8
0
 62
     0
 10
7.93403
 20
3.79081
 30
0.0
 11
7.98611
 21
4.17708
 31
0.0
  0
LINE
  8
0
 62
     0
 10
7.98611
 20
4.17708
 30
0.0
 11
8.01736
 21
4.57553
 31
0.0
  0
LINE
  8
0
 62
     0
 10
8.01736
 20
4.57553
 30
0.0
 11
8.02778
 21
4.98611
 31
0.0
  0
LINE
  8
0
 62
     0
 10
8.02778
 20
4.98611
 30
0.0
 11
7.98785
 21
5.75
 31
0.0
  0
LINE
  8
0
 62
     0
 10
7.98785
 20
5.75
 30
0.0
 11
7.86806
 21
6.48611
 31
0.0
  0
LINE
  8
0
 62
     0
 10
7.86806
 20
6.48611
 30
0.0
 11
7.77556
 21
6.83686
 31
0.0
  0
LINE
  8
0
 62
     0
 10
7.77556
 20
6.83686
 30
0.0
 11
7.65793
 21
7.16667
 31
0.0
  0
LINE
  8
0
 62
     0
 10
7.65793
 20
7.16667
 30
0.0
 11
7.51514
 21
7.47569
 31
0.0
  0
LINE
  8
0
 62
     0
 10
7.51514
 20
7.47569
 30
0.0
 11
7.34722
 21
7.76389
 31
0.0
  0
LINE
  8
0
 62
     0
 10
7.34722
 20
7.76389
 30
0.0
 11
7.15321
 21
8.02783
 31
0.0
  0
LINE
  8
0
 62
     0
 10
7.15321
 20
8.02783
 30
0.0
 11
6.93229
 21
8.26394
 31
0.0
  0
LINE
  8
0
 62
     0
 10
6.93229
 20
8.26394
 30
0.0
 11
6.68446
 21
8.47228
 31
0.0
  0
LINE
  8
0
 62
     0
 10
6.68446
 20
8.47228
 30
0.0
 11
6.40972
 21
8.65278
 31
0.0
  0
LINE
  8
0
 62
     0
 10
6.40972
 20
8.65278
 30
0.0
 11
6.10542
 21
8.79861
 31
0.0
  0
LINE
  8
0
 62
     0
 10
6.10542
 20
8.79861
 30
0.0
 11
5.76904
 21
8.90278
 31
0.0
  0
LINE
  8
0
 62
     0
 10
5.76904
 20
8.90278
 30
0.0
 11
5.40056
 21
8.96528
 31
0.0
  0
LINE
  8
0
 62
     0
 10
5.40056
 20
8.96528
 30
0.0
 11
5
 21
8.98611
 31
0.0
  0
LINE
  8
0
 62
     0
 10
5
 20
8.98611
 30
0.0
 11
4.59896
 21
8.96576
 31
0.0
  0
LINE
  8
0
 62
     0
 10
4.59896
 20
8.96576
 30
0.0
 11
4.22917
 21
8.90457
 31
0.0
  0
LINE
  8
0
 62
     0
 10
4.22917
 20
8.90457
 30
0.0
 11
3.89063
 21
8.80257
 31
0.0
  0
LINE
  8
0
 62
     0
 10
3.89063
 20
8.80257
 30
0.0
 11
3.58333
 21
8.65972
 31
0.0
  0
LINE
  8
0
 62
     0
 10
3.58333
 20
8.65972
 30
0.0
 11
3.30512
 21
8.48264
 31
0.0
  0
LINE
  8
0
 62
     0
 10
3.30512
 20
8.48264
 30
0.0
 11
3.05382
 21
8.27778
 31
0.0
  0
LINE
  8
0
 62
     0
 10
3.05382
 20
8.27778
 30
0.0
 11
2.82943
 21
8.04514
 31
0.0
  0
LINE
  8
0
 62
     0
 10
2.82943
 20
8.04514
 30
0.0
 11
2.63194
 21
7.78472
 31
0.0
  0
LINE
  8
0
 62
     0
 10
2.63194
 20
7.78472
 30
0.0
 11
2.46089
 21
7.50006
 31
0.0
  0
LINE
  8
0
 62
     0
 10
2.46089
 20
7.50006
 30
0.0
 11
2.31597
 21
7.19444
 31
0.0
  0
LINE
  8
0
 62
     0
 10
2.31597
 20
7.19444
 30
0.0
 11
2.19706
 21
6.86806
 31
0.0
  0
LINE
  8
0
 62
     0
 10
2.19706
 20
6.86806
 30
0.0
 11
2.10417
 21
6.52083
 31
0.0
  0
LINE
  8
0
 62
     0
 10
2.10417
 20
6.52083
 30
0.0
 11
2.03424
 21
6.15847
 31
0.0
  0
LINE
  8
0
 62
     0
 10
2.03424
 20
6.15847
 30
0.0
 11
1.98432
 21
5.78651
 31
0.0
  0
LINE
  8
0
 62
     0
 10
1.98432
 20
5.78651
 30
0.0
 11
1.95437
 21
5.405
 31
0.0
  0
LINE
  8
0
 62
     0
 10
1.95437
 20
5.405
 30
0.0
 11
1.94444
 21
5.01389
 31
0.0
  0
LINE
  8
0
 62
     0
 10
1.94444
 20
5.01389
 30
0.0
 11
1.95437
 21
4.60943
 31
0.0
  0
LINE
  8
0
 62
     0
 10
1.95437
 20
4.60943
 30
0.0
 11
1.98432
 21
4.21528
 31
0.0
  0
LINE
  8
0
 62
     0
 10
1.98432
 20
4.21528
 30
0.0
 11
2.03424
 21
3.8316
 31
0.0
  0
LINE
  8
0
 62
     0
 10
2.03424
 20
3.8316
 30
0.0
 11
2.10417
 21
3.45833
 31
0.0
  0
LINE
  8
0
 62
     0
 10
2.10417
 20
3.45833
 30
0.0
 11
2.19661
 21
3.10118
 31
0.0
  0
LINE
  8
0
 62
     0
 10
2.19661
 20
3.10118
 30
0.0
 11
2.31424
 21
2.76568
 31
0.0
  0
LINE
  8
0
 62
     0
 10
2.31424
 20
2.76568
 30
0.0
 11
2.45703
 21
2.45188
 31
0.0
  0
LINE
  8
0
 62
     0
 10
2.45703
 20
2.45188
 30
0.0
 11
2.625
 21
2.15972
 31
0.0
  0
LINE
  8
0
 62
     0
 10
2.625
 20
2.15972
 30
0.0
 11
2.81896
 21
1.89279
 31
0.0
  0
LINE
  8
0
 62
     0
 10
2.81896
 20
1.89279
 30
0.0
 11
3.03988
 21
1.65451
 31
0.0
  0
LINE
  8
0
 62
     0
 10
3.03988
 20
1.65451
 30
0.0
 11
3.28771
 21
1.44487
 31
0.0
  0
LINE
  8
0
 62
     0
 10
3.28771
 20
1.44487
 30
0.0
 11
3.5625
 21
1.26389
 31
0.0
  0
LINE
  8
0
 62
     0
 10
3.5625
 20
1.26389
 30
0.0
 11
3.86675
 21
1.11806
 31
0.0
  0
LINE
  8
0
 62
     0
 10
3.86675
 20
1.11806
 30
0.0
 11
4.20313
 21
1.01389
 31
0.0
  0
LINE
  8
0
 62
     0
 10
4.20313
 20
1.01389
 30
0.0
 11
4.57161
 21
0.951389
 31
0.0
  0
LINE
  8
0
 62
     0
 10
4.57161
 20
0.951389
 30
0.0
 11
4.97222
 21
0.930556
 31
0.0
  0
LINE
  8
0
 62
     0
 10
9.19444
 20
9.02778
 30
0.0
 11
9.19444
 21
5.80556
 31
0.0
  0
LINE
  8
0
 62
     0
 10
9.19444
 20
5.80556
 30
0.0
 11
13.9167
 21
5.80556
 31
0.0
  0
LINE
  8
0
 62
     0
 10
13.9167
 20
5.80556
 30
0.0
 11
13.9167
 21
4.69444
 31
0.0
  0
LINE
  8
0
 62
     0
 10
13.9167
 20
4.69444
 30
0.0
 11
9.19444
 21
4.69444
 31
0.0
  0
LINE
  8
0
 62
     0
 10
9.19444
 20
4.69444
 30
0.0
 11
9.19444
 21
1.11111
 31
0.0
  0
LINE
  8
0
 62
     0
 10
9.19444
 20
1.11111
 30
0.0
 11
14.5417
 21
1.11111
 31
0.0
  0
LINE
  8
0
 62
     0
 10
14.5417
 20
1.11111
 30
0.0
 11
14.5417
 21
-0
 31
0.0
  0
LINE
  8
0
 62
     0
 10
14.5417
 20
-0
 30
0.0
 11
8.01389
 21
-0
 31
0.0
  0
LINE
  8
0
 62
     0
 10
8.01389
 20
-0
 30
0.0
 11
8.01389
 21
0.986111
 31
0.0
  0
LINE
  8
0
 62
     0
 10
8.01389
 20
0.986111
 30
0.0
 11
7.69228
 21
0.677517
 31
0.0
  0
LINE
  8
0
 62
     0
 10
7.69228
 20
0.677517
 30
0.0
 11
7.35243
 21
0.418403
 31
0.0
  0
LINE
  8
0
 62
     0
 10
7.35243
 20
0.418403
 30
0.0
 11
6.99436
 21
0.208767
 31
0.0
  0
LINE
  8
0
 62
     0
 10
6.99436
 20
0.208767
 30
0.0
 11
6.61806
 21
0.0486111
 31
0.0
  0
LINE
  8
0
 62
     0
 10
6.61806
 20
0.0486111
 30
0.0
 11
6.22613
 21
-0.0698785
 31
0.0
  0
LINE
  8
0
 62
     0
 10
6.22613
 20
-0.0698785
 30
0.0
 11
5.82118
 21
-0.154514
 31
0.0
  0
LINE
  8
0
 62
     0
 10
5.82118
 20
-0.154514
 30
0.0
 11
5.40321
 21
-0.205294
 31
0.0
  0
LINE
  8
0
 62
     0
 10
5.40321
 20
-0.205294
 30
0.0
 11
4.97222
 21
-0.222222
 31
0.0
  0
LINE
  8
0
 62
     0
 10
4.97222
 20
-0.222222
 30
0.0
 11
4.55989
 21
-0.205294
 31
0.0
  0
LINE
  8
0
 62
     0
 10
4.55989
 20
-0.205294
 30
0.0
 11
4.15625
 21
-0.154514
 31
0.0
  0
LINE
  8
0
 62
     0
 10
4.15625
 20
-0.154514
 30
0.0
 11
3.76128
 21
-0.0698785
 31
0.0
  0
LINE
  8
0
 62
     0
 10
3.76128
 20
-0.0698785
 30
0.0
 11
3.375
 21
0.0486111
 31
0.0
  0
LINE
  8
0
 62
     0
 10
3.375
 20
0.0486111
 30
0.0
 11
3.00385
 21
0.205729
 31
0.0
  0
LINE
  8
0
 62
     0
 10
3.00385
 20
0.205729
 30
0.0
 11
2.65446
 21
0.40625
 31
0.0
  0
LINE
  8
0
 62
     0
 10
2.65446
 20
0.40625
 30
0.0
 11
2.32676
 21
0.650174
 31
0.0
  0
LINE
  8
0
 62
     0
 10
2.32676
 20
0.650174
 30
0.0
 11
2.02083
 21
0.9375
 31
0.0
  0
LINE
  8
0
 62
     0
 10
2.02083
 20
0.9375
 30
0.0
 11
1.74044
 21
1.27045
 31
0.0
  0
LINE
  8
0
 62
     0
 10
1.74044
 20
1.27045
 30
0.0
 11
1.48958
 21
1.6511
 31
0.0
  0
LINE
  8
0
 62
     0
 10
1.48958
 20
1.6511
 30
0.0
 11
1.26823
 21
2.07949
 31
0.0
  0
LINE
  8
0
 62
     0
 10
1.26823
 20
2.07949
 30
0.0
 11
1.07639
 21
2.55556
 31
0.0
  0
LINE
  8
0
 62
     0
 10
1.07639
 20
2.55556
 30
0.0
 11
0.921442
 21
3.08419
 31
0.0
  0
LINE
  8
0
 62
     0
 10
0.921442
 20
3.08419
 30
0.0
 11
0.810764
 21
3.67014
 31
0.0
  0
LINE
  8
0
 62
     0
 10
0.810764
 20
3.67014
 30
0.0
 11
0.744358
 21
4.31336
 31
0.0
  0
LINE
  8
0
 62
     0
 10
0.744358
 20
4.31336
 30
0.0
 11
0.722222
 21
5.01389
 31
0.0
  0
LINE
  8
0
 62
     0
 10
0.722222
 20
5.01389
 30
0.0
 11
0.744358
 21
5.65147
 31
0.0
  0
LINE
  8
0
 62
     0
 10
0.744358
 20
5.65147
 30
0.0
 11
0.810764
 21
6.24479
 31
0.0
  0
LINE
  8
0
 62
     0
 10
0.810764
 20
6.24479
 30
0.0
 11
0.921442
 21
6.79389
 31
0.0
  0
LINE
  8
0
 62
     0
 10
0.921442
 20
6.79389
 30
0.0
 11
1.07639
 21
7.29861
 31
0.0
  0
LINE
  8
0
 62
     0
 10
1.07639
 20
7.29861
 30
0.0
 11
1.26779
 21
7.76042
 31
0.0
  0
LINE
  8
0
 62
     0
 10
1.26779
 20
7.76042
 30
0.0
 11
1.48785
 21
8.18056
 31
0.0
  0
LINE
  8
0
 62
     0
 10
1.48785
 20
8.18056
 30
0.0
 11
1.73654
 21
8.55908
 31
0.0
  0
LINE
  8
0
 62
     0
 10
1.73654
 20
8.55908
 30
0.0
 11
2.01389
 21
8.89583
 31
0.0
  0
LINE
  8
0
 62
     0
 10
2.01389
 20
8.89583
 30
0.0
 11
2.31728
 21
9.1914
 31
0.0
  0
LINE
  8
0
 62
     0
 10
2.31728
 20
9.1914
 30
0.0
 11
2.6441
 21
9.44618
 31
0.0
  0
LINE
  8
0
 62
     0
 10
2.6441
 20
9.44618
 30
0.0
 11
2.99436
 21
9.66015
 31
0.0
  0
LINE
  8
0
 62
     0
 10
2.99436
 20
9.66015
 30
0.0
 11
3.36806
 21
9.83333
 31
0.0
  0
LINE
  8
0
 62
     0
 10
3.36806
 20
9.83333
 30
0.0
 11
3.75738
 21
9.96707
 31
0.0
  0
LINE
  8
0
 62
     0
 10
3.75738
 20
9.96707
 30
0.0
 11
4.15451
 21
10.0626
 31
0.0
  0
LINE
  8
0
 62
     0
 10
4.15451
 20
10.0626
 30
0.0
 11
4.55946
 21
10.1198
 31
0.0
  0
LINE
  8
0
 62
     0
 10
4.55946
 20
10.1198
 30
0.0
 11
4.97222
 21
10.1389
 31
0.0
  0
LINE
  8
0
 62
     0
 10
4.97222
 20
10.1389
 30
0.0
 11
5.40321
 21
10.1185
 31
0.0
  0
LINE
  8
0
 62
     0
 10
5.40321
 20
10.1185
 30
0.0
 11
5.82118
 21
10.0573
 31
0.0
  0
LINE
  8
0
 62
     0
 10
5.82118
 20
10.0573
 30
0.0
 11
6.22613
 21
9.95535
 31
0.0
  0
LINE
  8
0
 62
     0
 10
6.22613
 20
9.95535
 30
0.0
 11
6.61806
 21
9.8125
 31
0.0
  0
LINE
  8
0
 62
     0
 10
6.61806
 20
9.8125
 30
0.0
 11
6.99436
 21
9.62717
 31
0.0
  0
LINE
  8
0
 62
     0
 10
6.99436
 20
9.62717
 30
0.0
 11
7.35243
 21
9.39757
 31
0.0
  0
LINE
  8
0
 62
     0
 10
7.35243
 20
9.39757
 30
0.0
 11
7.69228
 21
9.12375
 31
0.0
  0
LINE
  8
0
 62
     0
 10
7.69228
 20
9.12375
 30
0.0
 11
8.01389
 21
8.80556
 31
0.0
  0
LINE
  8
0
 62
     0
 10
8.01389
 20
8.80556
 30
0.0
 11
8.01389
 21
10.1389
 31
0.0
  0
LINE
  8
0
 62
     0
 10
8.01389
 20
10.1389
 30
0.0
 11
14.5417
 21
10.1389
 31
0.0
  0
LINE
  8
0
 62
     0
 10
14.5417
 20
10.1389
 30
0.0
 11
14.5417
 21
9.02778
 31
0.0
  0
LINE
  8
0
 62
     0
 10
14.5417
 20
9.02778
 30
0.0
 11
9.19444
 21
9.02778
 31
0.0
  0
ENDSEC
  0
EOF
