  0
SECTION
  2
HEADER
  9
$ACADVER
  1
AC1009
  9
$EXTMIN
 10
0.0
 20
0.0
 30
0.0
  9
$EXTMAX
 10
1000.0
 20
1000.0
 30
0.0
  9
$FILLMODE
 70
 0
  9
$SPLFRAME
 70
 1
  0
ENDSEC
  0
SECTION
  2
TABLES
  0
TABLE
  2
LAYER
 70
1
  0
LAYER
  2
0
 70
     0
 62
     7
  6
CONTINUOUS
  0
ENDTAB
  0
ENDSEC
  0
SECTION
  2
ENTITIES
  0
LINE
  8
0
 62
     0
 10
2.95833
 20
5.15278
 30
0.0
 11
3.22092
 21
5.16797
 31
0.0
  0
LINE
  8
0
 62
     0
 10
3.22092
 20
5.16797
 30
0.0
 11
3.45313
 21
5.21354
 31
0.0
  0
LINE
  8
0
 62
     0
 10
3.45313
 20
5.21354
 30
0.0
 11
3.65494
 21
5.2895
 31
0.0
  0
LINE
  8
0
 62
     0
 10
3.65494
 20
5.2895
 30
0.0
 11
3.82639
 21
5.39583
 31
0.0
  0
LINE
  8
0
 62
     0
 10
3.82639
 20
5.39583
 30
0.0
 11
3.97222
 21
5.52349
 31
0.0
  0
LINE
  8
0
 62
     0
 10
3.97222
 20
5.52349
 30
0.0
 11
4.09722
 21
5.66325
 31
0.0
  0
LINE
  8
0
 62
     0
 10
4.09722
 20
5.66325
 30
0.0
 11
4.20139
 21
5.81515
 31
0.0
  0
LINE
  8
0
 62
     0
 10
4.20139
 20
5.81515
 30
0.0
 11
4.28472
 21
5.97917
 31
0.0
  0
LINE
  8
0
 62
     0
 10
4.28472
 20
5.97917
 30
0.0
 11
4.40104
 21
6.32813
 31
0.0
  0
LINE
  8
0
 62
     0
 10
4.40104
 20
6.32813
 30
0.0
 11
4.45833
 21
6.69444
 31
0.0
  0
LINE
  8
0
 62
     0
 10
4.45833
 20
6.69444
 30
0.0
 11
4.47911
 21
7.04167
 31
0.0
  0
LINE
  8
0
 62
     0
 10
4.47911
 20
7.04167
 30
0.0
 11
4.48611
 21
7.33333
 31
0.0
  0
LINE
  8
0
 62
     0
 10
4.48611
 20
7.33333
 30
0.0
 11
4.4739
 21
7.69276
 31
0.0
  0
LINE
  8
0
 62
     0
 10
4.4739
 20
7.69276
 30
0.0
 11
4.4375
 21
8.07639
 31
0.0
  0
LINE
  8
0
 62
     0
 10
4.4375
 20
8.07639
 30
0.0
 11
4.36111
 21
8.4566
 31
0.0
  0
LINE
  8
0
 62
     0
 10
4.36111
 20
8.4566
 30
0.0
 11
4.22917
 21
8.80556
 31
0.0
  0
LINE
  8
0
 62
     0
 10
4.22917
 20
8.80556
 30
0.0
 11
4.14057
 21
8.9649
 31
0.0
  0
LINE
  8
0
 62
     0
 10
4.14057
 20
8.9649
 30
0.0
 11
4.03467
 21
9.10943
 31
0.0
  0
LINE
  8
0
 62
     0
 10
4.03467
 20
9.10943
 30
0.0
 11
3.9114
 21
9.23921
 31
0.0
  0
LINE
  8
0
 62
     0
 10
3.9114
 20
9.23921
 30
0.0
 11
3.77083
 21
9.35417
 31
0.0
  0
LINE
  8
0
 62
     0
 10
3.77083
 20
9.35417
 30
0.0
 11
3.60894
 21
9.44835
 31
0.0
  0
LINE
  8
0
 62
     0
 10
3.60894
 20
9.44835
 30
0.0
 11
3.42188
 21
9.51563
 31
0.0
  0
LINE
  8
0
 62
     0
 10
3.42188
 20
9.51563
 30
0.0
 11
3.20964
 21
9.55599
 31
0.0
  0
LINE
  8
0
 62
     0
 10
3.20964
 20
9.55599
 30
0.0
 11
2.97222
 21
9.56944
 31
0.0
  0
LINE
  8
0
 62
     0
 10
2.97222
 20
9.56944
 30
0.0
 11
2.75299
 21
9.55599
 31
0.0
  0
LINE
  8
0
 62
     0
 10
2.75299
 20
9.55599
 30
0.0
 11
2.55376
 21
9.51563
 31
0.0
  0
LINE
  8
0
 62
     0
 10
2.55376
 20
9.51563
 30
0.0
 11
2.37451
 21
9.44835
 31
0.0
  0
LINE
  8
0
 62
     0
 10
2.37451
 20
9.44835
 30
0.0
 11
2.21528
 21
9.35417
 31
0.0
  0
LINE
  8
0
 62
     0
 10
2.21528
 20
9.35417
 30
0.0
 11
2.07374
 21
9.23921
 31
0.0
  0
LINE
  8
0
 62
     0
 10
2.07374
 20
9.23921
 30
0.0
 11
1.94786
 21
9.10943
 31
0.0
  0
LINE
  8
0
 62
     0
 10
1.94786
 20
9.10943
 30
0.0
 11
1.83763
 21
8.9649
 31
0.0
  0
LINE
  8
0
 62
     0
 10
1.83763
 20
8.9649
 30
0.0
 11
1.74306
 21
8.80556
 31
0.0
  0
LINE
  8
0
 62
     0
 10
1.74306
 20
8.80556
 30
0.0
 11
1.59722
 21
8.45839
 31
0.0
  0
LINE
  8
0
 62
     0
 10
1.59722
 20
8.45839
 30
0.0
 11
1.50694
 21
8.08333
 31
0.0
  0
LINE
  8
0
 62
     0
 10
1.50694
 20
8.08333
 30
0.0
 11
1.46007
 21
7.70486
 31
0.0
  0
LINE
  8
0
 62
     0
 10
1.46007
 20
7.70486
 30
0.0
 11
1.44444
 21
7.34722
 31
0.0
  0
LINE
  8
0
 62
     0
 10
1.44444
 20
7.34722
 30
0.0
 11
1.45307
 21
7.04514
 31
0.0
  0
LINE
  8
0
 62
     0
 10
1.45307
 20
7.04514
 30
0.0
 11
1.47917
 21
6.69444
 31
0.0
  0
LINE
  8
0
 62
     0
 10
1.47917
 20
6.69444
 30
0.0
 11
1.54167
 21
6.32813
 31
0.0
  0
LINE
  8
0
 62
     0
 10
1.54167
 20
6.32813
 30
0.0
 11
1.65972
 21
5.97917
 31
0.0
  0
LINE
  8
0
 62
     0
 10
1.65972
 20
5.97917
 30
0.0
 11
1.74257
 21
5.81515
 31
0.0
  0
LINE
  8
0
 62
     0
 10
1.74257
 20
5.81515
 30
0.0
 11
1.84543
 21
5.66325
 31
0.0
  0
LINE
  8
0
 62
     0
 10
1.84543
 20
5.66325
 30
0.0
 11
1.96826
 21
5.52349
 31
0.0
  0
LINE
  8
0
 62
     0
 10
1.96826
 20
5.52349
 30
0.0
 11
2.11111
 21
5.39583
 31
0.0
  0
LINE
  8
0
 62
     0
 10
2.11111
 20
5.39583
 30
0.0
 11
2.27864
 21
5.2895
 31
0.0
  0
LINE
  8
0
 62
     0
 10
2.27864
 20
5.2895
 30
0.0
 11
2.47569
 21
5.21354
 31
0.0
  0
LINE
  8
0
 62
     0
 10
2.47569
 20
5.21354
 30
0.0
 11
2.70225
 21
5.16797
 31
0.0
  0
LINE
  8
0
 62
     0
 10
2.70225
 20
5.16797
 30
0.0
 11
2.95833
 21
5.15278
 31
0.0
  0
LINE
  8
0
 62
     0
 10
2.95833
 20
10.2361
 30
0.0
 11
3.25342
 21
10.2218
 31
0.0
  0
LINE
  8
0
 62
     0
 10
3.25342
 20
10.2218
 30
0.0
 11
3.52778
 21
10.1788
 31
0.0
  0
LINE
  8
0
 62
     0
 10
3.52778
 20
10.1788
 30
0.0
 11
3.78125
 21
10.1072
 31
0.0
  0
LINE
  8
0
 62
     0
 10
3.78125
 20
10.1072
 30
0.0
 11
4.01389
 21
10.0069
 31
0.0
  0
LINE
  8
0
 62
     0
 10
4.01389
 20
10.0069
 30
0.0
 11
4.22607
 21
9.88194
 31
0.0
  0
LINE
  8
0
 62
     0
 10
4.22607
 20
9.88194
 30
0.0
 11
4.41835
 21
9.73611
 31
0.0
  0
LINE
  8
0
 62
     0
 10
4.41835
 20
9.73611
 30
0.0
 11
4.59065
 21
9.56944
 31
0.0
  0
LINE
  8
0
 62
     0
 10
4.59065
 20
9.56944
 30
0.0
 11
4.74306
 21
9.38194
 31
0.0
  0
LINE
  8
0
 62
     0
 10
4.74306
 20
9.38194
 30
0.0
 11
4.87631
 21
9.17578
 31
0.0
  0
LINE
  8
0
 62
     0
 10
4.87631
 20
9.17578
 30
0.0
 11
4.99132
 21
8.95313
 31
0.0
  0
LINE
  8
0
 62
     0
 10
4.99132
 20
8.95313
 30
0.0
 11
5.08806
 21
8.71397
 31
0.0
  0
LINE
  8
0
 62
     0
 10
5.08806
 20
8.71397
 30
0.0
 11
5.16667
 21
8.45833
 31
0.0
  0
LINE
  8
0
 62
     0
 10
5.16667
 20
8.45833
 30
0.0
 11
5.27083
 21
7.91325
 31
0.0
  0
LINE
  8
0
 62
     0
 10
5.27083
 20
7.91325
 30
0.0
 11
5.30556
 21
7.33333
 31
0.0
  0
LINE
  8
0
 62
     0
 10
5.30556
 20
7.33333
 30
0.0
 11
5.27083
 21
6.75521
 31
0.0
  0
LINE
  8
0
 62
     0
 10
5.27083
 20
6.75521
 30
0.0
 11
5.16667
 21
6.21528
 31
0.0
  0
LINE
  8
0
 62
     0
 10
5.16667
 20
6.21528
 30
0.0
 11
5.08806
 21
5.96354
 31
0.0
  0
LINE
  8
0
 62
     0
 10
5.08806
 20
5.96354
 30
0.0
 11
4.99126
 21
5.72917
 31
0.0
  0
LINE
  8
0
 62
     0
 10
4.99126
 20
5.72917
 30
0.0
 11
4.87625
 21
5.51215
 31
0.0
  0
LINE
  8
0
 62
     0
 10
4.87625
 20
5.51215
 30
0.0
 11
4.74306
 21
5.3125
 31
0.0
  0
LINE
  8
0
 62
     0
 10
4.74306
 20
5.3125
 30
0.0
 11
4.59065
 21
5.13157
 31
0.0
  0
LINE
  8
0
 62
     0
 10
4.59065
 20
5.13157
 30
0.0
 11
4.41835
 21
4.97054
 31
0.0
  0
LINE
  8
0
 62
     0
 10
4.41835
 20
4.97054
 30
0.0
 11
4.22607
 21
4.82949
 31
0.0
  0
LINE
  8
0
 62
     0
 10
4.22607
 20
4.82949
 30
0.0
 11
4.01389
 21
4.70833
 31
0.0
  0
LINE
  8
0
 62
     0
 10
4.01389
 20
4.70833
 30
0.0
 11
3.78125
 21
4.61111
 31
0.0
  0
LINE
  8
0
 62
     0
 10
3.78125
 20
4.61111
 30
0.0
 11
3.52778
 21
4.54167
 31
0.0
  0
LINE
  8
0
 62
     0
 10
3.52778
 20
4.54167
 30
0.0
 11
3.25342
 21
4.5
 31
0.0
  0
LINE
  8
0
 62
     0
 10
3.25342
 20
4.5
 30
0.0
 11
2.95833
 21
4.48611
 31
0.0
  0
LINE
  8
0
 62
     0
 10
2.95833
 20
4.48611
 30
0.0
 11
2.66319
 21
4.5
 31
0.0
  0
LINE
  8
0
 62
     0
 10
2.66319
 20
4.5
 30
0.0
 11
2.38889
 21
4.54167
 31
0.0
  0
LINE
  8
0
 62
     0
 10
2.38889
 20
4.54167
 30
0.0
 11
2.13536
 21
4.61111
 31
0.0
  0
LINE
  8
0
 62
     0
 10
2.13536
 20
4.61111
 30
0.0
 11
1.90278
 21
4.70833
 31
0.0
  0
LINE
  8
0
 62
     0
 10
1.90278
 20
4.70833
 30
0.0
 11
1.69054
 21
4.82992
 31
0.0
  0
LINE
  8
0
 62
     0
 10
1.69054
 20
4.82992
 30
0.0
 11
1.49826
 21
4.97222
 31
0.0
  0
LINE
  8
0
 62
     0
 10
1.49826
 20
4.97222
 30
0.0
 11
1.32596
 21
5.13542
 31
0.0
  0
LINE
  8
0
 62
     0
 10
1.32596
 20
5.13542
 30
0.0
 11
1.17361
 21
5.31944
 31
0.0
  0
LINE
  8
0
 62
     0
 10
1.17361
 20
5.31944
 30
0.0
 11
1.04074
 21
5.52219
 31
0.0
  0
LINE
  8
0
 62
     0
 10
1.04074
 20
5.52219
 30
0.0
 11
0.927029
 21
5.74138
 31
0.0
  0
LINE
  8
0
 62
     0
 10
0.927029
 20
5.74138
 30
0.0
 11
0.832411
 21
5.97706
 31
0.0
  0
LINE
  8
0
 62
     0
 10
0.832411
 20
5.97706
 30
0.0
 11
0.756944
 21
6.22917
 31
0.0
  0
LINE
  8
0
 62
     0
 10
0.756944
 20
6.22917
 30
0.0
 11
0.657986
 21
6.7691
 31
0.0
  0
LINE
  8
0
 62
     0
 10
0.657986
 20
6.7691
 30
0.0
 11
0.625
 21
7.34722
 31
0.0
  0
LINE
  8
0
 62
     0
 10
0.625
 20
7.34722
 30
0.0
 11
0.657986
 21
7.91672
 31
0.0
  0
LINE
  8
0
 62
     0
 10
0.657986
 20
7.91672
 30
0.0
 11
0.756944
 21
8.45833
 31
0.0
  0
LINE
  8
0
 62
     0
 10
0.756944
 20
8.45833
 30
0.0
 11
0.832411
 21
8.71397
 31
0.0
  0
LINE
  8
0
 62
     0
 10
0.832411
 20
8.71397
 30
0.0
 11
0.927029
 21
8.95313
 31
0.0
  0
LINE
  8
0
 62
     0
 10
0.927029
 20
8.95313
 30
0.0
 11
1.04074
 21
9.17578
 31
0.0
  0
LINE
  8
0
 62
     0
 10
1.04074
 20
9.17578
 30
0.0
 11
1.17361
 21
9.38194
 31
0.0
  0
LINE
  8
0
 62
     0
 10
1.17361
 20
9.38194
 30
0.0
 11
1.32596
 21
9.56944
 31
0.0
  0
LINE
  8
0
 62
     0
 10
1.32596
 20
9.56944
 30
0.0
 11
1.49826
 21
9.73611
 31
0.0
  0
LINE
  8
0
 62
     0
 10
1.49826
 20
9.73611
 30
0.0
 11
1.69054
 21
9.88194
 31
0.0
  0
LINE
  8
0
 62
     0
 10
1.69054
 20
9.88194
 30
0.0
 11
1.90278
 21
10.0069
 31
0.0
  0
LINE
  8
0
 62
     0
 10
1.90278
 20
10.0069
 30
0.0
 11
2.13536
 21
10.1072
 31
0.0
  0
LINE
  8
0
 62
     0
 10
2.13536
 20
10.1072
 30
0.0
 11
2.38889
 21
10.1788
 31
0.0
  0
LINE
  8
0
 62
     0
 10
2.38889
 20
10.1788
 30
0.0
 11
2.66319
 21
10.2218
 31
0.0
  0
LINE
  8
0
 62
     0
 10
2.66319
 20
10.2218
 30
0.0
 11
2.95833
 21
10.2361
 31
0.0
  0
ENDSEC
  0
EOF
