  0
SECTION
  2
HEADER
  9
$ACADVER
  1
AC1009
  9
$EXTMIN
 10
0.0
 20
0.0
 30
0.0
  9
$EXTMAX
 10
1000.0
 20
1000.0
 30
0.0
  9
$FILLMODE
 70
 0
  9
$SPLFRAME
 70
 1
  0
ENDSEC
  0
SECTION
  2
TABLES
  0
TABLE
  2
LAYER
 70
1
  0
LAYER
  2
0
 70
     0
 62
     7
  6
CONTINUOUS
  0
ENDTAB
  0
ENDSEC
  0
SECTION
  2
ENTITIES
  0
LINE
  8
0
 62
     0
 10
6.77778
 20
-0
 30
0.0
 11
6.77778
 21
9.22222
 31
0.0
  0
LINE
  8
0
 62
     0
 10
6.77778
 20
9.22222
 30
0.0
 11
5.73611
 21
9.22222
 31
0.0
  0
LINE
  8
0
 62
     0
 10
5.73611
 20
9.22222
 30
0.0
 11
5.73611
 21
-0
 31
0.0
  0
LINE
  8
0
 62
     0
 10
5.73611
 20
-0
 30
0.0
 11
4.73611
 21
-0
 31
0.0
  0
LINE
  8
0
 62
     0
 10
4.73611
 20
-0
 30
0.0
 11
4.73611
 21
2.98611
 31
0.0
  0
LINE
  8
0
 62
     0
 10
4.73611
 20
2.98611
 30
0.0
 11
3.97222
 21
2.98611
 31
0.0
  0
LINE
  8
0
 62
     0
 10
3.97222
 20
2.98611
 30
0.0
 11
3.59326
 21
3.00196
 31
0.0
  0
LINE
  8
0
 62
     0
 10
3.59326
 20
3.00196
 30
0.0
 11
3.23432
 21
3.04947
 31
0.0
  0
LINE
  8
0
 62
     0
 10
3.23432
 20
3.04947
 30
0.0
 11
2.89535
 21
3.12869
 31
0.0
  0
LINE
  8
0
 62
     0
 10
2.89535
 20
3.12869
 30
0.0
 11
2.57633
 21
3.23958
 31
0.0
  0
LINE
  8
0
 62
     0
 10
2.57633
 20
3.23958
 30
0.0
 11
2.27729
 21
3.38217
 31
0.0
  0
LINE
  8
0
 62
     0
 10
2.27729
 20
3.38217
 30
0.0
 11
1.99821
 21
3.55642
 31
0.0
  0
LINE
  8
0
 62
     0
 10
1.99821
 20
3.55642
 30
0.0
 11
1.7391
 21
3.76237
 31
0.0
  0
LINE
  8
0
 62
     0
 10
1.7391
 20
3.76237
 30
0.0
 11
1.5
 21
4
 31
0.0
  0
LINE
  8
0
 62
     0
 10
1.5
 20
4
 30
0.0
 11
1.29492
 21
4.24957
 31
0.0
  0
LINE
  8
0
 62
     0
 10
1.29492
 20
4.24957
 30
0.0
 11
1.11719
 21
4.5191
 31
0.0
  0
LINE
  8
0
 62
     0
 10
1.11719
 20
4.5191
 30
0.0
 11
0.966797
 21
4.8086
 31
0.0
  0
LINE
  8
0
 62
     0
 10
0.966797
 20
4.8086
 30
0.0
 11
0.84375
 21
5.11806
 31
0.0
  0
LINE
  8
0
 62
     0
 10
0.84375
 20
5.11806
 30
0.0
 11
0.748047
 21
5.44749
 31
0.0
  0
LINE
  8
0
 62
     0
 10
0.748047
 20
5.44749
 30
0.0
 11
0.679688
 21
5.79688
 31
0.0
  0
LINE
  8
0
 62
     0
 10
0.679688
 20
5.79688
 30
0.0
 11
0.638672
 21
6.16624
 31
0.0
  0
LINE
  8
0
 62
     0
 10
0.638672
 20
6.16624
 30
0.0
 11
0.625
 21
6.55556
 31
0.0
  0
LINE
  8
0
 62
     0
 10
0.625
 20
6.55556
 30
0.0
 11
0.640625
 21
6.97401
 31
0.0
  0
LINE
  8
0
 62
     0
 10
0.640625
 20
6.97401
 30
0.0
 11
0.6875
 21
7.36811
 31
0.0
  0
LINE
  8
0
 62
     0
 10
0.6875
 20
7.36811
 30
0.0
 11
0.765625
 21
7.7379
 31
0.0
  0
LINE
  8
0
 62
     0
 10
0.765625
 20
7.7379
 30
0.0
 11
0.875
 21
8.08339
 31
0.0
  0
LINE
  8
0
 62
     0
 10
0.875
 20
8.08339
 30
0.0
 11
1.01563
 21
8.40457
 31
0.0
  0
LINE
  8
0
 62
     0
 10
1.01563
 20
8.40457
 30
0.0
 11
1.1875
 21
8.70144
 31
0.0
  0
LINE
  8
0
 62
     0
 10
1.1875
 20
8.70144
 30
0.0
 11
1.39063
 21
8.97401
 31
0.0
  0
LINE
  8
0
 62
     0
 10
1.39063
 20
8.97401
 30
0.0
 11
1.625
 21
9.22222
 31
0.0
  0
LINE
  8
0
 62
     0
 10
1.625
 20
9.22222
 30
0.0
 11
1.87696
 21
9.43707
 31
0.0
  0
LINE
  8
0
 62
     0
 10
1.87696
 20
9.43707
 30
0.0
 11
2.15364
 21
9.62326
 31
0.0
  0
LINE
  8
0
 62
     0
 10
2.15364
 20
9.62326
 30
0.0
 11
2.45508
 21
9.78082
 31
0.0
  0
LINE
  8
0
 62
     0
 10
2.45508
 20
9.78082
 30
0.0
 11
2.78125
 21
9.90972
 31
0.0
  0
LINE
  8
0
 62
     0
 10
2.78125
 20
9.90972
 30
0.0
 11
3.13217
 21
10.01
 31
0.0
  0
LINE
  8
0
 62
     0
 10
3.13217
 20
10.01
 30
0.0
 11
3.50781
 21
10.0816
 31
0.0
  0
LINE
  8
0
 62
     0
 10
3.50781
 20
10.0816
 30
0.0
 11
3.90821
 21
10.1246
 31
0.0
  0
LINE
  8
0
 62
     0
 10
3.90821
 20
10.1246
 30
0.0
 11
4.33333
 21
10.1389
 31
0.0
  0
LINE
  8
0
 62
     0
 10
4.33333
 20
10.1389
 30
0.0
 11
7.77778
 21
10.1389
 31
0.0
  0
LINE
  8
0
 62
     0
 10
7.77778
 20
10.1389
 30
0.0
 11
7.77778
 21
-0
 31
0.0
  0
LINE
  8
0
 62
     0
 10
7.77778
 20
-0
 30
0.0
 11
6.77778
 21
-0
 31
0.0
  0
ENDSEC
  0
EOF
