  0
SECTION
  2
HEADER
  9
$ACADVER
  1
AC1009
  9
$EXTMIN
 10
0.0
 20
0.0
 30
0.0
  9
$EXTMAX
 10
1000.0
 20
1000.0
 30
0.0
  9
$FILLMODE
 70
 0
  9
$SPLFRAME
 70
 1
  0
ENDSEC
  0
SECTION
  2
TABLES
  0
TABLE
  2
LAYER
 70
1
  0
LAYER
  2
0
 70
     0
 62
     7
  6
CONTINUOUS
  0
ENDTAB
  0
ENDSEC
  0
SECTION
  2
ENTITIES
  0
LINE
  8
0
 62
     0
 10
4.06944
 20
1.38889
 30
0.0
 11
2.81944
 21
1.38889
 31
0.0
  0
LINE
  8
0
 62
     0
 10
2.81944
 20
1.38889
 30
0.0
 11
2.81944
 21
-0
 31
0.0
  0
LINE
  8
0
 62
     0
 10
2.81944
 20
-0
 30
0.0
 11
4.06944
 21
-0
 31
0.0
  0
LINE
  8
0
 62
     0
 10
4.06944
 20
-0
 30
0.0
 11
4.06944
 21
1.38889
 31
0.0
  0
LINE
  8
0
 62
     0
 10
2.86111
 20
3.81944
 30
0.0
 11
4.41667
 21
5.86111
 31
0.0
  0
LINE
  8
0
 62
     0
 10
4.41667
 20
5.86111
 30
0.0
 11
4.67361
 21
6.22917
 31
0.0
  0
LINE
  8
0
 62
     0
 10
4.67361
 20
6.22917
 30
0.0
 11
4.90972
 21
6.63889
 31
0.0
  0
LINE
  8
0
 62
     0
 10
4.90972
 20
6.63889
 30
0.0
 11
5.08333
 21
7.04861
 31
0.0
  0
LINE
  8
0
 62
     0
 10
5.08333
 20
7.04861
 30
0.0
 11
5.13536
 21
7.24485
 31
0.0
  0
LINE
  8
0
 62
     0
 10
5.13536
 20
7.24485
 30
0.0
 11
5.15278
 21
7.43056
 31
0.0
  0
LINE
  8
0
 62
     0
 10
5.15278
 20
7.43056
 30
0.0
 11
5.12283
 21
7.78651
 31
0.0
  0
LINE
  8
0
 62
     0
 10
5.12283
 20
7.78651
 30
0.0
 11
5.03299
 21
8.10422
 31
0.0
  0
LINE
  8
0
 62
     0
 10
5.03299
 20
8.10422
 30
0.0
 11
4.88325
 21
8.38374
 31
0.0
  0
LINE
  8
0
 62
     0
 10
4.88325
 20
8.38374
 30
0.0
 11
4.67361
 21
8.625
 31
0.0
  0
LINE
  8
0
 62
     0
 10
4.67361
 20
8.625
 30
0.0
 11
4.41624
 21
8.81944
 31
0.0
  0
LINE
  8
0
 62
     0
 10
4.41624
 20
8.81944
 30
0.0
 11
4.12326
 21
8.95833
 31
0.0
  0
LINE
  8
0
 62
     0
 10
4.12326
 20
8.95833
 30
0.0
 11
3.79471
 21
9.04167
 31
0.0
  0
LINE
  8
0
 62
     0
 10
3.79471
 20
9.04167
 30
0.0
 11
3.43056
 21
9.06944
 31
0.0
  0
LINE
  8
0
 62
     0
 10
3.43056
 20
9.06944
 30
0.0
 11
3.0816
 21
9.03299
 31
0.0
  0
LINE
  8
0
 62
     0
 10
3.0816
 20
9.03299
 30
0.0
 11
2.75694
 21
8.92361
 31
0.0
  0
LINE
  8
0
 62
     0
 10
2.75694
 20
8.92361
 30
0.0
 11
2.46528
 21
8.75353
 31
0.0
  0
LINE
  8
0
 62
     0
 10
2.46528
 20
8.75353
 30
0.0
 11
2.21528
 21
8.53472
 31
0.0
  0
LINE
  8
0
 62
     0
 10
2.21528
 20
8.53472
 30
0.0
 11
2.01215
 21
8.27257
 31
0.0
  0
LINE
  8
0
 62
     0
 10
2.01215
 20
8.27257
 30
0.0
 11
1.86111
 21
7.97222
 31
0.0
  0
LINE
  8
0
 62
     0
 10
1.86111
 20
7.97222
 30
0.0
 11
1.76736
 21
7.64589
 31
0.0
  0
LINE
  8
0
 62
     0
 10
1.76736
 20
7.64589
 30
0.0
 11
1.73611
 21
7.30556
 31
0.0
  0
LINE
  8
0
 62
     0
 10
1.73611
 20
7.30556
 30
0.0
 11
0.569444
 21
7.30556
 31
0.0
  0
LINE
  8
0
 62
     0
 10
0.569444
 20
7.30556
 30
0.0
 11
0.609321
 21
7.81076
 31
0.0
  0
LINE
  8
0
 62
     0
 10
0.609321
 20
7.81076
 30
0.0
 11
0.729167
 21
8.32639
 31
0.0
  0
LINE
  8
0
 62
     0
 10
0.729167
 20
8.32639
 30
0.0
 11
0.821181
 21
8.58078
 31
0.0
  0
LINE
  8
0
 62
     0
 10
0.821181
 20
8.58078
 30
0.0
 11
0.9375
 21
8.82297
 31
0.0
  0
LINE
  8
0
 62
     0
 10
0.9375
 20
8.82297
 30
0.0
 11
1.07813
 21
9.053
 31
0.0
  0
LINE
  8
0
 62
     0
 10
1.07813
 20
9.053
 30
0.0
 11
1.24306
 21
9.27083
 31
0.0
  0
LINE
  8
0
 62
     0
 10
1.24306
 20
9.27083
 30
0.0
 11
1.43186
 21
9.47308
 31
0.0
  0
LINE
  8
0
 62
     0
 10
1.43186
 20
9.47308
 30
0.0
 11
1.6441
 21
9.65625
 31
0.0
  0
LINE
  8
0
 62
     0
 10
1.6441
 20
9.65625
 30
0.0
 11
1.87978
 21
9.82031
 31
0.0
  0
LINE
  8
0
 62
     0
 10
1.87978
 20
9.82031
 30
0.0
 11
2.13889
 21
9.96528
 31
0.0
  0
LINE
  8
0
 62
     0
 10
2.13889
 20
9.96528
 30
0.0
 11
2.42447
 21
10.0838
 31
0.0
  0
LINE
  8
0
 62
     0
 10
2.42447
 20
10.0838
 30
0.0
 11
2.73958
 21
10.1684
 31
0.0
  0
LINE
  8
0
 62
     0
 10
2.73958
 20
10.1684
 30
0.0
 11
3.08419
 21
10.2192
 31
0.0
  0
LINE
  8
0
 62
     0
 10
3.08419
 20
10.2192
 30
0.0
 11
3.45833
 21
10.2361
 31
0.0
  0
LINE
  8
0
 62
     0
 10
3.45833
 20
10.2361
 30
0.0
 11
3.78336
 21
10.221
 31
0.0
  0
LINE
  8
0
 62
     0
 10
3.78336
 20
10.221
 30
0.0
 11
4.09196
 21
10.1754
 31
0.0
  0
LINE
  8
0
 62
     0
 10
4.09196
 20
10.1754
 30
0.0
 11
4.38406
 21
10.0994
 31
0.0
  0
LINE
  8
0
 62
     0
 10
4.38406
 20
10.0994
 30
0.0
 11
4.65972
 21
9.99306
 31
0.0
  0
LINE
  8
0
 62
     0
 10
4.65972
 20
9.99306
 30
0.0
 11
4.91667
 21
9.86197
 31
0.0
  0
LINE
  8
0
 62
     0
 10
4.91667
 20
9.86197
 30
0.0
 11
5.15278
 21
9.71181
 31
0.0
  0
LINE
  8
0
 62
     0
 10
5.15278
 20
9.71181
 30
0.0
 11
5.368
 21
9.54253
 31
0.0
  0
LINE
  8
0
 62
     0
 10
5.368
 20
9.54253
 30
0.0
 11
5.5625
 21
9.35417
 31
0.0
  0
LINE
  8
0
 62
     0
 10
5.5625
 20
9.35417
 30
0.0
 11
5.73568
 21
9.15022
 31
0.0
  0
LINE
  8
0
 62
     0
 10
5.73568
 20
9.15022
 30
0.0
 11
5.88715
 21
8.93408
 31
0.0
  0
LINE
  8
0
 62
     0
 10
5.88715
 20
8.93408
 30
0.0
 11
6.01693
 21
8.70578
 31
0.0
  0
LINE
  8
0
 62
     0
 10
6.01693
 20
8.70578
 30
0.0
 11
6.125
 21
8.46528
 31
0.0
  0
LINE
  8
0
 62
     0
 10
6.125
 20
8.46528
 30
0.0
 11
6.27078
 21
7.97396
 31
0.0
  0
LINE
  8
0
 62
     0
 10
6.27078
 20
7.97396
 30
0.0
 11
6.31944
 21
7.48611
 31
0.0
  0
LINE
  8
0
 62
     0
 10
6.31944
 20
7.48611
 30
0.0
 11
6.30425
 21
7.21224
 31
0.0
  0
LINE
  8
0
 62
     0
 10
6.30425
 20
7.21224
 30
0.0
 11
6.25868
 21
6.94618
 31
0.0
  0
LINE
  8
0
 62
     0
 10
6.25868
 20
6.94618
 30
0.0
 11
6.18272
 21
6.68799
 31
0.0
  0
LINE
  8
0
 62
     0
 10
6.18272
 20
6.68799
 30
0.0
 11
6.07639
 21
6.4375
 31
0.0
  0
LINE
  8
0
 62
     0
 10
6.07639
 20
6.4375
 30
0.0
 11
5.8246
 21
5.97743
 31
0.0
  0
LINE
  8
0
 62
     0
 10
5.8246
 20
5.97743
 30
0.0
 11
5.55556
 21
5.58333
 31
0.0
  0
LINE
  8
0
 62
     0
 10
5.55556
 20
5.58333
 30
0.0
 11
4.02778
 21
3.55556
 31
0.0
  0
LINE
  8
0
 62
     0
 10
4.02778
 20
3.55556
 30
0.0
 11
4.02778
 21
2.25
 31
0.0
  0
LINE
  8
0
 62
     0
 10
4.02778
 20
2.25
 30
0.0
 11
2.86111
 21
2.25
 31
0.0
  0
LINE
  8
0
 62
     0
 10
2.86111
 20
2.25
 30
0.0
 11
2.86111
 21
3.81944
 31
0.0
  0
ENDSEC
  0
EOF
