  0
SECTION
  2
HEADER
  9
$ACADVER
  1
AC1009
  9
$EXTMIN
 10
0.0
 20
0.0
 30
0.0
  9
$EXTMAX
 10
1000.0
 20
1000.0
 30
0.0
  9
$FILLMODE
 70
 0
  9
$SPLFRAME
 70
 1
  0
ENDSEC
  0
SECTION
  2
TABLES
  0
TABLE
  2
LAYER
 70
1
  0
LAYER
  2
0
 70
     0
 62
     7
  6
CONTINUOUS
  0
ENDTAB
  0
ENDSEC
  0
SECTION
  2
ENTITIES
  0
LINE
  8
0
 62
     0
 10
4.75
 20
5.54167
 30
0.0
 11
5.13536
 21
5.57639
 31
0.0
  0
LINE
  8
0
 62
     0
 10
5.13536
 20
5.57639
 30
0.0
 11
5.48611
 21
5.68056
 31
0.0
  0
LINE
  8
0
 62
     0
 10
5.48611
 20
5.68056
 30
0.0
 11
5.79514
 21
5.84381
 31
0.0
  0
LINE
  8
0
 62
     0
 10
5.79514
 20
5.84381
 30
0.0
 11
6.05556
 21
6.05556
 31
0.0
  0
LINE
  8
0
 62
     0
 10
6.05556
 20
6.05556
 30
0.0
 11
6.26383
 21
6.31424
 31
0.0
  0
LINE
  8
0
 62
     0
 10
6.26383
 20
6.31424
 30
0.0
 11
6.41667
 21
6.61806
 31
0.0
  0
LINE
  8
0
 62
     0
 10
6.41667
 20
6.61806
 30
0.0
 11
6.51042
 21
6.95318
 31
0.0
  0
LINE
  8
0
 62
     0
 10
6.51042
 20
6.95318
 30
0.0
 11
6.54167
 21
7.30556
 31
0.0
  0
LINE
  8
0
 62
     0
 10
6.54167
 20
7.30556
 30
0.0
 11
6.50521
 21
7.66493
 31
0.0
  0
LINE
  8
0
 62
     0
 10
6.50521
 20
7.66493
 30
0.0
 11
6.39583
 21
7.99306
 31
0.0
  0
LINE
  8
0
 62
     0
 10
6.39583
 20
7.99306
 30
0.0
 11
6.22217
 21
8.28651
 31
0.0
  0
LINE
  8
0
 62
     0
 10
6.22217
 20
8.28651
 30
0.0
 11
5.99306
 21
8.54167
 31
0.0
  0
LINE
  8
0
 62
     0
 10
5.99306
 20
8.54167
 30
0.0
 11
5.71528
 21
8.75174
 31
0.0
  0
LINE
  8
0
 62
     0
 10
5.71528
 20
8.75174
 30
0.0
 11
5.39583
 21
8.90972
 31
0.0
  0
LINE
  8
0
 62
     0
 10
5.39583
 20
8.90972
 30
0.0
 11
5.04688
 21
9.00868
 31
0.0
  0
LINE
  8
0
 62
     0
 10
5.04688
 20
9.00868
 30
0.0
 11
4.68056
 21
9.04167
 31
0.0
  0
LINE
  8
0
 62
     0
 10
4.68056
 20
9.04167
 30
0.0
 11
2.27778
 21
9.04167
 31
0.0
  0
LINE
  8
0
 62
     0
 10
2.27778
 20
9.04167
 30
0.0
 11
2.27778
 21
5.54167
 31
0.0
  0
LINE
  8
0
 62
     0
 10
2.27778
 20
5.54167
 30
0.0
 11
4.75
 21
5.54167
 31
0.0
  0
LINE
  8
0
 62
     0
 10
8.26389
 20
-0
 30
0.0
 11
7.05556
 21
-0
 31
0.0
  0
LINE
  8
0
 62
     0
 10
7.05556
 20
-0
 30
0.0
 11
4.48611
 21
4.44444
 31
0.0
  0
LINE
  8
0
 62
     0
 10
4.48611
 20
4.44444
 30
0.0
 11
2.27778
 21
4.44444
 31
0.0
  0
LINE
  8
0
 62
     0
 10
2.27778
 20
4.44444
 30
0.0
 11
2.27778
 21
-0
 31
0.0
  0
LINE
  8
0
 62
     0
 10
2.27778
 20
-0
 30
0.0
 11
1.08333
 21
-0
 31
0.0
  0
LINE
  8
0
 62
     0
 10
1.08333
 20
-0
 30
0.0
 11
1.08333
 21
10.1389
 31
0.0
  0
LINE
  8
0
 62
     0
 10
1.08333
 20
10.1389
 30
0.0
 11
4.75
 21
10.1389
 31
0.0
  0
LINE
  8
0
 62
     0
 10
4.75
 20
10.1389
 30
0.0
 11
5.06988
 21
10.1254
 31
0.0
  0
LINE
  8
0
 62
     0
 10
5.06988
 20
10.1254
 30
0.0
 11
5.37674
 21
10.0851
 31
0.0
  0
LINE
  8
0
 62
     0
 10
5.37674
 20
10.0851
 30
0.0
 11
5.67057
 21
10.0178
 31
0.0
  0
LINE
  8
0
 62
     0
 10
5.67057
 20
10.0178
 30
0.0
 11
5.95139
 21
9.92361
 31
0.0
  0
LINE
  8
0
 62
     0
 10
5.95139
 20
9.92361
 30
0.0
 11
6.2161
 21
9.80604
 31
0.0
  0
LINE
  8
0
 62
     0
 10
6.2161
 20
9.80604
 30
0.0
 11
6.46175
 21
9.66846
 31
0.0
  0
LINE
  8
0
 62
     0
 10
6.46175
 20
9.66846
 30
0.0
 11
6.68832
 21
9.5109
 31
0.0
  0
LINE
  8
0
 62
     0
 10
6.68832
 20
9.5109
 30
0.0
 11
6.89583
 21
9.33333
 31
0.0
  0
LINE
  8
0
 62
     0
 10
6.89583
 20
9.33333
 30
0.0
 11
7.08247
 21
9.13758
 31
0.0
  0
LINE
  8
0
 62
     0
 10
7.08247
 20
9.13758
 30
0.0
 11
7.24653
 21
8.92535
 31
0.0
  0
LINE
  8
0
 62
     0
 10
7.24653
 20
8.92535
 30
0.0
 11
7.38803
 21
8.69661
 31
0.0
  0
LINE
  8
0
 62
     0
 10
7.38803
 20
8.69661
 30
0.0
 11
7.50694
 21
8.45139
 31
0.0
  0
LINE
  8
0
 62
     0
 10
7.50694
 20
8.45139
 30
0.0
 11
7.60107
 21
8.19233
 31
0.0
  0
LINE
  8
0
 62
     0
 10
7.60107
 20
8.19233
 30
0.0
 11
7.66835
 21
7.92193
 31
0.0
  0
LINE
  8
0
 62
     0
 10
7.66835
 20
7.92193
 30
0.0
 11
7.70871
 21
7.64025
 31
0.0
  0
LINE
  8
0
 62
     0
 10
7.70871
 20
7.64025
 30
0.0
 11
7.72222
 21
7.34722
 31
0.0
  0
LINE
  8
0
 62
     0
 10
7.72222
 20
7.34722
 30
0.0
 11
7.68397
 21
6.87332
 31
0.0
  0
LINE
  8
0
 62
     0
 10
7.68397
 20
6.87332
 30
0.0
 11
7.56944
 21
6.42361
 31
0.0
  0
LINE
  8
0
 62
     0
 10
7.56944
 20
6.42361
 30
0.0
 11
7.38368
 21
6.00521
 31
0.0
  0
LINE
  8
0
 62
     0
 10
7.38368
 20
6.00521
 30
0.0
 11
7.13194
 21
5.625
 31
0.0
  0
LINE
  8
0
 62
     0
 10
7.13194
 20
5.625
 30
0.0
 11
6.82113
 21
5.28651
 31
0.0
  0
LINE
  8
0
 62
     0
 10
6.82113
 20
5.28651
 30
0.0
 11
6.45833
 21
4.99306
 31
0.0
  0
LINE
  8
0
 62
     0
 10
6.45833
 20
4.99306
 30
0.0
 11
6.05203
 21
4.75526
 31
0.0
  0
LINE
  8
0
 62
     0
 10
6.05203
 20
4.75526
 30
0.0
 11
5.61111
 21
4.58333
 31
0.0
  0
LINE
  8
0
 62
     0
 10
5.61111
 20
4.58333
 30
0.0
 11
8.26389
 21
-0
 31
0.0
  0
ENDSEC
  0
EOF
