  0
SECTION
  2
HEADER
  9
$ACADVER
  1
AC1009
  9
$EXTMIN
 10
0.0
 20
0.0
 30
0.0
  9
$EXTMAX
 10
1000.0
 20
1000.0
 30
0.0
  9
$FILLMODE
 70
 0
  9
$SPLFRAME
 70
 1
  0
ENDSEC
  0
SECTION
  2
TABLES
  0
TABLE
  2
LAYER
 70
1
  0
LAYER
  2
0
 70
     0
 62
     7
  6
CONTINUOUS
  0
ENDTAB
  0
ENDSEC
  0
SECTION
  2
ENTITIES
  0
LINE
  8
0
 62
     0
 10
4.90278
 20
5.40278
 30
0.0
 11
4.90278
 21
7.125
 31
0.0
  0
LINE
  8
0
 62
     0
 10
4.90278
 20
7.125
 30
0.0
 11
6.125
 21
7.125
 31
0.0
  0
LINE
  8
0
 62
     0
 10
6.125
 20
7.125
 30
0.0
 11
6.329
 21
7.11117
 31
0.0
  0
LINE
  8
0
 62
     0
 10
6.329
 20
7.11117
 30
0.0
 11
6.51042
 21
7.0695
 31
0.0
  0
LINE
  8
0
 62
     0
 10
6.51042
 20
7.0695
 30
0.0
 11
6.66928
 21
7.00006
 31
0.0
  0
LINE
  8
0
 62
     0
 10
6.66928
 20
7.00006
 30
0.0
 11
6.80556
 21
6.90278
 31
0.0
  0
LINE
  8
0
 62
     0
 10
6.80556
 20
6.90278
 30
0.0
 11
6.91493
 21
6.78039
 31
0.0
  0
LINE
  8
0
 62
     0
 10
6.91493
 20
6.78039
 30
0.0
 11
6.99306
 21
6.63542
 31
0.0
  0
LINE
  8
0
 62
     0
 10
6.99306
 20
6.63542
 30
0.0
 11
7.03993
 21
6.46789
 31
0.0
  0
LINE
  8
0
 62
     0
 10
7.03993
 20
6.46789
 30
0.0
 11
7.05556
 21
6.27778
 31
0.0
  0
LINE
  8
0
 62
     0
 10
7.05556
 20
6.27778
 30
0.0
 11
7.04167
 21
6.08686
 31
0.0
  0
LINE
  8
0
 62
     0
 10
7.04167
 20
6.08686
 30
0.0
 11
7
 21
5.91667
 31
0.0
  0
LINE
  8
0
 62
     0
 10
7
 20
5.91667
 30
0.0
 11
6.93056
 21
5.76736
 31
0.0
  0
LINE
  8
0
 62
     0
 10
6.93056
 20
5.76736
 30
0.0
 11
6.83333
 21
5.63889
 31
0.0
  0
LINE
  8
0
 62
     0
 10
6.83333
 20
5.63889
 30
0.0
 11
6.70828
 21
5.53564
 31
0.0
  0
LINE
  8
0
 62
     0
 10
6.70828
 20
5.53564
 30
0.0
 11
6.5555
 21
5.46186
 31
0.0
  0
LINE
  8
0
 62
     0
 10
6.5555
 20
5.46186
 30
0.0
 11
6.37494
 21
5.41758
 31
0.0
  0
LINE
  8
0
 62
     0
 10
6.37494
 20
5.41758
 30
0.0
 11
6.16667
 21
5.40278
 31
0.0
  0
LINE
  8
0
 62
     0
 10
6.16667
 20
5.40278
 30
0.0
 11
4.90278
 21
5.40278
 31
0.0
  0
LINE
  8
0
 62
     0
 10
6.63889
 20
4.75
 30
0.0
 11
6.88971
 21
4.84375
 31
0.0
  0
LINE
  8
0
 62
     0
 10
6.88971
 20
4.84375
 30
0.0
 11
7.11458
 21
4.97222
 31
0.0
  0
LINE
  8
0
 62
     0
 10
7.11458
 20
4.97222
 30
0.0
 11
7.31336
 21
5.13542
 31
0.0
  0
LINE
  8
0
 62
     0
 10
7.31336
 20
5.13542
 30
0.0
 11
7.48611
 21
5.33333
 31
0.0
  0
LINE
  8
0
 62
     0
 10
7.48611
 20
5.33333
 30
0.0
 11
7.62582
 21
5.55474
 31
0.0
  0
LINE
  8
0
 62
     0
 10
7.62582
 20
5.55474
 30
0.0
 11
7.72564
 21
5.78825
 31
0.0
  0
LINE
  8
0
 62
     0
 10
7.72564
 20
5.78825
 30
0.0
 11
7.78554
 21
6.0339
 31
0.0
  0
LINE
  8
0
 62
     0
 10
7.78554
 20
6.0339
 30
0.0
 11
7.80556
 21
6.29167
 31
0.0
  0
LINE
  8
0
 62
     0
 10
7.80556
 20
6.29167
 30
0.0
 11
7.77604
 21
6.61117
 31
0.0
  0
LINE
  8
0
 62
     0
 10
7.77604
 20
6.61117
 30
0.0
 11
7.6875
 21
6.90278
 31
0.0
  0
LINE
  8
0
 62
     0
 10
7.6875
 20
6.90278
 30
0.0
 11
7.5434
 21
7.16319
 31
0.0
  0
LINE
  8
0
 62
     0
 10
7.5434
 20
7.16319
 30
0.0
 11
7.34722
 21
7.38889
 31
0.0
  0
LINE
  8
0
 62
     0
 10
7.34722
 20
7.38889
 30
0.0
 11
7.10585
 21
7.57465
 31
0.0
  0
LINE
  8
0
 62
     0
 10
7.10585
 20
7.57465
 30
0.0
 11
6.82639
 21
7.71528
 31
0.0
  0
LINE
  8
0
 62
     0
 10
6.82639
 20
7.71528
 30
0.0
 11
6.51215
 21
7.80388
 31
0.0
  0
LINE
  8
0
 62
     0
 10
6.51215
 20
7.80388
 30
0.0
 11
6.16667
 21
7.83333
 31
0.0
  0
LINE
  8
0
 62
     0
 10
6.16667
 20
7.83333
 30
0.0
 11
4.13889
 21
7.83333
 31
0.0
  0
LINE
  8
0
 62
     0
 10
4.13889
 20
7.83333
 30
0.0
 11
4.13889
 21
2.23611
 31
0.0
  0
LINE
  8
0
 62
     0
 10
4.13889
 20
2.23611
 30
0.0
 11
4.90278
 21
2.23611
 31
0.0
  0
LINE
  8
0
 62
     0
 10
4.90278
 20
2.23611
 30
0.0
 11
4.90278
 21
4.68056
 31
0.0
  0
LINE
  8
0
 62
     0
 10
4.90278
 20
4.68056
 30
0.0
 11
5.93056
 21
4.68056
 31
0.0
  0
LINE
  8
0
 62
     0
 10
5.93056
 20
4.68056
 30
0.0
 11
7.33333
 21
2.23611
 31
0.0
  0
LINE
  8
0
 62
     0
 10
7.33333
 20
2.23611
 30
0.0
 11
8.09722
 21
2.23611
 31
0.0
  0
LINE
  8
0
 62
     0
 10
8.09722
 20
2.23611
 30
0.0
 11
6.63889
 21
4.75
 31
0.0
  0
LINE
  8
0
 62
     0
 10
5.88889
 20
0.847222
 30
0.0
 11
6.31988
 21
0.867622
 31
0.0
  0
LINE
  8
0
 62
     0
 10
6.31988
 20
0.867622
 30
0.0
 11
6.73785
 21
0.928819
 31
0.0
  0
LINE
  8
0
 62
     0
 10
6.73785
 20
0.928819
 30
0.0
 11
7.14279
 21
1.03082
 31
0.0
  0
LINE
  8
0
 62
     0
 10
7.14279
 20
1.03082
 30
0.0
 11
7.53472
 21
1.17361
 31
0.0
  0
LINE
  8
0
 62
     0
 10
7.53472
 20
1.17361
 30
0.0
 11
7.90793
 21
1.35248
 31
0.0
  0
LINE
  8
0
 62
     0
 10
7.90793
 20
1.35248
 30
0.0
 11
8.25689
 21
1.5625
 31
0.0
  0
LINE
  8
0
 62
     0
 10
8.25689
 20
1.5625
 30
0.0
 11
8.58154
 21
1.80382
 31
0.0
  0
LINE
  8
0
 62
     0
 10
8.58154
 20
1.80382
 30
0.0
 11
8.88194
 21
2.07639
 31
0.0
  0
LINE
  8
0
 62
     0
 10
8.88194
 20
2.07639
 30
0.0
 11
9.15451
 21
2.37679
 31
0.0
  0
LINE
  8
0
 62
     0
 10
9.15451
 20
2.37679
 30
0.0
 11
9.39583
 21
2.70144
 31
0.0
  0
LINE
  8
0
 62
     0
 10
9.39583
 20
2.70144
 30
0.0
 11
9.6059
 21
3.0504
 31
0.0
  0
LINE
  8
0
 62
     0
 10
9.6059
 20
3.0504
 30
0.0
 11
9.78472
 21
3.42361
 31
0.0
  0
LINE
  8
0
 62
     0
 10
9.78472
 20
3.42361
 30
0.0
 11
9.92751
 21
3.81554
 31
0.0
  0
LINE
  8
0
 62
     0
 10
9.92751
 20
3.81554
 30
0.0
 11
10.0295
 21
4.22049
 31
0.0
  0
LINE
  8
0
 62
     0
 10
10.0295
 20
4.22049
 30
0.0
 11
10.0907
 21
4.63846
 31
0.0
  0
LINE
  8
0
 62
     0
 10
10.0907
 20
4.63846
 30
0.0
 11
10.1111
 21
5.06944
 31
0.0
  0
LINE
  8
0
 62
     0
 10
10.1111
 20
5.06944
 30
0.0
 11
10.0907
 21
5.50043
 31
0.0
  0
LINE
  8
0
 62
     0
 10
10.0907
 20
5.50043
 30
0.0
 11
10.0295
 21
5.9184
 31
0.0
  0
LINE
  8
0
 62
     0
 10
10.0295
 20
5.9184
 30
0.0
 11
9.92751
 21
6.32335
 31
0.0
  0
LINE
  8
0
 62
     0
 10
9.92751
 20
6.32335
 30
0.0
 11
9.78472
 21
6.71528
 31
0.0
  0
LINE
  8
0
 62
     0
 10
9.78472
 20
6.71528
 30
0.0
 11
9.60585
 21
7.08817
 31
0.0
  0
LINE
  8
0
 62
     0
 10
9.60585
 20
7.08817
 30
0.0
 11
9.39583
 21
7.43582
 31
0.0
  0
LINE
  8
0
 62
     0
 10
9.39583
 20
7.43582
 30
0.0
 11
9.15451
 21
7.75831
 31
0.0
  0
LINE
  8
0
 62
     0
 10
9.15451
 20
7.75831
 30
0.0
 11
8.88194
 21
8.05556
 31
0.0
  0
LINE
  8
0
 62
     0
 10
8.88194
 20
8.05556
 30
0.0
 11
8.58154
 21
8.32553
 31
0.0
  0
LINE
  8
0
 62
     0
 10
8.58154
 20
8.32553
 30
0.0
 11
8.25689
 21
8.56597
 31
0.0
  0
LINE
  8
0
 62
     0
 10
8.25689
 20
8.56597
 30
0.0
 11
7.90793
 21
8.77692
 31
0.0
  0
LINE
  8
0
 62
     0
 10
7.90793
 20
8.77692
 30
0.0
 11
7.53472
 21
8.95833
 31
0.0
  0
LINE
  8
0
 62
     0
 10
7.53472
 20
8.95833
 30
0.0
 11
7.14279
 21
9.10417
 31
0.0
  0
LINE
  8
0
 62
     0
 10
7.14279
 20
9.10417
 30
0.0
 11
6.73785
 21
9.20833
 31
0.0
  0
LINE
  8
0
 62
     0
 10
6.73785
 20
9.20833
 30
0.0
 11
6.31988
 21
9.27083
 31
0.0
  0
LINE
  8
0
 62
     0
 10
6.31988
 20
9.27083
 30
0.0
 11
5.88889
 21
9.29167
 31
0.0
  0
LINE
  8
0
 62
     0
 10
5.88889
 20
9.29167
 30
0.0
 11
5.45833
 21
9.27083
 31
0.0
  0
LINE
  8
0
 62
     0
 10
5.45833
 20
9.27083
 30
0.0
 11
5.04167
 21
9.20833
 31
0.0
  0
LINE
  8
0
 62
     0
 10
5.04167
 20
9.20833
 30
0.0
 11
4.63889
 21
9.10417
 31
0.0
  0
LINE
  8
0
 62
     0
 10
4.63889
 20
9.10417
 30
0.0
 11
4.25
 21
8.95833
 31
0.0
  0
LINE
  8
0
 62
     0
 10
4.25
 20
8.95833
 30
0.0
 11
3.87972
 21
8.77692
 31
0.0
  0
LINE
  8
0
 62
     0
 10
3.87972
 20
8.77692
 30
0.0
 11
3.53299
 21
8.56597
 31
0.0
  0
LINE
  8
0
 62
     0
 10
3.53299
 20
8.56597
 30
0.0
 11
3.20964
 21
8.32553
 31
0.0
  0
LINE
  8
0
 62
     0
 10
3.20964
 20
8.32553
 30
0.0
 11
2.90972
 21
8.05556
 31
0.0
  0
LINE
  8
0
 62
     0
 10
2.90972
 20
8.05556
 30
0.0
 11
2.6371
 21
7.75831
 31
0.0
  0
LINE
  8
0
 62
     0
 10
2.6371
 20
7.75831
 30
0.0
 11
2.39583
 21
7.43582
 31
0.0
  0
LINE
  8
0
 62
     0
 10
2.39583
 20
7.43582
 30
0.0
 11
2.18576
 21
7.08817
 31
0.0
  0
LINE
  8
0
 62
     0
 10
2.18576
 20
7.08817
 30
0.0
 11
2.00694
 21
6.71528
 31
0.0
  0
LINE
  8
0
 62
     0
 10
2.00694
 20
6.71528
 30
0.0
 11
1.8641
 21
6.32335
 31
0.0
  0
LINE
  8
0
 62
     0
 10
1.8641
 20
6.32335
 30
0.0
 11
1.7621
 21
5.9184
 31
0.0
  0
LINE
  8
0
 62
     0
 10
1.7621
 20
5.9184
 30
0.0
 11
1.7009
 21
5.50043
 31
0.0
  0
LINE
  8
0
 62
     0
 10
1.7009
 20
5.50043
 30
0.0
 11
1.68056
 21
5.06944
 31
0.0
  0
LINE
  8
0
 62
     0
 10
1.68056
 20
5.06944
 30
0.0
 11
1.7009
 21
4.63846
 31
0.0
  0
LINE
  8
0
 62
     0
 10
1.7009
 20
4.63846
 30
0.0
 11
1.7621
 21
4.22049
 31
0.0
  0
LINE
  8
0
 62
     0
 10
1.7621
 20
4.22049
 30
0.0
 11
1.8641
 21
3.81554
 31
0.0
  0
LINE
  8
0
 62
     0
 10
1.8641
 20
3.81554
 30
0.0
 11
2.00694
 21
3.42361
 31
0.0
  0
LINE
  8
0
 62
     0
 10
2.00694
 20
3.42361
 30
0.0
 11
2.18576
 21
3.0504
 31
0.0
  0
LINE
  8
0
 62
     0
 10
2.18576
 20
3.0504
 30
0.0
 11
2.39583
 21
2.70144
 31
0.0
  0
LINE
  8
0
 62
     0
 10
2.39583
 20
2.70144
 30
0.0
 11
2.6371
 21
2.37679
 31
0.0
  0
LINE
  8
0
 62
     0
 10
2.6371
 20
2.37679
 30
0.0
 11
2.90972
 21
2.07639
 31
0.0
  0
LINE
  8
0
 62
     0
 10
2.90972
 20
2.07639
 30
0.0
 11
3.20964
 21
1.80382
 31
0.0
  0
LINE
  8
0
 62
     0
 10
3.20964
 20
1.80382
 30
0.0
 11
3.53299
 21
1.5625
 31
0.0
  0
LINE
  8
0
 62
     0
 10
3.53299
 20
1.5625
 30
0.0
 11
3.87972
 21
1.35248
 31
0.0
  0
LINE
  8
0
 62
     0
 10
3.87972
 20
1.35248
 30
0.0
 11
4.25
 21
1.17361
 31
0.0
  0
LINE
  8
0
 62
     0
 10
4.25
 20
1.17361
 30
0.0
 11
4.63889
 21
1.03082
 31
0.0
  0
LINE
  8
0
 62
     0
 10
4.63889
 20
1.03082
 30
0.0
 11
5.04167
 21
0.928819
 31
0.0
  0
LINE
  8
0
 62
     0
 10
5.04167
 20
0.928819
 30
0.0
 11
5.45833
 21
0.867622
 31
0.0
  0
LINE
  8
0
 62
     0
 10
5.45833
 20
0.867622
 30
0.0
 11
5.88889
 21
0.847222
 31
0.0
  0
LINE
  8
0
 62
     0
 10
5.88889
 20
10.1389
 30
0.0
 11
6.40842
 21
10.1137
 31
0.0
  0
LINE
  8
0
 62
     0
 10
6.40842
 20
10.1137
 30
0.0
 11
6.91146
 21
10.0382
 31
0.0
  0
LINE
  8
0
 62
     0
 10
6.91146
 20
10.0382
 30
0.0
 11
7.398
 21
9.91233
 31
0.0
  0
LINE
  8
0
 62
     0
 10
7.398
 20
9.91233
 30
0.0
 11
7.86806
 21
9.73611
 31
0.0
  0
LINE
  8
0
 62
     0
 10
7.86806
 20
9.73611
 30
0.0
 11
8.31506
 21
9.51699
 31
0.0
  0
LINE
  8
0
 62
     0
 10
8.31506
 20
9.51699
 30
0.0
 11
8.73258
 21
9.26221
 31
0.0
  0
LINE
  8
0
 62
     0
 10
8.73258
 20
9.26221
 30
0.0
 11
9.12061
 21
8.97185
 31
0.0
  0
LINE
  8
0
 62
     0
 10
9.12061
 20
8.97185
 30
0.0
 11
9.47917
 21
8.64583
 31
0.0
  0
LINE
  8
0
 62
     0
 10
9.47917
 20
8.64583
 30
0.0
 11
9.80469
 21
8.28733
 31
0.0
  0
LINE
  8
0
 62
     0
 10
9.80469
 20
8.28733
 30
0.0
 11
10.0938
 21
7.89931
 31
0.0
  0
LINE
  8
0
 62
     0
 10
10.0938
 20
7.89931
 30
0.0
 11
10.3464
 21
7.48178
 31
0.0
  0
LINE
  8
0
 62
     0
 10
10.3464
 20
7.48178
 30
0.0
 11
10.5625
 21
7.03472
 31
0.0
  0
LINE
  8
0
 62
     0
 10
10.5625
 20
7.03472
 30
0.0
 11
10.7357
 21
6.5656
 31
0.0
  0
LINE
  8
0
 62
     0
 10
10.7357
 20
6.5656
 30
0.0
 11
10.8594
 21
6.08165
 31
0.0
  0
LINE
  8
0
 62
     0
 10
10.8594
 20
6.08165
 30
0.0
 11
10.9336
 21
5.58296
 31
0.0
  0
LINE
  8
0
 62
     0
 10
10.9336
 20
5.58296
 30
0.0
 11
10.9583
 21
5.06944
 31
0.0
  0
LINE
  8
0
 62
     0
 10
10.9583
 20
5.06944
 30
0.0
 11
10.9336
 21
4.54992
 31
0.0
  0
LINE
  8
0
 62
     0
 10
10.9336
 20
4.54992
 30
0.0
 11
10.8594
 21
4.04688
 31
0.0
  0
LINE
  8
0
 62
     0
 10
10.8594
 20
4.04688
 30
0.0
 11
10.7357
 21
3.56033
 31
0.0
  0
LINE
  8
0
 62
     0
 10
10.7357
 20
3.56033
 30
0.0
 11
10.5625
 21
3.09028
 31
0.0
  0
LINE
  8
0
 62
     0
 10
10.5625
 20
3.09028
 30
0.0
 11
10.3464
 21
2.64328
 31
0.0
  0
LINE
  8
0
 62
     0
 10
10.3464
 20
2.64328
 30
0.0
 11
10.0938
 21
2.22575
 31
0.0
  0
LINE
  8
0
 62
     0
 10
10.0938
 20
2.22575
 30
0.0
 11
9.80469
 21
1.83772
 31
0.0
  0
LINE
  8
0
 62
     0
 10
9.80469
 20
1.83772
 30
0.0
 11
9.47917
 21
1.47917
 31
0.0
  0
LINE
  8
0
 62
     0
 10
9.47917
 20
1.47917
 30
0.0
 11
9.12061
 21
1.15365
 31
0.0
  0
LINE
  8
0
 62
     0
 10
9.12061
 20
1.15365
 30
0.0
 11
8.73258
 21
0.864583
 31
0.0
  0
LINE
  8
0
 62
     0
 10
8.73258
 20
0.864583
 30
0.0
 11
8.31506
 21
0.611979
 31
0.0
  0
LINE
  8
0
 62
     0
 10
8.31506
 20
0.611979
 30
0.0
 11
7.86806
 21
0.395833
 31
0.0
  0
LINE
  8
0
 62
     0
 10
7.86806
 20
0.395833
 30
0.0
 11
7.398
 21
0.222656
 31
0.0
  0
LINE
  8
0
 62
     0
 10
7.398
 20
0.222656
 30
0.0
 11
6.9114
 21
0.0989583
 31
0.0
  0
LINE
  8
0
 62
     0
 10
6.9114
 20
0.0989583
 30
0.0
 11
6.40836
 21
0.0247396
 31
0.0
  0
LINE
  8
0
 62
     0
 10
6.40836
 20
0.0247396
 30
0.0
 11
5.88889
 21
-0
 31
0.0
  0
LINE
  8
0
 62
     0
 10
5.88889
 20
-0
 30
0.0
 11
5.37538
 21
0.0247396
 31
0.0
  0
LINE
  8
0
 62
     0
 10
5.37538
 20
0.0247396
 30
0.0
 11
4.87668
 21
0.0989583
 31
0.0
  0
LINE
  8
0
 62
     0
 10
4.87668
 20
0.0989583
 30
0.0
 11
4.39274
 21
0.222656
 31
0.0
  0
LINE
  8
0
 62
     0
 10
4.39274
 20
0.222656
 30
0.0
 11
3.92361
 21
0.395833
 31
0.0
  0
LINE
  8
0
 62
     0
 10
3.92361
 20
0.395833
 30
0.0
 11
3.47656
 21
0.611979
 31
0.0
  0
LINE
  8
0
 62
     0
 10
3.47656
 20
0.611979
 30
0.0
 11
3.05903
 21
0.864583
 31
0.0
  0
LINE
  8
0
 62
     0
 10
3.05903
 20
0.864583
 30
0.0
 11
2.671
 21
1.15365
 31
0.0
  0
LINE
  8
0
 62
     0
 10
2.671
 20
1.15365
 30
0.0
 11
2.3125
 21
1.47917
 31
0.0
  0
LINE
  8
0
 62
     0
 10
2.3125
 20
1.47917
 30
0.0
 11
1.98697
 21
1.83772
 31
0.0
  0
LINE
  8
0
 62
     0
 10
1.98697
 20
1.83772
 30
0.0
 11
1.69792
 21
2.22575
 31
0.0
  0
LINE
  8
0
 62
     0
 10
1.69792
 20
2.22575
 30
0.0
 11
1.44531
 21
2.64328
 31
0.0
  0
LINE
  8
0
 62
     0
 10
1.44531
 20
2.64328
 30
0.0
 11
1.22917
 21
3.09028
 31
0.0
  0
LINE
  8
0
 62
     0
 10
1.22917
 20
3.09028
 30
0.0
 11
1.05599
 21
3.56033
 31
0.0
  0
LINE
  8
0
 62
     0
 10
1.05599
 20
3.56033
 30
0.0
 11
0.932292
 21
4.04688
 31
0.0
  0
LINE
  8
0
 62
     0
 10
0.932292
 20
4.04688
 30
0.0
 11
0.858072
 21
4.54992
 31
0.0
  0
LINE
  8
0
 62
     0
 10
0.858072
 20
4.54992
 30
0.0
 11
0.833333
 21
5.06944
 31
0.0
  0
LINE
  8
0
 62
     0
 10
0.833333
 20
5.06944
 30
0.0
 11
0.858072
 21
5.58296
 31
0.0
  0
LINE
  8
0
 62
     0
 10
0.858072
 20
5.58296
 30
0.0
 11
0.932292
 21
6.08165
 31
0.0
  0
LINE
  8
0
 62
     0
 10
0.932292
 20
6.08165
 30
0.0
 11
1.05599
 21
6.5656
 31
0.0
  0
LINE
  8
0
 62
     0
 10
1.05599
 20
6.5656
 30
0.0
 11
1.22917
 21
7.03472
 31
0.0
  0
LINE
  8
0
 62
     0
 10
1.22917
 20
7.03472
 30
0.0
 11
1.44531
 21
7.48178
 31
0.0
  0
LINE
  8
0
 62
     0
 10
1.44531
 20
7.48178
 30
0.0
 11
1.69792
 21
7.89931
 31
0.0
  0
LINE
  8
0
 62
     0
 10
1.69792
 20
7.89931
 30
0.0
 11
1.98697
 21
8.28733
 31
0.0
  0
LINE
  8
0
 62
     0
 10
1.98697
 20
8.28733
 30
0.0
 11
2.3125
 21
8.64583
 31
0.0
  0
LINE
  8
0
 62
     0
 10
2.3125
 20
8.64583
 30
0.0
 11
2.671
 21
8.97185
 31
0.0
  0
LINE
  8
0
 62
     0
 10
2.671
 20
8.97185
 30
0.0
 11
3.05903
 21
9.26221
 31
0.0
  0
LINE
  8
0
 62
     0
 10
3.05903
 20
9.26221
 30
0.0
 11
3.47656
 21
9.51699
 31
0.0
  0
LINE
  8
0
 62
     0
 10
3.47656
 20
9.51699
 30
0.0
 11
3.92361
 21
9.73611
 31
0.0
  0
LINE
  8
0
 62
     0
 10
3.92361
 20
9.73611
 30
0.0
 11
4.39274
 21
9.91233
 31
0.0
  0
LINE
  8
0
 62
     0
 10
4.39274
 20
9.91233
 30
0.0
 11
4.87668
 21
10.0382
 31
0.0
  0
LINE
  8
0
 62
     0
 10
4.87668
 20
10.0382
 30
0.0
 11
5.37538
 21
10.1137
 31
0.0
  0
LINE
  8
0
 62
     0
 10
5.37538
 20
10.1137
 30
0.0
 11
5.88889
 21
10.1389
 31
0.0
  0
ENDSEC
  0
EOF
