  0
SECTION
  2
HEADER
  9
$ACADVER
  1
AC1009
  9
$EXTMIN
 10
0.0
 20
0.0
 30
0.0
  9
$EXTMAX
 10
1000.0
 20
1000.0
 30
0.0
  9
$FILLMODE
 70
 0
  9
$SPLFRAME
 70
 1
  0
ENDSEC
  0
SECTION
  2
TABLES
  0
TABLE
  2
LAYER
 70
1
  0
LAYER
  2
0
 70
     0
 62
     7
  6
CONTINUOUS
  0
ENDTAB
  0
ENDSEC
  0
SECTION
  2
ENTITIES
  0
LINE
  8
0
 62
     0
 10
3.58333
 20
1.86111
 30
0.0
 11
3.95964
 21
1.87896
 31
0.0
  0
LINE
  8
0
 62
     0
 10
3.95964
 20
1.87896
 30
0.0
 11
4.29688
 21
1.96012
 31
0.0
  0
LINE
  8
0
 62
     0
 10
4.29688
 20
1.96012
 30
0.0
 11
4.59506
 21
2.10465
 31
0.0
  0
LINE
  8
0
 62
     0
 10
4.59506
 20
2.10465
 30
0.0
 11
4.85417
 21
2.3125
 31
0.0
  0
LINE
  8
0
 62
     0
 10
4.85417
 20
2.3125
 30
0.0
 11
5.06381
 21
2.5734
 31
0.0
  0
LINE
  8
0
 62
     0
 10
5.06381
 20
2.5734
 30
0.0
 11
5.21354
 21
2.87679
 31
0.0
  0
LINE
  8
0
 62
     0
 10
5.21354
 20
2.87679
 30
0.0
 11
5.30339
 21
3.22271
 31
0.0
  0
LINE
  8
0
 62
     0
 10
5.30339
 20
3.22271
 30
0.0
 11
5.33333
 21
3.61111
 31
0.0
  0
LINE
  8
0
 62
     0
 10
5.33333
 20
3.61111
 30
0.0
 11
5.30729
 21
3.99442
 31
0.0
  0
LINE
  8
0
 62
     0
 10
5.30729
 20
3.99442
 30
0.0
 11
5.22917
 21
4.33854
 31
0.0
  0
LINE
  8
0
 62
     0
 10
5.22917
 20
4.33854
 30
0.0
 11
5.09896
 21
4.64367
 31
0.0
  0
LINE
  8
0
 62
     0
 10
5.09896
 20
4.64367
 30
0.0
 11
4.91667
 21
4.90972
 31
0.0
  0
LINE
  8
0
 62
     0
 10
4.91667
 20
4.90972
 30
0.0
 11
4.80469
 21
5.02533
 31
0.0
  0
LINE
  8
0
 62
     0
 10
4.80469
 20
5.02533
 30
0.0
 11
4.67708
 21
5.12549
 31
0.0
  0
LINE
  8
0
 62
     0
 10
4.67708
 20
5.12549
 30
0.0
 11
4.53386
 21
5.21024
 31
0.0
  0
LINE
  8
0
 62
     0
 10
4.53386
 20
5.21024
 30
0.0
 11
4.375
 21
5.27957
 31
0.0
  0
LINE
  8
0
 62
     0
 10
4.375
 20
5.27957
 30
0.0
 11
4.20053
 21
5.3335
 31
0.0
  0
LINE
  8
0
 62
     0
 10
4.20053
 20
5.3335
 30
0.0
 11
4.01042
 21
5.37201
 31
0.0
  0
LINE
  8
0
 62
     0
 10
4.01042
 20
5.37201
 30
0.0
 11
3.80469
 21
5.39513
 31
0.0
  0
LINE
  8
0
 62
     0
 10
3.80469
 20
5.39513
 30
0.0
 11
3.58333
 21
5.40278
 31
0.0
  0
LINE
  8
0
 62
     0
 10
3.58333
 20
5.40278
 30
0.0
 11
3.20572
 21
5.37414
 31
0.0
  0
LINE
  8
0
 62
     0
 10
3.20572
 20
5.37414
 30
0.0
 11
2.86458
 21
5.28819
 31
0.0
  0
LINE
  8
0
 62
     0
 10
2.86458
 20
5.28819
 30
0.0
 11
2.55989
 21
5.14497
 31
0.0
  0
LINE
  8
0
 62
     0
 10
2.55989
 20
5.14497
 30
0.0
 11
2.29167
 21
4.94444
 31
0.0
  0
LINE
  8
0
 62
     0
 10
2.29167
 20
4.94444
 30
0.0
 11
2.17447
 21
4.82335
 31
0.0
  0
LINE
  8
0
 62
     0
 10
2.17447
 20
4.82335
 30
0.0
 11
2.07292
 21
4.68924
 31
0.0
  0
LINE
  8
0
 62
     0
 10
2.07292
 20
4.68924
 30
0.0
 11
1.98697
 21
4.5421
 31
0.0
  0
LINE
  8
0
 62
     0
 10
1.98697
 20
4.5421
 30
0.0
 11
1.91667
 21
4.38194
 31
0.0
  0
LINE
  8
0
 62
     0
 10
1.91667
 20
4.38194
 30
0.0
 11
1.86197
 21
4.20876
 31
0.0
  0
LINE
  8
0
 62
     0
 10
1.86197
 20
4.20876
 30
0.0
 11
1.82292
 21
4.02257
 31
0.0
  0
LINE
  8
0
 62
     0
 10
1.82292
 20
4.02257
 30
0.0
 11
1.79947
 21
3.82335
 31
0.0
  0
LINE
  8
0
 62
     0
 10
1.79947
 20
3.82335
 30
0.0
 11
1.79167
 21
3.61111
 31
0.0
  0
LINE
  8
0
 62
     0
 10
1.79167
 20
3.61111
 30
0.0
 11
1.79915
 21
3.39942
 31
0.0
  0
LINE
  8
0
 62
     0
 10
1.79915
 20
3.39942
 30
0.0
 11
1.82161
 21
3.20182
 31
0.0
  0
LINE
  8
0
 62
     0
 10
1.82161
 20
3.20182
 30
0.0
 11
1.85906
 21
3.01833
 31
0.0
  0
LINE
  8
0
 62
     0
 10
1.85906
 20
3.01833
 30
0.0
 11
1.91146
 21
2.84896
 31
0.0
  0
LINE
  8
0
 62
     0
 10
1.91146
 20
2.84896
 30
0.0
 11
1.97885
 21
2.69368
 31
0.0
  0
LINE
  8
0
 62
     0
 10
1.97885
 20
2.69368
 30
0.0
 11
2.06119
 21
2.55251
 31
0.0
  0
LINE
  8
0
 62
     0
 10
2.06119
 20
2.55251
 30
0.0
 11
2.15853
 21
2.42546
 31
0.0
  0
LINE
  8
0
 62
     0
 10
2.15853
 20
2.42546
 30
0.0
 11
2.27083
 21
2.3125
 31
0.0
  0
LINE
  8
0
 62
     0
 10
2.27083
 20
2.3125
 30
0.0
 11
2.53256
 21
2.12543
 31
0.0
  0
LINE
  8
0
 62
     0
 10
2.53256
 20
2.12543
 30
0.0
 11
2.83854
 21
1.98785
 31
0.0
  0
LINE
  8
0
 62
     0
 10
2.83854
 20
1.98785
 30
0.0
 11
3.18881
 21
1.89974
 31
0.0
  0
LINE
  8
0
 62
     0
 10
3.18881
 20
1.89974
 30
0.0
 11
3.58333
 21
1.86111
 31
0.0
  0
LINE
  8
0
 62
     0
 10
0.972222
 20
-1.20833
 30
0.0
 11
1.23606
 21
-1.37153
 31
0.0
  0
LINE
  8
0
 62
     0
 10
1.23606
 20
-1.37153
 30
0.0
 11
1.55556
 21
-1.52778
 31
0.0
  0
LINE
  8
0
 62
     0
 10
1.55556
 20
-1.52778
 30
0.0
 11
1.90972
 21
-1.67182
 31
0.0
  0
LINE
  8
0
 62
     0
 10
1.90972
 20
-1.67182
 30
0.0
 11
2.27778
 21
-1.79861
 31
0.0
  0
LINE
  8
0
 62
     0
 10
2.27778
 20
-1.79861
 30
0.0
 11
3.02778
 21
-1.98611
 31
0.0
  0
LINE
  8
0
 62
     0
 10
3.02778
 20
-1.98611
 30
0.0
 11
3.38194
 21
-2.03814
 31
0.0
  0
LINE
  8
0
 62
     0
 10
3.38194
 20
-2.03814
 30
0.0
 11
3.69444
 21
-2.05556
 31
0.0
  0
LINE
  8
0
 62
     0
 10
3.69444
 20
-2.05556
 30
0.0
 11
3.94965
 21
-2.03993
 31
0.0
  0
LINE
  8
0
 62
     0
 10
3.94965
 20
-2.03993
 30
0.0
 11
4.21528
 21
-1.99306
 31
0.0
  0
LINE
  8
0
 62
     0
 10
4.21528
 20
-1.99306
 30
0.0
 11
4.47569
 21
-1.90793
 31
0.0
  0
LINE
  8
0
 62
     0
 10
4.47569
 20
-1.90793
 30
0.0
 11
4.71528
 21
-1.77778
 31
0.0
  0
LINE
  8
0
 62
     0
 10
4.71528
 20
-1.77778
 30
0.0
 11
4.92361
 21
-1.60069
 31
0.0
  0
LINE
  8
0
 62
     0
 10
4.92361
 20
-1.60069
 30
0.0
 11
5.09028
 21
-1.375
 31
0.0
  0
LINE
  8
0
 62
     0
 10
5.09028
 20
-1.375
 30
0.0
 11
5.15408
 21
-1.243
 31
0.0
  0
LINE
  8
0
 62
     0
 10
5.15408
 20
-1.243
 30
0.0
 11
5.19965
 21
-1.09717
 31
0.0
  0
LINE
  8
0
 62
     0
 10
5.19965
 20
-1.09717
 30
0.0
 11
5.227
 21
-0.937446
 31
0.0
  0
LINE
  8
0
 62
     0
 10
5.227
 20
-0.937446
 30
0.0
 11
5.23611
 21
-0.763889
 31
0.0
  0
LINE
  8
0
 62
     0
 10
5.23611
 20
-0.763889
 30
0.0
 11
5.21349
 21
-0.522136
 31
0.0
  0
LINE
  8
0
 62
     0
 10
5.21349
 20
-0.522136
 30
0.0
 11
5.14578
 21
-0.296875
 31
0.0
  0
LINE
  8
0
 62
     0
 10
5.14578
 20
-0.296875
 30
0.0
 11
5.03293
 21
-0.0881076
 31
0.0
  0
LINE
  8
0
 62
     0
 10
5.03293
 20
-0.0881076
 30
0.0
 11
4.875
 21
0.104167
 31
0.0
  0
LINE
  8
0
 62
     0
 10
4.875
 20
0.104167
 30
0.0
 11
4.67794
 21
0.275663
 31
0.0
  0
LINE
  8
0
 62
     0
 10
4.67794
 20
0.275663
 30
0.0
 11
4.44792
 21
0.421929
 31
0.0
  0
LINE
  8
0
 62
     0
 10
4.44792
 20
0.421929
 30
0.0
 11
4.18489
 21
0.543024
 31
0.0
  0
LINE
  8
0
 62
     0
 10
4.18489
 20
0.543024
 30
0.0
 11
3.88889
 21
0.638889
 31
0.0
  0
LINE
  8
0
 62
     0
 10
3.88889
 20
0.638889
 30
0.0
 11
2.79167
 21
0.944444
 31
0.0
  0
LINE
  8
0
 62
     0
 10
2.79167
 20
0.944444
 30
0.0
 11
2.34244
 21
1.10466
 31
0.0
  0
LINE
  8
0
 62
     0
 10
2.34244
 20
1.10466
 30
0.0
 11
1.93924
 21
1.32123
 31
0.0
  0
LINE
  8
0
 62
     0
 10
1.93924
 20
1.32123
 30
0.0
 11
1.58203
 21
1.59424
 31
0.0
  0
LINE
  8
0
 62
     0
 10
1.58203
 20
1.59424
 30
0.0
 11
1.27083
 21
1.92361
 31
0.0
  0
LINE
  8
0
 62
     0
 10
1.27083
 20
1.92361
 30
0.0
 11
1.01861
 21
2.29644
 31
0.0
  0
LINE
  8
0
 62
     0
 10
1.01861
 20
2.29644
 30
0.0
 11
0.838488
 21
2.69965
 31
0.0
  0
LINE
  8
0
 62
     0
 10
0.838488
 20
2.69965
 30
0.0
 11
0.730414
 21
3.13325
 31
0.0
  0
LINE
  8
0
 62
     0
 10
0.730414
 20
3.13325
 30
0.0
 11
0.694444
 21
3.59722
 31
0.0
  0
LINE
  8
0
 62
     0
 10
0.694444
 20
3.59722
 30
0.0
 11
0.725694
 21
4.02431
 31
0.0
  0
LINE
  8
0
 62
     0
 10
0.725694
 20
4.02431
 30
0.0
 11
0.819444
 21
4.41667
 31
0.0
  0
LINE
  8
0
 62
     0
 10
0.819444
 20
4.41667
 30
0.0
 11
0.965278
 21
4.77083
 31
0.0
  0
LINE
  8
0
 62
     0
 10
0.965278
 20
4.77083
 30
0.0
 11
1.15278
 21
5.08333
 31
0.0
  0
LINE
  8
0
 62
     0
 10
1.15278
 20
5.08333
 30
0.0
 11
1.37674
 21
5.35596
 31
0.0
  0
LINE
  8
0
 62
     0
 10
1.37674
 20
5.35596
 30
0.0
 11
1.63194
 21
5.59028
 31
0.0
  0
LINE
  8
0
 62
     0
 10
1.63194
 20
5.59028
 30
0.0
 11
1.90799
 21
5.78646
 31
0.0
  0
LINE
  8
0
 62
     0
 10
1.90799
 20
5.78646
 30
0.0
 11
2.19444
 21
5.94444
 31
0.0
  0
LINE
  8
0
 62
     0
 10
2.19444
 20
5.94444
 30
0.0
 11
1.89931
 21
6.09418
 31
0.0
  0
LINE
  8
0
 62
     0
 10
1.89931
 20
6.09418
 30
0.0
 11
1.63889
 21
6.26563
 31
0.0
  0
LINE
  8
0
 62
     0
 10
1.63889
 20
6.26563
 30
0.0
 11
1.41319
 21
6.45876
 31
0.0
  0
LINE
  8
0
 62
     0
 10
1.41319
 20
6.45876
 30
0.0
 11
1.22222
 21
6.67361
 31
0.0
  0
LINE
  8
0
 62
     0
 10
1.22222
 20
6.67361
 30
0.0
 11
1.07026
 21
6.92063
 31
0.0
  0
LINE
  8
0
 62
     0
 10
1.07026
 20
6.92063
 30
0.0
 11
0.961751
 21
7.21013
 31
0.0
  0
LINE
  8
0
 62
     0
 10
0.961751
 20
7.21013
 30
0.0
 11
0.896647
 21
7.54215
 31
0.0
  0
LINE
  8
0
 62
     0
 10
0.896647
 20
7.54215
 30
0.0
 11
0.875
 21
7.91667
 31
0.0
  0
LINE
  8
0
 62
     0
 10
0.875
 20
7.91667
 30
0.0
 11
0.887532
 21
8.16846
 31
0.0
  0
LINE
  8
0
 62
     0
 10
0.887532
 20
8.16846
 30
0.0
 11
0.925293
 21
8.40972
 31
0.0
  0
LINE
  8
0
 62
     0
 10
0.925293
 20
8.40972
 30
0.0
 11
0.988226
 21
8.64063
 31
0.0
  0
LINE
  8
0
 62
     0
 10
0.988226
 20
8.64063
 30
0.0
 11
1.07639
 21
8.86111
 31
0.0
  0
LINE
  8
0
 62
     0
 10
1.07639
 20
8.86111
 30
0.0
 11
1.18576
 21
9.06862
 31
0.0
  0
LINE
  8
0
 62
     0
 10
1.18576
 20
9.06862
 30
0.0
 11
1.3125
 21
9.26047
 31
0.0
  0
LINE
  8
0
 62
     0
 10
1.3125
 20
9.26047
 30
0.0
 11
1.4566
 21
9.43668
 31
0.0
  0
LINE
  8
0
 62
     0
 10
1.4566
 20
9.43668
 30
0.0
 11
1.61806
 21
9.59722
 31
0.0
  0
LINE
  8
0
 62
     0
 10
1.61806
 20
9.59722
 30
0.0
 11
1.79639
 21
9.74181
 31
0.0
  0
LINE
  8
0
 62
     0
 10
1.79639
 20
9.74181
 30
0.0
 11
1.99126
 21
9.86985
 31
0.0
  0
LINE
  8
0
 62
     0
 10
1.99126
 20
9.86985
 30
0.0
 11
2.20264
 21
9.98139
 31
0.0
  0
LINE
  8
0
 62
     0
 10
2.20264
 20
9.98139
 30
0.0
 11
2.43056
 21
10.0764
 31
0.0
  0
LINE
  8
0
 62
     0
 10
2.43056
 20
10.0764
 30
0.0
 11
2.671
 21
10.1523
 31
0.0
  0
LINE
  8
0
 62
     0
 10
2.671
 20
10.1523
 30
0.0
 11
2.92014
 21
10.2066
 31
0.0
  0
LINE
  8
0
 62
     0
 10
2.92014
 20
10.2066
 30
0.0
 11
3.17794
 21
10.2392
 31
0.0
  0
LINE
  8
0
 62
     0
 10
3.17794
 20
10.2392
 30
0.0
 11
3.44444
 21
10.25
 31
0.0
  0
LINE
  8
0
 62
     0
 10
3.44444
 20
10.25
 30
0.0
 11
3.84983
 21
10.2388
 31
0.0
  0
LINE
  8
0
 62
     0
 10
3.84983
 20
10.2388
 30
0.0
 11
4.23264
 21
10.2049
 31
0.0
  0
LINE
  8
0
 62
     0
 10
4.23264
 20
10.2049
 30
0.0
 11
4.59289
 21
10.1485
 31
0.0
  0
LINE
  8
0
 62
     0
 10
4.59289
 20
10.1485
 30
0.0
 11
4.93056
 21
10.0694
 31
0.0
  0
LINE
  8
0
 62
     0
 10
4.93056
 20
10.0694
 30
0.0
 11
5.56939
 21
9.85417
 31
0.0
  0
LINE
  8
0
 62
     0
 10
5.56939
 20
9.85417
 30
0.0
 11
6.18056
 21
9.56944
 31
0.0
  0
LINE
  8
0
 62
     0
 10
6.18056
 20
9.56944
 30
0.0
 11
6.20833
 21
8.44444
 31
0.0
  0
LINE
  8
0
 62
     0
 10
6.20833
 20
8.44444
 30
0.0
 11
5.53467
 21
8.78299
 31
0.0
  0
LINE
  8
0
 62
     0
 10
5.53467
 20
8.78299
 30
0.0
 11
4.84722
 21
9.04861
 31
0.0
  0
LINE
  8
0
 62
     0
 10
4.84722
 20
9.04861
 30
0.0
 11
4.49914
 21
9.14887
 31
0.0
  0
LINE
  8
0
 62
     0
 10
4.49914
 20
9.14887
 30
0.0
 11
4.14931
 21
9.22049
 31
0.0
  0
LINE
  8
0
 62
     0
 10
4.14931
 20
9.22049
 30
0.0
 11
3.79775
 21
9.26346
 31
0.0
  0
LINE
  8
0
 62
     0
 10
3.79775
 20
9.26346
 30
0.0
 11
3.44444
 21
9.27778
 31
0.0
  0
LINE
  8
0
 62
     0
 10
3.44444
 20
9.27778
 30
0.0
 11
3.14751
 21
9.25694
 31
0.0
  0
LINE
  8
0
 62
     0
 10
3.14751
 20
9.25694
 30
0.0
 11
2.86806
 21
9.19444
 31
0.0
  0
LINE
  8
0
 62
     0
 10
2.86806
 20
9.19444
 30
0.0
 11
2.61285
 21
9.09028
 31
0.0
  0
LINE
  8
0
 62
     0
 10
2.61285
 20
9.09028
 30
0.0
 11
2.38889
 21
8.94444
 31
0.0
  0
LINE
  8
0
 62
     0
 10
2.38889
 20
8.94444
 30
0.0
 11
2.20313
 21
8.75694
 31
0.0
  0
LINE
  8
0
 62
     0
 10
2.20313
 20
8.75694
 30
0.0
 11
2.0625
 21
8.52778
 31
0.0
  0
LINE
  8
0
 62
     0
 10
2.0625
 20
8.52778
 30
0.0
 11
1.9739
 21
8.25353
 31
0.0
  0
LINE
  8
0
 62
     0
 10
1.9739
 20
8.25353
 30
0.0
 11
1.94444
 21
7.93056
 31
0.0
  0
LINE
  8
0
 62
     0
 10
1.94444
 20
7.93056
 30
0.0
 11
1.96739
 21
7.65582
 31
0.0
  0
LINE
  8
0
 62
     0
 10
1.96739
 20
7.65582
 30
0.0
 11
2.0364
 21
7.41493
 31
0.0
  0
LINE
  8
0
 62
     0
 10
2.0364
 20
7.41493
 30
0.0
 11
2.15142
 21
7.2079
 31
0.0
  0
LINE
  8
0
 62
     0
 10
2.15142
 20
7.2079
 30
0.0
 11
2.3125
 21
7.03472
 31
0.0
  0
LINE
  8
0
 62
     0
 10
2.3125
 20
7.03472
 30
0.0
 11
2.50825
 21
6.88938
 31
0.0
  0
LINE
  8
0
 62
     0
 10
2.50825
 20
6.88938
 30
0.0
 11
2.72743
 21
6.76568
 31
0.0
  0
LINE
  8
0
 62
     0
 10
2.72743
 20
6.76568
 30
0.0
 11
2.97006
 21
6.66368
 31
0.0
  0
LINE
  8
0
 62
     0
 10
2.97006
 20
6.66368
 30
0.0
 11
3.23611
 21
6.58333
 31
0.0
  0
LINE
  8
0
 62
     0
 10
3.23611
 20
6.58333
 30
0.0
 11
4.47222
 21
6.27778
 31
0.0
  0
LINE
  8
0
 62
     0
 10
4.47222
 20
6.27778
 30
0.0
 11
4.70464
 21
6.21121
 31
0.0
  0
LINE
  8
0
 62
     0
 10
4.70464
 20
6.21121
 30
0.0
 11
4.92275
 21
6.12939
 31
0.0
  0
LINE
  8
0
 62
     0
 10
4.92275
 20
6.12939
 30
0.0
 11
5.12651
 21
6.03239
 31
0.0
  0
LINE
  8
0
 62
     0
 10
5.12651
 20
6.03239
 30
0.0
 11
5.31597
 21
5.92019
 31
0.0
  0
LINE
  8
0
 62
     0
 10
5.31597
 20
5.92019
 30
0.0
 11
5.4911
 21
5.79281
 31
0.0
  0
LINE
  8
0
 62
     0
 10
5.4911
 20
5.79281
 30
0.0
 11
5.65192
 21
5.65022
 31
0.0
  0
LINE
  8
0
 62
     0
 10
5.65192
 20
5.65022
 30
0.0
 11
5.79839
 21
5.49246
 31
0.0
  0
LINE
  8
0
 62
     0
 10
5.79839
 20
5.49246
 30
0.0
 11
5.93056
 21
5.31944
 31
0.0
  0
LINE
  8
0
 62
     0
 10
5.93056
 20
5.31944
 30
0.0
 11
6.14931
 21
4.94271
 31
0.0
  0
LINE
  8
0
 62
     0
 10
6.14931
 20
4.94271
 30
0.0
 11
6.30556
 21
4.53472
 31
0.0
  0
LINE
  8
0
 62
     0
 10
6.30556
 20
4.53472
 30
0.0
 11
6.39931
 21
4.09549
 31
0.0
  0
LINE
  8
0
 62
     0
 10
6.39931
 20
4.09549
 30
0.0
 11
6.43056
 21
3.625
 31
0.0
  0
LINE
  8
0
 62
     0
 10
6.43056
 20
3.625
 30
0.0
 11
6.39931
 21
3.19797
 31
0.0
  0
LINE
  8
0
 62
     0
 10
6.39931
 20
3.19797
 30
0.0
 11
6.30556
 21
2.80556
 31
0.0
  0
LINE
  8
0
 62
     0
 10
6.30556
 20
2.80556
 30
0.0
 11
6.15972
 21
2.44965
 31
0.0
  0
LINE
  8
0
 62
     0
 10
6.15972
 20
2.44965
 30
0.0
 11
5.97222
 21
2.13194
 31
0.0
  0
LINE
  8
0
 62
     0
 10
5.97222
 20
2.13194
 30
0.0
 11
5.75
 21
1.85249
 31
0.0
  0
LINE
  8
0
 62
     0
 10
5.75
 20
1.85249
 30
0.0
 11
5.5
 21
1.61111
 31
0.0
  0
LINE
  8
0
 62
     0
 10
5.5
 20
1.61111
 30
0.0
 11
5.22911
 21
1.40972
 31
0.0
  0
LINE
  8
0
 62
     0
 10
5.22911
 20
1.40972
 30
0.0
 11
4.94444
 21
1.25
 31
0.0
  0
LINE
  8
0
 62
     0
 10
4.94444
 20
1.25
 30
0.0
 11
5.24175
 21
1.11637
 31
0.0
  0
LINE
  8
0
 62
     0
 10
5.24175
 20
1.11637
 30
0.0
 11
5.50868
 21
0.951389
 31
0.0
  0
LINE
  8
0
 62
     0
 10
5.50868
 20
0.951389
 30
0.0
 11
5.74522
 21
0.755208
 31
0.0
  0
LINE
  8
0
 62
     0
 10
5.74522
 20
0.755208
 30
0.0
 11
5.95139
 21
0.527778
 31
0.0
  0
LINE
  8
0
 62
     0
 10
5.95139
 20
0.527778
 30
0.0
 11
6.11843
 21
0.265679
 31
0.0
  0
LINE
  8
0
 62
     0
 10
6.11843
 20
0.265679
 30
0.0
 11
6.23779
 21
-0.0346679
 31
0.0
  0
LINE
  8
0
 62
     0
 10
6.23779
 20
-0.0346679
 30
0.0
 11
6.3094
 21
-0.37321
 31
0.0
  0
LINE
  8
0
 62
     0
 10
6.3094
 20
-0.37321
 30
0.0
 11
6.33333
 21
-0.75
 31
0.0
  0
LINE
  8
0
 62
     0
 10
6.33333
 20
-0.75
 30
0.0
 11
6.31901
 21
-1.01383
 31
0.0
  0
LINE
  8
0
 62
     0
 10
6.31901
 20
-1.01383
 30
0.0
 11
6.27604
 21
-1.26383
 31
0.0
  0
LINE
  8
0
 62
     0
 10
6.27604
 20
-1.26383
 30
0.0
 11
6.20443
 21
-1.49994
 31
0.0
  0
LINE
  8
0
 62
     0
 10
6.20443
 20
-1.49994
 30
0.0
 11
6.10417
 21
-1.72222
 31
0.0
  0
LINE
  8
0
 62
     0
 10
6.10417
 20
-1.72222
 30
0.0
 11
5.98047
 21
-1.92882
 31
0.0
  0
LINE
  8
0
 62
     0
 10
5.98047
 20
-1.92882
 30
0.0
 11
5.83854
 21
-2.11806
 31
0.0
  0
LINE
  8
0
 62
     0
 10
5.83854
 20
-2.11806
 30
0.0
 11
5.67839
 21
-2.28993
 31
0.0
  0
LINE
  8
0
 62
     0
 10
5.67839
 20
-2.28993
 30
0.0
 11
5.5
 21
-2.44444
 31
0.0
  0
LINE
  8
0
 62
     0
 10
5.5
 20
-2.44444
 30
0.0
 11
5.30512
 21
-2.58197
 31
0.0
  0
LINE
  8
0
 62
     0
 10
5.30512
 20
-2.58197
 30
0.0
 11
5.09549
 21
-2.70307
 31
0.0
  0
LINE
  8
0
 62
     0
 10
5.09549
 20
-2.70307
 30
0.0
 11
4.8711
 21
-2.80767
 31
0.0
  0
LINE
  8
0
 62
     0
 10
4.8711
 20
-2.80767
 30
0.0
 11
4.63194
 21
-2.89583
 31
0.0
  0
LINE
  8
0
 62
     0
 10
4.63194
 20
-2.89583
 30
0.0
 11
4.12668
 21
-3.01563
 31
0.0
  0
LINE
  8
0
 62
     0
 10
4.12668
 20
-3.01563
 30
0.0
 11
3.59722
 21
-3.05556
 31
0.0
  0
LINE
  8
0
 62
     0
 10
3.59722
 20
-3.05556
 30
0.0
 11
3.30035
 21
-3.04335
 31
0.0
  0
LINE
  8
0
 62
     0
 10
3.30035
 20
-3.04335
 30
0.0
 11
2.96528
 21
-3.00694
 31
0.0
  0
LINE
  8
0
 62
     0
 10
2.96528
 20
-3.00694
 30
0.0
 11
2.60764
 21
-2.94618
 31
0.0
  0
LINE
  8
0
 62
     0
 10
2.60764
 20
-2.94618
 30
0.0
 11
2.24306
 21
-2.86111
 31
0.0
  0
LINE
  8
0
 62
     0
 10
2.24306
 20
-2.86111
 30
0.0
 11
1.88363
 21
-2.75689
 31
0.0
  0
LINE
  8
0
 62
     0
 10
1.88363
 20
-2.75689
 30
0.0
 11
1.54167
 21
-2.63889
 31
0.0
  0
LINE
  8
0
 62
     0
 10
1.54167
 20
-2.63889
 30
0.0
 11
1.23258
 21
-2.50689
 31
0.0
  0
LINE
  8
0
 62
     0
 10
1.23258
 20
-2.50689
 30
0.0
 11
0.972222
 21
-2.36111
 31
0.0
  0
LINE
  8
0
 62
     0
 10
0.972222
 20
-2.36111
 30
0.0
 11
0.972222
 21
-1.20833
 31
0.0
  0
ENDSEC
  0
EOF
