  0
SECTION
  2
HEADER
  9
$ACADVER
  1
AC1009
  9
$EXTMIN
 10
0.0
 20
0.0
 30
0.0
  9
$EXTMAX
 10
1000.0
 20
1000.0
 30
0.0
  9
$FILLMODE
 70
 0
  9
$SPLFRAME
 70
 1
  0
ENDSEC
  0
SECTION
  2
TABLES
  0
TABLE
  2
LAYER
 70
1
  0
LAYER
  2
0
 70
     0
 62
     7
  6
CONTINUOUS
  0
ENDTAB
  0
ENDSEC
  0
SECTION
  2
ENTITIES
  0
LINE
  8
0
 62
     0
 10
4.77778
 20
3.18056
 30
0.0
 11
5.00125
 21
3.18967
 31
0.0
  0
LINE
  8
0
 62
     0
 10
5.00125
 20
3.18967
 30
0.0
 11
5.21349
 21
3.21701
 31
0.0
  0
LINE
  8
0
 62
     0
 10
5.21349
 20
3.21701
 30
0.0
 11
5.41444
 21
3.26258
 31
0.0
  0
LINE
  8
0
 62
     0
 10
5.41444
 20
3.26258
 30
0.0
 11
5.60417
 21
3.32639
 31
0.0
  0
LINE
  8
0
 62
     0
 10
5.60417
 20
3.32639
 30
0.0
 11
5.78168
 21
3.40668
 31
0.0
  0
LINE
  8
0
 62
     0
 10
5.78168
 20
3.40668
 30
0.0
 11
5.94618
 21
3.50174
 31
0.0
  0
LINE
  8
0
 62
     0
 10
5.94618
 20
3.50174
 30
0.0
 11
6.0976
 21
3.61154
 31
0.0
  0
LINE
  8
0
 62
     0
 10
6.0976
 20
3.61154
 30
0.0
 11
6.23611
 21
3.73611
 31
0.0
  0
LINE
  8
0
 62
     0
 10
6.23611
 20
3.73611
 30
0.0
 11
6.47049
 21
4.02262
 31
0.0
  0
LINE
  8
0
 62
     0
 10
6.47049
 20
4.02262
 30
0.0
 11
6.64583
 21
4.35417
 31
0.0
  0
LINE
  8
0
 62
     0
 10
6.64583
 20
4.35417
 30
0.0
 11
6.75521
 21
4.72396
 31
0.0
  0
LINE
  8
0
 62
     0
 10
6.75521
 20
4.72396
 30
0.0
 11
6.79167
 21
5.125
 31
0.0
  0
LINE
  8
0
 62
     0
 10
6.79167
 20
5.125
 30
0.0
 11
6.78125
 21
5.31603
 31
0.0
  0
LINE
  8
0
 62
     0
 10
6.78125
 20
5.31603
 30
0.0
 11
6.75
 21
5.50006
 31
0.0
  0
LINE
  8
0
 62
     0
 10
6.75
 20
5.50006
 30
0.0
 11
6.69792
 21
5.67714
 31
0.0
  0
LINE
  8
0
 62
     0
 10
6.69792
 20
5.67714
 30
0.0
 11
6.625
 21
5.84722
 31
0.0
  0
LINE
  8
0
 62
     0
 10
6.625
 20
5.84722
 30
0.0
 11
6.42882
 21
6.15972
 31
0.0
  0
LINE
  8
0
 62
     0
 10
6.42882
 20
6.15972
 30
0.0
 11
6.17361
 21
6.43056
 31
0.0
  0
LINE
  8
0
 62
     0
 10
6.17361
 20
6.43056
 30
0.0
 11
5.86626
 21
6.65278
 31
0.0
  0
LINE
  8
0
 62
     0
 10
5.86626
 20
6.65278
 30
0.0
 11
5.51389
 21
6.81944
 31
0.0
  0
LINE
  8
0
 62
     0
 10
5.51389
 20
6.81944
 30
0.0
 11
5.12847
 21
6.92367
 31
0.0
  0
LINE
  8
0
 62
     0
 10
5.12847
 20
6.92367
 30
0.0
 11
4.72222
 21
6.95833
 31
0.0
  0
LINE
  8
0
 62
     0
 10
4.72222
 20
6.95833
 30
0.0
 11
2.27778
 21
6.95833
 31
0.0
  0
LINE
  8
0
 62
     0
 10
2.27778
 20
6.95833
 30
0.0
 11
2.27778
 21
3.18056
 31
0.0
  0
LINE
  8
0
 62
     0
 10
2.27778
 20
3.18056
 30
0.0
 11
4.77778
 21
3.18056
 31
0.0
  0
LINE
  8
0
 62
     0
 10
2.27778
 20
-0
 30
0.0
 11
1.08333
 21
-0
 31
0.0
  0
LINE
  8
0
 62
     0
 10
1.08333
 20
-0
 30
0.0
 11
1.08333
 21
10.1389
 31
0.0
  0
LINE
  8
0
 62
     0
 10
1.08333
 20
10.1389
 30
0.0
 11
2.27778
 21
10.1389
 31
0.0
  0
LINE
  8
0
 62
     0
 10
2.27778
 20
10.1389
 30
0.0
 11
2.27778
 21
8.06944
 31
0.0
  0
LINE
  8
0
 62
     0
 10
2.27778
 20
8.06944
 30
0.0
 11
4.79167
 21
8.06944
 31
0.0
  0
LINE
  8
0
 62
     0
 10
4.79167
 20
8.06944
 30
0.0
 11
5.12586
 21
8.05561
 31
0.0
  0
LINE
  8
0
 62
     0
 10
5.12586
 20
8.05561
 30
0.0
 11
5.44792
 21
8.01394
 31
0.0
  0
LINE
  8
0
 62
     0
 10
5.44792
 20
8.01394
 30
0.0
 11
5.75781
 21
7.9445
 31
0.0
  0
LINE
  8
0
 62
     0
 10
5.75781
 20
7.9445
 30
0.0
 11
6.05556
 21
7.84722
 31
0.0
  0
LINE
  8
0
 62
     0
 10
6.05556
 20
7.84722
 30
0.0
 11
6.33762
 21
7.72569
 31
0.0
  0
LINE
  8
0
 62
     0
 10
6.33762
 20
7.72569
 30
0.0
 11
6.60064
 21
7.58333
 31
0.0
  0
LINE
  8
0
 62
     0
 10
6.60064
 20
7.58333
 30
0.0
 11
6.84457
 21
7.42019
 31
0.0
  0
LINE
  8
0
 62
     0
 10
6.84457
 20
7.42019
 30
0.0
 11
7.06944
 21
7.23611
 31
0.0
  0
LINE
  8
0
 62
     0
 10
7.06944
 20
7.23611
 30
0.0
 11
7.27257
 21
7.03256
 31
0.0
  0
LINE
  8
0
 62
     0
 10
7.27257
 20
7.03256
 30
0.0
 11
7.45139
 21
6.81076
 31
0.0
  0
LINE
  8
0
 62
     0
 10
7.45139
 20
6.81076
 30
0.0
 11
7.6059
 21
6.57075
 31
0.0
  0
LINE
  8
0
 62
     0
 10
7.6059
 20
6.57075
 30
0.0
 11
7.73611
 21
6.3125
 31
0.0
  0
LINE
  8
0
 62
     0
 10
7.73611
 20
6.3125
 30
0.0
 11
7.83936
 21
6.04036
 31
0.0
  0
LINE
  8
0
 62
     0
 10
7.83936
 20
6.04036
 30
0.0
 11
7.91314
 21
5.75868
 31
0.0
  0
LINE
  8
0
 62
     0
 10
7.91314
 20
5.75868
 30
0.0
 11
7.95742
 21
5.46744
 31
0.0
  0
LINE
  8
0
 62
     0
 10
7.95742
 20
5.46744
 30
0.0
 11
7.97222
 21
5.16667
 31
0.0
  0
LINE
  8
0
 62
     0
 10
7.97222
 20
5.16667
 30
0.0
 11
7.95703
 21
4.83985
 31
0.0
  0
LINE
  8
0
 62
     0
 10
7.95703
 20
4.83985
 30
0.0
 11
7.91146
 21
4.52604
 31
0.0
  0
LINE
  8
0
 62
     0
 10
7.91146
 20
4.52604
 30
0.0
 11
7.8355
 21
4.22526
 31
0.0
  0
LINE
  8
0
 62
     0
 10
7.8355
 20
4.22526
 30
0.0
 11
7.72917
 21
3.9375
 31
0.0
  0
LINE
  8
0
 62
     0
 10
7.72917
 20
3.9375
 30
0.0
 11
7.595
 21
3.66536
 31
0.0
  0
LINE
  8
0
 62
     0
 10
7.595
 20
3.66536
 30
0.0
 11
7.43571
 21
3.41146
 31
0.0
  0
LINE
  8
0
 62
     0
 10
7.43571
 20
3.41146
 30
0.0
 11
7.25125
 21
3.17578
 31
0.0
  0
LINE
  8
0
 62
     0
 10
7.25125
 20
3.17578
 30
0.0
 11
7.04167
 21
2.95833
 31
0.0
  0
LINE
  8
0
 62
     0
 10
7.04167
 20
2.95833
 30
0.0
 11
6.80903
 21
2.76128
 31
0.0
  0
LINE
  8
0
 62
     0
 10
6.80903
 20
2.76128
 30
0.0
 11
6.55556
 21
2.58681
 31
0.0
  0
LINE
  8
0
 62
     0
 10
6.55556
 20
2.58681
 30
0.0
 11
6.28119
 21
2.43489
 31
0.0
  0
LINE
  8
0
 62
     0
 10
6.28119
 20
2.43489
 30
0.0
 11
5.98611
 21
2.30556
 31
0.0
  0
LINE
  8
0
 62
     0
 10
5.98611
 20
2.30556
 30
0.0
 11
5.67275
 21
2.20231
 31
0.0
  0
LINE
  8
0
 62
     0
 10
5.67275
 20
2.20231
 30
0.0
 11
5.34375
 21
2.12853
 31
0.0
  0
LINE
  8
0
 62
     0
 10
5.34375
 20
2.12853
 30
0.0
 11
4.99908
 21
2.08425
 31
0.0
  0
LINE
  8
0
 62
     0
 10
4.99908
 20
2.08425
 30
0.0
 11
4.63889
 21
2.06944
 31
0.0
  0
LINE
  8
0
 62
     0
 10
4.63889
 20
2.06944
 30
0.0
 11
2.27778
 21
2.06944
 31
0.0
  0
LINE
  8
0
 62
     0
 10
2.27778
 20
2.06944
 30
0.0
 11
2.27778
 21
-0
 31
0.0
  0
ENDSEC
  0
EOF
