  0
SECTION
  2
HEADER
  9
$ACADVER
  1
AC1009
  9
$EXTMIN
 10
0.0
 20
0.0
 30
0.0
  9
$EXTMAX
 10
1000.0
 20
1000.0
 30
0.0
  9
$FILLMODE
 70
 0
  9
$SPLFRAME
 70
 1
  0
ENDSEC
  0
SECTION
  2
TABLES
  0
TABLE
  2
LAYER
 70
1
  0
LAYER
  2
0
 70
     0
 62
     7
  6
CONTINUOUS
  0
ENDTAB
  0
ENDSEC
  0
SECTION
  2
ENTITIES
  0
LINE
  8
0
 62
     0
 10
4.73611
 20
1.05556
 30
0.0
 11
4.99257
 21
1.07037
 31
0.0
  0
LINE
  8
0
 62
     0
 10
4.99257
 20
1.07037
 30
0.0
 11
5.23432
 21
1.11464
 31
0.0
  0
LINE
  8
0
 62
     0
 10
5.23432
 20
1.11464
 30
0.0
 11
5.46132
 21
1.18842
 31
0.0
  0
LINE
  8
0
 62
     0
 10
5.46132
 20
1.18842
 30
0.0
 11
5.67361
 21
1.29167
 31
0.0
  0
LINE
  8
0
 62
     0
 10
5.67361
 20
1.29167
 30
0.0
 11
5.87022
 21
1.42014
 31
0.0
  0
LINE
  8
0
 62
     0
 10
5.87022
 20
1.42014
 30
0.0
 11
6.05035
 21
1.56944
 31
0.0
  0
LINE
  8
0
 62
     0
 10
6.05035
 20
1.56944
 30
0.0
 11
6.21397
 21
1.73964
 31
0.0
  0
LINE
  8
0
 62
     0
 10
6.21397
 20
1.73964
 30
0.0
 11
6.36111
 21
1.93056
 31
0.0
  0
LINE
  8
0
 62
     0
 10
6.36111
 20
1.93056
 30
0.0
 11
6.49126
 21
2.14019
 31
0.0
  0
LINE
  8
0
 62
     0
 10
6.49126
 20
2.14019
 30
0.0
 11
6.60411
 21
2.36632
 31
0.0
  0
LINE
  8
0
 62
     0
 10
6.60411
 20
2.36632
 30
0.0
 11
6.6996
 21
2.60894
 31
0.0
  0
LINE
  8
0
 62
     0
 10
6.6996
 20
2.60894
 30
0.0
 11
6.77778
 21
2.86806
 31
0.0
  0
LINE
  8
0
 62
     0
 10
6.77778
 20
2.86806
 30
0.0
 11
6.88194
 21
3.4184
 31
0.0
  0
LINE
  8
0
 62
     0
 10
6.88194
 20
3.4184
 30
0.0
 11
6.91667
 21
4
 31
0.0
  0
LINE
  8
0
 62
     0
 10
6.91667
 20
4
 30
0.0
 11
6.88194
 21
4.55214
 31
0.0
  0
LINE
  8
0
 62
     0
 10
6.88194
 20
4.55214
 30
0.0
 11
6.77778
 21
5.09722
 31
0.0
  0
LINE
  8
0
 62
     0
 10
6.77778
 20
5.09722
 30
0.0
 11
6.70003
 21
5.36025
 31
0.0
  0
LINE
  8
0
 62
     0
 10
6.70003
 20
5.36025
 30
0.0
 11
6.60585
 21
5.60764
 31
0.0
  0
LINE
  8
0
 62
     0
 10
6.60585
 20
5.60764
 30
0.0
 11
6.49517
 21
5.83942
 31
0.0
  0
LINE
  8
0
 62
     0
 10
6.49517
 20
5.83942
 30
0.0
 11
6.36806
 21
6.05556
 31
0.0
  0
LINE
  8
0
 62
     0
 10
6.36806
 20
6.05556
 30
0.0
 11
6.22396
 21
6.25396
 31
0.0
  0
LINE
  8
0
 62
     0
 10
6.22396
 20
6.25396
 30
0.0
 11
6.0625
 21
6.43235
 31
0.0
  0
LINE
  8
0
 62
     0
 10
6.0625
 20
6.43235
 30
0.0
 11
5.88368
 21
6.59076
 31
0.0
  0
LINE
  8
0
 62
     0
 10
5.88368
 20
6.59076
 30
0.0
 11
5.6875
 21
6.72917
 31
0.0
  0
LINE
  8
0
 62
     0
 10
5.6875
 20
6.72917
 30
0.0
 11
5.47521
 21
6.84158
 31
0.0
  0
LINE
  8
0
 62
     0
 10
5.47521
 20
6.84158
 30
0.0
 11
5.24821
 21
6.92188
 31
0.0
  0
LINE
  8
0
 62
     0
 10
5.24821
 20
6.92188
 30
0.0
 11
5.00646
 21
6.97006
 31
0.0
  0
LINE
  8
0
 62
     0
 10
5.00646
 20
6.97006
 30
0.0
 11
4.75
 21
6.98611
 31
0.0
  0
LINE
  8
0
 62
     0
 10
4.75
 20
6.98611
 30
0.0
 11
4.48779
 21
6.97049
 31
0.0
  0
LINE
  8
0
 62
     0
 10
4.48779
 20
6.97049
 30
0.0
 11
4.243
 21
6.92361
 31
0.0
  0
LINE
  8
0
 62
     0
 10
4.243
 20
6.92361
 30
0.0
 11
4.01557
 21
6.84549
 31
0.0
  0
LINE
  8
0
 62
     0
 10
4.01557
 20
6.84549
 30
0.0
 11
3.80556
 21
6.73611
 31
0.0
  0
LINE
  8
0
 62
     0
 10
3.80556
 20
6.73611
 30
0.0
 11
3.61193
 21
6.60069
 31
0.0
  0
LINE
  8
0
 62
     0
 10
3.61193
 20
6.60069
 30
0.0
 11
3.43397
 21
6.44444
 31
0.0
  0
LINE
  8
0
 62
     0
 10
3.43397
 20
6.44444
 30
0.0
 11
3.27165
 21
6.26736
 31
0.0
  0
LINE
  8
0
 62
     0
 10
3.27165
 20
6.26736
 30
0.0
 11
3.125
 21
6.06944
 31
0.0
  0
LINE
  8
0
 62
     0
 10
3.125
 20
6.06944
 30
0.0
 11
2.99479
 21
5.85379
 31
0.0
  0
LINE
  8
0
 62
     0
 10
2.99479
 20
5.85379
 30
0.0
 11
2.88194
 21
5.62332
 31
0.0
  0
LINE
  8
0
 62
     0
 10
2.88194
 20
5.62332
 30
0.0
 11
2.78646
 21
5.3781
 31
0.0
  0
LINE
  8
0
 62
     0
 10
2.78646
 20
5.3781
 30
0.0
 11
2.70833
 21
5.11806
 31
0.0
  0
LINE
  8
0
 62
     0
 10
2.70833
 20
5.11806
 30
0.0
 11
2.60411
 21
4.57465
 31
0.0
  0
LINE
  8
0
 62
     0
 10
2.60411
 20
4.57465
 30
0.0
 11
2.56944
 21
4.01389
 31
0.0
  0
LINE
  8
0
 62
     0
 10
2.56944
 20
4.01389
 30
0.0
 11
2.60411
 21
3.44276
 31
0.0
  0
LINE
  8
0
 62
     0
 10
2.60411
 20
3.44276
 30
0.0
 11
2.70833
 21
2.89583
 31
0.0
  0
LINE
  8
0
 62
     0
 10
2.70833
 20
2.89583
 30
0.0
 11
2.78603
 21
2.63628
 31
0.0
  0
LINE
  8
0
 62
     0
 10
2.78603
 20
2.63628
 30
0.0
 11
2.88021
 21
2.39236
 31
0.0
  0
LINE
  8
0
 62
     0
 10
2.88021
 20
2.39236
 30
0.0
 11
2.99089
 21
2.16411
 31
0.0
  0
LINE
  8
0
 62
     0
 10
2.99089
 20
2.16411
 30
0.0
 11
3.11806
 21
1.95139
 31
0.0
  0
LINE
  8
0
 62
     0
 10
3.11806
 20
1.95139
 30
0.0
 11
3.2621
 21
1.75694
 31
0.0
  0
LINE
  8
0
 62
     0
 10
3.2621
 20
1.75694
 30
0.0
 11
3.42356
 21
1.58333
 31
0.0
  0
LINE
  8
0
 62
     0
 10
3.42356
 20
1.58333
 30
0.0
 11
3.60238
 21
1.43061
 31
0.0
  0
LINE
  8
0
 62
     0
 10
3.60238
 20
1.43061
 30
0.0
 11
3.79861
 21
1.29861
 31
0.0
  0
LINE
  8
0
 62
     0
 10
3.79861
 20
1.29861
 30
0.0
 11
4.01085
 21
1.19228
 31
0.0
  0
LINE
  8
0
 62
     0
 10
4.01085
 20
1.19228
 30
0.0
 11
4.23785
 21
1.11632
 31
0.0
  0
LINE
  8
0
 62
     0
 10
4.23785
 20
1.11632
 30
0.0
 11
4.4796
 21
1.07075
 31
0.0
  0
LINE
  8
0
 62
     0
 10
4.4796
 20
1.07075
 30
0.0
 11
4.73611
 21
1.05556
 31
0.0
  0
LINE
  8
0
 62
     0
 10
4.73611
 20
8.01389
 30
0.0
 11
5.07206
 21
7.99653
 31
0.0
  0
LINE
  8
0
 62
     0
 10
5.07206
 20
7.99653
 30
0.0
 11
5.39931
 21
7.94444
 31
0.0
  0
LINE
  8
0
 62
     0
 10
5.39931
 20
7.94444
 30
0.0
 11
5.71789
 21
7.85764
 31
0.0
  0
LINE
  8
0
 62
     0
 10
5.71789
 20
7.85764
 30
0.0
 11
6.02778
 21
7.73611
 31
0.0
  0
LINE
  8
0
 62
     0
 10
6.02778
 20
7.73611
 30
0.0
 11
6.32374
 21
7.58251
 31
0.0
  0
LINE
  8
0
 62
     0
 10
6.32374
 20
7.58251
 30
0.0
 11
6.60064
 21
7.39936
 31
0.0
  0
LINE
  8
0
 62
     0
 10
6.60064
 20
7.39936
 30
0.0
 11
6.85846
 21
7.18668
 31
0.0
  0
LINE
  8
0
 62
     0
 10
6.85846
 20
7.18668
 30
0.0
 11
7.09722
 21
6.94444
 31
0.0
  0
LINE
  8
0
 62
     0
 10
7.09722
 20
6.94444
 30
0.0
 11
7.31418
 21
6.67275
 31
0.0
  0
LINE
  8
0
 62
     0
 10
7.31418
 20
6.67275
 30
0.0
 11
7.50689
 21
6.37153
 31
0.0
  0
LINE
  8
0
 62
     0
 10
7.50689
 20
6.37153
 30
0.0
 11
7.67529
 21
6.04081
 31
0.0
  0
LINE
  8
0
 62
     0
 10
7.67529
 20
6.04081
 30
0.0
 11
7.81944
 21
5.68056
 31
0.0
  0
LINE
  8
0
 62
     0
 10
7.81944
 20
5.68056
 30
0.0
 11
7.93489
 21
5.29432
 31
0.0
  0
LINE
  8
0
 62
     0
 10
7.93489
 20
5.29432
 30
0.0
 11
8.01736
 21
4.88547
 31
0.0
  0
LINE
  8
0
 62
     0
 10
8.01736
 20
4.88547
 30
0.0
 11
8.06683
 21
4.45404
 31
0.0
  0
LINE
  8
0
 62
     0
 10
8.06683
 20
4.45404
 30
0.0
 11
8.08333
 21
4
 31
0.0
  0
LINE
  8
0
 62
     0
 10
8.08333
 20
4
 30
0.0
 11
8.06683
 21
3.52219
 31
0.0
  0
LINE
  8
0
 62
     0
 10
8.06683
 20
3.52219
 30
0.0
 11
8.01736
 21
3.07471
 31
0.0
  0
LINE
  8
0
 62
     0
 10
8.01736
 20
3.07471
 30
0.0
 11
7.93489
 21
2.65761
 31
0.0
  0
LINE
  8
0
 62
     0
 10
7.93489
 20
2.65761
 30
0.0
 11
7.81944
 21
2.27083
 31
0.0
  0
LINE
  8
0
 62
     0
 10
7.81944
 20
2.27083
 30
0.0
 11
7.67529
 21
1.91493
 31
0.0
  0
LINE
  8
0
 62
     0
 10
7.67529
 20
1.91493
 30
0.0
 11
7.50689
 21
1.59028
 31
0.0
  0
LINE
  8
0
 62
     0
 10
7.50689
 20
1.59028
 30
0.0
 11
7.31418
 21
1.29693
 31
0.0
  0
LINE
  8
0
 62
     0
 10
7.31418
 20
1.29693
 30
0.0
 11
7.09722
 21
1.03472
 31
0.0
  0
LINE
  8
0
 62
     0
 10
7.09722
 20
1.03472
 30
0.0
 11
6.85846
 21
0.803819
 31
0.0
  0
LINE
  8
0
 62
     0
 10
6.85846
 20
0.803819
 30
0.0
 11
6.60064
 21
0.604167
 31
0.0
  0
LINE
  8
0
 62
     0
 10
6.60064
 20
0.604167
 30
0.0
 11
6.32374
 21
0.435818
 31
0.0
  0
LINE
  8
0
 62
     0
 10
6.32374
 20
0.435818
 30
0.0
 11
6.02778
 21
0.298611
 31
0.0
  0
LINE
  8
0
 62
     0
 10
6.02778
 20
0.298611
 30
0.0
 11
5.71789
 21
0.192275
 31
0.0
  0
LINE
  8
0
 62
     0
 10
5.71789
 20
0.192275
 30
0.0
 11
5.39931
 21
0.116319
 31
0.0
  0
LINE
  8
0
 62
     0
 10
5.39931
 20
0.116319
 30
0.0
 11
5.07206
 21
0.0707465
 31
0.0
  0
LINE
  8
0
 62
     0
 10
5.07206
 20
0.0707465
 30
0.0
 11
4.73611
 21
0.0555556
 31
0.0
  0
LINE
  8
0
 62
     0
 10
4.73611
 20
0.0555556
 30
0.0
 11
4.44943
 21
0.0659722
 31
0.0
  0
LINE
  8
0
 62
     0
 10
4.44943
 20
0.0659722
 30
0.0
 11
4.17275
 21
0.0972222
 31
0.0
  0
LINE
  8
0
 62
     0
 10
4.17275
 20
0.0972222
 30
0.0
 11
3.90603
 21
0.149306
 31
0.0
  0
LINE
  8
0
 62
     0
 10
3.90603
 20
0.149306
 30
0.0
 11
3.64931
 21
0.222222
 31
0.0
  0
LINE
  8
0
 62
     0
 10
3.64931
 20
0.222222
 30
0.0
 11
3.40256
 21
0.315972
 31
0.0
  0
LINE
  8
0
 62
     0
 10
3.40256
 20
0.315972
 30
0.0
 11
3.16581
 21
0.430556
 31
0.0
  0
LINE
  8
0
 62
     0
 10
3.16581
 20
0.430556
 30
0.0
 11
2.93901
 21
0.565972
 31
0.0
  0
LINE
  8
0
 62
     0
 10
2.93901
 20
0.565972
 30
0.0
 11
2.72222
 21
0.722222
 31
0.0
  0
LINE
  8
0
 62
     0
 10
2.72222
 20
0.722222
 30
0.0
 11
2.72222
 21
-3.05556
 31
0.0
  0
LINE
  8
0
 62
     0
 10
2.72222
 20
-3.05556
 30
0.0
 11
1.66667
 21
-3.05556
 31
0.0
  0
LINE
  8
0
 62
     0
 10
1.66667
 20
-3.05556
 30
0.0
 11
1.66667
 21
10.8194
 31
0.0
  0
LINE
  8
0
 62
     0
 10
1.66667
 20
10.8194
 30
0.0
 11
2.72222
 21
10.8194
 31
0.0
  0
LINE
  8
0
 62
     0
 10
2.72222
 20
10.8194
 30
0.0
 11
2.72222
 21
7.26389
 31
0.0
  0
LINE
  8
0
 62
     0
 10
2.72222
 20
7.26389
 30
0.0
 11
2.93181
 21
7.43403
 31
0.0
  0
LINE
  8
0
 62
     0
 10
2.93181
 20
7.43403
 30
0.0
 11
3.15793
 21
7.58333
 31
0.0
  0
LINE
  8
0
 62
     0
 10
3.15793
 20
7.58333
 30
0.0
 11
3.40056
 21
7.71186
 31
0.0
  0
LINE
  8
0
 62
     0
 10
3.40056
 20
7.71186
 30
0.0
 11
3.65972
 21
7.81944
 31
0.0
  0
LINE
  8
0
 62
     0
 10
3.65972
 20
7.81944
 30
0.0
 11
4.19618
 21
7.96528
 31
0.0
  0
LINE
  8
0
 62
     0
 10
4.19618
 20
7.96528
 30
0.0
 11
4.73611
 21
8.01389
 31
0.0
  0
ENDSEC
  0
EOF
