  0
SECTION
  2
HEADER
  9
$ACADVER
  1
AC1009
  9
$EXTMIN
 10
0.0
 20
0.0
 30
0.0
  9
$EXTMAX
 10
1000.0
 20
1000.0
 30
0.0
  9
$FILLMODE
 70
 0
  9
$SPLFRAME
 70
 1
  0
ENDSEC
  0
SECTION
  2
TABLES
  0
TABLE
  2
LAYER
 70
1
  0
LAYER
  2
0
 70
     0
 62
     7
  6
CONTINUOUS
  0
ENDTAB
  0
ENDSEC
  0
SECTION
  2
ENTITIES
  0
LINE
  8
0
 62
     0
 10
6.84722
 20
10.1389
 30
0.0
 11
6.84722
 21
9.06944
 31
0.0
  0
LINE
  8
0
 62
     0
 10
6.84722
 20
9.06944
 30
0.0
 11
4.13889
 21
6.11111
 31
0.0
  0
LINE
  8
0
 62
     0
 10
4.13889
 20
6.11111
 30
0.0
 11
4.23611
 21
6.11111
 31
0.0
  0
LINE
  8
0
 62
     0
 10
4.23611
 20
6.11111
 30
0.0
 11
4.54292
 21
6.09858
 31
0.0
  0
LINE
  8
0
 62
     0
 10
4.54292
 20
6.09858
 30
0.0
 11
4.83849
 21
6.06082
 31
0.0
  0
LINE
  8
0
 62
     0
 10
4.83849
 20
6.06082
 30
0.0
 11
5.12278
 21
5.99789
 31
0.0
  0
LINE
  8
0
 62
     0
 10
5.12278
 20
5.99789
 30
0.0
 11
5.39583
 21
5.90972
 31
0.0
  0
LINE
  8
0
 62
     0
 10
5.39583
 20
5.90972
 30
0.0
 11
5.65451
 21
5.79688
 31
0.0
  0
LINE
  8
0
 62
     0
 10
5.65451
 20
5.79688
 30
0.0
 11
5.89583
 21
5.65972
 31
0.0
  0
LINE
  8
0
 62
     0
 10
5.89583
 20
5.65972
 30
0.0
 11
6.11979
 21
5.49826
 31
0.0
  0
LINE
  8
0
 62
     0
 10
6.11979
 20
5.49826
 30
0.0
 11
6.32639
 21
5.3125
 31
0.0
  0
LINE
  8
0
 62
     0
 10
6.32639
 20
5.3125
 30
0.0
 11
6.51389
 21
5.10243
 31
0.0
  0
LINE
  8
0
 62
     0
 10
6.51389
 20
5.10243
 30
0.0
 11
6.68056
 21
4.86806
 31
0.0
  0
LINE
  8
0
 62
     0
 10
6.68056
 20
4.86806
 30
0.0
 11
6.82639
 21
4.60938
 31
0.0
  0
LINE
  8
0
 62
     0
 10
6.82639
 20
4.60938
 30
0.0
 11
6.95139
 21
4.32639
 31
0.0
  0
LINE
  8
0
 62
     0
 10
6.95139
 20
4.32639
 30
0.0
 11
7.05165
 21
4.01958
 31
0.0
  0
LINE
  8
0
 62
     0
 10
7.05165
 20
4.01958
 30
0.0
 11
7.12326
 21
3.68924
 31
0.0
  0
LINE
  8
0
 62
     0
 10
7.12326
 20
3.68924
 30
0.0
 11
7.16624
 21
3.3355
 31
0.0
  0
LINE
  8
0
 62
     0
 10
7.16624
 20
3.3355
 30
0.0
 11
7.18056
 21
2.95833
 31
0.0
  0
LINE
  8
0
 62
     0
 10
7.18056
 20
2.95833
 30
0.0
 11
7.16536
 21
2.61285
 31
0.0
  0
LINE
  8
0
 62
     0
 10
7.16536
 20
2.61285
 30
0.0
 11
7.11979
 21
2.28472
 31
0.0
  0
LINE
  8
0
 62
     0
 10
7.11979
 20
2.28472
 30
0.0
 11
7.04383
 21
1.97396
 31
0.0
  0
LINE
  8
0
 62
     0
 10
7.04383
 20
1.97396
 30
0.0
 11
6.9375
 21
1.68056
 31
0.0
  0
LINE
  8
0
 62
     0
 10
6.9375
 20
1.68056
 30
0.0
 11
6.80246
 21
1.40674
 31
0.0
  0
LINE
  8
0
 62
     0
 10
6.80246
 20
1.40674
 30
0.0
 11
6.64057
 21
1.15457
 31
0.0
  0
LINE
  8
0
 62
     0
 10
6.64057
 20
1.15457
 30
0.0
 11
6.45176
 21
0.9241
 31
0.0
  0
LINE
  8
0
 62
     0
 10
6.45176
 20
0.9241
 30
0.0
 11
6.23611
 21
0.715278
 31
0.0
  0
LINE
  8
0
 62
     0
 10
6.23611
 20
0.715278
 30
0.0
 11
5.99522
 21
0.529081
 31
0.0
  0
LINE
  8
0
 62
     0
 10
5.99522
 20
0.529081
 30
0.0
 11
5.7309
 21
0.366319
 31
0.0
  0
LINE
  8
0
 62
     0
 10
5.7309
 20
0.366319
 30
0.0
 11
5.44314
 21
0.226997
 31
0.0
  0
LINE
  8
0
 62
     0
 10
5.44314
 20
0.226997
 30
0.0
 11
5.13194
 21
0.111111
 31
0.0
  0
LINE
  8
0
 62
     0
 10
5.13194
 20
0.111111
 30
0.0
 11
4.79904
 21
0.0199653
 31
0.0
  0
LINE
  8
0
 62
     0
 10
4.79904
 20
0.0199653
 30
0.0
 11
4.44618
 21
-0.0451389
 31
0.0
  0
LINE
  8
0
 62
     0
 10
4.44618
 20
-0.0451389
 30
0.0
 11
4.07335
 21
-0.0842014
 31
0.0
  0
LINE
  8
0
 62
     0
 10
4.07335
 20
-0.0842014
 30
0.0
 11
3.68056
 21
-0.0972222
 31
0.0
  0
LINE
  8
0
 62
     0
 10
3.68056
 20
-0.0972222
 30
0.0
 11
3.32617
 21
-0.0859918
 31
0.0
  0
LINE
  8
0
 62
     0
 10
3.32617
 20
-0.0859918
 30
0.0
 11
2.99219
 21
-0.0524631
 31
0.0
  0
LINE
  8
0
 62
     0
 10
2.99219
 20
-0.0524631
 30
0.0
 11
2.6786
 21
0.00341797
 31
0.0
  0
LINE
  8
0
 62
     0
 10
2.6786
 20
0.00341797
 30
0.0
 11
2.38542
 21
0.0816515
 31
0.0
  0
LINE
  8
0
 62
     0
 10
2.38542
 20
0.0816515
 30
0.0
 11
2.11262
 21
0.182238
 31
0.0
  0
LINE
  8
0
 62
     0
 10
2.11262
 20
0.182238
 30
0.0
 11
1.86025
 21
0.305176
 31
0.0
  0
LINE
  8
0
 62
     0
 10
1.86025
 20
0.305176
 30
0.0
 11
1.62825
 21
0.450467
 31
0.0
  0
LINE
  8
0
 62
     0
 10
1.62825
 20
0.450467
 30
0.0
 11
1.41667
 21
0.618056
 31
0.0
  0
LINE
  8
0
 62
     0
 10
1.41667
 20
0.618056
 30
0.0
 11
1.22781
 21
0.805231
 31
0.0
  0
LINE
  8
0
 62
     0
 10
1.22781
 20
0.805231
 30
0.0
 11
1.06418
 21
1.00911
 31
0.0
  0
LINE
  8
0
 62
     0
 10
1.06418
 20
1.00911
 30
0.0
 11
0.925726
 21
1.22971
 31
0.0
  0
LINE
  8
0
 62
     0
 10
0.925726
 20
1.22971
 30
0.0
 11
0.812446
 21
1.46701
 31
0.0
  0
LINE
  8
0
 62
     0
 10
0.812446
 20
1.46701
 30
0.0
 11
0.724338
 21
1.72103
 31
0.0
  0
LINE
  8
0
 62
     0
 10
0.724338
 20
1.72103
 30
0.0
 11
0.661404
 21
1.99175
 31
0.0
  0
LINE
  8
0
 62
     0
 10
0.661404
 20
1.99175
 30
0.0
 11
0.623643
 21
2.27919
 31
0.0
  0
LINE
  8
0
 62
     0
 10
0.623643
 20
2.27919
 30
0.0
 11
0.611111
 21
2.58333
 31
0.0
  0
LINE
  8
0
 62
     0
 10
0.611111
 20
2.58333
 30
0.0
 11
1.72222
 21
2.58333
 31
0.0
  0
LINE
  8
0
 62
     0
 10
1.72222
 20
2.58333
 30
0.0
 11
1.7335
 21
2.38807
 31
0.0
  0
LINE
  8
0
 62
     0
 10
1.7335
 20
2.38807
 30
0.0
 11
1.76736
 21
2.20492
 31
0.0
  0
LINE
  8
0
 62
     0
 10
1.76736
 20
2.20492
 30
0.0
 11
1.82378
 21
2.0339
 31
0.0
  0
LINE
  8
0
 62
     0
 10
1.82378
 20
2.0339
 30
0.0
 11
1.90278
 21
1.875
 31
0.0
  0
LINE
  8
0
 62
     0
 10
1.90278
 20
1.875
 30
0.0
 11
2.11285
 21
1.59375
 31
0.0
  0
LINE
  8
0
 62
     0
 10
2.11285
 20
1.59375
 30
0.0
 11
2.38194
 21
1.36111
 31
0.0
  0
LINE
  8
0
 62
     0
 10
2.38194
 20
1.36111
 30
0.0
 11
2.6996
 21
1.17708
 31
0.0
  0
LINE
  8
0
 62
     0
 10
2.6996
 20
1.17708
 30
0.0
 11
3.05556
 21
1.04167
 31
0.0
  0
LINE
  8
0
 62
     0
 10
3.05556
 20
1.04167
 30
0.0
 11
3.4375
 21
0.958387
 31
0.0
  0
LINE
  8
0
 62
     0
 10
3.4375
 20
0.958387
 30
0.0
 11
3.83333
 21
0.930556
 31
0.0
  0
LINE
  8
0
 62
     0
 10
3.83333
 20
0.930556
 30
0.0
 11
4.28819
 21
0.967014
 31
0.0
  0
LINE
  8
0
 62
     0
 10
4.28819
 20
0.967014
 30
0.0
 11
4.70833
 21
1.07639
 31
0.0
  0
LINE
  8
0
 62
     0
 10
4.70833
 20
1.07639
 30
0.0
 11
4.90321
 21
1.15668
 31
0.0
  0
LINE
  8
0
 62
     0
 10
4.90321
 20
1.15668
 30
0.0
 11
5.08507
 21
1.25174
 31
0.0
  0
LINE
  8
0
 62
     0
 10
5.08507
 20
1.25174
 30
0.0
 11
5.2539
 21
1.36154
 31
0.0
  0
LINE
  8
0
 62
     0
 10
5.2539
 20
1.36154
 30
0.0
 11
5.40972
 21
1.48611
 31
0.0
  0
LINE
  8
0
 62
     0
 10
5.40972
 20
1.48611
 30
0.0
 11
5.55122
 21
1.62506
 31
0.0
  0
LINE
  8
0
 62
     0
 10
5.55122
 20
1.62506
 30
0.0
 11
5.67708
 21
1.77783
 31
0.0
  0
LINE
  8
0
 62
     0
 10
5.67708
 20
1.77783
 30
0.0
 11
5.78733
 21
1.9445
 31
0.0
  0
LINE
  8
0
 62
     0
 10
5.78733
 20
1.9445
 30
0.0
 11
5.88194
 21
2.125
 31
0.0
  0
LINE
  8
0
 62
     0
 10
5.88194
 20
2.125
 30
0.0
 11
5.95785
 21
2.31771
 31
0.0
  0
LINE
  8
0
 62
     0
 10
5.95785
 20
2.31771
 30
0.0
 11
6.0121
 21
2.52083
 31
0.0
  0
LINE
  8
0
 62
     0
 10
6.0121
 20
2.52083
 30
0.0
 11
6.04465
 21
2.73438
 31
0.0
  0
LINE
  8
0
 62
     0
 10
6.04465
 20
2.73438
 30
0.0
 11
6.05556
 21
2.95833
 31
0.0
  0
LINE
  8
0
 62
     0
 10
6.05556
 20
2.95833
 30
0.0
 11
6.04688
 21
3.20171
 31
0.0
  0
LINE
  8
0
 62
     0
 10
6.04688
 20
3.20171
 30
0.0
 11
6.02083
 21
3.43186
 31
0.0
  0
LINE
  8
0
 62
     0
 10
6.02083
 20
3.43186
 30
0.0
 11
5.97743
 21
3.64876
 31
0.0
  0
LINE
  8
0
 62
     0
 10
5.97743
 20
3.64876
 30
0.0
 11
5.91667
 21
3.85243
 31
0.0
  0
LINE
  8
0
 62
     0
 10
5.91667
 20
3.85243
 30
0.0
 11
5.83854
 21
4.04286
 31
0.0
  0
LINE
  8
0
 62
     0
 10
5.83854
 20
4.04286
 30
0.0
 11
5.74306
 21
4.22006
 31
0.0
  0
LINE
  8
0
 62
     0
 10
5.74306
 20
4.22006
 30
0.0
 11
5.63021
 21
4.384
 31
0.0
  0
LINE
  8
0
 62
     0
 10
5.63021
 20
4.384
 30
0.0
 11
5.5
 21
4.53472
 31
0.0
  0
LINE
  8
0
 62
     0
 10
5.5
 20
4.53472
 30
0.0
 11
5.35607
 21
4.66986
 31
0.0
  0
LINE
  8
0
 62
     0
 10
5.35607
 20
4.66986
 30
0.0
 11
5.20221
 21
4.78694
 31
0.0
  0
LINE
  8
0
 62
     0
 10
5.20221
 20
4.78694
 30
0.0
 11
5.03836
 21
4.88601
 31
0.0
  0
LINE
  8
0
 62
     0
 10
5.03836
 20
4.88601
 30
0.0
 11
4.86453
 21
4.96707
 31
0.0
  0
LINE
  8
0
 62
     0
 10
4.86453
 20
4.96707
 30
0.0
 11
4.68072
 21
5.03011
 31
0.0
  0
LINE
  8
0
 62
     0
 10
4.68072
 20
5.03011
 30
0.0
 11
4.48693
 21
5.07514
 31
0.0
  0
LINE
  8
0
 62
     0
 10
4.48693
 20
5.07514
 30
0.0
 11
4.28315
 21
5.10215
 31
0.0
  0
LINE
  8
0
 62
     0
 10
4.28315
 20
5.10215
 30
0.0
 11
4.06944
 21
5.11111
 31
0.0
  0
LINE
  8
0
 62
     0
 10
4.06944
 20
5.11111
 30
0.0
 11
3.81683
 21
5.1059
 31
0.0
  0
LINE
  8
0
 62
     0
 10
3.81683
 20
5.1059
 30
0.0
 11
3.58681
 21
5.09028
 31
0.0
  0
LINE
  8
0
 62
     0
 10
3.58681
 20
5.09028
 30
0.0
 11
3.37933
 21
5.06424
 31
0.0
  0
LINE
  8
0
 62
     0
 10
3.37933
 20
5.06424
 30
0.0
 11
3.19444
 21
5.02778
 31
0.0
  0
LINE
  8
0
 62
     0
 10
3.19444
 20
5.02778
 30
0.0
 11
2.88189
 21
4.9375
 31
0.0
  0
LINE
  8
0
 62
     0
 10
2.88189
 20
4.9375
 30
0.0
 11
2.63889
 21
4.83333
 31
0.0
  0
LINE
  8
0
 62
     0
 10
2.63889
 20
4.83333
 30
0.0
 11
2.26389
 21
5.72222
 31
0.0
  0
LINE
  8
0
 62
     0
 10
2.26389
 20
5.72222
 30
0.0
 11
5.38889
 21
9.06944
 31
0.0
  0
LINE
  8
0
 62
     0
 10
5.38889
 20
9.06944
 30
0.0
 11
1.33333
 21
9.06944
 31
0.0
  0
LINE
  8
0
 62
     0
 10
1.33333
 20
9.06944
 30
0.0
 11
1.33333
 21
10.1389
 31
0.0
  0
LINE
  8
0
 62
     0
 10
1.33333
 20
10.1389
 30
0.0
 11
6.84722
 21
10.1389
 31
0.0
  0
ENDSEC
  0
EOF
