  0
SECTION
  2
HEADER
  9
$ACADVER
  1
AC1009
  9
$EXTMIN
 10
0.0
 20
0.0
 30
0.0
  9
$EXTMAX
 10
1000.0
 20
1000.0
 30
0.0
  9
$FILLMODE
 70
 0
  9
$SPLFRAME
 70
 1
  0
ENDSEC
  0
SECTION
  2
TABLES
  0
TABLE
  2
LAYER
 70
1
  0
LAYER
  2
0
 70
     0
 62
     7
  6
CONTINUOUS
  0
ENDTAB
  0
ENDSEC
  0
SECTION
  2
ENTITIES
  0
LINE
  8
0
 62
     0
 10
11.2222
 20
2.23611
 30
0.0
 11
11.2222
 21
4.70833
 31
0.0
  0
LINE
  8
0
 62
     0
 10
11.2222
 20
4.70833
 30
0.0
 11
9.36111
 21
2.23611
 31
0.0
  0
LINE
  8
0
 62
     0
 10
9.36111
 20
2.23611
 30
0.0
 11
11.2222
 21
2.23611
 31
0.0
  0
LINE
  8
0
 62
     0
 10
1.97222
 20
7.55556
 30
0.0
 11
1.98611
 21
7.56944
 31
0.0
  0
LINE
  8
0
 62
     0
 10
1.98611
 20
7.56944
 30
0.0
 11
3.72222
 21
9.43056
 31
0.0
  0
LINE
  8
0
 62
     0
 10
3.72222
 20
9.43056
 30
0.0
 11
1.45833
 21
9.43056
 31
0.0
  0
LINE
  8
0
 62
     0
 10
1.45833
 20
9.43056
 30
0.0
 11
1.45833
 21
10.1389
 31
0.0
  0
LINE
  8
0
 62
     0
 10
1.45833
 20
10.1389
 30
0.0
 11
4.65278
 21
10.1389
 31
0.0
  0
LINE
  8
0
 62
     0
 10
4.65278
 20
10.1389
 30
0.0
 11
4.65278
 21
9.43056
 31
0.0
  0
LINE
  8
0
 62
     0
 10
4.65278
 20
9.43056
 30
0.0
 11
3.15278
 21
7.86111
 31
0.0
  0
LINE
  8
0
 62
     0
 10
3.15278
 20
7.86111
 30
0.0
 11
3.49914
 21
7.82422
 31
0.0
  0
LINE
  8
0
 62
     0
 10
3.49914
 20
7.82422
 30
0.0
 11
3.81597
 21
7.72743
 31
0.0
  0
LINE
  8
0
 62
     0
 10
3.81597
 20
7.72743
 30
0.0
 11
4.10331
 21
7.57081
 31
0.0
  0
LINE
  8
0
 62
     0
 10
4.10331
 20
7.57081
 30
0.0
 11
4.36111
 21
7.35417
 31
0.0
  0
LINE
  8
0
 62
     0
 10
4.36111
 20
7.35417
 30
0.0
 11
4.57374
 21
7.0829
 31
0.0
  0
LINE
  8
0
 62
     0
 10
4.57374
 20
7.0829
 30
0.0
 11
4.72564
 21
6.76215
 31
0.0
  0
LINE
  8
0
 62
     0
 10
4.72564
 20
6.76215
 30
0.0
 11
4.81679
 21
6.39193
 31
0.0
  0
LINE
  8
0
 62
     0
 10
4.81679
 20
6.39193
 30
0.0
 11
4.84722
 21
5.97222
 31
0.0
  0
LINE
  8
0
 62
     0
 10
4.84722
 20
5.97222
 30
0.0
 11
4.83886
 21
5.76964
 31
0.0
  0
LINE
  8
0
 62
     0
 10
4.83886
 20
5.76964
 30
0.0
 11
4.81381
 21
5.57856
 31
0.0
  0
LINE
  8
0
 62
     0
 10
4.81381
 20
5.57856
 30
0.0
 11
4.77203
 21
5.39899
 31
0.0
  0
LINE
  8
0
 62
     0
 10
4.77203
 20
5.39899
 30
0.0
 11
4.71354
 21
5.2309
 31
0.0
  0
LINE
  8
0
 62
     0
 10
4.71354
 20
5.2309
 30
0.0
 11
4.63835
 21
5.07433
 31
0.0
  0
LINE
  8
0
 62
     0
 10
4.63835
 20
5.07433
 30
0.0
 11
4.54644
 21
4.92925
 31
0.0
  0
LINE
  8
0
 62
     0
 10
4.54644
 20
4.92925
 30
0.0
 11
4.43782
 21
4.79568
 31
0.0
  0
LINE
  8
0
 62
     0
 10
4.43782
 20
4.79568
 30
0.0
 11
4.3125
 21
4.67361
 31
0.0
  0
LINE
  8
0
 62
     0
 10
4.3125
 20
4.67361
 30
0.0
 11
4.17215
 21
4.56461
 31
0.0
  0
LINE
  8
0
 62
     0
 10
4.17215
 20
4.56461
 30
0.0
 11
4.01861
 21
4.47011
 31
0.0
  0
LINE
  8
0
 62
     0
 10
4.01861
 20
4.47011
 30
0.0
 11
3.85183
 21
4.39014
 31
0.0
  0
LINE
  8
0
 62
     0
 10
3.85183
 20
4.39014
 30
0.0
 11
3.67182
 21
4.32471
 31
0.0
  0
LINE
  8
0
 62
     0
 10
3.67182
 20
4.32471
 30
0.0
 11
3.47857
 21
4.27382
 31
0.0
  0
LINE
  8
0
 62
     0
 10
3.47857
 20
4.27382
 30
0.0
 11
3.27208
 21
4.23747
 31
0.0
  0
LINE
  8
0
 62
     0
 10
3.27208
 20
4.23747
 30
0.0
 11
3.05236
 21
4.21565
 31
0.0
  0
LINE
  8
0
 62
     0
 10
3.05236
 20
4.21565
 30
0.0
 11
2.81944
 21
4.20833
 31
0.0
  0
LINE
  8
0
 62
     0
 10
2.81944
 20
4.20833
 30
0.0
 11
2.42535
 21
4.23438
 31
0.0
  0
LINE
  8
0
 62
     0
 10
2.42535
 20
4.23438
 30
0.0
 11
2.07639
 21
4.3125
 31
0.0
  0
LINE
  8
0
 62
     0
 10
2.07639
 20
4.3125
 30
0.0
 11
1.77257
 21
4.44271
 31
0.0
  0
LINE
  8
0
 62
     0
 10
1.77257
 20
4.44271
 30
0.0
 11
1.51389
 21
4.625
 31
0.0
  0
LINE
  8
0
 62
     0
 10
1.51389
 20
4.625
 30
0.0
 11
1.30724
 21
4.85156
 31
0.0
  0
LINE
  8
0
 62
     0
 10
1.30724
 20
4.85156
 30
0.0
 11
1.15967
 21
5.11458
 31
0.0
  0
LINE
  8
0
 62
     0
 10
1.15967
 20
5.11458
 30
0.0
 11
1.07113
 21
5.41406
 31
0.0
  0
LINE
  8
0
 62
     0
 10
1.07113
 20
5.41406
 30
0.0
 11
1.04167
 21
5.75
 31
0.0
  0
LINE
  8
0
 62
     0
 10
1.04167
 20
5.75
 30
0.0
 11
1.75
 21
5.75
 31
0.0
  0
LINE
  8
0
 62
     0
 10
1.75
 20
5.75
 30
0.0
 11
1.77214
 21
5.53564
 31
0.0
  0
LINE
  8
0
 62
     0
 10
1.77214
 20
5.53564
 30
0.0
 11
1.83854
 21
5.35075
 31
0.0
  0
LINE
  8
0
 62
     0
 10
1.83854
 20
5.35075
 30
0.0
 11
1.94922
 21
5.19536
 31
0.0
  0
LINE
  8
0
 62
     0
 10
1.94922
 20
5.19536
 30
0.0
 11
2.10417
 21
5.06944
 31
0.0
  0
LINE
  8
0
 62
     0
 10
2.10417
 20
5.06944
 30
0.0
 11
2.28776
 21
4.97222
 31
0.0
  0
LINE
  8
0
 62
     0
 10
2.28776
 20
4.97222
 30
0.0
 11
2.48438
 21
4.90278
 31
0.0
  0
LINE
  8
0
 62
     0
 10
2.48438
 20
4.90278
 30
0.0
 11
2.69401
 21
4.86111
 31
0.0
  0
LINE
  8
0
 62
     0
 10
2.69401
 20
4.86111
 30
0.0
 11
2.91667
 21
4.84722
 31
0.0
  0
LINE
  8
0
 62
     0
 10
2.91667
 20
4.84722
 30
0.0
 11
3.17492
 21
4.86544
 31
0.0
  0
LINE
  8
0
 62
     0
 10
3.17492
 20
4.86544
 30
0.0
 11
3.40799
 21
4.92014
 31
0.0
  0
LINE
  8
0
 62
     0
 10
3.40799
 20
4.92014
 30
0.0
 11
3.61589
 21
5.01128
 31
0.0
  0
LINE
  8
0
 62
     0
 10
3.61589
 20
5.01128
 30
0.0
 11
3.79861
 21
5.13889
 31
0.0
  0
LINE
  8
0
 62
     0
 10
3.79861
 20
5.13889
 30
0.0
 11
3.94743
 21
5.30035
 31
0.0
  0
LINE
  8
0
 62
     0
 10
3.94743
 20
5.30035
 30
0.0
 11
4.05376
 21
5.49306
 31
0.0
  0
LINE
  8
0
 62
     0
 10
4.05376
 20
5.49306
 30
0.0
 11
4.11757
 21
5.71701
 31
0.0
  0
LINE
  8
0
 62
     0
 10
4.11757
 20
5.71701
 30
0.0
 11
4.13889
 21
5.97222
 31
0.0
  0
LINE
  8
0
 62
     0
 10
4.13889
 20
5.97222
 30
0.0
 11
4.12147
 21
6.24826
 31
0.0
  0
LINE
  8
0
 62
     0
 10
4.12147
 20
6.24826
 30
0.0
 11
4.06939
 21
6.49306
 31
0.0
  0
LINE
  8
0
 62
     0
 10
4.06939
 20
6.49306
 30
0.0
 11
3.98258
 21
6.7066
 31
0.0
  0
LINE
  8
0
 62
     0
 10
3.98258
 20
6.7066
 30
0.0
 11
3.86111
 21
6.88889
 31
0.0
  0
LINE
  8
0
 62
     0
 10
3.86111
 20
6.88889
 30
0.0
 11
3.70747
 21
7.03472
 31
0.0
  0
LINE
  8
0
 62
     0
 10
3.70747
 20
7.03472
 30
0.0
 11
3.52431
 21
7.13889
 31
0.0
  0
LINE
  8
0
 62
     0
 10
3.52431
 20
7.13889
 30
0.0
 11
3.31164
 21
7.20139
 31
0.0
  0
LINE
  8
0
 62
     0
 10
3.31164
 20
7.20139
 30
0.0
 11
3.06944
 21
7.22222
 31
0.0
  0
LINE
  8
0
 62
     0
 10
3.06944
 20
7.22222
 30
0.0
 11
2.78814
 21
7.2066
 31
0.0
  0
LINE
  8
0
 62
     0
 10
2.78814
 20
7.2066
 30
0.0
 11
2.55556
 21
7.15972
 31
0.0
  0
LINE
  8
0
 62
     0
 10
2.55556
 20
7.15972
 30
0.0
 11
2.36806
 21
7.09549
 31
0.0
  0
LINE
  8
0
 62
     0
 10
2.36806
 20
7.09549
 30
0.0
 11
2.22222
 21
7.02778
 31
0.0
  0
LINE
  8
0
 62
     0
 10
2.22222
 20
7.02778
 30
0.0
 11
1.97222
 21
7.55556
 31
0.0
  0
LINE
  8
0
 62
     0
 10
4.83333
 20
-0
 30
0.0
 11
3.80556
 21
-0
 31
0.0
  0
LINE
  8
0
 62
     0
 10
3.80556
 20
-0
 30
0.0
 11
9.09722
 21
10.1389
 31
0.0
  0
LINE
  8
0
 62
     0
 10
9.09722
 20
10.1389
 30
0.0
 11
10.1389
 21
10.1389
 31
0.0
  0
LINE
  8
0
 62
     0
 10
10.1389
 20
10.1389
 30
0.0
 11
4.83333
 21
-0
 31
0.0
  0
LINE
  8
0
 62
     0
 10
11.2222
 20
-0
 30
0.0
 11
11.2222
 21
1.5
 31
0.0
  0
LINE
  8
0
 62
     0
 10
11.2222
 20
1.5
 30
0.0
 11
8.43056
 21
1.5
 31
0.0
  0
LINE
  8
0
 62
     0
 10
8.43056
 20
1.5
 30
0.0
 11
8.43056
 21
2.23611
 31
0.0
  0
LINE
  8
0
 62
     0
 10
8.43056
 20
2.23611
 30
0.0
 11
11.2222
 21
5.91667
 31
0.0
  0
LINE
  8
0
 62
     0
 10
11.2222
 20
5.91667
 30
0.0
 11
11.2222
 21
5.93056
 31
0.0
  0
LINE
  8
0
 62
     0
 10
11.2222
 20
5.93056
 30
0.0
 11
11.9861
 21
5.93056
 31
0.0
  0
LINE
  8
0
 62
     0
 10
11.9861
 20
5.93056
 30
0.0
 11
11.9861
 21
2.23611
 31
0.0
  0
LINE
  8
0
 62
     0
 10
11.9861
 20
2.23611
 30
0.0
 11
12.6806
 21
2.23611
 31
0.0
  0
LINE
  8
0
 62
     0
 10
12.6806
 20
2.23611
 30
0.0
 11
12.6806
 21
1.5
 31
0.0
  0
LINE
  8
0
 62
     0
 10
12.6806
 20
1.5
 30
0.0
 11
11.9861
 21
1.5
 31
0.0
  0
LINE
  8
0
 62
     0
 10
11.9861
 20
1.5
 30
0.0
 11
11.9861
 21
-0
 31
0.0
  0
LINE
  8
0
 62
     0
 10
11.9861
 20
-0
 30
0.0
 11
11.2222
 21
-0
 31
0.0
  0
ENDSEC
  0
EOF
