  0
SECTION
  2
HEADER
  9
$ACADVER
  1
AC1009
  9
$EXTMIN
 10
0.0
 20
0.0
 30
0.0
  9
$EXTMAX
 10
1000.0
 20
1000.0
 30
0.0
  9
$FILLMODE
 70
 0
  9
$SPLFRAME
 70
 1
  0
ENDSEC
  0
SECTION
  2
TABLES
  0
TABLE
  2
LAYER
 70
1
  0
LAYER
  2
0
 70
     0
 62
     7
  6
CONTINUOUS
  0
ENDTAB
  0
ENDSEC
  0
SECTION
  2
ENTITIES
  0
LINE
  8
0
 62
     0
 10
7
 20
-0
 30
0.0
 11
0.708333
 21
-0
 31
0.0
  0
LINE
  8
0
 62
     0
 10
0.708333
 20
-0
 30
0.0
 11
0.708333
 21
1.06944
 31
0.0
  0
LINE
  8
0
 62
     0
 10
0.708333
 20
1.06944
 30
0.0
 11
4.98611
 21
5.65278
 31
0.0
  0
LINE
  8
0
 62
     0
 10
4.98611
 20
5.65278
 30
0.0
 11
5.1836
 21
5.88026
 31
0.0
  0
LINE
  8
0
 62
     0
 10
5.1836
 20
5.88026
 30
0.0
 11
5.34549
 21
6.09033
 31
0.0
  0
LINE
  8
0
 62
     0
 10
5.34549
 20
6.09033
 30
0.0
 11
5.47179
 21
6.28304
 31
0.0
  0
LINE
  8
0
 62
     0
 10
5.47179
 20
6.28304
 30
0.0
 11
5.5625
 21
6.45833
 31
0.0
  0
LINE
  8
0
 62
     0
 10
5.5625
 20
6.45833
 30
0.0
 11
5.67188
 21
6.80908
 31
0.0
  0
LINE
  8
0
 62
     0
 10
5.67188
 20
6.80908
 30
0.0
 11
5.70833
 21
7.19444
 31
0.0
  0
LINE
  8
0
 62
     0
 10
5.70833
 20
7.19444
 30
0.0
 11
5.67708
 21
7.53125
 31
0.0
  0
LINE
  8
0
 62
     0
 10
5.67708
 20
7.53125
 30
0.0
 11
5.58333
 21
7.875
 31
0.0
  0
LINE
  8
0
 62
     0
 10
5.58333
 20
7.875
 30
0.0
 11
5.42882
 21
8.20318
 31
0.0
  0
LINE
  8
0
 62
     0
 10
5.42882
 20
8.20318
 30
0.0
 11
5.21528
 21
8.49306
 31
0.0
  0
LINE
  8
0
 62
     0
 10
5.21528
 20
8.49306
 30
0.0
 11
4.94265
 21
8.73964
 31
0.0
  0
LINE
  8
0
 62
     0
 10
4.94265
 20
8.73964
 30
0.0
 11
4.61111
 21
8.9375
 31
0.0
  0
LINE
  8
0
 62
     0
 10
4.61111
 20
8.9375
 30
0.0
 11
4.42447
 21
9.01346
 31
0.0
  0
LINE
  8
0
 62
     0
 10
4.42447
 20
9.01346
 30
0.0
 11
4.22569
 21
9.06771
 31
0.0
  0
LINE
  8
0
 62
     0
 10
4.22569
 20
9.06771
 30
0.0
 11
4.01475
 21
9.10026
 31
0.0
  0
LINE
  8
0
 62
     0
 10
4.01475
 20
9.10026
 30
0.0
 11
3.79167
 21
9.11111
 31
0.0
  0
LINE
  8
0
 62
     0
 10
3.79167
 20
9.11111
 30
0.0
 11
3.58154
 21
9.09987
 31
0.0
  0
LINE
  8
0
 62
     0
 10
3.58154
 20
9.09987
 30
0.0
 11
3.38194
 21
9.06603
 31
0.0
  0
LINE
  8
0
 62
     0
 10
3.38194
 20
9.06603
 30
0.0
 11
3.19271
 21
9.0096
 31
0.0
  0
LINE
  8
0
 62
     0
 10
3.19271
 20
9.0096
 30
0.0
 11
3.01389
 21
8.93056
 31
0.0
  0
LINE
  8
0
 62
     0
 10
3.01389
 20
8.93056
 30
0.0
 11
2.69271
 21
8.72222
 31
0.0
  0
LINE
  8
0
 62
     0
 10
2.69271
 20
8.72222
 30
0.0
 11
2.42361
 21
8.45833
 31
0.0
  0
LINE
  8
0
 62
     0
 10
2.42361
 20
8.45833
 30
0.0
 11
2.20828
 21
8.14763
 31
0.0
  0
LINE
  8
0
 62
     0
 10
2.20828
 20
8.14763
 30
0.0
 11
2.04861
 21
7.79861
 31
0.0
  0
LINE
  8
0
 62
     0
 10
2.04861
 20
7.79861
 30
0.0
 11
1.94965
 21
7.42882
 31
0.0
  0
LINE
  8
0
 62
     0
 10
1.94965
 20
7.42882
 30
0.0
 11
1.91667
 21
7.05556
 31
0.0
  0
LINE
  8
0
 62
     0
 10
1.91667
 20
7.05556
 30
0.0
 11
0.722222
 21
7.05556
 31
0.0
  0
LINE
  8
0
 62
     0
 10
0.722222
 20
7.05556
 30
0.0
 11
0.733072
 21
7.30903
 31
0.0
  0
LINE
  8
0
 62
     0
 10
0.733072
 20
7.30903
 30
0.0
 11
0.765625
 21
7.56944
 31
0.0
  0
LINE
  8
0
 62
     0
 10
0.765625
 20
7.56944
 30
0.0
 11
0.819878
 21
7.83681
 31
0.0
  0
LINE
  8
0
 62
     0
 10
0.819878
 20
7.83681
 30
0.0
 11
0.895833
 21
8.11111
 31
0.0
  0
LINE
  8
0
 62
     0
 10
0.895833
 20
8.11111
 30
0.0
 11
0.995171
 21
8.38331
 31
0.0
  0
LINE
  8
0
 62
     0
 10
0.995171
 20
8.38331
 30
0.0
 11
1.11974
 21
8.64415
 31
0.0
  0
LINE
  8
0
 62
     0
 10
1.11974
 20
8.64415
 30
0.0
 11
1.26948
 21
8.89372
 31
0.0
  0
LINE
  8
0
 62
     0
 10
1.26948
 20
8.89372
 30
0.0
 11
1.44444
 21
9.13194
 31
0.0
  0
LINE
  8
0
 62
     0
 10
1.44444
 20
9.13194
 30
0.0
 11
1.64447
 21
9.3546
 31
0.0
  0
LINE
  8
0
 62
     0
 10
1.64447
 20
9.3546
 30
0.0
 11
1.86974
 21
9.55729
 31
0.0
  0
LINE
  8
0
 62
     0
 10
1.86974
 20
9.55729
 30
0.0
 11
2.12017
 21
9.74001
 31
0.0
  0
LINE
  8
0
 62
     0
 10
2.12017
 20
9.74001
 30
0.0
 11
2.39583
 21
9.90278
 31
0.0
  0
LINE
  8
0
 62
     0
 10
2.39583
 20
9.90278
 30
0.0
 11
2.69922
 21
10.0365
 31
0.0
  0
LINE
  8
0
 62
     0
 10
2.69922
 20
10.0365
 30
0.0
 11
3.03299
 21
10.132
 31
0.0
  0
LINE
  8
0
 62
     0
 10
3.03299
 20
10.132
 30
0.0
 11
3.39714
 21
10.1893
 31
0.0
  0
LINE
  8
0
 62
     0
 10
3.39714
 20
10.1893
 30
0.0
 11
3.79167
 21
10.2083
 31
0.0
  0
LINE
  8
0
 62
     0
 10
3.79167
 20
10.2083
 30
0.0
 11
4.14322
 21
10.194
 31
0.0
  0
LINE
  8
0
 62
     0
 10
4.14322
 20
10.194
 30
0.0
 11
4.47569
 21
10.151
 31
0.0
  0
LINE
  8
0
 62
     0
 10
4.47569
 20
10.151
 30
0.0
 11
4.78906
 21
10.0794
 31
0.0
  0
LINE
  8
0
 62
     0
 10
4.78906
 20
10.0794
 30
0.0
 11
5.08333
 21
9.97917
 31
0.0
  0
LINE
  8
0
 62
     0
 10
5.08333
 20
9.97917
 30
0.0
 11
5.35764
 21
9.85335
 31
0.0
  0
LINE
  8
0
 62
     0
 10
5.35764
 20
9.85335
 30
0.0
 11
5.61111
 21
9.70492
 31
0.0
  0
LINE
  8
0
 62
     0
 10
5.61111
 20
9.70492
 30
0.0
 11
5.84375
 21
9.5339
 31
0.0
  0
LINE
  8
0
 62
     0
 10
5.84375
 20
9.5339
 30
0.0
 11
6.05556
 21
9.34028
 31
0.0
  0
LINE
  8
0
 62
     0
 10
6.05556
 20
9.34028
 30
0.0
 11
6.24522
 21
9.12717
 31
0.0
  0
LINE
  8
0
 62
     0
 10
6.24522
 20
9.12717
 30
0.0
 11
6.41146
 21
8.89757
 31
0.0
  0
LINE
  8
0
 62
     0
 10
6.41146
 20
8.89757
 30
0.0
 11
6.55425
 21
8.65147
 31
0.0
  0
LINE
  8
0
 62
     0
 10
6.55425
 20
8.65147
 30
0.0
 11
6.67361
 21
8.38889
 31
0.0
  0
LINE
  8
0
 62
     0
 10
6.67361
 20
8.38889
 30
0.0
 11
6.76774
 21
8.11285
 31
0.0
  0
LINE
  8
0
 62
     0
 10
6.76774
 20
8.11285
 30
0.0
 11
6.83501
 21
7.82639
 31
0.0
  0
LINE
  8
0
 62
     0
 10
6.83501
 20
7.82639
 30
0.0
 11
6.87538
 21
7.52951
 31
0.0
  0
LINE
  8
0
 62
     0
 10
6.87538
 20
7.52951
 30
0.0
 11
6.88889
 21
7.22222
 31
0.0
  0
LINE
  8
0
 62
     0
 10
6.88889
 20
7.22222
 30
0.0
 11
6.87408
 21
6.9241
 31
0.0
  0
LINE
  8
0
 62
     0
 10
6.87408
 20
6.9241
 30
0.0
 11
6.82981
 21
6.64068
 31
0.0
  0
LINE
  8
0
 62
     0
 10
6.82981
 20
6.64068
 30
0.0
 11
6.75603
 21
6.37201
 31
0.0
  0
LINE
  8
0
 62
     0
 10
6.75603
 20
6.37201
 30
0.0
 11
6.65278
 21
6.11806
 31
0.0
  0
LINE
  8
0
 62
     0
 10
6.65278
 20
6.11806
 30
0.0
 11
6.51475
 21
5.86501
 31
0.0
  0
LINE
  8
0
 62
     0
 10
6.51475
 20
5.86501
 30
0.0
 11
6.33681
 21
5.59896
 31
0.0
  0
LINE
  8
0
 62
     0
 10
6.33681
 20
5.59896
 30
0.0
 11
6.11892
 21
5.31988
 31
0.0
  0
LINE
  8
0
 62
     0
 10
6.11892
 20
5.31988
 30
0.0
 11
5.86111
 21
5.02778
 31
0.0
  0
LINE
  8
0
 62
     0
 10
5.86111
 20
5.02778
 30
0.0
 11
2.15278
 21
1.06944
 31
0.0
  0
LINE
  8
0
 62
     0
 10
2.15278
 20
1.06944
 30
0.0
 11
7
 21
1.06944
 31
0.0
  0
LINE
  8
0
 62
     0
 10
7
 20
1.06944
 30
0.0
 11
7
 21
-0
 31
0.0
  0
ENDSEC
  0
EOF
