  0
SECTION
  2
HEADER
  9
$ACADVER
  1
AC1009
  9
$EXTMIN
 10
0.0
 20
0.0
 30
0.0
  9
$EXTMAX
 10
1000.0
 20
1000.0
 30
0.0
  9
$FILLMODE
 70
 0
  9
$SPLFRAME
 70
 1
  0
ENDSEC
  0
SECTION
  2
TABLES
  0
TABLE
  2
LAYER
 70
1
  0
LAYER
  2
0
 70
     0
 62
     7
  6
CONTINUOUS
  0
ENDTAB
  0
ENDSEC
  0
SECTION
  2
ENTITIES
  0
LINE
  8
0
 62
     0
 10
7.05556
 20
11.5
 30
0.0
 11
5.94444
 21
11.5
 31
0.0
  0
LINE
  8
0
 62
     0
 10
5.94444
 20
11.5
 30
0.0
 11
5.94444
 21
12.7361
 31
0.0
  0
LINE
  8
0
 62
     0
 10
5.94444
 20
12.7361
 30
0.0
 11
7.05556
 21
12.7361
 31
0.0
  0
LINE
  8
0
 62
     0
 10
7.05556
 20
12.7361
 30
0.0
 11
7.05556
 21
11.5
 31
0.0
  0
LINE
  8
0
 62
     0
 10
3.90278
 20
11.5
 30
0.0
 11
2.79167
 21
11.5
 31
0.0
  0
LINE
  8
0
 62
     0
 10
2.79167
 20
11.5
 30
0.0
 11
2.79167
 21
12.7361
 31
0.0
  0
LINE
  8
0
 62
     0
 10
2.79167
 20
12.7361
 30
0.0
 11
3.90278
 21
12.7361
 31
0.0
  0
LINE
  8
0
 62
     0
 10
3.90278
 20
12.7361
 30
0.0
 11
3.90278
 21
11.5
 31
0.0
  0
LINE
  8
0
 62
     0
 10
4.88889
 20
-0.0972222
 30
0.0
 11
4.493
 21
-0.0807292
 31
0.0
  0
LINE
  8
0
 62
     0
 10
4.493
 20
-0.0807292
 30
0.0
 11
4.11106
 21
-0.03125
 31
0.0
  0
LINE
  8
0
 62
     0
 10
4.11106
 20
-0.03125
 30
0.0
 11
3.743
 21
0.0512153
 31
0.0
  0
LINE
  8
0
 62
     0
 10
3.743
 20
0.0512153
 30
0.0
 11
3.38889
 21
0.166667
 31
0.0
  0
LINE
  8
0
 62
     0
 10
3.38889
 20
0.166667
 30
0.0
 11
3.05294
 21
0.311686
 31
0.0
  0
LINE
  8
0
 62
     0
 10
3.05294
 20
0.311686
 30
0.0
 11
2.73958
 21
0.482639
 31
0.0
  0
LINE
  8
0
 62
     0
 10
2.73958
 20
0.482639
 30
0.0
 11
2.44878
 21
0.679688
 31
0.0
  0
LINE
  8
0
 62
     0
 10
2.44878
 20
0.679688
 30
0.0
 11
2.18056
 21
0.902778
 31
0.0
  0
LINE
  8
0
 62
     0
 10
2.18056
 20
0.902778
 30
0.0
 11
1.93744
 21
1.1511
 31
0.0
  0
LINE
  8
0
 62
     0
 10
1.93744
 20
1.1511
 30
0.0
 11
1.72217
 21
1.42367
 31
0.0
  0
LINE
  8
0
 62
     0
 10
1.72217
 20
1.42367
 30
0.0
 11
1.53467
 21
1.72054
 31
0.0
  0
LINE
  8
0
 62
     0
 10
1.53467
 20
1.72054
 30
0.0
 11
1.375
 21
2.04167
 31
0.0
  0
LINE
  8
0
 62
     0
 10
1.375
 20
2.04167
 30
0.0
 11
1.2474
 21
2.3846
 31
0.0
  0
LINE
  8
0
 62
     0
 10
1.2474
 20
2.3846
 30
0.0
 11
1.15625
 21
2.74658
 31
0.0
  0
LINE
  8
0
 62
     0
 10
1.15625
 20
2.74658
 30
0.0
 11
1.10156
 21
3.12765
 31
0.0
  0
LINE
  8
0
 62
     0
 10
1.10156
 20
3.12765
 30
0.0
 11
1.08333
 21
3.52778
 31
0.0
  0
LINE
  8
0
 62
     0
 10
1.08333
 20
3.52778
 30
0.0
 11
1.08333
 21
10.1389
 31
0.0
  0
LINE
  8
0
 62
     0
 10
1.08333
 20
10.1389
 30
0.0
 11
2.30556
 21
10.1389
 31
0.0
  0
LINE
  8
0
 62
     0
 10
2.30556
 20
10.1389
 30
0.0
 11
2.30556
 21
3.61111
 31
0.0
  0
LINE
  8
0
 62
     0
 10
2.30556
 20
3.61111
 30
0.0
 11
2.31939
 21
3.35161
 31
0.0
  0
LINE
  8
0
 62
     0
 10
2.31939
 20
3.35161
 30
0.0
 11
2.36106
 21
3.10075
 31
0.0
  0
LINE
  8
0
 62
     0
 10
2.36106
 20
3.10075
 30
0.0
 11
2.4305
 21
2.85856
 31
0.0
  0
LINE
  8
0
 62
     0
 10
2.4305
 20
2.85856
 30
0.0
 11
2.52778
 21
2.625
 31
0.0
  0
LINE
  8
0
 62
     0
 10
2.52778
 20
2.625
 30
0.0
 11
2.64757
 21
2.40283
 31
0.0
  0
LINE
  8
0
 62
     0
 10
2.64757
 20
2.40283
 30
0.0
 11
2.78472
 21
2.1945
 31
0.0
  0
LINE
  8
0
 62
     0
 10
2.78472
 20
2.1945
 30
0.0
 11
2.93924
 21
2.00006
 31
0.0
  0
LINE
  8
0
 62
     0
 10
2.93924
 20
2.00006
 30
0.0
 11
3.11111
 21
1.81944
 31
0.0
  0
LINE
  8
0
 62
     0
 10
3.11111
 20
1.81944
 30
0.0
 11
3.29812
 21
1.65539
 31
0.0
  0
LINE
  8
0
 62
     0
 10
3.29812
 20
1.65539
 30
0.0
 11
3.49826
 21
1.51042
 31
0.0
  0
LINE
  8
0
 62
     0
 10
3.49826
 20
1.51042
 30
0.0
 11
3.71137
 21
1.38455
 31
0.0
  0
LINE
  8
0
 62
     0
 10
3.71137
 20
1.38455
 30
0.0
 11
3.9375
 21
1.27778
 31
0.0
  0
LINE
  8
0
 62
     0
 10
3.9375
 20
1.27778
 30
0.0
 11
4.40799
 21
1.132
 31
0.0
  0
LINE
  8
0
 62
     0
 10
4.40799
 20
1.132
 30
0.0
 11
4.88889
 21
1.08333
 31
0.0
  0
LINE
  8
0
 62
     0
 10
4.88889
 20
1.08333
 30
0.0
 11
5.38368
 21
1.132
 31
0.0
  0
LINE
  8
0
 62
     0
 10
5.38368
 20
1.132
 30
0.0
 11
5.86806
 21
1.27778
 31
0.0
  0
LINE
  8
0
 62
     0
 10
5.86806
 20
1.27778
 30
0.0
 11
6.10194
 21
1.38455
 31
0.0
  0
LINE
  8
0
 62
     0
 10
6.10194
 20
1.38455
 30
0.0
 11
6.3246
 21
1.51042
 31
0.0
  0
LINE
  8
0
 62
     0
 10
6.3246
 20
1.51042
 30
0.0
 11
6.53597
 21
1.65539
 31
0.0
  0
LINE
  8
0
 62
     0
 10
6.53597
 20
1.65539
 30
0.0
 11
6.73611
 21
1.81944
 31
0.0
  0
LINE
  8
0
 62
     0
 10
6.73611
 20
1.81944
 30
0.0
 11
6.921
 21
2.00006
 31
0.0
  0
LINE
  8
0
 62
     0
 10
6.921
 20
2.00006
 30
0.0
 11
7.08681
 21
2.1945
 31
0.0
  0
LINE
  8
0
 62
     0
 10
7.08681
 20
2.1945
 30
0.0
 11
7.2335
 21
2.40283
 31
0.0
  0
LINE
  8
0
 62
     0
 10
7.2335
 20
2.40283
 30
0.0
 11
7.36111
 21
2.625
 31
0.0
  0
LINE
  8
0
 62
     0
 10
7.36111
 20
2.625
 30
0.0
 11
7.46436
 21
2.85856
 31
0.0
  0
LINE
  8
0
 62
     0
 10
7.46436
 20
2.85856
 30
0.0
 11
7.53814
 21
3.10075
 31
0.0
  0
LINE
  8
0
 62
     0
 10
7.53814
 20
3.10075
 30
0.0
 11
7.58242
 21
3.35161
 31
0.0
  0
LINE
  8
0
 62
     0
 10
7.58242
 20
3.35161
 30
0.0
 11
7.59722
 21
3.61111
 31
0.0
  0
LINE
  8
0
 62
     0
 10
7.59722
 20
3.61111
 30
0.0
 11
7.59722
 21
10.1389
 31
0.0
  0
LINE
  8
0
 62
     0
 10
7.59722
 20
10.1389
 30
0.0
 11
8.77778
 21
10.1389
 31
0.0
  0
LINE
  8
0
 62
     0
 10
8.77778
 20
10.1389
 30
0.0
 11
8.77778
 21
3.52778
 31
0.0
  0
LINE
  8
0
 62
     0
 10
8.77778
 20
3.52778
 30
0.0
 11
8.75868
 21
3.12765
 31
0.0
  0
LINE
  8
0
 62
     0
 10
8.75868
 20
3.12765
 30
0.0
 11
8.70139
 21
2.74658
 31
0.0
  0
LINE
  8
0
 62
     0
 10
8.70139
 20
2.74658
 30
0.0
 11
8.6059
 21
2.3846
 31
0.0
  0
LINE
  8
0
 62
     0
 10
8.6059
 20
2.3846
 30
0.0
 11
8.47222
 21
2.04167
 31
0.0
  0
LINE
  8
0
 62
     0
 10
8.47222
 20
2.04167
 30
0.0
 11
8.3055
 21
1.72054
 31
0.0
  0
LINE
  8
0
 62
     0
 10
8.3055
 20
1.72054
 30
0.0
 11
8.11106
 21
1.42367
 31
0.0
  0
LINE
  8
0
 62
     0
 10
8.11106
 20
1.42367
 30
0.0
 11
7.88883
 21
1.1511
 31
0.0
  0
LINE
  8
0
 62
     0
 10
7.88883
 20
1.1511
 30
0.0
 11
7.63889
 21
0.902778
 31
0.0
  0
LINE
  8
0
 62
     0
 10
7.63889
 20
0.902778
 30
0.0
 11
7.36372
 21
0.679688
 31
0.0
  0
LINE
  8
0
 62
     0
 10
7.36372
 20
0.679688
 30
0.0
 11
7.06597
 21
0.482639
 31
0.0
  0
LINE
  8
0
 62
     0
 10
7.06597
 20
0.482639
 30
0.0
 11
6.74567
 21
0.311686
 31
0.0
  0
LINE
  8
0
 62
     0
 10
6.74567
 20
0.311686
 30
0.0
 11
6.40278
 21
0.166667
 31
0.0
  0
LINE
  8
0
 62
     0
 10
6.40278
 20
0.166667
 30
0.0
 11
6.04253
 21
0.0512153
 31
0.0
  0
LINE
  8
0
 62
     0
 10
6.04253
 20
0.0512153
 30
0.0
 11
5.67014
 21
-0.03125
 31
0.0
  0
LINE
  8
0
 62
     0
 10
5.67014
 20
-0.03125
 30
0.0
 11
5.28558
 21
-0.0807292
 31
0.0
  0
LINE
  8
0
 62
     0
 10
5.28558
 20
-0.0807292
 30
0.0
 11
4.88889
 21
-0.0972222
 31
0.0
  0
ENDSEC
  0
EOF
