  0
SECTION
  2
HEADER
  9
$ACADVER
  1
AC1009
  9
$EXTMIN
 10
0.0
 20
0.0
 30
0.0
  9
$EXTMAX
 10
1000.0
 20
1000.0
 30
0.0
  9
$FILLMODE
 70
 0
  9
$SPLFRAME
 70
 1
  0
ENDSEC
  0
SECTION
  2
TABLES
  0
TABLE
  2
LAYER
 70
1
  0
LAYER
  2
0
 70
     0
 62
     7
  6
CONTINUOUS
  0
ENDTAB
  0
ENDSEC
  0
SECTION
  2
ENTITIES
  0
LINE
  8
0
 62
     0
 10
3.45833
 20
-1.69444
 30
0.0
 11
3.29947
 21
-2.02468
 31
0.0
  0
LINE
  8
0
 62
     0
 10
3.29947
 20
-2.02468
 30
0.0
 11
3.11458
 21
-2.30724
 31
0.0
  0
LINE
  8
0
 62
     0
 10
3.11458
 20
-2.30724
 30
0.0
 11
2.90364
 21
-2.54204
 31
0.0
  0
LINE
  8
0
 62
     0
 10
2.90364
 20
-2.54204
 30
0.0
 11
2.66667
 21
-2.72917
 31
0.0
  0
LINE
  8
0
 62
     0
 10
2.66667
 20
-2.72917
 30
0.0
 11
2.39844
 21
-2.87196
 31
0.0
  0
LINE
  8
0
 62
     0
 10
2.39844
 20
-2.87196
 30
0.0
 11
2.09375
 21
-2.97396
 31
0.0
  0
LINE
  8
0
 62
     0
 10
2.09375
 20
-2.97396
 30
0.0
 11
1.75261
 21
-3.03515
 31
0.0
  0
LINE
  8
0
 62
     0
 10
1.75261
 20
-3.03515
 30
0.0
 11
1.375
 21
-3.05556
 31
0.0
  0
LINE
  8
0
 62
     0
 10
1.375
 20
-3.05556
 30
0.0
 11
0.444444
 21
-3.05556
 31
0.0
  0
LINE
  8
0
 62
     0
 10
0.444444
 20
-3.05556
 30
0.0
 11
0.444444
 21
-2.04167
 31
0.0
  0
LINE
  8
0
 62
     0
 10
0.444444
 20
-2.04167
 30
0.0
 11
1.22222
 21
-2.04167
 31
0.0
  0
LINE
  8
0
 62
     0
 10
1.22222
 20
-2.04167
 30
0.0
 11
1.47304
 21
-2.03125
 31
0.0
  0
LINE
  8
0
 62
     0
 10
1.47304
 20
-2.03125
 30
0.0
 11
1.69792
 21
-2
 31
0.0
  0
LINE
  8
0
 62
     0
 10
1.69792
 20
-2
 30
0.0
 11
1.89669
 21
-1.94792
 31
0.0
  0
LINE
  8
0
 62
     0
 10
1.89669
 20
-1.94792
 30
0.0
 11
2.06944
 21
-1.875
 31
0.0
  0
LINE
  8
0
 62
     0
 10
2.06944
 20
-1.875
 30
0.0
 11
2.22304
 21
-1.76736
 31
0.0
  0
LINE
  8
0
 62
     0
 10
2.22304
 20
-1.76736
 30
0.0
 11
2.36453
 21
-1.61111
 31
0.0
  0
LINE
  8
0
 62
     0
 10
2.36453
 20
-1.61111
 30
0.0
 11
2.49388
 21
-1.40625
 31
0.0
  0
LINE
  8
0
 62
     0
 10
2.49388
 20
-1.40625
 30
0.0
 11
2.61111
 21
-1.15278
 31
0.0
  0
LINE
  8
0
 62
     0
 10
2.61111
 20
-1.15278
 30
0.0
 11
3.27778
 21
0.513889
 31
0.0
  0
LINE
  8
0
 62
     0
 10
3.27778
 20
0.513889
 30
0.0
 11
0.444444
 21
7.72222
 31
0.0
  0
LINE
  8
0
 62
     0
 10
0.444444
 20
7.72222
 30
0.0
 11
1.66667
 21
7.72222
 31
0.0
  0
LINE
  8
0
 62
     0
 10
1.66667
 20
7.72222
 30
0.0
 11
3.81944
 21
1.84722
 31
0.0
  0
LINE
  8
0
 62
     0
 10
3.81944
 20
1.84722
 30
0.0
 11
6.19444
 21
7.72222
 31
0.0
  0
LINE
  8
0
 62
     0
 10
6.19444
 20
7.72222
 30
0.0
 11
7.27778
 21
7.72222
 31
0.0
  0
LINE
  8
0
 62
     0
 10
7.27778
 20
7.72222
 30
0.0
 11
3.45833
 21
-1.69444
 31
0.0
  0
LINE
  8
0
 62
     0
 10
5.01389
 20
11.7222
 30
0.0
 11
3.66667
 21
9.83333
 31
0.0
  0
LINE
  8
0
 62
     0
 10
3.66667
 20
9.83333
 30
0.0
 11
2.69444
 21
9.83333
 31
0.0
  0
LINE
  8
0
 62
     0
 10
2.69444
 20
9.83333
 30
0.0
 11
3.77778
 21
11.7222
 31
0.0
  0
LINE
  8
0
 62
     0
 10
3.77778
 20
11.7222
 30
0.0
 11
5.01389
 21
11.7222
 31
0.0
  0
ENDSEC
  0
EOF
