  0
SECTION
  2
HEADER
  9
$ACADVER
  1
AC1009
  9
$EXTMIN
 10
0.0
 20
0.0
 30
0.0
  9
$EXTMAX
 10
1000.0
 20
1000.0
 30
0.0
  9
$FILLMODE
 70
 0
  9
$SPLFRAME
 70
 1
  0
ENDSEC
  0
SECTION
  2
TABLES
  0
TABLE
  2
LAYER
 70
1
  0
LAYER
  2
0
 70
     0
 62
     7
  6
CONTINUOUS
  0
ENDTAB
  0
ENDSEC
  0
SECTION
  2
ENTITIES
  0
LINE
  8
0
 62
     0
 10
3.88889
 20
0.930556
 30
0.0
 11
4.16357
 21
0.944065
 31
0.0
  0
LINE
  8
0
 62
     0
 10
4.16357
 20
0.944065
 30
0.0
 11
4.41835
 21
0.984429
 31
0.0
  0
LINE
  8
0
 62
     0
 10
4.41835
 20
0.984429
 30
0.0
 11
4.65315
 21
1.0517
 31
0.0
  0
LINE
  8
0
 62
     0
 10
4.65315
 20
1.0517
 30
0.0
 11
4.86806
 21
1.14583
 31
0.0
  0
LINE
  8
0
 62
     0
 10
4.86806
 20
1.14583
 30
0.0
 11
5.06467
 21
1.26172
 31
0.0
  0
LINE
  8
0
 62
     0
 10
5.06467
 20
1.26172
 30
0.0
 11
5.24479
 21
1.3941
 31
0.0
  0
LINE
  8
0
 62
     0
 10
5.24479
 20
1.3941
 30
0.0
 11
5.40842
 21
1.54297
 31
0.0
  0
LINE
  8
0
 62
     0
 10
5.40842
 20
1.54297
 30
0.0
 11
5.55556
 21
1.70833
 31
0.0
  0
LINE
  8
0
 62
     0
 10
5.55556
 20
1.70833
 30
0.0
 11
5.80376
 21
2.07992
 31
0.0
  0
LINE
  8
0
 62
     0
 10
5.80376
 20
2.07992
 30
0.0
 11
5.99306
 21
2.5
 31
0.0
  0
LINE
  8
0
 62
     0
 10
5.99306
 20
2.5
 30
0.0
 11
6.13542
 21
2.94618
 31
0.0
  0
LINE
  8
0
 62
     0
 10
6.13542
 20
2.94618
 30
0.0
 11
6.24306
 21
3.39583
 31
0.0
  0
LINE
  8
0
 62
     0
 10
6.24306
 20
3.39583
 30
0.0
 11
6.31776
 21
3.84033
 31
0.0
  0
LINE
  8
0
 62
     0
 10
6.31776
 20
3.84033
 30
0.0
 11
6.36111
 21
4.27083
 31
0.0
  0
LINE
  8
0
 62
     0
 10
6.36111
 20
4.27083
 30
0.0
 11
6.38189
 21
4.66846
 31
0.0
  0
LINE
  8
0
 62
     0
 10
6.38189
 20
4.66846
 30
0.0
 11
6.38889
 21
5.01389
 31
0.0
  0
LINE
  8
0
 62
     0
 10
6.38889
 20
5.01389
 30
0.0
 11
6.38542
 21
5.2405
 31
0.0
  0
LINE
  8
0
 62
     0
 10
6.38542
 20
5.2405
 30
0.0
 11
6.375
 21
5.48964
 31
0.0
  0
LINE
  8
0
 62
     0
 10
6.375
 20
5.48964
 30
0.0
 11
6.35764
 21
5.76133
 31
0.0
  0
LINE
  8
0
 62
     0
 10
6.35764
 20
5.76133
 30
0.0
 11
6.33333
 21
6.05556
 31
0.0
  0
LINE
  8
0
 62
     0
 10
6.33333
 20
6.05556
 30
0.0
 11
6.243
 21
6.67014
 31
0.0
  0
LINE
  8
0
 62
     0
 10
6.243
 20
6.67014
 30
0.0
 11
6.08333
 21
7.29167
 31
0.0
  0
LINE
  8
0
 62
     0
 10
6.08333
 20
7.29167
 30
0.0
 11
2.22222
 21
1.80556
 31
0.0
  0
LINE
  8
0
 62
     0
 10
2.22222
 20
1.80556
 30
0.0
 11
2.18056
 21
1.80556
 31
0.0
  0
LINE
  8
0
 62
     0
 10
2.18056
 20
1.80556
 30
0.0
 11
2.32721
 21
1.61464
 31
0.0
  0
LINE
  8
0
 62
     0
 10
2.32721
 20
1.61464
 30
0.0
 11
2.48958
 21
1.44444
 31
0.0
  0
LINE
  8
0
 62
     0
 10
2.48958
 20
1.44444
 30
0.0
 11
2.66753
 21
1.29514
 31
0.0
  0
LINE
  8
0
 62
     0
 10
2.66753
 20
1.29514
 30
0.0
 11
2.86111
 21
1.16667
 31
0.0
  0
LINE
  8
0
 62
     0
 10
2.86111
 20
1.16667
 30
0.0
 11
3.07633
 21
1.06342
 31
0.0
  0
LINE
  8
0
 62
     0
 10
3.07633
 20
1.06342
 30
0.0
 11
3.31939
 21
0.989637
 31
0.0
  0
LINE
  8
0
 62
     0
 10
3.31939
 20
0.989637
 30
0.0
 11
3.59022
 21
0.945367
 31
0.0
  0
LINE
  8
0
 62
     0
 10
3.59022
 20
0.945367
 30
0.0
 11
3.88889
 21
0.930556
 31
0.0
  0
LINE
  8
0
 62
     0
 10
1.41667
 20
5.04167
 30
0.0
 11
1.42008
 21
4.80035
 31
0.0
  0
LINE
  8
0
 62
     0
 10
1.42008
 20
4.80035
 30
0.0
 11
1.4305
 21
4.53472
 31
0.0
  0
LINE
  8
0
 62
     0
 10
1.4305
 20
4.53472
 30
0.0
 11
1.44786
 21
4.24479
 31
0.0
  0
LINE
  8
0
 62
     0
 10
1.44786
 20
4.24479
 30
0.0
 11
1.47222
 21
3.93056
 31
0.0
  0
LINE
  8
0
 62
     0
 10
1.47222
 20
3.93056
 30
0.0
 11
1.56944
 21
3.28478
 31
0.0
  0
LINE
  8
0
 62
     0
 10
1.56944
 20
3.28478
 30
0.0
 11
1.75
 21
2.65278
 31
0.0
  0
LINE
  8
0
 62
     0
 10
1.75
 20
2.65278
 30
0.0
 11
5.65278
 21
8.23611
 31
0.0
  0
LINE
  8
0
 62
     0
 10
5.65278
 20
8.23611
 30
0.0
 11
5.50521
 21
8.43489
 31
0.0
  0
LINE
  8
0
 62
     0
 10
5.50521
 20
8.43489
 30
0.0
 11
5.34028
 21
8.61458
 31
0.0
  0
LINE
  8
0
 62
     0
 10
5.34028
 20
8.61458
 30
0.0
 11
5.15799
 21
8.77517
 31
0.0
  0
LINE
  8
0
 62
     0
 10
5.15799
 20
8.77517
 30
0.0
 11
4.95833
 21
8.91667
 31
0.0
  0
LINE
  8
0
 62
     0
 10
4.95833
 20
8.91667
 30
0.0
 11
4.73697
 21
9.03217
 31
0.0
  0
LINE
  8
0
 62
     0
 10
4.73697
 20
9.03217
 30
0.0
 11
4.48958
 21
9.11464
 31
0.0
  0
LINE
  8
0
 62
     0
 10
4.48958
 20
9.11464
 30
0.0
 11
4.21614
 21
9.16411
 31
0.0
  0
LINE
  8
0
 62
     0
 10
4.21614
 20
9.16411
 30
0.0
 11
3.91667
 21
9.18056
 31
0.0
  0
LINE
  8
0
 62
     0
 10
3.91667
 20
9.18056
 30
0.0
 11
3.64236
 21
9.16672
 31
0.0
  0
LINE
  8
0
 62
     0
 10
3.64236
 20
9.16672
 30
0.0
 11
3.38889
 21
9.12506
 31
0.0
  0
LINE
  8
0
 62
     0
 10
3.38889
 20
9.12506
 30
0.0
 11
3.15619
 21
9.05561
 31
0.0
  0
LINE
  8
0
 62
     0
 10
3.15619
 20
9.05561
 30
0.0
 11
2.94444
 21
8.95833
 31
0.0
  0
LINE
  8
0
 62
     0
 10
2.94444
 20
8.95833
 30
0.0
 11
2.75082
 21
8.83897
 31
0.0
  0
LINE
  8
0
 62
     0
 10
2.75082
 20
8.83897
 30
0.0
 11
2.57286
 21
8.70313
 31
0.0
  0
LINE
  8
0
 62
     0
 10
2.57286
 20
8.70313
 30
0.0
 11
2.41054
 21
8.55078
 31
0.0
  0
LINE
  8
0
 62
     0
 10
2.41054
 20
8.55078
 30
0.0
 11
2.26389
 21
8.38194
 31
0.0
  0
LINE
  8
0
 62
     0
 10
2.26389
 20
8.38194
 30
0.0
 11
2.01389
 21
8.00353
 31
0.0
  0
LINE
  8
0
 62
     0
 10
2.01389
 20
8.00353
 30
0.0
 11
1.81944
 21
7.57639
 31
0.0
  0
LINE
  8
0
 62
     0
 10
1.81944
 20
7.57639
 30
0.0
 11
1.67182
 21
7.12326
 31
0.0
  0
LINE
  8
0
 62
     0
 10
1.67182
 20
7.12326
 30
0.0
 11
1.5625
 21
6.66667
 31
0.0
  0
LINE
  8
0
 62
     0
 10
1.5625
 20
6.66667
 30
0.0
 11
1.48785
 21
6.21533
 31
0.0
  0
LINE
  8
0
 62
     0
 10
1.48785
 20
6.21533
 30
0.0
 11
1.44444
 21
5.77778
 31
0.0
  0
LINE
  8
0
 62
     0
 10
1.44444
 20
5.77778
 30
0.0
 11
1.42361
 21
5.37847
 31
0.0
  0
LINE
  8
0
 62
     0
 10
1.42361
 20
5.37847
 30
0.0
 11
1.41667
 21
5.04167
 31
0.0
  0
LINE
  8
0
 62
     0
 10
3.88889
 20
10.2083
 30
0.0
 11
4.33854
 21
10.1823
 31
0.0
  0
LINE
  8
0
 62
     0
 10
4.33854
 20
10.1823
 30
0.0
 11
4.75694
 21
10.1042
 31
0.0
  0
LINE
  8
0
 62
     0
 10
4.75694
 20
10.1042
 30
0.0
 11
5.14404
 21
9.97396
 31
0.0
  0
LINE
  8
0
 62
     0
 10
5.14404
 20
9.97396
 30
0.0
 11
5.5
 21
9.79167
 31
0.0
  0
LINE
  8
0
 62
     0
 10
5.5
 20
9.79167
 30
0.0
 11
5.82508
 21
9.56511
 31
0.0
  0
LINE
  8
0
 62
     0
 10
5.82508
 20
9.56511
 30
0.0
 11
6.11979
 21
9.30208
 31
0.0
  0
LINE
  8
0
 62
     0
 10
6.11979
 20
9.30208
 30
0.0
 11
6.38411
 21
9.00261
 31
0.0
  0
LINE
  8
0
 62
     0
 10
6.38411
 20
9.00261
 30
0.0
 11
6.61806
 21
8.66667
 31
0.0
  0
LINE
  8
0
 62
     0
 10
6.61806
 20
8.66667
 30
0.0
 11
6.82249
 21
8.29775
 31
0.0
  0
LINE
  8
0
 62
     0
 10
6.82249
 20
8.29775
 30
0.0
 11
6.99826
 21
7.89931
 31
0.0
  0
LINE
  8
0
 62
     0
 10
6.99826
 20
7.89931
 30
0.0
 11
7.1454
 21
7.47136
 31
0.0
  0
LINE
  8
0
 62
     0
 10
7.1454
 20
7.47136
 30
0.0
 11
7.26389
 21
7.01389
 31
0.0
  0
LINE
  8
0
 62
     0
 10
7.26389
 20
7.01389
 30
0.0
 11
7.35503
 21
6.53478
 31
0.0
  0
LINE
  8
0
 62
     0
 10
7.35503
 20
6.53478
 30
0.0
 11
7.42014
 21
6.04172
 31
0.0
  0
LINE
  8
0
 62
     0
 10
7.42014
 20
6.04172
 30
0.0
 11
7.45919
 21
5.53478
 31
0.0
  0
LINE
  8
0
 62
     0
 10
7.45919
 20
5.53478
 30
0.0
 11
7.47222
 21
5.01389
 31
0.0
  0
LINE
  8
0
 62
     0
 10
7.47222
 20
5.01389
 30
0.0
 11
7.45919
 21
4.4879
 31
0.0
  0
LINE
  8
0
 62
     0
 10
7.45919
 20
4.4879
 30
0.0
 11
7.42014
 21
3.97922
 31
0.0
  0
LINE
  8
0
 62
     0
 10
7.42014
 20
3.97922
 30
0.0
 11
7.35503
 21
3.4879
 31
0.0
  0
LINE
  8
0
 62
     0
 10
7.35503
 20
3.4879
 30
0.0
 11
7.26389
 21
3.01389
 31
0.0
  0
LINE
  8
0
 62
     0
 10
7.26389
 20
3.01389
 30
0.0
 11
7.1454
 21
2.56381
 31
0.0
  0
LINE
  8
0
 62
     0
 10
7.1454
 20
2.56381
 30
0.0
 11
6.99826
 21
2.1441
 31
0.0
  0
LINE
  8
0
 62
     0
 10
6.99826
 20
2.1441
 30
0.0
 11
6.82249
 21
1.75478
 31
0.0
  0
LINE
  8
0
 62
     0
 10
6.82249
 20
1.75478
 30
0.0
 11
6.61806
 21
1.39583
 31
0.0
  0
LINE
  8
0
 62
     0
 10
6.61806
 20
1.39583
 30
0.0
 11
6.38411
 21
1.06988
 31
0.0
  0
LINE
  8
0
 62
     0
 10
6.38411
 20
1.06988
 30
0.0
 11
6.11979
 21
0.779514
 31
0.0
  0
LINE
  8
0
 62
     0
 10
6.11979
 20
0.779514
 30
0.0
 11
5.82508
 21
0.524739
 31
0.0
  0
LINE
  8
0
 62
     0
 10
5.82508
 20
0.524739
 30
0.0
 11
5.5
 21
0.305556
 31
0.0
  0
LINE
  8
0
 62
     0
 10
5.5
 20
0.305556
 30
0.0
 11
5.14404
 21
0.129395
 31
0.0
  0
LINE
  8
0
 62
     0
 10
5.14404
 20
0.129395
 30
0.0
 11
4.75689
 21
0.00352647
 31
0.0
  0
LINE
  8
0
 62
     0
 10
4.75689
 20
0.00352647
 30
0.0
 11
4.33849
 21
-0.0719943
 31
0.0
  0
LINE
  8
0
 62
     0
 10
4.33849
 20
-0.0719943
 30
0.0
 11
3.88889
 21
-0.0972222
 31
0.0
  0
LINE
  8
0
 62
     0
 10
3.88889
 20
-0.0972222
 30
0.0
 11
3.4336
 21
-0.0719943
 31
0.0
  0
LINE
  8
0
 62
     0
 10
3.4336
 20
-0.0719943
 30
0.0
 11
3.01215
 21
0.00352647
 31
0.0
  0
LINE
  8
0
 62
     0
 10
3.01215
 20
0.00352647
 30
0.0
 11
2.62451
 21
0.129395
 31
0.0
  0
LINE
  8
0
 62
     0
 10
2.62451
 20
0.129395
 30
0.0
 11
2.27083
 21
0.305556
 31
0.0
  0
LINE
  8
0
 62
     0
 10
2.27083
 20
0.305556
 30
0.0
 11
1.94922
 21
0.525174
 31
0.0
  0
LINE
  8
0
 62
     0
 10
1.94922
 20
0.525174
 30
0.0
 11
1.65799
 21
0.78125
 31
0.0
  0
LINE
  8
0
 62
     0
 10
1.65799
 20
0.78125
 30
0.0
 11
1.39714
 21
1.07384
 31
0.0
  0
LINE
  8
0
 62
     0
 10
1.39714
 20
1.07384
 30
0.0
 11
1.16667
 21
1.40278
 31
0.0
  0
LINE
  8
0
 62
     0
 10
1.16667
 20
1.40278
 30
0.0
 11
0.965224
 21
1.76519
 31
0.0
  0
LINE
  8
0
 62
     0
 10
0.965224
 20
1.76519
 30
0.0
 11
0.791613
 21
2.15799
 31
0.0
  0
LINE
  8
0
 62
     0
 10
0.791613
 20
2.15799
 30
0.0
 11
0.645779
 21
2.58117
 31
0.0
  0
LINE
  8
0
 62
     0
 10
0.645779
 20
2.58117
 30
0.0
 11
0.527778
 21
3.03472
 31
0.0
  0
LINE
  8
0
 62
     0
 10
0.527778
 20
3.03472
 30
0.0
 11
0.436632
 21
3.51178
 31
0.0
  0
LINE
  8
0
 62
     0
 10
0.436632
 20
3.51178
 30
0.0
 11
0.371528
 21
4.00526
 31
0.0
  0
LINE
  8
0
 62
     0
 10
0.371528
 20
4.00526
 30
0.0
 11
0.332465
 21
4.51525
 31
0.0
  0
LINE
  8
0
 62
     0
 10
0.332465
 20
4.51525
 30
0.0
 11
0.319444
 21
5.04167
 31
0.0
  0
LINE
  8
0
 62
     0
 10
0.319444
 20
5.04167
 30
0.0
 11
0.332465
 21
5.56212
 31
0.0
  0
LINE
  8
0
 62
     0
 10
0.332465
 20
5.56212
 30
0.0
 11
0.371528
 21
6.06776
 31
0.0
  0
LINE
  8
0
 62
     0
 10
0.371528
 20
6.06776
 30
0.0
 11
0.436632
 21
6.55865
 31
0.0
  0
LINE
  8
0
 62
     0
 10
0.436632
 20
6.55865
 30
0.0
 11
0.527778
 21
7.03472
 31
0.0
  0
LINE
  8
0
 62
     0
 10
0.527778
 20
7.03472
 30
0.0
 11
0.645779
 21
7.48915
 31
0.0
  0
LINE
  8
0
 62
     0
 10
0.645779
 20
7.48915
 30
0.0
 11
0.791613
 21
7.91493
 31
0.0
  0
LINE
  8
0
 62
     0
 10
0.791613
 20
7.91493
 30
0.0
 11
0.965224
 21
8.31207
 31
0.0
  0
LINE
  8
0
 62
     0
 10
0.965224
 20
8.31207
 30
0.0
 11
1.16667
 21
8.68056
 31
0.0
  0
LINE
  8
0
 62
     0
 10
1.16667
 20
8.68056
 30
0.0
 11
1.39714
 21
9.01606
 31
0.0
  0
LINE
  8
0
 62
     0
 10
1.39714
 20
9.01606
 30
0.0
 11
1.65799
 21
9.31424
 31
0.0
  0
LINE
  8
0
 62
     0
 10
1.65799
 20
9.31424
 30
0.0
 11
1.94922
 21
9.57508
 31
0.0
  0
LINE
  8
0
 62
     0
 10
1.94922
 20
9.57508
 30
0.0
 11
2.27083
 21
9.79861
 31
0.0
  0
LINE
  8
0
 62
     0
 10
2.27083
 20
9.79861
 30
0.0
 11
2.62451
 21
9.97792
 31
0.0
  0
LINE
  8
0
 62
     0
 10
2.62451
 20
9.97792
 30
0.0
 11
3.01215
 21
10.106
 31
0.0
  0
LINE
  8
0
 62
     0
 10
3.01215
 20
10.106
 30
0.0
 11
3.4336
 21
10.1828
 31
0.0
  0
LINE
  8
0
 62
     0
 10
3.4336
 20
10.1828
 30
0.0
 11
3.88889
 21
10.2083
 31
0.0
  0
ENDSEC
  0
EOF
