  0
SECTION
  2
BLOCKS
  0
ENDSEC
  0
SECTION
  2
ENTITIES
  0
LINE
  8
0
 10
0
 11
0
 20
0
 21
55.563
  0
LINE
  8
0
 10
0
 11
40
 20
55.563
 21
55.563
  0
LINE
  8
0
 10
40
 11
40
 20
55.563
 21
0
  0
LINE
  8
0
 10
40
 11
0
 20
0
 21
0
  0
LINE
  8
0
 10
1.619
 11
1.619
 20
3.668
 21
4.27
  0
LINE
  8
0
 10
1.619
 11
1.769
 20
4.27
 21
4.852
  0
LINE
  8
0
 10
1.769
 11
2.058
 20
4.852
 21
5.38
  0
LINE
  8
0
 10
2.058
 11
2.47
 20
5.38
 21
5.818
  0
LINE
  8
0
 10
2.47
 11
2.978
 20
5.818
 21
6.141
  0
LINE
  8
0
 10
2.978
 11
3.55
 20
6.141
 21
6.326
  0
LINE
  8
0
 10
3.55
 11
4.151
 20
6.326
 21
6.364
  0
LINE
  8
0
 10
4.151
 11
4.742
 20
6.364
 21
6.252
  0
LINE
  8
0
 10
4.742
 11
5.286
 20
6.252
 21
5.995
  0
LINE
  8
0
 10
5.286
 11
5.75
 20
5.995
 21
5.612
  0
LINE
  8
0
 10
5.75
 11
6.103
 20
5.612
 21
5.125
  0
LINE
  8
0
 10
6.103
 11
6.325
 20
5.125
 21
4.566
  0
LINE
  8
0
 10
6.325
 11
6.4
 20
4.566
 21
3.969
  0
LINE
  8
0
 10
6.4
 11
6.325
 20
3.969
 21
3.372
  0
LINE
  8
0
 10
6.325
 11
6.103
 20
3.372
 21
2.813
  0
LINE
  8
0
 10
6.103
 11
5.75
 20
2.813
 21
2.326
  0
LINE
  8
0
 10
5.75
 11
5.286
 20
2.326
 21
1.943
  0
LINE
  8
0
 10
5.286
 11
4.742
 20
1.943
 21
1.686
  0
LINE
  8
0
 10
4.742
 11
4.151
 20
1.686
 21
1.574
  0
LINE
  8
0
 10
4.151
 11
3.55
 20
1.574
 21
1.612
  0
LINE
  8
0
 10
3.55
 11
2.978
 20
1.612
 21
1.797
  0
LINE
  8
0
 10
2.978
 11
2.47
 20
1.797
 21
2.12
  0
LINE
  8
0
 10
2.47
 11
2.058
 20
2.12
 21
2.558
  0
LINE
  8
0
 10
2.058
 11
1.769
 20
2.558
 21
3.086
  0
LINE
  8
0
 10
1.769
 11
1.619
 20
3.086
 21
3.668
  0
LINE
  8
0
 10
1.619
 11
1.619
 20
51.293
 21
51.895
  0
LINE
  8
0
 10
1.619
 11
1.769
 20
51.895
 21
52.477
  0
LINE
  8
0
 10
1.769
 11
2.058
 20
52.477
 21
53.005
  0
LINE
  8
0
 10
2.058
 11
2.47
 20
53.005
 21
53.443
  0
LINE
  8
0
 10
2.47
 11
2.978
 20
53.443
 21
53.766
  0
LINE
  8
0
 10
2.978
 11
3.55
 20
53.766
 21
53.951
  0
LINE
  8
0
 10
3.55
 11
4.151
 20
53.951
 21
53.989
  0
LINE
  8
0
 10
4.151
 11
4.742
 20
53.989
 21
53.877
  0
LINE
  8
0
 10
4.742
 11
5.286
 20
53.877
 21
53.62
  0
LINE
  8
0
 10
5.286
 11
5.75
 20
53.62
 21
53.237
  0
LINE
  8
0
 10
5.75
 11
6.103
 20
53.237
 21
52.75
  0
LINE
  8
0
 10
6.103
 11
6.325
 20
52.75
 21
52.191
  0
LINE
  8
0
 10
6.325
 11
6.4
 20
52.191
 21
51.594
  0
LINE
  8
0
 10
6.4
 11
6.325
 20
51.594
 21
50.997
  0
LINE
  8
0
 10
6.325
 11
6.103
 20
50.997
 21
50.438
  0
LINE
  8
0
 10
6.103
 11
5.75
 20
50.438
 21
49.951
  0
LINE
  8
0
 10
5.75
 11
5.286
 20
49.951
 21
49.568
  0
LINE
  8
0
 10
5.286
 11
4.742
 20
49.568
 21
49.311
  0
LINE
  8
0
 10
4.742
 11
4.151
 20
49.311
 21
49.199
  0
LINE
  8
0
 10
4.151
 11
3.55
 20
49.199
 21
49.237
  0
LINE
  8
0
 10
3.55
 11
2.978
 20
49.237
 21
49.422
  0
LINE
  8
0
 10
2.978
 11
2.47
 20
49.422
 21
49.745
  0
LINE
  8
0
 10
2.47
 11
2.058
 20
49.745
 21
50.183
  0
LINE
  8
0
 10
2.058
 11
1.769
 20
50.183
 21
50.711
  0
LINE
  8
0
 10
1.769
 11
1.619
 20
50.711
 21
51.293
  0
LINE
  8
0
 10
2.756
 11
3.631
 20
12.506
 21
14.022
  0
LINE
  8
0
 10
3.631
 11
5.381
 20
14.022
 21
14.022
  0
LINE
  8
0
 10
5.381
 11
6.256
 20
14.022
 21
12.506
  0
LINE
  8
0
 10
6.256
 11
5.381
 20
12.506
 21
10.99
  0
LINE
  8
0
 10
5.381
 11
3.631
 20
10.99
 21
10.99
  0
LINE
  8
0
 10
3.631
 11
2.756
 20
10.99
 21
12.506
  0
LINE
  8
0
 10
2.756
 11
3.631
 20
43.494
 21
45.01
  0
LINE
  8
0
 10
3.631
 11
5.381
 20
45.01
 21
45.01
  0
LINE
  8
0
 10
5.381
 11
6.256
 20
45.01
 21
43.494
  0
LINE
  8
0
 10
6.256
 11
5.381
 20
43.494
 21
41.978
  0
LINE
  8
0
 10
5.381
 11
3.631
 20
41.978
 21
41.978
  0
LINE
  8
0
 10
3.631
 11
2.756
 20
41.978
 21
43.494
  0
LINE
  8
0
 10
9.002
 11
9.242
 20
28
 21
30.287
  0
LINE
  8
0
 10
9.242
 11
9.953
 20
30.287
 21
32.473
  0
LINE
  8
0
 10
9.953
 11
11.102
 20
32.473
 21
34.465
  0
LINE
  8
0
 10
11.102
 11
12.641
 20
34.465
 21
36.173
  0
LINE
  8
0
 10
12.641
 11
14.501
 20
36.173
 21
37.525
  0
LINE
  8
0
 10
14.501
 11
16.601
 20
37.525
 21
38.46
  0
LINE
  8
0
 10
16.601
 11
18.85
 20
38.46
 21
38.938
  0
LINE
  8
0
 10
18.85
 11
21.15
 20
38.938
 21
38.938
  0
LINE
  8
0
 10
21.15
 11
23.399
 20
38.938
 21
38.46
  0
LINE
  8
0
 10
23.399
 11
25.499
 20
38.46
 21
37.525
  0
LINE
  8
0
 10
25.499
 11
27.359
 20
37.525
 21
36.173
  0
LINE
  8
0
 10
27.359
 11
28.898
 20
36.173
 21
34.465
  0
LINE
  8
0
 10
28.898
 11
30.047
 20
34.465
 21
32.473
  0
LINE
  8
0
 10
30.047
 11
30.758
 20
32.473
 21
30.287
  0
LINE
  8
0
 10
30.758
 11
30.998
 20
30.287
 21
28
  0
LINE
  8
0
 10
30.998
 11
30.758
 20
28
 21
25.713
  0
LINE
  8
0
 10
30.758
 11
30.047
 20
25.713
 21
23.527
  0
LINE
  8
0
 10
30.047
 11
28.898
 20
23.527
 21
21.535
  0
LINE
  8
0
 10
28.898
 11
27.359
 20
21.535
 21
19.827
  0
LINE
  8
0
 10
27.359
 11
25.499
 20
19.827
 21
18.475
  0
LINE
  8
0
 10
25.499
 11
23.399
 20
18.475
 21
17.54
  0
LINE
  8
0
 10
23.399
 11
21.15
 20
17.54
 21
17.062
  0
LINE
  8
0
 10
21.15
 11
18.85
 20
17.062
 21
17.062
  0
LINE
  8
0
 10
18.85
 11
16.601
 20
17.062
 21
17.54
  0
LINE
  8
0
 10
16.601
 11
14.501
 20
17.54
 21
18.475
  0
LINE
  8
0
 10
14.501
 11
12.641
 20
18.475
 21
19.827
  0
LINE
  8
0
 10
12.641
 11
11.102
 20
19.827
 21
21.535
  0
LINE
  8
0
 10
11.102
 11
9.953
 20
21.535
 21
23.527
  0
LINE
  8
0
 10
9.953
 11
9.242
 20
23.527
 21
25.713
  0
LINE
  8
0
 10
9.242
 11
9.002
 20
25.713
 21
28
  0
LINE
  8
0
 10
9.619
 11
9.619
 20
3.668
 21
4.27
  0
LINE
  8
0
 10
9.619
 11
9.769
 20
4.27
 21
4.852
  0
LINE
  8
0
 10
9.769
 11
10.058
 20
4.852
 21
5.38
  0
LINE
  8
0
 10
10.058
 11
10.47
 20
5.38
 21
5.818
  0
LINE
  8
0
 10
10.47
 11
10.978
 20
5.818
 21
6.141
  0
LINE
  8
0
 10
10.978
 11
11.55
 20
6.141
 21
6.326
  0
LINE
  8
0
 10
11.55
 11
12.151
 20
6.326
 21
6.364
  0
LINE
  8
0
 10
12.151
 11
12.742
 20
6.364
 21
6.252
  0
LINE
  8
0
 10
12.742
 11
13.286
 20
6.252
 21
5.995
  0
LINE
  8
0
 10
13.286
 11
13.75
 20
5.995
 21
5.612
  0
LINE
  8
0
 10
13.75
 11
14.103
 20
5.612
 21
5.125
  0
LINE
  8
0
 10
14.103
 11
14.325
 20
5.125
 21
4.566
  0
LINE
  8
0
 10
14.325
 11
14.4
 20
4.566
 21
3.969
  0
LINE
  8
0
 10
14.4
 11
14.325
 20
3.969
 21
3.372
  0
LINE
  8
0
 10
14.325
 11
14.103
 20
3.372
 21
2.813
  0
LINE
  8
0
 10
14.103
 11
13.75
 20
2.813
 21
2.326
  0
LINE
  8
0
 10
13.75
 11
13.286
 20
2.326
 21
1.943
  0
LINE
  8
0
 10
13.286
 11
12.742
 20
1.943
 21
1.686
  0
LINE
  8
0
 10
12.742
 11
12.151
 20
1.686
 21
1.574
  0
LINE
  8
0
 10
12.151
 11
11.55
 20
1.574
 21
1.612
  0
LINE
  8
0
 10
11.55
 11
10.978
 20
1.612
 21
1.797
  0
LINE
  8
0
 10
10.978
 11
10.47
 20
1.797
 21
2.12
  0
LINE
  8
0
 10
10.47
 11
10.058
 20
2.12
 21
2.558
  0
LINE
  8
0
 10
10.058
 11
9.769
 20
2.558
 21
3.086
  0
LINE
  8
0
 10
9.769
 11
9.619
 20
3.086
 21
3.668
  0
LINE
  8
0
 10
9.619
 11
9.619
 20
51.293
 21
51.895
  0
LINE
  8
0
 10
9.619
 11
9.769
 20
51.895
 21
52.477
  0
LINE
  8
0
 10
9.769
 11
10.058
 20
52.477
 21
53.005
  0
LINE
  8
0
 10
10.058
 11
10.47
 20
53.005
 21
53.443
  0
LINE
  8
0
 10
10.47
 11
10.978
 20
53.443
 21
53.766
  0
LINE
  8
0
 10
10.978
 11
11.55
 20
53.766
 21
53.951
  0
LINE
  8
0
 10
11.55
 11
12.151
 20
53.951
 21
53.989
  0
LINE
  8
0
 10
12.151
 11
12.742
 20
53.989
 21
53.877
  0
LINE
  8
0
 10
12.742
 11
13.286
 20
53.877
 21
53.62
  0
LINE
  8
0
 10
13.286
 11
13.75
 20
53.62
 21
53.237
  0
LINE
  8
0
 10
13.75
 11
14.103
 20
53.237
 21
52.75
  0
LINE
  8
0
 10
14.103
 11
14.325
 20
52.75
 21
52.191
  0
LINE
  8
0
 10
14.325
 11
14.4
 20
52.191
 21
51.594
  0
LINE
  8
0
 10
14.4
 11
14.325
 20
51.594
 21
50.997
  0
LINE
  8
0
 10
14.325
 11
14.103
 20
50.997
 21
50.438
  0
LINE
  8
0
 10
14.103
 11
13.75
 20
50.438
 21
49.951
  0
LINE
  8
0
 10
13.75
 11
13.286
 20
49.951
 21
49.568
  0
LINE
  8
0
 10
13.286
 11
12.742
 20
49.568
 21
49.311
  0
LINE
  8
0
 10
12.742
 11
12.151
 20
49.311
 21
49.199
  0
LINE
  8
0
 10
12.151
 11
11.55
 20
49.199
 21
49.237
  0
LINE
  8
0
 10
11.55
 11
10.978
 20
49.237
 21
49.422
  0
LINE
  8
0
 10
10.978
 11
10.47
 20
49.422
 21
49.745
  0
LINE
  8
0
 10
10.47
 11
10.058
 20
49.745
 21
50.183
  0
LINE
  8
0
 10
10.058
 11
9.769
 20
50.183
 21
50.711
  0
LINE
  8
0
 10
9.769
 11
9.619
 20
50.711
 21
51.293
  0
LINE
  8
0
 10
17.619
 11
17.619
 20
3.668
 21
4.27
  0
LINE
  8
0
 10
17.619
 11
17.769
 20
4.27
 21
4.852
  0
LINE
  8
0
 10
17.769
 11
18.058
 20
4.852
 21
5.38
  0
LINE
  8
0
 10
18.058
 11
18.47
 20
5.38
 21
5.818
  0
LINE
  8
0
 10
18.47
 11
18.978
 20
5.818
 21
6.141
  0
LINE
  8
0
 10
18.978
 11
19.55
 20
6.141
 21
6.326
  0
LINE
  8
0
 10
19.55
 11
20.151
 20
6.326
 21
6.364
  0
LINE
  8
0
 10
20.151
 11
20.742
 20
6.364
 21
6.252
  0
LINE
  8
0
 10
20.742
 11
21.286
 20
6.252
 21
5.995
  0
LINE
  8
0
 10
21.286
 11
21.75
 20
5.995
 21
5.612
  0
LINE
  8
0
 10
21.75
 11
22.103
 20
5.612
 21
5.125
  0
LINE
  8
0
 10
22.103
 11
22.325
 20
5.125
 21
4.566
  0
LINE
  8
0
 10
22.325
 11
22.4
 20
4.566
 21
3.969
  0
LINE
  8
0
 10
22.4
 11
22.325
 20
3.969
 21
3.372
  0
LINE
  8
0
 10
22.325
 11
22.103
 20
3.372
 21
2.813
  0
LINE
  8
0
 10
22.103
 11
21.75
 20
2.813
 21
2.326
  0
LINE
  8
0
 10
21.75
 11
21.286
 20
2.326
 21
1.943
  0
LINE
  8
0
 10
21.286
 11
20.742
 20
1.943
 21
1.686
  0
LINE
  8
0
 10
20.742
 11
20.151
 20
1.686
 21
1.574
  0
LINE
  8
0
 10
20.151
 11
19.55
 20
1.574
 21
1.612
  0
LINE
  8
0
 10
19.55
 11
18.978
 20
1.612
 21
1.797
  0
LINE
  8
0
 10
18.978
 11
18.47
 20
1.797
 21
2.12
  0
LINE
  8
0
 10
18.47
 11
18.058
 20
2.12
 21
2.558
  0
LINE
  8
0
 10
18.058
 11
17.769
 20
2.558
 21
3.086
  0
LINE
  8
0
 10
17.769
 11
17.619
 20
3.086
 21
3.668
  0
LINE
  8
0
 10
17.619
 11
17.619
 20
51.293
 21
51.895
  0
LINE
  8
0
 10
17.619
 11
17.769
 20
51.895
 21
52.477
  0
LINE
  8
0
 10
17.769
 11
18.058
 20
52.477
 21
53.005
  0
LINE
  8
0
 10
18.058
 11
18.47
 20
53.005
 21
53.443
  0
LINE
  8
0
 10
18.47
 11
18.978
 20
53.443
 21
53.766
  0
LINE
  8
0
 10
18.978
 11
19.55
 20
53.766
 21
53.951
  0
LINE
  8
0
 10
19.55
 11
20.151
 20
53.951
 21
53.989
  0
LINE
  8
0
 10
20.151
 11
20.742
 20
53.989
 21
53.877
  0
LINE
  8
0
 10
20.742
 11
21.286
 20
53.877
 21
53.62
  0
LINE
  8
0
 10
21.286
 11
21.75
 20
53.62
 21
53.237
  0
LINE
  8
0
 10
21.75
 11
22.103
 20
53.237
 21
52.75
  0
LINE
  8
0
 10
22.103
 11
22.325
 20
52.75
 21
52.191
  0
LINE
  8
0
 10
22.325
 11
22.4
 20
52.191
 21
51.594
  0
LINE
  8
0
 10
22.4
 11
22.325
 20
51.594
 21
50.997
  0
LINE
  8
0
 10
22.325
 11
22.103
 20
50.997
 21
50.438
  0
LINE
  8
0
 10
22.103
 11
21.75
 20
50.438
 21
49.951
  0
LINE
  8
0
 10
21.75
 11
21.286
 20
49.951
 21
49.568
  0
LINE
  8
0
 10
21.286
 11
20.742
 20
49.568
 21
49.311
  0
LINE
  8
0
 10
20.742
 11
20.151
 20
49.311
 21
49.199
  0
LINE
  8
0
 10
20.151
 11
19.55
 20
49.199
 21
49.237
  0
LINE
  8
0
 10
19.55
 11
18.978
 20
49.237
 21
49.422
  0
LINE
  8
0
 10
18.978
 11
18.47
 20
49.422
 21
49.745
  0
LINE
  8
0
 10
18.47
 11
18.058
 20
49.745
 21
50.183
  0
LINE
  8
0
 10
18.058
 11
17.769
 20
50.183
 21
50.711
  0
LINE
  8
0
 10
17.769
 11
17.619
 20
50.711
 21
51.293
  0
LINE
  8
0
 10
25.619
 11
25.619
 20
3.668
 21
4.27
  0
LINE
  8
0
 10
25.619
 11
25.769
 20
4.27
 21
4.852
  0
LINE
  8
0
 10
25.769
 11
26.058
 20
4.852
 21
5.38
  0
LINE
  8
0
 10
26.058
 11
26.47
 20
5.38
 21
5.818
  0
LINE
  8
0
 10
26.47
 11
26.978
 20
5.818
 21
6.141
  0
LINE
  8
0
 10
26.978
 11
27.55
 20
6.141
 21
6.326
  0
LINE
  8
0
 10
27.55
 11
28.151
 20
6.326
 21
6.364
  0
LINE
  8
0
 10
28.151
 11
28.742
 20
6.364
 21
6.252
  0
LINE
  8
0
 10
28.742
 11
29.286
 20
6.252
 21
5.995
  0
LINE
  8
0
 10
29.286
 11
29.75
 20
5.995
 21
5.612
  0
LINE
  8
0
 10
29.75
 11
30.103
 20
5.612
 21
5.125
  0
LINE
  8
0
 10
30.103
 11
30.325
 20
5.125
 21
4.566
  0
LINE
  8
0
 10
30.325
 11
30.4
 20
4.566
 21
3.969
  0
LINE
  8
0
 10
30.4
 11
30.325
 20
3.969
 21
3.372
  0
LINE
  8
0
 10
30.325
 11
30.103
 20
3.372
 21
2.813
  0
LINE
  8
0
 10
30.103
 11
29.75
 20
2.813
 21
2.326
  0
LINE
  8
0
 10
29.75
 11
29.286
 20
2.326
 21
1.943
  0
LINE
  8
0
 10
29.286
 11
28.742
 20
1.943
 21
1.686
  0
LINE
  8
0
 10
28.742
 11
28.151
 20
1.686
 21
1.574
  0
LINE
  8
0
 10
28.151
 11
27.55
 20
1.574
 21
1.612
  0
LINE
  8
0
 10
27.55
 11
26.978
 20
1.612
 21
1.797
  0
LINE
  8
0
 10
26.978
 11
26.47
 20
1.797
 21
2.12
  0
LINE
  8
0
 10
26.47
 11
26.058
 20
2.12
 21
2.558
  0
LINE
  8
0
 10
26.058
 11
25.769
 20
2.558
 21
3.086
  0
LINE
  8
0
 10
25.769
 11
25.619
 20
3.086
 21
3.668
  0
LINE
  8
0
 10
25.619
 11
25.619
 20
51.293
 21
51.895
  0
LINE
  8
0
 10
25.619
 11
25.769
 20
51.895
 21
52.477
  0
LINE
  8
0
 10
25.769
 11
26.058
 20
52.477
 21
53.005
  0
LINE
  8
0
 10
26.058
 11
26.47
 20
53.005
 21
53.443
  0
LINE
  8
0
 10
26.47
 11
26.978
 20
53.443
 21
53.766
  0
LINE
  8
0
 10
26.978
 11
27.55
 20
53.766
 21
53.951
  0
LINE
  8
0
 10
27.55
 11
28.151
 20
53.951
 21
53.989
  0
LINE
  8
0
 10
28.151
 11
28.742
 20
53.989
 21
53.877
  0
LINE
  8
0
 10
28.742
 11
29.286
 20
53.877
 21
53.62
  0
LINE
  8
0
 10
29.286
 11
29.75
 20
53.62
 21
53.237
  0
LINE
  8
0
 10
29.75
 11
30.103
 20
53.237
 21
52.75
  0
LINE
  8
0
 10
30.103
 11
30.325
 20
52.75
 21
52.191
  0
LINE
  8
0
 10
30.325
 11
30.4
 20
52.191
 21
51.594
  0
LINE
  8
0
 10
30.4
 11
30.325
 20
51.594
 21
50.997
  0
LINE
  8
0
 10
30.325
 11
30.103
 20
50.997
 21
50.438
  0
LINE
  8
0
 10
30.103
 11
29.75
 20
50.438
 21
49.951
  0
LINE
  8
0
 10
29.75
 11
29.286
 20
49.951
 21
49.568
  0
LINE
  8
0
 10
29.286
 11
28.742
 20
49.568
 21
49.311
  0
LINE
  8
0
 10
28.742
 11
28.151
 20
49.311
 21
49.199
  0
LINE
  8
0
 10
28.151
 11
27.55
 20
49.199
 21
49.237
  0
LINE
  8
0
 10
27.55
 11
26.978
 20
49.237
 21
49.422
  0
LINE
  8
0
 10
26.978
 11
26.47
 20
49.422
 21
49.745
  0
LINE
  8
0
 10
26.47
 11
26.058
 20
49.745
 21
50.183
  0
LINE
  8
0
 10
26.058
 11
25.769
 20
50.183
 21
50.711
  0
LINE
  8
0
 10
25.769
 11
25.619
 20
50.711
 21
51.293
  0
LINE
  8
0
 10
33.619
 11
33.619
 20
3.668
 21
4.27
  0
LINE
  8
0
 10
33.619
 11
33.769
 20
4.27
 21
4.852
  0
LINE
  8
0
 10
33.769
 11
34.058
 20
4.852
 21
5.38
  0
LINE
  8
0
 10
34.058
 11
34.47
 20
5.38
 21
5.818
  0
LINE
  8
0
 10
34.47
 11
34.978
 20
5.818
 21
6.141
  0
LINE
  8
0
 10
34.978
 11
35.55
 20
6.141
 21
6.326
  0
LINE
  8
0
 10
35.55
 11
36.151
 20
6.326
 21
6.364
  0
LINE
  8
0
 10
36.151
 11
36.742
 20
6.364
 21
6.252
  0
LINE
  8
0
 10
36.742
 11
37.286
 20
6.252
 21
5.995
  0
LINE
  8
0
 10
37.286
 11
37.75
 20
5.995
 21
5.612
  0
LINE
  8
0
 10
37.75
 11
38.103
 20
5.612
 21
5.125
  0
LINE
  8
0
 10
38.103
 11
38.325
 20
5.125
 21
4.566
  0
LINE
  8
0
 10
38.325
 11
38.4
 20
4.566
 21
3.969
  0
LINE
  8
0
 10
38.4
 11
38.325
 20
3.969
 21
3.372
  0
LINE
  8
0
 10
38.325
 11
38.103
 20
3.372
 21
2.813
  0
LINE
  8
0
 10
38.103
 11
37.75
 20
2.813
 21
2.326
  0
LINE
  8
0
 10
37.75
 11
37.286
 20
2.326
 21
1.943
  0
LINE
  8
0
 10
37.286
 11
36.742
 20
1.943
 21
1.686
  0
LINE
  8
0
 10
36.742
 11
36.151
 20
1.686
 21
1.574
  0
LINE
  8
0
 10
36.151
 11
35.55
 20
1.574
 21
1.612
  0
LINE
  8
0
 10
35.55
 11
34.978
 20
1.612
 21
1.797
  0
LINE
  8
0
 10
34.978
 11
34.47
 20
1.797
 21
2.12
  0
LINE
  8
0
 10
34.47
 11
34.058
 20
2.12
 21
2.558
  0
LINE
  8
0
 10
34.058
 11
33.769
 20
2.558
 21
3.086
  0
LINE
  8
0
 10
33.769
 11
33.619
 20
3.086
 21
3.668
  0
LINE
  8
0
 10
33.619
 11
33.619
 20
51.293
 21
51.895
  0
LINE
  8
0
 10
33.619
 11
33.769
 20
51.895
 21
52.477
  0
LINE
  8
0
 10
33.769
 11
34.058
 20
52.477
 21
53.005
  0
LINE
  8
0
 10
34.058
 11
34.47
 20
53.005
 21
53.443
  0
LINE
  8
0
 10
34.47
 11
34.978
 20
53.443
 21
53.766
  0
LINE
  8
0
 10
34.978
 11
35.55
 20
53.766
 21
53.951
  0
LINE
  8
0
 10
35.55
 11
36.151
 20
53.951
 21
53.989
  0
LINE
  8
0
 10
36.151
 11
36.742
 20
53.989
 21
53.877
  0
LINE
  8
0
 10
36.742
 11
37.286
 20
53.877
 21
53.62
  0
LINE
  8
0
 10
37.286
 11
37.75
 20
53.62
 21
53.237
  0
LINE
  8
0
 10
37.75
 11
38.103
 20
53.237
 21
52.75
  0
LINE
  8
0
 10
38.103
 11
38.325
 20
52.75
 21
52.191
  0
LINE
  8
0
 10
38.325
 11
38.4
 20
52.191
 21
51.594
  0
LINE
  8
0
 10
38.4
 11
38.325
 20
51.594
 21
50.997
  0
LINE
  8
0
 10
38.325
 11
38.103
 20
50.997
 21
50.438
  0
LINE
  8
0
 10
38.103
 11
37.75
 20
50.438
 21
49.951
  0
LINE
  8
0
 10
37.75
 11
37.286
 20
49.951
 21
49.568
  0
LINE
  8
0
 10
37.286
 11
36.742
 20
49.568
 21
49.311
  0
LINE
  8
0
 10
36.742
 11
36.151
 20
49.311
 21
49.199
  0
LINE
  8
0
 10
36.151
 11
35.55
 20
49.199
 21
49.237
  0
LINE
  8
0
 10
35.55
 11
34.978
 20
49.237
 21
49.422
  0
LINE
  8
0
 10
34.978
 11
34.47
 20
49.422
 21
49.745
  0
LINE
  8
0
 10
34.47
 11
34.058
 20
49.745
 21
50.183
  0
LINE
  8
0
 10
34.058
 11
33.769
 20
50.183
 21
50.711
  0
LINE
  8
0
 10
33.769
 11
33.619
 20
50.711
 21
51.293
  0
LINE
  8
0
 10
33.744
 11
34.619
 20
12.506
 21
14.022
  0
LINE
  8
0
 10
34.619
 11
36.369
 20
14.022
 21
14.022
  0
LINE
  8
0
 10
36.369
 11
37.244
 20
14.022
 21
12.506
  0
LINE
  8
0
 10
37.244
 11
36.369
 20
12.506
 21
10.99
  0
LINE
  8
0
 10
36.369
 11
34.619
 20
10.99
 21
10.99
  0
LINE
  8
0
 10
34.619
 11
33.744
 20
10.99
 21
12.506
  0
LINE
  8
0
 10
33.744
 11
34.619
 20
43.494
 21
45.01
  0
LINE
  8
0
 10
34.619
 11
36.369
 20
45.01
 21
45.01
  0
LINE
  8
0
 10
36.369
 11
37.244
 20
45.01
 21
43.494
  0
LINE
  8
0
 10
37.244
 11
36.369
 20
43.494
 21
41.978
  0
LINE
  8
0
 10
36.369
 11
34.619
 20
41.978
 21
41.978
  0
LINE
  8
0
 10
34.619
 11
33.744
 20
41.978
 21
43.494
  0
ENDSEC
  0
SECTION
  2
OBJECTS
  0
DICTIONARY
  0
ENDSEC
  0
EOF
