  0
SECTION
  2
BLOCKS
  0
ENDSEC
  0
SECTION
  2
ENTITIES
  0
LINE
  8
0
 10
0
 11
0
 20
0
 21
71.438
  0
LINE
  8
0
 10
0
 11
56
 20
71.438
 21
71.438
  0
LINE
  8
0
 10
56
 11
56
 20
71.438
 21
0
  0
LINE
  8
0
 10
56
 11
0
 20
0
 21
0
  0
LINE
  8
0
 10
1.619
 11
1.619
 20
3.668
 21
4.27
  0
LINE
  8
0
 10
1.619
 11
1.769
 20
4.27
 21
4.852
  0
LINE
  8
0
 10
1.769
 11
2.058
 20
4.852
 21
5.38
  0
LINE
  8
0
 10
2.058
 11
2.47
 20
5.38
 21
5.818
  0
LINE
  8
0
 10
2.47
 11
2.978
 20
5.818
 21
6.141
  0
LINE
  8
0
 10
2.978
 11
3.55
 20
6.141
 21
6.326
  0
LINE
  8
0
 10
3.55
 11
4.151
 20
6.326
 21
6.364
  0
LINE
  8
0
 10
4.151
 11
4.742
 20
6.364
 21
6.252
  0
LINE
  8
0
 10
4.742
 11
5.286
 20
6.252
 21
5.995
  0
LINE
  8
0
 10
5.286
 11
5.75
 20
5.995
 21
5.612
  0
LINE
  8
0
 10
5.75
 11
6.103
 20
5.612
 21
5.125
  0
LINE
  8
0
 10
6.103
 11
6.325
 20
5.125
 21
4.566
  0
LINE
  8
0
 10
6.325
 11
6.4
 20
4.566
 21
3.969
  0
LINE
  8
0
 10
6.4
 11
6.325
 20
3.969
 21
3.372
  0
LINE
  8
0
 10
6.325
 11
6.103
 20
3.372
 21
2.813
  0
LINE
  8
0
 10
6.103
 11
5.75
 20
2.813
 21
2.326
  0
LINE
  8
0
 10
5.75
 11
5.286
 20
2.326
 21
1.943
  0
LINE
  8
0
 10
5.286
 11
4.742
 20
1.943
 21
1.686
  0
LINE
  8
0
 10
4.742
 11
4.151
 20
1.686
 21
1.574
  0
LINE
  8
0
 10
4.151
 11
3.55
 20
1.574
 21
1.612
  0
LINE
  8
0
 10
3.55
 11
2.978
 20
1.612
 21
1.797
  0
LINE
  8
0
 10
2.978
 11
2.47
 20
1.797
 21
2.12
  0
LINE
  8
0
 10
2.47
 11
2.058
 20
2.12
 21
2.558
  0
LINE
  8
0
 10
2.058
 11
1.769
 20
2.558
 21
3.086
  0
LINE
  8
0
 10
1.769
 11
1.619
 20
3.086
 21
3.668
  0
LINE
  8
0
 10
1.619
 11
1.619
 20
67.168
 21
67.77
  0
LINE
  8
0
 10
1.619
 11
1.769
 20
67.77
 21
68.352
  0
LINE
  8
0
 10
1.769
 11
2.058
 20
68.352
 21
68.88
  0
LINE
  8
0
 10
2.058
 11
2.47
 20
68.88
 21
69.318
  0
LINE
  8
0
 10
2.47
 11
2.978
 20
69.318
 21
69.641
  0
LINE
  8
0
 10
2.978
 11
3.55
 20
69.641
 21
69.826
  0
LINE
  8
0
 10
3.55
 11
4.151
 20
69.826
 21
69.864
  0
LINE
  8
0
 10
4.151
 11
4.742
 20
69.864
 21
69.752
  0
LINE
  8
0
 10
4.742
 11
5.286
 20
69.752
 21
69.495
  0
LINE
  8
0
 10
5.286
 11
5.75
 20
69.495
 21
69.112
  0
LINE
  8
0
 10
5.75
 11
6.103
 20
69.112
 21
68.625
  0
LINE
  8
0
 10
6.103
 11
6.325
 20
68.625
 21
68.066
  0
LINE
  8
0
 10
6.325
 11
6.4
 20
68.066
 21
67.469
  0
LINE
  8
0
 10
6.4
 11
6.325
 20
67.469
 21
66.872
  0
LINE
  8
0
 10
6.325
 11
6.103
 20
66.872
 21
66.313
  0
LINE
  8
0
 10
6.103
 11
5.75
 20
66.313
 21
65.826
  0
LINE
  8
0
 10
5.75
 11
5.286
 20
65.826
 21
65.443
  0
LINE
  8
0
 10
5.286
 11
4.742
 20
65.443
 21
65.186
  0
LINE
  8
0
 10
4.742
 11
4.151
 20
65.186
 21
65.074
  0
LINE
  8
0
 10
4.151
 11
3.55
 20
65.074
 21
65.112
  0
LINE
  8
0
 10
3.55
 11
2.978
 20
65.112
 21
65.297
  0
LINE
  8
0
 10
2.978
 11
2.47
 20
65.297
 21
65.62
  0
LINE
  8
0
 10
2.47
 11
2.058
 20
65.62
 21
66.058
  0
LINE
  8
0
 10
2.058
 11
1.769
 20
66.058
 21
66.586
  0
LINE
  8
0
 10
1.769
 11
1.619
 20
66.586
 21
67.168
  0
LINE
  8
0
 10
1.953
 11
2.678
 20
12.429
 21
14.18
  0
LINE
  8
0
 10
2.678
 11
4.429
 20
14.18
 21
14.905
  0
LINE
  8
0
 10
4.429
 11
6.18
 20
14.905
 21
14.18
  0
LINE
  8
0
 10
6.18
 11
6.905
 20
14.18
 21
12.429
  0
LINE
  8
0
 10
6.905
 11
6.18
 20
12.429
 21
10.678
  0
LINE
  8
0
 10
6.18
 11
4.429
 20
10.678
 21
9.953
  0
LINE
  8
0
 10
4.429
 11
2.678
 20
9.953
 21
10.678
  0
LINE
  8
0
 10
2.678
 11
1.953
 20
10.678
 21
12.429
  0
LINE
  8
0
 10
1.953
 11
2.678
 20
59.571
 21
61.322
  0
LINE
  8
0
 10
2.678
 11
4.429
 20
61.322
 21
62.047
  0
LINE
  8
0
 10
4.429
 11
6.18
 20
62.047
 21
61.322
  0
LINE
  8
0
 10
6.18
 11
6.905
 20
61.322
 21
59.571
  0
LINE
  8
0
 10
6.905
 11
6.18
 20
59.571
 21
57.82
  0
LINE
  8
0
 10
6.18
 11
4.429
 20
57.82
 21
57.095
  0
LINE
  8
0
 10
4.429
 11
2.678
 20
57.095
 21
57.82
  0
LINE
  8
0
 10
2.678
 11
1.953
 20
57.82
 21
59.571
  0
LINE
  8
0
 10
8.95
 11
9.366
 20
36
 21
39.961
  0
LINE
  8
0
 10
9.366
 11
10.597
 20
39.961
 21
43.748
  0
LINE
  8
0
 10
10.597
 11
12.588
 20
43.748
 21
47.197
  0
LINE
  8
0
 10
12.588
 11
15.253
 20
47.197
 21
50.157
  0
LINE
  8
0
 10
15.253
 11
18.475
 20
50.157
 21
52.498
  0
LINE
  8
0
 10
18.475
 11
22.113
 20
52.498
 21
54.118
  0
LINE
  8
0
 10
22.113
 11
26.009
 20
54.118
 21
54.946
  0
LINE
  8
0
 10
26.009
 11
29.991
 20
54.946
 21
54.946
  0
LINE
  8
0
 10
29.991
 11
33.887
 20
54.946
 21
54.118
  0
LINE
  8
0
 10
33.887
 11
37.525
 20
54.118
 21
52.498
  0
LINE
  8
0
 10
37.525
 11
40.747
 20
52.498
 21
50.157
  0
LINE
  8
0
 10
40.747
 11
43.412
 20
50.157
 21
47.197
  0
LINE
  8
0
 10
43.412
 11
45.403
 20
47.197
 21
43.748
  0
LINE
  8
0
 10
45.403
 11
46.634
 20
43.748
 21
39.961
  0
LINE
  8
0
 10
46.634
 11
47.05
 20
39.961
 21
36
  0
LINE
  8
0
 10
47.05
 11
46.634
 20
36
 21
32.039
  0
LINE
  8
0
 10
46.634
 11
45.403
 20
32.039
 21
28.252
  0
LINE
  8
0
 10
45.403
 11
43.412
 20
28.252
 21
24.803
  0
LINE
  8
0
 10
43.412
 11
40.747
 20
24.803
 21
21.843
  0
LINE
  8
0
 10
40.747
 11
37.525
 20
21.843
 21
19.502
  0
LINE
  8
0
 10
37.525
 11
33.887
 20
19.502
 21
17.882
  0
LINE
  8
0
 10
33.887
 11
29.991
 20
17.882
 21
17.054
  0
LINE
  8
0
 10
29.991
 11
26.009
 20
17.054
 21
17.054
  0
LINE
  8
0
 10
26.009
 11
22.113
 20
17.054
 21
17.882
  0
LINE
  8
0
 10
22.113
 11
18.475
 20
17.882
 21
19.502
  0
LINE
  8
0
 10
18.475
 11
15.253
 20
19.502
 21
21.843
  0
LINE
  8
0
 10
15.253
 11
12.588
 20
21.843
 21
24.803
  0
LINE
  8
0
 10
12.588
 11
10.597
 20
24.803
 21
28.252
  0
LINE
  8
0
 10
10.597
 11
9.366
 20
28.252
 21
32.039
  0
LINE
  8
0
 10
9.366
 11
8.95
 20
32.039
 21
36
  0
LINE
  8
0
 10
9.619
 11
9.619
 20
3.668
 21
4.27
  0
LINE
  8
0
 10
9.619
 11
9.769
 20
4.27
 21
4.852
  0
LINE
  8
0
 10
9.769
 11
10.058
 20
4.852
 21
5.38
  0
LINE
  8
0
 10
10.058
 11
10.47
 20
5.38
 21
5.818
  0
LINE
  8
0
 10
10.47
 11
10.978
 20
5.818
 21
6.141
  0
LINE
  8
0
 10
10.978
 11
11.55
 20
6.141
 21
6.326
  0
LINE
  8
0
 10
11.55
 11
12.151
 20
6.326
 21
6.364
  0
LINE
  8
0
 10
12.151
 11
12.742
 20
6.364
 21
6.252
  0
LINE
  8
0
 10
12.742
 11
13.286
 20
6.252
 21
5.995
  0
LINE
  8
0
 10
13.286
 11
13.75
 20
5.995
 21
5.612
  0
LINE
  8
0
 10
13.75
 11
14.103
 20
5.612
 21
5.125
  0
LINE
  8
0
 10
14.103
 11
14.325
 20
5.125
 21
4.566
  0
LINE
  8
0
 10
14.325
 11
14.4
 20
4.566
 21
3.969
  0
LINE
  8
0
 10
14.4
 11
14.325
 20
3.969
 21
3.372
  0
LINE
  8
0
 10
14.325
 11
14.103
 20
3.372
 21
2.813
  0
LINE
  8
0
 10
14.103
 11
13.75
 20
2.813
 21
2.326
  0
LINE
  8
0
 10
13.75
 11
13.286
 20
2.326
 21
1.943
  0
LINE
  8
0
 10
13.286
 11
12.742
 20
1.943
 21
1.686
  0
LINE
  8
0
 10
12.742
 11
12.151
 20
1.686
 21
1.574
  0
LINE
  8
0
 10
12.151
 11
11.55
 20
1.574
 21
1.612
  0
LINE
  8
0
 10
11.55
 11
10.978
 20
1.612
 21
1.797
  0
LINE
  8
0
 10
10.978
 11
10.47
 20
1.797
 21
2.12
  0
LINE
  8
0
 10
10.47
 11
10.058
 20
2.12
 21
2.558
  0
LINE
  8
0
 10
10.058
 11
9.769
 20
2.558
 21
3.086
  0
LINE
  8
0
 10
9.769
 11
9.619
 20
3.086
 21
3.668
  0
LINE
  8
0
 10
9.619
 11
9.619
 20
67.168
 21
67.77
  0
LINE
  8
0
 10
9.619
 11
9.769
 20
67.77
 21
68.352
  0
LINE
  8
0
 10
9.769
 11
10.058
 20
68.352
 21
68.88
  0
LINE
  8
0
 10
10.058
 11
10.47
 20
68.88
 21
69.318
  0
LINE
  8
0
 10
10.47
 11
10.978
 20
69.318
 21
69.641
  0
LINE
  8
0
 10
10.978
 11
11.55
 20
69.641
 21
69.826
  0
LINE
  8
0
 10
11.55
 11
12.151
 20
69.826
 21
69.864
  0
LINE
  8
0
 10
12.151
 11
12.742
 20
69.864
 21
69.752
  0
LINE
  8
0
 10
12.742
 11
13.286
 20
69.752
 21
69.495
  0
LINE
  8
0
 10
13.286
 11
13.75
 20
69.495
 21
69.112
  0
LINE
  8
0
 10
13.75
 11
14.103
 20
69.112
 21
68.625
  0
LINE
  8
0
 10
14.103
 11
14.325
 20
68.625
 21
68.066
  0
LINE
  8
0
 10
14.325
 11
14.4
 20
68.066
 21
67.469
  0
LINE
  8
0
 10
14.4
 11
14.325
 20
67.469
 21
66.872
  0
LINE
  8
0
 10
14.325
 11
14.103
 20
66.872
 21
66.313
  0
LINE
  8
0
 10
14.103
 11
13.75
 20
66.313
 21
65.826
  0
LINE
  8
0
 10
13.75
 11
13.286
 20
65.826
 21
65.443
  0
LINE
  8
0
 10
13.286
 11
12.742
 20
65.443
 21
65.186
  0
LINE
  8
0
 10
12.742
 11
12.151
 20
65.186
 21
65.074
  0
LINE
  8
0
 10
12.151
 11
11.55
 20
65.074
 21
65.112
  0
LINE
  8
0
 10
11.55
 11
10.978
 20
65.112
 21
65.297
  0
LINE
  8
0
 10
10.978
 11
10.47
 20
65.297
 21
65.62
  0
LINE
  8
0
 10
10.47
 11
10.058
 20
65.62
 21
66.058
  0
LINE
  8
0
 10
10.058
 11
9.769
 20
66.058
 21
66.586
  0
LINE
  8
0
 10
9.769
 11
9.619
 20
66.586
 21
67.168
  0
LINE
  8
0
 10
17.619
 11
17.619
 20
3.668
 21
4.27
  0
LINE
  8
0
 10
17.619
 11
17.769
 20
4.27
 21
4.852
  0
LINE
  8
0
 10
17.769
 11
18.058
 20
4.852
 21
5.38
  0
LINE
  8
0
 10
18.058
 11
18.47
 20
5.38
 21
5.818
  0
LINE
  8
0
 10
18.47
 11
18.978
 20
5.818
 21
6.141
  0
LINE
  8
0
 10
18.978
 11
19.55
 20
6.141
 21
6.326
  0
LINE
  8
0
 10
19.55
 11
20.151
 20
6.326
 21
6.364
  0
LINE
  8
0
 10
20.151
 11
20.742
 20
6.364
 21
6.252
  0
LINE
  8
0
 10
20.742
 11
21.286
 20
6.252
 21
5.995
  0
LINE
  8
0
 10
21.286
 11
21.75
 20
5.995
 21
5.612
  0
LINE
  8
0
 10
21.75
 11
22.103
 20
5.612
 21
5.125
  0
LINE
  8
0
 10
22.103
 11
22.325
 20
5.125
 21
4.566
  0
LINE
  8
0
 10
22.325
 11
22.4
 20
4.566
 21
3.969
  0
LINE
  8
0
 10
22.4
 11
22.325
 20
3.969
 21
3.372
  0
LINE
  8
0
 10
22.325
 11
22.103
 20
3.372
 21
2.813
  0
LINE
  8
0
 10
22.103
 11
21.75
 20
2.813
 21
2.326
  0
LINE
  8
0
 10
21.75
 11
21.286
 20
2.326
 21
1.943
  0
LINE
  8
0
 10
21.286
 11
20.742
 20
1.943
 21
1.686
  0
LINE
  8
0
 10
20.742
 11
20.151
 20
1.686
 21
1.574
  0
LINE
  8
0
 10
20.151
 11
19.55
 20
1.574
 21
1.612
  0
LINE
  8
0
 10
19.55
 11
18.978
 20
1.612
 21
1.797
  0
LINE
  8
0
 10
18.978
 11
18.47
 20
1.797
 21
2.12
  0
LINE
  8
0
 10
18.47
 11
18.058
 20
2.12
 21
2.558
  0
LINE
  8
0
 10
18.058
 11
17.769
 20
2.558
 21
3.086
  0
LINE
  8
0
 10
17.769
 11
17.619
 20
3.086
 21
3.668
  0
LINE
  8
0
 10
17.619
 11
17.619
 20
67.168
 21
67.77
  0
LINE
  8
0
 10
17.619
 11
17.769
 20
67.77
 21
68.352
  0
LINE
  8
0
 10
17.769
 11
18.058
 20
68.352
 21
68.88
  0
LINE
  8
0
 10
18.058
 11
18.47
 20
68.88
 21
69.318
  0
LINE
  8
0
 10
18.47
 11
18.978
 20
69.318
 21
69.641
  0
LINE
  8
0
 10
18.978
 11
19.55
 20
69.641
 21
69.826
  0
LINE
  8
0
 10
19.55
 11
20.151
 20
69.826
 21
69.864
  0
LINE
  8
0
 10
20.151
 11
20.742
 20
69.864
 21
69.752
  0
LINE
  8
0
 10
20.742
 11
21.286
 20
69.752
 21
69.495
  0
LINE
  8
0
 10
21.286
 11
21.75
 20
69.495
 21
69.112
  0
LINE
  8
0
 10
21.75
 11
22.103
 20
69.112
 21
68.625
  0
LINE
  8
0
 10
22.103
 11
22.325
 20
68.625
 21
68.066
  0
LINE
  8
0
 10
22.325
 11
22.4
 20
68.066
 21
67.469
  0
LINE
  8
0
 10
22.4
 11
22.325
 20
67.469
 21
66.872
  0
LINE
  8
0
 10
22.325
 11
22.103
 20
66.872
 21
66.313
  0
LINE
  8
0
 10
22.103
 11
21.75
 20
66.313
 21
65.826
  0
LINE
  8
0
 10
21.75
 11
21.286
 20
65.826
 21
65.443
  0
LINE
  8
0
 10
21.286
 11
20.742
 20
65.443
 21
65.186
  0
LINE
  8
0
 10
20.742
 11
20.151
 20
65.186
 21
65.074
  0
LINE
  8
0
 10
20.151
 11
19.55
 20
65.074
 21
65.112
  0
LINE
  8
0
 10
19.55
 11
18.978
 20
65.112
 21
65.297
  0
LINE
  8
0
 10
18.978
 11
18.47
 20
65.297
 21
65.62
  0
LINE
  8
0
 10
18.47
 11
18.058
 20
65.62
 21
66.058
  0
LINE
  8
0
 10
18.058
 11
17.769
 20
66.058
 21
66.586
  0
LINE
  8
0
 10
17.769
 11
17.619
 20
66.586
 21
67.168
  0
LINE
  8
0
 10
25.619
 11
25.619
 20
3.668
 21
4.27
  0
LINE
  8
0
 10
25.619
 11
25.769
 20
4.27
 21
4.852
  0
LINE
  8
0
 10
25.769
 11
26.058
 20
4.852
 21
5.38
  0
LINE
  8
0
 10
26.058
 11
26.47
 20
5.38
 21
5.818
  0
LINE
  8
0
 10
26.47
 11
26.978
 20
5.818
 21
6.141
  0
LINE
  8
0
 10
26.978
 11
27.55
 20
6.141
 21
6.326
  0
LINE
  8
0
 10
27.55
 11
28.151
 20
6.326
 21
6.364
  0
LINE
  8
0
 10
28.151
 11
28.742
 20
6.364
 21
6.252
  0
LINE
  8
0
 10
28.742
 11
29.286
 20
6.252
 21
5.995
  0
LINE
  8
0
 10
29.286
 11
29.75
 20
5.995
 21
5.612
  0
LINE
  8
0
 10
29.75
 11
30.103
 20
5.612
 21
5.125
  0
LINE
  8
0
 10
30.103
 11
30.325
 20
5.125
 21
4.566
  0
LINE
  8
0
 10
30.325
 11
30.4
 20
4.566
 21
3.969
  0
LINE
  8
0
 10
30.4
 11
30.325
 20
3.969
 21
3.372
  0
LINE
  8
0
 10
30.325
 11
30.103
 20
3.372
 21
2.813
  0
LINE
  8
0
 10
30.103
 11
29.75
 20
2.813
 21
2.326
  0
LINE
  8
0
 10
29.75
 11
29.286
 20
2.326
 21
1.943
  0
LINE
  8
0
 10
29.286
 11
28.742
 20
1.943
 21
1.686
  0
LINE
  8
0
 10
28.742
 11
28.151
 20
1.686
 21
1.574
  0
LINE
  8
0
 10
28.151
 11
27.55
 20
1.574
 21
1.612
  0
LINE
  8
0
 10
27.55
 11
26.978
 20
1.612
 21
1.797
  0
LINE
  8
0
 10
26.978
 11
26.47
 20
1.797
 21
2.12
  0
LINE
  8
0
 10
26.47
 11
26.058
 20
2.12
 21
2.558
  0
LINE
  8
0
 10
26.058
 11
25.769
 20
2.558
 21
3.086
  0
LINE
  8
0
 10
25.769
 11
25.619
 20
3.086
 21
3.668
  0
LINE
  8
0
 10
25.619
 11
25.619
 20
67.168
 21
67.77
  0
LINE
  8
0
 10
25.619
 11
25.769
 20
67.77
 21
68.352
  0
LINE
  8
0
 10
25.769
 11
26.058
 20
68.352
 21
68.88
  0
LINE
  8
0
 10
26.058
 11
26.47
 20
68.88
 21
69.318
  0
LINE
  8
0
 10
26.47
 11
26.978
 20
69.318
 21
69.641
  0
LINE
  8
0
 10
26.978
 11
27.55
 20
69.641
 21
69.826
  0
LINE
  8
0
 10
27.55
 11
28.151
 20
69.826
 21
69.864
  0
LINE
  8
0
 10
28.151
 11
28.742
 20
69.864
 21
69.752
  0
LINE
  8
0
 10
28.742
 11
29.286
 20
69.752
 21
69.495
  0
LINE
  8
0
 10
29.286
 11
29.75
 20
69.495
 21
69.112
  0
LINE
  8
0
 10
29.75
 11
30.103
 20
69.112
 21
68.625
  0
LINE
  8
0
 10
30.103
 11
30.325
 20
68.625
 21
68.066
  0
LINE
  8
0
 10
30.325
 11
30.4
 20
68.066
 21
67.469
  0
LINE
  8
0
 10
30.4
 11
30.325
 20
67.469
 21
66.872
  0
LINE
  8
0
 10
30.325
 11
30.103
 20
66.872
 21
66.313
  0
LINE
  8
0
 10
30.103
 11
29.75
 20
66.313
 21
65.826
  0
LINE
  8
0
 10
29.75
 11
29.286
 20
65.826
 21
65.443
  0
LINE
  8
0
 10
29.286
 11
28.742
 20
65.443
 21
65.186
  0
LINE
  8
0
 10
28.742
 11
28.151
 20
65.186
 21
65.074
  0
LINE
  8
0
 10
28.151
 11
27.55
 20
65.074
 21
65.112
  0
LINE
  8
0
 10
27.55
 11
26.978
 20
65.112
 21
65.297
  0
LINE
  8
0
 10
26.978
 11
26.47
 20
65.297
 21
65.62
  0
LINE
  8
0
 10
26.47
 11
26.058
 20
65.62
 21
66.058
  0
LINE
  8
0
 10
26.058
 11
25.769
 20
66.058
 21
66.586
  0
LINE
  8
0
 10
25.769
 11
25.619
 20
66.586
 21
67.168
  0
LINE
  8
0
 10
33.619
 11
33.619
 20
3.668
 21
4.27
  0
LINE
  8
0
 10
33.619
 11
33.769
 20
4.27
 21
4.852
  0
LINE
  8
0
 10
33.769
 11
34.058
 20
4.852
 21
5.38
  0
LINE
  8
0
 10
34.058
 11
34.47
 20
5.38
 21
5.818
  0
LINE
  8
0
 10
34.47
 11
34.978
 20
5.818
 21
6.141
  0
LINE
  8
0
 10
34.978
 11
35.55
 20
6.141
 21
6.326
  0
LINE
  8
0
 10
35.55
 11
36.151
 20
6.326
 21
6.364
  0
LINE
  8
0
 10
36.151
 11
36.742
 20
6.364
 21
6.252
  0
LINE
  8
0
 10
36.742
 11
37.286
 20
6.252
 21
5.995
  0
LINE
  8
0
 10
37.286
 11
37.75
 20
5.995
 21
5.612
  0
LINE
  8
0
 10
37.75
 11
38.103
 20
5.612
 21
5.125
  0
LINE
  8
0
 10
38.103
 11
38.325
 20
5.125
 21
4.566
  0
LINE
  8
0
 10
38.325
 11
38.4
 20
4.566
 21
3.969
  0
LINE
  8
0
 10
38.4
 11
38.325
 20
3.969
 21
3.372
  0
LINE
  8
0
 10
38.325
 11
38.103
 20
3.372
 21
2.813
  0
LINE
  8
0
 10
38.103
 11
37.75
 20
2.813
 21
2.326
  0
LINE
  8
0
 10
37.75
 11
37.286
 20
2.326
 21
1.943
  0
LINE
  8
0
 10
37.286
 11
36.742
 20
1.943
 21
1.686
  0
LINE
  8
0
 10
36.742
 11
36.151
 20
1.686
 21
1.574
  0
LINE
  8
0
 10
36.151
 11
35.55
 20
1.574
 21
1.612
  0
LINE
  8
0
 10
35.55
 11
34.978
 20
1.612
 21
1.797
  0
LINE
  8
0
 10
34.978
 11
34.47
 20
1.797
 21
2.12
  0
LINE
  8
0
 10
34.47
 11
34.058
 20
2.12
 21
2.558
  0
LINE
  8
0
 10
34.058
 11
33.769
 20
2.558
 21
3.086
  0
LINE
  8
0
 10
33.769
 11
33.619
 20
3.086
 21
3.668
  0
LINE
  8
0
 10
33.619
 11
33.619
 20
67.168
 21
67.77
  0
LINE
  8
0
 10
33.619
 11
33.769
 20
67.77
 21
68.352
  0
LINE
  8
0
 10
33.769
 11
34.058
 20
68.352
 21
68.88
  0
LINE
  8
0
 10
34.058
 11
34.47
 20
68.88
 21
69.318
  0
LINE
  8
0
 10
34.47
 11
34.978
 20
69.318
 21
69.641
  0
LINE
  8
0
 10
34.978
 11
35.55
 20
69.641
 21
69.826
  0
LINE
  8
0
 10
35.55
 11
36.151
 20
69.826
 21
69.864
  0
LINE
  8
0
 10
36.151
 11
36.742
 20
69.864
 21
69.752
  0
LINE
  8
0
 10
36.742
 11
37.286
 20
69.752
 21
69.495
  0
LINE
  8
0
 10
37.286
 11
37.75
 20
69.495
 21
69.112
  0
LINE
  8
0
 10
37.75
 11
38.103
 20
69.112
 21
68.625
  0
LINE
  8
0
 10
38.103
 11
38.325
 20
68.625
 21
68.066
  0
LINE
  8
0
 10
38.325
 11
38.4
 20
68.066
 21
67.469
  0
LINE
  8
0
 10
38.4
 11
38.325
 20
67.469
 21
66.872
  0
LINE
  8
0
 10
38.325
 11
38.103
 20
66.872
 21
66.313
  0
LINE
  8
0
 10
38.103
 11
37.75
 20
66.313
 21
65.826
  0
LINE
  8
0
 10
37.75
 11
37.286
 20
65.826
 21
65.443
  0
LINE
  8
0
 10
37.286
 11
36.742
 20
65.443
 21
65.186
  0
LINE
  8
0
 10
36.742
 11
36.151
 20
65.186
 21
65.074
  0
LINE
  8
0
 10
36.151
 11
35.55
 20
65.074
 21
65.112
  0
LINE
  8
0
 10
35.55
 11
34.978
 20
65.112
 21
65.297
  0
LINE
  8
0
 10
34.978
 11
34.47
 20
65.297
 21
65.62
  0
LINE
  8
0
 10
34.47
 11
34.058
 20
65.62
 21
66.058
  0
LINE
  8
0
 10
34.058
 11
33.769
 20
66.058
 21
66.586
  0
LINE
  8
0
 10
33.769
 11
33.619
 20
66.586
 21
67.168
  0
LINE
  8
0
 10
41.619
 11
41.619
 20
3.668
 21
4.27
  0
LINE
  8
0
 10
41.619
 11
41.769
 20
4.27
 21
4.852
  0
LINE
  8
0
 10
41.769
 11
42.058
 20
4.852
 21
5.38
  0
LINE
  8
0
 10
42.058
 11
42.47
 20
5.38
 21
5.818
  0
LINE
  8
0
 10
42.47
 11
42.978
 20
5.818
 21
6.141
  0
LINE
  8
0
 10
42.978
 11
43.55
 20
6.141
 21
6.326
  0
LINE
  8
0
 10
43.55
 11
44.151
 20
6.326
 21
6.364
  0
LINE
  8
0
 10
44.151
 11
44.742
 20
6.364
 21
6.252
  0
LINE
  8
0
 10
44.742
 11
45.286
 20
6.252
 21
5.995
  0
LINE
  8
0
 10
45.286
 11
45.75
 20
5.995
 21
5.612
  0
LINE
  8
0
 10
45.75
 11
46.103
 20
5.612
 21
5.125
  0
LINE
  8
0
 10
46.103
 11
46.325
 20
5.125
 21
4.566
  0
LINE
  8
0
 10
46.325
 11
46.4
 20
4.566
 21
3.969
  0
LINE
  8
0
 10
46.4
 11
46.325
 20
3.969
 21
3.372
  0
LINE
  8
0
 10
46.325
 11
46.103
 20
3.372
 21
2.813
  0
LINE
  8
0
 10
46.103
 11
45.75
 20
2.813
 21
2.326
  0
LINE
  8
0
 10
45.75
 11
45.286
 20
2.326
 21
1.943
  0
LINE
  8
0
 10
45.286
 11
44.742
 20
1.943
 21
1.686
  0
LINE
  8
0
 10
44.742
 11
44.151
 20
1.686
 21
1.574
  0
LINE
  8
0
 10
44.151
 11
43.55
 20
1.574
 21
1.612
  0
LINE
  8
0
 10
43.55
 11
42.978
 20
1.612
 21
1.797
  0
LINE
  8
0
 10
42.978
 11
42.47
 20
1.797
 21
2.12
  0
LINE
  8
0
 10
42.47
 11
42.058
 20
2.12
 21
2.558
  0
LINE
  8
0
 10
42.058
 11
41.769
 20
2.558
 21
3.086
  0
LINE
  8
0
 10
41.769
 11
41.619
 20
3.086
 21
3.668
  0
LINE
  8
0
 10
41.619
 11
41.619
 20
67.168
 21
67.77
  0
LINE
  8
0
 10
41.619
 11
41.769
 20
67.77
 21
68.352
  0
LINE
  8
0
 10
41.769
 11
42.058
 20
68.352
 21
68.88
  0
LINE
  8
0
 10
42.058
 11
42.47
 20
68.88
 21
69.318
  0
LINE
  8
0
 10
42.47
 11
42.978
 20
69.318
 21
69.641
  0
LINE
  8
0
 10
42.978
 11
43.55
 20
69.641
 21
69.826
  0
LINE
  8
0
 10
43.55
 11
44.151
 20
69.826
 21
69.864
  0
LINE
  8
0
 10
44.151
 11
44.742
 20
69.864
 21
69.752
  0
LINE
  8
0
 10
44.742
 11
45.286
 20
69.752
 21
69.495
  0
LINE
  8
0
 10
45.286
 11
45.75
 20
69.495
 21
69.112
  0
LINE
  8
0
 10
45.75
 11
46.103
 20
69.112
 21
68.625
  0
LINE
  8
0
 10
46.103
 11
46.325
 20
68.625
 21
68.066
  0
LINE
  8
0
 10
46.325
 11
46.4
 20
68.066
 21
67.469
  0
LINE
  8
0
 10
46.4
 11
46.325
 20
67.469
 21
66.872
  0
LINE
  8
0
 10
46.325
 11
46.103
 20
66.872
 21
66.313
  0
LINE
  8
0
 10
46.103
 11
45.75
 20
66.313
 21
65.826
  0
LINE
  8
0
 10
45.75
 11
45.286
 20
65.826
 21
65.443
  0
LINE
  8
0
 10
45.286
 11
44.742
 20
65.443
 21
65.186
  0
LINE
  8
0
 10
44.742
 11
44.151
 20
65.186
 21
65.074
  0
LINE
  8
0
 10
44.151
 11
43.55
 20
65.074
 21
65.112
  0
LINE
  8
0
 10
43.55
 11
42.978
 20
65.112
 21
65.297
  0
LINE
  8
0
 10
42.978
 11
42.47
 20
65.297
 21
65.62
  0
LINE
  8
0
 10
42.47
 11
42.058
 20
65.62
 21
66.058
  0
LINE
  8
0
 10
42.058
 11
41.769
 20
66.058
 21
66.586
  0
LINE
  8
0
 10
41.769
 11
41.619
 20
66.586
 21
67.168
  0
LINE
  8
0
 10
49.095
 11
49.82
 20
12.429
 21
14.18
  0
LINE
  8
0
 10
49.82
 11
51.571
 20
14.18
 21
14.905
  0
LINE
  8
0
 10
51.571
 11
53.322
 20
14.905
 21
14.18
  0
LINE
  8
0
 10
53.322
 11
54.047
 20
14.18
 21
12.429
  0
LINE
  8
0
 10
54.047
 11
53.322
 20
12.429
 21
10.678
  0
LINE
  8
0
 10
53.322
 11
51.571
 20
10.678
 21
9.953
  0
LINE
  8
0
 10
51.571
 11
49.82
 20
9.953
 21
10.678
  0
LINE
  8
0
 10
49.82
 11
49.095
 20
10.678
 21
12.429
  0
LINE
  8
0
 10
49.095
 11
49.82
 20
59.571
 21
61.322
  0
LINE
  8
0
 10
49.82
 11
51.571
 20
61.322
 21
62.047
  0
LINE
  8
0
 10
51.571
 11
53.322
 20
62.047
 21
61.322
  0
LINE
  8
0
 10
53.322
 11
54.047
 20
61.322
 21
59.571
  0
LINE
  8
0
 10
54.047
 11
53.322
 20
59.571
 21
57.82
  0
LINE
  8
0
 10
53.322
 11
51.571
 20
57.82
 21
57.095
  0
LINE
  8
0
 10
51.571
 11
49.82
 20
57.095
 21
57.82
  0
LINE
  8
0
 10
49.82
 11
49.095
 20
57.82
 21
59.571
  0
LINE
  8
0
 10
49.619
 11
49.619
 20
3.668
 21
4.27
  0
LINE
  8
0
 10
49.619
 11
49.769
 20
4.27
 21
4.852
  0
LINE
  8
0
 10
49.769
 11
50.058
 20
4.852
 21
5.38
  0
LINE
  8
0
 10
50.058
 11
50.47
 20
5.38
 21
5.818
  0
LINE
  8
0
 10
50.47
 11
50.978
 20
5.818
 21
6.141
  0
LINE
  8
0
 10
50.978
 11
51.55
 20
6.141
 21
6.326
  0
LINE
  8
0
 10
51.55
 11
52.151
 20
6.326
 21
6.364
  0
LINE
  8
0
 10
52.151
 11
52.742
 20
6.364
 21
6.252
  0
LINE
  8
0
 10
52.742
 11
53.286
 20
6.252
 21
5.995
  0
LINE
  8
0
 10
53.286
 11
53.75
 20
5.995
 21
5.612
  0
LINE
  8
0
 10
53.75
 11
54.103
 20
5.612
 21
5.125
  0
LINE
  8
0
 10
54.103
 11
54.325
 20
5.125
 21
4.566
  0
LINE
  8
0
 10
54.325
 11
54.4
 20
4.566
 21
3.969
  0
LINE
  8
0
 10
54.4
 11
54.325
 20
3.969
 21
3.372
  0
LINE
  8
0
 10
54.325
 11
54.103
 20
3.372
 21
2.813
  0
LINE
  8
0
 10
54.103
 11
53.75
 20
2.813
 21
2.326
  0
LINE
  8
0
 10
53.75
 11
53.286
 20
2.326
 21
1.943
  0
LINE
  8
0
 10
53.286
 11
52.742
 20
1.943
 21
1.686
  0
LINE
  8
0
 10
52.742
 11
52.151
 20
1.686
 21
1.574
  0
LINE
  8
0
 10
52.151
 11
51.55
 20
1.574
 21
1.612
  0
LINE
  8
0
 10
51.55
 11
50.978
 20
1.612
 21
1.797
  0
LINE
  8
0
 10
50.978
 11
50.47
 20
1.797
 21
2.12
  0
LINE
  8
0
 10
50.47
 11
50.058
 20
2.12
 21
2.558
  0
LINE
  8
0
 10
50.058
 11
49.769
 20
2.558
 21
3.086
  0
LINE
  8
0
 10
49.769
 11
49.619
 20
3.086
 21
3.668
  0
LINE
  8
0
 10
49.619
 11
49.619
 20
67.168
 21
67.77
  0
LINE
  8
0
 10
49.619
 11
49.769
 20
67.77
 21
68.352
  0
LINE
  8
0
 10
49.769
 11
50.058
 20
68.352
 21
68.88
  0
LINE
  8
0
 10
50.058
 11
50.47
 20
68.88
 21
69.318
  0
LINE
  8
0
 10
50.47
 11
50.978
 20
69.318
 21
69.641
  0
LINE
  8
0
 10
50.978
 11
51.55
 20
69.641
 21
69.826
  0
LINE
  8
0
 10
51.55
 11
52.151
 20
69.826
 21
69.864
  0
LINE
  8
0
 10
52.151
 11
52.742
 20
69.864
 21
69.752
  0
LINE
  8
0
 10
52.742
 11
53.286
 20
69.752
 21
69.495
  0
LINE
  8
0
 10
53.286
 11
53.75
 20
69.495
 21
69.112
  0
LINE
  8
0
 10
53.75
 11
54.103
 20
69.112
 21
68.625
  0
LINE
  8
0
 10
54.103
 11
54.325
 20
68.625
 21
68.066
  0
LINE
  8
0
 10
54.325
 11
54.4
 20
68.066
 21
67.469
  0
LINE
  8
0
 10
54.4
 11
54.325
 20
67.469
 21
66.872
  0
LINE
  8
0
 10
54.325
 11
54.103
 20
66.872
 21
66.313
  0
LINE
  8
0
 10
54.103
 11
53.75
 20
66.313
 21
65.826
  0
LINE
  8
0
 10
53.75
 11
53.286
 20
65.826
 21
65.443
  0
LINE
  8
0
 10
53.286
 11
52.742
 20
65.443
 21
65.186
  0
LINE
  8
0
 10
52.742
 11
52.151
 20
65.186
 21
65.074
  0
LINE
  8
0
 10
52.151
 11
51.55
 20
65.074
 21
65.112
  0
LINE
  8
0
 10
51.55
 11
50.978
 20
65.112
 21
65.297
  0
LINE
  8
0
 10
50.978
 11
50.47
 20
65.297
 21
65.62
  0
LINE
  8
0
 10
50.47
 11
50.058
 20
65.62
 21
66.058
  0
LINE
  8
0
 10
50.058
 11
49.769
 20
66.058
 21
66.586
  0
LINE
  8
0
 10
49.769
 11
49.619
 20
66.586
 21
67.168
  0
ENDSEC
  0
SECTION
  2
OBJECTS
  0
DICTIONARY
  0
ENDSEC
  0
EOF
