  0
SECTION
  2
BLOCKS
  0
ENDSEC
  0
SECTION
  2
ENTITIES
  0
LINE
  8
0
 10
0
 11
0
 20
0
 21
71.438
  0
LINE
  8
0
 10
0
 11
88
 20
71.438
 21
71.438
  0
LINE
  8
0
 10
88
 11
88
 20
71.438
 21
0
  0
LINE
  8
0
 10
88
 11
0
 20
0
 21
0
  0
LINE
  8
0
 10
1.619
 11
1.619
 20
3.668
 21
4.27
  0
LINE
  8
0
 10
1.619
 11
1.769
 20
4.27
 21
4.852
  0
LINE
  8
0
 10
1.769
 11
2.058
 20
4.852
 21
5.379
  0
LINE
  8
0
 10
2.058
 11
2.47
 20
5.379
 21
5.818
  0
LINE
  8
0
 10
2.47
 11
2.978
 20
5.818
 21
6.14
  0
LINE
  8
0
 10
2.978
 11
3.55
 20
6.14
 21
6.326
  0
LINE
  8
0
 10
3.55
 11
4.151
 20
6.326
 21
6.364
  0
LINE
  8
0
 10
4.151
 11
4.742
 20
6.364
 21
6.251
  0
LINE
  8
0
 10
4.742
 11
5.286
 20
6.251
 21
5.995
  0
LINE
  8
0
 10
5.286
 11
5.75
 20
5.995
 21
5.612
  0
LINE
  8
0
 10
5.75
 11
6.103
 20
5.612
 21
5.125
  0
LINE
  8
0
 10
6.103
 11
6.325
 20
5.125
 21
4.566
  0
LINE
  8
0
 10
6.325
 11
6.4
 20
4.566
 21
3.969
  0
LINE
  8
0
 10
6.4
 11
6.325
 20
3.969
 21
3.372
  0
LINE
  8
0
 10
6.325
 11
6.103
 20
3.372
 21
2.813
  0
LINE
  8
0
 10
6.103
 11
5.75
 20
2.813
 21
2.326
  0
LINE
  8
0
 10
5.75
 11
5.286
 20
2.326
 21
1.942
  0
LINE
  8
0
 10
5.286
 11
4.742
 20
1.942
 21
1.686
  0
LINE
  8
0
 10
4.742
 11
4.151
 20
1.686
 21
1.573
  0
LINE
  8
0
 10
4.151
 11
3.55
 20
1.573
 21
1.611
  0
LINE
  8
0
 10
3.55
 11
2.978
 20
1.611
 21
1.797
  0
LINE
  8
0
 10
2.978
 11
2.47
 20
1.797
 21
2.12
  0
LINE
  8
0
 10
2.47
 11
2.058
 20
2.12
 21
2.558
  0
LINE
  8
0
 10
2.058
 11
1.769
 20
2.558
 21
3.085
  0
LINE
  8
0
 10
1.769
 11
1.619
 20
3.085
 21
3.668
  0
LINE
  8
0
 10
1.619
 11
1.619
 20
67.168
 21
67.77
  0
LINE
  8
0
 10
1.619
 11
1.769
 20
67.77
 21
68.352
  0
LINE
  8
0
 10
1.769
 11
2.058
 20
68.352
 21
68.879
  0
LINE
  8
0
 10
2.058
 11
2.47
 20
68.879
 21
69.318
  0
LINE
  8
0
 10
2.47
 11
2.978
 20
69.318
 21
69.64
  0
LINE
  8
0
 10
2.978
 11
3.55
 20
69.64
 21
69.826
  0
LINE
  8
0
 10
3.55
 11
4.151
 20
69.826
 21
69.864
  0
LINE
  8
0
 10
4.151
 11
4.742
 20
69.864
 21
69.751
  0
LINE
  8
0
 10
4.742
 11
5.286
 20
69.751
 21
69.495
  0
LINE
  8
0
 10
5.286
 11
5.75
 20
69.495
 21
69.112
  0
LINE
  8
0
 10
5.75
 11
6.103
 20
69.112
 21
68.625
  0
LINE
  8
0
 10
6.103
 11
6.325
 20
68.625
 21
68.066
  0
LINE
  8
0
 10
6.325
 11
6.4
 20
68.066
 21
67.469
  0
LINE
  8
0
 10
6.4
 11
6.325
 20
67.469
 21
66.872
  0
LINE
  8
0
 10
6.325
 11
6.103
 20
66.872
 21
66.313
  0
LINE
  8
0
 10
6.103
 11
5.75
 20
66.313
 21
65.826
  0
LINE
  8
0
 10
5.75
 11
5.286
 20
65.826
 21
65.442
  0
LINE
  8
0
 10
5.286
 11
4.742
 20
65.442
 21
65.186
  0
LINE
  8
0
 10
4.742
 11
4.151
 20
65.186
 21
65.073
  0
LINE
  8
0
 10
4.151
 11
3.55
 20
65.073
 21
65.111
  0
LINE
  8
0
 10
3.55
 11
2.978
 20
65.111
 21
65.297
  0
LINE
  8
0
 10
2.978
 11
2.47
 20
65.297
 21
65.62
  0
LINE
  8
0
 10
2.47
 11
2.058
 20
65.62
 21
66.058
  0
LINE
  8
0
 10
2.058
 11
1.769
 20
66.058
 21
66.585
  0
LINE
  8
0
 10
1.769
 11
1.619
 20
66.585
 21
67.168
  0
LINE
  8
0
 10
9.619
 11
9.619
 20
3.668
 21
4.27
  0
LINE
  8
0
 10
9.619
 11
9.769
 20
4.27
 21
4.852
  0
LINE
  8
0
 10
9.769
 11
10.058
 20
4.852
 21
5.379
  0
LINE
  8
0
 10
10.058
 11
10.47
 20
5.379
 21
5.818
  0
LINE
  8
0
 10
10.47
 11
10.978
 20
5.818
 21
6.14
  0
LINE
  8
0
 10
10.978
 11
11.55
 20
6.14
 21
6.326
  0
LINE
  8
0
 10
11.55
 11
12.151
 20
6.326
 21
6.364
  0
LINE
  8
0
 10
12.151
 11
12.742
 20
6.364
 21
6.251
  0
LINE
  8
0
 10
12.742
 11
13.286
 20
6.251
 21
5.995
  0
LINE
  8
0
 10
13.286
 11
13.75
 20
5.995
 21
5.612
  0
LINE
  8
0
 10
13.75
 11
14.103
 20
5.612
 21
5.125
  0
LINE
  8
0
 10
14.103
 11
14.325
 20
5.125
 21
4.566
  0
LINE
  8
0
 10
14.325
 11
14.4
 20
4.566
 21
3.969
  0
LINE
  8
0
 10
14.4
 11
14.325
 20
3.969
 21
3.372
  0
LINE
  8
0
 10
14.325
 11
14.103
 20
3.372
 21
2.813
  0
LINE
  8
0
 10
14.103
 11
13.75
 20
2.813
 21
2.326
  0
LINE
  8
0
 10
13.75
 11
13.286
 20
2.326
 21
1.942
  0
LINE
  8
0
 10
13.286
 11
12.742
 20
1.942
 21
1.686
  0
LINE
  8
0
 10
12.742
 11
12.151
 20
1.686
 21
1.573
  0
LINE
  8
0
 10
12.151
 11
11.55
 20
1.573
 21
1.611
  0
LINE
  8
0
 10
11.55
 11
10.978
 20
1.611
 21
1.797
  0
LINE
  8
0
 10
10.978
 11
10.47
 20
1.797
 21
2.12
  0
LINE
  8
0
 10
10.47
 11
10.058
 20
2.12
 21
2.558
  0
LINE
  8
0
 10
10.058
 11
9.769
 20
2.558
 21
3.085
  0
LINE
  8
0
 10
9.769
 11
9.619
 20
3.085
 21
3.668
  0
LINE
  8
0
 10
9.619
 11
9.619
 20
67.168
 21
67.77
  0
LINE
  8
0
 10
9.619
 11
9.769
 20
67.77
 21
68.352
  0
LINE
  8
0
 10
9.769
 11
10.058
 20
68.352
 21
68.879
  0
LINE
  8
0
 10
10.058
 11
10.47
 20
68.879
 21
69.318
  0
LINE
  8
0
 10
10.47
 11
10.978
 20
69.318
 21
69.64
  0
LINE
  8
0
 10
10.978
 11
11.55
 20
69.64
 21
69.826
  0
LINE
  8
0
 10
11.55
 11
12.151
 20
69.826
 21
69.864
  0
LINE
  8
0
 10
12.151
 11
12.742
 20
69.864
 21
69.751
  0
LINE
  8
0
 10
12.742
 11
13.286
 20
69.751
 21
69.495
  0
LINE
  8
0
 10
13.286
 11
13.75
 20
69.495
 21
69.112
  0
LINE
  8
0
 10
13.75
 11
14.103
 20
69.112
 21
68.625
  0
LINE
  8
0
 10
14.103
 11
14.325
 20
68.625
 21
68.066
  0
LINE
  8
0
 10
14.325
 11
14.4
 20
68.066
 21
67.469
  0
LINE
  8
0
 10
14.4
 11
14.325
 20
67.469
 21
66.872
  0
LINE
  8
0
 10
14.325
 11
14.103
 20
66.872
 21
66.313
  0
LINE
  8
0
 10
14.103
 11
13.75
 20
66.313
 21
65.826
  0
LINE
  8
0
 10
13.75
 11
13.286
 20
65.826
 21
65.442
  0
LINE
  8
0
 10
13.286
 11
12.742
 20
65.442
 21
65.186
  0
LINE
  8
0
 10
12.742
 11
12.151
 20
65.186
 21
65.073
  0
LINE
  8
0
 10
12.151
 11
11.55
 20
65.073
 21
65.111
  0
LINE
  8
0
 10
11.55
 11
10.978
 20
65.111
 21
65.297
  0
LINE
  8
0
 10
10.978
 11
10.47
 20
65.297
 21
65.62
  0
LINE
  8
0
 10
10.47
 11
10.058
 20
65.62
 21
66.058
  0
LINE
  8
0
 10
10.058
 11
9.769
 20
66.058
 21
66.585
  0
LINE
  8
0
 10
9.769
 11
9.619
 20
66.585
 21
67.168
  0
LINE
  8
0
 10
17.619
 11
17.619
 20
3.668
 21
4.27
  0
LINE
  8
0
 10
17.619
 11
17.769
 20
4.27
 21
4.852
  0
LINE
  8
0
 10
17.769
 11
18.058
 20
4.852
 21
5.379
  0
LINE
  8
0
 10
18.058
 11
18.47
 20
5.379
 21
5.818
  0
LINE
  8
0
 10
18.47
 11
18.978
 20
5.818
 21
6.14
  0
LINE
  8
0
 10
18.978
 11
19.55
 20
6.14
 21
6.326
  0
LINE
  8
0
 10
19.55
 11
20.151
 20
6.326
 21
6.364
  0
LINE
  8
0
 10
20.151
 11
20.742
 20
6.364
 21
6.251
  0
LINE
  8
0
 10
20.742
 11
21.286
 20
6.251
 21
5.995
  0
LINE
  8
0
 10
21.286
 11
21.75
 20
5.995
 21
5.612
  0
LINE
  8
0
 10
21.75
 11
22.103
 20
5.612
 21
5.125
  0
LINE
  8
0
 10
22.103
 11
22.325
 20
5.125
 21
4.566
  0
LINE
  8
0
 10
22.325
 11
22.4
 20
4.566
 21
3.969
  0
LINE
  8
0
 10
22.4
 11
22.325
 20
3.969
 21
3.372
  0
LINE
  8
0
 10
22.325
 11
22.103
 20
3.372
 21
2.813
  0
LINE
  8
0
 10
22.103
 11
21.75
 20
2.813
 21
2.326
  0
LINE
  8
0
 10
21.75
 11
21.286
 20
2.326
 21
1.942
  0
LINE
  8
0
 10
21.286
 11
20.742
 20
1.942
 21
1.686
  0
LINE
  8
0
 10
20.742
 11
20.151
 20
1.686
 21
1.573
  0
LINE
  8
0
 10
20.151
 11
19.55
 20
1.573
 21
1.611
  0
LINE
  8
0
 10
19.55
 11
18.978
 20
1.611
 21
1.797
  0
LINE
  8
0
 10
18.978
 11
18.47
 20
1.797
 21
2.12
  0
LINE
  8
0
 10
18.47
 11
18.058
 20
2.12
 21
2.558
  0
LINE
  8
0
 10
18.058
 11
17.769
 20
2.558
 21
3.085
  0
LINE
  8
0
 10
17.769
 11
17.619
 20
3.085
 21
3.668
  0
LINE
  8
0
 10
17.619
 11
17.619
 20
67.168
 21
67.77
  0
LINE
  8
0
 10
17.619
 11
17.769
 20
67.77
 21
68.352
  0
LINE
  8
0
 10
17.769
 11
18.058
 20
68.352
 21
68.879
  0
LINE
  8
0
 10
18.058
 11
18.47
 20
68.879
 21
69.318
  0
LINE
  8
0
 10
18.47
 11
18.978
 20
69.318
 21
69.64
  0
LINE
  8
0
 10
18.978
 11
19.55
 20
69.64
 21
69.826
  0
LINE
  8
0
 10
19.55
 11
20.151
 20
69.826
 21
69.864
  0
LINE
  8
0
 10
20.151
 11
20.742
 20
69.864
 21
69.751
  0
LINE
  8
0
 10
20.742
 11
21.286
 20
69.751
 21
69.495
  0
LINE
  8
0
 10
21.286
 11
21.75
 20
69.495
 21
69.112
  0
LINE
  8
0
 10
21.75
 11
22.103
 20
69.112
 21
68.625
  0
LINE
  8
0
 10
22.103
 11
22.325
 20
68.625
 21
68.066
  0
LINE
  8
0
 10
22.325
 11
22.4
 20
68.066
 21
67.469
  0
LINE
  8
0
 10
22.4
 11
22.325
 20
67.469
 21
66.872
  0
LINE
  8
0
 10
22.325
 11
22.103
 20
66.872
 21
66.313
  0
LINE
  8
0
 10
22.103
 11
21.75
 20
66.313
 21
65.826
  0
LINE
  8
0
 10
21.75
 11
21.286
 20
65.826
 21
65.442
  0
LINE
  8
0
 10
21.286
 11
20.742
 20
65.442
 21
65.186
  0
LINE
  8
0
 10
20.742
 11
20.151
 20
65.186
 21
65.073
  0
LINE
  8
0
 10
20.151
 11
19.55
 20
65.073
 21
65.111
  0
LINE
  8
0
 10
19.55
 11
18.978
 20
65.111
 21
65.297
  0
LINE
  8
0
 10
18.978
 11
18.47
 20
65.297
 21
65.62
  0
LINE
  8
0
 10
18.47
 11
18.058
 20
65.62
 21
66.058
  0
LINE
  8
0
 10
18.058
 11
17.769
 20
66.058
 21
66.585
  0
LINE
  8
0
 10
17.769
 11
17.619
 20
66.585
 21
67.168
  0
LINE
  8
0
 10
24.012
 11
24.012
 20
25.812
 21
26.188
  0
LINE
  8
0
 10
24.012
 11
24.105
 20
26.188
 21
26.552
  0
LINE
  8
0
 10
24.105
 11
24.286
 20
26.552
 21
26.882
  0
LINE
  8
0
 10
24.286
 11
24.544
 20
26.882
 21
27.156
  0
LINE
  8
0
 10
24.544
 11
24.861
 20
27.156
 21
27.357
  0
LINE
  8
0
 10
24.861
 11
25.219
 20
27.357
 21
27.473
  0
LINE
  8
0
 10
25.219
 11
25.594
 20
27.473
 21
27.497
  0
LINE
  8
0
 10
25.594
 11
25.964
 20
27.497
 21
27.427
  0
LINE
  8
0
 10
25.964
 11
26.304
 20
27.427
 21
27.266
  0
LINE
  8
0
 10
26.304
 11
26.593
 20
27.266
 21
27.027
  0
LINE
  8
0
 10
26.593
 11
26.814
 20
27.027
 21
26.723
  0
LINE
  8
0
 10
26.814
 11
26.953
 20
26.723
 21
26.373
  0
LINE
  8
0
 10
26.953
 11
27
 20
26.373
 21
26
  0
LINE
  8
0
 10
27
 11
26.953
 20
26
 21
25.627
  0
LINE
  8
0
 10
26.953
 11
26.814
 20
25.627
 21
25.277
  0
LINE
  8
0
 10
26.814
 11
26.593
 20
25.277
 21
24.973
  0
LINE
  8
0
 10
26.593
 11
26.304
 20
24.973
 21
24.734
  0
LINE
  8
0
 10
26.304
 11
25.964
 20
24.734
 21
24.573
  0
LINE
  8
0
 10
25.964
 11
25.594
 20
24.573
 21
24.503
  0
LINE
  8
0
 10
25.594
 11
25.219
 20
24.503
 21
24.527
  0
LINE
  8
0
 10
25.219
 11
24.861
 20
24.527
 21
24.643
  0
LINE
  8
0
 10
24.861
 11
24.544
 20
24.643
 21
24.844
  0
LINE
  8
0
 10
24.544
 11
24.286
 20
24.844
 21
25.118
  0
LINE
  8
0
 10
24.286
 11
24.105
 20
25.118
 21
25.448
  0
LINE
  8
0
 10
24.105
 11
24.012
 20
25.448
 21
25.812
  0
LINE
  8
0
 10
25.619
 11
25.619
 20
3.668
 21
4.27
  0
LINE
  8
0
 10
25.619
 11
25.769
 20
4.27
 21
4.852
  0
LINE
  8
0
 10
25.769
 11
26.058
 20
4.852
 21
5.379
  0
LINE
  8
0
 10
26.058
 11
26.47
 20
5.379
 21
5.818
  0
LINE
  8
0
 10
26.47
 11
26.978
 20
5.818
 21
6.14
  0
LINE
  8
0
 10
26.978
 11
27.55
 20
6.14
 21
6.326
  0
LINE
  8
0
 10
27.55
 11
28.151
 20
6.326
 21
6.364
  0
LINE
  8
0
 10
28.151
 11
28.742
 20
6.364
 21
6.251
  0
LINE
  8
0
 10
28.742
 11
29.286
 20
6.251
 21
5.995
  0
LINE
  8
0
 10
29.286
 11
29.75
 20
5.995
 21
5.612
  0
LINE
  8
0
 10
29.75
 11
30.103
 20
5.612
 21
5.125
  0
LINE
  8
0
 10
30.103
 11
30.325
 20
5.125
 21
4.566
  0
LINE
  8
0
 10
30.325
 11
30.4
 20
4.566
 21
3.969
  0
LINE
  8
0
 10
30.4
 11
30.325
 20
3.969
 21
3.372
  0
LINE
  8
0
 10
30.325
 11
30.103
 20
3.372
 21
2.813
  0
LINE
  8
0
 10
30.103
 11
29.75
 20
2.813
 21
2.326
  0
LINE
  8
0
 10
29.75
 11
29.286
 20
2.326
 21
1.942
  0
LINE
  8
0
 10
29.286
 11
28.742
 20
1.942
 21
1.686
  0
LINE
  8
0
 10
28.742
 11
28.151
 20
1.686
 21
1.573
  0
LINE
  8
0
 10
28.151
 11
27.55
 20
1.573
 21
1.611
  0
LINE
  8
0
 10
27.55
 11
26.978
 20
1.611
 21
1.797
  0
LINE
  8
0
 10
26.978
 11
26.47
 20
1.797
 21
2.12
  0
LINE
  8
0
 10
26.47
 11
26.058
 20
2.12
 21
2.558
  0
LINE
  8
0
 10
26.058
 11
25.769
 20
2.558
 21
3.085
  0
LINE
  8
0
 10
25.769
 11
25.619
 20
3.085
 21
3.668
  0
LINE
  8
0
 10
25.619
 11
25.619
 20
67.168
 21
67.77
  0
LINE
  8
0
 10
25.619
 11
25.769
 20
67.77
 21
68.352
  0
LINE
  8
0
 10
25.769
 11
26.058
 20
68.352
 21
68.879
  0
LINE
  8
0
 10
26.058
 11
26.47
 20
68.879
 21
69.318
  0
LINE
  8
0
 10
26.47
 11
26.978
 20
69.318
 21
69.64
  0
LINE
  8
0
 10
26.978
 11
27.55
 20
69.64
 21
69.826
  0
LINE
  8
0
 10
27.55
 11
28.151
 20
69.826
 21
69.864
  0
LINE
  8
0
 10
28.151
 11
28.742
 20
69.864
 21
69.751
  0
LINE
  8
0
 10
28.742
 11
29.286
 20
69.751
 21
69.495
  0
LINE
  8
0
 10
29.286
 11
29.75
 20
69.495
 21
69.112
  0
LINE
  8
0
 10
29.75
 11
30.103
 20
69.112
 21
68.625
  0
LINE
  8
0
 10
30.103
 11
30.325
 20
68.625
 21
68.066
  0
LINE
  8
0
 10
30.325
 11
30.4
 20
68.066
 21
67.469
  0
LINE
  8
0
 10
30.4
 11
30.325
 20
67.469
 21
66.872
  0
LINE
  8
0
 10
30.325
 11
30.103
 20
66.872
 21
66.313
  0
LINE
  8
0
 10
30.103
 11
29.75
 20
66.313
 21
65.826
  0
LINE
  8
0
 10
29.75
 11
29.286
 20
65.826
 21
65.442
  0
LINE
  8
0
 10
29.286
 11
28.742
 20
65.442
 21
65.186
  0
LINE
  8
0
 10
28.742
 11
28.151
 20
65.186
 21
65.073
  0
LINE
  8
0
 10
28.151
 11
27.55
 20
65.073
 21
65.111
  0
LINE
  8
0
 10
27.55
 11
26.978
 20
65.111
 21
65.297
  0
LINE
  8
0
 10
26.978
 11
26.47
 20
65.297
 21
65.62
  0
LINE
  8
0
 10
26.47
 11
26.058
 20
65.62
 21
66.058
  0
LINE
  8
0
 10
26.058
 11
25.769
 20
66.058
 21
66.585
  0
LINE
  8
0
 10
25.769
 11
25.619
 20
66.585
 21
67.168
  0
LINE
  8
0
 10
33.619
 11
33.619
 20
3.668
 21
4.27
  0
LINE
  8
0
 10
33.619
 11
33.769
 20
4.27
 21
4.852
  0
LINE
  8
0
 10
33.769
 11
34.058
 20
4.852
 21
5.379
  0
LINE
  8
0
 10
34.058
 11
34.47
 20
5.379
 21
5.818
  0
LINE
  8
0
 10
34.47
 11
34.978
 20
5.818
 21
6.14
  0
LINE
  8
0
 10
34.978
 11
35.55
 20
6.14
 21
6.326
  0
LINE
  8
0
 10
35.55
 11
36.151
 20
6.326
 21
6.364
  0
LINE
  8
0
 10
36.151
 11
36.742
 20
6.364
 21
6.251
  0
LINE
  8
0
 10
36.742
 11
37.286
 20
6.251
 21
5.995
  0
LINE
  8
0
 10
37.286
 11
37.75
 20
5.995
 21
5.612
  0
LINE
  8
0
 10
37.75
 11
38.103
 20
5.612
 21
5.125
  0
LINE
  8
0
 10
38.103
 11
38.325
 20
5.125
 21
4.566
  0
LINE
  8
0
 10
38.325
 11
38.4
 20
4.566
 21
3.969
  0
LINE
  8
0
 10
38.4
 11
38.325
 20
3.969
 21
3.372
  0
LINE
  8
0
 10
38.325
 11
38.103
 20
3.372
 21
2.813
  0
LINE
  8
0
 10
38.103
 11
37.75
 20
2.813
 21
2.326
  0
LINE
  8
0
 10
37.75
 11
37.286
 20
2.326
 21
1.942
  0
LINE
  8
0
 10
37.286
 11
36.742
 20
1.942
 21
1.686
  0
LINE
  8
0
 10
36.742
 11
36.151
 20
1.686
 21
1.573
  0
LINE
  8
0
 10
36.151
 11
35.55
 20
1.573
 21
1.611
  0
LINE
  8
0
 10
35.55
 11
34.978
 20
1.611
 21
1.797
  0
LINE
  8
0
 10
34.978
 11
34.47
 20
1.797
 21
2.12
  0
LINE
  8
0
 10
34.47
 11
34.058
 20
2.12
 21
2.558
  0
LINE
  8
0
 10
34.058
 11
33.769
 20
2.558
 21
3.085
  0
LINE
  8
0
 10
33.769
 11
33.619
 20
3.085
 21
3.668
  0
LINE
  8
0
 10
33.619
 11
33.619
 20
67.168
 21
67.77
  0
LINE
  8
0
 10
33.619
 11
33.769
 20
67.77
 21
68.352
  0
LINE
  8
0
 10
33.769
 11
34.058
 20
68.352
 21
68.879
  0
LINE
  8
0
 10
34.058
 11
34.47
 20
68.879
 21
69.318
  0
LINE
  8
0
 10
34.47
 11
34.978
 20
69.318
 21
69.64
  0
LINE
  8
0
 10
34.978
 11
35.55
 20
69.64
 21
69.826
  0
LINE
  8
0
 10
35.55
 11
36.151
 20
69.826
 21
69.864
  0
LINE
  8
0
 10
36.151
 11
36.742
 20
69.864
 21
69.751
  0
LINE
  8
0
 10
36.742
 11
37.286
 20
69.751
 21
69.495
  0
LINE
  8
0
 10
37.286
 11
37.75
 20
69.495
 21
69.112
  0
LINE
  8
0
 10
37.75
 11
38.103
 20
69.112
 21
68.625
  0
LINE
  8
0
 10
38.103
 11
38.325
 20
68.625
 21
68.066
  0
LINE
  8
0
 10
38.325
 11
38.4
 20
68.066
 21
67.469
  0
LINE
  8
0
 10
38.4
 11
38.325
 20
67.469
 21
66.872
  0
LINE
  8
0
 10
38.325
 11
38.103
 20
66.872
 21
66.313
  0
LINE
  8
0
 10
38.103
 11
37.75
 20
66.313
 21
65.826
  0
LINE
  8
0
 10
37.75
 11
37.286
 20
65.826
 21
65.442
  0
LINE
  8
0
 10
37.286
 11
36.742
 20
65.442
 21
65.186
  0
LINE
  8
0
 10
36.742
 11
36.151
 20
65.186
 21
65.073
  0
LINE
  8
0
 10
36.151
 11
35.55
 20
65.073
 21
65.111
  0
LINE
  8
0
 10
35.55
 11
34.978
 20
65.111
 21
65.297
  0
LINE
  8
0
 10
34.978
 11
34.47
 20
65.297
 21
65.62
  0
LINE
  8
0
 10
34.47
 11
34.058
 20
65.62
 21
66.058
  0
LINE
  8
0
 10
34.058
 11
33.769
 20
66.058
 21
66.585
  0
LINE
  8
0
 10
33.769
 11
33.619
 20
66.585
 21
67.168
  0
LINE
  8
0
 10
41.619
 11
41.619
 20
3.668
 21
4.27
  0
LINE
  8
0
 10
41.619
 11
41.769
 20
4.27
 21
4.852
  0
LINE
  8
0
 10
41.769
 11
42.058
 20
4.852
 21
5.379
  0
LINE
  8
0
 10
42.058
 11
42.47
 20
5.379
 21
5.818
  0
LINE
  8
0
 10
42.47
 11
42.978
 20
5.818
 21
6.14
  0
LINE
  8
0
 10
42.978
 11
43.55
 20
6.14
 21
6.326
  0
LINE
  8
0
 10
43.55
 11
44.151
 20
6.326
 21
6.364
  0
LINE
  8
0
 10
44.151
 11
44.742
 20
6.364
 21
6.251
  0
LINE
  8
0
 10
44.742
 11
45.286
 20
6.251
 21
5.995
  0
LINE
  8
0
 10
45.286
 11
45.75
 20
5.995
 21
5.612
  0
LINE
  8
0
 10
45.75
 11
46.103
 20
5.612
 21
5.125
  0
LINE
  8
0
 10
46.103
 11
46.325
 20
5.125
 21
4.566
  0
LINE
  8
0
 10
46.325
 11
46.4
 20
4.566
 21
3.969
  0
LINE
  8
0
 10
46.4
 11
46.325
 20
3.969
 21
3.372
  0
LINE
  8
0
 10
46.325
 11
46.103
 20
3.372
 21
2.813
  0
LINE
  8
0
 10
46.103
 11
45.75
 20
2.813
 21
2.326
  0
LINE
  8
0
 10
45.75
 11
45.286
 20
2.326
 21
1.942
  0
LINE
  8
0
 10
45.286
 11
44.742
 20
1.942
 21
1.686
  0
LINE
  8
0
 10
44.742
 11
44.151
 20
1.686
 21
1.573
  0
LINE
  8
0
 10
44.151
 11
43.55
 20
1.573
 21
1.611
  0
LINE
  8
0
 10
43.55
 11
42.978
 20
1.611
 21
1.797
  0
LINE
  8
0
 10
42.978
 11
42.47
 20
1.797
 21
2.12
  0
LINE
  8
0
 10
42.47
 11
42.058
 20
2.12
 21
2.558
  0
LINE
  8
0
 10
42.058
 11
41.769
 20
2.558
 21
3.085
  0
LINE
  8
0
 10
41.769
 11
41.619
 20
3.085
 21
3.668
  0
LINE
  8
0
 10
41.619
 11
41.619
 20
67.168
 21
67.77
  0
LINE
  8
0
 10
41.619
 11
41.769
 20
67.77
 21
68.352
  0
LINE
  8
0
 10
41.769
 11
42.058
 20
68.352
 21
68.879
  0
LINE
  8
0
 10
42.058
 11
42.47
 20
68.879
 21
69.318
  0
LINE
  8
0
 10
42.47
 11
42.978
 20
69.318
 21
69.64
  0
LINE
  8
0
 10
42.978
 11
43.55
 20
69.64
 21
69.826
  0
LINE
  8
0
 10
43.55
 11
44.151
 20
69.826
 21
69.864
  0
LINE
  8
0
 10
44.151
 11
44.742
 20
69.864
 21
69.751
  0
LINE
  8
0
 10
44.742
 11
45.286
 20
69.751
 21
69.495
  0
LINE
  8
0
 10
45.286
 11
45.75
 20
69.495
 21
69.112
  0
LINE
  8
0
 10
45.75
 11
46.103
 20
69.112
 21
68.625
  0
LINE
  8
0
 10
46.103
 11
46.325
 20
68.625
 21
68.066
  0
LINE
  8
0
 10
46.325
 11
46.4
 20
68.066
 21
67.469
  0
LINE
  8
0
 10
46.4
 11
46.325
 20
67.469
 21
66.872
  0
LINE
  8
0
 10
46.325
 11
46.103
 20
66.872
 21
66.313
  0
LINE
  8
0
 10
46.103
 11
45.75
 20
66.313
 21
65.826
  0
LINE
  8
0
 10
45.75
 11
45.286
 20
65.826
 21
65.442
  0
LINE
  8
0
 10
45.286
 11
44.742
 20
65.442
 21
65.186
  0
LINE
  8
0
 10
44.742
 11
44.151
 20
65.186
 21
65.073
  0
LINE
  8
0
 10
44.151
 11
43.55
 20
65.073
 21
65.111
  0
LINE
  8
0
 10
43.55
 11
42.978
 20
65.111
 21
65.297
  0
LINE
  8
0
 10
42.978
 11
42.47
 20
65.297
 21
65.62
  0
LINE
  8
0
 10
42.47
 11
42.058
 20
65.62
 21
66.058
  0
LINE
  8
0
 10
42.058
 11
41.769
 20
66.058
 21
66.585
  0
LINE
  8
0
 10
41.769
 11
41.619
 20
66.585
 21
67.168
  0
LINE
  8
0
 10
49.619
 11
49.619
 20
3.668
 21
4.27
  0
LINE
  8
0
 10
49.619
 11
49.769
 20
4.27
 21
4.852
  0
LINE
  8
0
 10
49.769
 11
50.058
 20
4.852
 21
5.379
  0
LINE
  8
0
 10
50.058
 11
50.47
 20
5.379
 21
5.818
  0
LINE
  8
0
 10
50.47
 11
50.978
 20
5.818
 21
6.14
  0
LINE
  8
0
 10
50.978
 11
51.55
 20
6.14
 21
6.326
  0
LINE
  8
0
 10
51.55
 11
52.151
 20
6.326
 21
6.364
  0
LINE
  8
0
 10
52.151
 11
52.742
 20
6.364
 21
6.251
  0
LINE
  8
0
 10
52.742
 11
53.286
 20
6.251
 21
5.995
  0
LINE
  8
0
 10
53.286
 11
53.75
 20
5.995
 21
5.612
  0
LINE
  8
0
 10
53.75
 11
54.103
 20
5.612
 21
5.125
  0
LINE
  8
0
 10
54.103
 11
54.325
 20
5.125
 21
4.566
  0
LINE
  8
0
 10
54.325
 11
54.4
 20
4.566
 21
3.969
  0
LINE
  8
0
 10
54.4
 11
54.325
 20
3.969
 21
3.372
  0
LINE
  8
0
 10
54.325
 11
54.103
 20
3.372
 21
2.813
  0
LINE
  8
0
 10
54.103
 11
53.75
 20
2.813
 21
2.326
  0
LINE
  8
0
 10
53.75
 11
53.286
 20
2.326
 21
1.942
  0
LINE
  8
0
 10
53.286
 11
52.742
 20
1.942
 21
1.686
  0
LINE
  8
0
 10
52.742
 11
52.151
 20
1.686
 21
1.573
  0
LINE
  8
0
 10
52.151
 11
51.55
 20
1.573
 21
1.611
  0
LINE
  8
0
 10
51.55
 11
50.978
 20
1.611
 21
1.797
  0
LINE
  8
0
 10
50.978
 11
50.47
 20
1.797
 21
2.12
  0
LINE
  8
0
 10
50.47
 11
50.058
 20
2.12
 21
2.558
  0
LINE
  8
0
 10
50.058
 11
49.769
 20
2.558
 21
3.085
  0
LINE
  8
0
 10
49.769
 11
49.619
 20
3.085
 21
3.668
  0
LINE
  8
0
 10
49.619
 11
49.619
 20
67.168
 21
67.77
  0
LINE
  8
0
 10
49.619
 11
49.769
 20
67.77
 21
68.352
  0
LINE
  8
0
 10
49.769
 11
50.058
 20
68.352
 21
68.879
  0
LINE
  8
0
 10
50.058
 11
50.47
 20
68.879
 21
69.318
  0
LINE
  8
0
 10
50.47
 11
50.978
 20
69.318
 21
69.64
  0
LINE
  8
0
 10
50.978
 11
51.55
 20
69.64
 21
69.826
  0
LINE
  8
0
 10
51.55
 11
52.151
 20
69.826
 21
69.864
  0
LINE
  8
0
 10
52.151
 11
52.742
 20
69.864
 21
69.751
  0
LINE
  8
0
 10
52.742
 11
53.286
 20
69.751
 21
69.495
  0
LINE
  8
0
 10
53.286
 11
53.75
 20
69.495
 21
69.112
  0
LINE
  8
0
 10
53.75
 11
54.103
 20
69.112
 21
68.625
  0
LINE
  8
0
 10
54.103
 11
54.325
 20
68.625
 21
68.066
  0
LINE
  8
0
 10
54.325
 11
54.4
 20
68.066
 21
67.469
  0
LINE
  8
0
 10
54.4
 11
54.325
 20
67.469
 21
66.872
  0
LINE
  8
0
 10
54.325
 11
54.103
 20
66.872
 21
66.313
  0
LINE
  8
0
 10
54.103
 11
53.75
 20
66.313
 21
65.826
  0
LINE
  8
0
 10
53.75
 11
53.286
 20
65.826
 21
65.442
  0
LINE
  8
0
 10
53.286
 11
52.742
 20
65.442
 21
65.186
  0
LINE
  8
0
 10
52.742
 11
52.151
 20
65.186
 21
65.073
  0
LINE
  8
0
 10
52.151
 11
51.55
 20
65.073
 21
65.111
  0
LINE
  8
0
 10
51.55
 11
50.978
 20
65.111
 21
65.297
  0
LINE
  8
0
 10
50.978
 11
50.47
 20
65.297
 21
65.62
  0
LINE
  8
0
 10
50.47
 11
50.058
 20
65.62
 21
66.058
  0
LINE
  8
0
 10
50.058
 11
49.769
 20
66.058
 21
66.585
  0
LINE
  8
0
 10
49.769
 11
49.619
 20
66.585
 21
67.168
  0
LINE
  8
0
 10
57.619
 11
57.619
 20
3.668
 21
4.27
  0
LINE
  8
0
 10
57.619
 11
57.769
 20
4.27
 21
4.852
  0
LINE
  8
0
 10
57.769
 11
58.058
 20
4.852
 21
5.379
  0
LINE
  8
0
 10
58.058
 11
58.47
 20
5.379
 21
5.818
  0
LINE
  8
0
 10
58.47
 11
58.978
 20
5.818
 21
6.14
  0
LINE
  8
0
 10
58.978
 11
59.55
 20
6.14
 21
6.326
  0
LINE
  8
0
 10
59.55
 11
60.151
 20
6.326
 21
6.364
  0
LINE
  8
0
 10
60.151
 11
60.742
 20
6.364
 21
6.251
  0
LINE
  8
0
 10
60.742
 11
61.286
 20
6.251
 21
5.995
  0
LINE
  8
0
 10
61.286
 11
61.75
 20
5.995
 21
5.612
  0
LINE
  8
0
 10
61.75
 11
62.103
 20
5.612
 21
5.125
  0
LINE
  8
0
 10
62.103
 11
62.325
 20
5.125
 21
4.566
  0
LINE
  8
0
 10
62.325
 11
62.4
 20
4.566
 21
3.969
  0
LINE
  8
0
 10
62.4
 11
62.325
 20
3.969
 21
3.372
  0
LINE
  8
0
 10
62.325
 11
62.103
 20
3.372
 21
2.813
  0
LINE
  8
0
 10
62.103
 11
61.75
 20
2.813
 21
2.326
  0
LINE
  8
0
 10
61.75
 11
61.286
 20
2.326
 21
1.942
  0
LINE
  8
0
 10
61.286
 11
60.742
 20
1.942
 21
1.686
  0
LINE
  8
0
 10
60.742
 11
60.151
 20
1.686
 21
1.573
  0
LINE
  8
0
 10
60.151
 11
59.55
 20
1.573
 21
1.611
  0
LINE
  8
0
 10
59.55
 11
58.978
 20
1.611
 21
1.797
  0
LINE
  8
0
 10
58.978
 11
58.47
 20
1.797
 21
2.12
  0
LINE
  8
0
 10
58.47
 11
58.058
 20
2.12
 21
2.558
  0
LINE
  8
0
 10
58.058
 11
57.769
 20
2.558
 21
3.085
  0
LINE
  8
0
 10
57.769
 11
57.619
 20
3.085
 21
3.668
  0
LINE
  8
0
 10
57.619
 11
57.619
 20
67.168
 21
67.77
  0
LINE
  8
0
 10
57.619
 11
57.769
 20
67.77
 21
68.352
  0
LINE
  8
0
 10
57.769
 11
58.058
 20
68.352
 21
68.879
  0
LINE
  8
0
 10
58.058
 11
58.47
 20
68.879
 21
69.318
  0
LINE
  8
0
 10
58.47
 11
58.978
 20
69.318
 21
69.64
  0
LINE
  8
0
 10
58.978
 11
59.55
 20
69.64
 21
69.826
  0
LINE
  8
0
 10
59.55
 11
60.151
 20
69.826
 21
69.864
  0
LINE
  8
0
 10
60.151
 11
60.742
 20
69.864
 21
69.751
  0
LINE
  8
0
 10
60.742
 11
61.286
 20
69.751
 21
69.495
  0
LINE
  8
0
 10
61.286
 11
61.75
 20
69.495
 21
69.112
  0
LINE
  8
0
 10
61.75
 11
62.103
 20
69.112
 21
68.625
  0
LINE
  8
0
 10
62.103
 11
62.325
 20
68.625
 21
68.066
  0
LINE
  8
0
 10
62.325
 11
62.4
 20
68.066
 21
67.469
  0
LINE
  8
0
 10
62.4
 11
62.325
 20
67.469
 21
66.872
  0
LINE
  8
0
 10
62.325
 11
62.103
 20
66.872
 21
66.313
  0
LINE
  8
0
 10
62.103
 11
61.75
 20
66.313
 21
65.826
  0
LINE
  8
0
 10
61.75
 11
61.286
 20
65.826
 21
65.442
  0
LINE
  8
0
 10
61.286
 11
60.742
 20
65.442
 21
65.186
  0
LINE
  8
0
 10
60.742
 11
60.151
 20
65.186
 21
65.073
  0
LINE
  8
0
 10
60.151
 11
59.55
 20
65.073
 21
65.111
  0
LINE
  8
0
 10
59.55
 11
58.978
 20
65.111
 21
65.297
  0
LINE
  8
0
 10
58.978
 11
58.47
 20
65.297
 21
65.62
  0
LINE
  8
0
 10
58.47
 11
58.058
 20
65.62
 21
66.058
  0
LINE
  8
0
 10
58.058
 11
57.769
 20
66.058
 21
66.585
  0
LINE
  8
0
 10
57.769
 11
57.619
 20
66.585
 21
67.168
  0
LINE
  8
0
 10
65.619
 11
65.619
 20
3.668
 21
4.27
  0
LINE
  8
0
 10
65.619
 11
65.769
 20
4.27
 21
4.852
  0
LINE
  8
0
 10
65.769
 11
66.058
 20
4.852
 21
5.379
  0
LINE
  8
0
 10
66.058
 11
66.47
 20
5.379
 21
5.818
  0
LINE
  8
0
 10
66.47
 11
66.978
 20
5.818
 21
6.14
  0
LINE
  8
0
 10
66.978
 11
67.55
 20
6.14
 21
6.326
  0
LINE
  8
0
 10
67.55
 11
68.151
 20
6.326
 21
6.364
  0
LINE
  8
0
 10
68.151
 11
68.742
 20
6.364
 21
6.251
  0
LINE
  8
0
 10
68.742
 11
69.286
 20
6.251
 21
5.995
  0
LINE
  8
0
 10
69.286
 11
69.75
 20
5.995
 21
5.612
  0
LINE
  8
0
 10
69.75
 11
70.103
 20
5.612
 21
5.125
  0
LINE
  8
0
 10
70.103
 11
70.325
 20
5.125
 21
4.566
  0
LINE
  8
0
 10
70.325
 11
70.4
 20
4.566
 21
3.969
  0
LINE
  8
0
 10
70.4
 11
70.325
 20
3.969
 21
3.372
  0
LINE
  8
0
 10
70.325
 11
70.103
 20
3.372
 21
2.813
  0
LINE
  8
0
 10
70.103
 11
69.75
 20
2.813
 21
2.326
  0
LINE
  8
0
 10
69.75
 11
69.286
 20
2.326
 21
1.942
  0
LINE
  8
0
 10
69.286
 11
68.742
 20
1.942
 21
1.686
  0
LINE
  8
0
 10
68.742
 11
68.151
 20
1.686
 21
1.573
  0
LINE
  8
0
 10
68.151
 11
67.55
 20
1.573
 21
1.611
  0
LINE
  8
0
 10
67.55
 11
66.978
 20
1.611
 21
1.797
  0
LINE
  8
0
 10
66.978
 11
66.47
 20
1.797
 21
2.12
  0
LINE
  8
0
 10
66.47
 11
66.058
 20
2.12
 21
2.558
  0
LINE
  8
0
 10
66.058
 11
65.769
 20
2.558
 21
3.085
  0
LINE
  8
0
 10
65.769
 11
65.619
 20
3.085
 21
3.668
  0
LINE
  8
0
 10
65.619
 11
65.619
 20
67.168
 21
67.77
  0
LINE
  8
0
 10
65.619
 11
65.769
 20
67.77
 21
68.352
  0
LINE
  8
0
 10
65.769
 11
66.058
 20
68.352
 21
68.879
  0
LINE
  8
0
 10
66.058
 11
66.47
 20
68.879
 21
69.318
  0
LINE
  8
0
 10
66.47
 11
66.978
 20
69.318
 21
69.64
  0
LINE
  8
0
 10
66.978
 11
67.55
 20
69.64
 21
69.826
  0
LINE
  8
0
 10
67.55
 11
68.151
 20
69.826
 21
69.864
  0
LINE
  8
0
 10
68.151
 11
68.742
 20
69.864
 21
69.751
  0
LINE
  8
0
 10
68.742
 11
69.286
 20
69.751
 21
69.495
  0
LINE
  8
0
 10
69.286
 11
69.75
 20
69.495
 21
69.112
  0
LINE
  8
0
 10
69.75
 11
70.103
 20
69.112
 21
68.625
  0
LINE
  8
0
 10
70.103
 11
70.325
 20
68.625
 21
68.066
  0
LINE
  8
0
 10
70.325
 11
70.4
 20
68.066
 21
67.469
  0
LINE
  8
0
 10
70.4
 11
70.325
 20
67.469
 21
66.872
  0
LINE
  8
0
 10
70.325
 11
70.103
 20
66.872
 21
66.313
  0
LINE
  8
0
 10
70.103
 11
69.75
 20
66.313
 21
65.826
  0
LINE
  8
0
 10
69.75
 11
69.286
 20
65.826
 21
65.442
  0
LINE
  8
0
 10
69.286
 11
68.742
 20
65.442
 21
65.186
  0
LINE
  8
0
 10
68.742
 11
68.151
 20
65.186
 21
65.073
  0
LINE
  8
0
 10
68.151
 11
67.55
 20
65.073
 21
65.111
  0
LINE
  8
0
 10
67.55
 11
66.978
 20
65.111
 21
65.297
  0
LINE
  8
0
 10
66.978
 11
66.47
 20
65.297
 21
65.62
  0
LINE
  8
0
 10
66.47
 11
66.058
 20
65.62
 21
66.058
  0
LINE
  8
0
 10
66.058
 11
65.769
 20
66.058
 21
66.585
  0
LINE
  8
0
 10
65.769
 11
65.619
 20
66.585
 21
67.168
  0
LINE
  8
0
 10
73.619
 11
73.619
 20
3.668
 21
4.27
  0
LINE
  8
0
 10
73.619
 11
73.769
 20
4.27
 21
4.852
  0
LINE
  8
0
 10
73.769
 11
74.058
 20
4.852
 21
5.379
  0
LINE
  8
0
 10
74.058
 11
74.47
 20
5.379
 21
5.818
  0
LINE
  8
0
 10
74.47
 11
74.978
 20
5.818
 21
6.14
  0
LINE
  8
0
 10
74.978
 11
75.55
 20
6.14
 21
6.326
  0
LINE
  8
0
 10
75.55
 11
76.151
 20
6.326
 21
6.364
  0
LINE
  8
0
 10
76.151
 11
76.742
 20
6.364
 21
6.251
  0
LINE
  8
0
 10
76.742
 11
77.286
 20
6.251
 21
5.995
  0
LINE
  8
0
 10
77.286
 11
77.75
 20
5.995
 21
5.612
  0
LINE
  8
0
 10
77.75
 11
78.103
 20
5.612
 21
5.125
  0
LINE
  8
0
 10
78.103
 11
78.325
 20
5.125
 21
4.566
  0
LINE
  8
0
 10
78.325
 11
78.4
 20
4.566
 21
3.969
  0
LINE
  8
0
 10
78.4
 11
78.325
 20
3.969
 21
3.372
  0
LINE
  8
0
 10
78.325
 11
78.103
 20
3.372
 21
2.813
  0
LINE
  8
0
 10
78.103
 11
77.75
 20
2.813
 21
2.326
  0
LINE
  8
0
 10
77.75
 11
77.286
 20
2.326
 21
1.942
  0
LINE
  8
0
 10
77.286
 11
76.742
 20
1.942
 21
1.686
  0
LINE
  8
0
 10
76.742
 11
76.151
 20
1.686
 21
1.573
  0
LINE
  8
0
 10
76.151
 11
75.55
 20
1.573
 21
1.611
  0
LINE
  8
0
 10
75.55
 11
74.978
 20
1.611
 21
1.797
  0
LINE
  8
0
 10
74.978
 11
74.47
 20
1.797
 21
2.12
  0
LINE
  8
0
 10
74.47
 11
74.058
 20
2.12
 21
2.558
  0
LINE
  8
0
 10
74.058
 11
73.769
 20
2.558
 21
3.085
  0
LINE
  8
0
 10
73.769
 11
73.619
 20
3.085
 21
3.668
  0
LINE
  8
0
 10
73.619
 11
73.619
 20
67.168
 21
67.77
  0
LINE
  8
0
 10
73.619
 11
73.769
 20
67.77
 21
68.352
  0
LINE
  8
0
 10
73.769
 11
74.058
 20
68.352
 21
68.879
  0
LINE
  8
0
 10
74.058
 11
74.47
 20
68.879
 21
69.318
  0
LINE
  8
0
 10
74.47
 11
74.978
 20
69.318
 21
69.64
  0
LINE
  8
0
 10
74.978
 11
75.55
 20
69.64
 21
69.826
  0
LINE
  8
0
 10
75.55
 11
76.151
 20
69.826
 21
69.864
  0
LINE
  8
0
 10
76.151
 11
76.742
 20
69.864
 21
69.751
  0
LINE
  8
0
 10
76.742
 11
77.286
 20
69.751
 21
69.495
  0
LINE
  8
0
 10
77.286
 11
77.75
 20
69.495
 21
69.112
  0
LINE
  8
0
 10
77.75
 11
78.103
 20
69.112
 21
68.625
  0
LINE
  8
0
 10
78.103
 11
78.325
 20
68.625
 21
68.066
  0
LINE
  8
0
 10
78.325
 11
78.4
 20
68.066
 21
67.469
  0
LINE
  8
0
 10
78.4
 11
78.325
 20
67.469
 21
66.872
  0
LINE
  8
0
 10
78.325
 11
78.103
 20
66.872
 21
66.313
  0
LINE
  8
0
 10
78.103
 11
77.75
 20
66.313
 21
65.826
  0
LINE
  8
0
 10
77.75
 11
77.286
 20
65.826
 21
65.442
  0
LINE
  8
0
 10
77.286
 11
76.742
 20
65.442
 21
65.186
  0
LINE
  8
0
 10
76.742
 11
76.151
 20
65.186
 21
65.073
  0
LINE
  8
0
 10
76.151
 11
75.55
 20
65.073
 21
65.111
  0
LINE
  8
0
 10
75.55
 11
74.978
 20
65.111
 21
65.297
  0
LINE
  8
0
 10
74.978
 11
74.47
 20
65.297
 21
65.62
  0
LINE
  8
0
 10
74.47
 11
74.058
 20
65.62
 21
66.058
  0
LINE
  8
0
 10
74.058
 11
73.769
 20
66.058
 21
66.585
  0
LINE
  8
0
 10
73.769
 11
73.619
 20
66.585
 21
67.168
  0
LINE
  8
0
 10
78.512
 11
78.512
 20
51.312
 21
51.688
  0
LINE
  8
0
 10
78.512
 11
78.605
 20
51.688
 21
52.052
  0
LINE
  8
0
 10
78.605
 11
78.786
 20
52.052
 21
52.382
  0
LINE
  8
0
 10
78.786
 11
79.044
 20
52.382
 21
52.656
  0
LINE
  8
0
 10
79.044
 11
79.361
 20
52.656
 21
52.857
  0
LINE
  8
0
 10
79.361
 11
79.719
 20
52.857
 21
52.973
  0
LINE
  8
0
 10
79.719
 11
80.094
 20
52.973
 21
52.997
  0
LINE
  8
0
 10
80.094
 11
80.464
 20
52.997
 21
52.927
  0
LINE
  8
0
 10
80.464
 11
80.804
 20
52.927
 21
52.766
  0
LINE
  8
0
 10
80.804
 11
81.093
 20
52.766
 21
52.527
  0
LINE
  8
0
 10
81.093
 11
81.314
 20
52.527
 21
52.223
  0
LINE
  8
0
 10
81.314
 11
81.453
 20
52.223
 21
51.873
  0
LINE
  8
0
 10
81.453
 11
81.5
 20
51.873
 21
51.5
  0
LINE
  8
0
 10
81.5
 11
81.453
 20
51.5
 21
51.127
  0
LINE
  8
0
 10
81.453
 11
81.314
 20
51.127
 21
50.777
  0
LINE
  8
0
 10
81.314
 11
81.093
 20
50.777
 21
50.473
  0
LINE
  8
0
 10
81.093
 11
80.804
 20
50.473
 21
50.234
  0
LINE
  8
0
 10
80.804
 11
80.464
 20
50.234
 21
50.073
  0
LINE
  8
0
 10
80.464
 11
80.094
 20
50.073
 21
50.003
  0
LINE
  8
0
 10
80.094
 11
79.719
 20
50.003
 21
50.027
  0
LINE
  8
0
 10
79.719
 11
79.361
 20
50.027
 21
50.143
  0
LINE
  8
0
 10
79.361
 11
79.044
 20
50.143
 21
50.344
  0
LINE
  8
0
 10
79.044
 11
78.786
 20
50.344
 21
50.618
  0
LINE
  8
0
 10
78.786
 11
78.605
 20
50.618
 21
50.948
  0
LINE
  8
0
 10
78.605
 11
78.512
 20
50.948
 21
51.312
  0
LINE
  8
0
 10
81.619
 11
81.619
 20
3.668
 21
4.27
  0
LINE
  8
0
 10
81.619
 11
81.769
 20
4.27
 21
4.852
  0
LINE
  8
0
 10
81.769
 11
82.058
 20
4.852
 21
5.379
  0
LINE
  8
0
 10
82.058
 11
82.47
 20
5.379
 21
5.818
  0
LINE
  8
0
 10
82.47
 11
82.978
 20
5.818
 21
6.14
  0
LINE
  8
0
 10
82.978
 11
83.55
 20
6.14
 21
6.326
  0
LINE
  8
0
 10
83.55
 11
84.151
 20
6.326
 21
6.364
  0
LINE
  8
0
 10
84.151
 11
84.742
 20
6.364
 21
6.251
  0
LINE
  8
0
 10
84.742
 11
85.286
 20
6.251
 21
5.995
  0
LINE
  8
0
 10
85.286
 11
85.75
 20
5.995
 21
5.612
  0
LINE
  8
0
 10
85.75
 11
86.103
 20
5.612
 21
5.125
  0
LINE
  8
0
 10
86.103
 11
86.325
 20
5.125
 21
4.566
  0
LINE
  8
0
 10
86.325
 11
86.4
 20
4.566
 21
3.969
  0
LINE
  8
0
 10
86.4
 11
86.325
 20
3.969
 21
3.372
  0
LINE
  8
0
 10
86.325
 11
86.103
 20
3.372
 21
2.813
  0
LINE
  8
0
 10
86.103
 11
85.75
 20
2.813
 21
2.326
  0
LINE
  8
0
 10
85.75
 11
85.286
 20
2.326
 21
1.942
  0
LINE
  8
0
 10
85.286
 11
84.742
 20
1.942
 21
1.686
  0
LINE
  8
0
 10
84.742
 11
84.151
 20
1.686
 21
1.573
  0
LINE
  8
0
 10
84.151
 11
83.55
 20
1.573
 21
1.611
  0
LINE
  8
0
 10
83.55
 11
82.978
 20
1.611
 21
1.797
  0
LINE
  8
0
 10
82.978
 11
82.47
 20
1.797
 21
2.12
  0
LINE
  8
0
 10
82.47
 11
82.058
 20
2.12
 21
2.558
  0
LINE
  8
0
 10
82.058
 11
81.769
 20
2.558
 21
3.085
  0
LINE
  8
0
 10
81.769
 11
81.619
 20
3.085
 21
3.668
  0
LINE
  8
0
 10
81.619
 11
81.619
 20
67.168
 21
67.77
  0
LINE
  8
0
 10
81.619
 11
81.769
 20
67.77
 21
68.352
  0
LINE
  8
0
 10
81.769
 11
82.058
 20
68.352
 21
68.879
  0
LINE
  8
0
 10
82.058
 11
82.47
 20
68.879
 21
69.318
  0
LINE
  8
0
 10
82.47
 11
82.978
 20
69.318
 21
69.64
  0
LINE
  8
0
 10
82.978
 11
83.55
 20
69.64
 21
69.826
  0
LINE
  8
0
 10
83.55
 11
84.151
 20
69.826
 21
69.864
  0
LINE
  8
0
 10
84.151
 11
84.742
 20
69.864
 21
69.751
  0
LINE
  8
0
 10
84.742
 11
85.286
 20
69.751
 21
69.495
  0
LINE
  8
0
 10
85.286
 11
85.75
 20
69.495
 21
69.112
  0
LINE
  8
0
 10
85.75
 11
86.103
 20
69.112
 21
68.625
  0
LINE
  8
0
 10
86.103
 11
86.325
 20
68.625
 21
68.066
  0
LINE
  8
0
 10
86.325
 11
86.4
 20
68.066
 21
67.469
  0
LINE
  8
0
 10
86.4
 11
86.325
 20
67.469
 21
66.872
  0
LINE
  8
0
 10
86.325
 11
86.103
 20
66.872
 21
66.313
  0
LINE
  8
0
 10
86.103
 11
85.75
 20
66.313
 21
65.826
  0
LINE
  8
0
 10
85.75
 11
85.286
 20
65.826
 21
65.442
  0
LINE
  8
0
 10
85.286
 11
84.742
 20
65.442
 21
65.186
  0
LINE
  8
0
 10
84.742
 11
84.151
 20
65.186
 21
65.073
  0
LINE
  8
0
 10
84.151
 11
83.55
 20
65.073
 21
65.111
  0
LINE
  8
0
 10
83.55
 11
82.978
 20
65.111
 21
65.297
  0
LINE
  8
0
 10
82.978
 11
82.47
 20
65.297
 21
65.62
  0
LINE
  8
0
 10
82.47
 11
82.058
 20
65.62
 21
66.058
  0
LINE
  8
0
 10
82.058
 11
81.769
 20
66.058
 21
66.585
  0
LINE
  8
0
 10
81.769
 11
81.619
 20
66.585
 21
67.168
  0
ENDSEC
  0
SECTION
  2
OBJECTS
  0
DICTIONARY
  0
ENDSEC
  0
EOF
