  0
SECTION
  2
BLOCKS
  0
ENDSEC
  0
SECTION
  2
ENTITIES
  0
LINE
  8
0
 10
0
 11
0
 20
0
 21
71.438
  0
LINE
  8
0
 10
0
 11
72
 20
71.438
 21
71.438
  0
LINE
  8
0
 10
72
 11
72
 20
71.438
 21
0
  0
LINE
  8
0
 10
72
 11
0
 20
0
 21
0
  0
LINE
  8
0
 10
1.619
 11
1.619
 20
3.668
 21
4.27
  0
LINE
  8
0
 10
1.619
 11
1.769
 20
4.27
 21
4.852
  0
LINE
  8
0
 10
1.769
 11
2.058
 20
4.852
 21
5.379
  0
LINE
  8
0
 10
2.058
 11
2.47
 20
5.379
 21
5.818
  0
LINE
  8
0
 10
2.47
 11
2.978
 20
5.818
 21
6.14
  0
LINE
  8
0
 10
2.978
 11
3.55
 20
6.14
 21
6.326
  0
LINE
  8
0
 10
3.55
 11
4.151
 20
6.326
 21
6.364
  0
LINE
  8
0
 10
4.151
 11
4.742
 20
6.364
 21
6.251
  0
LINE
  8
0
 10
4.742
 11
5.286
 20
6.251
 21
5.995
  0
LINE
  8
0
 10
5.286
 11
5.75
 20
5.995
 21
5.612
  0
LINE
  8
0
 10
5.75
 11
6.103
 20
5.612
 21
5.125
  0
LINE
  8
0
 10
6.103
 11
6.325
 20
5.125
 21
4.566
  0
LINE
  8
0
 10
6.325
 11
6.4
 20
4.566
 21
3.969
  0
LINE
  8
0
 10
6.4
 11
6.325
 20
3.969
 21
3.372
  0
LINE
  8
0
 10
6.325
 11
6.103
 20
3.372
 21
2.813
  0
LINE
  8
0
 10
6.103
 11
5.75
 20
2.813
 21
2.326
  0
LINE
  8
0
 10
5.75
 11
5.286
 20
2.326
 21
1.942
  0
LINE
  8
0
 10
5.286
 11
4.742
 20
1.942
 21
1.686
  0
LINE
  8
0
 10
4.742
 11
4.151
 20
1.686
 21
1.573
  0
LINE
  8
0
 10
4.151
 11
3.55
 20
1.573
 21
1.611
  0
LINE
  8
0
 10
3.55
 11
2.978
 20
1.611
 21
1.797
  0
LINE
  8
0
 10
2.978
 11
2.47
 20
1.797
 21
2.12
  0
LINE
  8
0
 10
2.47
 11
2.058
 20
2.12
 21
2.558
  0
LINE
  8
0
 10
2.058
 11
1.769
 20
2.558
 21
3.085
  0
LINE
  8
0
 10
1.769
 11
1.619
 20
3.085
 21
3.668
  0
LINE
  8
0
 10
1.619
 11
1.619
 20
67.168
 21
67.77
  0
LINE
  8
0
 10
1.619
 11
1.769
 20
67.77
 21
68.352
  0
LINE
  8
0
 10
1.769
 11
2.058
 20
68.352
 21
68.879
  0
LINE
  8
0
 10
2.058
 11
2.47
 20
68.879
 21
69.318
  0
LINE
  8
0
 10
2.47
 11
2.978
 20
69.318
 21
69.64
  0
LINE
  8
0
 10
2.978
 11
3.55
 20
69.64
 21
69.826
  0
LINE
  8
0
 10
3.55
 11
4.151
 20
69.826
 21
69.864
  0
LINE
  8
0
 10
4.151
 11
4.742
 20
69.864
 21
69.751
  0
LINE
  8
0
 10
4.742
 11
5.286
 20
69.751
 21
69.495
  0
LINE
  8
0
 10
5.286
 11
5.75
 20
69.495
 21
69.112
  0
LINE
  8
0
 10
5.75
 11
6.103
 20
69.112
 21
68.625
  0
LINE
  8
0
 10
6.103
 11
6.325
 20
68.625
 21
68.066
  0
LINE
  8
0
 10
6.325
 11
6.4
 20
68.066
 21
67.469
  0
LINE
  8
0
 10
6.4
 11
6.325
 20
67.469
 21
66.872
  0
LINE
  8
0
 10
6.325
 11
6.103
 20
66.872
 21
66.313
  0
LINE
  8
0
 10
6.103
 11
5.75
 20
66.313
 21
65.826
  0
LINE
  8
0
 10
5.75
 11
5.286
 20
65.826
 21
65.442
  0
LINE
  8
0
 10
5.286
 11
4.742
 20
65.442
 21
65.186
  0
LINE
  8
0
 10
4.742
 11
4.151
 20
65.186
 21
65.073
  0
LINE
  8
0
 10
4.151
 11
3.55
 20
65.073
 21
65.111
  0
LINE
  8
0
 10
3.55
 11
2.978
 20
65.111
 21
65.297
  0
LINE
  8
0
 10
2.978
 11
2.47
 20
65.297
 21
65.62
  0
LINE
  8
0
 10
2.47
 11
2.058
 20
65.62
 21
66.058
  0
LINE
  8
0
 10
2.058
 11
1.769
 20
66.058
 21
66.585
  0
LINE
  8
0
 10
1.769
 11
1.619
 20
66.585
 21
67.168
  0
LINE
  8
0
 10
9.619
 11
9.619
 20
3.668
 21
4.27
  0
LINE
  8
0
 10
9.619
 11
9.769
 20
4.27
 21
4.852
  0
LINE
  8
0
 10
9.769
 11
10.058
 20
4.852
 21
5.379
  0
LINE
  8
0
 10
10.058
 11
10.47
 20
5.379
 21
5.818
  0
LINE
  8
0
 10
10.47
 11
10.978
 20
5.818
 21
6.14
  0
LINE
  8
0
 10
10.978
 11
11.55
 20
6.14
 21
6.326
  0
LINE
  8
0
 10
11.55
 11
12.151
 20
6.326
 21
6.364
  0
LINE
  8
0
 10
12.151
 11
12.742
 20
6.364
 21
6.251
  0
LINE
  8
0
 10
12.742
 11
13.286
 20
6.251
 21
5.995
  0
LINE
  8
0
 10
13.286
 11
13.75
 20
5.995
 21
5.612
  0
LINE
  8
0
 10
13.75
 11
14.103
 20
5.612
 21
5.125
  0
LINE
  8
0
 10
14.103
 11
14.325
 20
5.125
 21
4.566
  0
LINE
  8
0
 10
14.325
 11
14.4
 20
4.566
 21
3.969
  0
LINE
  8
0
 10
14.4
 11
14.325
 20
3.969
 21
3.372
  0
LINE
  8
0
 10
14.325
 11
14.103
 20
3.372
 21
2.813
  0
LINE
  8
0
 10
14.103
 11
13.75
 20
2.813
 21
2.326
  0
LINE
  8
0
 10
13.75
 11
13.286
 20
2.326
 21
1.942
  0
LINE
  8
0
 10
13.286
 11
12.742
 20
1.942
 21
1.686
  0
LINE
  8
0
 10
12.742
 11
12.151
 20
1.686
 21
1.573
  0
LINE
  8
0
 10
12.151
 11
11.55
 20
1.573
 21
1.611
  0
LINE
  8
0
 10
11.55
 11
10.978
 20
1.611
 21
1.797
  0
LINE
  8
0
 10
10.978
 11
10.47
 20
1.797
 21
2.12
  0
LINE
  8
0
 10
10.47
 11
10.058
 20
2.12
 21
2.558
  0
LINE
  8
0
 10
10.058
 11
9.769
 20
2.558
 21
3.085
  0
LINE
  8
0
 10
9.769
 11
9.619
 20
3.085
 21
3.668
  0
LINE
  8
0
 10
9.619
 11
9.619
 20
67.168
 21
67.77
  0
LINE
  8
0
 10
9.619
 11
9.769
 20
67.77
 21
68.352
  0
LINE
  8
0
 10
9.769
 11
10.058
 20
68.352
 21
68.879
  0
LINE
  8
0
 10
10.058
 11
10.47
 20
68.879
 21
69.318
  0
LINE
  8
0
 10
10.47
 11
10.978
 20
69.318
 21
69.64
  0
LINE
  8
0
 10
10.978
 11
11.55
 20
69.64
 21
69.826
  0
LINE
  8
0
 10
11.55
 11
12.151
 20
69.826
 21
69.864
  0
LINE
  8
0
 10
12.151
 11
12.742
 20
69.864
 21
69.751
  0
LINE
  8
0
 10
12.742
 11
13.286
 20
69.751
 21
69.495
  0
LINE
  8
0
 10
13.286
 11
13.75
 20
69.495
 21
69.112
  0
LINE
  8
0
 10
13.75
 11
14.103
 20
69.112
 21
68.625
  0
LINE
  8
0
 10
14.103
 11
14.325
 20
68.625
 21
68.066
  0
LINE
  8
0
 10
14.325
 11
14.4
 20
68.066
 21
67.469
  0
LINE
  8
0
 10
14.4
 11
14.325
 20
67.469
 21
66.872
  0
LINE
  8
0
 10
14.325
 11
14.103
 20
66.872
 21
66.313
  0
LINE
  8
0
 10
14.103
 11
13.75
 20
66.313
 21
65.826
  0
LINE
  8
0
 10
13.75
 11
13.286
 20
65.826
 21
65.442
  0
LINE
  8
0
 10
13.286
 11
12.742
 20
65.442
 21
65.186
  0
LINE
  8
0
 10
12.742
 11
12.151
 20
65.186
 21
65.073
  0
LINE
  8
0
 10
12.151
 11
11.55
 20
65.073
 21
65.111
  0
LINE
  8
0
 10
11.55
 11
10.978
 20
65.111
 21
65.297
  0
LINE
  8
0
 10
10.978
 11
10.47
 20
65.297
 21
65.62
  0
LINE
  8
0
 10
10.47
 11
10.058
 20
65.62
 21
66.058
  0
LINE
  8
0
 10
10.058
 11
9.769
 20
66.058
 21
66.585
  0
LINE
  8
0
 10
9.769
 11
9.619
 20
66.585
 21
67.168
  0
LINE
  8
0
 10
14.419
 11
14.419
 20
11.409
 21
11.785
  0
LINE
  8
0
 10
14.419
 11
14.512
 20
11.785
 21
12.149
  0
LINE
  8
0
 10
14.512
 11
14.694
 20
12.149
 21
12.479
  0
LINE
  8
0
 10
14.694
 11
14.951
 20
12.479
 21
12.753
  0
LINE
  8
0
 10
14.951
 11
15.268
 20
12.753
 21
12.955
  0
LINE
  8
0
 10
15.268
 11
15.626
 20
12.955
 21
13.071
  0
LINE
  8
0
 10
15.626
 11
16.001
 20
13.071
 21
13.094
  0
LINE
  8
0
 10
16.001
 11
16.371
 20
13.094
 21
13.024
  0
LINE
  8
0
 10
16.371
 11
16.711
 20
13.024
 21
12.864
  0
LINE
  8
0
 10
16.711
 11
17.001
 20
12.864
 21
12.624
  0
LINE
  8
0
 10
17.001
 11
17.222
 20
12.624
 21
12.32
  0
LINE
  8
0
 10
17.222
 11
17.36
 20
12.32
 21
11.97
  0
LINE
  8
0
 10
17.36
 11
17.407
 20
11.97
 21
11.597
  0
LINE
  8
0
 10
17.407
 11
17.36
 20
11.597
 21
11.224
  0
LINE
  8
0
 10
17.36
 11
17.222
 20
11.224
 21
10.875
  0
LINE
  8
0
 10
17.222
 11
17.001
 20
10.875
 21
10.57
  0
LINE
  8
0
 10
17.001
 11
16.711
 20
10.57
 21
10.331
  0
LINE
  8
0
 10
16.711
 11
16.371
 20
10.331
 21
10.171
  0
LINE
  8
0
 10
16.371
 11
16.001
 20
10.171
 21
10.1
  0
LINE
  8
0
 10
16.001
 11
15.626
 20
10.1
 21
10.124
  0
LINE
  8
0
 10
15.626
 11
15.268
 20
10.124
 21
10.24
  0
LINE
  8
0
 10
15.268
 11
14.951
 20
10.24
 21
10.442
  0
LINE
  8
0
 10
14.951
 11
14.694
 20
10.442
 21
10.716
  0
LINE
  8
0
 10
14.694
 11
14.512
 20
10.716
 21
11.045
  0
LINE
  8
0
 10
14.512
 11
14.419
 20
11.045
 21
11.409
  0
LINE
  8
0
 10
15.512
 11
15.512
 20
59.812
 21
60.188
  0
LINE
  8
0
 10
15.512
 11
15.605
 20
60.188
 21
60.552
  0
LINE
  8
0
 10
15.605
 11
15.786
 20
60.552
 21
60.882
  0
LINE
  8
0
 10
15.786
 11
16.044
 20
60.882
 21
61.156
  0
LINE
  8
0
 10
16.044
 11
16.361
 20
61.156
 21
61.357
  0
LINE
  8
0
 10
16.361
 11
16.719
 20
61.357
 21
61.473
  0
LINE
  8
0
 10
16.719
 11
17.094
 20
61.473
 21
61.497
  0
LINE
  8
0
 10
17.094
 11
17.464
 20
61.497
 21
61.427
  0
LINE
  8
0
 10
17.464
 11
17.804
 20
61.427
 21
61.266
  0
LINE
  8
0
 10
17.804
 11
18.093
 20
61.266
 21
61.027
  0
LINE
  8
0
 10
18.093
 11
18.314
 20
61.027
 21
60.723
  0
LINE
  8
0
 10
18.314
 11
18.453
 20
60.723
 21
60.373
  0
LINE
  8
0
 10
18.453
 11
18.5
 20
60.373
 21
60
  0
LINE
  8
0
 10
18.5
 11
18.453
 20
60
 21
59.627
  0
LINE
  8
0
 10
18.453
 11
18.314
 20
59.627
 21
59.277
  0
LINE
  8
0
 10
18.314
 11
18.093
 20
59.277
 21
58.973
  0
LINE
  8
0
 10
18.093
 11
17.804
 20
58.973
 21
58.734
  0
LINE
  8
0
 10
17.804
 11
17.464
 20
58.734
 21
58.573
  0
LINE
  8
0
 10
17.464
 11
17.094
 20
58.573
 21
58.503
  0
LINE
  8
0
 10
17.094
 11
16.719
 20
58.503
 21
58.527
  0
LINE
  8
0
 10
16.719
 11
16.361
 20
58.527
 21
58.643
  0
LINE
  8
0
 10
16.361
 11
16.044
 20
58.643
 21
58.844
  0
LINE
  8
0
 10
16.044
 11
15.786
 20
58.844
 21
59.118
  0
LINE
  8
0
 10
15.786
 11
15.605
 20
59.118
 21
59.448
  0
LINE
  8
0
 10
15.605
 11
15.512
 20
59.448
 21
59.812
  0
LINE
  8
0
 10
17.619
 11
17.619
 20
3.668
 21
4.27
  0
LINE
  8
0
 10
17.619
 11
17.769
 20
4.27
 21
4.852
  0
LINE
  8
0
 10
17.769
 11
18.058
 20
4.852
 21
5.379
  0
LINE
  8
0
 10
18.058
 11
18.47
 20
5.379
 21
5.818
  0
LINE
  8
0
 10
18.47
 11
18.978
 20
5.818
 21
6.14
  0
LINE
  8
0
 10
18.978
 11
19.55
 20
6.14
 21
6.326
  0
LINE
  8
0
 10
19.55
 11
20.151
 20
6.326
 21
6.364
  0
LINE
  8
0
 10
20.151
 11
20.742
 20
6.364
 21
6.251
  0
LINE
  8
0
 10
20.742
 11
21.286
 20
6.251
 21
5.995
  0
LINE
  8
0
 10
21.286
 11
21.75
 20
5.995
 21
5.612
  0
LINE
  8
0
 10
21.75
 11
22.103
 20
5.612
 21
5.125
  0
LINE
  8
0
 10
22.103
 11
22.325
 20
5.125
 21
4.566
  0
LINE
  8
0
 10
22.325
 11
22.4
 20
4.566
 21
3.969
  0
LINE
  8
0
 10
22.4
 11
22.325
 20
3.969
 21
3.372
  0
LINE
  8
0
 10
22.325
 11
22.103
 20
3.372
 21
2.813
  0
LINE
  8
0
 10
22.103
 11
21.75
 20
2.813
 21
2.326
  0
LINE
  8
0
 10
21.75
 11
21.286
 20
2.326
 21
1.942
  0
LINE
  8
0
 10
21.286
 11
20.742
 20
1.942
 21
1.686
  0
LINE
  8
0
 10
20.742
 11
20.151
 20
1.686
 21
1.573
  0
LINE
  8
0
 10
20.151
 11
19.55
 20
1.573
 21
1.611
  0
LINE
  8
0
 10
19.55
 11
18.978
 20
1.611
 21
1.797
  0
LINE
  8
0
 10
18.978
 11
18.47
 20
1.797
 21
2.12
  0
LINE
  8
0
 10
18.47
 11
18.058
 20
2.12
 21
2.558
  0
LINE
  8
0
 10
18.058
 11
17.769
 20
2.558
 21
3.085
  0
LINE
  8
0
 10
17.769
 11
17.619
 20
3.085
 21
3.668
  0
LINE
  8
0
 10
17.619
 11
17.619
 20
67.168
 21
67.77
  0
LINE
  8
0
 10
17.619
 11
17.769
 20
67.77
 21
68.352
  0
LINE
  8
0
 10
17.769
 11
18.058
 20
68.352
 21
68.879
  0
LINE
  8
0
 10
18.058
 11
18.47
 20
68.879
 21
69.318
  0
LINE
  8
0
 10
18.47
 11
18.978
 20
69.318
 21
69.64
  0
LINE
  8
0
 10
18.978
 11
19.55
 20
69.64
 21
69.826
  0
LINE
  8
0
 10
19.55
 11
20.151
 20
69.826
 21
69.864
  0
LINE
  8
0
 10
20.151
 11
20.742
 20
69.864
 21
69.751
  0
LINE
  8
0
 10
20.742
 11
21.286
 20
69.751
 21
69.495
  0
LINE
  8
0
 10
21.286
 11
21.75
 20
69.495
 21
69.112
  0
LINE
  8
0
 10
21.75
 11
22.103
 20
69.112
 21
68.625
  0
LINE
  8
0
 10
22.103
 11
22.325
 20
68.625
 21
68.066
  0
LINE
  8
0
 10
22.325
 11
22.4
 20
68.066
 21
67.469
  0
LINE
  8
0
 10
22.4
 11
22.325
 20
67.469
 21
66.872
  0
LINE
  8
0
 10
22.325
 11
22.103
 20
66.872
 21
66.313
  0
LINE
  8
0
 10
22.103
 11
21.75
 20
66.313
 21
65.826
  0
LINE
  8
0
 10
21.75
 11
21.286
 20
65.826
 21
65.442
  0
LINE
  8
0
 10
21.286
 11
20.742
 20
65.442
 21
65.186
  0
LINE
  8
0
 10
20.742
 11
20.151
 20
65.186
 21
65.073
  0
LINE
  8
0
 10
20.151
 11
19.55
 20
65.073
 21
65.111
  0
LINE
  8
0
 10
19.55
 11
18.978
 20
65.111
 21
65.297
  0
LINE
  8
0
 10
18.978
 11
18.47
 20
65.297
 21
65.62
  0
LINE
  8
0
 10
18.47
 11
18.058
 20
65.62
 21
66.058
  0
LINE
  8
0
 10
18.058
 11
17.769
 20
66.058
 21
66.585
  0
LINE
  8
0
 10
17.769
 11
17.619
 20
66.585
 21
67.168
  0
LINE
  8
0
 10
25.619
 11
25.619
 20
3.668
 21
4.27
  0
LINE
  8
0
 10
25.619
 11
25.769
 20
4.27
 21
4.852
  0
LINE
  8
0
 10
25.769
 11
26.058
 20
4.852
 21
5.379
  0
LINE
  8
0
 10
26.058
 11
26.47
 20
5.379
 21
5.818
  0
LINE
  8
0
 10
26.47
 11
26.978
 20
5.818
 21
6.14
  0
LINE
  8
0
 10
26.978
 11
27.55
 20
6.14
 21
6.326
  0
LINE
  8
0
 10
27.55
 11
28.151
 20
6.326
 21
6.364
  0
LINE
  8
0
 10
28.151
 11
28.742
 20
6.364
 21
6.251
  0
LINE
  8
0
 10
28.742
 11
29.286
 20
6.251
 21
5.995
  0
LINE
  8
0
 10
29.286
 11
29.75
 20
5.995
 21
5.612
  0
LINE
  8
0
 10
29.75
 11
30.103
 20
5.612
 21
5.125
  0
LINE
  8
0
 10
30.103
 11
30.325
 20
5.125
 21
4.566
  0
LINE
  8
0
 10
30.325
 11
30.4
 20
4.566
 21
3.969
  0
LINE
  8
0
 10
30.4
 11
30.325
 20
3.969
 21
3.372
  0
LINE
  8
0
 10
30.325
 11
30.103
 20
3.372
 21
2.813
  0
LINE
  8
0
 10
30.103
 11
29.75
 20
2.813
 21
2.326
  0
LINE
  8
0
 10
29.75
 11
29.286
 20
2.326
 21
1.942
  0
LINE
  8
0
 10
29.286
 11
28.742
 20
1.942
 21
1.686
  0
LINE
  8
0
 10
28.742
 11
28.151
 20
1.686
 21
1.573
  0
LINE
  8
0
 10
28.151
 11
27.55
 20
1.573
 21
1.611
  0
LINE
  8
0
 10
27.55
 11
26.978
 20
1.611
 21
1.797
  0
LINE
  8
0
 10
26.978
 11
26.47
 20
1.797
 21
2.12
  0
LINE
  8
0
 10
26.47
 11
26.058
 20
2.12
 21
2.558
  0
LINE
  8
0
 10
26.058
 11
25.769
 20
2.558
 21
3.085
  0
LINE
  8
0
 10
25.769
 11
25.619
 20
3.085
 21
3.668
  0
LINE
  8
0
 10
25.619
 11
25.619
 20
67.168
 21
67.77
  0
LINE
  8
0
 10
25.619
 11
25.769
 20
67.77
 21
68.352
  0
LINE
  8
0
 10
25.769
 11
26.058
 20
68.352
 21
68.879
  0
LINE
  8
0
 10
26.058
 11
26.47
 20
68.879
 21
69.318
  0
LINE
  8
0
 10
26.47
 11
26.978
 20
69.318
 21
69.64
  0
LINE
  8
0
 10
26.978
 11
27.55
 20
69.64
 21
69.826
  0
LINE
  8
0
 10
27.55
 11
28.151
 20
69.826
 21
69.864
  0
LINE
  8
0
 10
28.151
 11
28.742
 20
69.864
 21
69.751
  0
LINE
  8
0
 10
28.742
 11
29.286
 20
69.751
 21
69.495
  0
LINE
  8
0
 10
29.286
 11
29.75
 20
69.495
 21
69.112
  0
LINE
  8
0
 10
29.75
 11
30.103
 20
69.112
 21
68.625
  0
LINE
  8
0
 10
30.103
 11
30.325
 20
68.625
 21
68.066
  0
LINE
  8
0
 10
30.325
 11
30.4
 20
68.066
 21
67.469
  0
LINE
  8
0
 10
30.4
 11
30.325
 20
67.469
 21
66.872
  0
LINE
  8
0
 10
30.325
 11
30.103
 20
66.872
 21
66.313
  0
LINE
  8
0
 10
30.103
 11
29.75
 20
66.313
 21
65.826
  0
LINE
  8
0
 10
29.75
 11
29.286
 20
65.826
 21
65.442
  0
LINE
  8
0
 10
29.286
 11
28.742
 20
65.442
 21
65.186
  0
LINE
  8
0
 10
28.742
 11
28.151
 20
65.186
 21
65.073
  0
LINE
  8
0
 10
28.151
 11
27.55
 20
65.073
 21
65.111
  0
LINE
  8
0
 10
27.55
 11
26.978
 20
65.111
 21
65.297
  0
LINE
  8
0
 10
26.978
 11
26.47
 20
65.297
 21
65.62
  0
LINE
  8
0
 10
26.47
 11
26.058
 20
65.62
 21
66.058
  0
LINE
  8
0
 10
26.058
 11
25.769
 20
66.058
 21
66.585
  0
LINE
  8
0
 10
25.769
 11
25.619
 20
66.585
 21
67.168
  0
LINE
  8
0
 10
33.619
 11
33.619
 20
3.668
 21
4.27
  0
LINE
  8
0
 10
33.619
 11
33.769
 20
4.27
 21
4.852
  0
LINE
  8
0
 10
33.769
 11
34.058
 20
4.852
 21
5.379
  0
LINE
  8
0
 10
34.058
 11
34.47
 20
5.379
 21
5.818
  0
LINE
  8
0
 10
34.47
 11
34.978
 20
5.818
 21
6.14
  0
LINE
  8
0
 10
34.978
 11
35.55
 20
6.14
 21
6.326
  0
LINE
  8
0
 10
35.55
 11
36.151
 20
6.326
 21
6.364
  0
LINE
  8
0
 10
36.151
 11
36.742
 20
6.364
 21
6.251
  0
LINE
  8
0
 10
36.742
 11
37.286
 20
6.251
 21
5.995
  0
LINE
  8
0
 10
37.286
 11
37.75
 20
5.995
 21
5.612
  0
LINE
  8
0
 10
37.75
 11
38.103
 20
5.612
 21
5.125
  0
LINE
  8
0
 10
38.103
 11
38.325
 20
5.125
 21
4.566
  0
LINE
  8
0
 10
38.325
 11
38.4
 20
4.566
 21
3.969
  0
LINE
  8
0
 10
38.4
 11
38.325
 20
3.969
 21
3.372
  0
LINE
  8
0
 10
38.325
 11
38.103
 20
3.372
 21
2.813
  0
LINE
  8
0
 10
38.103
 11
37.75
 20
2.813
 21
2.326
  0
LINE
  8
0
 10
37.75
 11
37.286
 20
2.326
 21
1.942
  0
LINE
  8
0
 10
37.286
 11
36.742
 20
1.942
 21
1.686
  0
LINE
  8
0
 10
36.742
 11
36.151
 20
1.686
 21
1.573
  0
LINE
  8
0
 10
36.151
 11
35.55
 20
1.573
 21
1.611
  0
LINE
  8
0
 10
35.55
 11
34.978
 20
1.611
 21
1.797
  0
LINE
  8
0
 10
34.978
 11
34.47
 20
1.797
 21
2.12
  0
LINE
  8
0
 10
34.47
 11
34.058
 20
2.12
 21
2.558
  0
LINE
  8
0
 10
34.058
 11
33.769
 20
2.558
 21
3.085
  0
LINE
  8
0
 10
33.769
 11
33.619
 20
3.085
 21
3.668
  0
LINE
  8
0
 10
33.619
 11
33.619
 20
67.168
 21
67.77
  0
LINE
  8
0
 10
33.619
 11
33.769
 20
67.77
 21
68.352
  0
LINE
  8
0
 10
33.769
 11
34.058
 20
68.352
 21
68.879
  0
LINE
  8
0
 10
34.058
 11
34.47
 20
68.879
 21
69.318
  0
LINE
  8
0
 10
34.47
 11
34.978
 20
69.318
 21
69.64
  0
LINE
  8
0
 10
34.978
 11
35.55
 20
69.64
 21
69.826
  0
LINE
  8
0
 10
35.55
 11
36.151
 20
69.826
 21
69.864
  0
LINE
  8
0
 10
36.151
 11
36.742
 20
69.864
 21
69.751
  0
LINE
  8
0
 10
36.742
 11
37.286
 20
69.751
 21
69.495
  0
LINE
  8
0
 10
37.286
 11
37.75
 20
69.495
 21
69.112
  0
LINE
  8
0
 10
37.75
 11
38.103
 20
69.112
 21
68.625
  0
LINE
  8
0
 10
38.103
 11
38.325
 20
68.625
 21
68.066
  0
LINE
  8
0
 10
38.325
 11
38.4
 20
68.066
 21
67.469
  0
LINE
  8
0
 10
38.4
 11
38.325
 20
67.469
 21
66.872
  0
LINE
  8
0
 10
38.325
 11
38.103
 20
66.872
 21
66.313
  0
LINE
  8
0
 10
38.103
 11
37.75
 20
66.313
 21
65.826
  0
LINE
  8
0
 10
37.75
 11
37.286
 20
65.826
 21
65.442
  0
LINE
  8
0
 10
37.286
 11
36.742
 20
65.442
 21
65.186
  0
LINE
  8
0
 10
36.742
 11
36.151
 20
65.186
 21
65.073
  0
LINE
  8
0
 10
36.151
 11
35.55
 20
65.073
 21
65.111
  0
LINE
  8
0
 10
35.55
 11
34.978
 20
65.111
 21
65.297
  0
LINE
  8
0
 10
34.978
 11
34.47
 20
65.297
 21
65.62
  0
LINE
  8
0
 10
34.47
 11
34.058
 20
65.62
 21
66.058
  0
LINE
  8
0
 10
34.058
 11
33.769
 20
66.058
 21
66.585
  0
LINE
  8
0
 10
33.769
 11
33.619
 20
66.585
 21
67.168
  0
LINE
  8
0
 10
41.619
 11
41.619
 20
3.668
 21
4.27
  0
LINE
  8
0
 10
41.619
 11
41.769
 20
4.27
 21
4.852
  0
LINE
  8
0
 10
41.769
 11
42.058
 20
4.852
 21
5.379
  0
LINE
  8
0
 10
42.058
 11
42.47
 20
5.379
 21
5.818
  0
LINE
  8
0
 10
42.47
 11
42.978
 20
5.818
 21
6.14
  0
LINE
  8
0
 10
42.978
 11
43.55
 20
6.14
 21
6.326
  0
LINE
  8
0
 10
43.55
 11
44.151
 20
6.326
 21
6.364
  0
LINE
  8
0
 10
44.151
 11
44.742
 20
6.364
 21
6.251
  0
LINE
  8
0
 10
44.742
 11
45.286
 20
6.251
 21
5.995
  0
LINE
  8
0
 10
45.286
 11
45.75
 20
5.995
 21
5.612
  0
LINE
  8
0
 10
45.75
 11
46.103
 20
5.612
 21
5.125
  0
LINE
  8
0
 10
46.103
 11
46.325
 20
5.125
 21
4.566
  0
LINE
  8
0
 10
46.325
 11
46.4
 20
4.566
 21
3.969
  0
LINE
  8
0
 10
46.4
 11
46.325
 20
3.969
 21
3.372
  0
LINE
  8
0
 10
46.325
 11
46.103
 20
3.372
 21
2.813
  0
LINE
  8
0
 10
46.103
 11
45.75
 20
2.813
 21
2.326
  0
LINE
  8
0
 10
45.75
 11
45.286
 20
2.326
 21
1.942
  0
LINE
  8
0
 10
45.286
 11
44.742
 20
1.942
 21
1.686
  0
LINE
  8
0
 10
44.742
 11
44.151
 20
1.686
 21
1.573
  0
LINE
  8
0
 10
44.151
 11
43.55
 20
1.573
 21
1.611
  0
LINE
  8
0
 10
43.55
 11
42.978
 20
1.611
 21
1.797
  0
LINE
  8
0
 10
42.978
 11
42.47
 20
1.797
 21
2.12
  0
LINE
  8
0
 10
42.47
 11
42.058
 20
2.12
 21
2.558
  0
LINE
  8
0
 10
42.058
 11
41.769
 20
2.558
 21
3.085
  0
LINE
  8
0
 10
41.769
 11
41.619
 20
3.085
 21
3.668
  0
LINE
  8
0
 10
41.619
 11
41.619
 20
67.168
 21
67.77
  0
LINE
  8
0
 10
41.619
 11
41.769
 20
67.77
 21
68.352
  0
LINE
  8
0
 10
41.769
 11
42.058
 20
68.352
 21
68.879
  0
LINE
  8
0
 10
42.058
 11
42.47
 20
68.879
 21
69.318
  0
LINE
  8
0
 10
42.47
 11
42.978
 20
69.318
 21
69.64
  0
LINE
  8
0
 10
42.978
 11
43.55
 20
69.64
 21
69.826
  0
LINE
  8
0
 10
43.55
 11
44.151
 20
69.826
 21
69.864
  0
LINE
  8
0
 10
44.151
 11
44.742
 20
69.864
 21
69.751
  0
LINE
  8
0
 10
44.742
 11
45.286
 20
69.751
 21
69.495
  0
LINE
  8
0
 10
45.286
 11
45.75
 20
69.495
 21
69.112
  0
LINE
  8
0
 10
45.75
 11
46.103
 20
69.112
 21
68.625
  0
LINE
  8
0
 10
46.103
 11
46.325
 20
68.625
 21
68.066
  0
LINE
  8
0
 10
46.325
 11
46.4
 20
68.066
 21
67.469
  0
LINE
  8
0
 10
46.4
 11
46.325
 20
67.469
 21
66.872
  0
LINE
  8
0
 10
46.325
 11
46.103
 20
66.872
 21
66.313
  0
LINE
  8
0
 10
46.103
 11
45.75
 20
66.313
 21
65.826
  0
LINE
  8
0
 10
45.75
 11
45.286
 20
65.826
 21
65.442
  0
LINE
  8
0
 10
45.286
 11
44.742
 20
65.442
 21
65.186
  0
LINE
  8
0
 10
44.742
 11
44.151
 20
65.186
 21
65.073
  0
LINE
  8
0
 10
44.151
 11
43.55
 20
65.073
 21
65.111
  0
LINE
  8
0
 10
43.55
 11
42.978
 20
65.111
 21
65.297
  0
LINE
  8
0
 10
42.978
 11
42.47
 20
65.297
 21
65.62
  0
LINE
  8
0
 10
42.47
 11
42.058
 20
65.62
 21
66.058
  0
LINE
  8
0
 10
42.058
 11
41.769
 20
66.058
 21
66.585
  0
LINE
  8
0
 10
41.769
 11
41.619
 20
66.585
 21
67.168
  0
LINE
  8
0
 10
49.619
 11
49.619
 20
3.668
 21
4.27
  0
LINE
  8
0
 10
49.619
 11
49.769
 20
4.27
 21
4.852
  0
LINE
  8
0
 10
49.769
 11
50.058
 20
4.852
 21
5.379
  0
LINE
  8
0
 10
50.058
 11
50.47
 20
5.379
 21
5.818
  0
LINE
  8
0
 10
50.47
 11
50.978
 20
5.818
 21
6.14
  0
LINE
  8
0
 10
50.978
 11
51.55
 20
6.14
 21
6.326
  0
LINE
  8
0
 10
51.55
 11
52.151
 20
6.326
 21
6.364
  0
LINE
  8
0
 10
52.151
 11
52.742
 20
6.364
 21
6.251
  0
LINE
  8
0
 10
52.742
 11
53.286
 20
6.251
 21
5.995
  0
LINE
  8
0
 10
53.286
 11
53.75
 20
5.995
 21
5.612
  0
LINE
  8
0
 10
53.75
 11
54.103
 20
5.612
 21
5.125
  0
LINE
  8
0
 10
54.103
 11
54.325
 20
5.125
 21
4.566
  0
LINE
  8
0
 10
54.325
 11
54.4
 20
4.566
 21
3.969
  0
LINE
  8
0
 10
54.4
 11
54.325
 20
3.969
 21
3.372
  0
LINE
  8
0
 10
54.325
 11
54.103
 20
3.372
 21
2.813
  0
LINE
  8
0
 10
54.103
 11
53.75
 20
2.813
 21
2.326
  0
LINE
  8
0
 10
53.75
 11
53.286
 20
2.326
 21
1.942
  0
LINE
  8
0
 10
53.286
 11
52.742
 20
1.942
 21
1.686
  0
LINE
  8
0
 10
52.742
 11
52.151
 20
1.686
 21
1.573
  0
LINE
  8
0
 10
52.151
 11
51.55
 20
1.573
 21
1.611
  0
LINE
  8
0
 10
51.55
 11
50.978
 20
1.611
 21
1.797
  0
LINE
  8
0
 10
50.978
 11
50.47
 20
1.797
 21
2.12
  0
LINE
  8
0
 10
50.47
 11
50.058
 20
2.12
 21
2.558
  0
LINE
  8
0
 10
50.058
 11
49.769
 20
2.558
 21
3.085
  0
LINE
  8
0
 10
49.769
 11
49.619
 20
3.085
 21
3.668
  0
LINE
  8
0
 10
49.619
 11
49.619
 20
67.168
 21
67.77
  0
LINE
  8
0
 10
49.619
 11
49.769
 20
67.77
 21
68.352
  0
LINE
  8
0
 10
49.769
 11
50.058
 20
68.352
 21
68.879
  0
LINE
  8
0
 10
50.058
 11
50.47
 20
68.879
 21
69.318
  0
LINE
  8
0
 10
50.47
 11
50.978
 20
69.318
 21
69.64
  0
LINE
  8
0
 10
50.978
 11
51.55
 20
69.64
 21
69.826
  0
LINE
  8
0
 10
51.55
 11
52.151
 20
69.826
 21
69.864
  0
LINE
  8
0
 10
52.151
 11
52.742
 20
69.864
 21
69.751
  0
LINE
  8
0
 10
52.742
 11
53.286
 20
69.751
 21
69.495
  0
LINE
  8
0
 10
53.286
 11
53.75
 20
69.495
 21
69.112
  0
LINE
  8
0
 10
53.75
 11
54.103
 20
69.112
 21
68.625
  0
LINE
  8
0
 10
54.103
 11
54.325
 20
68.625
 21
68.066
  0
LINE
  8
0
 10
54.325
 11
54.4
 20
68.066
 21
67.469
  0
LINE
  8
0
 10
54.4
 11
54.325
 20
67.469
 21
66.872
  0
LINE
  8
0
 10
54.325
 11
54.103
 20
66.872
 21
66.313
  0
LINE
  8
0
 10
54.103
 11
53.75
 20
66.313
 21
65.826
  0
LINE
  8
0
 10
53.75
 11
53.286
 20
65.826
 21
65.442
  0
LINE
  8
0
 10
53.286
 11
52.742
 20
65.442
 21
65.186
  0
LINE
  8
0
 10
52.742
 11
52.151
 20
65.186
 21
65.073
  0
LINE
  8
0
 10
52.151
 11
51.55
 20
65.073
 21
65.111
  0
LINE
  8
0
 10
51.55
 11
50.978
 20
65.111
 21
65.297
  0
LINE
  8
0
 10
50.978
 11
50.47
 20
65.297
 21
65.62
  0
LINE
  8
0
 10
50.47
 11
50.058
 20
65.62
 21
66.058
  0
LINE
  8
0
 10
50.058
 11
49.769
 20
66.058
 21
66.585
  0
LINE
  8
0
 10
49.769
 11
49.619
 20
66.585
 21
67.168
  0
LINE
  8
0
 10
57.619
 11
57.619
 20
3.668
 21
4.27
  0
LINE
  8
0
 10
57.619
 11
57.769
 20
4.27
 21
4.852
  0
LINE
  8
0
 10
57.769
 11
58.058
 20
4.852
 21
5.379
  0
LINE
  8
0
 10
58.058
 11
58.47
 20
5.379
 21
5.818
  0
LINE
  8
0
 10
58.47
 11
58.978
 20
5.818
 21
6.14
  0
LINE
  8
0
 10
58.978
 11
59.55
 20
6.14
 21
6.326
  0
LINE
  8
0
 10
59.55
 11
60.151
 20
6.326
 21
6.364
  0
LINE
  8
0
 10
60.151
 11
60.742
 20
6.364
 21
6.251
  0
LINE
  8
0
 10
60.742
 11
61.286
 20
6.251
 21
5.995
  0
LINE
  8
0
 10
61.286
 11
61.75
 20
5.995
 21
5.612
  0
LINE
  8
0
 10
61.75
 11
62.103
 20
5.612
 21
5.125
  0
LINE
  8
0
 10
62.103
 11
62.325
 20
5.125
 21
4.566
  0
LINE
  8
0
 10
62.325
 11
62.4
 20
4.566
 21
3.969
  0
LINE
  8
0
 10
62.4
 11
62.325
 20
3.969
 21
3.372
  0
LINE
  8
0
 10
62.325
 11
62.103
 20
3.372
 21
2.813
  0
LINE
  8
0
 10
62.103
 11
61.75
 20
2.813
 21
2.326
  0
LINE
  8
0
 10
61.75
 11
61.286
 20
2.326
 21
1.942
  0
LINE
  8
0
 10
61.286
 11
60.742
 20
1.942
 21
1.686
  0
LINE
  8
0
 10
60.742
 11
60.151
 20
1.686
 21
1.573
  0
LINE
  8
0
 10
60.151
 11
59.55
 20
1.573
 21
1.611
  0
LINE
  8
0
 10
59.55
 11
58.978
 20
1.611
 21
1.797
  0
LINE
  8
0
 10
58.978
 11
58.47
 20
1.797
 21
2.12
  0
LINE
  8
0
 10
58.47
 11
58.058
 20
2.12
 21
2.558
  0
LINE
  8
0
 10
58.058
 11
57.769
 20
2.558
 21
3.085
  0
LINE
  8
0
 10
57.769
 11
57.619
 20
3.085
 21
3.668
  0
LINE
  8
0
 10
57.619
 11
57.619
 20
67.168
 21
67.77
  0
LINE
  8
0
 10
57.619
 11
57.769
 20
67.77
 21
68.352
  0
LINE
  8
0
 10
57.769
 11
58.058
 20
68.352
 21
68.879
  0
LINE
  8
0
 10
58.058
 11
58.47
 20
68.879
 21
69.318
  0
LINE
  8
0
 10
58.47
 11
58.978
 20
69.318
 21
69.64
  0
LINE
  8
0
 10
58.978
 11
59.55
 20
69.64
 21
69.826
  0
LINE
  8
0
 10
59.55
 11
60.151
 20
69.826
 21
69.864
  0
LINE
  8
0
 10
60.151
 11
60.742
 20
69.864
 21
69.751
  0
LINE
  8
0
 10
60.742
 11
61.286
 20
69.751
 21
69.495
  0
LINE
  8
0
 10
61.286
 11
61.75
 20
69.495
 21
69.112
  0
LINE
  8
0
 10
61.75
 11
62.103
 20
69.112
 21
68.625
  0
LINE
  8
0
 10
62.103
 11
62.325
 20
68.625
 21
68.066
  0
LINE
  8
0
 10
62.325
 11
62.4
 20
68.066
 21
67.469
  0
LINE
  8
0
 10
62.4
 11
62.325
 20
67.469
 21
66.872
  0
LINE
  8
0
 10
62.325
 11
62.103
 20
66.872
 21
66.313
  0
LINE
  8
0
 10
62.103
 11
61.75
 20
66.313
 21
65.826
  0
LINE
  8
0
 10
61.75
 11
61.286
 20
65.826
 21
65.442
  0
LINE
  8
0
 10
61.286
 11
60.742
 20
65.442
 21
65.186
  0
LINE
  8
0
 10
60.742
 11
60.151
 20
65.186
 21
65.073
  0
LINE
  8
0
 10
60.151
 11
59.55
 20
65.073
 21
65.111
  0
LINE
  8
0
 10
59.55
 11
58.978
 20
65.111
 21
65.297
  0
LINE
  8
0
 10
58.978
 11
58.47
 20
65.297
 21
65.62
  0
LINE
  8
0
 10
58.47
 11
58.058
 20
65.62
 21
66.058
  0
LINE
  8
0
 10
58.058
 11
57.769
 20
66.058
 21
66.585
  0
LINE
  8
0
 10
57.769
 11
57.619
 20
66.585
 21
67.168
  0
LINE
  8
0
 10
65.619
 11
65.619
 20
3.668
 21
4.27
  0
LINE
  8
0
 10
65.619
 11
65.769
 20
4.27
 21
4.852
  0
LINE
  8
0
 10
65.769
 11
66.058
 20
4.852
 21
5.379
  0
LINE
  8
0
 10
66.058
 11
66.47
 20
5.379
 21
5.818
  0
LINE
  8
0
 10
66.47
 11
66.978
 20
5.818
 21
6.14
  0
LINE
  8
0
 10
66.978
 11
67.55
 20
6.14
 21
6.326
  0
LINE
  8
0
 10
67.55
 11
68.151
 20
6.326
 21
6.364
  0
LINE
  8
0
 10
68.151
 11
68.742
 20
6.364
 21
6.251
  0
LINE
  8
0
 10
68.742
 11
69.286
 20
6.251
 21
5.995
  0
LINE
  8
0
 10
69.286
 11
69.75
 20
5.995
 21
5.612
  0
LINE
  8
0
 10
69.75
 11
70.103
 20
5.612
 21
5.125
  0
LINE
  8
0
 10
70.103
 11
70.325
 20
5.125
 21
4.566
  0
LINE
  8
0
 10
70.325
 11
70.4
 20
4.566
 21
3.969
  0
LINE
  8
0
 10
70.4
 11
70.325
 20
3.969
 21
3.372
  0
LINE
  8
0
 10
70.325
 11
70.103
 20
3.372
 21
2.813
  0
LINE
  8
0
 10
70.103
 11
69.75
 20
2.813
 21
2.326
  0
LINE
  8
0
 10
69.75
 11
69.286
 20
2.326
 21
1.942
  0
LINE
  8
0
 10
69.286
 11
68.742
 20
1.942
 21
1.686
  0
LINE
  8
0
 10
68.742
 11
68.151
 20
1.686
 21
1.573
  0
LINE
  8
0
 10
68.151
 11
67.55
 20
1.573
 21
1.611
  0
LINE
  8
0
 10
67.55
 11
66.978
 20
1.611
 21
1.797
  0
LINE
  8
0
 10
66.978
 11
66.47
 20
1.797
 21
2.12
  0
LINE
  8
0
 10
66.47
 11
66.058
 20
2.12
 21
2.558
  0
LINE
  8
0
 10
66.058
 11
65.769
 20
2.558
 21
3.085
  0
LINE
  8
0
 10
65.769
 11
65.619
 20
3.085
 21
3.668
  0
LINE
  8
0
 10
65.619
 11
65.619
 20
67.168
 21
67.77
  0
LINE
  8
0
 10
65.619
 11
65.769
 20
67.77
 21
68.352
  0
LINE
  8
0
 10
65.769
 11
66.058
 20
68.352
 21
68.879
  0
LINE
  8
0
 10
66.058
 11
66.47
 20
68.879
 21
69.318
  0
LINE
  8
0
 10
66.47
 11
66.978
 20
69.318
 21
69.64
  0
LINE
  8
0
 10
66.978
 11
67.55
 20
69.64
 21
69.826
  0
LINE
  8
0
 10
67.55
 11
68.151
 20
69.826
 21
69.864
  0
LINE
  8
0
 10
68.151
 11
68.742
 20
69.864
 21
69.751
  0
LINE
  8
0
 10
68.742
 11
69.286
 20
69.751
 21
69.495
  0
LINE
  8
0
 10
69.286
 11
69.75
 20
69.495
 21
69.112
  0
LINE
  8
0
 10
69.75
 11
70.103
 20
69.112
 21
68.625
  0
LINE
  8
0
 10
70.103
 11
70.325
 20
68.625
 21
68.066
  0
LINE
  8
0
 10
70.325
 11
70.4
 20
68.066
 21
67.469
  0
LINE
  8
0
 10
70.4
 11
70.325
 20
67.469
 21
66.872
  0
LINE
  8
0
 10
70.325
 11
70.103
 20
66.872
 21
66.313
  0
LINE
  8
0
 10
70.103
 11
69.75
 20
66.313
 21
65.826
  0
LINE
  8
0
 10
69.75
 11
69.286
 20
65.826
 21
65.442
  0
LINE
  8
0
 10
69.286
 11
68.742
 20
65.442
 21
65.186
  0
LINE
  8
0
 10
68.742
 11
68.151
 20
65.186
 21
65.073
  0
LINE
  8
0
 10
68.151
 11
67.55
 20
65.073
 21
65.111
  0
LINE
  8
0
 10
67.55
 11
66.978
 20
65.111
 21
65.297
  0
LINE
  8
0
 10
66.978
 11
66.47
 20
65.297
 21
65.62
  0
LINE
  8
0
 10
66.47
 11
66.058
 20
65.62
 21
66.058
  0
LINE
  8
0
 10
66.058
 11
65.769
 20
66.058
 21
66.585
  0
LINE
  8
0
 10
65.769
 11
65.619
 20
66.585
 21
67.168
  0
LINE
  8
0
 10
66.512
 11
66.512
 20
16.562
 21
16.938
  0
LINE
  8
0
 10
66.512
 11
66.605
 20
16.938
 21
17.302
  0
LINE
  8
0
 10
66.605
 11
66.786
 20
17.302
 21
17.632
  0
LINE
  8
0
 10
66.786
 11
67.044
 20
17.632
 21
17.906
  0
LINE
  8
0
 10
67.044
 11
67.361
 20
17.906
 21
18.107
  0
LINE
  8
0
 10
67.361
 11
67.719
 20
18.107
 21
18.223
  0
LINE
  8
0
 10
67.719
 11
68.094
 20
18.223
 21
18.247
  0
LINE
  8
0
 10
68.094
 11
68.464
 20
18.247
 21
18.177
  0
LINE
  8
0
 10
68.464
 11
68.804
 20
18.177
 21
18.016
  0
LINE
  8
0
 10
68.804
 11
69.093
 20
18.016
 21
17.777
  0
LINE
  8
0
 10
69.093
 11
69.314
 20
17.777
 21
17.473
  0
LINE
  8
0
 10
69.314
 11
69.453
 20
17.473
 21
17.123
  0
LINE
  8
0
 10
69.453
 11
69.5
 20
17.123
 21
16.75
  0
LINE
  8
0
 10
69.5
 11
69.453
 20
16.75
 21
16.377
  0
LINE
  8
0
 10
69.453
 11
69.314
 20
16.377
 21
16.027
  0
LINE
  8
0
 10
69.314
 11
69.093
 20
16.027
 21
15.723
  0
LINE
  8
0
 10
69.093
 11
68.804
 20
15.723
 21
15.484
  0
LINE
  8
0
 10
68.804
 11
68.464
 20
15.484
 21
15.323
  0
LINE
  8
0
 10
68.464
 11
68.094
 20
15.323
 21
15.253
  0
LINE
  8
0
 10
68.094
 11
67.719
 20
15.253
 21
15.277
  0
LINE
  8
0
 10
67.719
 11
67.361
 20
15.277
 21
15.393
  0
LINE
  8
0
 10
67.361
 11
67.044
 20
15.393
 21
15.594
  0
LINE
  8
0
 10
67.044
 11
66.786
 20
15.594
 21
15.868
  0
LINE
  8
0
 10
66.786
 11
66.605
 20
15.868
 21
16.198
  0
LINE
  8
0
 10
66.605
 11
66.512
 20
16.198
 21
16.562
  0
LINE
  8
0
 10
66.512
 11
66.512
 20
44.562
 21
44.938
  0
LINE
  8
0
 10
66.512
 11
66.605
 20
44.938
 21
45.302
  0
LINE
  8
0
 10
66.605
 11
66.786
 20
45.302
 21
45.632
  0
LINE
  8
0
 10
66.786
 11
67.044
 20
45.632
 21
45.906
  0
LINE
  8
0
 10
67.044
 11
67.361
 20
45.906
 21
46.107
  0
LINE
  8
0
 10
67.361
 11
67.719
 20
46.107
 21
46.223
  0
LINE
  8
0
 10
67.719
 11
68.094
 20
46.223
 21
46.247
  0
LINE
  8
0
 10
68.094
 11
68.464
 20
46.247
 21
46.177
  0
LINE
  8
0
 10
68.464
 11
68.804
 20
46.177
 21
46.016
  0
LINE
  8
0
 10
68.804
 11
69.093
 20
46.016
 21
45.777
  0
LINE
  8
0
 10
69.093
 11
69.314
 20
45.777
 21
45.473
  0
LINE
  8
0
 10
69.314
 11
69.453
 20
45.473
 21
45.123
  0
LINE
  8
0
 10
69.453
 11
69.5
 20
45.123
 21
44.75
  0
LINE
  8
0
 10
69.5
 11
69.453
 20
44.75
 21
44.377
  0
LINE
  8
0
 10
69.453
 11
69.314
 20
44.377
 21
44.027
  0
LINE
  8
0
 10
69.314
 11
69.093
 20
44.027
 21
43.723
  0
LINE
  8
0
 10
69.093
 11
68.804
 20
43.723
 21
43.484
  0
LINE
  8
0
 10
68.804
 11
68.464
 20
43.484
 21
43.323
  0
LINE
  8
0
 10
68.464
 11
68.094
 20
43.323
 21
43.253
  0
LINE
  8
0
 10
68.094
 11
67.719
 20
43.253
 21
43.277
  0
LINE
  8
0
 10
67.719
 11
67.361
 20
43.277
 21
43.393
  0
LINE
  8
0
 10
67.361
 11
67.044
 20
43.393
 21
43.594
  0
LINE
  8
0
 10
67.044
 11
66.786
 20
43.594
 21
43.868
  0
LINE
  8
0
 10
66.786
 11
66.605
 20
43.868
 21
44.198
  0
LINE
  8
0
 10
66.605
 11
66.512
 20
44.198
 21
44.562
  0
ENDSEC
  0
SECTION
  2
OBJECTS
  0
DICTIONARY
  0
ENDSEC
  0
EOF
