  0
SECTION
  2
BLOCKS
  0
ENDSEC
  0
SECTION
  2
ENTITIES
  0
LINE
  8
0
 10
0
 11
0
 20
0
 21
31.75
  0
LINE
  8
0
 10
0
 11
24
 20
31.75
 21
31.75
  0
LINE
  8
0
 10
24
 11
24
 20
31.75
 21
0
  0
LINE
  8
0
 10
24
 11
0
 20
0
 21
0
  0
LINE
  8
0
 10
1.619
 11
1.619
 20
3.668
 21
4.27
  0
LINE
  8
0
 10
1.619
 11
1.769
 20
4.27
 21
4.852
  0
LINE
  8
0
 10
1.769
 11
2.058
 20
4.852
 21
5.38
  0
LINE
  8
0
 10
2.058
 11
2.47
 20
5.38
 21
5.818
  0
LINE
  8
0
 10
2.47
 11
2.978
 20
5.818
 21
6.141
  0
LINE
  8
0
 10
2.978
 11
3.55
 20
6.141
 21
6.326
  0
LINE
  8
0
 10
3.55
 11
4.151
 20
6.326
 21
6.364
  0
LINE
  8
0
 10
4.151
 11
4.742
 20
6.364
 21
6.252
  0
LINE
  8
0
 10
4.742
 11
5.286
 20
6.252
 21
5.995
  0
LINE
  8
0
 10
5.286
 11
5.75
 20
5.995
 21
5.612
  0
LINE
  8
0
 10
5.75
 11
6.103
 20
5.612
 21
5.125
  0
LINE
  8
0
 10
6.103
 11
6.325
 20
5.125
 21
4.566
  0
LINE
  8
0
 10
6.325
 11
6.4
 20
4.566
 21
3.969
  0
LINE
  8
0
 10
6.4
 11
6.325
 20
3.969
 21
3.372
  0
LINE
  8
0
 10
6.325
 11
6.103
 20
3.372
 21
2.813
  0
LINE
  8
0
 10
6.103
 11
5.75
 20
2.813
 21
2.326
  0
LINE
  8
0
 10
5.75
 11
5.286
 20
2.326
 21
1.943
  0
LINE
  8
0
 10
5.286
 11
4.742
 20
1.943
 21
1.686
  0
LINE
  8
0
 10
4.742
 11
4.151
 20
1.686
 21
1.574
  0
LINE
  8
0
 10
4.151
 11
3.55
 20
1.574
 21
1.612
  0
LINE
  8
0
 10
3.55
 11
2.978
 20
1.612
 21
1.797
  0
LINE
  8
0
 10
2.978
 11
2.47
 20
1.797
 21
2.12
  0
LINE
  8
0
 10
2.47
 11
2.058
 20
2.12
 21
2.558
  0
LINE
  8
0
 10
2.058
 11
1.769
 20
2.558
 21
3.086
  0
LINE
  8
0
 10
1.769
 11
1.619
 20
3.086
 21
3.668
  0
LINE
  8
0
 10
1.619
 11
1.619
 20
27.48
 21
28.082
  0
LINE
  8
0
 10
1.619
 11
1.769
 20
28.082
 21
28.664
  0
LINE
  8
0
 10
1.769
 11
2.058
 20
28.664
 21
29.192
  0
LINE
  8
0
 10
2.058
 11
2.47
 20
29.192
 21
29.63
  0
LINE
  8
0
 10
2.47
 11
2.978
 20
29.63
 21
29.953
  0
LINE
  8
0
 10
2.978
 11
3.55
 20
29.953
 21
30.138
  0
LINE
  8
0
 10
3.55
 11
4.151
 20
30.138
 21
30.176
  0
LINE
  8
0
 10
4.151
 11
4.742
 20
30.176
 21
30.064
  0
LINE
  8
0
 10
4.742
 11
5.286
 20
30.064
 21
29.807
  0
LINE
  8
0
 10
5.286
 11
5.75
 20
29.807
 21
29.424
  0
LINE
  8
0
 10
5.75
 11
6.103
 20
29.424
 21
28.937
  0
LINE
  8
0
 10
6.103
 11
6.325
 20
28.937
 21
28.378
  0
LINE
  8
0
 10
6.325
 11
6.4
 20
28.378
 21
27.781
  0
LINE
  8
0
 10
6.4
 11
6.325
 20
27.781
 21
27.184
  0
LINE
  8
0
 10
6.325
 11
6.103
 20
27.184
 21
26.625
  0
LINE
  8
0
 10
6.103
 11
5.75
 20
26.625
 21
26.138
  0
LINE
  8
0
 10
5.75
 11
5.286
 20
26.138
 21
25.755
  0
LINE
  8
0
 10
5.286
 11
4.742
 20
25.755
 21
25.498
  0
LINE
  8
0
 10
4.742
 11
4.151
 20
25.498
 21
25.386
  0
LINE
  8
0
 10
4.151
 11
3.55
 20
25.386
 21
25.424
  0
LINE
  8
0
 10
3.55
 11
2.978
 20
25.424
 21
25.609
  0
LINE
  8
0
 10
2.978
 11
2.47
 20
25.609
 21
25.932
  0
LINE
  8
0
 10
2.47
 11
2.058
 20
25.932
 21
26.37
  0
LINE
  8
0
 10
2.058
 11
1.769
 20
26.37
 21
26.898
  0
LINE
  8
0
 10
1.769
 11
1.619
 20
26.898
 21
27.48
  0
LINE
  8
0
 10
8.701
 11
8.701
 20
15.458
 21
16.292
  0
LINE
  8
0
 10
8.701
 11
8.908
 20
16.292
 21
17.099
  0
LINE
  8
0
 10
8.908
 11
9.31
 20
17.099
 21
17.829
  0
LINE
  8
0
 10
9.31
 11
9.881
 20
17.829
 21
18.437
  0
LINE
  8
0
 10
9.881
 11
10.584
 20
18.437
 21
18.884
  0
LINE
  8
0
 10
10.584
 11
11.377
 20
18.884
 21
19.141
  0
LINE
  8
0
 10
11.377
 11
12.209
 20
19.141
 21
19.193
  0
LINE
  8
0
 10
12.209
 11
13.027
 20
19.193
 21
19.037
  0
LINE
  8
0
 10
13.027
 11
13.782
 20
19.037
 21
18.682
  0
LINE
  8
0
 10
13.782
 11
14.424
 20
18.682
 21
18.151
  0
LINE
  8
0
 10
14.424
 11
14.914
 20
18.151
 21
17.477
  0
LINE
  8
0
 10
14.914
 11
15.221
 20
17.477
 21
16.702
  0
LINE
  8
0
 10
15.221
 11
15.325
 20
16.702
 21
15.875
  0
LINE
  8
0
 10
15.325
 11
15.221
 20
15.875
 21
15.048
  0
LINE
  8
0
 10
15.221
 11
14.914
 20
15.048
 21
14.273
  0
LINE
  8
0
 10
14.914
 11
14.424
 20
14.273
 21
13.599
  0
LINE
  8
0
 10
14.424
 11
13.782
 20
13.599
 21
13.068
  0
LINE
  8
0
 10
13.782
 11
13.027
 20
13.068
 21
12.713
  0
LINE
  8
0
 10
13.027
 11
12.209
 20
12.713
 21
12.557
  0
LINE
  8
0
 10
12.209
 11
11.377
 20
12.557
 21
12.609
  0
LINE
  8
0
 10
11.377
 11
10.584
 20
12.609
 21
12.866
  0
LINE
  8
0
 10
10.584
 11
9.881
 20
12.866
 21
13.313
  0
LINE
  8
0
 10
9.881
 11
9.31
 20
13.313
 21
13.921
  0
LINE
  8
0
 10
9.31
 11
8.908
 20
13.921
 21
14.651
  0
LINE
  8
0
 10
8.908
 11
8.701
 20
14.651
 21
15.458
  0
LINE
  8
0
 10
9.619
 11
9.619
 20
3.668
 21
4.27
  0
LINE
  8
0
 10
9.619
 11
9.769
 20
4.27
 21
4.852
  0
LINE
  8
0
 10
9.769
 11
10.058
 20
4.852
 21
5.38
  0
LINE
  8
0
 10
10.058
 11
10.47
 20
5.38
 21
5.818
  0
LINE
  8
0
 10
10.47
 11
10.978
 20
5.818
 21
6.141
  0
LINE
  8
0
 10
10.978
 11
11.55
 20
6.141
 21
6.326
  0
LINE
  8
0
 10
11.55
 11
12.151
 20
6.326
 21
6.364
  0
LINE
  8
0
 10
12.151
 11
12.742
 20
6.364
 21
6.252
  0
LINE
  8
0
 10
12.742
 11
13.286
 20
6.252
 21
5.995
  0
LINE
  8
0
 10
13.286
 11
13.75
 20
5.995
 21
5.612
  0
LINE
  8
0
 10
13.75
 11
14.103
 20
5.612
 21
5.125
  0
LINE
  8
0
 10
14.103
 11
14.325
 20
5.125
 21
4.566
  0
LINE
  8
0
 10
14.325
 11
14.4
 20
4.566
 21
3.969
  0
LINE
  8
0
 10
14.4
 11
14.325
 20
3.969
 21
3.372
  0
LINE
  8
0
 10
14.325
 11
14.103
 20
3.372
 21
2.813
  0
LINE
  8
0
 10
14.103
 11
13.75
 20
2.813
 21
2.326
  0
LINE
  8
0
 10
13.75
 11
13.286
 20
2.326
 21
1.943
  0
LINE
  8
0
 10
13.286
 11
12.742
 20
1.943
 21
1.686
  0
LINE
  8
0
 10
12.742
 11
12.151
 20
1.686
 21
1.574
  0
LINE
  8
0
 10
12.151
 11
11.55
 20
1.574
 21
1.612
  0
LINE
  8
0
 10
11.55
 11
10.978
 20
1.612
 21
1.797
  0
LINE
  8
0
 10
10.978
 11
10.47
 20
1.797
 21
2.12
  0
LINE
  8
0
 10
10.47
 11
10.058
 20
2.12
 21
2.558
  0
LINE
  8
0
 10
10.058
 11
9.769
 20
2.558
 21
3.086
  0
LINE
  8
0
 10
9.769
 11
9.619
 20
3.086
 21
3.668
  0
LINE
  8
0
 10
9.619
 11
9.619
 20
27.48
 21
28.082
  0
LINE
  8
0
 10
9.619
 11
9.769
 20
28.082
 21
28.664
  0
LINE
  8
0
 10
9.769
 11
10.058
 20
28.664
 21
29.192
  0
LINE
  8
0
 10
10.058
 11
10.47
 20
29.192
 21
29.63
  0
LINE
  8
0
 10
10.47
 11
10.978
 20
29.63
 21
29.953
  0
LINE
  8
0
 10
10.978
 11
11.55
 20
29.953
 21
30.138
  0
LINE
  8
0
 10
11.55
 11
12.151
 20
30.138
 21
30.176
  0
LINE
  8
0
 10
12.151
 11
12.742
 20
30.176
 21
30.064
  0
LINE
  8
0
 10
12.742
 11
13.286
 20
30.064
 21
29.807
  0
LINE
  8
0
 10
13.286
 11
13.75
 20
29.807
 21
29.424
  0
LINE
  8
0
 10
13.75
 11
14.103
 20
29.424
 21
28.937
  0
LINE
  8
0
 10
14.103
 11
14.325
 20
28.937
 21
28.378
  0
LINE
  8
0
 10
14.325
 11
14.4
 20
28.378
 21
27.781
  0
LINE
  8
0
 10
14.4
 11
14.325
 20
27.781
 21
27.184
  0
LINE
  8
0
 10
14.325
 11
14.103
 20
27.184
 21
26.625
  0
LINE
  8
0
 10
14.103
 11
13.75
 20
26.625
 21
26.138
  0
LINE
  8
0
 10
13.75
 11
13.286
 20
26.138
 21
25.755
  0
LINE
  8
0
 10
13.286
 11
12.742
 20
25.755
 21
25.498
  0
LINE
  8
0
 10
12.742
 11
12.151
 20
25.498
 21
25.386
  0
LINE
  8
0
 10
12.151
 11
11.55
 20
25.386
 21
25.424
  0
LINE
  8
0
 10
11.55
 11
10.978
 20
25.424
 21
25.609
  0
LINE
  8
0
 10
10.978
 11
10.47
 20
25.609
 21
25.932
  0
LINE
  8
0
 10
10.47
 11
10.058
 20
25.932
 21
26.37
  0
LINE
  8
0
 10
10.058
 11
9.769
 20
26.37
 21
26.898
  0
LINE
  8
0
 10
9.769
 11
9.619
 20
26.898
 21
27.48
  0
LINE
  8
0
 10
17.619
 11
17.619
 20
3.668
 21
4.27
  0
LINE
  8
0
 10
17.619
 11
17.769
 20
4.27
 21
4.852
  0
LINE
  8
0
 10
17.769
 11
18.058
 20
4.852
 21
5.38
  0
LINE
  8
0
 10
18.058
 11
18.47
 20
5.38
 21
5.818
  0
LINE
  8
0
 10
18.47
 11
18.978
 20
5.818
 21
6.141
  0
LINE
  8
0
 10
18.978
 11
19.55
 20
6.141
 21
6.326
  0
LINE
  8
0
 10
19.55
 11
20.151
 20
6.326
 21
6.364
  0
LINE
  8
0
 10
20.151
 11
20.742
 20
6.364
 21
6.252
  0
LINE
  8
0
 10
20.742
 11
21.286
 20
6.252
 21
5.995
  0
LINE
  8
0
 10
21.286
 11
21.75
 20
5.995
 21
5.612
  0
LINE
  8
0
 10
21.75
 11
22.103
 20
5.612
 21
5.125
  0
LINE
  8
0
 10
22.103
 11
22.325
 20
5.125
 21
4.566
  0
LINE
  8
0
 10
22.325
 11
22.4
 20
4.566
 21
3.969
  0
LINE
  8
0
 10
22.4
 11
22.325
 20
3.969
 21
3.372
  0
LINE
  8
0
 10
22.325
 11
22.103
 20
3.372
 21
2.813
  0
LINE
  8
0
 10
22.103
 11
21.75
 20
2.813
 21
2.326
  0
LINE
  8
0
 10
21.75
 11
21.286
 20
2.326
 21
1.943
  0
LINE
  8
0
 10
21.286
 11
20.742
 20
1.943
 21
1.686
  0
LINE
  8
0
 10
20.742
 11
20.151
 20
1.686
 21
1.574
  0
LINE
  8
0
 10
20.151
 11
19.55
 20
1.574
 21
1.612
  0
LINE
  8
0
 10
19.55
 11
18.978
 20
1.612
 21
1.797
  0
LINE
  8
0
 10
18.978
 11
18.47
 20
1.797
 21
2.12
  0
LINE
  8
0
 10
18.47
 11
18.058
 20
2.12
 21
2.558
  0
LINE
  8
0
 10
18.058
 11
17.769
 20
2.558
 21
3.086
  0
LINE
  8
0
 10
17.769
 11
17.619
 20
3.086
 21
3.668
  0
LINE
  8
0
 10
17.619
 11
17.619
 20
27.48
 21
28.082
  0
LINE
  8
0
 10
17.619
 11
17.769
 20
28.082
 21
28.664
  0
LINE
  8
0
 10
17.769
 11
18.058
 20
28.664
 21
29.192
  0
LINE
  8
0
 10
18.058
 11
18.47
 20
29.192
 21
29.63
  0
LINE
  8
0
 10
18.47
 11
18.978
 20
29.63
 21
29.953
  0
LINE
  8
0
 10
18.978
 11
19.55
 20
29.953
 21
30.138
  0
LINE
  8
0
 10
19.55
 11
20.151
 20
30.138
 21
30.176
  0
LINE
  8
0
 10
20.151
 11
20.742
 20
30.176
 21
30.064
  0
LINE
  8
0
 10
20.742
 11
21.286
 20
30.064
 21
29.807
  0
LINE
  8
0
 10
21.286
 11
21.75
 20
29.807
 21
29.424
  0
LINE
  8
0
 10
21.75
 11
22.103
 20
29.424
 21
28.937
  0
LINE
  8
0
 10
22.103
 11
22.325
 20
28.937
 21
28.378
  0
LINE
  8
0
 10
22.325
 11
22.4
 20
28.378
 21
27.781
  0
LINE
  8
0
 10
22.4
 11
22.325
 20
27.781
 21
27.184
  0
LINE
  8
0
 10
22.325
 11
22.103
 20
27.184
 21
26.625
  0
LINE
  8
0
 10
22.103
 11
21.75
 20
26.625
 21
26.138
  0
LINE
  8
0
 10
21.75
 11
21.286
 20
26.138
 21
25.755
  0
LINE
  8
0
 10
21.286
 11
20.742
 20
25.755
 21
25.498
  0
LINE
  8
0
 10
20.742
 11
20.151
 20
25.498
 21
25.386
  0
LINE
  8
0
 10
20.151
 11
19.55
 20
25.386
 21
25.424
  0
LINE
  8
0
 10
19.55
 11
18.978
 20
25.424
 21
25.609
  0
LINE
  8
0
 10
18.978
 11
18.47
 20
25.609
 21
25.932
  0
LINE
  8
0
 10
18.47
 11
18.058
 20
25.932
 21
26.37
  0
LINE
  8
0
 10
18.058
 11
17.769
 20
26.37
 21
26.898
  0
LINE
  8
0
 10
17.769
 11
17.619
 20
26.898
 21
27.48
  0
ENDSEC
  0
SECTION
  2
OBJECTS
  0
DICTIONARY
  0
ENDSEC
  0
EOF
