solid OpenSCAD_Model
  facet normal -1 0 0
    outer loop
      vertex 15.1662 5 21.0927
      vertex 15.1662 0.957263 23.0073
      vertex 15.1662 5 23.0073
    endloop
  endfacet
  facet normal -1 0 0
    outer loop
      vertex 15.1662 0 21.0927
      vertex 15.1662 0.957263 23.0073
      vertex 15.1662 5 21.0927
    endloop
  endfacet
  facet normal -1 0 0
    outer loop
      vertex 15.1662 0.957263 23.0073
      vertex 15.1662 0 21.0927
      vertex 15.1662 0 22.05
    endloop
  endfacet
  facet normal 0.748508 -0 0.663125
    outer loop
      vertex 21.3223 3.29194 25.3419
      vertex 21.55 5 25.0849
      vertex 21.3223 5 25.3419
    endloop
  endfacet
  facet normal 0.748511 -6.71715e-07 0.663123
    outer loop
      vertex 21.55 5 25.0849
      vertex 21.3223 3.29194 25.3419
      vertex 22.5918 5 23.9089
    endloop
  endfacet
  facet normal 0.74851 0 0.663123
    outer loop
      vertex 22.5918 5 23.9089
      vertex 21.3223 3.29194 25.3419
      vertex 22.5918 1.85889 23.9089
    endloop
  endfacet
  facet normal 0.970942 -0 0.239315
    outer loop
      vertex 22.5918 1.85889 23.9089
      vertex 23.05 5 22.05
      vertex 22.5918 5 23.9089
    endloop
  endfacet
  facet normal 0.970942 0 0.239315
    outer loop
      vertex 23.05 5 22.05
      vertex 22.5918 1.85889 23.9089
      vertex 23.05 0 22.05
    endloop
  endfacet
  facet normal 0.748511 0 -0.663123
    outer loop
      vertex 22.5918 5 20.1911
      vertex 21.3223 1.75242 18.7581
      vertex 21.3223 5 18.7581
    endloop
  endfacet
  facet normal 0.748511 0 -0.663123
    outer loop
      vertex 22.5918 0 20.1911
      vertex 21.3223 1.75242 18.7581
      vertex 22.5918 5 20.1911
    endloop
  endfacet
  facet normal 0.748511 4.34967e-09 -0.663123
    outer loop
      vertex 21.3223 1.75242 18.7581
      vertex 22.5918 0 20.1911
      vertex 21.7383 0 19.2276
    endloop
  endfacet
  facet normal -4.66276e-08 1 -3.84011e-07
    outer loop
      vertex 19.5321 5 18.0792
      vertex 21.55 5 20.3176
      vertex 22.5918 5 20.1911
    endloop
  endfacet
  facet normal -4.66275e-08 1 -3.84011e-07
    outer loop
      vertex 16.55 5 20.9247
      vertex 19.5321 5 18.0792
      vertex 15.1662 5 21.0927
    endloop
  endfacet
  facet normal -4.66273e-08 1 -3.84011e-07
    outer loop
      vertex 21.55 5 20.3176
      vertex 19.5321 5 18.0792
      vertex 16.55 5 20.9247
    endloop
  endfacet
  facet normal -4.66277e-08 1 -3.84011e-07
    outer loop
      vertex 17.6316 5 18.3099
      vertex 15.1662 5 21.0927
      vertex 19.5321 5 18.0792
    endloop
  endfacet
  facet normal -0.120536 0 0.992709
    outer loop
      vertex 17.6316 5 25.7901
      vertex 19.5321 3.97084 26.0208
      vertex 19.5321 5 26.0208
    endloop
  endfacet
  facet normal -0.120536 0 0.992709
    outer loop
      vertex 19.5321 3.97084 26.0208
      vertex 17.6316 5 25.7901
      vertex 17.6316 3.74007 25.7901
    endloop
  endfacet
  facet normal 0.354606 0 -0.935016
    outer loop
      vertex 19.5321 4.28611 18.0792
      vertex 21.3223 5 18.7581
      vertex 21.3223 1.75242 18.7581
    endloop
  endfacet
  facet normal 0.354606 0 -0.935016
    outer loop
      vertex 21.3223 5 18.7581
      vertex 19.5321 4.28611 18.0792
      vertex 19.5321 5 18.0792
    endloop
  endfacet
  facet normal -0.568066 4.90044e-07 -0.822983
    outer loop
      vertex 16.056 0 19.3975
      vertex 17.6316 3.42487 18.3099
      vertex 16.3021 0 19.2276
    endloop
  endfacet
  facet normal -0.568065 0 -0.822984
    outer loop
      vertex 17.6316 3.42487 18.3099
      vertex 16.056 0 19.3975
      vertex 16.056 5 19.3975
    endloop
  endfacet
  facet normal -0.568065 0 -0.822984
    outer loop
      vertex 17.6316 3.42487 18.3099
      vertex 16.056 5 19.3975
      vertex 17.6316 5 18.3099
    endloop
  endfacet
  facet normal 0 -1 0
    outer loop
      vertex 16.55 5 26.05
      vertex 19.5321 5 26.0208
      vertex 21.55 5 26.05
    endloop
  endfacet
  facet normal 0 -1 0
    outer loop
      vertex 16.55 5 26.05
      vertex 17.6316 5 25.7901
      vertex 19.5321 5 26.0208
    endloop
  endfacet
  facet normal -0 -1 0
    outer loop
      vertex 17.6316 5 25.7901
      vertex 16.55 5 26.05
      vertex 16.55 5 25.0435
    endloop
  endfacet
  facet normal 0 -1 0
    outer loop
      vertex 21.3223 5 25.3419
      vertex 21.55 5 26.05
      vertex 19.5321 5 26.0208
    endloop
  endfacet
  facet normal 0 -1 -0
    outer loop
      vertex 21.55 5 26.05
      vertex 21.3223 5 25.3419
      vertex 21.55 5 25.0849
    endloop
  endfacet
  facet normal 0 1 0
    outer loop
      vertex 21.55 5 20.3176
      vertex 22.5918 5 23.9089
      vertex 23.05 5 22.05
    endloop
  endfacet
  facet normal 0 1 0
    outer loop
      vertex 22.5918 5 23.9089
      vertex 21.55 5 20.3176
      vertex 21.55 5 25.0849
    endloop
  endfacet
  facet normal -0 1 0
    outer loop
      vertex 21.55 5 20.3176
      vertex 23.05 5 22.05
      vertex 22.5918 5 20.1911
    endloop
  endfacet
  facet normal 0 1 -0
    outer loop
      vertex 16.55 5 20.9247
      vertex 16.056 5 24.7025
      vertex 16.55 5 25.0435
    endloop
  endfacet
  facet normal 0 1 0
    outer loop
      vertex 16.056 5 24.7025
      vertex 16.55 5 20.9247
      vertex 15.1662 5 23.0073
    endloop
  endfacet
  facet normal 0 1 0
    outer loop
      vertex 15.1662 5 23.0073
      vertex 16.55 5 20.9247
      vertex 15.1662 5 21.0927
    endloop
  endfacet
  facet normal 0 -1 0
    outer loop
      vertex 16.55 5 3
      vertex 21.55 5 20.3176
      vertex 16.55 5 20.9247
    endloop
  endfacet
  facet normal 0 -1 -0
    outer loop
      vertex 21.55 5 20.3176
      vertex 16.55 5 3
      vertex 21.55 5 3
    endloop
  endfacet
  facet normal -0.568065 0 0.822983
    outer loop
      vertex 16.55 5 25.0435
      vertex 17.6316 3.74007 25.7901
      vertex 17.6316 5 25.7901
    endloop
  endfacet
  facet normal -0.568066 0 0.822983
    outer loop
      vertex 16.056 2.65249 24.7025
      vertex 16.55 5 25.0435
      vertex 16.056 5 24.7025
    endloop
  endfacet
  facet normal -0.568066 -3.41497e-08 0.822983
    outer loop
      vertex 16.55 5 25.0435
      vertex 16.056 2.65249 24.7025
      vertex 17.6316 3.74007 25.7901
    endloop
  endfacet
  facet normal -0.120537 -0 -0.992709
    outer loop
      vertex 17.6316 5 18.3099
      vertex 19.5321 4.28611 18.0792
      vertex 17.6316 3.42487 18.3099
    endloop
  endfacet
  facet normal -0.120537 0 -0.992709
    outer loop
      vertex 19.5321 4.28611 18.0792
      vertex 17.6316 5 18.3099
      vertex 19.5321 5 18.0792
    endloop
  endfacet
  facet normal 0.354606 -0 0.935016
    outer loop
      vertex 19.5321 3.97084 26.0208
      vertex 21.3223 5 25.3419
      vertex 19.5321 5 26.0208
    endloop
  endfacet
  facet normal 0.354606 0 0.935016
    outer loop
      vertex 21.3223 5 25.3419
      vertex 19.5321 3.97084 26.0208
      vertex 21.3223 3.29194 25.3419
    endloop
  endfacet
  facet normal 3.80094e-07 1 -1.00222e-06
    outer loop
      vertex 21.3223 5 18.7581
      vertex 19.5321 5 18.0792
      vertex 22.5918 5 20.1911
    endloop
  endfacet
  facet normal 0 -1 0
    outer loop
      vertex 16.3021 0 19.2276
      vertex 15.1662 0 22.05
      vertex 15.1662 0 21.0927
    endloop
  endfacet
  facet normal 0 -1 0
    outer loop
      vertex 15.1662 0 22.05
      vertex 21.7383 0 19.2276
      vertex 23.05 0 22.05
    endloop
  endfacet
  facet normal 0 -1 0
    outer loop
      vertex 16.3021 0 19.2276
      vertex 15.1662 0 21.0927
      vertex 16.056 0 19.3975
    endloop
  endfacet
  facet normal 0 -1 0
    outer loop
      vertex 15.1662 0 22.05
      vertex 16.3021 0 19.2276
      vertex 21.7383 0 19.2276
    endloop
  endfacet
  facet normal 0 -1 0
    outer loop
      vertex 23.05 0 22.05
      vertex 21.7383 0 19.2276
      vertex 22.5918 0 20.1911
    endloop
  endfacet
  facet normal 0.970942 0 -0.239316
    outer loop
      vertex 23.05 0 22.05
      vertex 22.5918 5 20.1911
      vertex 23.05 5 22.05
    endloop
  endfacet
  facet normal 0.970942 0 -0.239316
    outer loop
      vertex 22.5918 5 20.1911
      vertex 23.05 0 22.05
      vertex 22.5918 0 20.1911
    endloop
  endfacet
  facet normal -0.885456 0 0.464724
    outer loop
      vertex 15.1662 5 23.0073
      vertex 16.056 2.65249 24.7025
      vertex 16.056 5 24.7025
    endloop
  endfacet
  facet normal -0.885456 0 0.464724
    outer loop
      vertex 16.056 2.65249 24.7025
      vertex 15.1662 5 23.0073
      vertex 15.1662 0.957263 23.0073
    endloop
  endfacet
  facet normal -0.885456 0 -0.464724
    outer loop
      vertex 16.056 0 19.3975
      vertex 15.1662 5 21.0927
      vertex 16.056 5 19.3975
    endloop
  endfacet
  facet normal -0.885456 -0 -0.464724
    outer loop
      vertex 15.1662 5 21.0927
      vertex 16.056 0 19.3975
      vertex 15.1662 0 21.0927
    endloop
  endfacet
  facet normal -6.08896e-07 1 -8.82137e-07
    outer loop
      vertex 16.056 5 19.3975
      vertex 15.1662 5 21.0927
      vertex 17.6316 5 18.3099
    endloop
  endfacet
  facet normal 2.37976e-08 -0.707107 0.707107
    outer loop
      vertex 15.1662 0 22.05
      vertex 19.5321 3.97084 26.0208
      vertex 17.6316 3.74007 25.7901
    endloop
  endfacet
  facet normal -5.56938e-07 -0.707107 0.707107
    outer loop
      vertex 15.1662 0 22.05
      vertex 17.6316 3.74007 25.7901
      vertex 16.056 2.65249 24.7025
    endloop
  endfacet
  facet normal 4.86251e-07 -0.707107 0.707106
    outer loop
      vertex 19.5321 3.97084 26.0208
      vertex 15.1662 0 22.05
      vertex 21.3223 3.29194 25.3419
    endloop
  endfacet
  facet normal 2.10015e-06 -0.707107 0.707106
    outer loop
      vertex 15.1662 0 22.05
      vertex 16.056 2.65249 24.7025
      vertex 15.1662 0.957263 23.0073
    endloop
  endfacet
  facet normal -2.67165e-07 -0.707106 0.707107
    outer loop
      vertex 21.3223 3.29194 25.3419
      vertex 15.1662 0 22.05
      vertex 22.5918 1.85889 23.9089
    endloop
  endfacet
  facet normal 0 -0.707107 0.707107
    outer loop
      vertex 22.5918 1.85889 23.9089
      vertex 15.1662 0 22.05
      vertex 23.05 0 22.05
    endloop
  endfacet
  facet normal 0 -0.258819 -0.965926
    outer loop
      vertex 16.3021 0 19.2276
      vertex 21.3223 1.75242 18.7581
      vertex 21.7383 0 19.2276
    endloop
  endfacet
  facet normal -2.47864e-07 -0.25882 -0.965926
    outer loop
      vertex 21.3223 1.75242 18.7581
      vertex 17.6316 3.42487 18.3099
      vertex 19.5321 4.28611 18.0792
    endloop
  endfacet
  facet normal 3.6729e-09 -0.258819 -0.965926
    outer loop
      vertex 21.3223 1.75242 18.7581
      vertex 16.3021 0 19.2276
      vertex 17.6316 3.42487 18.3099
    endloop
  endfacet
  facet normal 1 0 0
    outer loop
      vertex 21.55 5 25.0849
      vertex 21.55 7 26.05
      vertex 21.55 5 26.05
    endloop
  endfacet
  facet normal 1 0 0
    outer loop
      vertex 21.55 5 20.3176
      vertex 21.55 7 26.05
      vertex 21.55 5 25.0849
    endloop
  endfacet
  facet normal 1 0 0
    outer loop
      vertex 21.55 7 26.05
      vertex 21.55 5 20.3176
      vertex 21.55 7 3
    endloop
  endfacet
  facet normal 1 0 0
    outer loop
      vertex 21.55 7 3
      vertex 21.55 5 20.3176
      vertex 21.55 5 3
    endloop
  endfacet
  facet normal -0 0 1
    outer loop
      vertex 16.55 7 26.05
      vertex 21.55 5 26.05
      vertex 21.55 7 26.05
    endloop
  endfacet
  facet normal 0 0 1
    outer loop
      vertex 21.55 5 26.05
      vertex 16.55 7 26.05
      vertex 16.55 5 26.05
    endloop
  endfacet
  facet normal 0 0 -1
    outer loop
      vertex 0 0 0
      vertex 38.1 38.1 0
      vertex 38.1 0 0
    endloop
  endfacet
  facet normal -0 0 -1
    outer loop
      vertex 38.1 38.1 0
      vertex 0 0 0
      vertex 0 38.1 0
    endloop
  endfacet
  facet normal -1 0 0
    outer loop
      vertex 16.55 5 20.9247
      vertex 16.55 7 3
      vertex 16.55 5 3
    endloop
  endfacet
  facet normal -1 0 0
    outer loop
      vertex 16.55 7 3
      vertex 16.55 5 20.9247
      vertex 16.55 7 26.05
    endloop
  endfacet
  facet normal -1 0 0
    outer loop
      vertex 16.55 5 25.0435
      vertex 16.55 7 26.05
      vertex 16.55 5 20.9247
    endloop
  endfacet
  facet normal -1 -0 0
    outer loop
      vertex 16.55 7 26.05
      vertex 16.55 5 25.0435
      vertex 16.55 5 26.05
    endloop
  endfacet
  facet normal 0 1 -0
    outer loop
      vertex 21.55 7 3
      vertex 16.55 7 26.05
      vertex 21.55 7 26.05
    endloop
  endfacet
  facet normal 0 1 0
    outer loop
      vertex 16.55 7 26.05
      vertex 21.55 7 3
      vertex 16.55 7 3
    endloop
  endfacet
  facet normal 1 0 0
    outer loop
      vertex 22.9338 37.1427 23.0073
      vertex 22.9338 38.1 21.0927
      vertex 22.9338 38.1 22.05
    endloop
  endfacet
  facet normal 1 0 0
    outer loop
      vertex 22.9338 33.1 21.0927
      vertex 22.9338 37.1427 23.0073
      vertex 22.9338 33.1 23.0073
    endloop
  endfacet
  facet normal 1 0 0
    outer loop
      vertex 22.9338 37.1427 23.0073
      vertex 22.9338 33.1 21.0927
      vertex 22.9338 38.1 21.0927
    endloop
  endfacet
  facet normal -0.748511 0 0.663123
    outer loop
      vertex 15.5082 33.1 23.9089
      vertex 16.7777 34.8081 25.3419
      vertex 15.5082 36.2411 23.9089
    endloop
  endfacet
  facet normal -0.748511 -1.64126e-07 0.663123
    outer loop
      vertex 16.55 33.1 25.0849
      vertex 16.7777 34.8081 25.3419
      vertex 15.5082 33.1 23.9089
    endloop
  endfacet
  facet normal -0.748511 0 0.663122
    outer loop
      vertex 16.7777 34.8081 25.3419
      vertex 16.55 33.1 25.0849
      vertex 16.7777 33.1 25.3419
    endloop
  endfacet
  facet normal -0.970942 0 0.239315
    outer loop
      vertex 15.05 33.1 22.05
      vertex 15.5082 36.2411 23.9089
      vertex 15.05 38.1 22.05
    endloop
  endfacet
  facet normal -0.970942 0 0.239315
    outer loop
      vertex 15.5082 36.2411 23.9089
      vertex 15.05 33.1 22.05
      vertex 15.5082 33.1 23.9089
    endloop
  endfacet
  facet normal -0.748511 -4.01393e-07 -0.663122
    outer loop
      vertex 16.7777 36.3476 18.7581
      vertex 15.5082 38.1 20.1911
      vertex 16.3617 38.1 19.2276
    endloop
  endfacet
  facet normal -0.748511 0 -0.663122
    outer loop
      vertex 15.5082 33.1 20.1911
      vertex 16.7777 36.3476 18.7581
      vertex 16.7777 33.1 18.7581
    endloop
  endfacet
  facet normal -0.748511 0 -0.663122
    outer loop
      vertex 16.7777 36.3476 18.7581
      vertex 15.5082 33.1 20.1911
      vertex 15.5082 38.1 20.1911
    endloop
  endfacet
  facet normal 1.8651e-07 -1 -1.53604e-06
    outer loop
      vertex 18.5679 33.1 18.0792
      vertex 16.55 33.1 20.3176
      vertex 15.5082 33.1 20.1911
    endloop
  endfacet
  facet normal 1.8651e-07 -1 -1.53604e-06
    outer loop
      vertex 21.55 33.1 20.9247
      vertex 18.5679 33.1 18.0792
      vertex 22.9338 33.1 21.0927
    endloop
  endfacet
  facet normal 1.86509e-07 -1 -1.53604e-06
    outer loop
      vertex 16.55 33.1 20.3176
      vertex 18.5679 33.1 18.0792
      vertex 21.55 33.1 20.9247
    endloop
  endfacet
  facet normal 1.86511e-07 -1 -1.53605e-06
    outer loop
      vertex 22.9338 33.1 21.0927
      vertex 18.5679 33.1 18.0792
      vertex 20.4684 33.1 18.3099
    endloop
  endfacet
  facet normal 0.120536 0 0.992709
    outer loop
      vertex 18.5679 34.1292 26.0208
      vertex 20.4684 33.1 25.7901
      vertex 20.4684 34.3599 25.7901
    endloop
  endfacet
  facet normal 0.120536 0 0.992709
    outer loop
      vertex 20.4684 33.1 25.7901
      vertex 18.5679 34.1292 26.0208
      vertex 18.5679 33.1 26.0208
    endloop
  endfacet
  facet normal -0.354605 0 -0.935016
    outer loop
      vertex 16.7777 33.1 18.7581
      vertex 18.5679 33.8139 18.0792
      vertex 18.5679 33.1 18.0792
    endloop
  endfacet
  facet normal -0.354605 0 -0.935016
    outer loop
      vertex 18.5679 33.8139 18.0792
      vertex 16.7777 33.1 18.7581
      vertex 16.7777 36.3476 18.7581
    endloop
  endfacet
  facet normal 0.568065 0 -0.822984
    outer loop
      vertex 20.4684 34.6751 18.3099
      vertex 22.044 38.1 19.3975
      vertex 22.044 33.1 19.3975
    endloop
  endfacet
  facet normal 0.568065 0 -0.822984
    outer loop
      vertex 20.4684 34.6751 18.3099
      vertex 22.044 33.1 19.3975
      vertex 20.4684 33.1 18.3099
    endloop
  endfacet
  facet normal 0.568066 -4.90044e-07 -0.822983
    outer loop
      vertex 22.044 38.1 19.3975
      vertex 20.4684 34.6751 18.3099
      vertex 21.7979 38.1 19.2276
    endloop
  endfacet
  facet normal 0 1 0
    outer loop
      vertex 21.55 33.1 26.05
      vertex 18.5679 33.1 26.0208
      vertex 16.55 33.1 26.05
    endloop
  endfacet
  facet normal 0 1 0
    outer loop
      vertex 21.55 33.1 26.05
      vertex 20.4684 33.1 25.7901
      vertex 18.5679 33.1 26.0208
    endloop
  endfacet
  facet normal -0 1 0
    outer loop
      vertex 20.4684 33.1 25.7901
      vertex 21.55 33.1 26.05
      vertex 21.55 33.1 25.0435
    endloop
  endfacet
  facet normal 0 1 -0
    outer loop
      vertex 16.7777 33.1 25.3419
      vertex 16.55 33.1 26.05
      vertex 18.5679 33.1 26.0208
    endloop
  endfacet
  facet normal 0 1 0
    outer loop
      vertex 16.55 33.1 26.05
      vertex 16.7777 33.1 25.3419
      vertex 16.55 33.1 25.0849
    endloop
  endfacet
  facet normal 0 -1 0
    outer loop
      vertex 16.55 33.1 20.3176
      vertex 15.5082 33.1 23.9089
      vertex 15.05 33.1 22.05
    endloop
  endfacet
  facet normal 0 -1 0
    outer loop
      vertex 15.5082 33.1 23.9089
      vertex 16.55 33.1 20.3176
      vertex 16.55 33.1 25.0849
    endloop
  endfacet
  facet normal -0 -1 0
    outer loop
      vertex 16.55 33.1 20.3176
      vertex 15.05 33.1 22.05
      vertex 15.5082 33.1 20.1911
    endloop
  endfacet
  facet normal 0 -1 0
    outer loop
      vertex 21.55 33.1 20.9247
      vertex 22.044 33.1 24.7025
      vertex 21.55 33.1 25.0435
    endloop
  endfacet
  facet normal 0 -1 -0
    outer loop
      vertex 22.044 33.1 24.7025
      vertex 21.55 33.1 20.9247
      vertex 22.9338 33.1 23.0073
    endloop
  endfacet
  facet normal 0 -1 -0
    outer loop
      vertex 22.9338 33.1 23.0073
      vertex 21.55 33.1 20.9247
      vertex 22.9338 33.1 21.0927
    endloop
  endfacet
  facet normal 0 1 -0
    outer loop
      vertex 21.55 33.1 3
      vertex 16.55 33.1 20.3176
      vertex 21.55 33.1 20.9247
    endloop
  endfacet
  facet normal 0 1 0
    outer loop
      vertex 16.55 33.1 20.3176
      vertex 21.55 33.1 3
      vertex 16.55 33.1 3
    endloop
  endfacet
  facet normal 0.568066 0 0.822983
    outer loop
      vertex 22.044 35.4475 24.7025
      vertex 21.55 33.1 25.0435
      vertex 22.044 33.1 24.7025
    endloop
  endfacet
  facet normal 0.568066 3.41496e-08 0.822983
    outer loop
      vertex 20.4684 34.3599 25.7901
      vertex 21.55 33.1 25.0435
      vertex 22.044 35.4475 24.7025
    endloop
  endfacet
  facet normal 0.568065 0 0.822983
    outer loop
      vertex 21.55 33.1 25.0435
      vertex 20.4684 34.3599 25.7901
      vertex 20.4684 33.1 25.7901
    endloop
  endfacet
  facet normal 0.120537 0 -0.992709
    outer loop
      vertex 18.5679 33.8139 18.0792
      vertex 20.4684 33.1 18.3099
      vertex 18.5679 33.1 18.0792
    endloop
  endfacet
  facet normal 0.120537 0 -0.992709
    outer loop
      vertex 20.4684 33.1 18.3099
      vertex 18.5679 33.8139 18.0792
      vertex 20.4684 34.6751 18.3099
    endloop
  endfacet
  facet normal -0.354605 0 0.935016
    outer loop
      vertex 16.7777 33.1 25.3419
      vertex 18.5679 34.1292 26.0208
      vertex 16.7777 34.8081 25.3419
    endloop
  endfacet
  facet normal -0.354605 0 0.935016
    outer loop
      vertex 18.5679 34.1292 26.0208
      vertex 16.7777 33.1 25.3419
      vertex 18.5679 33.1 26.0208
    endloop
  endfacet
  facet normal -1.52037e-06 -1 -4.00889e-06
    outer loop
      vertex 18.5679 33.1 18.0792
      vertex 15.5082 33.1 20.1911
      vertex 16.7777 33.1 18.7581
    endloop
  endfacet
  facet normal 0 1 0
    outer loop
      vertex 21.7979 38.1 19.2276
      vertex 22.9338 38.1 22.05
      vertex 22.9338 38.1 21.0927
    endloop
  endfacet
  facet normal 0 1 0
    outer loop
      vertex 22.9338 38.1 22.05
      vertex 16.3617 38.1 19.2276
      vertex 15.05 38.1 22.05
    endloop
  endfacet
  facet normal 0 1 0
    outer loop
      vertex 21.7979 38.1 19.2276
      vertex 22.9338 38.1 21.0927
      vertex 22.044 38.1 19.3975
    endloop
  endfacet
  facet normal 0 1 0
    outer loop
      vertex 22.9338 38.1 22.05
      vertex 21.7979 38.1 19.2276
      vertex 16.3617 38.1 19.2276
    endloop
  endfacet
  facet normal 0 1 0
    outer loop
      vertex 15.05 38.1 22.05
      vertex 16.3617 38.1 19.2276
      vertex 15.5082 38.1 20.1911
    endloop
  endfacet
  facet normal -0.970942 0 -0.239316
    outer loop
      vertex 15.5082 33.1 20.1911
      vertex 15.05 38.1 22.05
      vertex 15.5082 38.1 20.1911
    endloop
  endfacet
  facet normal -0.970942 -0 -0.239316
    outer loop
      vertex 15.05 38.1 22.05
      vertex 15.5082 33.1 20.1911
      vertex 15.05 33.1 22.05
    endloop
  endfacet
  facet normal 0.885456 0 0.464724
    outer loop
      vertex 22.9338 33.1 23.0073
      vertex 22.044 35.4475 24.7025
      vertex 22.044 33.1 24.7025
    endloop
  endfacet
  facet normal 0.885456 0 0.464724
    outer loop
      vertex 22.044 35.4475 24.7025
      vertex 22.9338 33.1 23.0073
      vertex 22.9338 37.1427 23.0073
    endloop
  endfacet
  facet normal 0.885456 0 -0.464723
    outer loop
      vertex 22.9338 38.1 21.0927
      vertex 22.044 33.1 19.3975
      vertex 22.044 38.1 19.3975
    endloop
  endfacet
  facet normal 0.885456 0 -0.464723
    outer loop
      vertex 22.044 33.1 19.3975
      vertex 22.9338 38.1 21.0927
      vertex 22.9338 33.1 21.0927
    endloop
  endfacet
  facet normal 2.43558e-06 -1 -3.52855e-06
    outer loop
      vertex 22.9338 33.1 21.0927
      vertex 20.4684 33.1 18.3099
      vertex 22.044 33.1 19.3975
    endloop
  endfacet
  facet normal -9.51903e-08 0.707107 0.707106
    outer loop
      vertex 22.9338 38.1 22.05
      vertex 18.5679 34.1292 26.0208
      vertex 20.4684 34.3599 25.7901
    endloop
  endfacet
  facet normal 6.57164e-07 0.707107 0.707107
    outer loop
      vertex 22.9338 38.1 22.05
      vertex 20.4684 34.3599 25.7901
      vertex 22.044 35.4475 24.7025
    endloop
  endfacet
  facet normal -8.81595e-07 0.707108 0.707106
    outer loop
      vertex 18.5679 34.1292 26.0208
      vertex 22.9338 38.1 22.05
      vertex 16.7777 34.8081 25.3419
    endloop
  endfacet
  facet normal -6.88478e-06 0.707108 0.707105
    outer loop
      vertex 22.9338 38.1 22.05
      vertex 22.044 35.4475 24.7025
      vertex 22.9338 37.1427 23.0073
    endloop
  endfacet
  facet normal 6.82989e-07 0.707106 0.707107
    outer loop
      vertex 16.7777 34.8081 25.3419
      vertex 22.9338 38.1 22.05
      vertex 15.5082 36.2411 23.9089
    endloop
  endfacet
  facet normal 0 0.707108 0.707106
    outer loop
      vertex 15.5082 36.2411 23.9089
      vertex 22.9338 38.1 22.05
      vertex 15.05 38.1 22.05
    endloop
  endfacet
  facet normal 3.58779e-07 0.25882 -0.965926
    outer loop
      vertex 16.7777 36.3476 18.7581
      vertex 20.4684 34.6751 18.3099
      vertex 18.5679 33.8139 18.0792
    endloop
  endfacet
  facet normal 7.45292e-08 0.258819 -0.965926
    outer loop
      vertex 20.4684 34.6751 18.3099
      vertex 16.7777 36.3476 18.7581
      vertex 21.7979 38.1 19.2276
    endloop
  endfacet
  facet normal 0 0.258819 -0.965926
    outer loop
      vertex 21.7979 38.1 19.2276
      vertex 16.7777 36.3476 18.7581
      vertex 16.3617 38.1 19.2276
    endloop
  endfacet
  facet normal -1 0 0
    outer loop
      vertex 16.55 31.1 3
      vertex 16.55 33.1 20.3176
      vertex 16.55 33.1 3
    endloop
  endfacet
  facet normal -1 0 0
    outer loop
      vertex 16.55 31.1 26.05
      vertex 16.55 33.1 20.3176
      vertex 16.55 31.1 3
    endloop
  endfacet
  facet normal -1 0 0
    outer loop
      vertex 16.55 33.1 20.3176
      vertex 16.55 31.1 26.05
      vertex 16.55 33.1 25.0849
    endloop
  endfacet
  facet normal -1 0 0
    outer loop
      vertex 16.55 33.1 25.0849
      vertex 16.55 31.1 26.05
      vertex 16.55 33.1 26.05
    endloop
  endfacet
  facet normal -0 0 1
    outer loop
      vertex 16.55 33.1 26.05
      vertex 21.55 31.1 26.05
      vertex 21.55 33.1 26.05
    endloop
  endfacet
  facet normal 0 0 1
    outer loop
      vertex 21.55 31.1 26.05
      vertex 16.55 33.1 26.05
      vertex 16.55 31.1 26.05
    endloop
  endfacet
  facet normal 1 -0 0
    outer loop
      vertex 21.55 31.1 26.05
      vertex 21.55 33.1 25.0435
      vertex 21.55 33.1 26.05
    endloop
  endfacet
  facet normal 1 0 0
    outer loop
      vertex 21.55 33.1 25.0435
      vertex 21.55 31.1 26.05
      vertex 21.55 33.1 20.9247
    endloop
  endfacet
  facet normal 1 0 0
    outer loop
      vertex 21.55 31.1 3
      vertex 21.55 33.1 20.9247
      vertex 21.55 31.1 26.05
    endloop
  endfacet
  facet normal 1 0 0
    outer loop
      vertex 21.55 33.1 20.9247
      vertex 21.55 31.1 3
      vertex 21.55 33.1 3
    endloop
  endfacet
  facet normal 0 -1 0
    outer loop
      vertex 16.55 31.1 3
      vertex 21.55 31.1 26.05
      vertex 16.55 31.1 26.05
    endloop
  endfacet
  facet normal 0 -1 -0
    outer loop
      vertex 21.55 31.1 26.05
      vertex 16.55 31.1 3
      vertex 21.55 31.1 3
    endloop
  endfacet
  facet normal 1 -0 0
    outer loop
      vertex 38.1 0 3
      vertex 38.1 38.1 0
      vertex 38.1 38.1 3
    endloop
  endfacet
  facet normal 1 0 0
    outer loop
      vertex 38.1 38.1 0
      vertex 38.1 0 3
      vertex 38.1 0 0
    endloop
  endfacet
  facet normal -0 0 1
    outer loop
      vertex 16.55 31.1 3
      vertex 21.55 7 3
      vertex 21.55 31.1 3
    endloop
  endfacet
  facet normal 0 0 1
    outer loop
      vertex 21.55 7 3
      vertex 16.55 31.1 3
      vertex 16.55 7 3
    endloop
  endfacet
  facet normal 0 0 1
    outer loop
      vertex 21.55 31.1 3
      vertex 38.1 38.1 3
      vertex 21.55 33.1 3
    endloop
  endfacet
  facet normal 0 0 1
    outer loop
      vertex 38.1 38.1 3
      vertex 16.55 33.1 3
      vertex 21.55 33.1 3
    endloop
  endfacet
  facet normal 0 0 1
    outer loop
      vertex 0 38.1 3
      vertex 16.55 31.1 3
      vertex 16.55 33.1 3
    endloop
  endfacet
  facet normal 0 0 1
    outer loop
      vertex 0 0 3
      vertex 16.55 7 3
      vertex 0 38.1 3
    endloop
  endfacet
  facet normal 0 0 1
    outer loop
      vertex 16.55 31.1 3
      vertex 0 38.1 3
      vertex 16.55 7 3
    endloop
  endfacet
  facet normal -0 0 1
    outer loop
      vertex 0 38.1 3
      vertex 16.55 33.1 3
      vertex 38.1 38.1 3
    endloop
  endfacet
  facet normal 0 0 1
    outer loop
      vertex 38.1 38.1 3
      vertex 21.55 31.1 3
      vertex 38.1 0 3
    endloop
  endfacet
  facet normal -0 0 1
    outer loop
      vertex 21.55 7 3
      vertex 38.1 0 3
      vertex 21.55 31.1 3
    endloop
  endfacet
  facet normal -0 0 1
    outer loop
      vertex 21.55 5 3
      vertex 38.1 0 3
      vertex 21.55 7 3
    endloop
  endfacet
  facet normal -0 0 1
    outer loop
      vertex 16.55 5 3
      vertex 38.1 0 3
      vertex 21.55 5 3
    endloop
  endfacet
  facet normal 0 0 1
    outer loop
      vertex 16.55 5 3
      vertex 0 0 3
      vertex 38.1 0 3
    endloop
  endfacet
  facet normal 0 0 1
    outer loop
      vertex 16.55 7 3
      vertex 0 0 3
      vertex 16.55 5 3
    endloop
  endfacet
  facet normal -1 0 0
    outer loop
      vertex 0 0 0
      vertex 0 38.1 3
      vertex 0 38.1 0
    endloop
  endfacet
  facet normal -1 -0 0
    outer loop
      vertex 0 38.1 3
      vertex 0 0 0
      vertex 0 0 3
    endloop
  endfacet
  facet normal 0 1 -0
    outer loop
      vertex 38.1 38.1 0
      vertex 0 38.1 3
      vertex 38.1 38.1 3
    endloop
  endfacet
  facet normal 0 1 0
    outer loop
      vertex 0 38.1 3
      vertex 38.1 38.1 0
      vertex 0 38.1 0
    endloop
  endfacet
  facet normal 0 -1 0
    outer loop
      vertex 0 0 0
      vertex 38.1 0 3
      vertex 0 0 3
    endloop
  endfacet
  facet normal 0 -1 -0
    outer loop
      vertex 38.1 0 3
      vertex 0 0 0
      vertex 38.1 0 0
    endloop
  endfacet
endsolid OpenSCAD_Model
