solid OpenSCAD_Model
  facet normal -0 0 -1
    outer loop
      vertex 189.376 7.71243 0
      vertex 188.017 5.35879 0
      vertex 174.461 15.7059 0
    endloop
  endfacet
  facet normal -0 0 -1
    outer loop
      vertex 190.216 10.2972 0
      vertex 189.376 7.71243 0
      vertex 175.561 17.2197 0
    endloop
  endfacet
  facet normal 0 0 -1
    outer loop
      vertex 174.461 15.7059 0
      vertex 186.199 3.33912 0
      vertex 184 1.74168 0
    endloop
  endfacet
  facet normal -0 0 -1
    outer loop
      vertex 190.5 13 0
      vertex 190.216 10.2972 0
      vertex 175.561 17.2197 0
    endloop
  endfacet
  facet normal 0 -0 -1
    outer loop
      vertex 175.561 17.2197 0
      vertex 189.376 7.71243 0
      vertex 174.461 15.7059 0
    endloop
  endfacet
  facet normal 0 0 -1
    outer loop
      vertex 175.95 19.05 0
      vertex 190.5 25.1 0
      vertex 190.5 13 0
    endloop
  endfacet
  facet normal -0 0 -1
    outer loop
      vertex 189.376 30.3876 0
      vertex 174.461 22.3941 0
      vertex 188.017 32.7412 0
    endloop
  endfacet
  facet normal -0 0 -1
    outer loop
      vertex 181.517 37.4637 0
      vertex 174.461 22.3941 0
      vertex 178.859 38.0288 0
    endloop
  endfacet
  facet normal 0 -0 -1
    outer loop
      vertex 181.517 37.4637 0
      vertex 184 36.3583 0
      vertex 174.461 22.3941 0
    endloop
  endfacet
  facet normal 0 0 -1
    outer loop
      vertex 169.2 22.9471 0
      vertex 178.859 38.0288 0
      vertex 170.98 23.5253 0
    endloop
  endfacet
  facet normal -0 0 -1
    outer loop
      vertex 169.2 22.9471 0
      vertex 136.361 22.3941 0
      vertex 178.859 38.0288 0
    endloop
  endfacet
  facet normal 0 0 -1
    outer loop
      vertex 172.841 23.3297 0
      vertex 178.859 38.0288 0
      vertex 174.461 22.3941 0
    endloop
  endfacet
  facet normal 0 0 -1
    outer loop
      vertex 174.461 22.3941 0
      vertex 184 36.3583 0
      vertex 186.199 34.7609 0
    endloop
  endfacet
  facet normal 0 0 -1
    outer loop
      vertex 178.859 0.071225 0
      vertex 94.7796 14.5747 0
      vertex 96.6406 14.7703 0
    endloop
  endfacet
  facet normal 0 0 -1
    outer loop
      vertex 0.284088 27.8028 0
      vertex 1.12392 30.3876 0
      vertex 15.4094 21.695 0
    endloop
  endfacet
  facet normal 0 0 -1
    outer loop
      vertex 15.4094 21.695 0
      vertex 1.12392 30.3876 0
      vertex 2.48279 32.7412 0
    endloop
  endfacet
  facet normal 0 0 -1
    outer loop
      vertex 14.6483 19.9856 0
      vertex 0 25.1 0
      vertex 15.4094 21.695 0
    endloop
  endfacet
  facet normal -0 -0 -1
    outer loop
      vertex 14.6483 19.9856 0
      vertex 14.6483 18.1144 0
      vertex 0 25.1 0
    endloop
  endfacet
  facet normal 0 0 -1
    outer loop
      vertex 15.4094 21.695 0
      vertex 0 25.1 0
      vertex 0.284088 27.8028 0
    endloop
  endfacet
  facet normal 0 0 -1
    outer loop
      vertex 0 13 0
      vertex 14.6483 18.1144 0
      vertex 15.4094 16.405 0
    endloop
  endfacet
  facet normal 0 0 -1
    outer loop
      vertex 0.284088 10.2972 0
      vertex 15.4094 16.405 0
      vertex 1.12392 7.71243 0
    endloop
  endfacet
  facet normal 0 0 -1
    outer loop
      vertex 6.5 1.74168 0
      vertex 4.30132 3.33912 0
      vertex 16.8 15.1529 0
    endloop
  endfacet
  facet normal -0 0 -1
    outer loop
      vertex 16.8 15.1529 0
      vertex 4.30132 3.33912 0
      vertex 15.4094 16.405 0
    endloop
  endfacet
  facet normal 0 0 -1
    outer loop
      vertex 11.6411 0.071225 0
      vertex 8.98279 0.636273 0
      vertex 16.8 15.1529 0
    endloop
  endfacet
  facet normal -0 0 -1
    outer loop
      vertex 18.5796 14.5747 0
      vertex 11.6411 0.071225 0
      vertex 16.8 15.1529 0
    endloop
  endfacet
  facet normal 0 0 -1
    outer loop
      vertex 16.8 15.1529 0
      vertex 8.98279 0.636273 0
      vertex 6.5 1.74168 0
    endloop
  endfacet
  facet normal 0 0 -1
    outer loop
      vertex 15.4094 16.405 0
      vertex 4.30132 3.33912 0
      vertex 2.48279 5.35879 0
    endloop
  endfacet
  facet normal 0 0 -1
    outer loop
      vertex 1.12392 7.71243 0
      vertex 15.4094 16.405 0
      vertex 2.48279 5.35879 0
    endloop
  endfacet
  facet normal -0 0 -1
    outer loop
      vertex 128.948 18.1144 0
      vertex 99.3609 17.2197 0
      vertex 99.75 19.05 0
    endloop
  endfacet
  facet normal 0 -0 -1
    outer loop
      vertex 93 15.1529 0
      vertex 94.7796 14.5747 0
      vertex 58.5406 14.7703 0
    endloop
  endfacet
  facet normal 0 -0 -1
    outer loop
      vertex 94.7796 14.5747 0
      vertex 178.859 0.071225 0
      vertex 11.6411 0.071225 0
    endloop
  endfacet
  facet normal 0 0 -1
    outer loop
      vertex 60.1611 15.7059 0
      vertex 61.261 17.2197 0
      vertex 91.6094 16.405 0
    endloop
  endfacet
  facet normal 0 0 -1
    outer loop
      vertex 61.65 19.05 0
      vertex 90.8483 19.9856 0
      vertex 90.8483 18.1144 0
    endloop
  endfacet
  facet normal -0 0 -1
    outer loop
      vertex 94.7796 14.5747 0
      vertex 11.6411 0.071225 0
      vertex 58.5406 14.7703 0
    endloop
  endfacet
  facet normal 0 0 -1
    outer loop
      vertex 58.5406 23.3297 0
      vertex 93 22.9471 0
      vertex 60.1611 22.3941 0
    endloop
  endfacet
  facet normal 0 0 -1
    outer loop
      vertex 58.5406 23.3297 0
      vertex 94.7796 23.5253 0
      vertex 93 22.9471 0
    endloop
  endfacet
  facet normal -0 0 -1
    outer loop
      vertex 178.859 38.0288 0
      vertex 94.7796 23.5253 0
      vertex 11.6411 38.0288 0
    endloop
  endfacet
  facet normal 0 0 -1
    outer loop
      vertex 178.859 38.0288 0
      vertex 96.6406 23.3297 0
      vertex 94.7796 23.5253 0
    endloop
  endfacet
  facet normal 0 0 -1
    outer loop
      vertex 129.709 16.405 0
      vertex 99.3609 17.2197 0
      vertex 128.948 18.1144 0
    endloop
  endfacet
  facet normal -0 0 -1
    outer loop
      vertex 129.709 16.405 0
      vertex 98.2611 15.7059 0
      vertex 99.3609 17.2197 0
    endloop
  endfacet
  facet normal 0 -0 -1
    outer loop
      vertex 129.709 16.405 0
      vertex 131.1 15.1529 0
      vertex 98.2611 15.7059 0
    endloop
  endfacet
  facet normal 0 -0 -1
    outer loop
      vertex 98.2611 15.7059 0
      vertex 131.1 15.1529 0
      vertex 96.6406 14.7703 0
    endloop
  endfacet
  facet normal 0 0 -1
    outer loop
      vertex 96.6406 14.7703 0
      vertex 131.1 15.1529 0
      vertex 132.88 14.5747 0
    endloop
  endfacet
  facet normal 0 0 -1
    outer loop
      vertex 178.859 0.071225 0
      vertex 96.6406 14.7703 0
      vertex 132.88 14.5747 0
    endloop
  endfacet
  facet normal -0 0 -1
    outer loop
      vertex 56.6796 14.5747 0
      vertex 11.6411 0.071225 0
      vertex 54.9 15.1529 0
    endloop
  endfacet
  facet normal 0 0 -1
    outer loop
      vertex 22.0611 15.7059 0
      vertex 23.161 17.2197 0
      vertex 53.5094 16.405 0
    endloop
  endfacet
  facet normal 0 0 -1
    outer loop
      vertex 23.55 19.05 0
      vertex 52.7483 19.9856 0
      vertex 52.7483 18.1144 0
    endloop
  endfacet
  facet normal 0 0 -1
    outer loop
      vertex 54.9 15.1529 0
      vertex 22.0611 15.7059 0
      vertex 53.5094 16.405 0
    endloop
  endfacet
  facet normal 0 0 -1
    outer loop
      vertex 11.6411 38.0288 0
      vertex 54.9 22.9471 0
      vertex 22.0611 22.3941 0
    endloop
  endfacet
  facet normal 0 0 -1
    outer loop
      vertex 58.5406 23.3297 0
      vertex 11.6411 38.0288 0
      vertex 94.7796 23.5253 0
    endloop
  endfacet
  facet normal 0 0 -1
    outer loop
      vertex 22.0611 22.3941 0
      vertex 20.4406 23.3297 0
      vertex 11.6411 38.0288 0
    endloop
  endfacet
  facet normal 0 0 -1
    outer loop
      vertex 58.5406 23.3297 0
      vertex 56.6796 23.5253 0
      vertex 11.6411 38.0288 0
    endloop
  endfacet
  facet normal -0 0 -1
    outer loop
      vertex 56.6796 23.5253 0
      vertex 54.9 22.9471 0
      vertex 11.6411 38.0288 0
    endloop
  endfacet
  facet normal 0 0 -1
    outer loop
      vertex 60.1611 22.3941 0
      vertex 91.6094 21.695 0
      vertex 61.261 20.8803 0
    endloop
  endfacet
  facet normal 0 0 -1
    outer loop
      vertex 93 22.9471 0
      vertex 91.6094 21.695 0
      vertex 60.1611 22.3941 0
    endloop
  endfacet
  facet normal 0 0 -1
    outer loop
      vertex 91.6094 21.695 0
      vertex 90.8483 19.9856 0
      vertex 61.261 20.8803 0
    endloop
  endfacet
  facet normal 0 0 -1
    outer loop
      vertex 61.261 20.8803 0
      vertex 90.8483 19.9856 0
      vertex 61.65 19.05 0
    endloop
  endfacet
  facet normal 0 -0 -1
    outer loop
      vertex 61.65 19.05 0
      vertex 90.8483 18.1144 0
      vertex 61.261 17.2197 0
    endloop
  endfacet
  facet normal 0 0 -1
    outer loop
      vertex 61.261 17.2197 0
      vertex 90.8483 18.1144 0
      vertex 91.6094 16.405 0
    endloop
  endfacet
  facet normal 0 0 -1
    outer loop
      vertex 60.1611 15.7059 0
      vertex 91.6094 16.405 0
      vertex 93 15.1529 0
    endloop
  endfacet
  facet normal 0 -0 -1
    outer loop
      vertex 56.6796 14.5747 0
      vertex 58.5406 14.7703 0
      vertex 11.6411 0.071225 0
    endloop
  endfacet
  facet normal 0 0 -1
    outer loop
      vertex 58.5406 14.7703 0
      vertex 60.1611 15.7059 0
      vertex 93 15.1529 0
    endloop
  endfacet
  facet normal 0 0 -1
    outer loop
      vertex 136.361 22.3941 0
      vertex 134.741 23.3297 0
      vertex 178.859 38.0288 0
    endloop
  endfacet
  facet normal 0 0 -1
    outer loop
      vertex 128.948 18.1144 0
      vertex 99.75 19.05 0
      vertex 128.948 19.9856 0
    endloop
  endfacet
  facet normal -0 0 -1
    outer loop
      vertex 128.948 19.9856 0
      vertex 99.75 19.05 0
      vertex 99.3609 20.8803 0
    endloop
  endfacet
  facet normal 0 0 -1
    outer loop
      vertex 129.709 21.695 0
      vertex 128.948 19.9856 0
      vertex 99.3609 20.8803 0
    endloop
  endfacet
  facet normal 0 0 -1
    outer loop
      vertex 98.2611 22.3941 0
      vertex 129.709 21.695 0
      vertex 99.3609 20.8803 0
    endloop
  endfacet
  facet normal 0 0 -1
    outer loop
      vertex 98.2611 22.3941 0
      vertex 131.1 22.9471 0
      vertex 129.709 21.695 0
    endloop
  endfacet
  facet normal 0 0 -1
    outer loop
      vertex 98.2611 22.3941 0
      vertex 96.6406 23.3297 0
      vertex 131.1 22.9471 0
    endloop
  endfacet
  facet normal 0 0 -1
    outer loop
      vertex 131.1 22.9471 0
      vertex 96.6406 23.3297 0
      vertex 132.88 23.5253 0
    endloop
  endfacet
  facet normal -0 0 -1
    outer loop
      vertex 132.88 23.5253 0
      vertex 96.6406 23.3297 0
      vertex 178.859 38.0288 0
    endloop
  endfacet
  facet normal 0 0 -1
    outer loop
      vertex 134.741 23.3297 0
      vertex 132.88 23.5253 0
      vertex 178.859 38.0288 0
    endloop
  endfacet
  facet normal 0 0 -1
    outer loop
      vertex 167.048 18.1144 0
      vertex 137.85 19.05 0
      vertex 167.048 19.9856 0
    endloop
  endfacet
  facet normal 0 0 -1
    outer loop
      vertex 136.361 15.7059 0
      vertex 137.461 17.2197 0
      vertex 167.809 16.405 0
    endloop
  endfacet
  facet normal 0 0 -1
    outer loop
      vertex 136.361 22.3941 0
      vertex 169.2 22.9471 0
      vertex 167.809 21.695 0
    endloop
  endfacet
  facet normal -0 -0 -1
    outer loop
      vertex 169.2 15.1529 0
      vertex 178.859 0.071225 0
      vertex 136.361 15.7059 0
    endloop
  endfacet
  facet normal 0 0 -1
    outer loop
      vertex 169.2 15.1529 0
      vertex 170.98 14.5747 0
      vertex 178.859 0.071225 0
    endloop
  endfacet
  facet normal 0 0 -1
    outer loop
      vertex 132.88 14.5747 0
      vertex 134.741 14.7703 0
      vertex 178.859 0.071225 0
    endloop
  endfacet
  facet normal 0 0 -1
    outer loop
      vertex 134.741 14.7703 0
      vertex 136.361 15.7059 0
      vertex 178.859 0.071225 0
    endloop
  endfacet
  facet normal -0 0 -1
    outer loop
      vertex 16.8 22.9471 0
      vertex 15.4094 21.695 0
      vertex 4.30132 34.7609 0
    endloop
  endfacet
  facet normal 0 0 -1
    outer loop
      vertex 0.284088 10.2972 0
      vertex 0 13 0
      vertex 15.4094 16.405 0
    endloop
  endfacet
  facet normal -0 0 -1
    outer loop
      vertex 14.6483 18.1144 0
      vertex 0 13 0
      vertex 0 25.1 0
    endloop
  endfacet
  facet normal 0 -0 -1
    outer loop
      vertex 4.30132 34.7609 0
      vertex 15.4094 21.695 0
      vertex 2.48279 32.7412 0
    endloop
  endfacet
  facet normal 0 -0 -1
    outer loop
      vertex 6.5 36.3583 0
      vertex 16.8 22.9471 0
      vertex 4.30132 34.7609 0
    endloop
  endfacet
  facet normal 0 0 -1
    outer loop
      vertex 6.5 36.3583 0
      vertex 8.98279 37.4637 0
      vertex 16.8 22.9471 0
    endloop
  endfacet
  facet normal 0 0 -1
    outer loop
      vertex 16.8 22.9471 0
      vertex 8.98279 37.4637 0
      vertex 11.6411 38.0288 0
    endloop
  endfacet
  facet normal 0 0 -1
    outer loop
      vertex 20.4406 23.3297 0
      vertex 18.5796 23.5253 0
      vertex 11.6411 38.0288 0
    endloop
  endfacet
  facet normal -0 0 -1
    outer loop
      vertex 18.5796 23.5253 0
      vertex 16.8 22.9471 0
      vertex 11.6411 38.0288 0
    endloop
  endfacet
  facet normal 0 0 -1
    outer loop
      vertex 22.0611 22.3941 0
      vertex 53.5094 21.695 0
      vertex 23.161 20.8803 0
    endloop
  endfacet
  facet normal 0 0 -1
    outer loop
      vertex 54.9 22.9471 0
      vertex 53.5094 21.695 0
      vertex 22.0611 22.3941 0
    endloop
  endfacet
  facet normal 0 0 -1
    outer loop
      vertex 53.5094 21.695 0
      vertex 52.7483 19.9856 0
      vertex 23.161 20.8803 0
    endloop
  endfacet
  facet normal 0 0 -1
    outer loop
      vertex 23.161 20.8803 0
      vertex 52.7483 19.9856 0
      vertex 23.55 19.05 0
    endloop
  endfacet
  facet normal 0 -0 -1
    outer loop
      vertex 23.55 19.05 0
      vertex 52.7483 18.1144 0
      vertex 23.161 17.2197 0
    endloop
  endfacet
  facet normal 0 0 -1
    outer loop
      vertex 23.161 17.2197 0
      vertex 52.7483 18.1144 0
      vertex 53.5094 16.405 0
    endloop
  endfacet
  facet normal 0 -0 -1
    outer loop
      vertex 22.0611 15.7059 0
      vertex 54.9 15.1529 0
      vertex 11.6411 0.071225 0
    endloop
  endfacet
  facet normal 0 -0 -1
    outer loop
      vertex 18.5796 14.5747 0
      vertex 20.4406 14.7703 0
      vertex 11.6411 0.071225 0
    endloop
  endfacet
  facet normal 0 -0 -1
    outer loop
      vertex 20.4406 14.7703 0
      vertex 22.0611 15.7059 0
      vertex 11.6411 0.071225 0
    endloop
  endfacet
  facet normal 0 0 -1
    outer loop
      vertex 169.2 15.1529 0
      vertex 136.361 15.7059 0
      vertex 167.809 16.405 0
    endloop
  endfacet
  facet normal -0 0 -1
    outer loop
      vertex 184 1.74168 0
      vertex 181.517 0.636273 0
      vertex 174.461 15.7059 0
    endloop
  endfacet
  facet normal 0 0 -1
    outer loop
      vertex 167.809 16.405 0
      vertex 137.461 17.2197 0
      vertex 167.048 18.1144 0
    endloop
  endfacet
  facet normal 0 0 -1
    outer loop
      vertex 190.5 25.1 0
      vertex 175.95 19.05 0
      vertex 175.561 20.8803 0
    endloop
  endfacet
  facet normal -0 0 -1
    outer loop
      vertex 167.048 18.1144 0
      vertex 137.461 17.2197 0
      vertex 137.85 19.05 0
    endloop
  endfacet
  facet normal -0 0 -1
    outer loop
      vertex 167.048 19.9856 0
      vertex 137.85 19.05 0
      vertex 137.461 20.8803 0
    endloop
  endfacet
  facet normal 0 0 -1
    outer loop
      vertex 167.809 21.695 0
      vertex 167.048 19.9856 0
      vertex 137.461 20.8803 0
    endloop
  endfacet
  facet normal 0 0 -1
    outer loop
      vertex 136.361 22.3941 0
      vertex 167.809 21.695 0
      vertex 137.461 20.8803 0
    endloop
  endfacet
  facet normal 0 0 -1
    outer loop
      vertex 170.98 23.5253 0
      vertex 178.859 38.0288 0
      vertex 172.841 23.3297 0
    endloop
  endfacet
  facet normal -0 0 -1
    outer loop
      vertex 188.017 32.7412 0
      vertex 174.461 22.3941 0
      vertex 186.199 34.7609 0
    endloop
  endfacet
  facet normal 0 0 -1
    outer loop
      vertex 189.376 30.3876 0
      vertex 175.561 20.8803 0
      vertex 174.461 22.3941 0
    endloop
  endfacet
  facet normal 0 0 -1
    outer loop
      vertex 175.561 20.8803 0
      vertex 190.216 27.8028 0
      vertex 190.5 25.1 0
    endloop
  endfacet
  facet normal 0 -0 -1
    outer loop
      vertex 189.376 30.3876 0
      vertex 190.216 27.8028 0
      vertex 175.561 20.8803 0
    endloop
  endfacet
  facet normal 0 0 -1
    outer loop
      vertex 190.5 13 0
      vertex 175.561 17.2197 0
      vertex 175.95 19.05 0
    endloop
  endfacet
  facet normal 0 0 -1
    outer loop
      vertex 186.199 3.33912 0
      vertex 174.461 15.7059 0
      vertex 188.017 5.35879 0
    endloop
  endfacet
  facet normal -0 0 -1
    outer loop
      vertex 181.517 0.636273 0
      vertex 178.859 0.071225 0
      vertex 174.461 15.7059 0
    endloop
  endfacet
  facet normal 0 -0 -1
    outer loop
      vertex 174.461 15.7059 0
      vertex 178.859 0.071225 0
      vertex 172.841 14.7703 0
    endloop
  endfacet
  facet normal 0 -0 -1
    outer loop
      vertex 172.841 14.7703 0
      vertex 178.859 0.071225 0
      vertex 170.98 14.5747 0
    endloop
  endfacet
  facet normal 0 0 1
    outer loop
      vertex 174.461 15.7059 6
      vertex 188.017 5.35879 6
      vertex 189.376 7.71243 6
    endloop
  endfacet
  facet normal 0 0 1
    outer loop
      vertex 175.561 17.2197 6
      vertex 189.376 7.71243 6
      vertex 190.216 10.2972 6
    endloop
  endfacet
  facet normal 0 -0 1
    outer loop
      vertex 184 1.74168 6
      vertex 186.199 3.33912 6
      vertex 174.461 15.7059 6
    endloop
  endfacet
  facet normal 0 0 1
    outer loop
      vertex 175.561 17.2197 6
      vertex 190.216 10.2972 6
      vertex 190.5 13 6
    endloop
  endfacet
  facet normal -0 0 1
    outer loop
      vertex 174.461 15.7059 6
      vertex 189.376 7.71243 6
      vertex 175.561 17.2197 6
    endloop
  endfacet
  facet normal 0 -0 1
    outer loop
      vertex 190.5 13 6
      vertex 190.5 25.1 6
      vertex 175.95 19.05 6
    endloop
  endfacet
  facet normal 0 0 1
    outer loop
      vertex 188.017 32.7412 6
      vertex 174.461 22.3941 6
      vertex 189.376 30.3876 6
    endloop
  endfacet
  facet normal 0 0 1
    outer loop
      vertex 178.859 38.0288 6
      vertex 174.461 22.3941 6
      vertex 181.517 37.4637 6
    endloop
  endfacet
  facet normal 0 0 1
    outer loop
      vertex 174.461 22.3941 6
      vertex 184 36.3583 6
      vertex 181.517 37.4637 6
    endloop
  endfacet
  facet normal 0 -0 1
    outer loop
      vertex 170.98 23.5253 6
      vertex 178.859 38.0288 6
      vertex 169.2 22.9471 6
    endloop
  endfacet
  facet normal 0 0 1
    outer loop
      vertex 178.859 38.0288 6
      vertex 136.361 22.3941 6
      vertex 169.2 22.9471 6
    endloop
  endfacet
  facet normal 0 -0 1
    outer loop
      vertex 174.461 22.3941 6
      vertex 178.859 38.0288 6
      vertex 172.841 23.3297 6
    endloop
  endfacet
  facet normal 0 0 1
    outer loop
      vertex 186.199 34.7609 6
      vertex 184 36.3583 6
      vertex 174.461 22.3941 6
    endloop
  endfacet
  facet normal 0 0 1
    outer loop
      vertex 96.6406 14.7703 6
      vertex 94.7796 14.5747 6
      vertex 178.859 0.071225 6
    endloop
  endfacet
  facet normal 0 0 1
    outer loop
      vertex 15.4094 21.695 6
      vertex 1.12392 30.3876 6
      vertex 0.284088 27.8028 6
    endloop
  endfacet
  facet normal 0 0 1
    outer loop
      vertex 2.48279 32.7412 6
      vertex 1.12392 30.3876 6
      vertex 15.4094 21.695 6
    endloop
  endfacet
  facet normal 0 0 1
    outer loop
      vertex 15.4094 21.695 6
      vertex 0 25.1 6
      vertex 14.6483 19.9856 6
    endloop
  endfacet
  facet normal 0 0 1
    outer loop
      vertex 0 25.1 6
      vertex 14.6483 18.1144 6
      vertex 14.6483 19.9856 6
    endloop
  endfacet
  facet normal 0 0 1
    outer loop
      vertex 0.284088 27.8028 6
      vertex 0 25.1 6
      vertex 15.4094 21.695 6
    endloop
  endfacet
  facet normal 0 0 1
    outer loop
      vertex 15.4094 16.405 6
      vertex 14.6483 18.1144 6
      vertex 0 13 6
    endloop
  endfacet
  facet normal 0 -0 1
    outer loop
      vertex 1.12392 7.71243 6
      vertex 15.4094 16.405 6
      vertex 0.284088 10.2972 6
    endloop
  endfacet
  facet normal 0 0 1
    outer loop
      vertex 16.8 15.1529 6
      vertex 4.30132 3.33912 6
      vertex 6.5 1.74168 6
    endloop
  endfacet
  facet normal 0 0 1
    outer loop
      vertex 15.4094 16.405 6
      vertex 4.30132 3.33912 6
      vertex 16.8 15.1529 6
    endloop
  endfacet
  facet normal 0 0 1
    outer loop
      vertex 16.8 15.1529 6
      vertex 8.98279 0.636273 6
      vertex 11.6411 0.071225 6
    endloop
  endfacet
  facet normal 0 0 1
    outer loop
      vertex 16.8 15.1529 6
      vertex 11.6411 0.071225 6
      vertex 18.5796 14.5747 6
    endloop
  endfacet
  facet normal -0 0 1
    outer loop
      vertex 6.5 1.74168 6
      vertex 8.98279 0.636273 6
      vertex 16.8 15.1529 6
    endloop
  endfacet
  facet normal -0 0 1
    outer loop
      vertex 2.48279 5.35879 6
      vertex 4.30132 3.33912 6
      vertex 15.4094 16.405 6
    endloop
  endfacet
  facet normal 0 -0 1
    outer loop
      vertex 2.48279 5.35879 6
      vertex 15.4094 16.405 6
      vertex 1.12392 7.71243 6
    endloop
  endfacet
  facet normal 0 0 1
    outer loop
      vertex 99.75 19.05 6
      vertex 99.3609 17.2197 6
      vertex 128.948 18.1144 6
    endloop
  endfacet
  facet normal -0 0 1
    outer loop
      vertex 58.5406 14.7703 6
      vertex 94.7796 14.5747 6
      vertex 93 15.1529 6
    endloop
  endfacet
  facet normal 0 0 1
    outer loop
      vertex 11.6411 0.071225 6
      vertex 178.859 0.071225 6
      vertex 94.7796 14.5747 6
    endloop
  endfacet
  facet normal 0 0 1
    outer loop
      vertex 91.6094 16.405 6
      vertex 61.261 17.2197 6
      vertex 60.1611 15.7059 6
    endloop
  endfacet
  facet normal 0 -0 1
    outer loop
      vertex 90.8483 18.1144 6
      vertex 90.8483 19.9856 6
      vertex 61.65 19.05 6
    endloop
  endfacet
  facet normal 0 0 1
    outer loop
      vertex 58.5406 14.7703 6
      vertex 11.6411 0.071225 6
      vertex 94.7796 14.5747 6
    endloop
  endfacet
  facet normal 0 -0 1
    outer loop
      vertex 60.1611 22.3941 6
      vertex 93 22.9471 6
      vertex 58.5406 23.3297 6
    endloop
  endfacet
  facet normal 0 -0 1
    outer loop
      vertex 93 22.9471 6
      vertex 94.7796 23.5253 6
      vertex 58.5406 23.3297 6
    endloop
  endfacet
  facet normal -0 0 1
    outer loop
      vertex 11.6411 38.0288 6
      vertex 94.7796 23.5253 6
      vertex 178.859 38.0288 6
    endloop
  endfacet
  facet normal -0 0 1
    outer loop
      vertex 94.7796 23.5253 6
      vertex 96.6406 23.3297 6
      vertex 178.859 38.0288 6
    endloop
  endfacet
  facet normal 0 0 1
    outer loop
      vertex 128.948 18.1144 6
      vertex 99.3609 17.2197 6
      vertex 129.709 16.405 6
    endloop
  endfacet
  facet normal 0 0 1
    outer loop
      vertex 99.3609 17.2197 6
      vertex 98.2611 15.7059 6
      vertex 129.709 16.405 6
    endloop
  endfacet
  facet normal -0 0 1
    outer loop
      vertex 98.2611 15.7059 6
      vertex 131.1 15.1529 6
      vertex 129.709 16.405 6
    endloop
  endfacet
  facet normal 0 0 1
    outer loop
      vertex 96.6406 14.7703 6
      vertex 131.1 15.1529 6
      vertex 98.2611 15.7059 6
    endloop
  endfacet
  facet normal 0 0 1
    outer loop
      vertex 132.88 14.5747 6
      vertex 131.1 15.1529 6
      vertex 96.6406 14.7703 6
    endloop
  endfacet
  facet normal 0 0 1
    outer loop
      vertex 132.88 14.5747 6
      vertex 96.6406 14.7703 6
      vertex 178.859 0.071225 6
    endloop
  endfacet
  facet normal 0 0 1
    outer loop
      vertex 54.9 15.1529 6
      vertex 11.6411 0.071225 6
      vertex 56.6796 14.5747 6
    endloop
  endfacet
  facet normal 0 0 1
    outer loop
      vertex 53.5094 16.405 6
      vertex 23.161 17.2197 6
      vertex 22.0611 15.7059 6
    endloop
  endfacet
  facet normal 0 -0 1
    outer loop
      vertex 52.7483 18.1144 6
      vertex 52.7483 19.9856 6
      vertex 23.55 19.05 6
    endloop
  endfacet
  facet normal 0 0 1
    outer loop
      vertex 53.5094 16.405 6
      vertex 22.0611 15.7059 6
      vertex 54.9 15.1529 6
    endloop
  endfacet
  facet normal 0 -0 1
    outer loop
      vertex 22.0611 22.3941 6
      vertex 54.9 22.9471 6
      vertex 11.6411 38.0288 6
    endloop
  endfacet
  facet normal 0 0 1
    outer loop
      vertex 94.7796 23.5253 6
      vertex 11.6411 38.0288 6
      vertex 58.5406 23.3297 6
    endloop
  endfacet
  facet normal 0 0 1
    outer loop
      vertex 11.6411 38.0288 6
      vertex 20.4406 23.3297 6
      vertex 22.0611 22.3941 6
    endloop
  endfacet
  facet normal 0 0 1
    outer loop
      vertex 11.6411 38.0288 6
      vertex 56.6796 23.5253 6
      vertex 58.5406 23.3297 6
    endloop
  endfacet
  facet normal 0 0 1
    outer loop
      vertex 11.6411 38.0288 6
      vertex 54.9 22.9471 6
      vertex 56.6796 23.5253 6
    endloop
  endfacet
  facet normal 0 -0 1
    outer loop
      vertex 61.261 20.8803 6
      vertex 91.6094 21.695 6
      vertex 60.1611 22.3941 6
    endloop
  endfacet
  facet normal -0 0 1
    outer loop
      vertex 60.1611 22.3941 6
      vertex 91.6094 21.695 6
      vertex 93 22.9471 6
    endloop
  endfacet
  facet normal -0 0 1
    outer loop
      vertex 61.261 20.8803 6
      vertex 90.8483 19.9856 6
      vertex 91.6094 21.695 6
    endloop
  endfacet
  facet normal 0 -0 1
    outer loop
      vertex 61.65 19.05 6
      vertex 90.8483 19.9856 6
      vertex 61.261 20.8803 6
    endloop
  endfacet
  facet normal 0 0 1
    outer loop
      vertex 61.261 17.2197 6
      vertex 90.8483 18.1144 6
      vertex 61.65 19.05 6
    endloop
  endfacet
  facet normal 0 0 1
    outer loop
      vertex 91.6094 16.405 6
      vertex 90.8483 18.1144 6
      vertex 61.261 17.2197 6
    endloop
  endfacet
  facet normal 0 0 1
    outer loop
      vertex 93 15.1529 6
      vertex 91.6094 16.405 6
      vertex 60.1611 15.7059 6
    endloop
  endfacet
  facet normal 0 0 1
    outer loop
      vertex 11.6411 0.071225 6
      vertex 58.5406 14.7703 6
      vertex 56.6796 14.5747 6
    endloop
  endfacet
  facet normal 0 0 1
    outer loop
      vertex 93 15.1529 6
      vertex 60.1611 15.7059 6
      vertex 58.5406 14.7703 6
    endloop
  endfacet
  facet normal 0 0 1
    outer loop
      vertex 178.859 38.0288 6
      vertex 134.741 23.3297 6
      vertex 136.361 22.3941 6
    endloop
  endfacet
  facet normal 0 0 1
    outer loop
      vertex 128.948 19.9856 6
      vertex 99.75 19.05 6
      vertex 128.948 18.1144 6
    endloop
  endfacet
  facet normal 0 0 1
    outer loop
      vertex 99.3609 20.8803 6
      vertex 99.75 19.05 6
      vertex 128.948 19.9856 6
    endloop
  endfacet
  facet normal -0 0 1
    outer loop
      vertex 99.3609 20.8803 6
      vertex 128.948 19.9856 6
      vertex 129.709 21.695 6
    endloop
  endfacet
  facet normal 0 -0 1
    outer loop
      vertex 99.3609 20.8803 6
      vertex 129.709 21.695 6
      vertex 98.2611 22.3941 6
    endloop
  endfacet
  facet normal 0 -0 1
    outer loop
      vertex 129.709 21.695 6
      vertex 131.1 22.9471 6
      vertex 98.2611 22.3941 6
    endloop
  endfacet
  facet normal 0 0 1
    outer loop
      vertex 131.1 22.9471 6
      vertex 96.6406 23.3297 6
      vertex 98.2611 22.3941 6
    endloop
  endfacet
  facet normal 0 0 1
    outer loop
      vertex 132.88 23.5253 6
      vertex 96.6406 23.3297 6
      vertex 131.1 22.9471 6
    endloop
  endfacet
  facet normal 0 0 1
    outer loop
      vertex 178.859 38.0288 6
      vertex 96.6406 23.3297 6
      vertex 132.88 23.5253 6
    endloop
  endfacet
  facet normal 0 0 1
    outer loop
      vertex 178.859 38.0288 6
      vertex 132.88 23.5253 6
      vertex 134.741 23.3297 6
    endloop
  endfacet
  facet normal 0 0 1
    outer loop
      vertex 167.048 19.9856 6
      vertex 137.85 19.05 6
      vertex 167.048 18.1144 6
    endloop
  endfacet
  facet normal 0 0 1
    outer loop
      vertex 167.809 16.405 6
      vertex 137.461 17.2197 6
      vertex 136.361 15.7059 6
    endloop
  endfacet
  facet normal 0 -0 1
    outer loop
      vertex 167.809 21.695 6
      vertex 169.2 22.9471 6
      vertex 136.361 22.3941 6
    endloop
  endfacet
  facet normal 0 0 1
    outer loop
      vertex 136.361 15.7059 6
      vertex 178.859 0.071225 6
      vertex 169.2 15.1529 6
    endloop
  endfacet
  facet normal 0 0 1
    outer loop
      vertex 178.859 0.071225 6
      vertex 170.98 14.5747 6
      vertex 169.2 15.1529 6
    endloop
  endfacet
  facet normal 0 0 1
    outer loop
      vertex 178.859 0.071225 6
      vertex 134.741 14.7703 6
      vertex 132.88 14.5747 6
    endloop
  endfacet
  facet normal 0 0 1
    outer loop
      vertex 178.859 0.071225 6
      vertex 136.361 15.7059 6
      vertex 134.741 14.7703 6
    endloop
  endfacet
  facet normal 0 0 1
    outer loop
      vertex 4.30132 34.7609 6
      vertex 15.4094 21.695 6
      vertex 16.8 22.9471 6
    endloop
  endfacet
  facet normal 0 0 1
    outer loop
      vertex 15.4094 16.405 6
      vertex 0 13 6
      vertex 0.284088 10.2972 6
    endloop
  endfacet
  facet normal 0 0 1
    outer loop
      vertex 0 25.1 6
      vertex 0 13 6
      vertex 14.6483 18.1144 6
    endloop
  endfacet
  facet normal -0 0 1
    outer loop
      vertex 2.48279 32.7412 6
      vertex 15.4094 21.695 6
      vertex 4.30132 34.7609 6
    endloop
  endfacet
  facet normal -0 0 1
    outer loop
      vertex 4.30132 34.7609 6
      vertex 16.8 22.9471 6
      vertex 6.5 36.3583 6
    endloop
  endfacet
  facet normal 0 0 1
    outer loop
      vertex 16.8 22.9471 6
      vertex 8.98279 37.4637 6
      vertex 6.5 36.3583 6
    endloop
  endfacet
  facet normal 0 0 1
    outer loop
      vertex 11.6411 38.0288 6
      vertex 8.98279 37.4637 6
      vertex 16.8 22.9471 6
    endloop
  endfacet
  facet normal 0 0 1
    outer loop
      vertex 11.6411 38.0288 6
      vertex 18.5796 23.5253 6
      vertex 20.4406 23.3297 6
    endloop
  endfacet
  facet normal 0 0 1
    outer loop
      vertex 11.6411 38.0288 6
      vertex 16.8 22.9471 6
      vertex 18.5796 23.5253 6
    endloop
  endfacet
  facet normal 0 -0 1
    outer loop
      vertex 23.161 20.8803 6
      vertex 53.5094 21.695 6
      vertex 22.0611 22.3941 6
    endloop
  endfacet
  facet normal -0 0 1
    outer loop
      vertex 22.0611 22.3941 6
      vertex 53.5094 21.695 6
      vertex 54.9 22.9471 6
    endloop
  endfacet
  facet normal -0 0 1
    outer loop
      vertex 23.161 20.8803 6
      vertex 52.7483 19.9856 6
      vertex 53.5094 21.695 6
    endloop
  endfacet
  facet normal 0 -0 1
    outer loop
      vertex 23.55 19.05 6
      vertex 52.7483 19.9856 6
      vertex 23.161 20.8803 6
    endloop
  endfacet
  facet normal 0 0 1
    outer loop
      vertex 23.161 17.2197 6
      vertex 52.7483 18.1144 6
      vertex 23.55 19.05 6
    endloop
  endfacet
  facet normal 0 0 1
    outer loop
      vertex 53.5094 16.405 6
      vertex 52.7483 18.1144 6
      vertex 23.161 17.2197 6
    endloop
  endfacet
  facet normal 0 0 1
    outer loop
      vertex 11.6411 0.071225 6
      vertex 54.9 15.1529 6
      vertex 22.0611 15.7059 6
    endloop
  endfacet
  facet normal 0 0 1
    outer loop
      vertex 11.6411 0.071225 6
      vertex 20.4406 14.7703 6
      vertex 18.5796 14.5747 6
    endloop
  endfacet
  facet normal 0 0 1
    outer loop
      vertex 11.6411 0.071225 6
      vertex 22.0611 15.7059 6
      vertex 20.4406 14.7703 6
    endloop
  endfacet
  facet normal 0 0 1
    outer loop
      vertex 167.809 16.405 6
      vertex 136.361 15.7059 6
      vertex 169.2 15.1529 6
    endloop
  endfacet
  facet normal 0 0 1
    outer loop
      vertex 174.461 15.7059 6
      vertex 181.517 0.636273 6
      vertex 184 1.74168 6
    endloop
  endfacet
  facet normal 0 0 1
    outer loop
      vertex 167.048 18.1144 6
      vertex 137.461 17.2197 6
      vertex 167.809 16.405 6
    endloop
  endfacet
  facet normal -0 0 1
    outer loop
      vertex 175.561 20.8803 6
      vertex 175.95 19.05 6
      vertex 190.5 25.1 6
    endloop
  endfacet
  facet normal 0 0 1
    outer loop
      vertex 137.85 19.05 6
      vertex 137.461 17.2197 6
      vertex 167.048 18.1144 6
    endloop
  endfacet
  facet normal 0 0 1
    outer loop
      vertex 137.461 20.8803 6
      vertex 137.85 19.05 6
      vertex 167.048 19.9856 6
    endloop
  endfacet
  facet normal -0 0 1
    outer loop
      vertex 137.461 20.8803 6
      vertex 167.048 19.9856 6
      vertex 167.809 21.695 6
    endloop
  endfacet
  facet normal 0 -0 1
    outer loop
      vertex 137.461 20.8803 6
      vertex 167.809 21.695 6
      vertex 136.361 22.3941 6
    endloop
  endfacet
  facet normal 0 -0 1
    outer loop
      vertex 172.841 23.3297 6
      vertex 178.859 38.0288 6
      vertex 170.98 23.5253 6
    endloop
  endfacet
  facet normal 0 0 1
    outer loop
      vertex 186.199 34.7609 6
      vertex 174.461 22.3941 6
      vertex 188.017 32.7412 6
    endloop
  endfacet
  facet normal -0 0 1
    outer loop
      vertex 174.461 22.3941 6
      vertex 175.561 20.8803 6
      vertex 189.376 30.3876 6
    endloop
  endfacet
  facet normal 0 0 1
    outer loop
      vertex 190.5 25.1 6
      vertex 190.216 27.8028 6
      vertex 175.561 20.8803 6
    endloop
  endfacet
  facet normal 0 0 1
    outer loop
      vertex 175.561 20.8803 6
      vertex 190.216 27.8028 6
      vertex 189.376 30.3876 6
    endloop
  endfacet
  facet normal 0 0 1
    outer loop
      vertex 175.95 19.05 6
      vertex 175.561 17.2197 6
      vertex 190.5 13 6
    endloop
  endfacet
  facet normal 0 0 1
    outer loop
      vertex 188.017 5.35879 6
      vertex 174.461 15.7059 6
      vertex 186.199 3.33912 6
    endloop
  endfacet
  facet normal 0 0 1
    outer loop
      vertex 174.461 15.7059 6
      vertex 178.859 0.071225 6
      vertex 181.517 0.636273 6
    endloop
  endfacet
  facet normal -0 0 1
    outer loop
      vertex 172.841 14.7703 6
      vertex 178.859 0.071225 6
      vertex 174.461 15.7059 6
    endloop
  endfacet
  facet normal -0 0 1
    outer loop
      vertex 170.98 14.5747 6
      vertex 178.859 0.071225 6
      vertex 172.841 14.7703 6
    endloop
  endfacet
  facet normal 0.406707 -0.913559 0
    outer loop
      vertex 184 1.74168 0
      vertex 181.517 0.636273 6
      vertex 181.517 0.636273 0
    endloop
  endfacet
  facet normal 0.406707 -0.913559 0
    outer loop
      vertex 184 1.74168 0
      vertex 184 1.74168 6
      vertex 181.517 0.636273 6
    endloop
  endfacet
  facet normal 0.587731 -0.809057 0
    outer loop
      vertex 186.199 3.33912 0
      vertex 184 1.74168 6
      vertex 184 1.74168 0
    endloop
  endfacet
  facet normal 0.587731 -0.809057 0
    outer loop
      vertex 186.199 3.33912 0
      vertex 186.199 3.33912 6
      vertex 184 1.74168 6
    endloop
  endfacet
  facet normal 0.74324 -0.669025 0
    outer loop
      vertex 188.017 5.35879 0
      vertex 186.199 3.33912 6
      vertex 186.199 3.33912 0
    endloop
  endfacet
  facet normal 0.74324 -0.669025 0
    outer loop
      vertex 188.017 5.35879 0
      vertex 188.017 5.35879 6
      vertex 186.199 3.33912 6
    endloop
  endfacet
  facet normal 0.866005 -0.500035 0
    outer loop
      vertex 189.376 7.71243 0
      vertex 188.017 5.35879 6
      vertex 188.017 5.35879 0
    endloop
  endfacet
  facet normal 0.866005 -0.500035 0
    outer loop
      vertex 189.376 7.71243 0
      vertex 189.376 7.71243 6
      vertex 188.017 5.35879 6
    endloop
  endfacet
  facet normal 0.95104 -0.309069 0
    outer loop
      vertex 190.216 10.2972 0
      vertex 189.376 7.71243 6
      vertex 189.376 7.71243 0
    endloop
  endfacet
  facet normal 0.95104 -0.309069 0
    outer loop
      vertex 190.216 10.2972 0
      vertex 190.216 10.2972 6
      vertex 189.376 7.71243 6
    endloop
  endfacet
  facet normal 0.994525 -0.104501 0
    outer loop
      vertex 190.5 13 0
      vertex 190.216 10.2972 6
      vertex 190.216 10.2972 0
    endloop
  endfacet
  facet normal 0.994525 -0.104501 0
    outer loop
      vertex 190.5 13 0
      vertex 190.5 13 6
      vertex 190.216 10.2972 6
    endloop
  endfacet
  facet normal 1 0 0
    outer loop
      vertex 190.5 25.1 0
      vertex 190.5 13 6
      vertex 190.5 13 0
    endloop
  endfacet
  facet normal 1 0 -0
    outer loop
      vertex 190.5 25.1 0
      vertex 190.5 25.1 6
      vertex 190.5 13 6
    endloop
  endfacet
  facet normal 0.994525 0.104501 0
    outer loop
      vertex 190.216 27.8028 0
      vertex 190.5 25.1 6
      vertex 190.5 25.1 0
    endloop
  endfacet
  facet normal 0.994525 0.104501 -0
    outer loop
      vertex 190.216 27.8028 0
      vertex 190.216 27.8028 6
      vertex 190.5 25.1 6
    endloop
  endfacet
  facet normal 0.951041 0.309066 0
    outer loop
      vertex 189.376 30.3876 0
      vertex 190.216 27.8028 6
      vertex 190.216 27.8028 0
    endloop
  endfacet
  facet normal 0.951041 0.309066 -0
    outer loop
      vertex 189.376 30.3876 0
      vertex 189.376 30.3876 6
      vertex 190.216 27.8028 6
    endloop
  endfacet
  facet normal 0.866002 0.500041 0
    outer loop
      vertex 188.017 32.7412 0
      vertex 189.376 30.3876 6
      vertex 189.376 30.3876 0
    endloop
  endfacet
  facet normal 0.866002 0.500041 -0
    outer loop
      vertex 188.017 32.7412 0
      vertex 188.017 32.7412 6
      vertex 189.376 30.3876 6
    endloop
  endfacet
  facet normal 0.743245 0.66902 0
    outer loop
      vertex 186.199 34.7609 0
      vertex 188.017 32.7412 6
      vertex 188.017 32.7412 0
    endloop
  endfacet
  facet normal 0.743245 0.66902 -0
    outer loop
      vertex 186.199 34.7609 0
      vertex 186.199 34.7609 6
      vertex 188.017 32.7412 6
    endloop
  endfacet
  facet normal 0.587721 0.809064 0
    outer loop
      vertex 184 36.3583 0
      vertex 186.199 34.7609 6
      vertex 186.199 34.7609 0
    endloop
  endfacet
  facet normal 0.587721 0.809064 -0
    outer loop
      vertex 184 36.3583 0
      vertex 184 36.3583 6
      vertex 186.199 34.7609 6
    endloop
  endfacet
  facet normal 0.406705 0.91356 0
    outer loop
      vertex 181.517 37.4637 0
      vertex 184 36.3583 6
      vertex 184 36.3583 0
    endloop
  endfacet
  facet normal 0.406705 0.91356 -0
    outer loop
      vertex 181.517 37.4637 0
      vertex 181.517 37.4637 6
      vertex 184 36.3583 6
    endloop
  endfacet
  facet normal 0.207956 0.978138 0
    outer loop
      vertex 178.859 38.0288 0
      vertex 181.517 37.4637 6
      vertex 181.517 37.4637 0
    endloop
  endfacet
  facet normal 0.207956 0.978138 -0
    outer loop
      vertex 178.859 38.0288 0
      vertex 178.859 38.0288 6
      vertex 181.517 37.4637 6
    endloop
  endfacet
  facet normal 0 1 0
    outer loop
      vertex 11.6411 38.0288 0
      vertex 178.859 38.0288 6
      vertex 178.859 38.0288 0
    endloop
  endfacet
  facet normal 0 1 0
    outer loop
      vertex 11.6411 38.0288 0
      vertex 11.6411 38.0288 6
      vertex 178.859 38.0288 6
    endloop
  endfacet
  facet normal -0.207932 0.978143 0
    outer loop
      vertex 8.98279 37.4637 0
      vertex 11.6411 38.0288 6
      vertex 11.6411 38.0288 0
    endloop
  endfacet
  facet normal -0.207932 0.978143 0
    outer loop
      vertex 8.98279 37.4637 0
      vertex 8.98279 37.4637 6
      vertex 11.6411 38.0288 6
    endloop
  endfacet
  facet normal -0.406734 0.913547 0
    outer loop
      vertex 6.5 36.3583 0
      vertex 8.98279 37.4637 6
      vertex 8.98279 37.4637 0
    endloop
  endfacet
  facet normal -0.406734 0.913547 0
    outer loop
      vertex 6.5 36.3583 0
      vertex 6.5 36.3583 6
      vertex 8.98279 37.4637 6
    endloop
  endfacet
  facet normal -0.587777 0.809023 0
    outer loop
      vertex 4.30132 34.7609 0
      vertex 6.5 36.3583 6
      vertex 6.5 36.3583 0
    endloop
  endfacet
  facet normal -0.587777 0.809023 0
    outer loop
      vertex 4.30132 34.7609 0
      vertex 4.30132 34.7609 6
      vertex 6.5 36.3583 6
    endloop
  endfacet
  facet normal -0.743148 0.669127 0
    outer loop
      vertex 2.48279 32.7412 0
      vertex 4.30132 34.7609 6
      vertex 4.30132 34.7609 0
    endloop
  endfacet
  facet normal -0.743148 0.669127 0
    outer loop
      vertex 2.48279 32.7412 0
      vertex 2.48279 32.7412 6
      vertex 4.30132 34.7609 6
    endloop
  endfacet
  facet normal -0.866022 0.500005 0
    outer loop
      vertex 1.12392 30.3876 0
      vertex 2.48279 32.7412 6
      vertex 2.48279 32.7412 0
    endloop
  endfacet
  facet normal -0.866022 0.500005 0
    outer loop
      vertex 1.12392 30.3876 0
      vertex 1.12392 30.3876 6
      vertex 2.48279 32.7412 6
    endloop
  endfacet
  facet normal -0.951059 0.30901 0
    outer loop
      vertex 0.284088 27.8028 0
      vertex 1.12392 30.3876 6
      vertex 1.12392 30.3876 0
    endloop
  endfacet
  facet normal -0.951059 0.30901 0
    outer loop
      vertex 0.284088 27.8028 0
      vertex 0.284088 27.8028 6
      vertex 1.12392 30.3876 6
    endloop
  endfacet
  facet normal -0.994521 0.104533 0
    outer loop
      vertex 0 25.1 0
      vertex 0.284088 27.8028 6
      vertex 0.284088 27.8028 0
    endloop
  endfacet
  facet normal -0.994521 0.104533 0
    outer loop
      vertex 0 25.1 0
      vertex 0 25.1 6
      vertex 0.284088 27.8028 6
    endloop
  endfacet
  facet normal -1 0 0
    outer loop
      vertex 0 13 0
      vertex 0 25.1 6
      vertex 0 25.1 0
    endloop
  endfacet
  facet normal -1 0 0
    outer loop
      vertex 0 13 0
      vertex 0 13 6
      vertex 0 25.1 6
    endloop
  endfacet
  facet normal -0.994521 -0.104533 0
    outer loop
      vertex 0.284088 10.2972 0
      vertex 0 13 6
      vertex 0 13 0
    endloop
  endfacet
  facet normal -0.994521 -0.104533 0
    outer loop
      vertex 0.284088 10.2972 0
      vertex 0.284088 10.2972 6
      vertex 0 13 6
    endloop
  endfacet
  facet normal -0.951058 -0.309013 0
    outer loop
      vertex 1.12392 7.71243 0
      vertex 0.284088 10.2972 6
      vertex 0.284088 10.2972 0
    endloop
  endfacet
  facet normal -0.951058 -0.309013 0
    outer loop
      vertex 1.12392 7.71243 0
      vertex 1.12392 7.71243 6
      vertex 0.284088 10.2972 6
    endloop
  endfacet
  facet normal -0.866026 -0.499999 0
    outer loop
      vertex 2.48279 5.35879 0
      vertex 1.12392 7.71243 6
      vertex 1.12392 7.71243 0
    endloop
  endfacet
  facet normal -0.866026 -0.499999 0
    outer loop
      vertex 2.48279 5.35879 0
      vertex 2.48279 5.35879 6
      vertex 1.12392 7.71243 6
    endloop
  endfacet
  facet normal -0.743143 -0.669133 0
    outer loop
      vertex 4.30132 3.33912 0
      vertex 2.48279 5.35879 6
      vertex 2.48279 5.35879 0
    endloop
  endfacet
  facet normal -0.743143 -0.669133 0
    outer loop
      vertex 4.30132 3.33912 0
      vertex 4.30132 3.33912 6
      vertex 2.48279 5.35879 6
    endloop
  endfacet
  facet normal -0.587787 -0.809016 0
    outer loop
      vertex 6.5 1.74168 0
      vertex 4.30132 3.33912 6
      vertex 4.30132 3.33912 0
    endloop
  endfacet
  facet normal -0.587787 -0.809016 0
    outer loop
      vertex 6.5 1.74168 0
      vertex 6.5 1.74168 6
      vertex 4.30132 3.33912 6
    endloop
  endfacet
  facet normal -0.406736 -0.913546 0
    outer loop
      vertex 8.98279 0.636273 0
      vertex 6.5 1.74168 6
      vertex 6.5 1.74168 0
    endloop
  endfacet
  facet normal -0.406736 -0.913546 0
    outer loop
      vertex 8.98279 0.636273 0
      vertex 8.98279 0.636273 6
      vertex 6.5 1.74168 6
    endloop
  endfacet
  facet normal -0.207914 -0.978147 0
    outer loop
      vertex 11.6411 0.071225 0
      vertex 8.98279 0.636273 6
      vertex 8.98279 0.636273 0
    endloop
  endfacet
  facet normal -0.207914 -0.978147 0
    outer loop
      vertex 11.6411 0.071225 0
      vertex 11.6411 0.071225 6
      vertex 8.98279 0.636273 6
    endloop
  endfacet
  facet normal 0 -1 0
    outer loop
      vertex 178.859 0.071225 0
      vertex 11.6411 0.071225 6
      vertex 11.6411 0.071225 0
    endloop
  endfacet
  facet normal 0 -1 0
    outer loop
      vertex 178.859 0.071225 0
      vertex 178.859 0.071225 6
      vertex 11.6411 0.071225 6
    endloop
  endfacet
  facet normal 0.207937 -0.978142 0
    outer loop
      vertex 181.517 0.636273 0
      vertex 178.859 0.071225 6
      vertex 178.859 0.071225 0
    endloop
  endfacet
  facet normal 0.207937 -0.978142 0
    outer loop
      vertex 181.517 0.636273 0
      vertex 181.517 0.636273 6
      vertex 178.859 0.071225 6
    endloop
  endfacet
  facet normal 0.66913 0.743145 -0
    outer loop
      vertex 91.6094 16.405 0
      vertex 91.6094 16.405 6
      vertex 93 15.1529 0
    endloop
  endfacet
  facet normal 0.66913 0.743145 0
    outer loop
      vertex 93 15.1529 6
      vertex 93 15.1529 0
      vertex 91.6094 16.405 6
    endloop
  endfacet
  facet normal 0.91354 0.406748 -0
    outer loop
      vertex 90.8483 18.1144 0
      vertex 90.8483 18.1144 6
      vertex 91.6094 16.405 0
    endloop
  endfacet
  facet normal 0.91354 0.406748 0
    outer loop
      vertex 91.6094 16.405 6
      vertex 91.6094 16.405 0
      vertex 90.8483 18.1144 6
    endloop
  endfacet
  facet normal 1 0 -0
    outer loop
      vertex 90.8483 19.9856 0
      vertex 90.8483 19.9856 6
      vertex 90.8483 18.1144 0
    endloop
  endfacet
  facet normal 1 -0 0
    outer loop
      vertex 90.8483 18.1144 6
      vertex 90.8483 18.1144 0
      vertex 90.8483 19.9856 6
    endloop
  endfacet
  facet normal 0.91354 -0.406748 0
    outer loop
      vertex 91.6094 21.695 0
      vertex 91.6094 21.695 6
      vertex 90.8483 19.9856 0
    endloop
  endfacet
  facet normal 0.91354 -0.406748 0
    outer loop
      vertex 90.8483 19.9856 6
      vertex 90.8483 19.9856 0
      vertex 91.6094 21.695 6
    endloop
  endfacet
  facet normal 0.66913 -0.743145 0
    outer loop
      vertex 93 22.9471 0
      vertex 93 22.9471 6
      vertex 91.6094 21.695 0
    endloop
  endfacet
  facet normal 0.66913 -0.743145 0
    outer loop
      vertex 91.6094 21.695 6
      vertex 91.6094 21.695 0
      vertex 93 22.9471 6
    endloop
  endfacet
  facet normal 0.309004 -0.951061 0
    outer loop
      vertex 94.7796 23.5253 0
      vertex 94.7796 23.5253 6
      vertex 93 22.9471 0
    endloop
  endfacet
  facet normal 0.309004 -0.951061 0
    outer loop
      vertex 93 22.9471 6
      vertex 93 22.9471 0
      vertex 94.7796 23.5253 6
    endloop
  endfacet
  facet normal -0.104529 -0.994522 0
    outer loop
      vertex 96.6406 23.3297 0
      vertex 96.6406 23.3297 6
      vertex 94.7796 23.5253 0
    endloop
  endfacet
  facet normal -0.104529 -0.994522 -0
    outer loop
      vertex 94.7796 23.5253 6
      vertex 94.7796 23.5253 0
      vertex 96.6406 23.3297 6
    endloop
  endfacet
  facet normal -0.500002 -0.866025 0
    outer loop
      vertex 98.2611 22.3941 0
      vertex 98.2611 22.3941 6
      vertex 96.6406 23.3297 0
    endloop
  endfacet
  facet normal -0.500002 -0.866025 -0
    outer loop
      vertex 96.6406 23.3297 6
      vertex 96.6406 23.3297 0
      vertex 98.2611 22.3941 6
    endloop
  endfacet
  facet normal -0.809027 -0.587771 0
    outer loop
      vertex 99.3609 20.8803 0
      vertex 99.3609 20.8803 6
      vertex 98.2611 22.3941 0
    endloop
  endfacet
  facet normal -0.809027 -0.587771 -0
    outer loop
      vertex 98.2611 22.3941 6
      vertex 98.2611 22.3941 0
      vertex 99.3609 20.8803 6
    endloop
  endfacet
  facet normal -0.978141 -0.207941 0
    outer loop
      vertex 99.75 19.05 0
      vertex 99.75 19.05 6
      vertex 99.3609 20.8803 0
    endloop
  endfacet
  facet normal -0.978141 -0.207941 -0
    outer loop
      vertex 99.3609 20.8803 6
      vertex 99.3609 20.8803 0
      vertex 99.75 19.05 6
    endloop
  endfacet
  facet normal -0.978141 0.207941 0
    outer loop
      vertex 99.3609 17.2197 0
      vertex 99.3609 17.2197 6
      vertex 99.75 19.05 0
    endloop
  endfacet
  facet normal -0.978141 0.207941 0
    outer loop
      vertex 99.75 19.05 6
      vertex 99.75 19.05 0
      vertex 99.3609 17.2197 6
    endloop
  endfacet
  facet normal -0.809027 0.587771 0
    outer loop
      vertex 98.2611 15.7059 0
      vertex 98.2611 15.7059 6
      vertex 99.3609 17.2197 0
    endloop
  endfacet
  facet normal -0.809027 0.587771 0
    outer loop
      vertex 99.3609 17.2197 6
      vertex 99.3609 17.2197 0
      vertex 98.2611 15.7059 6
    endloop
  endfacet
  facet normal -0.500002 0.866025 0
    outer loop
      vertex 96.6406 14.7703 0
      vertex 96.6406 14.7703 6
      vertex 98.2611 15.7059 0
    endloop
  endfacet
  facet normal -0.500002 0.866025 0
    outer loop
      vertex 98.2611 15.7059 6
      vertex 98.2611 15.7059 0
      vertex 96.6406 14.7703 6
    endloop
  endfacet
  facet normal -0.104529 0.994522 0
    outer loop
      vertex 94.7796 14.5747 0
      vertex 94.7796 14.5747 6
      vertex 96.6406 14.7703 0
    endloop
  endfacet
  facet normal -0.104529 0.994522 0
    outer loop
      vertex 96.6406 14.7703 6
      vertex 96.6406 14.7703 0
      vertex 94.7796 14.5747 6
    endloop
  endfacet
  facet normal 0.309004 0.951061 -0
    outer loop
      vertex 93 15.1529 0
      vertex 93 15.1529 6
      vertex 94.7796 14.5747 0
    endloop
  endfacet
  facet normal 0.309004 0.951061 0
    outer loop
      vertex 94.7796 14.5747 6
      vertex 94.7796 14.5747 0
      vertex 93 15.1529 6
    endloop
  endfacet
  facet normal 0.66913 0.743145 -0
    outer loop
      vertex 53.5094 16.405 0
      vertex 53.5094 16.405 6
      vertex 54.9 15.1529 0
    endloop
  endfacet
  facet normal 0.66913 0.743145 0
    outer loop
      vertex 54.9 15.1529 6
      vertex 54.9 15.1529 0
      vertex 53.5094 16.405 6
    endloop
  endfacet
  facet normal 0.91354 0.406748 -0
    outer loop
      vertex 52.7483 18.1144 0
      vertex 52.7483 18.1144 6
      vertex 53.5094 16.405 0
    endloop
  endfacet
  facet normal 0.91354 0.406748 0
    outer loop
      vertex 53.5094 16.405 6
      vertex 53.5094 16.405 0
      vertex 52.7483 18.1144 6
    endloop
  endfacet
  facet normal 1 0 -0
    outer loop
      vertex 52.7483 19.9856 0
      vertex 52.7483 19.9856 6
      vertex 52.7483 18.1144 0
    endloop
  endfacet
  facet normal 1 -0 0
    outer loop
      vertex 52.7483 18.1144 6
      vertex 52.7483 18.1144 0
      vertex 52.7483 19.9856 6
    endloop
  endfacet
  facet normal 0.91354 -0.406748 0
    outer loop
      vertex 53.5094 21.695 0
      vertex 53.5094 21.695 6
      vertex 52.7483 19.9856 0
    endloop
  endfacet
  facet normal 0.91354 -0.406748 0
    outer loop
      vertex 52.7483 19.9856 6
      vertex 52.7483 19.9856 0
      vertex 53.5094 21.695 6
    endloop
  endfacet
  facet normal 0.66913 -0.743145 0
    outer loop
      vertex 54.9 22.9471 0
      vertex 54.9 22.9471 6
      vertex 53.5094 21.695 0
    endloop
  endfacet
  facet normal 0.66913 -0.743145 0
    outer loop
      vertex 53.5094 21.695 6
      vertex 53.5094 21.695 0
      vertex 54.9 22.9471 6
    endloop
  endfacet
  facet normal 0.309004 -0.951061 0
    outer loop
      vertex 56.6796 23.5253 0
      vertex 56.6796 23.5253 6
      vertex 54.9 22.9471 0
    endloop
  endfacet
  facet normal 0.309004 -0.951061 0
    outer loop
      vertex 54.9 22.9471 6
      vertex 54.9 22.9471 0
      vertex 56.6796 23.5253 6
    endloop
  endfacet
  facet normal -0.104529 -0.994522 0
    outer loop
      vertex 58.5406 23.3297 0
      vertex 58.5406 23.3297 6
      vertex 56.6796 23.5253 0
    endloop
  endfacet
  facet normal -0.104529 -0.994522 -0
    outer loop
      vertex 56.6796 23.5253 6
      vertex 56.6796 23.5253 0
      vertex 58.5406 23.3297 6
    endloop
  endfacet
  facet normal -0.500002 -0.866025 0
    outer loop
      vertex 60.1611 22.3941 0
      vertex 60.1611 22.3941 6
      vertex 58.5406 23.3297 0
    endloop
  endfacet
  facet normal -0.500002 -0.866025 -0
    outer loop
      vertex 58.5406 23.3297 6
      vertex 58.5406 23.3297 0
      vertex 60.1611 22.3941 6
    endloop
  endfacet
  facet normal -0.809002 -0.587806 0
    outer loop
      vertex 61.261 20.8803 0
      vertex 61.261 20.8803 6
      vertex 60.1611 22.3941 0
    endloop
  endfacet
  facet normal -0.809002 -0.587806 -0
    outer loop
      vertex 60.1611 22.3941 6
      vertex 60.1611 22.3941 0
      vertex 61.261 20.8803 6
    endloop
  endfacet
  facet normal -0.978152 -0.20789 0
    outer loop
      vertex 61.65 19.05 0
      vertex 61.65 19.05 6
      vertex 61.261 20.8803 0
    endloop
  endfacet
  facet normal -0.978152 -0.20789 -0
    outer loop
      vertex 61.261 20.8803 6
      vertex 61.261 20.8803 0
      vertex 61.65 19.05 6
    endloop
  endfacet
  facet normal -0.978152 0.20789 0
    outer loop
      vertex 61.261 17.2197 0
      vertex 61.261 17.2197 6
      vertex 61.65 19.05 0
    endloop
  endfacet
  facet normal -0.978152 0.20789 0
    outer loop
      vertex 61.65 19.05 6
      vertex 61.65 19.05 0
      vertex 61.261 17.2197 6
    endloop
  endfacet
  facet normal -0.809002 0.587806 0
    outer loop
      vertex 60.1611 15.7059 0
      vertex 60.1611 15.7059 6
      vertex 61.261 17.2197 0
    endloop
  endfacet
  facet normal -0.809002 0.587806 0
    outer loop
      vertex 61.261 17.2197 6
      vertex 61.261 17.2197 0
      vertex 60.1611 15.7059 6
    endloop
  endfacet
  facet normal -0.500002 0.866025 0
    outer loop
      vertex 58.5406 14.7703 0
      vertex 58.5406 14.7703 6
      vertex 60.1611 15.7059 0
    endloop
  endfacet
  facet normal -0.500002 0.866025 0
    outer loop
      vertex 60.1611 15.7059 6
      vertex 60.1611 15.7059 0
      vertex 58.5406 14.7703 6
    endloop
  endfacet
  facet normal -0.104529 0.994522 0
    outer loop
      vertex 56.6796 14.5747 0
      vertex 56.6796 14.5747 6
      vertex 58.5406 14.7703 0
    endloop
  endfacet
  facet normal -0.104529 0.994522 0
    outer loop
      vertex 58.5406 14.7703 6
      vertex 58.5406 14.7703 0
      vertex 56.6796 14.5747 6
    endloop
  endfacet
  facet normal 0.309004 0.951061 -0
    outer loop
      vertex 54.9 15.1529 0
      vertex 54.9 15.1529 6
      vertex 56.6796 14.5747 0
    endloop
  endfacet
  facet normal 0.309004 0.951061 0
    outer loop
      vertex 56.6796 14.5747 6
      vertex 56.6796 14.5747 0
      vertex 54.9 15.1529 6
    endloop
  endfacet
  facet normal 0.669024 0.743241 -0
    outer loop
      vertex 129.709 16.405 0
      vertex 129.709 16.405 6
      vertex 131.1 15.1529 0
    endloop
  endfacet
  facet normal 0.669024 0.743241 0
    outer loop
      vertex 131.1 15.1529 6
      vertex 131.1 15.1529 0
      vertex 129.709 16.405 6
    endloop
  endfacet
  facet normal 0.91356 0.406704 -0
    outer loop
      vertex 128.948 18.1144 0
      vertex 128.948 18.1144 6
      vertex 129.709 16.405 0
    endloop
  endfacet
  facet normal 0.91356 0.406704 0
    outer loop
      vertex 129.709 16.405 6
      vertex 129.709 16.405 0
      vertex 128.948 18.1144 6
    endloop
  endfacet
  facet normal 1 0 -0
    outer loop
      vertex 128.948 19.9856 0
      vertex 128.948 19.9856 6
      vertex 128.948 18.1144 0
    endloop
  endfacet
  facet normal 1 -0 0
    outer loop
      vertex 128.948 18.1144 6
      vertex 128.948 18.1144 0
      vertex 128.948 19.9856 6
    endloop
  endfacet
  facet normal 0.91356 -0.406704 0
    outer loop
      vertex 129.709 21.695 0
      vertex 129.709 21.695 6
      vertex 128.948 19.9856 0
    endloop
  endfacet
  facet normal 0.91356 -0.406704 0
    outer loop
      vertex 128.948 19.9856 6
      vertex 128.948 19.9856 0
      vertex 129.709 21.695 6
    endloop
  endfacet
  facet normal 0.669024 -0.743241 0
    outer loop
      vertex 131.1 22.9471 0
      vertex 131.1 22.9471 6
      vertex 129.709 21.695 0
    endloop
  endfacet
  facet normal 0.669024 -0.743241 0
    outer loop
      vertex 129.709 21.695 6
      vertex 129.709 21.695 0
      vertex 131.1 22.9471 6
    endloop
  endfacet
  facet normal 0.308941 -0.951081 0
    outer loop
      vertex 132.88 23.5253 0
      vertex 132.88 23.5253 6
      vertex 131.1 22.9471 0
    endloop
  endfacet
  facet normal 0.308941 -0.951081 0
    outer loop
      vertex 131.1 22.9471 6
      vertex 131.1 22.9471 0
      vertex 132.88 23.5253 6
    endloop
  endfacet
  facet normal -0.104529 -0.994522 0
    outer loop
      vertex 134.741 23.3297 0
      vertex 134.741 23.3297 6
      vertex 132.88 23.5253 0
    endloop
  endfacet
  facet normal -0.104529 -0.994522 -0
    outer loop
      vertex 132.88 23.5253 6
      vertex 132.88 23.5253 0
      vertex 134.741 23.3297 6
    endloop
  endfacet
  facet normal -0.500117 -0.865958 0
    outer loop
      vertex 136.361 22.3941 0
      vertex 136.361 22.3941 6
      vertex 134.741 23.3297 0
    endloop
  endfacet
  facet normal -0.500117 -0.865958 -0
    outer loop
      vertex 134.741 23.3297 6
      vertex 134.741 23.3297 0
      vertex 136.361 22.3941 6
    endloop
  endfacet
  facet normal -0.808976 -0.587841 0
    outer loop
      vertex 137.461 20.8803 0
      vertex 137.461 20.8803 6
      vertex 136.361 22.3941 0
    endloop
  endfacet
  facet normal -0.808976 -0.587841 -0
    outer loop
      vertex 136.361 22.3941 6
      vertex 136.361 22.3941 0
      vertex 137.461 20.8803 6
    endloop
  endfacet
  facet normal -0.978152 -0.20789 0
    outer loop
      vertex 137.85 19.05 0
      vertex 137.85 19.05 6
      vertex 137.461 20.8803 0
    endloop
  endfacet
  facet normal -0.978152 -0.20789 -0
    outer loop
      vertex 137.461 20.8803 6
      vertex 137.461 20.8803 0
      vertex 137.85 19.05 6
    endloop
  endfacet
  facet normal -0.978152 0.20789 0
    outer loop
      vertex 137.461 17.2197 0
      vertex 137.461 17.2197 6
      vertex 137.85 19.05 0
    endloop
  endfacet
  facet normal -0.978152 0.20789 0
    outer loop
      vertex 137.85 19.05 6
      vertex 137.85 19.05 0
      vertex 137.461 17.2197 6
    endloop
  endfacet
  facet normal -0.808976 0.587841 0
    outer loop
      vertex 136.361 15.7059 0
      vertex 136.361 15.7059 6
      vertex 137.461 17.2197 0
    endloop
  endfacet
  facet normal -0.808976 0.587841 0
    outer loop
      vertex 137.461 17.2197 6
      vertex 137.461 17.2197 0
      vertex 136.361 15.7059 6
    endloop
  endfacet
  facet normal -0.500117 0.865958 0
    outer loop
      vertex 134.741 14.7703 0
      vertex 134.741 14.7703 6
      vertex 136.361 15.7059 0
    endloop
  endfacet
  facet normal -0.500117 0.865958 0
    outer loop
      vertex 136.361 15.7059 6
      vertex 136.361 15.7059 0
      vertex 134.741 14.7703 6
    endloop
  endfacet
  facet normal -0.104529 0.994522 0
    outer loop
      vertex 132.88 14.5747 0
      vertex 132.88 14.5747 6
      vertex 134.741 14.7703 0
    endloop
  endfacet
  facet normal -0.104529 0.994522 0
    outer loop
      vertex 134.741 14.7703 6
      vertex 134.741 14.7703 0
      vertex 132.88 14.5747 6
    endloop
  endfacet
  facet normal 0.308941 0.951081 -0
    outer loop
      vertex 131.1 15.1529 0
      vertex 131.1 15.1529 6
      vertex 132.88 14.5747 0
    endloop
  endfacet
  facet normal 0.308941 0.951081 0
    outer loop
      vertex 132.88 14.5747 6
      vertex 132.88 14.5747 0
      vertex 131.1 15.1529 6
    endloop
  endfacet
  facet normal 0.66913 0.743145 -0
    outer loop
      vertex 15.4094 16.405 0
      vertex 15.4094 16.405 6
      vertex 16.8 15.1529 0
    endloop
  endfacet
  facet normal 0.66913 0.743145 0
    outer loop
      vertex 16.8 15.1529 6
      vertex 16.8 15.1529 0
      vertex 15.4094 16.405 6
    endloop
  endfacet
  facet normal 0.91354 0.406748 -0
    outer loop
      vertex 14.6483 18.1144 0
      vertex 14.6483 18.1144 6
      vertex 15.4094 16.405 0
    endloop
  endfacet
  facet normal 0.91354 0.406748 0
    outer loop
      vertex 15.4094 16.405 6
      vertex 15.4094 16.405 0
      vertex 14.6483 18.1144 6
    endloop
  endfacet
  facet normal 1 0 -0
    outer loop
      vertex 14.6483 19.9856 0
      vertex 14.6483 19.9856 6
      vertex 14.6483 18.1144 0
    endloop
  endfacet
  facet normal 1 -0 0
    outer loop
      vertex 14.6483 18.1144 6
      vertex 14.6483 18.1144 0
      vertex 14.6483 19.9856 6
    endloop
  endfacet
  facet normal 0.91354 -0.406748 0
    outer loop
      vertex 15.4094 21.695 0
      vertex 15.4094 21.695 6
      vertex 14.6483 19.9856 0
    endloop
  endfacet
  facet normal 0.91354 -0.406748 0
    outer loop
      vertex 14.6483 19.9856 6
      vertex 14.6483 19.9856 0
      vertex 15.4094 21.695 6
    endloop
  endfacet
  facet normal 0.66913 -0.743145 0
    outer loop
      vertex 16.8 22.9471 0
      vertex 16.8 22.9471 6
      vertex 15.4094 21.695 0
    endloop
  endfacet
  facet normal 0.66913 -0.743145 0
    outer loop
      vertex 15.4094 21.695 6
      vertex 15.4094 21.695 0
      vertex 16.8 22.9471 6
    endloop
  endfacet
  facet normal 0.309004 -0.951061 0
    outer loop
      vertex 18.5796 23.5253 0
      vertex 18.5796 23.5253 6
      vertex 16.8 22.9471 0
    endloop
  endfacet
  facet normal 0.309004 -0.951061 0
    outer loop
      vertex 16.8 22.9471 6
      vertex 16.8 22.9471 0
      vertex 18.5796 23.5253 6
    endloop
  endfacet
  facet normal -0.104529 -0.994522 0
    outer loop
      vertex 20.4406 23.3297 0
      vertex 20.4406 23.3297 6
      vertex 18.5796 23.5253 0
    endloop
  endfacet
  facet normal -0.104529 -0.994522 -0
    outer loop
      vertex 18.5796 23.5253 6
      vertex 18.5796 23.5253 0
      vertex 20.4406 23.3297 6
    endloop
  endfacet
  facet normal -0.500002 -0.866025 0
    outer loop
      vertex 22.0611 22.3941 0
      vertex 22.0611 22.3941 6
      vertex 20.4406 23.3297 0
    endloop
  endfacet
  facet normal -0.500002 -0.866025 -0
    outer loop
      vertex 20.4406 23.3297 6
      vertex 20.4406 23.3297 0
      vertex 22.0611 22.3941 6
    endloop
  endfacet
  facet normal -0.809002 -0.587806 0
    outer loop
      vertex 23.161 20.8803 0
      vertex 23.161 20.8803 6
      vertex 22.0611 22.3941 0
    endloop
  endfacet
  facet normal -0.809002 -0.587806 -0
    outer loop
      vertex 22.0611 22.3941 6
      vertex 22.0611 22.3941 0
      vertex 23.161 20.8803 6
    endloop
  endfacet
  facet normal -0.978152 -0.20789 0
    outer loop
      vertex 23.55 19.05 0
      vertex 23.55 19.05 6
      vertex 23.161 20.8803 0
    endloop
  endfacet
  facet normal -0.978152 -0.20789 -0
    outer loop
      vertex 23.161 20.8803 6
      vertex 23.161 20.8803 0
      vertex 23.55 19.05 6
    endloop
  endfacet
  facet normal -0.978152 0.20789 0
    outer loop
      vertex 23.161 17.2197 0
      vertex 23.161 17.2197 6
      vertex 23.55 19.05 0
    endloop
  endfacet
  facet normal -0.978152 0.20789 0
    outer loop
      vertex 23.55 19.05 6
      vertex 23.55 19.05 0
      vertex 23.161 17.2197 6
    endloop
  endfacet
  facet normal -0.809002 0.587806 0
    outer loop
      vertex 22.0611 15.7059 0
      vertex 22.0611 15.7059 6
      vertex 23.161 17.2197 0
    endloop
  endfacet
  facet normal -0.809002 0.587806 0
    outer loop
      vertex 23.161 17.2197 6
      vertex 23.161 17.2197 0
      vertex 22.0611 15.7059 6
    endloop
  endfacet
  facet normal -0.500002 0.866025 0
    outer loop
      vertex 20.4406 14.7703 0
      vertex 20.4406 14.7703 6
      vertex 22.0611 15.7059 0
    endloop
  endfacet
  facet normal -0.500002 0.866025 0
    outer loop
      vertex 22.0611 15.7059 6
      vertex 22.0611 15.7059 0
      vertex 20.4406 14.7703 6
    endloop
  endfacet
  facet normal -0.104529 0.994522 0
    outer loop
      vertex 18.5796 14.5747 0
      vertex 18.5796 14.5747 6
      vertex 20.4406 14.7703 0
    endloop
  endfacet
  facet normal -0.104529 0.994522 0
    outer loop
      vertex 20.4406 14.7703 6
      vertex 20.4406 14.7703 0
      vertex 18.5796 14.5747 6
    endloop
  endfacet
  facet normal 0.309004 0.951061 -0
    outer loop
      vertex 16.8 15.1529 0
      vertex 16.8 15.1529 6
      vertex 18.5796 14.5747 0
    endloop
  endfacet
  facet normal 0.309004 0.951061 0
    outer loop
      vertex 18.5796 14.5747 6
      vertex 18.5796 14.5747 0
      vertex 16.8 15.1529 6
    endloop
  endfacet
  facet normal 0.669024 0.743241 -0
    outer loop
      vertex 167.809 16.405 0
      vertex 167.809 16.405 6
      vertex 169.2 15.1529 0
    endloop
  endfacet
  facet normal 0.669024 0.743241 0
    outer loop
      vertex 169.2 15.1529 6
      vertex 169.2 15.1529 0
      vertex 167.809 16.405 6
    endloop
  endfacet
  facet normal 0.91356 0.406704 -0
    outer loop
      vertex 167.048 18.1144 0
      vertex 167.048 18.1144 6
      vertex 167.809 16.405 0
    endloop
  endfacet
  facet normal 0.91356 0.406704 0
    outer loop
      vertex 167.809 16.405 6
      vertex 167.809 16.405 0
      vertex 167.048 18.1144 6
    endloop
  endfacet
  facet normal 1 0 -0
    outer loop
      vertex 167.048 19.9856 0
      vertex 167.048 19.9856 6
      vertex 167.048 18.1144 0
    endloop
  endfacet
  facet normal 1 -0 0
    outer loop
      vertex 167.048 18.1144 6
      vertex 167.048 18.1144 0
      vertex 167.048 19.9856 6
    endloop
  endfacet
  facet normal 0.91356 -0.406704 0
    outer loop
      vertex 167.809 21.695 0
      vertex 167.809 21.695 6
      vertex 167.048 19.9856 0
    endloop
  endfacet
  facet normal 0.91356 -0.406704 0
    outer loop
      vertex 167.048 19.9856 6
      vertex 167.048 19.9856 0
      vertex 167.809 21.695 6
    endloop
  endfacet
  facet normal 0.669024 -0.743241 0
    outer loop
      vertex 169.2 22.9471 0
      vertex 169.2 22.9471 6
      vertex 167.809 21.695 0
    endloop
  endfacet
  facet normal 0.669024 -0.743241 0
    outer loop
      vertex 167.809 21.695 6
      vertex 167.809 21.695 0
      vertex 169.2 22.9471 6
    endloop
  endfacet
  facet normal 0.308941 -0.951081 0
    outer loop
      vertex 170.98 23.5253 0
      vertex 170.98 23.5253 6
      vertex 169.2 22.9471 0
    endloop
  endfacet
  facet normal 0.308941 -0.951081 0
    outer loop
      vertex 169.2 22.9471 6
      vertex 169.2 22.9471 0
      vertex 170.98 23.5253 6
    endloop
  endfacet
  facet normal -0.104529 -0.994522 0
    outer loop
      vertex 172.841 23.3297 0
      vertex 172.841 23.3297 6
      vertex 170.98 23.5253 0
    endloop
  endfacet
  facet normal -0.104529 -0.994522 -0
    outer loop
      vertex 170.98 23.5253 6
      vertex 170.98 23.5253 0
      vertex 172.841 23.3297 6
    endloop
  endfacet
  facet normal -0.500117 -0.865958 0
    outer loop
      vertex 174.461 22.3941 0
      vertex 174.461 22.3941 6
      vertex 172.841 23.3297 0
    endloop
  endfacet
  facet normal -0.500117 -0.865958 -0
    outer loop
      vertex 172.841 23.3297 6
      vertex 172.841 23.3297 0
      vertex 174.461 22.3941 6
    endloop
  endfacet
  facet normal -0.808976 -0.587841 0
    outer loop
      vertex 175.561 20.8803 0
      vertex 175.561 20.8803 6
      vertex 174.461 22.3941 0
    endloop
  endfacet
  facet normal -0.808976 -0.587841 -0
    outer loop
      vertex 174.461 22.3941 6
      vertex 174.461 22.3941 0
      vertex 175.561 20.8803 6
    endloop
  endfacet
  facet normal -0.978152 -0.20789 0
    outer loop
      vertex 175.95 19.05 0
      vertex 175.95 19.05 6
      vertex 175.561 20.8803 0
    endloop
  endfacet
  facet normal -0.978152 -0.20789 -0
    outer loop
      vertex 175.561 20.8803 6
      vertex 175.561 20.8803 0
      vertex 175.95 19.05 6
    endloop
  endfacet
  facet normal -0.978152 0.20789 0
    outer loop
      vertex 175.561 17.2197 0
      vertex 175.561 17.2197 6
      vertex 175.95 19.05 0
    endloop
  endfacet
  facet normal -0.978152 0.20789 0
    outer loop
      vertex 175.95 19.05 6
      vertex 175.95 19.05 0
      vertex 175.561 17.2197 6
    endloop
  endfacet
  facet normal -0.808976 0.587841 0
    outer loop
      vertex 174.461 15.7059 0
      vertex 174.461 15.7059 6
      vertex 175.561 17.2197 0
    endloop
  endfacet
  facet normal -0.808976 0.587841 0
    outer loop
      vertex 175.561 17.2197 6
      vertex 175.561 17.2197 0
      vertex 174.461 15.7059 6
    endloop
  endfacet
  facet normal -0.500117 0.865958 0
    outer loop
      vertex 172.841 14.7703 0
      vertex 172.841 14.7703 6
      vertex 174.461 15.7059 0
    endloop
  endfacet
  facet normal -0.500117 0.865958 0
    outer loop
      vertex 174.461 15.7059 6
      vertex 174.461 15.7059 0
      vertex 172.841 14.7703 6
    endloop
  endfacet
  facet normal -0.104529 0.994522 0
    outer loop
      vertex 170.98 14.5747 0
      vertex 170.98 14.5747 6
      vertex 172.841 14.7703 0
    endloop
  endfacet
  facet normal -0.104529 0.994522 0
    outer loop
      vertex 172.841 14.7703 6
      vertex 172.841 14.7703 0
      vertex 170.98 14.5747 6
    endloop
  endfacet
  facet normal 0.308941 0.951081 -0
    outer loop
      vertex 169.2 15.1529 0
      vertex 169.2 15.1529 6
      vertex 170.98 14.5747 0
    endloop
  endfacet
  facet normal 0.308941 0.951081 0
    outer loop
      vertex 170.98 14.5747 6
      vertex 170.98 14.5747 0
      vertex 169.2 15.1529 6
    endloop
  endfacet
endsolid OpenSCAD_Model
