  0
SECTION
  2
HEADER
  9
$ACADVER
  1
AC1009
  9
$EXTMIN
 10
0.0
 20
0.0
 30
0.0
  9
$EXTMAX
 10
1000.0
 20
1000.0
 30
0.0
  9
$FILLMODE
 70
 0
  9
$SPLFRAME
 70
 1
  0
ENDSEC
  0
SECTION
  2
TABLES
  0
TABLE
  2
LAYER
 70
1
  0
LAYER
  2
0
 70
     0
 62
     7
  6
CONTINUOUS
  0
ENDTAB
  0
ENDSEC
  0
SECTION
  2
ENTITIES
  0
LINE
  8
0
 62
     0
 10
0.972222
 20
2.90278
 30
0.0
 11
0.998264
 21
3.46528
 31
0.0
  0
LINE
  8
0
 62
     0
 10
0.998264
 20
3.46528
 30
0.0
 11
1.07639
 21
4.06944
 31
0.0
  0
LINE
  8
0
 62
     0
 10
1.07639
 20
4.06944
 30
0.0
 11
1.13932
 21
4.37631
 31
0.0
  0
LINE
  8
0
 62
     0
 10
1.13932
 20
4.37631
 30
0.0
 11
1.22396
 21
4.67188
 31
0.0
  0
LINE
  8
0
 62
     0
 10
1.22396
 20
4.67188
 30
0.0
 11
1.33029
 21
4.95617
 31
0.0
  0
LINE
  8
0
 62
     0
 10
1.33029
 20
4.95617
 30
0.0
 11
1.45833
 21
5.22917
 31
0.0
  0
LINE
  8
0
 62
     0
 10
1.45833
 20
5.22917
 30
0.0
 11
1.61062
 21
5.48529
 31
0.0
  0
LINE
  8
0
 62
     0
 10
1.61062
 20
5.48529
 30
0.0
 11
1.78988
 21
5.71881
 31
0.0
  0
LINE
  8
0
 62
     0
 10
1.78988
 20
5.71881
 30
0.0
 11
1.99604
 21
5.92974
 31
0.0
  0
LINE
  8
0
 62
     0
 10
1.99604
 20
5.92974
 30
0.0
 11
2.22917
 21
6.11806
 31
0.0
  0
LINE
  8
0
 62
     0
 10
2.22917
 20
6.11806
 30
0.0
 11
2.49349
 21
6.273
 31
0.0
  0
LINE
  8
0
 62
     0
 10
2.49349
 20
6.273
 30
0.0
 11
2.7934
 21
6.38368
 31
0.0
  0
LINE
  8
0
 62
     0
 10
2.7934
 20
6.38368
 30
0.0
 11
3.1289
 21
6.45008
 31
0.0
  0
LINE
  8
0
 62
     0
 10
3.1289
 20
6.45008
 30
0.0
 11
3.5
 21
6.47222
 31
0.0
  0
LINE
  8
0
 62
     0
 10
3.5
 20
6.47222
 30
0.0
 11
3.73649
 21
6.46099
 31
0.0
  0
LINE
  8
0
 62
     0
 10
3.73649
 20
6.46099
 30
0.0
 11
3.96007
 21
6.42714
 31
0.0
  0
LINE
  8
0
 62
     0
 10
3.96007
 20
6.42714
 30
0.0
 11
4.17057
 21
6.37071
 31
0.0
  0
LINE
  8
0
 62
     0
 10
4.17057
 20
6.37071
 30
0.0
 11
4.36806
 21
6.29167
 31
0.0
  0
LINE
  8
0
 62
     0
 10
4.36806
 20
6.29167
 30
0.0
 11
4.73085
 21
6.08681
 31
0.0
  0
LINE
  8
0
 62
     0
 10
4.73085
 20
6.08681
 30
0.0
 11
5.05556
 21
5.83333
 31
0.0
  0
LINE
  8
0
 62
     0
 10
5.05556
 20
5.83333
 30
0.0
 11
5.34722
 21
5.54693
 31
0.0
  0
LINE
  8
0
 62
     0
 10
5.34722
 20
5.54693
 30
0.0
 11
5.61111
 21
5.24306
 31
0.0
  0
LINE
  8
0
 62
     0
 10
5.61111
 20
5.24306
 30
0.0
 11
6.10417
 21
4.65278
 31
0.0
  0
LINE
  8
0
 62
     0
 10
6.10417
 20
4.65278
 30
0.0
 11
6.34896
 21
4.39936
 31
0.0
  0
LINE
  8
0
 62
     0
 10
6.34896
 20
4.39936
 30
0.0
 11
6.59722
 21
4.19444
 31
0.0
  0
LINE
  8
0
 62
     0
 10
6.59722
 20
4.19444
 30
0.0
 11
6.72483
 21
4.11544
 31
0.0
  0
LINE
  8
0
 62
     0
 10
6.72483
 20
4.11544
 30
0.0
 11
6.85764
 21
4.05903
 31
0.0
  0
LINE
  8
0
 62
     0
 10
6.85764
 20
4.05903
 30
0.0
 11
6.99567
 21
4.02517
 31
0.0
  0
LINE
  8
0
 62
     0
 10
6.99567
 20
4.02517
 30
0.0
 11
7.13889
 21
4.01389
 31
0.0
  0
LINE
  8
0
 62
     0
 10
7.13889
 20
4.01389
 30
0.0
 11
7.4496
 21
4.06076
 31
0.0
  0
LINE
  8
0
 62
     0
 10
7.4496
 20
4.06076
 30
0.0
 11
7.74306
 21
4.20139
 31
0.0
  0
LINE
  8
0
 62
     0
 10
7.74306
 20
4.20139
 30
0.0
 11
7.88064
 21
4.30425
 31
0.0
  0
LINE
  8
0
 62
     0
 10
7.88064
 20
4.30425
 30
0.0
 11
8.00868
 21
4.42535
 31
0.0
  0
LINE
  8
0
 62
     0
 10
8.00868
 20
4.42535
 30
0.0
 11
8.12717
 21
4.56467
 31
0.0
  0
LINE
  8
0
 62
     0
 10
8.12717
 20
4.56467
 30
0.0
 11
8.23611
 21
4.72222
 31
0.0
  0
LINE
  8
0
 62
     0
 10
8.23611
 20
4.72222
 30
0.0
 11
8.42361
 21
5.08339
 31
0.0
  0
LINE
  8
0
 62
     0
 10
8.42361
 20
5.08339
 30
0.0
 11
8.56944
 21
5.5
 31
0.0
  0
LINE
  8
0
 62
     0
 10
8.56944
 20
5.5
 30
0.0
 11
8.66319
 21
5.96533
 31
0.0
  0
LINE
  8
0
 62
     0
 10
8.66319
 20
5.96533
 30
0.0
 11
8.69444
 21
6.47222
 31
0.0
  0
LINE
  8
0
 62
     0
 10
8.69444
 20
6.47222
 30
0.0
 11
9.86111
 21
6.47222
 31
0.0
  0
LINE
  8
0
 62
     0
 10
9.86111
 20
6.47222
 30
0.0
 11
9.8476
 21
6.11589
 31
0.0
  0
LINE
  8
0
 62
     0
 10
9.8476
 20
6.11589
 30
0.0
 11
9.80724
 21
5.7691
 31
0.0
  0
LINE
  8
0
 62
     0
 10
9.80724
 20
5.7691
 30
0.0
 11
9.73996
 21
5.43186
 31
0.0
  0
LINE
  8
0
 62
     0
 10
9.73996
 20
5.43186
 30
0.0
 11
9.64583
 21
5.10417
 31
0.0
  0
LINE
  8
0
 62
     0
 10
9.64583
 20
5.10417
 30
0.0
 11
9.52903
 21
4.79085
 31
0.0
  0
LINE
  8
0
 62
     0
 10
9.52903
 20
4.79085
 30
0.0
 11
9.39404
 21
4.49658
 31
0.0
  0
LINE
  8
0
 62
     0
 10
9.39404
 20
4.49658
 30
0.0
 11
9.24083
 21
4.2214
 31
0.0
  0
LINE
  8
0
 62
     0
 10
9.24083
 20
4.2214
 30
0.0
 11
9.06944
 21
3.96528
 31
0.0
  0
LINE
  8
0
 62
     0
 10
9.06944
 20
3.96528
 30
0.0
 11
8.88103
 21
3.73178
 31
0.0
  0
LINE
  8
0
 62
     0
 10
8.88103
 20
3.73178
 30
0.0
 11
8.67703
 21
3.52431
 31
0.0
  0
LINE
  8
0
 62
     0
 10
8.67703
 20
3.52431
 30
0.0
 11
8.45742
 21
3.34293
 31
0.0
  0
LINE
  8
0
 62
     0
 10
8.45742
 20
3.34293
 30
0.0
 11
8.22222
 21
3.1875
 31
0.0
  0
LINE
  8
0
 62
     0
 10
8.22222
 20
3.1875
 30
0.0
 11
7.97483
 21
3.06293
 31
0.0
  0
LINE
  8
0
 62
     0
 10
7.97483
 20
3.06293
 30
0.0
 11
7.71875
 21
2.97396
 31
0.0
  0
LINE
  8
0
 62
     0
 10
7.71875
 20
2.97396
 30
0.0
 11
7.454
 21
2.92057
 31
0.0
  0
LINE
  8
0
 62
     0
 10
7.454
 20
2.92057
 30
0.0
 11
7.18056
 21
2.90278
 31
0.0
  0
LINE
  8
0
 62
     0
 10
7.18056
 20
2.90278
 30
0.0
 11
6.91965
 21
2.91406
 31
0.0
  0
LINE
  8
0
 62
     0
 10
6.91965
 20
2.91406
 30
0.0
 11
6.67876
 21
2.94792
 31
0.0
  0
LINE
  8
0
 62
     0
 10
6.67876
 20
2.94792
 30
0.0
 11
6.45785
 21
3.00433
 31
0.0
  0
LINE
  8
0
 62
     0
 10
6.45785
 20
3.00433
 30
0.0
 11
6.25694
 21
3.08333
 31
0.0
  0
LINE
  8
0
 62
     0
 10
6.25694
 20
3.08333
 30
0.0
 11
5.89931
 21
3.28651
 31
0.0
  0
LINE
  8
0
 62
     0
 10
5.89931
 20
3.28651
 30
0.0
 11
5.59028
 21
3.53472
 31
0.0
  0
LINE
  8
0
 62
     0
 10
5.59028
 20
3.53472
 30
0.0
 11
5.31939
 21
3.81597
 31
0.0
  0
LINE
  8
0
 62
     0
 10
5.31939
 20
3.81597
 30
0.0
 11
5.07639
 21
4.11806
 31
0.0
  0
LINE
  8
0
 62
     0
 10
5.07639
 20
4.11806
 30
0.0
 11
4.61806
 21
4.70139
 31
0.0
  0
LINE
  8
0
 62
     0
 10
4.61806
 20
4.70139
 30
0.0
 11
4.37847
 21
4.94965
 31
0.0
  0
LINE
  8
0
 62
     0
 10
4.37847
 20
4.94965
 30
0.0
 11
4.11806
 21
5.15278
 31
0.0
  0
LINE
  8
0
 62
     0
 10
4.11806
 20
5.15278
 30
0.0
 11
3.97694
 21
5.23182
 31
0.0
  0
LINE
  8
0
 62
     0
 10
3.97694
 20
5.23182
 30
0.0
 11
3.8246
 21
5.28825
 31
0.0
  0
LINE
  8
0
 62
     0
 10
3.8246
 20
5.28825
 30
0.0
 11
3.66097
 21
5.3221
 31
0.0
  0
LINE
  8
0
 62
     0
 10
3.66097
 20
5.3221
 30
0.0
 11
3.48611
 21
5.33333
 31
0.0
  0
LINE
  8
0
 62
     0
 10
3.48611
 20
5.33333
 30
0.0
 11
3.29378
 21
5.31819
 31
0.0
  0
LINE
  8
0
 62
     0
 10
3.29378
 20
5.31819
 30
0.0
 11
3.11974
 21
5.27263
 31
0.0
  0
LINE
  8
0
 62
     0
 10
3.11974
 20
5.27263
 30
0.0
 11
2.96392
 21
5.19667
 31
0.0
  0
LINE
  8
0
 62
     0
 10
2.96392
 20
5.19667
 30
0.0
 11
2.82639
 21
5.09028
 31
0.0
  0
LINE
  8
0
 62
     0
 10
2.82639
 20
5.09028
 30
0.0
 11
2.70437
 21
4.96094
 31
0.0
  0
LINE
  8
0
 62
     0
 10
2.70437
 20
4.96094
 30
0.0
 11
2.59543
 21
4.81597
 31
0.0
  0
LINE
  8
0
 62
     0
 10
2.59543
 20
4.81597
 30
0.0
 11
2.49951
 21
4.65539
 31
0.0
  0
LINE
  8
0
 62
     0
 10
2.49951
 20
4.65539
 30
0.0
 11
2.41667
 21
4.47917
 31
0.0
  0
LINE
  8
0
 62
     0
 10
2.41667
 20
4.47917
 30
0.0
 11
2.28646
 21
4.09722
 31
0.0
  0
LINE
  8
0
 62
     0
 10
2.28646
 20
4.09722
 30
0.0
 11
2.20139
 21
3.6875
 31
0.0
  0
LINE
  8
0
 62
     0
 10
2.20139
 20
3.6875
 30
0.0
 11
2.15451
 21
3.27951
 31
0.0
  0
LINE
  8
0
 62
     0
 10
2.15451
 20
3.27951
 30
0.0
 11
2.13889
 21
2.90278
 31
0.0
  0
LINE
  8
0
 62
     0
 10
2.13889
 20
2.90278
 30
0.0
 11
0.972222
 21
2.90278
 31
0.0
  0
ENDSEC
  0
EOF
