  0
SECTION
  2
HEADER
  9
$ACADVER
  1
AC1009
  9
$EXTMIN
 10
0.0
 20
0.0
 30
0.0
  9
$EXTMAX
 10
1000.0
 20
1000.0
 30
0.0
  9
$FILLMODE
 70
 0
  9
$SPLFRAME
 70
 1
  0
ENDSEC
  0
SECTION
  2
TABLES
  0
TABLE
  2
LAYER
 70
1
  0
LAYER
  2
0
 70
     0
 62
     7
  6
CONTINUOUS
  0
ENDTAB
  0
ENDSEC
  0
SECTION
  2
ENTITIES
  0
LINE
  8
0
 62
     0
 10
3.04167
 20
3.59722
 30
0.0
 11
6.63889
 21
3.59722
 31
0.0
  0
LINE
  8
0
 62
     0
 10
6.63889
 20
3.59722
 30
0.0
 11
4.83333
 21
8.65278
 31
0.0
  0
LINE
  8
0
 62
     0
 10
4.83333
 20
8.65278
 30
0.0
 11
3.04167
 21
3.59722
 31
0.0
  0
LINE
  8
0
 62
     0
 10
7.91667
 20
-0
 30
0.0
 11
7.02778
 21
2.48611
 31
0.0
  0
LINE
  8
0
 62
     0
 10
7.02778
 20
2.48611
 30
0.0
 11
2.63889
 21
2.48611
 31
0.0
  0
LINE
  8
0
 62
     0
 10
2.63889
 20
2.48611
 30
0.0
 11
1.76389
 21
-0
 31
0.0
  0
LINE
  8
0
 62
     0
 10
1.76389
 20
-0
 30
0.0
 11
0.486111
 21
-0
 31
0.0
  0
LINE
  8
0
 62
     0
 10
0.486111
 20
-0
 30
0.0
 11
4.26389
 21
10.1389
 31
0.0
  0
LINE
  8
0
 62
     0
 10
4.26389
 20
10.1389
 30
0.0
 11
5.51389
 21
10.1389
 31
0.0
  0
LINE
  8
0
 62
     0
 10
5.51389
 20
10.1389
 30
0.0
 11
9.26389
 21
-0
 31
0.0
  0
LINE
  8
0
 62
     0
 10
9.26389
 20
-0
 30
0.0
 11
7.91667
 21
-0
 31
0.0
  0
LINE
  8
0
 62
     0
 10
2.31944
 20
11.3611
 30
0.0
 11
2.33507
 21
11.6198
 31
0.0
  0
LINE
  8
0
 62
     0
 10
2.33507
 20
11.6198
 30
0.0
 11
2.38194
 21
11.8958
 31
0.0
  0
LINE
  8
0
 62
     0
 10
2.38194
 20
11.8958
 30
0.0
 11
2.47049
 21
12.1703
 31
0.0
  0
LINE
  8
0
 62
     0
 10
2.47049
 20
12.1703
 30
0.0
 11
2.61111
 21
12.4236
 31
0.0
  0
LINE
  8
0
 62
     0
 10
2.61111
 20
12.4236
 30
0.0
 11
2.80556
 21
12.6459
 31
0.0
  0
LINE
  8
0
 62
     0
 10
2.80556
 20
12.6459
 30
0.0
 11
3.05556
 21
12.8264
 31
0.0
  0
LINE
  8
0
 62
     0
 10
3.05556
 20
12.8264
 30
0.0
 11
3.20307
 21
12.8963
 31
0.0
  0
LINE
  8
0
 62
     0
 10
3.20307
 20
12.8963
 30
0.0
 11
3.368
 21
12.9462
 31
0.0
  0
LINE
  8
0
 62
     0
 10
3.368
 20
12.9462
 30
0.0
 11
3.55029
 21
12.9762
 31
0.0
  0
LINE
  8
0
 62
     0
 10
3.55029
 20
12.9762
 30
0.0
 11
3.75
 21
12.9861
 31
0.0
  0
LINE
  8
0
 62
     0
 10
3.75
 20
12.9861
 30
0.0
 11
3.95053
 21
12.9762
 31
0.0
  0
LINE
  8
0
 62
     0
 10
3.95053
 20
12.9762
 30
0.0
 11
4.13542
 21
12.9462
 31
0.0
  0
LINE
  8
0
 62
     0
 10
4.13542
 20
12.9462
 30
0.0
 11
4.30469
 21
12.8963
 31
0.0
  0
LINE
  8
0
 62
     0
 10
4.30469
 20
12.8963
 30
0.0
 11
4.45833
 21
12.8264
 31
0.0
  0
LINE
  8
0
 62
     0
 10
4.45833
 20
12.8264
 30
0.0
 11
4.73438
 21
12.6597
 31
0.0
  0
LINE
  8
0
 62
     0
 10
4.73438
 20
12.6597
 30
0.0
 11
4.97917
 21
12.4792
 31
0.0
  0
LINE
  8
0
 62
     0
 10
4.97917
 20
12.4792
 30
0.0
 11
5.20313
 21
12.3003
 31
0.0
  0
LINE
  8
0
 62
     0
 10
5.20313
 20
12.3003
 30
0.0
 11
5.41667
 21
12.1389
 31
0.0
  0
LINE
  8
0
 62
     0
 10
5.41667
 20
12.1389
 30
0.0
 11
5.63194
 21
12.0244
 31
0.0
  0
LINE
  8
0
 62
     0
 10
5.63194
 20
12.0244
 30
0.0
 11
5.86111
 21
11.9861
 31
0.0
  0
LINE
  8
0
 62
     0
 10
5.86111
 20
11.9861
 30
0.0
 11
6.04335
 21
12.0104
 31
0.0
  0
LINE
  8
0
 62
     0
 10
6.04335
 20
12.0104
 30
0.0
 11
6.20139
 21
12.0833
 31
0.0
  0
LINE
  8
0
 62
     0
 10
6.20139
 20
12.0833
 30
0.0
 11
6.33501
 21
12.1928
 31
0.0
  0
LINE
  8
0
 62
     0
 10
6.33501
 20
12.1928
 30
0.0
 11
6.44444
 21
12.3264
 31
0.0
  0
LINE
  8
0
 62
     0
 10
6.44444
 20
12.3264
 30
0.0
 11
6.52951
 21
12.4792
 31
0.0
  0
LINE
  8
0
 62
     0
 10
6.52951
 20
12.4792
 30
0.0
 11
6.59028
 21
12.6458
 31
0.0
  0
LINE
  8
0
 62
     0
 10
6.59028
 20
12.6458
 30
0.0
 11
6.62668
 21
12.8177
 31
0.0
  0
LINE
  8
0
 62
     0
 10
6.62668
 20
12.8177
 30
0.0
 11
6.63889
 21
12.9861
 31
0.0
  0
LINE
  8
0
 62
     0
 10
6.63889
 20
12.9861
 30
0.0
 11
7.40278
 21
12.9861
 31
0.0
  0
LINE
  8
0
 62
     0
 10
7.40278
 20
12.9861
 30
0.0
 11
7.37326
 21
12.7067
 31
0.0
  0
LINE
  8
0
 62
     0
 10
7.37326
 20
12.7067
 30
0.0
 11
7.28472
 21
12.4236
 31
0.0
  0
LINE
  8
0
 62
     0
 10
7.28472
 20
12.4236
 30
0.0
 11
7.14404
 21
12.151
 31
0.0
  0
LINE
  8
0
 62
     0
 10
7.14404
 20
12.151
 30
0.0
 11
6.95833
 21
11.9028
 31
0.0
  0
LINE
  8
0
 62
     0
 10
6.95833
 20
11.9028
 30
0.0
 11
6.73258
 21
11.6874
 31
0.0
  0
LINE
  8
0
 62
     0
 10
6.73258
 20
11.6874
 30
0.0
 11
6.47222
 21
11.5139
 31
0.0
  0
LINE
  8
0
 62
     0
 10
6.47222
 20
11.5139
 30
0.0
 11
6.1875
 21
11.3994
 31
0.0
  0
LINE
  8
0
 62
     0
 10
6.1875
 20
11.3994
 30
0.0
 11
5.88889
 21
11.3611
 31
0.0
  0
LINE
  8
0
 62
     0
 10
5.88889
 20
11.3611
 30
0.0
 11
5.63975
 21
11.3711
 31
0.0
  0
LINE
  8
0
 62
     0
 10
5.63975
 20
11.3711
 30
0.0
 11
5.42014
 21
11.401
 31
0.0
  0
LINE
  8
0
 62
     0
 10
5.42014
 20
11.401
 30
0.0
 11
5.23003
 21
11.451
 31
0.0
  0
LINE
  8
0
 62
     0
 10
5.23003
 20
11.451
 30
0.0
 11
5.06944
 21
11.5208
 31
0.0
  0
LINE
  8
0
 62
     0
 10
5.06944
 20
11.5208
 30
0.0
 11
4.80203
 21
11.6876
 31
0.0
  0
LINE
  8
0
 62
     0
 10
4.80203
 20
11.6876
 30
0.0
 11
4.58333
 21
11.8681
 31
0.0
  0
LINE
  8
0
 62
     0
 10
4.58333
 20
11.8681
 30
0.0
 11
4.20139
 21
12.2153
 31
0.0
  0
LINE
  8
0
 62
     0
 10
4.20139
 20
12.2153
 30
0.0
 11
4.09933
 21
12.2852
 31
0.0
  0
LINE
  8
0
 62
     0
 10
4.09933
 20
12.2852
 30
0.0
 11
3.98085
 21
12.3351
 31
0.0
  0
LINE
  8
0
 62
     0
 10
3.98085
 20
12.3351
 30
0.0
 11
3.84586
 21
12.3651
 31
0.0
  0
LINE
  8
0
 62
     0
 10
3.84586
 20
12.3651
 30
0.0
 11
3.69444
 21
12.375
 31
0.0
  0
LINE
  8
0
 62
     0
 10
3.69444
 20
12.375
 30
0.0
 11
3.50694
 21
12.349
 31
0.0
  0
LINE
  8
0
 62
     0
 10
3.50694
 20
12.349
 30
0.0
 11
3.36111
 21
12.2708
 31
0.0
  0
LINE
  8
0
 62
     0
 10
3.36111
 20
12.2708
 30
0.0
 11
3.24994
 21
12.1545
 31
0.0
  0
LINE
  8
0
 62
     0
 10
3.24994
 20
12.1545
 30
0.0
 11
3.16667
 21
12.0139
 31
0.0
  0
LINE
  8
0
 62
     0
 10
3.16667
 20
12.0139
 30
0.0
 11
3.10938
 21
11.8542
 31
0.0
  0
LINE
  8
0
 62
     0
 10
3.10938
 20
11.8542
 30
0.0
 11
3.07639
 21
11.6806
 31
0.0
  0
LINE
  8
0
 62
     0
 10
3.07639
 20
11.6806
 30
0.0
 11
3.06076
 21
11.5104
 31
0.0
  0
LINE
  8
0
 62
     0
 10
3.06076
 20
11.5104
 30
0.0
 11
3.05556
 21
11.3611
 31
0.0
  0
LINE
  8
0
 62
     0
 10
3.05556
 20
11.3611
 30
0.0
 11
2.31944
 21
11.3611
 31
0.0
  0
ENDSEC
  0
EOF
