  0
SECTION
  2
HEADER
  9
$ACADVER
  1
AC1009
  9
$EXTMIN
 10
0.0
 20
0.0
 30
0.0
  9
$EXTMAX
 10
1000.0
 20
1000.0
 30
0.0
  9
$FILLMODE
 70
 0
  9
$SPLFRAME
 70
 1
  0
ENDSEC
  0
SECTION
  2
TABLES
  0
TABLE
  2
LAYER
 70
1
  0
LAYER
  2
0
 70
     0
 62
     7
  6
CONTINUOUS
  0
ENDTAB
  0
ENDSEC
  0
SECTION
  2
ENTITIES
  0
LINE
  8
0
 62
     0
 10
0.763889
 20
4.52778
 30
0.0
 11
0.800347
 21
4.89236
 31
0.0
  0
LINE
  8
0
 62
     0
 10
0.800347
 20
4.89236
 30
0.0
 11
0.909722
 21
5.23611
 31
0.0
  0
LINE
  8
0
 62
     0
 10
0.909722
 20
5.23611
 30
0.0
 11
1.07981
 21
5.54688
 31
0.0
  0
LINE
  8
0
 62
     0
 10
1.07981
 20
5.54688
 30
0.0
 11
1.29861
 21
5.8125
 31
0.0
  0
LINE
  8
0
 62
     0
 10
1.29861
 20
5.8125
 30
0.0
 11
1.56424
 21
6.03131
 31
0.0
  0
LINE
  8
0
 62
     0
 10
1.56424
 20
6.03131
 30
0.0
 11
1.875
 21
6.20139
 31
0.0
  0
LINE
  8
0
 62
     0
 10
1.875
 20
6.20139
 30
0.0
 11
2.21875
 21
6.31076
 31
0.0
  0
LINE
  8
0
 62
     0
 10
2.21875
 20
6.31076
 30
0.0
 11
2.58333
 21
6.34722
 31
0.0
  0
LINE
  8
0
 62
     0
 10
2.58333
 20
6.34722
 30
0.0
 11
2.94613
 21
6.31076
 31
0.0
  0
LINE
  8
0
 62
     0
 10
2.94613
 20
6.31076
 30
0.0
 11
3.28472
 21
6.20139
 31
0.0
  0
LINE
  8
0
 62
     0
 10
3.28472
 20
6.20139
 30
0.0
 11
3.59201
 21
6.03131
 31
0.0
  0
LINE
  8
0
 62
     0
 10
3.59201
 20
6.03131
 30
0.0
 11
3.86111
 21
5.8125
 31
0.0
  0
LINE
  8
0
 62
     0
 10
3.86111
 20
5.8125
 30
0.0
 11
4.08328
 21
5.54688
 31
0.0
  0
LINE
  8
0
 62
     0
 10
4.08328
 20
5.54688
 30
0.0
 11
4.25
 21
5.23611
 31
0.0
  0
LINE
  8
0
 62
     0
 10
4.25
 20
5.23611
 30
0.0
 11
4.35417
 21
4.89236
 31
0.0
  0
LINE
  8
0
 62
     0
 10
4.35417
 20
4.89236
 30
0.0
 11
4.38889
 21
4.52778
 31
0.0
  0
LINE
  8
0
 62
     0
 10
4.38889
 20
4.52778
 30
0.0
 11
4.35417
 21
4.16499
 31
0.0
  0
LINE
  8
0
 62
     0
 10
4.35417
 20
4.16499
 30
0.0
 11
4.25
 21
3.82639
 31
0.0
  0
LINE
  8
0
 62
     0
 10
4.25
 20
3.82639
 30
0.0
 11
4.08328
 21
3.5191
 31
0.0
  0
LINE
  8
0
 62
     0
 10
4.08328
 20
3.5191
 30
0.0
 11
3.86111
 21
3.25
 31
0.0
  0
LINE
  8
0
 62
     0
 10
3.86111
 20
3.25
 30
0.0
 11
3.59201
 21
3.02783
 31
0.0
  0
LINE
  8
0
 62
     0
 10
3.59201
 20
3.02783
 30
0.0
 11
3.28472
 21
2.86111
 31
0.0
  0
LINE
  8
0
 62
     0
 10
3.28472
 20
2.86111
 30
0.0
 11
2.94613
 21
2.75694
 31
0.0
  0
LINE
  8
0
 62
     0
 10
2.94613
 20
2.75694
 30
0.0
 11
2.58333
 21
2.72222
 31
0.0
  0
LINE
  8
0
 62
     0
 10
2.58333
 20
2.72222
 30
0.0
 11
2.21875
 21
2.75694
 31
0.0
  0
LINE
  8
0
 62
     0
 10
2.21875
 20
2.75694
 30
0.0
 11
1.875
 21
2.86111
 31
0.0
  0
LINE
  8
0
 62
     0
 10
1.875
 20
2.86111
 30
0.0
 11
1.56424
 21
3.02783
 31
0.0
  0
LINE
  8
0
 62
     0
 10
1.56424
 20
3.02783
 30
0.0
 11
1.29861
 21
3.25
 31
0.0
  0
LINE
  8
0
 62
     0
 10
1.29861
 20
3.25
 30
0.0
 11
1.07981
 21
3.5191
 31
0.0
  0
LINE
  8
0
 62
     0
 10
1.07981
 20
3.5191
 30
0.0
 11
0.909722
 21
3.82639
 31
0.0
  0
LINE
  8
0
 62
     0
 10
0.909722
 20
3.82639
 30
0.0
 11
0.800347
 21
4.16499
 31
0.0
  0
LINE
  8
0
 62
     0
 10
0.800347
 20
4.16499
 30
0.0
 11
0.763889
 21
4.52778
 31
0.0
  0
ENDSEC
  0
EOF
