  0
SECTION
  2
HEADER
  9
$ACADVER
  1
AC1009
  9
$EXTMIN
 10
0.0
 20
0.0
 30
0.0
  9
$EXTMAX
 10
1000.0
 20
1000.0
 30
0.0
  9
$FILLMODE
 70
 0
  9
$SPLFRAME
 70
 1
  0
ENDSEC
  0
SECTION
  2
TABLES
  0
TABLE
  2
LAYER
 70
1
  0
LAYER
  2
0
 70
     0
 62
     7
  6
CONTINUOUS
  0
ENDTAB
  0
ENDSEC
  0
SECTION
  2
ENTITIES
  0
LINE
  8
0
 62
     0
 10
5.08333
 20
-3.13889
 30
0.0
 11
4.83507
 21
-3.22564
 31
0.0
  0
LINE
  8
0
 62
     0
 10
4.83507
 20
-3.22564
 30
0.0
 11
4.5625
 21
-3.26389
 31
0.0
  0
LINE
  8
0
 62
     0
 10
4.5625
 20
-3.26389
 30
0.0
 11
4.28293
 21
-3.26736
 31
0.0
  0
LINE
  8
0
 62
     0
 10
4.28293
 20
-3.26736
 30
0.0
 11
4.01389
 21
-3.25
 31
0.0
  0
LINE
  8
0
 62
     0
 10
4.01389
 20
-3.25
 30
0.0
 11
3.70833
 21
-3.20833
 31
0.0
  0
LINE
  8
0
 62
     0
 10
3.70833
 20
-3.20833
 30
0.0
 11
3.40278
 21
-3.13889
 31
0.0
  0
LINE
  8
0
 62
     0
 10
3.40278
 20
-3.13889
 30
0.0
 11
3.40278
 21
-2.23611
 31
0.0
  0
LINE
  8
0
 62
     0
 10
3.40278
 20
-2.23611
 30
0.0
 11
3.49653
 21
-2.25857
 31
0.0
  0
LINE
  8
0
 62
     0
 10
3.49653
 20
-2.25857
 30
0.0
 11
3.58333
 21
-2.27083
 31
0.0
  0
LINE
  8
0
 62
     0
 10
3.58333
 20
-2.27083
 30
0.0
 11
3.76389
 21
-2.29167
 31
0.0
  0
LINE
  8
0
 62
     0
 10
3.76389
 20
-2.29167
 30
0.0
 11
4.09028
 21
-2.29861
 31
0.0
  0
LINE
  8
0
 62
     0
 10
4.09028
 20
-2.29861
 30
0.0
 11
4.25515
 21
-2.27951
 31
0.0
  0
LINE
  8
0
 62
     0
 10
4.25515
 20
-2.27951
 30
0.0
 11
4.40278
 21
-2.23611
 31
0.0
  0
LINE
  8
0
 62
     0
 10
4.40278
 20
-2.23611
 30
0.0
 11
4.53901
 21
-2.16624
 31
0.0
  0
LINE
  8
0
 62
     0
 10
4.53901
 20
-2.16624
 30
0.0
 11
4.65619
 21
-2.0816
 31
0.0
  0
LINE
  8
0
 62
     0
 10
4.65619
 20
-2.0816
 30
0.0
 11
4.75429
 21
-1.98221
 31
0.0
  0
LINE
  8
0
 62
     0
 10
4.75429
 20
-1.98221
 30
0.0
 11
4.83333
 21
-1.86806
 31
0.0
  0
LINE
  8
0
 62
     0
 10
4.83333
 20
-1.86806
 30
0.0
 11
4.94618
 21
-1.61106
 31
0.0
  0
LINE
  8
0
 62
     0
 10
4.94618
 20
-1.61106
 30
0.0
 11
5.00694
 21
-1.32639
 31
0.0
  0
LINE
  8
0
 62
     0
 10
5.00694
 20
-1.32639
 30
0.0
 11
5.02257
 21
-1.02083
 31
0.0
  0
LINE
  8
0
 62
     0
 10
5.02257
 20
-1.02083
 30
0.0
 11
5
 21
-0.701389
 31
0.0
  0
LINE
  8
0
 62
     0
 10
5
 20
-0.701389
 30
0.0
 11
4.95486
 21
-0.387099
 31
0.0
  0
LINE
  8
0
 62
     0
 10
4.95486
 20
-0.387099
 30
0.0
 11
4.90278
 21
-0.0972222
 31
0.0
  0
LINE
  8
0
 62
     0
 10
4.90278
 20
-0.0972222
 30
0.0
 11
4.50342
 21
-0.0741644
 31
0.0
  0
LINE
  8
0
 62
     0
 10
4.50342
 20
-0.0741644
 30
0.0
 11
4.11106
 21
-0.0190429
 31
0.0
  0
LINE
  8
0
 62
     0
 10
4.11106
 20
-0.0190429
 30
0.0
 11
3.72564
 21
0.0681967
 31
0.0
  0
LINE
  8
0
 62
     0
 10
3.72564
 20
0.0681967
 30
0.0
 11
3.34722
 21
0.1875
 31
0.0
  0
LINE
  8
0
 62
     0
 10
3.34722
 20
0.1875
 30
0.0
 11
2.98264
 21
0.34375
 31
0.0
  0
LINE
  8
0
 62
     0
 10
2.98264
 20
0.34375
 30
0.0
 11
2.63889
 21
0.541667
 31
0.0
  0
LINE
  8
0
 62
     0
 10
2.63889
 20
0.541667
 30
0.0
 11
2.31597
 21
0.78125
 31
0.0
  0
LINE
  8
0
 62
     0
 10
2.31597
 20
0.78125
 30
0.0
 11
2.01389
 21
1.0625
 31
0.0
  0
LINE
  8
0
 62
     0
 10
2.01389
 20
1.0625
 30
0.0
 11
1.73654
 21
1.38802
 31
0.0
  0
LINE
  8
0
 62
     0
 10
1.73654
 20
1.38802
 30
0.0
 11
1.48785
 21
1.76042
 31
0.0
  0
LINE
  8
0
 62
     0
 10
1.48785
 20
1.76042
 30
0.0
 11
1.26779
 21
2.17969
 31
0.0
  0
LINE
  8
0
 62
     0
 10
1.26779
 20
2.17969
 30
0.0
 11
1.07639
 21
2.64583
 31
0.0
  0
LINE
  8
0
 62
     0
 10
1.07639
 20
2.64583
 30
0.0
 11
0.921442
 21
3.16456
 31
0.0
  0
LINE
  8
0
 62
     0
 10
0.921442
 20
3.16456
 30
0.0
 11
0.810764
 21
3.74137
 31
0.0
  0
LINE
  8
0
 62
     0
 10
0.810764
 20
3.74137
 30
0.0
 11
0.744358
 21
4.37636
 31
0.0
  0
LINE
  8
0
 62
     0
 10
0.744358
 20
4.37636
 30
0.0
 11
0.722222
 21
5.06944
 31
0.0
  0
LINE
  8
0
 62
     0
 10
0.722222
 20
5.06944
 30
0.0
 11
0.744792
 21
5.70188
 31
0.0
  0
LINE
  8
0
 62
     0
 10
0.744792
 20
5.70188
 30
0.0
 11
0.8125
 21
6.29346
 31
0.0
  0
LINE
  8
0
 62
     0
 10
0.8125
 20
6.29346
 30
0.0
 11
0.925347
 21
6.84424
 31
0.0
  0
LINE
  8
0
 62
     0
 10
0.925347
 20
6.84424
 30
0.0
 11
1.08333
 21
7.35417
 31
0.0
  0
LINE
  8
0
 62
     0
 10
1.08333
 20
7.35417
 30
0.0
 11
1.27859
 21
7.82292
 31
0.0
  0
LINE
  8
0
 62
     0
 10
1.27859
 20
7.82292
 30
0.0
 11
1.50342
 21
8.25
 31
0.0
  0
LINE
  8
0
 62
     0
 10
1.50342
 20
8.25
 30
0.0
 11
1.75776
 21
8.63542
 31
0.0
  0
LINE
  8
0
 62
     0
 10
1.75776
 20
8.63542
 30
0.0
 11
2.04167
 21
8.97917
 31
0.0
  0
LINE
  8
0
 62
     0
 10
2.04167
 20
8.97917
 30
0.0
 11
2.35069
 21
9.28174
 31
0.0
  0
LINE
  8
0
 62
     0
 10
2.35069
 20
9.28174
 30
0.0
 11
2.68056
 21
9.54346
 31
0.0
  0
LINE
  8
0
 62
     0
 10
2.68056
 20
9.54346
 30
0.0
 11
3.03119
 21
9.76437
 31
0.0
  0
LINE
  8
0
 62
     0
 10
3.03119
 20
9.76437
 30
0.0
 11
3.40278
 21
9.94444
 31
0.0
  0
LINE
  8
0
 62
     0
 10
3.40278
 20
9.94444
 30
0.0
 11
3.78819
 21
10.0842
 31
0.0
  0
LINE
  8
0
 62
     0
 10
3.78819
 20
10.0842
 30
0.0
 11
4.18056
 21
10.184
 31
0.0
  0
LINE
  8
0
 62
     0
 10
4.18056
 20
10.184
 30
0.0
 11
4.57986
 21
10.2439
 31
0.0
  0
LINE
  8
0
 62
     0
 10
4.57986
 20
10.2439
 30
0.0
 11
4.98611
 21
10.2639
 31
0.0
  0
LINE
  8
0
 62
     0
 10
4.98611
 20
10.2639
 30
0.0
 11
5.29731
 21
10.2569
 31
0.0
  0
LINE
  8
0
 62
     0
 10
5.29731
 20
10.2569
 30
0.0
 11
5.59201
 21
10.2361
 31
0.0
  0
LINE
  8
0
 62
     0
 10
5.59201
 20
10.2361
 30
0.0
 11
5.87022
 21
10.2014
 31
0.0
  0
LINE
  8
0
 62
     0
 10
5.87022
 20
10.2014
 30
0.0
 11
6.13194
 21
10.1528
 31
0.0
  0
LINE
  8
0
 62
     0
 10
6.13194
 20
10.1528
 30
0.0
 11
6.61285
 21
10.0139
 31
0.0
  0
LINE
  8
0
 62
     0
 10
6.61285
 20
10.0139
 30
0.0
 11
7.04167
 21
9.81944
 31
0.0
  0
LINE
  8
0
 62
     0
 10
7.04167
 20
9.81944
 30
0.0
 11
7.42529
 21
9.56944
 31
0.0
  0
LINE
  8
0
 62
     0
 10
7.42529
 20
9.56944
 30
0.0
 11
7.77083
 21
9.26389
 31
0.0
  0
LINE
  8
0
 62
     0
 10
7.77083
 20
9.26389
 30
0.0
 11
8.08507
 21
8.90278
 31
0.0
  0
LINE
  8
0
 62
     0
 10
8.08507
 20
8.90278
 30
0.0
 11
8.375
 21
8.48611
 31
0.0
  0
LINE
  8
0
 62
     0
 10
8.375
 20
8.48611
 30
0.0
 11
7.48611
 21
7.70833
 31
0.0
  0
LINE
  8
0
 62
     0
 10
7.48611
 20
7.70833
 30
0.0
 11
7.2895
 21
8.01307
 31
0.0
  0
LINE
  8
0
 62
     0
 10
7.2895
 20
8.01307
 30
0.0
 11
7.06071
 21
8.28825
 31
0.0
  0
LINE
  8
0
 62
     0
 10
7.06071
 20
8.28825
 30
0.0
 11
6.79986
 21
8.5339
 31
0.0
  0
LINE
  8
0
 62
     0
 10
6.79986
 20
8.5339
 30
0.0
 11
6.50694
 21
8.75
 31
0.0
  0
LINE
  8
0
 62
     0
 10
6.50694
 20
8.75
 30
0.0
 11
6.18181
 21
8.92622
 31
0.0
  0
LINE
  8
0
 62
     0
 10
6.18181
 20
8.92622
 30
0.0
 11
5.8246
 21
9.05208
 31
0.0
  0
LINE
  8
0
 62
     0
 10
5.8246
 20
9.05208
 30
0.0
 11
5.43528
 21
9.12761
 31
0.0
  0
LINE
  8
0
 62
     0
 10
5.43528
 20
9.12761
 30
0.0
 11
5.01389
 21
9.15278
 31
0.0
  0
LINE
  8
0
 62
     0
 10
5.01389
 20
9.15278
 30
0.0
 11
4.61849
 21
9.13151
 31
0.0
  0
LINE
  8
0
 62
     0
 10
4.61849
 20
9.13151
 30
0.0
 11
4.25174
 21
9.06771
 31
0.0
  0
LINE
  8
0
 62
     0
 10
4.25174
 20
9.06771
 30
0.0
 11
3.91357
 21
8.96137
 31
0.0
  0
LINE
  8
0
 62
     0
 10
3.91357
 20
8.96137
 30
0.0
 11
3.60417
 21
8.8125
 31
0.0
  0
LINE
  8
0
 62
     0
 10
3.60417
 20
8.8125
 30
0.0
 11
3.32249
 21
8.62804
 31
0.0
  0
LINE
  8
0
 62
     0
 10
3.32249
 20
8.62804
 30
0.0
 11
3.06771
 21
8.41493
 31
0.0
  0
LINE
  8
0
 62
     0
 10
3.06771
 20
8.41493
 30
0.0
 11
2.83985
 21
8.17318
 31
0.0
  0
LINE
  8
0
 62
     0
 10
2.83985
 20
8.17318
 30
0.0
 11
2.63889
 21
7.90278
 31
0.0
  0
LINE
  8
0
 62
     0
 10
2.63889
 20
7.90278
 30
0.0
 11
2.46354
 21
7.60769
 31
0.0
  0
LINE
  8
0
 62
     0
 10
2.46354
 20
7.60769
 30
0.0
 11
2.3125
 21
7.29167
 31
0.0
  0
LINE
  8
0
 62
     0
 10
2.3125
 20
7.29167
 30
0.0
 11
2.18576
 21
6.95486
 31
0.0
  0
LINE
  8
0
 62
     0
 10
2.18576
 20
6.95486
 30
0.0
 11
2.08333
 21
6.59722
 31
0.0
  0
LINE
  8
0
 62
     0
 10
2.08333
 20
6.59722
 30
0.0
 11
2.00429
 21
6.22575
 31
0.0
  0
LINE
  8
0
 62
     0
 10
2.00429
 20
6.22575
 30
0.0
 11
1.94786
 21
5.84728
 31
0.0
  0
LINE
  8
0
 62
     0
 10
1.94786
 20
5.84728
 30
0.0
 11
1.91401
 21
5.46186
 31
0.0
  0
LINE
  8
0
 62
     0
 10
1.91401
 20
5.46186
 30
0.0
 11
1.90278
 21
5.06944
 31
0.0
  0
LINE
  8
0
 62
     0
 10
1.90278
 20
5.06944
 30
0.0
 11
1.91363
 21
4.66542
 31
0.0
  0
LINE
  8
0
 62
     0
 10
1.91363
 20
4.66542
 30
0.0
 11
1.94618
 21
4.27263
 31
0.0
  0
LINE
  8
0
 62
     0
 10
1.94618
 20
4.27263
 30
0.0
 11
2.00043
 21
3.89111
 31
0.0
  0
LINE
  8
0
 62
     0
 10
2.00043
 20
3.89111
 30
0.0
 11
2.07639
 21
3.52083
 31
0.0
  0
LINE
  8
0
 62
     0
 10
2.07639
 20
3.52083
 30
0.0
 11
2.17572
 21
3.16667
 31
0.0
  0
LINE
  8
0
 62
     0
 10
2.17572
 20
3.16667
 30
0.0
 11
2.30029
 21
2.83333
 31
0.0
  0
LINE
  8
0
 62
     0
 10
2.30029
 20
2.83333
 30
0.0
 11
2.45003
 21
2.52083
 31
0.0
  0
LINE
  8
0
 62
     0
 10
2.45003
 20
2.52083
 30
0.0
 11
2.625
 21
2.22917
 31
0.0
  0
LINE
  8
0
 62
     0
 10
2.625
 20
2.22917
 30
0.0
 11
2.82553
 21
1.96272
 31
0.0
  0
LINE
  8
0
 62
     0
 10
2.82553
 20
1.96272
 30
0.0
 11
3.05208
 21
1.72575
 31
0.0
  0
LINE
  8
0
 62
     0
 10
3.05208
 20
1.72575
 30
0.0
 11
3.30469
 21
1.51828
 31
0.0
  0
LINE
  8
0
 62
     0
 10
3.30469
 20
1.51828
 30
0.0
 11
3.58333
 21
1.34028
 31
0.0
  0
LINE
  8
0
 62
     0
 10
3.58333
 20
1.34028
 30
0.0
 11
3.88975
 21
1.19748
 31
0.0
  0
LINE
  8
0
 62
     0
 10
3.88975
 20
1.19748
 30
0.0
 11
4.22569
 21
1.09549
 31
0.0
  0
LINE
  8
0
 62
     0
 10
4.22569
 20
1.09549
 30
0.0
 11
4.59114
 21
1.03429
 31
0.0
  0
LINE
  8
0
 62
     0
 10
4.59114
 20
1.03429
 30
0.0
 11
4.98611
 21
1.01389
 31
0.0
  0
LINE
  8
0
 62
     0
 10
4.98611
 20
1.01389
 30
0.0
 11
5.40881
 21
1.03733
 31
0.0
  0
LINE
  8
0
 62
     0
 10
5.40881
 20
1.03733
 30
0.0
 11
5.80203
 21
1.10764
 31
0.0
  0
LINE
  8
0
 62
     0
 10
5.80203
 20
1.10764
 30
0.0
 11
6.16575
 21
1.22483
 31
0.0
  0
LINE
  8
0
 62
     0
 10
6.16575
 20
1.22483
 30
0.0
 11
6.5
 21
1.38889
 31
0.0
  0
LINE
  8
0
 62
     0
 10
6.5
 20
1.38889
 30
0.0
 11
6.80208
 21
1.59201
 31
0.0
  0
LINE
  8
0
 62
     0
 10
6.80208
 20
1.59201
 30
0.0
 11
7.06944
 21
1.82639
 31
0.0
  0
LINE
  8
0
 62
     0
 10
7.06944
 20
1.82639
 30
0.0
 11
7.30208
 21
2.09201
 31
0.0
  0
LINE
  8
0
 62
     0
 10
7.30208
 20
2.09201
 30
0.0
 11
7.5
 21
2.38889
 31
0.0
  0
LINE
  8
0
 62
     0
 10
7.5
 20
2.38889
 30
0.0
 11
8.38889
 21
1.51389
 31
0.0
  0
LINE
  8
0
 62
     0
 10
8.38889
 20
1.51389
 30
0.0
 11
8.16271
 21
1.20057
 31
0.0
  0
LINE
  8
0
 62
     0
 10
8.16271
 20
1.20057
 30
0.0
 11
7.91487
 21
0.927137
 31
0.0
  0
LINE
  8
0
 62
     0
 10
7.91487
 20
0.927137
 30
0.0
 11
7.64535
 21
0.693631
 31
0.0
  0
LINE
  8
0
 62
     0
 10
7.64535
 20
0.693631
 30
0.0
 11
7.35417
 21
0.5
 31
0.0
  0
LINE
  8
0
 62
     0
 10
7.35417
 20
0.5
 30
0.0
 11
7.04557
 21
0.338542
 31
0.0
  0
LINE
  8
0
 62
     0
 10
7.04557
 20
0.338542
 30
0.0
 11
6.72396
 21
0.201389
 31
0.0
  0
LINE
  8
0
 62
     0
 10
6.72396
 20
0.201389
 30
0.0
 11
6.38932
 21
0.0885417
 31
0.0
  0
LINE
  8
0
 62
     0
 10
6.38932
 20
0.0885417
 30
0.0
 11
6.04167
 21
-0
 31
0.0
  0
LINE
  8
0
 62
     0
 10
6.04167
 20
-0
 30
0.0
 11
6.125
 21
-0.428819
 31
0.0
  0
LINE
  8
0
 62
     0
 10
6.125
 20
-0.428819
 30
0.0
 11
6.18056
 21
-0.881944
 31
0.0
  0
LINE
  8
0
 62
     0
 10
6.18056
 20
-0.881944
 30
0.0
 11
6.18918
 21
-1.33681
 31
0.0
  0
LINE
  8
0
 62
     0
 10
6.18918
 20
-1.33681
 30
0.0
 11
6.13194
 21
-1.77083
 31
0.0
  0
LINE
  8
0
 62
     0
 10
6.13194
 20
-1.77083
 30
0.0
 11
6.00347
 21
-2.17882
 31
0.0
  0
LINE
  8
0
 62
     0
 10
6.00347
 20
-2.17882
 30
0.0
 11
5.79861
 21
-2.55556
 31
0.0
  0
LINE
  8
0
 62
     0
 10
5.79861
 20
-2.55556
 30
0.0
 11
5.66271
 21
-2.72738
 31
0.0
  0
LINE
  8
0
 62
     0
 10
5.66271
 20
-2.72738
 30
0.0
 11
5.49821
 21
-2.88189
 31
0.0
  0
LINE
  8
0
 62
     0
 10
5.49821
 20
-2.88189
 30
0.0
 11
5.30507
 21
-3.01904
 31
0.0
  0
LINE
  8
0
 62
     0
 10
5.30507
 20
-3.01904
 30
0.0
 11
5.08333
 21
-3.13889
 31
0.0
  0
ENDSEC
  0
EOF
