  0
SECTION
  2
HEADER
  9
$ACADVER
  1
AC1009
  9
$EXTMIN
 10
0.0
 20
0.0
 30
0.0
  9
$EXTMAX
 10
1000.0
 20
1000.0
 30
0.0
  9
$FILLMODE
 70
 0
  9
$SPLFRAME
 70
 1
  0
ENDSEC
  0
SECTION
  2
TABLES
  0
TABLE
  2
LAYER
 70
1
  0
LAYER
  2
0
 70
     0
 62
     7
  6
CONTINUOUS
  0
ENDTAB
  0
ENDSEC
  0
SECTION
  2
ENTITIES
  0
LINE
  8
0
 62
     0
 10
3.98611
 20
-3.125
 30
0.0
 11
3.78119
 21
-3.19092
 31
0.0
  0
LINE
  8
0
 62
     0
 10
3.78119
 20
-3.19092
 30
0.0
 11
3.52778
 21
-3.22222
 31
0.0
  0
LINE
  8
0
 62
     0
 10
3.52778
 20
-3.22222
 30
0.0
 11
2.97222
 21
-3.20833
 31
0.0
  0
LINE
  8
0
 62
     0
 10
2.97222
 20
-3.20833
 30
0.0
 11
2.64583
 21
-3.1805
 31
0.0
  0
LINE
  8
0
 62
     0
 10
2.64583
 20
-3.1805
 30
0.0
 11
2.30556
 21
-3.125
 31
0.0
  0
LINE
  8
0
 62
     0
 10
2.30556
 20
-3.125
 30
0.0
 11
2.30556
 21
-2.22222
 31
0.0
  0
LINE
  8
0
 62
     0
 10
2.30556
 20
-2.22222
 30
0.0
 11
2.68056
 21
-2.26389
 31
0.0
  0
LINE
  8
0
 62
     0
 10
2.68056
 20
-2.26389
 30
0.0
 11
2.83854
 21
-2.28119
 31
0.0
  0
LINE
  8
0
 62
     0
 10
2.83854
 20
-2.28119
 30
0.0
 11
3.00694
 21
-2.27778
 31
0.0
  0
LINE
  8
0
 62
     0
 10
3.00694
 20
-2.27778
 30
0.0
 11
3.16835
 21
-2.25689
 31
0.0
  0
LINE
  8
0
 62
     0
 10
3.16835
 20
-2.25689
 30
0.0
 11
3.30556
 21
-2.22222
 31
0.0
  0
LINE
  8
0
 62
     0
 10
3.30556
 20
-2.22222
 30
0.0
 11
3.4605
 21
-2.15799
 31
0.0
  0
LINE
  8
0
 62
     0
 10
3.4605
 20
-2.15799
 30
0.0
 11
3.59201
 21
-2.07639
 31
0.0
  0
LINE
  8
0
 62
     0
 10
3.59201
 20
-2.07639
 30
0.0
 11
3.70008
 21
-1.97743
 31
0.0
  0
LINE
  8
0
 62
     0
 10
3.70008
 20
-1.97743
 30
0.0
 11
3.78472
 21
-1.86111
 31
0.0
  0
LINE
  8
0
 62
     0
 10
3.78472
 20
-1.86111
 30
0.0
 11
3.89931
 21
-1.59722
 31
0.0
  0
LINE
  8
0
 62
     0
 10
3.89931
 20
-1.59722
 30
0.0
 11
3.95139
 21
-1.30556
 31
0.0
  0
LINE
  8
0
 62
     0
 10
3.95139
 20
-1.30556
 30
0.0
 11
3.95313
 21
-0.996474
 31
0.0
  0
LINE
  8
0
 62
     0
 10
3.95313
 20
-0.996474
 30
0.0
 11
3.91667
 21
-0.680556
 31
0.0
  0
LINE
  8
0
 62
     0
 10
3.91667
 20
-0.680556
 30
0.0
 11
3.80556
 21
-0.0833333
 31
0.0
  0
LINE
  8
0
 62
     0
 10
3.80556
 20
-0.0833333
 30
0.0
 11
3.41878
 21
-0.0476887
 31
0.0
  0
LINE
  8
0
 62
     0
 10
3.41878
 20
-0.0476887
 30
0.0
 11
3.05724
 21
0.0174154
 31
0.0
  0
LINE
  8
0
 62
     0
 10
3.05724
 20
0.0174154
 30
0.0
 11
2.72086
 21
0.112033
 31
0.0
  0
LINE
  8
0
 62
     0
 10
2.72086
 20
0.112033
 30
0.0
 11
2.40967
 21
0.236165
 31
0.0
  0
LINE
  8
0
 62
     0
 10
2.40967
 20
0.236165
 30
0.0
 11
2.12364
 21
0.389811
 31
0.0
  0
LINE
  8
0
 62
     0
 10
2.12364
 20
0.389811
 30
0.0
 11
1.86279
 21
0.572971
 31
0.0
  0
LINE
  8
0
 62
     0
 10
1.86279
 20
0.572971
 30
0.0
 11
1.62711
 21
0.785644
 31
0.0
  0
LINE
  8
0
 62
     0
 10
1.62711
 20
0.785644
 30
0.0
 11
1.41667
 21
1.02778
 31
0.0
  0
LINE
  8
0
 62
     0
 10
1.41667
 20
1.02778
 30
0.0
 11
1.23112
 21
1.29731
 31
0.0
  0
LINE
  8
0
 62
     0
 10
1.23112
 20
1.29731
 30
0.0
 11
1.07031
 21
1.59201
 31
0.0
  0
LINE
  8
0
 62
     0
 10
1.07031
 20
1.59201
 30
0.0
 11
0.934244
 21
1.91189
 31
0.0
  0
LINE
  8
0
 62
     0
 10
0.934244
 20
1.91189
 30
0.0
 11
0.822917
 21
2.25694
 31
0.0
  0
LINE
  8
0
 62
     0
 10
0.822917
 20
2.25694
 30
0.0
 11
0.736328
 21
2.62717
 31
0.0
  0
LINE
  8
0
 62
     0
 10
0.736328
 20
2.62717
 30
0.0
 11
0.674479
 21
3.02257
 31
0.0
  0
LINE
  8
0
 62
     0
 10
0.674479
 20
3.02257
 30
0.0
 11
0.637369
 21
3.44314
 31
0.0
  0
LINE
  8
0
 62
     0
 10
0.637369
 20
3.44314
 30
0.0
 11
0.625
 21
3.88889
 31
0.0
  0
LINE
  8
0
 62
     0
 10
0.625
 20
3.88889
 30
0.0
 11
0.642361
 21
4.32992
 31
0.0
  0
LINE
  8
0
 62
     0
 10
0.642361
 20
4.32992
 30
0.0
 11
0.694444
 21
4.75006
 31
0.0
  0
LINE
  8
0
 62
     0
 10
0.694444
 20
4.75006
 30
0.0
 11
0.78125
 21
5.14936
 31
0.0
  0
LINE
  8
0
 62
     0
 10
0.78125
 20
5.14936
 30
0.0
 11
0.902778
 21
5.52778
 31
0.0
  0
LINE
  8
0
 62
     0
 10
0.902778
 20
5.52778
 30
0.0
 11
1.05377
 21
5.88238
 31
0.0
  0
LINE
  8
0
 62
     0
 10
1.05377
 20
5.88238
 30
0.0
 11
1.22911
 21
6.21007
 31
0.0
  0
LINE
  8
0
 62
     0
 10
1.22911
 20
6.21007
 30
0.0
 11
1.42876
 21
6.51085
 31
0.0
  0
LINE
  8
0
 62
     0
 10
1.42876
 20
6.51085
 30
0.0
 11
1.65278
 21
6.78472
 31
0.0
  0
LINE
  8
0
 62
     0
 10
1.65278
 20
6.78472
 30
0.0
 11
1.89887
 21
7.03
 31
0.0
  0
LINE
  8
0
 62
     0
 10
1.89887
 20
7.03
 30
0.0
 11
2.16493
 21
7.24485
 31
0.0
  0
LINE
  8
0
 62
     0
 10
2.16493
 20
7.24485
 30
0.0
 11
2.45096
 21
7.42931
 31
0.0
  0
LINE
  8
0
 62
     0
 10
2.45096
 20
7.42931
 30
0.0
 11
2.75694
 21
7.58333
 31
0.0
  0
LINE
  8
0
 62
     0
 10
2.75694
 20
7.58333
 30
0.0
 11
3.07764
 21
7.70486
 31
0.0
  0
LINE
  8
0
 62
     0
 10
3.07764
 20
7.70486
 30
0.0
 11
3.40793
 21
7.79167
 31
0.0
  0
LINE
  8
0
 62
     0
 10
3.40793
 20
7.79167
 30
0.0
 11
3.74778
 21
7.84375
 31
0.0
  0
LINE
  8
0
 62
     0
 10
3.74778
 20
7.84375
 30
0.0
 11
4.09722
 21
7.86111
 31
0.0
  0
LINE
  8
0
 62
     0
 10
4.09722
 20
7.86111
 30
0.0
 11
4.46832
 21
7.84244
 31
0.0
  0
LINE
  8
0
 62
     0
 10
4.46832
 20
7.84244
 30
0.0
 11
4.8316
 21
7.78646
 31
0.0
  0
LINE
  8
0
 62
     0
 10
4.8316
 20
7.78646
 30
0.0
 11
5.18707
 21
7.69314
 31
0.0
  0
LINE
  8
0
 62
     0
 10
5.18707
 20
7.69314
 30
0.0
 11
5.53472
 21
7.5625
 31
0.0
  0
LINE
  8
0
 62
     0
 10
5.53472
 20
7.5625
 30
0.0
 11
5.86589
 21
7.39806
 31
0.0
  0
LINE
  8
0
 62
     0
 10
5.86589
 20
7.39806
 30
0.0
 11
6.17188
 21
7.20318
 31
0.0
  0
LINE
  8
0
 62
     0
 10
6.17188
 20
7.20318
 30
0.0
 11
6.45269
 21
6.97792
 31
0.0
  0
LINE
  8
0
 62
     0
 10
6.45269
 20
6.97792
 30
0.0
 11
6.70833
 21
6.72222
 31
0.0
  0
LINE
  8
0
 62
     0
 10
6.70833
 20
6.72222
 30
0.0
 11
5.875
 21
5.95833
 31
0.0
  0
LINE
  8
0
 62
     0
 10
5.875
 20
5.95833
 30
0.0
 11
5.73172
 21
6.11501
 31
0.0
  0
LINE
  8
0
 62
     0
 10
5.73172
 20
6.11501
 30
0.0
 11
5.56592
 21
6.26563
 31
0.0
  0
LINE
  8
0
 62
     0
 10
5.56592
 20
6.26563
 30
0.0
 11
5.37756
 21
6.41015
 31
0.0
  0
LINE
  8
0
 62
     0
 10
5.37756
 20
6.41015
 30
0.0
 11
5.16667
 21
6.54861
 31
0.0
  0
LINE
  8
0
 62
     0
 10
5.16667
 20
6.54861
 30
0.0
 11
4.93489
 21
6.6671
 31
0.0
  0
LINE
  8
0
 62
     0
 10
4.93489
 20
6.6671
 30
0.0
 11
4.68403
 21
6.75174
 31
0.0
  0
LINE
  8
0
 62
     0
 10
4.68403
 20
6.75174
 30
0.0
 11
4.41406
 21
6.80251
 31
0.0
  0
LINE
  8
0
 62
     0
 10
4.41406
 20
6.80251
 30
0.0
 11
4.125
 21
6.81944
 31
0.0
  0
LINE
  8
0
 62
     0
 10
4.125
 20
6.81944
 30
0.0
 11
3.86068
 21
6.80599
 31
0.0
  0
LINE
  8
0
 62
     0
 10
3.86068
 20
6.80599
 30
0.0
 11
3.60938
 21
6.76563
 31
0.0
  0
LINE
  8
0
 62
     0
 10
3.60938
 20
6.76563
 30
0.0
 11
3.3711
 21
6.69835
 31
0.0
  0
LINE
  8
0
 62
     0
 10
3.3711
 20
6.69835
 30
0.0
 11
3.14583
 21
6.60417
 31
0.0
  0
LINE
  8
0
 62
     0
 10
3.14583
 20
6.60417
 30
0.0
 11
2.93533
 21
6.48574
 31
0.0
  0
LINE
  8
0
 62
     0
 10
2.93533
 20
6.48574
 30
0.0
 11
2.74132
 21
6.34554
 31
0.0
  0
LINE
  8
0
 62
     0
 10
2.74132
 20
6.34554
 30
0.0
 11
2.56381
 21
6.18365
 31
0.0
  0
LINE
  8
0
 62
     0
 10
2.56381
 20
6.18365
 30
0.0
 11
2.40278
 21
6
 31
0.0
  0
LINE
  8
0
 62
     0
 10
2.40278
 20
6
 30
0.0
 11
2.25906
 21
5.79644
 31
0.0
  0
LINE
  8
0
 62
     0
 10
2.25906
 20
5.79644
 30
0.0
 11
2.13368
 21
5.57465
 31
0.0
  0
LINE
  8
0
 62
     0
 10
2.13368
 20
5.57465
 30
0.0
 11
2.02647
 21
5.33464
 31
0.0
  0
LINE
  8
0
 62
     0
 10
2.02647
 20
5.33464
 30
0.0
 11
1.9375
 21
5.07639
 31
0.0
  0
LINE
  8
0
 62
     0
 10
1.9375
 20
5.07639
 30
0.0
 11
1.86757
 21
4.80251
 31
0.0
  0
LINE
  8
0
 62
     0
 10
1.86757
 20
4.80251
 30
0.0
 11
1.81765
 21
4.51563
 31
0.0
  0
LINE
  8
0
 62
     0
 10
1.81765
 20
4.51563
 30
0.0
 11
1.78771
 21
4.21571
 31
0.0
  0
LINE
  8
0
 62
     0
 10
1.78771
 20
4.21571
 30
0.0
 11
1.77778
 21
3.90278
 31
0.0
  0
LINE
  8
0
 62
     0
 10
1.77778
 20
3.90278
 30
0.0
 11
1.78771
 21
3.57682
 31
0.0
  0
LINE
  8
0
 62
     0
 10
1.78771
 20
3.57682
 30
0.0
 11
1.81765
 21
3.26563
 31
0.0
  0
LINE
  8
0
 62
     0
 10
1.81765
 20
3.26563
 30
0.0
 11
1.86757
 21
2.96918
 31
0.0
  0
LINE
  8
0
 62
     0
 10
1.86757
 20
2.96918
 30
0.0
 11
1.9375
 21
2.6875
 31
0.0
  0
LINE
  8
0
 62
     0
 10
1.9375
 20
2.6875
 30
0.0
 11
2.02604
 21
2.42279
 31
0.0
  0
LINE
  8
0
 62
     0
 10
2.02604
 20
2.42279
 30
0.0
 11
2.13194
 21
2.17714
 31
0.0
  0
LINE
  8
0
 62
     0
 10
2.13194
 20
2.17714
 30
0.0
 11
2.25521
 21
1.95057
 31
0.0
  0
LINE
  8
0
 62
     0
 10
2.25521
 20
1.95057
 30
0.0
 11
2.39583
 21
1.74306
 31
0.0
  0
LINE
  8
0
 62
     0
 10
2.39583
 20
1.74306
 30
0.0
 11
2.55333
 21
1.55642
 31
0.0
  0
LINE
  8
0
 62
     0
 10
2.55333
 20
1.55642
 30
0.0
 11
2.72738
 21
1.39236
 31
0.0
  0
LINE
  8
0
 62
     0
 10
2.72738
 20
1.39236
 30
0.0
 11
2.91792
 21
1.25087
 31
0.0
  0
LINE
  8
0
 62
     0
 10
2.91792
 20
1.25087
 30
0.0
 11
3.125
 21
1.13194
 31
0.0
  0
LINE
  8
0
 62
     0
 10
3.125
 20
1.13194
 30
0.0
 11
3.34722
 21
1.03782
 31
0.0
  0
LINE
  8
0
 62
     0
 10
3.34722
 20
1.03782
 30
0.0
 11
3.58333
 21
0.97054
 31
0.0
  0
LINE
  8
0
 62
     0
 10
3.58333
 20
0.97054
 30
0.0
 11
3.83333
 21
0.930176
 31
0.0
  0
LINE
  8
0
 62
     0
 10
3.83333
 20
0.930176
 30
0.0
 11
4.09722
 21
0.916667
 31
0.0
  0
LINE
  8
0
 62
     0
 10
4.09722
 20
0.916667
 30
0.0
 11
4.40142
 21
0.930989
 31
0.0
  0
LINE
  8
0
 62
     0
 10
4.40142
 20
0.930989
 30
0.0
 11
4.68918
 21
0.973958
 31
0.0
  0
LINE
  8
0
 62
     0
 10
4.68918
 20
0.973958
 30
0.0
 11
4.96044
 21
1.04557
 31
0.0
  0
LINE
  8
0
 62
     0
 10
4.96044
 20
1.04557
 30
0.0
 11
5.21528
 21
1.14583
 31
0.0
  0
LINE
  8
0
 62
     0
 10
5.21528
 20
1.14583
 30
0.0
 11
5.44661
 21
1.26611
 31
0.0
  0
LINE
  8
0
 62
     0
 10
5.44661
 20
1.26611
 30
0.0
 11
5.64757
 21
1.39762
 31
0.0
  0
LINE
  8
0
 62
     0
 10
5.64757
 20
1.39762
 30
0.0
 11
5.81814
 21
1.54042
 31
0.0
  0
LINE
  8
0
 62
     0
 10
5.81814
 20
1.54042
 30
0.0
 11
5.95833
 21
1.69444
 31
0.0
  0
LINE
  8
0
 62
     0
 10
5.95833
 20
1.69444
 30
0.0
 11
6.76389
 21
0.888889
 31
0.0
  0
LINE
  8
0
 62
     0
 10
6.76389
 20
0.888889
 30
0.0
 11
6.58854
 21
0.717068
 31
0.0
  0
LINE
  8
0
 62
     0
 10
6.58854
 20
0.717068
 30
0.0
 11
6.39583
 21
0.562554
 31
0.0
  0
LINE
  8
0
 62
     0
 10
6.39583
 20
0.562554
 30
0.0
 11
6.18576
 21
0.425401
 31
0.0
  0
LINE
  8
0
 62
     0
 10
6.18576
 20
0.425401
 30
0.0
 11
5.95833
 21
0.305556
 31
0.0
  0
LINE
  8
0
 62
     0
 10
5.95833
 20
0.305556
 30
0.0
 11
5.46869
 21
0.111111
 31
0.0
  0
LINE
  8
0
 62
     0
 10
5.46869
 20
0.111111
 30
0.0
 11
4.94444
 21
-0.0277778
 31
0.0
  0
LINE
  8
0
 62
     0
 10
4.94444
 20
-0.0277778
 30
0.0
 11
5.02778
 21
-0.473904
 31
0.0
  0
LINE
  8
0
 62
     0
 10
5.02778
 20
-0.473904
 30
0.0
 11
5.08333
 21
-0.923611
 31
0.0
  0
LINE
  8
0
 62
     0
 10
5.08333
 20
-0.923611
 30
0.0
 11
5.09375
 21
-1.36632
 31
0.0
  0
LINE
  8
0
 62
     0
 10
5.09375
 20
-1.36632
 30
0.0
 11
5.04167
 21
-1.79167
 31
0.0
  0
LINE
  8
0
 62
     0
 10
5.04167
 20
-1.79167
 30
0.0
 11
4.98958
 21
-1.99561
 31
0.0
  0
LINE
  8
0
 62
     0
 10
4.98958
 20
-1.99561
 30
0.0
 11
4.91667
 21
-2.19092
 31
0.0
  0
LINE
  8
0
 62
     0
 10
4.91667
 20
-2.19092
 30
0.0
 11
4.82292
 21
-2.37756
 31
0.0
  0
LINE
  8
0
 62
     0
 10
4.82292
 20
-2.37756
 30
0.0
 11
4.70833
 21
-2.55556
 31
0.0
  0
LINE
  8
0
 62
     0
 10
4.70833
 20
-2.55556
 30
0.0
 11
4.56944
 21
-2.72136
 31
0.0
  0
LINE
  8
0
 62
     0
 10
4.56944
 20
-2.72136
 30
0.0
 11
4.40278
 21
-2.87153
 31
0.0
  0
LINE
  8
0
 62
     0
 10
4.40278
 20
-2.87153
 30
0.0
 11
4.20833
 21
-3.00603
 31
0.0
  0
LINE
  8
0
 62
     0
 10
4.20833
 20
-3.00603
 30
0.0
 11
3.98611
 21
-3.125
 31
0.0
  0
ENDSEC
  0
EOF
