  0
SECTION
  2
HEADER
  9
$ACADVER
  1
AC1009
  9
$EXTMIN
 10
0.0
 20
0.0
 30
0.0
  9
$EXTMAX
 10
1000.0
 20
1000.0
 30
0.0
  9
$FILLMODE
 70
 0
  9
$SPLFRAME
 70
 1
  0
ENDSEC
  0
SECTION
  2
TABLES
  0
TABLE
  2
LAYER
 70
1
  0
LAYER
  2
0
 70
     0
 62
     7
  6
CONTINUOUS
  0
ENDTAB
  0
ENDSEC
  0
SECTION
  2
ENTITIES
  0
LINE
  8
0
 62
     0
 10
1.77778
 20
5.875
 30
0.0
 11
1.80464
 21
5.3164
 31
0.0
  0
LINE
  8
0
 62
     0
 10
1.80464
 20
5.3164
 30
0.0
 11
1.88536
 21
4.80729
 31
0.0
  0
LINE
  8
0
 62
     0
 10
1.88536
 20
4.80729
 30
0.0
 11
2.01992
 21
4.34765
 31
0.0
  0
LINE
  8
0
 62
     0
 10
2.01992
 20
4.34765
 30
0.0
 11
2.20833
 21
3.9375
 31
0.0
  0
LINE
  8
0
 62
     0
 10
2.20833
 20
3.9375
 30
0.0
 11
2.32226
 21
3.75358
 31
0.0
  0
LINE
  8
0
 62
     0
 10
2.32226
 20
3.75358
 30
0.0
 11
2.44878
 21
3.58724
 31
0.0
  0
LINE
  8
0
 62
     0
 10
2.44878
 20
3.58724
 30
0.0
 11
2.58789
 21
3.43847
 31
0.0
  0
LINE
  8
0
 62
     0
 10
2.58789
 20
3.43847
 30
0.0
 11
2.73958
 21
3.30729
 31
0.0
  0
LINE
  8
0
 62
     0
 10
2.73958
 20
3.30729
 30
0.0
 11
2.90386
 21
3.19368
 31
0.0
  0
LINE
  8
0
 62
     0
 10
2.90386
 20
3.19368
 30
0.0
 11
3.08072
 21
3.09765
 31
0.0
  0
LINE
  8
0
 62
     0
 10
3.08072
 20
3.09765
 30
0.0
 11
3.27018
 21
3.01921
 31
0.0
  0
LINE
  8
0
 62
     0
 10
3.27018
 20
3.01921
 30
0.0
 11
3.47222
 21
2.95833
 31
0.0
  0
LINE
  8
0
 62
     0
 10
3.47222
 20
2.95833
 30
0.0
 11
3.47222
 21
8.70833
 31
0.0
  0
LINE
  8
0
 62
     0
 10
3.47222
 20
8.70833
 30
0.0
 11
3.27018
 21
8.64746
 31
0.0
  0
LINE
  8
0
 62
     0
 10
3.27018
 20
8.64746
 30
0.0
 11
3.08072
 21
8.56901
 31
0.0
  0
LINE
  8
0
 62
     0
 10
3.08072
 20
8.56901
 30
0.0
 11
2.90386
 21
8.47299
 31
0.0
  0
LINE
  8
0
 62
     0
 10
2.90386
 20
8.47299
 30
0.0
 11
2.73958
 21
8.35938
 31
0.0
  0
LINE
  8
0
 62
     0
 10
2.73958
 20
8.35938
 30
0.0
 11
2.58789
 21
8.22819
 31
0.0
  0
LINE
  8
0
 62
     0
 10
2.58789
 20
8.22819
 30
0.0
 11
2.44878
 21
8.07943
 31
0.0
  0
LINE
  8
0
 62
     0
 10
2.44878
 20
8.07943
 30
0.0
 11
2.32226
 21
7.91308
 31
0.0
  0
LINE
  8
0
 62
     0
 10
2.32226
 20
7.91308
 30
0.0
 11
2.20833
 21
7.72917
 31
0.0
  0
LINE
  8
0
 62
     0
 10
2.20833
 20
7.72917
 30
0.0
 11
2.01992
 21
7.32422
 31
0.0
  0
LINE
  8
0
 62
     0
 10
2.01992
 20
7.32422
 30
0.0
 11
1.88536
 21
6.88021
 31
0.0
  0
LINE
  8
0
 62
     0
 10
1.88536
 20
6.88021
 30
0.0
 11
1.80464
 21
6.39714
 31
0.0
  0
LINE
  8
0
 62
     0
 10
1.80464
 20
6.39714
 30
0.0
 11
1.77778
 21
5.875
 31
0.0
  0
LINE
  8
0
 62
     0
 10
4.31944
 20
-0
 30
0.0
 11
3.47222
 21
-0
 31
0.0
  0
LINE
  8
0
 62
     0
 10
3.47222
 20
-0
 30
0.0
 11
3.47222
 21
1.90278
 31
0.0
  0
LINE
  8
0
 62
     0
 10
3.47222
 20
1.90278
 30
0.0
 11
3.11637
 21
1.95779
 31
0.0
  0
LINE
  8
0
 62
     0
 10
3.11637
 20
1.95779
 30
0.0
 11
2.7851
 21
2.0395
 31
0.0
  0
LINE
  8
0
 62
     0
 10
2.7851
 20
2.0395
 30
0.0
 11
2.47835
 21
2.14789
 31
0.0
  0
LINE
  8
0
 62
     0
 10
2.47835
 20
2.14789
 30
0.0
 11
2.19613
 21
2.28299
 31
0.0
  0
LINE
  8
0
 62
     0
 10
2.19613
 20
2.28299
 30
0.0
 11
1.93842
 21
2.44476
 31
0.0
  0
LINE
  8
0
 62
     0
 10
1.93842
 20
2.44476
 30
0.0
 11
1.70524
 21
2.63325
 31
0.0
  0
LINE
  8
0
 62
     0
 10
1.70524
 20
2.63325
 30
0.0
 11
1.49658
 21
2.84842
 31
0.0
  0
LINE
  8
0
 62
     0
 10
1.49658
 20
2.84842
 30
0.0
 11
1.3125
 21
3.09028
 31
0.0
  0
LINE
  8
0
 62
     0
 10
1.3125
 20
3.09028
 30
0.0
 11
1.15137
 21
3.35688
 31
0.0
  0
LINE
  8
0
 62
     0
 10
1.15137
 20
3.35688
 30
0.0
 11
1.01172
 21
3.64626
 31
0.0
  0
LINE
  8
0
 62
     0
 10
1.01172
 20
3.64626
 30
0.0
 11
0.893554
 21
3.95844
 31
0.0
  0
LINE
  8
0
 62
     0
 10
0.893554
 20
3.95844
 30
0.0
 11
0.796875
 21
4.2934
 31
0.0
  0
LINE
  8
0
 62
     0
 10
0.796875
 20
4.2934
 30
0.0
 11
0.721679
 21
4.65115
 31
0.0
  0
LINE
  8
0
 62
     0
 10
0.721679
 20
4.65115
 30
0.0
 11
0.667969
 21
5.03168
 31
0.0
  0
LINE
  8
0
 62
     0
 10
0.667969
 20
5.03168
 30
0.0
 11
0.635742
 21
5.435
 31
0.0
  0
LINE
  8
0
 62
     0
 10
0.635742
 20
5.435
 30
0.0
 11
0.625
 21
5.86111
 31
0.0
  0
LINE
  8
0
 62
     0
 10
0.625
 20
5.86111
 30
0.0
 11
0.638456
 21
6.25613
 31
0.0
  0
LINE
  8
0
 62
     0
 10
0.638456
 20
6.25613
 30
0.0
 11
0.678819
 21
6.63542
 31
0.0
  0
LINE
  8
0
 62
     0
 10
0.678819
 20
6.63542
 30
0.0
 11
0.746094
 21
6.99914
 31
0.0
  0
LINE
  8
0
 62
     0
 10
0.746094
 20
6.99914
 30
0.0
 11
0.840278
 21
7.34722
 31
0.0
  0
LINE
  8
0
 62
     0
 10
0.840278
 20
7.34722
 30
0.0
 11
0.958279
 21
7.67671
 31
0.0
  0
LINE
  8
0
 62
     0
 10
0.958279
 20
7.67671
 30
0.0
 11
1.09722
 21
7.98443
 31
0.0
  0
LINE
  8
0
 62
     0
 10
1.09722
 20
7.98443
 30
0.0
 11
1.25694
 21
8.27046
 31
0.0
  0
LINE
  8
0
 62
     0
 10
1.25694
 20
8.27046
 30
0.0
 11
1.4375
 21
8.53472
 31
0.0
  0
LINE
  8
0
 62
     0
 10
1.4375
 20
8.53472
 30
0.0
 11
1.6371
 21
8.77647
 31
0.0
  0
LINE
  8
0
 62
     0
 10
1.6371
 20
8.77647
 30
0.0
 11
1.85411
 21
8.99479
 31
0.0
  0
LINE
  8
0
 62
     0
 10
1.85411
 20
8.99479
 30
0.0
 11
2.08849
 21
9.18972
 31
0.0
  0
LINE
  8
0
 62
     0
 10
2.08849
 20
9.18972
 30
0.0
 11
2.34028
 21
9.36111
 31
0.0
  0
LINE
  8
0
 62
     0
 10
2.34028
 20
9.36111
 30
0.0
 11
2.60633
 21
9.50694
 31
0.0
  0
LINE
  8
0
 62
     0
 10
2.60633
 20
9.50694
 30
0.0
 11
2.88368
 21
9.625
 31
0.0
  0
LINE
  8
0
 62
     0
 10
2.88368
 20
9.625
 30
0.0
 11
3.17231
 21
9.71528
 31
0.0
  0
LINE
  8
0
 62
     0
 10
3.17231
 20
9.71528
 30
0.0
 11
3.47222
 21
9.77778
 31
0.0
  0
LINE
  8
0
 62
     0
 10
3.47222
 20
9.77778
 30
0.0
 11
3.47222
 21
11.2222
 31
0.0
  0
LINE
  8
0
 62
     0
 10
3.47222
 20
11.2222
 30
0.0
 11
4.31944
 21
11.2222
 31
0.0
  0
LINE
  8
0
 62
     0
 10
4.31944
 20
11.2222
 30
0.0
 11
4.31944
 21
9.81944
 31
0.0
  0
LINE
  8
0
 62
     0
 10
4.31944
 20
9.81944
 30
0.0
 11
4.64669
 21
9.77692
 31
0.0
  0
LINE
  8
0
 62
     0
 10
4.64669
 20
9.77692
 30
0.0
 11
4.96181
 21
9.70486
 31
0.0
  0
LINE
  8
0
 62
     0
 10
4.96181
 20
9.70486
 30
0.0
 11
5.26475
 21
9.60331
 31
0.0
  0
LINE
  8
0
 62
     0
 10
5.26475
 20
9.60331
 30
0.0
 11
5.55556
 21
9.47222
 31
0.0
  0
LINE
  8
0
 62
     0
 10
5.55556
 20
9.47222
 30
0.0
 11
5.83247
 21
9.31424
 31
0.0
  0
LINE
  8
0
 62
     0
 10
5.83247
 20
9.31424
 30
0.0
 11
6.09375
 21
9.13194
 31
0.0
  0
LINE
  8
0
 62
     0
 10
6.09375
 20
9.13194
 30
0.0
 11
6.33942
 21
8.92535
 31
0.0
  0
LINE
  8
0
 62
     0
 10
6.33942
 20
8.92535
 30
0.0
 11
6.56944
 21
8.69444
 31
0.0
  0
LINE
  8
0
 62
     0
 10
6.56944
 20
8.69444
 30
0.0
 11
5.73611
 21
7.93056
 31
0.0
  0
LINE
  8
0
 62
     0
 10
5.73611
 20
7.93056
 30
0.0
 11
5.47222
 21
8.19965
 31
0.0
  0
LINE
  8
0
 62
     0
 10
5.47222
 20
8.19965
 30
0.0
 11
5.15278
 21
8.45139
 31
0.0
  0
LINE
  8
0
 62
     0
 10
5.15278
 20
8.45139
 30
0.0
 11
4.97043
 21
8.56213
 31
0.0
  0
LINE
  8
0
 62
     0
 10
4.97043
 20
8.56213
 30
0.0
 11
4.77078
 21
8.6511
 31
0.0
  0
LINE
  8
0
 62
     0
 10
4.77078
 20
8.6511
 30
0.0
 11
4.55376
 21
8.71838
 31
0.0
  0
LINE
  8
0
 62
     0
 10
4.55376
 20
8.71838
 30
0.0
 11
4.31944
 21
8.76389
 31
0.0
  0
LINE
  8
0
 62
     0
 10
4.31944
 20
8.76389
 30
0.0
 11
4.31944
 21
2.90278
 31
0.0
  0
LINE
  8
0
 62
     0
 10
4.31944
 20
2.90278
 30
0.0
 11
4.56244
 21
2.9406
 31
0.0
  0
LINE
  8
0
 62
     0
 10
4.56244
 20
2.9406
 30
0.0
 11
4.79161
 21
2.99832
 31
0.0
  0
LINE
  8
0
 62
     0
 10
4.79161
 20
2.99832
 30
0.0
 11
5.00689
 21
3.07601
 31
0.0
  0
LINE
  8
0
 62
     0
 10
5.00689
 20
3.07601
 30
0.0
 11
5.20833
 21
3.17361
 31
0.0
  0
LINE
  8
0
 62
     0
 10
5.20833
 20
3.17361
 30
0.0
 11
5.39236
 21
3.28515
 31
0.0
  0
LINE
  8
0
 62
     0
 10
5.39236
 20
3.28515
 30
0.0
 11
5.55556
 21
3.40451
 31
0.0
  0
LINE
  8
0
 62
     0
 10
5.55556
 20
3.40451
 30
0.0
 11
5.69786
 21
3.53174
 31
0.0
  0
LINE
  8
0
 62
     0
 10
5.69786
 20
3.53174
 30
0.0
 11
5.81944
 21
3.66667
 31
0.0
  0
LINE
  8
0
 62
     0
 10
5.81944
 20
3.66667
 30
0.0
 11
6.625
 21
2.86111
 31
0.0
  0
LINE
  8
0
 62
     0
 10
6.625
 20
2.86111
 30
0.0
 11
6.40446
 21
2.64546
 31
0.0
  0
LINE
  8
0
 62
     0
 10
6.40446
 20
2.64546
 30
0.0
 11
6.15967
 21
2.45665
 31
0.0
  0
LINE
  8
0
 62
     0
 10
6.15967
 20
2.45665
 30
0.0
 11
5.89057
 21
2.29476
 31
0.0
  0
LINE
  8
0
 62
     0
 10
5.89057
 20
2.29476
 30
0.0
 11
5.59722
 21
2.15972
 31
0.0
  0
LINE
  8
0
 62
     0
 10
5.59722
 20
2.15972
 30
0.0
 11
5.28819
 21
2.05078
 31
0.0
  0
LINE
  8
0
 62
     0
 10
5.28819
 20
2.05078
 30
0.0
 11
4.97222
 21
1.96701
 31
0.0
  0
LINE
  8
0
 62
     0
 10
4.97222
 20
1.96701
 30
0.0
 11
4.64931
 21
1.90842
 31
0.0
  0
LINE
  8
0
 62
     0
 10
4.64931
 20
1.90842
 30
0.0
 11
4.31944
 21
1.875
 31
0.0
  0
LINE
  8
0
 62
     0
 10
4.31944
 20
1.875
 30
0.0
 11
4.31944
 21
-0
 31
0.0
  0
ENDSEC
  0
EOF
