  0
SECTION
  2
HEADER
  9
$ACADVER
  1
AC1009
  9
$EXTMIN
 10
0.0
 20
0.0
 30
0.0
  9
$EXTMAX
 10
1000.0
 20
1000.0
 30
0.0
  9
$FILLMODE
 70
 0
  9
$SPLFRAME
 70
 1
  0
ENDSEC
  0
SECTION
  2
TABLES
  0
TABLE
  2
LAYER
 70
1
  0
LAYER
  2
0
 70
     0
 62
     7
  6
CONTINUOUS
  0
ENDTAB
  0
ENDSEC
  0
SECTION
  2
ENTITIES
  0
LINE
  8
0
 62
     0
 10
7.88889
 20
2.98611
 30
0.0
 11
7.71744
 21
2.81776
 31
0.0
  0
LINE
  8
0
 62
     0
 10
7.71744
 20
2.81776
 30
0.0
 11
7.52257
 21
2.67367
 31
0.0
  0
LINE
  8
0
 62
     0
 10
7.52257
 20
2.67367
 30
0.0
 11
7.30419
 21
2.55387
 31
0.0
  0
LINE
  8
0
 62
     0
 10
7.30419
 20
2.55387
 30
0.0
 11
7.0625
 21
2.45833
 31
0.0
  0
LINE
  8
0
 62
     0
 10
7.0625
 20
2.45833
 30
0.0
 11
6.55035
 21
2.33333
 31
0.0
  0
LINE
  8
0
 62
     0
 10
6.55035
 20
2.33333
 30
0.0
 11
6.02778
 21
2.29167
 31
0.0
  0
LINE
  8
0
 62
     0
 10
6.02778
 20
2.29167
 30
0.0
 11
5.73172
 21
2.30306
 31
0.0
  0
LINE
  8
0
 62
     0
 10
5.73172
 20
2.30306
 30
0.0
 11
5.45481
 21
2.33724
 31
0.0
  0
LINE
  8
0
 62
     0
 10
5.45481
 20
2.33724
 30
0.0
 11
5.197
 21
2.39421
 31
0.0
  0
LINE
  8
0
 62
     0
 10
5.197
 20
2.39421
 30
0.0
 11
4.95828
 21
2.47396
 31
0.0
  0
LINE
  8
0
 62
     0
 10
4.95828
 20
2.47396
 30
0.0
 11
4.73867
 21
2.5765
 31
0.0
  0
LINE
  8
0
 62
     0
 10
4.73867
 20
2.5765
 30
0.0
 11
4.53814
 21
2.70182
 31
0.0
  0
LINE
  8
0
 62
     0
 10
4.53814
 20
2.70182
 30
0.0
 11
4.35672
 21
2.84993
 31
0.0
  0
LINE
  8
0
 62
     0
 10
4.35672
 20
2.84993
 30
0.0
 11
4.19444
 21
3.02083
 31
0.0
  0
LINE
  8
0
 62
     0
 10
4.19444
 20
3.02083
 30
0.0
 11
4.05122
 21
3.21257
 31
0.0
  0
LINE
  8
0
 62
     0
 10
4.05122
 20
3.21257
 30
0.0
 11
3.92708
 21
3.42318
 31
0.0
  0
LINE
  8
0
 62
     0
 10
3.92708
 20
3.42318
 30
0.0
 11
3.82206
 21
3.65267
 31
0.0
  0
LINE
  8
0
 62
     0
 10
3.82206
 20
3.65267
 30
0.0
 11
3.73611
 21
3.90104
 31
0.0
  0
LINE
  8
0
 62
     0
 10
3.73611
 20
3.90104
 30
0.0
 11
3.66928
 21
4.16829
 31
0.0
  0
LINE
  8
0
 62
     0
 10
3.66928
 20
4.16829
 30
0.0
 11
3.62153
 21
4.45443
 31
0.0
  0
LINE
  8
0
 62
     0
 10
3.62153
 20
4.45443
 30
0.0
 11
3.59289
 21
4.75944
 31
0.0
  0
LINE
  8
0
 62
     0
 10
3.59289
 20
4.75944
 30
0.0
 11
3.58333
 21
5.08333
 31
0.0
  0
LINE
  8
0
 62
     0
 10
3.58333
 20
5.08333
 30
0.0
 11
3.59549
 21
5.39501
 31
0.0
  0
LINE
  8
0
 62
     0
 10
3.59549
 20
5.39501
 30
0.0
 11
3.63194
 21
5.69097
 31
0.0
  0
LINE
  8
0
 62
     0
 10
3.63194
 20
5.69097
 30
0.0
 11
3.69271
 21
5.97136
 31
0.0
  0
LINE
  8
0
 62
     0
 10
3.69271
 20
5.97136
 30
0.0
 11
3.77778
 21
6.23611
 31
0.0
  0
LINE
  8
0
 62
     0
 10
3.77778
 20
6.23611
 30
0.0
 11
3.88363
 21
6.48356
 31
0.0
  0
LINE
  8
0
 62
     0
 10
3.88363
 20
6.48356
 30
0.0
 11
4.00689
 21
6.71186
 31
0.0
  0
LINE
  8
0
 62
     0
 10
4.00689
 20
6.71186
 30
0.0
 11
4.14751
 21
6.92106
 31
0.0
  0
LINE
  8
0
 62
     0
 10
4.14751
 20
6.92106
 30
0.0
 11
4.30556
 21
7.11111
 31
0.0
  0
LINE
  8
0
 62
     0
 10
4.30556
 20
7.11111
 30
0.0
 11
4.47917
 21
7.28168
 31
0.0
  0
LINE
  8
0
 62
     0
 10
4.47917
 20
7.28168
 30
0.0
 11
4.66667
 21
7.43229
 31
0.0
  0
LINE
  8
0
 62
     0
 10
4.66667
 20
7.43229
 30
0.0
 11
4.86806
 21
7.56293
 31
0.0
  0
LINE
  8
0
 62
     0
 10
4.86806
 20
7.56293
 30
0.0
 11
5.08333
 21
7.67361
 31
0.0
  0
LINE
  8
0
 62
     0
 10
5.08333
 20
7.67361
 30
0.0
 11
5.30897
 21
7.76178
 31
0.0
  0
LINE
  8
0
 62
     0
 10
5.30897
 20
7.76178
 30
0.0
 11
5.54161
 21
7.82471
 31
0.0
  0
LINE
  8
0
 62
     0
 10
5.54161
 20
7.82471
 30
0.0
 11
5.78119
 21
7.86247
 31
0.0
  0
LINE
  8
0
 62
     0
 10
5.78119
 20
7.86247
 30
0.0
 11
6.02778
 21
7.875
 31
0.0
  0
LINE
  8
0
 62
     0
 10
6.02778
 20
7.875
 30
0.0
 11
6.28906
 21
7.86197
 31
0.0
  0
LINE
  8
0
 62
     0
 10
6.28906
 20
7.86197
 30
0.0
 11
6.54514
 21
7.82292
 31
0.0
  0
LINE
  8
0
 62
     0
 10
6.54514
 20
7.82292
 30
0.0
 11
6.796
 21
7.75781
 31
0.0
  0
LINE
  8
0
 62
     0
 10
6.796
 20
7.75781
 30
0.0
 11
7.04167
 21
7.66667
 31
0.0
  0
LINE
  8
0
 62
     0
 10
7.04167
 20
7.66667
 30
0.0
 11
7.27425
 21
7.55126
 31
0.0
  0
LINE
  8
0
 62
     0
 10
7.27425
 20
7.55126
 30
0.0
 11
7.48611
 21
7.41325
 31
0.0
  0
LINE
  8
0
 62
     0
 10
7.48611
 20
7.41325
 30
0.0
 11
7.67708
 21
7.25265
 31
0.0
  0
LINE
  8
0
 62
     0
 10
7.67708
 20
7.25265
 30
0.0
 11
7.84722
 21
7.06944
 31
0.0
  0
LINE
  8
0
 62
     0
 10
7.84722
 20
7.06944
 30
0.0
 11
7.27778
 21
6.52778
 31
0.0
  0
LINE
  8
0
 62
     0
 10
7.27778
 20
6.52778
 30
0.0
 11
7.05376
 21
6.75174
 31
0.0
  0
LINE
  8
0
 62
     0
 10
7.05376
 20
6.75174
 30
0.0
 11
6.77083
 21
6.95139
 31
0.0
  0
LINE
  8
0
 62
     0
 10
6.77083
 20
6.95139
 30
0.0
 11
6.60889
 21
7.03342
 31
0.0
  0
LINE
  8
0
 62
     0
 10
6.60889
 20
7.03342
 30
0.0
 11
6.43571
 21
7.09201
 31
0.0
  0
LINE
  8
0
 62
     0
 10
6.43571
 20
7.09201
 30
0.0
 11
6.25125
 21
7.12717
 31
0.0
  0
LINE
  8
0
 62
     0
 10
6.25125
 20
7.12717
 30
0.0
 11
6.05556
 21
7.13889
 31
0.0
  0
LINE
  8
0
 62
     0
 10
6.05556
 20
7.13889
 30
0.0
 11
5.86328
 21
7.12999
 31
0.0
  0
LINE
  8
0
 62
     0
 10
5.86328
 20
7.12999
 30
0.0
 11
5.68229
 21
7.10331
 31
0.0
  0
LINE
  8
0
 62
     0
 10
5.68229
 20
7.10331
 30
0.0
 11
5.51258
 21
7.05881
 31
0.0
  0
LINE
  8
0
 62
     0
 10
5.51258
 20
7.05881
 30
0.0
 11
5.35417
 21
6.99653
 31
0.0
  0
LINE
  8
0
 62
     0
 10
5.35417
 20
6.99653
 30
0.0
 11
5.20703
 21
6.91644
 31
0.0
  0
LINE
  8
0
 62
     0
 10
5.20703
 20
6.91644
 30
0.0
 11
5.07118
 21
6.81858
 31
0.0
  0
LINE
  8
0
 62
     0
 10
5.07118
 20
6.81858
 30
0.0
 11
4.94661
 21
6.7029
 31
0.0
  0
LINE
  8
0
 62
     0
 10
4.94661
 20
6.7029
 30
0.0
 11
4.83333
 21
6.56944
 31
0.0
  0
LINE
  8
0
 62
     0
 10
4.83333
 20
6.56944
 30
0.0
 11
4.64492
 21
6.26307
 31
0.0
  0
LINE
  8
0
 62
     0
 10
4.64492
 20
6.26307
 30
0.0
 11
4.51036
 21
5.91325
 31
0.0
  0
LINE
  8
0
 62
     0
 10
4.51036
 20
5.91325
 30
0.0
 11
4.42964
 21
5.52001
 31
0.0
  0
LINE
  8
0
 62
     0
 10
4.42964
 20
5.52001
 30
0.0
 11
4.40278
 21
5.08333
 31
0.0
  0
LINE
  8
0
 62
     0
 10
4.40278
 20
5.08333
 30
0.0
 11
4.42964
 21
4.64583
 31
0.0
  0
LINE
  8
0
 62
     0
 10
4.42964
 20
4.64583
 30
0.0
 11
4.51036
 21
4.25
 31
0.0
  0
LINE
  8
0
 62
     0
 10
4.51036
 20
4.25
 30
0.0
 11
4.64492
 21
3.89583
 31
0.0
  0
LINE
  8
0
 62
     0
 10
4.64492
 20
3.89583
 30
0.0
 11
4.83333
 21
3.58333
 31
0.0
  0
LINE
  8
0
 62
     0
 10
4.83333
 20
3.58333
 30
0.0
 11
4.94618
 21
3.44661
 31
0.0
  0
LINE
  8
0
 62
     0
 10
4.94618
 20
3.44661
 30
0.0
 11
5.06944
 21
3.32813
 31
0.0
  0
LINE
  8
0
 62
     0
 10
5.06944
 20
3.32813
 30
0.0
 11
5.20313
 21
3.22786
 31
0.0
  0
LINE
  8
0
 62
     0
 10
5.20313
 20
3.22786
 30
0.0
 11
5.34722
 21
3.14583
 31
0.0
  0
LINE
  8
0
 62
     0
 10
5.34722
 20
3.14583
 30
0.0
 11
5.50168
 21
3.08203
 31
0.0
  0
LINE
  8
0
 62
     0
 10
5.50168
 20
3.08203
 30
0.0
 11
5.66661
 21
3.03646
 31
0.0
  0
LINE
  8
0
 62
     0
 10
5.66661
 20
3.03646
 30
0.0
 11
5.84196
 21
3.00911
 31
0.0
  0
LINE
  8
0
 62
     0
 10
5.84196
 20
3.00911
 30
0.0
 11
6.02778
 21
3
 31
0.0
  0
LINE
  8
0
 62
     0
 10
6.02778
 20
3
 30
0.0
 11
6.23221
 21
3.00999
 31
0.0
  0
LINE
  8
0
 62
     0
 10
6.23221
 20
3.00999
 30
0.0
 11
6.42882
 21
3.03993
 31
0.0
  0
LINE
  8
0
 62
     0
 10
6.42882
 20
3.03993
 30
0.0
 11
6.61762
 21
3.08985
 31
0.0
  0
LINE
  8
0
 62
     0
 10
6.61762
 20
3.08985
 30
0.0
 11
6.79861
 21
3.15972
 31
0.0
  0
LINE
  8
0
 62
     0
 10
6.79861
 20
3.15972
 30
0.0
 11
6.96485
 21
3.24442
 31
0.0
  0
LINE
  8
0
 62
     0
 10
6.96485
 20
3.24442
 30
0.0
 11
7.10938
 21
3.3386
 31
0.0
  0
LINE
  8
0
 62
     0
 10
7.10938
 20
3.3386
 30
0.0
 11
7.23221
 21
3.44233
 31
0.0
  0
LINE
  8
0
 62
     0
 10
7.23221
 20
3.44233
 30
0.0
 11
7.33333
 21
3.55556
 31
0.0
  0
LINE
  8
0
 62
     0
 10
7.33333
 20
3.55556
 30
0.0
 11
7.88889
 21
2.98611
 31
0.0
  0
LINE
  8
0
 62
     0
 10
5.90278
 20
0.847222
 30
0.0
 11
6.33376
 21
0.867622
 31
0.0
  0
LINE
  8
0
 62
     0
 10
6.33376
 20
0.867622
 30
0.0
 11
6.75174
 21
0.928819
 31
0.0
  0
LINE
  8
0
 62
     0
 10
6.75174
 20
0.928819
 30
0.0
 11
7.15668
 21
1.03082
 31
0.0
  0
LINE
  8
0
 62
     0
 10
7.15668
 20
1.03082
 30
0.0
 11
7.54861
 21
1.17361
 31
0.0
  0
LINE
  8
0
 62
     0
 10
7.54861
 20
1.17361
 30
0.0
 11
7.92182
 21
1.35248
 31
0.0
  0
LINE
  8
0
 62
     0
 10
7.92182
 20
1.35248
 30
0.0
 11
8.27078
 21
1.5625
 31
0.0
  0
LINE
  8
0
 62
     0
 10
8.27078
 20
1.5625
 30
0.0
 11
8.59543
 21
1.80382
 31
0.0
  0
LINE
  8
0
 62
     0
 10
8.59543
 20
1.80382
 30
0.0
 11
8.89583
 21
2.07639
 31
0.0
  0
LINE
  8
0
 62
     0
 10
8.89583
 20
2.07639
 30
0.0
 11
9.1684
 21
2.37679
 31
0.0
  0
LINE
  8
0
 62
     0
 10
9.1684
 20
2.37679
 30
0.0
 11
9.40972
 21
2.70144
 31
0.0
  0
LINE
  8
0
 62
     0
 10
9.40972
 20
2.70144
 30
0.0
 11
9.61979
 21
3.0504
 31
0.0
  0
LINE
  8
0
 62
     0
 10
9.61979
 20
3.0504
 30
0.0
 11
9.79861
 21
3.42361
 31
0.0
  0
LINE
  8
0
 62
     0
 10
9.79861
 20
3.42361
 30
0.0
 11
9.9414
 21
3.81554
 31
0.0
  0
LINE
  8
0
 62
     0
 10
9.9414
 20
3.81554
 30
0.0
 11
10.0434
 21
4.22049
 31
0.0
  0
LINE
  8
0
 62
     0
 10
10.0434
 20
4.22049
 30
0.0
 11
10.1046
 21
4.63846
 31
0.0
  0
LINE
  8
0
 62
     0
 10
10.1046
 20
4.63846
 30
0.0
 11
10.125
 21
5.06944
 31
0.0
  0
LINE
  8
0
 62
     0
 10
10.125
 20
5.06944
 30
0.0
 11
10.1046
 21
5.50043
 31
0.0
  0
LINE
  8
0
 62
     0
 10
10.1046
 20
5.50043
 30
0.0
 11
10.0434
 21
5.9184
 31
0.0
  0
LINE
  8
0
 62
     0
 10
10.0434
 20
5.9184
 30
0.0
 11
9.9414
 21
6.32335
 31
0.0
  0
LINE
  8
0
 62
     0
 10
9.9414
 20
6.32335
 30
0.0
 11
9.79861
 21
6.71528
 31
0.0
  0
LINE
  8
0
 62
     0
 10
9.79861
 20
6.71528
 30
0.0
 11
9.61974
 21
7.08854
 31
0.0
  0
LINE
  8
0
 62
     0
 10
9.61974
 20
7.08854
 30
0.0
 11
9.40972
 21
7.4375
 31
0.0
  0
LINE
  8
0
 62
     0
 10
9.40972
 20
7.4375
 30
0.0
 11
9.1684
 21
7.76215
 31
0.0
  0
LINE
  8
0
 62
     0
 10
9.1684
 20
7.76215
 30
0.0
 11
8.89583
 21
8.0625
 31
0.0
  0
LINE
  8
0
 62
     0
 10
8.89583
 20
8.0625
 30
0.0
 11
8.59543
 21
8.33513
 31
0.0
  0
LINE
  8
0
 62
     0
 10
8.59543
 20
8.33513
 30
0.0
 11
8.27078
 21
8.57644
 31
0.0
  0
LINE
  8
0
 62
     0
 10
8.27078
 20
8.57644
 30
0.0
 11
7.92182
 21
8.78651
 31
0.0
  0
LINE
  8
0
 62
     0
 10
7.92182
 20
8.78651
 30
0.0
 11
7.54861
 21
8.96528
 31
0.0
  0
LINE
  8
0
 62
     0
 10
7.54861
 20
8.96528
 30
0.0
 11
7.15668
 21
9.10812
 31
0.0
  0
LINE
  8
0
 62
     0
 10
7.15668
 20
9.10812
 30
0.0
 11
6.75174
 21
9.21013
 31
0.0
  0
LINE
  8
0
 62
     0
 10
6.75174
 20
9.21013
 30
0.0
 11
6.33376
 21
9.27132
 31
0.0
  0
LINE
  8
0
 62
     0
 10
6.33376
 20
9.27132
 30
0.0
 11
5.90278
 21
9.29167
 31
0.0
  0
LINE
  8
0
 62
     0
 10
5.90278
 20
9.29167
 30
0.0
 11
5.47179
 21
9.27132
 31
0.0
  0
LINE
  8
0
 62
     0
 10
5.47179
 20
9.27132
 30
0.0
 11
5.05382
 21
9.21013
 31
0.0
  0
LINE
  8
0
 62
     0
 10
5.05382
 20
9.21013
 30
0.0
 11
4.64887
 21
9.10812
 31
0.0
  0
LINE
  8
0
 62
     0
 10
4.64887
 20
9.10812
 30
0.0
 11
4.25694
 21
8.96528
 31
0.0
  0
LINE
  8
0
 62
     0
 10
4.25694
 20
8.96528
 30
0.0
 11
3.88368
 21
8.78646
 31
0.0
  0
LINE
  8
0
 62
     0
 10
3.88368
 20
8.78646
 30
0.0
 11
3.53472
 21
8.57639
 31
0.0
  0
LINE
  8
0
 62
     0
 10
3.53472
 20
8.57639
 30
0.0
 11
3.21007
 21
8.33513
 31
0.0
  0
LINE
  8
0
 62
     0
 10
3.21007
 20
8.33513
 30
0.0
 11
2.90972
 21
8.0625
 31
0.0
  0
LINE
  8
0
 62
     0
 10
2.90972
 20
8.0625
 30
0.0
 11
2.6371
 21
7.76215
 31
0.0
  0
LINE
  8
0
 62
     0
 10
2.6371
 20
7.76215
 30
0.0
 11
2.39583
 21
7.4375
 31
0.0
  0
LINE
  8
0
 62
     0
 10
2.39583
 20
7.4375
 30
0.0
 11
2.18576
 21
7.08854
 31
0.0
  0
LINE
  8
0
 62
     0
 10
2.18576
 20
7.08854
 30
0.0
 11
2.00694
 21
6.71528
 31
0.0
  0
LINE
  8
0
 62
     0
 10
2.00694
 20
6.71528
 30
0.0
 11
1.8641
 21
6.32335
 31
0.0
  0
LINE
  8
0
 62
     0
 10
1.8641
 20
6.32335
 30
0.0
 11
1.7621
 21
5.9184
 31
0.0
  0
LINE
  8
0
 62
     0
 10
1.7621
 20
5.9184
 30
0.0
 11
1.7009
 21
5.50043
 31
0.0
  0
LINE
  8
0
 62
     0
 10
1.7009
 20
5.50043
 30
0.0
 11
1.68056
 21
5.06944
 31
0.0
  0
LINE
  8
0
 62
     0
 10
1.68056
 20
5.06944
 30
0.0
 11
1.7009
 21
4.63846
 31
0.0
  0
LINE
  8
0
 62
     0
 10
1.7009
 20
4.63846
 30
0.0
 11
1.7621
 21
4.22049
 31
0.0
  0
LINE
  8
0
 62
     0
 10
1.7621
 20
4.22049
 30
0.0
 11
1.8641
 21
3.81554
 31
0.0
  0
LINE
  8
0
 62
     0
 10
1.8641
 20
3.81554
 30
0.0
 11
2.00694
 21
3.42361
 31
0.0
  0
LINE
  8
0
 62
     0
 10
2.00694
 20
3.42361
 30
0.0
 11
2.18576
 21
3.0504
 31
0.0
  0
LINE
  8
0
 62
     0
 10
2.18576
 20
3.0504
 30
0.0
 11
2.39583
 21
2.70144
 31
0.0
  0
LINE
  8
0
 62
     0
 10
2.39583
 20
2.70144
 30
0.0
 11
2.6371
 21
2.37679
 31
0.0
  0
LINE
  8
0
 62
     0
 10
2.6371
 20
2.37679
 30
0.0
 11
2.90972
 21
2.07639
 31
0.0
  0
LINE
  8
0
 62
     0
 10
2.90972
 20
2.07639
 30
0.0
 11
3.21007
 21
1.80382
 31
0.0
  0
LINE
  8
0
 62
     0
 10
3.21007
 20
1.80382
 30
0.0
 11
3.53472
 21
1.5625
 31
0.0
  0
LINE
  8
0
 62
     0
 10
3.53472
 20
1.5625
 30
0.0
 11
3.88368
 21
1.35248
 31
0.0
  0
LINE
  8
0
 62
     0
 10
3.88368
 20
1.35248
 30
0.0
 11
4.25694
 21
1.17361
 31
0.0
  0
LINE
  8
0
 62
     0
 10
4.25694
 20
1.17361
 30
0.0
 11
4.64887
 21
1.03082
 31
0.0
  0
LINE
  8
0
 62
     0
 10
4.64887
 20
1.03082
 30
0.0
 11
5.05382
 21
0.928819
 31
0.0
  0
LINE
  8
0
 62
     0
 10
5.05382
 20
0.928819
 30
0.0
 11
5.47179
 21
0.867622
 31
0.0
  0
LINE
  8
0
 62
     0
 10
5.47179
 20
0.867622
 30
0.0
 11
5.90278
 21
0.847222
 31
0.0
  0
LINE
  8
0
 62
     0
 10
5.90278
 20
10.1389
 30
0.0
 11
6.42231
 21
10.1142
 31
0.0
  0
LINE
  8
0
 62
     0
 10
6.42231
 20
10.1142
 30
0.0
 11
6.92535
 21
10.0399
 31
0.0
  0
LINE
  8
0
 62
     0
 10
6.92535
 20
10.0399
 30
0.0
 11
7.41189
 21
9.91624
 31
0.0
  0
LINE
  8
0
 62
     0
 10
7.41189
 20
9.91624
 30
0.0
 11
7.88194
 21
9.74306
 31
0.0
  0
LINE
  8
0
 62
     0
 10
7.88194
 20
9.74306
 30
0.0
 11
8.32894
 21
9.52692
 31
0.0
  0
LINE
  8
0
 62
     0
 10
8.32894
 20
9.52692
 30
0.0
 11
8.74647
 21
9.27431
 31
0.0
  0
LINE
  8
0
 62
     0
 10
8.74647
 20
9.27431
 30
0.0
 11
9.1345
 21
8.98525
 31
0.0
  0
LINE
  8
0
 62
     0
 10
9.1345
 20
8.98525
 30
0.0
 11
9.49306
 21
8.65972
 31
0.0
  0
LINE
  8
0
 62
     0
 10
9.49306
 20
8.65972
 30
0.0
 11
9.81858
 21
8.30122
 31
0.0
  0
LINE
  8
0
 62
     0
 10
9.81858
 20
8.30122
 30
0.0
 11
10.1076
 21
7.91319
 31
0.0
  0
LINE
  8
0
 62
     0
 10
10.1076
 20
7.91319
 30
0.0
 11
10.3602
 21
7.49567
 31
0.0
  0
LINE
  8
0
 62
     0
 10
10.3602
 20
7.49567
 30
0.0
 11
10.5764
 21
7.04861
 31
0.0
  0
LINE
  8
0
 62
     0
 10
10.5764
 20
7.04861
 30
0.0
 11
10.7496
 21
6.57861
 31
0.0
  0
LINE
  8
0
 62
     0
 10
10.7496
 20
6.57861
 30
0.0
 11
10.8733
 21
6.09207
 31
0.0
  0
LINE
  8
0
 62
     0
 10
10.8733
 20
6.09207
 30
0.0
 11
10.9475
 21
5.58903
 31
0.0
  0
LINE
  8
0
 62
     0
 10
10.9475
 20
5.58903
 30
0.0
 11
10.9722
 21
5.06944
 31
0.0
  0
LINE
  8
0
 62
     0
 10
10.9722
 20
5.06944
 30
0.0
 11
10.9475
 21
4.54992
 31
0.0
  0
LINE
  8
0
 62
     0
 10
10.9475
 20
4.54992
 30
0.0
 11
10.8733
 21
4.04688
 31
0.0
  0
LINE
  8
0
 62
     0
 10
10.8733
 20
4.04688
 30
0.0
 11
10.7496
 21
3.56033
 31
0.0
  0
LINE
  8
0
 62
     0
 10
10.7496
 20
3.56033
 30
0.0
 11
10.5764
 21
3.09028
 31
0.0
  0
LINE
  8
0
 62
     0
 10
10.5764
 20
3.09028
 30
0.0
 11
10.3602
 21
2.64328
 31
0.0
  0
LINE
  8
0
 62
     0
 10
10.3602
 20
2.64328
 30
0.0
 11
10.1076
 21
2.22575
 31
0.0
  0
LINE
  8
0
 62
     0
 10
10.1076
 20
2.22575
 30
0.0
 11
9.81858
 21
1.83772
 31
0.0
  0
LINE
  8
0
 62
     0
 10
9.81858
 20
1.83772
 30
0.0
 11
9.49306
 21
1.47917
 31
0.0
  0
LINE
  8
0
 62
     0
 10
9.49306
 20
1.47917
 30
0.0
 11
9.1345
 21
1.15365
 31
0.0
  0
LINE
  8
0
 62
     0
 10
9.1345
 20
1.15365
 30
0.0
 11
8.74647
 21
0.864583
 31
0.0
  0
LINE
  8
0
 62
     0
 10
8.74647
 20
0.864583
 30
0.0
 11
8.32894
 21
0.611979
 31
0.0
  0
LINE
  8
0
 62
     0
 10
8.32894
 20
0.611979
 30
0.0
 11
7.88194
 21
0.395833
 31
0.0
  0
LINE
  8
0
 62
     0
 10
7.88194
 20
0.395833
 30
0.0
 11
7.41189
 21
0.222656
 31
0.0
  0
LINE
  8
0
 62
     0
 10
7.41189
 20
0.222656
 30
0.0
 11
6.92529
 21
0.0989583
 31
0.0
  0
LINE
  8
0
 62
     0
 10
6.92529
 20
0.0989583
 30
0.0
 11
6.42225
 21
0.0247396
 31
0.0
  0
LINE
  8
0
 62
     0
 10
6.42225
 20
0.0247396
 30
0.0
 11
5.90278
 21
-0
 31
0.0
  0
LINE
  8
0
 62
     0
 10
5.90278
 20
-0
 30
0.0
 11
5.38319
 21
0.0247396
 31
0.0
  0
LINE
  8
0
 62
     0
 10
5.38319
 20
0.0247396
 30
0.0
 11
4.88015
 21
0.0989583
 31
0.0
  0
LINE
  8
0
 62
     0
 10
4.88015
 20
0.0989583
 30
0.0
 11
4.39361
 21
0.222656
 31
0.0
  0
LINE
  8
0
 62
     0
 10
4.39361
 20
0.222656
 30
0.0
 11
3.92361
 21
0.395833
 31
0.0
  0
LINE
  8
0
 62
     0
 10
3.92361
 20
0.395833
 30
0.0
 11
3.47656
 21
0.611979
 31
0.0
  0
LINE
  8
0
 62
     0
 10
3.47656
 20
0.611979
 30
0.0
 11
3.05903
 21
0.864583
 31
0.0
  0
LINE
  8
0
 62
     0
 10
3.05903
 20
0.864583
 30
0.0
 11
2.671
 21
1.15365
 31
0.0
  0
LINE
  8
0
 62
     0
 10
2.671
 20
1.15365
 30
0.0
 11
2.3125
 21
1.47917
 31
0.0
  0
LINE
  8
0
 62
     0
 10
2.3125
 20
1.47917
 30
0.0
 11
1.98697
 21
1.83772
 31
0.0
  0
LINE
  8
0
 62
     0
 10
1.98697
 20
1.83772
 30
0.0
 11
1.69792
 21
2.22575
 31
0.0
  0
LINE
  8
0
 62
     0
 10
1.69792
 20
2.22575
 30
0.0
 11
1.44531
 21
2.64328
 31
0.0
  0
LINE
  8
0
 62
     0
 10
1.44531
 20
2.64328
 30
0.0
 11
1.22917
 21
3.09028
 31
0.0
  0
LINE
  8
0
 62
     0
 10
1.22917
 20
3.09028
 30
0.0
 11
1.05599
 21
3.56033
 31
0.0
  0
LINE
  8
0
 62
     0
 10
1.05599
 20
3.56033
 30
0.0
 11
0.932292
 21
4.04688
 31
0.0
  0
LINE
  8
0
 62
     0
 10
0.932292
 20
4.04688
 30
0.0
 11
0.858072
 21
4.54992
 31
0.0
  0
LINE
  8
0
 62
     0
 10
0.858072
 20
4.54992
 30
0.0
 11
0.833333
 21
5.06944
 31
0.0
  0
LINE
  8
0
 62
     0
 10
0.833333
 20
5.06944
 30
0.0
 11
0.858072
 21
5.58903
 31
0.0
  0
LINE
  8
0
 62
     0
 10
0.858072
 20
5.58903
 30
0.0
 11
0.932292
 21
6.09207
 31
0.0
  0
LINE
  8
0
 62
     0
 10
0.932292
 20
6.09207
 30
0.0
 11
1.05599
 21
6.57861
 31
0.0
  0
LINE
  8
0
 62
     0
 10
1.05599
 20
6.57861
 30
0.0
 11
1.22917
 21
7.04861
 31
0.0
  0
LINE
  8
0
 62
     0
 10
1.22917
 20
7.04861
 30
0.0
 11
1.44531
 21
7.49567
 31
0.0
  0
LINE
  8
0
 62
     0
 10
1.44531
 20
7.49567
 30
0.0
 11
1.69792
 21
7.91319
 31
0.0
  0
LINE
  8
0
 62
     0
 10
1.69792
 20
7.91319
 30
0.0
 11
1.98697
 21
8.30122
 31
0.0
  0
LINE
  8
0
 62
     0
 10
1.98697
 20
8.30122
 30
0.0
 11
2.3125
 21
8.65972
 31
0.0
  0
LINE
  8
0
 62
     0
 10
2.3125
 20
8.65972
 30
0.0
 11
2.671
 21
8.98525
 31
0.0
  0
LINE
  8
0
 62
     0
 10
2.671
 20
8.98525
 30
0.0
 11
3.05903
 21
9.27431
 31
0.0
  0
LINE
  8
0
 62
     0
 10
3.05903
 20
9.27431
 30
0.0
 11
3.47656
 21
9.52692
 31
0.0
  0
LINE
  8
0
 62
     0
 10
3.47656
 20
9.52692
 30
0.0
 11
3.92361
 21
9.74306
 31
0.0
  0
LINE
  8
0
 62
     0
 10
3.92361
 20
9.74306
 30
0.0
 11
4.39361
 21
9.91624
 31
0.0
  0
LINE
  8
0
 62
     0
 10
4.39361
 20
9.91624
 30
0.0
 11
4.88015
 21
10.0399
 31
0.0
  0
LINE
  8
0
 62
     0
 10
4.88015
 20
10.0399
 30
0.0
 11
5.38319
 21
10.1142
 31
0.0
  0
LINE
  8
0
 62
     0
 10
5.38319
 20
10.1142
 30
0.0
 11
5.90278
 21
10.1389
 31
0.0
  0
ENDSEC
  0
EOF
