  0
SECTION
  2
HEADER
  9
$ACADVER
  1
AC1009
  9
$EXTMIN
 10
0.0
 20
0.0
 30
0.0
  9
$EXTMAX
 10
1000.0
 20
1000.0
 30
0.0
  9
$FILLMODE
 70
 0
  9
$SPLFRAME
 70
 1
  0
ENDSEC
  0
SECTION
  2
TABLES
  0
TABLE
  2
LAYER
 70
1
  0
LAYER
  2
0
 70
     0
 62
     7
  6
CONTINUOUS
  0
ENDTAB
  0
ENDSEC
  0
SECTION
  2
ENTITIES
  0
LINE
  8
0
 62
     0
 10
4.29167
 20
1.11111
 30
0.0
 11
4.60238
 21
1.12804
 31
0.0
  0
LINE
  8
0
 62
     0
 10
4.60238
 20
1.12804
 30
0.0
 11
4.90967
 21
1.17882
 31
0.0
  0
LINE
  8
0
 62
     0
 10
4.90967
 20
1.17882
 30
0.0
 11
5.21349
 21
1.26346
 31
0.0
  0
LINE
  8
0
 62
     0
 10
5.21349
 20
1.26346
 30
0.0
 11
5.51389
 21
1.38194
 31
0.0
  0
LINE
  8
0
 62
     0
 10
5.51389
 20
1.38194
 30
0.0
 11
5.80382
 21
1.53256
 31
0.0
  0
LINE
  8
0
 62
     0
 10
5.80382
 20
1.53256
 30
0.0
 11
6.07639
 21
1.71354
 31
0.0
  0
LINE
  8
0
 62
     0
 10
6.07639
 20
1.71354
 30
0.0
 11
6.3316
 21
1.92492
 31
0.0
  0
LINE
  8
0
 62
     0
 10
6.3316
 20
1.92492
 30
0.0
 11
6.56944
 21
2.16667
 31
0.0
  0
LINE
  8
0
 62
     0
 10
6.56944
 20
2.16667
 30
0.0
 11
6.78733
 21
2.43756
 31
0.0
  0
LINE
  8
0
 62
     0
 10
6.78733
 20
2.43756
 30
0.0
 11
6.98264
 21
2.73617
 31
0.0
  0
LINE
  8
0
 62
     0
 10
6.98264
 20
2.73617
 30
0.0
 11
7.15539
 21
3.06256
 31
0.0
  0
LINE
  8
0
 62
     0
 10
7.15539
 20
3.06256
 30
0.0
 11
7.30556
 21
3.41667
 31
0.0
  0
LINE
  8
0
 62
     0
 10
7.30556
 20
3.41667
 30
0.0
 11
7.42703
 21
3.79688
 31
0.0
  0
LINE
  8
0
 62
     0
 10
7.42703
 20
3.79688
 30
0.0
 11
7.51383
 21
4.20139
 31
0.0
  0
LINE
  8
0
 62
     0
 10
7.51383
 20
4.20139
 30
0.0
 11
7.56592
 21
4.63021
 31
0.0
  0
LINE
  8
0
 62
     0
 10
7.56592
 20
4.63021
 30
0.0
 11
7.58333
 21
5.08333
 31
0.0
  0
LINE
  8
0
 62
     0
 10
7.58333
 20
5.08333
 30
0.0
 11
7.56461
 21
5.54867
 31
0.0
  0
LINE
  8
0
 62
     0
 10
7.56461
 20
5.54867
 30
0.0
 11
7.50862
 21
5.98617
 31
0.0
  0
LINE
  8
0
 62
     0
 10
7.50862
 20
5.98617
 30
0.0
 11
7.41531
 21
6.39589
 31
0.0
  0
LINE
  8
0
 62
     0
 10
7.41531
 20
6.39589
 30
0.0
 11
7.28472
 21
6.77778
 31
0.0
  0
LINE
  8
0
 62
     0
 10
7.28472
 20
6.77778
 30
0.0
 11
7.12414
 21
7.13108
 31
0.0
  0
LINE
  8
0
 62
     0
 10
7.12414
 20
7.13108
 30
0.0
 11
6.94097
 21
7.45486
 31
0.0
  0
LINE
  8
0
 62
     0
 10
6.94097
 20
7.45486
 30
0.0
 11
6.73525
 21
7.74914
 31
0.0
  0
LINE
  8
0
 62
     0
 10
6.73525
 20
7.74914
 30
0.0
 11
6.50694
 21
8.01389
 31
0.0
  0
LINE
  8
0
 62
     0
 10
6.50694
 20
8.01389
 30
0.0
 11
6.25956
 21
8.24875
 31
0.0
  0
LINE
  8
0
 62
     0
 10
6.25956
 20
8.24875
 30
0.0
 11
5.99653
 21
8.45318
 31
0.0
  0
LINE
  8
0
 62
     0
 10
5.99653
 20
8.45318
 30
0.0
 11
5.71789
 21
8.62722
 31
0.0
  0
LINE
  8
0
 62
     0
 10
5.71789
 20
8.62722
 30
0.0
 11
5.42361
 21
8.77083
 31
0.0
  0
LINE
  8
0
 62
     0
 10
5.42361
 20
8.77083
 30
0.0
 11
5.12196
 21
8.88325
 31
0.0
  0
LINE
  8
0
 62
     0
 10
5.12196
 20
8.88325
 30
0.0
 11
4.82118
 21
8.96354
 31
0.0
  0
LINE
  8
0
 62
     0
 10
4.82118
 20
8.96354
 30
0.0
 11
4.52126
 21
9.01172
 31
0.0
  0
LINE
  8
0
 62
     0
 10
4.52126
 20
9.01172
 30
0.0
 11
4.22222
 21
9.02778
 31
0.0
  0
LINE
  8
0
 62
     0
 10
4.22222
 20
9.02778
 30
0.0
 11
2.26389
 21
9.02778
 31
0.0
  0
LINE
  8
0
 62
     0
 10
2.26389
 20
9.02778
 30
0.0
 11
2.26389
 21
1.11111
 31
0.0
  0
LINE
  8
0
 62
     0
 10
2.26389
 20
1.11111
 30
0.0
 11
4.29167
 21
1.11111
 31
0.0
  0
LINE
  8
0
 62
     0
 10
1.08333
 20
-0
 30
0.0
 11
1.08333
 21
10.1389
 31
0.0
  0
LINE
  8
0
 62
     0
 10
1.08333
 20
10.1389
 30
0.0
 11
4.16667
 21
10.1389
 31
0.0
  0
LINE
  8
0
 62
     0
 10
4.16667
 20
10.1389
 30
0.0
 11
4.58285
 21
10.1202
 31
0.0
  0
LINE
  8
0
 62
     0
 10
4.58285
 20
10.1202
 30
0.0
 11
4.99821
 21
10.0642
 31
0.0
  0
LINE
  8
0
 62
     0
 10
4.99821
 20
10.0642
 30
0.0
 11
5.41271
 21
9.97092
 31
0.0
  0
LINE
  8
0
 62
     0
 10
5.41271
 20
9.97092
 30
0.0
 11
5.82639
 21
9.84028
 31
0.0
  0
LINE
  8
0
 62
     0
 10
5.82639
 20
9.84028
 30
0.0
 11
6.22917
 21
9.67062
 31
0.0
  0
LINE
  8
0
 62
     0
 10
6.22917
 20
9.67062
 30
0.0
 11
6.61111
 21
9.46013
 31
0.0
  0
LINE
  8
0
 62
     0
 10
6.61111
 20
9.46013
 30
0.0
 11
6.97217
 21
9.20882
 31
0.0
  0
LINE
  8
0
 62
     0
 10
6.97217
 20
9.20882
 30
0.0
 11
7.3125
 21
8.91667
 31
0.0
  0
LINE
  8
0
 62
     0
 10
7.3125
 20
8.91667
 30
0.0
 11
7.62674
 21
8.58382
 31
0.0
  0
LINE
  8
0
 62
     0
 10
7.62674
 20
8.58382
 30
0.0
 11
7.90972
 21
8.21013
 31
0.0
  0
LINE
  8
0
 62
     0
 10
7.90972
 20
8.21013
 30
0.0
 11
8.16146
 21
7.79562
 31
0.0
  0
LINE
  8
0
 62
     0
 10
8.16146
 20
7.79562
 30
0.0
 11
8.38194
 21
7.34028
 31
0.0
  0
LINE
  8
0
 62
     0
 10
8.38194
 20
7.34028
 30
0.0
 11
8.56119
 21
6.84244
 31
0.0
  0
LINE
  8
0
 62
     0
 10
8.56119
 20
6.84244
 30
0.0
 11
8.68924
 21
6.30035
 31
0.0
  0
LINE
  8
0
 62
     0
 10
8.68924
 20
6.30035
 30
0.0
 11
8.76606
 21
5.71397
 31
0.0
  0
LINE
  8
0
 62
     0
 10
8.76606
 20
5.71397
 30
0.0
 11
8.79167
 21
5.08333
 31
0.0
  0
LINE
  8
0
 62
     0
 10
8.79167
 20
5.08333
 30
0.0
 11
8.76606
 21
4.39669
 31
0.0
  0
LINE
  8
0
 62
     0
 10
8.76606
 20
4.39669
 30
0.0
 11
8.68924
 21
3.76736
 31
0.0
  0
LINE
  8
0
 62
     0
 10
8.68924
 20
3.76736
 30
0.0
 11
8.56119
 21
3.19536
 31
0.0
  0
LINE
  8
0
 62
     0
 10
8.56119
 20
3.19536
 30
0.0
 11
8.38194
 21
2.68056
 31
0.0
  0
LINE
  8
0
 62
     0
 10
8.38194
 20
2.68056
 30
0.0
 11
8.16228
 21
2.21789
 31
0.0
  0
LINE
  8
0
 62
     0
 10
8.16228
 20
2.21789
 30
0.0
 11
7.91314
 21
1.80208
 31
0.0
  0
LINE
  8
0
 62
     0
 10
7.91314
 20
1.80208
 30
0.0
 11
7.6345
 21
1.43321
 31
0.0
  0
LINE
  8
0
 62
     0
 10
7.6345
 20
1.43321
 30
0.0
 11
7.32639
 21
1.11111
 31
0.0
  0
LINE
  8
0
 62
     0
 10
7.32639
 20
1.11111
 30
0.0
 11
6.99349
 21
0.833767
 31
0.0
  0
LINE
  8
0
 62
     0
 10
6.99349
 20
0.833767
 30
0.0
 11
6.64063
 21
0.598958
 31
0.0
  0
LINE
  8
0
 62
     0
 10
6.64063
 20
0.598958
 30
0.0
 11
6.26779
 21
0.406683
 31
0.0
  0
LINE
  8
0
 62
     0
 10
6.26779
 20
0.406683
 30
0.0
 11
5.875
 21
0.256944
 31
0.0
  0
LINE
  8
0
 62
     0
 10
5.875
 20
0.256944
 30
0.0
 11
5.47217
 21
0.144586
 31
0.0
  0
LINE
  8
0
 62
     0
 10
5.47217
 20
0.144586
 30
0.0
 11
5.06939
 21
0.0642904
 31
0.0
  0
LINE
  8
0
 62
     0
 10
5.06939
 20
0.0642904
 30
0.0
 11
4.66661
 21
0.0161133
 31
0.0
  0
LINE
  8
0
 62
     0
 10
4.66661
 20
0.0161133
 30
0.0
 11
4.26389
 21
-0
 31
0.0
  0
LINE
  8
0
 62
     0
 10
4.26389
 20
-0
 30
0.0
 11
1.08333
 21
-0
 31
0.0
  0
ENDSEC
  0
EOF
