  0
SECTION
  2
HEADER
  9
$ACADVER
  1
AC1009
  9
$EXTMIN
 10
0.0
 20
0.0
 30
0.0
  9
$EXTMAX
 10
1000.0
 20
1000.0
 30
0.0
  9
$FILLMODE
 70
 0
  9
$SPLFRAME
 70
 1
  0
ENDSEC
  0
SECTION
  2
TABLES
  0
TABLE
  2
LAYER
 70
1
  0
LAYER
  2
0
 70
     0
 62
     7
  6
CONTINUOUS
  0
ENDTAB
  0
ENDSEC
  0
SECTION
  2
ENTITIES
  0
LINE
  8
0
 62
     0
 10
1.79167
 20
7.36111
 30
0.0
 11
1.81381
 21
7.10938
 31
0.0
  0
LINE
  8
0
 62
     0
 10
1.81381
 20
7.10938
 30
0.0
 11
1.88021
 21
6.86806
 31
0.0
  0
LINE
  8
0
 62
     0
 10
1.88021
 20
6.86806
 30
0.0
 11
1.99089
 21
6.63715
 31
0.0
  0
LINE
  8
0
 62
     0
 10
1.99089
 20
6.63715
 30
0.0
 11
2.14583
 21
6.41667
 31
0.0
  0
LINE
  8
0
 62
     0
 10
2.14583
 20
6.41667
 30
0.0
 11
2.34765
 21
6.21875
 31
0.0
  0
LINE
  8
0
 62
     0
 10
2.34765
 20
6.21875
 30
0.0
 11
2.59896
 21
6.05556
 31
0.0
  0
LINE
  8
0
 62
     0
 10
2.59896
 20
6.05556
 30
0.0
 11
2.89974
 21
5.92708
 31
0.0
  0
LINE
  8
0
 62
     0
 10
2.89974
 20
5.92708
 30
0.0
 11
3.25
 21
5.83333
 31
0.0
  0
LINE
  8
0
 62
     0
 10
3.25
 20
5.83333
 30
0.0
 11
3.25
 21
8.80556
 31
0.0
  0
LINE
  8
0
 62
     0
 10
3.25
 20
8.80556
 30
0.0
 11
2.9336
 21
8.74615
 31
0.0
  0
LINE
  8
0
 62
     0
 10
2.9336
 20
8.74615
 30
0.0
 11
2.65104
 21
8.6511
 31
0.0
  0
LINE
  8
0
 62
     0
 10
2.65104
 20
8.6511
 30
0.0
 11
2.40235
 21
8.52046
 31
0.0
  0
LINE
  8
0
 62
     0
 10
2.40235
 20
8.52046
 30
0.0
 11
2.1875
 21
8.35417
 31
0.0
  0
LINE
  8
0
 62
     0
 10
2.1875
 20
8.35417
 30
0.0
 11
2.01432
 21
8.15408
 31
0.0
  0
LINE
  8
0
 62
     0
 10
2.01432
 20
8.15408
 30
0.0
 11
1.89063
 21
7.92188
 31
0.0
  0
LINE
  8
0
 62
     0
 10
1.89063
 20
7.92188
 30
0.0
 11
1.8164
 21
7.65756
 31
0.0
  0
LINE
  8
0
 62
     0
 10
1.8164
 20
7.65756
 30
0.0
 11
1.79167
 21
7.36111
 31
0.0
  0
LINE
  8
0
 62
     0
 10
5.875
 20
3.02778
 30
0.0
 11
5.84549
 21
3.29519
 31
0.0
  0
LINE
  8
0
 62
     0
 10
5.84549
 20
3.29519
 30
0.0
 11
5.75694
 21
3.56944
 31
0.0
  0
LINE
  8
0
 62
     0
 10
5.75694
 20
3.56944
 30
0.0
 11
5.61279
 21
3.83854
 31
0.0
  0
LINE
  8
0
 62
     0
 10
5.61279
 20
3.83854
 30
0.0
 11
5.41667
 21
4.09028
 31
0.0
  0
LINE
  8
0
 62
     0
 10
5.41667
 20
4.09028
 30
0.0
 11
5.16661
 21
4.31603
 31
0.0
  0
LINE
  8
0
 62
     0
 10
5.16661
 20
4.31603
 30
0.0
 11
4.86111
 21
4.50694
 31
0.0
  0
LINE
  8
0
 62
     0
 10
4.86111
 20
4.50694
 30
0.0
 11
4.68836
 21
4.5855
 31
0.0
  0
LINE
  8
0
 62
     0
 10
4.68836
 20
4.5855
 30
0.0
 11
4.50347
 21
4.64757
 31
0.0
  0
LINE
  8
0
 62
     0
 10
4.50347
 20
4.64757
 30
0.0
 11
4.30642
 21
4.69314
 31
0.0
  0
LINE
  8
0
 62
     0
 10
4.30642
 20
4.69314
 30
0.0
 11
4.09722
 21
4.72222
 31
0.0
  0
LINE
  8
0
 62
     0
 10
4.09722
 20
4.72222
 30
0.0
 11
4.09722
 21
1.41667
 31
0.0
  0
LINE
  8
0
 62
     0
 10
4.09722
 20
1.41667
 30
0.0
 11
4.49126
 21
1.49263
 31
0.0
  0
LINE
  8
0
 62
     0
 10
4.49126
 20
1.49263
 30
0.0
 11
4.84022
 21
1.60938
 31
0.0
  0
LINE
  8
0
 62
     0
 10
4.84022
 20
1.60938
 30
0.0
 11
5.14404
 21
1.76693
 31
0.0
  0
LINE
  8
0
 62
     0
 10
5.14404
 20
1.76693
 30
0.0
 11
5.40278
 21
1.96528
 31
0.0
  0
LINE
  8
0
 62
     0
 10
5.40278
 20
1.96528
 30
0.0
 11
5.60938
 21
2.19575
 31
0.0
  0
LINE
  8
0
 62
     0
 10
5.60938
 20
2.19575
 30
0.0
 11
5.75694
 21
2.44965
 31
0.0
  0
LINE
  8
0
 62
     0
 10
5.75694
 20
2.44965
 30
0.0
 11
5.84549
 21
2.727
 31
0.0
  0
LINE
  8
0
 62
     0
 10
5.84549
 20
2.727
 30
0.0
 11
5.875
 21
3.02778
 31
0.0
  0
LINE
  8
0
 62
     0
 10
4.09722
 20
-1
 30
0.0
 11
3.25
 21
-1
 31
0.0
  0
LINE
  8
0
 62
     0
 10
3.25
 20
-1
 30
0.0
 11
3.25
 21
0.319444
 31
0.0
  0
LINE
  8
0
 62
     0
 10
3.25
 20
0.319444
 30
0.0
 11
2.84065
 21
0.363769
 31
0.0
  0
LINE
  8
0
 62
     0
 10
2.84065
 20
0.363769
 30
0.0
 11
2.46007
 21
0.441026
 31
0.0
  0
LINE
  8
0
 62
     0
 10
2.46007
 20
0.441026
 30
0.0
 11
2.10807
 21
0.551269
 31
0.0
  0
LINE
  8
0
 62
     0
 10
2.10807
 20
0.551269
 30
0.0
 11
1.78472
 21
0.694444
 31
0.0
  0
LINE
  8
0
 62
     0
 10
1.78472
 20
0.694444
 30
0.0
 11
1.48042
 21
0.867188
 31
0.0
  0
LINE
  8
0
 62
     0
 10
1.48042
 20
0.867188
 30
0.0
 11
1.18571
 21
1.06597
 31
0.0
  0
LINE
  8
0
 62
     0
 10
1.18571
 20
1.06597
 30
0.0
 11
0.900553
 21
1.29085
 31
0.0
  0
LINE
  8
0
 62
     0
 10
0.900553
 20
1.29085
 30
0.0
 11
0.625
 21
1.54167
 31
0.0
  0
LINE
  8
0
 62
     0
 10
0.625
 20
1.54167
 30
0.0
 11
0.625
 21
2.84722
 31
0.0
  0
LINE
  8
0
 62
     0
 10
0.625
 20
2.84722
 30
0.0
 11
0.907986
 21
2.56119
 31
0.0
  0
LINE
  8
0
 62
     0
 10
0.907986
 20
2.56119
 30
0.0
 11
1.20139
 21
2.30035
 31
0.0
  0
LINE
  8
0
 62
     0
 10
1.20139
 20
2.30035
 30
0.0
 11
1.50515
 21
2.06467
 31
0.0
  0
LINE
  8
0
 62
     0
 10
1.50515
 20
2.06467
 30
0.0
 11
1.81944
 21
1.85417
 31
0.0
  0
LINE
  8
0
 62
     0
 10
1.81944
 20
1.85417
 30
0.0
 11
2.14844
 21
1.67665
 31
0.0
  0
LINE
  8
0
 62
     0
 10
2.14844
 20
1.67665
 30
0.0
 11
2.49653
 21
1.53993
 31
0.0
  0
LINE
  8
0
 62
     0
 10
2.49653
 20
1.53993
 30
0.0
 11
2.86372
 21
1.44401
 31
0.0
  0
LINE
  8
0
 62
     0
 10
2.86372
 20
1.44401
 30
0.0
 11
3.25
 21
1.38889
 31
0.0
  0
LINE
  8
0
 62
     0
 10
3.25
 20
1.38889
 30
0.0
 11
3.25
 21
4.76389
 31
0.0
  0
LINE
  8
0
 62
     0
 10
3.25
 20
4.76389
 30
0.0
 11
2.743
 21
4.86464
 31
0.0
  0
LINE
  8
0
 62
     0
 10
2.743
 20
4.86464
 30
0.0
 11
2.27778
 21
5.02778
 31
0.0
  0
LINE
  8
0
 62
     0
 10
2.27778
 20
5.02778
 30
0.0
 11
2.06293
 21
5.13238
 31
0.0
  0
LINE
  8
0
 62
     0
 10
2.06293
 20
5.13238
 30
0.0
 11
1.86285
 21
5.25174
 31
0.0
  0
LINE
  8
0
 62
     0
 10
1.86285
 20
5.25174
 30
0.0
 11
1.67751
 21
5.38585
 31
0.0
  0
LINE
  8
0
 62
     0
 10
1.67751
 20
5.38585
 30
0.0
 11
1.50694
 21
5.53472
 31
0.0
  0
LINE
  8
0
 62
     0
 10
1.50694
 20
5.53472
 30
0.0
 11
1.35281
 21
5.69835
 31
0.0
  0
LINE
  8
0
 62
     0
 10
1.35281
 20
5.69835
 30
0.0
 11
1.21701
 21
5.87674
 31
0.0
  0
LINE
  8
0
 62
     0
 10
1.21701
 20
5.87674
 30
0.0
 11
1.09939
 21
6.06988
 31
0.0
  0
LINE
  8
0
 62
     0
 10
1.09939
 20
6.06988
 30
0.0
 11
1
 21
6.27778
 31
0.0
  0
LINE
  8
0
 62
     0
 10
1
 20
6.27778
 30
0.0
 11
0.920953
 21
6.50006
 31
0.0
  0
LINE
  8
0
 62
     0
 10
0.920953
 20
6.50006
 30
0.0
 11
0.864529
 21
6.73617
 31
0.0
  0
LINE
  8
0
 62
     0
 10
0.864529
 20
6.73617
 30
0.0
 11
0.830675
 21
6.98617
 31
0.0
  0
LINE
  8
0
 62
     0
 10
0.830675
 20
6.98617
 30
0.0
 11
0.819444
 21
7.25
 31
0.0
  0
LINE
  8
0
 62
     0
 10
0.819444
 20
7.25
 30
0.0
 11
0.831164
 21
7.52175
 31
0.0
  0
LINE
  8
0
 62
     0
 10
0.831164
 20
7.52175
 30
0.0
 11
0.866319
 21
7.78131
 31
0.0
  0
LINE
  8
0
 62
     0
 10
0.866319
 20
7.78131
 30
0.0
 11
0.924914
 21
8.02869
 31
0.0
  0
LINE
  8
0
 62
     0
 10
0.924914
 20
8.02869
 30
0.0
 11
1.00694
 21
8.26389
 31
0.0
  0
LINE
  8
0
 62
     0
 10
1.00694
 20
8.26389
 30
0.0
 11
1.10981
 21
8.48525
 31
0.0
  0
LINE
  8
0
 62
     0
 10
1.10981
 20
8.48525
 30
0.0
 11
1.2309
 21
8.69097
 31
0.0
  0
LINE
  8
0
 62
     0
 10
1.2309
 20
8.69097
 30
0.0
 11
1.37022
 21
8.88108
 31
0.0
  0
LINE
  8
0
 62
     0
 10
1.37022
 20
8.88108
 30
0.0
 11
1.52778
 21
9.05556
 31
0.0
  0
LINE
  8
0
 62
     0
 10
1.52778
 20
9.05556
 30
0.0
 11
1.70139
 21
9.21397
 31
0.0
  0
LINE
  8
0
 62
     0
 10
1.70139
 20
9.21397
 30
0.0
 11
1.88889
 21
9.3559
 31
0.0
  0
LINE
  8
0
 62
     0
 10
1.88889
 20
9.3559
 30
0.0
 11
2.09028
 21
9.48133
 31
0.0
  0
LINE
  8
0
 62
     0
 10
2.09028
 20
9.48133
 30
0.0
 11
2.30556
 21
9.59028
 31
0.0
  0
LINE
  8
0
 62
     0
 10
2.30556
 20
9.59028
 30
0.0
 11
2.76383
 21
9.75521
 31
0.0
  0
LINE
  8
0
 62
     0
 10
2.76383
 20
9.75521
 30
0.0
 11
3.25
 21
9.84722
 31
0.0
  0
LINE
  8
0
 62
     0
 10
3.25
 20
9.84722
 30
0.0
 11
3.25
 21
10.8611
 31
0.0
  0
LINE
  8
0
 62
     0
 10
3.25
 20
10.8611
 30
0.0
 11
4.09722
 21
10.8611
 31
0.0
  0
LINE
  8
0
 62
     0
 10
4.09722
 20
10.8611
 30
0.0
 11
4.09722
 21
9.84722
 31
0.0
  0
LINE
  8
0
 62
     0
 10
4.09722
 20
9.84722
 30
0.0
 11
4.44228
 21
9.80126
 31
0.0
  0
LINE
  8
0
 62
     0
 10
4.44228
 20
9.80126
 30
0.0
 11
4.7691
 21
9.73269
 31
0.0
  0
LINE
  8
0
 62
     0
 10
4.7691
 20
9.73269
 30
0.0
 11
5.07769
 21
9.64154
 31
0.0
  0
LINE
  8
0
 62
     0
 10
5.07769
 20
9.64154
 30
0.0
 11
5.36806
 21
9.52778
 31
0.0
  0
LINE
  8
0
 62
     0
 10
5.36806
 20
9.52778
 30
0.0
 11
5.91146
 21
9.24653
 31
0.0
  0
LINE
  8
0
 62
     0
 10
5.91146
 20
9.24653
 30
0.0
 11
6.41667
 21
8.90278
 31
0.0
  0
LINE
  8
0
 62
     0
 10
6.41667
 20
8.90278
 30
0.0
 11
6.41667
 21
7.75
 31
0.0
  0
LINE
  8
0
 62
     0
 10
6.41667
 20
7.75
 30
0.0
 11
6.12321
 21
7.97786
 31
0.0
  0
LINE
  8
0
 62
     0
 10
6.12321
 20
7.97786
 30
0.0
 11
5.82633
 21
8.17535
 31
0.0
  0
LINE
  8
0
 62
     0
 10
5.82633
 20
8.17535
 30
0.0
 11
5.52599
 21
8.34244
 31
0.0
  0
LINE
  8
0
 62
     0
 10
5.52599
 20
8.34244
 30
0.0
 11
5.22222
 21
8.47917
 31
0.0
  0
LINE
  8
0
 62
     0
 10
5.22222
 20
8.47917
 30
0.0
 11
4.92275
 21
8.5899
 31
0.0
  0
LINE
  8
0
 62
     0
 10
4.92275
 20
8.5899
 30
0.0
 11
4.63542
 21
8.67888
 31
0.0
  0
LINE
  8
0
 62
     0
 10
4.63542
 20
8.67888
 30
0.0
 11
4.36025
 21
8.74615
 31
0.0
  0
LINE
  8
0
 62
     0
 10
4.36025
 20
8.74615
 30
0.0
 11
4.09722
 21
8.79167
 31
0.0
  0
LINE
  8
0
 62
     0
 10
4.09722
 20
8.79167
 30
0.0
 11
4.09722
 21
5.75
 31
0.0
  0
LINE
  8
0
 62
     0
 10
4.09722
 20
5.75
 30
0.0
 11
4.40929
 21
5.7296
 31
0.0
  0
LINE
  8
0
 62
     0
 10
4.40929
 20
5.7296
 30
0.0
 11
4.7066
 21
5.68229
 31
0.0
  0
LINE
  8
0
 62
     0
 10
4.7066
 20
5.68229
 30
0.0
 11
4.98915
 21
5.60807
 31
0.0
  0
LINE
  8
0
 62
     0
 10
4.98915
 20
5.60807
 30
0.0
 11
5.25694
 21
5.50694
 31
0.0
  0
LINE
  8
0
 62
     0
 10
5.25694
 20
5.50694
 30
0.0
 11
5.50738
 21
5.38374
 31
0.0
  0
LINE
  8
0
 62
     0
 10
5.50738
 20
5.38374
 30
0.0
 11
5.73785
 21
5.24311
 31
0.0
  0
LINE
  8
0
 62
     0
 10
5.73785
 20
5.24311
 30
0.0
 11
5.94835
 21
5.08513
 31
0.0
  0
LINE
  8
0
 62
     0
 10
5.94835
 20
5.08513
 30
0.0
 11
6.13889
 21
4.90972
 31
0.0
  0
LINE
  8
0
 62
     0
 10
6.13889
 20
4.90972
 30
0.0
 11
6.3094
 21
4.71832
 31
0.0
  0
LINE
  8
0
 62
     0
 10
6.3094
 20
4.71832
 30
0.0
 11
6.46001
 21
4.51215
 31
0.0
  0
LINE
  8
0
 62
     0
 10
6.46001
 20
4.51215
 30
0.0
 11
6.59065
 21
4.29124
 31
0.0
  0
LINE
  8
0
 62
     0
 10
6.59065
 20
4.29124
 30
0.0
 11
6.70139
 21
4.05556
 31
0.0
  0
LINE
  8
0
 62
     0
 10
6.70139
 20
4.05556
 30
0.0
 11
6.7895
 21
3.81082
 31
0.0
  0
LINE
  8
0
 62
     0
 10
6.7895
 20
3.81082
 30
0.0
 11
6.85243
 21
3.56256
 31
0.0
  0
LINE
  8
0
 62
     0
 10
6.85243
 20
3.56256
 30
0.0
 11
6.89019
 21
3.31082
 31
0.0
  0
LINE
  8
0
 62
     0
 10
6.89019
 20
3.31082
 30
0.0
 11
6.90278
 21
3.05556
 31
0.0
  0
LINE
  8
0
 62
     0
 10
6.90278
 20
3.05556
 30
0.0
 11
6.89057
 21
2.78911
 31
0.0
  0
LINE
  8
0
 62
     0
 10
6.89057
 20
2.78911
 30
0.0
 11
6.85411
 21
2.53131
 31
0.0
  0
LINE
  8
0
 62
     0
 10
6.85411
 20
2.53131
 30
0.0
 11
6.79335
 21
2.28217
 31
0.0
  0
LINE
  8
0
 62
     0
 10
6.79335
 20
2.28217
 30
0.0
 11
6.70833
 21
2.04167
 31
0.0
  0
LINE
  8
0
 62
     0
 10
6.70833
 20
2.04167
 30
0.0
 11
6.60069
 21
1.8125
 31
0.0
  0
LINE
  8
0
 62
     0
 10
6.60069
 20
1.8125
 30
0.0
 11
6.47222
 21
1.59722
 31
0.0
  0
LINE
  8
0
 62
     0
 10
6.47222
 20
1.59722
 30
0.0
 11
6.32286
 21
1.39583
 31
0.0
  0
LINE
  8
0
 62
     0
 10
6.32286
 20
1.39583
 30
0.0
 11
6.15278
 21
1.20833
 31
0.0
  0
LINE
  8
0
 62
     0
 10
6.15278
 20
1.20833
 30
0.0
 11
5.96224
 21
1.03564
 31
0.0
  0
LINE
  8
0
 62
     0
 10
5.96224
 20
1.03564
 30
0.0
 11
5.75174
 21
0.878472
 31
0.0
  0
LINE
  8
0
 62
     0
 10
5.75174
 20
0.878472
 30
0.0
 11
5.52126
 21
0.736979
 31
0.0
  0
LINE
  8
0
 62
     0
 10
5.52126
 20
0.736979
 30
0.0
 11
5.27083
 21
0.611111
 31
0.0
  0
LINE
  8
0
 62
     0
 10
5.27083
 20
0.611111
 30
0.0
 11
5.00211
 21
0.503526
 31
0.0
  0
LINE
  8
0
 62
     0
 10
5.00211
 20
0.503526
 30
0.0
 11
4.71696
 21
0.416667
 31
0.0
  0
LINE
  8
0
 62
     0
 10
4.71696
 20
0.416667
 30
0.0
 11
4.41531
 21
0.350694
 31
0.0
  0
LINE
  8
0
 62
     0
 10
4.41531
 20
0.350694
 30
0.0
 11
4.09722
 21
0.305556
 31
0.0
  0
LINE
  8
0
 62
     0
 10
4.09722
 20
0.305556
 30
0.0
 11
4.09722
 21
-1
 31
0.0
  0
ENDSEC
  0
EOF
