  0
SECTION
  2
HEADER
  9
$ACADVER
  1
AC1009
  9
$EXTMIN
 10
0.0
 20
0.0
 30
0.0
  9
$EXTMAX
 10
1000.0
 20
1000.0
 30
0.0
  9
$FILLMODE
 70
 0
  9
$SPLFRAME
 70
 1
  0
ENDSEC
  0
SECTION
  2
TABLES
  0
TABLE
  2
LAYER
 70
1
  0
LAYER
  2
0
 70
     0
 62
     7
  6
CONTINUOUS
  0
ENDTAB
  0
ENDSEC
  0
SECTION
  2
ENTITIES
  0
LINE
  8
0
 62
     0
 10
1.48611
 20
5.375
 30
0.0
 11
1.50478
 21
5.20622
 31
0.0
  0
LINE
  8
0
 62
     0
 10
1.50478
 20
5.20622
 30
0.0
 11
1.56076
 21
5.06076
 31
0.0
  0
LINE
  8
0
 62
     0
 10
1.56076
 20
5.06076
 30
0.0
 11
1.65408
 21
4.93881
 31
0.0
  0
LINE
  8
0
 62
     0
 10
1.65408
 20
4.93881
 30
0.0
 11
1.78472
 21
4.84028
 31
0.0
  0
LINE
  8
0
 62
     0
 10
1.78472
 20
4.84028
 30
0.0
 11
1.94222
 21
4.76438
 31
0.0
  0
LINE
  8
0
 62
     0
 10
1.94222
 20
4.76438
 30
0.0
 11
2.11626
 21
4.71013
 31
0.0
  0
LINE
  8
0
 62
     0
 10
2.11626
 20
4.71013
 30
0.0
 11
2.30681
 21
4.67757
 31
0.0
  0
LINE
  8
0
 62
     0
 10
2.30681
 20
4.67757
 30
0.0
 11
2.51389
 21
4.66667
 31
0.0
  0
LINE
  8
0
 62
     0
 10
2.51389
 20
4.66667
 30
0.0
 11
2.80989
 21
4.68881
 31
0.0
  0
LINE
  8
0
 62
     0
 10
2.80989
 20
4.68881
 30
0.0
 11
3.07292
 21
4.75521
 31
0.0
  0
LINE
  8
0
 62
     0
 10
3.07292
 20
4.75521
 30
0.0
 11
3.30294
 21
4.86589
 31
0.0
  0
LINE
  8
0
 62
     0
 10
3.30294
 20
4.86589
 30
0.0
 11
3.5
 21
5.02083
 31
0.0
  0
LINE
  8
0
 62
     0
 10
3.5
 20
5.02083
 30
0.0
 11
3.65793
 21
5.22006
 31
0.0
  0
LINE
  8
0
 62
     0
 10
3.65793
 20
5.22006
 30
0.0
 11
3.77078
 21
5.46354
 31
0.0
  0
LINE
  8
0
 62
     0
 10
3.77078
 20
5.46354
 30
0.0
 11
3.83849
 21
5.75131
 31
0.0
  0
LINE
  8
0
 62
     0
 10
3.83849
 20
5.75131
 30
0.0
 11
3.86111
 21
6.08333
 31
0.0
  0
LINE
  8
0
 62
     0
 10
3.86111
 20
6.08333
 30
0.0
 11
3.845
 21
6.36724
 31
0.0
  0
LINE
  8
0
 62
     0
 10
3.845
 20
6.36724
 30
0.0
 11
3.79682
 21
6.62158
 31
0.0
  0
LINE
  8
0
 62
     0
 10
3.79682
 20
6.62158
 30
0.0
 11
3.71653
 21
6.8464
 31
0.0
  0
LINE
  8
0
 62
     0
 10
3.71653
 20
6.8464
 30
0.0
 11
3.60417
 21
7.04167
 31
0.0
  0
LINE
  8
0
 62
     0
 10
3.60417
 20
7.04167
 30
0.0
 11
3.45871
 21
7.19965
 31
0.0
  0
LINE
  8
0
 62
     0
 10
3.45871
 20
7.19965
 30
0.0
 11
3.27946
 21
7.3125
 31
0.0
  0
LINE
  8
0
 62
     0
 10
3.27946
 20
7.3125
 30
0.0
 11
3.06635
 21
7.38021
 31
0.0
  0
LINE
  8
0
 62
     0
 10
3.06635
 20
7.38021
 30
0.0
 11
2.81944
 21
7.40278
 31
0.0
  0
LINE
  8
0
 62
     0
 10
2.81944
 20
7.40278
 30
0.0
 11
2.60331
 21
7.39497
 31
0.0
  0
LINE
  8
0
 62
     0
 10
2.60331
 20
7.39497
 30
0.0
 11
2.41319
 21
7.37153
 31
0.0
  0
LINE
  8
0
 62
     0
 10
2.41319
 20
7.37153
 30
0.0
 11
2.24914
 21
7.33247
 31
0.0
  0
LINE
  8
0
 62
     0
 10
2.24914
 20
7.33247
 30
0.0
 11
2.11111
 21
7.27778
 31
0.0
  0
LINE
  8
0
 62
     0
 10
2.11111
 20
7.27778
 30
0.0
 11
1.86806
 21
7.13542
 31
0.0
  0
LINE
  8
0
 62
     0
 10
1.86806
 20
7.13542
 30
0.0
 11
1.63889
 21
6.95833
 31
0.0
  0
LINE
  8
0
 62
     0
 10
1.63889
 20
6.95833
 30
0.0
 11
0.916667
 21
6.94444
 31
0.0
  0
LINE
  8
0
 62
     0
 10
0.916667
 20
6.94444
 30
0.0
 11
1.44444
 21
10.1389
 31
0.0
  0
LINE
  8
0
 62
     0
 10
1.44444
 20
10.1389
 30
0.0
 11
4.26389
 21
10.1389
 31
0.0
  0
LINE
  8
0
 62
     0
 10
4.26389
 20
10.1389
 30
0.0
 11
4.26389
 21
9.41667
 31
0.0
  0
LINE
  8
0
 62
     0
 10
4.26389
 20
9.41667
 30
0.0
 11
2.13889
 21
9.41667
 31
0.0
  0
LINE
  8
0
 62
     0
 10
2.13889
 20
9.41667
 30
0.0
 11
1.81944
 21
7.68056
 31
0.0
  0
LINE
  8
0
 62
     0
 10
1.81944
 20
7.68056
 30
0.0
 11
1.99474
 21
7.8559
 31
0.0
  0
LINE
  8
0
 62
     0
 10
1.99474
 20
7.8559
 30
0.0
 11
2.21528
 21
7.99306
 31
0.0
  0
LINE
  8
0
 62
     0
 10
2.21528
 20
7.99306
 30
0.0
 11
2.35026
 21
8.04476
 31
0.0
  0
LINE
  8
0
 62
     0
 10
2.35026
 20
8.04476
 30
0.0
 11
2.51215
 21
8.08165
 31
0.0
  0
LINE
  8
0
 62
     0
 10
2.51215
 20
8.08165
 30
0.0
 11
2.70096
 21
8.10379
 31
0.0
  0
LINE
  8
0
 62
     0
 10
2.70096
 20
8.10379
 30
0.0
 11
2.91667
 21
8.11111
 31
0.0
  0
LINE
  8
0
 62
     0
 10
2.91667
 20
8.11111
 30
0.0
 11
3.28039
 21
8.07775
 31
0.0
  0
LINE
  8
0
 62
     0
 10
3.28039
 20
8.07775
 30
0.0
 11
3.60764
 21
7.97749
 31
0.0
  0
LINE
  8
0
 62
     0
 10
3.60764
 20
7.97749
 30
0.0
 11
3.89839
 21
7.81039
 31
0.0
  0
LINE
  8
0
 62
     0
 10
3.89839
 20
7.81039
 30
0.0
 11
4.15278
 21
7.57639
 31
0.0
  0
LINE
  8
0
 62
     0
 10
4.15278
 20
7.57639
 30
0.0
 11
4.26346
 21
7.43608
 31
0.0
  0
LINE
  8
0
 62
     0
 10
4.26346
 20
7.43608
 30
0.0
 11
4.35938
 21
7.28256
 31
0.0
  0
LINE
  8
0
 62
     0
 10
4.35938
 20
7.28256
 30
0.0
 11
4.44054
 21
7.11578
 31
0.0
  0
LINE
  8
0
 62
     0
 10
4.44054
 20
7.11578
 30
0.0
 11
4.50694
 21
6.93576
 31
0.0
  0
LINE
  8
0
 62
     0
 10
4.50694
 20
6.93576
 30
0.0
 11
4.5586
 21
6.74251
 31
0.0
  0
LINE
  8
0
 62
     0
 10
4.5586
 20
6.74251
 30
0.0
 11
4.59549
 21
6.53603
 31
0.0
  0
LINE
  8
0
 62
     0
 10
4.59549
 20
6.53603
 30
0.0
 11
4.61762
 21
6.31629
 31
0.0
  0
LINE
  8
0
 62
     0
 10
4.61762
 20
6.31629
 30
0.0
 11
4.625
 21
6.08333
 31
0.0
  0
LINE
  8
0
 62
     0
 10
4.625
 20
6.08333
 30
0.0
 11
4.61621
 21
5.84033
 31
0.0
  0
LINE
  8
0
 62
     0
 10
4.61621
 20
5.84033
 30
0.0
 11
4.58985
 21
5.61117
 31
0.0
  0
LINE
  8
0
 62
     0
 10
4.58985
 20
5.61117
 30
0.0
 11
4.5459
 21
5.39589
 31
0.0
  0
LINE
  8
0
 62
     0
 10
4.5459
 20
5.39589
 30
0.0
 11
4.48438
 21
5.1945
 31
0.0
  0
LINE
  8
0
 62
     0
 10
4.48438
 20
5.1945
 30
0.0
 11
4.40528
 21
5.007
 31
0.0
  0
LINE
  8
0
 62
     0
 10
4.40528
 20
5.007
 30
0.0
 11
4.3086
 21
4.83339
 31
0.0
  0
LINE
  8
0
 62
     0
 10
4.3086
 20
4.83339
 30
0.0
 11
4.19433
 21
4.67367
 31
0.0
  0
LINE
  8
0
 62
     0
 10
4.19433
 20
4.67367
 30
0.0
 11
4.0625
 21
4.52778
 31
0.0
  0
LINE
  8
0
 62
     0
 10
4.0625
 20
4.52778
 30
0.0
 11
3.91504
 21
4.39757
 31
0.0
  0
LINE
  8
0
 62
     0
 10
3.91504
 20
4.39757
 30
0.0
 11
3.7539
 21
4.28472
 31
0.0
  0
LINE
  8
0
 62
     0
 10
3.7539
 20
4.28472
 30
0.0
 11
3.5791
 21
4.18924
 31
0.0
  0
LINE
  8
0
 62
     0
 10
3.5791
 20
4.18924
 30
0.0
 11
3.39063
 21
4.11111
 31
0.0
  0
LINE
  8
0
 62
     0
 10
3.39063
 20
4.11111
 30
0.0
 11
3.18847
 21
4.05035
 31
0.0
  0
LINE
  8
0
 62
     0
 10
3.18847
 20
4.05035
 30
0.0
 11
2.97265
 21
4.00694
 31
0.0
  0
LINE
  8
0
 62
     0
 10
2.97265
 20
4.00694
 30
0.0
 11
2.74317
 21
3.9809
 31
0.0
  0
LINE
  8
0
 62
     0
 10
2.74317
 20
3.9809
 30
0.0
 11
2.5
 21
3.97222
 31
0.0
  0
LINE
  8
0
 62
     0
 10
2.5
 20
3.97222
 30
0.0
 11
2.11714
 21
3.99522
 31
0.0
  0
LINE
  8
0
 62
     0
 10
2.11714
 20
3.99522
 30
0.0
 11
1.77425
 21
4.06424
 31
0.0
  0
LINE
  8
0
 62
     0
 10
1.77425
 20
4.06424
 30
0.0
 11
1.47131
 21
4.17925
 31
0.0
  0
LINE
  8
0
 62
     0
 10
1.47131
 20
4.17925
 30
0.0
 11
1.20833
 21
4.34028
 31
0.0
  0
LINE
  8
0
 62
     0
 10
1.20833
 20
4.34028
 30
0.0
 11
0.99566
 21
4.54303
 31
0.0
  0
LINE
  8
0
 62
     0
 10
0.99566
 20
4.54303
 30
0.0
 11
0.84375
 21
4.78304
 31
0.0
  0
LINE
  8
0
 62
     0
 10
0.84375
 20
4.78304
 30
0.0
 11
0.752604
 21
5.06039
 31
0.0
  0
LINE
  8
0
 62
     0
 10
0.752604
 20
5.06039
 30
0.0
 11
0.722222
 21
5.375
 31
0.0
  0
LINE
  8
0
 62
     0
 10
0.722222
 20
5.375
 30
0.0
 11
1.48611
 21
5.375
 31
0.0
  0
ENDSEC
  0
EOF
