  0
SECTION
  2
HEADER
  9
$ACADVER
  1
AC1009
  9
$EXTMIN
 10
0.0
 20
0.0
 30
0.0
  9
$EXTMAX
 10
1000.0
 20
1000.0
 30
0.0
  9
$FILLMODE
 70
 0
  9
$SPLFRAME
 70
 1
  0
ENDSEC
  0
SECTION
  2
TABLES
  0
TABLE
  2
LAYER
 70
1
  0
LAYER
  2
0
 70
     0
 62
     7
  6
CONTINUOUS
  0
ENDTAB
  0
ENDSEC
  0
SECTION
  2
ENTITIES
  0
LINE
  8
0
 62
     0
 10
0.486111
 20
1.51389
 30
0.0
 11
0.932238
 21
1.30382
 31
0.0
  0
LINE
  8
0
 62
     0
 10
0.932238
 20
1.30382
 30
0.0
 11
1.38194
 21
1.14583
 31
0.0
  0
LINE
  8
0
 62
     0
 10
1.38194
 20
1.14583
 30
0.0
 11
1.85243
 21
1.04693
 31
0.0
  0
LINE
  8
0
 62
     0
 10
1.85243
 20
1.04693
 30
0.0
 11
2.36111
 21
1.01389
 31
0.0
  0
LINE
  8
0
 62
     0
 10
2.36111
 20
1.01389
 30
0.0
 11
2.69706
 21
1.04823
 31
0.0
  0
LINE
  8
0
 62
     0
 10
2.69706
 20
1.04823
 30
0.0
 11
2.99653
 21
1.1511
 31
0.0
  0
LINE
  8
0
 62
     0
 10
2.99653
 20
1.1511
 30
0.0
 11
3.25956
 21
1.32254
 31
0.0
  0
LINE
  8
0
 62
     0
 10
3.25956
 20
1.32254
 30
0.0
 11
3.48611
 21
1.5625
 31
0.0
  0
LINE
  8
0
 62
     0
 10
3.48611
 20
1.5625
 30
0.0
 11
3.58376
 21
1.70736
 31
0.0
  0
LINE
  8
0
 62
     0
 10
3.58376
 20
1.70736
 30
0.0
 11
3.6684
 21
1.86762
 31
0.0
  0
LINE
  8
0
 62
     0
 10
3.6684
 20
1.86762
 30
0.0
 11
3.74001
 21
2.04329
 31
0.0
  0
LINE
  8
0
 62
     0
 10
3.74001
 20
2.04329
 30
0.0
 11
3.79861
 21
2.23438
 31
0.0
  0
LINE
  8
0
 62
     0
 10
3.79861
 20
2.23438
 30
0.0
 11
3.84418
 21
2.44086
 31
0.0
  0
LINE
  8
0
 62
     0
 10
3.84418
 20
2.44086
 30
0.0
 11
3.87674
 21
2.66276
 31
0.0
  0
LINE
  8
0
 62
     0
 10
3.87674
 20
2.66276
 30
0.0
 11
3.89626
 21
2.90007
 31
0.0
  0
LINE
  8
0
 62
     0
 10
3.89626
 20
2.90007
 30
0.0
 11
3.90278
 21
3.15278
 31
0.0
  0
LINE
  8
0
 62
     0
 10
3.90278
 20
3.15278
 30
0.0
 11
3.90278
 21
9.02778
 31
0.0
  0
LINE
  8
0
 62
     0
 10
3.90278
 20
9.02778
 30
0.0
 11
2.36111
 21
9.02778
 31
0.0
  0
LINE
  8
0
 62
     0
 10
2.36111
 20
9.02778
 30
0.0
 11
2.36111
 21
10.1389
 31
0.0
  0
LINE
  8
0
 62
     0
 10
2.36111
 20
10.1389
 30
0.0
 11
5.09722
 21
10.1389
 31
0.0
  0
LINE
  8
0
 62
     0
 10
5.09722
 20
10.1389
 30
0.0
 11
5.09722
 21
3.02778
 31
0.0
  0
LINE
  8
0
 62
     0
 10
5.09722
 20
3.02778
 30
0.0
 11
5.08599
 21
2.6415
 31
0.0
  0
LINE
  8
0
 62
     0
 10
5.08599
 20
2.6415
 30
0.0
 11
5.05246
 21
2.28125
 31
0.0
  0
LINE
  8
0
 62
     0
 10
5.05246
 20
2.28125
 30
0.0
 11
4.99658
 21
1.94706
 31
0.0
  0
LINE
  8
0
 62
     0
 10
4.99658
 20
1.94706
 30
0.0
 11
4.91835
 21
1.63889
 31
0.0
  0
LINE
  8
0
 62
     0
 10
4.91835
 20
1.63889
 30
0.0
 11
4.81776
 21
1.35682
 31
0.0
  0
LINE
  8
0
 62
     0
 10
4.81776
 20
1.35682
 30
0.0
 11
4.69482
 21
1.10075
 31
0.0
  0
LINE
  8
0
 62
     0
 10
4.69482
 20
1.10075
 30
0.0
 11
4.54953
 21
0.870714
 31
0.0
  0
LINE
  8
0
 62
     0
 10
4.54953
 20
0.870714
 30
0.0
 11
4.38194
 21
0.666667
 31
0.0
  0
LINE
  8
0
 62
     0
 10
4.38194
 20
0.666667
 30
0.0
 11
4.1926
 21
0.487631
 31
0.0
  0
LINE
  8
0
 62
     0
 10
4.1926
 20
0.487631
 30
0.0
 11
3.98221
 21
0.332465
 31
0.0
  0
LINE
  8
0
 62
     0
 10
3.98221
 20
0.332465
 30
0.0
 11
3.75076
 21
0.201172
 31
0.0
  0
LINE
  8
0
 62
     0
 10
3.75076
 20
0.201172
 30
0.0
 11
3.49826
 21
0.09375
 31
0.0
  0
LINE
  8
0
 62
     0
 10
3.49826
 20
0.09375
 30
0.0
 11
3.22472
 21
0.0101997
 31
0.0
  0
LINE
  8
0
 62
     0
 10
3.22472
 20
0.0101997
 30
0.0
 11
2.93012
 21
-0.0494792
 31
0.0
  0
LINE
  8
0
 62
     0
 10
2.93012
 20
-0.0494792
 30
0.0
 11
2.61447
 21
-0.0852864
 31
0.0
  0
LINE
  8
0
 62
     0
 10
2.61447
 20
-0.0852864
 30
0.0
 11
2.27778
 21
-0.0972222
 31
0.0
  0
LINE
  8
0
 62
     0
 10
2.27778
 20
-0.0972222
 30
0.0
 11
1.78039
 21
-0.0729167
 31
0.0
  0
LINE
  8
0
 62
     0
 10
1.78039
 20
-0.0729167
 30
0.0
 11
1.31597
 21
-0
 31
0.0
  0
LINE
  8
0
 62
     0
 10
1.31597
 20
-0
 30
0.0
 11
0.884549
 21
0.121528
 31
0.0
  0
LINE
  8
0
 62
     0
 10
0.884549
 20
0.121528
 30
0.0
 11
0.486111
 21
0.291667
 31
0.0
  0
LINE
  8
0
 62
     0
 10
0.486111
 20
0.291667
 30
0.0
 11
0.486111
 21
1.51389
 31
0.0
  0
ENDSEC
  0
EOF
