  0
SECTION
  2
HEADER
  9
$ACADVER
  1
AC1009
  9
$EXTMIN
 10
0.0
 20
0.0
 30
0.0
  9
$EXTMAX
 10
1000.0
 20
1000.0
 30
0.0
  9
$FILLMODE
 70
 0
  9
$SPLFRAME
 70
 1
  0
ENDSEC
  0
SECTION
  2
TABLES
  0
TABLE
  2
LAYER
 70
1
  0
LAYER
  2
0
 70
     0
 62
     7
  6
CONTINUOUS
  0
ENDTAB
  0
ENDSEC
  0
SECTION
  2
ENTITIES
  0
LINE
  8
0
 62
     0
 10
2.63889
 20
9.47222
 30
0.0
 11
2.40625
 21
9.45225
 31
0.0
  0
LINE
  8
0
 62
     0
 10
2.40625
 20
9.45225
 30
0.0
 11
2.19444
 21
9.39236
 31
0.0
  0
LINE
  8
0
 62
     0
 10
2.19444
 20
9.39236
 30
0.0
 11
2.00342
 21
9.29253
 31
0.0
  0
LINE
  8
0
 62
     0
 10
2.00342
 20
9.29253
 30
0.0
 11
1.83333
 21
9.15278
 31
0.0
  0
LINE
  8
0
 62
     0
 10
1.83333
 20
9.15278
 30
0.0
 11
1.69358
 21
8.98003
 31
0.0
  0
LINE
  8
0
 62
     0
 10
1.69358
 20
8.98003
 30
0.0
 11
1.59375
 21
8.78125
 31
0.0
  0
LINE
  8
0
 62
     0
 10
1.59375
 20
8.78125
 30
0.0
 11
1.53386
 21
8.55642
 31
0.0
  0
LINE
  8
0
 62
     0
 10
1.53386
 20
8.55642
 30
0.0
 11
1.51389
 21
8.30556
 31
0.0
  0
LINE
  8
0
 62
     0
 10
1.51389
 20
8.30556
 30
0.0
 11
1.53033
 21
8.0695
 31
0.0
  0
LINE
  8
0
 62
     0
 10
1.53033
 20
8.0695
 30
0.0
 11
1.57981
 21
7.84728
 31
0.0
  0
LINE
  8
0
 62
     0
 10
1.57981
 20
7.84728
 30
0.0
 11
1.66228
 21
7.63894
 31
0.0
  0
LINE
  8
0
 62
     0
 10
1.66228
 20
7.63894
 30
0.0
 11
1.77778
 21
7.44444
 31
0.0
  0
LINE
  8
0
 62
     0
 10
1.77778
 20
7.44444
 30
0.0
 11
1.92969
 21
7.28039
 31
0.0
  0
LINE
  8
0
 62
     0
 10
1.92969
 20
7.28039
 30
0.0
 11
2.12153
 21
7.16319
 31
0.0
  0
LINE
  8
0
 62
     0
 10
2.12153
 20
7.16319
 30
0.0
 11
2.35331
 21
7.09289
 31
0.0
  0
LINE
  8
0
 62
     0
 10
2.35331
 20
7.09289
 30
0.0
 11
2.625
 21
7.06944
 31
0.0
  0
LINE
  8
0
 62
     0
 10
2.625
 20
7.06944
 30
0.0
 11
2.88628
 21
7.09337
 31
0.0
  0
LINE
  8
0
 62
     0
 10
2.88628
 20
7.09337
 30
0.0
 11
3.11458
 21
7.16499
 31
0.0
  0
LINE
  8
0
 62
     0
 10
3.11458
 20
7.16499
 30
0.0
 11
3.30989
 21
7.28435
 31
0.0
  0
LINE
  8
0
 62
     0
 10
3.30989
 20
7.28435
 30
0.0
 11
3.47222
 21
7.45139
 31
0.0
  0
LINE
  8
0
 62
     0
 10
3.47222
 20
7.45139
 30
0.0
 11
3.59983
 21
7.64714
 31
0.0
  0
LINE
  8
0
 62
     0
 10
3.59983
 20
7.64714
 30
0.0
 11
3.69097
 21
7.85243
 31
0.0
  0
LINE
  8
0
 62
     0
 10
3.69097
 20
7.85243
 30
0.0
 11
3.74567
 21
8.06728
 31
0.0
  0
LINE
  8
0
 62
     0
 10
3.74567
 20
8.06728
 30
0.0
 11
3.76389
 21
8.29167
 31
0.0
  0
LINE
  8
0
 62
     0
 10
3.76389
 20
8.29167
 30
0.0
 11
3.74696
 21
8.52604
 31
0.0
  0
LINE
  8
0
 62
     0
 10
3.74696
 20
8.52604
 30
0.0
 11
3.69618
 21
8.74306
 31
0.0
  0
LINE
  8
0
 62
     0
 10
3.69618
 20
8.74306
 30
0.0
 11
3.61154
 21
8.94271
 31
0.0
  0
LINE
  8
0
 62
     0
 10
3.61154
 20
8.94271
 30
0.0
 11
3.49306
 21
9.125
 31
0.0
  0
LINE
  8
0
 62
     0
 10
3.49306
 20
9.125
 30
0.0
 11
3.33811
 21
9.27696
 31
0.0
  0
LINE
  8
0
 62
     0
 10
3.33811
 20
9.27696
 30
0.0
 11
3.1441
 21
9.38547
 31
0.0
  0
LINE
  8
0
 62
     0
 10
3.1441
 20
9.38547
 30
0.0
 11
2.91103
 21
9.45057
 31
0.0
  0
LINE
  8
0
 62
     0
 10
2.91103
 20
9.45057
 30
0.0
 11
2.63889
 21
9.47222
 31
0.0
  0
LINE
  8
0
 62
     0
 10
2.63889
 20
6.33333
 30
0.0
 11
2.22353
 21
6.36638
 31
0.0
  0
LINE
  8
0
 62
     0
 10
2.22353
 20
6.36638
 30
0.0
 11
1.85243
 21
6.46533
 31
0.0
  0
LINE
  8
0
 62
     0
 10
1.85243
 20
6.46533
 30
0.0
 11
1.52561
 21
6.63026
 31
0.0
  0
LINE
  8
0
 62
     0
 10
1.52561
 20
6.63026
 30
0.0
 11
1.24306
 21
6.86111
 31
0.0
  0
LINE
  8
0
 62
     0
 10
1.24306
 20
6.86111
 30
0.0
 11
1.12098
 21
6.99914
 31
0.0
  0
LINE
  8
0
 62
     0
 10
1.12098
 20
6.99914
 30
0.0
 11
1.01519
 21
7.14931
 31
0.0
  0
LINE
  8
0
 62
     0
 10
1.01519
 20
7.14931
 30
0.0
 11
0.925672
 21
7.31164
 31
0.0
  0
LINE
  8
0
 62
     0
 10
0.925672
 20
7.31164
 30
0.0
 11
0.852431
 21
7.48611
 31
0.0
  0
LINE
  8
0
 62
     0
 10
0.852431
 20
7.48611
 30
0.0
 11
0.795464
 21
7.67275
 31
0.0
  0
LINE
  8
0
 62
     0
 10
0.795464
 20
7.67275
 30
0.0
 11
0.754775
 21
7.87153
 31
0.0
  0
LINE
  8
0
 62
     0
 10
0.754775
 20
7.87153
 30
0.0
 11
0.73036
 21
8.08247
 31
0.0
  0
LINE
  8
0
 62
     0
 10
0.73036
 20
8.08247
 30
0.0
 11
0.722222
 21
8.30556
 31
0.0
  0
LINE
  8
0
 62
     0
 10
0.722222
 20
8.30556
 30
0.0
 11
0.732639
 21
8.553
 31
0.0
  0
LINE
  8
0
 62
     0
 10
0.732639
 20
8.553
 30
0.0
 11
0.763889
 21
8.78131
 31
0.0
  0
LINE
  8
0
 62
     0
 10
0.763889
 20
8.78131
 30
0.0
 11
0.815972
 21
8.9905
 31
0.0
  0
LINE
  8
0
 62
     0
 10
0.815972
 20
8.9905
 30
0.0
 11
0.888889
 21
9.18056
 31
0.0
  0
LINE
  8
0
 62
     0
 10
0.888889
 20
9.18056
 30
0.0
 11
0.978733
 21
9.35286
 31
0.0
  0
LINE
  8
0
 62
     0
 10
0.978733
 20
9.35286
 30
0.0
 11
1.0816
 21
9.50868
 31
0.0
  0
LINE
  8
0
 62
     0
 10
1.0816
 20
9.50868
 30
0.0
 11
1.19748
 21
9.648
 31
0.0
  0
LINE
  8
0
 62
     0
 10
1.19748
 20
9.648
 30
0.0
 11
1.32639
 21
9.77083
 31
0.0
  0
LINE
  8
0
 62
     0
 10
1.32639
 20
9.77083
 30
0.0
 11
1.61458
 21
9.96875
 31
0.0
  0
LINE
  8
0
 62
     0
 10
1.61458
 20
9.96875
 30
0.0
 11
1.9375
 21
10.1042
 31
0.0
  0
LINE
  8
0
 62
     0
 10
1.9375
 20
10.1042
 30
0.0
 11
2.28299
 21
10.1823
 31
0.0
  0
LINE
  8
0
 62
     0
 10
2.28299
 20
10.1823
 30
0.0
 11
2.63889
 21
10.2083
 31
0.0
  0
LINE
  8
0
 62
     0
 10
2.63889
 20
10.2083
 30
0.0
 11
3.0191
 21
10.1823
 31
0.0
  0
LINE
  8
0
 62
     0
 10
3.0191
 20
10.1823
 30
0.0
 11
3.38194
 21
10.1042
 31
0.0
  0
LINE
  8
0
 62
     0
 10
3.38194
 20
10.1042
 30
0.0
 11
3.71349
 21
9.96875
 31
0.0
  0
LINE
  8
0
 62
     0
 10
3.71349
 20
9.96875
 30
0.0
 11
4
 21
9.77083
 31
0.0
  0
LINE
  8
0
 62
     0
 10
4
 20
9.77083
 30
0.0
 11
4.125
 21
9.64763
 31
0.0
  0
LINE
  8
0
 62
     0
 10
4.125
 20
9.64763
 30
0.0
 11
4.23611
 21
9.507
 31
0.0
  0
LINE
  8
0
 62
     0
 10
4.23611
 20
9.507
 30
0.0
 11
4.33333
 21
9.34901
 31
0.0
  0
LINE
  8
0
 62
     0
 10
4.33333
 20
9.34901
 30
0.0
 11
4.41667
 21
9.17361
 31
0.0
  0
LINE
  8
0
 62
     0
 10
4.41667
 20
9.17361
 30
0.0
 11
4.48346
 21
8.9796
 31
0.0
  0
LINE
  8
0
 62
     0
 10
4.48346
 20
8.9796
 30
0.0
 11
4.53119
 21
8.76563
 31
0.0
  0
LINE
  8
0
 62
     0
 10
4.53119
 20
8.76563
 30
0.0
 11
4.55985
 21
8.53168
 31
0.0
  0
LINE
  8
0
 62
     0
 10
4.55985
 20
8.53168
 30
0.0
 11
4.56944
 21
8.27778
 31
0.0
  0
LINE
  8
0
 62
     0
 10
4.56944
 20
8.27778
 30
0.0
 11
4.5434
 21
7.97396
 31
0.0
  0
LINE
  8
0
 62
     0
 10
4.5434
 20
7.97396
 30
0.0
 11
4.46528
 21
7.64583
 31
0.0
  0
LINE
  8
0
 62
     0
 10
4.46528
 20
7.64583
 30
0.0
 11
4.35243
 21
7.3316
 31
0.0
  0
LINE
  8
0
 62
     0
 10
4.35243
 20
7.3316
 30
0.0
 11
4.22222
 21
7.06944
 31
0.0
  0
LINE
  8
0
 62
     0
 10
4.22222
 20
7.06944
 30
0.0
 11
2.52778
 21
4.06944
 31
0.0
  0
LINE
  8
0
 62
     0
 10
2.52778
 20
4.06944
 30
0.0
 11
1.65278
 21
4.06944
 31
0.0
  0
LINE
  8
0
 62
     0
 10
1.65278
 20
4.06944
 30
0.0
 11
3.08333
 21
6.47222
 31
0.0
  0
LINE
  8
0
 62
     0
 10
3.08333
 20
6.47222
 30
0.0
 11
3
 21
6.43756
 31
0.0
  0
LINE
  8
0
 62
     0
 10
3
 20
6.43756
 30
0.0
 11
2.88889
 21
6.38889
 31
0.0
  0
LINE
  8
0
 62
     0
 10
2.88889
 20
6.38889
 30
0.0
 11
2.76389
 21
6.34722
 31
0.0
  0
LINE
  8
0
 62
     0
 10
2.76389
 20
6.34722
 30
0.0
 11
2.63889
 21
6.33333
 31
0.0
  0
ENDSEC
  0
EOF
