  0
SECTION
  2
HEADER
  9
$ACADVER
  1
AC1009
  9
$EXTMIN
 10
0.0
 20
0.0
 30
0.0
  9
$EXTMAX
 10
1000.0
 20
1000.0
 30
0.0
  9
$FILLMODE
 70
 0
  9
$SPLFRAME
 70
 1
  0
ENDSEC
  0
SECTION
  2
TABLES
  0
TABLE
  2
LAYER
 70
1
  0
LAYER
  2
0
 70
     0
 62
     7
  6
CONTINUOUS
  0
ENDTAB
  0
ENDSEC
  0
SECTION
  2
ENTITIES
  0
LINE
  8
0
 62
     0
 10
3.09722
 20
5.45833
 30
0.0
 11
3.3094
 21
5.46793
 31
0.0
  0
LINE
  8
0
 62
     0
 10
3.3094
 20
5.46793
 30
0.0
 11
3.50168
 21
5.49658
 31
0.0
  0
LINE
  8
0
 62
     0
 10
3.50168
 20
5.49658
 30
0.0
 11
3.67399
 21
5.54432
 31
0.0
  0
LINE
  8
0
 62
     0
 10
3.67399
 20
5.54432
 30
0.0
 11
3.82639
 21
5.61111
 31
0.0
  0
LINE
  8
0
 62
     0
 10
3.82639
 20
5.61111
 30
0.0
 11
3.96094
 21
5.69444
 31
0.0
  0
LINE
  8
0
 62
     0
 10
3.96094
 20
5.69444
 30
0.0
 11
4.07986
 21
5.79167
 31
0.0
  0
LINE
  8
0
 62
     0
 10
4.07986
 20
5.79167
 30
0.0
 11
4.18311
 21
5.90278
 31
0.0
  0
LINE
  8
0
 62
     0
 10
4.18311
 20
5.90278
 30
0.0
 11
4.27083
 21
6.02778
 31
0.0
  0
LINE
  8
0
 62
     0
 10
4.27083
 20
6.02778
 30
0.0
 11
4.40625
 21
6.31771
 31
0.0
  0
LINE
  8
0
 62
     0
 10
4.40625
 20
6.31771
 30
0.0
 11
4.49306
 21
6.65972
 31
0.0
  0
LINE
  8
0
 62
     0
 10
4.49306
 20
6.65972
 30
0.0
 11
4.53993
 21
7.0434
 31
0.0
  0
LINE
  8
0
 62
     0
 10
4.53993
 20
7.0434
 30
0.0
 11
4.55556
 21
7.45833
 31
0.0
  0
LINE
  8
0
 62
     0
 10
4.55556
 20
7.45833
 30
0.0
 11
4.53993
 21
7.84207
 31
0.0
  0
LINE
  8
0
 62
     0
 10
4.53993
 20
7.84207
 30
0.0
 11
4.49306
 21
8.21528
 31
0.0
  0
LINE
  8
0
 62
     0
 10
4.49306
 20
8.21528
 30
0.0
 11
4.40625
 21
8.56082
 31
0.0
  0
LINE
  8
0
 62
     0
 10
4.40625
 20
8.56082
 30
0.0
 11
4.27083
 21
8.86111
 31
0.0
  0
LINE
  8
0
 62
     0
 10
4.27083
 20
8.86111
 30
0.0
 11
4.18311
 21
8.99306
 31
0.0
  0
LINE
  8
0
 62
     0
 10
4.18311
 20
8.99306
 30
0.0
 11
4.07981
 21
9.11111
 31
0.0
  0
LINE
  8
0
 62
     0
 10
4.07981
 20
9.11111
 30
0.0
 11
3.96089
 21
9.21528
 31
0.0
  0
LINE
  8
0
 62
     0
 10
3.96089
 20
9.21528
 30
0.0
 11
3.82639
 21
9.30556
 31
0.0
  0
LINE
  8
0
 62
     0
 10
3.82639
 20
9.30556
 30
0.0
 11
3.67486
 21
9.37847
 31
0.0
  0
LINE
  8
0
 62
     0
 10
3.67486
 20
9.37847
 30
0.0
 11
3.50521
 21
9.43056
 31
0.0
  0
LINE
  8
0
 62
     0
 10
3.50521
 20
9.43056
 30
0.0
 11
3.31728
 21
9.46181
 31
0.0
  0
LINE
  8
0
 62
     0
 10
3.31728
 20
9.46181
 30
0.0
 11
3.11111
 21
9.47222
 31
0.0
  0
LINE
  8
0
 62
     0
 10
3.11111
 20
9.47222
 30
0.0
 11
2.89887
 21
9.46229
 31
0.0
  0
LINE
  8
0
 62
     0
 10
2.89887
 20
9.46229
 30
0.0
 11
2.7066
 21
9.43235
 31
0.0
  0
LINE
  8
0
 62
     0
 10
2.7066
 20
9.43235
 30
0.0
 11
2.53429
 21
9.38243
 31
0.0
  0
LINE
  8
0
 62
     0
 10
2.53429
 20
9.38243
 30
0.0
 11
2.38194
 21
9.3125
 31
0.0
  0
LINE
  8
0
 62
     0
 10
2.38194
 20
9.3125
 30
0.0
 11
2.24735
 21
9.22526
 31
0.0
  0
LINE
  8
0
 62
     0
 10
2.24735
 20
9.22526
 30
0.0
 11
2.12847
 21
9.12326
 31
0.0
  0
LINE
  8
0
 62
     0
 10
2.12847
 20
9.12326
 30
0.0
 11
2.02517
 21
9.00651
 31
0.0
  0
LINE
  8
0
 62
     0
 10
2.02517
 20
9.00651
 30
0.0
 11
1.9375
 21
8.875
 31
0.0
  0
LINE
  8
0
 62
     0
 10
1.9375
 20
8.875
 30
0.0
 11
1.80203
 21
8.57639
 31
0.0
  0
LINE
  8
0
 62
     0
 10
1.80203
 20
8.57639
 30
0.0
 11
1.71528
 21
8.23611
 31
0.0
  0
LINE
  8
0
 62
     0
 10
1.71528
 20
8.23611
 30
0.0
 11
1.6684
 21
7.86117
 31
0.0
  0
LINE
  8
0
 62
     0
 10
1.6684
 20
7.86117
 30
0.0
 11
1.65278
 21
7.45833
 31
0.0
  0
LINE
  8
0
 62
     0
 10
1.65278
 20
7.45833
 30
0.0
 11
1.66661
 21
7.05388
 31
0.0
  0
LINE
  8
0
 62
     0
 10
1.66661
 20
7.05388
 30
0.0
 11
1.70833
 21
6.67361
 31
0.0
  0
LINE
  8
0
 62
     0
 10
1.70833
 20
6.67361
 30
0.0
 11
1.78993
 21
6.32986
 31
0.0
  0
LINE
  8
0
 62
     0
 10
1.78993
 20
6.32986
 30
0.0
 11
1.92361
 21
6.03472
 31
0.0
  0
LINE
  8
0
 62
     0
 10
1.92361
 20
6.03472
 30
0.0
 11
2.01128
 21
5.90668
 31
0.0
  0
LINE
  8
0
 62
     0
 10
2.01128
 20
5.90668
 30
0.0
 11
2.11458
 21
5.7934
 31
0.0
  0
LINE
  8
0
 62
     0
 10
2.11458
 20
5.7934
 30
0.0
 11
2.23346
 21
5.69488
 31
0.0
  0
LINE
  8
0
 62
     0
 10
2.23346
 20
5.69488
 30
0.0
 11
2.36806
 21
5.61111
 31
0.0
  0
LINE
  8
0
 62
     0
 10
2.36806
 20
5.61111
 30
0.0
 11
2.5204
 21
5.54432
 31
0.0
  0
LINE
  8
0
 62
     0
 10
2.5204
 20
5.54432
 30
0.0
 11
2.69271
 21
5.49658
 31
0.0
  0
LINE
  8
0
 62
     0
 10
2.69271
 20
5.49658
 30
0.0
 11
2.88499
 21
5.46793
 31
0.0
  0
LINE
  8
0
 62
     0
 10
2.88499
 20
5.46793
 30
0.0
 11
3.09722
 21
5.45833
 31
0.0
  0
LINE
  8
0
 62
     0
 10
14.9583
 20
0.666667
 30
0.0
 11
15.1644
 21
0.676269
 31
0.0
  0
LINE
  8
0
 62
     0
 10
15.1644
 20
0.676269
 30
0.0
 11
15.3525
 21
0.704915
 31
0.0
  0
LINE
  8
0
 62
     0
 10
15.3525
 20
0.704915
 30
0.0
 11
15.5221
 21
0.752658
 31
0.0
  0
LINE
  8
0
 62
     0
 10
15.5221
 20
0.752658
 30
0.0
 11
15.6736
 21
0.819444
 31
0.0
  0
LINE
  8
0
 62
     0
 10
15.6736
 20
0.819444
 30
0.0
 11
15.8082
 21
0.902778
 31
0.0
  0
LINE
  8
0
 62
     0
 10
15.8082
 20
0.902778
 30
0.0
 11
15.9271
 21
1
 31
0.0
  0
LINE
  8
0
 62
     0
 10
15.9271
 20
1
 30
0.0
 11
16.0303
 21
1.11111
 31
0.0
  0
LINE
  8
0
 62
     0
 10
16.0303
 20
1.11111
 30
0.0
 11
16.1181
 21
1.23611
 31
0.0
  0
LINE
  8
0
 62
     0
 10
16.1181
 20
1.23611
 30
0.0
 11
16.2535
 21
1.52604
 31
0.0
  0
LINE
  8
0
 62
     0
 10
16.2535
 20
1.52604
 30
0.0
 11
16.3403
 21
1.86806
 31
0.0
  0
LINE
  8
0
 62
     0
 10
16.3403
 20
1.86806
 30
0.0
 11
16.3872
 21
2.24832
 31
0.0
  0
LINE
  8
0
 62
     0
 10
16.3872
 20
2.24832
 30
0.0
 11
16.4028
 21
2.65278
 31
0.0
  0
LINE
  8
0
 62
     0
 10
16.4028
 20
2.65278
 30
0.0
 11
16.3889
 21
3.04688
 31
0.0
  0
LINE
  8
0
 62
     0
 10
16.3889
 20
3.04688
 30
0.0
 11
16.3472
 21
3.42361
 31
0.0
  0
LINE
  8
0
 62
     0
 10
16.3472
 20
3.42361
 30
0.0
 11
16.2674
 21
3.76915
 31
0.0
  0
LINE
  8
0
 62
     0
 10
16.2674
 20
3.76915
 30
0.0
 11
16.1389
 21
4.06944
 31
0.0
  0
LINE
  8
0
 62
     0
 10
16.1389
 20
4.06944
 30
0.0
 11
16.0543
 21
4.20139
 31
0.0
  0
LINE
  8
0
 62
     0
 10
16.0543
 20
4.20139
 30
0.0
 11
15.9532
 21
4.31944
 31
0.0
  0
LINE
  8
0
 62
     0
 10
15.9532
 20
4.31944
 30
0.0
 11
15.8356
 21
4.42361
 31
0.0
  0
LINE
  8
0
 62
     0
 10
15.8356
 20
4.42361
 30
0.0
 11
15.7014
 21
4.51389
 31
0.0
  0
LINE
  8
0
 62
     0
 10
15.7014
 20
4.51389
 30
0.0
 11
15.5481
 21
4.58681
 31
0.0
  0
LINE
  8
0
 62
     0
 10
15.5481
 20
4.58681
 30
0.0
 11
15.3732
 21
4.63889
 31
0.0
  0
LINE
  8
0
 62
     0
 10
15.3732
 20
4.63889
 30
0.0
 11
15.1765
 21
4.67014
 31
0.0
  0
LINE
  8
0
 62
     0
 10
15.1765
 20
4.67014
 30
0.0
 11
14.9583
 21
4.68056
 31
0.0
  0
LINE
  8
0
 62
     0
 10
14.9583
 20
4.68056
 30
0.0
 11
14.7461
 21
4.67063
 31
0.0
  0
LINE
  8
0
 62
     0
 10
14.7461
 20
4.67063
 30
0.0
 11
14.5539
 21
4.64068
 31
0.0
  0
LINE
  8
0
 62
     0
 10
14.5539
 20
4.64068
 30
0.0
 11
14.3815
 21
4.59076
 31
0.0
  0
LINE
  8
0
 62
     0
 10
14.3815
 20
4.59076
 30
0.0
 11
14.2292
 21
4.52083
 31
0.0
  0
LINE
  8
0
 62
     0
 10
14.2292
 20
4.52083
 30
0.0
 11
14.0946
 21
4.4336
 31
0.0
  0
LINE
  8
0
 62
     0
 10
14.0946
 20
4.4336
 30
0.0
 11
13.9757
 21
4.3316
 31
0.0
  0
LINE
  8
0
 62
     0
 10
13.9757
 20
4.3316
 30
0.0
 11
13.8724
 21
4.21485
 31
0.0
  0
LINE
  8
0
 62
     0
 10
13.8724
 20
4.21485
 30
0.0
 11
13.7847
 21
4.08333
 31
0.0
  0
LINE
  8
0
 62
     0
 10
13.7847
 20
4.08333
 30
0.0
 11
13.6492
 21
3.78472
 31
0.0
  0
LINE
  8
0
 62
     0
 10
13.6492
 20
3.78472
 30
0.0
 11
13.5625
 21
3.44444
 31
0.0
  0
LINE
  8
0
 62
     0
 10
13.5625
 20
3.44444
 30
0.0
 11
13.5156
 21
3.0695
 31
0.0
  0
LINE
  8
0
 62
     0
 10
13.5156
 20
3.0695
 30
0.0
 11
13.5
 21
2.66667
 31
0.0
  0
LINE
  8
0
 62
     0
 10
13.5
 20
2.66667
 30
0.0
 11
13.5156
 21
2.26221
 31
0.0
  0
LINE
  8
0
 62
     0
 10
13.5156
 20
2.26221
 30
0.0
 11
13.5625
 21
1.88194
 31
0.0
  0
LINE
  8
0
 62
     0
 10
13.5625
 20
1.88194
 30
0.0
 11
13.6492
 21
1.53819
 31
0.0
  0
LINE
  8
0
 62
     0
 10
13.6492
 20
1.53819
 30
0.0
 11
13.7847
 21
1.24306
 31
0.0
  0
LINE
  8
0
 62
     0
 10
13.7847
 20
1.24306
 30
0.0
 11
13.8724
 21
1.11502
 31
0.0
  0
LINE
  8
0
 62
     0
 10
13.8724
 20
1.11502
 30
0.0
 11
13.9757
 21
1.00174
 31
0.0
  0
LINE
  8
0
 62
     0
 10
13.9757
 20
1.00174
 30
0.0
 11
14.0946
 21
0.903211
 31
0.0
  0
LINE
  8
0
 62
     0
 10
14.0946
 20
0.903211
 30
0.0
 11
14.2292
 21
0.819444
 31
0.0
  0
LINE
  8
0
 62
     0
 10
14.2292
 20
0.819444
 30
0.0
 11
14.3815
 21
0.752658
 31
0.0
  0
LINE
  8
0
 62
     0
 10
14.3815
 20
0.752658
 30
0.0
 11
14.5539
 21
0.704915
 31
0.0
  0
LINE
  8
0
 62
     0
 10
14.5539
 20
0.704915
 30
0.0
 11
14.7461
 21
0.676269
 31
0.0
  0
LINE
  8
0
 62
     0
 10
14.7461
 20
0.676269
 30
0.0
 11
14.9583
 21
0.666667
 31
0.0
  0
LINE
  8
0
 62
     0
 10
9.59722
 20
0.666667
 30
0.0
 11
9.80339
 21
0.676269
 31
0.0
  0
LINE
  8
0
 62
     0
 10
9.80339
 20
0.676269
 30
0.0
 11
9.99132
 21
0.704915
 31
0.0
  0
LINE
  8
0
 62
     0
 10
9.99132
 20
0.704915
 30
0.0
 11
10.161
 21
0.752658
 31
0.0
  0
LINE
  8
0
 62
     0
 10
10.161
 20
0.752658
 30
0.0
 11
10.3125
 21
0.819444
 31
0.0
  0
LINE
  8
0
 62
     0
 10
10.3125
 20
0.819444
 30
0.0
 11
10.4471
 21
0.902778
 31
0.0
  0
LINE
  8
0
 62
     0
 10
10.4471
 20
0.902778
 30
0.0
 11
10.566
 21
1
 31
0.0
  0
LINE
  8
0
 62
     0
 10
10.566
 20
1
 30
0.0
 11
10.6693
 21
1.11111
 31
0.0
  0
LINE
  8
0
 62
     0
 10
10.6693
 20
1.11111
 30
0.0
 11
10.7569
 21
1.23611
 31
0.0
  0
LINE
  8
0
 62
     0
 10
10.7569
 20
1.23611
 30
0.0
 11
10.8924
 21
1.52604
 31
0.0
  0
LINE
  8
0
 62
     0
 10
10.8924
 20
1.52604
 30
0.0
 11
10.9792
 21
1.86806
 31
0.0
  0
LINE
  8
0
 62
     0
 10
10.9792
 20
1.86806
 30
0.0
 11
11.026
 21
2.24832
 31
0.0
  0
LINE
  8
0
 62
     0
 10
11.026
 20
2.24832
 30
0.0
 11
11.0417
 21
2.65278
 31
0.0
  0
LINE
  8
0
 62
     0
 10
11.0417
 20
2.65278
 30
0.0
 11
11.0278
 21
3.04688
 31
0.0
  0
LINE
  8
0
 62
     0
 10
11.0278
 20
3.04688
 30
0.0
 11
10.9861
 21
3.42361
 31
0.0
  0
LINE
  8
0
 62
     0
 10
10.9861
 20
3.42361
 30
0.0
 11
10.9062
 21
3.76915
 31
0.0
  0
LINE
  8
0
 62
     0
 10
10.9062
 20
3.76915
 30
0.0
 11
10.7778
 21
4.06944
 31
0.0
  0
LINE
  8
0
 62
     0
 10
10.7778
 20
4.06944
 30
0.0
 11
10.6931
 21
4.20139
 31
0.0
  0
LINE
  8
0
 62
     0
 10
10.6931
 20
4.20139
 30
0.0
 11
10.592
 21
4.31944
 31
0.0
  0
LINE
  8
0
 62
     0
 10
10.592
 20
4.31944
 30
0.0
 11
10.4744
 21
4.42361
 31
0.0
  0
LINE
  8
0
 62
     0
 10
10.4744
 20
4.42361
 30
0.0
 11
10.3403
 21
4.51389
 31
0.0
  0
LINE
  8
0
 62
     0
 10
10.3403
 20
4.51389
 30
0.0
 11
10.187
 21
4.58681
 31
0.0
  0
LINE
  8
0
 62
     0
 10
10.187
 20
4.58681
 30
0.0
 11
10.0121
 21
4.63889
 31
0.0
  0
LINE
  8
0
 62
     0
 10
10.0121
 20
4.63889
 30
0.0
 11
9.81549
 21
4.67014
 31
0.0
  0
LINE
  8
0
 62
     0
 10
9.81549
 20
4.67014
 30
0.0
 11
9.59722
 21
4.68056
 31
0.0
  0
LINE
  8
0
 62
     0
 10
9.59722
 20
4.68056
 30
0.0
 11
9.38499
 21
4.67063
 31
0.0
  0
LINE
  8
0
 62
     0
 10
9.38499
 20
4.67063
 30
0.0
 11
9.19271
 21
4.64068
 31
0.0
  0
LINE
  8
0
 62
     0
 10
9.19271
 20
4.64068
 30
0.0
 11
9.0204
 21
4.59076
 31
0.0
  0
LINE
  8
0
 62
     0
 10
9.0204
 20
4.59076
 30
0.0
 11
8.86806
 21
4.52083
 31
0.0
  0
LINE
  8
0
 62
     0
 10
8.86806
 20
4.52083
 30
0.0
 11
8.73346
 21
4.4336
 31
0.0
  0
LINE
  8
0
 62
     0
 10
8.73346
 20
4.4336
 30
0.0
 11
8.61458
 21
4.3316
 31
0.0
  0
LINE
  8
0
 62
     0
 10
8.61458
 20
4.3316
 30
0.0
 11
8.51128
 21
4.21485
 31
0.0
  0
LINE
  8
0
 62
     0
 10
8.51128
 20
4.21485
 30
0.0
 11
8.42361
 21
4.08333
 31
0.0
  0
LINE
  8
0
 62
     0
 10
8.42361
 20
4.08333
 30
0.0
 11
8.28814
 21
3.78472
 31
0.0
  0
LINE
  8
0
 62
     0
 10
8.28814
 20
3.78472
 30
0.0
 11
8.20139
 21
3.44444
 31
0.0
  0
LINE
  8
0
 62
     0
 10
8.20139
 20
3.44444
 30
0.0
 11
8.15451
 21
3.0695
 31
0.0
  0
LINE
  8
0
 62
     0
 10
8.15451
 20
3.0695
 30
0.0
 11
8.13889
 21
2.66667
 31
0.0
  0
LINE
  8
0
 62
     0
 10
8.13889
 20
2.66667
 30
0.0
 11
8.15451
 21
2.26221
 31
0.0
  0
LINE
  8
0
 62
     0
 10
8.15451
 20
2.26221
 30
0.0
 11
8.20139
 21
1.88194
 31
0.0
  0
LINE
  8
0
 62
     0
 10
8.20139
 20
1.88194
 30
0.0
 11
8.28814
 21
1.53819
 31
0.0
  0
LINE
  8
0
 62
     0
 10
8.28814
 20
1.53819
 30
0.0
 11
8.42361
 21
1.24306
 31
0.0
  0
LINE
  8
0
 62
     0
 10
8.42361
 20
1.24306
 30
0.0
 11
8.51128
 21
1.11502
 31
0.0
  0
LINE
  8
0
 62
     0
 10
8.51128
 20
1.11502
 30
0.0
 11
8.61464
 21
1.00174
 31
0.0
  0
LINE
  8
0
 62
     0
 10
8.61464
 20
1.00174
 30
0.0
 11
8.7335
 21
0.903211
 31
0.0
  0
LINE
  8
0
 62
     0
 10
8.7335
 20
0.903211
 30
0.0
 11
8.86806
 21
0.819444
 31
0.0
  0
LINE
  8
0
 62
     0
 10
8.86806
 20
0.819444
 30
0.0
 11
9.0204
 21
0.752658
 31
0.0
  0
LINE
  8
0
 62
     0
 10
9.0204
 20
0.752658
 30
0.0
 11
9.19271
 21
0.704915
 31
0.0
  0
LINE
  8
0
 62
     0
 10
9.19271
 20
0.704915
 30
0.0
 11
9.38499
 21
0.676269
 31
0.0
  0
LINE
  8
0
 62
     0
 10
9.38499
 20
0.676269
 30
0.0
 11
9.59722
 21
0.666667
 31
0.0
  0
LINE
  8
0
 62
     0
 10
8.19444
 20
10.1389
 30
0.0
 11
9.16667
 21
10.1389
 31
0.0
  0
LINE
  8
0
 62
     0
 10
9.16667
 20
10.1389
 30
0.0
 11
4.45833
 21
-0
 31
0.0
  0
LINE
  8
0
 62
     0
 10
4.45833
 20
-0
 30
0.0
 11
3.48611
 21
-0
 31
0.0
  0
LINE
  8
0
 62
     0
 10
3.48611
 20
-0
 30
0.0
 11
8.19444
 21
10.1389
 31
0.0
  0
LINE
  8
0
 62
     0
 10
14.9583
 20
5.47222
 30
0.0
 11
15.4063
 21
5.43056
 31
0.0
  0
LINE
  8
0
 62
     0
 10
15.4063
 20
5.43056
 30
0.0
 11
15.8333
 21
5.30556
 31
0.0
  0
LINE
  8
0
 62
     0
 10
15.8333
 20
5.30556
 30
0.0
 11
16.036
 21
5.21099
 31
0.0
  0
LINE
  8
0
 62
     0
 10
16.036
 20
5.21099
 30
0.0
 11
16.2274
 21
5.09381
 31
0.0
  0
LINE
  8
0
 62
     0
 10
16.2274
 20
5.09381
 30
0.0
 11
16.4075
 21
4.95404
 31
0.0
  0
LINE
  8
0
 62
     0
 10
16.4075
 20
4.95404
 30
0.0
 11
16.5764
 21
4.79167
 31
0.0
  0
LINE
  8
0
 62
     0
 10
16.5764
 20
4.79167
 30
0.0
 11
16.7314
 21
4.60633
 31
0.0
  0
LINE
  8
0
 62
     0
 10
16.7314
 20
4.60633
 30
0.0
 11
16.8699
 21
4.39757
 31
0.0
  0
LINE
  8
0
 62
     0
 10
16.8699
 20
4.39757
 30
0.0
 11
16.9918
 21
4.16542
 31
0.0
  0
LINE
  8
0
 62
     0
 10
16.9918
 20
4.16542
 30
0.0
 11
17.0972
 21
3.90972
 31
0.0
  0
LINE
  8
0
 62
     0
 10
17.0972
 20
3.90972
 30
0.0
 11
17.1822
 21
3.63064
 31
0.0
  0
LINE
  8
0
 62
     0
 10
17.1822
 20
3.63064
 30
0.0
 11
17.2431
 21
3.32813
 31
0.0
  0
LINE
  8
0
 62
     0
 10
17.2431
 20
3.32813
 30
0.0
 11
17.2794
 21
3.00222
 31
0.0
  0
LINE
  8
0
 62
     0
 10
17.2794
 20
3.00222
 30
0.0
 11
17.2917
 21
2.65278
 31
0.0
  0
LINE
  8
0
 62
     0
 10
17.2917
 20
2.65278
 30
0.0
 11
17.279
 21
2.31033
 31
0.0
  0
LINE
  8
0
 62
     0
 10
17.279
 20
2.31033
 30
0.0
 11
17.2414
 21
1.99132
 31
0.0
  0
LINE
  8
0
 62
     0
 10
17.2414
 20
1.99132
 30
0.0
 11
17.1783
 21
1.69575
 31
0.0
  0
LINE
  8
0
 62
     0
 10
17.1783
 20
1.69575
 30
0.0
 11
17.0903
 21
1.42361
 31
0.0
  0
LINE
  8
0
 62
     0
 10
17.0903
 20
1.42361
 30
0.0
 11
16.9817
 21
1.17448
 31
0.0
  0
LINE
  8
0
 62
     0
 10
16.9817
 20
1.17448
 30
0.0
 11
16.8576
 21
0.947917
 31
0.0
  0
LINE
  8
0
 62
     0
 10
16.8576
 20
0.947917
 30
0.0
 11
16.7179
 21
0.743924
 31
0.0
  0
LINE
  8
0
 62
     0
 10
16.7179
 20
0.743924
 30
0.0
 11
16.5625
 21
0.5625
 31
0.0
  0
LINE
  8
0
 62
     0
 10
16.5625
 20
0.5625
 30
0.0
 11
16.3932
 21
0.4037
 31
0.0
  0
LINE
  8
0
 62
     0
 10
16.3932
 20
0.4037
 30
0.0
 11
16.2118
 21
0.267415
 31
0.0
  0
LINE
  8
0
 62
     0
 10
16.2118
 20
0.267415
 30
0.0
 11
16.0182
 21
0.1537
 31
0.0
  0
LINE
  8
0
 62
     0
 10
16.0182
 20
0.1537
 30
0.0
 11
15.8125
 21
0.0625
 31
0.0
  0
LINE
  8
0
 62
     0
 10
15.8125
 20
0.0625
 30
0.0
 11
15.3872
 21
-0.0572917
 31
0.0
  0
LINE
  8
0
 62
     0
 10
15.3872
 20
-0.0572917
 30
0.0
 11
14.9583
 21
-0.0972222
 31
0.0
  0
LINE
  8
0
 62
     0
 10
14.9583
 20
-0.0972222
 30
0.0
 11
14.5208
 21
-0.0572917
 31
0.0
  0
LINE
  8
0
 62
     0
 10
14.5208
 20
-0.0572917
 30
0.0
 11
14.0972
 21
0.0625
 31
0.0
  0
LINE
  8
0
 62
     0
 10
14.0972
 20
0.0625
 30
0.0
 11
13.8946
 21
0.1537
 31
0.0
  0
LINE
  8
0
 62
     0
 10
13.8946
 20
0.1537
 30
0.0
 11
13.7031
 21
0.267415
 31
0.0
  0
LINE
  8
0
 62
     0
 10
13.7031
 20
0.267415
 30
0.0
 11
13.523
 21
0.4037
 31
0.0
  0
LINE
  8
0
 62
     0
 10
13.523
 20
0.4037
 30
0.0
 11
13.3542
 21
0.5625
 31
0.0
  0
LINE
  8
0
 62
     0
 10
13.3542
 20
0.5625
 30
0.0
 11
13.1987
 21
0.743924
 31
0.0
  0
LINE
  8
0
 62
     0
 10
13.1987
 20
0.743924
 30
0.0
 11
13.059
 21
0.947917
 31
0.0
  0
LINE
  8
0
 62
     0
 10
13.059
 20
0.947917
 30
0.0
 11
12.9349
 21
1.17448
 31
0.0
  0
LINE
  8
0
 62
     0
 10
12.9349
 20
1.17448
 30
0.0
 11
12.8264
 21
1.42361
 31
0.0
  0
LINE
  8
0
 62
     0
 10
12.8264
 20
1.42361
 30
0.0
 11
12.7382
 21
1.69575
 31
0.0
  0
LINE
  8
0
 62
     0
 10
12.7382
 20
1.69575
 30
0.0
 11
12.6753
 21
1.99132
 31
0.0
  0
LINE
  8
0
 62
     0
 10
12.6753
 20
1.99132
 30
0.0
 11
12.6375
 21
2.31033
 31
0.0
  0
LINE
  8
0
 62
     0
 10
12.6375
 20
2.31033
 30
0.0
 11
12.625
 21
2.65278
 31
0.0
  0
LINE
  8
0
 62
     0
 10
12.625
 20
2.65278
 30
0.0
 11
12.6375
 21
3.00222
 31
0.0
  0
LINE
  8
0
 62
     0
 10
12.6375
 20
3.00222
 30
0.0
 11
12.6753
 21
3.32813
 31
0.0
  0
LINE
  8
0
 62
     0
 10
12.6753
 20
3.32813
 30
0.0
 11
12.7382
 21
3.63064
 31
0.0
  0
LINE
  8
0
 62
     0
 10
12.7382
 20
3.63064
 30
0.0
 11
12.8264
 21
3.90972
 31
0.0
  0
LINE
  8
0
 62
     0
 10
12.8264
 20
3.90972
 30
0.0
 11
12.9349
 21
4.16542
 31
0.0
  0
LINE
  8
0
 62
     0
 10
12.9349
 20
4.16542
 30
0.0
 11
13.0591
 21
4.39757
 31
0.0
  0
LINE
  8
0
 62
     0
 10
13.0591
 20
4.39757
 30
0.0
 11
13.1988
 21
4.60633
 31
0.0
  0
LINE
  8
0
 62
     0
 10
13.1988
 20
4.60633
 30
0.0
 11
13.3542
 21
4.79167
 31
0.0
  0
LINE
  8
0
 62
     0
 10
13.3542
 20
4.79167
 30
0.0
 11
13.523
 21
4.95404
 31
0.0
  0
LINE
  8
0
 62
     0
 10
13.523
 20
4.95404
 30
0.0
 11
13.7031
 21
5.09381
 31
0.0
  0
LINE
  8
0
 62
     0
 10
13.7031
 20
5.09381
 30
0.0
 11
13.8946
 21
5.21099
 31
0.0
  0
LINE
  8
0
 62
     0
 10
13.8946
 20
5.21099
 30
0.0
 11
14.0972
 21
5.30556
 31
0.0
  0
LINE
  8
0
 62
     0
 10
14.0972
 20
5.30556
 30
0.0
 11
14.5208
 21
5.43056
 31
0.0
  0
LINE
  8
0
 62
     0
 10
14.5208
 20
5.43056
 30
0.0
 11
14.9583
 21
5.47222
 31
0.0
  0
LINE
  8
0
 62
     0
 10
9.59722
 20
5.47222
 30
0.0
 11
10.0451
 21
5.43056
 31
0.0
  0
LINE
  8
0
 62
     0
 10
10.0451
 20
5.43056
 30
0.0
 11
10.4722
 21
5.30556
 31
0.0
  0
LINE
  8
0
 62
     0
 10
10.4722
 20
5.30556
 30
0.0
 11
10.6749
 21
5.21099
 31
0.0
  0
LINE
  8
0
 62
     0
 10
10.6749
 20
5.21099
 30
0.0
 11
10.8663
 21
5.09381
 31
0.0
  0
LINE
  8
0
 62
     0
 10
10.8663
 20
5.09381
 30
0.0
 11
11.0464
 21
4.95404
 31
0.0
  0
LINE
  8
0
 62
     0
 10
11.0464
 20
4.95404
 30
0.0
 11
11.2153
 21
4.79167
 31
0.0
  0
LINE
  8
0
 62
     0
 10
11.2153
 20
4.79167
 30
0.0
 11
11.3702
 21
4.60633
 31
0.0
  0
LINE
  8
0
 62
     0
 10
11.3702
 20
4.60633
 30
0.0
 11
11.5087
 21
4.39757
 31
0.0
  0
LINE
  8
0
 62
     0
 10
11.5087
 20
4.39757
 30
0.0
 11
11.6306
 21
4.16542
 31
0.0
  0
LINE
  8
0
 62
     0
 10
11.6306
 20
4.16542
 30
0.0
 11
11.7361
 21
3.90972
 31
0.0
  0
LINE
  8
0
 62
     0
 10
11.7361
 20
3.90972
 30
0.0
 11
11.8211
 21
3.63064
 31
0.0
  0
LINE
  8
0
 62
     0
 10
11.8211
 20
3.63064
 30
0.0
 11
11.8819
 21
3.32813
 31
0.0
  0
LINE
  8
0
 62
     0
 10
11.8819
 20
3.32813
 30
0.0
 11
11.9183
 21
3.00222
 31
0.0
  0
LINE
  8
0
 62
     0
 10
11.9183
 20
3.00222
 30
0.0
 11
11.9306
 21
2.65278
 31
0.0
  0
LINE
  8
0
 62
     0
 10
11.9306
 20
2.65278
 30
0.0
 11
11.918
 21
2.31033
 31
0.0
  0
LINE
  8
0
 62
     0
 10
11.918
 20
2.31033
 30
0.0
 11
11.8802
 21
1.99132
 31
0.0
  0
LINE
  8
0
 62
     0
 10
11.8802
 20
1.99132
 30
0.0
 11
11.8173
 21
1.69575
 31
0.0
  0
LINE
  8
0
 62
     0
 10
11.8173
 20
1.69575
 30
0.0
 11
11.7292
 21
1.42361
 31
0.0
  0
LINE
  8
0
 62
     0
 10
11.7292
 20
1.42361
 30
0.0
 11
11.6206
 21
1.17448
 31
0.0
  0
LINE
  8
0
 62
     0
 10
11.6206
 20
1.17448
 30
0.0
 11
11.4965
 21
0.947917
 31
0.0
  0
LINE
  8
0
 62
     0
 10
11.4965
 20
0.947917
 30
0.0
 11
11.3568
 21
0.743924
 31
0.0
  0
LINE
  8
0
 62
     0
 10
11.3568
 20
0.743924
 30
0.0
 11
11.2014
 21
0.5625
 31
0.0
  0
LINE
  8
0
 62
     0
 10
11.2014
 20
0.5625
 30
0.0
 11
11.0321
 21
0.4037
 31
0.0
  0
LINE
  8
0
 62
     0
 10
11.0321
 20
0.4037
 30
0.0
 11
10.8506
 21
0.267415
 31
0.0
  0
LINE
  8
0
 62
     0
 10
10.8506
 20
0.267415
 30
0.0
 11
10.6571
 21
0.1537
 31
0.0
  0
LINE
  8
0
 62
     0
 10
10.6571
 20
0.1537
 30
0.0
 11
10.4514
 21
0.0625
 31
0.0
  0
LINE
  8
0
 62
     0
 10
10.4514
 20
0.0625
 30
0.0
 11
10.026
 21
-0.0572917
 31
0.0
  0
LINE
  8
0
 62
     0
 10
10.026
 20
-0.0572917
 30
0.0
 11
9.59722
 21
-0.0972222
 31
0.0
  0
LINE
  8
0
 62
     0
 10
9.59722
 20
-0.0972222
 30
0.0
 11
9.15972
 21
-0.0572917
 31
0.0
  0
LINE
  8
0
 62
     0
 10
9.15972
 20
-0.0572917
 30
0.0
 11
8.73611
 21
0.0625
 31
0.0
  0
LINE
  8
0
 62
     0
 10
8.73611
 20
0.0625
 30
0.0
 11
8.53342
 21
0.1537
 31
0.0
  0
LINE
  8
0
 62
     0
 10
8.53342
 20
0.1537
 30
0.0
 11
8.34201
 21
0.267415
 31
0.0
  0
LINE
  8
0
 62
     0
 10
8.34201
 20
0.267415
 30
0.0
 11
8.16189
 21
0.4037
 31
0.0
  0
LINE
  8
0
 62
     0
 10
8.16189
 20
0.4037
 30
0.0
 11
7.99306
 21
0.5625
 31
0.0
  0
LINE
  8
0
 62
     0
 10
7.99306
 20
0.5625
 30
0.0
 11
7.83763
 21
0.743924
 31
0.0
  0
LINE
  8
0
 62
     0
 10
7.83763
 20
0.743924
 30
0.0
 11
7.69792
 21
0.947917
 31
0.0
  0
LINE
  8
0
 62
     0
 10
7.69792
 20
0.947917
 30
0.0
 11
7.57378
 21
1.17448
 31
0.0
  0
LINE
  8
0
 62
     0
 10
7.57378
 20
1.17448
 30
0.0
 11
7.46528
 21
1.42361
 31
0.0
  0
LINE
  8
0
 62
     0
 10
7.46528
 20
1.42361
 30
0.0
 11
7.37711
 21
1.69575
 31
0.0
  0
LINE
  8
0
 62
     0
 10
7.37711
 20
1.69575
 30
0.0
 11
7.31418
 21
1.99132
 31
0.0
  0
LINE
  8
0
 62
     0
 10
7.31418
 20
1.99132
 30
0.0
 11
7.27642
 21
2.31033
 31
0.0
  0
LINE
  8
0
 62
     0
 10
7.27642
 20
2.31033
 30
0.0
 11
7.26389
 21
2.65278
 31
0.0
  0
LINE
  8
0
 62
     0
 10
7.26389
 20
2.65278
 30
0.0
 11
7.27642
 21
3.00222
 31
0.0
  0
LINE
  8
0
 62
     0
 10
7.27642
 20
3.00222
 30
0.0
 11
7.31418
 21
3.32813
 31
0.0
  0
LINE
  8
0
 62
     0
 10
7.31418
 20
3.32813
 30
0.0
 11
7.37711
 21
3.63064
 31
0.0
  0
LINE
  8
0
 62
     0
 10
7.37711
 20
3.63064
 30
0.0
 11
7.46528
 21
3.90972
 31
0.0
  0
LINE
  8
0
 62
     0
 10
7.46528
 20
3.90972
 30
0.0
 11
7.57378
 21
4.16542
 31
0.0
  0
LINE
  8
0
 62
     0
 10
7.57378
 20
4.16542
 30
0.0
 11
7.69792
 21
4.39757
 31
0.0
  0
LINE
  8
0
 62
     0
 10
7.69792
 20
4.39757
 30
0.0
 11
7.83767
 21
4.60633
 31
0.0
  0
LINE
  8
0
 62
     0
 10
7.83767
 20
4.60633
 30
0.0
 11
7.99306
 21
4.79167
 31
0.0
  0
LINE
  8
0
 62
     0
 10
7.99306
 20
4.79167
 30
0.0
 11
8.16189
 21
4.95404
 31
0.0
  0
LINE
  8
0
 62
     0
 10
8.16189
 20
4.95404
 30
0.0
 11
8.34201
 21
5.09381
 31
0.0
  0
LINE
  8
0
 62
     0
 10
8.34201
 20
5.09381
 30
0.0
 11
8.53342
 21
5.21099
 31
0.0
  0
LINE
  8
0
 62
     0
 10
8.53342
 20
5.21099
 30
0.0
 11
8.73611
 21
5.30556
 31
0.0
  0
LINE
  8
0
 62
     0
 10
8.73611
 20
5.30556
 30
0.0
 11
9.15972
 21
5.43056
 31
0.0
  0
LINE
  8
0
 62
     0
 10
9.15972
 20
5.43056
 30
0.0
 11
9.59722
 21
5.47222
 31
0.0
  0
LINE
  8
0
 62
     0
 10
3.09722
 20
10.2639
 30
0.0
 11
3.52604
 21
10.2222
 31
0.0
  0
LINE
  8
0
 62
     0
 10
3.52604
 20
10.2222
 30
0.0
 11
3.95139
 21
10.0972
 31
0.0
  0
LINE
  8
0
 62
     0
 10
3.95139
 20
10.0972
 30
0.0
 11
4.15707
 21
10.0027
 31
0.0
  0
LINE
  8
0
 62
     0
 10
4.15707
 20
10.0027
 30
0.0
 11
4.35064
 21
9.88547
 31
0.0
  0
LINE
  8
0
 62
     0
 10
4.35064
 20
9.88547
 30
0.0
 11
4.53207
 21
9.74571
 31
0.0
  0
LINE
  8
0
 62
     0
 10
4.53207
 20
9.74571
 30
0.0
 11
4.70139
 21
9.58333
 31
0.0
  0
LINE
  8
0
 62
     0
 10
4.70139
 20
9.58333
 30
0.0
 11
4.85678
 21
9.39844
 31
0.0
  0
LINE
  8
0
 62
     0
 10
4.85678
 20
9.39844
 30
0.0
 11
4.99653
 21
9.19097
 31
0.0
  0
LINE
  8
0
 62
     0
 10
4.99653
 20
9.19097
 30
0.0
 11
5.12061
 21
8.96094
 31
0.0
  0
LINE
  8
0
 62
     0
 10
5.12061
 20
8.96094
 30
0.0
 11
5.22917
 21
8.70833
 31
0.0
  0
LINE
  8
0
 62
     0
 10
5.22917
 20
8.70833
 30
0.0
 11
5.31728
 21
8.43235
 31
0.0
  0
LINE
  8
0
 62
     0
 10
5.31728
 20
8.43235
 30
0.0
 11
5.38021
 21
8.132
 31
0.0
  0
LINE
  8
0
 62
     0
 10
5.38021
 20
8.132
 30
0.0
 11
5.41797
 21
7.80735
 31
0.0
  0
LINE
  8
0
 62
     0
 10
5.41797
 20
7.80735
 30
0.0
 11
5.43056
 21
7.45833
 31
0.0
  0
LINE
  8
0
 62
     0
 10
5.43056
 20
7.45833
 30
0.0
 11
5.41797
 21
7.10981
 31
0.0
  0
LINE
  8
0
 62
     0
 10
5.41797
 20
7.10981
 30
0.0
 11
5.38021
 21
6.78646
 31
0.0
  0
LINE
  8
0
 62
     0
 10
5.38021
 20
6.78646
 30
0.0
 11
5.31728
 21
6.48828
 31
0.0
  0
LINE
  8
0
 62
     0
 10
5.31728
 20
6.48828
 30
0.0
 11
5.22917
 21
6.21528
 31
0.0
  0
LINE
  8
0
 62
     0
 10
5.22917
 20
6.21528
 30
0.0
 11
5.12061
 21
5.96614
 31
0.0
  0
LINE
  8
0
 62
     0
 10
5.12061
 20
5.96614
 30
0.0
 11
4.99647
 21
5.73958
 31
0.0
  0
LINE
  8
0
 62
     0
 10
4.99647
 20
5.73958
 30
0.0
 11
4.85672
 21
5.53558
 31
0.0
  0
LINE
  8
0
 62
     0
 10
4.85672
 20
5.53558
 30
0.0
 11
4.70139
 21
5.35417
 31
0.0
  0
LINE
  8
0
 62
     0
 10
4.70139
 20
5.35417
 30
0.0
 11
4.53207
 21
5.19536
 31
0.0
  0
LINE
  8
0
 62
     0
 10
4.53207
 20
5.19536
 30
0.0
 11
4.35064
 21
5.05908
 31
0.0
  0
LINE
  8
0
 62
     0
 10
4.35064
 20
5.05908
 30
0.0
 11
4.15707
 21
4.94536
 31
0.0
  0
LINE
  8
0
 62
     0
 10
4.15707
 20
4.94536
 30
0.0
 11
3.95139
 21
4.85417
 31
0.0
  0
LINE
  8
0
 62
     0
 10
3.95139
 20
4.85417
 30
0.0
 11
3.52604
 21
4.73438
 31
0.0
  0
LINE
  8
0
 62
     0
 10
3.52604
 20
4.73438
 30
0.0
 11
3.09722
 21
4.69444
 31
0.0
  0
LINE
  8
0
 62
     0
 10
3.09722
 20
4.69444
 30
0.0
 11
2.65799
 21
4.73438
 31
0.0
  0
LINE
  8
0
 62
     0
 10
2.65799
 20
4.73438
 30
0.0
 11
2.22917
 21
4.85417
 31
0.0
  0
LINE
  8
0
 62
     0
 10
2.22917
 20
4.85417
 30
0.0
 11
2.02344
 21
4.94536
 31
0.0
  0
LINE
  8
0
 62
     0
 10
2.02344
 20
4.94536
 30
0.0
 11
1.82986
 21
5.05908
 31
0.0
  0
LINE
  8
0
 62
     0
 10
1.82986
 20
5.05908
 30
0.0
 11
1.64844
 21
5.19536
 31
0.0
  0
LINE
  8
0
 62
     0
 10
1.64844
 20
5.19536
 30
0.0
 11
1.47917
 21
5.35417
 31
0.0
  0
LINE
  8
0
 62
     0
 10
1.47917
 20
5.35417
 30
0.0
 11
1.32416
 21
5.53558
 31
0.0
  0
LINE
  8
0
 62
     0
 10
1.32416
 20
5.53558
 30
0.0
 11
1.18571
 21
5.73958
 31
0.0
  0
LINE
  8
0
 62
     0
 10
1.18571
 20
5.73958
 30
0.0
 11
1.06375
 21
5.96614
 31
0.0
  0
LINE
  8
0
 62
     0
 10
1.06375
 20
5.96614
 30
0.0
 11
0.958333
 21
6.21528
 31
0.0
  0
LINE
  8
0
 62
     0
 10
0.958333
 20
6.21528
 30
0.0
 11
0.873264
 21
6.48828
 31
0.0
  0
LINE
  8
0
 62
     0
 10
0.873264
 20
6.48828
 30
0.0
 11
0.8125
 21
6.78646
 31
0.0
  0
LINE
  8
0
 62
     0
 10
0.8125
 20
6.78646
 30
0.0
 11
0.776042
 21
7.10981
 31
0.0
  0
LINE
  8
0
 62
     0
 10
0.776042
 20
7.10981
 30
0.0
 11
0.763889
 21
7.45833
 31
0.0
  0
LINE
  8
0
 62
     0
 10
0.763889
 20
7.45833
 30
0.0
 11
0.776042
 21
7.80735
 31
0.0
  0
LINE
  8
0
 62
     0
 10
0.776042
 20
7.80735
 30
0.0
 11
0.8125
 21
8.132
 31
0.0
  0
LINE
  8
0
 62
     0
 10
0.8125
 20
8.132
 30
0.0
 11
0.873264
 21
8.43235
 31
0.0
  0
LINE
  8
0
 62
     0
 10
0.873264
 20
8.43235
 30
0.0
 11
0.958333
 21
8.70833
 31
0.0
  0
LINE
  8
0
 62
     0
 10
0.958333
 20
8.70833
 30
0.0
 11
1.06375
 21
8.96094
 31
0.0
  0
LINE
  8
0
 62
     0
 10
1.06375
 20
8.96094
 30
0.0
 11
1.18571
 21
9.19097
 31
0.0
  0
LINE
  8
0
 62
     0
 10
1.18571
 20
9.19097
 30
0.0
 11
1.32416
 21
9.39844
 31
0.0
  0
LINE
  8
0
 62
     0
 10
1.32416
 20
9.39844
 30
0.0
 11
1.47917
 21
9.58333
 31
0.0
  0
LINE
  8
0
 62
     0
 10
1.47917
 20
9.58333
 30
0.0
 11
1.64844
 21
9.74571
 31
0.0
  0
LINE
  8
0
 62
     0
 10
1.64844
 20
9.74571
 30
0.0
 11
1.82986
 21
9.88547
 31
0.0
  0
LINE
  8
0
 62
     0
 10
1.82986
 20
9.88547
 30
0.0
 11
2.02344
 21
10.0027
 31
0.0
  0
LINE
  8
0
 62
     0
 10
2.02344
 20
10.0027
 30
0.0
 11
2.22917
 21
10.0972
 31
0.0
  0
LINE
  8
0
 62
     0
 10
2.22917
 20
10.0972
 30
0.0
 11
2.65799
 21
10.2222
 31
0.0
  0
LINE
  8
0
 62
     0
 10
2.65799
 20
10.2222
 30
0.0
 11
3.09722
 21
10.2639
 31
0.0
  0
ENDSEC
  0
EOF
