  0
SECTION
  2
HEADER
  9
$ACADVER
  1
AC1009
  9
$EXTMIN
 10
0.0
 20
0.0
 30
0.0
  9
$EXTMAX
 10
1000.0
 20
1000.0
 30
0.0
  9
$FILLMODE
 70
 0
  9
$SPLFRAME
 70
 1
  0
ENDSEC
  0
SECTION
  2
TABLES
  0
TABLE
  2
LAYER
 70
1
  0
LAYER
  2
0
 70
     0
 62
     7
  6
CONTINUOUS
  0
ENDTAB
  0
ENDSEC
  0
SECTION
  2
ENTITIES
  0
LINE
  8
0
 62
     0
 10
4.06944
 20
5.44444
 30
0.0
 11
2.81944
 21
5.44444
 31
0.0
  0
LINE
  8
0
 62
     0
 10
2.81944
 20
5.44444
 30
0.0
 11
2.81944
 21
6.83333
 31
0.0
  0
LINE
  8
0
 62
     0
 10
2.81944
 20
6.83333
 30
0.0
 11
4.06944
 21
6.83333
 31
0.0
  0
LINE
  8
0
 62
     0
 10
4.06944
 20
6.83333
 30
0.0
 11
4.06944
 21
5.44444
 31
0.0
  0
LINE
  8
0
 62
     0
 10
2.86111
 20
3.01389
 30
0.0
 11
4.41667
 21
0.972222
 31
0.0
  0
LINE
  8
0
 62
     0
 10
4.41667
 20
0.972222
 30
0.0
 11
4.67361
 21
0.604167
 31
0.0
  0
LINE
  8
0
 62
     0
 10
4.67361
 20
0.604167
 30
0.0
 11
4.90972
 21
0.194444
 31
0.0
  0
LINE
  8
0
 62
     0
 10
4.90972
 20
0.194444
 30
0.0
 11
5.08333
 21
-0.215278
 31
0.0
  0
LINE
  8
0
 62
     0
 10
5.08333
 20
-0.215278
 30
0.0
 11
5.13536
 21
-0.411458
 31
0.0
  0
LINE
  8
0
 62
     0
 10
5.13536
 20
-0.411458
 30
0.0
 11
5.15278
 21
-0.597222
 31
0.0
  0
LINE
  8
0
 62
     0
 10
5.15278
 20
-0.597222
 30
0.0
 11
5.12283
 21
-0.953125
 31
0.0
  0
LINE
  8
0
 62
     0
 10
5.12283
 20
-0.953125
 30
0.0
 11
5.03299
 21
-1.27083
 31
0.0
  0
LINE
  8
0
 62
     0
 10
5.03299
 20
-1.27083
 30
0.0
 11
4.88325
 21
-1.55035
 31
0.0
  0
LINE
  8
0
 62
     0
 10
4.88325
 20
-1.55035
 30
0.0
 11
4.67361
 21
-1.79167
 31
0.0
  0
LINE
  8
0
 62
     0
 10
4.67361
 20
-1.79167
 30
0.0
 11
4.41624
 21
-1.98606
 31
0.0
  0
LINE
  8
0
 62
     0
 10
4.41624
 20
-1.98606
 30
0.0
 11
4.12326
 21
-2.12494
 31
0.0
  0
LINE
  8
0
 62
     0
 10
4.12326
 20
-2.12494
 30
0.0
 11
3.79471
 21
-2.20828
 31
0.0
  0
LINE
  8
0
 62
     0
 10
3.79471
 20
-2.20828
 30
0.0
 11
3.43056
 21
-2.23611
 31
0.0
  0
LINE
  8
0
 62
     0
 10
3.43056
 20
-2.23611
 30
0.0
 11
3.0816
 21
-2.19965
 31
0.0
  0
LINE
  8
0
 62
     0
 10
3.0816
 20
-2.19965
 30
0.0
 11
2.75694
 21
-2.09028
 31
0.0
  0
LINE
  8
0
 62
     0
 10
2.75694
 20
-2.09028
 30
0.0
 11
2.46528
 21
-1.92014
 31
0.0
  0
LINE
  8
0
 62
     0
 10
2.46528
 20
-1.92014
 30
0.0
 11
2.21528
 21
-1.70139
 31
0.0
  0
LINE
  8
0
 62
     0
 10
2.21528
 20
-1.70139
 30
0.0
 11
2.01215
 21
-1.43918
 31
0.0
  0
LINE
  8
0
 62
     0
 10
2.01215
 20
-1.43918
 30
0.0
 11
1.86111
 21
-1.13889
 31
0.0
  0
LINE
  8
0
 62
     0
 10
1.86111
 20
-1.13889
 30
0.0
 11
1.76736
 21
-0.8125
 31
0.0
  0
LINE
  8
0
 62
     0
 10
1.76736
 20
-0.8125
 30
0.0
 11
1.73611
 21
-0.472222
 31
0.0
  0
LINE
  8
0
 62
     0
 10
1.73611
 20
-0.472222
 30
0.0
 11
0.569444
 21
-0.472222
 31
0.0
  0
LINE
  8
0
 62
     0
 10
0.569444
 20
-0.472222
 30
0.0
 11
0.609321
 21
-0.977431
 31
0.0
  0
LINE
  8
0
 62
     0
 10
0.609321
 20
-0.977431
 30
0.0
 11
0.729167
 21
-1.49306
 31
0.0
  0
LINE
  8
0
 62
     0
 10
0.729167
 20
-1.49306
 30
0.0
 11
0.821181
 21
-1.74739
 31
0.0
  0
LINE
  8
0
 62
     0
 10
0.821181
 20
-1.74739
 30
0.0
 11
0.9375
 21
-1.98958
 31
0.0
  0
LINE
  8
0
 62
     0
 10
0.9375
 20
-1.98958
 30
0.0
 11
1.07813
 21
-2.21961
 31
0.0
  0
LINE
  8
0
 62
     0
 10
1.07813
 20
-2.21961
 30
0.0
 11
1.24306
 21
-2.4375
 31
0.0
  0
LINE
  8
0
 62
     0
 10
1.24306
 20
-2.4375
 30
0.0
 11
1.43186
 21
-2.63971
 31
0.0
  0
LINE
  8
0
 62
     0
 10
1.43186
 20
-2.63971
 30
0.0
 11
1.6441
 21
-2.82286
 31
0.0
  0
LINE
  8
0
 62
     0
 10
1.6441
 20
-2.82286
 30
0.0
 11
1.87978
 21
-2.98693
 31
0.0
  0
LINE
  8
0
 62
     0
 10
1.87978
 20
-2.98693
 30
0.0
 11
2.13889
 21
-3.13194
 31
0.0
  0
LINE
  8
0
 62
     0
 10
2.13889
 20
-3.13194
 30
0.0
 11
2.42447
 21
-3.25043
 31
0.0
  0
LINE
  8
0
 62
     0
 10
2.42447
 20
-3.25043
 30
0.0
 11
2.73958
 21
-3.33507
 31
0.0
  0
LINE
  8
0
 62
     0
 10
2.73958
 20
-3.33507
 30
0.0
 11
3.08419
 21
-3.38585
 31
0.0
  0
LINE
  8
0
 62
     0
 10
3.08419
 20
-3.38585
 30
0.0
 11
3.45833
 21
-3.40278
 31
0.0
  0
LINE
  8
0
 62
     0
 10
3.45833
 20
-3.40278
 30
0.0
 11
3.78336
 21
-3.38758
 31
0.0
  0
LINE
  8
0
 62
     0
 10
3.78336
 20
-3.38758
 30
0.0
 11
4.09196
 21
-3.34201
 31
0.0
  0
LINE
  8
0
 62
     0
 10
4.09196
 20
-3.34201
 30
0.0
 11
4.38406
 21
-3.26606
 31
0.0
  0
LINE
  8
0
 62
     0
 10
4.38406
 20
-3.26606
 30
0.0
 11
4.65972
 21
-3.15972
 31
0.0
  0
LINE
  8
0
 62
     0
 10
4.65972
 20
-3.15972
 30
0.0
 11
4.91667
 21
-3.0286
 31
0.0
  0
LINE
  8
0
 62
     0
 10
4.91667
 20
-3.0286
 30
0.0
 11
5.15278
 21
-2.87842
 31
0.0
  0
LINE
  8
0
 62
     0
 10
5.15278
 20
-2.87842
 30
0.0
 11
5.368
 21
-2.70915
 31
0.0
  0
LINE
  8
0
 62
     0
 10
5.368
 20
-2.70915
 30
0.0
 11
5.5625
 21
-2.52083
 31
0.0
  0
LINE
  8
0
 62
     0
 10
5.5625
 20
-2.52083
 30
0.0
 11
5.73568
 21
-2.31683
 31
0.0
  0
LINE
  8
0
 62
     0
 10
5.73568
 20
-2.31683
 30
0.0
 11
5.88715
 21
-2.10069
 31
0.0
  0
LINE
  8
0
 62
     0
 10
5.88715
 20
-2.10069
 30
0.0
 11
6.01693
 21
-1.87239
 31
0.0
  0
LINE
  8
0
 62
     0
 10
6.01693
 20
-1.87239
 30
0.0
 11
6.125
 21
-1.63194
 31
0.0
  0
LINE
  8
0
 62
     0
 10
6.125
 20
-1.63194
 30
0.0
 11
6.27078
 21
-1.14057
 31
0.0
  0
LINE
  8
0
 62
     0
 10
6.27078
 20
-1.14057
 30
0.0
 11
6.31944
 21
-0.652778
 31
0.0
  0
LINE
  8
0
 62
     0
 10
6.31944
 20
-0.652778
 30
0.0
 11
6.30425
 21
-0.378851
 31
0.0
  0
LINE
  8
0
 62
     0
 10
6.30425
 20
-0.378851
 30
0.0
 11
6.25868
 21
-0.112847
 31
0.0
  0
LINE
  8
0
 62
     0
 10
6.25868
 20
-0.112847
 30
0.0
 11
6.18272
 21
0.1454
 31
0.0
  0
LINE
  8
0
 62
     0
 10
6.18272
 20
0.1454
 30
0.0
 11
6.07639
 21
0.395833
 31
0.0
  0
LINE
  8
0
 62
     0
 10
6.07639
 20
0.395833
 30
0.0
 11
5.8246
 21
0.855957
 31
0.0
  0
LINE
  8
0
 62
     0
 10
5.8246
 20
0.855957
 30
0.0
 11
5.55556
 21
1.25
 31
0.0
  0
LINE
  8
0
 62
     0
 10
5.55556
 20
1.25
 30
0.0
 11
4.02778
 21
3.27778
 31
0.0
  0
LINE
  8
0
 62
     0
 10
4.02778
 20
3.27778
 30
0.0
 11
4.02778
 21
4.58333
 31
0.0
  0
LINE
  8
0
 62
     0
 10
4.02778
 20
4.58333
 30
0.0
 11
2.86111
 21
4.58333
 31
0.0
  0
LINE
  8
0
 62
     0
 10
2.86111
 20
4.58333
 30
0.0
 11
2.86111
 21
3.01389
 31
0.0
  0
ENDSEC
  0
EOF
