  0
SECTION
  2
HEADER
  9
$ACADVER
  1
AC1009
  9
$EXTMIN
 10
0.0
 20
0.0
 30
0.0
  9
$EXTMAX
 10
1000.0
 20
1000.0
 30
0.0
  9
$FILLMODE
 70
 0
  9
$SPLFRAME
 70
 1
  0
ENDSEC
  0
SECTION
  2
TABLES
  0
TABLE
  2
LAYER
 70
1
  0
LAYER
  2
0
 70
     0
 62
     7
  6
CONTINUOUS
  0
ENDTAB
  0
ENDSEC
  0
SECTION
  2
ENTITIES
  0
LINE
  8
0
 62
     0
 10
4.04167
 20
-0.0694444
 30
0.0
 11
3.49169
 21
-0.0499132
 31
0.0
  0
LINE
  8
0
 62
     0
 10
3.49169
 20
-0.0499132
 30
0.0
 11
2.9809
 21
0.00868056
 31
0.0
  0
LINE
  8
0
 62
     0
 10
2.9809
 20
0.00868056
 30
0.0
 11
2.50911
 21
0.106337
 31
0.0
  0
LINE
  8
0
 62
     0
 10
2.50911
 20
0.106337
 30
0.0
 11
2.07639
 21
0.243056
 31
0.0
  0
LINE
  8
0
 62
     0
 10
2.07639
 20
0.243056
 30
0.0
 11
1.67572
 21
0.418836
 31
0.0
  0
LINE
  8
0
 62
     0
 10
1.67572
 20
0.418836
 30
0.0
 11
1.30029
 21
0.633681
 31
0.0
  0
LINE
  8
0
 62
     0
 10
1.30029
 20
0.633681
 30
0.0
 11
0.950032
 21
0.887586
 31
0.0
  0
LINE
  8
0
 62
     0
 10
0.950032
 20
0.887586
 30
0.0
 11
0.625
 21
1.18056
 31
0.0
  0
LINE
  8
0
 62
     0
 10
0.625
 20
1.18056
 30
0.0
 11
0.625
 21
2.54167
 31
0.0
  0
LINE
  8
0
 62
     0
 10
0.625
 20
2.54167
 30
0.0
 11
0.953558
 21
2.22483
 31
0.0
  0
LINE
  8
0
 62
     0
 10
0.953558
 20
2.22483
 30
0.0
 11
1.31424
 21
1.94097
 31
0.0
  0
LINE
  8
0
 62
     0
 10
1.31424
 20
1.94097
 30
0.0
 11
1.70703
 21
1.69011
 31
0.0
  0
LINE
  8
0
 62
     0
 10
1.70703
 20
1.69011
 30
0.0
 11
2.13194
 21
1.47222
 31
0.0
  0
LINE
  8
0
 62
     0
 10
2.13194
 20
1.47222
 30
0.0
 11
2.58111
 21
1.29606
 31
0.0
  0
LINE
  8
0
 62
     0
 10
2.58111
 20
1.29606
 30
0.0
 11
3.04682
 21
1.17019
 31
0.0
  0
LINE
  8
0
 62
     0
 10
3.04682
 20
1.17019
 30
0.0
 11
3.52903
 21
1.09467
 31
0.0
  0
LINE
  8
0
 62
     0
 10
3.52903
 20
1.09467
 30
0.0
 11
4.02778
 21
1.06944
 31
0.0
  0
LINE
  8
0
 62
     0
 10
4.02778
 20
1.06944
 30
0.0
 11
4.33529
 21
1.07628
 31
0.0
  0
LINE
  8
0
 62
     0
 10
4.33529
 20
1.07628
 30
0.0
 11
4.62586
 21
1.09679
 31
0.0
  0
LINE
  8
0
 62
     0
 10
4.62586
 20
1.09679
 30
0.0
 11
4.89953
 21
1.13097
 31
0.0
  0
LINE
  8
0
 62
     0
 10
4.89953
 20
1.13097
 30
0.0
 11
5.15625
 21
1.17882
 31
0.0
  0
LINE
  8
0
 62
     0
 10
5.15625
 20
1.17882
 30
0.0
 11
5.396
 21
1.24034
 31
0.0
  0
LINE
  8
0
 62
     0
 10
5.396
 20
1.24034
 30
0.0
 11
5.61887
 21
1.31554
 31
0.0
  0
LINE
  8
0
 62
     0
 10
5.61887
 20
1.31554
 30
0.0
 11
5.82482
 21
1.4044
 31
0.0
  0
LINE
  8
0
 62
     0
 10
5.82482
 20
1.4044
 30
0.0
 11
6.01389
 21
1.50694
 31
0.0
  0
LINE
  8
0
 62
     0
 10
6.01389
 20
1.50694
 30
0.0
 11
6.18317
 21
1.62315
 31
0.0
  0
LINE
  8
0
 62
     0
 10
6.18317
 20
1.62315
 30
0.0
 11
6.32986
 21
1.75304
 31
0.0
  0
LINE
  8
0
 62
     0
 10
6.32986
 20
1.75304
 30
0.0
 11
6.454
 21
1.8966
 31
0.0
  0
LINE
  8
0
 62
     0
 10
6.454
 20
1.8966
 30
0.0
 11
6.55556
 21
2.05382
 31
0.0
  0
LINE
  8
0
 62
     0
 10
6.55556
 20
2.05382
 30
0.0
 11
6.63456
 21
2.22472
 31
0.0
  0
LINE
  8
0
 62
     0
 10
6.63456
 20
2.22472
 30
0.0
 11
6.69097
 21
2.40929
 31
0.0
  0
LINE
  8
0
 62
     0
 10
6.69097
 20
2.40929
 30
0.0
 11
6.72483
 21
2.60753
 31
0.0
  0
LINE
  8
0
 62
     0
 10
6.72483
 20
2.60753
 30
0.0
 11
6.73611
 21
2.81944
 31
0.0
  0
LINE
  8
0
 62
     0
 10
6.73611
 20
2.81944
 30
0.0
 11
6.70307
 21
3.15625
 31
0.0
  0
LINE
  8
0
 62
     0
 10
6.70307
 20
3.15625
 30
0.0
 11
6.60417
 21
3.47222
 31
0.0
  0
LINE
  8
0
 62
     0
 10
6.60417
 20
3.47222
 30
0.0
 11
6.52735
 21
3.62115
 31
0.0
  0
LINE
  8
0
 62
     0
 10
6.52735
 20
3.62115
 30
0.0
 11
6.42882
 21
3.76215
 31
0.0
  0
LINE
  8
0
 62
     0
 10
6.42882
 20
3.76215
 30
0.0
 11
6.3086
 21
3.8954
 31
0.0
  0
LINE
  8
0
 62
     0
 10
6.3086
 20
3.8954
 30
0.0
 11
6.16667
 21
4.02083
 31
0.0
  0
LINE
  8
0
 62
     0
 10
6.16667
 20
4.02083
 30
0.0
 11
6.00211
 21
4.13764
 31
0.0
  0
LINE
  8
0
 62
     0
 10
6.00211
 20
4.13764
 30
0.0
 11
5.81418
 21
4.24485
 31
0.0
  0
LINE
  8
0
 62
     0
 10
5.81418
 20
4.24485
 30
0.0
 11
5.60281
 21
4.3425
 31
0.0
  0
LINE
  8
0
 62
     0
 10
5.60281
 20
4.3425
 30
0.0
 11
5.36806
 21
4.43056
 31
0.0
  0
LINE
  8
0
 62
     0
 10
5.36806
 20
4.43056
 30
0.0
 11
5.10715
 21
4.50868
 31
0.0
  0
LINE
  8
0
 62
     0
 10
5.10715
 20
4.50868
 30
0.0
 11
4.81765
 21
4.57639
 31
0.0
  0
LINE
  8
0
 62
     0
 10
4.81765
 20
4.57639
 30
0.0
 11
4.49951
 21
4.63368
 31
0.0
  0
LINE
  8
0
 62
     0
 10
4.49951
 20
4.63368
 30
0.0
 11
4.15278
 21
4.68056
 31
0.0
  0
LINE
  8
0
 62
     0
 10
4.15278
 20
4.68056
 30
0.0
 11
3.44444
 21
4.78993
 31
0.0
  0
LINE
  8
0
 62
     0
 10
3.44444
 20
4.78993
 30
0.0
 11
2.79167
 21
4.95139
 31
0.0
  0
LINE
  8
0
 62
     0
 10
2.79167
 20
4.95139
 30
0.0
 11
2.48958
 21
5.05425
 31
0.0
  0
LINE
  8
0
 62
     0
 10
2.48958
 20
5.05425
 30
0.0
 11
2.20833
 21
5.17535
 31
0.0
  0
LINE
  8
0
 62
     0
 10
2.20833
 20
5.17535
 30
0.0
 11
1.94792
 21
5.31467
 31
0.0
  0
LINE
  8
0
 62
     0
 10
1.94792
 20
5.31467
 30
0.0
 11
1.70833
 21
5.47222
 31
0.0
  0
LINE
  8
0
 62
     0
 10
1.70833
 20
5.47222
 30
0.0
 11
1.49132
 21
5.64849
 31
0.0
  0
LINE
  8
0
 62
     0
 10
1.49132
 20
5.64849
 30
0.0
 11
1.29861
 21
5.84381
 31
0.0
  0
LINE
  8
0
 62
     0
 10
1.29861
 20
5.84381
 30
0.0
 11
1.13021
 21
6.05821
 31
0.0
  0
LINE
  8
0
 62
     0
 10
1.13021
 20
6.05821
 30
0.0
 11
0.986111
 21
6.29167
 31
0.0
  0
LINE
  8
0
 62
     0
 10
0.986111
 20
6.29167
 30
0.0
 11
0.870606
 21
6.54688
 31
0.0
  0
LINE
  8
0
 62
     0
 10
0.870606
 20
6.54688
 30
0.0
 11
0.78814
 21
6.82639
 31
0.0
  0
LINE
  8
0
 62
     0
 10
0.78814
 20
6.82639
 30
0.0
 11
0.738661
 21
7.13021
 31
0.0
  0
LINE
  8
0
 62
     0
 10
0.738661
 20
7.13021
 30
0.0
 11
0.722222
 21
7.45833
 31
0.0
  0
LINE
  8
0
 62
     0
 10
0.722222
 20
7.45833
 30
0.0
 11
0.738281
 21
7.78868
 31
0.0
  0
LINE
  8
0
 62
     0
 10
0.738281
 20
7.78868
 30
0.0
 11
0.786458
 21
8.09901
 31
0.0
  0
LINE
  8
0
 62
     0
 10
0.786458
 20
8.09901
 30
0.0
 11
0.866753
 21
8.38937
 31
0.0
  0
LINE
  8
0
 62
     0
 10
0.866753
 20
8.38937
 30
0.0
 11
0.979167
 21
8.65972
 31
0.0
  0
LINE
  8
0
 62
     0
 10
0.979167
 20
8.65972
 30
0.0
 11
1.11974
 21
8.90972
 31
0.0
  0
LINE
  8
0
 62
     0
 10
1.11974
 20
8.90972
 30
0.0
 11
1.28467
 21
9.13889
 31
0.0
  0
LINE
  8
0
 62
     0
 10
1.28467
 20
9.13889
 30
0.0
 11
1.4739
 21
9.34722
 31
0.0
  0
LINE
  8
0
 62
     0
 10
1.4739
 20
9.34722
 30
0.0
 11
1.6875
 21
9.53472
 31
0.0
  0
LINE
  8
0
 62
     0
 10
1.6875
 20
9.53472
 30
0.0
 11
1.92404
 21
9.70139
 31
0.0
  0
LINE
  8
0
 62
     0
 10
1.92404
 20
9.70139
 30
0.0
 11
2.18229
 21
9.84722
 31
0.0
  0
LINE
  8
0
 62
     0
 10
2.18229
 20
9.84722
 30
0.0
 11
2.46224
 21
9.97222
 31
0.0
  0
LINE
  8
0
 62
     0
 10
2.46224
 20
9.97222
 30
0.0
 11
2.76389
 21
10.0764
 31
0.0
  0
LINE
  8
0
 62
     0
 10
2.76389
 20
10.0764
 30
0.0
 11
3.08419
 21
10.1584
 31
0.0
  0
LINE
  8
0
 62
     0
 10
3.08419
 20
10.1584
 30
0.0
 11
3.42014
 21
10.217
 31
0.0
  0
LINE
  8
0
 62
     0
 10
3.42014
 20
10.217
 30
0.0
 11
3.77169
 21
10.2522
 31
0.0
  0
LINE
  8
0
 62
     0
 10
3.77169
 20
10.2522
 30
0.0
 11
4.13889
 21
10.2639
 31
0.0
  0
LINE
  8
0
 62
     0
 10
4.13889
 20
10.2639
 30
0.0
 11
4.66493
 21
10.2448
 31
0.0
  0
LINE
  8
0
 62
     0
 10
4.66493
 20
10.2448
 30
0.0
 11
5.13194
 21
10.1875
 31
0.0
  0
LINE
  8
0
 62
     0
 10
5.13194
 20
10.1875
 30
0.0
 11
5.55203
 21
10.0955
 31
0.0
  0
LINE
  8
0
 62
     0
 10
5.55203
 20
10.0955
 30
0.0
 11
5.9375
 21
9.97222
 31
0.0
  0
LINE
  8
0
 62
     0
 10
5.9375
 20
9.97222
 30
0.0
 11
6.29167
 21
9.82118
 31
0.0
  0
LINE
  8
0
 62
     0
 10
6.29167
 20
9.82118
 30
0.0
 11
6.61806
 21
9.64583
 31
0.0
  0
LINE
  8
0
 62
     0
 10
6.61806
 20
9.64583
 30
0.0
 11
6.92535
 21
9.44971
 31
0.0
  0
LINE
  8
0
 62
     0
 10
6.92535
 20
9.44971
 30
0.0
 11
7.22222
 21
9.23611
 31
0.0
  0
LINE
  8
0
 62
     0
 10
7.22222
 20
9.23611
 30
0.0
 11
7.22222
 21
7.98611
 31
0.0
  0
LINE
  8
0
 62
     0
 10
7.22222
 20
7.98611
 30
0.0
 11
6.84375
 21
8.27696
 31
0.0
  0
LINE
  8
0
 62
     0
 10
6.84375
 20
8.27696
 30
0.0
 11
6.45833
 21
8.52436
 31
0.0
  0
LINE
  8
0
 62
     0
 10
6.45833
 20
8.52436
 30
0.0
 11
6.06597
 21
8.72835
 31
0.0
  0
LINE
  8
0
 62
     0
 10
6.06597
 20
8.72835
 30
0.0
 11
5.66667
 21
8.88889
 31
0.0
  0
LINE
  8
0
 62
     0
 10
5.66667
 20
8.88889
 30
0.0
 11
5.26731
 21
9.01042
 31
0.0
  0
LINE
  8
0
 62
     0
 10
5.26731
 20
9.01042
 30
0.0
 11
4.87494
 21
9.09722
 31
0.0
  0
LINE
  8
0
 62
     0
 10
4.87494
 20
9.09722
 30
0.0
 11
4.48953
 21
9.14931
 31
0.0
  0
LINE
  8
0
 62
     0
 10
4.48953
 20
9.14931
 30
0.0
 11
4.11111
 21
9.16667
 31
0.0
  0
LINE
  8
0
 62
     0
 10
4.11111
 20
9.16667
 30
0.0
 11
3.64583
 21
9.13889
 31
0.0
  0
LINE
  8
0
 62
     0
 10
3.64583
 20
9.13889
 30
0.0
 11
3.22222
 21
9.05556
 31
0.0
  0
LINE
  8
0
 62
     0
 10
3.22222
 20
9.05556
 30
0.0
 11
2.84375
 21
8.92019
 31
0.0
  0
LINE
  8
0
 62
     0
 10
2.84375
 20
8.92019
 30
0.0
 11
2.51389
 21
8.73611
 31
0.0
  0
LINE
  8
0
 62
     0
 10
2.51389
 20
8.73611
 30
0.0
 11
2.36974
 21
8.62631
 31
0.0
  0
LINE
  8
0
 62
     0
 10
2.36974
 20
8.62631
 30
0.0
 11
2.243
 21
8.50521
 31
0.0
  0
LINE
  8
0
 62
     0
 10
2.243
 20
8.50521
 30
0.0
 11
2.13363
 21
8.37283
 31
0.0
  0
LINE
  8
0
 62
     0
 10
2.13363
 20
8.37283
 30
0.0
 11
2.04167
 21
8.22917
 31
0.0
  0
LINE
  8
0
 62
     0
 10
2.04167
 20
8.22917
 30
0.0
 11
1.96875
 21
8.07596
 31
0.0
  0
LINE
  8
0
 62
     0
 10
1.96875
 20
8.07596
 30
0.0
 11
1.91667
 21
7.91493
 31
0.0
  0
LINE
  8
0
 62
     0
 10
1.91667
 20
7.91493
 30
0.0
 11
1.88542
 21
7.7461
 31
0.0
  0
LINE
  8
0
 62
     0
 10
1.88542
 20
7.7461
 30
0.0
 11
1.875
 21
7.56944
 31
0.0
  0
LINE
  8
0
 62
     0
 10
1.875
 20
7.56944
 30
0.0
 11
1.90104
 21
7.26042
 31
0.0
  0
LINE
  8
0
 62
     0
 10
1.90104
 20
7.26042
 30
0.0
 11
1.97917
 21
6.97222
 31
0.0
  0
LINE
  8
0
 62
     0
 10
1.97917
 20
6.97222
 30
0.0
 11
2.04249
 21
6.83643
 31
0.0
  0
LINE
  8
0
 62
     0
 10
2.04249
 20
6.83643
 30
0.0
 11
2.12842
 21
6.70665
 31
0.0
  0
LINE
  8
0
 62
     0
 10
2.12842
 20
6.70665
 30
0.0
 11
2.23693
 21
6.58296
 31
0.0
  0
LINE
  8
0
 62
     0
 10
2.23693
 20
6.58296
 30
0.0
 11
2.36806
 21
6.46528
 31
0.0
  0
LINE
  8
0
 62
     0
 10
2.36806
 20
6.46528
 30
0.0
 11
2.52257
 21
6.35417
 31
0.0
  0
LINE
  8
0
 62
     0
 10
2.52257
 20
6.35417
 30
0.0
 11
2.70139
 21
6.25
 31
0.0
  0
LINE
  8
0
 62
     0
 10
2.70139
 20
6.25
 30
0.0
 11
2.90451
 21
6.15278
 31
0.0
  0
LINE
  8
0
 62
     0
 10
2.90451
 20
6.15278
 30
0.0
 11
3.13194
 21
6.0625
 31
0.0
  0
LINE
  8
0
 62
     0
 10
3.13194
 20
6.0625
 30
0.0
 11
3.38846
 21
5.98053
 31
0.0
  0
LINE
  8
0
 62
     0
 10
3.38846
 20
5.98053
 30
0.0
 11
3.67882
 21
5.90804
 31
0.0
  0
LINE
  8
0
 62
     0
 10
3.67882
 20
5.90804
 30
0.0
 11
4.00304
 21
5.84511
 31
0.0
  0
LINE
  8
0
 62
     0
 10
4.00304
 20
5.84511
 30
0.0
 11
4.36111
 21
5.79167
 31
0.0
  0
LINE
  8
0
 62
     0
 10
4.36111
 20
5.79167
 30
0.0
 11
4.829
 21
5.71571
 31
0.0
  0
LINE
  8
0
 62
     0
 10
4.829
 20
5.71571
 30
0.0
 11
5.26042
 21
5.62674
 31
0.0
  0
LINE
  8
0
 62
     0
 10
5.26042
 20
5.62674
 30
0.0
 11
5.65533
 21
5.52474
 31
0.0
  0
LINE
  8
0
 62
     0
 10
5.65533
 20
5.52474
 30
0.0
 11
6.01389
 21
5.40972
 31
0.0
  0
LINE
  8
0
 62
     0
 10
6.01389
 20
5.40972
 30
0.0
 11
6.33767
 21
5.28082
 31
0.0
  0
LINE
  8
0
 62
     0
 10
6.33767
 20
5.28082
 30
0.0
 11
6.62847
 21
5.13715
 31
0.0
  0
LINE
  8
0
 62
     0
 10
6.62847
 20
5.13715
 30
0.0
 11
6.88628
 21
4.97874
 31
0.0
  0
LINE
  8
0
 62
     0
 10
6.88628
 20
4.97874
 30
0.0
 11
7.11111
 21
4.80556
 31
0.0
  0
LINE
  8
0
 62
     0
 10
7.11111
 20
4.80556
 30
0.0
 11
7.30512
 21
4.61724
 31
0.0
  0
LINE
  8
0
 62
     0
 10
7.30512
 20
4.61724
 30
0.0
 11
7.47049
 21
4.41319
 31
0.0
  0
LINE
  8
0
 62
     0
 10
7.47049
 20
4.41319
 30
0.0
 11
7.60721
 21
4.19358
 31
0.0
  0
LINE
  8
0
 62
     0
 10
7.60721
 20
4.19358
 30
0.0
 11
7.71528
 21
3.95833
 31
0.0
  0
LINE
  8
0
 62
     0
 10
7.71528
 20
3.95833
 30
0.0
 11
7.79731
 21
3.70665
 31
0.0
  0
LINE
  8
0
 62
     0
 10
7.79731
 20
3.70665
 30
0.0
 11
7.8559
 21
3.43756
 31
0.0
  0
LINE
  8
0
 62
     0
 10
7.8559
 20
3.43756
 30
0.0
 11
7.89106
 21
3.1511
 31
0.0
  0
LINE
  8
0
 62
     0
 10
7.89106
 20
3.1511
 30
0.0
 11
7.90278
 21
2.84722
 31
0.0
  0
LINE
  8
0
 62
     0
 10
7.90278
 20
2.84722
 30
0.0
 11
7.88726
 21
2.50032
 31
0.0
  0
LINE
  8
0
 62
     0
 10
7.88726
 20
2.50032
 30
0.0
 11
7.84071
 21
2.17492
 31
0.0
  0
LINE
  8
0
 62
     0
 10
7.84071
 20
2.17492
 30
0.0
 11
7.76313
 21
1.87099
 31
0.0
  0
LINE
  8
0
 62
     0
 10
7.76313
 20
1.87099
 30
0.0
 11
7.65451
 21
1.58854
 31
0.0
  0
LINE
  8
0
 62
     0
 10
7.65451
 20
1.58854
 30
0.0
 11
7.51486
 21
1.32764
 31
0.0
  0
LINE
  8
0
 62
     0
 10
7.51486
 20
1.32764
 30
0.0
 11
7.34418
 21
1.08816
 31
0.0
  0
LINE
  8
0
 62
     0
 10
7.34418
 20
1.08816
 30
0.0
 11
7.14247
 21
0.870171
 31
0.0
  0
LINE
  8
0
 62
     0
 10
7.14247
 20
0.870171
 30
0.0
 11
6.90972
 21
0.673611
 31
0.0
  0
LINE
  8
0
 62
     0
 10
6.90972
 20
0.673611
 30
0.0
 11
6.64763
 21
0.499457
 31
0.0
  0
LINE
  8
0
 62
     0
 10
6.64763
 20
0.499457
 30
0.0
 11
6.35801
 21
0.348525
 31
0.0
  0
LINE
  8
0
 62
     0
 10
6.35801
 20
0.348525
 30
0.0
 11
6.04085
 21
0.220811
 31
0.0
  0
LINE
  8
0
 62
     0
 10
6.04085
 20
0.220811
 30
0.0
 11
5.69613
 21
0.116319
 31
0.0
  0
LINE
  8
0
 62
     0
 10
5.69613
 20
0.116319
 30
0.0
 11
5.32383
 21
0.0350478
 31
0.0
  0
LINE
  8
0
 62
     0
 10
5.32383
 20
0.0350478
 30
0.0
 11
4.92399
 21
-0.0230035
 31
0.0
  0
LINE
  8
0
 62
     0
 10
4.92399
 20
-0.0230035
 30
0.0
 11
4.49658
 21
-0.0578342
 31
0.0
  0
LINE
  8
0
 62
     0
 10
4.49658
 20
-0.0578342
 30
0.0
 11
4.04167
 21
-0.0694444
 31
0.0
  0
ENDSEC
  0
EOF
