  0
SECTION
  2
HEADER
  9
$ACADVER
  1
AC1009
  9
$EXTMIN
 10
0.0
 20
0.0
 30
0.0
  9
$EXTMAX
 10
1000.0
 20
1000.0
 30
0.0
  9
$FILLMODE
 70
 0
  9
$SPLFRAME
 70
 1
  0
ENDSEC
  0
SECTION
  2
TABLES
  0
TABLE
  2
LAYER
 70
1
  0
LAYER
  2
0
 70
     0
 62
     7
  6
CONTINUOUS
  0
ENDTAB
  0
ENDSEC
  0
SECTION
  2
ENTITIES
  0
LINE
  8
0
 62
     0
 10
2.65278
 20
4.65278
 30
0.0
 11
2.91493
 21
4.6741
 31
0.0
  0
LINE
  8
0
 62
     0
 10
2.91493
 20
4.6741
 30
0.0
 11
3.14583
 21
4.7379
 31
0.0
  0
LINE
  8
0
 62
     0
 10
3.14583
 20
4.7379
 30
0.0
 11
3.34549
 21
4.84424
 31
0.0
  0
LINE
  8
0
 62
     0
 10
3.34549
 20
4.84424
 30
0.0
 11
3.51389
 21
4.99306
 31
0.0
  0
LINE
  8
0
 62
     0
 10
3.51389
 20
4.99306
 30
0.0
 11
3.64757
 21
5.17925
 31
0.0
  0
LINE
  8
0
 62
     0
 10
3.64757
 20
5.17925
 30
0.0
 11
3.74306
 21
5.39757
 31
0.0
  0
LINE
  8
0
 62
     0
 10
3.74306
 20
5.39757
 30
0.0
 11
3.80035
 21
5.648
 31
0.0
  0
LINE
  8
0
 62
     0
 10
3.80035
 20
5.648
 30
0.0
 11
3.81944
 21
5.93056
 31
0.0
  0
LINE
  8
0
 62
     0
 10
3.81944
 20
5.93056
 30
0.0
 11
3.80556
 21
6.18924
 31
0.0
  0
LINE
  8
0
 62
     0
 10
3.80556
 20
6.18924
 30
0.0
 11
3.76389
 21
6.4375
 31
0.0
  0
LINE
  8
0
 62
     0
 10
3.76389
 20
6.4375
 30
0.0
 11
3.69092
 21
6.66672
 31
0.0
  0
LINE
  8
0
 62
     0
 10
3.69092
 20
6.66672
 30
0.0
 11
3.58333
 21
6.86806
 31
0.0
  0
LINE
  8
0
 62
     0
 10
3.58333
 20
6.86806
 30
0.0
 11
3.43403
 21
7.03472
 31
0.0
  0
LINE
  8
0
 62
     0
 10
3.43403
 20
7.03472
 30
0.0
 11
3.23611
 21
7.15972
 31
0.0
  0
LINE
  8
0
 62
     0
 10
3.23611
 20
7.15972
 30
0.0
 11
2.98606
 21
7.23785
 31
0.0
  0
LINE
  8
0
 62
     0
 10
2.98606
 20
7.23785
 30
0.0
 11
2.68056
 21
7.26389
 31
0.0
  0
LINE
  8
0
 62
     0
 10
2.68056
 20
7.26389
 30
0.0
 11
2.38542
 21
7.23611
 31
0.0
  0
LINE
  8
0
 62
     0
 10
2.38542
 20
7.23611
 30
0.0
 11
2.13889
 21
7.15278
 31
0.0
  0
LINE
  8
0
 62
     0
 10
2.13889
 20
7.15278
 30
0.0
 11
1.93397
 21
7.02263
 31
0.0
  0
LINE
  8
0
 62
     0
 10
1.93397
 20
7.02263
 30
0.0
 11
1.76389
 21
6.85417
 31
0.0
  0
LINE
  8
0
 62
     0
 10
1.76389
 20
6.85417
 30
0.0
 11
1.63194
 21
6.65451
 31
0.0
  0
LINE
  8
0
 62
     0
 10
1.63194
 20
6.65451
 30
0.0
 11
1.54167
 21
6.43056
 31
0.0
  0
LINE
  8
0
 62
     0
 10
1.54167
 20
6.43056
 30
0.0
 11
1.48958
 21
6.18756
 31
0.0
  0
LINE
  8
0
 62
     0
 10
1.48958
 20
6.18756
 30
0.0
 11
1.47222
 21
5.93056
 31
0.0
  0
LINE
  8
0
 62
     0
 10
1.47222
 20
5.93056
 30
0.0
 11
1.48915
 21
5.67063
 31
0.0
  0
LINE
  8
0
 62
     0
 10
1.48915
 20
5.67063
 30
0.0
 11
1.53993
 21
5.43235
 31
0.0
  0
LINE
  8
0
 62
     0
 10
1.53993
 20
5.43235
 30
0.0
 11
1.62457
 21
5.21576
 31
0.0
  0
LINE
  8
0
 62
     0
 10
1.62457
 20
5.21576
 30
0.0
 11
1.74306
 21
5.02083
 31
0.0
  0
LINE
  8
0
 62
     0
 10
1.74306
 20
5.02083
 30
0.0
 11
1.90142
 21
4.85981
 31
0.0
  0
LINE
  8
0
 62
     0
 10
1.90142
 20
4.85981
 30
0.0
 11
2.10585
 21
4.74479
 31
0.0
  0
LINE
  8
0
 62
     0
 10
2.10585
 20
4.74479
 30
0.0
 11
2.35628
 21
4.67578
 31
0.0
  0
LINE
  8
0
 62
     0
 10
2.35628
 20
4.67578
 30
0.0
 11
2.65278
 21
4.65278
 31
0.0
  0
LINE
  8
0
 62
     0
 10
2.76389
 20
7.97222
 30
0.0
 11
2.97624
 21
7.96343
 31
0.0
  0
LINE
  8
0
 62
     0
 10
2.97624
 20
7.96343
 30
0.0
 11
3.17578
 21
7.93707
 31
0.0
  0
LINE
  8
0
 62
     0
 10
3.17578
 20
7.93707
 30
0.0
 11
3.36253
 21
7.89312
 31
0.0
  0
LINE
  8
0
 62
     0
 10
3.36253
 20
7.89312
 30
0.0
 11
3.53646
 21
7.8316
 31
0.0
  0
LINE
  8
0
 62
     0
 10
3.53646
 20
7.8316
 30
0.0
 11
3.6976
 21
7.7525
 31
0.0
  0
LINE
  8
0
 62
     0
 10
3.6976
 20
7.7525
 30
0.0
 11
3.84592
 21
7.65582
 31
0.0
  0
LINE
  8
0
 62
     0
 10
3.84592
 20
7.65582
 30
0.0
 11
3.98144
 21
7.54156
 31
0.0
  0
LINE
  8
0
 62
     0
 10
3.98144
 20
7.54156
 30
0.0
 11
4.10417
 21
7.40972
 31
0.0
  0
LINE
  8
0
 62
     0
 10
4.10417
 20
7.40972
 30
0.0
 11
4.30767
 21
7.10633
 31
0.0
  0
LINE
  8
0
 62
     0
 10
4.30767
 20
7.10633
 30
0.0
 11
4.45307
 21
6.75868
 31
0.0
  0
LINE
  8
0
 62
     0
 10
4.45307
 20
6.75868
 30
0.0
 11
4.54031
 21
6.36675
 31
0.0
  0
LINE
  8
0
 62
     0
 10
4.54031
 20
6.36675
 30
0.0
 11
4.56944
 21
5.93056
 31
0.0
  0
LINE
  8
0
 62
     0
 10
4.56944
 20
5.93056
 30
0.0
 11
4.55946
 21
5.67626
 31
0.0
  0
LINE
  8
0
 62
     0
 10
4.55946
 20
5.67626
 30
0.0
 11
4.52951
 21
5.44103
 31
0.0
  0
LINE
  8
0
 62
     0
 10
4.52951
 20
5.44103
 30
0.0
 11
4.4796
 21
5.22488
 31
0.0
  0
LINE
  8
0
 62
     0
 10
4.4796
 20
5.22488
 30
0.0
 11
4.40972
 21
5.02778
 31
0.0
  0
LINE
  8
0
 62
     0
 10
4.40972
 20
5.02778
 30
0.0
 11
4.32286
 21
4.84896
 31
0.0
  0
LINE
  8
0
 62
     0
 10
4.32286
 20
4.84896
 30
0.0
 11
4.22217
 21
4.6875
 31
0.0
  0
LINE
  8
0
 62
     0
 10
4.22217
 20
4.6875
 30
0.0
 11
4.10758
 21
4.5434
 31
0.0
  0
LINE
  8
0
 62
     0
 10
4.10758
 20
4.5434
 30
0.0
 11
3.97917
 21
4.41667
 31
0.0
  0
LINE
  8
0
 62
     0
 10
3.97917
 20
4.41667
 30
0.0
 11
3.69092
 21
4.2136
 31
0.0
  0
LINE
  8
0
 62
     0
 10
3.69092
 20
4.2136
 30
0.0
 11
3.36806
 21
4.07639
 31
0.0
  0
LINE
  8
0
 62
     0
 10
3.36806
 20
4.07639
 30
0.0
 11
3.0191
 21
3.99826
 31
0.0
  0
LINE
  8
0
 62
     0
 10
3.0191
 20
3.99826
 30
0.0
 11
2.65278
 21
3.97222
 31
0.0
  0
LINE
  8
0
 62
     0
 10
2.65278
 20
3.97222
 30
0.0
 11
2.26215
 21
3.99826
 31
0.0
  0
LINE
  8
0
 62
     0
 10
2.26215
 20
3.99826
 30
0.0
 11
1.89583
 21
4.07639
 31
0.0
  0
LINE
  8
0
 62
     0
 10
1.89583
 20
4.07639
 30
0.0
 11
1.72439
 21
4.13678
 31
0.0
  0
LINE
  8
0
 62
     0
 10
1.72439
 20
4.13678
 30
0.0
 11
1.56424
 21
4.2136
 31
0.0
  0
LINE
  8
0
 62
     0
 10
1.56424
 20
4.2136
 30
0.0
 11
1.41536
 21
4.30692
 31
0.0
  0
LINE
  8
0
 62
     0
 10
1.41536
 20
4.30692
 30
0.0
 11
1.27778
 21
4.41667
 31
0.0
  0
LINE
  8
0
 62
     0
 10
1.27778
 20
4.41667
 30
0.0
 11
1.15272
 21
4.5434
 31
0.0
  0
LINE
  8
0
 62
     0
 10
1.15272
 20
4.5434
 30
0.0
 11
1.04161
 21
4.6875
 31
0.0
  0
LINE
  8
0
 62
     0
 10
1.04161
 20
4.6875
 30
0.0
 11
0.94439
 21
4.84896
 31
0.0
  0
LINE
  8
0
 62
     0
 10
0.94439
 20
4.84896
 30
0.0
 11
0.861111
 21
5.02778
 31
0.0
  0
LINE
  8
0
 62
     0
 10
0.861111
 20
5.02778
 30
0.0
 11
0.794271
 21
5.22569
 31
0.0
  0
LINE
  8
0
 62
     0
 10
0.794271
 20
5.22569
 30
0.0
 11
0.746528
 21
5.44444
 31
0.0
  0
LINE
  8
0
 62
     0
 10
0.746528
 20
5.44444
 30
0.0
 11
0.717882
 21
5.68403
 31
0.0
  0
LINE
  8
0
 62
     0
 10
0.717882
 20
5.68403
 30
0.0
 11
0.708333
 21
5.94444
 31
0.0
  0
LINE
  8
0
 62
     0
 10
0.708333
 20
5.94444
 30
0.0
 11
0.737793
 21
6.26563
 31
0.0
  0
LINE
  8
0
 62
     0
 10
0.737793
 20
6.26563
 30
0.0
 11
0.826389
 21
6.61806
 31
0.0
  0
LINE
  8
0
 62
     0
 10
0.826389
 20
6.61806
 30
0.0
 11
0.946181
 21
6.94965
 31
0.0
  0
LINE
  8
0
 62
     0
 10
0.946181
 20
6.94965
 30
0.0
 11
1.06944
 21
7.20833
 31
0.0
  0
LINE
  8
0
 62
     0
 10
1.06944
 20
7.20833
 30
0.0
 11
2.76389
 21
10.1389
 31
0.0
  0
LINE
  8
0
 62
     0
 10
2.76389
 20
10.1389
 30
0.0
 11
3.69444
 21
10.1389
 31
0.0
  0
LINE
  8
0
 62
     0
 10
3.69444
 20
10.1389
 30
0.0
 11
2.33333
 21
7.90278
 31
0.0
  0
LINE
  8
0
 62
     0
 10
2.33333
 20
7.90278
 30
0.0
 11
2.53125
 21
7.95486
 31
0.0
  0
LINE
  8
0
 62
     0
 10
2.53125
 20
7.95486
 30
0.0
 11
2.76389
 21
7.97222
 31
0.0
  0
ENDSEC
  0
EOF
