  0
SECTION
  2
HEADER
  9
$ACADVER
  1
AC1009
  9
$EXTMIN
 10
0.0
 20
0.0
 30
0.0
  9
$EXTMAX
 10
1000.0
 20
1000.0
 30
0.0
  9
$FILLMODE
 70
 0
  9
$SPLFRAME
 70
 1
  0
ENDSEC
  0
SECTION
  2
TABLES
  0
TABLE
  2
LAYER
 70
1
  0
LAYER
  2
0
 70
     0
 62
     7
  6
CONTINUOUS
  0
ENDTAB
  0
ENDSEC
  0
SECTION
  2
ENTITIES
  0
LINE
  8
0
 62
     0
 10
5.76389
 20
4.72222
 30
0.0
 11
3.47222
 21
4.72222
 31
0.0
  0
LINE
  8
0
 62
     0
 10
3.47222
 20
4.72222
 30
0.0
 11
3.57639
 21
4.19797
 31
0.0
  0
LINE
  8
0
 62
     0
 10
3.57639
 20
4.19797
 30
0.0
 11
3.61111
 21
3.70833
 31
0.0
  0
LINE
  8
0
 62
     0
 10
3.61111
 20
3.70833
 30
0.0
 11
3.59983
 21
3.40022
 31
0.0
  0
LINE
  8
0
 62
     0
 10
3.59983
 20
3.40022
 30
0.0
 11
3.56597
 21
3.10075
 31
0.0
  0
LINE
  8
0
 62
     0
 10
3.56597
 20
3.10075
 30
0.0
 11
3.50956
 21
2.80994
 31
0.0
  0
LINE
  8
0
 62
     0
 10
3.50956
 20
2.80994
 30
0.0
 11
3.43056
 21
2.52778
 31
0.0
  0
LINE
  8
0
 62
     0
 10
3.43056
 20
2.52778
 30
0.0
 11
3.22217
 21
1.98958
 31
0.0
  0
LINE
  8
0
 62
     0
 10
3.22217
 20
1.98958
 30
0.0
 11
2.95833
 21
1.48611
 31
0.0
  0
LINE
  8
0
 62
     0
 10
2.95833
 20
1.48611
 30
0.0
 11
3.19444
 21
1.5
 31
0.0
  0
LINE
  8
0
 62
     0
 10
3.19444
 20
1.5
 30
0.0
 11
3.44444
 21
1.5
 31
0.0
  0
LINE
  8
0
 62
     0
 10
3.44444
 20
1.5
 30
0.0
 11
3.82286
 21
1.47396
 31
0.0
  0
LINE
  8
0
 62
     0
 10
3.82286
 20
1.47396
 30
0.0
 11
4.15278
 21
1.39583
 31
0.0
  0
LINE
  8
0
 62
     0
 10
4.15278
 20
1.39583
 30
0.0
 11
4.73611
 21
1.16667
 31
0.0
  0
LINE
  8
0
 62
     0
 10
4.73611
 20
1.16667
 30
0.0
 11
5.29167
 21
0.9375
 31
0.0
  0
LINE
  8
0
 62
     0
 10
5.29167
 20
0.9375
 30
0.0
 11
5.59028
 21
0.859375
 31
0.0
  0
LINE
  8
0
 62
     0
 10
5.59028
 20
0.859375
 30
0.0
 11
5.93056
 21
0.833333
 31
0.0
  0
LINE
  8
0
 62
     0
 10
5.93056
 20
0.833333
 30
0.0
 11
6.11372
 21
0.851128
 31
0.0
  0
LINE
  8
0
 62
     0
 10
6.11372
 20
0.851128
 30
0.0
 11
6.30208
 21
0.904514
 31
0.0
  0
LINE
  8
0
 62
     0
 10
6.30208
 20
0.904514
 30
0.0
 11
6.49567
 21
0.993489
 31
0.0
  0
LINE
  8
0
 62
     0
 10
6.49567
 20
0.993489
 30
0.0
 11
6.69444
 21
1.11806
 31
0.0
  0
LINE
  8
0
 62
     0
 10
6.69444
 20
1.11806
 30
0.0
 11
7.06939
 21
1.42193
 31
0.0
  0
LINE
  8
0
 62
     0
 10
7.06939
 20
1.42193
 30
0.0
 11
7.38889
 21
1.76389
 31
0.0
  0
LINE
  8
0
 62
     0
 10
7.38889
 20
1.76389
 30
0.0
 11
8
 21
1.01389
 31
0.0
  0
LINE
  8
0
 62
     0
 10
8
 20
1.01389
 30
0.0
 11
7.81071
 21
0.812554
 31
0.0
  0
LINE
  8
0
 62
     0
 10
7.81071
 20
0.812554
 30
0.0
 11
7.57639
 21
0.597222
 31
0.0
  0
LINE
  8
0
 62
     0
 10
7.57639
 20
0.597222
 30
0.0
 11
7.30897
 21
0.381944
 31
0.0
  0
LINE
  8
0
 62
     0
 10
7.30897
 20
0.381944
 30
0.0
 11
7.02083
 21
0.180556
 31
0.0
  0
LINE
  8
0
 62
     0
 10
7.02083
 20
0.180556
 30
0.0
 11
6.72049
 21
0.00352647
 31
0.0
  0
LINE
  8
0
 62
     0
 10
6.72049
 20
0.00352647
 30
0.0
 11
6.41667
 21
-0.138889
 31
0.0
  0
LINE
  8
0
 62
     0
 10
6.41667
 20
-0.138889
 30
0.0
 11
6.12494
 21
-0.232639
 31
0.0
  0
LINE
  8
0
 62
     0
 10
6.12494
 20
-0.232639
 30
0.0
 11
5.86111
 21
-0.263889
 31
0.0
  0
LINE
  8
0
 62
     0
 10
5.86111
 20
-0.263889
 30
0.0
 11
5.493
 21
-0.234375
 31
0.0
  0
LINE
  8
0
 62
     0
 10
5.493
 20
-0.234375
 30
0.0
 11
5.16667
 21
-0.145833
 31
0.0
  0
LINE
  8
0
 62
     0
 10
5.16667
 20
-0.145833
 30
0.0
 11
4.56944
 21
0.111111
 31
0.0
  0
LINE
  8
0
 62
     0
 10
4.56944
 20
0.111111
 30
0.0
 11
4.26736
 21
0.244792
 31
0.0
  0
LINE
  8
0
 62
     0
 10
4.26736
 20
0.244792
 30
0.0
 11
3.94444
 21
0.368056
 31
0.0
  0
LINE
  8
0
 62
     0
 10
3.94444
 20
0.368056
 30
0.0
 11
3.77078
 21
0.41976
 31
0.0
  0
LINE
  8
0
 62
     0
 10
3.77078
 20
0.41976
 30
0.0
 11
3.58328
 21
0.456651
 31
0.0
  0
LINE
  8
0
 62
     0
 10
3.58328
 20
0.456651
 30
0.0
 11
3.38189
 21
0.478787
 31
0.0
  0
LINE
  8
0
 62
     0
 10
3.38189
 20
0.478787
 30
0.0
 11
3.16667
 21
0.486111
 31
0.0
  0
LINE
  8
0
 62
     0
 10
3.16667
 20
0.486111
 30
0.0
 11
3.03168
 21
0.4796
 31
0.0
  0
LINE
  8
0
 62
     0
 10
3.03168
 20
0.4796
 30
0.0
 11
2.86285
 21
0.460069
 31
0.0
  0
LINE
  8
0
 62
     0
 10
2.86285
 20
0.460069
 30
0.0
 11
2.6601
 21
0.427517
 31
0.0
  0
LINE
  8
0
 62
     0
 10
2.6601
 20
0.427517
 30
0.0
 11
2.42361
 21
0.381944
 31
0.0
  0
LINE
  8
0
 62
     0
 10
2.42361
 20
0.381944
 30
0.0
 11
2.15235
 21
0.310331
 31
0.0
  0
LINE
  8
0
 62
     0
 10
2.15235
 20
0.310331
 30
0.0
 11
1.84549
 21
0.199653
 31
0.0
  0
LINE
  8
0
 62
     0
 10
1.84549
 20
0.199653
 30
0.0
 11
1.50304
 21
0.0499132
 31
0.0
  0
LINE
  8
0
 62
     0
 10
1.50304
 20
0.0499132
 30
0.0
 11
1.125
 21
-0.138889
 31
0.0
  0
LINE
  8
0
 62
     0
 10
1.125
 20
-0.138889
 30
0.0
 11
0.694444
 21
0.805556
 31
0.0
  0
LINE
  8
0
 62
     0
 10
0.694444
 20
0.805556
 30
0.0
 11
0.961806
 21
0.932346
 31
0.0
  0
LINE
  8
0
 62
     0
 10
0.961806
 20
0.932346
 30
0.0
 11
1.18056
 21
1.03472
 31
0.0
  0
LINE
  8
0
 62
     0
 10
1.18056
 20
1.03472
 30
0.0
 11
1.35938
 21
1.12326
 31
0.0
  0
LINE
  8
0
 62
     0
 10
1.35938
 20
1.12326
 30
0.0
 11
1.50694
 21
1.20833
 31
0.0
  0
LINE
  8
0
 62
     0
 10
1.50694
 20
1.20833
 30
0.0
 11
1.73611
 21
1.39583
 31
0.0
  0
LINE
  8
0
 62
     0
 10
1.73611
 20
1.39583
 30
0.0
 11
1.83681
 21
1.51221
 31
0.0
  0
LINE
  8
0
 62
     0
 10
1.83681
 20
1.51221
 30
0.0
 11
1.94444
 21
1.65278
 31
0.0
  0
LINE
  8
0
 62
     0
 10
1.94444
 20
1.65278
 30
0.0
 11
2.0746
 21
1.86197
 31
0.0
  0
LINE
  8
0
 62
     0
 10
2.0746
 20
1.86197
 30
0.0
 11
2.18744
 21
2.08681
 31
0.0
  0
LINE
  8
0
 62
     0
 10
2.18744
 20
2.08681
 30
0.0
 11
2.28293
 21
2.32731
 31
0.0
  0
LINE
  8
0
 62
     0
 10
2.28293
 20
2.32731
 30
0.0
 11
2.36111
 21
2.58333
 31
0.0
  0
LINE
  8
0
 62
     0
 10
2.36111
 20
2.58333
 30
0.0
 11
2.46528
 21
3.11458
 31
0.0
  0
LINE
  8
0
 62
     0
 10
2.46528
 20
3.11458
 30
0.0
 11
2.5
 21
3.65278
 31
0.0
  0
LINE
  8
0
 62
     0
 10
2.5
 20
3.65278
 30
0.0
 11
2.49132
 21
3.92535
 31
0.0
  0
LINE
  8
0
 62
     0
 10
2.49132
 20
3.92535
 30
0.0
 11
2.46528
 21
4.1875
 31
0.0
  0
LINE
  8
0
 62
     0
 10
2.46528
 20
4.1875
 30
0.0
 11
2.375
 21
4.72222
 31
0.0
  0
LINE
  8
0
 62
     0
 10
2.375
 20
4.72222
 30
0.0
 11
1.20833
 21
4.72222
 31
0.0
  0
LINE
  8
0
 62
     0
 10
1.20833
 20
4.72222
 30
0.0
 11
1.20833
 21
5.81944
 31
0.0
  0
LINE
  8
0
 62
     0
 10
1.20833
 20
5.81944
 30
0.0
 11
2.125
 21
5.81944
 31
0.0
  0
LINE
  8
0
 62
     0
 10
2.125
 20
5.81944
 30
0.0
 11
1.97917
 21
6.54861
 31
0.0
  0
LINE
  8
0
 62
     0
 10
1.97917
 20
6.54861
 30
0.0
 11
1.93229
 21
6.92188
 31
0.0
  0
LINE
  8
0
 62
     0
 10
1.93229
 20
6.92188
 30
0.0
 11
1.91667
 21
7.30556
 31
0.0
  0
LINE
  8
0
 62
     0
 10
1.91667
 20
7.30556
 30
0.0
 11
1.92969
 21
7.64453
 31
0.0
  0
LINE
  8
0
 62
     0
 10
1.92969
 20
7.64453
 30
0.0
 11
1.96875
 21
7.96701
 31
0.0
  0
LINE
  8
0
 62
     0
 10
1.96875
 20
7.96701
 30
0.0
 11
2.03386
 21
8.273
 31
0.0
  0
LINE
  8
0
 62
     0
 10
2.03386
 20
8.273
 30
0.0
 11
2.125
 21
8.5625
 31
0.0
  0
LINE
  8
0
 62
     0
 10
2.125
 20
8.5625
 30
0.0
 11
2.2404
 21
8.8329
 31
0.0
  0
LINE
  8
0
 62
     0
 10
2.2404
 20
8.8329
 30
0.0
 11
2.37842
 21
9.0816
 31
0.0
  0
LINE
  8
0
 62
     0
 10
2.37842
 20
9.0816
 30
0.0
 11
2.53901
 21
9.3086
 31
0.0
  0
LINE
  8
0
 62
     0
 10
2.53901
 20
9.3086
 30
0.0
 11
2.72222
 21
9.51389
 31
0.0
  0
LINE
  8
0
 62
     0
 10
2.72222
 20
9.51389
 30
0.0
 11
2.92535
 21
9.6971
 31
0.0
  0
LINE
  8
0
 62
     0
 10
2.92535
 20
9.6971
 30
0.0
 11
3.14583
 21
9.85769
 31
0.0
  0
LINE
  8
0
 62
     0
 10
3.14583
 20
9.85769
 30
0.0
 11
3.38368
 21
9.99571
 31
0.0
  0
LINE
  8
0
 62
     0
 10
3.38368
 20
9.99571
 30
0.0
 11
3.63889
 21
10.1111
 31
0.0
  0
LINE
  8
0
 62
     0
 10
3.63889
 20
10.1111
 30
0.0
 11
3.91058
 21
10.2023
 31
0.0
  0
LINE
  8
0
 62
     0
 10
3.91058
 20
10.2023
 30
0.0
 11
4.19792
 21
10.2674
 31
0.0
  0
LINE
  8
0
 62
     0
 10
4.19792
 20
10.2674
 30
0.0
 11
4.50086
 21
10.3064
 31
0.0
  0
LINE
  8
0
 62
     0
 10
4.50086
 20
10.3064
 30
0.0
 11
4.81944
 21
10.3194
 31
0.0
  0
LINE
  8
0
 62
     0
 10
4.81944
 20
10.3194
 30
0.0
 11
5.19054
 21
10.2943
 31
0.0
  0
LINE
  8
0
 62
     0
 10
5.19054
 20
10.2943
 30
0.0
 11
5.55382
 21
10.2188
 31
0.0
  0
LINE
  8
0
 62
     0
 10
5.55382
 20
10.2188
 30
0.0
 11
5.90929
 21
10.0929
 31
0.0
  0
LINE
  8
0
 62
     0
 10
5.90929
 20
10.0929
 30
0.0
 11
6.25694
 21
9.91667
 31
0.0
  0
LINE
  8
0
 62
     0
 10
6.25694
 20
9.91667
 30
0.0
 11
6.58376
 21
9.70404
 31
0.0
  0
LINE
  8
0
 62
     0
 10
6.58376
 20
9.70404
 30
0.0
 11
6.87674
 21
9.46881
 31
0.0
  0
LINE
  8
0
 62
     0
 10
6.87674
 20
9.46881
 30
0.0
 11
7.13585
 21
9.21099
 31
0.0
  0
LINE
  8
0
 62
     0
 10
7.13585
 20
9.21099
 30
0.0
 11
7.36111
 21
8.93056
 31
0.0
  0
LINE
  8
0
 62
     0
 10
7.36111
 20
8.93056
 30
0.0
 11
6.61111
 21
8.125
 31
0.0
  0
LINE
  8
0
 62
     0
 10
6.61111
 20
8.125
 30
0.0
 11
6.2309
 21
8.54167
 31
0.0
  0
LINE
  8
0
 62
     0
 10
6.2309
 20
8.54167
 30
0.0
 11
5.8125
 21
8.90278
 31
0.0
  0
LINE
  8
0
 62
     0
 10
5.8125
 20
8.90278
 30
0.0
 11
5.58464
 21
9.04861
 31
0.0
  0
LINE
  8
0
 62
     0
 10
5.58464
 20
9.04861
 30
0.0
 11
5.33854
 21
9.15278
 31
0.0
  0
LINE
  8
0
 62
     0
 10
5.33854
 20
9.15278
 30
0.0
 11
5.07422
 21
9.21528
 31
0.0
  0
LINE
  8
0
 62
     0
 10
5.07422
 20
9.21528
 30
0.0
 11
4.79167
 21
9.23611
 31
0.0
  0
LINE
  8
0
 62
     0
 10
4.79167
 20
9.23611
 30
0.0
 11
4.46175
 21
9.21007
 31
0.0
  0
LINE
  8
0
 62
     0
 10
4.46175
 20
9.21007
 30
0.0
 11
4.13889
 21
9.13194
 31
0.0
  0
LINE
  8
0
 62
     0
 10
4.13889
 20
9.13194
 30
0.0
 11
3.83854
 21
8.99653
 31
0.0
  0
LINE
  8
0
 62
     0
 10
3.83854
 20
8.99653
 30
0.0
 11
3.57639
 21
8.79861
 31
0.0
  0
LINE
  8
0
 62
     0
 10
3.57639
 20
8.79861
 30
0.0
 11
3.46044
 21
8.67578
 31
0.0
  0
LINE
  8
0
 62
     0
 10
3.46044
 20
8.67578
 30
0.0
 11
3.35585
 21
8.53646
 31
0.0
  0
LINE
  8
0
 62
     0
 10
3.35585
 20
8.53646
 30
0.0
 11
3.26253
 21
8.38064
 31
0.0
  0
LINE
  8
0
 62
     0
 10
3.26253
 20
8.38064
 30
0.0
 11
3.18056
 21
8.20833
 31
0.0
  0
LINE
  8
0
 62
     0
 10
3.18056
 20
8.20833
 30
0.0
 11
3.11372
 21
8.01828
 31
0.0
  0
LINE
  8
0
 62
     0
 10
3.11372
 20
8.01828
 30
0.0
 11
3.06597
 21
7.80908
 31
0.0
  0
LINE
  8
0
 62
     0
 10
3.06597
 20
7.80908
 30
0.0
 11
3.03733
 21
7.58078
 31
0.0
  0
LINE
  8
0
 62
     0
 10
3.03733
 20
7.58078
 30
0.0
 11
3.02778
 21
7.33333
 31
0.0
  0
LINE
  8
0
 62
     0
 10
3.02778
 20
7.33333
 30
0.0
 11
3.04161
 21
6.94618
 31
0.0
  0
LINE
  8
0
 62
     0
 10
3.04161
 20
6.94618
 30
0.0
 11
3.08333
 21
6.5625
 31
0.0
  0
LINE
  8
0
 62
     0
 10
3.08333
 20
6.5625
 30
0.0
 11
3.22222
 21
5.81944
 31
0.0
  0
LINE
  8
0
 62
     0
 10
3.22222
 20
5.81944
 30
0.0
 11
5.76389
 21
5.81944
 31
0.0
  0
LINE
  8
0
 62
     0
 10
5.76389
 20
5.81944
 30
0.0
 11
5.76389
 21
4.72222
 31
0.0
  0
ENDSEC
  0
EOF
