  0
SECTION
  2
HEADER
  9
$ACADVER
  1
AC1009
  9
$EXTMIN
 10
0.0
 20
0.0
 30
0.0
  9
$EXTMAX
 10
1000.0
 20
1000.0
 30
0.0
  9
$FILLMODE
 70
 0
  9
$SPLFRAME
 70
 1
  0
ENDSEC
  0
SECTION
  2
TABLES
  0
TABLE
  2
LAYER
 70
1
  0
LAYER
  2
0
 70
     0
 62
     7
  6
CONTINUOUS
  0
ENDTAB
  0
ENDSEC
  0
SECTION
  2
ENTITIES
  0
LINE
  8
0
 62
     0
 10
4.52778
 20
4.11111
 30
0.0
 11
0.75
 21
4.11111
 31
0.0
  0
LINE
  8
0
 62
     0
 10
0.75
 20
4.11111
 30
0.0
 11
0.75
 21
4.77778
 31
0.0
  0
LINE
  8
0
 62
     0
 10
0.75
 20
4.77778
 30
0.0
 11
3.30556
 21
7.48611
 31
0.0
  0
LINE
  8
0
 62
     0
 10
3.30556
 20
7.48611
 30
0.0
 11
3.42665
 21
7.62022
 31
0.0
  0
LINE
  8
0
 62
     0
 10
3.42665
 20
7.62022
 30
0.0
 11
3.52604
 21
7.74479
 31
0.0
  0
LINE
  8
0
 62
     0
 10
3.52604
 20
7.74479
 30
0.0
 11
3.60374
 21
7.85981
 31
0.0
  0
LINE
  8
0
 62
     0
 10
3.60374
 20
7.85981
 30
0.0
 11
3.65972
 21
7.96528
 31
0.0
  0
LINE
  8
0
 62
     0
 10
3.65972
 20
7.96528
 30
0.0
 11
3.72738
 21
8.1754
 31
0.0
  0
LINE
  8
0
 62
     0
 10
3.72738
 20
8.1754
 30
0.0
 11
3.75
 21
8.40278
 31
0.0
  0
LINE
  8
0
 62
     0
 10
3.75
 20
8.40278
 30
0.0
 11
3.73221
 21
8.60721
 31
0.0
  0
LINE
  8
0
 62
     0
 10
3.73221
 20
8.60721
 30
0.0
 11
3.67882
 21
8.80382
 31
0.0
  0
LINE
  8
0
 62
     0
 10
3.67882
 20
8.80382
 30
0.0
 11
3.58985
 21
8.99262
 31
0.0
  0
LINE
  8
0
 62
     0
 10
3.58985
 20
8.99262
 30
0.0
 11
3.46528
 21
9.17361
 31
0.0
  0
LINE
  8
0
 62
     0
 10
3.46528
 20
9.17361
 30
0.0
 11
3.30593
 21
9.32856
 31
0.0
  0
LINE
  8
0
 62
     0
 10
3.30593
 20
9.32856
 30
0.0
 11
3.11285
 21
9.43924
 31
0.0
  0
LINE
  8
0
 62
     0
 10
3.11285
 20
9.43924
 30
0.0
 11
2.88585
 21
9.50564
 31
0.0
  0
LINE
  8
0
 62
     0
 10
2.88585
 20
9.50564
 30
0.0
 11
2.625
 21
9.52778
 31
0.0
  0
LINE
  8
0
 62
     0
 10
2.625
 20
9.52778
 30
0.0
 11
2.37631
 21
9.50433
 31
0.0
  0
LINE
  8
0
 62
     0
 10
2.37631
 20
9.50433
 30
0.0
 11
2.15799
 21
9.43403
 31
0.0
  0
LINE
  8
0
 62
     0
 10
2.15799
 20
9.43403
 30
0.0
 11
1.97006
 21
9.31683
 31
0.0
  0
LINE
  8
0
 62
     0
 10
1.97006
 20
9.31683
 30
0.0
 11
1.8125
 21
9.15278
 31
0.0
  0
LINE
  8
0
 62
     0
 10
1.8125
 20
9.15278
 30
0.0
 11
1.68788
 21
8.96007
 31
0.0
  0
LINE
  8
0
 62
     0
 10
1.68788
 20
8.96007
 30
0.0
 11
1.5989
 21
8.75694
 31
0.0
  0
LINE
  8
0
 62
     0
 10
1.5989
 20
8.75694
 30
0.0
 11
1.54551
 21
8.5434
 31
0.0
  0
LINE
  8
0
 62
     0
 10
1.54551
 20
8.5434
 30
0.0
 11
1.52778
 21
8.31944
 31
0.0
  0
LINE
  8
0
 62
     0
 10
1.52778
 20
8.31944
 30
0.0
 11
0.791667
 21
8.31944
 31
0.0
  0
LINE
  8
0
 62
     0
 10
0.791667
 20
8.31944
 30
0.0
 11
0.817708
 21
8.632
 31
0.0
  0
LINE
  8
0
 62
     0
 10
0.817708
 20
8.632
 30
0.0
 11
0.895833
 21
8.95833
 31
0.0
  0
LINE
  8
0
 62
     0
 10
0.895833
 20
8.95833
 30
0.0
 11
1.02946
 21
9.27783
 31
0.0
  0
LINE
  8
0
 62
     0
 10
1.02946
 20
9.27783
 30
0.0
 11
1.22222
 21
9.56944
 31
0.0
  0
LINE
  8
0
 62
     0
 10
1.22222
 20
9.56944
 30
0.0
 11
1.34115
 21
9.70225
 31
0.0
  0
LINE
  8
0
 62
     0
 10
1.34115
 20
9.70225
 30
0.0
 11
1.47569
 21
9.82292
 31
0.0
  0
LINE
  8
0
 62
     0
 10
1.47569
 20
9.82292
 30
0.0
 11
1.62582
 21
9.93142
 31
0.0
  0
LINE
  8
0
 62
     0
 10
1.62582
 20
9.93142
 30
0.0
 11
1.79167
 21
10.0278
 31
0.0
  0
LINE
  8
0
 62
     0
 10
1.79167
 20
10.0278
 30
0.0
 11
1.97396
 21
10.1068
 31
0.0
  0
LINE
  8
0
 62
     0
 10
1.97396
 20
10.1068
 30
0.0
 11
2.17361
 21
10.1633
 31
0.0
  0
LINE
  8
0
 62
     0
 10
2.17361
 20
10.1633
 30
0.0
 11
2.39063
 21
10.1971
 31
0.0
  0
LINE
  8
0
 62
     0
 10
2.39063
 20
10.1971
 30
0.0
 11
2.625
 21
10.2083
 31
0.0
  0
LINE
  8
0
 62
     0
 10
2.625
 20
10.2083
 30
0.0
 11
2.83464
 21
10.1997
 31
0.0
  0
LINE
  8
0
 62
     0
 10
2.83464
 20
10.1997
 30
0.0
 11
3.03299
 21
10.1737
 31
0.0
  0
LINE
  8
0
 62
     0
 10
3.03299
 20
10.1737
 30
0.0
 11
3.22006
 21
10.1303
 31
0.0
  0
LINE
  8
0
 62
     0
 10
3.22006
 20
10.1303
 30
0.0
 11
3.39583
 21
10.0694
 31
0.0
  0
LINE
  8
0
 62
     0
 10
3.39583
 20
10.0694
 30
0.0
 11
3.71007
 21
9.90451
 31
0.0
  0
LINE
  8
0
 62
     0
 10
3.71007
 20
9.90451
 30
0.0
 11
3.97222
 21
9.6875
 31
0.0
  0
LINE
  8
0
 62
     0
 10
3.97222
 20
9.6875
 30
0.0
 11
4.1805
 21
9.42361
 31
0.0
  0
LINE
  8
0
 62
     0
 10
4.1805
 20
9.42361
 30
0.0
 11
4.33333
 21
9.11806
 31
0.0
  0
LINE
  8
0
 62
     0
 10
4.33333
 20
9.11806
 30
0.0
 11
4.42708
 21
8.77951
 31
0.0
  0
LINE
  8
0
 62
     0
 10
4.42708
 20
8.77951
 30
0.0
 11
4.45833
 21
8.41667
 31
0.0
  0
LINE
  8
0
 62
     0
 10
4.45833
 20
8.41667
 30
0.0
 11
4.42882
 21
8.07471
 31
0.0
  0
LINE
  8
0
 62
     0
 10
4.42882
 20
8.07471
 30
0.0
 11
4.34028
 21
7.77083
 31
0.0
  0
LINE
  8
0
 62
     0
 10
4.34028
 20
7.77083
 30
0.0
 11
4.26687
 21
7.62369
 31
0.0
  0
LINE
  8
0
 62
     0
 10
4.26687
 20
7.62369
 30
0.0
 11
4.16488
 21
7.46701
 31
0.0
  0
LINE
  8
0
 62
     0
 10
4.16488
 20
7.46701
 30
0.0
 11
4.03424
 21
7.30078
 31
0.0
  0
LINE
  8
0
 62
     0
 10
4.03424
 20
7.30078
 30
0.0
 11
3.875
 21
7.125
 31
0.0
  0
LINE
  8
0
 62
     0
 10
3.875
 20
7.125
 30
0.0
 11
1.65278
 21
4.77778
 31
0.0
  0
LINE
  8
0
 62
     0
 10
1.65278
 20
4.77778
 30
0.0
 11
4.52778
 21
4.77778
 31
0.0
  0
LINE
  8
0
 62
     0
 10
4.52778
 20
4.77778
 30
0.0
 11
4.52778
 21
4.11111
 31
0.0
  0
ENDSEC
  0
EOF
