solid OpenSCAD_Model
  facet normal 1 -0 0
    outer loop
      vertex 20 0 20
      vertex 20 0.799999 9.125
      vertex 20 0.799999 20
    endloop
  endfacet
  facet normal 1 0 0
    outer loop
      vertex 20 0.799999 9.125
      vertex 20 0 20
      vertex 20 0 9.125
    endloop
  endfacet
  facet normal -0 0 1
    outer loop
      vertex 3 0.799999 20
      vertex 20 0 20
      vertex 20 0.799999 20
    endloop
  endfacet
  facet normal 0 0 1
    outer loop
      vertex 20 0 20
      vertex 3 0.799999 20
      vertex 3 0 20
    endloop
  endfacet
  facet normal 0 0 -1
    outer loop
      vertex 10.875 0 0
      vertex 3 0.799999 0
      vertex 10.875 0.799999 0
    endloop
  endfacet
  facet normal -0 0 -1
    outer loop
      vertex 3 0.799999 0
      vertex 0 0 0
      vertex 3 30.95 0
    endloop
  endfacet
  facet normal 0 0 -1
    outer loop
      vertex 0 0 0
      vertex 3 0.799999 0
      vertex 10.875 0 0
    endloop
  endfacet
  facet normal 0 0 -1
    outer loop
      vertex 3 30.95 0
      vertex 10.875 31.75 0
      vertex 10.875 30.95 0
    endloop
  endfacet
  facet normal 0 0 -1
    outer loop
      vertex 3 30.95 0
      vertex 0 31.75 0
      vertex 10.875 31.75 0
    endloop
  endfacet
  facet normal 0 0 -1
    outer loop
      vertex 0 31.75 0
      vertex 3 30.95 0
      vertex 0 0 0
    endloop
  endfacet
  facet normal -1 0 0
    outer loop
      vertex 0 0 0
      vertex 0 31.75 20
      vertex 0 31.75 0
    endloop
  endfacet
  facet normal -1 0 0
    outer loop
      vertex 0 0 31.75
      vertex 0 31.75 20
      vertex 0 0 0
    endloop
  endfacet
  facet normal -1 0 0
    outer loop
      vertex 0 31.75 20
      vertex 0 0 31.75
      vertex 0 31.75 31.75
    endloop
  endfacet
  facet normal 0 1 -0
    outer loop
      vertex 20 0.799999 9.125
      vertex 3 0.799999 20
      vertex 20 0.799999 20
    endloop
  endfacet
  facet normal 0 1 -0
    outer loop
      vertex 10.875 0.799999 0
      vertex 3 0.799999 20
      vertex 20 0.799999 9.125
    endloop
  endfacet
  facet normal 0 1 0
    outer loop
      vertex 3 0.799999 20
      vertex 10.875 0.799999 0
      vertex 3 0.799999 0
    endloop
  endfacet
  facet normal 0 -1 0
    outer loop
      vertex 0 0 31.75
      vertex 3 0 20
      vertex 3 0 31.75
    endloop
  endfacet
  facet normal 0 -1 0
    outer loop
      vertex 3 0 20
      vertex 16.3571 0 19.8458
      vertex 20 0 20
    endloop
  endfacet
  facet normal 0 -1 0
    outer loop
      vertex 3 0 20
      vertex 14.4566 0 19.6151
      vertex 16.3571 0 19.8458
    endloop
  endfacet
  facet normal 0 -1 0
    outer loop
      vertex 3 0 20
      vertex 12.881 0 18.5275
      vertex 14.4566 0 19.6151
    endloop
  endfacet
  facet normal 0 -1 0
    outer loop
      vertex 3 0 20
      vertex 11.9912 0 16.8323
      vertex 12.881 0 18.5275
    endloop
  endfacet
  facet normal 0 -1 0
    outer loop
      vertex 3 0 20
      vertex 11.9912 0 14.9177
      vertex 11.9912 0 16.8323
    endloop
  endfacet
  facet normal 0 -1 0
    outer loop
      vertex 0 0 0
      vertex 11.9912 0 14.9177
      vertex 3 0 20
    endloop
  endfacet
  facet normal 0 -1 -0
    outer loop
      vertex 11.9912 0 14.9177
      vertex 0 0 0
      vertex 12.881 0 13.2225
    endloop
  endfacet
  facet normal 0 -1 0
    outer loop
      vertex 13.5485 0 12.7618
      vertex 20 0 9.125
      vertex 18.3056 0 12.7618
    endloop
  endfacet
  facet normal 0 -1 0
    outer loop
      vertex 0 0 0
      vertex 3 0 20
      vertex 0 0 31.75
    endloop
  endfacet
  facet normal 0 -1 0
    outer loop
      vertex 10.875 0 0
      vertex 12.881 0 13.2225
      vertex 0 0 0
    endloop
  endfacet
  facet normal 0 -1 -0
    outer loop
      vertex 12.881 0 13.2225
      vertex 10.875 0 0
      vertex 13.5485 0 12.7618
    endloop
  endfacet
  facet normal 0 -1 -0
    outer loop
      vertex 13.5485 0 12.7618
      vertex 10.875 0 0
      vertex 20 0 9.125
    endloop
  endfacet
  facet normal 0 -1 0
    outer loop
      vertex 18.1473 0 19.1669
      vertex 20 0 20
      vertex 16.3571 0 19.8458
    endloop
  endfacet
  facet normal 0 -1 0
    outer loop
      vertex 19.4168 0 17.7339
      vertex 20 0 20
      vertex 18.1473 0 19.1669
    endloop
  endfacet
  facet normal 0 -1 0
    outer loop
      vertex 19.875 0 15.875
      vertex 20 0 20
      vertex 19.4168 0 17.7339
    endloop
  endfacet
  facet normal 0 -1 0
    outer loop
      vertex 19.875 0 15.875
      vertex 20 0 9.125
      vertex 20 0 20
    endloop
  endfacet
  facet normal 0 -1 0
    outer loop
      vertex 19.4168 0 14.0161
      vertex 20 0 9.125
      vertex 19.875 0 15.875
    endloop
  endfacet
  facet normal 0 -1 0
    outer loop
      vertex 20 0 9.125
      vertex 19.4168 0 14.0161
      vertex 18.3056 0 12.7618
    endloop
  endfacet
  facet normal 0.707107 0 -0.707107
    outer loop
      vertex 10.875 0 0
      vertex 20 0.799999 9.125
      vertex 20 0 9.125
    endloop
  endfacet
  facet normal 0.707107 0 -0.707107
    outer loop
      vertex 20 0.799999 9.125
      vertex 10.875 0 0
      vertex 10.875 0.799999 0
    endloop
  endfacet
  facet normal 1 -0 0
    outer loop
      vertex 20 30.95 20
      vertex 20 31.75 9.125
      vertex 20 31.75 20
    endloop
  endfacet
  facet normal 1 0 0
    outer loop
      vertex 20 31.75 9.125
      vertex 20 30.95 20
      vertex 20 30.95 9.125
    endloop
  endfacet
  facet normal -0 0 1
    outer loop
      vertex 3 31.75 20
      vertex 20 30.95 20
      vertex 20 31.75 20
    endloop
  endfacet
  facet normal 0 0 1
    outer loop
      vertex 20 30.95 20
      vertex 3 31.75 20
      vertex 3 30.95 20
    endloop
  endfacet
  facet normal 0 -0 0
    outer loop
      vertex 3 31.75 20
      vertex 20 31.75 20
      vertex 0 31.75 20
    endloop
  endfacet
  facet normal 0 -1 0
    outer loop
      vertex 3 30.95 20
      vertex 20 30.95 9.125
      vertex 20 30.95 20
    endloop
  endfacet
  facet normal 0 -1 0
    outer loop
      vertex 10.875 30.95 0
      vertex 3 30.95 20
      vertex 3 30.95 0
    endloop
  endfacet
  facet normal 0 -1 0
    outer loop
      vertex 3 30.95 20
      vertex 10.875 30.95 0
      vertex 20 30.95 9.125
    endloop
  endfacet
  facet normal 0 1 0
    outer loop
      vertex 20 31.75 20
      vertex 16.3571 31.75 19.8458
      vertex 0 31.75 20
    endloop
  endfacet
  facet normal 0 1 0
    outer loop
      vertex 20 31.75 20
      vertex 18.1473 31.75 19.1669
      vertex 16.3571 31.75 19.8458
    endloop
  endfacet
  facet normal 0 1 0
    outer loop
      vertex 20 31.75 20
      vertex 19.4168 31.75 17.7339
      vertex 18.1473 31.75 19.1669
    endloop
  endfacet
  facet normal 0 1 0
    outer loop
      vertex 20 31.75 20
      vertex 19.875 31.75 15.875
      vertex 19.4168 31.75 17.7339
    endloop
  endfacet
  facet normal 0 1 0
    outer loop
      vertex 18.3056 31.75 12.7618
      vertex 20 31.75 9.125
      vertex 13.5485 31.75 12.7618
    endloop
  endfacet
  facet normal 0 1 0
    outer loop
      vertex 19.4168 31.75 14.0161
      vertex 20 31.75 9.125
      vertex 18.3056 31.75 12.7618
    endloop
  endfacet
  facet normal 0 1 0
    outer loop
      vertex 19.875 31.75 15.875
      vertex 20 31.75 9.125
      vertex 19.4168 31.75 14.0161
    endloop
  endfacet
  facet normal 0 1 -0
    outer loop
      vertex 20 31.75 9.125
      vertex 19.875 31.75 15.875
      vertex 20 31.75 20
    endloop
  endfacet
  facet normal 0 1 -0
    outer loop
      vertex 14.4566 31.75 19.6151
      vertex 0 31.75 20
      vertex 16.3571 31.75 19.8458
    endloop
  endfacet
  facet normal 0 1 -0
    outer loop
      vertex 12.881 31.75 18.5275
      vertex 0 31.75 20
      vertex 14.4566 31.75 19.6151
    endloop
  endfacet
  facet normal 0 1 -0
    outer loop
      vertex 11.9912 31.75 16.8323
      vertex 0 31.75 20
      vertex 12.881 31.75 18.5275
    endloop
  endfacet
  facet normal 0 1 -0
    outer loop
      vertex 11.9912 31.75 14.9177
      vertex 0 31.75 20
      vertex 11.9912 31.75 16.8323
    endloop
  endfacet
  facet normal 0 1 0
    outer loop
      vertex 0 31.75 0
      vertex 11.9912 31.75 14.9177
      vertex 12.881 31.75 13.2225
    endloop
  endfacet
  facet normal 0 1 0
    outer loop
      vertex 10.875 31.75 0
      vertex 12.881 31.75 13.2225
      vertex 13.5485 31.75 12.7618
    endloop
  endfacet
  facet normal 0 1 0
    outer loop
      vertex 10.875 31.75 0
      vertex 13.5485 31.75 12.7618
      vertex 20 31.75 9.125
    endloop
  endfacet
  facet normal 0 1 0
    outer loop
      vertex 12.881 31.75 13.2225
      vertex 10.875 31.75 0
      vertex 0 31.75 0
    endloop
  endfacet
  facet normal 0 1 0
    outer loop
      vertex 11.9912 31.75 14.9177
      vertex 0 31.75 0
      vertex 0 31.75 20
    endloop
  endfacet
  facet normal 0.707107 0 -0.707107
    outer loop
      vertex 10.875 30.95 0
      vertex 20 31.75 9.125
      vertex 20 30.95 9.125
    endloop
  endfacet
  facet normal 0.707107 0 -0.707107
    outer loop
      vertex 20 31.75 9.125
      vertex 10.875 30.95 0
      vertex 10.875 31.75 0
    endloop
  endfacet
  facet normal 0.748511 0 0.663123
    outer loop
      vertex 18.1473 0 19.1669
      vertex 19.4168 -0.458176 17.7339
      vertex 19.4168 0 17.7339
    endloop
  endfacet
  facet normal 0.748511 0 0.663123
    outer loop
      vertex 19.4168 -0.458176 17.7339
      vertex 18.1473 0 19.1669
      vertex 18.1473 -1.72774 19.1669
    endloop
  endfacet
  facet normal 0.970942 0 0.239315
    outer loop
      vertex 19.4168 0 17.7339
      vertex 19.4168 -0.458176 17.7339
      vertex 19.875 0 15.875
    endloop
  endfacet
  facet normal 0.74851 0 -0.663123
    outer loop
      vertex 19.4168 -0.458176 14.0161
      vertex 18.3056 0 12.7618
      vertex 19.4168 0 14.0161
    endloop
  endfacet
  facet normal 0.74851 -8.61549e-07 -0.663123
    outer loop
      vertex 18.3056 0 12.7618
      vertex 19.4168 -0.458176 14.0161
      vertex 18.8367 -1.03834 13.3612
    endloop
  endfacet
  facet normal 1.59053e-07 -1 4.19388e-07
    outer loop
      vertex 14.4566 -5 19.6151
      vertex 14.875 -5 17.1824
      vertex 14.875 -5 19.4564
    endloop
  endfacet
  facet normal -4.66274e-08 -1 3.84011e-07
    outer loop
      vertex 14.875 -5 17.1824
      vertex 14.4566 -5 19.6151
      vertex 11.9912 -5 16.8323
    endloop
  endfacet
  facet normal -0.885456 0 0.464723
    outer loop
      vertex 11.9912 0 16.8323
      vertex 12.881 -5 18.5275
      vertex 12.881 0 18.5275
    endloop
  endfacet
  facet normal -0.885456 0 0.464723
    outer loop
      vertex 12.881 -5 18.5275
      vertex 11.9912 0 16.8323
      vertex 11.9912 -5 16.8323
    endloop
  endfacet
  facet normal -6.08895e-07 -1 8.82136e-07
    outer loop
      vertex 12.881 -5 18.5275
      vertex 11.9912 -5 16.8323
      vertex 14.4566 -5 19.6151
    endloop
  endfacet
  facet normal 0 -1 0
    outer loop
      vertex 14.4566 -5 12.1349
      vertex 14.875 -5 12.1844
      vertex 14.3849 -5 12.1844
    endloop
  endfacet
  facet normal 0 -1 -0
    outer loop
      vertex 14.875 -5 12.1844
      vertex 14.4566 -5 12.1349
      vertex 14.875 -5 12.0841
    endloop
  endfacet
  facet normal 0 -1 0
    outer loop
      vertex 14.875 -5 15.6485
      vertex 11.9912 -5 16.8323
      vertex 11.9912 -5 15.6485
    endloop
  endfacet
  facet normal 0 -1 0
    outer loop
      vertex 11.9912 -5 16.8323
      vertex 14.875 -5 15.6485
      vertex 14.875 -5 17.1824
    endloop
  endfacet
  facet normal 0.354605 0 0.935016
    outer loop
      vertex 16.3571 0 19.8458
      vertex 18.1473 -1.72774 19.1669
      vertex 18.1473 0 19.1669
    endloop
  endfacet
  facet normal 0.354605 0 0.935016
    outer loop
      vertex 18.1473 -1.72774 19.1669
      vertex 16.3571 0 19.8458
      vertex 16.3571 -3.51785 19.8458
    endloop
  endfacet
  facet normal -0.885456 0 -0.464723
    outer loop
      vertex 12.881 -0.798055 13.2225
      vertex 11.9912 0 14.9177
      vertex 12.881 0 13.2225
    endloop
  endfacet
  facet normal -0.885456 -0 -0.464723
    outer loop
      vertex 11.9912 0 14.9177
      vertex 12.881 -0.798055 13.2225
      vertex 11.9912 -3.73428 14.9177
    endloop
  endfacet
  facet normal -0.568065 0 0.822984
    outer loop
      vertex 12.881 0 18.5275
      vertex 14.4566 -5 19.6151
      vertex 14.4566 0 19.6151
    endloop
  endfacet
  facet normal -0.568065 0 0.822984
    outer loop
      vertex 14.4566 -5 19.6151
      vertex 12.881 0 18.5275
      vertex 12.881 -5 18.5275
    endloop
  endfacet
  facet normal 0.970942 0 -0.239316
    outer loop
      vertex 19.875 0 15.875
      vertex 19.4168 -0.458176 14.0161
      vertex 19.4168 0 14.0161
    endloop
  endfacet
  facet normal 0 -1 -0
    outer loop
      vertex 14.875 -5 19.6659
      vertex 14.4566 -5 19.6151
      vertex 14.875 -5 19.4564
    endloop
  endfacet
  facet normal -0.120536 -0 -0.992709
    outer loop
      vertex 14.4566 -4.91432 12.1349
      vertex 14.875 -5 12.0841
      vertex 14.4566 -5 12.1349
    endloop
  endfacet
  facet normal -0.120536 1.28559e-07 -0.992709
    outer loop
      vertex 14.875 -5 12.0841
      vertex 14.4566 -4.91432 12.1349
      vertex 15.0949 -4.78007 12.0574
    endloop
  endfacet
  facet normal -0.120536 0 0.992709
    outer loop
      vertex 14.4566 0 19.6151
      vertex 16.3571 -3.51785 19.8458
      vertex 16.3571 0 19.8458
    endloop
  endfacet
  facet normal -0.120536 0 0.992709
    outer loop
      vertex 14.4566 -5 19.6151
      vertex 16.3571 -3.51785 19.8458
      vertex 14.4566 0 19.6151
    endloop
  endfacet
  facet normal -0.120538 2.40724e-06 0.992709
    outer loop
      vertex 16.3571 -3.51785 19.8458
      vertex 14.4566 -5 19.6151
      vertex 14.875 -5 19.6659
    endloop
  endfacet
  facet normal -1 0 0
    outer loop
      vertex 11.9912 -3.73428 14.9177
      vertex 11.9912 0 16.8323
      vertex 11.9912 0 14.9177
    endloop
  endfacet
  facet normal -1 0 0
    outer loop
      vertex 11.9912 -5 16.8323
      vertex 11.9912 -3.73428 14.9177
      vertex 11.9912 -5 15.6485
    endloop
  endfacet
  facet normal -1 0 0
    outer loop
      vertex 11.9912 -3.73428 14.9177
      vertex 11.9912 -5 16.8323
      vertex 11.9912 0 16.8323
    endloop
  endfacet
  facet normal -0.568066 0 -0.822983
    outer loop
      vertex 14.4566 -5 12.1349
      vertex 14.3849 -5 12.1844
      vertex 14.4566 -4.91432 12.1349
    endloop
  endfacet
  facet normal -0.568065 0 -0.822984
    outer loop
      vertex 13.5485 0 12.7618
      vertex 12.881 -0.798055 13.2225
      vertex 12.881 0 13.2225
    endloop
  endfacet
  facet normal 0.707107 -0.707107 -3.28754e-08
    outer loop
      vertex 14.875 -5 15.6485
      vertex 19.875 0 15.875
      vertex 19.4168 -0.458176 17.7339
    endloop
  endfacet
  facet normal 0.707107 -0.707107 3.36178e-08
    outer loop
      vertex 19.875 0 15.875
      vertex 14.875 -5 15.6485
      vertex 19.4168 -0.458176 14.0161
    endloop
  endfacet
  facet normal 0.707107 -0.707107 3.06106e-07
    outer loop
      vertex 14.875 -5 17.1824
      vertex 19.4168 -0.458176 17.7339
      vertex 18.1473 -1.72774 19.1669
    endloop
  endfacet
  facet normal 0.707107 -0.707107 -3.82166e-07
    outer loop
      vertex 14.875 -5 17.1824
      vertex 18.1473 -1.72774 19.1669
      vertex 16.3571 -3.51785 19.8458
    endloop
  endfacet
  facet normal 0.707107 -0.707107 0
    outer loop
      vertex 14.875 -5 19.4564
      vertex 16.3571 -3.51785 19.8458
      vertex 14.875 -5 19.6659
    endloop
  endfacet
  facet normal 0.707107 -0.707107 1.90814e-13
    outer loop
      vertex 14.875 -5 17.1824
      vertex 16.3571 -3.51785 19.8458
      vertex 14.875 -5 19.4564
    endloop
  endfacet
  facet normal 0.707107 -0.707107 0
    outer loop
      vertex 19.4168 -0.458176 17.7339
      vertex 14.875 -5 17.1824
      vertex 14.875 -5 15.6485
    endloop
  endfacet
  facet normal 0.707106 -0.707107 -1.46233e-06
    outer loop
      vertex 19.4168 -0.458176 14.0161
      vertex 14.875 -5 15.6485
      vertex 18.8367 -1.03834 13.3612
    endloop
  endfacet
  facet normal 0.707107 -0.707107 0
    outer loop
      vertex 15.0949 -4.78007 12.0574
      vertex 14.875 -5 12.1844
      vertex 14.875 -5 12.0841
    endloop
  endfacet
  facet normal -5.40752e-07 0.500001 0.866025
    outer loop
      vertex 14.4566 -4.91432 12.1349
      vertex 14.875 -5 12.1844
      vertex 15.0949 -4.78007 12.0574
    endloop
  endfacet
  facet normal 0 0.500003 0.866024
    outer loop
      vertex 14.875 -5 12.1844
      vertex 14.4566 -4.91432 12.1349
      vertex 14.3849 -5 12.1844
    endloop
  endfacet
  facet normal -3.85787e-08 -0.5 -0.866025
    outer loop
      vertex 13.5485 0 12.7618
      vertex 18.8367 -1.03834 13.3612
      vertex 14.875 -5 15.6485
    endloop
  endfacet
  facet normal 0 -0.5 -0.866025
    outer loop
      vertex 18.8367 -1.03834 13.3612
      vertex 13.5485 0 12.7618
      vertex 18.3056 0 12.7618
    endloop
  endfacet
  facet normal 8.42258e-08 -0.5 -0.866025
    outer loop
      vertex 14.875 -5 15.6485
      vertex 12.881 -0.798055 13.2225
      vertex 13.5485 0 12.7618
    endloop
  endfacet
  facet normal 0 -0.5 -0.866025
    outer loop
      vertex 11.9912 -3.73428 14.9177
      vertex 14.875 -5 15.6485
      vertex 11.9912 -5 15.6485
    endloop
  endfacet
  facet normal -5.64308e-08 -0.5 -0.866025
    outer loop
      vertex 14.875 -5 15.6485
      vertex 11.9912 -3.73428 14.9177
      vertex 12.881 -0.798055 13.2225
    endloop
  endfacet
  facet normal 0.748511 -0 0.663123
    outer loop
      vertex 18.1473 31.75 19.1669
      vertex 19.4168 32.2082 17.7339
      vertex 18.1473 33.4777 19.1669
    endloop
  endfacet
  facet normal 0.748511 0 0.663123
    outer loop
      vertex 19.4168 32.2082 17.7339
      vertex 18.1473 31.75 19.1669
      vertex 19.4168 31.75 17.7339
    endloop
  endfacet
  facet normal 0.970942 0 0.239315
    outer loop
      vertex 19.875 31.75 15.875
      vertex 19.4168 32.2082 17.7339
      vertex 19.4168 31.75 17.7339
    endloop
  endfacet
  facet normal 0.74851 0 -0.663123
    outer loop
      vertex 18.3056 31.75 12.7618
      vertex 19.4168 32.2082 14.0161
      vertex 19.4168 31.75 14.0161
    endloop
  endfacet
  facet normal 0.74851 8.61547e-07 -0.663123
    outer loop
      vertex 19.4168 32.2082 14.0161
      vertex 18.3056 31.75 12.7618
      vertex 18.8367 32.7883 13.3612
    endloop
  endfacet
  facet normal 0 1 -0
    outer loop
      vertex 14.875 36.75 17.1824
      vertex 14.4566 36.75 19.6151
      vertex 14.875 36.75 19.4564
    endloop
  endfacet
  facet normal 0 1 0
    outer loop
      vertex 14.4566 36.75 19.6151
      vertex 14.875 36.75 17.1824
      vertex 11.9912 36.75 16.8323
    endloop
  endfacet
  facet normal -0.885456 0 0.464723
    outer loop
      vertex 11.9912 31.75 16.8323
      vertex 12.881 36.75 18.5275
      vertex 11.9912 36.75 16.8323
    endloop
  endfacet
  facet normal -0.885456 0 0.464723
    outer loop
      vertex 12.881 36.75 18.5275
      vertex 11.9912 31.75 16.8323
      vertex 12.881 31.75 18.5275
    endloop
  endfacet
  facet normal -0 1 0
    outer loop
      vertex 12.881 36.75 18.5275
      vertex 14.4566 36.75 19.6151
      vertex 11.9912 36.75 16.8323
    endloop
  endfacet
  facet normal 0 1 0
    outer loop
      vertex 14.875 36.75 12.1844
      vertex 14.4566 36.75 12.1349
      vertex 14.3849 36.75 12.1844
    endloop
  endfacet
  facet normal -0 1 0
    outer loop
      vertex 14.4566 36.75 12.1349
      vertex 14.875 36.75 12.1844
      vertex 14.875 36.75 12.0841
    endloop
  endfacet
  facet normal 0 1 -0
    outer loop
      vertex 14.875 36.75 15.6485
      vertex 11.9912 36.75 16.8323
      vertex 14.875 36.75 17.1824
    endloop
  endfacet
  facet normal 0 1 0
    outer loop
      vertex 11.9912 36.75 16.8323
      vertex 14.875 36.75 15.6485
      vertex 11.9912 36.75 15.6485
    endloop
  endfacet
  facet normal 0.354605 -0 0.935016
    outer loop
      vertex 16.3571 31.75 19.8458
      vertex 18.1473 33.4777 19.1669
      vertex 16.3571 35.2679 19.8458
    endloop
  endfacet
  facet normal 0.354605 0 0.935016
    outer loop
      vertex 18.1473 33.4777 19.1669
      vertex 16.3571 31.75 19.8458
      vertex 18.1473 31.75 19.1669
    endloop
  endfacet
  facet normal -0.885456 0 -0.464723
    outer loop
      vertex 11.9912 31.75 14.9177
      vertex 12.881 32.5481 13.2225
      vertex 12.881 31.75 13.2225
    endloop
  endfacet
  facet normal -0.885456 0 -0.464723
    outer loop
      vertex 12.881 32.5481 13.2225
      vertex 11.9912 31.75 14.9177
      vertex 11.9912 35.4843 14.9177
    endloop
  endfacet
  facet normal -0.568065 0 0.822984
    outer loop
      vertex 12.881 36.75 18.5275
      vertex 14.4566 31.75 19.6151
      vertex 14.4566 36.75 19.6151
    endloop
  endfacet
  facet normal -0.568065 0 0.822984
    outer loop
      vertex 14.4566 31.75 19.6151
      vertex 12.881 36.75 18.5275
      vertex 12.881 31.75 18.5275
    endloop
  endfacet
  facet normal 0.970942 0 -0.239316
    outer loop
      vertex 19.4168 32.2082 14.0161
      vertex 19.875 31.75 15.875
      vertex 19.4168 31.75 14.0161
    endloop
  endfacet
  facet normal 0 1 0
    outer loop
      vertex 14.875 36.75 19.6659
      vertex 14.875 36.75 19.4564
      vertex 14.4566 36.75 19.6151
    endloop
  endfacet
  facet normal -0.120536 -1.28558e-07 -0.992709
    outer loop
      vertex 14.4566 36.6643 12.1349
      vertex 14.875 36.75 12.0841
      vertex 15.0949 36.5301 12.0574
    endloop
  endfacet
  facet normal -0.120536 0 -0.992709
    outer loop
      vertex 14.875 36.75 12.0841
      vertex 14.4566 36.6643 12.1349
      vertex 14.4566 36.75 12.1349
    endloop
  endfacet
  facet normal -0.120538 -2.40724e-06 0.992709
    outer loop
      vertex 14.4566 36.75 19.6151
      vertex 16.3571 35.2679 19.8458
      vertex 14.875 36.75 19.6659
    endloop
  endfacet
  facet normal -0.120536 0 0.992709
    outer loop
      vertex 16.3571 35.2679 19.8458
      vertex 14.4566 36.75 19.6151
      vertex 14.4566 31.75 19.6151
    endloop
  endfacet
  facet normal -0.120536 0 0.992709
    outer loop
      vertex 16.3571 35.2679 19.8458
      vertex 14.4566 31.75 19.6151
      vertex 16.3571 31.75 19.8458
    endloop
  endfacet
  facet normal -1 0 0
    outer loop
      vertex 11.9912 35.4843 14.9177
      vertex 11.9912 36.75 16.8323
      vertex 11.9912 36.75 15.6485
    endloop
  endfacet
  facet normal -1 0 0
    outer loop
      vertex 11.9912 31.75 16.8323
      vertex 11.9912 35.4843 14.9177
      vertex 11.9912 31.75 14.9177
    endloop
  endfacet
  facet normal -1 0 0
    outer loop
      vertex 11.9912 35.4843 14.9177
      vertex 11.9912 31.75 16.8323
      vertex 11.9912 36.75 16.8323
    endloop
  endfacet
  facet normal -0.568066 -0 -0.822983
    outer loop
      vertex 14.4566 36.75 12.1349
      vertex 14.4566 36.6643 12.1349
      vertex 14.3849 36.75 12.1844
    endloop
  endfacet
  facet normal -0.568065 -0 -0.822984
    outer loop
      vertex 12.881 32.5481 13.2225
      vertex 13.5485 31.75 12.7618
      vertex 12.881 31.75 13.2225
    endloop
  endfacet
  facet normal 0.707107 0.707107 0
    outer loop
      vertex 16.3571 35.2679 19.8458
      vertex 14.875 36.75 19.4564
      vertex 14.875 36.75 19.6659
    endloop
  endfacet
  facet normal 0.707107 0.707107 -2.09067e-07
    outer loop
      vertex 14.875 36.75 17.1824
      vertex 16.3571 35.2679 19.8458
      vertex 18.1473 33.4777 19.1669
    endloop
  endfacet
  facet normal 0.707107 0.707107 -1.18763e-07
    outer loop
      vertex 14.875 36.75 17.1824
      vertex 18.1473 33.4777 19.1669
      vertex 19.4168 32.2082 17.7339
    endloop
  endfacet
  facet normal 0.707107 0.707107 -2.96552e-07
    outer loop
      vertex 16.3571 35.2679 19.8458
      vertex 14.875 36.75 17.1824
      vertex 14.875 36.75 19.4564
    endloop
  endfacet
  facet normal 0.707107 0.707107 -3.28754e-08
    outer loop
      vertex 14.875 36.75 15.6485
      vertex 19.4168 32.2082 17.7339
      vertex 19.875 31.75 15.875
    endloop
  endfacet
  facet normal 0.707107 0.707107 0
    outer loop
      vertex 19.4168 32.2082 17.7339
      vertex 14.875 36.75 15.6485
      vertex 14.875 36.75 17.1824
    endloop
  endfacet
  facet normal 0.707107 0.707107 3.36178e-08
    outer loop
      vertex 19.4168 32.2082 14.0161
      vertex 14.875 36.75 15.6485
      vertex 19.875 31.75 15.875
    endloop
  endfacet
  facet normal 0.707107 0.707107 9.977e-08
    outer loop
      vertex 14.875 36.75 15.6485
      vertex 19.4168 32.2082 14.0161
      vertex 18.8367 32.7883 13.3612
    endloop
  endfacet
  facet normal 0.70711 0.707104 0
    outer loop
      vertex 15.0949 36.5301 12.0574
      vertex 14.875 36.75 12.0841
      vertex 14.875 36.75 12.1844
    endloop
  endfacet
  facet normal -3.31839e-07 -0.499998 0.866027
    outer loop
      vertex 14.875 36.75 12.1844
      vertex 14.4566 36.6643 12.1349
      vertex 15.0949 36.5301 12.0574
    endloop
  endfacet
  facet normal 0 -0.499999 0.866026
    outer loop
      vertex 14.4566 36.6643 12.1349
      vertex 14.875 36.75 12.1844
      vertex 14.3849 36.75 12.1844
    endloop
  endfacet
  facet normal 0 0.499999 -0.866026
    outer loop
      vertex 13.5485 31.75 12.7618
      vertex 18.8367 32.7883 13.3612
      vertex 18.3056 31.75 12.7618
    endloop
  endfacet
  facet normal -2.2883e-07 0.5 -0.866025
    outer loop
      vertex 18.8367 32.7883 13.3612
      vertex 13.5485 31.75 12.7618
      vertex 14.875 36.75 15.6485
    endloop
  endfacet
  facet normal -7.29259e-07 0.5 -0.866025
    outer loop
      vertex 12.881 32.5481 13.2225
      vertex 14.875 36.75 15.6485
      vertex 13.5485 31.75 12.7618
    endloop
  endfacet
  facet normal -2.23131e-07 0.5 -0.866025
    outer loop
      vertex 11.9912 35.4843 14.9177
      vertex 14.875 36.75 15.6485
      vertex 12.881 32.5481 13.2225
    endloop
  endfacet
  facet normal 0 0.5 -0.866026
    outer loop
      vertex 14.875 36.75 15.6485
      vertex 11.9912 35.4843 14.9177
      vertex 11.9912 36.75 15.6485
    endloop
  endfacet
  facet normal 1 0 0
    outer loop
      vertex 3 31.75 31.75
      vertex 3 30.95 20
      vertex 3 31.75 20
    endloop
  endfacet
  facet normal 1 0 0
    outer loop
      vertex 3 30.95 20
      vertex 3 0.799999 20
      vertex 3 30.95 0
    endloop
  endfacet
  facet normal 1 0 0
    outer loop
      vertex 3 31.75 31.75
      vertex 3 0.799999 20
      vertex 3 30.95 20
    endloop
  endfacet
  facet normal 1 -0 0
    outer loop
      vertex 3 0 31.75
      vertex 3 0.799999 20
      vertex 3 31.75 31.75
    endloop
  endfacet
  facet normal 1 0 0
    outer loop
      vertex 3 0.799999 20
      vertex 3 0 31.75
      vertex 3 0 20
    endloop
  endfacet
  facet normal 1 0 0
    outer loop
      vertex 3 30.95 0
      vertex 3 0.799999 20
      vertex 3 0.799999 0
    endloop
  endfacet
  facet normal -0 0 1
    outer loop
      vertex 0 31.75 31.75
      vertex 3 0 31.75
      vertex 3 31.75 31.75
    endloop
  endfacet
  facet normal 0 0 1
    outer loop
      vertex 3 0 31.75
      vertex 0 31.75 31.75
      vertex 0 0 31.75
    endloop
  endfacet
  facet normal 0 1 -0
    outer loop
      vertex 3 31.75 20
      vertex 0 31.75 31.75
      vertex 3 31.75 31.75
    endloop
  endfacet
  facet normal 0 1 0
    outer loop
      vertex 0 31.75 31.75
      vertex 3 31.75 20
      vertex 0 31.75 20
    endloop
  endfacet
endsolid OpenSCAD_Model
