  0
SECTION
  2
BLOCKS
  0
ENDSEC
  0
SECTION
  2
ENTITIES
  0
LINE
  8
0
 10
0
 11
0
 20
8.175
 21
18.175
  0
LINE
  8
0
 10
0
 11
3.175
 20
18.175
 21
18.175
  0
LINE
  8
0
 10
3.175
 11
3.175
 20
18.175
 21
25.175
  0
LINE
  8
0
 10
3.175
 11
8.175
 20
25.175
 21
25.175
  0
LINE
  8
0
 10
8.175
 11
8.175
 20
25.175
 21
23.725
  0
LINE
  8
0
 10
8.175
 11
11.175
 20
23.725
 21
23.725
  0
LINE
  8
0
 10
11.175
 11
11.175
 20
23.725
 21
25.175
  0
LINE
  8
0
 10
11.175
 11
13.175
 20
25.175
 21
25.175
  0
LINE
  8
0
 10
13.175
 11
13.175
 20
25.175
 21
28.175
  0
LINE
  8
0
 10
13.175
 11
11.175
 20
28.175
 21
28.175
  0
LINE
  8
0
 10
11.175
 11
11.175
 20
28.175
 21
29.625
  0
LINE
  8
0
 10
11.175
 11
8.175
 20
29.625
 21
29.625
  0
LINE
  8
0
 10
8.175
 11
8.175
 20
29.625
 21
28.175
  0
LINE
  8
0
 10
8.175
 11
3.175
 20
28.175
 21
28.175
  0
LINE
  8
0
 10
3.175
 11
3.175
 20
28.175
 21
35.175
  0
LINE
  8
0
 10
3.175
 11
0
 20
35.175
 21
35.175
  0
LINE
  8
0
 10
0
 11
0
 20
35.175
 21
45.175
  0
LINE
  8
0
 10
0
 11
3.175
 20
45.175
 21
45.175
  0
LINE
  8
0
 10
3.175
 11
3.175
 20
45.175
 21
258.675
  0
LINE
  8
0
 10
3.175
 11
13.175
 20
258.675
 21
258.675
  0
LINE
  8
0
 10
13.175
 11
13.175
 20
258.675
 21
255.5
  0
LINE
  8
0
 10
13.175
 11
21.675
 20
255.5
 21
255.5
  0
LINE
  8
0
 10
21.675
 11
21.675
 20
255.5
 21
250.5
  0
LINE
  8
0
 10
21.675
 11
20.225
 20
250.5
 21
250.5
  0
LINE
  8
0
 10
20.225
 11
20.225
 20
250.5
 21
247.5
  0
LINE
  8
0
 10
20.225
 11
21.675
 20
247.5
 21
247.5
  0
LINE
  8
0
 10
21.675
 11
21.675
 20
247.5
 21
245.5
  0
LINE
  8
0
 10
21.675
 11
24.675
 20
245.5
 21
245.5
  0
LINE
  8
0
 10
24.675
 11
24.675
 20
245.5
 21
247.5
  0
LINE
  8
0
 10
24.675
 11
26.125
 20
247.5
 21
247.5
  0
LINE
  8
0
 10
26.125
 11
26.125
 20
247.5
 21
250.5
  0
LINE
  8
0
 10
26.125
 11
24.675
 20
250.5
 21
250.5
  0
LINE
  8
0
 10
24.675
 11
24.675
 20
250.5
 21
255.5
  0
LINE
  8
0
 10
24.675
 11
43.175
 20
255.5
 21
255.5
  0
LINE
  8
0
 10
43.175
 11
43.175
 20
255.5
 21
252.5
  0
LINE
  8
0
 10
43.175
 11
46.35
 20
252.5
 21
252.5
  0
LINE
  8
0
 10
46.35
 11
46.35
 20
252.5
 21
242.5
  0
LINE
  8
0
 10
46.35
 11
43.175
 20
242.5
 21
242.5
  0
LINE
  8
0
 10
43.175
 11
43.175
 20
242.5
 21
219.5
  0
LINE
  8
0
 10
43.175
 11
38.175
 20
219.5
 21
219.5
  0
LINE
  8
0
 10
38.175
 11
38.175
 20
219.5
 21
220.95
  0
LINE
  8
0
 10
38.175
 11
35.175
 20
220.95
 21
220.95
  0
LINE
  8
0
 10
35.175
 11
35.175
 20
220.95
 21
219.5
  0
LINE
  8
0
 10
35.175
 11
33.175
 20
219.5
 21
219.5
  0
LINE
  8
0
 10
33.175
 11
33.175
 20
219.5
 21
216.5
  0
LINE
  8
0
 10
33.175
 11
35.175
 20
216.5
 21
216.5
  0
LINE
  8
0
 10
35.175
 11
35.175
 20
216.5
 21
215.05
  0
LINE
  8
0
 10
35.175
 11
38.175
 20
215.05
 21
215.05
  0
LINE
  8
0
 10
38.175
 11
38.175
 20
215.05
 21
216.5
  0
LINE
  8
0
 10
38.175
 11
43.175
 20
216.5
 21
216.5
  0
LINE
  8
0
 10
43.175
 11
43.175
 20
216.5
 21
193.675
  0
LINE
  8
0
 10
43.175
 11
46.35
 20
193.675
 21
193.675
  0
LINE
  8
0
 10
46.35
 11
46.35
 20
193.675
 21
183.675
  0
LINE
  8
0
 10
46.35
 11
43.175
 20
183.675
 21
183.675
  0
LINE
  8
0
 10
43.175
 11
43.175
 20
183.675
 21
0
  0
LINE
  8
0
 10
43.175
 11
33.175
 20
0
 21
0
  0
LINE
  8
0
 10
33.175
 11
33.175
 20
0
 21
3.175
  0
LINE
  8
0
 10
33.175
 11
24.675
 20
3.175
 21
3.175
  0
LINE
  8
0
 10
24.675
 11
24.675
 20
3.175
 21
8.175
  0
LINE
  8
0
 10
24.675
 11
26.125
 20
8.175
 21
8.175
  0
LINE
  8
0
 10
26.125
 11
26.125
 20
8.175
 21
11.175
  0
LINE
  8
0
 10
26.125
 11
24.675
 20
11.175
 21
11.175
  0
LINE
  8
0
 10
24.675
 11
24.675
 20
11.175
 21
13.175
  0
LINE
  8
0
 10
24.675
 11
21.675
 20
13.175
 21
13.175
  0
LINE
  8
0
 10
21.675
 11
21.675
 20
13.175
 21
11.175
  0
LINE
  8
0
 10
21.675
 11
20.225
 20
11.175
 21
11.175
  0
LINE
  8
0
 10
20.225
 11
20.225
 20
11.175
 21
8.175
  0
LINE
  8
0
 10
20.225
 11
21.675
 20
8.175
 21
8.175
  0
LINE
  8
0
 10
21.675
 11
21.675
 20
8.175
 21
3.175
  0
LINE
  8
0
 10
21.675
 11
13.175
 20
3.175
 21
3.175
  0
LINE
  8
0
 10
13.175
 11
13.175
 20
3.175
 21
0
  0
LINE
  8
0
 10
13.175
 11
3.175
 20
0
 21
0
  0
LINE
  8
0
 10
3.175
 11
3.175
 20
0
 21
8.175
  0
LINE
  8
0
 10
3.175
 11
0
 20
8.175
 21
8.175
  0
LINE
  8
0
 10
19.175
 11
19.175
 20
126.162
 21
130.162
  0
LINE
  8
0
 10
19.175
 11
20.175
 20
130.162
 21
130.162
  0
LINE
  8
0
 10
20.175
 11
20.175
 20
130.162
 21
126.162
  0
LINE
  8
0
 10
20.175
 11
19.175
 20
126.162
 21
126.162
  0
LINE
  8
0
 10
22.175
 11
22.175
 20
126.162
 21
130.162
  0
LINE
  8
0
 10
22.175
 11
23.175
 20
130.162
 21
130.162
  0
LINE
  8
0
 10
23.175
 11
23.175
 20
130.162
 21
126.162
  0
LINE
  8
0
 10
23.175
 11
22.175
 20
126.162
 21
126.162
  0
LINE
  8
0
 10
43.575
 11
43.575
 20
194.075
 21
204.075
  0
LINE
  8
0
 10
43.575
 11
46.75
 20
204.075
 21
204.075
  0
LINE
  8
0
 10
46.75
 11
46.75
 20
204.075
 21
226.9
  0
LINE
  8
0
 10
46.75
 11
51.75
 20
226.9
 21
226.9
  0
LINE
  8
0
 10
51.75
 11
51.75
 20
226.9
 21
225.45
  0
LINE
  8
0
 10
51.75
 11
54.75
 20
225.45
 21
225.45
  0
LINE
  8
0
 10
54.75
 11
54.75
 20
225.45
 21
226.9
  0
LINE
  8
0
 10
54.75
 11
56.75
 20
226.9
 21
226.9
  0
LINE
  8
0
 10
56.75
 11
56.75
 20
226.9
 21
229.9
  0
LINE
  8
0
 10
56.75
 11
54.75
 20
229.9
 21
229.9
  0
LINE
  8
0
 10
54.75
 11
54.75
 20
229.9
 21
231.35
  0
LINE
  8
0
 10
54.75
 11
51.75
 20
231.35
 21
231.35
  0
LINE
  8
0
 10
51.75
 11
51.75
 20
231.35
 21
229.9
  0
LINE
  8
0
 10
51.75
 11
46.75
 20
229.9
 21
229.9
  0
LINE
  8
0
 10
46.75
 11
46.75
 20
229.9
 21
252.9
  0
LINE
  8
0
 10
46.75
 11
43.575
 20
252.9
 21
252.9
  0
LINE
  8
0
 10
43.575
 11
43.575
 20
252.9
 21
262.9
  0
LINE
  8
0
 10
43.575
 11
46.75
 20
262.9
 21
262.9
  0
LINE
  8
0
 10
46.75
 11
46.75
 20
262.9
 21
265.9
  0
LINE
  8
0
 10
46.75
 11
65.25
 20
265.9
 21
265.9
  0
LINE
  8
0
 10
65.25
 11
65.25
 20
265.9
 21
260.9
  0
LINE
  8
0
 10
65.25
 11
63.8
 20
260.9
 21
260.9
  0
LINE
  8
0
 10
63.8
 11
63.8
 20
260.9
 21
257.9
  0
LINE
  8
0
 10
63.8
 11
65.25
 20
257.9
 21
257.9
  0
LINE
  8
0
 10
65.25
 11
65.25
 20
257.9
 21
255.9
  0
LINE
  8
0
 10
65.25
 11
68.25
 20
255.9
 21
255.9
  0
LINE
  8
0
 10
68.25
 11
68.25
 20
255.9
 21
257.9
  0
LINE
  8
0
 10
68.25
 11
69.7
 20
257.9
 21
257.9
  0
LINE
  8
0
 10
69.7
 11
69.7
 20
257.9
 21
260.9
  0
LINE
  8
0
 10
69.7
 11
68.25
 20
260.9
 21
260.9
  0
LINE
  8
0
 10
68.25
 11
68.25
 20
260.9
 21
265.9
  0
LINE
  8
0
 10
68.25
 11
76.75
 20
265.9
 21
265.9
  0
LINE
  8
0
 10
76.75
 11
76.75
 20
265.9
 21
269.075
  0
LINE
  8
0
 10
76.75
 11
86.75
 20
269.075
 21
269.075
  0
LINE
  8
0
 10
86.75
 11
86.75
 20
269.075
 21
55.575
  0
LINE
  8
0
 10
86.75
 11
89.925
 20
55.575
 21
55.575
  0
LINE
  8
0
 10
89.925
 11
89.925
 20
55.575
 21
45.575
  0
LINE
  8
0
 10
89.925
 11
86.75
 20
45.575
 21
45.575
  0
LINE
  8
0
 10
86.75
 11
86.75
 20
45.575
 21
38.575
  0
LINE
  8
0
 10
86.75
 11
81.75
 20
38.575
 21
38.575
  0
LINE
  8
0
 10
81.75
 11
81.75
 20
38.575
 21
40.025
  0
LINE
  8
0
 10
81.75
 11
78.75
 20
40.025
 21
40.025
  0
LINE
  8
0
 10
78.75
 11
78.75
 20
40.025
 21
38.575
  0
LINE
  8
0
 10
78.75
 11
76.75
 20
38.575
 21
38.575
  0
LINE
  8
0
 10
76.75
 11
76.75
 20
38.575
 21
35.575
  0
LINE
  8
0
 10
76.75
 11
78.75
 20
35.575
 21
35.575
  0
LINE
  8
0
 10
78.75
 11
78.75
 20
35.575
 21
34.125
  0
LINE
  8
0
 10
78.75
 11
81.75
 20
34.125
 21
34.125
  0
LINE
  8
0
 10
81.75
 11
81.75
 20
34.125
 21
35.575
  0
LINE
  8
0
 10
81.75
 11
86.75
 20
35.575
 21
35.575
  0
LINE
  8
0
 10
86.75
 11
86.75
 20
35.575
 21
28.575
  0
LINE
  8
0
 10
86.75
 11
89.925
 20
28.575
 21
28.575
  0
LINE
  8
0
 10
89.925
 11
89.925
 20
28.575
 21
18.575
  0
LINE
  8
0
 10
89.925
 11
86.75
 20
18.575
 21
18.575
  0
LINE
  8
0
 10
86.75
 11
86.75
 20
18.575
 21
10.4
  0
LINE
  8
0
 10
86.75
 11
76.75
 20
10.4
 21
10.4
  0
LINE
  8
0
 10
76.75
 11
76.75
 20
10.4
 21
13.575
  0
LINE
  8
0
 10
76.75
 11
68.25
 20
13.575
 21
13.575
  0
LINE
  8
0
 10
68.25
 11
68.25
 20
13.575
 21
18.575
  0
LINE
  8
0
 10
68.25
 11
69.7
 20
18.575
 21
18.575
  0
LINE
  8
0
 10
69.7
 11
69.7
 20
18.575
 21
21.575
  0
LINE
  8
0
 10
69.7
 11
68.25
 20
21.575
 21
21.575
  0
LINE
  8
0
 10
68.25
 11
68.25
 20
21.575
 21
23.575
  0
LINE
  8
0
 10
68.25
 11
65.25
 20
23.575
 21
23.575
  0
LINE
  8
0
 10
65.25
 11
65.25
 20
23.575
 21
21.575
  0
LINE
  8
0
 10
65.25
 11
63.8
 20
21.575
 21
21.575
  0
LINE
  8
0
 10
63.8
 11
63.8
 20
21.575
 21
18.575
  0
LINE
  8
0
 10
63.8
 11
65.25
 20
18.575
 21
18.575
  0
LINE
  8
0
 10
65.25
 11
65.25
 20
18.575
 21
13.575
  0
LINE
  8
0
 10
65.25
 11
56.75
 20
13.575
 21
13.575
  0
LINE
  8
0
 10
56.75
 11
56.75
 20
13.575
 21
10.4
  0
LINE
  8
0
 10
56.75
 11
46.75
 20
10.4
 21
10.4
  0
LINE
  8
0
 10
46.75
 11
46.75
 20
10.4
 21
194.075
  0
LINE
  8
0
 10
46.75
 11
43.575
 20
194.075
 21
194.075
  0
LINE
  8
0
 10
87.15
 11
87.15
 20
135.2
 21
152.55
  0
LINE
  8
0
 10
87.15
 11
127.15
 20
152.55
 21
152.55
  0
LINE
  8
0
 10
127.15
 11
127.15
 20
152.55
 21
135.2
  0
LINE
  8
0
 10
127.15
 11
87.15
 20
135.2
 21
135.2
  0
LINE
  8
0
 10
87.8
 11
88.401
 20
220.98
 21
230.53
  0
LINE
  8
0
 10
88.401
 11
90.194
 20
230.53
 21
239.93
  0
LINE
  8
0
 10
90.194
 11
93.151
 20
239.93
 21
249.031
  0
LINE
  8
0
 10
93.151
 11
97.225
 20
249.031
 21
257.69
  0
LINE
  8
0
 10
97.225
 11
102.353
 20
257.69
 21
265.769
  0
LINE
  8
0
 10
102.353
 11
108.453
 20
265.769
 21
273.142
  0
LINE
  8
0
 10
108.453
 11
115.428
 20
273.142
 21
279.693
  0
LINE
  8
0
 10
115.428
 11
123.17
 20
279.693
 21
285.318
  0
LINE
  8
0
 10
123.17
 11
131.556
 20
285.318
 21
289.928
  0
LINE
  8
0
 10
131.556
 11
140.453
 20
289.928
 21
293.451
  0
LINE
  8
0
 10
140.453
 11
149.722
 20
293.451
 21
295.83
  0
LINE
  8
0
 10
149.722
 11
159.215
 20
295.83
 21
297.03
  0
LINE
  8
0
 10
159.215
 11
168.785
 20
297.03
 21
297.03
  0
LINE
  8
0
 10
168.785
 11
178.278
 20
297.03
 21
295.83
  0
LINE
  8
0
 10
178.278
 11
187.547
 20
295.83
 21
293.451
  0
LINE
  8
0
 10
187.547
 11
196.444
 20
293.451
 21
289.928
  0
LINE
  8
0
 10
196.444
 11
204.83
 20
289.928
 21
285.318
  0
LINE
  8
0
 10
204.83
 11
212.572
 20
285.318
 21
279.693
  0
LINE
  8
0
 10
212.572
 11
219.547
 20
279.693
 21
273.142
  0
LINE
  8
0
 10
219.547
 11
225.647
 20
273.142
 21
265.769
  0
LINE
  8
0
 10
225.647
 11
230.775
 20
265.769
 21
257.69
  0
LINE
  8
0
 10
230.775
 11
234.849
 20
257.69
 21
249.031
  0
LINE
  8
0
 10
234.849
 11
237.806
 20
249.031
 21
239.93
  0
LINE
  8
0
 10
237.806
 11
239.599
 20
239.93
 21
230.53
  0
LINE
  8
0
 10
239.599
 11
240.2
 20
230.53
 21
220.98
  0
LINE
  8
0
 10
240.2
 11
239.599
 20
220.98
 21
211.43
  0
LINE
  8
0
 10
239.599
 11
237.806
 20
211.43
 21
202.03
  0
LINE
  8
0
 10
237.806
 11
234.849
 20
202.03
 21
192.929
  0
LINE
  8
0
 10
234.849
 11
230.775
 20
192.929
 21
184.27
  0
LINE
  8
0
 10
230.775
 11
225.647
 20
184.27
 21
176.191
  0
LINE
  8
0
 10
225.647
 11
219.547
 20
176.191
 21
168.818
  0
LINE
  8
0
 10
219.547
 11
212.572
 20
168.818
 21
162.267
  0
LINE
  8
0
 10
212.572
 11
204.83
 20
162.267
 21
156.642
  0
LINE
  8
0
 10
204.83
 11
196.444
 20
156.642
 21
152.032
  0
LINE
  8
0
 10
196.444
 11
187.547
 20
152.032
 21
148.509
  0
LINE
  8
0
 10
187.547
 11
178.278
 20
148.509
 21
146.13
  0
LINE
  8
0
 10
178.278
 11
168.785
 20
146.13
 21
144.93
  0
LINE
  8
0
 10
168.785
 11
159.215
 20
144.93
 21
144.93
  0
LINE
  8
0
 10
159.215
 11
149.722
 20
144.93
 21
146.13
  0
LINE
  8
0
 10
149.722
 11
140.453
 20
146.13
 21
148.509
  0
LINE
  8
0
 10
140.453
 11
131.556
 20
148.509
 21
152.032
  0
LINE
  8
0
 10
131.556
 11
123.17
 20
152.032
 21
156.642
  0
LINE
  8
0
 10
123.17
 11
115.428
 20
156.642
 21
162.267
  0
LINE
  8
0
 10
115.428
 11
108.453
 20
162.267
 21
168.818
  0
LINE
  8
0
 10
108.453
 11
102.353
 20
168.818
 21
176.191
  0
LINE
  8
0
 10
102.353
 11
97.225
 20
176.191
 21
184.27
  0
LINE
  8
0
 10
97.225
 11
93.151
 20
184.27
 21
192.929
  0
LINE
  8
0
 10
93.151
 11
90.194
 20
192.929
 21
202.03
  0
LINE
  8
0
 10
90.194
 11
88.401
 20
202.03
 21
211.43
  0
LINE
  8
0
 10
88.401
 11
87.8
 20
211.43
 21
220.98
  0
LINE
  8
0
 10
90.325
 11
90.325
 20
3.575
 21
80.4
  0
LINE
  8
0
 10
90.325
 11
157.675
 20
80.4
 21
80.4
  0
LINE
  8
0
 10
157.675
 11
157.675
 20
80.4
 21
3.575
  0
LINE
  8
0
 10
157.675
 11
129
 20
3.575
 21
3.575
  0
LINE
  8
0
 10
129
 11
129
 20
3.575
 21
0.4
  0
LINE
  8
0
 10
129
 11
119
 20
0.4
 21
0.4
  0
LINE
  8
0
 10
119
 11
119
 20
0.4
 21
3.575
  0
LINE
  8
0
 10
119
 11
90.325
 20
3.575
 21
3.575
  0
LINE
  8
0
 10
90.325
 11
90.325
 20
80.8
 21
134.975
  0
LINE
  8
0
 10
90.325
 11
157.675
 20
134.975
 21
134.975
  0
LINE
  8
0
 10
157.675
 11
157.675
 20
134.975
 21
80.8
  0
LINE
  8
0
 10
157.675
 11
129
 20
80.8
 21
80.8
  0
LINE
  8
0
 10
129
 11
129
 20
80.8
 21
83.975
  0
LINE
  8
0
 10
129
 11
119
 20
83.975
 21
83.975
  0
LINE
  8
0
 10
119
 11
119
 20
83.975
 21
80.8
  0
LINE
  8
0
 10
119
 11
90.325
 20
80.8
 21
80.8
  0
LINE
  8
0
 10
90.65
 11
90.662
 20
143.875
 21
144.063
  0
LINE
  8
0
 10
90.662
 11
90.697
 20
144.063
 21
144.248
  0
LINE
  8
0
 10
90.697
 11
90.755
 20
144.248
 21
144.427
  0
LINE
  8
0
 10
90.755
 11
90.836
 20
144.427
 21
144.598
  0
LINE
  8
0
 10
90.836
 11
90.936
 20
144.598
 21
144.757
  0
LINE
  8
0
 10
90.936
 11
91.057
 20
144.757
 21
144.902
  0
LINE
  8
0
 10
91.057
 11
91.194
 20
144.902
 21
145.031
  0
LINE
  8
0
 10
91.194
 11
91.346
 20
145.031
 21
145.141
  0
LINE
  8
0
 10
91.346
 11
91.511
 20
145.141
 21
145.232
  0
LINE
  8
0
 10
91.511
 11
91.686
 20
145.232
 21
145.302
  0
LINE
  8
0
 10
91.686
 11
91.869
 20
145.302
 21
145.348
  0
LINE
  8
0
 10
91.869
 11
92.056
 20
145.348
 21
145.372
  0
LINE
  8
0
 10
92.056
 11
92.244
 20
145.372
 21
145.372
  0
LINE
  8
0
 10
92.244
 11
92.431
 20
145.372
 21
145.348
  0
LINE
  8
0
 10
92.431
 11
92.614
 20
145.348
 21
145.302
  0
LINE
  8
0
 10
92.614
 11
92.789
 20
145.302
 21
145.232
  0
LINE
  8
0
 10
92.789
 11
92.954
 20
145.232
 21
145.141
  0
LINE
  8
0
 10
92.954
 11
93.106
 20
145.141
 21
145.031
  0
LINE
  8
0
 10
93.106
 11
93.243
 20
145.031
 21
144.902
  0
LINE
  8
0
 10
93.243
 11
93.364
 20
144.902
 21
144.757
  0
LINE
  8
0
 10
93.364
 11
93.464
 20
144.757
 21
144.598
  0
LINE
  8
0
 10
93.464
 11
93.545
 20
144.598
 21
144.427
  0
LINE
  8
0
 10
93.545
 11
93.603
 20
144.427
 21
144.248
  0
LINE
  8
0
 10
93.603
 11
93.638
 20
144.248
 21
144.063
  0
LINE
  8
0
 10
93.638
 11
93.65
 20
144.063
 21
143.875
  0
LINE
  8
0
 10
93.65
 11
93.638
 20
143.875
 21
143.687
  0
LINE
  8
0
 10
93.638
 11
93.603
 20
143.687
 21
143.502
  0
LINE
  8
0
 10
93.603
 11
93.545
 20
143.502
 21
143.323
  0
LINE
  8
0
 10
93.545
 11
93.464
 20
143.323
 21
143.152
  0
LINE
  8
0
 10
93.464
 11
93.364
 20
143.152
 21
142.993
  0
LINE
  8
0
 10
93.364
 11
93.243
 20
142.993
 21
142.848
  0
LINE
  8
0
 10
93.243
 11
93.106
 20
142.848
 21
142.719
  0
LINE
  8
0
 10
93.106
 11
92.954
 20
142.719
 21
142.609
  0
LINE
  8
0
 10
92.954
 11
92.789
 20
142.609
 21
142.518
  0
LINE
  8
0
 10
92.789
 11
92.614
 20
142.518
 21
142.448
  0
LINE
  8
0
 10
92.614
 11
92.431
 20
142.448
 21
142.402
  0
LINE
  8
0
 10
92.431
 11
92.244
 20
142.402
 21
142.378
  0
LINE
  8
0
 10
92.244
 11
92.056
 20
142.378
 21
142.378
  0
LINE
  8
0
 10
92.056
 11
91.869
 20
142.378
 21
142.402
  0
LINE
  8
0
 10
91.869
 11
91.686
 20
142.402
 21
142.448
  0
LINE
  8
0
 10
91.686
 11
91.511
 20
142.448
 21
142.518
  0
LINE
  8
0
 10
91.511
 11
91.346
 20
142.518
 21
142.609
  0
LINE
  8
0
 10
91.346
 11
91.194
 20
142.609
 21
142.719
  0
LINE
  8
0
 10
91.194
 11
91.057
 20
142.719
 21
142.848
  0
LINE
  8
0
 10
91.057
 11
90.936
 20
142.848
 21
142.993
  0
LINE
  8
0
 10
90.936
 11
90.836
 20
142.993
 21
143.152
  0
LINE
  8
0
 10
90.836
 11
90.755
 20
143.152
 21
143.323
  0
LINE
  8
0
 10
90.755
 11
90.697
 20
143.323
 21
143.502
  0
LINE
  8
0
 10
90.697
 11
90.662
 20
143.502
 21
143.687
  0
LINE
  8
0
 10
90.662
 11
90.65
 20
143.687
 21
143.875
  0
LINE
  8
0
 10
93.325
 11
93.325
 20
6.575
 21
16.575
  0
LINE
  8
0
 10
93.325
 11
96.5
 20
16.575
 21
16.575
  0
LINE
  8
0
 10
96.5
 11
96.5
 20
16.575
 21
6.575
  0
LINE
  8
0
 10
96.5
 11
93.325
 20
6.575
 21
6.575
  0
LINE
  8
0
 10
93.325
 11
93.325
 20
65.4
 21
75.4
  0
LINE
  8
0
 10
93.325
 11
96.5
 20
75.4
 21
75.4
  0
LINE
  8
0
 10
96.5
 11
96.5
 20
75.4
 21
65.4
  0
LINE
  8
0
 10
96.5
 11
93.325
 20
65.4
 21
65.4
  0
LINE
  8
0
 10
93.325
 11
93.325
 20
83.975
 21
93.975
  0
LINE
  8
0
 10
93.325
 11
96.5
 20
93.975
 21
93.975
  0
LINE
  8
0
 10
96.5
 11
96.5
 20
93.975
 21
83.975
  0
LINE
  8
0
 10
96.5
 11
93.325
 20
83.975
 21
83.975
  0
LINE
  8
0
 10
93.325
 11
93.337
 20
103.975
 21
104.163
  0
LINE
  8
0
 10
93.337
 11
93.372
 20
104.163
 21
104.348
  0
LINE
  8
0
 10
93.372
 11
93.43
 20
104.348
 21
104.527
  0
LINE
  8
0
 10
93.43
 11
93.511
 20
104.527
 21
104.698
  0
LINE
  8
0
 10
93.511
 11
93.611
 20
104.698
 21
104.857
  0
LINE
  8
0
 10
93.611
 11
93.732
 20
104.857
 21
105.002
  0
LINE
  8
0
 10
93.732
 11
93.869
 20
105.002
 21
105.131
  0
LINE
  8
0
 10
93.869
 11
94.021
 20
105.131
 21
105.241
  0
LINE
  8
0
 10
94.021
 11
94.186
 20
105.241
 21
105.332
  0
LINE
  8
0
 10
94.186
 11
94.361
 20
105.332
 21
105.402
  0
LINE
  8
0
 10
94.361
 11
94.544
 20
105.402
 21
105.448
  0
LINE
  8
0
 10
94.544
 11
94.731
 20
105.448
 21
105.472
  0
LINE
  8
0
 10
94.731
 11
94.919
 20
105.472
 21
105.472
  0
LINE
  8
0
 10
94.919
 11
95.106
 20
105.472
 21
105.448
  0
LINE
  8
0
 10
95.106
 11
95.289
 20
105.448
 21
105.402
  0
LINE
  8
0
 10
95.289
 11
95.464
 20
105.402
 21
105.332
  0
LINE
  8
0
 10
95.464
 11
95.629
 20
105.332
 21
105.241
  0
LINE
  8
0
 10
95.629
 11
95.781
 20
105.241
 21
105.131
  0
LINE
  8
0
 10
95.781
 11
95.918
 20
105.131
 21
105.002
  0
LINE
  8
0
 10
95.918
 11
96.039
 20
105.002
 21
104.857
  0
LINE
  8
0
 10
96.039
 11
96.139
 20
104.857
 21
104.698
  0
LINE
  8
0
 10
96.139
 11
96.22
 20
104.698
 21
104.527
  0
LINE
  8
0
 10
96.22
 11
96.278
 20
104.527
 21
104.348
  0
LINE
  8
0
 10
96.278
 11
96.313
 20
104.348
 21
104.163
  0
LINE
  8
0
 10
96.313
 11
96.325
 20
104.163
 21
103.975
  0
LINE
  8
0
 10
96.325
 11
96.313
 20
103.975
 21
103.787
  0
LINE
  8
0
 10
96.313
 11
96.278
 20
103.787
 21
103.602
  0
LINE
  8
0
 10
96.278
 11
96.22
 20
103.602
 21
103.423
  0
LINE
  8
0
 10
96.22
 11
96.139
 20
103.423
 21
103.252
  0
LINE
  8
0
 10
96.139
 11
96.039
 20
103.252
 21
103.093
  0
LINE
  8
0
 10
96.039
 11
95.918
 20
103.093
 21
102.948
  0
LINE
  8
0
 10
95.918
 11
95.781
 20
102.948
 21
102.819
  0
LINE
  8
0
 10
95.781
 11
95.629
 20
102.819
 21
102.709
  0
LINE
  8
0
 10
95.629
 11
95.464
 20
102.709
 21
102.618
  0
LINE
  8
0
 10
95.464
 11
95.289
 20
102.618
 21
102.548
  0
LINE
  8
0
 10
95.289
 11
95.106
 20
102.548
 21
102.502
  0
LINE
  8
0
 10
95.106
 11
94.919
 20
102.502
 21
102.478
  0
LINE
  8
0
 10
94.919
 11
94.731
 20
102.478
 21
102.478
  0
LINE
  8
0
 10
94.731
 11
94.544
 20
102.478
 21
102.502
  0
LINE
  8
0
 10
94.544
 11
94.361
 20
102.502
 21
102.548
  0
LINE
  8
0
 10
94.361
 11
94.186
 20
102.548
 21
102.618
  0
LINE
  8
0
 10
94.186
 11
94.021
 20
102.618
 21
102.709
  0
LINE
  8
0
 10
94.021
 11
93.869
 20
102.709
 21
102.819
  0
LINE
  8
0
 10
93.869
 11
93.732
 20
102.819
 21
102.948
  0
LINE
  8
0
 10
93.732
 11
93.611
 20
102.948
 21
103.093
  0
LINE
  8
0
 10
93.611
 11
93.511
 20
103.093
 21
103.252
  0
LINE
  8
0
 10
93.511
 11
93.43
 20
103.252
 21
103.423
  0
LINE
  8
0
 10
93.43
 11
93.372
 20
103.423
 21
103.602
  0
LINE
  8
0
 10
93.372
 11
93.337
 20
103.602
 21
103.787
  0
LINE
  8
0
 10
93.337
 11
93.325
 20
103.787
 21
103.975
  0
LINE
  8
0
 10
93.325
 11
93.325
 20
113.975
 21
123.975
  0
LINE
  8
0
 10
93.325
 11
96.5
 20
123.975
 21
123.975
  0
LINE
  8
0
 10
96.5
 11
96.5
 20
123.975
 21
113.975
  0
LINE
  8
0
 10
96.5
 11
93.325
 20
113.975
 21
113.975
  0
LINE
  8
0
 10
93.415
 11
93.415
 20
40.306
 21
40.494
  0
LINE
  8
0
 10
93.415
 11
93.439
 20
40.494
 21
40.681
  0
LINE
  8
0
 10
93.439
 11
93.486
 20
40.681
 21
40.864
  0
LINE
  8
0
 10
93.486
 11
93.555
 20
40.864
 21
41.039
  0
LINE
  8
0
 10
93.555
 11
93.647
 20
41.039
 21
41.204
  0
LINE
  8
0
 10
93.647
 11
93.757
 20
41.204
 21
41.356
  0
LINE
  8
0
 10
93.757
 11
93.886
 20
41.356
 21
41.493
  0
LINE
  8
0
 10
93.886
 11
94.031
 20
41.493
 21
41.614
  0
LINE
  8
0
 10
94.031
 11
94.19
 20
41.614
 21
41.714
  0
LINE
  8
0
 10
94.19
 11
94.361
 20
41.714
 21
41.795
  0
LINE
  8
0
 10
94.361
 11
94.539
 20
41.795
 21
41.853
  0
LINE
  8
0
 10
94.539
 11
94.724
 20
41.853
 21
41.888
  0
LINE
  8
0
 10
94.724
 11
94.913
 20
41.888
 21
41.9
  0
LINE
  8
0
 10
94.913
 11
95.1
 20
41.9
 21
41.888
  0
LINE
  8
0
 10
95.1
 11
95.285
 20
41.888
 21
41.853
  0
LINE
  8
0
 10
95.285
 11
95.465
 20
41.853
 21
41.795
  0
LINE
  8
0
 10
95.465
 11
95.636
 20
41.795
 21
41.714
  0
LINE
  8
0
 10
95.636
 11
95.794
 20
41.714
 21
41.614
  0
LINE
  8
0
 10
95.794
 11
95.94
 20
41.614
 21
41.493
  0
LINE
  8
0
 10
95.94
 11
96.069
 20
41.493
 21
41.356
  0
LINE
  8
0
 10
96.069
 11
96.179
 20
41.356
 21
41.204
  0
LINE
  8
0
 10
96.179
 11
96.27
 20
41.204
 21
41.039
  0
LINE
  8
0
 10
96.27
 11
96.34
 20
41.039
 21
40.864
  0
LINE
  8
0
 10
96.34
 11
96.386
 20
40.864
 21
40.681
  0
LINE
  8
0
 10
96.386
 11
96.41
 20
40.681
 21
40.494
  0
LINE
  8
0
 10
96.41
 11
96.41
 20
40.494
 21
40.306
  0
LINE
  8
0
 10
96.41
 11
96.386
 20
40.306
 21
40.119
  0
LINE
  8
0
 10
96.386
 11
96.34
 20
40.119
 21
39.936
  0
LINE
  8
0
 10
96.34
 11
96.27
 20
39.936
 21
39.761
  0
LINE
  8
0
 10
96.27
 11
96.179
 20
39.761
 21
39.596
  0
LINE
  8
0
 10
96.179
 11
96.069
 20
39.596
 21
39.444
  0
LINE
  8
0
 10
96.069
 11
95.94
 20
39.444
 21
39.307
  0
LINE
  8
0
 10
95.94
 11
95.794
 20
39.307
 21
39.186
  0
LINE
  8
0
 10
95.794
 11
95.636
 20
39.186
 21
39.086
  0
LINE
  8
0
 10
95.636
 11
95.465
 20
39.086
 21
39.005
  0
LINE
  8
0
 10
95.465
 11
95.285
 20
39.005
 21
38.947
  0
LINE
  8
0
 10
95.285
 11
95.1
 20
38.947
 21
38.912
  0
LINE
  8
0
 10
95.1
 11
94.913
 20
38.912
 21
38.9
  0
LINE
  8
0
 10
94.913
 11
94.724
 20
38.9
 21
38.912
  0
LINE
  8
0
 10
94.724
 11
94.539
 20
38.912
 21
38.947
  0
LINE
  8
0
 10
94.539
 11
94.361
 20
38.947
 21
39.005
  0
LINE
  8
0
 10
94.361
 11
94.19
 20
39.005
 21
39.086
  0
LINE
  8
0
 10
94.19
 11
94.031
 20
39.086
 21
39.186
  0
LINE
  8
0
 10
94.031
 11
93.886
 20
39.186
 21
39.307
  0
LINE
  8
0
 10
93.886
 11
93.757
 20
39.307
 21
39.444
  0
LINE
  8
0
 10
93.757
 11
93.647
 20
39.444
 21
39.596
  0
LINE
  8
0
 10
93.647
 11
93.555
 20
39.596
 21
39.761
  0
LINE
  8
0
 10
93.555
 11
93.486
 20
39.761
 21
39.936
  0
LINE
  8
0
 10
93.486
 11
93.439
 20
39.936
 21
40.119
  0
LINE
  8
0
 10
93.439
 11
93.415
 20
40.119
 21
40.306
  0
LINE
  8
0
 10
98.003
 11
98.073
 20
18.494
 21
18.864
  0
LINE
  8
0
 10
98.073
 11
98.234
 20
18.864
 21
19.204
  0
LINE
  8
0
 10
98.234
 11
98.473
 20
19.204
 21
19.493
  0
LINE
  8
0
 10
98.473
 11
98.777
 20
19.493
 21
19.714
  0
LINE
  8
0
 10
98.777
 11
99.127
 20
19.714
 21
19.853
  0
LINE
  8
0
 10
99.127
 11
99.5
 20
19.853
 21
19.9
  0
LINE
  8
0
 10
99.5
 11
99.873
 20
19.9
 21
19.853
  0
LINE
  8
0
 10
99.873
 11
100.223
 20
19.853
 21
19.714
  0
LINE
  8
0
 10
100.223
 11
100.527
 20
19.714
 21
19.493
  0
LINE
  8
0
 10
100.527
 11
100.766
 20
19.493
 21
19.204
  0
LINE
  8
0
 10
100.766
 11
100.927
 20
19.204
 21
18.864
  0
LINE
  8
0
 10
100.927
 11
100.997
 20
18.864
 21
18.494
  0
LINE
  8
0
 10
100.997
 11
100.973
 20
18.494
 21
18.119
  0
LINE
  8
0
 10
100.973
 11
100.857
 20
18.119
 21
17.761
  0
LINE
  8
0
 10
100.857
 11
100.656
 20
17.761
 21
17.444
  0
LINE
  8
0
 10
100.656
 11
100.382
 20
17.444
 21
17.186
  0
LINE
  8
0
 10
100.382
 11
100.052
 20
17.186
 21
17.005
  0
LINE
  8
0
 10
100.052
 11
99.688
 20
17.005
 21
16.912
  0
LINE
  8
0
 10
99.688
 11
99.312
 20
16.912
 21
16.912
  0
LINE
  8
0
 10
99.312
 11
98.948
 20
16.912
 21
17.005
  0
LINE
  8
0
 10
98.948
 11
98.618
 20
17.005
 21
17.186
  0
LINE
  8
0
 10
98.618
 11
98.344
 20
17.186
 21
17.444
  0
LINE
  8
0
 10
98.344
 11
98.143
 20
17.444
 21
17.761
  0
LINE
  8
0
 10
98.143
 11
98.027
 20
17.761
 21
18.119
  0
LINE
  8
0
 10
98.027
 11
98.003
 20
18.119
 21
18.494
  0
LINE
  8
0
 10
107.15
 11
107.15
 20
138.375
 21
139.375
  0
LINE
  8
0
 10
107.15
 11
111.15
 20
139.375
 21
139.375
  0
LINE
  8
0
 10
111.15
 11
111.15
 20
139.375
 21
138.375
  0
LINE
  8
0
 10
111.15
 11
107.15
 20
138.375
 21
138.375
  0
LINE
  8
0
 10
107.15
 11
107.15
 20
148.375
 21
149.375
  0
LINE
  8
0
 10
107.15
 11
111.15
 20
149.375
 21
149.375
  0
LINE
  8
0
 10
111.15
 11
111.15
 20
149.375
 21
148.375
  0
LINE
  8
0
 10
111.15
 11
107.15
 20
148.375
 21
148.375
  0
LINE
  8
0
 10
113.253
 11
113.323
 20
69.494
 21
69.864
  0
LINE
  8
0
 10
113.323
 11
113.484
 20
69.864
 21
70.204
  0
LINE
  8
0
 10
113.484
 11
113.723
 20
70.204
 21
70.493
  0
LINE
  8
0
 10
113.723
 11
114.027
 20
70.493
 21
70.714
  0
LINE
  8
0
 10
114.027
 11
114.377
 20
70.714
 21
70.853
  0
LINE
  8
0
 10
114.377
 11
114.75
 20
70.853
 21
70.9
  0
LINE
  8
0
 10
114.75
 11
115.123
 20
70.9
 21
70.853
  0
LINE
  8
0
 10
115.123
 11
115.473
 20
70.853
 21
70.714
  0
LINE
  8
0
 10
115.473
 11
115.777
 20
70.714
 21
70.493
  0
LINE
  8
0
 10
115.777
 11
116.016
 20
70.493
 21
70.204
  0
LINE
  8
0
 10
116.016
 11
116.177
 20
70.204
 21
69.864
  0
LINE
  8
0
 10
116.177
 11
116.247
 20
69.864
 21
69.494
  0
LINE
  8
0
 10
116.247
 11
116.223
 20
69.494
 21
69.119
  0
LINE
  8
0
 10
116.223
 11
116.107
 20
69.119
 21
68.761
  0
LINE
  8
0
 10
116.107
 11
115.906
 20
68.761
 21
68.444
  0
LINE
  8
0
 10
115.906
 11
115.632
 20
68.444
 21
68.186
  0
LINE
  8
0
 10
115.632
 11
115.302
 20
68.186
 21
68.005
  0
LINE
  8
0
 10
115.302
 11
114.938
 20
68.005
 21
67.912
  0
LINE
  8
0
 10
114.938
 11
114.562
 20
67.912
 21
67.912
  0
LINE
  8
0
 10
114.562
 11
114.198
 20
67.912
 21
68.005
  0
LINE
  8
0
 10
114.198
 11
113.868
 20
68.005
 21
68.186
  0
LINE
  8
0
 10
113.868
 11
113.594
 20
68.186
 21
68.444
  0
LINE
  8
0
 10
113.594
 11
113.393
 20
68.444
 21
68.761
  0
LINE
  8
0
 10
113.393
 11
113.277
 20
68.761
 21
69.119
  0
LINE
  8
0
 10
113.277
 11
113.253
 20
69.119
 21
69.494
  0
LINE
  8
0
 10
117.15
 11
117.15
 20
138.375
 21
139.375
  0
LINE
  8
0
 10
117.15
 11
121.15
 20
139.375
 21
139.375
  0
LINE
  8
0
 10
121.15
 11
121.15
 20
139.375
 21
138.375
  0
LINE
  8
0
 10
121.15
 11
117.15
 20
138.375
 21
138.375
  0
LINE
  8
0
 10
117.15
 11
117.15
 20
148.375
 21
149.375
  0
LINE
  8
0
 10
117.15
 11
121.15
 20
149.375
 21
149.375
  0
LINE
  8
0
 10
121.15
 11
121.15
 20
149.375
 21
148.375
  0
LINE
  8
0
 10
121.15
 11
117.15
 20
148.375
 21
148.375
  0
LINE
  8
0
 10
141.253
 11
141.323
 20
69.494
 21
69.864
  0
LINE
  8
0
 10
141.323
 11
141.484
 20
69.864
 21
70.204
  0
LINE
  8
0
 10
141.484
 11
141.723
 20
70.204
 21
70.493
  0
LINE
  8
0
 10
141.723
 11
142.027
 20
70.493
 21
70.714
  0
LINE
  8
0
 10
142.027
 11
142.377
 20
70.714
 21
70.853
  0
LINE
  8
0
 10
142.377
 11
142.75
 20
70.853
 21
70.9
  0
LINE
  8
0
 10
142.75
 11
143.123
 20
70.9
 21
70.853
  0
LINE
  8
0
 10
143.123
 11
143.473
 20
70.853
 21
70.714
  0
LINE
  8
0
 10
143.473
 11
143.777
 20
70.714
 21
70.493
  0
LINE
  8
0
 10
143.777
 11
144.016
 20
70.493
 21
70.204
  0
LINE
  8
0
 10
144.016
 11
144.177
 20
70.204
 21
69.864
  0
LINE
  8
0
 10
144.177
 11
144.247
 20
69.864
 21
69.494
  0
LINE
  8
0
 10
144.247
 11
144.223
 20
69.494
 21
69.119
  0
LINE
  8
0
 10
144.223
 11
144.107
 20
69.119
 21
68.761
  0
LINE
  8
0
 10
144.107
 11
143.906
 20
68.761
 21
68.444
  0
LINE
  8
0
 10
143.906
 11
143.632
 20
68.444
 21
68.186
  0
LINE
  8
0
 10
143.632
 11
143.302
 20
68.186
 21
68.005
  0
LINE
  8
0
 10
143.302
 11
142.938
 20
68.005
 21
67.912
  0
LINE
  8
0
 10
142.938
 11
142.562
 20
67.912
 21
67.912
  0
LINE
  8
0
 10
142.562
 11
142.198
 20
67.912
 21
68.005
  0
LINE
  8
0
 10
142.198
 11
141.868
 20
68.005
 21
68.186
  0
LINE
  8
0
 10
141.868
 11
141.594
 20
68.186
 21
68.444
  0
LINE
  8
0
 10
141.594
 11
141.393
 20
68.444
 21
68.761
  0
LINE
  8
0
 10
141.393
 11
141.277
 20
68.761
 21
69.119
  0
LINE
  8
0
 10
141.277
 11
141.253
 20
69.119
 21
69.494
  0
LINE
  8
0
 10
146.406
 11
146.476
 20
17.401
 21
17.771
  0
LINE
  8
0
 10
146.476
 11
146.636
 20
17.771
 21
18.111
  0
LINE
  8
0
 10
146.636
 11
146.876
 20
18.111
 21
18.401
  0
LINE
  8
0
 10
146.876
 11
147.18
 20
18.401
 21
18.622
  0
LINE
  8
0
 10
147.18
 11
147.53
 20
18.622
 21
18.76
  0
LINE
  8
0
 10
147.53
 11
147.903
 20
18.76
 21
18.807
  0
LINE
  8
0
 10
147.903
 11
148.276
 20
18.807
 21
18.76
  0
LINE
  8
0
 10
148.276
 11
148.625
 20
18.76
 21
18.622
  0
LINE
  8
0
 10
148.625
 11
148.93
 20
18.622
 21
18.401
  0
LINE
  8
0
 10
148.93
 11
149.169
 20
18.401
 21
18.111
  0
LINE
  8
0
 10
149.169
 11
149.329
 20
18.111
 21
17.771
  0
LINE
  8
0
 10
149.329
 11
149.4
 20
17.771
 21
17.401
  0
LINE
  8
0
 10
149.4
 11
149.376
 20
17.401
 21
17.026
  0
LINE
  8
0
 10
149.376
 11
149.26
 20
17.026
 21
16.668
  0
LINE
  8
0
 10
149.26
 11
149.058
 20
16.668
 21
16.351
  0
LINE
  8
0
 10
149.058
 11
148.784
 20
16.351
 21
16.094
  0
LINE
  8
0
 10
148.784
 11
148.455
 20
16.094
 21
15.912
  0
LINE
  8
0
 10
148.455
 11
148.091
 20
15.912
 21
15.819
  0
LINE
  8
0
 10
148.091
 11
147.715
 20
15.819
 21
15.819
  0
LINE
  8
0
 10
147.715
 11
147.351
 20
15.819
 21
15.912
  0
LINE
  8
0
 10
147.351
 11
147.021
 20
15.912
 21
16.094
  0
LINE
  8
0
 10
147.021
 11
146.747
 20
16.094
 21
16.351
  0
LINE
  8
0
 10
146.747
 11
146.545
 20
16.351
 21
16.668
  0
LINE
  8
0
 10
146.545
 11
146.429
 20
16.668
 21
17.026
  0
LINE
  8
0
 10
146.429
 11
146.406
 20
17.026
 21
17.401
  0
LINE
  8
0
 10
151.5
 11
151.5
 20
6.575
 21
16.575
  0
LINE
  8
0
 10
151.5
 11
154.675
 20
16.575
 21
16.575
  0
LINE
  8
0
 10
154.675
 11
154.675
 20
16.575
 21
6.575
  0
LINE
  8
0
 10
154.675
 11
151.5
 20
6.575
 21
6.575
  0
LINE
  8
0
 10
151.5
 11
151.5
 20
65.4
 21
75.4
  0
LINE
  8
0
 10
151.5
 11
154.675
 20
75.4
 21
75.4
  0
LINE
  8
0
 10
154.675
 11
154.675
 20
75.4
 21
65.4
  0
LINE
  8
0
 10
154.675
 11
151.5
 20
65.4
 21
65.4
  0
LINE
  8
0
 10
151.5
 11
151.5
 20
83.975
 21
93.975
  0
LINE
  8
0
 10
151.5
 11
154.675
 20
93.975
 21
93.975
  0
LINE
  8
0
 10
154.675
 11
154.675
 20
93.975
 21
83.975
  0
LINE
  8
0
 10
154.675
 11
151.5
 20
83.975
 21
83.975
  0
LINE
  8
0
 10
151.5
 11
151.5
 20
113.975
 21
123.975
  0
LINE
  8
0
 10
151.5
 11
154.675
 20
123.975
 21
123.975
  0
LINE
  8
0
 10
154.675
 11
154.675
 20
123.975
 21
113.975
  0
LINE
  8
0
 10
154.675
 11
151.5
 20
113.975
 21
113.975
  0
LINE
  8
0
 10
151.591
 11
151.591
 20
40.306
 21
40.494
  0
LINE
  8
0
 10
151.591
 11
151.615
 20
40.494
 21
40.681
  0
LINE
  8
0
 10
151.615
 11
151.66
 20
40.681
 21
40.864
  0
LINE
  8
0
 10
151.66
 11
151.73
 20
40.864
 21
41.039
  0
LINE
  8
0
 10
151.73
 11
151.822
 20
41.039
 21
41.204
  0
LINE
  8
0
 10
151.822
 11
151.931
 20
41.204
 21
41.356
  0
LINE
  8
0
 10
151.931
 11
152.061
 20
41.356
 21
41.493
  0
LINE
  8
0
 10
152.061
 11
152.205
 20
41.493
 21
41.614
  0
LINE
  8
0
 10
152.205
 11
152.365
 20
41.614
 21
41.714
  0
LINE
  8
0
 10
152.365
 11
152.535
 20
41.714
 21
41.795
  0
LINE
  8
0
 10
152.535
 11
152.714
 20
41.795
 21
41.853
  0
LINE
  8
0
 10
152.714
 11
152.899
 20
41.853
 21
41.888
  0
LINE
  8
0
 10
152.899
 11
153.088
 20
41.888
 21
41.9
  0
LINE
  8
0
 10
153.088
 11
153.275
 20
41.9
 21
41.888
  0
LINE
  8
0
 10
153.275
 11
153.46
 20
41.888
 21
41.853
  0
LINE
  8
0
 10
153.46
 11
153.639
 20
41.853
 21
41.795
  0
LINE
  8
0
 10
153.639
 11
153.81
 20
41.795
 21
41.714
  0
LINE
  8
0
 10
153.81
 11
153.97
 20
41.714
 21
41.614
  0
LINE
  8
0
 10
153.97
 11
154.115
 20
41.614
 21
41.493
  0
LINE
  8
0
 10
154.115
 11
154.244
 20
41.493
 21
41.356
  0
LINE
  8
0
 10
154.244
 11
154.353
 20
41.356
 21
41.204
  0
LINE
  8
0
 10
154.353
 11
154.445
 20
41.204
 21
41.039
  0
LINE
  8
0
 10
154.445
 11
154.514
 20
41.039
 21
40.864
  0
LINE
  8
0
 10
154.514
 11
154.56
 20
40.864
 21
40.681
  0
LINE
  8
0
 10
154.56
 11
154.584
 20
40.681
 21
40.494
  0
LINE
  8
0
 10
154.584
 11
154.584
 20
40.494
 21
40.306
  0
LINE
  8
0
 10
154.584
 11
154.56
 20
40.306
 21
40.119
  0
LINE
  8
0
 10
154.56
 11
154.514
 20
40.119
 21
39.936
  0
LINE
  8
0
 10
154.514
 11
154.445
 20
39.936
 21
39.761
  0
LINE
  8
0
 10
154.445
 11
154.353
 20
39.761
 21
39.596
  0
LINE
  8
0
 10
154.353
 11
154.244
 20
39.596
 21
39.444
  0
LINE
  8
0
 10
154.244
 11
154.115
 20
39.444
 21
39.307
  0
LINE
  8
0
 10
154.115
 11
153.97
 20
39.307
 21
39.186
  0
LINE
  8
0
 10
153.97
 11
153.81
 20
39.186
 21
39.086
  0
LINE
  8
0
 10
153.81
 11
153.639
 20
39.086
 21
39.005
  0
LINE
  8
0
 10
153.639
 11
153.46
 20
39.005
 21
38.947
  0
LINE
  8
0
 10
153.46
 11
153.275
 20
38.947
 21
38.912
  0
LINE
  8
0
 10
153.275
 11
153.088
 20
38.912
 21
38.9
  0
LINE
  8
0
 10
153.088
 11
152.899
 20
38.9
 21
38.912
  0
LINE
  8
0
 10
152.899
 11
152.714
 20
38.912
 21
38.947
  0
LINE
  8
0
 10
152.714
 11
152.535
 20
38.947
 21
39.005
  0
LINE
  8
0
 10
152.535
 11
152.365
 20
39.005
 21
39.086
  0
LINE
  8
0
 10
152.365
 11
152.205
 20
39.086
 21
39.186
  0
LINE
  8
0
 10
152.205
 11
152.061
 20
39.186
 21
39.307
  0
LINE
  8
0
 10
152.061
 11
151.931
 20
39.307
 21
39.444
  0
LINE
  8
0
 10
151.931
 11
151.822
 20
39.444
 21
39.596
  0
LINE
  8
0
 10
151.822
 11
151.73
 20
39.596
 21
39.761
  0
LINE
  8
0
 10
151.73
 11
151.66
 20
39.761
 21
39.936
  0
LINE
  8
0
 10
151.66
 11
151.615
 20
39.936
 21
40.119
  0
LINE
  8
0
 10
151.615
 11
151.591
 20
40.119
 21
40.306
  0
LINE
  8
0
 10
151.675
 11
151.687
 20
103.975
 21
104.163
  0
LINE
  8
0
 10
151.687
 11
151.722
 20
104.163
 21
104.348
  0
LINE
  8
0
 10
151.722
 11
151.78
 20
104.348
 21
104.527
  0
LINE
  8
0
 10
151.78
 11
151.861
 20
104.527
 21
104.698
  0
LINE
  8
0
 10
151.861
 11
151.961
 20
104.698
 21
104.857
  0
LINE
  8
0
 10
151.961
 11
152.082
 20
104.857
 21
105.002
  0
LINE
  8
0
 10
152.082
 11
152.219
 20
105.002
 21
105.131
  0
LINE
  8
0
 10
152.219
 11
152.371
 20
105.131
 21
105.241
  0
LINE
  8
0
 10
152.371
 11
152.536
 20
105.241
 21
105.332
  0
LINE
  8
0
 10
152.536
 11
152.711
 20
105.332
 21
105.402
  0
LINE
  8
0
 10
152.711
 11
152.894
 20
105.402
 21
105.448
  0
LINE
  8
0
 10
152.894
 11
153.081
 20
105.448
 21
105.472
  0
LINE
  8
0
 10
153.081
 11
153.269
 20
105.472
 21
105.472
  0
LINE
  8
0
 10
153.269
 11
153.456
 20
105.472
 21
105.448
  0
LINE
  8
0
 10
153.456
 11
153.639
 20
105.448
 21
105.402
  0
LINE
  8
0
 10
153.639
 11
153.814
 20
105.402
 21
105.332
  0
LINE
  8
0
 10
153.814
 11
153.979
 20
105.332
 21
105.241
  0
LINE
  8
0
 10
153.979
 11
154.131
 20
105.241
 21
105.131
  0
LINE
  8
0
 10
154.131
 11
154.268
 20
105.131
 21
105.002
  0
LINE
  8
0
 10
154.268
 11
154.389
 20
105.002
 21
104.857
  0
LINE
  8
0
 10
154.389
 11
154.489
 20
104.857
 21
104.698
  0
LINE
  8
0
 10
154.489
 11
154.57
 20
104.698
 21
104.527
  0
LINE
  8
0
 10
154.57
 11
154.628
 20
104.527
 21
104.348
  0
LINE
  8
0
 10
154.628
 11
154.663
 20
104.348
 21
104.163
  0
LINE
  8
0
 10
154.663
 11
154.675
 20
104.163
 21
103.975
  0
LINE
  8
0
 10
154.675
 11
154.663
 20
103.975
 21
103.787
  0
LINE
  8
0
 10
154.663
 11
154.628
 20
103.787
 21
103.602
  0
LINE
  8
0
 10
154.628
 11
154.57
 20
103.602
 21
103.423
  0
LINE
  8
0
 10
154.57
 11
154.489
 20
103.423
 21
103.252
  0
LINE
  8
0
 10
154.489
 11
154.389
 20
103.252
 21
103.093
  0
LINE
  8
0
 10
154.389
 11
154.268
 20
103.093
 21
102.948
  0
LINE
  8
0
 10
154.268
 11
154.131
 20
102.948
 21
102.819
  0
LINE
  8
0
 10
154.131
 11
153.979
 20
102.819
 21
102.709
  0
LINE
  8
0
 10
153.979
 11
153.814
 20
102.709
 21
102.618
  0
LINE
  8
0
 10
153.814
 11
153.639
 20
102.618
 21
102.548
  0
LINE
  8
0
 10
153.639
 11
153.456
 20
102.548
 21
102.502
  0
LINE
  8
0
 10
153.456
 11
153.269
 20
102.502
 21
102.478
  0
LINE
  8
0
 10
153.269
 11
153.081
 20
102.478
 21
102.478
  0
LINE
  8
0
 10
153.081
 11
152.894
 20
102.478
 21
102.502
  0
LINE
  8
0
 10
152.894
 11
152.711
 20
102.502
 21
102.548
  0
LINE
  8
0
 10
152.711
 11
152.536
 20
102.548
 21
102.618
  0
LINE
  8
0
 10
152.536
 11
152.371
 20
102.618
 21
102.709
  0
LINE
  8
0
 10
152.371
 11
152.219
 20
102.709
 21
102.819
  0
LINE
  8
0
 10
152.219
 11
152.082
 20
102.819
 21
102.948
  0
LINE
  8
0
 10
152.082
 11
151.961
 20
102.948
 21
103.093
  0
LINE
  8
0
 10
151.961
 11
151.861
 20
103.093
 21
103.252
  0
LINE
  8
0
 10
151.861
 11
151.78
 20
103.252
 21
103.423
  0
LINE
  8
0
 10
151.78
 11
151.722
 20
103.423
 21
103.602
  0
LINE
  8
0
 10
151.722
 11
151.687
 20
103.602
 21
103.787
  0
LINE
  8
0
 10
151.687
 11
151.675
 20
103.787
 21
103.975
  0
LINE
  8
0
 10
152.5
 11
152.512
 20
210.98
 21
211.168
  0
LINE
  8
0
 10
152.512
 11
152.547
 20
211.168
 21
211.353
  0
LINE
  8
0
 10
152.547
 11
152.605
 20
211.353
 21
211.532
  0
LINE
  8
0
 10
152.605
 11
152.686
 20
211.532
 21
211.703
  0
LINE
  8
0
 10
152.686
 11
152.786
 20
211.703
 21
211.862
  0
LINE
  8
0
 10
152.786
 11
152.907
 20
211.862
 21
212.007
  0
LINE
  8
0
 10
152.907
 11
153.044
 20
212.007
 21
212.136
  0
LINE
  8
0
 10
153.044
 11
153.196
 20
212.136
 21
212.246
  0
LINE
  8
0
 10
153.196
 11
153.361
 20
212.246
 21
212.337
  0
LINE
  8
0
 10
153.361
 11
153.536
 20
212.337
 21
212.407
  0
LINE
  8
0
 10
153.536
 11
153.719
 20
212.407
 21
212.453
  0
LINE
  8
0
 10
153.719
 11
153.906
 20
212.453
 21
212.477
  0
LINE
  8
0
 10
153.906
 11
154.094
 20
212.477
 21
212.477
  0
LINE
  8
0
 10
154.094
 11
154.281
 20
212.477
 21
212.453
  0
LINE
  8
0
 10
154.281
 11
154.464
 20
212.453
 21
212.407
  0
LINE
  8
0
 10
154.464
 11
154.639
 20
212.407
 21
212.337
  0
LINE
  8
0
 10
154.639
 11
154.804
 20
212.337
 21
212.246
  0
LINE
  8
0
 10
154.804
 11
154.956
 20
212.246
 21
212.136
  0
LINE
  8
0
 10
154.956
 11
155.093
 20
212.136
 21
212.007
  0
LINE
  8
0
 10
155.093
 11
155.214
 20
212.007
 21
211.862
  0
LINE
  8
0
 10
155.214
 11
155.314
 20
211.862
 21
211.703
  0
LINE
  8
0
 10
155.314
 11
155.395
 20
211.703
 21
211.532
  0
LINE
  8
0
 10
155.395
 11
155.453
 20
211.532
 21
211.353
  0
LINE
  8
0
 10
155.453
 11
155.488
 20
211.353
 21
211.168
  0
LINE
  8
0
 10
155.488
 11
155.5
 20
211.168
 21
210.98
  0
LINE
  8
0
 10
155.5
 11
155.488
 20
210.98
 21
210.792
  0
LINE
  8
0
 10
155.488
 11
155.453
 20
210.792
 21
210.607
  0
LINE
  8
0
 10
155.453
 11
155.395
 20
210.607
 21
210.428
  0
LINE
  8
0
 10
155.395
 11
155.314
 20
210.428
 21
210.257
  0
LINE
  8
0
 10
155.314
 11
155.214
 20
210.257
 21
210.098
  0
LINE
  8
0
 10
155.214
 11
155.093
 20
210.098
 21
209.953
  0
LINE
  8
0
 10
155.093
 11
154.956
 20
209.953
 21
209.824
  0
LINE
  8
0
 10
154.956
 11
154.804
 20
209.824
 21
209.714
  0
LINE
  8
0
 10
154.804
 11
154.639
 20
209.714
 21
209.623
  0
LINE
  8
0
 10
154.639
 11
154.464
 20
209.623
 21
209.553
  0
LINE
  8
0
 10
154.464
 11
154.281
 20
209.553
 21
209.507
  0
LINE
  8
0
 10
154.281
 11
154.094
 20
209.507
 21
209.483
  0
LINE
  8
0
 10
154.094
 11
153.906
 20
209.483
 21
209.483
  0
LINE
  8
0
 10
153.906
 11
153.719
 20
209.483
 21
209.507
  0
LINE
  8
0
 10
153.719
 11
153.536
 20
209.507
 21
209.553
  0
LINE
  8
0
 10
153.536
 11
153.361
 20
209.553
 21
209.623
  0
LINE
  8
0
 10
153.361
 11
153.196
 20
209.623
 21
209.714
  0
LINE
  8
0
 10
153.196
 11
153.044
 20
209.714
 21
209.824
  0
LINE
  8
0
 10
153.044
 11
152.907
 20
209.824
 21
209.953
  0
LINE
  8
0
 10
152.907
 11
152.786
 20
209.953
 21
210.098
  0
LINE
  8
0
 10
152.786
 11
152.686
 20
210.098
 21
210.257
  0
LINE
  8
0
 10
152.686
 11
152.605
 20
210.257
 21
210.428
  0
LINE
  8
0
 10
152.605
 11
152.547
 20
210.428
 21
210.607
  0
LINE
  8
0
 10
152.547
 11
152.512
 20
210.607
 21
210.792
  0
LINE
  8
0
 10
152.512
 11
152.5
 20
210.792
 21
210.98
  0
LINE
  8
0
 10
152.5
 11
152.512
 20
230.98
 21
231.168
  0
LINE
  8
0
 10
152.512
 11
152.547
 20
231.168
 21
231.353
  0
LINE
  8
0
 10
152.547
 11
152.605
 20
231.353
 21
231.532
  0
LINE
  8
0
 10
152.605
 11
152.686
 20
231.532
 21
231.703
  0
LINE
  8
0
 10
152.686
 11
152.786
 20
231.703
 21
231.862
  0
LINE
  8
0
 10
152.786
 11
152.907
 20
231.862
 21
232.007
  0
LINE
  8
0
 10
152.907
 11
153.044
 20
232.007
 21
232.136
  0
LINE
  8
0
 10
153.044
 11
153.196
 20
232.136
 21
232.246
  0
LINE
  8
0
 10
153.196
 11
153.361
 20
232.246
 21
232.337
  0
LINE
  8
0
 10
153.361
 11
153.536
 20
232.337
 21
232.407
  0
LINE
  8
0
 10
153.536
 11
153.719
 20
232.407
 21
232.453
  0
LINE
  8
0
 10
153.719
 11
153.906
 20
232.453
 21
232.477
  0
LINE
  8
0
 10
153.906
 11
154.094
 20
232.477
 21
232.477
  0
LINE
  8
0
 10
154.094
 11
154.281
 20
232.477
 21
232.453
  0
LINE
  8
0
 10
154.281
 11
154.464
 20
232.453
 21
232.407
  0
LINE
  8
0
 10
154.464
 11
154.639
 20
232.407
 21
232.337
  0
LINE
  8
0
 10
154.639
 11
154.804
 20
232.337
 21
232.246
  0
LINE
  8
0
 10
154.804
 11
154.956
 20
232.246
 21
232.136
  0
LINE
  8
0
 10
154.956
 11
155.093
 20
232.136
 21
232.007
  0
LINE
  8
0
 10
155.093
 11
155.214
 20
232.007
 21
231.862
  0
LINE
  8
0
 10
155.214
 11
155.314
 20
231.862
 21
231.703
  0
LINE
  8
0
 10
155.314
 11
155.395
 20
231.703
 21
231.532
  0
LINE
  8
0
 10
155.395
 11
155.453
 20
231.532
 21
231.353
  0
LINE
  8
0
 10
155.453
 11
155.488
 20
231.353
 21
231.168
  0
LINE
  8
0
 10
155.488
 11
155.5
 20
231.168
 21
230.98
  0
LINE
  8
0
 10
155.5
 11
155.488
 20
230.98
 21
230.792
  0
LINE
  8
0
 10
155.488
 11
155.453
 20
230.792
 21
230.607
  0
LINE
  8
0
 10
155.453
 11
155.395
 20
230.607
 21
230.428
  0
LINE
  8
0
 10
155.395
 11
155.314
 20
230.428
 21
230.257
  0
LINE
  8
0
 10
155.314
 11
155.214
 20
230.257
 21
230.098
  0
LINE
  8
0
 10
155.214
 11
155.093
 20
230.098
 21
229.953
  0
LINE
  8
0
 10
155.093
 11
154.956
 20
229.953
 21
229.824
  0
LINE
  8
0
 10
154.956
 11
154.804
 20
229.824
 21
229.714
  0
LINE
  8
0
 10
154.804
 11
154.639
 20
229.714
 21
229.623
  0
LINE
  8
0
 10
154.639
 11
154.464
 20
229.623
 21
229.553
  0
LINE
  8
0
 10
154.464
 11
154.281
 20
229.553
 21
229.507
  0
LINE
  8
0
 10
154.281
 11
154.094
 20
229.507
 21
229.483
  0
LINE
  8
0
 10
154.094
 11
153.906
 20
229.483
 21
229.483
  0
LINE
  8
0
 10
153.906
 11
153.719
 20
229.483
 21
229.507
  0
LINE
  8
0
 10
153.719
 11
153.536
 20
229.507
 21
229.553
  0
LINE
  8
0
 10
153.536
 11
153.361
 20
229.553
 21
229.623
  0
LINE
  8
0
 10
153.361
 11
153.196
 20
229.623
 21
229.714
  0
LINE
  8
0
 10
153.196
 11
153.044
 20
229.714
 21
229.824
  0
LINE
  8
0
 10
153.044
 11
152.907
 20
229.824
 21
229.953
  0
LINE
  8
0
 10
152.907
 11
152.786
 20
229.953
 21
230.098
  0
LINE
  8
0
 10
152.786
 11
152.686
 20
230.098
 21
230.257
  0
LINE
  8
0
 10
152.686
 11
152.605
 20
230.257
 21
230.428
  0
LINE
  8
0
 10
152.605
 11
152.547
 20
230.428
 21
230.607
  0
LINE
  8
0
 10
152.547
 11
152.512
 20
230.607
 21
230.792
  0
LINE
  8
0
 10
152.512
 11
152.5
 20
230.792
 21
230.98
  0
LINE
  8
0
 10
158.075
 11
158.075
 20
0
 21
141.375
  0
LINE
  8
0
 10
158.075
 11
225.425
 20
141.375
 21
141.375
  0
LINE
  8
0
 10
225.425
 11
225.425
 20
141.375
 21
14
  0
LINE
  8
0
 10
225.425
 11
235.425
 20
14
 21
14
  0
LINE
  8
0
 10
235.425
 11
235.425
 20
14
 21
0
  0
LINE
  8
0
 10
235.425
 11
215.425
 20
0
 21
0
  0
LINE
  8
0
 10
215.425
 11
215.425
 20
0
 21
3.175
  0
LINE
  8
0
 10
215.425
 11
213.925
 20
3.175
 21
3.175
  0
LINE
  8
0
 10
213.925
 11
213.925
 20
3.175
 21
8.175
  0
LINE
  8
0
 10
213.925
 11
215.375
 20
8.175
 21
8.175
  0
LINE
  8
0
 10
215.375
 11
215.375
 20
8.175
 21
11.175
  0
LINE
  8
0
 10
215.375
 11
213.925
 20
11.175
 21
11.175
  0
LINE
  8
0
 10
213.925
 11
213.925
 20
11.175
 21
13.175
  0
LINE
  8
0
 10
213.925
 11
210.925
 20
13.175
 21
13.175
  0
LINE
  8
0
 10
210.925
 11
210.925
 20
13.175
 21
11.175
  0
LINE
  8
0
 10
210.925
 11
209.475
 20
11.175
 21
11.175
  0
LINE
  8
0
 10
209.475
 11
209.475
 20
11.175
 21
8.175
  0
LINE
  8
0
 10
209.475
 11
210.925
 20
8.175
 21
8.175
  0
LINE
  8
0
 10
210.925
 11
210.925
 20
8.175
 21
3.175
  0
LINE
  8
0
 10
210.925
 11
172.575
 20
3.175
 21
3.175
  0
LINE
  8
0
 10
172.575
 11
172.575
 20
3.175
 21
8.175
  0
LINE
  8
0
 10
172.575
 11
174.025
 20
8.175
 21
8.175
  0
LINE
  8
0
 10
174.025
 11
174.025
 20
8.175
 21
11.175
  0
LINE
  8
0
 10
174.025
 11
172.575
 20
11.175
 21
11.175
  0
LINE
  8
0
 10
172.575
 11
172.575
 20
11.175
 21
13.175
  0
LINE
  8
0
 10
172.575
 11
169.575
 20
13.175
 21
13.175
  0
LINE
  8
0
 10
169.575
 11
169.575
 20
13.175
 21
11.175
  0
LINE
  8
0
 10
169.575
 11
168.125
 20
11.175
 21
11.175
  0
LINE
  8
0
 10
168.125
 11
168.125
 20
11.175
 21
8.175
  0
LINE
  8
0
 10
168.125
 11
169.575
 20
8.175
 21
8.175
  0
LINE
  8
0
 10
169.575
 11
169.575
 20
8.175
 21
3.175
  0
LINE
  8
0
 10
169.575
 11
168.075
 20
3.175
 21
3.175
  0
LINE
  8
0
 10
168.075
 11
168.075
 20
3.175
 21
0
  0
LINE
  8
0
 10
168.075
 11
158.075
 20
0
 21
0
  0
LINE
  8
0
 10
161.075
 11
161.075
 20
87.025
 21
97.025
  0
LINE
  8
0
 10
161.075
 11
164.25
 20
97.025
 21
97.025
  0
LINE
  8
0
 10
164.25
 11
164.25
 20
97.025
 21
87.025
  0
LINE
  8
0
 10
164.25
 11
161.075
 20
87.025
 21
87.025
  0
LINE
  8
0
 10
161.163
 11
161.175
 20
107.025
 21
107.213
  0
LINE
  8
0
 10
161.175
 11
161.21
 20
107.213
 21
107.398
  0
LINE
  8
0
 10
161.21
 11
161.268
 20
107.398
 21
107.577
  0
LINE
  8
0
 10
161.268
 11
161.349
 20
107.577
 21
107.748
  0
LINE
  8
0
 10
161.349
 11
161.449
 20
107.748
 21
107.907
  0
LINE
  8
0
 10
161.449
 11
161.57
 20
107.907
 21
108.052
  0
LINE
  8
0
 10
161.57
 11
161.707
 20
108.052
 21
108.181
  0
LINE
  8
0
 10
161.707
 11
161.858
 20
108.181
 21
108.291
  0
LINE
  8
0
 10
161.858
 11
162.023
 20
108.291
 21
108.382
  0
LINE
  8
0
 10
162.023
 11
162.199
 20
108.382
 21
108.452
  0
LINE
  8
0
 10
162.199
 11
162.382
 20
108.452
 21
108.498
  0
LINE
  8
0
 10
162.382
 11
162.569
 20
108.498
 21
108.522
  0
LINE
  8
0
 10
162.569
 11
162.757
 20
108.522
 21
108.522
  0
LINE
  8
0
 10
162.757
 11
162.944
 20
108.522
 21
108.498
  0
LINE
  8
0
 10
162.944
 11
163.127
 20
108.498
 21
108.452
  0
LINE
  8
0
 10
163.127
 11
163.302
 20
108.452
 21
108.382
  0
LINE
  8
0
 10
163.302
 11
163.467
 20
108.382
 21
108.291
  0
LINE
  8
0
 10
163.467
 11
163.619
 20
108.291
 21
108.181
  0
LINE
  8
0
 10
163.619
 11
163.755
 20
108.181
 21
108.052
  0
LINE
  8
0
 10
163.755
 11
163.877
 20
108.052
 21
107.907
  0
LINE
  8
0
 10
163.877
 11
163.976
 20
107.907
 21
107.748
  0
LINE
  8
0
 10
163.976
 11
164.058
 20
107.748
 21
107.577
  0
LINE
  8
0
 10
164.058
 11
164.116
 20
107.577
 21
107.398
  0
LINE
  8
0
 10
164.116
 11
164.151
 20
107.398
 21
107.213
  0
LINE
  8
0
 10
164.151
 11
164.162
 20
107.213
 21
107.025
  0
LINE
  8
0
 10
164.162
 11
164.151
 20
107.025
 21
106.837
  0
LINE
  8
0
 10
164.151
 11
164.116
 20
106.837
 21
106.652
  0
LINE
  8
0
 10
164.116
 11
164.058
 20
106.652
 21
106.473
  0
LINE
  8
0
 10
164.058
 11
163.976
 20
106.473
 21
106.302
  0
LINE
  8
0
 10
163.976
 11
163.877
 20
106.302
 21
106.143
  0
LINE
  8
0
 10
163.877
 11
163.755
 20
106.143
 21
105.998
  0
LINE
  8
0
 10
163.755
 11
163.619
 20
105.998
 21
105.869
  0
LINE
  8
0
 10
163.619
 11
163.467
 20
105.869
 21
105.759
  0
LINE
  8
0
 10
163.467
 11
163.302
 20
105.759
 21
105.668
  0
LINE
  8
0
 10
163.302
 11
163.127
 20
105.668
 21
105.598
  0
LINE
  8
0
 10
163.127
 11
162.944
 20
105.598
 21
105.552
  0
LINE
  8
0
 10
162.944
 11
162.757
 20
105.552
 21
105.528
  0
LINE
  8
0
 10
162.757
 11
162.569
 20
105.528
 21
105.528
  0
LINE
  8
0
 10
162.569
 11
162.382
 20
105.528
 21
105.552
  0
LINE
  8
0
 10
162.382
 11
162.199
 20
105.552
 21
105.598
  0
LINE
  8
0
 10
162.199
 11
162.023
 20
105.598
 21
105.668
  0
LINE
  8
0
 10
162.023
 11
161.858
 20
105.668
 21
105.759
  0
LINE
  8
0
 10
161.858
 11
161.707
 20
105.759
 21
105.869
  0
LINE
  8
0
 10
161.707
 11
161.57
 20
105.869
 21
105.998
  0
LINE
  8
0
 10
161.57
 11
161.449
 20
105.998
 21
106.143
  0
LINE
  8
0
 10
161.449
 11
161.349
 20
106.143
 21
106.302
  0
LINE
  8
0
 10
161.349
 11
161.268
 20
106.302
 21
106.473
  0
LINE
  8
0
 10
161.268
 11
161.21
 20
106.473
 21
106.652
  0
LINE
  8
0
 10
161.21
 11
161.175
 20
106.652
 21
106.837
  0
LINE
  8
0
 10
161.175
 11
161.163
 20
106.837
 21
107.025
  0
LINE
  8
0
 10
172.5
 11
172.512
 20
210.98
 21
211.168
  0
LINE
  8
0
 10
172.512
 11
172.547
 20
211.168
 21
211.353
  0
LINE
  8
0
 10
172.547
 11
172.605
 20
211.353
 21
211.532
  0
LINE
  8
0
 10
172.605
 11
172.686
 20
211.532
 21
211.703
  0
LINE
  8
0
 10
172.686
 11
172.786
 20
211.703
 21
211.862
  0
LINE
  8
0
 10
172.786
 11
172.907
 20
211.862
 21
212.007
  0
LINE
  8
0
 10
172.907
 11
173.044
 20
212.007
 21
212.136
  0
LINE
  8
0
 10
173.044
 11
173.196
 20
212.136
 21
212.246
  0
LINE
  8
0
 10
173.196
 11
173.361
 20
212.246
 21
212.337
  0
LINE
  8
0
 10
173.361
 11
173.536
 20
212.337
 21
212.407
  0
LINE
  8
0
 10
173.536
 11
173.719
 20
212.407
 21
212.453
  0
LINE
  8
0
 10
173.719
 11
173.906
 20
212.453
 21
212.477
  0
LINE
  8
0
 10
173.906
 11
174.094
 20
212.477
 21
212.477
  0
LINE
  8
0
 10
174.094
 11
174.281
 20
212.477
 21
212.453
  0
LINE
  8
0
 10
174.281
 11
174.464
 20
212.453
 21
212.407
  0
LINE
  8
0
 10
174.464
 11
174.639
 20
212.407
 21
212.337
  0
LINE
  8
0
 10
174.639
 11
174.804
 20
212.337
 21
212.246
  0
LINE
  8
0
 10
174.804
 11
174.956
 20
212.246
 21
212.136
  0
LINE
  8
0
 10
174.956
 11
175.093
 20
212.136
 21
212.007
  0
LINE
  8
0
 10
175.093
 11
175.214
 20
212.007
 21
211.862
  0
LINE
  8
0
 10
175.214
 11
175.314
 20
211.862
 21
211.703
  0
LINE
  8
0
 10
175.314
 11
175.395
 20
211.703
 21
211.532
  0
LINE
  8
0
 10
175.395
 11
175.453
 20
211.532
 21
211.353
  0
LINE
  8
0
 10
175.453
 11
175.488
 20
211.353
 21
211.168
  0
LINE
  8
0
 10
175.488
 11
175.5
 20
211.168
 21
210.98
  0
LINE
  8
0
 10
175.5
 11
175.488
 20
210.98
 21
210.792
  0
LINE
  8
0
 10
175.488
 11
175.453
 20
210.792
 21
210.607
  0
LINE
  8
0
 10
175.453
 11
175.395
 20
210.607
 21
210.428
  0
LINE
  8
0
 10
175.395
 11
175.314
 20
210.428
 21
210.257
  0
LINE
  8
0
 10
175.314
 11
175.214
 20
210.257
 21
210.098
  0
LINE
  8
0
 10
175.214
 11
175.093
 20
210.098
 21
209.953
  0
LINE
  8
0
 10
175.093
 11
174.956
 20
209.953
 21
209.824
  0
LINE
  8
0
 10
174.956
 11
174.804
 20
209.824
 21
209.714
  0
LINE
  8
0
 10
174.804
 11
174.639
 20
209.714
 21
209.623
  0
LINE
  8
0
 10
174.639
 11
174.464
 20
209.623
 21
209.553
  0
LINE
  8
0
 10
174.464
 11
174.281
 20
209.553
 21
209.507
  0
LINE
  8
0
 10
174.281
 11
174.094
 20
209.507
 21
209.483
  0
LINE
  8
0
 10
174.094
 11
173.906
 20
209.483
 21
209.483
  0
LINE
  8
0
 10
173.906
 11
173.719
 20
209.483
 21
209.507
  0
LINE
  8
0
 10
173.719
 11
173.536
 20
209.507
 21
209.553
  0
LINE
  8
0
 10
173.536
 11
173.361
 20
209.553
 21
209.623
  0
LINE
  8
0
 10
173.361
 11
173.196
 20
209.623
 21
209.714
  0
LINE
  8
0
 10
173.196
 11
173.044
 20
209.714
 21
209.824
  0
LINE
  8
0
 10
173.044
 11
172.907
 20
209.824
 21
209.953
  0
LINE
  8
0
 10
172.907
 11
172.786
 20
209.953
 21
210.098
  0
LINE
  8
0
 10
172.786
 11
172.686
 20
210.098
 21
210.257
  0
LINE
  8
0
 10
172.686
 11
172.605
 20
210.257
 21
210.428
  0
LINE
  8
0
 10
172.605
 11
172.547
 20
210.428
 21
210.607
  0
LINE
  8
0
 10
172.547
 11
172.512
 20
210.607
 21
210.792
  0
LINE
  8
0
 10
172.512
 11
172.5
 20
210.792
 21
210.98
  0
LINE
  8
0
 10
172.5
 11
172.512
 20
230.98
 21
231.168
  0
LINE
  8
0
 10
172.512
 11
172.547
 20
231.168
 21
231.353
  0
LINE
  8
0
 10
172.547
 11
172.605
 20
231.353
 21
231.532
  0
LINE
  8
0
 10
172.605
 11
172.686
 20
231.532
 21
231.703
  0
LINE
  8
0
 10
172.686
 11
172.786
 20
231.703
 21
231.862
  0
LINE
  8
0
 10
172.786
 11
172.907
 20
231.862
 21
232.007
  0
LINE
  8
0
 10
172.907
 11
173.044
 20
232.007
 21
232.136
  0
LINE
  8
0
 10
173.044
 11
173.196
 20
232.136
 21
232.246
  0
LINE
  8
0
 10
173.196
 11
173.361
 20
232.246
 21
232.337
  0
LINE
  8
0
 10
173.361
 11
173.536
 20
232.337
 21
232.407
  0
LINE
  8
0
 10
173.536
 11
173.719
 20
232.407
 21
232.453
  0
LINE
  8
0
 10
173.719
 11
173.906
 20
232.453
 21
232.477
  0
LINE
  8
0
 10
173.906
 11
174.094
 20
232.477
 21
232.477
  0
LINE
  8
0
 10
174.094
 11
174.281
 20
232.477
 21
232.453
  0
LINE
  8
0
 10
174.281
 11
174.464
 20
232.453
 21
232.407
  0
LINE
  8
0
 10
174.464
 11
174.639
 20
232.407
 21
232.337
  0
LINE
  8
0
 10
174.639
 11
174.804
 20
232.337
 21
232.246
  0
LINE
  8
0
 10
174.804
 11
174.956
 20
232.246
 21
232.136
  0
LINE
  8
0
 10
174.956
 11
175.093
 20
232.136
 21
232.007
  0
LINE
  8
0
 10
175.093
 11
175.214
 20
232.007
 21
231.862
  0
LINE
  8
0
 10
175.214
 11
175.314
 20
231.862
 21
231.703
  0
LINE
  8
0
 10
175.314
 11
175.395
 20
231.703
 21
231.532
  0
LINE
  8
0
 10
175.395
 11
175.453
 20
231.532
 21
231.353
  0
LINE
  8
0
 10
175.453
 11
175.488
 20
231.353
 21
231.168
  0
LINE
  8
0
 10
175.488
 11
175.5
 20
231.168
 21
230.98
  0
LINE
  8
0
 10
175.5
 11
175.488
 20
230.98
 21
230.792
  0
LINE
  8
0
 10
175.488
 11
175.453
 20
230.792
 21
230.607
  0
LINE
  8
0
 10
175.453
 11
175.395
 20
230.607
 21
230.428
  0
LINE
  8
0
 10
175.395
 11
175.314
 20
230.428
 21
230.257
  0
LINE
  8
0
 10
175.314
 11
175.214
 20
230.257
 21
230.098
  0
LINE
  8
0
 10
175.214
 11
175.093
 20
230.098
 21
229.953
  0
LINE
  8
0
 10
175.093
 11
174.956
 20
229.953
 21
229.824
  0
LINE
  8
0
 10
174.956
 11
174.804
 20
229.824
 21
229.714
  0
LINE
  8
0
 10
174.804
 11
174.639
 20
229.714
 21
229.623
  0
LINE
  8
0
 10
174.639
 11
174.464
 20
229.623
 21
229.553
  0
LINE
  8
0
 10
174.464
 11
174.281
 20
229.553
 21
229.507
  0
LINE
  8
0
 10
174.281
 11
174.094
 20
229.507
 21
229.483
  0
LINE
  8
0
 10
174.094
 11
173.906
 20
229.483
 21
229.483
  0
LINE
  8
0
 10
173.906
 11
173.719
 20
229.483
 21
229.507
  0
LINE
  8
0
 10
173.719
 11
173.536
 20
229.507
 21
229.553
  0
LINE
  8
0
 10
173.536
 11
173.361
 20
229.553
 21
229.623
  0
LINE
  8
0
 10
173.361
 11
173.196
 20
229.623
 21
229.714
  0
LINE
  8
0
 10
173.196
 11
173.044
 20
229.714
 21
229.824
  0
LINE
  8
0
 10
173.044
 11
172.907
 20
229.824
 21
229.953
  0
LINE
  8
0
 10
172.907
 11
172.786
 20
229.953
 21
230.098
  0
LINE
  8
0
 10
172.786
 11
172.686
 20
230.098
 21
230.257
  0
LINE
  8
0
 10
172.686
 11
172.605
 20
230.257
 21
230.428
  0
LINE
  8
0
 10
172.605
 11
172.547
 20
230.428
 21
230.607
  0
LINE
  8
0
 10
172.547
 11
172.512
 20
230.607
 21
230.792
  0
LINE
  8
0
 10
172.512
 11
172.5
 20
230.792
 21
230.98
  0
LINE
  8
0
 10
174.637
 11
174.637
 20
111.225
 21
122.225
  0
LINE
  8
0
 10
174.637
 11
186.637
 20
122.225
 21
122.225
  0
LINE
  8
0
 10
186.637
 11
186.637
 20
122.225
 21
111.225
  0
LINE
  8
0
 10
186.637
 11
174.637
 20
111.225
 21
111.225
  0
LINE
  8
0
 10
177.25
 11
177.258
 20
17.175
 21
17.3
  0
LINE
  8
0
 10
177.258
 11
177.281
 20
17.3
 21
17.424
  0
LINE
  8
0
 10
177.281
 11
177.32
 20
17.424
 21
17.543
  0
LINE
  8
0
 10
177.32
 11
177.374
 20
17.543
 21
17.657
  0
LINE
  8
0
 10
177.374
 11
177.441
 20
17.657
 21
17.763
  0
LINE
  8
0
 10
177.441
 11
177.521
 20
17.763
 21
17.86
  0
LINE
  8
0
 10
177.521
 11
177.613
 20
17.86
 21
17.946
  0
LINE
  8
0
 10
177.613
 11
177.714
 20
17.946
 21
18.019
  0
LINE
  8
0
 10
177.714
 11
177.824
 20
18.019
 21
18.08
  0
LINE
  8
0
 10
177.824
 11
177.941
 20
18.08
 21
18.126
  0
LINE
  8
0
 10
177.941
 11
178.063
 20
18.126
 21
18.157
  0
LINE
  8
0
 10
178.063
 11
178.187
 20
18.157
 21
18.173
  0
LINE
  8
0
 10
178.187
 11
178.313
 20
18.173
 21
18.173
  0
LINE
  8
0
 10
178.313
 11
178.437
 20
18.173
 21
18.157
  0
LINE
  8
0
 10
178.437
 11
178.559
 20
18.157
 21
18.126
  0
LINE
  8
0
 10
178.559
 11
178.676
 20
18.126
 21
18.08
  0
LINE
  8
0
 10
178.676
 11
178.786
 20
18.08
 21
18.019
  0
LINE
  8
0
 10
178.786
 11
178.887
 20
18.019
 21
17.946
  0
LINE
  8
0
 10
178.887
 11
178.979
 20
17.946
 21
17.86
  0
LINE
  8
0
 10
178.979
 11
179.059
 20
17.86
 21
17.763
  0
LINE
  8
0
 10
179.059
 11
179.126
 20
17.763
 21
17.657
  0
LINE
  8
0
 10
179.126
 11
179.18
 20
17.657
 21
17.543
  0
LINE
  8
0
 10
179.18
 11
179.219
 20
17.543
 21
17.424
  0
LINE
  8
0
 10
179.219
 11
179.242
 20
17.424
 21
17.3
  0
LINE
  8
0
 10
179.242
 11
179.25
 20
17.3
 21
17.175
  0
LINE
  8
0
 10
179.25
 11
179.242
 20
17.175
 21
17.05
  0
LINE
  8
0
 10
179.242
 11
179.219
 20
17.05
 21
16.926
  0
LINE
  8
0
 10
179.219
 11
179.18
 20
16.926
 21
16.807
  0
LINE
  8
0
 10
179.18
 11
179.126
 20
16.807
 21
16.693
  0
LINE
  8
0
 10
179.126
 11
179.059
 20
16.693
 21
16.587
  0
LINE
  8
0
 10
179.059
 11
178.979
 20
16.587
 21
16.49
  0
LINE
  8
0
 10
178.979
 11
178.887
 20
16.49
 21
16.404
  0
LINE
  8
0
 10
178.887
 11
178.786
 20
16.404
 21
16.331
  0
LINE
  8
0
 10
178.786
 11
178.676
 20
16.331
 21
16.27
  0
LINE
  8
0
 10
178.676
 11
178.559
 20
16.27
 21
16.224
  0
LINE
  8
0
 10
178.559
 11
178.437
 20
16.224
 21
16.193
  0
LINE
  8
0
 10
178.437
 11
178.313
 20
16.193
 21
16.177
  0
LINE
  8
0
 10
178.313
 11
178.187
 20
16.177
 21
16.177
  0
LINE
  8
0
 10
178.187
 11
178.063
 20
16.177
 21
16.193
  0
LINE
  8
0
 10
178.063
 11
177.941
 20
16.193
 21
16.224
  0
LINE
  8
0
 10
177.941
 11
177.824
 20
16.224
 21
16.27
  0
LINE
  8
0
 10
177.824
 11
177.714
 20
16.27
 21
16.331
  0
LINE
  8
0
 10
177.714
 11
177.613
 20
16.331
 21
16.404
  0
LINE
  8
0
 10
177.613
 11
177.521
 20
16.404
 21
16.49
  0
LINE
  8
0
 10
177.521
 11
177.441
 20
16.49
 21
16.587
  0
LINE
  8
0
 10
177.441
 11
177.374
 20
16.587
 21
16.693
  0
LINE
  8
0
 10
177.374
 11
177.32
 20
16.693
 21
16.807
  0
LINE
  8
0
 10
177.32
 11
177.281
 20
16.807
 21
16.926
  0
LINE
  8
0
 10
177.281
 11
177.258
 20
16.926
 21
17.05
  0
LINE
  8
0
 10
177.258
 11
177.25
 20
17.05
 21
17.175
  0
LINE
  8
0
 10
180.75
 11
180.837
 20
17.175
 21
18.554
  0
LINE
  8
0
 10
180.837
 11
181.096
 20
18.554
 21
19.911
  0
LINE
  8
0
 10
181.096
 11
181.522
 20
19.911
 21
21.224
  0
LINE
  8
0
 10
181.522
 11
182.111
 20
21.224
 21
22.474
  0
LINE
  8
0
 10
182.111
 11
182.851
 20
22.474
 21
23.641
  0
LINE
  8
0
 10
182.851
 11
183.731
 20
23.641
 21
24.705
  0
LINE
  8
0
 10
183.731
 11
184.738
 20
24.705
 21
25.651
  0
LINE
  8
0
 10
184.738
 11
185.856
 20
25.651
 21
26.463
  0
LINE
  8
0
 10
185.856
 11
187.066
 20
26.463
 21
27.128
  0
LINE
  8
0
 10
187.066
 11
188.351
 20
27.128
 21
27.637
  0
LINE
  8
0
 10
188.351
 11
189.689
 20
27.637
 21
27.98
  0
LINE
  8
0
 10
189.689
 11
191.059
 20
27.98
 21
28.153
  0
LINE
  8
0
 10
191.059
 11
192.441
 20
28.153
 21
28.153
  0
LINE
  8
0
 10
192.441
 11
193.811
 20
28.153
 21
27.98
  0
LINE
  8
0
 10
193.811
 11
195.149
 20
27.98
 21
27.637
  0
LINE
  8
0
 10
195.149
 11
196.434
 20
27.637
 21
27.128
  0
LINE
  8
0
 10
196.434
 11
197.644
 20
27.128
 21
26.463
  0
LINE
  8
0
 10
197.644
 11
198.762
 20
26.463
 21
25.651
  0
LINE
  8
0
 10
198.762
 11
199.769
 20
25.651
 21
24.705
  0
LINE
  8
0
 10
199.769
 11
200.649
 20
24.705
 21
23.641
  0
LINE
  8
0
 10
200.649
 11
201.389
 20
23.641
 21
22.474
  0
LINE
  8
0
 10
201.389
 11
201.978
 20
22.474
 21
21.224
  0
LINE
  8
0
 10
201.978
 11
202.404
 20
21.224
 21
19.911
  0
LINE
  8
0
 10
202.404
 11
202.663
 20
19.911
 21
18.554
  0
LINE
  8
0
 10
202.663
 11
202.75
 20
18.554
 21
17.175
  0
LINE
  8
0
 10
202.75
 11
202.663
 20
17.175
 21
15.796
  0
LINE
  8
0
 10
202.663
 11
202.404
 20
15.796
 21
14.439
  0
LINE
  8
0
 10
202.404
 11
201.978
 20
14.439
 21
13.126
  0
LINE
  8
0
 10
201.978
 11
201.389
 20
13.126
 21
11.876
  0
LINE
  8
0
 10
201.389
 11
200.649
 20
11.876
 21
10.709
  0
LINE
  8
0
 10
200.649
 11
199.769
 20
10.709
 21
9.645
  0
LINE
  8
0
 10
199.769
 11
198.762
 20
9.645
 21
8.699
  0
LINE
  8
0
 10
198.762
 11
197.644
 20
8.699
 21
7.887
  0
LINE
  8
0
 10
197.644
 11
196.434
 20
7.887
 21
7.222
  0
LINE
  8
0
 10
196.434
 11
195.149
 20
7.222
 21
6.713
  0
LINE
  8
0
 10
195.149
 11
193.811
 20
6.713
 21
6.37
  0
LINE
  8
0
 10
193.811
 11
192.441
 20
6.37
 21
6.197
  0
LINE
  8
0
 10
192.441
 11
191.059
 20
6.197
 21
6.197
  0
LINE
  8
0
 10
191.059
 11
189.689
 20
6.197
 21
6.37
  0
LINE
  8
0
 10
189.689
 11
188.351
 20
6.37
 21
6.713
  0
LINE
  8
0
 10
188.351
 11
187.066
 20
6.713
 21
7.222
  0
LINE
  8
0
 10
187.066
 11
185.856
 20
7.222
 21
7.887
  0
LINE
  8
0
 10
185.856
 11
184.738
 20
7.887
 21
8.699
  0
LINE
  8
0
 10
184.738
 11
183.731
 20
8.699
 21
9.645
  0
LINE
  8
0
 10
183.731
 11
182.851
 20
9.645
 21
10.709
  0
LINE
  8
0
 10
182.851
 11
182.111
 20
10.709
 21
11.876
  0
LINE
  8
0
 10
182.111
 11
181.522
 20
11.876
 21
13.126
  0
LINE
  8
0
 10
181.522
 11
181.096
 20
13.126
 21
14.439
  0
LINE
  8
0
 10
181.096
 11
180.837
 20
14.439
 21
15.796
  0
LINE
  8
0
 10
180.837
 11
180.75
 20
15.796
 21
17.175
  0
LINE
  8
0
 10
186.75
 11
186.75
 20
127.025
 21
130.2
  0
LINE
  8
0
 10
186.75
 11
196.75
 20
130.2
 21
130.2
  0
LINE
  8
0
 10
196.75
 11
196.75
 20
130.2
 21
127.025
  0
LINE
  8
0
 10
196.75
 11
186.75
 20
127.025
 21
127.025
  0
LINE
  8
0
 10
189.25
 11
189.25
 20
70.688
 21
74.688
  0
LINE
  8
0
 10
189.25
 11
190.25
 20
74.688
 21
74.688
  0
LINE
  8
0
 10
190.25
 11
190.25
 20
74.688
 21
70.688
  0
LINE
  8
0
 10
190.25
 11
189.25
 20
70.688
 21
70.688
  0
LINE
  8
0
 10
192.25
 11
192.25
 20
70.688
 21
74.688
  0
LINE
  8
0
 10
192.25
 11
193.25
 20
74.688
 21
74.688
  0
LINE
  8
0
 10
193.25
 11
193.25
 20
74.688
 21
70.688
  0
LINE
  8
0
 10
193.25
 11
192.25
 20
70.688
 21
70.688
  0
LINE
  8
0
 10
206.568
 11
206.568
 20
111.225
 21
122.225
  0
LINE
  8
0
 10
206.568
 11
215.568
 20
122.225
 21
122.225
  0
LINE
  8
0
 10
215.568
 11
215.568
 20
122.225
 21
111.225
  0
LINE
  8
0
 10
215.568
 11
206.568
 20
111.225
 21
111.225
  0
LINE
  8
0
 10
219.25
 11
219.25
 20
87.025
 21
97.025
  0
LINE
  8
0
 10
219.25
 11
222.425
 20
97.025
 21
97.025
  0
LINE
  8
0
 10
222.425
 11
222.425
 20
97.025
 21
87.025
  0
LINE
  8
0
 10
222.425
 11
219.25
 20
87.025
 21
87.025
  0
LINE
  8
0
 10
219.337
 11
219.349
 20
107.025
 21
107.213
  0
LINE
  8
0
 10
219.349
 11
219.385
 20
107.213
 21
107.398
  0
LINE
  8
0
 10
219.385
 11
219.443
 20
107.398
 21
107.577
  0
LINE
  8
0
 10
219.443
 11
219.523
 20
107.577
 21
107.748
  0
LINE
  8
0
 10
219.523
 11
219.623
 20
107.748
 21
107.907
  0
LINE
  8
0
 10
219.623
 11
219.745
 20
107.907
 21
108.052
  0
LINE
  8
0
 10
219.745
 11
219.882
 20
108.052
 21
108.181
  0
LINE
  8
0
 10
219.882
 11
220.033
 20
108.181
 21
108.291
  0
LINE
  8
0
 10
220.033
 11
220.199
 20
108.291
 21
108.382
  0
LINE
  8
0
 10
220.199
 11
220.373
 20
108.382
 21
108.452
  0
LINE
  8
0
 10
220.373
 11
220.556
 20
108.452
 21
108.498
  0
LINE
  8
0
 10
220.556
 11
220.743
 20
108.498
 21
108.522
  0
LINE
  8
0
 10
220.743
 11
220.931
 20
108.522
 21
108.522
  0
LINE
  8
0
 10
220.931
 11
221.118
 20
108.522
 21
108.498
  0
LINE
  8
0
 10
221.118
 11
221.301
 20
108.498
 21
108.452
  0
LINE
  8
0
 10
221.301
 11
221.477
 20
108.452
 21
108.382
  0
LINE
  8
0
 10
221.477
 11
221.642
 20
108.382
 21
108.291
  0
LINE
  8
0
 10
221.642
 11
221.794
 20
108.291
 21
108.181
  0
LINE
  8
0
 10
221.794
 11
221.931
 20
108.181
 21
108.052
  0
LINE
  8
0
 10
221.931
 11
222.051
 20
108.052
 21
107.907
  0
LINE
  8
0
 10
222.051
 11
222.151
 20
107.907
 21
107.748
  0
LINE
  8
0
 10
222.151
 11
222.233
 20
107.748
 21
107.577
  0
LINE
  8
0
 10
222.233
 11
222.29
 20
107.577
 21
107.398
  0
LINE
  8
0
 10
222.29
 11
222.326
 20
107.398
 21
107.213
  0
LINE
  8
0
 10
222.326
 11
222.338
 20
107.213
 21
107.025
  0
LINE
  8
0
 10
222.338
 11
222.326
 20
107.025
 21
106.837
  0
LINE
  8
0
 10
222.326
 11
222.29
 20
106.837
 21
106.652
  0
LINE
  8
0
 10
222.29
 11
222.233
 20
106.652
 21
106.473
  0
LINE
  8
0
 10
222.233
 11
222.151
 20
106.473
 21
106.302
  0
LINE
  8
0
 10
222.151
 11
222.051
 20
106.302
 21
106.143
  0
LINE
  8
0
 10
222.051
 11
221.931
 20
106.143
 21
105.998
  0
LINE
  8
0
 10
221.931
 11
221.794
 20
105.998
 21
105.869
  0
LINE
  8
0
 10
221.794
 11
221.642
 20
105.869
 21
105.759
  0
LINE
  8
0
 10
221.642
 11
221.477
 20
105.759
 21
105.668
  0
LINE
  8
0
 10
221.477
 11
221.301
 20
105.668
 21
105.598
  0
LINE
  8
0
 10
221.301
 11
221.118
 20
105.598
 21
105.552
  0
LINE
  8
0
 10
221.118
 11
220.931
 20
105.552
 21
105.528
  0
LINE
  8
0
 10
220.931
 11
220.743
 20
105.528
 21
105.528
  0
LINE
  8
0
 10
220.743
 11
220.556
 20
105.528
 21
105.552
  0
LINE
  8
0
 10
220.556
 11
220.373
 20
105.552
 21
105.598
  0
LINE
  8
0
 10
220.373
 11
220.199
 20
105.598
 21
105.668
  0
LINE
  8
0
 10
220.199
 11
220.033
 20
105.668
 21
105.759
  0
LINE
  8
0
 10
220.033
 11
219.882
 20
105.759
 21
105.869
  0
LINE
  8
0
 10
219.882
 11
219.745
 20
105.869
 21
105.998
  0
LINE
  8
0
 10
219.745
 11
219.623
 20
105.998
 21
106.143
  0
LINE
  8
0
 10
219.623
 11
219.523
 20
106.143
 21
106.302
  0
LINE
  8
0
 10
219.523
 11
219.443
 20
106.302
 21
106.473
  0
LINE
  8
0
 10
219.443
 11
219.385
 20
106.473
 21
106.652
  0
LINE
  8
0
 10
219.385
 11
219.349
 20
106.652
 21
106.837
  0
LINE
  8
0
 10
219.349
 11
219.337
 20
106.837
 21
107.025
  0
LINE
  8
0
 10
225.825
 11
225.825
 20
43.075
 21
53.075
  0
LINE
  8
0
 10
225.825
 11
229
 20
53.075
 21
53.075
  0
LINE
  8
0
 10
229
 11
229
 20
53.075
 21
81.75
  0
LINE
  8
0
 10
229
 11
276
 20
81.75
 21
81.75
  0
LINE
  8
0
 10
276
 11
276
 20
81.75
 21
14.4
  0
LINE
  8
0
 10
276
 11
229
 20
14.4
 21
14.4
  0
LINE
  8
0
 10
229
 11
229
 20
14.4
 21
43.075
  0
LINE
  8
0
 10
229
 11
225.825
 20
43.075
 21
43.075
  0
LINE
  8
0
 10
226.225
 11
226.383
 20
102.15
 21
104.657
  0
LINE
  8
0
 10
226.383
 11
226.853
 20
104.657
 21
107.124
  0
LINE
  8
0
 10
226.853
 11
227.629
 20
107.124
 21
109.512
  0
LINE
  8
0
 10
227.629
 11
228.699
 20
109.512
 21
111.785
  0
LINE
  8
0
 10
228.699
 11
230.045
 20
111.785
 21
113.906
  0
LINE
  8
0
 10
230.045
 11
231.646
 20
113.906
 21
115.841
  0
LINE
  8
0
 10
231.646
 11
233.477
 20
115.841
 21
117.56
  0
LINE
  8
0
 10
233.477
 11
235.508
 20
117.56
 21
119.037
  0
LINE
  8
0
 10
235.508
 11
237.709
 20
119.037
 21
120.247
  0
LINE
  8
0
 10
237.709
 11
240.045
 20
120.247
 21
121.171
  0
LINE
  8
0
 10
240.045
 11
242.477
 20
121.171
 21
121.796
  0
LINE
  8
0
 10
242.477
 11
244.969
 20
121.796
 21
122.111
  0
LINE
  8
0
 10
244.969
 11
247.481
 20
122.111
 21
122.111
  0
LINE
  8
0
 10
247.481
 11
249.973
 20
122.111
 21
121.796
  0
LINE
  8
0
 10
249.973
 11
252.405
 20
121.796
 21
121.171
  0
LINE
  8
0
 10
252.405
 11
254.741
 20
121.171
 21
120.247
  0
LINE
  8
0
 10
254.741
 11
256.942
 20
120.247
 21
119.037
  0
LINE
  8
0
 10
256.942
 11
258.973
 20
119.037
 21
117.56
  0
LINE
  8
0
 10
258.973
 11
260.804
 20
117.56
 21
115.841
  0
LINE
  8
0
 10
260.804
 11
262.405
 20
115.841
 21
113.906
  0
LINE
  8
0
 10
262.405
 11
263.751
 20
113.906
 21
111.785
  0
LINE
  8
0
 10
263.751
 11
264.821
 20
111.785
 21
109.512
  0
LINE
  8
0
 10
264.821
 11
265.597
 20
109.512
 21
107.124
  0
LINE
  8
0
 10
265.597
 11
266.067
 20
107.124
 21
104.657
  0
LINE
  8
0
 10
266.067
 11
266.225
 20
104.657
 21
102.15
  0
LINE
  8
0
 10
266.225
 11
266.067
 20
102.15
 21
99.643
  0
LINE
  8
0
 10
266.067
 11
265.597
 20
99.643
 21
97.176
  0
LINE
  8
0
 10
265.597
 11
264.821
 20
97.176
 21
94.788
  0
LINE
  8
0
 10
264.821
 11
263.751
 20
94.788
 21
92.515
  0
LINE
  8
0
 10
263.751
 11
262.405
 20
92.515
 21
90.394
  0
LINE
  8
0
 10
262.405
 11
260.804
 20
90.394
 21
88.459
  0
LINE
  8
0
 10
260.804
 11
258.973
 20
88.459
 21
86.74
  0
LINE
  8
0
 10
258.973
 11
256.942
 20
86.74
 21
85.263
  0
LINE
  8
0
 10
256.942
 11
254.741
 20
85.263
 21
84.053
  0
LINE
  8
0
 10
254.741
 11
252.405
 20
84.053
 21
83.129
  0
LINE
  8
0
 10
252.405
 11
249.973
 20
83.129
 21
82.504
  0
LINE
  8
0
 10
249.973
 11
247.481
 20
82.504
 21
82.189
  0
LINE
  8
0
 10
247.481
 11
244.969
 20
82.189
 21
82.189
  0
LINE
  8
0
 10
244.969
 11
242.477
 20
82.189
 21
82.504
  0
LINE
  8
0
 10
242.477
 11
240.045
 20
82.504
 21
83.129
  0
LINE
  8
0
 10
240.045
 11
237.709
 20
83.129
 21
84.053
  0
LINE
  8
0
 10
237.709
 11
235.508
 20
84.053
 21
85.263
  0
LINE
  8
0
 10
235.508
 11
233.477
 20
85.263
 21
86.74
  0
LINE
  8
0
 10
233.477
 11
231.646
 20
86.74
 21
88.459
  0
LINE
  8
0
 10
231.646
 11
230.045
 20
88.459
 21
90.394
  0
LINE
  8
0
 10
230.045
 11
228.699
 20
90.394
 21
92.515
  0
LINE
  8
0
 10
228.699
 11
227.629
 20
92.515
 21
94.788
  0
LINE
  8
0
 10
227.629
 11
226.853
 20
94.788
 21
97.176
  0
LINE
  8
0
 10
226.853
 11
226.383
 20
97.176
 21
99.643
  0
LINE
  8
0
 10
226.383
 11
226.225
 20
99.643
 21
102.15
  0
LINE
  8
0
 10
226.225
 11
226.383
 20
142.55
 21
145.057
  0
LINE
  8
0
 10
226.383
 11
226.853
 20
145.057
 21
147.524
  0
LINE
  8
0
 10
226.853
 11
227.629
 20
147.524
 21
149.912
  0
LINE
  8
0
 10
227.629
 11
228.699
 20
149.912
 21
152.185
  0
LINE
  8
0
 10
228.699
 11
230.045
 20
152.185
 21
154.306
  0
LINE
  8
0
 10
230.045
 11
231.646
 20
154.306
 21
156.241
  0
LINE
  8
0
 10
231.646
 11
233.477
 20
156.241
 21
157.96
  0
LINE
  8
0
 10
233.477
 11
235.508
 20
157.96
 21
159.437
  0
LINE
  8
0
 10
235.508
 11
237.709
 20
159.437
 21
160.647
  0
LINE
  8
0
 10
237.709
 11
240.045
 20
160.647
 21
161.571
  0
LINE
  8
0
 10
240.045
 11
242.477
 20
161.571
 21
162.196
  0
LINE
  8
0
 10
242.477
 11
244.969
 20
162.196
 21
162.511
  0
LINE
  8
0
 10
244.969
 11
247.481
 20
162.511
 21
162.511
  0
LINE
  8
0
 10
247.481
 11
249.973
 20
162.511
 21
162.196
  0
LINE
  8
0
 10
249.973
 11
252.405
 20
162.196
 21
161.571
  0
LINE
  8
0
 10
252.405
 11
254.741
 20
161.571
 21
160.647
  0
LINE
  8
0
 10
254.741
 11
256.942
 20
160.647
 21
159.437
  0
LINE
  8
0
 10
256.942
 11
258.973
 20
159.437
 21
157.96
  0
LINE
  8
0
 10
258.973
 11
260.804
 20
157.96
 21
156.241
  0
LINE
  8
0
 10
260.804
 11
262.405
 20
156.241
 21
154.306
  0
LINE
  8
0
 10
262.405
 11
263.751
 20
154.306
 21
152.185
  0
LINE
  8
0
 10
263.751
 11
264.821
 20
152.185
 21
149.912
  0
LINE
  8
0
 10
264.821
 11
265.597
 20
149.912
 21
147.524
  0
LINE
  8
0
 10
265.597
 11
266.067
 20
147.524
 21
145.057
  0
LINE
  8
0
 10
266.067
 11
266.225
 20
145.057
 21
142.55
  0
LINE
  8
0
 10
266.225
 11
266.067
 20
142.55
 21
140.043
  0
LINE
  8
0
 10
266.067
 11
265.597
 20
140.043
 21
137.576
  0
LINE
  8
0
 10
265.597
 11
264.821
 20
137.576
 21
135.188
  0
LINE
  8
0
 10
264.821
 11
263.751
 20
135.188
 21
132.915
  0
LINE
  8
0
 10
263.751
 11
262.405
 20
132.915
 21
130.794
  0
LINE
  8
0
 10
262.405
 11
260.804
 20
130.794
 21
128.859
  0
LINE
  8
0
 10
260.804
 11
258.973
 20
128.859
 21
127.14
  0
LINE
  8
0
 10
258.973
 11
256.942
 20
127.14
 21
125.663
  0
LINE
  8
0
 10
256.942
 11
254.741
 20
125.663
 21
124.453
  0
LINE
  8
0
 10
254.741
 11
252.405
 20
124.453
 21
123.529
  0
LINE
  8
0
 10
252.405
 11
249.973
 20
123.529
 21
122.904
  0
LINE
  8
0
 10
249.973
 11
247.481
 20
122.904
 21
122.589
  0
LINE
  8
0
 10
247.481
 11
244.969
 20
122.589
 21
122.589
  0
LINE
  8
0
 10
244.969
 11
242.477
 20
122.589
 21
122.904
  0
LINE
  8
0
 10
242.477
 11
240.045
 20
122.904
 21
123.529
  0
LINE
  8
0
 10
240.045
 11
237.709
 20
123.529
 21
124.453
  0
LINE
  8
0
 10
237.709
 11
235.508
 20
124.453
 21
125.663
  0
LINE
  8
0
 10
235.508
 11
233.477
 20
125.663
 21
127.14
  0
LINE
  8
0
 10
233.477
 11
231.646
 20
127.14
 21
128.859
  0
LINE
  8
0
 10
231.646
 11
230.045
 20
128.859
 21
130.794
  0
LINE
  8
0
 10
230.045
 11
228.699
 20
130.794
 21
132.915
  0
LINE
  8
0
 10
228.699
 11
227.629
 20
132.915
 21
135.188
  0
LINE
  8
0
 10
227.629
 11
226.853
 20
135.188
 21
137.576
  0
LINE
  8
0
 10
226.853
 11
226.383
 20
137.576
 21
140.043
  0
LINE
  8
0
 10
226.383
 11
226.225
 20
140.043
 21
142.55
  0
LINE
  8
0
 10
228.25
 11
228.258
 20
6.475
 21
6.6
  0
LINE
  8
0
 10
228.258
 11
228.281
 20
6.6
 21
6.724
  0
LINE
  8
0
 10
228.281
 11
228.32
 20
6.724
 21
6.843
  0
LINE
  8
0
 10
228.32
 11
228.374
 20
6.843
 21
6.957
  0
LINE
  8
0
 10
228.374
 11
228.441
 20
6.957
 21
7.063
  0
LINE
  8
0
 10
228.441
 11
228.521
 20
7.063
 21
7.16
  0
LINE
  8
0
 10
228.521
 11
228.613
 20
7.16
 21
7.246
  0
LINE
  8
0
 10
228.613
 11
228.714
 20
7.246
 21
7.319
  0
LINE
  8
0
 10
228.714
 11
228.824
 20
7.319
 21
7.38
  0
LINE
  8
0
 10
228.824
 11
228.941
 20
7.38
 21
7.426
  0
LINE
  8
0
 10
228.941
 11
229.063
 20
7.426
 21
7.457
  0
LINE
  8
0
 10
229.063
 11
229.187
 20
7.457
 21
7.473
  0
LINE
  8
0
 10
229.187
 11
229.313
 20
7.473
 21
7.473
  0
LINE
  8
0
 10
229.313
 11
229.437
 20
7.473
 21
7.457
  0
LINE
  8
0
 10
229.437
 11
229.559
 20
7.457
 21
7.426
  0
LINE
  8
0
 10
229.559
 11
229.676
 20
7.426
 21
7.38
  0
LINE
  8
0
 10
229.676
 11
229.786
 20
7.38
 21
7.319
  0
LINE
  8
0
 10
229.786
 11
229.887
 20
7.319
 21
7.246
  0
LINE
  8
0
 10
229.887
 11
229.979
 20
7.246
 21
7.16
  0
LINE
  8
0
 10
229.979
 11
230.059
 20
7.16
 21
7.063
  0
LINE
  8
0
 10
230.059
 11
230.126
 20
7.063
 21
6.957
  0
LINE
  8
0
 10
230.126
 11
230.18
 20
6.957
 21
6.843
  0
LINE
  8
0
 10
230.18
 11
230.219
 20
6.843
 21
6.724
  0
LINE
  8
0
 10
230.219
 11
230.242
 20
6.724
 21
6.6
  0
LINE
  8
0
 10
230.242
 11
230.25
 20
6.6
 21
6.475
  0
LINE
  8
0
 10
230.25
 11
230.242
 20
6.475
 21
6.35
  0
LINE
  8
0
 10
230.242
 11
230.219
 20
6.35
 21
6.226
  0
LINE
  8
0
 10
230.219
 11
230.18
 20
6.226
 21
6.107
  0
LINE
  8
0
 10
230.18
 11
230.126
 20
6.107
 21
5.993
  0
LINE
  8
0
 10
230.126
 11
230.059
 20
5.993
 21
5.887
  0
LINE
  8
0
 10
230.059
 11
229.979
 20
5.887
 21
5.79
  0
LINE
  8
0
 10
229.979
 11
229.887
 20
5.79
 21
5.704
  0
LINE
  8
0
 10
229.887
 11
229.786
 20
5.704
 21
5.631
  0
LINE
  8
0
 10
229.786
 11
229.676
 20
5.631
 21
5.57
  0
LINE
  8
0
 10
229.676
 11
229.559
 20
5.57
 21
5.524
  0
LINE
  8
0
 10
229.559
 11
229.437
 20
5.524
 21
5.493
  0
LINE
  8
0
 10
229.437
 11
229.313
 20
5.493
 21
5.477
  0
LINE
  8
0
 10
229.313
 11
229.187
 20
5.477
 21
5.477
  0
LINE
  8
0
 10
229.187
 11
229.063
 20
5.477
 21
5.493
  0
LINE
  8
0
 10
229.063
 11
228.941
 20
5.493
 21
5.524
  0
LINE
  8
0
 10
228.941
 11
228.824
 20
5.524
 21
5.57
  0
LINE
  8
0
 10
228.824
 11
228.714
 20
5.57
 21
5.631
  0
LINE
  8
0
 10
228.714
 11
228.613
 20
5.631
 21
5.704
  0
LINE
  8
0
 10
228.613
 11
228.521
 20
5.704
 21
5.79
  0
LINE
  8
0
 10
228.521
 11
228.441
 20
5.79
 21
5.887
  0
LINE
  8
0
 10
228.441
 11
228.374
 20
5.887
 21
5.993
  0
LINE
  8
0
 10
228.374
 11
228.32
 20
5.993
 21
6.107
  0
LINE
  8
0
 10
228.32
 11
228.281
 20
6.107
 21
6.226
  0
LINE
  8
0
 10
228.281
 11
228.258
 20
6.226
 21
6.35
  0
LINE
  8
0
 10
228.258
 11
228.25
 20
6.35
 21
6.475
  0
LINE
  8
0
 10
234
 11
234
 20
17.4
 21
20.575
  0
LINE
  8
0
 10
234
 11
244
 20
20.575
 21
20.575
  0
LINE
  8
0
 10
244
 11
244
 20
20.575
 21
17.4
  0
LINE
  8
0
 10
244
 11
234
 20
17.4
 21
17.4
  0
LINE
  8
0
 10
234
 11
234
 20
75.575
 21
78.75
  0
LINE
  8
0
 10
234
 11
244
 20
78.75
 21
78.75
  0
LINE
  8
0
 10
244
 11
244
 20
78.75
 21
75.575
  0
LINE
  8
0
 10
244
 11
234
 20
75.575
 21
75.575
  0
LINE
  8
0
 10
234.725
 11
234.737
 20
92.15
 21
92.338
  0
LINE
  8
0
 10
234.737
 11
234.772
 20
92.338
 21
92.523
  0
LINE
  8
0
 10
234.772
 11
234.83
 20
92.523
 21
92.702
  0
LINE
  8
0
 10
234.83
 11
234.911
 20
92.702
 21
92.873
  0
LINE
  8
0
 10
234.911
 11
235.011
 20
92.873
 21
93.032
  0
LINE
  8
0
 10
235.011
 11
235.132
 20
93.032
 21
93.177
  0
LINE
  8
0
 10
235.132
 11
235.269
 20
93.177
 21
93.306
  0
LINE
  8
0
 10
235.269
 11
235.421
 20
93.306
 21
93.416
  0
LINE
  8
0
 10
235.421
 11
235.586
 20
93.416
 21
93.507
  0
LINE
  8
0
 10
235.586
 11
235.761
 20
93.507
 21
93.577
  0
LINE
  8
0
 10
235.761
 11
235.944
 20
93.577
 21
93.623
  0
LINE
  8
0
 10
235.944
 11
236.131
 20
93.623
 21
93.647
  0
LINE
  8
0
 10
236.131
 11
236.319
 20
93.647
 21
93.647
  0
LINE
  8
0
 10
236.319
 11
236.506
 20
93.647
 21
93.623
  0
LINE
  8
0
 10
236.506
 11
236.689
 20
93.623
 21
93.577
  0
LINE
  8
0
 10
236.689
 11
236.864
 20
93.577
 21
93.507
  0
LINE
  8
0
 10
236.864
 11
237.029
 20
93.507
 21
93.416
  0
LINE
  8
0
 10
237.029
 11
237.181
 20
93.416
 21
93.306
  0
LINE
  8
0
 10
237.181
 11
237.318
 20
93.306
 21
93.177
  0
LINE
  8
0
 10
237.318
 11
237.439
 20
93.177
 21
93.032
  0
LINE
  8
0
 10
237.439
 11
237.539
 20
93.032
 21
92.873
  0
LINE
  8
0
 10
237.539
 11
237.62
 20
92.873
 21
92.702
  0
LINE
  8
0
 10
237.62
 11
237.678
 20
92.702
 21
92.523
  0
LINE
  8
0
 10
237.678
 11
237.713
 20
92.523
 21
92.338
  0
LINE
  8
0
 10
237.713
 11
237.725
 20
92.338
 21
92.15
  0
LINE
  8
0
 10
237.725
 11
237.713
 20
92.15
 21
91.962
  0
LINE
  8
0
 10
237.713
 11
237.678
 20
91.962
 21
91.777
  0
LINE
  8
0
 10
237.678
 11
237.62
 20
91.777
 21
91.598
  0
LINE
  8
0
 10
237.62
 11
237.539
 20
91.598
 21
91.427
  0
LINE
  8
0
 10
237.539
 11
237.439
 20
91.427
 21
91.268
  0
LINE
  8
0
 10
237.439
 11
237.318
 20
91.268
 21
91.123
  0
LINE
  8
0
 10
237.318
 11
237.181
 20
91.123
 21
90.994
  0
LINE
  8
0
 10
237.181
 11
237.029
 20
90.994
 21
90.884
  0
LINE
  8
0
 10
237.029
 11
236.864
 20
90.884
 21
90.793
  0
LINE
  8
0
 10
236.864
 11
236.689
 20
90.793
 21
90.723
  0
LINE
  8
0
 10
236.689
 11
236.506
 20
90.723
 21
90.677
  0
LINE
  8
0
 10
236.506
 11
236.319
 20
90.677
 21
90.653
  0
LINE
  8
0
 10
236.319
 11
236.131
 20
90.653
 21
90.653
  0
LINE
  8
0
 10
236.131
 11
235.944
 20
90.653
 21
90.677
  0
LINE
  8
0
 10
235.944
 11
235.761
 20
90.677
 21
90.723
  0
LINE
  8
0
 10
235.761
 11
235.586
 20
90.723
 21
90.793
  0
LINE
  8
0
 10
235.586
 11
235.421
 20
90.793
 21
90.884
  0
LINE
  8
0
 10
235.421
 11
235.269
 20
90.884
 21
90.994
  0
LINE
  8
0
 10
235.269
 11
235.132
 20
90.994
 21
91.123
  0
LINE
  8
0
 10
235.132
 11
235.011
 20
91.123
 21
91.268
  0
LINE
  8
0
 10
235.011
 11
234.911
 20
91.268
 21
91.427
  0
LINE
  8
0
 10
234.911
 11
234.83
 20
91.427
 21
91.598
  0
LINE
  8
0
 10
234.83
 11
234.772
 20
91.598
 21
91.777
  0
LINE
  8
0
 10
234.772
 11
234.737
 20
91.777
 21
91.962
  0
LINE
  8
0
 10
234.737
 11
234.725
 20
91.962
 21
92.15
  0
LINE
  8
0
 10
234.725
 11
234.737
 20
112.15
 21
112.338
  0
LINE
  8
0
 10
234.737
 11
234.772
 20
112.338
 21
112.523
  0
LINE
  8
0
 10
234.772
 11
234.83
 20
112.523
 21
112.702
  0
LINE
  8
0
 10
234.83
 11
234.911
 20
112.702
 21
112.873
  0
LINE
  8
0
 10
234.911
 11
235.011
 20
112.873
 21
113.032
  0
LINE
  8
0
 10
235.011
 11
235.132
 20
113.032
 21
113.177
  0
LINE
  8
0
 10
235.132
 11
235.269
 20
113.177
 21
113.306
  0
LINE
  8
0
 10
235.269
 11
235.421
 20
113.306
 21
113.416
  0
LINE
  8
0
 10
235.421
 11
235.586
 20
113.416
 21
113.507
  0
LINE
  8
0
 10
235.586
 11
235.761
 20
113.507
 21
113.577
  0
LINE
  8
0
 10
235.761
 11
235.944
 20
113.577
 21
113.623
  0
LINE
  8
0
 10
235.944
 11
236.131
 20
113.623
 21
113.647
  0
LINE
  8
0
 10
236.131
 11
236.319
 20
113.647
 21
113.647
  0
LINE
  8
0
 10
236.319
 11
236.506
 20
113.647
 21
113.623
  0
LINE
  8
0
 10
236.506
 11
236.689
 20
113.623
 21
113.577
  0
LINE
  8
0
 10
236.689
 11
236.864
 20
113.577
 21
113.507
  0
LINE
  8
0
 10
236.864
 11
237.029
 20
113.507
 21
113.416
  0
LINE
  8
0
 10
237.029
 11
237.181
 20
113.416
 21
113.306
  0
LINE
  8
0
 10
237.181
 11
237.318
 20
113.306
 21
113.177
  0
LINE
  8
0
 10
237.318
 11
237.439
 20
113.177
 21
113.032
  0
LINE
  8
0
 10
237.439
 11
237.539
 20
113.032
 21
112.873
  0
LINE
  8
0
 10
237.539
 11
237.62
 20
112.873
 21
112.702
  0
LINE
  8
0
 10
237.62
 11
237.678
 20
112.702
 21
112.523
  0
LINE
  8
0
 10
237.678
 11
237.713
 20
112.523
 21
112.338
  0
LINE
  8
0
 10
237.713
 11
237.725
 20
112.338
 21
112.15
  0
LINE
  8
0
 10
237.725
 11
237.713
 20
112.15
 21
111.962
  0
LINE
  8
0
 10
237.713
 11
237.678
 20
111.962
 21
111.777
  0
LINE
  8
0
 10
237.678
 11
237.62
 20
111.777
 21
111.598
  0
LINE
  8
0
 10
237.62
 11
237.539
 20
111.598
 21
111.427
  0
LINE
  8
0
 10
237.539
 11
237.439
 20
111.427
 21
111.268
  0
LINE
  8
0
 10
237.439
 11
237.318
 20
111.268
 21
111.123
  0
LINE
  8
0
 10
237.318
 11
237.181
 20
111.123
 21
110.994
  0
LINE
  8
0
 10
237.181
 11
237.029
 20
110.994
 21
110.884
  0
LINE
  8
0
 10
237.029
 11
236.864
 20
110.884
 21
110.793
  0
LINE
  8
0
 10
236.864
 11
236.689
 20
110.793
 21
110.723
  0
LINE
  8
0
 10
236.689
 11
236.506
 20
110.723
 21
110.677
  0
LINE
  8
0
 10
236.506
 11
236.319
 20
110.677
 21
110.653
  0
LINE
  8
0
 10
236.319
 11
236.131
 20
110.653
 21
110.653
  0
LINE
  8
0
 10
236.131
 11
235.944
 20
110.653
 21
110.677
  0
LINE
  8
0
 10
235.944
 11
235.761
 20
110.677
 21
110.723
  0
LINE
  8
0
 10
235.761
 11
235.586
 20
110.723
 21
110.793
  0
LINE
  8
0
 10
235.586
 11
235.421
 20
110.793
 21
110.884
  0
LINE
  8
0
 10
235.421
 11
235.269
 20
110.884
 21
110.994
  0
LINE
  8
0
 10
235.269
 11
235.132
 20
110.994
 21
111.123
  0
LINE
  8
0
 10
235.132
 11
235.011
 20
111.123
 21
111.268
  0
LINE
  8
0
 10
235.011
 11
234.911
 20
111.268
 21
111.427
  0
LINE
  8
0
 10
234.911
 11
234.83
 20
111.427
 21
111.598
  0
LINE
  8
0
 10
234.83
 11
234.772
 20
111.598
 21
111.777
  0
LINE
  8
0
 10
234.772
 11
234.737
 20
111.777
 21
111.962
  0
LINE
  8
0
 10
234.737
 11
234.725
 20
111.962
 21
112.15
  0
LINE
  8
0
 10
234.725
 11
234.737
 20
132.55
 21
132.738
  0
LINE
  8
0
 10
234.737
 11
234.772
 20
132.738
 21
132.923
  0
LINE
  8
0
 10
234.772
 11
234.83
 20
132.923
 21
133.102
  0
LINE
  8
0
 10
234.83
 11
234.911
 20
133.102
 21
133.273
  0
LINE
  8
0
 10
234.911
 11
235.011
 20
133.273
 21
133.432
  0
LINE
  8
0
 10
235.011
 11
235.132
 20
133.432
 21
133.577
  0
LINE
  8
0
 10
235.132
 11
235.269
 20
133.577
 21
133.706
  0
LINE
  8
0
 10
235.269
 11
235.421
 20
133.706
 21
133.816
  0
LINE
  8
0
 10
235.421
 11
235.586
 20
133.816
 21
133.907
  0
LINE
  8
0
 10
235.586
 11
235.761
 20
133.907
 21
133.977
  0
LINE
  8
0
 10
235.761
 11
235.944
 20
133.977
 21
134.023
  0
LINE
  8
0
 10
235.944
 11
236.131
 20
134.023
 21
134.047
  0
LINE
  8
0
 10
236.131
 11
236.319
 20
134.047
 21
134.047
  0
LINE
  8
0
 10
236.319
 11
236.506
 20
134.047
 21
134.023
  0
LINE
  8
0
 10
236.506
 11
236.689
 20
134.023
 21
133.977
  0
LINE
  8
0
 10
236.689
 11
236.864
 20
133.977
 21
133.907
  0
LINE
  8
0
 10
236.864
 11
237.029
 20
133.907
 21
133.816
  0
LINE
  8
0
 10
237.029
 11
237.181
 20
133.816
 21
133.706
  0
LINE
  8
0
 10
237.181
 11
237.318
 20
133.706
 21
133.577
  0
LINE
  8
0
 10
237.318
 11
237.439
 20
133.577
 21
133.432
  0
LINE
  8
0
 10
237.439
 11
237.539
 20
133.432
 21
133.273
  0
LINE
  8
0
 10
237.539
 11
237.62
 20
133.273
 21
133.102
  0
LINE
  8
0
 10
237.62
 11
237.678
 20
133.102
 21
132.923
  0
LINE
  8
0
 10
237.678
 11
237.713
 20
132.923
 21
132.738
  0
LINE
  8
0
 10
237.713
 11
237.725
 20
132.738
 21
132.55
  0
LINE
  8
0
 10
237.725
 11
237.713
 20
132.55
 21
132.362
  0
LINE
  8
0
 10
237.713
 11
237.678
 20
132.362
 21
132.177
  0
LINE
  8
0
 10
237.678
 11
237.62
 20
132.177
 21
131.998
  0
LINE
  8
0
 10
237.62
 11
237.539
 20
131.998
 21
131.827
  0
LINE
  8
0
 10
237.539
 11
237.439
 20
131.827
 21
131.668
  0
LINE
  8
0
 10
237.439
 11
237.318
 20
131.668
 21
131.523
  0
LINE
  8
0
 10
237.318
 11
237.181
 20
131.523
 21
131.394
  0
LINE
  8
0
 10
237.181
 11
237.029
 20
131.394
 21
131.284
  0
LINE
  8
0
 10
237.029
 11
236.864
 20
131.284
 21
131.193
  0
LINE
  8
0
 10
236.864
 11
236.689
 20
131.193
 21
131.123
  0
LINE
  8
0
 10
236.689
 11
236.506
 20
131.123
 21
131.077
  0
LINE
  8
0
 10
236.506
 11
236.319
 20
131.077
 21
131.053
  0
LINE
  8
0
 10
236.319
 11
236.131
 20
131.053
 21
131.053
  0
LINE
  8
0
 10
236.131
 11
235.944
 20
131.053
 21
131.077
  0
LINE
  8
0
 10
235.944
 11
235.761
 20
131.077
 21
131.123
  0
LINE
  8
0
 10
235.761
 11
235.586
 20
131.123
 21
131.193
  0
LINE
  8
0
 10
235.586
 11
235.421
 20
131.193
 21
131.284
  0
LINE
  8
0
 10
235.421
 11
235.269
 20
131.284
 21
131.394
  0
LINE
  8
0
 10
235.269
 11
235.132
 20
131.394
 21
131.523
  0
LINE
  8
0
 10
235.132
 11
235.011
 20
131.523
 21
131.668
  0
LINE
  8
0
 10
235.011
 11
234.911
 20
131.668
 21
131.827
  0
LINE
  8
0
 10
234.911
 11
234.83
 20
131.827
 21
131.998
  0
LINE
  8
0
 10
234.83
 11
234.772
 20
131.998
 21
132.177
  0
LINE
  8
0
 10
234.772
 11
234.737
 20
132.177
 21
132.362
  0
LINE
  8
0
 10
234.737
 11
234.725
 20
132.362
 21
132.55
  0
LINE
  8
0
 10
234.725
 11
234.737
 20
152.55
 21
152.738
  0
LINE
  8
0
 10
234.737
 11
234.772
 20
152.738
 21
152.923
  0
LINE
  8
0
 10
234.772
 11
234.83
 20
152.923
 21
153.102
  0
LINE
  8
0
 10
234.83
 11
234.911
 20
153.102
 21
153.273
  0
LINE
  8
0
 10
234.911
 11
235.011
 20
153.273
 21
153.432
  0
LINE
  8
0
 10
235.011
 11
235.132
 20
153.432
 21
153.577
  0
LINE
  8
0
 10
235.132
 11
235.269
 20
153.577
 21
153.706
  0
LINE
  8
0
 10
235.269
 11
235.421
 20
153.706
 21
153.816
  0
LINE
  8
0
 10
235.421
 11
235.586
 20
153.816
 21
153.907
  0
LINE
  8
0
 10
235.586
 11
235.761
 20
153.907
 21
153.977
  0
LINE
  8
0
 10
235.761
 11
235.944
 20
153.977
 21
154.023
  0
LINE
  8
0
 10
235.944
 11
236.131
 20
154.023
 21
154.047
  0
LINE
  8
0
 10
236.131
 11
236.319
 20
154.047
 21
154.047
  0
LINE
  8
0
 10
236.319
 11
236.506
 20
154.047
 21
154.023
  0
LINE
  8
0
 10
236.506
 11
236.689
 20
154.023
 21
153.977
  0
LINE
  8
0
 10
236.689
 11
236.864
 20
153.977
 21
153.907
  0
LINE
  8
0
 10
236.864
 11
237.029
 20
153.907
 21
153.816
  0
LINE
  8
0
 10
237.029
 11
237.181
 20
153.816
 21
153.706
  0
LINE
  8
0
 10
237.181
 11
237.318
 20
153.706
 21
153.577
  0
LINE
  8
0
 10
237.318
 11
237.439
 20
153.577
 21
153.432
  0
LINE
  8
0
 10
237.439
 11
237.539
 20
153.432
 21
153.273
  0
LINE
  8
0
 10
237.539
 11
237.62
 20
153.273
 21
153.102
  0
LINE
  8
0
 10
237.62
 11
237.678
 20
153.102
 21
152.923
  0
LINE
  8
0
 10
237.678
 11
237.713
 20
152.923
 21
152.738
  0
LINE
  8
0
 10
237.713
 11
237.725
 20
152.738
 21
152.55
  0
LINE
  8
0
 10
237.725
 11
237.713
 20
152.55
 21
152.362
  0
LINE
  8
0
 10
237.713
 11
237.678
 20
152.362
 21
152.177
  0
LINE
  8
0
 10
237.678
 11
237.62
 20
152.177
 21
151.998
  0
LINE
  8
0
 10
237.62
 11
237.539
 20
151.998
 21
151.827
  0
LINE
  8
0
 10
237.539
 11
237.439
 20
151.827
 21
151.668
  0
LINE
  8
0
 10
237.439
 11
237.318
 20
151.668
 21
151.523
  0
LINE
  8
0
 10
237.318
 11
237.181
 20
151.523
 21
151.394
  0
LINE
  8
0
 10
237.181
 11
237.029
 20
151.394
 21
151.284
  0
LINE
  8
0
 10
237.029
 11
236.864
 20
151.284
 21
151.193
  0
LINE
  8
0
 10
236.864
 11
236.689
 20
151.193
 21
151.123
  0
LINE
  8
0
 10
236.689
 11
236.506
 20
151.123
 21
151.077
  0
LINE
  8
0
 10
236.506
 11
236.319
 20
151.077
 21
151.053
  0
LINE
  8
0
 10
236.319
 11
236.131
 20
151.053
 21
151.053
  0
LINE
  8
0
 10
236.131
 11
235.944
 20
151.053
 21
151.077
  0
LINE
  8
0
 10
235.944
 11
235.761
 20
151.077
 21
151.123
  0
LINE
  8
0
 10
235.761
 11
235.586
 20
151.123
 21
151.193
  0
LINE
  8
0
 10
235.586
 11
235.421
 20
151.193
 21
151.284
  0
LINE
  8
0
 10
235.421
 11
235.269
 20
151.284
 21
151.394
  0
LINE
  8
0
 10
235.269
 11
235.132
 20
151.394
 21
151.523
  0
LINE
  8
0
 10
235.132
 11
235.011
 20
151.523
 21
151.668
  0
LINE
  8
0
 10
235.011
 11
234.911
 20
151.668
 21
151.827
  0
LINE
  8
0
 10
234.911
 11
234.83
 20
151.827
 21
151.998
  0
LINE
  8
0
 10
234.83
 11
234.772
 20
151.998
 21
152.177
  0
LINE
  8
0
 10
234.772
 11
234.737
 20
152.177
 21
152.362
  0
LINE
  8
0
 10
234.737
 11
234.725
 20
152.362
 21
152.55
  0
LINE
  8
0
 10
235.259
 11
235.259
 20
32.471
 21
32.691
  0
LINE
  8
0
 10
235.259
 11
235.287
 20
32.691
 21
32.909
  0
LINE
  8
0
 10
235.287
 11
235.342
 20
32.909
 21
33.122
  0
LINE
  8
0
 10
235.342
 11
235.423
 20
33.122
 21
33.326
  0
LINE
  8
0
 10
235.423
 11
235.528
 20
33.326
 21
33.519
  0
LINE
  8
0
 10
235.528
 11
235.658
 20
33.519
 21
33.696
  0
LINE
  8
0
 10
235.658
 11
235.808
 20
33.696
 21
33.857
  0
LINE
  8
0
 10
235.808
 11
235.977
 20
33.857
 21
33.997
  0
LINE
  8
0
 10
235.977
 11
236.163
 20
33.997
 21
34.115
  0
LINE
  8
0
 10
236.163
 11
236.362
 20
34.115
 21
34.208
  0
LINE
  8
0
 10
236.362
 11
236.571
 20
34.208
 21
34.276
  0
LINE
  8
0
 10
236.571
 11
236.787
 20
34.276
 21
34.317
  0
LINE
  8
0
 10
236.787
 11
237.006
 20
34.317
 21
34.331
  0
LINE
  8
0
 10
237.006
 11
237.225
 20
34.331
 21
34.317
  0
LINE
  8
0
 10
237.225
 11
237.441
 20
34.317
 21
34.276
  0
LINE
  8
0
 10
237.441
 11
237.65
 20
34.276
 21
34.208
  0
LINE
  8
0
 10
237.65
 11
237.849
 20
34.208
 21
34.115
  0
LINE
  8
0
 10
237.849
 11
238.035
 20
34.115
 21
33.997
  0
LINE
  8
0
 10
238.035
 11
238.204
 20
33.997
 21
33.857
  0
LINE
  8
0
 10
238.204
 11
238.354
 20
33.857
 21
33.696
  0
LINE
  8
0
 10
238.354
 11
238.484
 20
33.696
 21
33.519
  0
LINE
  8
0
 10
238.484
 11
238.589
 20
33.519
 21
33.326
  0
LINE
  8
0
 10
238.589
 11
238.67
 20
33.326
 21
33.122
  0
LINE
  8
0
 10
238.67
 11
238.725
 20
33.122
 21
32.909
  0
LINE
  8
0
 10
238.725
 11
238.753
 20
32.909
 21
32.691
  0
LINE
  8
0
 10
238.753
 11
238.753
 20
32.691
 21
32.471
  0
LINE
  8
0
 10
238.753
 11
238.725
 20
32.471
 21
32.253
  0
LINE
  8
0
 10
238.725
 11
238.67
 20
32.253
 21
32.04
  0
LINE
  8
0
 10
238.67
 11
238.589
 20
32.04
 21
31.836
  0
LINE
  8
0
 10
238.589
 11
238.484
 20
31.836
 21
31.643
  0
LINE
  8
0
 10
238.484
 11
238.354
 20
31.643
 21
31.466
  0
LINE
  8
0
 10
238.354
 11
238.204
 20
31.466
 21
31.305
  0
LINE
  8
0
 10
238.204
 11
238.035
 20
31.305
 21
31.165
  0
LINE
  8
0
 10
238.035
 11
237.849
 20
31.165
 21
31.047
  0
LINE
  8
0
 10
237.849
 11
237.65
 20
31.047
 21
30.954
  0
LINE
  8
0
 10
237.65
 11
237.441
 20
30.954
 21
30.886
  0
LINE
  8
0
 10
237.441
 11
237.225
 20
30.886
 21
30.845
  0
LINE
  8
0
 10
237.225
 11
237.006
 20
30.845
 21
30.831
  0
LINE
  8
0
 10
237.006
 11
236.787
 20
30.831
 21
30.845
  0
LINE
  8
0
 10
236.787
 11
236.571
 20
30.845
 21
30.886
  0
LINE
  8
0
 10
236.571
 11
236.362
 20
30.886
 21
30.954
  0
LINE
  8
0
 10
236.362
 11
236.163
 20
30.954
 21
31.047
  0
LINE
  8
0
 10
236.163
 11
235.977
 20
31.047
 21
31.165
  0
LINE
  8
0
 10
235.977
 11
235.808
 20
31.165
 21
31.305
  0
LINE
  8
0
 10
235.808
 11
235.658
 20
31.305
 21
31.466
  0
LINE
  8
0
 10
235.658
 11
235.528
 20
31.466
 21
31.643
  0
LINE
  8
0
 10
235.528
 11
235.423
 20
31.643
 21
31.836
  0
LINE
  8
0
 10
235.423
 11
235.342
 20
31.836
 21
32.04
  0
LINE
  8
0
 10
235.342
 11
235.287
 20
32.04
 21
32.253
  0
LINE
  8
0
 10
235.287
 11
235.259
 20
32.253
 21
32.471
  0
LINE
  8
0
 10
235.259
 11
235.259
 20
63.459
 21
63.679
  0
LINE
  8
0
 10
235.259
 11
235.287
 20
63.679
 21
63.897
  0
LINE
  8
0
 10
235.287
 11
235.342
 20
63.897
 21
64.11
  0
LINE
  8
0
 10
235.342
 11
235.423
 20
64.11
 21
64.314
  0
LINE
  8
0
 10
235.423
 11
235.528
 20
64.314
 21
64.507
  0
LINE
  8
0
 10
235.528
 11
235.658
 20
64.507
 21
64.684
  0
LINE
  8
0
 10
235.658
 11
235.808
 20
64.684
 21
64.845
  0
LINE
  8
0
 10
235.808
 11
235.977
 20
64.845
 21
64.985
  0
LINE
  8
0
 10
235.977
 11
236.163
 20
64.985
 21
65.103
  0
LINE
  8
0
 10
236.163
 11
236.362
 20
65.103
 21
65.196
  0
LINE
  8
0
 10
236.362
 11
236.571
 20
65.196
 21
65.264
  0
LINE
  8
0
 10
236.571
 11
236.787
 20
65.264
 21
65.305
  0
LINE
  8
0
 10
236.787
 11
237.006
 20
65.305
 21
65.319
  0
LINE
  8
0
 10
237.006
 11
237.225
 20
65.319
 21
65.305
  0
LINE
  8
0
 10
237.225
 11
237.441
 20
65.305
 21
65.264
  0
LINE
  8
0
 10
237.441
 11
237.65
 20
65.264
 21
65.196
  0
LINE
  8
0
 10
237.65
 11
237.849
 20
65.196
 21
65.103
  0
LINE
  8
0
 10
237.849
 11
238.035
 20
65.103
 21
64.985
  0
LINE
  8
0
 10
238.035
 11
238.204
 20
64.985
 21
64.845
  0
LINE
  8
0
 10
238.204
 11
238.354
 20
64.845
 21
64.684
  0
LINE
  8
0
 10
238.354
 11
238.484
 20
64.684
 21
64.507
  0
LINE
  8
0
 10
238.484
 11
238.589
 20
64.507
 21
64.314
  0
LINE
  8
0
 10
238.589
 11
238.67
 20
64.314
 21
64.11
  0
LINE
  8
0
 10
238.67
 11
238.725
 20
64.11
 21
63.897
  0
LINE
  8
0
 10
238.725
 11
238.753
 20
63.897
 21
63.679
  0
LINE
  8
0
 10
238.753
 11
238.753
 20
63.679
 21
63.459
  0
LINE
  8
0
 10
238.753
 11
238.725
 20
63.459
 21
63.241
  0
LINE
  8
0
 10
238.725
 11
238.67
 20
63.241
 21
63.028
  0
LINE
  8
0
 10
238.67
 11
238.589
 20
63.028
 21
62.824
  0
LINE
  8
0
 10
238.589
 11
238.484
 20
62.824
 21
62.631
  0
LINE
  8
0
 10
238.484
 11
238.354
 20
62.631
 21
62.454
  0
LINE
  8
0
 10
238.354
 11
238.204
 20
62.454
 21
62.293
  0
LINE
  8
0
 10
238.204
 11
238.035
 20
62.293
 21
62.153
  0
LINE
  8
0
 10
238.035
 11
237.849
 20
62.153
 21
62.035
  0
LINE
  8
0
 10
237.849
 11
237.65
 20
62.035
 21
61.942
  0
LINE
  8
0
 10
237.65
 11
237.441
 20
61.942
 21
61.874
  0
LINE
  8
0
 10
237.441
 11
237.225
 20
61.874
 21
61.833
  0
LINE
  8
0
 10
237.225
 11
237.006
 20
61.833
 21
61.819
  0
LINE
  8
0
 10
237.006
 11
236.787
 20
61.819
 21
61.833
  0
LINE
  8
0
 10
236.787
 11
236.571
 20
61.833
 21
61.874
  0
LINE
  8
0
 10
236.571
 11
236.362
 20
61.874
 21
61.942
  0
LINE
  8
0
 10
236.362
 11
236.163
 20
61.942
 21
62.035
  0
LINE
  8
0
 10
236.163
 11
235.977
 20
62.035
 21
62.153
  0
LINE
  8
0
 10
235.977
 11
235.808
 20
62.153
 21
62.293
  0
LINE
  8
0
 10
235.808
 11
235.658
 20
62.293
 21
62.454
  0
LINE
  8
0
 10
235.658
 11
235.528
 20
62.454
 21
62.631
  0
LINE
  8
0
 10
235.528
 11
235.423
 20
62.631
 21
62.824
  0
LINE
  8
0
 10
235.423
 11
235.342
 20
62.824
 21
63.028
  0
LINE
  8
0
 10
235.342
 11
235.287
 20
63.028
 21
63.241
  0
LINE
  8
0
 10
235.287
 11
235.259
 20
63.241
 21
63.459
  0
LINE
  8
0
 10
236.225
 11
236.383
 20
182.95
 21
185.457
  0
LINE
  8
0
 10
236.383
 11
236.853
 20
185.457
 21
187.924
  0
LINE
  8
0
 10
236.853
 11
237.629
 20
187.924
 21
190.312
  0
LINE
  8
0
 10
237.629
 11
238.699
 20
190.312
 21
192.585
  0
LINE
  8
0
 10
238.699
 11
240.045
 20
192.585
 21
194.706
  0
LINE
  8
0
 10
240.045
 11
241.646
 20
194.706
 21
196.641
  0
LINE
  8
0
 10
241.646
 11
243.477
 20
196.641
 21
198.36
  0
LINE
  8
0
 10
243.477
 11
245.508
 20
198.36
 21
199.837
  0
LINE
  8
0
 10
245.508
 11
247.709
 20
199.837
 21
201.047
  0
LINE
  8
0
 10
247.709
 11
250.045
 20
201.047
 21
201.971
  0
LINE
  8
0
 10
250.045
 11
252.477
 20
201.971
 21
202.596
  0
LINE
  8
0
 10
252.477
 11
254.969
 20
202.596
 21
202.911
  0
LINE
  8
0
 10
254.969
 11
257.481
 20
202.911
 21
202.911
  0
LINE
  8
0
 10
257.481
 11
259.973
 20
202.911
 21
202.596
  0
LINE
  8
0
 10
259.973
 11
262.405
 20
202.596
 21
201.971
  0
LINE
  8
0
 10
262.405
 11
264.741
 20
201.971
 21
201.047
  0
LINE
  8
0
 10
264.741
 11
266.942
 20
201.047
 21
199.837
  0
LINE
  8
0
 10
266.942
 11
268.973
 20
199.837
 21
198.36
  0
LINE
  8
0
 10
268.973
 11
270.804
 20
198.36
 21
196.641
  0
LINE
  8
0
 10
270.804
 11
272.405
 20
196.641
 21
194.706
  0
LINE
  8
0
 10
272.405
 11
273.751
 20
194.706
 21
192.585
  0
LINE
  8
0
 10
273.751
 11
274.821
 20
192.585
 21
190.312
  0
LINE
  8
0
 10
274.821
 11
275.597
 20
190.312
 21
187.924
  0
LINE
  8
0
 10
275.597
 11
276.067
 20
187.924
 21
185.457
  0
LINE
  8
0
 10
276.067
 11
276.225
 20
185.457
 21
182.95
  0
LINE
  8
0
 10
276.225
 11
276.067
 20
182.95
 21
180.443
  0
LINE
  8
0
 10
276.067
 11
275.597
 20
180.443
 21
177.976
  0
LINE
  8
0
 10
275.597
 11
274.821
 20
177.976
 21
175.588
  0
LINE
  8
0
 10
274.821
 11
273.751
 20
175.588
 21
173.315
  0
LINE
  8
0
 10
273.751
 11
272.405
 20
173.315
 21
171.194
  0
LINE
  8
0
 10
272.405
 11
270.804
 20
171.194
 21
169.259
  0
LINE
  8
0
 10
270.804
 11
268.973
 20
169.259
 21
167.54
  0
LINE
  8
0
 10
268.973
 11
266.942
 20
167.54
 21
166.063
  0
LINE
  8
0
 10
266.942
 11
264.741
 20
166.063
 21
164.853
  0
LINE
  8
0
 10
264.741
 11
262.405
 20
164.853
 21
163.929
  0
LINE
  8
0
 10
262.405
 11
259.973
 20
163.929
 21
163.304
  0
LINE
  8
0
 10
259.973
 11
257.481
 20
163.304
 21
162.989
  0
LINE
  8
0
 10
257.481
 11
254.969
 20
162.989
 21
162.989
  0
LINE
  8
0
 10
254.969
 11
252.477
 20
162.989
 21
163.304
  0
LINE
  8
0
 10
252.477
 11
250.045
 20
163.304
 21
163.929
  0
LINE
  8
0
 10
250.045
 11
247.709
 20
163.929
 21
164.853
  0
LINE
  8
0
 10
247.709
 11
245.508
 20
164.853
 21
166.063
  0
LINE
  8
0
 10
245.508
 11
243.477
 20
166.063
 21
167.54
  0
LINE
  8
0
 10
243.477
 11
241.646
 20
167.54
 21
169.259
  0
LINE
  8
0
 10
241.646
 11
240.045
 20
169.259
 21
171.194
  0
LINE
  8
0
 10
240.045
 11
238.699
 20
171.194
 21
173.315
  0
LINE
  8
0
 10
238.699
 11
237.629
 20
173.315
 21
175.588
  0
LINE
  8
0
 10
237.629
 11
236.853
 20
175.588
 21
177.976
  0
LINE
  8
0
 10
236.853
 11
236.383
 20
177.976
 21
180.443
  0
LINE
  8
0
 10
236.383
 11
236.225
 20
180.443
 21
182.95
  0
LINE
  8
0
 10
241.524
 11
241.524
 20
47.384
 21
48.766
  0
LINE
  8
0
 10
241.524
 11
241.697
 20
48.766
 21
50.136
  0
LINE
  8
0
 10
241.697
 11
242.04
 20
50.136
 21
51.474
  0
LINE
  8
0
 10
242.04
 11
242.549
 20
51.474
 21
52.758
  0
LINE
  8
0
 10
242.549
 11
243.214
 20
52.758
 21
53.968
  0
LINE
  8
0
 10
243.214
 11
244.026
 20
53.968
 21
55.086
  0
LINE
  8
0
 10
244.026
 11
244.971
 20
55.086
 21
56.092
  0
LINE
  8
0
 10
244.971
 11
246.035
 20
56.092
 21
56.973
  0
LINE
  8
0
 10
246.035
 11
247.202
 20
56.973
 21
57.713
  0
LINE
  8
0
 10
247.202
 11
248.451
 20
57.713
 21
58.301
  0
LINE
  8
0
 10
248.451
 11
249.765
 20
58.301
 21
58.728
  0
LINE
  8
0
 10
249.765
 11
251.122
 20
58.728
 21
58.986
  0
LINE
  8
0
 10
251.122
 11
252.5
 20
58.986
 21
59.073
  0
LINE
  8
0
 10
252.5
 11
253.878
 20
59.073
 21
58.986
  0
LINE
  8
0
 10
253.878
 11
255.235
 20
58.986
 21
58.728
  0
LINE
  8
0
 10
255.235
 11
256.549
 20
58.728
 21
58.301
  0
LINE
  8
0
 10
256.549
 11
257.798
 20
58.301
 21
57.713
  0
LINE
  8
0
 10
257.798
 11
258.965
 20
57.713
 21
56.973
  0
LINE
  8
0
 10
258.965
 11
260.029
 20
56.973
 21
56.092
  0
LINE
  8
0
 10
260.029
 11
260.974
 20
56.092
 21
55.086
  0
LINE
  8
0
 10
260.974
 11
261.786
 20
55.086
 21
53.968
  0
LINE
  8
0
 10
261.786
 11
262.451
 20
53.968
 21
52.758
  0
LINE
  8
0
 10
262.451
 11
262.96
 20
52.758
 21
51.474
  0
LINE
  8
0
 10
262.96
 11
263.303
 20
51.474
 21
50.136
  0
LINE
  8
0
 10
263.303
 11
263.476
 20
50.136
 21
48.766
  0
LINE
  8
0
 10
263.476
 11
263.476
 20
48.766
 21
47.384
  0
LINE
  8
0
 10
263.476
 11
263.303
 20
47.384
 21
46.014
  0
LINE
  8
0
 10
263.303
 11
262.96
 20
46.014
 21
44.676
  0
LINE
  8
0
 10
262.96
 11
262.451
 20
44.676
 21
43.392
  0
LINE
  8
0
 10
262.451
 11
261.786
 20
43.392
 21
42.182
  0
LINE
  8
0
 10
261.786
 11
260.974
 20
42.182
 21
41.064
  0
LINE
  8
0
 10
260.974
 11
260.029
 20
41.064
 21
40.058
  0
LINE
  8
0
 10
260.029
 11
258.965
 20
40.058
 21
39.177
  0
LINE
  8
0
 10
258.965
 11
257.798
 20
39.177
 21
38.437
  0
LINE
  8
0
 10
257.798
 11
256.549
 20
38.437
 21
37.849
  0
LINE
  8
0
 10
256.549
 11
255.235
 20
37.849
 21
37.422
  0
LINE
  8
0
 10
255.235
 11
253.878
 20
37.422
 21
37.164
  0
LINE
  8
0
 10
253.878
 11
252.5
 20
37.164
 21
37.077
  0
LINE
  8
0
 10
252.5
 11
251.122
 20
37.077
 21
37.164
  0
LINE
  8
0
 10
251.122
 11
249.765
 20
37.164
 21
37.422
  0
LINE
  8
0
 10
249.765
 11
248.451
 20
37.422
 21
37.849
  0
LINE
  8
0
 10
248.451
 11
247.202
 20
37.849
 21
38.437
  0
LINE
  8
0
 10
247.202
 11
246.035
 20
38.437
 21
39.177
  0
LINE
  8
0
 10
246.035
 11
244.971
 20
39.177
 21
40.058
  0
LINE
  8
0
 10
244.971
 11
244.026
 20
40.058
 21
41.064
  0
LINE
  8
0
 10
244.026
 11
243.214
 20
41.064
 21
42.182
  0
LINE
  8
0
 10
243.214
 11
242.549
 20
42.182
 21
43.392
  0
LINE
  8
0
 10
242.549
 11
242.04
 20
43.392
 21
44.676
  0
LINE
  8
0
 10
242.04
 11
241.697
 20
44.676
 21
46.014
  0
LINE
  8
0
 10
241.697
 11
241.524
 20
46.014
 21
47.384
  0
LINE
  8
0
 10
243.725
 11
243.745
 20
102.15
 21
102.463
  0
LINE
  8
0
 10
243.745
 11
243.804
 20
102.463
 21
102.772
  0
LINE
  8
0
 10
243.804
 11
243.901
 20
102.772
 21
103.07
  0
LINE
  8
0
 10
243.901
 11
244.034
 20
103.07
 21
103.354
  0
LINE
  8
0
 10
244.034
 11
244.202
 20
103.354
 21
103.619
  0
LINE
  8
0
 10
244.202
 11
244.403
 20
103.619
 21
103.861
  0
LINE
  8
0
 10
244.403
 11
244.631
 20
103.861
 21
104.076
  0
LINE
  8
0
 10
244.631
 11
244.885
 20
104.076
 21
104.261
  0
LINE
  8
0
 10
244.885
 11
245.161
 20
104.261
 21
104.412
  0
LINE
  8
0
 10
245.161
 11
245.452
 20
104.412
 21
104.528
  0
LINE
  8
0
 10
245.452
 11
245.757
 20
104.528
 21
104.606
  0
LINE
  8
0
 10
245.757
 11
246.068
 20
104.606
 21
104.645
  0
LINE
  8
0
 10
246.068
 11
246.382
 20
104.645
 21
104.645
  0
LINE
  8
0
 10
246.382
 11
246.693
 20
104.645
 21
104.606
  0
LINE
  8
0
 10
246.693
 11
246.998
 20
104.606
 21
104.528
  0
LINE
  8
0
 10
246.998
 11
247.289
 20
104.528
 21
104.412
  0
LINE
  8
0
 10
247.289
 11
247.565
 20
104.412
 21
104.261
  0
LINE
  8
0
 10
247.565
 11
247.819
 20
104.261
 21
104.076
  0
LINE
  8
0
 10
247.819
 11
248.047
 20
104.076
 21
103.861
  0
LINE
  8
0
 10
248.047
 11
248.248
 20
103.861
 21
103.619
  0
LINE
  8
0
 10
248.248
 11
248.416
 20
103.619
 21
103.354
  0
LINE
  8
0
 10
248.416
 11
248.549
 20
103.354
 21
103.07
  0
LINE
  8
0
 10
248.549
 11
248.646
 20
103.07
 21
102.772
  0
LINE
  8
0
 10
248.646
 11
248.705
 20
102.772
 21
102.463
  0
LINE
  8
0
 10
248.705
 11
248.725
 20
102.463
 21
102.15
  0
LINE
  8
0
 10
248.725
 11
248.705
 20
102.15
 21
101.837
  0
LINE
  8
0
 10
248.705
 11
248.646
 20
101.837
 21
101.528
  0
LINE
  8
0
 10
248.646
 11
248.549
 20
101.528
 21
101.23
  0
LINE
  8
0
 10
248.549
 11
248.416
 20
101.23
 21
100.946
  0
LINE
  8
0
 10
248.416
 11
248.248
 20
100.946
 21
100.681
  0
LINE
  8
0
 10
248.248
 11
248.047
 20
100.681
 21
100.439
  0
LINE
  8
0
 10
248.047
 11
247.819
 20
100.439
 21
100.224
  0
LINE
  8
0
 10
247.819
 11
247.565
 20
100.224
 21
100.039
  0
LINE
  8
0
 10
247.565
 11
247.289
 20
100.039
 21
99.888
  0
LINE
  8
0
 10
247.289
 11
246.998
 20
99.888
 21
99.772
  0
LINE
  8
0
 10
246.998
 11
246.693
 20
99.772
 21
99.694
  0
LINE
  8
0
 10
246.693
 11
246.382
 20
99.694
 21
99.655
  0
LINE
  8
0
 10
246.382
 11
246.068
 20
99.655
 21
99.655
  0
LINE
  8
0
 10
246.068
 11
245.757
 20
99.655
 21
99.694
  0
LINE
  8
0
 10
245.757
 11
245.452
 20
99.694
 21
99.772
  0
LINE
  8
0
 10
245.452
 11
245.161
 20
99.772
 21
99.888
  0
LINE
  8
0
 10
245.161
 11
244.885
 20
99.888
 21
100.039
  0
LINE
  8
0
 10
244.885
 11
244.631
 20
100.039
 21
100.224
  0
LINE
  8
0
 10
244.631
 11
244.403
 20
100.224
 21
100.439
  0
LINE
  8
0
 10
244.403
 11
244.202
 20
100.439
 21
100.681
  0
LINE
  8
0
 10
244.202
 11
244.034
 20
100.681
 21
100.946
  0
LINE
  8
0
 10
244.034
 11
243.901
 20
100.946
 21
101.23
  0
LINE
  8
0
 10
243.901
 11
243.804
 20
101.23
 21
101.528
  0
LINE
  8
0
 10
243.804
 11
243.745
 20
101.528
 21
101.837
  0
LINE
  8
0
 10
243.745
 11
243.725
 20
101.837
 21
102.15
  0
LINE
  8
0
 10
243.725
 11
243.745
 20
142.55
 21
142.863
  0
LINE
  8
0
 10
243.745
 11
243.804
 20
142.863
 21
143.172
  0
LINE
  8
0
 10
243.804
 11
243.901
 20
143.172
 21
143.47
  0
LINE
  8
0
 10
243.901
 11
244.034
 20
143.47
 21
143.754
  0
LINE
  8
0
 10
244.034
 11
244.202
 20
143.754
 21
144.019
  0
LINE
  8
0
 10
244.202
 11
244.403
 20
144.019
 21
144.261
  0
LINE
  8
0
 10
244.403
 11
244.631
 20
144.261
 21
144.476
  0
LINE
  8
0
 10
244.631
 11
244.885
 20
144.476
 21
144.661
  0
LINE
  8
0
 10
244.885
 11
245.161
 20
144.661
 21
144.812
  0
LINE
  8
0
 10
245.161
 11
245.452
 20
144.812
 21
144.928
  0
LINE
  8
0
 10
245.452
 11
245.757
 20
144.928
 21
145.006
  0
LINE
  8
0
 10
245.757
 11
246.068
 20
145.006
 21
145.045
  0
LINE
  8
0
 10
246.068
 11
246.382
 20
145.045
 21
145.045
  0
LINE
  8
0
 10
246.382
 11
246.693
 20
145.045
 21
145.006
  0
LINE
  8
0
 10
246.693
 11
246.998
 20
145.006
 21
144.928
  0
LINE
  8
0
 10
246.998
 11
247.289
 20
144.928
 21
144.812
  0
LINE
  8
0
 10
247.289
 11
247.565
 20
144.812
 21
144.661
  0
LINE
  8
0
 10
247.565
 11
247.819
 20
144.661
 21
144.476
  0
LINE
  8
0
 10
247.819
 11
248.047
 20
144.476
 21
144.261
  0
LINE
  8
0
 10
248.047
 11
248.248
 20
144.261
 21
144.019
  0
LINE
  8
0
 10
248.248
 11
248.416
 20
144.019
 21
143.754
  0
LINE
  8
0
 10
248.416
 11
248.549
 20
143.754
 21
143.47
  0
LINE
  8
0
 10
248.549
 11
248.646
 20
143.47
 21
143.172
  0
LINE
  8
0
 10
248.646
 11
248.705
 20
143.172
 21
142.863
  0
LINE
  8
0
 10
248.705
 11
248.725
 20
142.863
 21
142.55
  0
LINE
  8
0
 10
248.725
 11
248.705
 20
142.55
 21
142.237
  0
LINE
  8
0
 10
248.705
 11
248.646
 20
142.237
 21
141.928
  0
LINE
  8
0
 10
248.646
 11
248.549
 20
141.928
 21
141.63
  0
LINE
  8
0
 10
248.549
 11
248.416
 20
141.63
 21
141.346
  0
LINE
  8
0
 10
248.416
 11
248.248
 20
141.346
 21
141.081
  0
LINE
  8
0
 10
248.248
 11
248.047
 20
141.081
 21
140.839
  0
LINE
  8
0
 10
248.047
 11
247.819
 20
140.839
 21
140.624
  0
LINE
  8
0
 10
247.819
 11
247.565
 20
140.624
 21
140.439
  0
LINE
  8
0
 10
247.565
 11
247.289
 20
140.439
 21
140.288
  0
LINE
  8
0
 10
247.289
 11
246.998
 20
140.288
 21
140.172
  0
LINE
  8
0
 10
246.998
 11
246.693
 20
140.172
 21
140.094
  0
LINE
  8
0
 10
246.693
 11
246.382
 20
140.094
 21
140.055
  0
LINE
  8
0
 10
246.382
 11
246.068
 20
140.055
 21
140.055
  0
LINE
  8
0
 10
246.068
 11
245.757
 20
140.055
 21
140.094
  0
LINE
  8
0
 10
245.757
 11
245.452
 20
140.094
 21
140.172
  0
LINE
  8
0
 10
245.452
 11
245.161
 20
140.172
 21
140.288
  0
LINE
  8
0
 10
245.161
 11
244.885
 20
140.288
 21
140.439
  0
LINE
  8
0
 10
244.885
 11
244.631
 20
140.439
 21
140.624
  0
LINE
  8
0
 10
244.631
 11
244.403
 20
140.624
 21
140.839
  0
LINE
  8
0
 10
244.403
 11
244.202
 20
140.839
 21
141.081
  0
LINE
  8
0
 10
244.202
 11
244.034
 20
141.081
 21
141.346
  0
LINE
  8
0
 10
244.034
 11
243.901
 20
141.346
 21
141.63
  0
LINE
  8
0
 10
243.901
 11
243.804
 20
141.63
 21
141.928
  0
LINE
  8
0
 10
243.804
 11
243.745
 20
141.928
 21
142.237
  0
LINE
  8
0
 10
243.745
 11
243.725
 20
142.237
 21
142.55
  0
LINE
  8
0
 10
244.725
 11
244.737
 20
172.95
 21
173.138
  0
LINE
  8
0
 10
244.737
 11
244.772
 20
173.138
 21
173.323
  0
LINE
  8
0
 10
244.772
 11
244.83
 20
173.323
 21
173.502
  0
LINE
  8
0
 10
244.83
 11
244.911
 20
173.502
 21
173.673
  0
LINE
  8
0
 10
244.911
 11
245.011
 20
173.673
 21
173.832
  0
LINE
  8
0
 10
245.011
 11
245.132
 20
173.832
 21
173.977
  0
LINE
  8
0
 10
245.132
 11
245.269
 20
173.977
 21
174.106
  0
LINE
  8
0
 10
245.269
 11
245.421
 20
174.106
 21
174.216
  0
LINE
  8
0
 10
245.421
 11
245.586
 20
174.216
 21
174.307
  0
LINE
  8
0
 10
245.586
 11
245.761
 20
174.307
 21
174.377
  0
LINE
  8
0
 10
245.761
 11
245.944
 20
174.377
 21
174.423
  0
LINE
  8
0
 10
245.944
 11
246.131
 20
174.423
 21
174.447
  0
LINE
  8
0
 10
246.131
 11
246.319
 20
174.447
 21
174.447
  0
LINE
  8
0
 10
246.319
 11
246.506
 20
174.447
 21
174.423
  0
LINE
  8
0
 10
246.506
 11
246.689
 20
174.423
 21
174.377
  0
LINE
  8
0
 10
246.689
 11
246.864
 20
174.377
 21
174.307
  0
LINE
  8
0
 10
246.864
 11
247.029
 20
174.307
 21
174.216
  0
LINE
  8
0
 10
247.029
 11
247.181
 20
174.216
 21
174.106
  0
LINE
  8
0
 10
247.181
 11
247.318
 20
174.106
 21
173.977
  0
LINE
  8
0
 10
247.318
 11
247.439
 20
173.977
 21
173.832
  0
LINE
  8
0
 10
247.439
 11
247.539
 20
173.832
 21
173.673
  0
LINE
  8
0
 10
247.539
 11
247.62
 20
173.673
 21
173.502
  0
LINE
  8
0
 10
247.62
 11
247.678
 20
173.502
 21
173.323
  0
LINE
  8
0
 10
247.678
 11
247.713
 20
173.323
 21
173.138
  0
LINE
  8
0
 10
247.713
 11
247.725
 20
173.138
 21
172.95
  0
LINE
  8
0
 10
247.725
 11
247.713
 20
172.95
 21
172.762
  0
LINE
  8
0
 10
247.713
 11
247.678
 20
172.762
 21
172.577
  0
LINE
  8
0
 10
247.678
 11
247.62
 20
172.577
 21
172.398
  0
LINE
  8
0
 10
247.62
 11
247.539
 20
172.398
 21
172.227
  0
LINE
  8
0
 10
247.539
 11
247.439
 20
172.227
 21
172.068
  0
LINE
  8
0
 10
247.439
 11
247.318
 20
172.068
 21
171.923
  0
LINE
  8
0
 10
247.318
 11
247.181
 20
171.923
 21
171.794
  0
LINE
  8
0
 10
247.181
 11
247.029
 20
171.794
 21
171.684
  0
LINE
  8
0
 10
247.029
 11
246.864
 20
171.684
 21
171.593
  0
LINE
  8
0
 10
246.864
 11
246.689
 20
171.593
 21
171.523
  0
LINE
  8
0
 10
246.689
 11
246.506
 20
171.523
 21
171.477
  0
LINE
  8
0
 10
246.506
 11
246.319
 20
171.477
 21
171.453
  0
LINE
  8
0
 10
246.319
 11
246.131
 20
171.453
 21
171.453
  0
LINE
  8
0
 10
246.131
 11
245.944
 20
171.453
 21
171.477
  0
LINE
  8
0
 10
245.944
 11
245.761
 20
171.477
 21
171.523
  0
LINE
  8
0
 10
245.761
 11
245.586
 20
171.523
 21
171.593
  0
LINE
  8
0
 10
245.586
 11
245.421
 20
171.593
 21
171.684
  0
LINE
  8
0
 10
245.421
 11
245.269
 20
171.684
 21
171.794
  0
LINE
  8
0
 10
245.269
 11
245.132
 20
171.794
 21
171.923
  0
LINE
  8
0
 10
245.132
 11
245.011
 20
171.923
 21
172.068
  0
LINE
  8
0
 10
245.011
 11
244.911
 20
172.068
 21
172.227
  0
LINE
  8
0
 10
244.911
 11
244.83
 20
172.227
 21
172.398
  0
LINE
  8
0
 10
244.83
 11
244.772
 20
172.398
 21
172.577
  0
LINE
  8
0
 10
244.772
 11
244.737
 20
172.577
 21
172.762
  0
LINE
  8
0
 10
244.737
 11
244.725
 20
172.762
 21
172.95
  0
LINE
  8
0
 10
244.725
 11
244.737
 20
192.95
 21
193.138
  0
LINE
  8
0
 10
244.737
 11
244.772
 20
193.138
 21
193.323
  0
LINE
  8
0
 10
244.772
 11
244.83
 20
193.323
 21
193.502
  0
LINE
  8
0
 10
244.83
 11
244.911
 20
193.502
 21
193.673
  0
LINE
  8
0
 10
244.911
 11
245.011
 20
193.673
 21
193.832
  0
LINE
  8
0
 10
245.011
 11
245.132
 20
193.832
 21
193.977
  0
LINE
  8
0
 10
245.132
 11
245.269
 20
193.977
 21
194.106
  0
LINE
  8
0
 10
245.269
 11
245.421
 20
194.106
 21
194.216
  0
LINE
  8
0
 10
245.421
 11
245.586
 20
194.216
 21
194.307
  0
LINE
  8
0
 10
245.586
 11
245.761
 20
194.307
 21
194.377
  0
LINE
  8
0
 10
245.761
 11
245.944
 20
194.377
 21
194.423
  0
LINE
  8
0
 10
245.944
 11
246.131
 20
194.423
 21
194.447
  0
LINE
  8
0
 10
246.131
 11
246.319
 20
194.447
 21
194.447
  0
LINE
  8
0
 10
246.319
 11
246.506
 20
194.447
 21
194.423
  0
LINE
  8
0
 10
246.506
 11
246.689
 20
194.423
 21
194.377
  0
LINE
  8
0
 10
246.689
 11
246.864
 20
194.377
 21
194.307
  0
LINE
  8
0
 10
246.864
 11
247.029
 20
194.307
 21
194.216
  0
LINE
  8
0
 10
247.029
 11
247.181
 20
194.216
 21
194.106
  0
LINE
  8
0
 10
247.181
 11
247.318
 20
194.106
 21
193.977
  0
LINE
  8
0
 10
247.318
 11
247.439
 20
193.977
 21
193.832
  0
LINE
  8
0
 10
247.439
 11
247.539
 20
193.832
 21
193.673
  0
LINE
  8
0
 10
247.539
 11
247.62
 20
193.673
 21
193.502
  0
LINE
  8
0
 10
247.62
 11
247.678
 20
193.502
 21
193.323
  0
LINE
  8
0
 10
247.678
 11
247.713
 20
193.323
 21
193.138
  0
LINE
  8
0
 10
247.713
 11
247.725
 20
193.138
 21
192.95
  0
LINE
  8
0
 10
247.725
 11
247.713
 20
192.95
 21
192.762
  0
LINE
  8
0
 10
247.713
 11
247.678
 20
192.762
 21
192.577
  0
LINE
  8
0
 10
247.678
 11
247.62
 20
192.577
 21
192.398
  0
LINE
  8
0
 10
247.62
 11
247.539
 20
192.398
 21
192.227
  0
LINE
  8
0
 10
247.539
 11
247.439
 20
192.227
 21
192.068
  0
LINE
  8
0
 10
247.439
 11
247.318
 20
192.068
 21
191.923
  0
LINE
  8
0
 10
247.318
 11
247.181
 20
191.923
 21
191.794
  0
LINE
  8
0
 10
247.181
 11
247.029
 20
191.794
 21
191.684
  0
LINE
  8
0
 10
247.029
 11
246.864
 20
191.684
 21
191.593
  0
LINE
  8
0
 10
246.864
 11
246.689
 20
191.593
 21
191.523
  0
LINE
  8
0
 10
246.689
 11
246.506
 20
191.523
 21
191.477
  0
LINE
  8
0
 10
246.506
 11
246.319
 20
191.477
 21
191.453
  0
LINE
  8
0
 10
246.319
 11
246.131
 20
191.453
 21
191.453
  0
LINE
  8
0
 10
246.131
 11
245.944
 20
191.453
 21
191.477
  0
LINE
  8
0
 10
245.944
 11
245.761
 20
191.477
 21
191.523
  0
LINE
  8
0
 10
245.761
 11
245.586
 20
191.523
 21
191.593
  0
LINE
  8
0
 10
245.586
 11
245.421
 20
191.593
 21
191.684
  0
LINE
  8
0
 10
245.421
 11
245.269
 20
191.684
 21
191.794
  0
LINE
  8
0
 10
245.269
 11
245.132
 20
191.794
 21
191.923
  0
LINE
  8
0
 10
245.132
 11
245.011
 20
191.923
 21
192.068
  0
LINE
  8
0
 10
245.011
 11
244.911
 20
192.068
 21
192.227
  0
LINE
  8
0
 10
244.911
 11
244.83
 20
192.227
 21
192.398
  0
LINE
  8
0
 10
244.83
 11
244.772
 20
192.398
 21
192.577
  0
LINE
  8
0
 10
244.772
 11
244.737
 20
192.577
 21
192.762
  0
LINE
  8
0
 10
244.737
 11
244.725
 20
192.762
 21
192.95
  0
LINE
  8
0
 10
251.003
 11
251.003
 20
18.894
 21
19.082
  0
LINE
  8
0
 10
251.003
 11
251.027
 20
19.082
 21
19.269
  0
LINE
  8
0
 10
251.027
 11
251.073
 20
19.269
 21
19.452
  0
LINE
  8
0
 10
251.073
 11
251.143
 20
19.452
 21
19.627
  0
LINE
  8
0
 10
251.143
 11
251.234
 20
19.627
 21
19.792
  0
LINE
  8
0
 10
251.234
 11
251.344
 20
19.792
 21
19.944
  0
LINE
  8
0
 10
251.344
 11
251.473
 20
19.944
 21
20.08
  0
LINE
  8
0
 10
251.473
 11
251.618
 20
20.08
 21
20.202
  0
LINE
  8
0
 10
251.618
 11
251.777
 20
20.202
 21
20.301
  0
LINE
  8
0
 10
251.777
 11
251.948
 20
20.301
 21
20.383
  0
LINE
  8
0
 10
251.948
 11
252.127
 20
20.383
 21
20.441
  0
LINE
  8
0
 10
252.127
 11
252.312
 20
20.441
 21
20.476
  0
LINE
  8
0
 10
252.312
 11
252.5
 20
20.476
 21
20.487
  0
LINE
  8
0
 10
252.5
 11
252.688
 20
20.487
 21
20.476
  0
LINE
  8
0
 10
252.688
 11
252.873
 20
20.476
 21
20.441
  0
LINE
  8
0
 10
252.873
 11
253.052
 20
20.441
 21
20.383
  0
LINE
  8
0
 10
253.052
 11
253.223
 20
20.383
 21
20.301
  0
LINE
  8
0
 10
253.223
 11
253.382
 20
20.301
 21
20.202
  0
LINE
  8
0
 10
253.382
 11
253.527
 20
20.202
 21
20.08
  0
LINE
  8
0
 10
253.527
 11
253.656
 20
20.08
 21
19.944
  0
LINE
  8
0
 10
253.656
 11
253.766
 20
19.944
 21
19.792
  0
LINE
  8
0
 10
253.766
 11
253.857
 20
19.792
 21
19.627
  0
LINE
  8
0
 10
253.857
 11
253.927
 20
19.627
 21
19.452
  0
LINE
  8
0
 10
253.927
 11
253.973
 20
19.452
 21
19.269
  0
LINE
  8
0
 10
253.973
 11
253.997
 20
19.269
 21
19.082
  0
LINE
  8
0
 10
253.997
 11
253.997
 20
19.082
 21
18.894
  0
LINE
  8
0
 10
253.997
 11
253.973
 20
18.894
 21
18.707
  0
LINE
  8
0
 10
253.973
 11
253.927
 20
18.707
 21
18.524
  0
LINE
  8
0
 10
253.927
 11
253.857
 20
18.524
 21
18.348
  0
LINE
  8
0
 10
253.857
 11
253.766
 20
18.348
 21
18.183
  0
LINE
  8
0
 10
253.766
 11
253.656
 20
18.183
 21
18.032
  0
LINE
  8
0
 10
253.656
 11
253.527
 20
18.032
 21
17.895
  0
LINE
  8
0
 10
253.527
 11
253.382
 20
17.895
 21
17.774
  0
LINE
  8
0
 10
253.382
 11
253.223
 20
17.774
 21
17.674
  0
LINE
  8
0
 10
253.223
 11
253.052
 20
17.674
 21
17.593
  0
LINE
  8
0
 10
253.052
 11
252.873
 20
17.593
 21
17.535
  0
LINE
  8
0
 10
252.873
 11
252.688
 20
17.535
 21
17.5
  0
LINE
  8
0
 10
252.688
 11
252.5
 20
17.5
 21
17.488
  0
LINE
  8
0
 10
252.5
 11
252.312
 20
17.488
 21
17.5
  0
LINE
  8
0
 10
252.312
 11
252.127
 20
17.5
 21
17.535
  0
LINE
  8
0
 10
252.127
 11
251.948
 20
17.535
 21
17.593
  0
LINE
  8
0
 10
251.948
 11
251.777
 20
17.593
 21
17.674
  0
LINE
  8
0
 10
251.777
 11
251.618
 20
17.674
 21
17.774
  0
LINE
  8
0
 10
251.618
 11
251.473
 20
17.774
 21
17.895
  0
LINE
  8
0
 10
251.473
 11
251.344
 20
17.895
 21
18.032
  0
LINE
  8
0
 10
251.344
 11
251.234
 20
18.032
 21
18.183
  0
LINE
  8
0
 10
251.234
 11
251.143
 20
18.183
 21
18.348
  0
LINE
  8
0
 10
251.143
 11
251.073
 20
18.348
 21
18.524
  0
LINE
  8
0
 10
251.073
 11
251.027
 20
18.524
 21
18.707
  0
LINE
  8
0
 10
251.027
 11
251.003
 20
18.707
 21
18.894
  0
LINE
  8
0
 10
251.003
 11
251.003
 20
77.068
 21
77.256
  0
LINE
  8
0
 10
251.003
 11
251.027
 20
77.256
 21
77.443
  0
LINE
  8
0
 10
251.027
 11
251.073
 20
77.443
 21
77.626
  0
LINE
  8
0
 10
251.073
 11
251.143
 20
77.626
 21
77.802
  0
LINE
  8
0
 10
251.143
 11
251.234
 20
77.802
 21
77.967
  0
LINE
  8
0
 10
251.234
 11
251.344
 20
77.967
 21
78.119
  0
LINE
  8
0
 10
251.344
 11
251.473
 20
78.119
 21
78.256
  0
LINE
  8
0
 10
251.473
 11
251.618
 20
78.256
 21
78.376
  0
LINE
  8
0
 10
251.618
 11
251.777
 20
78.376
 21
78.476
  0
LINE
  8
0
 10
251.777
 11
251.948
 20
78.476
 21
78.558
  0
LINE
  8
0
 10
251.948
 11
252.127
 20
78.558
 21
78.615
  0
LINE
  8
0
 10
252.127
 11
252.312
 20
78.615
 21
78.651
  0
LINE
  8
0
 10
252.312
 11
252.5
 20
78.651
 21
78.663
  0
LINE
  8
0
 10
252.5
 11
252.688
 20
78.663
 21
78.651
  0
LINE
  8
0
 10
252.688
 11
252.873
 20
78.651
 21
78.615
  0
LINE
  8
0
 10
252.873
 11
253.052
 20
78.615
 21
78.558
  0
LINE
  8
0
 10
253.052
 11
253.223
 20
78.558
 21
78.476
  0
LINE
  8
0
 10
253.223
 11
253.382
 20
78.476
 21
78.376
  0
LINE
  8
0
 10
253.382
 11
253.527
 20
78.376
 21
78.256
  0
LINE
  8
0
 10
253.527
 11
253.656
 20
78.256
 21
78.119
  0
LINE
  8
0
 10
253.656
 11
253.766
 20
78.119
 21
77.967
  0
LINE
  8
0
 10
253.766
 11
253.857
 20
77.967
 21
77.802
  0
LINE
  8
0
 10
253.857
 11
253.927
 20
77.802
 21
77.626
  0
LINE
  8
0
 10
253.927
 11
253.973
 20
77.626
 21
77.443
  0
LINE
  8
0
 10
253.973
 11
253.997
 20
77.443
 21
77.256
  0
LINE
  8
0
 10
253.997
 11
253.997
 20
77.256
 21
77.068
  0
LINE
  8
0
 10
253.997
 11
253.973
 20
77.068
 21
76.881
  0
LINE
  8
0
 10
253.973
 11
253.927
 20
76.881
 21
76.698
  0
LINE
  8
0
 10
253.927
 11
253.857
 20
76.698
 21
76.524
  0
LINE
  8
0
 10
253.857
 11
253.766
 20
76.524
 21
76.358
  0
LINE
  8
0
 10
253.766
 11
253.656
 20
76.358
 21
76.207
  0
LINE
  8
0
 10
253.656
 11
253.527
 20
76.207
 21
76.07
  0
LINE
  8
0
 10
253.527
 11
253.382
 20
76.07
 21
75.948
  0
LINE
  8
0
 10
253.382
 11
253.223
 20
75.948
 21
75.848
  0
LINE
  8
0
 10
253.223
 11
253.052
 20
75.848
 21
75.768
  0
LINE
  8
0
 10
253.052
 11
252.873
 20
75.768
 21
75.71
  0
LINE
  8
0
 10
252.873
 11
252.688
 20
75.71
 21
75.674
  0
LINE
  8
0
 10
252.688
 11
252.5
 20
75.674
 21
75.662
  0
LINE
  8
0
 10
252.5
 11
252.312
 20
75.662
 21
75.674
  0
LINE
  8
0
 10
252.312
 11
252.127
 20
75.674
 21
75.71
  0
LINE
  8
0
 10
252.127
 11
251.948
 20
75.71
 21
75.768
  0
LINE
  8
0
 10
251.948
 11
251.777
 20
75.768
 21
75.848
  0
LINE
  8
0
 10
251.777
 11
251.618
 20
75.848
 21
75.948
  0
LINE
  8
0
 10
251.618
 11
251.473
 20
75.948
 21
76.07
  0
LINE
  8
0
 10
251.473
 11
251.344
 20
76.07
 21
76.207
  0
LINE
  8
0
 10
251.344
 11
251.234
 20
76.207
 21
76.358
  0
LINE
  8
0
 10
251.234
 11
251.143
 20
76.358
 21
76.524
  0
LINE
  8
0
 10
251.143
 11
251.073
 20
76.524
 21
76.698
  0
LINE
  8
0
 10
251.073
 11
251.027
 20
76.698
 21
76.881
  0
LINE
  8
0
 10
251.027
 11
251.003
 20
76.881
 21
77.068
  0
LINE
  8
0
 10
253.725
 11
253.745
 20
182.95
 21
183.263
  0
LINE
  8
0
 10
253.745
 11
253.804
 20
183.263
 21
183.572
  0
LINE
  8
0
 10
253.804
 11
253.901
 20
183.572
 21
183.87
  0
LINE
  8
0
 10
253.901
 11
254.034
 20
183.87
 21
184.154
  0
LINE
  8
0
 10
254.034
 11
254.202
 20
184.154
 21
184.419
  0
LINE
  8
0
 10
254.202
 11
254.403
 20
184.419
 21
184.661
  0
LINE
  8
0
 10
254.403
 11
254.631
 20
184.661
 21
184.876
  0
LINE
  8
0
 10
254.631
 11
254.885
 20
184.876
 21
185.061
  0
LINE
  8
0
 10
254.885
 11
255.161
 20
185.061
 21
185.212
  0
LINE
  8
0
 10
255.161
 11
255.452
 20
185.212
 21
185.328
  0
LINE
  8
0
 10
255.452
 11
255.757
 20
185.328
 21
185.406
  0
LINE
  8
0
 10
255.757
 11
256.068
 20
185.406
 21
185.445
  0
LINE
  8
0
 10
256.068
 11
256.382
 20
185.445
 21
185.445
  0
LINE
  8
0
 10
256.382
 11
256.693
 20
185.445
 21
185.406
  0
LINE
  8
0
 10
256.693
 11
256.998
 20
185.406
 21
185.328
  0
LINE
  8
0
 10
256.998
 11
257.289
 20
185.328
 21
185.212
  0
LINE
  8
0
 10
257.289
 11
257.565
 20
185.212
 21
185.061
  0
LINE
  8
0
 10
257.565
 11
257.819
 20
185.061
 21
184.876
  0
LINE
  8
0
 10
257.819
 11
258.047
 20
184.876
 21
184.661
  0
LINE
  8
0
 10
258.047
 11
258.248
 20
184.661
 21
184.419
  0
LINE
  8
0
 10
258.248
 11
258.416
 20
184.419
 21
184.154
  0
LINE
  8
0
 10
258.416
 11
258.549
 20
184.154
 21
183.87
  0
LINE
  8
0
 10
258.549
 11
258.646
 20
183.87
 21
183.572
  0
LINE
  8
0
 10
258.646
 11
258.705
 20
183.572
 21
183.263
  0
LINE
  8
0
 10
258.705
 11
258.725
 20
183.263
 21
182.95
  0
LINE
  8
0
 10
258.725
 11
258.705
 20
182.95
 21
182.637
  0
LINE
  8
0
 10
258.705
 11
258.646
 20
182.637
 21
182.328
  0
LINE
  8
0
 10
258.646
 11
258.549
 20
182.328
 21
182.03
  0
LINE
  8
0
 10
258.549
 11
258.416
 20
182.03
 21
181.746
  0
LINE
  8
0
 10
258.416
 11
258.248
 20
181.746
 21
181.481
  0
LINE
  8
0
 10
258.248
 11
258.047
 20
181.481
 21
181.239
  0
LINE
  8
0
 10
258.047
 11
257.819
 20
181.239
 21
181.024
  0
LINE
  8
0
 10
257.819
 11
257.565
 20
181.024
 21
180.839
  0
LINE
  8
0
 10
257.565
 11
257.289
 20
180.839
 21
180.688
  0
LINE
  8
0
 10
257.289
 11
256.998
 20
180.688
 21
180.572
  0
LINE
  8
0
 10
256.998
 11
256.693
 20
180.572
 21
180.494
  0
LINE
  8
0
 10
256.693
 11
256.382
 20
180.494
 21
180.455
  0
LINE
  8
0
 10
256.382
 11
256.068
 20
180.455
 21
180.455
  0
LINE
  8
0
 10
256.068
 11
255.757
 20
180.455
 21
180.494
  0
LINE
  8
0
 10
255.757
 11
255.452
 20
180.494
 21
180.572
  0
LINE
  8
0
 10
255.452
 11
255.161
 20
180.572
 21
180.688
  0
LINE
  8
0
 10
255.161
 11
254.885
 20
180.688
 21
180.839
  0
LINE
  8
0
 10
254.885
 11
254.631
 20
180.839
 21
181.024
  0
LINE
  8
0
 10
254.631
 11
254.403
 20
181.024
 21
181.239
  0
LINE
  8
0
 10
254.403
 11
254.202
 20
181.239
 21
181.481
  0
LINE
  8
0
 10
254.202
 11
254.034
 20
181.481
 21
181.746
  0
LINE
  8
0
 10
254.034
 11
253.901
 20
181.746
 21
182.03
  0
LINE
  8
0
 10
253.901
 11
253.804
 20
182.03
 21
182.328
  0
LINE
  8
0
 10
253.804
 11
253.745
 20
182.328
 21
182.637
  0
LINE
  8
0
 10
253.745
 11
253.725
 20
182.637
 21
182.95
  0
LINE
  8
0
 10
254.725
 11
254.737
 20
92.15
 21
92.338
  0
LINE
  8
0
 10
254.737
 11
254.772
 20
92.338
 21
92.523
  0
LINE
  8
0
 10
254.772
 11
254.83
 20
92.523
 21
92.702
  0
LINE
  8
0
 10
254.83
 11
254.911
 20
92.702
 21
92.873
  0
LINE
  8
0
 10
254.911
 11
255.011
 20
92.873
 21
93.032
  0
LINE
  8
0
 10
255.011
 11
255.132
 20
93.032
 21
93.177
  0
LINE
  8
0
 10
255.132
 11
255.269
 20
93.177
 21
93.306
  0
LINE
  8
0
 10
255.269
 11
255.421
 20
93.306
 21
93.416
  0
LINE
  8
0
 10
255.421
 11
255.586
 20
93.416
 21
93.507
  0
LINE
  8
0
 10
255.586
 11
255.761
 20
93.507
 21
93.577
  0
LINE
  8
0
 10
255.761
 11
255.944
 20
93.577
 21
93.623
  0
LINE
  8
0
 10
255.944
 11
256.131
 20
93.623
 21
93.647
  0
LINE
  8
0
 10
256.131
 11
256.319
 20
93.647
 21
93.647
  0
LINE
  8
0
 10
256.319
 11
256.506
 20
93.647
 21
93.623
  0
LINE
  8
0
 10
256.506
 11
256.689
 20
93.623
 21
93.577
  0
LINE
  8
0
 10
256.689
 11
256.864
 20
93.577
 21
93.507
  0
LINE
  8
0
 10
256.864
 11
257.029
 20
93.507
 21
93.416
  0
LINE
  8
0
 10
257.029
 11
257.181
 20
93.416
 21
93.306
  0
LINE
  8
0
 10
257.181
 11
257.318
 20
93.306
 21
93.177
  0
LINE
  8
0
 10
257.318
 11
257.439
 20
93.177
 21
93.032
  0
LINE
  8
0
 10
257.439
 11
257.539
 20
93.032
 21
92.873
  0
LINE
  8
0
 10
257.539
 11
257.62
 20
92.873
 21
92.702
  0
LINE
  8
0
 10
257.62
 11
257.678
 20
92.702
 21
92.523
  0
LINE
  8
0
 10
257.678
 11
257.713
 20
92.523
 21
92.338
  0
LINE
  8
0
 10
257.713
 11
257.725
 20
92.338
 21
92.15
  0
LINE
  8
0
 10
257.725
 11
257.713
 20
92.15
 21
91.962
  0
LINE
  8
0
 10
257.713
 11
257.678
 20
91.962
 21
91.777
  0
LINE
  8
0
 10
257.678
 11
257.62
 20
91.777
 21
91.598
  0
LINE
  8
0
 10
257.62
 11
257.539
 20
91.598
 21
91.427
  0
LINE
  8
0
 10
257.539
 11
257.439
 20
91.427
 21
91.268
  0
LINE
  8
0
 10
257.439
 11
257.318
 20
91.268
 21
91.123
  0
LINE
  8
0
 10
257.318
 11
257.181
 20
91.123
 21
90.994
  0
LINE
  8
0
 10
257.181
 11
257.029
 20
90.994
 21
90.884
  0
LINE
  8
0
 10
257.029
 11
256.864
 20
90.884
 21
90.793
  0
LINE
  8
0
 10
256.864
 11
256.689
 20
90.793
 21
90.723
  0
LINE
  8
0
 10
256.689
 11
256.506
 20
90.723
 21
90.677
  0
LINE
  8
0
 10
256.506
 11
256.319
 20
90.677
 21
90.653
  0
LINE
  8
0
 10
256.319
 11
256.131
 20
90.653
 21
90.653
  0
LINE
  8
0
 10
256.131
 11
255.944
 20
90.653
 21
90.677
  0
LINE
  8
0
 10
255.944
 11
255.761
 20
90.677
 21
90.723
  0
LINE
  8
0
 10
255.761
 11
255.586
 20
90.723
 21
90.793
  0
LINE
  8
0
 10
255.586
 11
255.421
 20
90.793
 21
90.884
  0
LINE
  8
0
 10
255.421
 11
255.269
 20
90.884
 21
90.994
  0
LINE
  8
0
 10
255.269
 11
255.132
 20
90.994
 21
91.123
  0
LINE
  8
0
 10
255.132
 11
255.011
 20
91.123
 21
91.268
  0
LINE
  8
0
 10
255.011
 11
254.911
 20
91.268
 21
91.427
  0
LINE
  8
0
 10
254.911
 11
254.83
 20
91.427
 21
91.598
  0
LINE
  8
0
 10
254.83
 11
254.772
 20
91.598
 21
91.777
  0
LINE
  8
0
 10
254.772
 11
254.737
 20
91.777
 21
91.962
  0
LINE
  8
0
 10
254.737
 11
254.725
 20
91.962
 21
92.15
  0
LINE
  8
0
 10
254.725
 11
254.737
 20
112.15
 21
112.338
  0
LINE
  8
0
 10
254.737
 11
254.772
 20
112.338
 21
112.523
  0
LINE
  8
0
 10
254.772
 11
254.83
 20
112.523
 21
112.702
  0
LINE
  8
0
 10
254.83
 11
254.911
 20
112.702
 21
112.873
  0
LINE
  8
0
 10
254.911
 11
255.011
 20
112.873
 21
113.032
  0
LINE
  8
0
 10
255.011
 11
255.132
 20
113.032
 21
113.177
  0
LINE
  8
0
 10
255.132
 11
255.269
 20
113.177
 21
113.306
  0
LINE
  8
0
 10
255.269
 11
255.421
 20
113.306
 21
113.416
  0
LINE
  8
0
 10
255.421
 11
255.586
 20
113.416
 21
113.507
  0
LINE
  8
0
 10
255.586
 11
255.761
 20
113.507
 21
113.577
  0
LINE
  8
0
 10
255.761
 11
255.944
 20
113.577
 21
113.623
  0
LINE
  8
0
 10
255.944
 11
256.131
 20
113.623
 21
113.647
  0
LINE
  8
0
 10
256.131
 11
256.319
 20
113.647
 21
113.647
  0
LINE
  8
0
 10
256.319
 11
256.506
 20
113.647
 21
113.623
  0
LINE
  8
0
 10
256.506
 11
256.689
 20
113.623
 21
113.577
  0
LINE
  8
0
 10
256.689
 11
256.864
 20
113.577
 21
113.507
  0
LINE
  8
0
 10
256.864
 11
257.029
 20
113.507
 21
113.416
  0
LINE
  8
0
 10
257.029
 11
257.181
 20
113.416
 21
113.306
  0
LINE
  8
0
 10
257.181
 11
257.318
 20
113.306
 21
113.177
  0
LINE
  8
0
 10
257.318
 11
257.439
 20
113.177
 21
113.032
  0
LINE
  8
0
 10
257.439
 11
257.539
 20
113.032
 21
112.873
  0
LINE
  8
0
 10
257.539
 11
257.62
 20
112.873
 21
112.702
  0
LINE
  8
0
 10
257.62
 11
257.678
 20
112.702
 21
112.523
  0
LINE
  8
0
 10
257.678
 11
257.713
 20
112.523
 21
112.338
  0
LINE
  8
0
 10
257.713
 11
257.725
 20
112.338
 21
112.15
  0
LINE
  8
0
 10
257.725
 11
257.713
 20
112.15
 21
111.962
  0
LINE
  8
0
 10
257.713
 11
257.678
 20
111.962
 21
111.777
  0
LINE
  8
0
 10
257.678
 11
257.62
 20
111.777
 21
111.598
  0
LINE
  8
0
 10
257.62
 11
257.539
 20
111.598
 21
111.427
  0
LINE
  8
0
 10
257.539
 11
257.439
 20
111.427
 21
111.268
  0
LINE
  8
0
 10
257.439
 11
257.318
 20
111.268
 21
111.123
  0
LINE
  8
0
 10
257.318
 11
257.181
 20
111.123
 21
110.994
  0
LINE
  8
0
 10
257.181
 11
257.029
 20
110.994
 21
110.884
  0
LINE
  8
0
 10
257.029
 11
256.864
 20
110.884
 21
110.793
  0
LINE
  8
0
 10
256.864
 11
256.689
 20
110.793
 21
110.723
  0
LINE
  8
0
 10
256.689
 11
256.506
 20
110.723
 21
110.677
  0
LINE
  8
0
 10
256.506
 11
256.319
 20
110.677
 21
110.653
  0
LINE
  8
0
 10
256.319
 11
256.131
 20
110.653
 21
110.653
  0
LINE
  8
0
 10
256.131
 11
255.944
 20
110.653
 21
110.677
  0
LINE
  8
0
 10
255.944
 11
255.761
 20
110.677
 21
110.723
  0
LINE
  8
0
 10
255.761
 11
255.586
 20
110.723
 21
110.793
  0
LINE
  8
0
 10
255.586
 11
255.421
 20
110.793
 21
110.884
  0
LINE
  8
0
 10
255.421
 11
255.269
 20
110.884
 21
110.994
  0
LINE
  8
0
 10
255.269
 11
255.132
 20
110.994
 21
111.123
  0
LINE
  8
0
 10
255.132
 11
255.011
 20
111.123
 21
111.268
  0
LINE
  8
0
 10
255.011
 11
254.911
 20
111.268
 21
111.427
  0
LINE
  8
0
 10
254.911
 11
254.83
 20
111.427
 21
111.598
  0
LINE
  8
0
 10
254.83
 11
254.772
 20
111.598
 21
111.777
  0
LINE
  8
0
 10
254.772
 11
254.737
 20
111.777
 21
111.962
  0
LINE
  8
0
 10
254.737
 11
254.725
 20
111.962
 21
112.15
  0
LINE
  8
0
 10
254.725
 11
254.737
 20
132.55
 21
132.738
  0
LINE
  8
0
 10
254.737
 11
254.772
 20
132.738
 21
132.923
  0
LINE
  8
0
 10
254.772
 11
254.83
 20
132.923
 21
133.102
  0
LINE
  8
0
 10
254.83
 11
254.911
 20
133.102
 21
133.273
  0
LINE
  8
0
 10
254.911
 11
255.011
 20
133.273
 21
133.432
  0
LINE
  8
0
 10
255.011
 11
255.132
 20
133.432
 21
133.577
  0
LINE
  8
0
 10
255.132
 11
255.269
 20
133.577
 21
133.706
  0
LINE
  8
0
 10
255.269
 11
255.421
 20
133.706
 21
133.816
  0
LINE
  8
0
 10
255.421
 11
255.586
 20
133.816
 21
133.907
  0
LINE
  8
0
 10
255.586
 11
255.761
 20
133.907
 21
133.977
  0
LINE
  8
0
 10
255.761
 11
255.944
 20
133.977
 21
134.023
  0
LINE
  8
0
 10
255.944
 11
256.131
 20
134.023
 21
134.047
  0
LINE
  8
0
 10
256.131
 11
256.319
 20
134.047
 21
134.047
  0
LINE
  8
0
 10
256.319
 11
256.506
 20
134.047
 21
134.023
  0
LINE
  8
0
 10
256.506
 11
256.689
 20
134.023
 21
133.977
  0
LINE
  8
0
 10
256.689
 11
256.864
 20
133.977
 21
133.907
  0
LINE
  8
0
 10
256.864
 11
257.029
 20
133.907
 21
133.816
  0
LINE
  8
0
 10
257.029
 11
257.181
 20
133.816
 21
133.706
  0
LINE
  8
0
 10
257.181
 11
257.318
 20
133.706
 21
133.577
  0
LINE
  8
0
 10
257.318
 11
257.439
 20
133.577
 21
133.432
  0
LINE
  8
0
 10
257.439
 11
257.539
 20
133.432
 21
133.273
  0
LINE
  8
0
 10
257.539
 11
257.62
 20
133.273
 21
133.102
  0
LINE
  8
0
 10
257.62
 11
257.678
 20
133.102
 21
132.923
  0
LINE
  8
0
 10
257.678
 11
257.713
 20
132.923
 21
132.738
  0
LINE
  8
0
 10
257.713
 11
257.725
 20
132.738
 21
132.55
  0
LINE
  8
0
 10
257.725
 11
257.713
 20
132.55
 21
132.362
  0
LINE
  8
0
 10
257.713
 11
257.678
 20
132.362
 21
132.177
  0
LINE
  8
0
 10
257.678
 11
257.62
 20
132.177
 21
131.998
  0
LINE
  8
0
 10
257.62
 11
257.539
 20
131.998
 21
131.827
  0
LINE
  8
0
 10
257.539
 11
257.439
 20
131.827
 21
131.668
  0
LINE
  8
0
 10
257.439
 11
257.318
 20
131.668
 21
131.523
  0
LINE
  8
0
 10
257.318
 11
257.181
 20
131.523
 21
131.394
  0
LINE
  8
0
 10
257.181
 11
257.029
 20
131.394
 21
131.284
  0
LINE
  8
0
 10
257.029
 11
256.864
 20
131.284
 21
131.193
  0
LINE
  8
0
 10
256.864
 11
256.689
 20
131.193
 21
131.123
  0
LINE
  8
0
 10
256.689
 11
256.506
 20
131.123
 21
131.077
  0
LINE
  8
0
 10
256.506
 11
256.319
 20
131.077
 21
131.053
  0
LINE
  8
0
 10
256.319
 11
256.131
 20
131.053
 21
131.053
  0
LINE
  8
0
 10
256.131
 11
255.944
 20
131.053
 21
131.077
  0
LINE
  8
0
 10
255.944
 11
255.761
 20
131.077
 21
131.123
  0
LINE
  8
0
 10
255.761
 11
255.586
 20
131.123
 21
131.193
  0
LINE
  8
0
 10
255.586
 11
255.421
 20
131.193
 21
131.284
  0
LINE
  8
0
 10
255.421
 11
255.269
 20
131.284
 21
131.394
  0
LINE
  8
0
 10
255.269
 11
255.132
 20
131.394
 21
131.523
  0
LINE
  8
0
 10
255.132
 11
255.011
 20
131.523
 21
131.668
  0
LINE
  8
0
 10
255.011
 11
254.911
 20
131.668
 21
131.827
  0
LINE
  8
0
 10
254.911
 11
254.83
 20
131.827
 21
131.998
  0
LINE
  8
0
 10
254.83
 11
254.772
 20
131.998
 21
132.177
  0
LINE
  8
0
 10
254.772
 11
254.737
 20
132.177
 21
132.362
  0
LINE
  8
0
 10
254.737
 11
254.725
 20
132.362
 21
132.55
  0
LINE
  8
0
 10
254.725
 11
254.737
 20
152.55
 21
152.738
  0
LINE
  8
0
 10
254.737
 11
254.772
 20
152.738
 21
152.923
  0
LINE
  8
0
 10
254.772
 11
254.83
 20
152.923
 21
153.102
  0
LINE
  8
0
 10
254.83
 11
254.911
 20
153.102
 21
153.273
  0
LINE
  8
0
 10
254.911
 11
255.011
 20
153.273
 21
153.432
  0
LINE
  8
0
 10
255.011
 11
255.132
 20
153.432
 21
153.577
  0
LINE
  8
0
 10
255.132
 11
255.269
 20
153.577
 21
153.706
  0
LINE
  8
0
 10
255.269
 11
255.421
 20
153.706
 21
153.816
  0
LINE
  8
0
 10
255.421
 11
255.586
 20
153.816
 21
153.907
  0
LINE
  8
0
 10
255.586
 11
255.761
 20
153.907
 21
153.977
  0
LINE
  8
0
 10
255.761
 11
255.944
 20
153.977
 21
154.023
  0
LINE
  8
0
 10
255.944
 11
256.131
 20
154.023
 21
154.047
  0
LINE
  8
0
 10
256.131
 11
256.319
 20
154.047
 21
154.047
  0
LINE
  8
0
 10
256.319
 11
256.506
 20
154.047
 21
154.023
  0
LINE
  8
0
 10
256.506
 11
256.689
 20
154.023
 21
153.977
  0
LINE
  8
0
 10
256.689
 11
256.864
 20
153.977
 21
153.907
  0
LINE
  8
0
 10
256.864
 11
257.029
 20
153.907
 21
153.816
  0
LINE
  8
0
 10
257.029
 11
257.181
 20
153.816
 21
153.706
  0
LINE
  8
0
 10
257.181
 11
257.318
 20
153.706
 21
153.577
  0
LINE
  8
0
 10
257.318
 11
257.439
 20
153.577
 21
153.432
  0
LINE
  8
0
 10
257.439
 11
257.539
 20
153.432
 21
153.273
  0
LINE
  8
0
 10
257.539
 11
257.62
 20
153.273
 21
153.102
  0
LINE
  8
0
 10
257.62
 11
257.678
 20
153.102
 21
152.923
  0
LINE
  8
0
 10
257.678
 11
257.713
 20
152.923
 21
152.738
  0
LINE
  8
0
 10
257.713
 11
257.725
 20
152.738
 21
152.55
  0
LINE
  8
0
 10
257.725
 11
257.713
 20
152.55
 21
152.362
  0
LINE
  8
0
 10
257.713
 11
257.678
 20
152.362
 21
152.177
  0
LINE
  8
0
 10
257.678
 11
257.62
 20
152.177
 21
151.998
  0
LINE
  8
0
 10
257.62
 11
257.539
 20
151.998
 21
151.827
  0
LINE
  8
0
 10
257.539
 11
257.439
 20
151.827
 21
151.668
  0
LINE
  8
0
 10
257.439
 11
257.318
 20
151.668
 21
151.523
  0
LINE
  8
0
 10
257.318
 11
257.181
 20
151.523
 21
151.394
  0
LINE
  8
0
 10
257.181
 11
257.029
 20
151.394
 21
151.284
  0
LINE
  8
0
 10
257.029
 11
256.864
 20
151.284
 21
151.193
  0
LINE
  8
0
 10
256.864
 11
256.689
 20
151.193
 21
151.123
  0
LINE
  8
0
 10
256.689
 11
256.506
 20
151.123
 21
151.077
  0
LINE
  8
0
 10
256.506
 11
256.319
 20
151.077
 21
151.053
  0
LINE
  8
0
 10
256.319
 11
256.131
 20
151.053
 21
151.053
  0
LINE
  8
0
 10
256.131
 11
255.944
 20
151.053
 21
151.077
  0
LINE
  8
0
 10
255.944
 11
255.761
 20
151.077
 21
151.123
  0
LINE
  8
0
 10
255.761
 11
255.586
 20
151.123
 21
151.193
  0
LINE
  8
0
 10
255.586
 11
255.421
 20
151.193
 21
151.284
  0
LINE
  8
0
 10
255.421
 11
255.269
 20
151.284
 21
151.394
  0
LINE
  8
0
 10
255.269
 11
255.132
 20
151.394
 21
151.523
  0
LINE
  8
0
 10
255.132
 11
255.011
 20
151.523
 21
151.668
  0
LINE
  8
0
 10
255.011
 11
254.911
 20
151.668
 21
151.827
  0
LINE
  8
0
 10
254.911
 11
254.83
 20
151.827
 21
151.998
  0
LINE
  8
0
 10
254.83
 11
254.772
 20
151.998
 21
152.177
  0
LINE
  8
0
 10
254.772
 11
254.737
 20
152.177
 21
152.362
  0
LINE
  8
0
 10
254.737
 11
254.725
 20
152.362
 21
152.55
  0
LINE
  8
0
 10
261
 11
261
 20
17.4
 21
20.575
  0
LINE
  8
0
 10
261
 11
271
 20
20.575
 21
20.575
  0
LINE
  8
0
 10
271
 11
271
 20
20.575
 21
17.4
  0
LINE
  8
0
 10
271
 11
261
 20
17.4
 21
17.4
  0
LINE
  8
0
 10
261
 11
261
 20
75.575
 21
78.75
  0
LINE
  8
0
 10
261
 11
271
 20
78.75
 21
78.75
  0
LINE
  8
0
 10
271
 11
271
 20
78.75
 21
75.575
  0
LINE
  8
0
 10
271
 11
261
 20
75.575
 21
75.575
  0
LINE
  8
0
 10
264.725
 11
264.737
 20
172.95
 21
173.138
  0
LINE
  8
0
 10
264.737
 11
264.772
 20
173.138
 21
173.323
  0
LINE
  8
0
 10
264.772
 11
264.83
 20
173.323
 21
173.502
  0
LINE
  8
0
 10
264.83
 11
264.911
 20
173.502
 21
173.673
  0
LINE
  8
0
 10
264.911
 11
265.011
 20
173.673
 21
173.832
  0
LINE
  8
0
 10
265.011
 11
265.132
 20
173.832
 21
173.977
  0
LINE
  8
0
 10
265.132
 11
265.269
 20
173.977
 21
174.106
  0
LINE
  8
0
 10
265.269
 11
265.421
 20
174.106
 21
174.216
  0
LINE
  8
0
 10
265.421
 11
265.586
 20
174.216
 21
174.307
  0
LINE
  8
0
 10
265.586
 11
265.761
 20
174.307
 21
174.377
  0
LINE
  8
0
 10
265.761
 11
265.944
 20
174.377
 21
174.423
  0
LINE
  8
0
 10
265.944
 11
266.131
 20
174.423
 21
174.447
  0
LINE
  8
0
 10
266.131
 11
266.319
 20
174.447
 21
174.447
  0
LINE
  8
0
 10
266.319
 11
266.506
 20
174.447
 21
174.423
  0
LINE
  8
0
 10
266.506
 11
266.689
 20
174.423
 21
174.377
  0
LINE
  8
0
 10
266.689
 11
266.864
 20
174.377
 21
174.307
  0
LINE
  8
0
 10
266.864
 11
267.029
 20
174.307
 21
174.216
  0
LINE
  8
0
 10
267.029
 11
267.181
 20
174.216
 21
174.106
  0
LINE
  8
0
 10
267.181
 11
267.318
 20
174.106
 21
173.977
  0
LINE
  8
0
 10
267.318
 11
267.439
 20
173.977
 21
173.832
  0
LINE
  8
0
 10
267.439
 11
267.539
 20
173.832
 21
173.673
  0
LINE
  8
0
 10
267.539
 11
267.62
 20
173.673
 21
173.502
  0
LINE
  8
0
 10
267.62
 11
267.678
 20
173.502
 21
173.323
  0
LINE
  8
0
 10
267.678
 11
267.713
 20
173.323
 21
173.138
  0
LINE
  8
0
 10
267.713
 11
267.725
 20
173.138
 21
172.95
  0
LINE
  8
0
 10
267.725
 11
267.713
 20
172.95
 21
172.762
  0
LINE
  8
0
 10
267.713
 11
267.678
 20
172.762
 21
172.577
  0
LINE
  8
0
 10
267.678
 11
267.62
 20
172.577
 21
172.398
  0
LINE
  8
0
 10
267.62
 11
267.539
 20
172.398
 21
172.227
  0
LINE
  8
0
 10
267.539
 11
267.439
 20
172.227
 21
172.068
  0
LINE
  8
0
 10
267.439
 11
267.318
 20
172.068
 21
171.923
  0
LINE
  8
0
 10
267.318
 11
267.181
 20
171.923
 21
171.794
  0
LINE
  8
0
 10
267.181
 11
267.029
 20
171.794
 21
171.684
  0
LINE
  8
0
 10
267.029
 11
266.864
 20
171.684
 21
171.593
  0
LINE
  8
0
 10
266.864
 11
266.689
 20
171.593
 21
171.523
  0
LINE
  8
0
 10
266.689
 11
266.506
 20
171.523
 21
171.477
  0
LINE
  8
0
 10
266.506
 11
266.319
 20
171.477
 21
171.453
  0
LINE
  8
0
 10
266.319
 11
266.131
 20
171.453
 21
171.453
  0
LINE
  8
0
 10
266.131
 11
265.944
 20
171.453
 21
171.477
  0
LINE
  8
0
 10
265.944
 11
265.761
 20
171.477
 21
171.523
  0
LINE
  8
0
 10
265.761
 11
265.586
 20
171.523
 21
171.593
  0
LINE
  8
0
 10
265.586
 11
265.421
 20
171.593
 21
171.684
  0
LINE
  8
0
 10
265.421
 11
265.269
 20
171.684
 21
171.794
  0
LINE
  8
0
 10
265.269
 11
265.132
 20
171.794
 21
171.923
  0
LINE
  8
0
 10
265.132
 11
265.011
 20
171.923
 21
172.068
  0
LINE
  8
0
 10
265.011
 11
264.911
 20
172.068
 21
172.227
  0
LINE
  8
0
 10
264.911
 11
264.83
 20
172.227
 21
172.398
  0
LINE
  8
0
 10
264.83
 11
264.772
 20
172.398
 21
172.577
  0
LINE
  8
0
 10
264.772
 11
264.737
 20
172.577
 21
172.762
  0
LINE
  8
0
 10
264.737
 11
264.725
 20
172.762
 21
172.95
  0
LINE
  8
0
 10
264.725
 11
264.737
 20
192.95
 21
193.138
  0
LINE
  8
0
 10
264.737
 11
264.772
 20
193.138
 21
193.323
  0
LINE
  8
0
 10
264.772
 11
264.83
 20
193.323
 21
193.502
  0
LINE
  8
0
 10
264.83
 11
264.911
 20
193.502
 21
193.673
  0
LINE
  8
0
 10
264.911
 11
265.011
 20
193.673
 21
193.832
  0
LINE
  8
0
 10
265.011
 11
265.132
 20
193.832
 21
193.977
  0
LINE
  8
0
 10
265.132
 11
265.269
 20
193.977
 21
194.106
  0
LINE
  8
0
 10
265.269
 11
265.421
 20
194.106
 21
194.216
  0
LINE
  8
0
 10
265.421
 11
265.586
 20
194.216
 21
194.307
  0
LINE
  8
0
 10
265.586
 11
265.761
 20
194.307
 21
194.377
  0
LINE
  8
0
 10
265.761
 11
265.944
 20
194.377
 21
194.423
  0
LINE
  8
0
 10
265.944
 11
266.131
 20
194.423
 21
194.447
  0
LINE
  8
0
 10
266.131
 11
266.319
 20
194.447
 21
194.447
  0
LINE
  8
0
 10
266.319
 11
266.506
 20
194.447
 21
194.423
  0
LINE
  8
0
 10
266.506
 11
266.689
 20
194.423
 21
194.377
  0
LINE
  8
0
 10
266.689
 11
266.864
 20
194.377
 21
194.307
  0
LINE
  8
0
 10
266.864
 11
267.029
 20
194.307
 21
194.216
  0
LINE
  8
0
 10
267.029
 11
267.181
 20
194.216
 21
194.106
  0
LINE
  8
0
 10
267.181
 11
267.318
 20
194.106
 21
193.977
  0
LINE
  8
0
 10
267.318
 11
267.439
 20
193.977
 21
193.832
  0
LINE
  8
0
 10
267.439
 11
267.539
 20
193.832
 21
193.673
  0
LINE
  8
0
 10
267.539
 11
267.62
 20
193.673
 21
193.502
  0
LINE
  8
0
 10
267.62
 11
267.678
 20
193.502
 21
193.323
  0
LINE
  8
0
 10
267.678
 11
267.713
 20
193.323
 21
193.138
  0
LINE
  8
0
 10
267.713
 11
267.725
 20
193.138
 21
192.95
  0
LINE
  8
0
 10
267.725
 11
267.713
 20
192.95
 21
192.762
  0
LINE
  8
0
 10
267.713
 11
267.678
 20
192.762
 21
192.577
  0
LINE
  8
0
 10
267.678
 11
267.62
 20
192.577
 21
192.398
  0
LINE
  8
0
 10
267.62
 11
267.539
 20
192.398
 21
192.227
  0
LINE
  8
0
 10
267.539
 11
267.439
 20
192.227
 21
192.068
  0
LINE
  8
0
 10
267.439
 11
267.318
 20
192.068
 21
191.923
  0
LINE
  8
0
 10
267.318
 11
267.181
 20
191.923
 21
191.794
  0
LINE
  8
0
 10
267.181
 11
267.029
 20
191.794
 21
191.684
  0
LINE
  8
0
 10
267.029
 11
266.864
 20
191.684
 21
191.593
  0
LINE
  8
0
 10
266.864
 11
266.689
 20
191.593
 21
191.523
  0
LINE
  8
0
 10
266.689
 11
266.506
 20
191.523
 21
191.477
  0
LINE
  8
0
 10
266.506
 11
266.319
 20
191.477
 21
191.453
  0
LINE
  8
0
 10
266.319
 11
266.131
 20
191.453
 21
191.453
  0
LINE
  8
0
 10
266.131
 11
265.944
 20
191.453
 21
191.477
  0
LINE
  8
0
 10
265.944
 11
265.761
 20
191.477
 21
191.523
  0
LINE
  8
0
 10
265.761
 11
265.586
 20
191.523
 21
191.593
  0
LINE
  8
0
 10
265.586
 11
265.421
 20
191.593
 21
191.684
  0
LINE
  8
0
 10
265.421
 11
265.269
 20
191.684
 21
191.794
  0
LINE
  8
0
 10
265.269
 11
265.132
 20
191.794
 21
191.923
  0
LINE
  8
0
 10
265.132
 11
265.011
 20
191.923
 21
192.068
  0
LINE
  8
0
 10
265.011
 11
264.911
 20
192.068
 21
192.227
  0
LINE
  8
0
 10
264.911
 11
264.83
 20
192.227
 21
192.398
  0
LINE
  8
0
 10
264.83
 11
264.772
 20
192.398
 21
192.577
  0
LINE
  8
0
 10
264.772
 11
264.737
 20
192.577
 21
192.762
  0
LINE
  8
0
 10
264.737
 11
264.725
 20
192.762
 21
192.95
  0
LINE
  8
0
 10
266.247
 11
266.247
 20
32.471
 21
32.691
  0
LINE
  8
0
 10
266.247
 11
266.275
 20
32.691
 21
32.909
  0
LINE
  8
0
 10
266.275
 11
266.33
 20
32.909
 21
33.122
  0
LINE
  8
0
 10
266.33
 11
266.411
 20
33.122
 21
33.326
  0
LINE
  8
0
 10
266.411
 11
266.516
 20
33.326
 21
33.519
  0
LINE
  8
0
 10
266.516
 11
266.646
 20
33.519
 21
33.696
  0
LINE
  8
0
 10
266.646
 11
266.796
 20
33.696
 21
33.857
  0
LINE
  8
0
 10
266.796
 11
266.965
 20
33.857
 21
33.997
  0
LINE
  8
0
 10
266.965
 11
267.151
 20
33.997
 21
34.115
  0
LINE
  8
0
 10
267.151
 11
267.35
 20
34.115
 21
34.208
  0
LINE
  8
0
 10
267.35
 11
267.559
 20
34.208
 21
34.276
  0
LINE
  8
0
 10
267.559
 11
267.775
 20
34.276
 21
34.317
  0
LINE
  8
0
 10
267.775
 11
267.994
 20
34.317
 21
34.331
  0
LINE
  8
0
 10
267.994
 11
268.213
 20
34.331
 21
34.317
  0
LINE
  8
0
 10
268.213
 11
268.429
 20
34.317
 21
34.276
  0
LINE
  8
0
 10
268.429
 11
268.638
 20
34.276
 21
34.208
  0
LINE
  8
0
 10
268.638
 11
268.837
 20
34.208
 21
34.115
  0
LINE
  8
0
 10
268.837
 11
269.023
 20
34.115
 21
33.997
  0
LINE
  8
0
 10
269.023
 11
269.192
 20
33.997
 21
33.857
  0
LINE
  8
0
 10
269.192
 11
269.342
 20
33.857
 21
33.696
  0
LINE
  8
0
 10
269.342
 11
269.472
 20
33.696
 21
33.519
  0
LINE
  8
0
 10
269.472
 11
269.577
 20
33.519
 21
33.326
  0
LINE
  8
0
 10
269.577
 11
269.658
 20
33.326
 21
33.122
  0
LINE
  8
0
 10
269.658
 11
269.713
 20
33.122
 21
32.909
  0
LINE
  8
0
 10
269.713
 11
269.741
 20
32.909
 21
32.691
  0
LINE
  8
0
 10
269.741
 11
269.741
 20
32.691
 21
32.471
  0
LINE
  8
0
 10
269.741
 11
269.713
 20
32.471
 21
32.253
  0
LINE
  8
0
 10
269.713
 11
269.658
 20
32.253
 21
32.04
  0
LINE
  8
0
 10
269.658
 11
269.577
 20
32.04
 21
31.836
  0
LINE
  8
0
 10
269.577
 11
269.472
 20
31.836
 21
31.643
  0
LINE
  8
0
 10
269.472
 11
269.342
 20
31.643
 21
31.466
  0
LINE
  8
0
 10
269.342
 11
269.192
 20
31.466
 21
31.305
  0
LINE
  8
0
 10
269.192
 11
269.023
 20
31.305
 21
31.165
  0
LINE
  8
0
 10
269.023
 11
268.837
 20
31.165
 21
31.047
  0
LINE
  8
0
 10
268.837
 11
268.638
 20
31.047
 21
30.954
  0
LINE
  8
0
 10
268.638
 11
268.429
 20
30.954
 21
30.886
  0
LINE
  8
0
 10
268.429
 11
268.213
 20
30.886
 21
30.845
  0
LINE
  8
0
 10
268.213
 11
267.994
 20
30.845
 21
30.831
  0
LINE
  8
0
 10
267.994
 11
267.775
 20
30.831
 21
30.845
  0
LINE
  8
0
 10
267.775
 11
267.559
 20
30.845
 21
30.886
  0
LINE
  8
0
 10
267.559
 11
267.35
 20
30.886
 21
30.954
  0
LINE
  8
0
 10
267.35
 11
267.151
 20
30.954
 21
31.047
  0
LINE
  8
0
 10
267.151
 11
266.965
 20
31.047
 21
31.165
  0
LINE
  8
0
 10
266.965
 11
266.796
 20
31.165
 21
31.305
  0
LINE
  8
0
 10
266.796
 11
266.646
 20
31.305
 21
31.466
  0
LINE
  8
0
 10
266.646
 11
266.516
 20
31.466
 21
31.643
  0
LINE
  8
0
 10
266.516
 11
266.411
 20
31.643
 21
31.836
  0
LINE
  8
0
 10
266.411
 11
266.33
 20
31.836
 21
32.04
  0
LINE
  8
0
 10
266.33
 11
266.275
 20
32.04
 21
32.253
  0
LINE
  8
0
 10
266.275
 11
266.247
 20
32.253
 21
32.471
  0
LINE
  8
0
 10
266.247
 11
266.247
 20
63.459
 21
63.679
  0
LINE
  8
0
 10
266.247
 11
266.275
 20
63.679
 21
63.897
  0
LINE
  8
0
 10
266.275
 11
266.33
 20
63.897
 21
64.11
  0
LINE
  8
0
 10
266.33
 11
266.411
 20
64.11
 21
64.314
  0
LINE
  8
0
 10
266.411
 11
266.516
 20
64.314
 21
64.507
  0
LINE
  8
0
 10
266.516
 11
266.646
 20
64.507
 21
64.684
  0
LINE
  8
0
 10
266.646
 11
266.796
 20
64.684
 21
64.845
  0
LINE
  8
0
 10
266.796
 11
266.965
 20
64.845
 21
64.985
  0
LINE
  8
0
 10
266.965
 11
267.151
 20
64.985
 21
65.103
  0
LINE
  8
0
 10
267.151
 11
267.35
 20
65.103
 21
65.196
  0
LINE
  8
0
 10
267.35
 11
267.559
 20
65.196
 21
65.264
  0
LINE
  8
0
 10
267.559
 11
267.775
 20
65.264
 21
65.305
  0
LINE
  8
0
 10
267.775
 11
267.994
 20
65.305
 21
65.319
  0
LINE
  8
0
 10
267.994
 11
268.213
 20
65.319
 21
65.305
  0
LINE
  8
0
 10
268.213
 11
268.429
 20
65.305
 21
65.264
  0
LINE
  8
0
 10
268.429
 11
268.638
 20
65.264
 21
65.196
  0
LINE
  8
0
 10
268.638
 11
268.837
 20
65.196
 21
65.103
  0
LINE
  8
0
 10
268.837
 11
269.023
 20
65.103
 21
64.985
  0
LINE
  8
0
 10
269.023
 11
269.192
 20
64.985
 21
64.845
  0
LINE
  8
0
 10
269.192
 11
269.342
 20
64.845
 21
64.684
  0
LINE
  8
0
 10
269.342
 11
269.472
 20
64.684
 21
64.507
  0
LINE
  8
0
 10
269.472
 11
269.577
 20
64.507
 21
64.314
  0
LINE
  8
0
 10
269.577
 11
269.658
 20
64.314
 21
64.11
  0
LINE
  8
0
 10
269.658
 11
269.713
 20
64.11
 21
63.897
  0
LINE
  8
0
 10
269.713
 11
269.741
 20
63.897
 21
63.679
  0
LINE
  8
0
 10
269.741
 11
269.741
 20
63.679
 21
63.459
  0
LINE
  8
0
 10
269.741
 11
269.713
 20
63.459
 21
63.241
  0
LINE
  8
0
 10
269.713
 11
269.658
 20
63.241
 21
63.028
  0
LINE
  8
0
 10
269.658
 11
269.577
 20
63.028
 21
62.824
  0
LINE
  8
0
 10
269.577
 11
269.472
 20
62.824
 21
62.631
  0
LINE
  8
0
 10
269.472
 11
269.342
 20
62.631
 21
62.454
  0
LINE
  8
0
 10
269.342
 11
269.192
 20
62.454
 21
62.293
  0
LINE
  8
0
 10
269.192
 11
269.023
 20
62.293
 21
62.153
  0
LINE
  8
0
 10
269.023
 11
268.837
 20
62.153
 21
62.035
  0
LINE
  8
0
 10
268.837
 11
268.638
 20
62.035
 21
61.942
  0
LINE
  8
0
 10
268.638
 11
268.429
 20
61.942
 21
61.874
  0
LINE
  8
0
 10
268.429
 11
268.213
 20
61.874
 21
61.833
  0
LINE
  8
0
 10
268.213
 11
267.994
 20
61.833
 21
61.819
  0
LINE
  8
0
 10
267.994
 11
267.775
 20
61.819
 21
61.833
  0
LINE
  8
0
 10
267.775
 11
267.559
 20
61.833
 21
61.874
  0
LINE
  8
0
 10
267.559
 11
267.35
 20
61.874
 21
61.942
  0
LINE
  8
0
 10
267.35
 11
267.151
 20
61.942
 21
62.035
  0
LINE
  8
0
 10
267.151
 11
266.965
 20
62.035
 21
62.153
  0
LINE
  8
0
 10
266.965
 11
266.796
 20
62.153
 21
62.293
  0
LINE
  8
0
 10
266.796
 11
266.646
 20
62.293
 21
62.454
  0
LINE
  8
0
 10
266.646
 11
266.516
 20
62.454
 21
62.631
  0
LINE
  8
0
 10
266.516
 11
266.411
 20
62.631
 21
62.824
  0
LINE
  8
0
 10
266.411
 11
266.33
 20
62.824
 21
63.028
  0
LINE
  8
0
 10
266.33
 11
266.275
 20
63.028
 21
63.241
  0
LINE
  8
0
 10
266.275
 11
266.247
 20
63.241
 21
63.459
  0
LINE
  8
0
 10
276.4
 11
276.4
 20
0
 21
178.875
  0
LINE
  8
0
 10
276.4
 11
296.4
 20
178.875
 21
178.875
  0
LINE
  8
0
 10
296.4
 11
296.4
 20
178.875
 21
0
  0
LINE
  8
0
 10
296.4
 11
276.4
 20
0
 21
0
  0
LINE
  8
0
 10
279.4
 11
279.4
 20
3
 21
13
  0
LINE
  8
0
 10
279.4
 11
282.575
 20
13
 21
13
  0
LINE
  8
0
 10
282.575
 11
282.575
 20
13
 21
3
  0
LINE
  8
0
 10
282.575
 11
279.4
 20
3
 21
3
  0
LINE
  8
0
 10
279.4
 11
279.412
 20
16
 21
16.188
  0
LINE
  8
0
 10
279.412
 11
279.447
 20
16.188
 21
16.373
  0
LINE
  8
0
 10
279.447
 11
279.505
 20
16.373
 21
16.552
  0
LINE
  8
0
 10
279.505
 11
279.586
 20
16.552
 21
16.723
  0
LINE
  8
0
 10
279.586
 11
279.686
 20
16.723
 21
16.882
  0
LINE
  8
0
 10
279.686
 11
279.807
 20
16.882
 21
17.027
  0
LINE
  8
0
 10
279.807
 11
279.944
 20
17.027
 21
17.156
  0
LINE
  8
0
 10
279.944
 11
280.096
 20
17.156
 21
17.266
  0
LINE
  8
0
 10
280.096
 11
280.261
 20
17.266
 21
17.357
  0
LINE
  8
0
 10
280.261
 11
280.436
 20
17.357
 21
17.427
  0
LINE
  8
0
 10
280.436
 11
280.619
 20
17.427
 21
17.473
  0
LINE
  8
0
 10
280.619
 11
280.806
 20
17.473
 21
17.497
  0
LINE
  8
0
 10
280.806
 11
280.994
 20
17.497
 21
17.497
  0
LINE
  8
0
 10
280.994
 11
281.181
 20
17.497
 21
17.473
  0
LINE
  8
0
 10
281.181
 11
281.364
 20
17.473
 21
17.427
  0
LINE
  8
0
 10
281.364
 11
281.539
 20
17.427
 21
17.357
  0
LINE
  8
0
 10
281.539
 11
281.704
 20
17.357
 21
17.266
  0
LINE
  8
0
 10
281.704
 11
281.856
 20
17.266
 21
17.156
  0
LINE
  8
0
 10
281.856
 11
281.993
 20
17.156
 21
17.027
  0
LINE
  8
0
 10
281.993
 11
282.114
 20
17.027
 21
16.882
  0
LINE
  8
0
 10
282.114
 11
282.214
 20
16.882
 21
16.723
  0
LINE
  8
0
 10
282.214
 11
282.295
 20
16.723
 21
16.552
  0
LINE
  8
0
 10
282.295
 11
282.353
 20
16.552
 21
16.373
  0
LINE
  8
0
 10
282.353
 11
282.388
 20
16.373
 21
16.188
  0
LINE
  8
0
 10
282.388
 11
282.4
 20
16.188
 21
16
  0
LINE
  8
0
 10
282.4
 11
282.388
 20
16
 21
15.812
  0
LINE
  8
0
 10
282.388
 11
282.353
 20
15.812
 21
15.627
  0
LINE
  8
0
 10
282.353
 11
282.295
 20
15.627
 21
15.448
  0
LINE
  8
0
 10
282.295
 11
282.214
 20
15.448
 21
15.277
  0
LINE
  8
0
 10
282.214
 11
282.114
 20
15.277
 21
15.118
  0
LINE
  8
0
 10
282.114
 11
281.993
 20
15.118
 21
14.973
  0
LINE
  8
0
 10
281.993
 11
281.856
 20
14.973
 21
14.844
  0
LINE
  8
0
 10
281.856
 11
281.704
 20
14.844
 21
14.734
  0
LINE
  8
0
 10
281.704
 11
281.539
 20
14.734
 21
14.643
  0
LINE
  8
0
 10
281.539
 11
281.364
 20
14.643
 21
14.573
  0
LINE
  8
0
 10
281.364
 11
281.181
 20
14.573
 21
14.527
  0
LINE
  8
0
 10
281.181
 11
280.994
 20
14.527
 21
14.503
  0
LINE
  8
0
 10
280.994
 11
280.806
 20
14.503
 21
14.503
  0
LINE
  8
0
 10
280.806
 11
280.619
 20
14.503
 21
14.527
  0
LINE
  8
0
 10
280.619
 11
280.436
 20
14.527
 21
14.573
  0
LINE
  8
0
 10
280.436
 11
280.261
 20
14.573
 21
14.643
  0
LINE
  8
0
 10
280.261
 11
280.096
 20
14.643
 21
14.734
  0
LINE
  8
0
 10
280.096
 11
279.944
 20
14.734
 21
14.844
  0
LINE
  8
0
 10
279.944
 11
279.807
 20
14.844
 21
14.973
  0
LINE
  8
0
 10
279.807
 11
279.686
 20
14.973
 21
15.118
  0
LINE
  8
0
 10
279.686
 11
279.586
 20
15.118
 21
15.277
  0
LINE
  8
0
 10
279.586
 11
279.505
 20
15.277
 21
15.448
  0
LINE
  8
0
 10
279.505
 11
279.447
 20
15.448
 21
15.627
  0
LINE
  8
0
 10
279.447
 11
279.412
 20
15.627
 21
15.812
  0
LINE
  8
0
 10
279.412
 11
279.4
 20
15.812
 21
16
  0
LINE
  8
0
 10
279.4
 11
279.412
 20
57.35
 21
57.538
  0
LINE
  8
0
 10
279.412
 11
279.447
 20
57.538
 21
57.723
  0
LINE
  8
0
 10
279.447
 11
279.505
 20
57.723
 21
57.902
  0
LINE
  8
0
 10
279.505
 11
279.586
 20
57.902
 21
58.073
  0
LINE
  8
0
 10
279.586
 11
279.686
 20
58.073
 21
58.232
  0
LINE
  8
0
 10
279.686
 11
279.807
 20
58.232
 21
58.377
  0
LINE
  8
0
 10
279.807
 11
279.944
 20
58.377
 21
58.506
  0
LINE
  8
0
 10
279.944
 11
280.096
 20
58.506
 21
58.616
  0
LINE
  8
0
 10
280.096
 11
280.261
 20
58.616
 21
58.707
  0
LINE
  8
0
 10
280.261
 11
280.436
 20
58.707
 21
58.777
  0
LINE
  8
0
 10
280.436
 11
280.619
 20
58.777
 21
58.823
  0
LINE
  8
0
 10
280.619
 11
280.806
 20
58.823
 21
58.847
  0
LINE
  8
0
 10
280.806
 11
280.994
 20
58.847
 21
58.847
  0
LINE
  8
0
 10
280.994
 11
281.181
 20
58.847
 21
58.823
  0
LINE
  8
0
 10
281.181
 11
281.364
 20
58.823
 21
58.777
  0
LINE
  8
0
 10
281.364
 11
281.539
 20
58.777
 21
58.707
  0
LINE
  8
0
 10
281.539
 11
281.704
 20
58.707
 21
58.616
  0
LINE
  8
0
 10
281.704
 11
281.856
 20
58.616
 21
58.506
  0
LINE
  8
0
 10
281.856
 11
281.993
 20
58.506
 21
58.377
  0
LINE
  8
0
 10
281.993
 11
282.114
 20
58.377
 21
58.232
  0
LINE
  8
0
 10
282.114
 11
282.214
 20
58.232
 21
58.073
  0
LINE
  8
0
 10
282.214
 11
282.295
 20
58.073
 21
57.902
  0
LINE
  8
0
 10
282.295
 11
282.353
 20
57.902
 21
57.723
  0
LINE
  8
0
 10
282.353
 11
282.388
 20
57.723
 21
57.538
  0
LINE
  8
0
 10
282.388
 11
282.4
 20
57.538
 21
57.35
  0
LINE
  8
0
 10
282.4
 11
282.388
 20
57.35
 21
57.162
  0
LINE
  8
0
 10
282.388
 11
282.353
 20
57.162
 21
56.977
  0
LINE
  8
0
 10
282.353
 11
282.295
 20
56.977
 21
56.798
  0
LINE
  8
0
 10
282.295
 11
282.214
 20
56.798
 21
56.627
  0
LINE
  8
0
 10
282.214
 11
282.114
 20
56.627
 21
56.468
  0
LINE
  8
0
 10
282.114
 11
281.993
 20
56.468
 21
56.323
  0
LINE
  8
0
 10
281.993
 11
281.856
 20
56.323
 21
56.194
  0
LINE
  8
0
 10
281.856
 11
281.704
 20
56.194
 21
56.084
  0
LINE
  8
0
 10
281.704
 11
281.539
 20
56.084
 21
55.993
  0
LINE
  8
0
 10
281.539
 11
281.364
 20
55.993
 21
55.923
  0
LINE
  8
0
 10
281.364
 11
281.181
 20
55.923
 21
55.877
  0
LINE
  8
0
 10
281.181
 11
280.994
 20
55.877
 21
55.853
  0
LINE
  8
0
 10
280.994
 11
280.806
 20
55.853
 21
55.853
  0
LINE
  8
0
 10
280.806
 11
280.619
 20
55.853
 21
55.877
  0
LINE
  8
0
 10
280.619
 11
280.436
 20
55.877
 21
55.923
  0
LINE
  8
0
 10
280.436
 11
280.261
 20
55.923
 21
55.993
  0
LINE
  8
0
 10
280.261
 11
280.096
 20
55.993
 21
56.084
  0
LINE
  8
0
 10
280.096
 11
279.944
 20
56.084
 21
56.194
  0
LINE
  8
0
 10
279.944
 11
279.807
 20
56.194
 21
56.323
  0
LINE
  8
0
 10
279.807
 11
279.686
 20
56.323
 21
56.468
  0
LINE
  8
0
 10
279.686
 11
279.586
 20
56.468
 21
56.627
  0
LINE
  8
0
 10
279.586
 11
279.505
 20
56.627
 21
56.798
  0
LINE
  8
0
 10
279.505
 11
279.447
 20
56.798
 21
56.977
  0
LINE
  8
0
 10
279.447
 11
279.412
 20
56.977
 21
57.162
  0
LINE
  8
0
 10
279.412
 11
279.4
 20
57.162
 21
57.35
  0
LINE
  8
0
 10
279.4
 11
279.4
 20
60.35
 21
70.35
  0
LINE
  8
0
 10
279.4
 11
282.575
 20
70.35
 21
70.35
  0
LINE
  8
0
 10
282.575
 11
282.575
 20
70.35
 21
60.35
  0
LINE
  8
0
 10
282.575
 11
279.4
 20
60.35
 21
60.35
  0
LINE
  8
0
 10
284.4
 11
284.4
 20
103.525
 21
107.525
  0
LINE
  8
0
 10
284.4
 11
285.4
 20
107.525
 21
107.525
  0
LINE
  8
0
 10
285.4
 11
285.4
 20
107.525
 21
103.525
  0
LINE
  8
0
 10
285.4
 11
284.4
 20
103.525
 21
103.525
  0
LINE
  8
0
 10
285.9
 11
285.912
 20
173.375
 21
173.563
  0
LINE
  8
0
 10
285.912
 11
285.947
 20
173.563
 21
173.748
  0
LINE
  8
0
 10
285.947
 11
286.005
 20
173.748
 21
173.927
  0
LINE
  8
0
 10
286.005
 11
286.086
 20
173.927
 21
174.098
  0
LINE
  8
0
 10
286.086
 11
286.186
 20
174.098
 21
174.257
  0
LINE
  8
0
 10
286.186
 11
286.307
 20
174.257
 21
174.402
  0
LINE
  8
0
 10
286.307
 11
286.444
 20
174.402
 21
174.531
  0
LINE
  8
0
 10
286.444
 11
286.596
 20
174.531
 21
174.641
  0
LINE
  8
0
 10
286.596
 11
286.761
 20
174.641
 21
174.732
  0
LINE
  8
0
 10
286.761
 11
286.936
 20
174.732
 21
174.802
  0
LINE
  8
0
 10
286.936
 11
287.119
 20
174.802
 21
174.848
  0
LINE
  8
0
 10
287.119
 11
287.306
 20
174.848
 21
174.872
  0
LINE
  8
0
 10
287.306
 11
287.494
 20
174.872
 21
174.872
  0
LINE
  8
0
 10
287.494
 11
287.681
 20
174.872
 21
174.848
  0
LINE
  8
0
 10
287.681
 11
287.864
 20
174.848
 21
174.802
  0
LINE
  8
0
 10
287.864
 11
288.039
 20
174.802
 21
174.732
  0
LINE
  8
0
 10
288.039
 11
288.204
 20
174.732
 21
174.641
  0
LINE
  8
0
 10
288.204
 11
288.356
 20
174.641
 21
174.531
  0
LINE
  8
0
 10
288.356
 11
288.493
 20
174.531
 21
174.402
  0
LINE
  8
0
 10
288.493
 11
288.614
 20
174.402
 21
174.257
  0
LINE
  8
0
 10
288.614
 11
288.714
 20
174.257
 21
174.098
  0
LINE
  8
0
 10
288.714
 11
288.795
 20
174.098
 21
173.927
  0
LINE
  8
0
 10
288.795
 11
288.853
 20
173.927
 21
173.748
  0
LINE
  8
0
 10
288.853
 11
288.888
 20
173.748
 21
173.563
  0
LINE
  8
0
 10
288.888
 11
288.9
 20
173.563
 21
173.375
  0
LINE
  8
0
 10
288.9
 11
288.888
 20
173.375
 21
173.187
  0
LINE
  8
0
 10
288.888
 11
288.853
 20
173.187
 21
173.002
  0
LINE
  8
0
 10
288.853
 11
288.795
 20
173.002
 21
172.823
  0
LINE
  8
0
 10
288.795
 11
288.714
 20
172.823
 21
172.652
  0
LINE
  8
0
 10
288.714
 11
288.614
 20
172.652
 21
172.493
  0
LINE
  8
0
 10
288.614
 11
288.493
 20
172.493
 21
172.348
  0
LINE
  8
0
 10
288.493
 11
288.356
 20
172.348
 21
172.219
  0
LINE
  8
0
 10
288.356
 11
288.204
 20
172.219
 21
172.109
  0
LINE
  8
0
 10
288.204
 11
288.039
 20
172.109
 21
172.018
  0
LINE
  8
0
 10
288.039
 11
287.864
 20
172.018
 21
171.948
  0
LINE
  8
0
 10
287.864
 11
287.681
 20
171.948
 21
171.902
  0
LINE
  8
0
 10
287.681
 11
287.494
 20
171.902
 21
171.878
  0
LINE
  8
0
 10
287.494
 11
287.306
 20
171.878
 21
171.878
  0
LINE
  8
0
 10
287.306
 11
287.119
 20
171.878
 21
171.902
  0
LINE
  8
0
 10
287.119
 11
286.936
 20
171.902
 21
171.948
  0
LINE
  8
0
 10
286.936
 11
286.761
 20
171.948
 21
172.018
  0
LINE
  8
0
 10
286.761
 11
286.596
 20
172.018
 21
172.109
  0
LINE
  8
0
 10
286.596
 11
286.444
 20
172.109
 21
172.219
  0
LINE
  8
0
 10
286.444
 11
286.307
 20
172.219
 21
172.348
  0
LINE
  8
0
 10
286.307
 11
286.186
 20
172.348
 21
172.493
  0
LINE
  8
0
 10
286.186
 11
286.086
 20
172.493
 21
172.652
  0
LINE
  8
0
 10
286.086
 11
286.005
 20
172.652
 21
172.823
  0
LINE
  8
0
 10
286.005
 11
285.947
 20
172.823
 21
173.002
  0
LINE
  8
0
 10
285.947
 11
285.912
 20
173.002
 21
173.187
  0
LINE
  8
0
 10
285.912
 11
285.9
 20
173.187
 21
173.375
  0
LINE
  8
0
 10
287.4
 11
287.4
 20
103.525
 21
107.525
  0
LINE
  8
0
 10
287.4
 11
288.4
 20
107.525
 21
107.525
  0
LINE
  8
0
 10
288.4
 11
288.4
 20
107.525
 21
103.525
  0
LINE
  8
0
 10
288.4
 11
287.4
 20
103.525
 21
103.525
  0
ENDSEC
  0
SECTION
  2
OBJECTS
  0
DICTIONARY
  0
ENDSEC
  0
EOF
