0
SECTION
2
HEADER
9
$INSUNITS
70
4
9
$ACADVER
1
AC1014
9
$HANDSEED
5
FFFF
0
ENDSEC
0
SECTION
2
TABLES
0
TABLE
2
VPORT
5
8
100
AcDbSymbolTable
0
ENDTAB
0
TABLE
2
LTYPE
5
5
100
AcDbSymbolTable
0
LTYPE
5
14
100
AcDbSymbolTableRecord
100
AcDbLinetypeTableRecord
2
BYBLOCK
70
0
0
LTYPE
5
15
100
AcDbSymbolTableRecord
100
AcDbLinetypeTableRecord
2
BYLAYER
70
0
0
ENDTAB
0
TABLE
2
LAYER
5
2
100
AcDbSymbolTable
70
2
0
LAYER
5
50
100
AcDbSymbolTableRecord
100
AcDbLayerTableRecord
2
0
70
0
6
CONTINUOUS
0
ENDTAB
0
TABLE
2
STYLE
5
3
100
AcDbSymbolTable
70
1
0
STYLE
5
11
100
AcDbSymbolTableRecord
100
AcDbTextStyleTableRecord
2
STANDARD
70
0
0
ENDTAB
0
TABLE
2
VIEW
5
6
100
AcDbSymbolTable
70
0
0
ENDTAB
0
TABLE
2
UCS
5
7
100
AcDbSymbolTable
70
0
0
ENDTAB
0
TABLE
2
APPID
5
9
100
AcDbSymbolTable
70
2
0
APPID
5
12
100
AcDbSymbolTableRecord
100
AcDbRegAppTableRecord
2
ACAD
70
0
0
ENDTAB
0
TABLE
2
DIMSTYLE
5
A
100
AcDbSymbolTable
70
1
0
ENDTAB
0
TABLE
2
BLOCK_RECORD
5
1
100
AcDbSymbolTable
70
1
0
BLOCK_RECORD
5
1F
100
AcDbSymbolTableRecord
100
AcDbBlockTableRecord
2
*MODEL_SPACE
0
BLOCK_RECORD
5
1B
100
AcDbSymbolTableRecord
100
AcDbBlockTableRecord
2
*PAPER_SPACE
0
ENDTAB
0
ENDSEC
0
SECTION
2
BLOCKS
0
BLOCK
5
20
100
AcDbEntity
100
AcDbBlockBegin
2
*MODEL_SPACE
0
ENDBLK
5
21
100
AcDbEntity
100
AcDbBlockEnd
0
BLOCK
5
1C
100
AcDbEntity
100
AcDbBlockBegin
2
*PAPER_SPACE
0
ENDBLK
5
1D
100
AcDbEntity
100
AcDbBlockEnd
0
ENDSEC
0
SECTION
2
ENTITIES
0
LWPOLYLINE
5
100
100
AcDbEntity
8
0
100
AcDbPolyline
90
8
70
1
43
0.0
10
-98.334523779155901
20
-23.334523779156129
42
-0.18699241282300288
10
-107.96514079348178
20
-1.5164077505467755
42
-0.54390732927700924
10
-40.57356352525985
20
49.140822862979043
42
-0.043600545823766754
10
-32.57359312880709
20
42.426406871192832
42
0.75414547809069221
10
-51.665476220843722
20
23.334523779156179
42
-0.18699241282300208
10
-42.034859206517943
20
1.5164077505467644
42
-0.54390732927700913
10
-109.42643647473992
20
-49.140822862978979
42
-0.043600545823766532
10
-117.42640687119263
20
-42.426406871192839
42
0.75414547809069066
0
LWPOLYLINE
5
101
100
AcDbEntity
8
0
100
AcDbPolyline
90
9
70
1
43
0.0
10
-68.205771365940024
20
13.500000000000082
42
-1.7320508075688865
10
-66.705771365940038
20
12.633974596215641
10
-59.911542731880061
20
0.86602540378455806
42
-1.7320508075688705
10
-59.911542731880054
20
-0.86602540378430959
10
-66.705771365939981
20
-12.633974596215463
42
-1.7320508075688741
10
-68.205771365939981
20
-13.499999999999904
10
-82.794228634059863
20
-13.499999999999941
10
-90.588457268119868
20
3.3306690738754696e-014
10
-82.794228634059948
20
13.500000000000039
0
LWPOLYLINE
5
102
100
AcDbEntity
8
0
100
AcDbPolyline
90
8
70
1
43
0.0
10
-98.334523779155845
20
-23.33452377915615
42
-0.18699241282300288
10
-107.96514079348178
20
-1.516407750546771
42
-0.54390732927700947
10
-40.573563525259715
20
49.140822862979014
42
-0.043600545823766532
10
-32.573593128807033
20
42.426406871192853
42
0.75414547809069132
10
-51.665476220843694
20
23.334523779156218
42
-0.18699241282300172
10
-42.034859206517929
20
1.5164077505467688
42
-0.54390732927700947
10
-109.42643647473989
20
-49.140822862979007
42
-0.043600545823765643
10
-117.42640687119261
20
-42.426406871192839
42
0.7541454780906911
0
LWPOLYLINE
5
103
100
AcDbEntity
8
0
100
AcDbPolyline
90
9
70
1
43
0.0
10
-68.205771365939981
20
13.500000000000099
42
-1.7320508075688883
10
-66.705771365939995
20
12.633974596215655
10
-59.911542731880026
20
0.86602540378457393
42
-1.7320508075688696
10
-59.911542731880012
20
-0.86602540378430293
10
-66.705771365939938
20
-12.633974596215458
42
-1.7320508075688705
10
-68.205771365939938
20
-13.499999999999901
10
-82.794228634059834
20
-13.49999999999994
10
-90.588457268119825
20
4.2188474935755949e-014
10
-82.794228634059905
20
13.500000000000053
0
ENDSEC
0
SECTION
2
OBJECTS
0
DICTIONARY
5
C
100
AcDbDictionary
3
ACAD_GROUP
350
D
3
ACAD_MLINESTYLE
350
17
0
DICTIONARY
5
D
100
AcDbDictionary
0
DICTIONARY
5
1A
330
C
100
AcDbDictionary
0
DICTIONARY
5
17
100
AcDbDictionary
0
ENDSEC
0
EOF
