0
SECTION
2
HEADER
9
$INSUNITS
70
4
9
$ACADVER
1
AC1014
9
$HANDSEED
5
FFFF
0
ENDSEC
0
SECTION
2
TABLES
0
TABLE
2
VPORT
5
8
100
AcDbSymbolTable
0
ENDTAB
0
TABLE
2
LTYPE
5
5
100
AcDbSymbolTable
0
LTYPE
5
14
100
AcDbSymbolTableRecord
100
AcDbLinetypeTableRecord
2
BYBLOCK
70
0
0
LTYPE
5
15
100
AcDbSymbolTableRecord
100
AcDbLinetypeTableRecord
2
BYLAYER
70
0
0
ENDTAB
0
TABLE
2
LAYER
5
2
100
AcDbSymbolTable
70
2
0
LAYER
5
50
100
AcDbSymbolTableRecord
100
AcDbLayerTableRecord
2
0
70
0
6
CONTINUOUS
0
ENDTAB
0
TABLE
2
STYLE
5
3
100
AcDbSymbolTable
70
1
0
STYLE
5
11
100
AcDbSymbolTableRecord
100
AcDbTextStyleTableRecord
2
STANDARD
70
0
0
ENDTAB
0
TABLE
2
VIEW
5
6
100
AcDbSymbolTable
70
0
0
ENDTAB
0
TABLE
2
UCS
5
7
100
AcDbSymbolTable
70
0
0
ENDTAB
0
TABLE
2
APPID
5
9
100
AcDbSymbolTable
70
2
0
APPID
5
12
100
AcDbSymbolTableRecord
100
AcDbRegAppTableRecord
2
ACAD
70
0
0
ENDTAB
0
TABLE
2
DIMSTYLE
5
A
100
AcDbSymbolTable
70
1
0
ENDTAB
0
TABLE
2
BLOCK_RECORD
5
1
100
AcDbSymbolTable
70
1
0
BLOCK_RECORD
5
1F
100
AcDbSymbolTableRecord
100
AcDbBlockTableRecord
2
*MODEL_SPACE
0
BLOCK_RECORD
5
1B
100
AcDbSymbolTableRecord
100
AcDbBlockTableRecord
2
*PAPER_SPACE
0
ENDTAB
0
ENDSEC
0
SECTION
2
BLOCKS
0
BLOCK
5
20
100
AcDbEntity
100
AcDbBlockBegin
2
*MODEL_SPACE
0
ENDBLK
5
21
100
AcDbEntity
100
AcDbBlockEnd
0
BLOCK
5
1C
100
AcDbEntity
100
AcDbBlockBegin
2
*PAPER_SPACE
0
ENDBLK
5
1D
100
AcDbEntity
100
AcDbBlockEnd
0
ENDSEC
0
SECTION
2
ENTITIES
0
LWPOLYLINE
5
100
100
AcDbEntity
8
0
100
AcDbPolyline
90
7
70
1
43
0.0
10
-78.472951640366205
20
14.708845965457753
42
-1.7320508075688821
10
-76.767214576461328
20
15.009613431818622
10
-63.058548932958544
20
10.020067186075909
10
-60.35164173571065
20
-5.3315663890680476
10
-72.293092802751502
20
-15.351633575143621
10
-86.941451067040262
20
-10.020067186075243
10
-89.64835826428812
20
5.3315663890687333
0
LWPOLYLINE
5
101
100
AcDbEntity
8
0
100
AcDbPolyline
90
8
70
1
43
0.0
10
-51.665476220843836
20
23.334523779156051
42
-0.75414547809069132
10
-32.573593128807076
20
42.426406871192803
42
0.0436005458237664
10
-40.57356352525975
20
49.140822862978972
42
0.54390732927700935
10
-107.96514079348172
20
-1.5164077505467786
42
0.18699241282300294
10
-98.334523779155774
20
-23.334523779156079
42
-0.75414547809069066
10
-117.42640687119255
20
-42.42640687119281
42
0.043600545823766559
10
-109.42643647473984
20
-49.140822862978965
42
0.54390732927700924
10
-42.034859206517879
20
1.5164077505467626
42
0.18699241282300222
0
LWPOLYLINE
5
102
100
AcDbEntity
8
0
100
AcDbPolyline
90
7
70
1
43
0.0
10
-78.472951640366219
20
14.708845965457764
42
-1.7320508075688759
10
-76.767214576461328
20
15.009613431818639
10
-63.058548932958544
20
10.02006718607592
10
-60.35164173571065
20
-5.3315663890680547
10
-72.293092802751517
20
-15.351633575143639
10
-86.941451067040276
20
-10.020067186075252
10
-89.648358264288163
20
5.3315663890687386
0
LWPOLYLINE
5
103
100
AcDbEntity
8
0
100
AcDbPolyline
90
8
70
1
43
0.0
10
-51.665476220843814
20
23.334523779156065
42
-0.75414547809069232
10
-32.573593128807033
20
42.426406871192846
42
0.043600545823766559
10
-40.573563525259722
20
49.140822862979014
42
0.54390732927700947
10
-107.96514079348178
20
-1.516407750546789
42
0.1869924128230025
10
-98.334523779155788
20
-23.3345237791561
42
-0.75414547809069132
10
-117.42640687119263
20
-42.426406871192867
42
0.043600545823765595
10
-109.42643647473993
20
-49.140822862978986
42
0.54390732927700902
10
-42.034859206517879
20
1.5164077505467577
42
0.18699241282300177
0
ENDSEC
0
SECTION
2
OBJECTS
0
DICTIONARY
5
C
100
AcDbDictionary
3
ACAD_GROUP
350
D
3
ACAD_MLINESTYLE
350
17
0
DICTIONARY
5
D
100
AcDbDictionary
0
DICTIONARY
5
1A
330
C
100
AcDbDictionary
0
DICTIONARY
5
17
100
AcDbDictionary
0
ENDSEC
0
EOF
