0
SECTION
2
HEADER
9
$INSUNITS
70
4
9
$ACADVER
1
AC1014
9
$HANDSEED
5
FFFF
0
ENDSEC
0
SECTION
2
TABLES
0
TABLE
2
VPORT
5
8
100
AcDbSymbolTable
0
ENDTAB
0
TABLE
2
LTYPE
5
5
100
AcDbSymbolTable
0
LTYPE
5
14
100
AcDbSymbolTableRecord
100
AcDbLinetypeTableRecord
2
BYBLOCK
70
0
0
LTYPE
5
15
100
AcDbSymbolTableRecord
100
AcDbLinetypeTableRecord
2
BYLAYER
70
0
0
ENDTAB
0
TABLE
2
LAYER
5
2
100
AcDbSymbolTable
70
2
0
LAYER
5
50
100
AcDbSymbolTableRecord
100
AcDbLayerTableRecord
2
0
70
0
6
CONTINUOUS
0
ENDTAB
0
TABLE
2
STYLE
5
3
100
AcDbSymbolTable
70
1
0
STYLE
5
11
100
AcDbSymbolTableRecord
100
AcDbTextStyleTableRecord
2
STANDARD
70
0
0
ENDTAB
0
TABLE
2
VIEW
5
6
100
AcDbSymbolTable
70
0
0
ENDTAB
0
TABLE
2
UCS
5
7
100
AcDbSymbolTable
70
0
0
ENDTAB
0
TABLE
2
APPID
5
9
100
AcDbSymbolTable
70
2
0
APPID
5
12
100
AcDbSymbolTableRecord
100
AcDbRegAppTableRecord
2
ACAD
70
0
0
ENDTAB
0
TABLE
2
DIMSTYLE
5
A
100
AcDbSymbolTable
70
1
0
ENDTAB
0
TABLE
2
BLOCK_RECORD
5
1
100
AcDbSymbolTable
70
1
0
BLOCK_RECORD
5
1F
100
AcDbSymbolTableRecord
100
AcDbBlockTableRecord
2
*MODEL_SPACE
0
BLOCK_RECORD
5
1B
100
AcDbSymbolTableRecord
100
AcDbBlockTableRecord
2
*PAPER_SPACE
0
ENDTAB
0
ENDSEC
0
SECTION
2
BLOCKS
0
BLOCK
5
20
100
AcDbEntity
100
AcDbBlockBegin
2
*MODEL_SPACE
0
ENDBLK
5
21
100
AcDbEntity
100
AcDbBlockEnd
0
BLOCK
5
1C
100
AcDbEntity
100
AcDbBlockBegin
2
*PAPER_SPACE
0
ENDBLK
5
1D
100
AcDbEntity
100
AcDbBlockEnd
0
ENDSEC
0
SECTION
2
ENTITIES
0
LWPOLYLINE
5
100
100
AcDbEntity
8
0
100
AcDbPolyline
90
8
70
1
43
0.0
10
-61.117686178830333
20
5.9743539987550172
42
-1.7320508075688785
10
-60.525289913378273
20
4.3467586360562782
10
-63.058548932959098
20
-10.020067186075533
10
-77.706907197247801
20
-15.351633575144032
10
-89.648358264288746
20
-5.3315663890685343
10
-86.941451067040973
20
10.020067186075464
10
-73.232785423538189
20
15.009613431818302
42
-1.7320508075688776
10
-71.527048359633312
20
14.708845965457449
0
LWPOLYLINE
5
101
100
AcDbEntity
8
0
100
AcDbPolyline
90
8
70
1
43
0.0
10
-98.334523779155901
20
-23.334523779156147
42
-0.75414547809069166
10
-117.42640687119268
20
-42.426406871192938
42
0.0436005458237664
10
-109.42643647473997
20
-49.140822862979093
42
0.54390732927700913
10
-42.034859206517972
20
1.5164077505467306
42
0.186992412823003
10
-51.665476220843928
20
23.334523779156029
42
-0.75414547809069221
10
-32.573593128807154
20
42.426406871192839
42
0.0436005458237664
10
-40.57356352525985
20
49.140822862979007
42
0.54390732927700935
10
-107.96514079348185
20
-1.5164077505468407
42
0.18699241282300214
0
LWPOLYLINE
5
102
100
AcDbEntity
8
0
100
AcDbPolyline
90
8
70
1
43
0.0
10
-61.117686178830446
20
5.9743539987549754
42
-1.7320508075688776
10
-60.525289913378387
20
4.3467586360562427
10
-63.058548932959219
20
-10.020067186075563
10
-77.706907197247929
20
-15.351633575144062
10
-89.648358264288873
20
-5.3315663890685672
10
-86.9414510670411
20
10.020067186075423
10
-73.232785423538317
20
15.009613431818256
42
-1.732050807568875
10
-71.527048359633426
20
14.708845965457407
0
LWPOLYLINE
5
103
100
AcDbEntity
8
0
100
AcDbPolyline
90
8
70
1
43
0.0
10
-98.334523779156029
20
-23.334523779156161
42
-0.75414547809069232
10
-117.42640687119282
20
-42.426406871192953
42
0.043600545823764478
10
-109.42643647474007
20
-49.140822862979128
42
0.54390732927700913
10
-42.03485920651805
20
1.5164077505467042
42
0.18699241282300152
10
-51.66547622084402
20
23.33452377915598
42
-0.75414547809069232
10
-32.573593128807246
20
42.426406871192782
42
0.043600545823766559
10
-40.573563525259992
20
49.140822862978972
42
0.54390732927700924
10
-107.96514079348199
20
-1.5164077505468798
42
0.18699241282300208
0
ENDSEC
0
SECTION
2
OBJECTS
0
DICTIONARY
5
C
100
AcDbDictionary
3
ACAD_GROUP
350
D
3
ACAD_MLINESTYLE
350
17
0
DICTIONARY
5
D
100
AcDbDictionary
0
DICTIONARY
5
1A
330
C
100
AcDbDictionary
0
DICTIONARY
5
17
100
AcDbDictionary
0
ENDSEC
0
EOF
