solid OpenSCAD_Model
  facet normal -0.998629 0.052337 0
    outer loop
      vertex -3.99219 0 -130
      vertex -3.97032 0.417296 -108
      vertex -3.97032 0.417296 -130
    endloop
  endfacet
  facet normal -0.998629 0.052337 0
    outer loop
      vertex -3.97032 0.417296 -108
      vertex -3.99219 0 -130
      vertex -3.99219 0 -108
    endloop
  endfacet
  facet normal -0.987688 0.156436 0
    outer loop
      vertex -3.97032 0.417296 -130
      vertex -3.90495 0.830022 -108
      vertex -3.90495 0.830022 -130
    endloop
  endfacet
  facet normal -0.987688 0.156436 0
    outer loop
      vertex -3.90495 0.830022 -108
      vertex -3.97032 0.417296 -130
      vertex -3.97032 0.417296 -108
    endloop
  endfacet
  facet normal -0.052337 0.998629 0
    outer loop
      vertex 0 3.99219 -130
      vertex -0.417296 3.97032 -108
      vertex 0 3.99219 -108
    endloop
  endfacet
  facet normal -0.052337 0.998629 0
    outer loop
      vertex -0.417296 3.97032 -108
      vertex 0 3.99219 -130
      vertex -0.417296 3.97032 -130
    endloop
  endfacet
  facet normal 0.998629 0.052337 0
    outer loop
      vertex 3.99219 0 -108
      vertex 3.97032 0.417296 -130
      vertex 3.97032 0.417296 -108
    endloop
  endfacet
  facet normal 0.998629 0.052337 0
    outer loop
      vertex 3.97032 0.417296 -130
      vertex 3.99219 0 -108
      vertex 3.99219 0 -130
    endloop
  endfacet
  facet normal -0.258815 -0.965927 0
    outer loop
      vertex -1.23365 -3.7968 -130
      vertex -0.830022 -3.90495 -108
      vertex -1.23365 -3.7968 -108
    endloop
  endfacet
  facet normal -0.258815 -0.965927 -0
    outer loop
      vertex -0.830022 -3.90495 -108
      vertex -1.23365 -3.7968 -130
      vertex -0.830022 -3.90495 -130
    endloop
  endfacet
  facet normal -0 0 -1
    outer loop
      vertex 7.5 0 0
      vertex 3.97809 -0.418114 0
      vertex 4 0 0
    endloop
  endfacet
  facet normal 0 0 -1
    outer loop
      vertex 7.5 0 0
      vertex 3.91259 -0.831646 0
      vertex 3.97809 -0.418114 0
    endloop
  endfacet
  facet normal 0 0 -1
    outer loop
      vertex 7.5 0 0
      vertex 3.80423 -1.23607 0
      vertex 3.91259 -0.831646 0
    endloop
  endfacet
  facet normal 0 0 -1
    outer loop
      vertex 3.4641 -2 0
      vertex 7.5 0 0
      vertex 3.75 -6.49519 0
    endloop
  endfacet
  facet normal 0 0 -1
    outer loop
      vertex 7.5 0 0
      vertex 3.65418 -1.62695 0
      vertex 3.80423 -1.23607 0
    endloop
  endfacet
  facet normal 0 0 -1
    outer loop
      vertex 7.5 0 0
      vertex 3.4641 -2 0
      vertex 3.65418 -1.62695 0
    endloop
  endfacet
  facet normal 0 0 -1
    outer loop
      vertex 3.75 -6.49519 0
      vertex 3.23607 -2.35114 0
      vertex 3.4641 -2 0
    endloop
  endfacet
  facet normal 0 0 -1
    outer loop
      vertex 3.75 -6.49519 0
      vertex 2.97258 -2.67652 0
      vertex 3.23607 -2.35114 0
    endloop
  endfacet
  facet normal 0 0 -1
    outer loop
      vertex 3.75 -6.49519 0
      vertex 2.67652 -2.97258 0
      vertex 2.97258 -2.67652 0
    endloop
  endfacet
  facet normal 0 0 -1
    outer loop
      vertex 3.75 -6.49519 0
      vertex 2.35114 -3.23607 0
      vertex 2.67652 -2.97258 0
    endloop
  endfacet
  facet normal 0 0 -1
    outer loop
      vertex 3.75 -6.49519 0
      vertex 2 -3.4641 0
      vertex 2.35114 -3.23607 0
    endloop
  endfacet
  facet normal 0 0 -1
    outer loop
      vertex 3.75 -6.49519 0
      vertex 1.62695 -3.65418 0
      vertex 2 -3.4641 0
    endloop
  endfacet
  facet normal 0 0 -1
    outer loop
      vertex 3.75 -6.49519 0
      vertex 1.23607 -3.80423 0
      vertex 1.62695 -3.65418 0
    endloop
  endfacet
  facet normal 0 0 -1
    outer loop
      vertex 3.75 -6.49519 0
      vertex 0.831646 -3.91259 0
      vertex 1.23607 -3.80423 0
    endloop
  endfacet
  facet normal 0 0 -1
    outer loop
      vertex 3.75 -6.49519 0
      vertex 0.418114 -3.97809 0
      vertex 0.831646 -3.91259 0
    endloop
  endfacet
  facet normal 0 0 -1
    outer loop
      vertex 3.75 -6.49519 0
      vertex 0 -4 0
      vertex 0.418114 -3.97809 0
    endloop
  endfacet
  facet normal 0 0 -1
    outer loop
      vertex -3.75 -6.49519 0
      vertex 0 -4 0
      vertex 3.75 -6.49519 0
    endloop
  endfacet
  facet normal -0 0 -1
    outer loop
      vertex 0 -4 0
      vertex -3.75 -6.49519 0
      vertex -0.418114 -3.97809 0
    endloop
  endfacet
  facet normal -0 0 -1
    outer loop
      vertex -0.418114 -3.97809 0
      vertex -3.75 -6.49519 0
      vertex -0.831646 -3.91259 0
    endloop
  endfacet
  facet normal -0 0 -1
    outer loop
      vertex -0.831646 -3.91259 0
      vertex -3.75 -6.49519 0
      vertex -1.23607 -3.80423 0
    endloop
  endfacet
  facet normal -0 0 -1
    outer loop
      vertex -1.23607 -3.80423 0
      vertex -3.75 -6.49519 0
      vertex -1.62695 -3.65418 0
    endloop
  endfacet
  facet normal -0 0 -1
    outer loop
      vertex -1.62695 -3.65418 0
      vertex -3.75 -6.49519 0
      vertex -2 -3.4641 0
    endloop
  endfacet
  facet normal 0 0 -1
    outer loop
      vertex -3.75 -6.49519 0
      vertex -2.35114 -3.23607 0
      vertex -2 -3.4641 0
    endloop
  endfacet
  facet normal 0 0 -1
    outer loop
      vertex -3.75 -6.49519 0
      vertex -2.67652 -2.97258 0
      vertex -2.35114 -3.23607 0
    endloop
  endfacet
  facet normal 0 0 -1
    outer loop
      vertex -3.75 -6.49519 0
      vertex -2.97258 -2.67652 0
      vertex -2.67652 -2.97258 0
    endloop
  endfacet
  facet normal 0 0 -1
    outer loop
      vertex -3.75 -6.49519 0
      vertex -3.23607 -2.35114 0
      vertex -2.97258 -2.67652 0
    endloop
  endfacet
  facet normal 0 0 -1
    outer loop
      vertex -3.75 -6.49519 0
      vertex -3.4641 -2 0
      vertex -3.23607 -2.35114 0
    endloop
  endfacet
  facet normal 0 0 -1
    outer loop
      vertex -7.5 0 0
      vertex -3.4641 -2 0
      vertex -3.75 -6.49519 0
    endloop
  endfacet
  facet normal 0 0 -1
    outer loop
      vertex -3.4641 -2 0
      vertex -7.5 0 0
      vertex -3.65418 -1.62695 0
    endloop
  endfacet
  facet normal 0 0 -1
    outer loop
      vertex -3.65418 -1.62695 0
      vertex -7.5 0 0
      vertex -3.80423 -1.23607 0
    endloop
  endfacet
  facet normal 0 0 -1
    outer loop
      vertex -3.80423 -1.23607 0
      vertex -7.5 0 0
      vertex -3.91259 -0.831646 0
    endloop
  endfacet
  facet normal 0 0 -1
    outer loop
      vertex -3.91259 -0.831646 0
      vertex -7.5 0 0
      vertex -3.97809 -0.418114 0
    endloop
  endfacet
  facet normal 0 0 -1
    outer loop
      vertex -3.97809 -0.418114 0
      vertex -7.5 0 0
      vertex -4 0 0
    endloop
  endfacet
  facet normal 0 0 -1
    outer loop
      vertex 3.97809 0.418114 0
      vertex 7.5 0 0
      vertex 4 0 0
    endloop
  endfacet
  facet normal 0 0 -1
    outer loop
      vertex 3.91259 0.831646 0
      vertex 7.5 0 0
      vertex 3.97809 0.418114 0
    endloop
  endfacet
  facet normal 0 0 -1
    outer loop
      vertex 3.80423 1.23607 0
      vertex 7.5 0 0
      vertex 3.91259 0.831646 0
    endloop
  endfacet
  facet normal 0 0 -1
    outer loop
      vertex 3.65418 1.62695 0
      vertex 7.5 0 0
      vertex 3.80423 1.23607 0
    endloop
  endfacet
  facet normal 0 0 -1
    outer loop
      vertex 3.4641 2 0
      vertex 7.5 0 0
      vertex 3.65418 1.62695 0
    endloop
  endfacet
  facet normal 0 0 -1
    outer loop
      vertex 7.5 0 0
      vertex 3.4641 2 0
      vertex 3.75 6.49519 0
    endloop
  endfacet
  facet normal 0 0 -1
    outer loop
      vertex 3.23607 2.35114 0
      vertex 3.75 6.49519 0
      vertex 3.4641 2 0
    endloop
  endfacet
  facet normal 0 0 -1
    outer loop
      vertex 2.97258 2.67652 0
      vertex 3.75 6.49519 0
      vertex 3.23607 2.35114 0
    endloop
  endfacet
  facet normal 0 0 -1
    outer loop
      vertex 2.67652 2.97258 0
      vertex 3.75 6.49519 0
      vertex 2.97258 2.67652 0
    endloop
  endfacet
  facet normal 0 0 -1
    outer loop
      vertex 2.35114 3.23607 0
      vertex 3.75 6.49519 0
      vertex 2.67652 2.97258 0
    endloop
  endfacet
  facet normal 0 0 -1
    outer loop
      vertex 2 3.4641 0
      vertex 3.75 6.49519 0
      vertex 2.35114 3.23607 0
    endloop
  endfacet
  facet normal 0 0 -1
    outer loop
      vertex 1.62695 3.65418 0
      vertex 3.75 6.49519 0
      vertex 2 3.4641 0
    endloop
  endfacet
  facet normal 0 0 -1
    outer loop
      vertex 1.23607 3.80423 0
      vertex 3.75 6.49519 0
      vertex 1.62695 3.65418 0
    endloop
  endfacet
  facet normal 0 0 -1
    outer loop
      vertex 0.831646 3.91259 0
      vertex 3.75 6.49519 0
      vertex 1.23607 3.80423 0
    endloop
  endfacet
  facet normal 0 0 -1
    outer loop
      vertex 0.418114 3.97809 0
      vertex 3.75 6.49519 0
      vertex 0.831646 3.91259 0
    endloop
  endfacet
  facet normal 0 0 -1
    outer loop
      vertex 0 4 0
      vertex 3.75 6.49519 0
      vertex 0.418114 3.97809 0
    endloop
  endfacet
  facet normal 0 0 -1
    outer loop
      vertex -3.75 6.49519 0
      vertex 0 4 0
      vertex -0.418114 3.97809 0
    endloop
  endfacet
  facet normal 0 0 -1
    outer loop
      vertex -3.75 6.49519 0
      vertex -0.418114 3.97809 0
      vertex -0.831646 3.91259 0
    endloop
  endfacet
  facet normal 0 0 -1
    outer loop
      vertex -3.75 6.49519 0
      vertex -0.831646 3.91259 0
      vertex -1.23607 3.80423 0
    endloop
  endfacet
  facet normal 0 0 -1
    outer loop
      vertex -3.75 6.49519 0
      vertex -1.23607 3.80423 0
      vertex -1.62695 3.65418 0
    endloop
  endfacet
  facet normal 0 0 -1
    outer loop
      vertex -3.75 6.49519 0
      vertex -1.62695 3.65418 0
      vertex -2 3.4641 0
    endloop
  endfacet
  facet normal 0 0 -1
    outer loop
      vertex 0 4 0
      vertex -3.75 6.49519 0
      vertex 3.75 6.49519 0
    endloop
  endfacet
  facet normal 0 0 -1
    outer loop
      vertex -2.35114 3.23607 0
      vertex -3.75 6.49519 0
      vertex -2 3.4641 0
    endloop
  endfacet
  facet normal 0 0 -1
    outer loop
      vertex -2.67652 2.97258 0
      vertex -3.75 6.49519 0
      vertex -2.35114 3.23607 0
    endloop
  endfacet
  facet normal 0 0 -1
    outer loop
      vertex -2.97258 2.67652 0
      vertex -3.75 6.49519 0
      vertex -2.67652 2.97258 0
    endloop
  endfacet
  facet normal 0 0 -1
    outer loop
      vertex -3.23607 2.35114 0
      vertex -3.75 6.49519 0
      vertex -2.97258 2.67652 0
    endloop
  endfacet
  facet normal 0 0 -1
    outer loop
      vertex -3.4641 2 0
      vertex -3.75 6.49519 0
      vertex -3.23607 2.35114 0
    endloop
  endfacet
  facet normal 0 0 -1
    outer loop
      vertex -7.5 0 0
      vertex -3.4641 2 0
      vertex -3.65418 1.62695 0
    endloop
  endfacet
  facet normal 0 0 -1
    outer loop
      vertex -7.5 0 0
      vertex -3.65418 1.62695 0
      vertex -3.80423 1.23607 0
    endloop
  endfacet
  facet normal 0 0 -1
    outer loop
      vertex -7.5 0 0
      vertex -3.80423 1.23607 0
      vertex -3.91259 0.831646 0
    endloop
  endfacet
  facet normal 0 0 -1
    outer loop
      vertex -7.5 0 0
      vertex -3.91259 0.831646 0
      vertex -3.97809 0.418114 0
    endloop
  endfacet
  facet normal 0 0 -1
    outer loop
      vertex -7.5 0 0
      vertex -3.97809 0.418114 0
      vertex -4 0 0
    endloop
  endfacet
  facet normal -0 0 -1
    outer loop
      vertex -3.4641 2 0
      vertex -7.5 0 0
      vertex -3.75 6.49519 0
    endloop
  endfacet
  facet normal -0.965927 0.258815 0
    outer loop
      vertex -3.90495 0.830022 -130
      vertex -3.7968 1.23365 -108
      vertex -3.7968 1.23365 -130
    endloop
  endfacet
  facet normal -0.965927 0.258815 0
    outer loop
      vertex -3.7968 1.23365 -108
      vertex -3.90495 0.830022 -130
      vertex -3.90495 0.830022 -108
    endloop
  endfacet
  facet normal -0.707107 0.707107 0
    outer loop
      vertex -2.96677 2.67129 -130
      vertex -2.67129 2.96677 -108
      vertex -2.67129 2.96677 -130
    endloop
  endfacet
  facet normal -0.707107 0.707107 0
    outer loop
      vertex -2.67129 2.96677 -108
      vertex -2.96677 2.67129 -130
      vertex -2.96677 2.67129 -108
    endloop
  endfacet
  facet normal 0.052337 0.998629 -0
    outer loop
      vertex 0.417296 3.97032 -130
      vertex 0 3.99219 -108
      vertex 0.417296 3.97032 -108
    endloop
  endfacet
  facet normal 0.052337 0.998629 0
    outer loop
      vertex 0 3.99219 -108
      vertex 0.417296 3.97032 -130
      vertex 0 3.99219 -130
    endloop
  endfacet
  facet normal -0.258815 0.965927 0
    outer loop
      vertex -0.830022 3.90495 -130
      vertex -1.23365 3.7968 -108
      vertex -0.830022 3.90495 -108
    endloop
  endfacet
  facet normal -0.258815 0.965927 0
    outer loop
      vertex -1.23365 3.7968 -108
      vertex -0.830022 3.90495 -130
      vertex -1.23365 3.7968 -130
    endloop
  endfacet
  facet normal 0.629336 -0.777133 0
    outer loop
      vertex 2.34655 -3.22975 -130
      vertex 2.67129 -2.96677 -108
      vertex 2.34655 -3.22975 -108
    endloop
  endfacet
  facet normal 0.629336 -0.777133 0
    outer loop
      vertex 2.67129 -2.96677 -108
      vertex 2.34655 -3.22975 -130
      vertex 2.67129 -2.96677 -130
    endloop
  endfacet
  facet normal 0.965927 -0.258815 0
    outer loop
      vertex 3.7968 -1.23365 -108
      vertex 3.90495 -0.830022 -130
      vertex 3.90495 -0.830022 -108
    endloop
  endfacet
  facet normal 0.965927 -0.258815 0
    outer loop
      vertex 3.90495 -0.830022 -130
      vertex 3.7968 -1.23365 -108
      vertex 3.7968 -1.23365 -130
    endloop
  endfacet
  facet normal 0.933575 0.358382 0
    outer loop
      vertex 3.7968 1.23365 -108
      vertex 3.64704 1.62377 -130
      vertex 3.64704 1.62377 -108
    endloop
  endfacet
  facet normal 0.933575 0.358382 0
    outer loop
      vertex 3.64704 1.62377 -130
      vertex 3.7968 1.23365 -108
      vertex 3.7968 1.23365 -130
    endloop
  endfacet
  facet normal -0.453978 -0.891013 0
    outer loop
      vertex -1.99609 -3.45734 -130
      vertex -1.62377 -3.64704 -108
      vertex -1.99609 -3.45734 -108
    endloop
  endfacet
  facet normal -0.453978 -0.891013 -0
    outer loop
      vertex -1.62377 -3.64704 -108
      vertex -1.99609 -3.45734 -130
      vertex -1.62377 -3.64704 -130
    endloop
  endfacet
  facet normal -0.052337 -0.998629 0
    outer loop
      vertex -0.417296 -3.97032 -130
      vertex 0 -3.99219 -108
      vertex -0.417296 -3.97032 -108
    endloop
  endfacet
  facet normal -0.052337 -0.998629 -0
    outer loop
      vertex 0 -3.99219 -108
      vertex -0.417296 -3.97032 -130
      vertex 0 -3.99219 -130
    endloop
  endfacet
  facet normal 0.052337 -0.998629 0
    outer loop
      vertex 0 -3.99219 -130
      vertex 0.417296 -3.97032 -108
      vertex 0 -3.99219 -108
    endloop
  endfacet
  facet normal 0.052337 -0.998629 0
    outer loop
      vertex 0.417296 -3.97032 -108
      vertex 0 -3.99219 -130
      vertex 0.417296 -3.97032 -130
    endloop
  endfacet
  facet normal -0.998629 -0.052337 0
    outer loop
      vertex -3.97032 -0.417296 -130
      vertex -3.99219 0 -108
      vertex -3.99219 0 -130
    endloop
  endfacet
  facet normal -0.998629 -0.052337 0
    outer loop
      vertex -3.99219 0 -108
      vertex -3.97032 -0.417296 -130
      vertex -3.97032 -0.417296 -108
    endloop
  endfacet
  facet normal -0.965927 -0.258815 0
    outer loop
      vertex -3.7968 -1.23365 -130
      vertex -3.90495 -0.830022 -108
      vertex -3.90495 -0.830022 -130
    endloop
  endfacet
  facet normal -0.965927 -0.258815 0
    outer loop
      vertex -3.90495 -0.830022 -108
      vertex -3.7968 -1.23365 -130
      vertex -3.7968 -1.23365 -108
    endloop
  endfacet
  facet normal -0.838672 -0.544637 0
    outer loop
      vertex -3.22975 -2.34655 -130
      vertex -3.45734 -1.99609 -108
      vertex -3.45734 -1.99609 -130
    endloop
  endfacet
  facet normal -0.838672 -0.544637 0
    outer loop
      vertex -3.45734 -1.99609 -108
      vertex -3.22975 -2.34655 -130
      vertex -3.22975 -2.34655 -108
    endloop
  endfacet
  facet normal 0 0 -1
    outer loop
      vertex 3.97032 -0.417296 -130
      vertex 3.97032 0.417296 -130
      vertex 3.99219 0 -130
    endloop
  endfacet
  facet normal 0 0 -1
    outer loop
      vertex 3.90495 -0.830022 -130
      vertex 3.97032 0.417296 -130
      vertex 3.97032 -0.417296 -130
    endloop
  endfacet
  facet normal 0 0 -1
    outer loop
      vertex 3.90495 -0.830022 -130
      vertex 3.90495 0.830022 -130
      vertex 3.97032 0.417296 -130
    endloop
  endfacet
  facet normal 0 0 -1
    outer loop
      vertex 3.7968 -1.23365 -130
      vertex 3.90495 0.830022 -130
      vertex 3.90495 -0.830022 -130
    endloop
  endfacet
  facet normal 0 0 -1
    outer loop
      vertex 3.7968 -1.23365 -130
      vertex 3.7968 1.23365 -130
      vertex 3.90495 0.830022 -130
    endloop
  endfacet
  facet normal 0 0 -1
    outer loop
      vertex 3.64704 -1.62377 -130
      vertex 3.7968 1.23365 -130
      vertex 3.7968 -1.23365 -130
    endloop
  endfacet
  facet normal 0 0 -1
    outer loop
      vertex 3.64704 -1.62377 -130
      vertex 3.64704 1.62377 -130
      vertex 3.7968 1.23365 -130
    endloop
  endfacet
  facet normal 0 0 -1
    outer loop
      vertex 3.45734 -1.99609 -130
      vertex 3.64704 1.62377 -130
      vertex 3.64704 -1.62377 -130
    endloop
  endfacet
  facet normal 0 0 -1
    outer loop
      vertex 3.45734 -1.99609 -130
      vertex 3.45734 1.99609 -130
      vertex 3.64704 1.62377 -130
    endloop
  endfacet
  facet normal 0 0 -1
    outer loop
      vertex 3.22975 -2.34655 -130
      vertex 3.45734 1.99609 -130
      vertex 3.45734 -1.99609 -130
    endloop
  endfacet
  facet normal 0 0 -1
    outer loop
      vertex 3.22975 -2.34655 -130
      vertex 3.22975 2.34655 -130
      vertex 3.45734 1.99609 -130
    endloop
  endfacet
  facet normal 0 0 -1
    outer loop
      vertex 2.96677 -2.67129 -130
      vertex 3.22975 2.34655 -130
      vertex 3.22975 -2.34655 -130
    endloop
  endfacet
  facet normal 0 0 -1
    outer loop
      vertex 2.96677 -2.67129 -130
      vertex 2.96677 2.67129 -130
      vertex 3.22975 2.34655 -130
    endloop
  endfacet
  facet normal 0 0 -1
    outer loop
      vertex 2.67129 -2.96677 -130
      vertex 2.96677 2.67129 -130
      vertex 2.96677 -2.67129 -130
    endloop
  endfacet
  facet normal 0 0 -1
    outer loop
      vertex 2.67129 -2.96677 -130
      vertex 2.67129 2.96677 -130
      vertex 2.96677 2.67129 -130
    endloop
  endfacet
  facet normal 0 0 -1
    outer loop
      vertex 2.34655 -3.22975 -130
      vertex 2.67129 2.96677 -130
      vertex 2.67129 -2.96677 -130
    endloop
  endfacet
  facet normal 0 0 -1
    outer loop
      vertex 2.34655 -3.22975 -130
      vertex 2.34655 3.22975 -130
      vertex 2.67129 2.96677 -130
    endloop
  endfacet
  facet normal 0 0 -1
    outer loop
      vertex 1.99609 -3.45734 -130
      vertex 2.34655 3.22975 -130
      vertex 2.34655 -3.22975 -130
    endloop
  endfacet
  facet normal 0 0 -1
    outer loop
      vertex 1.99609 -3.45734 -130
      vertex 1.99609 3.45734 -130
      vertex 2.34655 3.22975 -130
    endloop
  endfacet
  facet normal 0 0 -1
    outer loop
      vertex 1.62377 -3.64704 -130
      vertex 1.99609 3.45734 -130
      vertex 1.99609 -3.45734 -130
    endloop
  endfacet
  facet normal 0 0 -1
    outer loop
      vertex 1.62377 -3.64704 -130
      vertex 1.62377 3.64704 -130
      vertex 1.99609 3.45734 -130
    endloop
  endfacet
  facet normal 0 0 -1
    outer loop
      vertex 1.23365 -3.7968 -130
      vertex 1.62377 3.64704 -130
      vertex 1.62377 -3.64704 -130
    endloop
  endfacet
  facet normal 0 0 -1
    outer loop
      vertex 1.23365 -3.7968 -130
      vertex 1.23365 3.7968 -130
      vertex 1.62377 3.64704 -130
    endloop
  endfacet
  facet normal 0 0 -1
    outer loop
      vertex 0.830022 -3.90495 -130
      vertex 1.23365 3.7968 -130
      vertex 1.23365 -3.7968 -130
    endloop
  endfacet
  facet normal 0 0 -1
    outer loop
      vertex 0.830022 -3.90495 -130
      vertex 0.830022 3.90495 -130
      vertex 1.23365 3.7968 -130
    endloop
  endfacet
  facet normal 0 0 -1
    outer loop
      vertex 0.417296 -3.97032 -130
      vertex 0.830022 3.90495 -130
      vertex 0.830022 -3.90495 -130
    endloop
  endfacet
  facet normal 0 0 -1
    outer loop
      vertex 0.417296 -3.97032 -130
      vertex 0.417296 3.97032 -130
      vertex 0.830022 3.90495 -130
    endloop
  endfacet
  facet normal 0 0 -1
    outer loop
      vertex 0 -3.99219 -130
      vertex 0.417296 3.97032 -130
      vertex 0.417296 -3.97032 -130
    endloop
  endfacet
  facet normal 0 0 -1
    outer loop
      vertex 0 -3.99219 -130
      vertex 0 3.99219 -130
      vertex 0.417296 3.97032 -130
    endloop
  endfacet
  facet normal 0 0 -1
    outer loop
      vertex -0.417296 -3.97032 -130
      vertex 0 3.99219 -130
      vertex 0 -3.99219 -130
    endloop
  endfacet
  facet normal 0 0 -1
    outer loop
      vertex -0.417296 -3.97032 -130
      vertex -0.417296 3.97032 -130
      vertex 0 3.99219 -130
    endloop
  endfacet
  facet normal 0 0 -1
    outer loop
      vertex -0.830022 -3.90495 -130
      vertex -0.417296 3.97032 -130
      vertex -0.417296 -3.97032 -130
    endloop
  endfacet
  facet normal 0 0 -1
    outer loop
      vertex -0.830022 -3.90495 -130
      vertex -0.830022 3.90495 -130
      vertex -0.417296 3.97032 -130
    endloop
  endfacet
  facet normal 0 0 -1
    outer loop
      vertex -1.23365 -3.7968 -130
      vertex -0.830022 3.90495 -130
      vertex -0.830022 -3.90495 -130
    endloop
  endfacet
  facet normal 0 0 -1
    outer loop
      vertex -1.23365 -3.7968 -130
      vertex -1.23365 3.7968 -130
      vertex -0.830022 3.90495 -130
    endloop
  endfacet
  facet normal 0 0 -1
    outer loop
      vertex -1.62377 -3.64704 -130
      vertex -1.23365 3.7968 -130
      vertex -1.23365 -3.7968 -130
    endloop
  endfacet
  facet normal 0 0 -1
    outer loop
      vertex -1.62377 -3.64704 -130
      vertex -1.62377 3.64704 -130
      vertex -1.23365 3.7968 -130
    endloop
  endfacet
  facet normal 0 0 -1
    outer loop
      vertex -1.99609 -3.45734 -130
      vertex -1.62377 3.64704 -130
      vertex -1.62377 -3.64704 -130
    endloop
  endfacet
  facet normal 0 0 -1
    outer loop
      vertex -1.99609 -3.45734 -130
      vertex -1.99609 3.45734 -130
      vertex -1.62377 3.64704 -130
    endloop
  endfacet
  facet normal 0 0 -1
    outer loop
      vertex -2.34655 -3.22975 -130
      vertex -1.99609 3.45734 -130
      vertex -1.99609 -3.45734 -130
    endloop
  endfacet
  facet normal 0 0 -1
    outer loop
      vertex -2.34655 -3.22975 -130
      vertex -2.34655 3.22975 -130
      vertex -1.99609 3.45734 -130
    endloop
  endfacet
  facet normal 0 0 -1
    outer loop
      vertex -2.67129 -2.96677 -130
      vertex -2.34655 3.22975 -130
      vertex -2.34655 -3.22975 -130
    endloop
  endfacet
  facet normal 0 0 -1
    outer loop
      vertex -2.67129 -2.96677 -130
      vertex -2.67129 2.96677 -130
      vertex -2.34655 3.22975 -130
    endloop
  endfacet
  facet normal 0 0 -1
    outer loop
      vertex -2.96677 -2.67129 -130
      vertex -2.67129 2.96677 -130
      vertex -2.67129 -2.96677 -130
    endloop
  endfacet
  facet normal 0 0 -1
    outer loop
      vertex -2.96677 -2.67129 -130
      vertex -2.96677 2.67129 -130
      vertex -2.67129 2.96677 -130
    endloop
  endfacet
  facet normal 0 0 -1
    outer loop
      vertex -3.22975 -2.34655 -130
      vertex -2.96677 2.67129 -130
      vertex -2.96677 -2.67129 -130
    endloop
  endfacet
  facet normal 0 0 -1
    outer loop
      vertex -3.22975 -2.34655 -130
      vertex -3.22975 2.34655 -130
      vertex -2.96677 2.67129 -130
    endloop
  endfacet
  facet normal 0 0 -1
    outer loop
      vertex -3.45734 -1.99609 -130
      vertex -3.22975 2.34655 -130
      vertex -3.22975 -2.34655 -130
    endloop
  endfacet
  facet normal 0 0 -1
    outer loop
      vertex -3.45734 -1.99609 -130
      vertex -3.45734 1.99609 -130
      vertex -3.22975 2.34655 -130
    endloop
  endfacet
  facet normal 0 0 -1
    outer loop
      vertex -3.64704 -1.62377 -130
      vertex -3.45734 1.99609 -130
      vertex -3.45734 -1.99609 -130
    endloop
  endfacet
  facet normal 0 0 -1
    outer loop
      vertex -3.64704 -1.62377 -130
      vertex -3.64704 1.62377 -130
      vertex -3.45734 1.99609 -130
    endloop
  endfacet
  facet normal 0 0 -1
    outer loop
      vertex -3.7968 -1.23365 -130
      vertex -3.64704 1.62377 -130
      vertex -3.64704 -1.62377 -130
    endloop
  endfacet
  facet normal 0 0 -1
    outer loop
      vertex -3.7968 -1.23365 -130
      vertex -3.7968 1.23365 -130
      vertex -3.64704 1.62377 -130
    endloop
  endfacet
  facet normal 0 0 -1
    outer loop
      vertex -3.90495 -0.830022 -130
      vertex -3.7968 1.23365 -130
      vertex -3.7968 -1.23365 -130
    endloop
  endfacet
  facet normal 0 0 -1
    outer loop
      vertex -3.90495 -0.830022 -130
      vertex -3.90495 0.830022 -130
      vertex -3.7968 1.23365 -130
    endloop
  endfacet
  facet normal 0 0 -1
    outer loop
      vertex -3.97032 -0.417296 -130
      vertex -3.90495 0.830022 -130
      vertex -3.90495 -0.830022 -130
    endloop
  endfacet
  facet normal 0 0 -1
    outer loop
      vertex -3.97032 -0.417296 -130
      vertex -3.97032 0.417296 -130
      vertex -3.90495 0.830022 -130
    endloop
  endfacet
  facet normal 0 -0 -1
    outer loop
      vertex -3.97032 0.417296 -130
      vertex -3.97032 -0.417296 -130
      vertex -3.99219 0 -130
    endloop
  endfacet
  facet normal -0.933575 0.358382 0
    outer loop
      vertex -3.7968 1.23365 -130
      vertex -3.64704 1.62377 -108
      vertex -3.64704 1.62377 -130
    endloop
  endfacet
  facet normal -0.933575 0.358382 0
    outer loop
      vertex -3.64704 1.62377 -108
      vertex -3.7968 1.23365 -130
      vertex -3.7968 1.23365 -108
    endloop
  endfacet
  facet normal -0.891013 0.453978 0
    outer loop
      vertex -3.64704 1.62377 -130
      vertex -3.45734 1.99609 -108
      vertex -3.45734 1.99609 -130
    endloop
  endfacet
  facet normal -0.891013 0.453978 0
    outer loop
      vertex -3.45734 1.99609 -108
      vertex -3.64704 1.62377 -130
      vertex -3.64704 1.62377 -108
    endloop
  endfacet
  facet normal -0.156436 0.987688 0
    outer loop
      vertex -0.417296 3.97032 -130
      vertex -0.830022 3.90495 -108
      vertex -0.417296 3.97032 -108
    endloop
  endfacet
  facet normal -0.156436 0.987688 0
    outer loop
      vertex -0.830022 3.90495 -108
      vertex -0.417296 3.97032 -130
      vertex -0.830022 3.90495 -130
    endloop
  endfacet
  facet normal -0.629336 0.777133 0
    outer loop
      vertex -2.34655 3.22975 -130
      vertex -2.67129 2.96677 -108
      vertex -2.34655 3.22975 -108
    endloop
  endfacet
  facet normal -0.629336 0.777133 0
    outer loop
      vertex -2.67129 2.96677 -108
      vertex -2.34655 3.22975 -130
      vertex -2.67129 2.96677 -130
    endloop
  endfacet
  facet normal -0.544637 0.838672 0
    outer loop
      vertex -1.99609 3.45734 -130
      vertex -2.34655 3.22975 -108
      vertex -1.99609 3.45734 -108
    endloop
  endfacet
  facet normal -0.544637 0.838672 0
    outer loop
      vertex -2.34655 3.22975 -108
      vertex -1.99609 3.45734 -130
      vertex -2.34655 3.22975 -130
    endloop
  endfacet
  facet normal -0.453978 0.891013 0
    outer loop
      vertex -1.62377 3.64704 -130
      vertex -1.99609 3.45734 -108
      vertex -1.62377 3.64704 -108
    endloop
  endfacet
  facet normal -0.453978 0.891013 0
    outer loop
      vertex -1.99609 3.45734 -108
      vertex -1.62377 3.64704 -130
      vertex -1.99609 3.45734 -130
    endloop
  endfacet
  facet normal -0.358382 0.933575 0
    outer loop
      vertex -1.23365 3.7968 -130
      vertex -1.62377 3.64704 -108
      vertex -1.23365 3.7968 -108
    endloop
  endfacet
  facet normal -0.358382 0.933575 0
    outer loop
      vertex -1.62377 3.64704 -108
      vertex -1.23365 3.7968 -130
      vertex -1.62377 3.64704 -130
    endloop
  endfacet
  facet normal 0.156436 -0.987688 0
    outer loop
      vertex 0.417296 -3.97032 -130
      vertex 0.830022 -3.90495 -108
      vertex 0.417296 -3.97032 -108
    endloop
  endfacet
  facet normal 0.156436 -0.987688 0
    outer loop
      vertex 0.830022 -3.90495 -108
      vertex 0.417296 -3.97032 -130
      vertex 0.830022 -3.90495 -130
    endloop
  endfacet
  facet normal 0.544637 0.838672 -0
    outer loop
      vertex 2.34655 3.22975 -130
      vertex 1.99609 3.45734 -108
      vertex 2.34655 3.22975 -108
    endloop
  endfacet
  facet normal 0.544637 0.838672 0
    outer loop
      vertex 1.99609 3.45734 -108
      vertex 2.34655 3.22975 -130
      vertex 1.99609 3.45734 -130
    endloop
  endfacet
  facet normal 0.987688 0.156436 0
    outer loop
      vertex 3.97032 0.417296 -108
      vertex 3.90495 0.830022 -130
      vertex 3.90495 0.830022 -108
    endloop
  endfacet
  facet normal 0.987688 0.156436 0
    outer loop
      vertex 3.90495 0.830022 -130
      vertex 3.97032 0.417296 -108
      vertex 3.97032 0.417296 -130
    endloop
  endfacet
  facet normal 0.707107 0.707107 0
    outer loop
      vertex 2.96677 2.67129 -108
      vertex 2.67129 2.96677 -130
      vertex 2.67129 2.96677 -108
    endloop
  endfacet
  facet normal 0.707107 0.707107 0
    outer loop
      vertex 2.67129 2.96677 -130
      vertex 2.96677 2.67129 -108
      vertex 2.96677 2.67129 -130
    endloop
  endfacet
  facet normal 0.358382 0.933575 -0
    outer loop
      vertex 1.62377 3.64704 -130
      vertex 1.23365 3.7968 -108
      vertex 1.62377 3.64704 -108
    endloop
  endfacet
  facet normal 0.358382 0.933575 0
    outer loop
      vertex 1.23365 3.7968 -108
      vertex 1.62377 3.64704 -130
      vertex 1.23365 3.7968 -130
    endloop
  endfacet
  facet normal -0.156436 -0.987688 0
    outer loop
      vertex -0.830022 -3.90495 -130
      vertex -0.417296 -3.97032 -108
      vertex -0.830022 -3.90495 -108
    endloop
  endfacet
  facet normal -0.156436 -0.987688 -0
    outer loop
      vertex -0.417296 -3.97032 -108
      vertex -0.830022 -3.90495 -130
      vertex -0.417296 -3.97032 -130
    endloop
  endfacet
  facet normal -0.933575 -0.358382 0
    outer loop
      vertex -3.64704 -1.62377 -130
      vertex -3.7968 -1.23365 -108
      vertex -3.7968 -1.23365 -130
    endloop
  endfacet
  facet normal -0.933575 -0.358382 0
    outer loop
      vertex -3.7968 -1.23365 -108
      vertex -3.64704 -1.62377 -130
      vertex -3.64704 -1.62377 -108
    endloop
  endfacet
  facet normal -0.707107 -0.707107 0
    outer loop
      vertex -2.67129 -2.96677 -130
      vertex -2.96677 -2.67129 -108
      vertex -2.96677 -2.67129 -130
    endloop
  endfacet
  facet normal -0.707107 -0.707107 0
    outer loop
      vertex -2.96677 -2.67129 -108
      vertex -2.67129 -2.96677 -130
      vertex -2.67129 -2.96677 -108
    endloop
  endfacet
  facet normal -0.777133 -0.629336 0
    outer loop
      vertex -2.96677 -2.67129 -130
      vertex -3.22975 -2.34655 -108
      vertex -3.22975 -2.34655 -130
    endloop
  endfacet
  facet normal -0.777133 -0.629336 0
    outer loop
      vertex -3.22975 -2.34655 -108
      vertex -2.96677 -2.67129 -130
      vertex -2.96677 -2.67129 -108
    endloop
  endfacet
  facet normal -0.987688 -0.156436 0
    outer loop
      vertex -3.90495 -0.830022 -130
      vertex -3.97032 -0.417296 -108
      vertex -3.97032 -0.417296 -130
    endloop
  endfacet
  facet normal -0.987688 -0.156436 0
    outer loop
      vertex -3.97032 -0.417296 -108
      vertex -3.90495 -0.830022 -130
      vertex -3.90495 -0.830022 -108
    endloop
  endfacet
  facet normal 0.707107 -0.707107 0
    outer loop
      vertex 2.67129 -2.96677 -108
      vertex 2.96677 -2.67129 -130
      vertex 2.96677 -2.67129 -108
    endloop
  endfacet
  facet normal 0.707107 -0.707107 0
    outer loop
      vertex 2.96677 -2.67129 -130
      vertex 2.67129 -2.96677 -108
      vertex 2.67129 -2.96677 -130
    endloop
  endfacet
  facet normal 0.453978 -0.891013 0
    outer loop
      vertex 1.62377 -3.64704 -130
      vertex 1.99609 -3.45734 -108
      vertex 1.62377 -3.64704 -108
    endloop
  endfacet
  facet normal 0.453978 -0.891013 0
    outer loop
      vertex 1.99609 -3.45734 -108
      vertex 1.62377 -3.64704 -130
      vertex 1.99609 -3.45734 -130
    endloop
  endfacet
  facet normal 0.891013 -0.453978 0
    outer loop
      vertex 3.45734 -1.99609 -108
      vertex 3.64704 -1.62377 -130
      vertex 3.64704 -1.62377 -108
    endloop
  endfacet
  facet normal 0.891013 -0.453978 0
    outer loop
      vertex 3.64704 -1.62377 -130
      vertex 3.45734 -1.99609 -108
      vertex 3.45734 -1.99609 -130
    endloop
  endfacet
  facet normal 0.777133 -0.629336 0
    outer loop
      vertex 2.96677 -2.67129 -108
      vertex 3.22975 -2.34655 -130
      vertex 3.22975 -2.34655 -108
    endloop
  endfacet
  facet normal 0.777133 -0.629336 0
    outer loop
      vertex 3.22975 -2.34655 -130
      vertex 2.96677 -2.67129 -108
      vertex 2.96677 -2.67129 -130
    endloop
  endfacet
  facet normal 0.998629 -0.052337 0
    outer loop
      vertex 3.97032 -0.417296 -108
      vertex 3.99219 0 -130
      vertex 3.99219 0 -108
    endloop
  endfacet
  facet normal 0.998629 -0.052337 0
    outer loop
      vertex 3.99219 0 -130
      vertex 3.97032 -0.417296 -108
      vertex 3.97032 -0.417296 -130
    endloop
  endfacet
  facet normal 0.156436 0.987688 -0
    outer loop
      vertex 0.830022 3.90495 -130
      vertex 0.417296 3.97032 -108
      vertex 0.830022 3.90495 -108
    endloop
  endfacet
  facet normal 0.156436 0.987688 0
    outer loop
      vertex 0.417296 3.97032 -108
      vertex 0.830022 3.90495 -130
      vertex 0.417296 3.97032 -130
    endloop
  endfacet
  facet normal 0.965927 0.258815 0
    outer loop
      vertex 3.90495 0.830022 -108
      vertex 3.7968 1.23365 -130
      vertex 3.7968 1.23365 -108
    endloop
  endfacet
  facet normal 0.965927 0.258815 0
    outer loop
      vertex 3.7968 1.23365 -130
      vertex 3.90495 0.830022 -108
      vertex 3.90495 0.830022 -130
    endloop
  endfacet
  facet normal 0.891013 0.453978 0
    outer loop
      vertex 3.64704 1.62377 -108
      vertex 3.45734 1.99609 -130
      vertex 3.45734 1.99609 -108
    endloop
  endfacet
  facet normal 0.891013 0.453978 0
    outer loop
      vertex 3.45734 1.99609 -130
      vertex 3.64704 1.62377 -108
      vertex 3.64704 1.62377 -130
    endloop
  endfacet
  facet normal 0.777133 0.629336 0
    outer loop
      vertex 3.22975 2.34655 -108
      vertex 2.96677 2.67129 -130
      vertex 2.96677 2.67129 -108
    endloop
  endfacet
  facet normal 0.777133 0.629336 0
    outer loop
      vertex 2.96677 2.67129 -130
      vertex 3.22975 2.34655 -108
      vertex 3.22975 2.34655 -130
    endloop
  endfacet
  facet normal 0.838672 0.544637 0
    outer loop
      vertex 3.45734 1.99609 -108
      vertex 3.22975 2.34655 -130
      vertex 3.22975 2.34655 -108
    endloop
  endfacet
  facet normal 0.838672 0.544637 0
    outer loop
      vertex 3.22975 2.34655 -130
      vertex 3.45734 1.99609 -108
      vertex 3.45734 1.99609 -130
    endloop
  endfacet
  facet normal 0.629336 0.777133 -0
    outer loop
      vertex 2.67129 2.96677 -130
      vertex 2.34655 3.22975 -108
      vertex 2.67129 2.96677 -108
    endloop
  endfacet
  facet normal 0.629336 0.777133 0
    outer loop
      vertex 2.34655 3.22975 -108
      vertex 2.67129 2.96677 -130
      vertex 2.34655 3.22975 -130
    endloop
  endfacet
  facet normal 0.453978 0.891013 -0
    outer loop
      vertex 1.99609 3.45734 -130
      vertex 1.62377 3.64704 -108
      vertex 1.99609 3.45734 -108
    endloop
  endfacet
  facet normal 0.453978 0.891013 0
    outer loop
      vertex 1.62377 3.64704 -108
      vertex 1.99609 3.45734 -130
      vertex 1.62377 3.64704 -130
    endloop
  endfacet
  facet normal -0.629336 -0.777133 0
    outer loop
      vertex -2.67129 -2.96677 -130
      vertex -2.34655 -3.22975 -108
      vertex -2.67129 -2.96677 -108
    endloop
  endfacet
  facet normal -0.629336 -0.777133 -0
    outer loop
      vertex -2.34655 -3.22975 -108
      vertex -2.67129 -2.96677 -130
      vertex -2.34655 -3.22975 -130
    endloop
  endfacet
  facet normal -0.544637 -0.838672 0
    outer loop
      vertex -2.34655 -3.22975 -130
      vertex -1.99609 -3.45734 -108
      vertex -2.34655 -3.22975 -108
    endloop
  endfacet
  facet normal -0.544637 -0.838672 -0
    outer loop
      vertex -1.99609 -3.45734 -108
      vertex -2.34655 -3.22975 -130
      vertex -1.99609 -3.45734 -130
    endloop
  endfacet
  facet normal -0.358382 -0.933575 0
    outer loop
      vertex -1.62377 -3.64704 -130
      vertex -1.23365 -3.7968 -108
      vertex -1.62377 -3.64704 -108
    endloop
  endfacet
  facet normal -0.358382 -0.933575 -0
    outer loop
      vertex -1.23365 -3.7968 -108
      vertex -1.62377 -3.64704 -130
      vertex -1.23365 -3.7968 -130
    endloop
  endfacet
  facet normal -0.891013 -0.453978 0
    outer loop
      vertex -3.45734 -1.99609 -130
      vertex -3.64704 -1.62377 -108
      vertex -3.64704 -1.62377 -130
    endloop
  endfacet
  facet normal -0.891013 -0.453978 0
    outer loop
      vertex -3.64704 -1.62377 -108
      vertex -3.45734 -1.99609 -130
      vertex -3.45734 -1.99609 -108
    endloop
  endfacet
  facet normal -0.838672 0.544637 0
    outer loop
      vertex -3.45734 1.99609 -130
      vertex -3.22975 2.34655 -108
      vertex -3.22975 2.34655 -130
    endloop
  endfacet
  facet normal -0.838672 0.544637 0
    outer loop
      vertex -3.22975 2.34655 -108
      vertex -3.45734 1.99609 -130
      vertex -3.45734 1.99609 -108
    endloop
  endfacet
  facet normal -0.777133 0.629336 0
    outer loop
      vertex -3.22975 2.34655 -130
      vertex -2.96677 2.67129 -108
      vertex -2.96677 2.67129 -130
    endloop
  endfacet
  facet normal -0.777133 0.629336 0
    outer loop
      vertex -2.96677 2.67129 -108
      vertex -3.22975 2.34655 -130
      vertex -3.22975 2.34655 -108
    endloop
  endfacet
  facet normal 0.544637 -0.838672 0
    outer loop
      vertex 1.99609 -3.45734 -130
      vertex 2.34655 -3.22975 -108
      vertex 1.99609 -3.45734 -108
    endloop
  endfacet
  facet normal 0.544637 -0.838672 0
    outer loop
      vertex 2.34655 -3.22975 -108
      vertex 1.99609 -3.45734 -130
      vertex 2.34655 -3.22975 -130
    endloop
  endfacet
  facet normal 0.358382 -0.933575 0
    outer loop
      vertex 1.23365 -3.7968 -130
      vertex 1.62377 -3.64704 -108
      vertex 1.23365 -3.7968 -108
    endloop
  endfacet
  facet normal 0.358382 -0.933575 0
    outer loop
      vertex 1.62377 -3.64704 -108
      vertex 1.23365 -3.7968 -130
      vertex 1.62377 -3.64704 -130
    endloop
  endfacet
  facet normal 0.258815 -0.965927 0
    outer loop
      vertex 0.830022 -3.90495 -130
      vertex 1.23365 -3.7968 -108
      vertex 0.830022 -3.90495 -108
    endloop
  endfacet
  facet normal 0.258815 -0.965927 0
    outer loop
      vertex 1.23365 -3.7968 -108
      vertex 0.830022 -3.90495 -130
      vertex 1.23365 -3.7968 -130
    endloop
  endfacet
  facet normal 0.838672 -0.544637 0
    outer loop
      vertex 3.22975 -2.34655 -108
      vertex 3.45734 -1.99609 -130
      vertex 3.45734 -1.99609 -108
    endloop
  endfacet
  facet normal 0.838672 -0.544637 0
    outer loop
      vertex 3.45734 -1.99609 -130
      vertex 3.22975 -2.34655 -108
      vertex 3.22975 -2.34655 -130
    endloop
  endfacet
  facet normal 0.933575 -0.358382 0
    outer loop
      vertex 3.64704 -1.62377 -108
      vertex 3.7968 -1.23365 -130
      vertex 3.7968 -1.23365 -108
    endloop
  endfacet
  facet normal 0.933575 -0.358382 0
    outer loop
      vertex 3.7968 -1.23365 -130
      vertex 3.64704 -1.62377 -108
      vertex 3.64704 -1.62377 -130
    endloop
  endfacet
  facet normal 0.987688 -0.156436 0
    outer loop
      vertex 3.90495 -0.830022 -108
      vertex 3.97032 -0.417296 -130
      vertex 3.97032 -0.417296 -108
    endloop
  endfacet
  facet normal 0.987688 -0.156436 0
    outer loop
      vertex 3.97032 -0.417296 -130
      vertex 3.90495 -0.830022 -108
      vertex 3.90495 -0.830022 -130
    endloop
  endfacet
  facet normal 0.258815 0.965927 -0
    outer loop
      vertex 1.23365 3.7968 -130
      vertex 0.830022 3.90495 -108
      vertex 1.23365 3.7968 -108
    endloop
  endfacet
  facet normal 0.258815 0.965927 0
    outer loop
      vertex 0.830022 3.90495 -108
      vertex 1.23365 3.7968 -130
      vertex 0.830022 3.90495 -130
    endloop
  endfacet
  facet normal -0.358379 -0.933576 0
    outer loop
      vertex -1.62695 -3.65418 -108
      vertex -1.23607 -3.80423 0
      vertex -1.62695 -3.65418 0
    endloop
  endfacet
  facet normal -0.358379 -0.933576 -0
    outer loop
      vertex -1.23607 -3.80423 0
      vertex -1.62695 -3.65418 -108
      vertex -1.23607 -3.80423 -108
    endloop
  endfacet
  facet normal 0.544634 0.838674 -0
    outer loop
      vertex 2.35114 3.23607 -108
      vertex 2 3.4641 0
      vertex 2.35114 3.23607 0
    endloop
  endfacet
  facet normal 0.544634 0.838674 0
    outer loop
      vertex 2 3.4641 0
      vertex 2.35114 3.23607 -108
      vertex 2 3.4641 -108
    endloop
  endfacet
  facet normal -0.258808 0.965929 0
    outer loop
      vertex -0.831646 3.91259 -108
      vertex -1.23607 3.80423 0
      vertex -0.831646 3.91259 0
    endloop
  endfacet
  facet normal -0.258808 0.965929 0
    outer loop
      vertex -1.23607 3.80423 0
      vertex -0.831646 3.91259 -108
      vertex -1.23607 3.80423 -108
    endloop
  endfacet
  facet normal -0.891005 0.453993 0
    outer loop
      vertex -3.65418 1.62695 -108
      vertex -3.4641 2 0
      vertex -3.4641 2 -108
    endloop
  endfacet
  facet normal -0.891005 0.453993 0
    outer loop
      vertex -3.4641 2 0
      vertex -3.65418 1.62695 -108
      vertex -3.65418 1.62695 0
    endloop
  endfacet
  facet normal -0.933576 -0.358379 0
    outer loop
      vertex -3.65418 -1.62695 -108
      vertex -3.80423 -1.23607 0
      vertex -3.80423 -1.23607 -108
    endloop
  endfacet
  facet normal -0.933576 -0.358379 0
    outer loop
      vertex -3.80423 -1.23607 0
      vertex -3.65418 -1.62695 -108
      vertex -3.65418 -1.62695 0
    endloop
  endfacet
  facet normal 0.965929 0.258808 0
    outer loop
      vertex 3.91259 0.831646 0
      vertex 3.80423 1.23607 -108
      vertex 3.80423 1.23607 0
    endloop
  endfacet
  facet normal 0.965929 0.258808 0
    outer loop
      vertex 3.80423 1.23607 -108
      vertex 3.91259 0.831646 0
      vertex 3.91259 0.831646 -108
    endloop
  endfacet
  facet normal 0.933576 0.358379 0
    outer loop
      vertex 3.80423 1.23607 0
      vertex 3.65418 1.62695 -108
      vertex 3.65418 1.62695 0
    endloop
  endfacet
  facet normal 0.933576 0.358379 0
    outer loop
      vertex 3.65418 1.62695 -108
      vertex 3.80423 1.23607 0
      vertex 3.80423 1.23607 -108
    endloop
  endfacet
  facet normal 0.777143 0.629324 0
    outer loop
      vertex 3.23607 2.35114 0
      vertex 2.97258 2.67652 -108
      vertex 2.97258 2.67652 0
    endloop
  endfacet
  facet normal 0.777143 0.629324 0
    outer loop
      vertex 2.97258 2.67652 -108
      vertex 3.23607 2.35114 0
      vertex 3.23607 2.35114 -108
    endloop
  endfacet
  facet normal 0.453993 0.891005 -0
    outer loop
      vertex 2 3.4641 -108
      vertex 1.62695 3.65418 0
      vertex 2 3.4641 0
    endloop
  endfacet
  facet normal 0.453993 0.891005 0
    outer loop
      vertex 1.62695 3.65418 0
      vertex 2 3.4641 -108
      vertex 1.62695 3.65418 -108
    endloop
  endfacet
  facet normal 0.0523302 0.99863 -0
    outer loop
      vertex 0.418114 3.97809 -108
      vertex 0 4 0
      vertex 0.418114 3.97809 0
    endloop
  endfacet
  facet normal 0.0523302 0.99863 0
    outer loop
      vertex 0 4 0
      vertex 0.418114 3.97809 -108
      vertex 0 4 -108
    endloop
  endfacet
  facet normal 0.156441 0.987687 -0
    outer loop
      vertex 0.831646 3.91259 -108
      vertex 0.418114 3.97809 0
      vertex 0.831646 3.91259 0
    endloop
  endfacet
  facet normal 0.156441 0.987687 0
    outer loop
      vertex 0.418114 3.97809 0
      vertex 0.831646 3.91259 -108
      vertex 0.418114 3.97809 -108
    endloop
  endfacet
  facet normal -0.0523302 0.99863 0
    outer loop
      vertex 0 4 -108
      vertex -0.418114 3.97809 0
      vertex 0 4 0
    endloop
  endfacet
  facet normal -0.0523302 0.99863 0
    outer loop
      vertex -0.418114 3.97809 0
      vertex 0 4 -108
      vertex -0.418114 3.97809 -108
    endloop
  endfacet
  facet normal -0.544634 0.838674 0
    outer loop
      vertex -2 3.4641 -108
      vertex -2.35114 3.23607 0
      vertex -2 3.4641 0
    endloop
  endfacet
  facet normal -0.544634 0.838674 0
    outer loop
      vertex -2.35114 3.23607 0
      vertex -2 3.4641 -108
      vertex -2.35114 3.23607 -108
    endloop
  endfacet
  facet normal 0.933576 -0.358379 0
    outer loop
      vertex 3.65418 -1.62695 0
      vertex 3.80423 -1.23607 -108
      vertex 3.80423 -1.23607 0
    endloop
  endfacet
  facet normal 0.933576 -0.358379 0
    outer loop
      vertex 3.80423 -1.23607 -108
      vertex 3.65418 -1.62695 0
      vertex 3.65418 -1.62695 -108
    endloop
  endfacet
  facet normal 0.258808 -0.965929 0
    outer loop
      vertex 0.831646 -3.91259 -108
      vertex 1.23607 -3.80423 0
      vertex 0.831646 -3.91259 0
    endloop
  endfacet
  facet normal 0.258808 -0.965929 0
    outer loop
      vertex 1.23607 -3.80423 0
      vertex 0.831646 -3.91259 -108
      vertex 1.23607 -3.80423 -108
    endloop
  endfacet
  facet normal 0.707107 -0.707107 0
    outer loop
      vertex 2.67652 -2.97258 0
      vertex 2.97258 -2.67652 -108
      vertex 2.97258 -2.67652 0
    endloop
  endfacet
  facet normal 0.707107 -0.707107 0
    outer loop
      vertex 2.97258 -2.67652 -108
      vertex 2.67652 -2.97258 0
      vertex 2.67652 -2.97258 -108
    endloop
  endfacet
  facet normal -0.99863 -0.0523302 0
    outer loop
      vertex -3.97809 -0.418114 -108
      vertex -4 0 0
      vertex -4 0 -108
    endloop
  endfacet
  facet normal -0.99863 -0.0523302 0
    outer loop
      vertex -4 0 0
      vertex -3.97809 -0.418114 -108
      vertex -3.97809 -0.418114 0
    endloop
  endfacet
  facet normal 0 0 -1
    outer loop
      vertex 3.97809 -0.418114 -108
      vertex 3.99219 0 -108
      vertex 4 0 -108
    endloop
  endfacet
  facet normal 0 0 -1
    outer loop
      vertex 3.97809 -0.418114 -108
      vertex 3.97032 -0.417296 -108
      vertex 3.99219 0 -108
    endloop
  endfacet
  facet normal 0 0 -1
    outer loop
      vertex 3.91259 -0.831646 -108
      vertex 3.97032 -0.417296 -108
      vertex 3.97809 -0.418114 -108
    endloop
  endfacet
  facet normal 0 0 -1
    outer loop
      vertex 3.91259 -0.831646 -108
      vertex 3.90495 -0.830022 -108
      vertex 3.97032 -0.417296 -108
    endloop
  endfacet
  facet normal 0 0 -1
    outer loop
      vertex 3.80423 -1.23607 -108
      vertex 3.90495 -0.830022 -108
      vertex 3.91259 -0.831646 -108
    endloop
  endfacet
  facet normal 0 0 -1
    outer loop
      vertex 3.80423 -1.23607 -108
      vertex 3.7968 -1.23365 -108
      vertex 3.90495 -0.830022 -108
    endloop
  endfacet
  facet normal 0 0 -1
    outer loop
      vertex 3.65418 -1.62695 -108
      vertex 3.7968 -1.23365 -108
      vertex 3.80423 -1.23607 -108
    endloop
  endfacet
  facet normal 0 0 -1
    outer loop
      vertex 3.65418 -1.62695 -108
      vertex 3.64704 -1.62377 -108
      vertex 3.7968 -1.23365 -108
    endloop
  endfacet
  facet normal 0 0 -1
    outer loop
      vertex 3.4641 -2 -108
      vertex 3.64704 -1.62377 -108
      vertex 3.65418 -1.62695 -108
    endloop
  endfacet
  facet normal 0 0 -1
    outer loop
      vertex 3.4641 -2 -108
      vertex 3.45734 -1.99609 -108
      vertex 3.64704 -1.62377 -108
    endloop
  endfacet
  facet normal 0 0 -1
    outer loop
      vertex 3.23607 -2.35114 -108
      vertex 3.45734 -1.99609 -108
      vertex 3.4641 -2 -108
    endloop
  endfacet
  facet normal 0 0 -1
    outer loop
      vertex 3.23607 -2.35114 -108
      vertex 3.22975 -2.34655 -108
      vertex 3.45734 -1.99609 -108
    endloop
  endfacet
  facet normal 0 0 -1
    outer loop
      vertex 2.97258 -2.67652 -108
      vertex 3.22975 -2.34655 -108
      vertex 3.23607 -2.35114 -108
    endloop
  endfacet
  facet normal 0 0 -1
    outer loop
      vertex 2.97258 -2.67652 -108
      vertex 2.96677 -2.67129 -108
      vertex 3.22975 -2.34655 -108
    endloop
  endfacet
  facet normal 0 0 -1
    outer loop
      vertex 2.67652 -2.97258 -108
      vertex 2.96677 -2.67129 -108
      vertex 2.97258 -2.67652 -108
    endloop
  endfacet
  facet normal 0 0 -1
    outer loop
      vertex 2.67652 -2.97258 -108
      vertex 2.67129 -2.96677 -108
      vertex 2.96677 -2.67129 -108
    endloop
  endfacet
  facet normal 0 0 -1
    outer loop
      vertex 2.35114 -3.23607 -108
      vertex 2.67129 -2.96677 -108
      vertex 2.67652 -2.97258 -108
    endloop
  endfacet
  facet normal 0 0 -1
    outer loop
      vertex 2.35114 -3.23607 -108
      vertex 2.34655 -3.22975 -108
      vertex 2.67129 -2.96677 -108
    endloop
  endfacet
  facet normal 0 0 -1
    outer loop
      vertex 2 -3.4641 -108
      vertex 2.34655 -3.22975 -108
      vertex 2.35114 -3.23607 -108
    endloop
  endfacet
  facet normal 0 0 -1
    outer loop
      vertex 2 -3.4641 -108
      vertex 1.99609 -3.45734 -108
      vertex 2.34655 -3.22975 -108
    endloop
  endfacet
  facet normal 0 0 -1
    outer loop
      vertex 1.62695 -3.65418 -108
      vertex 1.99609 -3.45734 -108
      vertex 2 -3.4641 -108
    endloop
  endfacet
  facet normal 0 0 -1
    outer loop
      vertex 1.62695 -3.65418 -108
      vertex 1.62377 -3.64704 -108
      vertex 1.99609 -3.45734 -108
    endloop
  endfacet
  facet normal 0 0 -1
    outer loop
      vertex 1.23607 -3.80423 -108
      vertex 1.62377 -3.64704 -108
      vertex 1.62695 -3.65418 -108
    endloop
  endfacet
  facet normal 0 0 -1
    outer loop
      vertex 1.23607 -3.80423 -108
      vertex 1.23365 -3.7968 -108
      vertex 1.62377 -3.64704 -108
    endloop
  endfacet
  facet normal 0 0 -1
    outer loop
      vertex 0.831646 -3.91259 -108
      vertex 1.23365 -3.7968 -108
      vertex 1.23607 -3.80423 -108
    endloop
  endfacet
  facet normal 0 0 -1
    outer loop
      vertex 0.831646 -3.91259 -108
      vertex 0.830022 -3.90495 -108
      vertex 1.23365 -3.7968 -108
    endloop
  endfacet
  facet normal 0 0 -1
    outer loop
      vertex 0.418114 -3.97809 -108
      vertex 0.830022 -3.90495 -108
      vertex 0.831646 -3.91259 -108
    endloop
  endfacet
  facet normal 0 0 -1
    outer loop
      vertex 0.418114 -3.97809 -108
      vertex 0.417296 -3.97032 -108
      vertex 0.830022 -3.90495 -108
    endloop
  endfacet
  facet normal 0 0 -1
    outer loop
      vertex 0 -4 -108
      vertex 0.417296 -3.97032 -108
      vertex 0.418114 -3.97809 -108
    endloop
  endfacet
  facet normal 0 0 -1
    outer loop
      vertex 0 -4 -108
      vertex 0 -3.99219 -108
      vertex 0.417296 -3.97032 -108
    endloop
  endfacet
  facet normal 0 0 -1
    outer loop
      vertex 0 -4 -108
      vertex -0.417296 -3.97032 -108
      vertex 0 -3.99219 -108
    endloop
  endfacet
  facet normal 0 0 -1
    outer loop
      vertex -0.418114 -3.97809 -108
      vertex -0.417296 -3.97032 -108
      vertex 0 -4 -108
    endloop
  endfacet
  facet normal 0 0 -1
    outer loop
      vertex -0.418114 -3.97809 -108
      vertex -0.830022 -3.90495 -108
      vertex -0.417296 -3.97032 -108
    endloop
  endfacet
  facet normal 0 0 -1
    outer loop
      vertex -0.831646 -3.91259 -108
      vertex -0.830022 -3.90495 -108
      vertex -0.418114 -3.97809 -108
    endloop
  endfacet
  facet normal 0 0 -1
    outer loop
      vertex -0.831646 -3.91259 -108
      vertex -1.23365 -3.7968 -108
      vertex -0.830022 -3.90495 -108
    endloop
  endfacet
  facet normal 0 0 -1
    outer loop
      vertex -1.23607 -3.80423 -108
      vertex -1.23365 -3.7968 -108
      vertex -0.831646 -3.91259 -108
    endloop
  endfacet
  facet normal 0 0 -1
    outer loop
      vertex -1.23607 -3.80423 -108
      vertex -1.62377 -3.64704 -108
      vertex -1.23365 -3.7968 -108
    endloop
  endfacet
  facet normal 0 0 -1
    outer loop
      vertex -1.62695 -3.65418 -108
      vertex -1.62377 -3.64704 -108
      vertex -1.23607 -3.80423 -108
    endloop
  endfacet
  facet normal 0 0 -1
    outer loop
      vertex -1.62695 -3.65418 -108
      vertex -1.99609 -3.45734 -108
      vertex -1.62377 -3.64704 -108
    endloop
  endfacet
  facet normal 0 0 -1
    outer loop
      vertex -2 -3.4641 -108
      vertex -1.99609 -3.45734 -108
      vertex -1.62695 -3.65418 -108
    endloop
  endfacet
  facet normal 0 0 -1
    outer loop
      vertex -2 -3.4641 -108
      vertex -2.34655 -3.22975 -108
      vertex -1.99609 -3.45734 -108
    endloop
  endfacet
  facet normal 0 0 -1
    outer loop
      vertex -2.35114 -3.23607 -108
      vertex -2.34655 -3.22975 -108
      vertex -2 -3.4641 -108
    endloop
  endfacet
  facet normal 0 0 -1
    outer loop
      vertex -2.35114 -3.23607 -108
      vertex -2.67129 -2.96677 -108
      vertex -2.34655 -3.22975 -108
    endloop
  endfacet
  facet normal 0 0 -1
    outer loop
      vertex -2.67652 -2.97258 -108
      vertex -2.67129 -2.96677 -108
      vertex -2.35114 -3.23607 -108
    endloop
  endfacet
  facet normal 0 0 -1
    outer loop
      vertex -2.67652 -2.97258 -108
      vertex -2.96677 -2.67129 -108
      vertex -2.67129 -2.96677 -108
    endloop
  endfacet
  facet normal 0 0 -1
    outer loop
      vertex -2.97258 -2.67652 -108
      vertex -2.96677 -2.67129 -108
      vertex -2.67652 -2.97258 -108
    endloop
  endfacet
  facet normal 0 0 -1
    outer loop
      vertex -2.97258 -2.67652 -108
      vertex -3.22975 -2.34655 -108
      vertex -2.96677 -2.67129 -108
    endloop
  endfacet
  facet normal 0 0 -1
    outer loop
      vertex -3.23607 -2.35114 -108
      vertex -3.22975 -2.34655 -108
      vertex -2.97258 -2.67652 -108
    endloop
  endfacet
  facet normal 0 0 -1
    outer loop
      vertex -3.23607 -2.35114 -108
      vertex -3.45734 -1.99609 -108
      vertex -3.22975 -2.34655 -108
    endloop
  endfacet
  facet normal 0 0 -1
    outer loop
      vertex -3.4641 -2 -108
      vertex -3.45734 -1.99609 -108
      vertex -3.23607 -2.35114 -108
    endloop
  endfacet
  facet normal 0 0 -1
    outer loop
      vertex -3.4641 -2 -108
      vertex -3.64704 -1.62377 -108
      vertex -3.45734 -1.99609 -108
    endloop
  endfacet
  facet normal 0 0 -1
    outer loop
      vertex -3.65418 -1.62695 -108
      vertex -3.64704 -1.62377 -108
      vertex -3.4641 -2 -108
    endloop
  endfacet
  facet normal 0 0 -1
    outer loop
      vertex -3.65418 -1.62695 -108
      vertex -3.7968 -1.23365 -108
      vertex -3.64704 -1.62377 -108
    endloop
  endfacet
  facet normal 0 0 -1
    outer loop
      vertex -3.80423 -1.23607 -108
      vertex -3.7968 -1.23365 -108
      vertex -3.65418 -1.62695 -108
    endloop
  endfacet
  facet normal 0 0 -1
    outer loop
      vertex -3.80423 -1.23607 -108
      vertex -3.90495 -0.830022 -108
      vertex -3.7968 -1.23365 -108
    endloop
  endfacet
  facet normal 0 0 -1
    outer loop
      vertex -3.91259 -0.831646 -108
      vertex -3.90495 -0.830022 -108
      vertex -3.80423 -1.23607 -108
    endloop
  endfacet
  facet normal 0 0 -1
    outer loop
      vertex -3.91259 -0.831646 -108
      vertex -3.97032 -0.417296 -108
      vertex -3.90495 -0.830022 -108
    endloop
  endfacet
  facet normal 0 0 -1
    outer loop
      vertex -3.97809 -0.418114 -108
      vertex -3.97032 -0.417296 -108
      vertex -3.91259 -0.831646 -108
    endloop
  endfacet
  facet normal 0 0 -1
    outer loop
      vertex -3.97809 -0.418114 -108
      vertex -3.99219 0 -108
      vertex -3.97032 -0.417296 -108
    endloop
  endfacet
  facet normal -0 -0 -1
    outer loop
      vertex -3.99219 0 -108
      vertex -3.97809 -0.418114 -108
      vertex -4 0 -108
    endloop
  endfacet
  facet normal 0 0 -1
    outer loop
      vertex 3.99219 0 -108
      vertex 3.97809 0.418114 -108
      vertex 4 0 -108
    endloop
  endfacet
  facet normal 0 0 -1
    outer loop
      vertex 3.97032 0.417296 -108
      vertex 3.97809 0.418114 -108
      vertex 3.99219 0 -108
    endloop
  endfacet
  facet normal 0 0 -1
    outer loop
      vertex 3.97032 0.417296 -108
      vertex 3.91259 0.831646 -108
      vertex 3.97809 0.418114 -108
    endloop
  endfacet
  facet normal 0 0 -1
    outer loop
      vertex 3.90495 0.830022 -108
      vertex 3.91259 0.831646 -108
      vertex 3.97032 0.417296 -108
    endloop
  endfacet
  facet normal 0 0 -1
    outer loop
      vertex 3.90495 0.830022 -108
      vertex 3.80423 1.23607 -108
      vertex 3.91259 0.831646 -108
    endloop
  endfacet
  facet normal 0 0 -1
    outer loop
      vertex 3.7968 1.23365 -108
      vertex 3.80423 1.23607 -108
      vertex 3.90495 0.830022 -108
    endloop
  endfacet
  facet normal 0 0 -1
    outer loop
      vertex 3.7968 1.23365 -108
      vertex 3.65418 1.62695 -108
      vertex 3.80423 1.23607 -108
    endloop
  endfacet
  facet normal 0 0 -1
    outer loop
      vertex 3.64704 1.62377 -108
      vertex 3.65418 1.62695 -108
      vertex 3.7968 1.23365 -108
    endloop
  endfacet
  facet normal 0 0 -1
    outer loop
      vertex 3.64704 1.62377 -108
      vertex 3.4641 2 -108
      vertex 3.65418 1.62695 -108
    endloop
  endfacet
  facet normal 0 0 -1
    outer loop
      vertex 3.45734 1.99609 -108
      vertex 3.4641 2 -108
      vertex 3.64704 1.62377 -108
    endloop
  endfacet
  facet normal 0 0 -1
    outer loop
      vertex 3.45734 1.99609 -108
      vertex 3.23607 2.35114 -108
      vertex 3.4641 2 -108
    endloop
  endfacet
  facet normal 0 0 -1
    outer loop
      vertex 3.22975 2.34655 -108
      vertex 3.23607 2.35114 -108
      vertex 3.45734 1.99609 -108
    endloop
  endfacet
  facet normal 0 0 -1
    outer loop
      vertex 3.22975 2.34655 -108
      vertex 2.97258 2.67652 -108
      vertex 3.23607 2.35114 -108
    endloop
  endfacet
  facet normal 0 0 -1
    outer loop
      vertex 2.96677 2.67129 -108
      vertex 2.97258 2.67652 -108
      vertex 3.22975 2.34655 -108
    endloop
  endfacet
  facet normal 0 0 -1
    outer loop
      vertex 2.96677 2.67129 -108
      vertex 2.67652 2.97258 -108
      vertex 2.97258 2.67652 -108
    endloop
  endfacet
  facet normal 0 0 -1
    outer loop
      vertex 2.67129 2.96677 -108
      vertex 2.67652 2.97258 -108
      vertex 2.96677 2.67129 -108
    endloop
  endfacet
  facet normal 0 0 -1
    outer loop
      vertex 2.67129 2.96677 -108
      vertex 2.35114 3.23607 -108
      vertex 2.67652 2.97258 -108
    endloop
  endfacet
  facet normal 0 0 -1
    outer loop
      vertex 2.34655 3.22975 -108
      vertex 2.35114 3.23607 -108
      vertex 2.67129 2.96677 -108
    endloop
  endfacet
  facet normal 0 0 -1
    outer loop
      vertex 2.34655 3.22975 -108
      vertex 2 3.4641 -108
      vertex 2.35114 3.23607 -108
    endloop
  endfacet
  facet normal 0 0 -1
    outer loop
      vertex 1.99609 3.45734 -108
      vertex 2 3.4641 -108
      vertex 2.34655 3.22975 -108
    endloop
  endfacet
  facet normal 0 0 -1
    outer loop
      vertex 1.99609 3.45734 -108
      vertex 1.62695 3.65418 -108
      vertex 2 3.4641 -108
    endloop
  endfacet
  facet normal 0 0 -1
    outer loop
      vertex 1.62377 3.64704 -108
      vertex 1.62695 3.65418 -108
      vertex 1.99609 3.45734 -108
    endloop
  endfacet
  facet normal 0 0 -1
    outer loop
      vertex 1.62377 3.64704 -108
      vertex 1.23607 3.80423 -108
      vertex 1.62695 3.65418 -108
    endloop
  endfacet
  facet normal 0 0 -1
    outer loop
      vertex 1.23365 3.7968 -108
      vertex 1.23607 3.80423 -108
      vertex 1.62377 3.64704 -108
    endloop
  endfacet
  facet normal 0 0 -1
    outer loop
      vertex 1.23365 3.7968 -108
      vertex 0.831646 3.91259 -108
      vertex 1.23607 3.80423 -108
    endloop
  endfacet
  facet normal 0 0 -1
    outer loop
      vertex 0.830022 3.90495 -108
      vertex 0.831646 3.91259 -108
      vertex 1.23365 3.7968 -108
    endloop
  endfacet
  facet normal 0 0 -1
    outer loop
      vertex 0.830022 3.90495 -108
      vertex 0.418114 3.97809 -108
      vertex 0.831646 3.91259 -108
    endloop
  endfacet
  facet normal 0 0 -1
    outer loop
      vertex 0.417296 3.97032 -108
      vertex 0.418114 3.97809 -108
      vertex 0.830022 3.90495 -108
    endloop
  endfacet
  facet normal 0 0 -1
    outer loop
      vertex 0 3.99219 -108
      vertex 0.418114 3.97809 -108
      vertex 0.417296 3.97032 -108
    endloop
  endfacet
  facet normal 0 0 -1
    outer loop
      vertex 0 3.99219 -108
      vertex 0 4 -108
      vertex 0.418114 3.97809 -108
    endloop
  endfacet
  facet normal 0 0 -1
    outer loop
      vertex -0.417296 3.97032 -108
      vertex 0 4 -108
      vertex 0 3.99219 -108
    endloop
  endfacet
  facet normal 0 0 -1
    outer loop
      vertex -0.417296 3.97032 -108
      vertex -0.418114 3.97809 -108
      vertex 0 4 -108
    endloop
  endfacet
  facet normal 0 0 -1
    outer loop
      vertex -0.830022 3.90495 -108
      vertex -0.418114 3.97809 -108
      vertex -0.417296 3.97032 -108
    endloop
  endfacet
  facet normal 0 0 -1
    outer loop
      vertex -0.830022 3.90495 -108
      vertex -0.831646 3.91259 -108
      vertex -0.418114 3.97809 -108
    endloop
  endfacet
  facet normal 0 0 -1
    outer loop
      vertex -1.23365 3.7968 -108
      vertex -0.831646 3.91259 -108
      vertex -0.830022 3.90495 -108
    endloop
  endfacet
  facet normal 0 0 -1
    outer loop
      vertex -1.23365 3.7968 -108
      vertex -1.23607 3.80423 -108
      vertex -0.831646 3.91259 -108
    endloop
  endfacet
  facet normal 0 0 -1
    outer loop
      vertex -1.62377 3.64704 -108
      vertex -1.23607 3.80423 -108
      vertex -1.23365 3.7968 -108
    endloop
  endfacet
  facet normal 0 0 -1
    outer loop
      vertex -1.62377 3.64704 -108
      vertex -1.62695 3.65418 -108
      vertex -1.23607 3.80423 -108
    endloop
  endfacet
  facet normal 0 0 -1
    outer loop
      vertex -1.99609 3.45734 -108
      vertex -1.62695 3.65418 -108
      vertex -1.62377 3.64704 -108
    endloop
  endfacet
  facet normal 0 0 -1
    outer loop
      vertex -1.99609 3.45734 -108
      vertex -2 3.4641 -108
      vertex -1.62695 3.65418 -108
    endloop
  endfacet
  facet normal 0 0 -1
    outer loop
      vertex -2.34655 3.22975 -108
      vertex -2 3.4641 -108
      vertex -1.99609 3.45734 -108
    endloop
  endfacet
  facet normal 0 0 -1
    outer loop
      vertex -2.34655 3.22975 -108
      vertex -2.35114 3.23607 -108
      vertex -2 3.4641 -108
    endloop
  endfacet
  facet normal 0 0 -1
    outer loop
      vertex -2.67129 2.96677 -108
      vertex -2.35114 3.23607 -108
      vertex -2.34655 3.22975 -108
    endloop
  endfacet
  facet normal 0 0 -1
    outer loop
      vertex -2.67129 2.96677 -108
      vertex -2.67652 2.97258 -108
      vertex -2.35114 3.23607 -108
    endloop
  endfacet
  facet normal 0 0 -1
    outer loop
      vertex -2.96677 2.67129 -108
      vertex -2.67652 2.97258 -108
      vertex -2.67129 2.96677 -108
    endloop
  endfacet
  facet normal 0 0 -1
    outer loop
      vertex -2.96677 2.67129 -108
      vertex -2.97258 2.67652 -108
      vertex -2.67652 2.97258 -108
    endloop
  endfacet
  facet normal 0 0 -1
    outer loop
      vertex -3.22975 2.34655 -108
      vertex -2.97258 2.67652 -108
      vertex -2.96677 2.67129 -108
    endloop
  endfacet
  facet normal 0 0 -1
    outer loop
      vertex -3.22975 2.34655 -108
      vertex -3.23607 2.35114 -108
      vertex -2.97258 2.67652 -108
    endloop
  endfacet
  facet normal 0 0 -1
    outer loop
      vertex -3.45734 1.99609 -108
      vertex -3.23607 2.35114 -108
      vertex -3.22975 2.34655 -108
    endloop
  endfacet
  facet normal 0 0 -1
    outer loop
      vertex -3.45734 1.99609 -108
      vertex -3.4641 2 -108
      vertex -3.23607 2.35114 -108
    endloop
  endfacet
  facet normal 0 0 -1
    outer loop
      vertex -3.64704 1.62377 -108
      vertex -3.4641 2 -108
      vertex -3.45734 1.99609 -108
    endloop
  endfacet
  facet normal 0 0 -1
    outer loop
      vertex -3.64704 1.62377 -108
      vertex -3.65418 1.62695 -108
      vertex -3.4641 2 -108
    endloop
  endfacet
  facet normal 0 0 -1
    outer loop
      vertex -3.7968 1.23365 -108
      vertex -3.65418 1.62695 -108
      vertex -3.64704 1.62377 -108
    endloop
  endfacet
  facet normal 0 0 -1
    outer loop
      vertex -3.7968 1.23365 -108
      vertex -3.80423 1.23607 -108
      vertex -3.65418 1.62695 -108
    endloop
  endfacet
  facet normal 0 0 -1
    outer loop
      vertex -3.90495 0.830022 -108
      vertex -3.80423 1.23607 -108
      vertex -3.7968 1.23365 -108
    endloop
  endfacet
  facet normal 0 0 -1
    outer loop
      vertex -3.90495 0.830022 -108
      vertex -3.91259 0.831646 -108
      vertex -3.80423 1.23607 -108
    endloop
  endfacet
  facet normal 0 0 -1
    outer loop
      vertex -3.97032 0.417296 -108
      vertex -3.91259 0.831646 -108
      vertex -3.90495 0.830022 -108
    endloop
  endfacet
  facet normal 0 0 -1
    outer loop
      vertex -3.97032 0.417296 -108
      vertex -3.97809 0.418114 -108
      vertex -3.91259 0.831646 -108
    endloop
  endfacet
  facet normal 0 0 -1
    outer loop
      vertex -3.99219 0 -108
      vertex -3.97809 0.418114 -108
      vertex -3.97032 0.417296 -108
    endloop
  endfacet
  facet normal 0 0 -1
    outer loop
      vertex -3.97809 0.418114 -108
      vertex -3.99219 0 -108
      vertex -4 0 -108
    endloop
  endfacet
  facet normal 0.891005 0.453993 0
    outer loop
      vertex 3.65418 1.62695 0
      vertex 3.4641 2 -108
      vertex 3.4641 2 0
    endloop
  endfacet
  facet normal 0.891005 0.453993 0
    outer loop
      vertex 3.4641 2 -108
      vertex 3.65418 1.62695 0
      vertex 3.65418 1.62695 -108
    endloop
  endfacet
  facet normal 0.838674 0.544634 0
    outer loop
      vertex 3.4641 2 0
      vertex 3.23607 2.35114 -108
      vertex 3.23607 2.35114 0
    endloop
  endfacet
  facet normal 0.838674 0.544634 0
    outer loop
      vertex 3.23607 2.35114 -108
      vertex 3.4641 2 0
      vertex 3.4641 2 -108
    endloop
  endfacet
  facet normal 0.707107 0.707107 0
    outer loop
      vertex 2.97258 2.67652 0
      vertex 2.67652 2.97258 -108
      vertex 2.67652 2.97258 0
    endloop
  endfacet
  facet normal 0.707107 0.707107 0
    outer loop
      vertex 2.67652 2.97258 -108
      vertex 2.97258 2.67652 0
      vertex 2.97258 2.67652 -108
    endloop
  endfacet
  facet normal 0.358379 0.933576 -0
    outer loop
      vertex 1.62695 3.65418 -108
      vertex 1.23607 3.80423 0
      vertex 1.62695 3.65418 0
    endloop
  endfacet
  facet normal 0.358379 0.933576 0
    outer loop
      vertex 1.23607 3.80423 0
      vertex 1.62695 3.65418 -108
      vertex 1.23607 3.80423 -108
    endloop
  endfacet
  facet normal -0.99863 0.0523302 0
    outer loop
      vertex -4 0 -108
      vertex -3.97809 0.418114 0
      vertex -3.97809 0.418114 -108
    endloop
  endfacet
  facet normal -0.99863 0.0523302 0
    outer loop
      vertex -3.97809 0.418114 0
      vertex -4 0 -108
      vertex -4 0 0
    endloop
  endfacet
  facet normal -0.933576 0.358379 0
    outer loop
      vertex -3.80423 1.23607 -108
      vertex -3.65418 1.62695 0
      vertex -3.65418 1.62695 -108
    endloop
  endfacet
  facet normal -0.933576 0.358379 0
    outer loop
      vertex -3.65418 1.62695 0
      vertex -3.80423 1.23607 -108
      vertex -3.80423 1.23607 0
    endloop
  endfacet
  facet normal -0.965929 0.258808 0
    outer loop
      vertex -3.91259 0.831646 -108
      vertex -3.80423 1.23607 0
      vertex -3.80423 1.23607 -108
    endloop
  endfacet
  facet normal -0.965929 0.258808 0
    outer loop
      vertex -3.80423 1.23607 0
      vertex -3.91259 0.831646 -108
      vertex -3.91259 0.831646 0
    endloop
  endfacet
  facet normal -0.707107 0.707107 0
    outer loop
      vertex -2.97258 2.67652 -108
      vertex -2.67652 2.97258 0
      vertex -2.67652 2.97258 -108
    endloop
  endfacet
  facet normal -0.707107 0.707107 0
    outer loop
      vertex -2.67652 2.97258 0
      vertex -2.97258 2.67652 -108
      vertex -2.97258 2.67652 0
    endloop
  endfacet
  facet normal -0.777143 0.629324 0
    outer loop
      vertex -3.23607 2.35114 -108
      vertex -2.97258 2.67652 0
      vertex -2.97258 2.67652 -108
    endloop
  endfacet
  facet normal -0.777143 0.629324 0
    outer loop
      vertex -2.97258 2.67652 0
      vertex -3.23607 2.35114 -108
      vertex -3.23607 2.35114 0
    endloop
  endfacet
  facet normal -0.358379 0.933576 0
    outer loop
      vertex -1.23607 3.80423 -108
      vertex -1.62695 3.65418 0
      vertex -1.23607 3.80423 0
    endloop
  endfacet
  facet normal -0.358379 0.933576 0
    outer loop
      vertex -1.62695 3.65418 0
      vertex -1.23607 3.80423 -108
      vertex -1.62695 3.65418 -108
    endloop
  endfacet
  facet normal -0.453993 0.891005 0
    outer loop
      vertex -1.62695 3.65418 -108
      vertex -2 3.4641 0
      vertex -1.62695 3.65418 0
    endloop
  endfacet
  facet normal -0.453993 0.891005 0
    outer loop
      vertex -2 3.4641 0
      vertex -1.62695 3.65418 -108
      vertex -2 3.4641 -108
    endloop
  endfacet
  facet normal -0.629324 0.777143 0
    outer loop
      vertex -2.35114 3.23607 -108
      vertex -2.67652 2.97258 0
      vertex -2.35114 3.23607 0
    endloop
  endfacet
  facet normal -0.629324 0.777143 0
    outer loop
      vertex -2.67652 2.97258 0
      vertex -2.35114 3.23607 -108
      vertex -2.67652 2.97258 -108
    endloop
  endfacet
  facet normal 0.99863 0.0523302 0
    outer loop
      vertex 4 0 0
      vertex 3.97809 0.418114 -108
      vertex 3.97809 0.418114 0
    endloop
  endfacet
  facet normal 0.99863 0.0523302 0
    outer loop
      vertex 3.97809 0.418114 -108
      vertex 4 0 0
      vertex 4 0 -108
    endloop
  endfacet
  facet normal 0.0523302 -0.99863 0
    outer loop
      vertex 0 -4 -108
      vertex 0.418114 -3.97809 0
      vertex 0 -4 0
    endloop
  endfacet
  facet normal 0.0523302 -0.99863 0
    outer loop
      vertex 0.418114 -3.97809 0
      vertex 0 -4 -108
      vertex 0.418114 -3.97809 -108
    endloop
  endfacet
  facet normal 0.965929 -0.258808 0
    outer loop
      vertex 3.80423 -1.23607 0
      vertex 3.91259 -0.831646 -108
      vertex 3.91259 -0.831646 0
    endloop
  endfacet
  facet normal 0.965929 -0.258808 0
    outer loop
      vertex 3.91259 -0.831646 -108
      vertex 3.80423 -1.23607 0
      vertex 3.80423 -1.23607 -108
    endloop
  endfacet
  facet normal 0.156441 -0.987687 0
    outer loop
      vertex 0.418114 -3.97809 -108
      vertex 0.831646 -3.91259 0
      vertex 0.418114 -3.97809 0
    endloop
  endfacet
  facet normal 0.156441 -0.987687 0
    outer loop
      vertex 0.831646 -3.91259 0
      vertex 0.418114 -3.97809 -108
      vertex 0.831646 -3.91259 -108
    endloop
  endfacet
  facet normal 0.453993 -0.891005 0
    outer loop
      vertex 1.62695 -3.65418 -108
      vertex 2 -3.4641 0
      vertex 1.62695 -3.65418 0
    endloop
  endfacet
  facet normal 0.453993 -0.891005 0
    outer loop
      vertex 2 -3.4641 0
      vertex 1.62695 -3.65418 -108
      vertex 2 -3.4641 -108
    endloop
  endfacet
  facet normal 0.629324 -0.777143 0
    outer loop
      vertex 2.35114 -3.23607 -108
      vertex 2.67652 -2.97258 0
      vertex 2.35114 -3.23607 0
    endloop
  endfacet
  facet normal 0.629324 -0.777143 0
    outer loop
      vertex 2.67652 -2.97258 0
      vertex 2.35114 -3.23607 -108
      vertex 2.67652 -2.97258 -108
    endloop
  endfacet
  facet normal 0.544634 -0.838674 0
    outer loop
      vertex 2 -3.4641 -108
      vertex 2.35114 -3.23607 0
      vertex 2 -3.4641 0
    endloop
  endfacet
  facet normal 0.544634 -0.838674 0
    outer loop
      vertex 2.35114 -3.23607 0
      vertex 2 -3.4641 -108
      vertex 2.35114 -3.23607 -108
    endloop
  endfacet
  facet normal 0.777143 -0.629324 0
    outer loop
      vertex 2.97258 -2.67652 0
      vertex 3.23607 -2.35114 -108
      vertex 3.23607 -2.35114 0
    endloop
  endfacet
  facet normal 0.777143 -0.629324 0
    outer loop
      vertex 3.23607 -2.35114 -108
      vertex 2.97258 -2.67652 0
      vertex 2.97258 -2.67652 -108
    endloop
  endfacet
  facet normal 0.891005 -0.453993 0
    outer loop
      vertex 3.4641 -2 0
      vertex 3.65418 -1.62695 -108
      vertex 3.65418 -1.62695 0
    endloop
  endfacet
  facet normal 0.891005 -0.453993 0
    outer loop
      vertex 3.65418 -1.62695 -108
      vertex 3.4641 -2 0
      vertex 3.4641 -2 -108
    endloop
  endfacet
  facet normal 0.838674 -0.544634 0
    outer loop
      vertex 3.23607 -2.35114 0
      vertex 3.4641 -2 -108
      vertex 3.4641 -2 0
    endloop
  endfacet
  facet normal 0.838674 -0.544634 0
    outer loop
      vertex 3.4641 -2 -108
      vertex 3.23607 -2.35114 0
      vertex 3.23607 -2.35114 -108
    endloop
  endfacet
  facet normal -0.156441 -0.987687 0
    outer loop
      vertex -0.831646 -3.91259 -108
      vertex -0.418114 -3.97809 0
      vertex -0.831646 -3.91259 0
    endloop
  endfacet
  facet normal -0.156441 -0.987687 -0
    outer loop
      vertex -0.418114 -3.97809 0
      vertex -0.831646 -3.91259 -108
      vertex -0.418114 -3.97809 -108
    endloop
  endfacet
  facet normal -0.0523302 -0.99863 0
    outer loop
      vertex -0.418114 -3.97809 -108
      vertex 0 -4 0
      vertex -0.418114 -3.97809 0
    endloop
  endfacet
  facet normal -0.0523302 -0.99863 -0
    outer loop
      vertex 0 -4 0
      vertex -0.418114 -3.97809 -108
      vertex 0 -4 -108
    endloop
  endfacet
  facet normal -0.544634 -0.838674 0
    outer loop
      vertex -2.35114 -3.23607 -108
      vertex -2 -3.4641 0
      vertex -2.35114 -3.23607 0
    endloop
  endfacet
  facet normal -0.544634 -0.838674 -0
    outer loop
      vertex -2 -3.4641 0
      vertex -2.35114 -3.23607 -108
      vertex -2 -3.4641 -108
    endloop
  endfacet
  facet normal -0.707107 -0.707107 0
    outer loop
      vertex -2.67652 -2.97258 -108
      vertex -2.97258 -2.67652 0
      vertex -2.97258 -2.67652 -108
    endloop
  endfacet
  facet normal -0.707107 -0.707107 0
    outer loop
      vertex -2.97258 -2.67652 0
      vertex -2.67652 -2.97258 -108
      vertex -2.67652 -2.97258 0
    endloop
  endfacet
  facet normal -0.453993 -0.891005 0
    outer loop
      vertex -2 -3.4641 -108
      vertex -1.62695 -3.65418 0
      vertex -2 -3.4641 0
    endloop
  endfacet
  facet normal -0.453993 -0.891005 -0
    outer loop
      vertex -1.62695 -3.65418 0
      vertex -2 -3.4641 -108
      vertex -1.62695 -3.65418 -108
    endloop
  endfacet
  facet normal -0.987687 -0.156441 0
    outer loop
      vertex -3.91259 -0.831646 -108
      vertex -3.97809 -0.418114 0
      vertex -3.97809 -0.418114 -108
    endloop
  endfacet
  facet normal -0.987687 -0.156441 0
    outer loop
      vertex -3.97809 -0.418114 0
      vertex -3.91259 -0.831646 -108
      vertex -3.91259 -0.831646 0
    endloop
  endfacet
  facet normal -0.777143 -0.629324 0
    outer loop
      vertex -2.97258 -2.67652 -108
      vertex -3.23607 -2.35114 0
      vertex -3.23607 -2.35114 -108
    endloop
  endfacet
  facet normal -0.777143 -0.629324 0
    outer loop
      vertex -3.23607 -2.35114 0
      vertex -2.97258 -2.67652 -108
      vertex -2.97258 -2.67652 0
    endloop
  endfacet
  facet normal -0.838674 -0.544634 0
    outer loop
      vertex -3.23607 -2.35114 -108
      vertex -3.4641 -2 0
      vertex -3.4641 -2 -108
    endloop
  endfacet
  facet normal -0.838674 -0.544634 0
    outer loop
      vertex -3.4641 -2 0
      vertex -3.23607 -2.35114 -108
      vertex -3.23607 -2.35114 0
    endloop
  endfacet
  facet normal 0.987687 0.156441 0
    outer loop
      vertex 3.97809 0.418114 0
      vertex 3.91259 0.831646 -108
      vertex 3.91259 0.831646 0
    endloop
  endfacet
  facet normal 0.987687 0.156441 0
    outer loop
      vertex 3.91259 0.831646 -108
      vertex 3.97809 0.418114 0
      vertex 3.97809 0.418114 -108
    endloop
  endfacet
  facet normal 0.629324 0.777143 -0
    outer loop
      vertex 2.67652 2.97258 -108
      vertex 2.35114 3.23607 0
      vertex 2.67652 2.97258 0
    endloop
  endfacet
  facet normal 0.629324 0.777143 0
    outer loop
      vertex 2.35114 3.23607 0
      vertex 2.67652 2.97258 -108
      vertex 2.35114 3.23607 -108
    endloop
  endfacet
  facet normal 0.258808 0.965929 -0
    outer loop
      vertex 1.23607 3.80423 -108
      vertex 0.831646 3.91259 0
      vertex 1.23607 3.80423 0
    endloop
  endfacet
  facet normal 0.258808 0.965929 0
    outer loop
      vertex 0.831646 3.91259 0
      vertex 1.23607 3.80423 -108
      vertex 0.831646 3.91259 -108
    endloop
  endfacet
  facet normal -0.987687 0.156441 0
    outer loop
      vertex -3.97809 0.418114 -108
      vertex -3.91259 0.831646 0
      vertex -3.91259 0.831646 -108
    endloop
  endfacet
  facet normal -0.987687 0.156441 0
    outer loop
      vertex -3.91259 0.831646 0
      vertex -3.97809 0.418114 -108
      vertex -3.97809 0.418114 0
    endloop
  endfacet
  facet normal -0.838674 0.544634 0
    outer loop
      vertex -3.4641 2 -108
      vertex -3.23607 2.35114 0
      vertex -3.23607 2.35114 -108
    endloop
  endfacet
  facet normal -0.838674 0.544634 0
    outer loop
      vertex -3.23607 2.35114 0
      vertex -3.4641 2 -108
      vertex -3.4641 2 0
    endloop
  endfacet
  facet normal -0.156441 0.987687 0
    outer loop
      vertex -0.418114 3.97809 -108
      vertex -0.831646 3.91259 0
      vertex -0.418114 3.97809 0
    endloop
  endfacet
  facet normal -0.156441 0.987687 0
    outer loop
      vertex -0.831646 3.91259 0
      vertex -0.418114 3.97809 -108
      vertex -0.831646 3.91259 -108
    endloop
  endfacet
  facet normal 0.987687 -0.156441 0
    outer loop
      vertex 3.91259 -0.831646 0
      vertex 3.97809 -0.418114 -108
      vertex 3.97809 -0.418114 0
    endloop
  endfacet
  facet normal 0.987687 -0.156441 0
    outer loop
      vertex 3.97809 -0.418114 -108
      vertex 3.91259 -0.831646 0
      vertex 3.91259 -0.831646 -108
    endloop
  endfacet
  facet normal 0.99863 -0.0523302 0
    outer loop
      vertex 3.97809 -0.418114 0
      vertex 4 0 -108
      vertex 4 0 0
    endloop
  endfacet
  facet normal 0.99863 -0.0523302 0
    outer loop
      vertex 4 0 -108
      vertex 3.97809 -0.418114 0
      vertex 3.97809 -0.418114 -108
    endloop
  endfacet
  facet normal 0.358379 -0.933576 0
    outer loop
      vertex 1.23607 -3.80423 -108
      vertex 1.62695 -3.65418 0
      vertex 1.23607 -3.80423 0
    endloop
  endfacet
  facet normal 0.358379 -0.933576 0
    outer loop
      vertex 1.62695 -3.65418 0
      vertex 1.23607 -3.80423 -108
      vertex 1.62695 -3.65418 -108
    endloop
  endfacet
  facet normal -0.258808 -0.965929 0
    outer loop
      vertex -1.23607 -3.80423 -108
      vertex -0.831646 -3.91259 0
      vertex -1.23607 -3.80423 0
    endloop
  endfacet
  facet normal -0.258808 -0.965929 -0
    outer loop
      vertex -0.831646 -3.91259 0
      vertex -1.23607 -3.80423 -108
      vertex -0.831646 -3.91259 -108
    endloop
  endfacet
  facet normal -0.629324 -0.777143 0
    outer loop
      vertex -2.67652 -2.97258 -108
      vertex -2.35114 -3.23607 0
      vertex -2.67652 -2.97258 0
    endloop
  endfacet
  facet normal -0.629324 -0.777143 -0
    outer loop
      vertex -2.35114 -3.23607 0
      vertex -2.67652 -2.97258 -108
      vertex -2.35114 -3.23607 -108
    endloop
  endfacet
  facet normal -0.965929 -0.258808 0
    outer loop
      vertex -3.80423 -1.23607 -108
      vertex -3.91259 -0.831646 0
      vertex -3.91259 -0.831646 -108
    endloop
  endfacet
  facet normal -0.965929 -0.258808 0
    outer loop
      vertex -3.91259 -0.831646 0
      vertex -3.80423 -1.23607 -108
      vertex -3.80423 -1.23607 0
    endloop
  endfacet
  facet normal -0.891005 -0.453993 0
    outer loop
      vertex -3.4641 -2 -108
      vertex -3.65418 -1.62695 0
      vertex -3.65418 -1.62695 -108
    endloop
  endfacet
  facet normal -0.891005 -0.453993 0
    outer loop
      vertex -3.65418 -1.62695 0
      vertex -3.4641 -2 -108
      vertex -3.4641 -2 0
    endloop
  endfacet
  facet normal 0.866025 0.5 0
    outer loop
      vertex 7.5 0 5.65
      vertex 3.75 6.49519 0
      vertex 3.75 6.49519 5.65
    endloop
  endfacet
  facet normal 0.866025 0.5 0
    outer loop
      vertex 3.75 6.49519 0
      vertex 7.5 0 5.65
      vertex 7.5 0 0
    endloop
  endfacet
  facet normal -0.866025 0.5 0
    outer loop
      vertex -7.5 0 0
      vertex -3.75 6.49519 5.65
      vertex -3.75 6.49519 0
    endloop
  endfacet
  facet normal -0.866025 0.5 0
    outer loop
      vertex -3.75 6.49519 5.65
      vertex -7.5 0 0
      vertex -7.5 0 5.65
    endloop
  endfacet
  facet normal 0 1 -0
    outer loop
      vertex 3.75 6.49519 0
      vertex -3.75 6.49519 5.65
      vertex 3.75 6.49519 5.65
    endloop
  endfacet
  facet normal 0 1 0
    outer loop
      vertex -3.75 6.49519 5.65
      vertex 3.75 6.49519 0
      vertex -3.75 6.49519 0
    endloop
  endfacet
  facet normal -0.866025 -0.5 0
    outer loop
      vertex -3.75 -6.49519 0
      vertex -7.5 0 5.65
      vertex -7.5 0 0
    endloop
  endfacet
  facet normal -0.866025 -0.5 0
    outer loop
      vertex -7.5 0 5.65
      vertex -3.75 -6.49519 0
      vertex -3.75 -6.49519 5.65
    endloop
  endfacet
  facet normal 0 0 1
    outer loop
      vertex 3.75 6.49519 5.65
      vertex 3.75 -6.49519 5.65
      vertex 7.5 0 5.65
    endloop
  endfacet
  facet normal -0 0 1
    outer loop
      vertex -3.75 6.49519 5.65
      vertex 3.75 -6.49519 5.65
      vertex 3.75 6.49519 5.65
    endloop
  endfacet
  facet normal 0 0 1
    outer loop
      vertex -3.75 6.49519 5.65
      vertex -3.75 -6.49519 5.65
      vertex 3.75 -6.49519 5.65
    endloop
  endfacet
  facet normal 0 -0 1
    outer loop
      vertex -3.75 -6.49519 5.65
      vertex -3.75 6.49519 5.65
      vertex -7.5 0 5.65
    endloop
  endfacet
  facet normal 0 -1 0
    outer loop
      vertex -3.75 -6.49519 0
      vertex 3.75 -6.49519 5.65
      vertex -3.75 -6.49519 5.65
    endloop
  endfacet
  facet normal 0 -1 -0
    outer loop
      vertex 3.75 -6.49519 5.65
      vertex -3.75 -6.49519 0
      vertex 3.75 -6.49519 0
    endloop
  endfacet
  facet normal 0.866025 -0.5 0
    outer loop
      vertex 3.75 -6.49519 5.65
      vertex 7.5 0 0
      vertex 7.5 0 5.65
    endloop
  endfacet
  facet normal 0.866025 -0.5 0
    outer loop
      vertex 7.5 0 0
      vertex 3.75 -6.49519 5.65
      vertex 3.75 -6.49519 0
    endloop
  endfacet
endsolid OpenSCAD_Model
