solid OpenSCAD_Model
  facet normal -0.974926 0 -0.222528
    outer loop
      vertex 23.2172 0 19.05
      vertex 22.8045 3.175 20.8581
      vertex 23.2172 3.175 19.05
    endloop
  endfacet
  facet normal -0.974926 -0 -0.222528
    outer loop
      vertex 22.8045 3.175 20.8581
      vertex 23.2172 0 19.05
      vertex 22.8045 0 20.8581
    endloop
  endfacet
  facet normal -0.974926 0 -0.222528
    outer loop
      vertex 23.2172 34.925 19.05
      vertex 22.8045 38.1 20.8581
      vertex 23.2172 38.1 19.05
    endloop
  endfacet
  facet normal -0.974926 -0 -0.222528
    outer loop
      vertex 22.8045 38.1 20.8581
      vertex 23.2172 34.925 19.05
      vertex 22.8045 34.925 20.8581
    endloop
  endfacet
  facet normal -0.78182 0 -0.623504
    outer loop
      vertex 22.8045 0 20.8581
      vertex 21.6482 3.175 22.308
      vertex 22.8045 3.175 20.8581
    endloop
  endfacet
  facet normal -0.78182 -0 -0.623504
    outer loop
      vertex 21.6482 3.175 22.308
      vertex 22.8045 0 20.8581
      vertex 21.6482 0 22.308
    endloop
  endfacet
  facet normal -0.78182 0 -0.623504
    outer loop
      vertex 22.8045 34.925 20.8581
      vertex 21.6482 38.1 22.308
      vertex 22.8045 38.1 20.8581
    endloop
  endfacet
  facet normal -0.78182 -0 -0.623504
    outer loop
      vertex 21.6482 38.1 22.308
      vertex 22.8045 34.925 20.8581
      vertex 21.6482 34.925 22.308
    endloop
  endfacet
  facet normal 0.974926 0 -0.222528
    outer loop
      vertex 15.2955 0 20.8581
      vertex 14.8828 3.175 19.05
      vertex 15.2955 3.175 20.8581
    endloop
  endfacet
  facet normal 0.974926 0 -0.222528
    outer loop
      vertex 14.8828 3.175 19.05
      vertex 15.2955 0 20.8581
      vertex 14.8828 0 19.05
    endloop
  endfacet
  facet normal 0.974926 0 -0.222528
    outer loop
      vertex 15.2955 34.925 20.8581
      vertex 14.8828 38.1 19.05
      vertex 15.2955 38.1 20.8581
    endloop
  endfacet
  facet normal 0.974926 0 -0.222528
    outer loop
      vertex 14.8828 38.1 19.05
      vertex 15.2955 34.925 20.8581
      vertex 14.8828 34.925 19.05
    endloop
  endfacet
  facet normal 0 0 -1
    outer loop
      vertex 18.1227 0 23.1127
      vertex 19.9773 3.175 23.1127
      vertex 19.9773 0 23.1127
    endloop
  endfacet
  facet normal -0 0 -1
    outer loop
      vertex 19.9773 3.175 23.1127
      vertex 18.1227 0 23.1127
      vertex 18.1227 3.175 23.1127
    endloop
  endfacet
  facet normal 0 0 -1
    outer loop
      vertex 18.1227 34.925 23.1127
      vertex 19.9773 38.1 23.1127
      vertex 19.9773 34.925 23.1127
    endloop
  endfacet
  facet normal -0 0 -1
    outer loop
      vertex 19.9773 38.1 23.1127
      vertex 18.1227 34.925 23.1127
      vertex 18.1227 38.1 23.1127
    endloop
  endfacet
  facet normal -0.4339 0 -0.900961
    outer loop
      vertex 19.9773 0 23.1127
      vertex 21.6482 3.175 22.308
      vertex 21.6482 0 22.308
    endloop
  endfacet
  facet normal -0.4339 0 -0.900961
    outer loop
      vertex 21.6482 3.175 22.308
      vertex 19.9773 0 23.1127
      vertex 19.9773 3.175 23.1127
    endloop
  endfacet
  facet normal -0.4339 0 -0.900961
    outer loop
      vertex 19.9773 34.925 23.1127
      vertex 21.6482 38.1 22.308
      vertex 21.6482 34.925 22.308
    endloop
  endfacet
  facet normal -0.4339 0 -0.900961
    outer loop
      vertex 21.6482 38.1 22.308
      vertex 19.9773 34.925 23.1127
      vertex 19.9773 38.1 23.1127
    endloop
  endfacet
  facet normal 0.4339 0 -0.900961
    outer loop
      vertex 16.4518 0 22.308
      vertex 18.1227 3.175 23.1127
      vertex 18.1227 0 23.1127
    endloop
  endfacet
  facet normal 0.4339 0 -0.900961
    outer loop
      vertex 18.1227 3.175 23.1127
      vertex 16.4518 0 22.308
      vertex 16.4518 3.175 22.308
    endloop
  endfacet
  facet normal 0.4339 0 -0.900961
    outer loop
      vertex 16.4518 34.925 22.308
      vertex 18.1227 38.1 23.1127
      vertex 18.1227 34.925 23.1127
    endloop
  endfacet
  facet normal 0.4339 0 -0.900961
    outer loop
      vertex 18.1227 38.1 23.1127
      vertex 16.4518 34.925 22.308
      vertex 16.4518 38.1 22.308
    endloop
  endfacet
  facet normal -0.78182 0 0.623504
    outer loop
      vertex 21.6482 0 15.792
      vertex 22.8045 3.175 17.2419
      vertex 21.6482 3.175 15.792
    endloop
  endfacet
  facet normal -0.78182 0 0.623504
    outer loop
      vertex 22.8045 3.175 17.2419
      vertex 21.6482 0 15.792
      vertex 22.8045 0 17.2419
    endloop
  endfacet
  facet normal -0.78182 0 0.623504
    outer loop
      vertex 21.6482 34.925 15.792
      vertex 22.8045 38.1 17.2419
      vertex 21.6482 38.1 15.792
    endloop
  endfacet
  facet normal -0.78182 0 0.623504
    outer loop
      vertex 22.8045 38.1 17.2419
      vertex 21.6482 34.925 15.792
      vertex 22.8045 34.925 17.2419
    endloop
  endfacet
  facet normal -0.974926 0 0.222528
    outer loop
      vertex 22.8045 0 17.2419
      vertex 23.2172 3.175 19.05
      vertex 22.8045 3.175 17.2419
    endloop
  endfacet
  facet normal -0.974926 0 0.222528
    outer loop
      vertex 23.2172 3.175 19.05
      vertex 22.8045 0 17.2419
      vertex 23.2172 0 19.05
    endloop
  endfacet
  facet normal -0.974926 0 0.222528
    outer loop
      vertex 22.8045 34.925 17.2419
      vertex 23.2172 38.1 19.05
      vertex 22.8045 38.1 17.2419
    endloop
  endfacet
  facet normal -0.974926 0 0.222528
    outer loop
      vertex 23.2172 38.1 19.05
      vertex 22.8045 34.925 17.2419
      vertex 23.2172 34.925 19.05
    endloop
  endfacet
  facet normal 0.78182 0 -0.623504
    outer loop
      vertex 16.4518 0 22.308
      vertex 15.2955 3.175 20.8581
      vertex 16.4518 3.175 22.308
    endloop
  endfacet
  facet normal 0.78182 0 -0.623504
    outer loop
      vertex 15.2955 3.175 20.8581
      vertex 16.4518 0 22.308
      vertex 15.2955 0 20.8581
    endloop
  endfacet
  facet normal 0.78182 0 -0.623504
    outer loop
      vertex 16.4518 34.925 22.308
      vertex 15.2955 38.1 20.8581
      vertex 16.4518 38.1 22.308
    endloop
  endfacet
  facet normal 0.78182 0 -0.623504
    outer loop
      vertex 15.2955 38.1 20.8581
      vertex 16.4518 34.925 22.308
      vertex 15.2955 34.925 20.8581
    endloop
  endfacet
  facet normal -0.4339 0 0.900961
    outer loop
      vertex 19.9773 3.175 14.9873
      vertex 21.6482 0 15.792
      vertex 21.6482 3.175 15.792
    endloop
  endfacet
  facet normal -0.4339 0 0.900961
    outer loop
      vertex 21.6482 0 15.792
      vertex 19.9773 3.175 14.9873
      vertex 19.9773 0 14.9873
    endloop
  endfacet
  facet normal -0.4339 0 0.900961
    outer loop
      vertex 19.9773 38.1 14.9873
      vertex 21.6482 34.925 15.792
      vertex 21.6482 38.1 15.792
    endloop
  endfacet
  facet normal -0.4339 0 0.900961
    outer loop
      vertex 21.6482 34.925 15.792
      vertex 19.9773 38.1 14.9873
      vertex 19.9773 34.925 14.9873
    endloop
  endfacet
  facet normal 0.4339 0 0.900961
    outer loop
      vertex 16.4518 3.175 15.792
      vertex 18.1227 0 14.9873
      vertex 18.1227 3.175 14.9873
    endloop
  endfacet
  facet normal 0.4339 0 0.900961
    outer loop
      vertex 18.1227 0 14.9873
      vertex 16.4518 3.175 15.792
      vertex 16.4518 0 15.792
    endloop
  endfacet
  facet normal 0.4339 0 0.900961
    outer loop
      vertex 16.4518 38.1 15.792
      vertex 18.1227 34.925 14.9873
      vertex 18.1227 38.1 14.9873
    endloop
  endfacet
  facet normal 0.4339 0 0.900961
    outer loop
      vertex 18.1227 34.925 14.9873
      vertex 16.4518 38.1 15.792
      vertex 16.4518 34.925 15.792
    endloop
  endfacet
  facet normal 0.78182 -0 0.623504
    outer loop
      vertex 15.2955 0 17.2419
      vertex 16.4518 3.175 15.792
      vertex 15.2955 3.175 17.2419
    endloop
  endfacet
  facet normal 0.78182 0 0.623504
    outer loop
      vertex 16.4518 3.175 15.792
      vertex 15.2955 0 17.2419
      vertex 16.4518 0 15.792
    endloop
  endfacet
  facet normal 0.78182 -0 0.623504
    outer loop
      vertex 15.2955 34.925 17.2419
      vertex 16.4518 38.1 15.792
      vertex 15.2955 38.1 17.2419
    endloop
  endfacet
  facet normal 0.78182 0 0.623504
    outer loop
      vertex 16.4518 38.1 15.792
      vertex 15.2955 34.925 17.2419
      vertex 16.4518 34.925 15.792
    endloop
  endfacet
  facet normal 0.974926 -0 0.222528
    outer loop
      vertex 14.8828 0 19.05
      vertex 15.2955 3.175 17.2419
      vertex 14.8828 3.175 19.05
    endloop
  endfacet
  facet normal 0.974926 0 0.222528
    outer loop
      vertex 15.2955 3.175 17.2419
      vertex 14.8828 0 19.05
      vertex 15.2955 0 17.2419
    endloop
  endfacet
  facet normal 0.974926 -0 0.222528
    outer loop
      vertex 14.8828 34.925 19.05
      vertex 15.2955 38.1 17.2419
      vertex 14.8828 38.1 19.05
    endloop
  endfacet
  facet normal 0.974926 0 0.222528
    outer loop
      vertex 15.2955 38.1 17.2419
      vertex 14.8828 34.925 19.05
      vertex 15.2955 34.925 17.2419
    endloop
  endfacet
  facet normal -0 0 1
    outer loop
      vertex 18.1227 3.175 14.9873
      vertex 19.9773 0 14.9873
      vertex 19.9773 3.175 14.9873
    endloop
  endfacet
  facet normal 0 0 1
    outer loop
      vertex 19.9773 0 14.9873
      vertex 18.1227 3.175 14.9873
      vertex 18.1227 0 14.9873
    endloop
  endfacet
  facet normal -0 0 1
    outer loop
      vertex 18.1227 38.1 14.9873
      vertex 19.9773 34.925 14.9873
      vertex 19.9773 38.1 14.9873
    endloop
  endfacet
  facet normal 0 0 1
    outer loop
      vertex 19.9773 34.925 14.9873
      vertex 18.1227 38.1 14.9873
      vertex 18.1227 34.925 14.9873
    endloop
  endfacet
  facet normal 0 -0.222528 0.974926
    outer loop
      vertex 0 20.8581 15.2955
      vertex 3.175 19.05 14.8828
      vertex 3.175 20.8581 15.2955
    endloop
  endfacet
  facet normal 0 -0.222528 0.974926
    outer loop
      vertex 3.175 19.05 14.8828
      vertex 0 20.8581 15.2955
      vertex 0 19.05 14.8828
    endloop
  endfacet
  facet normal 0 -0.222528 0.974926
    outer loop
      vertex 34.925 20.8581 15.2955
      vertex 38.1 19.05 14.8828
      vertex 38.1 20.8581 15.2955
    endloop
  endfacet
  facet normal 0 -0.222528 0.974926
    outer loop
      vertex 38.1 19.05 14.8828
      vertex 34.925 20.8581 15.2955
      vertex 34.925 19.05 14.8828
    endloop
  endfacet
  facet normal 0 -0.222528 -0.974926
    outer loop
      vertex 0 19.05 23.2172
      vertex 3.175 20.8581 22.8045
      vertex 3.175 19.05 23.2172
    endloop
  endfacet
  facet normal -0 -0.222528 -0.974926
    outer loop
      vertex 3.175 20.8581 22.8045
      vertex 0 19.05 23.2172
      vertex 0 20.8581 22.8045
    endloop
  endfacet
  facet normal 0 -0.222528 -0.974926
    outer loop
      vertex 34.925 19.05 23.2172
      vertex 38.1 20.8581 22.8045
      vertex 38.1 19.05 23.2172
    endloop
  endfacet
  facet normal -0 -0.222528 -0.974926
    outer loop
      vertex 38.1 20.8581 22.8045
      vertex 34.925 19.05 23.2172
      vertex 34.925 20.8581 22.8045
    endloop
  endfacet
  facet normal 0 1 -0
    outer loop
      vertex 3.175 14.9873 18.1227
      vertex 0 14.9873 19.9773
      vertex 3.175 14.9873 19.9773
    endloop
  endfacet
  facet normal 0 1 0
    outer loop
      vertex 0 14.9873 19.9773
      vertex 3.175 14.9873 18.1227
      vertex 0 14.9873 18.1227
    endloop
  endfacet
  facet normal 0 1 -0
    outer loop
      vertex 38.1 14.9873 18.1227
      vertex 34.925 14.9873 19.9773
      vertex 38.1 14.9873 19.9773
    endloop
  endfacet
  facet normal 0 1 0
    outer loop
      vertex 34.925 14.9873 19.9773
      vertex 38.1 14.9873 18.1227
      vertex 34.925 14.9873 18.1227
    endloop
  endfacet
  facet normal 0 0.900961 0.4339
    outer loop
      vertex 3.175 15.792 16.4518
      vertex 0 14.9873 18.1227
      vertex 3.175 14.9873 18.1227
    endloop
  endfacet
  facet normal 0 0.900961 0.4339
    outer loop
      vertex 0 14.9873 18.1227
      vertex 3.175 15.792 16.4518
      vertex 0 15.792 16.4518
    endloop
  endfacet
  facet normal 0 0.900961 0.4339
    outer loop
      vertex 38.1 15.792 16.4518
      vertex 34.925 14.9873 18.1227
      vertex 38.1 14.9873 18.1227
    endloop
  endfacet
  facet normal 0 0.900961 0.4339
    outer loop
      vertex 34.925 14.9873 18.1227
      vertex 38.1 15.792 16.4518
      vertex 34.925 15.792 16.4518
    endloop
  endfacet
  facet normal 0 -0.623504 0.78182
    outer loop
      vertex 0 22.308 16.4518
      vertex 3.175 20.8581 15.2955
      vertex 3.175 22.308 16.4518
    endloop
  endfacet
  facet normal 0 -0.623504 0.78182
    outer loop
      vertex 3.175 20.8581 15.2955
      vertex 0 22.308 16.4518
      vertex 0 20.8581 15.2955
    endloop
  endfacet
  facet normal 0 -0.623504 0.78182
    outer loop
      vertex 34.925 22.308 16.4518
      vertex 38.1 20.8581 15.2955
      vertex 38.1 22.308 16.4518
    endloop
  endfacet
  facet normal 0 -0.623504 0.78182
    outer loop
      vertex 38.1 20.8581 15.2955
      vertex 34.925 22.308 16.4518
      vertex 34.925 20.8581 15.2955
    endloop
  endfacet
  facet normal 0 -1 0
    outer loop
      vertex 0 23.1127 18.1227
      vertex 3.175 23.1127 19.9773
      vertex 0 23.1127 19.9773
    endloop
  endfacet
  facet normal 0 -1 -0
    outer loop
      vertex 3.175 23.1127 19.9773
      vertex 0 23.1127 18.1227
      vertex 3.175 23.1127 18.1227
    endloop
  endfacet
  facet normal 0 -1 0
    outer loop
      vertex 34.925 23.1127 18.1227
      vertex 38.1 23.1127 19.9773
      vertex 34.925 23.1127 19.9773
    endloop
  endfacet
  facet normal 0 -1 -0
    outer loop
      vertex 38.1 23.1127 19.9773
      vertex 34.925 23.1127 18.1227
      vertex 38.1 23.1127 18.1227
    endloop
  endfacet
  facet normal 0 -0.623504 -0.78182
    outer loop
      vertex 0 20.8581 22.8045
      vertex 3.175 22.308 21.6482
      vertex 3.175 20.8581 22.8045
    endloop
  endfacet
  facet normal -0 -0.623504 -0.78182
    outer loop
      vertex 3.175 22.308 21.6482
      vertex 0 20.8581 22.8045
      vertex 0 22.308 21.6482
    endloop
  endfacet
  facet normal 0 -0.623504 -0.78182
    outer loop
      vertex 34.925 20.8581 22.8045
      vertex 38.1 22.308 21.6482
      vertex 38.1 20.8581 22.8045
    endloop
  endfacet
  facet normal -0 -0.623504 -0.78182
    outer loop
      vertex 38.1 22.308 21.6482
      vertex 34.925 20.8581 22.8045
      vertex 34.925 22.308 21.6482
    endloop
  endfacet
  facet normal 0 -0.900961 -0.4339
    outer loop
      vertex 0 23.1127 19.9773
      vertex 3.175 22.308 21.6482
      vertex 0 22.308 21.6482
    endloop
  endfacet
  facet normal 0 -0.900961 -0.4339
    outer loop
      vertex 3.175 22.308 21.6482
      vertex 0 23.1127 19.9773
      vertex 3.175 23.1127 19.9773
    endloop
  endfacet
  facet normal 0 -0.900961 -0.4339
    outer loop
      vertex 34.925 23.1127 19.9773
      vertex 38.1 22.308 21.6482
      vertex 34.925 22.308 21.6482
    endloop
  endfacet
  facet normal 0 -0.900961 -0.4339
    outer loop
      vertex 38.1 22.308 21.6482
      vertex 34.925 23.1127 19.9773
      vertex 38.1 23.1127 19.9773
    endloop
  endfacet
  facet normal -0 0.222528 0.974926
    outer loop
      vertex 0 19.05 14.8828
      vertex 3.175 17.2419 15.2955
      vertex 3.175 19.05 14.8828
    endloop
  endfacet
  facet normal 0 0.222528 0.974926
    outer loop
      vertex 3.175 17.2419 15.2955
      vertex 0 19.05 14.8828
      vertex 0 17.2419 15.2955
    endloop
  endfacet
  facet normal -0 0.222528 0.974926
    outer loop
      vertex 34.925 19.05 14.8828
      vertex 38.1 17.2419 15.2955
      vertex 38.1 19.05 14.8828
    endloop
  endfacet
  facet normal 0 0.222528 0.974926
    outer loop
      vertex 38.1 17.2419 15.2955
      vertex 34.925 19.05 14.8828
      vertex 34.925 17.2419 15.2955
    endloop
  endfacet
  facet normal 0 -0.900961 0.4339
    outer loop
      vertex 0 22.308 16.4518
      vertex 3.175 23.1127 18.1227
      vertex 0 23.1127 18.1227
    endloop
  endfacet
  facet normal 0 -0.900961 0.4339
    outer loop
      vertex 3.175 23.1127 18.1227
      vertex 0 22.308 16.4518
      vertex 3.175 22.308 16.4518
    endloop
  endfacet
  facet normal 0 -0.900961 0.4339
    outer loop
      vertex 34.925 22.308 16.4518
      vertex 38.1 23.1127 18.1227
      vertex 34.925 23.1127 18.1227
    endloop
  endfacet
  facet normal 0 -0.900961 0.4339
    outer loop
      vertex 38.1 23.1127 18.1227
      vertex 34.925 22.308 16.4518
      vertex 38.1 22.308 16.4518
    endloop
  endfacet
  facet normal -0 0.623504 0.78182
    outer loop
      vertex 0 17.2419 15.2955
      vertex 3.175 15.792 16.4518
      vertex 3.175 17.2419 15.2955
    endloop
  endfacet
  facet normal 0 0.623504 0.78182
    outer loop
      vertex 3.175 15.792 16.4518
      vertex 0 17.2419 15.2955
      vertex 0 15.792 16.4518
    endloop
  endfacet
  facet normal -0 0.623504 0.78182
    outer loop
      vertex 34.925 17.2419 15.2955
      vertex 38.1 15.792 16.4518
      vertex 38.1 17.2419 15.2955
    endloop
  endfacet
  facet normal 0 0.623504 0.78182
    outer loop
      vertex 38.1 15.792 16.4518
      vertex 34.925 17.2419 15.2955
      vertex 34.925 15.792 16.4518
    endloop
  endfacet
  facet normal 0 0.900961 -0.4339
    outer loop
      vertex 3.175 14.9873 19.9773
      vertex 0 15.792 21.6482
      vertex 3.175 15.792 21.6482
    endloop
  endfacet
  facet normal 0 0.900961 -0.4339
    outer loop
      vertex 0 15.792 21.6482
      vertex 3.175 14.9873 19.9773
      vertex 0 14.9873 19.9773
    endloop
  endfacet
  facet normal 0 0.900961 -0.4339
    outer loop
      vertex 38.1 14.9873 19.9773
      vertex 34.925 15.792 21.6482
      vertex 38.1 15.792 21.6482
    endloop
  endfacet
  facet normal 0 0.900961 -0.4339
    outer loop
      vertex 34.925 15.792 21.6482
      vertex 38.1 14.9873 19.9773
      vertex 34.925 14.9873 19.9773
    endloop
  endfacet
  facet normal 0 0.623504 -0.78182
    outer loop
      vertex 0 15.792 21.6482
      vertex 3.175 17.2419 22.8045
      vertex 3.175 15.792 21.6482
    endloop
  endfacet
  facet normal 0 0.623504 -0.78182
    outer loop
      vertex 3.175 17.2419 22.8045
      vertex 0 15.792 21.6482
      vertex 0 17.2419 22.8045
    endloop
  endfacet
  facet normal 0 0.623504 -0.78182
    outer loop
      vertex 34.925 15.792 21.6482
      vertex 38.1 17.2419 22.8045
      vertex 38.1 15.792 21.6482
    endloop
  endfacet
  facet normal 0 0.623504 -0.78182
    outer loop
      vertex 38.1 17.2419 22.8045
      vertex 34.925 15.792 21.6482
      vertex 34.925 17.2419 22.8045
    endloop
  endfacet
  facet normal 0 0.222528 -0.974926
    outer loop
      vertex 0 17.2419 22.8045
      vertex 3.175 19.05 23.2172
      vertex 3.175 17.2419 22.8045
    endloop
  endfacet
  facet normal 0 0.222528 -0.974926
    outer loop
      vertex 3.175 19.05 23.2172
      vertex 0 17.2419 22.8045
      vertex 0 19.05 23.2172
    endloop
  endfacet
  facet normal 0 0.222528 -0.974926
    outer loop
      vertex 34.925 17.2419 22.8045
      vertex 38.1 19.05 23.2172
      vertex 38.1 17.2419 22.8045
    endloop
  endfacet
  facet normal 0 0.222528 -0.974926
    outer loop
      vertex 38.1 19.05 23.2172
      vertex 34.925 17.2419 22.8045
      vertex 34.925 19.05 23.2172
    endloop
  endfacet
  facet normal -0.974926 0 -0.222528
    outer loop
      vertex 23.2172 0 57.15
      vertex 22.8045 3.175 58.9581
      vertex 23.2172 3.175 57.15
    endloop
  endfacet
  facet normal -0.974926 -0 -0.222528
    outer loop
      vertex 22.8045 3.175 58.9581
      vertex 23.2172 0 57.15
      vertex 22.8045 0 58.9581
    endloop
  endfacet
  facet normal -0.974926 0 -0.222528
    outer loop
      vertex 23.2172 34.925 57.15
      vertex 22.8045 38.1 58.9581
      vertex 23.2172 38.1 57.15
    endloop
  endfacet
  facet normal -0.974926 -0 -0.222528
    outer loop
      vertex 22.8045 38.1 58.9581
      vertex 23.2172 34.925 57.15
      vertex 22.8045 34.925 58.9581
    endloop
  endfacet
  facet normal -0.78182 0 -0.623504
    outer loop
      vertex 22.8045 0 58.9581
      vertex 21.6482 3.175 60.408
      vertex 22.8045 3.175 58.9581
    endloop
  endfacet
  facet normal -0.78182 -0 -0.623504
    outer loop
      vertex 21.6482 3.175 60.408
      vertex 22.8045 0 58.9581
      vertex 21.6482 0 60.408
    endloop
  endfacet
  facet normal -0.78182 0 -0.623504
    outer loop
      vertex 22.8045 34.925 58.9581
      vertex 21.6482 38.1 60.408
      vertex 22.8045 38.1 58.9581
    endloop
  endfacet
  facet normal -0.78182 -0 -0.623504
    outer loop
      vertex 21.6482 38.1 60.408
      vertex 22.8045 34.925 58.9581
      vertex 21.6482 34.925 60.408
    endloop
  endfacet
  facet normal 0.974926 0 -0.222528
    outer loop
      vertex 15.2955 0 58.9581
      vertex 14.8828 3.175 57.15
      vertex 15.2955 3.175 58.9581
    endloop
  endfacet
  facet normal 0.974926 0 -0.222528
    outer loop
      vertex 14.8828 3.175 57.15
      vertex 15.2955 0 58.9581
      vertex 14.8828 0 57.15
    endloop
  endfacet
  facet normal 0.974926 0 -0.222528
    outer loop
      vertex 15.2955 34.925 58.9581
      vertex 14.8828 38.1 57.15
      vertex 15.2955 38.1 58.9581
    endloop
  endfacet
  facet normal 0.974926 0 -0.222528
    outer loop
      vertex 14.8828 38.1 57.15
      vertex 15.2955 34.925 58.9581
      vertex 14.8828 34.925 57.15
    endloop
  endfacet
  facet normal 0.974926 -0 0.222528
    outer loop
      vertex 14.8828 0 57.15
      vertex 15.2955 3.175 55.3419
      vertex 14.8828 3.175 57.15
    endloop
  endfacet
  facet normal 0.974926 0 0.222528
    outer loop
      vertex 15.2955 3.175 55.3419
      vertex 14.8828 0 57.15
      vertex 15.2955 0 55.3419
    endloop
  endfacet
  facet normal 0.974926 -0 0.222528
    outer loop
      vertex 14.8828 34.925 57.15
      vertex 15.2955 38.1 55.3419
      vertex 14.8828 38.1 57.15
    endloop
  endfacet
  facet normal 0.974926 0 0.222528
    outer loop
      vertex 15.2955 38.1 55.3419
      vertex 14.8828 34.925 57.15
      vertex 15.2955 34.925 55.3419
    endloop
  endfacet
  facet normal 0.4339 0 -0.900961
    outer loop
      vertex 16.4518 0 60.408
      vertex 18.1227 3.175 61.2127
      vertex 18.1227 0 61.2127
    endloop
  endfacet
  facet normal 0.4339 0 -0.900961
    outer loop
      vertex 18.1227 3.175 61.2127
      vertex 16.4518 0 60.408
      vertex 16.4518 3.175 60.408
    endloop
  endfacet
  facet normal 0.4339 0 -0.900961
    outer loop
      vertex 16.4518 34.925 60.408
      vertex 18.1227 38.1 61.2127
      vertex 18.1227 34.925 61.2127
    endloop
  endfacet
  facet normal 0.4339 0 -0.900961
    outer loop
      vertex 18.1227 38.1 61.2127
      vertex 16.4518 34.925 60.408
      vertex 16.4518 38.1 60.408
    endloop
  endfacet
  facet normal -0.974926 0 0.222528
    outer loop
      vertex 22.8045 0 55.3419
      vertex 23.2172 3.175 57.15
      vertex 22.8045 3.175 55.3419
    endloop
  endfacet
  facet normal -0.974926 0 0.222528
    outer loop
      vertex 23.2172 3.175 57.15
      vertex 22.8045 0 55.3419
      vertex 23.2172 0 57.15
    endloop
  endfacet
  facet normal -0.974926 0 0.222528
    outer loop
      vertex 22.8045 34.925 55.3419
      vertex 23.2172 38.1 57.15
      vertex 22.8045 38.1 55.3419
    endloop
  endfacet
  facet normal -0.974926 0 0.222528
    outer loop
      vertex 23.2172 38.1 57.15
      vertex 22.8045 34.925 55.3419
      vertex 23.2172 34.925 57.15
    endloop
  endfacet
  facet normal -0.4339 0 -0.900961
    outer loop
      vertex 19.9773 0 61.2127
      vertex 21.6482 3.175 60.408
      vertex 21.6482 0 60.408
    endloop
  endfacet
  facet normal -0.4339 0 -0.900961
    outer loop
      vertex 21.6482 3.175 60.408
      vertex 19.9773 0 61.2127
      vertex 19.9773 3.175 61.2127
    endloop
  endfacet
  facet normal -0.4339 0 -0.900961
    outer loop
      vertex 19.9773 34.925 61.2127
      vertex 21.6482 38.1 60.408
      vertex 21.6482 34.925 60.408
    endloop
  endfacet
  facet normal -0.4339 0 -0.900961
    outer loop
      vertex 21.6482 38.1 60.408
      vertex 19.9773 34.925 61.2127
      vertex 19.9773 38.1 61.2127
    endloop
  endfacet
  facet normal 0 0 -1
    outer loop
      vertex 18.1227 0 61.2127
      vertex 19.9773 3.175 61.2127
      vertex 19.9773 0 61.2127
    endloop
  endfacet
  facet normal -0 0 -1
    outer loop
      vertex 19.9773 3.175 61.2127
      vertex 18.1227 0 61.2127
      vertex 18.1227 3.175 61.2127
    endloop
  endfacet
  facet normal 0 0 -1
    outer loop
      vertex 18.1227 34.925 61.2127
      vertex 19.9773 38.1 61.2127
      vertex 19.9773 34.925 61.2127
    endloop
  endfacet
  facet normal -0 0 -1
    outer loop
      vertex 19.9773 38.1 61.2127
      vertex 18.1227 34.925 61.2127
      vertex 18.1227 38.1 61.2127
    endloop
  endfacet
  facet normal 0.78182 0 -0.623504
    outer loop
      vertex 16.4518 0 60.408
      vertex 15.2955 3.175 58.9581
      vertex 16.4518 3.175 60.408
    endloop
  endfacet
  facet normal 0.78182 0 -0.623504
    outer loop
      vertex 15.2955 3.175 58.9581
      vertex 16.4518 0 60.408
      vertex 15.2955 0 58.9581
    endloop
  endfacet
  facet normal 0.78182 0 -0.623504
    outer loop
      vertex 16.4518 34.925 60.408
      vertex 15.2955 38.1 58.9581
      vertex 16.4518 38.1 60.408
    endloop
  endfacet
  facet normal 0.78182 0 -0.623504
    outer loop
      vertex 15.2955 38.1 58.9581
      vertex 16.4518 34.925 60.408
      vertex 15.2955 34.925 58.9581
    endloop
  endfacet
  facet normal -0 0 1
    outer loop
      vertex 18.1227 3.175 53.0873
      vertex 19.9773 0 53.0873
      vertex 19.9773 3.175 53.0873
    endloop
  endfacet
  facet normal 0 0 1
    outer loop
      vertex 19.9773 0 53.0873
      vertex 18.1227 3.175 53.0873
      vertex 18.1227 0 53.0873
    endloop
  endfacet
  facet normal -0 0 1
    outer loop
      vertex 18.1227 38.1 53.0873
      vertex 19.9773 34.925 53.0873
      vertex 19.9773 38.1 53.0873
    endloop
  endfacet
  facet normal 0 0 1
    outer loop
      vertex 19.9773 34.925 53.0873
      vertex 18.1227 38.1 53.0873
      vertex 18.1227 34.925 53.0873
    endloop
  endfacet
  facet normal 0.4339 0 0.900961
    outer loop
      vertex 16.4518 3.175 53.892
      vertex 18.1227 0 53.0873
      vertex 18.1227 3.175 53.0873
    endloop
  endfacet
  facet normal 0.4339 0 0.900961
    outer loop
      vertex 18.1227 0 53.0873
      vertex 16.4518 3.175 53.892
      vertex 16.4518 0 53.892
    endloop
  endfacet
  facet normal 0.4339 0 0.900961
    outer loop
      vertex 16.4518 38.1 53.892
      vertex 18.1227 34.925 53.0873
      vertex 18.1227 38.1 53.0873
    endloop
  endfacet
  facet normal 0.4339 0 0.900961
    outer loop
      vertex 18.1227 34.925 53.0873
      vertex 16.4518 38.1 53.892
      vertex 16.4518 34.925 53.892
    endloop
  endfacet
  facet normal 0.78182 -0 0.623504
    outer loop
      vertex 15.2955 0 55.3419
      vertex 16.4518 3.175 53.892
      vertex 15.2955 3.175 55.3419
    endloop
  endfacet
  facet normal 0.78182 0 0.623504
    outer loop
      vertex 16.4518 3.175 53.892
      vertex 15.2955 0 55.3419
      vertex 16.4518 0 53.892
    endloop
  endfacet
  facet normal 0.78182 -0 0.623504
    outer loop
      vertex 15.2955 34.925 55.3419
      vertex 16.4518 38.1 53.892
      vertex 15.2955 38.1 55.3419
    endloop
  endfacet
  facet normal 0.78182 0 0.623504
    outer loop
      vertex 16.4518 38.1 53.892
      vertex 15.2955 34.925 55.3419
      vertex 16.4518 34.925 53.892
    endloop
  endfacet
  facet normal -0.4339 0 0.900961
    outer loop
      vertex 19.9773 3.175 53.0873
      vertex 21.6482 0 53.892
      vertex 21.6482 3.175 53.892
    endloop
  endfacet
  facet normal -0.4339 0 0.900961
    outer loop
      vertex 21.6482 0 53.892
      vertex 19.9773 3.175 53.0873
      vertex 19.9773 0 53.0873
    endloop
  endfacet
  facet normal -0.4339 0 0.900961
    outer loop
      vertex 19.9773 38.1 53.0873
      vertex 21.6482 34.925 53.892
      vertex 21.6482 38.1 53.892
    endloop
  endfacet
  facet normal -0.4339 0 0.900961
    outer loop
      vertex 21.6482 34.925 53.892
      vertex 19.9773 38.1 53.0873
      vertex 19.9773 34.925 53.0873
    endloop
  endfacet
  facet normal -0.78182 0 0.623504
    outer loop
      vertex 21.6482 0 53.892
      vertex 22.8045 3.175 55.3419
      vertex 21.6482 3.175 53.892
    endloop
  endfacet
  facet normal -0.78182 0 0.623504
    outer loop
      vertex 22.8045 3.175 55.3419
      vertex 21.6482 0 53.892
      vertex 22.8045 0 55.3419
    endloop
  endfacet
  facet normal -0.78182 0 0.623504
    outer loop
      vertex 21.6482 34.925 53.892
      vertex 22.8045 38.1 55.3419
      vertex 21.6482 38.1 53.892
    endloop
  endfacet
  facet normal -0.78182 0 0.623504
    outer loop
      vertex 22.8045 38.1 55.3419
      vertex 21.6482 34.925 53.892
      vertex 22.8045 34.925 55.3419
    endloop
  endfacet
  facet normal 0 -0.222528 0.974926
    outer loop
      vertex 0 20.8581 53.3955
      vertex 3.175 19.05 52.9828
      vertex 3.175 20.8581 53.3955
    endloop
  endfacet
  facet normal 0 -0.222528 0.974926
    outer loop
      vertex 3.175 19.05 52.9828
      vertex 0 20.8581 53.3955
      vertex 0 19.05 52.9828
    endloop
  endfacet
  facet normal 0 -0.222528 0.974926
    outer loop
      vertex 34.925 20.8581 53.3955
      vertex 38.1 19.05 52.9828
      vertex 38.1 20.8581 53.3955
    endloop
  endfacet
  facet normal 0 -0.222528 0.974926
    outer loop
      vertex 38.1 19.05 52.9828
      vertex 34.925 20.8581 53.3955
      vertex 34.925 19.05 52.9828
    endloop
  endfacet
  facet normal 0 -0.222528 -0.974926
    outer loop
      vertex 0 19.05 61.3172
      vertex 3.175 20.8581 60.9045
      vertex 3.175 19.05 61.3172
    endloop
  endfacet
  facet normal -0 -0.222528 -0.974926
    outer loop
      vertex 3.175 20.8581 60.9045
      vertex 0 19.05 61.3172
      vertex 0 20.8581 60.9045
    endloop
  endfacet
  facet normal 0 -0.222528 -0.974926
    outer loop
      vertex 34.925 19.05 61.3172
      vertex 38.1 20.8581 60.9045
      vertex 38.1 19.05 61.3172
    endloop
  endfacet
  facet normal -0 -0.222528 -0.974926
    outer loop
      vertex 38.1 20.8581 60.9045
      vertex 34.925 19.05 61.3172
      vertex 34.925 20.8581 60.9045
    endloop
  endfacet
  facet normal 0 -0.623504 0.78182
    outer loop
      vertex 0 22.308 54.5518
      vertex 3.175 20.8581 53.3955
      vertex 3.175 22.308 54.5518
    endloop
  endfacet
  facet normal 0 -0.623504 0.78182
    outer loop
      vertex 3.175 20.8581 53.3955
      vertex 0 22.308 54.5518
      vertex 0 20.8581 53.3955
    endloop
  endfacet
  facet normal 0 -0.623504 0.78182
    outer loop
      vertex 34.925 22.308 54.5518
      vertex 38.1 20.8581 53.3955
      vertex 38.1 22.308 54.5518
    endloop
  endfacet
  facet normal 0 -0.623504 0.78182
    outer loop
      vertex 38.1 20.8581 53.3955
      vertex 34.925 22.308 54.5518
      vertex 34.925 20.8581 53.3955
    endloop
  endfacet
  facet normal 0 -0.900961 -0.4339
    outer loop
      vertex 0 23.1127 58.0773
      vertex 3.175 22.308 59.7482
      vertex 0 22.308 59.7482
    endloop
  endfacet
  facet normal 0 -0.900961 -0.4339
    outer loop
      vertex 3.175 22.308 59.7482
      vertex 0 23.1127 58.0773
      vertex 3.175 23.1127 58.0773
    endloop
  endfacet
  facet normal 0 -0.900961 -0.4339
    outer loop
      vertex 34.925 23.1127 58.0773
      vertex 38.1 22.308 59.7482
      vertex 34.925 22.308 59.7482
    endloop
  endfacet
  facet normal 0 -0.900961 -0.4339
    outer loop
      vertex 38.1 22.308 59.7482
      vertex 34.925 23.1127 58.0773
      vertex 38.1 23.1127 58.0773
    endloop
  endfacet
  facet normal 0 1 -0
    outer loop
      vertex 3.175 14.9873 56.2227
      vertex 0 14.9873 58.0773
      vertex 3.175 14.9873 58.0773
    endloop
  endfacet
  facet normal 0 1 0
    outer loop
      vertex 0 14.9873 58.0773
      vertex 3.175 14.9873 56.2227
      vertex 0 14.9873 56.2227
    endloop
  endfacet
  facet normal 0 1 -0
    outer loop
      vertex 38.1 14.9873 56.2227
      vertex 34.925 14.9873 58.0773
      vertex 38.1 14.9873 58.0773
    endloop
  endfacet
  facet normal 0 1 0
    outer loop
      vertex 34.925 14.9873 58.0773
      vertex 38.1 14.9873 56.2227
      vertex 34.925 14.9873 56.2227
    endloop
  endfacet
  facet normal 0 0.900961 0.4339
    outer loop
      vertex 3.175 15.792 54.5518
      vertex 0 14.9873 56.2227
      vertex 3.175 14.9873 56.2227
    endloop
  endfacet
  facet normal 0 0.900961 0.4339
    outer loop
      vertex 0 14.9873 56.2227
      vertex 3.175 15.792 54.5518
      vertex 0 15.792 54.5518
    endloop
  endfacet
  facet normal 0 0.900961 0.4339
    outer loop
      vertex 38.1 15.792 54.5518
      vertex 34.925 14.9873 56.2227
      vertex 38.1 14.9873 56.2227
    endloop
  endfacet
  facet normal 0 0.900961 0.4339
    outer loop
      vertex 34.925 14.9873 56.2227
      vertex 38.1 15.792 54.5518
      vertex 34.925 15.792 54.5518
    endloop
  endfacet
  facet normal 0 -0.900961 0.4339
    outer loop
      vertex 0 22.308 54.5518
      vertex 3.175 23.1127 56.2227
      vertex 0 23.1127 56.2227
    endloop
  endfacet
  facet normal 0 -0.900961 0.4339
    outer loop
      vertex 3.175 23.1127 56.2227
      vertex 0 22.308 54.5518
      vertex 3.175 22.308 54.5518
    endloop
  endfacet
  facet normal 0 -0.900961 0.4339
    outer loop
      vertex 34.925 22.308 54.5518
      vertex 38.1 23.1127 56.2227
      vertex 34.925 23.1127 56.2227
    endloop
  endfacet
  facet normal 0 -0.900961 0.4339
    outer loop
      vertex 38.1 23.1127 56.2227
      vertex 34.925 22.308 54.5518
      vertex 38.1 22.308 54.5518
    endloop
  endfacet
  facet normal 0 -0.623504 -0.78182
    outer loop
      vertex 0 20.8581 60.9045
      vertex 3.175 22.308 59.7482
      vertex 3.175 20.8581 60.9045
    endloop
  endfacet
  facet normal -0 -0.623504 -0.78182
    outer loop
      vertex 3.175 22.308 59.7482
      vertex 0 20.8581 60.9045
      vertex 0 22.308 59.7482
    endloop
  endfacet
  facet normal 0 -0.623504 -0.78182
    outer loop
      vertex 34.925 20.8581 60.9045
      vertex 38.1 22.308 59.7482
      vertex 38.1 20.8581 60.9045
    endloop
  endfacet
  facet normal -0 -0.623504 -0.78182
    outer loop
      vertex 38.1 22.308 59.7482
      vertex 34.925 20.8581 60.9045
      vertex 34.925 22.308 59.7482
    endloop
  endfacet
  facet normal -0 0.222528 0.974926
    outer loop
      vertex 0 19.05 52.9828
      vertex 3.175 17.2419 53.3955
      vertex 3.175 19.05 52.9828
    endloop
  endfacet
  facet normal 0 0.222528 0.974926
    outer loop
      vertex 3.175 17.2419 53.3955
      vertex 0 19.05 52.9828
      vertex 0 17.2419 53.3955
    endloop
  endfacet
  facet normal -0 0.222528 0.974926
    outer loop
      vertex 34.925 19.05 52.9828
      vertex 38.1 17.2419 53.3955
      vertex 38.1 19.05 52.9828
    endloop
  endfacet
  facet normal 0 0.222528 0.974926
    outer loop
      vertex 38.1 17.2419 53.3955
      vertex 34.925 19.05 52.9828
      vertex 34.925 17.2419 53.3955
    endloop
  endfacet
  facet normal 0 -1 0
    outer loop
      vertex 0 23.1127 56.2227
      vertex 3.175 23.1127 58.0773
      vertex 0 23.1127 58.0773
    endloop
  endfacet
  facet normal 0 -1 -0
    outer loop
      vertex 3.175 23.1127 58.0773
      vertex 0 23.1127 56.2227
      vertex 3.175 23.1127 56.2227
    endloop
  endfacet
  facet normal 0 -1 0
    outer loop
      vertex 34.925 23.1127 56.2227
      vertex 38.1 23.1127 58.0773
      vertex 34.925 23.1127 58.0773
    endloop
  endfacet
  facet normal 0 -1 -0
    outer loop
      vertex 38.1 23.1127 58.0773
      vertex 34.925 23.1127 56.2227
      vertex 38.1 23.1127 56.2227
    endloop
  endfacet
  facet normal -0 0.623504 0.78182
    outer loop
      vertex 0 17.2419 53.3955
      vertex 3.175 15.792 54.5518
      vertex 3.175 17.2419 53.3955
    endloop
  endfacet
  facet normal 0 0.623504 0.78182
    outer loop
      vertex 3.175 15.792 54.5518
      vertex 0 17.2419 53.3955
      vertex 0 15.792 54.5518
    endloop
  endfacet
  facet normal -0 0.623504 0.78182
    outer loop
      vertex 34.925 17.2419 53.3955
      vertex 38.1 15.792 54.5518
      vertex 38.1 17.2419 53.3955
    endloop
  endfacet
  facet normal 0 0.623504 0.78182
    outer loop
      vertex 38.1 15.792 54.5518
      vertex 34.925 17.2419 53.3955
      vertex 34.925 15.792 54.5518
    endloop
  endfacet
  facet normal 0 0.900961 -0.4339
    outer loop
      vertex 3.175 14.9873 58.0773
      vertex 0 15.792 59.7482
      vertex 3.175 15.792 59.7482
    endloop
  endfacet
  facet normal 0 0.900961 -0.4339
    outer loop
      vertex 0 15.792 59.7482
      vertex 3.175 14.9873 58.0773
      vertex 0 14.9873 58.0773
    endloop
  endfacet
  facet normal 0 0.900961 -0.4339
    outer loop
      vertex 38.1 14.9873 58.0773
      vertex 34.925 15.792 59.7482
      vertex 38.1 15.792 59.7482
    endloop
  endfacet
  facet normal 0 0.900961 -0.4339
    outer loop
      vertex 34.925 15.792 59.7482
      vertex 38.1 14.9873 58.0773
      vertex 34.925 14.9873 58.0773
    endloop
  endfacet
  facet normal 0 0.623504 -0.78182
    outer loop
      vertex 0 15.792 59.7482
      vertex 3.175 17.2419 60.9045
      vertex 3.175 15.792 59.7482
    endloop
  endfacet
  facet normal 0 0.623504 -0.78182
    outer loop
      vertex 3.175 17.2419 60.9045
      vertex 0 15.792 59.7482
      vertex 0 17.2419 60.9045
    endloop
  endfacet
  facet normal 0 0.623504 -0.78182
    outer loop
      vertex 34.925 15.792 59.7482
      vertex 38.1 17.2419 60.9045
      vertex 38.1 15.792 59.7482
    endloop
  endfacet
  facet normal 0 0.623504 -0.78182
    outer loop
      vertex 38.1 17.2419 60.9045
      vertex 34.925 15.792 59.7482
      vertex 34.925 17.2419 60.9045
    endloop
  endfacet
  facet normal 0 0.222528 -0.974926
    outer loop
      vertex 0 17.2419 60.9045
      vertex 3.175 19.05 61.3172
      vertex 3.175 17.2419 60.9045
    endloop
  endfacet
  facet normal 0 0.222528 -0.974926
    outer loop
      vertex 3.175 19.05 61.3172
      vertex 0 17.2419 60.9045
      vertex 0 19.05 61.3172
    endloop
  endfacet
  facet normal 0 0.222528 -0.974926
    outer loop
      vertex 34.925 17.2419 60.9045
      vertex 38.1 19.05 61.3172
      vertex 38.1 17.2419 60.9045
    endloop
  endfacet
  facet normal 0 0.222528 -0.974926
    outer loop
      vertex 38.1 19.05 61.3172
      vertex 34.925 17.2419 60.9045
      vertex 34.925 19.05 61.3172
    endloop
  endfacet
  facet normal -1 0 0
    outer loop
      vertex 0 22.308 21.6482
      vertex 0 23.1127 56.2227
      vertex 0 23.1127 19.9773
    endloop
  endfacet
  facet normal -1 0 0
    outer loop
      vertex 0 22.308 21.6482
      vertex 0 22.308 54.5518
      vertex 0 23.1127 56.2227
    endloop
  endfacet
  facet normal -1 0 0
    outer loop
      vertex 0 20.8581 22.8045
      vertex 0 22.308 54.5518
      vertex 0 22.308 21.6482
    endloop
  endfacet
  facet normal -1 0 0
    outer loop
      vertex 0 20.8581 22.8045
      vertex 0 20.8581 53.3955
      vertex 0 22.308 54.5518
    endloop
  endfacet
  facet normal -1 0 0
    outer loop
      vertex 0 19.05 23.2172
      vertex 0 20.8581 53.3955
      vertex 0 20.8581 22.8045
    endloop
  endfacet
  facet normal -1 0 0
    outer loop
      vertex 0 19.05 23.2172
      vertex 0 19.05 52.9828
      vertex 0 20.8581 53.3955
    endloop
  endfacet
  facet normal -1 0 0
    outer loop
      vertex 0 17.2419 22.8045
      vertex 0 19.05 52.9828
      vertex 0 19.05 23.2172
    endloop
  endfacet
  facet normal -1 0 0
    outer loop
      vertex 0 17.2419 22.8045
      vertex 0 17.2419 53.3955
      vertex 0 19.05 52.9828
    endloop
  endfacet
  facet normal -1 0 0
    outer loop
      vertex 0 15.792 21.6482
      vertex 0 17.2419 53.3955
      vertex 0 17.2419 22.8045
    endloop
  endfacet
  facet normal -1 0 0
    outer loop
      vertex 0 15.792 21.6482
      vertex 0 15.792 54.5518
      vertex 0 17.2419 53.3955
    endloop
  endfacet
  facet normal -1 0 0
    outer loop
      vertex 0 14.9873 19.9773
      vertex 0 15.792 54.5518
      vertex 0 15.792 21.6482
    endloop
  endfacet
  facet normal -1 -0 0
    outer loop
      vertex 0 15.792 54.5518
      vertex 0 14.9873 19.9773
      vertex 0 14.9873 56.2227
    endloop
  endfacet
  facet normal -1 0 0
    outer loop
      vertex 0 23.1127 19.9773
      vertex 0 38.1 0
      vertex 0 23.1127 18.1227
    endloop
  endfacet
  facet normal -1 0 0
    outer loop
      vertex 0 38.1 0
      vertex 0 22.308 16.4518
      vertex 0 23.1127 18.1227
    endloop
  endfacet
  facet normal -1 0 0
    outer loop
      vertex 0 38.1 0
      vertex 0 20.8581 15.2955
      vertex 0 22.308 16.4518
    endloop
  endfacet
  facet normal -1 0 0
    outer loop
      vertex 0 38.1 0
      vertex 0 19.05 14.8828
      vertex 0 20.8581 15.2955
    endloop
  endfacet
  facet normal -1 0 0
    outer loop
      vertex 0 0 0
      vertex 0 19.05 14.8828
      vertex 0 38.1 0
    endloop
  endfacet
  facet normal -1 0 0
    outer loop
      vertex 0 0 0
      vertex 0 14.9873 19.9773
      vertex 0 14.9873 18.1227
    endloop
  endfacet
  facet normal -1 -0 0
    outer loop
      vertex 0 14.9873 19.9773
      vertex 0 0 0
      vertex 0 14.9873 56.2227
    endloop
  endfacet
  facet normal -1 0 0
    outer loop
      vertex 0 0 76.2
      vertex 0 14.9873 56.2227
      vertex 0 0 0
    endloop
  endfacet
  facet normal -1 -0 0
    outer loop
      vertex 0 15.792 16.4518
      vertex 0 0 0
      vertex 0 14.9873 18.1227
    endloop
  endfacet
  facet normal -1 -0 0
    outer loop
      vertex 0 17.2419 15.2955
      vertex 0 0 0
      vertex 0 15.792 16.4518
    endloop
  endfacet
  facet normal -1 -0 0
    outer loop
      vertex 0 19.05 14.8828
      vertex 0 0 0
      vertex 0 17.2419 15.2955
    endloop
  endfacet
  facet normal -1 0 0
    outer loop
      vertex 0 38.1 0
      vertex 0 23.1127 19.9773
      vertex 0 38.1 76.2
    endloop
  endfacet
  facet normal -1 0 0
    outer loop
      vertex 0 23.1127 56.2227
      vertex 0 38.1 76.2
      vertex 0 23.1127 19.9773
    endloop
  endfacet
  facet normal -1 0 0
    outer loop
      vertex 0 23.1127 58.0773
      vertex 0 38.1 76.2
      vertex 0 23.1127 56.2227
    endloop
  endfacet
  facet normal -1 0 0
    outer loop
      vertex 0 22.308 59.7482
      vertex 0 38.1 76.2
      vertex 0 23.1127 58.0773
    endloop
  endfacet
  facet normal -1 0 0
    outer loop
      vertex 0 20.8581 60.9045
      vertex 0 38.1 76.2
      vertex 0 22.308 59.7482
    endloop
  endfacet
  facet normal -1 0 0
    outer loop
      vertex 0 19.05 61.3172
      vertex 0 38.1 76.2
      vertex 0 20.8581 60.9045
    endloop
  endfacet
  facet normal -1 0 0
    outer loop
      vertex 0 0 76.2
      vertex 0 19.05 61.3172
      vertex 0 17.2419 60.9045
    endloop
  endfacet
  facet normal -1 0 0
    outer loop
      vertex 0 19.05 61.3172
      vertex 0 0 76.2
      vertex 0 38.1 76.2
    endloop
  endfacet
  facet normal -1 0 0
    outer loop
      vertex 0 15.792 59.7482
      vertex 0 0 76.2
      vertex 0 17.2419 60.9045
    endloop
  endfacet
  facet normal -1 0 0
    outer loop
      vertex 0 14.9873 58.0773
      vertex 0 0 76.2
      vertex 0 15.792 59.7482
    endloop
  endfacet
  facet normal -1 0 0
    outer loop
      vertex 0 14.9873 56.2227
      vertex 0 0 76.2
      vertex 0 14.9873 58.0773
    endloop
  endfacet
  facet normal 0 0 1
    outer loop
      vertex 38.1 38.1 76.2
      vertex 34.925 34.925 76.2
      vertex 38.1 0 76.2
    endloop
  endfacet
  facet normal 0 0 1
    outer loop
      vertex 38.1 38.1 76.2
      vertex 3.175 34.925 76.2
      vertex 34.925 34.925 76.2
    endloop
  endfacet
  facet normal 0 0 1
    outer loop
      vertex 3.175 34.925 76.2
      vertex 0 38.1 76.2
      vertex 3.175 3.175 76.2
    endloop
  endfacet
  facet normal -0 0 1
    outer loop
      vertex 0 38.1 76.2
      vertex 3.175 34.925 76.2
      vertex 38.1 38.1 76.2
    endloop
  endfacet
  facet normal -0 0 1
    outer loop
      vertex 34.925 3.175 76.2
      vertex 38.1 0 76.2
      vertex 34.925 34.925 76.2
    endloop
  endfacet
  facet normal -0 0 1
    outer loop
      vertex 3.175 3.175 76.2
      vertex 38.1 0 76.2
      vertex 34.925 3.175 76.2
    endloop
  endfacet
  facet normal 0 0 1
    outer loop
      vertex 3.175 3.175 76.2
      vertex 0 0 76.2
      vertex 38.1 0 76.2
    endloop
  endfacet
  facet normal 0 0 1
    outer loop
      vertex 0 0 76.2
      vertex 3.175 3.175 76.2
      vertex 0 38.1 76.2
    endloop
  endfacet
  facet normal 1 -0 0
    outer loop
      vertex 38.1 22.308 54.5518
      vertex 38.1 23.1127 19.9773
      vertex 38.1 23.1127 56.2227
    endloop
  endfacet
  facet normal 1 0 0
    outer loop
      vertex 38.1 22.308 54.5518
      vertex 38.1 22.308 21.6482
      vertex 38.1 23.1127 19.9773
    endloop
  endfacet
  facet normal 1 -0 0
    outer loop
      vertex 38.1 20.8581 53.3955
      vertex 38.1 22.308 21.6482
      vertex 38.1 22.308 54.5518
    endloop
  endfacet
  facet normal 1 0 0
    outer loop
      vertex 38.1 20.8581 53.3955
      vertex 38.1 20.8581 22.8045
      vertex 38.1 22.308 21.6482
    endloop
  endfacet
  facet normal 1 -0 0
    outer loop
      vertex 38.1 19.05 52.9828
      vertex 38.1 20.8581 22.8045
      vertex 38.1 20.8581 53.3955
    endloop
  endfacet
  facet normal 1 0 0
    outer loop
      vertex 38.1 19.05 52.9828
      vertex 38.1 19.05 23.2172
      vertex 38.1 20.8581 22.8045
    endloop
  endfacet
  facet normal 1 0 0
    outer loop
      vertex 38.1 17.2419 53.3955
      vertex 38.1 19.05 23.2172
      vertex 38.1 19.05 52.9828
    endloop
  endfacet
  facet normal 1 0 0
    outer loop
      vertex 38.1 17.2419 53.3955
      vertex 38.1 17.2419 22.8045
      vertex 38.1 19.05 23.2172
    endloop
  endfacet
  facet normal 1 0 0
    outer loop
      vertex 38.1 15.792 54.5518
      vertex 38.1 17.2419 22.8045
      vertex 38.1 17.2419 53.3955
    endloop
  endfacet
  facet normal 1 0 0
    outer loop
      vertex 38.1 15.792 54.5518
      vertex 38.1 15.792 21.6482
      vertex 38.1 17.2419 22.8045
    endloop
  endfacet
  facet normal 1 0 0
    outer loop
      vertex 38.1 14.9873 56.2227
      vertex 38.1 15.792 21.6482
      vertex 38.1 15.792 54.5518
    endloop
  endfacet
  facet normal 1 0 0
    outer loop
      vertex 38.1 15.792 21.6482
      vertex 38.1 14.9873 56.2227
      vertex 38.1 14.9873 19.9773
    endloop
  endfacet
  facet normal 1 0 0
    outer loop
      vertex 38.1 23.1127 56.2227
      vertex 38.1 38.1 76.2
      vertex 38.1 23.1127 58.0773
    endloop
  endfacet
  facet normal 1 0 0
    outer loop
      vertex 38.1 38.1 76.2
      vertex 38.1 22.308 59.7482
      vertex 38.1 23.1127 58.0773
    endloop
  endfacet
  facet normal 1 0 0
    outer loop
      vertex 38.1 38.1 76.2
      vertex 38.1 20.8581 60.9045
      vertex 38.1 22.308 59.7482
    endloop
  endfacet
  facet normal 1 0 0
    outer loop
      vertex 38.1 38.1 76.2
      vertex 38.1 19.05 61.3172
      vertex 38.1 20.8581 60.9045
    endloop
  endfacet
  facet normal 1 -0 0
    outer loop
      vertex 38.1 0 76.2
      vertex 38.1 19.05 61.3172
      vertex 38.1 38.1 76.2
    endloop
  endfacet
  facet normal 1 0 0
    outer loop
      vertex 38.1 0 76.2
      vertex 38.1 14.9873 56.2227
      vertex 38.1 14.9873 58.0773
    endloop
  endfacet
  facet normal 1 0 0
    outer loop
      vertex 38.1 14.9873 56.2227
      vertex 38.1 0 76.2
      vertex 38.1 14.9873 19.9773
    endloop
  endfacet
  facet normal 1 0 0
    outer loop
      vertex 38.1 0 0
      vertex 38.1 14.9873 19.9773
      vertex 38.1 0 76.2
    endloop
  endfacet
  facet normal 1 0 0
    outer loop
      vertex 38.1 15.792 59.7482
      vertex 38.1 0 76.2
      vertex 38.1 14.9873 58.0773
    endloop
  endfacet
  facet normal 1 0 0
    outer loop
      vertex 38.1 17.2419 60.9045
      vertex 38.1 0 76.2
      vertex 38.1 15.792 59.7482
    endloop
  endfacet
  facet normal 1 0 0
    outer loop
      vertex 38.1 19.05 61.3172
      vertex 38.1 0 76.2
      vertex 38.1 17.2419 60.9045
    endloop
  endfacet
  facet normal 1 0 0
    outer loop
      vertex 38.1 38.1 76.2
      vertex 38.1 23.1127 56.2227
      vertex 38.1 38.1 0
    endloop
  endfacet
  facet normal 1 -0 0
    outer loop
      vertex 38.1 23.1127 19.9773
      vertex 38.1 38.1 0
      vertex 38.1 23.1127 56.2227
    endloop
  endfacet
  facet normal 1 -0 0
    outer loop
      vertex 38.1 23.1127 18.1227
      vertex 38.1 38.1 0
      vertex 38.1 23.1127 19.9773
    endloop
  endfacet
  facet normal 1 -0 0
    outer loop
      vertex 38.1 22.308 16.4518
      vertex 38.1 38.1 0
      vertex 38.1 23.1127 18.1227
    endloop
  endfacet
  facet normal 1 -0 0
    outer loop
      vertex 38.1 20.8581 15.2955
      vertex 38.1 38.1 0
      vertex 38.1 22.308 16.4518
    endloop
  endfacet
  facet normal 1 -0 0
    outer loop
      vertex 38.1 19.05 14.8828
      vertex 38.1 38.1 0
      vertex 38.1 20.8581 15.2955
    endloop
  endfacet
  facet normal 1 0 0
    outer loop
      vertex 38.1 0 0
      vertex 38.1 19.05 14.8828
      vertex 38.1 17.2419 15.2955
    endloop
  endfacet
  facet normal 1 0 0
    outer loop
      vertex 38.1 19.05 14.8828
      vertex 38.1 0 0
      vertex 38.1 38.1 0
    endloop
  endfacet
  facet normal 1 0 0
    outer loop
      vertex 38.1 15.792 16.4518
      vertex 38.1 0 0
      vertex 38.1 17.2419 15.2955
    endloop
  endfacet
  facet normal 1 0 0
    outer loop
      vertex 38.1 14.9873 18.1227
      vertex 38.1 0 0
      vertex 38.1 15.792 16.4518
    endloop
  endfacet
  facet normal 1 0 0
    outer loop
      vertex 38.1 14.9873 19.9773
      vertex 38.1 0 0
      vertex 38.1 14.9873 18.1227
    endloop
  endfacet
  facet normal 0 0 -1
    outer loop
      vertex 38.1 0 0
      vertex 34.925 3.175 0
      vertex 38.1 38.1 0
    endloop
  endfacet
  facet normal 0 0 -1
    outer loop
      vertex 38.1 0 0
      vertex 3.175 3.175 0
      vertex 34.925 3.175 0
    endloop
  endfacet
  facet normal -0 0 -1
    outer loop
      vertex 3.175 3.175 0
      vertex 0 0 0
      vertex 3.175 34.925 0
    endloop
  endfacet
  facet normal 0 0 -1
    outer loop
      vertex 0 0 0
      vertex 3.175 3.175 0
      vertex 38.1 0 0
    endloop
  endfacet
  facet normal 0 0 -1
    outer loop
      vertex 34.925 34.925 0
      vertex 38.1 38.1 0
      vertex 34.925 3.175 0
    endloop
  endfacet
  facet normal 0 0 -1
    outer loop
      vertex 3.175 34.925 0
      vertex 38.1 38.1 0
      vertex 34.925 34.925 0
    endloop
  endfacet
  facet normal 0 0 -1
    outer loop
      vertex 3.175 34.925 0
      vertex 0 38.1 0
      vertex 38.1 38.1 0
    endloop
  endfacet
  facet normal 0 0 -1
    outer loop
      vertex 0 38.1 0
      vertex 3.175 34.925 0
      vertex 0 0 0
    endloop
  endfacet
  facet normal 0 -1 0
    outer loop
      vertex 0 0 76.2
      vertex 18.1227 0 61.2127
      vertex 38.1 0 76.2
    endloop
  endfacet
  facet normal 0 -1 0
    outer loop
      vertex 0 0 76.2
      vertex 16.4518 0 60.408
      vertex 18.1227 0 61.2127
    endloop
  endfacet
  facet normal 0 -1 0
    outer loop
      vertex 0 0 76.2
      vertex 15.2955 0 58.9581
      vertex 16.4518 0 60.408
    endloop
  endfacet
  facet normal 0 -1 0
    outer loop
      vertex 0 0 76.2
      vertex 14.8828 0 57.15
      vertex 15.2955 0 58.9581
    endloop
  endfacet
  facet normal 0 -1 0
    outer loop
      vertex 0 0 76.2
      vertex 15.2955 0 55.3419
      vertex 14.8828 0 57.15
    endloop
  endfacet
  facet normal 0 -1 0
    outer loop
      vertex 18.1227 0 53.0873
      vertex 18.1227 0 23.1127
      vertex 19.9773 0 53.0873
    endloop
  endfacet
  facet normal 0 -1 0
    outer loop
      vertex 16.4518 0 53.892
      vertex 18.1227 0 23.1127
      vertex 18.1227 0 53.0873
    endloop
  endfacet
  facet normal 0 -1 0
    outer loop
      vertex 16.4518 0 22.308
      vertex 16.4518 0 53.892
      vertex 15.2955 0 55.3419
    endloop
  endfacet
  facet normal 0 -1 0
    outer loop
      vertex 15.2955 0 20.8581
      vertex 15.2955 0 55.3419
      vertex 0 0 76.2
    endloop
  endfacet
  facet normal 0 -1 0
    outer loop
      vertex 16.4518 0 53.892
      vertex 16.4518 0 22.308
      vertex 18.1227 0 23.1127
    endloop
  endfacet
  facet normal 0 -1 0
    outer loop
      vertex 15.2955 0 55.3419
      vertex 15.2955 0 20.8581
      vertex 16.4518 0 22.308
    endloop
  endfacet
  facet normal 0 -1 0
    outer loop
      vertex 0 0 0
      vertex 15.2955 0 20.8581
      vertex 0 0 76.2
    endloop
  endfacet
  facet normal 0 -1 0
    outer loop
      vertex 15.2955 0 20.8581
      vertex 0 0 0
      vertex 14.8828 0 19.05
    endloop
  endfacet
  facet normal 0 -1 -0
    outer loop
      vertex 18.1227 0 14.9873
      vertex 0 0 0
      vertex 19.9773 0 14.9873
    endloop
  endfacet
  facet normal 0 -1 -0
    outer loop
      vertex 16.4518 0 15.792
      vertex 0 0 0
      vertex 18.1227 0 14.9873
    endloop
  endfacet
  facet normal 0 -1 -0
    outer loop
      vertex 15.2955 0 17.2419
      vertex 0 0 0
      vertex 16.4518 0 15.792
    endloop
  endfacet
  facet normal 0 -1 -0
    outer loop
      vertex 14.8828 0 19.05
      vertex 0 0 0
      vertex 15.2955 0 17.2419
    endloop
  endfacet
  facet normal 0 -1 0
    outer loop
      vertex 19.9773 0 61.2127
      vertex 38.1 0 76.2
      vertex 18.1227 0 61.2127
    endloop
  endfacet
  facet normal 0 -1 0
    outer loop
      vertex 21.6482 0 60.408
      vertex 38.1 0 76.2
      vertex 19.9773 0 61.2127
    endloop
  endfacet
  facet normal 0 -1 0
    outer loop
      vertex 22.8045 0 58.9581
      vertex 38.1 0 76.2
      vertex 21.6482 0 60.408
    endloop
  endfacet
  facet normal 0 -1 0
    outer loop
      vertex 23.2172 0 57.15
      vertex 38.1 0 76.2
      vertex 22.8045 0 58.9581
    endloop
  endfacet
  facet normal 0 -1 0
    outer loop
      vertex 22.8045 0 55.3419
      vertex 38.1 0 76.2
      vertex 23.2172 0 57.15
    endloop
  endfacet
  facet normal 0 -1 0
    outer loop
      vertex 19.9773 0 23.1127
      vertex 19.9773 0 53.0873
      vertex 18.1227 0 23.1127
    endloop
  endfacet
  facet normal 0 -1 0
    outer loop
      vertex 19.9773 0 53.0873
      vertex 19.9773 0 23.1127
      vertex 21.6482 0 53.892
    endloop
  endfacet
  facet normal 0 -1 0
    outer loop
      vertex 21.6482 0 22.308
      vertex 21.6482 0 53.892
      vertex 19.9773 0 23.1127
    endloop
  endfacet
  facet normal 0 -1 0
    outer loop
      vertex 21.6482 0 53.892
      vertex 21.6482 0 22.308
      vertex 22.8045 0 55.3419
    endloop
  endfacet
  facet normal 0 -1 0
    outer loop
      vertex 22.8045 0 20.8581
      vertex 22.8045 0 55.3419
      vertex 21.6482 0 22.308
    endloop
  endfacet
  facet normal 0 -1 0
    outer loop
      vertex 22.8045 0 55.3419
      vertex 22.8045 0 20.8581
      vertex 38.1 0 76.2
    endloop
  endfacet
  facet normal 0 -1 0
    outer loop
      vertex 38.1 0 0
      vertex 22.8045 0 20.8581
      vertex 23.2172 0 19.05
    endloop
  endfacet
  facet normal 0 -1 0
    outer loop
      vertex 38.1 0 0
      vertex 23.2172 0 19.05
      vertex 22.8045 0 17.2419
    endloop
  endfacet
  facet normal 0 -1 0
    outer loop
      vertex 38.1 0 0
      vertex 19.9773 0 14.9873
      vertex 0 0 0
    endloop
  endfacet
  facet normal 0 -1 0
    outer loop
      vertex 22.8045 0 20.8581
      vertex 38.1 0 0
      vertex 38.1 0 76.2
    endloop
  endfacet
  facet normal 0 -1 0
    outer loop
      vertex 21.6482 0 15.792
      vertex 38.1 0 0
      vertex 22.8045 0 17.2419
    endloop
  endfacet
  facet normal 0 -1 0
    outer loop
      vertex 19.9773 0 14.9873
      vertex 38.1 0 0
      vertex 21.6482 0 15.792
    endloop
  endfacet
  facet normal 0 1 0
    outer loop
      vertex 38.1 38.1 76.2
      vertex 19.9773 38.1 61.2127
      vertex 0 38.1 76.2
    endloop
  endfacet
  facet normal 0 1 0
    outer loop
      vertex 38.1 38.1 76.2
      vertex 21.6482 38.1 60.408
      vertex 19.9773 38.1 61.2127
    endloop
  endfacet
  facet normal 0 1 0
    outer loop
      vertex 38.1 38.1 76.2
      vertex 22.8045 38.1 58.9581
      vertex 21.6482 38.1 60.408
    endloop
  endfacet
  facet normal 0 1 0
    outer loop
      vertex 38.1 38.1 76.2
      vertex 23.2172 38.1 57.15
      vertex 22.8045 38.1 58.9581
    endloop
  endfacet
  facet normal 0 1 0
    outer loop
      vertex 38.1 38.1 76.2
      vertex 22.8045 38.1 55.3419
      vertex 23.2172 38.1 57.15
    endloop
  endfacet
  facet normal 0 1 0
    outer loop
      vertex 19.9773 38.1 53.0873
      vertex 19.9773 38.1 23.1127
      vertex 18.1227 38.1 53.0873
    endloop
  endfacet
  facet normal 0 1 0
    outer loop
      vertex 21.6482 38.1 53.892
      vertex 19.9773 38.1 23.1127
      vertex 19.9773 38.1 53.0873
    endloop
  endfacet
  facet normal 0 1 0
    outer loop
      vertex 21.6482 38.1 22.308
      vertex 21.6482 38.1 53.892
      vertex 22.8045 38.1 55.3419
    endloop
  endfacet
  facet normal 0 1 0
    outer loop
      vertex 22.8045 38.1 20.8581
      vertex 22.8045 38.1 55.3419
      vertex 38.1 38.1 76.2
    endloop
  endfacet
  facet normal 0 1 0
    outer loop
      vertex 21.6482 38.1 53.892
      vertex 21.6482 38.1 22.308
      vertex 19.9773 38.1 23.1127
    endloop
  endfacet
  facet normal 0 1 0
    outer loop
      vertex 22.8045 38.1 55.3419
      vertex 22.8045 38.1 20.8581
      vertex 21.6482 38.1 22.308
    endloop
  endfacet
  facet normal 0 1 -0
    outer loop
      vertex 38.1 38.1 0
      vertex 22.8045 38.1 20.8581
      vertex 38.1 38.1 76.2
    endloop
  endfacet
  facet normal 0 1 0
    outer loop
      vertex 22.8045 38.1 20.8581
      vertex 38.1 38.1 0
      vertex 23.2172 38.1 19.05
    endloop
  endfacet
  facet normal 0 1 0
    outer loop
      vertex 19.9773 38.1 14.9873
      vertex 38.1 38.1 0
      vertex 18.1227 38.1 14.9873
    endloop
  endfacet
  facet normal 0 1 0
    outer loop
      vertex 21.6482 38.1 15.792
      vertex 38.1 38.1 0
      vertex 19.9773 38.1 14.9873
    endloop
  endfacet
  facet normal 0 1 0
    outer loop
      vertex 22.8045 38.1 17.2419
      vertex 38.1 38.1 0
      vertex 21.6482 38.1 15.792
    endloop
  endfacet
  facet normal 0 1 0
    outer loop
      vertex 23.2172 38.1 19.05
      vertex 38.1 38.1 0
      vertex 22.8045 38.1 17.2419
    endloop
  endfacet
  facet normal 0 1 -0
    outer loop
      vertex 18.1227 38.1 61.2127
      vertex 0 38.1 76.2
      vertex 19.9773 38.1 61.2127
    endloop
  endfacet
  facet normal 0 1 -0
    outer loop
      vertex 16.4518 38.1 60.408
      vertex 0 38.1 76.2
      vertex 18.1227 38.1 61.2127
    endloop
  endfacet
  facet normal 0 1 -0
    outer loop
      vertex 15.2955 38.1 58.9581
      vertex 0 38.1 76.2
      vertex 16.4518 38.1 60.408
    endloop
  endfacet
  facet normal 0 1 -0
    outer loop
      vertex 14.8828 38.1 57.15
      vertex 0 38.1 76.2
      vertex 15.2955 38.1 58.9581
    endloop
  endfacet
  facet normal 0 1 0
    outer loop
      vertex 15.2955 38.1 55.3419
      vertex 0 38.1 76.2
      vertex 14.8828 38.1 57.15
    endloop
  endfacet
  facet normal 0 1 0
    outer loop
      vertex 18.1227 38.1 23.1127
      vertex 18.1227 38.1 53.0873
      vertex 19.9773 38.1 23.1127
    endloop
  endfacet
  facet normal 0 1 0
    outer loop
      vertex 18.1227 38.1 53.0873
      vertex 18.1227 38.1 23.1127
      vertex 16.4518 38.1 53.892
    endloop
  endfacet
  facet normal 0 1 0
    outer loop
      vertex 16.4518 38.1 22.308
      vertex 16.4518 38.1 53.892
      vertex 18.1227 38.1 23.1127
    endloop
  endfacet
  facet normal 0 1 0
    outer loop
      vertex 16.4518 38.1 53.892
      vertex 16.4518 38.1 22.308
      vertex 15.2955 38.1 55.3419
    endloop
  endfacet
  facet normal 0 1 0
    outer loop
      vertex 15.2955 38.1 20.8581
      vertex 15.2955 38.1 55.3419
      vertex 16.4518 38.1 22.308
    endloop
  endfacet
  facet normal 0 1 0
    outer loop
      vertex 15.2955 38.1 55.3419
      vertex 15.2955 38.1 20.8581
      vertex 0 38.1 76.2
    endloop
  endfacet
  facet normal 0 1 0
    outer loop
      vertex 0 38.1 0
      vertex 15.2955 38.1 20.8581
      vertex 14.8828 38.1 19.05
    endloop
  endfacet
  facet normal 0 1 0
    outer loop
      vertex 0 38.1 0
      vertex 14.8828 38.1 19.05
      vertex 15.2955 38.1 17.2419
    endloop
  endfacet
  facet normal 0 1 0
    outer loop
      vertex 0 38.1 0
      vertex 18.1227 38.1 14.9873
      vertex 38.1 38.1 0
    endloop
  endfacet
  facet normal 0 1 0
    outer loop
      vertex 15.2955 38.1 20.8581
      vertex 0 38.1 0
      vertex 0 38.1 76.2
    endloop
  endfacet
  facet normal 0 1 0
    outer loop
      vertex 16.4518 38.1 15.792
      vertex 0 38.1 0
      vertex 15.2955 38.1 17.2419
    endloop
  endfacet
  facet normal 0 1 0
    outer loop
      vertex 18.1227 38.1 14.9873
      vertex 0 38.1 0
      vertex 16.4518 38.1 15.792
    endloop
  endfacet
  facet normal 1 -0 0
    outer loop
      vertex 3.175 22.308 54.5518
      vertex 3.175 23.1127 19.9773
      vertex 3.175 23.1127 56.2227
    endloop
  endfacet
  facet normal 1 0 0
    outer loop
      vertex 3.175 22.308 54.5518
      vertex 3.175 22.308 21.6482
      vertex 3.175 23.1127 19.9773
    endloop
  endfacet
  facet normal 1 -0 0
    outer loop
      vertex 3.175 20.8581 53.3955
      vertex 3.175 22.308 21.6482
      vertex 3.175 22.308 54.5518
    endloop
  endfacet
  facet normal 1 0 0
    outer loop
      vertex 3.175 20.8581 53.3955
      vertex 3.175 20.8581 22.8045
      vertex 3.175 22.308 21.6482
    endloop
  endfacet
  facet normal 1 -0 0
    outer loop
      vertex 3.175 19.05 52.9828
      vertex 3.175 20.8581 22.8045
      vertex 3.175 20.8581 53.3955
    endloop
  endfacet
  facet normal 1 0 0
    outer loop
      vertex 3.175 19.05 52.9828
      vertex 3.175 19.05 23.2172
      vertex 3.175 20.8581 22.8045
    endloop
  endfacet
  facet normal 1 0 0
    outer loop
      vertex 3.175 17.2419 53.3955
      vertex 3.175 19.05 23.2172
      vertex 3.175 19.05 52.9828
    endloop
  endfacet
  facet normal 1 0 0
    outer loop
      vertex 3.175 17.2419 53.3955
      vertex 3.175 17.2419 22.8045
      vertex 3.175 19.05 23.2172
    endloop
  endfacet
  facet normal 1 0 0
    outer loop
      vertex 3.175 15.792 54.5518
      vertex 3.175 17.2419 22.8045
      vertex 3.175 17.2419 53.3955
    endloop
  endfacet
  facet normal 1 0 0
    outer loop
      vertex 3.175 15.792 54.5518
      vertex 3.175 15.792 21.6482
      vertex 3.175 17.2419 22.8045
    endloop
  endfacet
  facet normal 1 0 0
    outer loop
      vertex 3.175 14.9873 56.2227
      vertex 3.175 15.792 21.6482
      vertex 3.175 15.792 54.5518
    endloop
  endfacet
  facet normal 1 0 0
    outer loop
      vertex 3.175 15.792 21.6482
      vertex 3.175 14.9873 56.2227
      vertex 3.175 14.9873 19.9773
    endloop
  endfacet
  facet normal 1 0 0
    outer loop
      vertex 3.175 23.1127 56.2227
      vertex 3.175 34.925 76.2
      vertex 3.175 23.1127 58.0773
    endloop
  endfacet
  facet normal 1 0 0
    outer loop
      vertex 3.175 34.925 76.2
      vertex 3.175 22.308 59.7482
      vertex 3.175 23.1127 58.0773
    endloop
  endfacet
  facet normal 1 0 0
    outer loop
      vertex 3.175 34.925 76.2
      vertex 3.175 20.8581 60.9045
      vertex 3.175 22.308 59.7482
    endloop
  endfacet
  facet normal 1 0 0
    outer loop
      vertex 3.175 34.925 76.2
      vertex 3.175 19.05 61.3172
      vertex 3.175 20.8581 60.9045
    endloop
  endfacet
  facet normal 1 -0 0
    outer loop
      vertex 3.175 3.175 76.2
      vertex 3.175 19.05 61.3172
      vertex 3.175 34.925 76.2
    endloop
  endfacet
  facet normal 1 0 0
    outer loop
      vertex 3.175 19.05 61.3172
      vertex 3.175 3.175 76.2
      vertex 3.175 17.2419 60.9045
    endloop
  endfacet
  facet normal 1 0 0
    outer loop
      vertex 3.175 3.175 76.2
      vertex 3.175 14.9873 56.2227
      vertex 3.175 14.9873 58.0773
    endloop
  endfacet
  facet normal 1 0 0
    outer loop
      vertex 3.175 14.9873 56.2227
      vertex 3.175 3.175 76.2
      vertex 3.175 14.9873 19.9773
    endloop
  endfacet
  facet normal 1 0 0
    outer loop
      vertex 3.175 3.175 0
      vertex 3.175 14.9873 19.9773
      vertex 3.175 3.175 76.2
    endloop
  endfacet
  facet normal 1 0 0
    outer loop
      vertex 3.175 15.792 59.7482
      vertex 3.175 3.175 76.2
      vertex 3.175 14.9873 58.0773
    endloop
  endfacet
  facet normal 1 0 0
    outer loop
      vertex 3.175 17.2419 60.9045
      vertex 3.175 3.175 76.2
      vertex 3.175 15.792 59.7482
    endloop
  endfacet
  facet normal 1 0 0
    outer loop
      vertex 3.175 34.925 76.2
      vertex 3.175 23.1127 56.2227
      vertex 3.175 34.925 0
    endloop
  endfacet
  facet normal 1 -0 0
    outer loop
      vertex 3.175 23.1127 19.9773
      vertex 3.175 34.925 0
      vertex 3.175 23.1127 56.2227
    endloop
  endfacet
  facet normal 1 -0 0
    outer loop
      vertex 3.175 23.1127 18.1227
      vertex 3.175 34.925 0
      vertex 3.175 23.1127 19.9773
    endloop
  endfacet
  facet normal 1 -0 0
    outer loop
      vertex 3.175 22.308 16.4518
      vertex 3.175 34.925 0
      vertex 3.175 23.1127 18.1227
    endloop
  endfacet
  facet normal 1 -0 0
    outer loop
      vertex 3.175 20.8581 15.2955
      vertex 3.175 34.925 0
      vertex 3.175 22.308 16.4518
    endloop
  endfacet
  facet normal 1 -0 0
    outer loop
      vertex 3.175 19.05 14.8828
      vertex 3.175 34.925 0
      vertex 3.175 20.8581 15.2955
    endloop
  endfacet
  facet normal 1 0 0
    outer loop
      vertex 3.175 3.175 0
      vertex 3.175 19.05 14.8828
      vertex 3.175 17.2419 15.2955
    endloop
  endfacet
  facet normal 1 0 0
    outer loop
      vertex 3.175 3.175 0
      vertex 3.175 17.2419 15.2955
      vertex 3.175 15.792 16.4518
    endloop
  endfacet
  facet normal 1 0 0
    outer loop
      vertex 3.175 19.05 14.8828
      vertex 3.175 3.175 0
      vertex 3.175 34.925 0
    endloop
  endfacet
  facet normal 1 0 0
    outer loop
      vertex 3.175 14.9873 18.1227
      vertex 3.175 3.175 0
      vertex 3.175 15.792 16.4518
    endloop
  endfacet
  facet normal 1 0 0
    outer loop
      vertex 3.175 14.9873 19.9773
      vertex 3.175 3.175 0
      vertex 3.175 14.9873 18.1227
    endloop
  endfacet
  facet normal -1 0 0
    outer loop
      vertex 34.925 22.308 21.6482
      vertex 34.925 23.1127 56.2227
      vertex 34.925 23.1127 19.9773
    endloop
  endfacet
  facet normal -1 0 0
    outer loop
      vertex 34.925 22.308 21.6482
      vertex 34.925 22.308 54.5518
      vertex 34.925 23.1127 56.2227
    endloop
  endfacet
  facet normal -1 0 0
    outer loop
      vertex 34.925 20.8581 22.8045
      vertex 34.925 22.308 54.5518
      vertex 34.925 22.308 21.6482
    endloop
  endfacet
  facet normal -1 0 0
    outer loop
      vertex 34.925 20.8581 22.8045
      vertex 34.925 20.8581 53.3955
      vertex 34.925 22.308 54.5518
    endloop
  endfacet
  facet normal -1 0 0
    outer loop
      vertex 34.925 19.05 23.2172
      vertex 34.925 20.8581 53.3955
      vertex 34.925 20.8581 22.8045
    endloop
  endfacet
  facet normal -1 0 0
    outer loop
      vertex 34.925 19.05 23.2172
      vertex 34.925 19.05 52.9828
      vertex 34.925 20.8581 53.3955
    endloop
  endfacet
  facet normal -1 0 0
    outer loop
      vertex 34.925 17.2419 22.8045
      vertex 34.925 19.05 52.9828
      vertex 34.925 19.05 23.2172
    endloop
  endfacet
  facet normal -1 0 0
    outer loop
      vertex 34.925 17.2419 22.8045
      vertex 34.925 17.2419 53.3955
      vertex 34.925 19.05 52.9828
    endloop
  endfacet
  facet normal -1 0 0
    outer loop
      vertex 34.925 15.792 21.6482
      vertex 34.925 17.2419 53.3955
      vertex 34.925 17.2419 22.8045
    endloop
  endfacet
  facet normal -1 0 0
    outer loop
      vertex 34.925 15.792 21.6482
      vertex 34.925 15.792 54.5518
      vertex 34.925 17.2419 53.3955
    endloop
  endfacet
  facet normal -1 0 0
    outer loop
      vertex 34.925 14.9873 19.9773
      vertex 34.925 15.792 54.5518
      vertex 34.925 15.792 21.6482
    endloop
  endfacet
  facet normal -1 -0 0
    outer loop
      vertex 34.925 15.792 54.5518
      vertex 34.925 14.9873 19.9773
      vertex 34.925 14.9873 56.2227
    endloop
  endfacet
  facet normal -1 0 0
    outer loop
      vertex 34.925 23.1127 19.9773
      vertex 34.925 34.925 0
      vertex 34.925 23.1127 18.1227
    endloop
  endfacet
  facet normal -1 0 0
    outer loop
      vertex 34.925 34.925 0
      vertex 34.925 22.308 16.4518
      vertex 34.925 23.1127 18.1227
    endloop
  endfacet
  facet normal -1 0 0
    outer loop
      vertex 34.925 34.925 0
      vertex 34.925 20.8581 15.2955
      vertex 34.925 22.308 16.4518
    endloop
  endfacet
  facet normal -1 0 0
    outer loop
      vertex 34.925 34.925 0
      vertex 34.925 19.05 14.8828
      vertex 34.925 20.8581 15.2955
    endloop
  endfacet
  facet normal -1 0 0
    outer loop
      vertex 34.925 3.175 0
      vertex 34.925 19.05 14.8828
      vertex 34.925 34.925 0
    endloop
  endfacet
  facet normal -1 -0 0
    outer loop
      vertex 34.925 19.05 14.8828
      vertex 34.925 3.175 0
      vertex 34.925 17.2419 15.2955
    endloop
  endfacet
  facet normal -1 0 0
    outer loop
      vertex 34.925 3.175 0
      vertex 34.925 14.9873 19.9773
      vertex 34.925 14.9873 18.1227
    endloop
  endfacet
  facet normal -1 -0 0
    outer loop
      vertex 34.925 14.9873 19.9773
      vertex 34.925 3.175 0
      vertex 34.925 14.9873 56.2227
    endloop
  endfacet
  facet normal -1 0 0
    outer loop
      vertex 34.925 3.175 76.2
      vertex 34.925 14.9873 56.2227
      vertex 34.925 3.175 0
    endloop
  endfacet
  facet normal -1 -0 0
    outer loop
      vertex 34.925 15.792 16.4518
      vertex 34.925 3.175 0
      vertex 34.925 14.9873 18.1227
    endloop
  endfacet
  facet normal -1 -0 0
    outer loop
      vertex 34.925 17.2419 15.2955
      vertex 34.925 3.175 0
      vertex 34.925 15.792 16.4518
    endloop
  endfacet
  facet normal -1 0 0
    outer loop
      vertex 34.925 34.925 0
      vertex 34.925 23.1127 19.9773
      vertex 34.925 34.925 76.2
    endloop
  endfacet
  facet normal -1 0 0
    outer loop
      vertex 34.925 23.1127 56.2227
      vertex 34.925 34.925 76.2
      vertex 34.925 23.1127 19.9773
    endloop
  endfacet
  facet normal -1 0 0
    outer loop
      vertex 34.925 23.1127 58.0773
      vertex 34.925 34.925 76.2
      vertex 34.925 23.1127 56.2227
    endloop
  endfacet
  facet normal -1 0 0
    outer loop
      vertex 34.925 22.308 59.7482
      vertex 34.925 34.925 76.2
      vertex 34.925 23.1127 58.0773
    endloop
  endfacet
  facet normal -1 0 0
    outer loop
      vertex 34.925 20.8581 60.9045
      vertex 34.925 34.925 76.2
      vertex 34.925 22.308 59.7482
    endloop
  endfacet
  facet normal -1 0 0
    outer loop
      vertex 34.925 19.05 61.3172
      vertex 34.925 34.925 76.2
      vertex 34.925 20.8581 60.9045
    endloop
  endfacet
  facet normal -1 0 0
    outer loop
      vertex 34.925 3.175 76.2
      vertex 34.925 19.05 61.3172
      vertex 34.925 17.2419 60.9045
    endloop
  endfacet
  facet normal -1 0 0
    outer loop
      vertex 34.925 3.175 76.2
      vertex 34.925 17.2419 60.9045
      vertex 34.925 15.792 59.7482
    endloop
  endfacet
  facet normal -1 0 0
    outer loop
      vertex 34.925 19.05 61.3172
      vertex 34.925 3.175 76.2
      vertex 34.925 34.925 76.2
    endloop
  endfacet
  facet normal -1 0 0
    outer loop
      vertex 34.925 14.9873 58.0773
      vertex 34.925 3.175 76.2
      vertex 34.925 15.792 59.7482
    endloop
  endfacet
  facet normal -1 0 0
    outer loop
      vertex 34.925 14.9873 56.2227
      vertex 34.925 3.175 76.2
      vertex 34.925 14.9873 58.0773
    endloop
  endfacet
  facet normal 0 -1 0
    outer loop
      vertex 3.175 34.925 76.2
      vertex 18.1227 34.925 61.2127
      vertex 34.925 34.925 76.2
    endloop
  endfacet
  facet normal 0 -1 0
    outer loop
      vertex 3.175 34.925 76.2
      vertex 16.4518 34.925 60.408
      vertex 18.1227 34.925 61.2127
    endloop
  endfacet
  facet normal 0 -1 0
    outer loop
      vertex 3.175 34.925 76.2
      vertex 15.2955 34.925 58.9581
      vertex 16.4518 34.925 60.408
    endloop
  endfacet
  facet normal 0 -1 0
    outer loop
      vertex 3.175 34.925 76.2
      vertex 14.8828 34.925 57.15
      vertex 15.2955 34.925 58.9581
    endloop
  endfacet
  facet normal 0 -1 0
    outer loop
      vertex 3.175 34.925 76.2
      vertex 15.2955 34.925 55.3419
      vertex 14.8828 34.925 57.15
    endloop
  endfacet
  facet normal 0 -1 0
    outer loop
      vertex 18.1227 34.925 53.0873
      vertex 18.1227 34.925 23.1127
      vertex 19.9773 34.925 53.0873
    endloop
  endfacet
  facet normal 0 -1 0
    outer loop
      vertex 16.4518 34.925 53.892
      vertex 18.1227 34.925 23.1127
      vertex 18.1227 34.925 53.0873
    endloop
  endfacet
  facet normal 0 -1 0
    outer loop
      vertex 16.4518 34.925 22.308
      vertex 16.4518 34.925 53.892
      vertex 15.2955 34.925 55.3419
    endloop
  endfacet
  facet normal 0 -1 0
    outer loop
      vertex 15.2955 34.925 20.8581
      vertex 15.2955 34.925 55.3419
      vertex 3.175 34.925 76.2
    endloop
  endfacet
  facet normal 0 -1 0
    outer loop
      vertex 16.4518 34.925 53.892
      vertex 16.4518 34.925 22.308
      vertex 18.1227 34.925 23.1127
    endloop
  endfacet
  facet normal 0 -1 0
    outer loop
      vertex 15.2955 34.925 55.3419
      vertex 15.2955 34.925 20.8581
      vertex 16.4518 34.925 22.308
    endloop
  endfacet
  facet normal 0 -1 0
    outer loop
      vertex 3.175 34.925 0
      vertex 15.2955 34.925 20.8581
      vertex 3.175 34.925 76.2
    endloop
  endfacet
  facet normal 0 -1 -0
    outer loop
      vertex 18.1227 34.925 14.9873
      vertex 3.175 34.925 0
      vertex 19.9773 34.925 14.9873
    endloop
  endfacet
  facet normal 0 -1 -0
    outer loop
      vertex 16.4518 34.925 15.792
      vertex 3.175 34.925 0
      vertex 18.1227 34.925 14.9873
    endloop
  endfacet
  facet normal 0 -1 -0
    outer loop
      vertex 15.2955 34.925 17.2419
      vertex 3.175 34.925 0
      vertex 16.4518 34.925 15.792
    endloop
  endfacet
  facet normal 0 -1 -0
    outer loop
      vertex 14.8828 34.925 19.05
      vertex 3.175 34.925 0
      vertex 15.2955 34.925 17.2419
    endloop
  endfacet
  facet normal 0 -1 0
    outer loop
      vertex 15.2955 34.925 20.8581
      vertex 3.175 34.925 0
      vertex 14.8828 34.925 19.05
    endloop
  endfacet
  facet normal 0 -1 0
    outer loop
      vertex 19.9773 34.925 61.2127
      vertex 34.925 34.925 76.2
      vertex 18.1227 34.925 61.2127
    endloop
  endfacet
  facet normal 0 -1 0
    outer loop
      vertex 21.6482 34.925 60.408
      vertex 34.925 34.925 76.2
      vertex 19.9773 34.925 61.2127
    endloop
  endfacet
  facet normal 0 -1 0
    outer loop
      vertex 22.8045 34.925 58.9581
      vertex 34.925 34.925 76.2
      vertex 21.6482 34.925 60.408
    endloop
  endfacet
  facet normal 0 -1 0
    outer loop
      vertex 23.2172 34.925 57.15
      vertex 34.925 34.925 76.2
      vertex 22.8045 34.925 58.9581
    endloop
  endfacet
  facet normal 0 -1 0
    outer loop
      vertex 22.8045 34.925 55.3419
      vertex 34.925 34.925 76.2
      vertex 23.2172 34.925 57.15
    endloop
  endfacet
  facet normal 0 -1 0
    outer loop
      vertex 19.9773 34.925 23.1127
      vertex 19.9773 34.925 53.0873
      vertex 18.1227 34.925 23.1127
    endloop
  endfacet
  facet normal 0 -1 0
    outer loop
      vertex 19.9773 34.925 53.0873
      vertex 19.9773 34.925 23.1127
      vertex 21.6482 34.925 53.892
    endloop
  endfacet
  facet normal 0 -1 0
    outer loop
      vertex 21.6482 34.925 22.308
      vertex 21.6482 34.925 53.892
      vertex 19.9773 34.925 23.1127
    endloop
  endfacet
  facet normal 0 -1 0
    outer loop
      vertex 21.6482 34.925 53.892
      vertex 21.6482 34.925 22.308
      vertex 22.8045 34.925 55.3419
    endloop
  endfacet
  facet normal 0 -1 0
    outer loop
      vertex 22.8045 34.925 20.8581
      vertex 22.8045 34.925 55.3419
      vertex 21.6482 34.925 22.308
    endloop
  endfacet
  facet normal 0 -1 0
    outer loop
      vertex 22.8045 34.925 55.3419
      vertex 22.8045 34.925 20.8581
      vertex 34.925 34.925 76.2
    endloop
  endfacet
  facet normal 0 -1 0
    outer loop
      vertex 34.925 34.925 0
      vertex 22.8045 34.925 20.8581
      vertex 23.2172 34.925 19.05
    endloop
  endfacet
  facet normal 0 -1 0
    outer loop
      vertex 34.925 34.925 0
      vertex 19.9773 34.925 14.9873
      vertex 3.175 34.925 0
    endloop
  endfacet
  facet normal 0 -1 0
    outer loop
      vertex 22.8045 34.925 20.8581
      vertex 34.925 34.925 0
      vertex 34.925 34.925 76.2
    endloop
  endfacet
  facet normal 0 -1 0
    outer loop
      vertex 22.8045 34.925 17.2419
      vertex 34.925 34.925 0
      vertex 23.2172 34.925 19.05
    endloop
  endfacet
  facet normal 0 -1 0
    outer loop
      vertex 21.6482 34.925 15.792
      vertex 34.925 34.925 0
      vertex 22.8045 34.925 17.2419
    endloop
  endfacet
  facet normal 0 -1 0
    outer loop
      vertex 19.9773 34.925 14.9873
      vertex 34.925 34.925 0
      vertex 21.6482 34.925 15.792
    endloop
  endfacet
  facet normal 0 1 0
    outer loop
      vertex 34.925 3.175 76.2
      vertex 19.9773 3.175 61.2127
      vertex 3.175 3.175 76.2
    endloop
  endfacet
  facet normal 0 1 0
    outer loop
      vertex 34.925 3.175 76.2
      vertex 21.6482 3.175 60.408
      vertex 19.9773 3.175 61.2127
    endloop
  endfacet
  facet normal 0 1 0
    outer loop
      vertex 34.925 3.175 76.2
      vertex 22.8045 3.175 58.9581
      vertex 21.6482 3.175 60.408
    endloop
  endfacet
  facet normal 0 1 0
    outer loop
      vertex 34.925 3.175 76.2
      vertex 23.2172 3.175 57.15
      vertex 22.8045 3.175 58.9581
    endloop
  endfacet
  facet normal 0 1 0
    outer loop
      vertex 34.925 3.175 76.2
      vertex 22.8045 3.175 55.3419
      vertex 23.2172 3.175 57.15
    endloop
  endfacet
  facet normal 0 1 0
    outer loop
      vertex 19.9773 3.175 53.0873
      vertex 19.9773 3.175 23.1127
      vertex 18.1227 3.175 53.0873
    endloop
  endfacet
  facet normal 0 1 0
    outer loop
      vertex 21.6482 3.175 53.892
      vertex 19.9773 3.175 23.1127
      vertex 19.9773 3.175 53.0873
    endloop
  endfacet
  facet normal 0 1 0
    outer loop
      vertex 21.6482 3.175 22.308
      vertex 21.6482 3.175 53.892
      vertex 22.8045 3.175 55.3419
    endloop
  endfacet
  facet normal 0 1 0
    outer loop
      vertex 22.8045 3.175 20.8581
      vertex 22.8045 3.175 55.3419
      vertex 34.925 3.175 76.2
    endloop
  endfacet
  facet normal 0 1 0
    outer loop
      vertex 21.6482 3.175 53.892
      vertex 21.6482 3.175 22.308
      vertex 19.9773 3.175 23.1127
    endloop
  endfacet
  facet normal 0 1 0
    outer loop
      vertex 22.8045 3.175 55.3419
      vertex 22.8045 3.175 20.8581
      vertex 21.6482 3.175 22.308
    endloop
  endfacet
  facet normal 0 1 -0
    outer loop
      vertex 34.925 3.175 0
      vertex 22.8045 3.175 20.8581
      vertex 34.925 3.175 76.2
    endloop
  endfacet
  facet normal 0 1 0
    outer loop
      vertex 19.9773 3.175 14.9873
      vertex 34.925 3.175 0
      vertex 18.1227 3.175 14.9873
    endloop
  endfacet
  facet normal 0 1 0
    outer loop
      vertex 21.6482 3.175 15.792
      vertex 34.925 3.175 0
      vertex 19.9773 3.175 14.9873
    endloop
  endfacet
  facet normal 0 1 0
    outer loop
      vertex 22.8045 3.175 17.2419
      vertex 34.925 3.175 0
      vertex 21.6482 3.175 15.792
    endloop
  endfacet
  facet normal 0 1 0
    outer loop
      vertex 23.2172 3.175 19.05
      vertex 34.925 3.175 0
      vertex 22.8045 3.175 17.2419
    endloop
  endfacet
  facet normal 0 1 0
    outer loop
      vertex 22.8045 3.175 20.8581
      vertex 34.925 3.175 0
      vertex 23.2172 3.175 19.05
    endloop
  endfacet
  facet normal 0 1 -0
    outer loop
      vertex 18.1227 3.175 61.2127
      vertex 3.175 3.175 76.2
      vertex 19.9773 3.175 61.2127
    endloop
  endfacet
  facet normal 0 1 -0
    outer loop
      vertex 16.4518 3.175 60.408
      vertex 3.175 3.175 76.2
      vertex 18.1227 3.175 61.2127
    endloop
  endfacet
  facet normal 0 1 -0
    outer loop
      vertex 15.2955 3.175 58.9581
      vertex 3.175 3.175 76.2
      vertex 16.4518 3.175 60.408
    endloop
  endfacet
  facet normal 0 1 -0
    outer loop
      vertex 14.8828 3.175 57.15
      vertex 3.175 3.175 76.2
      vertex 15.2955 3.175 58.9581
    endloop
  endfacet
  facet normal 0 1 0
    outer loop
      vertex 15.2955 3.175 55.3419
      vertex 3.175 3.175 76.2
      vertex 14.8828 3.175 57.15
    endloop
  endfacet
  facet normal 0 1 0
    outer loop
      vertex 18.1227 3.175 23.1127
      vertex 18.1227 3.175 53.0873
      vertex 19.9773 3.175 23.1127
    endloop
  endfacet
  facet normal 0 1 0
    outer loop
      vertex 18.1227 3.175 53.0873
      vertex 18.1227 3.175 23.1127
      vertex 16.4518 3.175 53.892
    endloop
  endfacet
  facet normal 0 1 0
    outer loop
      vertex 16.4518 3.175 22.308
      vertex 16.4518 3.175 53.892
      vertex 18.1227 3.175 23.1127
    endloop
  endfacet
  facet normal 0 1 0
    outer loop
      vertex 16.4518 3.175 53.892
      vertex 16.4518 3.175 22.308
      vertex 15.2955 3.175 55.3419
    endloop
  endfacet
  facet normal 0 1 0
    outer loop
      vertex 15.2955 3.175 20.8581
      vertex 15.2955 3.175 55.3419
      vertex 16.4518 3.175 22.308
    endloop
  endfacet
  facet normal 0 1 0
    outer loop
      vertex 15.2955 3.175 55.3419
      vertex 15.2955 3.175 20.8581
      vertex 3.175 3.175 76.2
    endloop
  endfacet
  facet normal 0 1 0
    outer loop
      vertex 3.175 3.175 0
      vertex 15.2955 3.175 20.8581
      vertex 14.8828 3.175 19.05
    endloop
  endfacet
  facet normal 0 1 0
    outer loop
      vertex 3.175 3.175 0
      vertex 18.1227 3.175 14.9873
      vertex 34.925 3.175 0
    endloop
  endfacet
  facet normal 0 1 0
    outer loop
      vertex 15.2955 3.175 20.8581
      vertex 3.175 3.175 0
      vertex 3.175 3.175 76.2
    endloop
  endfacet
  facet normal 0 1 0
    outer loop
      vertex 15.2955 3.175 17.2419
      vertex 3.175 3.175 0
      vertex 14.8828 3.175 19.05
    endloop
  endfacet
  facet normal 0 1 0
    outer loop
      vertex 16.4518 3.175 15.792
      vertex 3.175 3.175 0
      vertex 15.2955 3.175 17.2419
    endloop
  endfacet
  facet normal 0 1 0
    outer loop
      vertex 18.1227 3.175 14.9873
      vertex 3.175 3.175 0
      vertex 16.4518 3.175 15.792
    endloop
  endfacet
endsolid OpenSCAD_Model
