solid OpenSCAD_Model
  facet normal 0.994521 0.104536 0
    outer loop
      vertex 41.275 19.05 100
      vertex 40.7893 23.6708 0
      vertex 40.7893 23.6708 100
    endloop
  endfacet
  facet normal 0.994521 0.104536 0
    outer loop
      vertex 40.7893 23.6708 0
      vertex 41.275 19.05 100
      vertex 41.275 19.05 0
    endloop
  endfacet
  facet normal -0.994522 0.104529 0
    outer loop
      vertex -3.175 19.05 0
      vertex -2.68933 23.6708 100
      vertex -2.68933 23.6708 0
    endloop
  endfacet
  facet normal -0.994522 0.104529 0
    outer loop
      vertex -2.68933 23.6708 100
      vertex -3.175 19.05 0
      vertex -3.175 19.05 100
    endloop
  endfacet
  facet normal 0 1 -0
    outer loop
      vertex 21.3731 41.1532 0
      vertex 16.7269 41.1532 100
      vertex 21.3731 41.1532 100
    endloop
  endfacet
  facet normal 0 1 0
    outer loop
      vertex 16.7269 41.1532 100
      vertex 21.3731 41.1532 0
      vertex 16.7269 41.1532 0
    endloop
  endfacet
  facet normal 0 -1 0
    outer loop
      vertex 16.7269 -3.05325 0
      vertex 21.3731 -3.05325 100
      vertex 16.7269 -3.05325 100
    endloop
  endfacet
  facet normal 0 -1 -0
    outer loop
      vertex 21.3731 -3.05325 100
      vertex 16.7269 -3.05325 0
      vertex 21.3731 -3.05325 0
    endloop
  endfacet
  facet normal 0.743145 0.66913 0
    outer loop
      vertex 37.0304 32.1135 100
      vertex 33.9214 35.5664 0
      vertex 33.9214 35.5664 100
    endloop
  endfacet
  facet normal 0.743145 0.66913 0
    outer loop
      vertex 33.9214 35.5664 0
      vertex 37.0304 32.1135 100
      vertex 37.0304 32.1135 0
    endloop
  endfacet
  facet normal -0.587782 0.809019 0
    outer loop
      vertex 7.9375 38.2974 0
      vertex 4.17857 35.5664 100
      vertex 7.9375 38.2974 100
    endloop
  endfacet
  facet normal -0.587782 0.809019 0
    outer loop
      vertex 4.17857 35.5664 100
      vertex 7.9375 38.2974 0
      vertex 4.17857 35.5664 0
    endloop
  endfacet
  facet normal -0.406733 0.913547 0
    outer loop
      vertex 12.1821 40.1872 0
      vertex 7.9375 38.2974 100
      vertex 12.1821 40.1872 100
    endloop
  endfacet
  facet normal -0.406733 0.913547 0
    outer loop
      vertex 7.9375 38.2974 100
      vertex 12.1821 40.1872 0
      vertex 7.9375 38.2974 0
    endloop
  endfacet
  facet normal 0.866029 0.499993 0
    outer loop
      vertex 39.3535 28.0897 100
      vertex 37.0304 32.1135 0
      vertex 37.0304 32.1135 100
    endloop
  endfacet
  facet normal 0.866029 0.499993 0
    outer loop
      vertex 37.0304 32.1135 0
      vertex 39.3535 28.0897 100
      vertex 39.3535 28.0897 0
    endloop
  endfacet
  facet normal 0.951056 0.309019 0
    outer loop
      vertex 40.7893 23.6708 100
      vertex 39.3535 28.0897 0
      vertex 39.3535 28.0897 100
    endloop
  endfacet
  facet normal 0.951056 0.309019 0
    outer loop
      vertex 39.3535 28.0897 0
      vertex 40.7893 23.6708 100
      vertex 40.7893 23.6708 0
    endloop
  endfacet
  facet normal 0.406733 0.913547 -0
    outer loop
      vertex 30.1625 38.2974 0
      vertex 25.9179 40.1872 100
      vertex 30.1625 38.2974 100
    endloop
  endfacet
  facet normal 0.406733 0.913547 0
    outer loop
      vertex 25.9179 40.1872 100
      vertex 30.1625 38.2974 0
      vertex 25.9179 40.1872 0
    endloop
  endfacet
  facet normal 0.207906 0.978149 -0
    outer loop
      vertex 25.9179 40.1872 0
      vertex 21.3731 41.1532 100
      vertex 25.9179 40.1872 100
    endloop
  endfacet
  facet normal 0.207906 0.978149 0
    outer loop
      vertex 21.3731 41.1532 100
      vertex 25.9179 40.1872 0
      vertex 21.3731 41.1532 0
    endloop
  endfacet
  facet normal 0.587785 0.809017 -0
    outer loop
      vertex 33.9214 35.5664 0
      vertex 30.1625 38.2974 100
      vertex 33.9214 35.5664 100
    endloop
  endfacet
  facet normal 0.587785 0.809017 0
    outer loop
      vertex 30.1625 38.2974 100
      vertex 33.9214 35.5664 0
      vertex 30.1625 38.2974 0
    endloop
  endfacet
  facet normal -0.866025 0.500001 0
    outer loop
      vertex -1.25355 28.0897 0
      vertex 1.0696 32.1135 100
      vertex 1.0696 32.1135 0
    endloop
  endfacet
  facet normal -0.866025 0.500001 0
    outer loop
      vertex 1.0696 32.1135 100
      vertex -1.25355 28.0897 0
      vertex -1.25355 28.0897 100
    endloop
  endfacet
  facet normal -0.743149 0.669126 0
    outer loop
      vertex 1.0696 32.1135 0
      vertex 4.17857 35.5664 100
      vertex 4.17857 35.5664 0
    endloop
  endfacet
  facet normal -0.743149 0.669126 0
    outer loop
      vertex 4.17857 35.5664 100
      vertex 1.0696 32.1135 0
      vertex 1.0696 32.1135 100
    endloop
  endfacet
  facet normal -0.951057 0.309016 0
    outer loop
      vertex -2.68933 23.6708 0
      vertex -1.25355 28.0897 100
      vertex -1.25355 28.0897 0
    endloop
  endfacet
  facet normal -0.951057 0.309016 0
    outer loop
      vertex -1.25355 28.0897 100
      vertex -2.68933 23.6708 0
      vertex -2.68933 23.6708 100
    endloop
  endfacet
  facet normal 0 0 1
    outer loop
      vertex 15.875 6.81227 100
      vertex 15.1255 6.97158 100
      vertex 15.875 3.175 100
    endloop
  endfacet
  facet normal 0 0 1
    outer loop
      vertex 31.75 19.05 100
      vertex 41.275 19.05 100
      vertex 40.7893 23.6708 100
    endloop
  endfacet
  facet normal 0 0 1
    outer loop
      vertex 31.4725 21.6905 100
      vertex 40.7893 23.6708 100
      vertex 39.3535 28.0897 100
    endloop
  endfacet
  facet normal 0 0 1
    outer loop
      vertex 41.275 19.05 100
      vertex 31.75 19.05 100
      vertex 40.7893 14.4292 100
    endloop
  endfacet
  facet normal 0 0 1
    outer loop
      vertex 30.652 24.2156 100
      vertex 39.3535 28.0897 100
      vertex 37.0304 32.1135 100
    endloop
  endfacet
  facet normal -0 0 1
    outer loop
      vertex 31.4725 16.4095 100
      vertex 40.7893 14.4292 100
      vertex 31.75 19.05 100
    endloop
  endfacet
  facet normal 0 0 1
    outer loop
      vertex 29.3245 26.5149 100
      vertex 37.0304 32.1135 100
      vertex 33.9214 35.5664 100
    endloop
  endfacet
  facet normal 0 0 1
    outer loop
      vertex 40.7893 14.4292 100
      vertex 31.4725 16.4095 100
      vertex 39.3535 10.0103 100
    endloop
  endfacet
  facet normal -0 0 1
    outer loop
      vertex 30.652 13.8844 100
      vertex 39.3535 10.0103 100
      vertex 31.4725 16.4095 100
    endloop
  endfacet
  facet normal 0 0 1
    outer loop
      vertex 40.7893 23.6708 100
      vertex 31.4725 21.6905 100
      vertex 31.75 19.05 100
    endloop
  endfacet
  facet normal 0 0 1
    outer loop
      vertex 39.3535 28.0897 100
      vertex 30.652 24.2156 100
      vertex 31.4725 21.6905 100
    endloop
  endfacet
  facet normal 0 0 1
    outer loop
      vertex 27.548 28.4879 100
      vertex 33.9214 35.5664 100
      vertex 30.1625 38.2974 100
    endloop
  endfacet
  facet normal 0 0 1
    outer loop
      vertex 37.0304 32.1135 100
      vertex 29.3245 26.5149 100
      vertex 30.652 24.2156 100
    endloop
  endfacet
  facet normal 0 0 1
    outer loop
      vertex 33.9214 35.5664 100
      vertex 27.548 28.4879 100
      vertex 29.3245 26.5149 100
    endloop
  endfacet
  facet normal 0 0 1
    outer loop
      vertex 25.4 30.0485 100
      vertex 30.1625 38.2974 100
      vertex 25.9179 40.1872 100
    endloop
  endfacet
  facet normal 0 0 1
    outer loop
      vertex 30.1625 38.2974 100
      vertex 25.4 30.0485 100
      vertex 27.548 28.4879 100
    endloop
  endfacet
  facet normal 0 0 1
    outer loop
      vertex 25.9179 40.1872 100
      vertex 22.9745 31.1284 100
      vertex 25.4 30.0485 100
    endloop
  endfacet
  facet normal 0 0 1
    outer loop
      vertex 21.3731 41.1532 100
      vertex 22.9745 31.1284 100
      vertex 25.9179 40.1872 100
    endloop
  endfacet
  facet normal 0 0 1
    outer loop
      vertex 21.3731 41.1532 100
      vertex 20.3775 31.6804 100
      vertex 22.9745 31.1284 100
    endloop
  endfacet
  facet normal 0 0 1
    outer loop
      vertex 21.3731 41.1532 100
      vertex 17.7225 31.6804 100
      vertex 20.3775 31.6804 100
    endloop
  endfacet
  facet normal -0 0 1
    outer loop
      vertex 16.7269 41.1532 100
      vertex 17.7225 31.6804 100
      vertex 21.3731 41.1532 100
    endloop
  endfacet
  facet normal 0 0 1
    outer loop
      vertex 16.7269 41.1532 100
      vertex 15.1255 31.1284 100
      vertex 17.7225 31.6804 100
    endloop
  endfacet
  facet normal -0 0 1
    outer loop
      vertex 12.1821 40.1872 100
      vertex 15.1255 31.1284 100
      vertex 16.7269 41.1532 100
    endloop
  endfacet
  facet normal 0 0 1
    outer loop
      vertex 15.1255 31.1284 100
      vertex 12.1821 40.1872 100
      vertex 12.7 30.0485 100
    endloop
  endfacet
  facet normal -0 0 1
    outer loop
      vertex 7.9375 38.2974 100
      vertex 12.7 30.0485 100
      vertex 12.1821 40.1872 100
    endloop
  endfacet
  facet normal 0 0 1
    outer loop
      vertex 12.7 30.0485 100
      vertex 7.9375 38.2974 100
      vertex 10.552 28.4879 100
    endloop
  endfacet
  facet normal -0 0 1
    outer loop
      vertex 4.17857 35.5664 100
      vertex 10.552 28.4879 100
      vertex 7.9375 38.2974 100
    endloop
  endfacet
  facet normal 0 0 1
    outer loop
      vertex 10.552 28.4879 100
      vertex 4.17857 35.5664 100
      vertex 8.77549 26.5149 100
    endloop
  endfacet
  facet normal -0 0 1
    outer loop
      vertex 1.0696 32.1135 100
      vertex 8.77549 26.5149 100
      vertex 4.17857 35.5664 100
    endloop
  endfacet
  facet normal 0 0 1
    outer loop
      vertex 8.77549 26.5149 100
      vertex 1.0696 32.1135 100
      vertex 7.44797 24.2156 100
    endloop
  endfacet
  facet normal -0 0 1
    outer loop
      vertex -1.25355 28.0897 100
      vertex 7.44797 24.2156 100
      vertex 1.0696 32.1135 100
    endloop
  endfacet
  facet normal 0 0 1
    outer loop
      vertex 39.3535 10.0103 100
      vertex 30.652 13.8844 100
      vertex 37.0304 5.98647 100
    endloop
  endfacet
  facet normal -0 0 1
    outer loop
      vertex 29.3245 11.5851 100
      vertex 37.0304 5.98647 100
      vertex 30.652 13.8844 100
    endloop
  endfacet
  facet normal 0 0 1
    outer loop
      vertex 37.0304 5.98647 100
      vertex 29.3245 11.5851 100
      vertex 33.9214 2.53361 100
    endloop
  endfacet
  facet normal -0 0 1
    outer loop
      vertex 27.548 9.61206 100
      vertex 33.9214 2.53361 100
      vertex 29.3245 11.5851 100
    endloop
  endfacet
  facet normal 0 0 1
    outer loop
      vertex 33.9214 2.53361 100
      vertex 27.548 9.61206 100
      vertex 30.1625 -0.197415 100
    endloop
  endfacet
  facet normal -0 0 1
    outer loop
      vertex 25.4 8.05148 100
      vertex 30.1625 -0.197415 100
      vertex 27.548 9.61206 100
    endloop
  endfacet
  facet normal -0 0 1
    outer loop
      vertex 22.225 3.175 100
      vertex 30.1625 -0.197415 100
      vertex 25.4 8.05148 100
    endloop
  endfacet
  facet normal 0 0 1
    outer loop
      vertex 22.225 3.175 100
      vertex 25.4 8.05148 100
      vertex 22.9745 6.97158 100
    endloop
  endfacet
  facet normal 0 0 1
    outer loop
      vertex 22.225 3.175 100
      vertex 22.9745 6.97158 100
      vertex 22.225 6.81227 100
    endloop
  endfacet
  facet normal 0 0 1
    outer loop
      vertex 30.1625 -0.197415 100
      vertex 22.225 3.175 100
      vertex 25.9179 -2.08723 100
    endloop
  endfacet
  facet normal 0 0 1
    outer loop
      vertex 22.225 3.175 100
      vertex 21.3731 -3.05325 100
      vertex 25.9179 -2.08723 100
    endloop
  endfacet
  facet normal 0 0 1
    outer loop
      vertex 22.225 3.175 100
      vertex 16.7269 -3.05325 100
      vertex 21.3731 -3.05325 100
    endloop
  endfacet
  facet normal -0 0 1
    outer loop
      vertex 15.875 3.175 100
      vertex 16.7269 -3.05325 100
      vertex 22.225 3.175 100
    endloop
  endfacet
  facet normal 0 0 1
    outer loop
      vertex 12.7 8.05148 100
      vertex 15.875 3.175 100
      vertex 15.1255 6.97158 100
    endloop
  endfacet
  facet normal 0 0 1
    outer loop
      vertex 7.9375 -0.197415 100
      vertex 15.875 3.175 100
      vertex 12.7 8.05148 100
    endloop
  endfacet
  facet normal 0 0 1
    outer loop
      vertex 15.875 3.175 100
      vertex 12.1821 -2.08723 100
      vertex 16.7269 -3.05325 100
    endloop
  endfacet
  facet normal 0 0 1
    outer loop
      vertex 7.9375 -0.197415 100
      vertex 12.7 8.05148 100
      vertex 10.552 9.61206 100
    endloop
  endfacet
  facet normal 0 0 1
    outer loop
      vertex 4.17857 2.53361 100
      vertex 10.552 9.61206 100
      vertex 8.77549 11.5851 100
    endloop
  endfacet
  facet normal 0 0 1
    outer loop
      vertex 15.875 3.175 100
      vertex 7.9375 -0.197415 100
      vertex 12.1821 -2.08723 100
    endloop
  endfacet
  facet normal 0 0 1
    outer loop
      vertex 1.0696 5.98647 100
      vertex 8.77549 11.5851 100
      vertex 7.44797 13.8844 100
    endloop
  endfacet
  facet normal 0 0 1
    outer loop
      vertex -1.25355 10.0103 100
      vertex 7.44797 13.8844 100
      vertex 6.62753 16.4095 100
    endloop
  endfacet
  facet normal 0 0 1
    outer loop
      vertex -2.68933 14.4292 100
      vertex 6.62753 16.4095 100
      vertex 6.35 19.05 100
    endloop
  endfacet
  facet normal 0 0 1
    outer loop
      vertex 7.44797 24.2156 100
      vertex -1.25355 28.0897 100
      vertex 6.62753 21.6905 100
    endloop
  endfacet
  facet normal 0 0 1
    outer loop
      vertex 10.552 9.61206 100
      vertex 4.17857 2.53361 100
      vertex 7.9375 -0.197415 100
    endloop
  endfacet
  facet normal -0 0 1
    outer loop
      vertex -2.68933 23.6708 100
      vertex 6.62753 21.6905 100
      vertex -1.25355 28.0897 100
    endloop
  endfacet
  facet normal 0 0 1
    outer loop
      vertex 8.77549 11.5851 100
      vertex 1.0696 5.98647 100
      vertex 4.17857 2.53361 100
    endloop
  endfacet
  facet normal 0 0 1
    outer loop
      vertex 6.62753 21.6905 100
      vertex -2.68933 23.6708 100
      vertex 6.35 19.05 100
    endloop
  endfacet
  facet normal 0 0 1
    outer loop
      vertex 7.44797 13.8844 100
      vertex -1.25355 10.0103 100
      vertex 1.0696 5.98647 100
    endloop
  endfacet
  facet normal 0 0 1
    outer loop
      vertex -3.175 19.05 100
      vertex 6.35 19.05 100
      vertex -2.68933 23.6708 100
    endloop
  endfacet
  facet normal 0 0 1
    outer loop
      vertex 6.62753 16.4095 100
      vertex -2.68933 14.4292 100
      vertex -1.25355 10.0103 100
    endloop
  endfacet
  facet normal 0 0 1
    outer loop
      vertex 6.35 19.05 100
      vertex -3.175 19.05 100
      vertex -2.68933 14.4292 100
    endloop
  endfacet
  facet normal -0.207906 0.978149 0
    outer loop
      vertex 16.7269 41.1532 0
      vertex 12.1821 40.1872 100
      vertex 16.7269 41.1532 100
    endloop
  endfacet
  facet normal -0.207906 0.978149 0
    outer loop
      vertex 12.1821 40.1872 100
      vertex 16.7269 41.1532 0
      vertex 12.1821 40.1872 0
    endloop
  endfacet
  facet normal 0.994521 -0.104536 0
    outer loop
      vertex 40.7893 14.4292 100
      vertex 41.275 19.05 0
      vertex 41.275 19.05 100
    endloop
  endfacet
  facet normal 0.994521 -0.104536 0
    outer loop
      vertex 41.275 19.05 0
      vertex 40.7893 14.4292 100
      vertex 40.7893 14.4292 0
    endloop
  endfacet
  facet normal 0 0 -1
    outer loop
      vertex 31.75 19.05 0
      vertex 41.275 19.05 0
      vertex 40.7893 14.4292 0
    endloop
  endfacet
  facet normal 0 0 -1
    outer loop
      vertex 31.4725 16.4095 0
      vertex 40.7893 14.4292 0
      vertex 39.3535 10.0103 0
    endloop
  endfacet
  facet normal 0 0 -1
    outer loop
      vertex 41.275 19.05 0
      vertex 31.75 19.05 0
      vertex 40.7893 23.6708 0
    endloop
  endfacet
  facet normal 0 0 -1
    outer loop
      vertex 30.652 13.8844 0
      vertex 39.3535 10.0103 0
      vertex 37.0304 5.98647 0
    endloop
  endfacet
  facet normal 0 0 -1
    outer loop
      vertex 31.4725 21.6905 0
      vertex 40.7893 23.6708 0
      vertex 31.75 19.05 0
    endloop
  endfacet
  facet normal 0 0 -1
    outer loop
      vertex 29.3245 11.5851 0
      vertex 37.0304 5.98647 0
      vertex 33.9214 2.53361 0
    endloop
  endfacet
  facet normal -0 0 -1
    outer loop
      vertex 40.7893 23.6708 0
      vertex 31.4725 21.6905 0
      vertex 39.3535 28.0897 0
    endloop
  endfacet
  facet normal 0 0 -1
    outer loop
      vertex 30.652 24.2156 0
      vertex 39.3535 28.0897 0
      vertex 31.4725 21.6905 0
    endloop
  endfacet
  facet normal 0 0 -1
    outer loop
      vertex 40.7893 14.4292 0
      vertex 31.4725 16.4095 0
      vertex 31.75 19.05 0
    endloop
  endfacet
  facet normal 0 0 -1
    outer loop
      vertex 39.3535 10.0103 0
      vertex 30.652 13.8844 0
      vertex 31.4725 16.4095 0
    endloop
  endfacet
  facet normal 0 0 -1
    outer loop
      vertex 27.548 9.61206 0
      vertex 33.9214 2.53361 0
      vertex 30.1625 -0.197415 0
    endloop
  endfacet
  facet normal 0 0 -1
    outer loop
      vertex 37.0304 5.98647 0
      vertex 29.3245 11.5851 0
      vertex 30.652 13.8844 0
    endloop
  endfacet
  facet normal 0 0 -1
    outer loop
      vertex 33.9214 2.53361 0
      vertex 27.548 9.61206 0
      vertex 29.3245 11.5851 0
    endloop
  endfacet
  facet normal 0 0 -1
    outer loop
      vertex 22.225 3.175 0
      vertex 30.1625 -0.197415 0
      vertex 25.9179 -2.08723 0
    endloop
  endfacet
  facet normal 0 0 -1
    outer loop
      vertex 30.1625 -0.197415 0
      vertex 25.4 8.05148 0
      vertex 27.548 9.61206 0
    endloop
  endfacet
  facet normal 0 0 -1
    outer loop
      vertex 30.1625 -0.197415 0
      vertex 22.225 3.175 0
      vertex 25.4 8.05148 0
    endloop
  endfacet
  facet normal 0 0 -1
    outer loop
      vertex 25.4 8.05148 0
      vertex 22.225 3.175 0
      vertex 22.9745 6.97158 0
    endloop
  endfacet
  facet normal 0 0 -1
    outer loop
      vertex 21.3731 -3.05325 0
      vertex 22.225 3.175 0
      vertex 25.9179 -2.08723 0
    endloop
  endfacet
  facet normal 0 0 -1
    outer loop
      vertex 16.7269 -3.05325 0
      vertex 22.225 3.175 0
      vertex 21.3731 -3.05325 0
    endloop
  endfacet
  facet normal 0 0 -1
    outer loop
      vertex 16.7269 -3.05325 0
      vertex 15.875 3.175 0
      vertex 22.225 3.175 0
    endloop
  endfacet
  facet normal 0 0 -1
    outer loop
      vertex 15.875 3.175 0
      vertex 15.1255 6.97158 0
      vertex 15.875 6.81227 0
    endloop
  endfacet
  facet normal 0 0 -1
    outer loop
      vertex 12.1821 -2.08723 0
      vertex 15.875 3.175 0
      vertex 16.7269 -3.05325 0
    endloop
  endfacet
  facet normal 0 0 -1
    outer loop
      vertex 7.9375 -0.197415 0
      vertex 15.875 3.175 0
      vertex 12.1821 -2.08723 0
    endloop
  endfacet
  facet normal 0 0 -1
    outer loop
      vertex 15.875 3.175 0
      vertex 12.7 8.05148 0
      vertex 15.1255 6.97158 0
    endloop
  endfacet
  facet normal -0 0 -1
    outer loop
      vertex 15.875 3.175 0
      vertex 7.9375 -0.197415 0
      vertex 12.7 8.05148 0
    endloop
  endfacet
  facet normal -0 0 -1
    outer loop
      vertex 12.7 8.05148 0
      vertex 7.9375 -0.197415 0
      vertex 10.552 9.61206 0
    endloop
  endfacet
  facet normal 0 0 -1
    outer loop
      vertex 4.17857 2.53361 0
      vertex 10.552 9.61206 0
      vertex 7.9375 -0.197415 0
    endloop
  endfacet
  facet normal -0 0 -1
    outer loop
      vertex 10.552 9.61206 0
      vertex 4.17857 2.53361 0
      vertex 8.77549 11.5851 0
    endloop
  endfacet
  facet normal 0 0 -1
    outer loop
      vertex 1.0696 5.98647 0
      vertex 8.77549 11.5851 0
      vertex 4.17857 2.53361 0
    endloop
  endfacet
  facet normal -0 0 -1
    outer loop
      vertex 8.77549 11.5851 0
      vertex 1.0696 5.98647 0
      vertex 7.44797 13.8844 0
    endloop
  endfacet
  facet normal 0 0 -1
    outer loop
      vertex -1.25355 10.0103 0
      vertex 7.44797 13.8844 0
      vertex 1.0696 5.98647 0
    endloop
  endfacet
  facet normal -0 0 -1
    outer loop
      vertex 39.3535 28.0897 0
      vertex 30.652 24.2156 0
      vertex 37.0304 32.1135 0
    endloop
  endfacet
  facet normal 0 0 -1
    outer loop
      vertex 29.3245 26.5149 0
      vertex 37.0304 32.1135 0
      vertex 30.652 24.2156 0
    endloop
  endfacet
  facet normal -0 0 -1
    outer loop
      vertex 37.0304 32.1135 0
      vertex 29.3245 26.5149 0
      vertex 33.9214 35.5664 0
    endloop
  endfacet
  facet normal 0 0 -1
    outer loop
      vertex 27.548 28.4879 0
      vertex 33.9214 35.5664 0
      vertex 29.3245 26.5149 0
    endloop
  endfacet
  facet normal -0 0 -1
    outer loop
      vertex 33.9214 35.5664 0
      vertex 27.548 28.4879 0
      vertex 30.1625 38.2974 0
    endloop
  endfacet
  facet normal 0 0 -1
    outer loop
      vertex 25.4 30.0485 0
      vertex 30.1625 38.2974 0
      vertex 27.548 28.4879 0
    endloop
  endfacet
  facet normal -0 0 -1
    outer loop
      vertex 30.1625 38.2974 0
      vertex 25.4 30.0485 0
      vertex 25.9179 40.1872 0
    endloop
  endfacet
  facet normal 0 0 -1
    outer loop
      vertex 22.9745 31.1284 0
      vertex 25.9179 40.1872 0
      vertex 25.4 30.0485 0
    endloop
  endfacet
  facet normal 0 0 -1
    outer loop
      vertex 22.9745 31.1284 0
      vertex 21.3731 41.1532 0
      vertex 25.9179 40.1872 0
    endloop
  endfacet
  facet normal 0 0 -1
    outer loop
      vertex 20.3775 31.6804 0
      vertex 21.3731 41.1532 0
      vertex 22.9745 31.1284 0
    endloop
  endfacet
  facet normal 0 0 -1
    outer loop
      vertex 17.7225 31.6804 0
      vertex 21.3731 41.1532 0
      vertex 20.3775 31.6804 0
    endloop
  endfacet
  facet normal 0 0 -1
    outer loop
      vertex 17.7225 31.6804 0
      vertex 16.7269 41.1532 0
      vertex 21.3731 41.1532 0
    endloop
  endfacet
  facet normal 0 0 -1
    outer loop
      vertex 15.1255 31.1284 0
      vertex 16.7269 41.1532 0
      vertex 17.7225 31.6804 0
    endloop
  endfacet
  facet normal 0 0 -1
    outer loop
      vertex 12.1821 40.1872 0
      vertex 15.1255 31.1284 0
      vertex 12.7 30.0485 0
    endloop
  endfacet
  facet normal 0 0 -1
    outer loop
      vertex 15.1255 31.1284 0
      vertex 12.1821 40.1872 0
      vertex 16.7269 41.1532 0
    endloop
  endfacet
  facet normal 0 0 -1
    outer loop
      vertex 7.9375 38.2974 0
      vertex 12.7 30.0485 0
      vertex 10.552 28.4879 0
    endloop
  endfacet
  facet normal 0 0 -1
    outer loop
      vertex 4.17857 35.5664 0
      vertex 10.552 28.4879 0
      vertex 8.77549 26.5149 0
    endloop
  endfacet
  facet normal 0 0 -1
    outer loop
      vertex 12.7 30.0485 0
      vertex 7.9375 38.2974 0
      vertex 12.1821 40.1872 0
    endloop
  endfacet
  facet normal 0 0 -1
    outer loop
      vertex 1.0696 32.1135 0
      vertex 8.77549 26.5149 0
      vertex 7.44797 24.2156 0
    endloop
  endfacet
  facet normal 0 0 -1
    outer loop
      vertex -1.25355 28.0897 0
      vertex 7.44797 24.2156 0
      vertex 6.62753 21.6905 0
    endloop
  endfacet
  facet normal 0 0 -1
    outer loop
      vertex -2.68933 23.6708 0
      vertex 6.62753 21.6905 0
      vertex 6.35 19.05 0
    endloop
  endfacet
  facet normal -0 0 -1
    outer loop
      vertex 7.44797 13.8844 0
      vertex -1.25355 10.0103 0
      vertex 6.62753 16.4095 0
    endloop
  endfacet
  facet normal 0 0 -1
    outer loop
      vertex 10.552 28.4879 0
      vertex 4.17857 35.5664 0
      vertex 7.9375 38.2974 0
    endloop
  endfacet
  facet normal 0 0 -1
    outer loop
      vertex -2.68933 14.4292 0
      vertex 6.62753 16.4095 0
      vertex -1.25355 10.0103 0
    endloop
  endfacet
  facet normal 0 0 -1
    outer loop
      vertex 8.77549 26.5149 0
      vertex 1.0696 32.1135 0
      vertex 4.17857 35.5664 0
    endloop
  endfacet
  facet normal -0 0 -1
    outer loop
      vertex 6.62753 16.4095 0
      vertex -2.68933 14.4292 0
      vertex 6.35 19.05 0
    endloop
  endfacet
  facet normal 0 0 -1
    outer loop
      vertex 7.44797 24.2156 0
      vertex -1.25355 28.0897 0
      vertex 1.0696 32.1135 0
    endloop
  endfacet
  facet normal 0 0 -1
    outer loop
      vertex -3.175 19.05 0
      vertex 6.35 19.05 0
      vertex -2.68933 14.4292 0
    endloop
  endfacet
  facet normal 0 0 -1
    outer loop
      vertex 6.62753 21.6905 0
      vertex -2.68933 23.6708 0
      vertex -1.25355 28.0897 0
    endloop
  endfacet
  facet normal 0 0 -1
    outer loop
      vertex 6.35 19.05 0
      vertex -3.175 19.05 0
      vertex -2.68933 23.6708 0
    endloop
  endfacet
  facet normal 0 0 -1
    outer loop
      vertex 22.9745 6.97158 0
      vertex 22.225 3.175 0
      vertex 22.225 6.81227 0
    endloop
  endfacet
  facet normal 0.20791 -0.978148 0
    outer loop
      vertex 21.3731 -3.05325 0
      vertex 25.9179 -2.08723 100
      vertex 21.3731 -3.05325 100
    endloop
  endfacet
  facet normal 0.20791 -0.978148 0
    outer loop
      vertex 25.9179 -2.08723 100
      vertex 21.3731 -3.05325 0
      vertex 25.9179 -2.08723 0
    endloop
  endfacet
  facet normal 0.866031 -0.49999 0
    outer loop
      vertex 37.0304 5.98647 100
      vertex 39.3535 10.0103 0
      vertex 39.3535 10.0103 100
    endloop
  endfacet
  facet normal 0.866031 -0.49999 0
    outer loop
      vertex 39.3535 10.0103 0
      vertex 37.0304 5.98647 100
      vertex 37.0304 5.98647 0
    endloop
  endfacet
  facet normal -0.866026 -0.499998 0
    outer loop
      vertex 1.0696 5.98647 0
      vertex -1.25355 10.0103 100
      vertex -1.25355 10.0103 0
    endloop
  endfacet
  facet normal -0.866026 -0.499998 0
    outer loop
      vertex -1.25355 10.0103 100
      vertex 1.0696 5.98647 0
      vertex 1.0696 5.98647 100
    endloop
  endfacet
  facet normal -0.743145 -0.669131 0
    outer loop
      vertex 4.17857 2.53361 0
      vertex 1.0696 5.98647 100
      vertex 1.0696 5.98647 0
    endloop
  endfacet
  facet normal -0.743145 -0.669131 0
    outer loop
      vertex 1.0696 5.98647 100
      vertex 4.17857 2.53361 0
      vertex 4.17857 2.53361 100
    endloop
  endfacet
  facet normal 0.587789 -0.809015 0
    outer loop
      vertex 30.1625 -0.197415 0
      vertex 33.9214 2.53361 100
      vertex 30.1625 -0.197415 100
    endloop
  endfacet
  facet normal 0.587789 -0.809015 0
    outer loop
      vertex 33.9214 2.53361 100
      vertex 30.1625 -0.197415 0
      vertex 33.9214 2.53361 0
    endloop
  endfacet
  facet normal 0.406736 -0.913546 0
    outer loop
      vertex 25.9179 -2.08723 0
      vertex 30.1625 -0.197415 100
      vertex 25.9179 -2.08723 100
    endloop
  endfacet
  facet normal 0.406736 -0.913546 0
    outer loop
      vertex 30.1625 -0.197415 100
      vertex 25.9179 -2.08723 0
      vertex 30.1625 -0.197415 0
    endloop
  endfacet
  facet normal 0.951056 -0.309019 0
    outer loop
      vertex 39.3535 10.0103 100
      vertex 40.7893 14.4292 0
      vertex 40.7893 14.4292 100
    endloop
  endfacet
  facet normal 0.951056 -0.309019 0
    outer loop
      vertex 40.7893 14.4292 0
      vertex 39.3535 10.0103 100
      vertex 39.3535 10.0103 0
    endloop
  endfacet
  facet normal -0.20791 -0.978148 0
    outer loop
      vertex 12.1821 -2.08723 0
      vertex 16.7269 -3.05325 100
      vertex 12.1821 -2.08723 100
    endloop
  endfacet
  facet normal -0.20791 -0.978148 -0
    outer loop
      vertex 16.7269 -3.05325 100
      vertex 12.1821 -2.08723 0
      vertex 16.7269 -3.05325 0
    endloop
  endfacet
  facet normal -0.951057 -0.309016 0
    outer loop
      vertex -1.25355 10.0103 0
      vertex -2.68933 14.4292 100
      vertex -2.68933 14.4292 0
    endloop
  endfacet
  facet normal -0.951057 -0.309016 0
    outer loop
      vertex -2.68933 14.4292 100
      vertex -1.25355 10.0103 0
      vertex -1.25355 10.0103 100
    endloop
  endfacet
  facet normal -0.994522 -0.104529 0
    outer loop
      vertex -2.68933 14.4292 0
      vertex -3.175 19.05 100
      vertex -3.175 19.05 0
    endloop
  endfacet
  facet normal -0.994522 -0.104529 0
    outer loop
      vertex -3.175 19.05 100
      vertex -2.68933 14.4292 0
      vertex -2.68933 14.4292 100
    endloop
  endfacet
  facet normal 0.743142 -0.669134 0
    outer loop
      vertex 33.9214 2.53361 100
      vertex 37.0304 5.98647 0
      vertex 37.0304 5.98647 100
    endloop
  endfacet
  facet normal 0.743142 -0.669134 0
    outer loop
      vertex 37.0304 5.98647 0
      vertex 33.9214 2.53361 100
      vertex 33.9214 2.53361 0
    endloop
  endfacet
  facet normal -0.406736 -0.913546 0
    outer loop
      vertex 7.9375 -0.197415 0
      vertex 12.1821 -2.08723 100
      vertex 7.9375 -0.197415 100
    endloop
  endfacet
  facet normal -0.406736 -0.913546 -0
    outer loop
      vertex 12.1821 -2.08723 100
      vertex 7.9375 -0.197415 0
      vertex 12.1821 -2.08723 0
    endloop
  endfacet
  facet normal -0.587786 -0.809017 0
    outer loop
      vertex 4.17857 2.53361 0
      vertex 7.9375 -0.197415 100
      vertex 4.17857 2.53361 100
    endloop
  endfacet
  facet normal -0.587786 -0.809017 -0
    outer loop
      vertex 7.9375 -0.197415 100
      vertex 4.17857 2.53361 0
      vertex 7.9375 -0.197415 0
    endloop
  endfacet
  facet normal 1 -0 0
    outer loop
      vertex 15.875 3.175 100
      vertex 15.875 6.81227 0
      vertex 15.875 6.81227 100
    endloop
  endfacet
  facet normal 1 0 0
    outer loop
      vertex 15.875 6.81227 0
      vertex 15.875 3.175 100
      vertex 15.875 3.175 0
    endloop
  endfacet
  facet normal -1 0 0
    outer loop
      vertex 22.225 3.175 0
      vertex 22.225 6.81227 100
      vertex 22.225 6.81227 0
    endloop
  endfacet
  facet normal -1 -0 0
    outer loop
      vertex 22.225 6.81227 100
      vertex 22.225 3.175 0
      vertex 22.225 3.175 100
    endloop
  endfacet
  facet normal 0 1 -0
    outer loop
      vertex 22.225 3.175 0
      vertex 15.875 3.175 100
      vertex 22.225 3.175 100
    endloop
  endfacet
  facet normal 0 1 0
    outer loop
      vertex 15.875 3.175 100
      vertex 22.225 3.175 0
      vertex 15.875 3.175 0
    endloop
  endfacet
  facet normal -0.994523 -0.104518 0
    outer loop
      vertex 31.75 19.05 0
      vertex 31.4725 21.6905 100
      vertex 31.4725 21.6905 0
    endloop
  endfacet
  facet normal -0.994523 -0.104518 0
    outer loop
      vertex 31.4725 21.6905 100
      vertex 31.75 19.05 0
      vertex 31.75 19.05 100
    endloop
  endfacet
  facet normal 0.994522 -0.104529 0
    outer loop
      vertex 6.35 19.05 100
      vertex 6.62753 21.6905 0
      vertex 6.62753 21.6905 100
    endloop
  endfacet
  facet normal 0.994522 -0.104529 0
    outer loop
      vertex 6.62753 21.6905 0
      vertex 6.35 19.05 100
      vertex 6.35 19.05 0
    endloop
  endfacet
  facet normal 0 -1 0
    outer loop
      vertex 17.7225 31.6804 0
      vertex 20.3775 31.6804 100
      vertex 17.7225 31.6804 100
    endloop
  endfacet
  facet normal 0 -1 -0
    outer loop
      vertex 20.3775 31.6804 100
      vertex 17.7225 31.6804 0
      vertex 20.3775 31.6804 0
    endloop
  endfacet
  facet normal -0.743144 -0.669131 0
    outer loop
      vertex 29.3245 26.5149 0
      vertex 27.548 28.4879 100
      vertex 27.548 28.4879 0
    endloop
  endfacet
  facet normal -0.743144 -0.669131 0
    outer loop
      vertex 27.548 28.4879 100
      vertex 29.3245 26.5149 0
      vertex 29.3245 26.5149 100
    endloop
  endfacet
  facet normal -0.951052 -0.309032 0
    outer loop
      vertex 31.4725 21.6905 0
      vertex 30.652 24.2156 100
      vertex 30.652 24.2156 0
    endloop
  endfacet
  facet normal -0.951052 -0.309032 0
    outer loop
      vertex 30.652 24.2156 100
      vertex 31.4725 21.6905 0
      vertex 31.4725 21.6905 100
    endloop
  endfacet
  facet normal 0.587782 -0.809019 0
    outer loop
      vertex 10.552 28.4879 0
      vertex 12.7 30.0485 100
      vertex 10.552 28.4879 100
    endloop
  endfacet
  facet normal 0.587782 -0.809019 0
    outer loop
      vertex 12.7 30.0485 100
      vertex 10.552 28.4879 0
      vertex 12.7 30.0485 0
    endloop
  endfacet
  facet normal 0.207908 -0.978148 0
    outer loop
      vertex 15.1255 31.1284 0
      vertex 17.7225 31.6804 100
      vertex 15.1255 31.1284 100
    endloop
  endfacet
  facet normal 0.207908 -0.978148 0
    outer loop
      vertex 17.7225 31.6804 100
      vertex 15.1255 31.1284 0
      vertex 17.7225 31.6804 0
    endloop
  endfacet
  facet normal -0.866026 -0.5 0
    outer loop
      vertex 30.652 24.2156 0
      vertex 29.3245 26.5149 100
      vertex 29.3245 26.5149 0
    endloop
  endfacet
  facet normal -0.866026 -0.5 0
    outer loop
      vertex 29.3245 26.5149 100
      vertex 30.652 24.2156 0
      vertex 30.652 24.2156 100
    endloop
  endfacet
  facet normal -0.406736 -0.913546 0
    outer loop
      vertex 22.9745 31.1284 0
      vertex 25.4 30.0485 100
      vertex 22.9745 31.1284 100
    endloop
  endfacet
  facet normal -0.406736 -0.913546 -0
    outer loop
      vertex 25.4 30.0485 100
      vertex 22.9745 31.1284 0
      vertex 25.4 30.0485 0
    endloop
  endfacet
  facet normal -0.207908 -0.978148 0
    outer loop
      vertex 20.3775 31.6804 0
      vertex 22.9745 31.1284 100
      vertex 20.3775 31.6804 100
    endloop
  endfacet
  facet normal -0.207908 -0.978148 -0
    outer loop
      vertex 22.9745 31.1284 100
      vertex 20.3775 31.6804 0
      vertex 22.9745 31.1284 0
    endloop
  endfacet
  facet normal -0.587782 -0.809019 0
    outer loop
      vertex 25.4 30.0485 0
      vertex 27.548 28.4879 100
      vertex 25.4 30.0485 100
    endloop
  endfacet
  facet normal -0.587782 -0.809019 -0
    outer loop
      vertex 27.548 28.4879 100
      vertex 25.4 30.0485 0
      vertex 27.548 28.4879 0
    endloop
  endfacet
  facet normal 0.866022 -0.500005 0
    outer loop
      vertex 7.44797 24.2156 100
      vertex 8.77549 26.5149 0
      vertex 8.77549 26.5149 100
    endloop
  endfacet
  facet normal 0.866022 -0.500005 0
    outer loop
      vertex 8.77549 26.5149 0
      vertex 7.44797 24.2156 100
      vertex 7.44797 24.2156 0
    endloop
  endfacet
  facet normal 0.743142 -0.669133 0
    outer loop
      vertex 8.77549 26.5149 100
      vertex 10.552 28.4879 0
      vertex 10.552 28.4879 100
    endloop
  endfacet
  facet normal 0.743142 -0.669133 0
    outer loop
      vertex 10.552 28.4879 0
      vertex 8.77549 26.5149 100
      vertex 8.77549 26.5149 0
    endloop
  endfacet
  facet normal 0.951058 -0.309012 0
    outer loop
      vertex 6.62753 21.6905 100
      vertex 7.44797 24.2156 0
      vertex 7.44797 24.2156 100
    endloop
  endfacet
  facet normal 0.951058 -0.309012 0
    outer loop
      vertex 7.44797 24.2156 0
      vertex 6.62753 21.6905 100
      vertex 6.62753 21.6905 0
    endloop
  endfacet
  facet normal 0.406736 -0.913546 0
    outer loop
      vertex 12.7 30.0485 0
      vertex 15.1255 31.1284 100
      vertex 12.7 30.0485 100
    endloop
  endfacet
  facet normal 0.406736 -0.913546 0
    outer loop
      vertex 15.1255 31.1284 100
      vertex 12.7 30.0485 0
      vertex 15.1255 31.1284 0
    endloop
  endfacet
  facet normal -0.994523 0.104518 0
    outer loop
      vertex 31.4725 16.4095 0
      vertex 31.75 19.05 100
      vertex 31.75 19.05 0
    endloop
  endfacet
  facet normal -0.994523 0.104518 0
    outer loop
      vertex 31.75 19.05 100
      vertex 31.4725 16.4095 0
      vertex 31.4725 16.4095 100
    endloop
  endfacet
  facet normal -0.20791 0.978148 0
    outer loop
      vertex 22.9745 6.97158 0
      vertex 22.225 6.81227 100
      vertex 22.9745 6.97158 100
    endloop
  endfacet
  facet normal -0.20791 0.978148 0
    outer loop
      vertex 22.225 6.81227 100
      vertex 22.9745 6.97158 0
      vertex 22.225 6.81227 0
    endloop
  endfacet
  facet normal -0.866026 0.5 0
    outer loop
      vertex 29.3245 11.5851 0
      vertex 30.652 13.8844 100
      vertex 30.652 13.8844 0
    endloop
  endfacet
  facet normal -0.866026 0.5 0
    outer loop
      vertex 30.652 13.8844 100
      vertex 29.3245 11.5851 0
      vertex 29.3245 11.5851 100
    endloop
  endfacet
  facet normal 0.587777 0.809023 -0
    outer loop
      vertex 12.7 8.05148 0
      vertex 10.552 9.61206 100
      vertex 12.7 8.05148 100
    endloop
  endfacet
  facet normal 0.587777 0.809023 0
    outer loop
      vertex 10.552 9.61206 100
      vertex 12.7 8.05148 0
      vertex 10.552 9.61206 0
    endloop
  endfacet
  facet normal 0.866022 0.500005 0
    outer loop
      vertex 8.77549 11.5851 100
      vertex 7.44797 13.8844 0
      vertex 7.44797 13.8844 100
    endloop
  endfacet
  facet normal 0.866022 0.500005 0
    outer loop
      vertex 7.44797 13.8844 0
      vertex 8.77549 11.5851 100
      vertex 8.77549 11.5851 0
    endloop
  endfacet
  facet normal 0.743149 0.669126 0
    outer loop
      vertex 10.552 9.61206 100
      vertex 8.77549 11.5851 0
      vertex 8.77549 11.5851 100
    endloop
  endfacet
  facet normal 0.743149 0.669126 0
    outer loop
      vertex 8.77549 11.5851 0
      vertex 10.552 9.61206 100
      vertex 10.552 9.61206 0
    endloop
  endfacet
  facet normal 0.994522 0.104529 0
    outer loop
      vertex 6.62753 16.4095 100
      vertex 6.35 19.05 0
      vertex 6.35 19.05 100
    endloop
  endfacet
  facet normal 0.994522 0.104529 0
    outer loop
      vertex 6.35 19.05 0
      vertex 6.62753 16.4095 100
      vertex 6.62753 16.4095 0
    endloop
  endfacet
  facet normal -0.587777 0.809023 0
    outer loop
      vertex 27.548 9.61206 0
      vertex 25.4 8.05148 100
      vertex 27.548 9.61206 100
    endloop
  endfacet
  facet normal -0.587777 0.809023 0
    outer loop
      vertex 25.4 8.05148 100
      vertex 27.548 9.61206 0
      vertex 25.4 8.05148 0
    endloop
  endfacet
  facet normal -0.406736 0.913546 0
    outer loop
      vertex 25.4 8.05148 0
      vertex 22.9745 6.97158 100
      vertex 25.4 8.05148 100
    endloop
  endfacet
  facet normal -0.406736 0.913546 0
    outer loop
      vertex 22.9745 6.97158 100
      vertex 25.4 8.05148 0
      vertex 22.9745 6.97158 0
    endloop
  endfacet
  facet normal -0.951052 0.309032 0
    outer loop
      vertex 30.652 13.8844 0
      vertex 31.4725 16.4095 100
      vertex 31.4725 16.4095 0
    endloop
  endfacet
  facet normal -0.951052 0.309032 0
    outer loop
      vertex 31.4725 16.4095 100
      vertex 30.652 13.8844 0
      vertex 30.652 13.8844 100
    endloop
  endfacet
  facet normal 0.20791 0.978148 -0
    outer loop
      vertex 15.875 6.81227 0
      vertex 15.1255 6.97158 100
      vertex 15.875 6.81227 100
    endloop
  endfacet
  facet normal 0.20791 0.978148 0
    outer loop
      vertex 15.1255 6.97158 100
      vertex 15.875 6.81227 0
      vertex 15.1255 6.97158 0
    endloop
  endfacet
  facet normal 0.951058 0.309012 0
    outer loop
      vertex 7.44797 13.8844 100
      vertex 6.62753 16.4095 0
      vertex 6.62753 16.4095 100
    endloop
  endfacet
  facet normal 0.951058 0.309012 0
    outer loop
      vertex 6.62753 16.4095 0
      vertex 7.44797 13.8844 100
      vertex 7.44797 13.8844 0
    endloop
  endfacet
  facet normal -0.743151 0.669124 0
    outer loop
      vertex 27.548 9.61206 0
      vertex 29.3245 11.5851 100
      vertex 29.3245 11.5851 0
    endloop
  endfacet
  facet normal -0.743151 0.669124 0
    outer loop
      vertex 29.3245 11.5851 100
      vertex 27.548 9.61206 0
      vertex 27.548 9.61206 100
    endloop
  endfacet
  facet normal 0.406736 0.913546 -0
    outer loop
      vertex 15.1255 6.97158 0
      vertex 12.7 8.05148 100
      vertex 15.1255 6.97158 100
    endloop
  endfacet
  facet normal 0.406736 0.913546 0
    outer loop
      vertex 12.7 8.05148 100
      vertex 15.1255 6.97158 0
      vertex 12.7 8.05148 0
    endloop
  endfacet
endsolid OpenSCAD_Model
