solid OpenSCAD_Model
  facet normal 0.994523 0.104518 0
    outer loop
      vertex 31.75 19.05 76.2
      vertex 31.4725 21.6905 0
      vertex 31.4725 21.6905 76.2
    endloop
  endfacet
  facet normal 0.994523 0.104518 0
    outer loop
      vertex 31.4725 21.6905 0
      vertex 31.75 19.05 76.2
      vertex 31.75 19.05 0
    endloop
  endfacet
  facet normal -0.994522 0.104529 0
    outer loop
      vertex 6.35 19.05 0
      vertex 6.62753 21.6905 76.2
      vertex 6.62753 21.6905 0
    endloop
  endfacet
  facet normal -0.994522 0.104529 0
    outer loop
      vertex 6.62753 21.6905 76.2
      vertex 6.35 19.05 0
      vertex 6.35 19.05 76.2
    endloop
  endfacet
  facet normal 0 1 -0
    outer loop
      vertex 20.3775 31.6804 0
      vertex 17.7225 31.6804 76.2
      vertex 20.3775 31.6804 76.2
    endloop
  endfacet
  facet normal 0 1 0
    outer loop
      vertex 17.7225 31.6804 76.2
      vertex 20.3775 31.6804 0
      vertex 17.7225 31.6804 0
    endloop
  endfacet
  facet normal 0.743144 0.669131 0
    outer loop
      vertex 29.3245 26.5149 76.2
      vertex 27.548 28.4879 0
      vertex 27.548 28.4879 76.2
    endloop
  endfacet
  facet normal 0.743144 0.669131 0
    outer loop
      vertex 27.548 28.4879 0
      vertex 29.3245 26.5149 76.2
      vertex 29.3245 26.5149 0
    endloop
  endfacet
  facet normal 0.951052 0.309032 0
    outer loop
      vertex 31.4725 21.6905 76.2
      vertex 30.652 24.2156 0
      vertex 30.652 24.2156 76.2
    endloop
  endfacet
  facet normal 0.951052 0.309032 0
    outer loop
      vertex 30.652 24.2156 0
      vertex 31.4725 21.6905 76.2
      vertex 31.4725 21.6905 0
    endloop
  endfacet
  facet normal -0.587782 0.809019 0
    outer loop
      vertex 12.7 30.0485 0
      vertex 10.552 28.4879 76.2
      vertex 12.7 30.0485 76.2
    endloop
  endfacet
  facet normal -0.587782 0.809019 0
    outer loop
      vertex 10.552 28.4879 76.2
      vertex 12.7 30.0485 0
      vertex 10.552 28.4879 0
    endloop
  endfacet
  facet normal -0.207908 0.978148 0
    outer loop
      vertex 17.7225 31.6804 0
      vertex 15.1255 31.1284 76.2
      vertex 17.7225 31.6804 76.2
    endloop
  endfacet
  facet normal -0.207908 0.978148 0
    outer loop
      vertex 15.1255 31.1284 76.2
      vertex 17.7225 31.6804 0
      vertex 15.1255 31.1284 0
    endloop
  endfacet
  facet normal 0.866026 0.5 0
    outer loop
      vertex 30.652 24.2156 76.2
      vertex 29.3245 26.5149 0
      vertex 29.3245 26.5149 76.2
    endloop
  endfacet
  facet normal 0.866026 0.5 0
    outer loop
      vertex 29.3245 26.5149 0
      vertex 30.652 24.2156 76.2
      vertex 30.652 24.2156 0
    endloop
  endfacet
  facet normal 0.406736 0.913546 -0
    outer loop
      vertex 25.4 30.0485 0
      vertex 22.9745 31.1284 76.2
      vertex 25.4 30.0485 76.2
    endloop
  endfacet
  facet normal 0.406736 0.913546 0
    outer loop
      vertex 22.9745 31.1284 76.2
      vertex 25.4 30.0485 0
      vertex 22.9745 31.1284 0
    endloop
  endfacet
  facet normal 0.207908 0.978148 -0
    outer loop
      vertex 22.9745 31.1284 0
      vertex 20.3775 31.6804 76.2
      vertex 22.9745 31.1284 76.2
    endloop
  endfacet
  facet normal 0.207908 0.978148 0
    outer loop
      vertex 20.3775 31.6804 76.2
      vertex 22.9745 31.1284 0
      vertex 20.3775 31.6804 0
    endloop
  endfacet
  facet normal 0.587782 0.809019 -0
    outer loop
      vertex 27.548 28.4879 0
      vertex 25.4 30.0485 76.2
      vertex 27.548 28.4879 76.2
    endloop
  endfacet
  facet normal 0.587782 0.809019 0
    outer loop
      vertex 25.4 30.0485 76.2
      vertex 27.548 28.4879 0
      vertex 25.4 30.0485 0
    endloop
  endfacet
  facet normal -0.866022 0.500005 0
    outer loop
      vertex 7.44797 24.2156 0
      vertex 8.77549 26.5149 76.2
      vertex 8.77549 26.5149 0
    endloop
  endfacet
  facet normal -0.866022 0.500005 0
    outer loop
      vertex 8.77549 26.5149 76.2
      vertex 7.44797 24.2156 0
      vertex 7.44797 24.2156 76.2
    endloop
  endfacet
  facet normal -0.743142 0.669133 0
    outer loop
      vertex 8.77549 26.5149 0
      vertex 10.552 28.4879 76.2
      vertex 10.552 28.4879 0
    endloop
  endfacet
  facet normal -0.743142 0.669133 0
    outer loop
      vertex 10.552 28.4879 76.2
      vertex 8.77549 26.5149 0
      vertex 8.77549 26.5149 76.2
    endloop
  endfacet
  facet normal -0.951058 0.309012 0
    outer loop
      vertex 6.62753 21.6905 0
      vertex 7.44797 24.2156 76.2
      vertex 7.44797 24.2156 0
    endloop
  endfacet
  facet normal -0.951058 0.309012 0
    outer loop
      vertex 7.44797 24.2156 76.2
      vertex 6.62753 21.6905 0
      vertex 6.62753 21.6905 76.2
    endloop
  endfacet
  facet normal 0 0 1
    outer loop
      vertex 22.225 12.7 76.2
      vertex 31.75 19.05 76.2
      vertex 31.4725 21.6905 76.2
    endloop
  endfacet
  facet normal 0 0 1
    outer loop
      vertex 22.225 12.7 76.2
      vertex 31.4725 21.6905 76.2
      vertex 30.652 24.2156 76.2
    endloop
  endfacet
  facet normal 0 0 1
    outer loop
      vertex 31.75 19.05 76.2
      vertex 22.225 12.7 76.2
      vertex 31.4725 16.4095 76.2
    endloop
  endfacet
  facet normal 0 0 1
    outer loop
      vertex 22.225 12.7 76.2
      vertex 30.652 24.2156 76.2
      vertex 29.3245 26.5149 76.2
    endloop
  endfacet
  facet normal 0 0 1
    outer loop
      vertex 31.4725 16.4095 76.2
      vertex 22.225 12.7 76.2
      vertex 30.652 13.8844 76.2
    endloop
  endfacet
  facet normal 0 0 1
    outer loop
      vertex 22.225 12.7 76.2
      vertex 29.3245 26.5149 76.2
      vertex 27.548 28.4879 76.2
    endloop
  endfacet
  facet normal 0 0 1
    outer loop
      vertex 30.652 13.8844 76.2
      vertex 22.225 12.7 76.2
      vertex 29.3245 11.5851 76.2
    endloop
  endfacet
  facet normal 0 0 1
    outer loop
      vertex 22.225 12.7 76.2
      vertex 27.548 28.4879 76.2
      vertex 25.4 30.0485 76.2
    endloop
  endfacet
  facet normal 0 0 1
    outer loop
      vertex 29.3245 11.5851 76.2
      vertex 22.225 12.7 76.2
      vertex 27.548 9.61206 76.2
    endloop
  endfacet
  facet normal 0 0 1
    outer loop
      vertex 22.225 12.7 76.2
      vertex 25.4 30.0485 76.2
      vertex 22.9745 31.1284 76.2
    endloop
  endfacet
  facet normal 0 0 1
    outer loop
      vertex 27.548 9.61206 76.2
      vertex 22.225 12.7 76.2
      vertex 25.4 8.05148 76.2
    endloop
  endfacet
  facet normal 0 0 1
    outer loop
      vertex 25.4 8.05148 76.2
      vertex 22.225 12.7 76.2
      vertex 22.9745 6.97158 76.2
    endloop
  endfacet
  facet normal 0 0 1
    outer loop
      vertex 20.3775 31.6804 76.2
      vertex 22.225 12.7 76.2
      vertex 22.9745 31.1284 76.2
    endloop
  endfacet
  facet normal -0 0 1
    outer loop
      vertex 17.7225 31.6804 76.2
      vertex 22.225 12.7 76.2
      vertex 20.3775 31.6804 76.2
    endloop
  endfacet
  facet normal 0 0 1
    outer loop
      vertex 17.7225 31.6804 76.2
      vertex 15.875 12.7 76.2
      vertex 22.225 12.7 76.2
    endloop
  endfacet
  facet normal -0 0 1
    outer loop
      vertex 15.1255 31.1284 76.2
      vertex 15.875 12.7 76.2
      vertex 17.7225 31.6804 76.2
    endloop
  endfacet
  facet normal -0 0 1
    outer loop
      vertex 12.7 30.0485 76.2
      vertex 15.875 12.7 76.2
      vertex 15.1255 31.1284 76.2
    endloop
  endfacet
  facet normal -0 0 1
    outer loop
      vertex 10.552 28.4879 76.2
      vertex 15.875 12.7 76.2
      vertex 12.7 30.0485 76.2
    endloop
  endfacet
  facet normal -0 0 1
    outer loop
      vertex 8.77549 26.5149 76.2
      vertex 15.875 12.7 76.2
      vertex 10.552 28.4879 76.2
    endloop
  endfacet
  facet normal 0 0 1
    outer loop
      vertex 15.875 12.7 76.2
      vertex 15.1255 6.97158 76.2
      vertex 15.875 6.81227 76.2
    endloop
  endfacet
  facet normal 0 -0 1
    outer loop
      vertex 12.7 8.05148 76.2
      vertex 15.875 12.7 76.2
      vertex 10.552 9.61206 76.2
    endloop
  endfacet
  facet normal 0 -0 1
    outer loop
      vertex 15.1255 6.97158 76.2
      vertex 15.875 12.7 76.2
      vertex 12.7 8.05148 76.2
    endloop
  endfacet
  facet normal -0 0 1
    outer loop
      vertex 7.44797 24.2156 76.2
      vertex 15.875 12.7 76.2
      vertex 8.77549 26.5149 76.2
    endloop
  endfacet
  facet normal 0 0 1
    outer loop
      vertex 15.875 12.7 76.2
      vertex 8.77549 11.5851 76.2
      vertex 10.552 9.61206 76.2
    endloop
  endfacet
  facet normal -0 0 1
    outer loop
      vertex 6.62753 21.6905 76.2
      vertex 15.875 12.7 76.2
      vertex 7.44797 24.2156 76.2
    endloop
  endfacet
  facet normal 0 0 1
    outer loop
      vertex 15.875 12.7 76.2
      vertex 7.44797 13.8844 76.2
      vertex 8.77549 11.5851 76.2
    endloop
  endfacet
  facet normal -0 0 1
    outer loop
      vertex 6.35 19.05 76.2
      vertex 15.875 12.7 76.2
      vertex 6.62753 21.6905 76.2
    endloop
  endfacet
  facet normal 0 0 1
    outer loop
      vertex 15.875 12.7 76.2
      vertex 6.62753 16.4095 76.2
      vertex 7.44797 13.8844 76.2
    endloop
  endfacet
  facet normal 0 0 1
    outer loop
      vertex 15.875 12.7 76.2
      vertex 6.35 19.05 76.2
      vertex 6.62753 16.4095 76.2
    endloop
  endfacet
  facet normal 0 0 1
    outer loop
      vertex 22.9745 6.97158 76.2
      vertex 22.225 12.7 76.2
      vertex 22.225 6.81227 76.2
    endloop
  endfacet
  facet normal -0.406736 0.913546 0
    outer loop
      vertex 15.1255 31.1284 0
      vertex 12.7 30.0485 76.2
      vertex 15.1255 31.1284 76.2
    endloop
  endfacet
  facet normal -0.406736 0.913546 0
    outer loop
      vertex 12.7 30.0485 76.2
      vertex 15.1255 31.1284 0
      vertex 12.7 30.0485 0
    endloop
  endfacet
  facet normal 0.994523 -0.104518 0
    outer loop
      vertex 31.4725 16.4095 76.2
      vertex 31.75 19.05 0
      vertex 31.75 19.05 76.2
    endloop
  endfacet
  facet normal 0.994523 -0.104518 0
    outer loop
      vertex 31.75 19.05 0
      vertex 31.4725 16.4095 76.2
      vertex 31.4725 16.4095 0
    endloop
  endfacet
  facet normal 0 0 -1
    outer loop
      vertex 15.875 6.81227 0
      vertex 15.1255 6.97158 0
      vertex 15.875 12.7 0
    endloop
  endfacet
  facet normal 0 0 -1
    outer loop
      vertex 22.225 12.7 0
      vertex 31.75 19.05 0
      vertex 31.4725 16.4095 0
    endloop
  endfacet
  facet normal 0 0 -1
    outer loop
      vertex 22.225 12.7 0
      vertex 31.4725 16.4095 0
      vertex 30.652 13.8844 0
    endloop
  endfacet
  facet normal -0 0 -1
    outer loop
      vertex 31.75 19.05 0
      vertex 22.225 12.7 0
      vertex 31.4725 21.6905 0
    endloop
  endfacet
  facet normal 0 0 -1
    outer loop
      vertex 22.225 12.7 0
      vertex 30.652 13.8844 0
      vertex 29.3245 11.5851 0
    endloop
  endfacet
  facet normal -0 0 -1
    outer loop
      vertex 31.4725 21.6905 0
      vertex 22.225 12.7 0
      vertex 30.652 24.2156 0
    endloop
  endfacet
  facet normal 0 0 -1
    outer loop
      vertex 22.225 12.7 0
      vertex 29.3245 11.5851 0
      vertex 27.548 9.61206 0
    endloop
  endfacet
  facet normal -0 0 -1
    outer loop
      vertex 30.652 24.2156 0
      vertex 22.225 12.7 0
      vertex 29.3245 26.5149 0
    endloop
  endfacet
  facet normal 0 0 -1
    outer loop
      vertex 22.225 12.7 0
      vertex 27.548 9.61206 0
      vertex 25.4 8.05148 0
    endloop
  endfacet
  facet normal -0 0 -1
    outer loop
      vertex 29.3245 26.5149 0
      vertex 22.225 12.7 0
      vertex 27.548 28.4879 0
    endloop
  endfacet
  facet normal 0 0 -1
    outer loop
      vertex 22.225 12.7 0
      vertex 25.4 8.05148 0
      vertex 22.9745 6.97158 0
    endloop
  endfacet
  facet normal -0 0 -1
    outer loop
      vertex 27.548 28.4879 0
      vertex 22.225 12.7 0
      vertex 25.4 30.0485 0
    endloop
  endfacet
  facet normal 0 0 -1
    outer loop
      vertex 22.225 12.7 0
      vertex 22.9745 6.97158 0
      vertex 22.225 6.81227 0
    endloop
  endfacet
  facet normal -0 0 -1
    outer loop
      vertex 25.4 30.0485 0
      vertex 22.225 12.7 0
      vertex 22.9745 31.1284 0
    endloop
  endfacet
  facet normal 0 0 -1
    outer loop
      vertex 22.225 12.7 0
      vertex 20.3775 31.6804 0
      vertex 22.9745 31.1284 0
    endloop
  endfacet
  facet normal 0 0 -1
    outer loop
      vertex 22.225 12.7 0
      vertex 17.7225 31.6804 0
      vertex 20.3775 31.6804 0
    endloop
  endfacet
  facet normal 0 0 -1
    outer loop
      vertex 15.875 12.7 0
      vertex 17.7225 31.6804 0
      vertex 22.225 12.7 0
    endloop
  endfacet
  facet normal 0 0 -1
    outer loop
      vertex 12.7 8.05148 0
      vertex 15.875 12.7 0
      vertex 15.1255 6.97158 0
    endloop
  endfacet
  facet normal 0 0 -1
    outer loop
      vertex 15.875 12.7 0
      vertex 15.1255 31.1284 0
      vertex 17.7225 31.6804 0
    endloop
  endfacet
  facet normal 0 0 -1
    outer loop
      vertex 10.552 9.61206 0
      vertex 15.875 12.7 0
      vertex 12.7 8.05148 0
    endloop
  endfacet
  facet normal 0 0 -1
    outer loop
      vertex 15.875 12.7 0
      vertex 12.7 30.0485 0
      vertex 15.1255 31.1284 0
    endloop
  endfacet
  facet normal 0 0 -1
    outer loop
      vertex 8.77549 11.5851 0
      vertex 15.875 12.7 0
      vertex 10.552 9.61206 0
    endloop
  endfacet
  facet normal 0 0 -1
    outer loop
      vertex 15.875 12.7 0
      vertex 10.552 28.4879 0
      vertex 12.7 30.0485 0
    endloop
  endfacet
  facet normal 0 0 -1
    outer loop
      vertex 7.44797 13.8844 0
      vertex 15.875 12.7 0
      vertex 8.77549 11.5851 0
    endloop
  endfacet
  facet normal 0 0 -1
    outer loop
      vertex 15.875 12.7 0
      vertex 8.77549 26.5149 0
      vertex 10.552 28.4879 0
    endloop
  endfacet
  facet normal 0 0 -1
    outer loop
      vertex 6.62753 16.4095 0
      vertex 15.875 12.7 0
      vertex 7.44797 13.8844 0
    endloop
  endfacet
  facet normal 0 0 -1
    outer loop
      vertex 15.875 12.7 0
      vertex 7.44797 24.2156 0
      vertex 8.77549 26.5149 0
    endloop
  endfacet
  facet normal 0 0 -1
    outer loop
      vertex 6.35 19.05 0
      vertex 15.875 12.7 0
      vertex 6.62753 16.4095 0
    endloop
  endfacet
  facet normal 0 0 -1
    outer loop
      vertex 15.875 12.7 0
      vertex 6.62753 21.6905 0
      vertex 7.44797 24.2156 0
    endloop
  endfacet
  facet normal 0 0 -1
    outer loop
      vertex 15.875 12.7 0
      vertex 6.35 19.05 0
      vertex 6.62753 21.6905 0
    endloop
  endfacet
  facet normal 0.20791 -0.978148 0
    outer loop
      vertex 22.225 6.81227 0
      vertex 22.9745 6.97158 76.2
      vertex 22.225 6.81227 76.2
    endloop
  endfacet
  facet normal 0.20791 -0.978148 0
    outer loop
      vertex 22.9745 6.97158 76.2
      vertex 22.225 6.81227 0
      vertex 22.9745 6.97158 0
    endloop
  endfacet
  facet normal 0.866026 -0.5 0
    outer loop
      vertex 29.3245 11.5851 76.2
      vertex 30.652 13.8844 0
      vertex 30.652 13.8844 76.2
    endloop
  endfacet
  facet normal 0.866026 -0.5 0
    outer loop
      vertex 30.652 13.8844 0
      vertex 29.3245 11.5851 76.2
      vertex 29.3245 11.5851 0
    endloop
  endfacet
  facet normal -0.587777 -0.809023 0
    outer loop
      vertex 10.552 9.61206 0
      vertex 12.7 8.05148 76.2
      vertex 10.552 9.61206 76.2
    endloop
  endfacet
  facet normal -0.587777 -0.809023 -0
    outer loop
      vertex 12.7 8.05148 76.2
      vertex 10.552 9.61206 0
      vertex 12.7 8.05148 0
    endloop
  endfacet
  facet normal -0.866022 -0.500005 0
    outer loop
      vertex 8.77549 11.5851 0
      vertex 7.44797 13.8844 76.2
      vertex 7.44797 13.8844 0
    endloop
  endfacet
  facet normal -0.866022 -0.500005 0
    outer loop
      vertex 7.44797 13.8844 76.2
      vertex 8.77549 11.5851 0
      vertex 8.77549 11.5851 76.2
    endloop
  endfacet
  facet normal -0.743149 -0.669126 0
    outer loop
      vertex 10.552 9.61206 0
      vertex 8.77549 11.5851 76.2
      vertex 8.77549 11.5851 0
    endloop
  endfacet
  facet normal -0.743149 -0.669126 0
    outer loop
      vertex 8.77549 11.5851 76.2
      vertex 10.552 9.61206 0
      vertex 10.552 9.61206 76.2
    endloop
  endfacet
  facet normal 0.587777 -0.809023 0
    outer loop
      vertex 25.4 8.05148 0
      vertex 27.548 9.61206 76.2
      vertex 25.4 8.05148 76.2
    endloop
  endfacet
  facet normal 0.587777 -0.809023 0
    outer loop
      vertex 27.548 9.61206 76.2
      vertex 25.4 8.05148 0
      vertex 27.548 9.61206 0
    endloop
  endfacet
  facet normal 0.406736 -0.913546 0
    outer loop
      vertex 22.9745 6.97158 0
      vertex 25.4 8.05148 76.2
      vertex 22.9745 6.97158 76.2
    endloop
  endfacet
  facet normal 0.406736 -0.913546 0
    outer loop
      vertex 25.4 8.05148 76.2
      vertex 22.9745 6.97158 0
      vertex 25.4 8.05148 0
    endloop
  endfacet
  facet normal 0.951052 -0.309032 0
    outer loop
      vertex 30.652 13.8844 76.2
      vertex 31.4725 16.4095 0
      vertex 31.4725 16.4095 76.2
    endloop
  endfacet
  facet normal 0.951052 -0.309032 0
    outer loop
      vertex 31.4725 16.4095 0
      vertex 30.652 13.8844 76.2
      vertex 30.652 13.8844 0
    endloop
  endfacet
  facet normal -0.20791 -0.978148 0
    outer loop
      vertex 15.1255 6.97158 0
      vertex 15.875 6.81227 76.2
      vertex 15.1255 6.97158 76.2
    endloop
  endfacet
  facet normal -0.20791 -0.978148 -0
    outer loop
      vertex 15.875 6.81227 76.2
      vertex 15.1255 6.97158 0
      vertex 15.875 6.81227 0
    endloop
  endfacet
  facet normal -0.951058 -0.309012 0
    outer loop
      vertex 7.44797 13.8844 0
      vertex 6.62753 16.4095 76.2
      vertex 6.62753 16.4095 0
    endloop
  endfacet
  facet normal -0.951058 -0.309012 0
    outer loop
      vertex 6.62753 16.4095 76.2
      vertex 7.44797 13.8844 0
      vertex 7.44797 13.8844 76.2
    endloop
  endfacet
  facet normal -0.994522 -0.104529 0
    outer loop
      vertex 6.62753 16.4095 0
      vertex 6.35 19.05 76.2
      vertex 6.35 19.05 0
    endloop
  endfacet
  facet normal -0.994522 -0.104529 0
    outer loop
      vertex 6.35 19.05 76.2
      vertex 6.62753 16.4095 0
      vertex 6.62753 16.4095 76.2
    endloop
  endfacet
  facet normal 0.743151 -0.669124 0
    outer loop
      vertex 27.548 9.61206 76.2
      vertex 29.3245 11.5851 0
      vertex 29.3245 11.5851 76.2
    endloop
  endfacet
  facet normal 0.743151 -0.669124 0
    outer loop
      vertex 29.3245 11.5851 0
      vertex 27.548 9.61206 76.2
      vertex 27.548 9.61206 0
    endloop
  endfacet
  facet normal -0.406736 -0.913546 0
    outer loop
      vertex 12.7 8.05148 0
      vertex 15.1255 6.97158 76.2
      vertex 12.7 8.05148 76.2
    endloop
  endfacet
  facet normal -0.406736 -0.913546 -0
    outer loop
      vertex 15.1255 6.97158 76.2
      vertex 12.7 8.05148 0
      vertex 15.1255 6.97158 0
    endloop
  endfacet
  facet normal 1 -0 0
    outer loop
      vertex 15.875 6.81227 76.2
      vertex 15.875 12.7 0
      vertex 15.875 12.7 76.2
    endloop
  endfacet
  facet normal 1 0 0
    outer loop
      vertex 15.875 12.7 0
      vertex 15.875 6.81227 76.2
      vertex 15.875 6.81227 0
    endloop
  endfacet
  facet normal -1 0 0
    outer loop
      vertex 22.225 6.81227 0
      vertex 22.225 12.7 76.2
      vertex 22.225 12.7 0
    endloop
  endfacet
  facet normal -1 -0 0
    outer loop
      vertex 22.225 12.7 76.2
      vertex 22.225 6.81227 0
      vertex 22.225 6.81227 76.2
    endloop
  endfacet
  facet normal 0 -1 0
    outer loop
      vertex 15.875 12.7 0
      vertex 22.225 12.7 76.2
      vertex 15.875 12.7 76.2
    endloop
  endfacet
  facet normal 0 -1 -0
    outer loop
      vertex 22.225 12.7 76.2
      vertex 15.875 12.7 0
      vertex 22.225 12.7 0
    endloop
  endfacet
endsolid OpenSCAD_Model
