solid OpenSCAD_Model
  facet normal 0 0 -1
    outer loop
      vertex 1219.2 0 0
      vertex 0 0 0
      vertex 0 19.05 0
    endloop
  endfacet
  facet normal 0 0 -1
    outer loop
      vertex 1219.2 0 0
      vertex 0 19.05 0
      vertex 1219.2 19.05 0
    endloop
  endfacet
  facet normal 0 0 1
    outer loop
      vertex 0 19.05 2438.4
      vertex 0 0 2438.4
      vertex 1219.2 0 2438.4
    endloop
  endfacet
  facet normal 0 0 1
    outer loop
      vertex 1219.2 19.05 2438.4
      vertex 0 19.05 2438.4
      vertex 1219.2 0 2438.4
    endloop
  endfacet
  facet normal 0 -1 0
    outer loop
      vertex 1219.2 0 0
      vertex 0 0 2438.4
      vertex 0 0 0
    endloop
  endfacet
  facet normal 0 -1 0
    outer loop
      vertex 1219.2 0 0
      vertex 1219.2 0 2438.4
      vertex 0 0 2438.4
    endloop
  endfacet
  facet normal 1 0 0
    outer loop
      vertex 1219.2 19.05 0
      vertex 1219.2 0 2438.4
      vertex 1219.2 0 0
    endloop
  endfacet
  facet normal 1 0 -0
    outer loop
      vertex 1219.2 19.05 0
      vertex 1219.2 19.05 2438.4
      vertex 1219.2 0 2438.4
    endloop
  endfacet
  facet normal 0 1 0
    outer loop
      vertex 0 19.05 0
      vertex 1219.2 19.05 2438.4
      vertex 1219.2 19.05 0
    endloop
  endfacet
  facet normal 0 1 0
    outer loop
      vertex 0 19.05 0
      vertex 0 19.05 2438.4
      vertex 1219.2 19.05 2438.4
    endloop
  endfacet
  facet normal -1 0 0
    outer loop
      vertex 0 0 0
      vertex 0 19.05 2438.4
      vertex 0 19.05 0
    endloop
  endfacet
  facet normal -1 0 0
    outer loop
      vertex 0 0 0
      vertex 0 0 2438.4
      vertex 0 19.05 2438.4
    endloop
  endfacet
endsolid OpenSCAD_Model
