solid OpenSCAD_Model
  facet normal -1 0 0
    outer loop
      vertex -12.5 12.9214 0
      vertex -12.5 111.5 3
      vertex -12.5 111.5 0
    endloop
  endfacet
  facet normal -1 -0 0
    outer loop
      vertex -12.5 111.5 3
      vertex -12.5 12.9214 0
      vertex -12.5 12.9214 3
    endloop
  endfacet
  facet normal 0 0 1
    outer loop
      vertex 137.5 112.5 3
      vertex 113.079 -12.5 3
      vertex 137.5 11.9214 3
    endloop
  endfacet
  facet normal 0 0 1
    outer loop
      vertex 112.5 137.5 3
      vertex 113.079 -12.5 3
      vertex 137.5 112.5 3
    endloop
  endfacet
  facet normal -0 0 1
    outer loop
      vertex 13.5 137.5 3
      vertex 113.079 -12.5 3
      vertex 112.5 137.5 3
    endloop
  endfacet
  facet normal 0 0 1
    outer loop
      vertex 13.5 137.5 3
      vertex 12.9214 -12.5 3
      vertex 113.079 -12.5 3
    endloop
  endfacet
  facet normal -0 0 1
    outer loop
      vertex -12.5 111.5 3
      vertex 12.9214 -12.5 3
      vertex 13.5 137.5 3
    endloop
  endfacet
  facet normal 0 0 1
    outer loop
      vertex 12.9214 -12.5 3
      vertex -12.5 111.5 3
      vertex -12.5 12.9214 3
    endloop
  endfacet
  facet normal 1 -0 0
    outer loop
      vertex 137.5 11.9214 3
      vertex 137.5 112.5 0
      vertex 137.5 112.5 3
    endloop
  endfacet
  facet normal 1 0 0
    outer loop
      vertex 137.5 112.5 0
      vertex 137.5 11.9214 3
      vertex 137.5 11.9214 0
    endloop
  endfacet
  facet normal 0 0 -1
    outer loop
      vertex 113.079 -12.5 0
      vertex 137.5 112.5 0
      vertex 137.5 11.9214 0
    endloop
  endfacet
  facet normal 0 0 -1
    outer loop
      vertex 113.079 -12.5 0
      vertex 112.5 137.5 0
      vertex 137.5 112.5 0
    endloop
  endfacet
  facet normal 0 0 -1
    outer loop
      vertex 113.079 -12.5 0
      vertex 13.5 137.5 0
      vertex 112.5 137.5 0
    endloop
  endfacet
  facet normal 0 0 -1
    outer loop
      vertex 12.9214 -12.5 0
      vertex 13.5 137.5 0
      vertex 113.079 -12.5 0
    endloop
  endfacet
  facet normal 0 0 -1
    outer loop
      vertex -12.5 12.9214 0
      vertex 13.5 137.5 0
      vertex 12.9214 -12.5 0
    endloop
  endfacet
  facet normal 0 0 -1
    outer loop
      vertex 13.5 137.5 0
      vertex -12.5 12.9214 0
      vertex -12.5 111.5 0
    endloop
  endfacet
  facet normal 0 -1 0
    outer loop
      vertex 12.9214 -12.5 0
      vertex 113.079 -12.5 3
      vertex 12.9214 -12.5 3
    endloop
  endfacet
  facet normal 0 -1 -0
    outer loop
      vertex 113.079 -12.5 3
      vertex 12.9214 -12.5 0
      vertex 113.079 -12.5 0
    endloop
  endfacet
  facet normal 0 1 -0
    outer loop
      vertex 112.5 137.5 0
      vertex 13.5 137.5 3
      vertex 112.5 137.5 3
    endloop
  endfacet
  facet normal 0 1 0
    outer loop
      vertex 13.5 137.5 3
      vertex 112.5 137.5 0
      vertex 13.5 137.5 0
    endloop
  endfacet
  facet normal -0.707107 0.707107 0
    outer loop
      vertex -12.5 111.5 0
      vertex 13.5 137.5 3
      vertex 13.5 137.5 0
    endloop
  endfacet
  facet normal -0.707107 0.707107 0
    outer loop
      vertex 13.5 137.5 3
      vertex -12.5 111.5 0
      vertex -12.5 111.5 3
    endloop
  endfacet
  facet normal 0.707107 0.707107 0
    outer loop
      vertex 137.5 112.5 3
      vertex 112.5 137.5 0
      vertex 112.5 137.5 3
    endloop
  endfacet
  facet normal 0.707107 0.707107 0
    outer loop
      vertex 112.5 137.5 0
      vertex 137.5 112.5 3
      vertex 137.5 112.5 0
    endloop
  endfacet
  facet normal -0.707107 -0.707107 0
    outer loop
      vertex 12.9214 -12.5 0
      vertex -12.5 12.9214 3
      vertex -12.5 12.9214 0
    endloop
  endfacet
  facet normal -0.707107 -0.707107 0
    outer loop
      vertex -12.5 12.9214 3
      vertex 12.9214 -12.5 0
      vertex 12.9214 -12.5 3
    endloop
  endfacet
  facet normal 0.707113 -0.707101 0
    outer loop
      vertex 113.079 -12.5 3
      vertex 137.5 11.9214 0
      vertex 137.5 11.9214 3
    endloop
  endfacet
  facet normal 0.707113 -0.707101 0
    outer loop
      vertex 137.5 11.9214 0
      vertex 113.079 -12.5 3
      vertex 113.079 -12.5 0
    endloop
  endfacet
endsolid OpenSCAD_Model
