  0
SECTION
  2
HEADER
  9
$ACADVER
  1
AC1024
  9
$ACADMAINTVER
 70
     6
  9
$DWGCODEPAGE
  3
ANSI_1252
  9
$INSBASE
 10
0.0
 20
0.0
 30
0.0
  9
$EXTMIN
 10
1.000000000000000E+20
 20
1.000000000000000E+20
 30
1.000000000000000E+20
  9
$EXTMAX
 10
-1.000000000000000E+20
 20
-1.000000000000000E+20
 30
-1.000000000000000E+20
  9
$LIMMIN
 10
0.0
 20
0.0
  9
$LIMMAX
 10
12.0
 20
9.0
  9
$ORTHOMODE
 70
     0
  9
$REGENMODE
 70
     1
  9
$FILLMODE
 70
     1
  9
$QTEXTMODE
 70
     0
  9
$MIRRTEXT
 70
     1
  9
$LTSCALE
 40
1.0
  9
$ATTMODE
 70
     1
  9
$TEXTSIZE
 40
0.2
  9
$TRACEWID
 40
0.05
  9
$TEXTSTYLE
  7
Standard
  9
$CLAYER
  8
0
  9
$CELTYPE
  6
ByLayer
  9
$CECOLOR
 62
   256
  9
$CELTSCALE
 40
1.0
  9
$DISPSILH
 70
     0
  9
$DIMSCALE
 40
1.0
  9
$DIMASZ
 40
0.18
  9
$DIMEXO
 40
0.0625
  9
$DIMDLI
 40
0.38
  9
$DIMRND
 40
0.0
  9
$DIMDLE
 40
0.0
  9
$DIMEXE
 40
0.18
  9
$DIMTP
 40
0.0
  9
$DIMTM
 40
0.0
  9
$DIMTXT
 40
0.18
  9
$DIMCEN
 40
0.09
  9
$DIMTSZ
 40
0.0
  9
$DIMTOL
 70
     0
  9
$DIMLIM
 70
     0
  9
$DIMTIH
 70
     1
  9
$DIMTOH
 70
     1
  9
$DIMSE1
 70
     0
  9
$DIMSE2
 70
     0
  9
$DIMTAD
 70
     0
  9
$DIMZIN
 70
     0
  9
$DIMBLK
  1

  9
$DIMASO
 70
     1
  9
$DIMSHO
 70
     1
  9
$DIMPOST
  1

  9
$DIMAPOST
  1

  9
$DIMALT
 70
     0
  9
$DIMALTD
 70
     2
  9
$DIMALTF
 40
25.4
  9
$DIMLFAC
 40
1.0
  9
$DIMTOFL
 70
     0
  9
$DIMTVP
 40
0.0
  9
$DIMTIX
 70
     0
  9
$DIMSOXD
 70
     0
  9
$DIMSAH
 70
     0
  9
$DIMBLK1
  1

  9
$DIMBLK2
  1

  9
$DIMSTYLE
  2
Standard
  9
$DIMCLRD
 70
     0
  9
$DIMCLRE
 70
     0
  9
$DIMCLRT
 70
     0
  9
$DIMTFAC
 40
1.0
  9
$DIMGAP
 40
0.09
  9
$DIMJUST
 70
     0
  9
$DIMSD1
 70
     0
  9
$DIMSD2
 70
     0
  9
$DIMTOLJ
 70
     1
  9
$DIMTZIN
 70
     0
  9
$DIMALTZ
 70
     0
  9
$DIMALTTZ
 70
     0
  9
$DIMUPT
 70
     0
  9
$DIMDEC
 70
     4
  9
$DIMTDEC
 70
     4
  9
$DIMALTU
 70
     2
  9
$DIMALTTD
 70
     2
  9
$DIMTXSTY
  7
Standard
  9
$DIMAUNIT
 70
     0
  9
$DIMADEC
 70
     0
  9
$DIMALTRND
 40
0.0
  9
$DIMAZIN
 70
     0
  9
$DIMDSEP
 70
    46
  9
$DIMATFIT
 70
     3
  9
$DIMFRAC
 70
     0
  9
$DIMLDRBLK
  1

  9
$DIMLUNIT
 70
     2
  9
$DIMLWD
 70
    -2
  9
$DIMLWE
 70
    -2
  9
$DIMTMOVE
 70
     0
  9
$DIMFXL
 40
1.0
  9
$DIMFXLON
 70
     0
  9
$DIMJOGANG
 40
0.7853981633974483
  9
$DIMTFILL
 70
     0
  9
$DIMTFILLCLR
 70
     0
  9
$DIMARCSYM
 70
     0
  9
$DIMLTYPE
  6

  9
$DIMLTEX1
  6

  9
$DIMLTEX2
  6

  9
$DIMTXTDIRECTION
 70
     0
  9
$LUNITS
 70
     2
  9
$LUPREC
 70
     4
  9
$SKETCHINC
 40
0.1
  9
$FILLETRAD
 40
0.5
  9
$AUNITS
 70
     0
  9
$AUPREC
 70
     0
  9
$MENU
  1
.
  9
$ELEVATION
 40
0.0
  9
$PELEVATION
 40
0.0
  9
$THICKNESS
 40
0.0
  9
$LIMCHECK
 70
     0
  9
$CHAMFERA
 40
0.5
  9
$CHAMFERB
 40
0.5
  9
$CHAMFERC
 40
1.0
  9
$CHAMFERD
 40
0.0
  9
$SKPOLY
 70
     0
  9
$TDCREATE
 40
2457920.442937824
  9
$TDUCREATE
 40
2457920.359604491
  9
$TDUPDATE
 40
2457920.442937963
  9
$TDUUPDATE
 40
2457920.35960463
  9
$TDINDWG
 40
0.0000000116
  9
$TDUSRTIMER
 40
0.0000000116
  9
$USRTIMER
 70
     1
  9
$ANGBASE
 50
0.0
  9
$ANGDIR
 70
     0
  9
$PDMODE
 70
     0
  9
$PDSIZE
 40
0.0
  9
$PLINEWID
 40
0.0
  9
$SPLFRAME
 70
     0
  9
$SPLINETYPE
 70
     6
  9
$SPLINESEGS
 70
     8
  9
$HANDSEED
  5
556
  9
$SURFTAB1
 70
     6
  9
$SURFTAB2
 70
     6
  9
$SURFTYPE
 70
     6
  9
$SURFU
 70
     6
  9
$SURFV
 70
     6
  9
$UCSBASE
  2

  9
$UCSNAME
  2

  9
$UCSORG
 10
0.0
 20
0.0
 30
0.0
  9
$UCSXDIR
 10
1.0
 20
0.0
 30
0.0
  9
$UCSYDIR
 10
0.0
 20
1.0
 30
0.0
  9
$UCSORTHOREF
  2

  9
$UCSORTHOVIEW
 70
     0
  9
$UCSORGTOP
 10
0.0
 20
0.0
 30
0.0
  9
$UCSORGBOTTOM
 10
0.0
 20
0.0
 30
0.0
  9
$UCSORGLEFT
 10
0.0
 20
0.0
 30
0.0
  9
$UCSORGRIGHT
 10
0.0
 20
0.0
 30
0.0
  9
$UCSORGFRONT
 10
0.0
 20
0.0
 30
0.0
  9
$UCSORGBACK
 10
0.0
 20
0.0
 30
0.0
  9
$PUCSBASE
  2

  9
$PUCSNAME
  2

  9
$PUCSORG
 10
0.0
 20
0.0
 30
0.0
  9
$PUCSXDIR
 10
1.0
 20
0.0
 30
0.0
  9
$PUCSYDIR
 10
0.0
 20
1.0
 30
0.0
  9
$PUCSORTHOREF
  2

  9
$PUCSORTHOVIEW
 70
     0
  9
$PUCSORGTOP
 10
0.0
 20
0.0
 30
0.0
  9
$PUCSORGBOTTOM
 10
0.0
 20
0.0
 30
0.0
  9
$PUCSORGLEFT
 10
0.0
 20
0.0
 30
0.0
  9
$PUCSORGRIGHT
 10
0.0
 20
0.0
 30
0.0
  9
$PUCSORGFRONT
 10
0.0
 20
0.0
 30
0.0
  9
$PUCSORGBACK
 10
0.0
 20
0.0
 30
0.0
  9
$USERI1
 70
     0
  9
$USERI2
 70
     0
  9
$USERI3
 70
     0
  9
$USERI4
 70
     0
  9
$USERI5
 70
     0
  9
$USERR1
 40
0.0
  9
$USERR2
 40
0.0
  9
$USERR3
 40
0.0
  9
$USERR4
 40
0.0
  9
$USERR5
 40
0.0
  9
$WORLDVIEW
 70
     1
  9
$SHADEDGE
 70
     3
  9
$SHADEDIF
 70
    70
  9
$TILEMODE
 70
     1
  9
$MAXACTVP
 70
    64
  9
$PINSBASE
 10
0.0
 20
0.0
 30
0.0
  9
$PLIMCHECK
 70
     0
  9
$PEXTMIN
 10
1.000000000000000E+20
 20
1.000000000000000E+20
 30
1.000000000000000E+20
  9
$PEXTMAX
 10
-1.000000000000000E+20
 20
-1.000000000000000E+20
 30
-1.000000000000000E+20
  9
$PLIMMIN
 10
0.0
 20
0.0
  9
$PLIMMAX
 10
12.0
 20
9.0
  9
$UNITMODE
 70
     0
  9
$VISRETAIN
 70
     1
  9
$PLINEGEN
 70
     0
  9
$PSLTSCALE
 70
     1
  9
$TREEDEPTH
 70
  3020
  9
$CMLSTYLE
  2
Standard
  9
$CMLJUST
 70
     0
  9
$CMLSCALE
 40
1.0
  9
$PROXYGRAPHICS
 70
     1
  9
$MEASUREMENT
 70
     0
  9
$CELWEIGHT
370
    -1
  9
$ENDCAPS
280
     0
  9
$JOINSTYLE
280
     0
  9
$LWDISPLAY
290
     1
  9
$INSUNITS
 70
     1
  9
$HYPERLINKBASE
  1

  9
$STYLESHEET
  1

  9
$XEDIT
290
     1
  9
$CEPSNTYPE
380
     0
  9
$PSTYLEMODE
290
     1
  9
$FINGERPRINTGUID
  2
{63EE8B5A-223D-4B10-B2F6-AE4011789C4D}
  9
$VERSIONGUID
  2
{FAEB1C32-E019-11D5-929B-00C0DF256EC4}
  9
$EXTNAMES
290
     1
  9
$PSVPSCALE
 40
0.0
  9
$OLESTARTUP
290
     0
  9
$SORTENTS
280
   127
  9
$INDEXCTL
280
     0
  9
$HIDETEXT
280
     1
  9
$XCLIPFRAME
280
     2
  9
$HALOGAP
280
     0
  9
$OBSCOLOR
 70
   257
  9
$OBSLTYPE
280
     0
  9
$INTERSECTIONDISPLAY
280
     0
  9
$INTERSECTIONCOLOR
 70
   257
  9
$DIMASSOC
280
     2
  9
$PROJECTNAME
  1

  9
$CAMERADISPLAY
290
     0
  9
$LENSLENGTH
 40
50.0
  9
$CAMERAHEIGHT
 40
0.0
  9
$STEPSPERSEC
 40
2.0
  9
$STEPSIZE
 40
6.0
  9
$3DDWFPREC
 40
2.0
  9
$PSOLWIDTH
 40
0.25
  9
$PSOLHEIGHT
 40
4.0
  9
$LOFTANG1
 40
1.570796326794897
  9
$LOFTANG2
 40
1.570796326794897
  9
$LOFTMAG1
 40
0.0
  9
$LOFTMAG2
 40
0.0
  9
$LOFTPARAM
 70
     7
  9
$LOFTNORMALS
280
     1
  9
$LATITUDE
 40
37.795
  9
$LONGITUDE
 40
-122.394
  9
$NORTHDIRECTION
 40
0.0
  9
$TIMEZONE
 70
 -8000
  9
$LIGHTGLYPHDISPLAY
280
     1
  9
$TILEMODELIGHTSYNCH
280
     1
  9
$CMATERIAL
347
3C
  9
$SOLIDHIST
280
     1
  9
$SHOWHIST
280
     1
  9
$DWFFRAME
280
     2
  9
$DGNFRAME
280
     2
  9
$REALWORLDSCALE
290
     1
  9
$INTERFERECOLOR
 62
   256
  9
$CSHADOW
280
     0
  9
$SHADOWPLANELOCATION
 40
0.0
  0
ENDSEC
  0
SECTION
  2
CLASSES
  0
CLASS
  1
ACDBDICTIONARYWDFLT
  2
AcDbDictionaryWithDefault
  3
ObjectDBX Classes
 90
        0
 91
        4
280
     0
281
     0
  0
CLASS
  1
VISUALSTYLE
  2
AcDbVisualStyle
  3
ObjectDBX Classes
 90
     4095
 91
        4
280
     0
281
     0
  0
CLASS
  1
MATERIAL
  2
AcDbMaterial
  3
ObjectDBX Classes
 90
     1153
 91
        4
280
     0
281
     0
  0
CLASS
  1
SUN
  2
AcDbSun
  3
SCENEOE
 90
     1024
 91
        4
280
     0
281
     0
  0
ENDSEC
  0
SECTION
  2
TABLES
  0
TABLE
  2
VPORT
  5
8
330
0
100
AcDbSymbolTable
 70
     1
  0
VPORT
  5
29
330
8
100
AcDbSymbolTableRecord
100
AcDbViewportTableRecord
  2
*Active
 70
     0
 10
0.0
 20
0.0
 11
1.0
 21
1.0
 12
0.0
 22
0.0
 13
0.0
 23
0.0
 14
0.5
 24
0.5
 15
0.5
 25
0.5
 16
0.0
 26
0.0
 36
1.0
 17
105.0007777515277
 27
148.5000416295417
 37
0.0
 40
297.0000832590835
 41
0.7070757462376325
 42
50.0
 43
0.0
 44
0.0
 50
0.0
 51
0.0
 71
     0
 72
   100
 73
     1
 74
     3
 75
     0
 76
     0
 77
     0
 78
     0
281
     0
 65
     1
110
0.0
120
0.0
130
0.0
111
1.0
121
0.0
131
0.0
112
0.0
122
1.0
132
0.0
 79
     0
146
0.0
 60
     3
 61
     5
292
     1
282
     1
141
0.0
142
0.0
 63
   250
361
3F
  0
ENDTAB
  0
TABLE
  2
LTYPE
  5
5
330
0
100
AcDbSymbolTable
 70
     1
  0
LTYPE
  5
14
330
5
100
AcDbSymbolTableRecord
100
AcDbLinetypeTableRecord
  2
ByBlock
 70
     0
  3

 72
    65
 73
     0
 40
0.0
  0
LTYPE
  5
15
330
5
100
AcDbSymbolTableRecord
100
AcDbLinetypeTableRecord
  2
ByLayer
 70
     0
  3

 72
    65
 73
     0
 40
0.0
  0
LTYPE
  5
16
330
5
100
AcDbSymbolTableRecord
100
AcDbLinetypeTableRecord
  2
Continuous
 70
     0
  3
Solid line
 72
    65
 73
     0
 40
0.0
  0
ENDTAB
  0
TABLE
  2
LAYER
  5
2
330
0
100
AcDbSymbolTable
 70
     1
  0
LAYER
  5
10
330
2
100
AcDbSymbolTableRecord
100
AcDbLayerTableRecord
  2
0
 70
     0
 62
     7
  6
Continuous
370
    -3
390
F
347
3E
  0
ENDTAB
  0
TABLE
  2
STYLE
  5
3
330
0
100
AcDbSymbolTable
 70
     1
  0
STYLE
  5
11
330
3
100
AcDbSymbolTableRecord
100
AcDbTextStyleTableRecord
  2
Standard
 70
     0
 40
0.0
 41
1.0
 50
0.0
 71
     0
 42
0.2
  3
txt
  4

  0
ENDTAB
  0
TABLE
  2
VIEW
  5
6
330
0
100
AcDbSymbolTable
 70
     0
  0
ENDTAB
  0
TABLE
  2
UCS
  5
7
330
0
100
AcDbSymbolTable
 70
     0
  0
ENDTAB
  0
TABLE
  2
APPID
  5
9
330
0
100
AcDbSymbolTable
 70
     1
  0
APPID
  5
12
330
9
100
AcDbSymbolTableRecord
100
AcDbRegAppTableRecord
  2
ACAD
 70
     0
  0
ENDTAB
  0
TABLE
  2
DIMSTYLE
  5
A
330
0
100
AcDbSymbolTable
 70
     1
100
AcDbDimStyleTable
  0
DIMSTYLE
105
27
330
A
100
AcDbSymbolTableRecord
100
AcDbDimStyleTableRecord
  2
Standard
 70
     0
178
     0
340
11
  0
ENDTAB
  0
TABLE
  2
BLOCK_RECORD
  5
1
330
0
100
AcDbSymbolTable
 70
   165
  0
BLOCK_RECORD
  5
1F
330
1
100
AcDbSymbolTableRecord
100
AcDbBlockTableRecord
  2
*Model_Space
340
22
 70
     0
280
     1
281
     0
  0
BLOCK_RECORD
  5
1B
330
1
100
AcDbSymbolTableRecord
100
AcDbBlockTableRecord
  2
*Paper_Space
340
1E
 70
     0
280
     1
281
     0
  0
BLOCK_RECORD
  5
23
330
1
100
AcDbSymbolTableRecord
100
AcDbBlockTableRecord
  2
*Paper_Space0
340
26
 70
     0
280
     1
281
     0
  0
BLOCK_RECORD
  5
40
330
1
100
AcDbSymbolTableRecord
100
AcDbBlockTableRecord
  2
block 2
340
0
102
{BLKREFS
331
41
102
}
 70
     0
280
     1
281
     0
  0
BLOCK_RECORD
  5
48
330
1
100
AcDbSymbolTableRecord
100
AcDbBlockTableRecord
  2
block 3
340
0
102
{BLKREFS
331
49
102
}
 70
     0
280
     1
281
     0
  0
BLOCK_RECORD
  5
50
330
1
100
AcDbSymbolTableRecord
100
AcDbBlockTableRecord
  2
block 4
340
0
102
{BLKREFS
331
51
102
}
 70
     0
280
     1
281
     0
  0
BLOCK_RECORD
  5
58
330
1
100
AcDbSymbolTableRecord
100
AcDbBlockTableRecord
  2
block 5
340
0
102
{BLKREFS
331
59
102
}
 70
     0
280
     1
281
     0
  0
BLOCK_RECORD
  5
60
330
1
100
AcDbSymbolTableRecord
100
AcDbBlockTableRecord
  2
block 6
340
0
102
{BLKREFS
331
61
102
}
 70
     0
280
     1
281
     0
  0
BLOCK_RECORD
  5
68
330
1
100
AcDbSymbolTableRecord
100
AcDbBlockTableRecord
  2
block 7
340
0
102
{BLKREFS
331
69
102
}
 70
     0
280
     1
281
     0
  0
BLOCK_RECORD
  5
70
330
1
100
AcDbSymbolTableRecord
100
AcDbBlockTableRecord
  2
block 8
340
0
102
{BLKREFS
331
71
102
}
 70
     0
280
     1
281
     0
  0
BLOCK_RECORD
  5
78
330
1
100
AcDbSymbolTableRecord
100
AcDbBlockTableRecord
  2
block 9
340
0
102
{BLKREFS
331
79
102
}
 70
     0
280
     1
281
     0
  0
BLOCK_RECORD
  5
80
330
1
100
AcDbSymbolTableRecord
100
AcDbBlockTableRecord
  2
block 10
340
0
102
{BLKREFS
331
81
102
}
 70
     0
280
     1
281
     0
  0
BLOCK_RECORD
  5
88
330
1
100
AcDbSymbolTableRecord
100
AcDbBlockTableRecord
  2
block 11
340
0
102
{BLKREFS
331
89
102
}
 70
     0
280
     1
281
     0
  0
BLOCK_RECORD
  5
90
330
1
100
AcDbSymbolTableRecord
100
AcDbBlockTableRecord
  2
block 12
340
0
102
{BLKREFS
331
91
102
}
 70
     0
280
     1
281
     0
  0
BLOCK_RECORD
  5
98
330
1
100
AcDbSymbolTableRecord
100
AcDbBlockTableRecord
  2
block 13
340
0
102
{BLKREFS
331
99
102
}
 70
     0
280
     1
281
     0
  0
BLOCK_RECORD
  5
A0
330
1
100
AcDbSymbolTableRecord
100
AcDbBlockTableRecord
  2
block 14
340
0
102
{BLKREFS
331
A1
102
}
 70
     0
280
     1
281
     0
  0
BLOCK_RECORD
  5
A8
330
1
100
AcDbSymbolTableRecord
100
AcDbBlockTableRecord
  2
block 15
340
0
102
{BLKREFS
331
A9
102
}
 70
     0
280
     1
281
     0
  0
BLOCK_RECORD
  5
B0
330
1
100
AcDbSymbolTableRecord
100
AcDbBlockTableRecord
  2
block 16
340
0
102
{BLKREFS
331
B1
102
}
 70
     0
280
     1
281
     0
  0
BLOCK_RECORD
  5
B8
330
1
100
AcDbSymbolTableRecord
100
AcDbBlockTableRecord
  2
block 17
340
0
102
{BLKREFS
331
B9
102
}
 70
     0
280
     1
281
     0
  0
BLOCK_RECORD
  5
C0
330
1
100
AcDbSymbolTableRecord
100
AcDbBlockTableRecord
  2
block 18
340
0
102
{BLKREFS
331
C1
102
}
 70
     0
280
     1
281
     0
  0
BLOCK_RECORD
  5
C8
330
1
100
AcDbSymbolTableRecord
100
AcDbBlockTableRecord
  2
block 19
340
0
102
{BLKREFS
331
C9
102
}
 70
     0
280
     1
281
     0
  0
BLOCK_RECORD
  5
D0
330
1
100
AcDbSymbolTableRecord
100
AcDbBlockTableRecord
  2
block 20
340
0
102
{BLKREFS
331
D1
102
}
 70
     0
280
     1
281
     0
  0
BLOCK_RECORD
  5
D8
330
1
100
AcDbSymbolTableRecord
100
AcDbBlockTableRecord
  2
block 21
340
0
102
{BLKREFS
331
D9
102
}
 70
     0
280
     1
281
     0
  0
BLOCK_RECORD
  5
E0
330
1
100
AcDbSymbolTableRecord
100
AcDbBlockTableRecord
  2
block 22
340
0
102
{BLKREFS
331
E1
102
}
 70
     0
280
     1
281
     0
  0
BLOCK_RECORD
  5
E8
330
1
100
AcDbSymbolTableRecord
100
AcDbBlockTableRecord
  2
block 23
340
0
102
{BLKREFS
331
E9
102
}
 70
     0
280
     1
281
     0
  0
BLOCK_RECORD
  5
F0
330
1
100
AcDbSymbolTableRecord
100
AcDbBlockTableRecord
  2
block 24
340
0
102
{BLKREFS
331
F1
102
}
 70
     0
280
     1
281
     0
  0
BLOCK_RECORD
  5
F8
330
1
100
AcDbSymbolTableRecord
100
AcDbBlockTableRecord
  2
block 25
340
0
102
{BLKREFS
331
F9
102
}
 70
     0
280
     1
281
     0
  0
BLOCK_RECORD
  5
100
330
1
100
AcDbSymbolTableRecord
100
AcDbBlockTableRecord
  2
block 26
340
0
102
{BLKREFS
331
101
102
}
 70
     0
280
     1
281
     0
  0
BLOCK_RECORD
  5
108
330
1
100
AcDbSymbolTableRecord
100
AcDbBlockTableRecord
  2
block 27
340
0
102
{BLKREFS
331
109
102
}
 70
     0
280
     1
281
     0
  0
BLOCK_RECORD
  5
110
330
1
100
AcDbSymbolTableRecord
100
AcDbBlockTableRecord
  2
block 28
340
0
102
{BLKREFS
331
111
102
}
 70
     0
280
     1
281
     0
  0
BLOCK_RECORD
  5
118
330
1
100
AcDbSymbolTableRecord
100
AcDbBlockTableRecord
  2
block 29
340
0
102
{BLKREFS
331
119
102
}
 70
     0
280
     1
281
     0
  0
BLOCK_RECORD
  5
120
330
1
100
AcDbSymbolTableRecord
100
AcDbBlockTableRecord
  2
block 30
340
0
102
{BLKREFS
331
121
102
}
 70
     0
280
     1
281
     0
  0
BLOCK_RECORD
  5
128
330
1
100
AcDbSymbolTableRecord
100
AcDbBlockTableRecord
  2
block 31
340
0
102
{BLKREFS
331
129
102
}
 70
     0
280
     1
281
     0
  0
BLOCK_RECORD
  5
130
330
1
100
AcDbSymbolTableRecord
100
AcDbBlockTableRecord
  2
block 32
340
0
102
{BLKREFS
331
131
102
}
 70
     0
280
     1
281
     0
  0
BLOCK_RECORD
  5
138
330
1
100
AcDbSymbolTableRecord
100
AcDbBlockTableRecord
  2
block 33
340
0
102
{BLKREFS
331
139
102
}
 70
     0
280
     1
281
     0
  0
BLOCK_RECORD
  5
140
330
1
100
AcDbSymbolTableRecord
100
AcDbBlockTableRecord
  2
block 34
340
0
102
{BLKREFS
331
141
102
}
 70
     0
280
     1
281
     0
  0
BLOCK_RECORD
  5
148
330
1
100
AcDbSymbolTableRecord
100
AcDbBlockTableRecord
  2
block 35
340
0
102
{BLKREFS
331
149
102
}
 70
     0
280
     1
281
     0
  0
BLOCK_RECORD
  5
150
330
1
100
AcDbSymbolTableRecord
100
AcDbBlockTableRecord
  2
block 36
340
0
102
{BLKREFS
331
151
102
}
 70
     0
280
     1
281
     0
  0
BLOCK_RECORD
  5
158
330
1
100
AcDbSymbolTableRecord
100
AcDbBlockTableRecord
  2
block 37
340
0
102
{BLKREFS
331
159
102
}
 70
     0
280
     1
281
     0
  0
BLOCK_RECORD
  5
160
330
1
100
AcDbSymbolTableRecord
100
AcDbBlockTableRecord
  2
block 38
340
0
102
{BLKREFS
331
161
102
}
 70
     0
280
     1
281
     0
  0
BLOCK_RECORD
  5
168
330
1
100
AcDbSymbolTableRecord
100
AcDbBlockTableRecord
  2
block 39
340
0
102
{BLKREFS
331
169
102
}
 70
     0
280
     1
281
     0
  0
BLOCK_RECORD
  5
170
330
1
100
AcDbSymbolTableRecord
100
AcDbBlockTableRecord
  2
block 40
340
0
102
{BLKREFS
331
171
102
}
 70
     0
280
     1
281
     0
  0
BLOCK_RECORD
  5
178
330
1
100
AcDbSymbolTableRecord
100
AcDbBlockTableRecord
  2
block 41
340
0
102
{BLKREFS
331
179
102
}
 70
     0
280
     1
281
     0
  0
BLOCK_RECORD
  5
180
330
1
100
AcDbSymbolTableRecord
100
AcDbBlockTableRecord
  2
block 42
340
0
102
{BLKREFS
331
181
102
}
 70
     0
280
     1
281
     0
  0
BLOCK_RECORD
  5
188
330
1
100
AcDbSymbolTableRecord
100
AcDbBlockTableRecord
  2
block 43
340
0
102
{BLKREFS
331
189
102
}
 70
     0
280
     1
281
     0
  0
BLOCK_RECORD
  5
190
330
1
100
AcDbSymbolTableRecord
100
AcDbBlockTableRecord
  2
block 44
340
0
102
{BLKREFS
331
191
102
}
 70
     0
280
     1
281
     0
  0
BLOCK_RECORD
  5
198
330
1
100
AcDbSymbolTableRecord
100
AcDbBlockTableRecord
  2
block 45
340
0
102
{BLKREFS
331
199
102
}
 70
     0
280
     1
281
     0
  0
BLOCK_RECORD
  5
1A0
330
1
100
AcDbSymbolTableRecord
100
AcDbBlockTableRecord
  2
block 46
340
0
102
{BLKREFS
331
1A1
102
}
 70
     0
280
     1
281
     0
  0
BLOCK_RECORD
  5
1A8
330
1
100
AcDbSymbolTableRecord
100
AcDbBlockTableRecord
  2
block 47
340
0
102
{BLKREFS
331
1A9
102
}
 70
     0
280
     1
281
     0
  0
BLOCK_RECORD
  5
1B0
330
1
100
AcDbSymbolTableRecord
100
AcDbBlockTableRecord
  2
block 48
340
0
102
{BLKREFS
331
1B1
102
}
 70
     0
280
     1
281
     0
  0
BLOCK_RECORD
  5
1B8
330
1
100
AcDbSymbolTableRecord
100
AcDbBlockTableRecord
  2
block 49
340
0
102
{BLKREFS
331
1B9
102
}
 70
     0
280
     1
281
     0
  0
BLOCK_RECORD
  5
1C0
330
1
100
AcDbSymbolTableRecord
100
AcDbBlockTableRecord
  2
block 50
340
0
102
{BLKREFS
331
1C1
102
}
 70
     0
280
     1
281
     0
  0
BLOCK_RECORD
  5
1C8
330
1
100
AcDbSymbolTableRecord
100
AcDbBlockTableRecord
  2
block 51
340
0
102
{BLKREFS
331
1C9
102
}
 70
     0
280
     1
281
     0
  0
BLOCK_RECORD
  5
1D0
330
1
100
AcDbSymbolTableRecord
100
AcDbBlockTableRecord
  2
block 52
340
0
102
{BLKREFS
331
1D1
102
}
 70
     0
280
     1
281
     0
  0
BLOCK_RECORD
  5
1D8
330
1
100
AcDbSymbolTableRecord
100
AcDbBlockTableRecord
  2
block 53
340
0
102
{BLKREFS
331
1D9
102
}
 70
     0
280
     1
281
     0
  0
BLOCK_RECORD
  5
1E0
330
1
100
AcDbSymbolTableRecord
100
AcDbBlockTableRecord
  2
block 54
340
0
102
{BLKREFS
331
1E1
102
}
 70
     0
280
     1
281
     0
  0
BLOCK_RECORD
  5
1E8
330
1
100
AcDbSymbolTableRecord
100
AcDbBlockTableRecord
  2
block 55
340
0
102
{BLKREFS
331
1E9
102
}
 70
     0
280
     1
281
     0
  0
BLOCK_RECORD
  5
1F0
330
1
100
AcDbSymbolTableRecord
100
AcDbBlockTableRecord
  2
block 56
340
0
102
{BLKREFS
331
1F1
102
}
 70
     0
280
     1
281
     0
  0
BLOCK_RECORD
  5
1F8
330
1
100
AcDbSymbolTableRecord
100
AcDbBlockTableRecord
  2
block 57
340
0
102
{BLKREFS
331
1F9
102
}
 70
     0
280
     1
281
     0
  0
BLOCK_RECORD
  5
200
330
1
100
AcDbSymbolTableRecord
100
AcDbBlockTableRecord
  2
block 58
340
0
102
{BLKREFS
331
201
102
}
 70
     0
280
     1
281
     0
  0
BLOCK_RECORD
  5
208
330
1
100
AcDbSymbolTableRecord
100
AcDbBlockTableRecord
  2
block 59
340
0
102
{BLKREFS
331
209
102
}
 70
     0
280
     1
281
     0
  0
BLOCK_RECORD
  5
210
330
1
100
AcDbSymbolTableRecord
100
AcDbBlockTableRecord
  2
block 60
340
0
102
{BLKREFS
331
211
102
}
 70
     0
280
     1
281
     0
  0
BLOCK_RECORD
  5
218
330
1
100
AcDbSymbolTableRecord
100
AcDbBlockTableRecord
  2
block 61
340
0
102
{BLKREFS
331
219
102
}
 70
     0
280
     1
281
     0
  0
BLOCK_RECORD
  5
220
330
1
100
AcDbSymbolTableRecord
100
AcDbBlockTableRecord
  2
block 62
340
0
102
{BLKREFS
331
221
102
}
 70
     0
280
     1
281
     0
  0
BLOCK_RECORD
  5
228
330
1
100
AcDbSymbolTableRecord
100
AcDbBlockTableRecord
  2
block 63
340
0
102
{BLKREFS
331
229
102
}
 70
     0
280
     1
281
     0
  0
BLOCK_RECORD
  5
230
330
1
100
AcDbSymbolTableRecord
100
AcDbBlockTableRecord
  2
block 64
340
0
102
{BLKREFS
331
231
102
}
 70
     0
280
     1
281
     0
  0
BLOCK_RECORD
  5
238
330
1
100
AcDbSymbolTableRecord
100
AcDbBlockTableRecord
  2
block 65
340
0
102
{BLKREFS
331
239
102
}
 70
     0
280
     1
281
     0
  0
BLOCK_RECORD
  5
240
330
1
100
AcDbSymbolTableRecord
100
AcDbBlockTableRecord
  2
block 66
340
0
102
{BLKREFS
331
241
102
}
 70
     0
280
     1
281
     0
  0
BLOCK_RECORD
  5
248
330
1
100
AcDbSymbolTableRecord
100
AcDbBlockTableRecord
  2
block 67
340
0
102
{BLKREFS
331
249
102
}
 70
     0
280
     1
281
     0
  0
BLOCK_RECORD
  5
250
330
1
100
AcDbSymbolTableRecord
100
AcDbBlockTableRecord
  2
block 68
340
0
102
{BLKREFS
331
251
102
}
 70
     0
280
     1
281
     0
  0
BLOCK_RECORD
  5
258
330
1
100
AcDbSymbolTableRecord
100
AcDbBlockTableRecord
  2
block 69
340
0
102
{BLKREFS
331
259
102
}
 70
     0
280
     1
281
     0
  0
BLOCK_RECORD
  5
260
330
1
100
AcDbSymbolTableRecord
100
AcDbBlockTableRecord
  2
block 70
340
0
102
{BLKREFS
331
261
102
}
 70
     0
280
     1
281
     0
  0
BLOCK_RECORD
  5
268
330
1
100
AcDbSymbolTableRecord
100
AcDbBlockTableRecord
  2
block 71
340
0
102
{BLKREFS
331
269
102
}
 70
     0
280
     1
281
     0
  0
BLOCK_RECORD
  5
270
330
1
100
AcDbSymbolTableRecord
100
AcDbBlockTableRecord
  2
block 72
340
0
102
{BLKREFS
331
271
102
}
 70
     0
280
     1
281
     0
  0
BLOCK_RECORD
  5
278
330
1
100
AcDbSymbolTableRecord
100
AcDbBlockTableRecord
  2
block 73
340
0
102
{BLKREFS
331
279
102
}
 70
     0
280
     1
281
     0
  0
BLOCK_RECORD
  5
280
330
1
100
AcDbSymbolTableRecord
100
AcDbBlockTableRecord
  2
block 74
340
0
102
{BLKREFS
331
281
102
}
 70
     0
280
     1
281
     0
  0
BLOCK_RECORD
  5
288
330
1
100
AcDbSymbolTableRecord
100
AcDbBlockTableRecord
  2
block 75
340
0
102
{BLKREFS
331
289
102
}
 70
     0
280
     1
281
     0
  0
BLOCK_RECORD
  5
290
330
1
100
AcDbSymbolTableRecord
100
AcDbBlockTableRecord
  2
block 76
340
0
102
{BLKREFS
331
291
102
}
 70
     0
280
     1
281
     0
  0
BLOCK_RECORD
  5
298
330
1
100
AcDbSymbolTableRecord
100
AcDbBlockTableRecord
  2
block 77
340
0
102
{BLKREFS
331
299
102
}
 70
     0
280
     1
281
     0
  0
BLOCK_RECORD
  5
2A0
330
1
100
AcDbSymbolTableRecord
100
AcDbBlockTableRecord
  2
block 78
340
0
102
{BLKREFS
331
2A1
102
}
 70
     0
280
     1
281
     0
  0
BLOCK_RECORD
  5
2A8
330
1
100
AcDbSymbolTableRecord
100
AcDbBlockTableRecord
  2
block 79
340
0
102
{BLKREFS
331
2A9
102
}
 70
     0
280
     1
281
     0
  0
BLOCK_RECORD
  5
2B0
330
1
100
AcDbSymbolTableRecord
100
AcDbBlockTableRecord
  2
block 80
340
0
102
{BLKREFS
331
2B1
102
}
 70
     0
280
     1
281
     0
  0
BLOCK_RECORD
  5
2B8
330
1
100
AcDbSymbolTableRecord
100
AcDbBlockTableRecord
  2
block 81
340
0
102
{BLKREFS
331
2B9
102
}
 70
     0
280
     1
281
     0
  0
BLOCK_RECORD
  5
2C0
330
1
100
AcDbSymbolTableRecord
100
AcDbBlockTableRecord
  2
block 82
340
0
102
{BLKREFS
331
2C1
102
}
 70
     0
280
     1
281
     0
  0
BLOCK_RECORD
  5
2C8
330
1
100
AcDbSymbolTableRecord
100
AcDbBlockTableRecord
  2
block 83
340
0
102
{BLKREFS
331
2C9
102
}
 70
     0
280
     1
281
     0
  0
BLOCK_RECORD
  5
2D0
330
1
100
AcDbSymbolTableRecord
100
AcDbBlockTableRecord
  2
block 84
340
0
102
{BLKREFS
331
2D1
102
}
 70
     0
280
     1
281
     0
  0
BLOCK_RECORD
  5
2D8
330
1
100
AcDbSymbolTableRecord
100
AcDbBlockTableRecord
  2
block 85
340
0
102
{BLKREFS
331
2D9
102
}
 70
     0
280
     1
281
     0
  0
BLOCK_RECORD
  5
2E0
330
1
100
AcDbSymbolTableRecord
100
AcDbBlockTableRecord
  2
block 86
340
0
102
{BLKREFS
331
2E1
102
}
 70
     0
280
     1
281
     0
  0
BLOCK_RECORD
  5
2E8
330
1
100
AcDbSymbolTableRecord
100
AcDbBlockTableRecord
  2
block 87
340
0
102
{BLKREFS
331
2E9
102
}
 70
     0
280
     1
281
     0
  0
BLOCK_RECORD
  5
2F0
330
1
100
AcDbSymbolTableRecord
100
AcDbBlockTableRecord
  2
block 88
340
0
102
{BLKREFS
331
2F1
102
}
 70
     0
280
     1
281
     0
  0
BLOCK_RECORD
  5
2F8
330
1
100
AcDbSymbolTableRecord
100
AcDbBlockTableRecord
  2
block 89
340
0
102
{BLKREFS
331
2F9
102
}
 70
     0
280
     1
281
     0
  0
BLOCK_RECORD
  5
300
330
1
100
AcDbSymbolTableRecord
100
AcDbBlockTableRecord
  2
block 90
340
0
102
{BLKREFS
331
301
102
}
 70
     0
280
     1
281
     0
  0
BLOCK_RECORD
  5
308
330
1
100
AcDbSymbolTableRecord
100
AcDbBlockTableRecord
  2
block 91
340
0
102
{BLKREFS
331
309
102
}
 70
     0
280
     1
281
     0
  0
BLOCK_RECORD
  5
310
330
1
100
AcDbSymbolTableRecord
100
AcDbBlockTableRecord
  2
block 92
340
0
102
{BLKREFS
331
311
102
}
 70
     0
280
     1
281
     0
  0
BLOCK_RECORD
  5
318
330
1
100
AcDbSymbolTableRecord
100
AcDbBlockTableRecord
  2
block 93
340
0
102
{BLKREFS
331
319
102
}
 70
     0
280
     1
281
     0
  0
BLOCK_RECORD
  5
320
330
1
100
AcDbSymbolTableRecord
100
AcDbBlockTableRecord
  2
block 94
340
0
102
{BLKREFS
331
321
102
}
 70
     0
280
     1
281
     0
  0
BLOCK_RECORD
  5
328
330
1
100
AcDbSymbolTableRecord
100
AcDbBlockTableRecord
  2
block 95
340
0
102
{BLKREFS
331
329
102
}
 70
     0
280
     1
281
     0
  0
BLOCK_RECORD
  5
330
330
1
100
AcDbSymbolTableRecord
100
AcDbBlockTableRecord
  2
block 96
340
0
102
{BLKREFS
331
331
102
}
 70
     0
280
     1
281
     0
  0
BLOCK_RECORD
  5
338
330
1
100
AcDbSymbolTableRecord
100
AcDbBlockTableRecord
  2
block 97
340
0
102
{BLKREFS
331
339
102
}
 70
     0
280
     1
281
     0
  0
BLOCK_RECORD
  5
340
330
1
100
AcDbSymbolTableRecord
100
AcDbBlockTableRecord
  2
block 98
340
0
102
{BLKREFS
331
341
102
}
 70
     0
280
     1
281
     0
  0
BLOCK_RECORD
  5
348
330
1
100
AcDbSymbolTableRecord
100
AcDbBlockTableRecord
  2
block 99
340
0
102
{BLKREFS
331
349
102
}
 70
     0
280
     1
281
     0
  0
BLOCK_RECORD
  5
350
330
1
100
AcDbSymbolTableRecord
100
AcDbBlockTableRecord
  2
block 100
340
0
102
{BLKREFS
331
351
102
}
 70
     0
280
     1
281
     0
  0
BLOCK_RECORD
  5
358
330
1
100
AcDbSymbolTableRecord
100
AcDbBlockTableRecord
  2
block 101
340
0
102
{BLKREFS
331
359
102
}
 70
     0
280
     1
281
     0
  0
BLOCK_RECORD
  5
360
330
1
100
AcDbSymbolTableRecord
100
AcDbBlockTableRecord
  2
block 102
340
0
102
{BLKREFS
331
361
102
}
 70
     0
280
     1
281
     0
  0
BLOCK_RECORD
  5
368
330
1
100
AcDbSymbolTableRecord
100
AcDbBlockTableRecord
  2
block 103
340
0
102
{BLKREFS
331
369
102
}
 70
     0
280
     1
281
     0
  0
BLOCK_RECORD
  5
370
330
1
100
AcDbSymbolTableRecord
100
AcDbBlockTableRecord
  2
block 104
340
0
102
{BLKREFS
331
371
102
}
 70
     0
280
     1
281
     0
  0
BLOCK_RECORD
  5
378
330
1
100
AcDbSymbolTableRecord
100
AcDbBlockTableRecord
  2
block 105
340
0
102
{BLKREFS
331
379
102
}
 70
     0
280
     1
281
     0
  0
BLOCK_RECORD
  5
380
330
1
100
AcDbSymbolTableRecord
100
AcDbBlockTableRecord
  2
block 106
340
0
102
{BLKREFS
331
381
102
}
 70
     0
280
     1
281
     0
  0
BLOCK_RECORD
  5
388
330
1
100
AcDbSymbolTableRecord
100
AcDbBlockTableRecord
  2
block 107
340
0
102
{BLKREFS
331
389
102
}
 70
     0
280
     1
281
     0
  0
BLOCK_RECORD
  5
390
330
1
100
AcDbSymbolTableRecord
100
AcDbBlockTableRecord
  2
block 108
340
0
102
{BLKREFS
331
391
102
}
 70
     0
280
     1
281
     0
  0
BLOCK_RECORD
  5
398
330
1
100
AcDbSymbolTableRecord
100
AcDbBlockTableRecord
  2
block 109
340
0
102
{BLKREFS
331
399
102
}
 70
     0
280
     1
281
     0
  0
BLOCK_RECORD
  5
3A0
330
1
100
AcDbSymbolTableRecord
100
AcDbBlockTableRecord
  2
block 110
340
0
102
{BLKREFS
331
3A1
102
}
 70
     0
280
     1
281
     0
  0
BLOCK_RECORD
  5
3A8
330
1
100
AcDbSymbolTableRecord
100
AcDbBlockTableRecord
  2
block 111
340
0
102
{BLKREFS
331
3A9
102
}
 70
     0
280
     1
281
     0
  0
BLOCK_RECORD
  5
3B0
330
1
100
AcDbSymbolTableRecord
100
AcDbBlockTableRecord
  2
block 112
340
0
102
{BLKREFS
331
3B1
102
}
 70
     0
280
     1
281
     0
  0
BLOCK_RECORD
  5
3B8
330
1
100
AcDbSymbolTableRecord
100
AcDbBlockTableRecord
  2
block 113
340
0
102
{BLKREFS
331
3B9
102
}
 70
     0
280
     1
281
     0
  0
BLOCK_RECORD
  5
3C0
330
1
100
AcDbSymbolTableRecord
100
AcDbBlockTableRecord
  2
block 114
340
0
102
{BLKREFS
331
3C1
102
}
 70
     0
280
     1
281
     0
  0
BLOCK_RECORD
  5
3C8
330
1
100
AcDbSymbolTableRecord
100
AcDbBlockTableRecord
  2
block 115
340
0
102
{BLKREFS
331
3C9
102
}
 70
     0
280
     1
281
     0
  0
BLOCK_RECORD
  5
3D0
330
1
100
AcDbSymbolTableRecord
100
AcDbBlockTableRecord
  2
block 116
340
0
102
{BLKREFS
331
3D1
102
}
 70
     0
280
     1
281
     0
  0
BLOCK_RECORD
  5
3D8
330
1
100
AcDbSymbolTableRecord
100
AcDbBlockTableRecord
  2
block 117
340
0
102
{BLKREFS
331
3D9
102
}
 70
     0
280
     1
281
     0
  0
BLOCK_RECORD
  5
3E0
330
1
100
AcDbSymbolTableRecord
100
AcDbBlockTableRecord
  2
block 118
340
0
102
{BLKREFS
331
3E1
102
}
 70
     0
280
     1
281
     0
  0
BLOCK_RECORD
  5
3E8
330
1
100
AcDbSymbolTableRecord
100
AcDbBlockTableRecord
  2
block 119
340
0
102
{BLKREFS
331
3E9
102
}
 70
     0
280
     1
281
     0
  0
BLOCK_RECORD
  5
3F0
330
1
100
AcDbSymbolTableRecord
100
AcDbBlockTableRecord
  2
block 120
340
0
102
{BLKREFS
331
3F1
102
}
 70
     0
280
     1
281
     0
  0
BLOCK_RECORD
  5
3F8
330
1
100
AcDbSymbolTableRecord
100
AcDbBlockTableRecord
  2
block 121
340
0
102
{BLKREFS
331
3F9
102
}
 70
     0
280
     1
281
     0
  0
BLOCK_RECORD
  5
400
330
1
100
AcDbSymbolTableRecord
100
AcDbBlockTableRecord
  2
block 122
340
0
102
{BLKREFS
331
401
102
}
 70
     0
280
     1
281
     0
  0
BLOCK_RECORD
  5
408
330
1
100
AcDbSymbolTableRecord
100
AcDbBlockTableRecord
  2
block 123
340
0
102
{BLKREFS
331
409
102
}
 70
     0
280
     1
281
     0
  0
BLOCK_RECORD
  5
410
330
1
100
AcDbSymbolTableRecord
100
AcDbBlockTableRecord
  2
block 124
340
0
102
{BLKREFS
331
411
102
}
 70
     0
280
     1
281
     0
  0
BLOCK_RECORD
  5
418
330
1
100
AcDbSymbolTableRecord
100
AcDbBlockTableRecord
  2
block 125
340
0
102
{BLKREFS
331
419
102
}
 70
     0
280
     1
281
     0
  0
BLOCK_RECORD
  5
420
330
1
100
AcDbSymbolTableRecord
100
AcDbBlockTableRecord
  2
block 126
340
0
102
{BLKREFS
331
421
102
}
 70
     0
280
     1
281
     0
  0
BLOCK_RECORD
  5
428
330
1
100
AcDbSymbolTableRecord
100
AcDbBlockTableRecord
  2
block 127
340
0
102
{BLKREFS
331
429
102
}
 70
     0
280
     1
281
     0
  0
BLOCK_RECORD
  5
430
330
1
100
AcDbSymbolTableRecord
100
AcDbBlockTableRecord
  2
block 128
340
0
102
{BLKREFS
331
431
102
}
 70
     0
280
     1
281
     0
  0
BLOCK_RECORD
  5
438
330
1
100
AcDbSymbolTableRecord
100
AcDbBlockTableRecord
  2
block 129
340
0
102
{BLKREFS
331
439
102
}
 70
     0
280
     1
281
     0
  0
BLOCK_RECORD
  5
440
330
1
100
AcDbSymbolTableRecord
100
AcDbBlockTableRecord
  2
block 130
340
0
102
{BLKREFS
331
441
102
}
 70
     0
280
     1
281
     0
  0
BLOCK_RECORD
  5
448
330
1
100
AcDbSymbolTableRecord
100
AcDbBlockTableRecord
  2
block 131
340
0
102
{BLKREFS
331
449
102
}
 70
     0
280
     1
281
     0
  0
BLOCK_RECORD
  5
450
330
1
100
AcDbSymbolTableRecord
100
AcDbBlockTableRecord
  2
block 132
340
0
102
{BLKREFS
331
451
102
}
 70
     0
280
     1
281
     0
  0
BLOCK_RECORD
  5
458
330
1
100
AcDbSymbolTableRecord
100
AcDbBlockTableRecord
  2
block 133
340
0
102
{BLKREFS
331
459
102
}
 70
     0
280
     1
281
     0
  0
BLOCK_RECORD
  5
460
330
1
100
AcDbSymbolTableRecord
100
AcDbBlockTableRecord
  2
block 134
340
0
102
{BLKREFS
331
461
102
}
 70
     0
280
     1
281
     0
  0
BLOCK_RECORD
  5
468
330
1
100
AcDbSymbolTableRecord
100
AcDbBlockTableRecord
  2
block 135
340
0
102
{BLKREFS
331
469
102
}
 70
     0
280
     1
281
     0
  0
BLOCK_RECORD
  5
470
330
1
100
AcDbSymbolTableRecord
100
AcDbBlockTableRecord
  2
block 136
340
0
102
{BLKREFS
331
471
102
}
 70
     0
280
     1
281
     0
  0
BLOCK_RECORD
  5
478
330
1
100
AcDbSymbolTableRecord
100
AcDbBlockTableRecord
  2
block 137
340
0
102
{BLKREFS
331
479
102
}
 70
     0
280
     1
281
     0
  0
BLOCK_RECORD
  5
480
330
1
100
AcDbSymbolTableRecord
100
AcDbBlockTableRecord
  2
block 138
340
0
102
{BLKREFS
331
481
102
}
 70
     0
280
     1
281
     0
  0
BLOCK_RECORD
  5
488
330
1
100
AcDbSymbolTableRecord
100
AcDbBlockTableRecord
  2
block 139
340
0
102
{BLKREFS
331
489
102
}
 70
     0
280
     1
281
     0
  0
BLOCK_RECORD
  5
490
330
1
100
AcDbSymbolTableRecord
100
AcDbBlockTableRecord
  2
block 140
340
0
102
{BLKREFS
331
491
102
}
 70
     0
280
     1
281
     0
  0
BLOCK_RECORD
  5
498
330
1
100
AcDbSymbolTableRecord
100
AcDbBlockTableRecord
  2
block 141
340
0
102
{BLKREFS
331
499
102
}
 70
     0
280
     1
281
     0
  0
BLOCK_RECORD
  5
4A0
330
1
100
AcDbSymbolTableRecord
100
AcDbBlockTableRecord
  2
block 142
340
0
102
{BLKREFS
331
4A1
102
}
 70
     0
280
     1
281
     0
  0
BLOCK_RECORD
  5
4A8
330
1
100
AcDbSymbolTableRecord
100
AcDbBlockTableRecord
  2
block 143
340
0
102
{BLKREFS
331
4A9
102
}
 70
     0
280
     1
281
     0
  0
BLOCK_RECORD
  5
4B0
330
1
100
AcDbSymbolTableRecord
100
AcDbBlockTableRecord
  2
block 144
340
0
102
{BLKREFS
331
4B1
102
}
 70
     0
280
     1
281
     0
  0
BLOCK_RECORD
  5
4B8
330
1
100
AcDbSymbolTableRecord
100
AcDbBlockTableRecord
  2
block 145
340
0
102
{BLKREFS
331
4B9
102
}
 70
     0
280
     1
281
     0
  0
BLOCK_RECORD
  5
4C0
330
1
100
AcDbSymbolTableRecord
100
AcDbBlockTableRecord
  2
block 146
340
0
102
{BLKREFS
331
4C1
102
}
 70
     0
280
     1
281
     0
  0
BLOCK_RECORD
  5
4C8
330
1
100
AcDbSymbolTableRecord
100
AcDbBlockTableRecord
  2
block 147
340
0
102
{BLKREFS
331
4C9
102
}
 70
     0
280
     1
281
     0
  0
BLOCK_RECORD
  5
4D0
330
1
100
AcDbSymbolTableRecord
100
AcDbBlockTableRecord
  2
block 148
340
0
102
{BLKREFS
331
4D1
102
}
 70
     0
280
     1
281
     0
  0
BLOCK_RECORD
  5
4D8
330
1
100
AcDbSymbolTableRecord
100
AcDbBlockTableRecord
  2
block 149
340
0
102
{BLKREFS
331
4D9
102
}
 70
     0
280
     1
281
     0
  0
BLOCK_RECORD
  5
4E0
330
1
100
AcDbSymbolTableRecord
100
AcDbBlockTableRecord
  2
block 150
340
0
102
{BLKREFS
331
4E1
102
}
 70
     0
280
     1
281
     0
  0
BLOCK_RECORD
  5
4E8
330
1
100
AcDbSymbolTableRecord
100
AcDbBlockTableRecord
  2
block 151
340
0
102
{BLKREFS
331
4E9
102
}
 70
     0
280
     1
281
     0
  0
BLOCK_RECORD
  5
4F0
330
1
100
AcDbSymbolTableRecord
100
AcDbBlockTableRecord
  2
block 152
340
0
102
{BLKREFS
331
4F1
102
}
 70
     0
280
     1
281
     0
  0
BLOCK_RECORD
  5
4F8
330
1
100
AcDbSymbolTableRecord
100
AcDbBlockTableRecord
  2
block 153
340
0
102
{BLKREFS
331
4F9
102
}
 70
     0
280
     1
281
     0
  0
BLOCK_RECORD
  5
500
330
1
100
AcDbSymbolTableRecord
100
AcDbBlockTableRecord
  2
block 154
340
0
102
{BLKREFS
331
501
102
}
 70
     0
280
     1
281
     0
  0
BLOCK_RECORD
  5
508
330
1
100
AcDbSymbolTableRecord
100
AcDbBlockTableRecord
  2
block 155
340
0
102
{BLKREFS
331
509
102
}
 70
     0
280
     1
281
     0
  0
BLOCK_RECORD
  5
510
330
1
100
AcDbSymbolTableRecord
100
AcDbBlockTableRecord
  2
block 156
340
0
102
{BLKREFS
331
511
102
}
 70
     0
280
     1
281
     0
  0
BLOCK_RECORD
  5
518
330
1
100
AcDbSymbolTableRecord
100
AcDbBlockTableRecord
  2
block 157
340
0
102
{BLKREFS
331
519
102
}
 70
     0
280
     1
281
     0
  0
BLOCK_RECORD
  5
520
330
1
100
AcDbSymbolTableRecord
100
AcDbBlockTableRecord
  2
block 158
340
0
102
{BLKREFS
331
521
102
}
 70
     0
280
     1
281
     0
  0
BLOCK_RECORD
  5
528
330
1
100
AcDbSymbolTableRecord
100
AcDbBlockTableRecord
  2
block 159
340
0
102
{BLKREFS
331
529
102
}
 70
     0
280
     1
281
     0
  0
BLOCK_RECORD
  5
530
330
1
100
AcDbSymbolTableRecord
100
AcDbBlockTableRecord
  2
block 160
340
0
102
{BLKREFS
331
531
102
}
 70
     0
280
     1
281
     0
  0
BLOCK_RECORD
  5
538
330
1
100
AcDbSymbolTableRecord
100
AcDbBlockTableRecord
  2
block 161
340
0
102
{BLKREFS
331
539
102
}
 70
     0
280
     1
281
     0
  0
BLOCK_RECORD
  5
540
330
1
100
AcDbSymbolTableRecord
100
AcDbBlockTableRecord
  2
block 162
340
0
102
{BLKREFS
331
541
102
}
 70
     0
280
     1
281
     0
  0
BLOCK_RECORD
  5
545
330
1
100
AcDbSymbolTableRecord
100
AcDbBlockTableRecord
  2
block 163
340
0
102
{BLKREFS
331
546
102
}
 70
     0
280
     1
281
     0
  0
BLOCK_RECORD
  5
54A
330
1
100
AcDbSymbolTableRecord
100
AcDbBlockTableRecord
  2
block 164
340
0
102
{BLKREFS
331
54B
102
}
 70
     0
280
     1
281
     0
  0
BLOCK_RECORD
  5
54F
330
1
100
AcDbSymbolTableRecord
100
AcDbBlockTableRecord
  2
block 165
340
0
102
{BLKREFS
331
550
102
}
 70
     0
280
     1
281
     0
  0
ENDTAB
  0
ENDSEC
  0
SECTION
  2
BLOCKS
  0
BLOCK
  5
20
330
1F
100
AcDbEntity
  8
0
100
AcDbBlockBegin
  2
*Model_Space
 70
     0
 10
0.0
 20
0.0
 30
0.0
  3
*Model_Space
  1

  0
ENDBLK
  5
21
330
1F
100
AcDbEntity
  8
0
100
AcDbBlockEnd
  0
BLOCK
  5
1C
330
1B
100
AcDbEntity
 67
     1
  8
0
100
AcDbBlockBegin
  2
*Paper_Space
 70
     0
 10
0.0
 20
0.0
 30
0.0
  3
*Paper_Space
  1

  0
ENDBLK
  5
1D
330
1B
100
AcDbEntity
 67
     1
  8
0
100
AcDbBlockEnd
  0
BLOCK
  5
24
330
23
100
AcDbEntity
  8
0
100
AcDbBlockBegin
  2
*Paper_Space0
 70
     0
 10
0.0
 20
0.0
 30
0.0
  3
*Paper_Space0
  1

  0
ENDBLK
  5
25
330
23
100
AcDbEntity
  8
0
100
AcDbBlockEnd
  0
BLOCK
  5
42
330
40
100
AcDbEntity
  8
0
100
AcDbBlockBegin
  2
block 2
 70
     0
 10
0.0
 20
0.0
 30
0.0
  3
block 2
  1

  0
POLYLINE
  5
44
330
40
100
AcDbEntity
  8
0
 62
     7
420
 16777215
370
    15
100
AcDb2dPolyline
 66
     1
 10
0.0
 20
0.0
 30
0.0
  0
VERTEX
  5
45
330
44
100
AcDbEntity
  8
0
 62
     7
420
 16777215
370
    15
100
AcDbVertex
100
AcDb2dVertex
 10
53.5042511171406
 20
55.99187338122396
 30
0.0
  0
VERTEX
  5
46
330
44
100
AcDbEntity
  8
0
 62
     7
420
 16777215
370
    15
100
AcDbVertex
100
AcDb2dVertex
 10
46.80416698634076
 20
55.99195654782392
 30
0.0
  0
SEQEND
  5
47
330
44
100
AcDbEntity
  8
0
 62
     7
420
 16777215
370
    15
  0
ENDBLK
  5
43
330
40
100
AcDbEntity
  8
0
100
AcDbBlockEnd
  0
BLOCK
  5
4A
330
48
100
AcDbEntity
  8
0
100
AcDbBlockBegin
  2
block 3
 70
     0
 10
0.0
 20
0.0
 30
0.0
  3
block 3
  1

  0
POLYLINE
  5
4C
330
48
100
AcDbEntity
  8
0
 62
     7
420
 16777215
370
    15
100
AcDb2dPolyline
 66
     1
 10
0.0
 20
0.0
 30
0.0
  0
VERTEX
  5
4D
330
4C
100
AcDbEntity
  8
0
 62
     7
420
 16777215
370
    15
100
AcDbVertex
100
AcDb2dVertex
 10
46.80416698634076
 20
55.99195654782392
 30
0.0
  0
VERTEX
  5
4E
330
4C
100
AcDbEntity
  8
0
 62
     7
420
 16777215
370
    15
100
AcDbVertex
100
AcDb2dVertex
 10
46.80416698634076
 20
61.99194679542394
 30
0.0
  0
SEQEND
  5
4F
330
4C
100
AcDbEntity
  8
0
 62
     7
420
 16777215
370
    15
  0
ENDBLK
  5
4B
330
48
100
AcDbEntity
  8
0
100
AcDbBlockEnd
  0
BLOCK
  5
52
330
50
100
AcDbEntity
  8
0
100
AcDbBlockBegin
  2
block 4
 70
     0
 10
0.0
 20
0.0
 30
0.0
  3
block 4
  1

  0
POLYLINE
  5
54
330
50
100
AcDbEntity
  8
0
 62
     7
420
 16777215
370
    15
100
AcDb2dPolyline
 66
     1
 10
0.0
 20
0.0
 30
0.0
  0
VERTEX
  5
55
330
54
100
AcDbEntity
  8
0
 62
     7
420
 16777215
370
    15
100
AcDbVertex
100
AcDb2dVertex
 10
46.80416698634076
 20
61.99194679542394
 30
0.0
  0
VERTEX
  5
56
330
54
100
AcDbEntity
  8
0
 62
     7
420
 16777215
370
    15
100
AcDbVertex
100
AcDb2dVertex
 10
30.30416796734047
 20
61.99194679542394
 30
0.0
  0
SEQEND
  5
57
330
54
100
AcDbEntity
  8
0
 62
     7
420
 16777215
370
    15
  0
ENDBLK
  5
53
330
50
100
AcDbEntity
  8
0
100
AcDbBlockEnd
  0
BLOCK
  5
5A
330
58
100
AcDbEntity
  8
0
100
AcDbBlockBegin
  2
block 5
 70
     0
 10
0.0
 20
0.0
 30
0.0
  3
block 5
  1

  0
POLYLINE
  5
5C
330
58
100
AcDbEntity
  8
0
 62
     7
420
 16777215
370
    15
100
AcDb2dPolyline
 66
     1
 10
0.0
 20
0.0
 30
0.0
  0
VERTEX
  5
5D
330
5C
100
AcDbEntity
  8
0
 62
     7
420
 16777215
370
    15
100
AcDbVertex
100
AcDb2dVertex
 10
30.30416796734047
 20
61.99194679542394
 30
0.0
  0
VERTEX
  5
5E
330
5C
100
AcDbEntity
  8
0
 62
     7
420
 16777215
370
    15
100
AcDbVertex
100
AcDb2dVertex
 10
30.30416796734047
 20
72.99195475422437
 30
0.0
  0
SEQEND
  5
5F
330
5C
100
AcDbEntity
  8
0
 62
     7
420
 16777215
370
    15
  0
ENDBLK
  5
5B
330
58
100
AcDbEntity
  8
0
100
AcDbBlockEnd
  0
BLOCK
  5
62
330
60
100
AcDbEntity
  8
0
100
AcDbBlockBegin
  2
block 6
 70
     0
 10
0.0
 20
0.0
 30
0.0
  3
block 6
  1

  0
POLYLINE
  5
64
330
60
100
AcDbEntity
  8
0
 62
     7
420
 16777215
370
    15
100
AcDb2dPolyline
 66
     1
 10
0.0
 20
0.0
 30
0.0
  0
VERTEX
  5
65
330
64
100
AcDbEntity
  8
0
 62
     7
420
 16777215
370
    15
100
AcDbVertex
100
AcDb2dVertex
 10
30.30416796734047
 20
72.99195475422437
 30
0.0
  0
VERTEX
  5
66
330
64
100
AcDbEntity
  8
0
 62
     7
420
 16777215
370
    15
100
AcDbVertex
100
AcDb2dVertex
 10
36.30416736594066
 20
72.99195475422437
 30
0.0
  0
SEQEND
  5
67
330
64
100
AcDbEntity
  8
0
 62
     7
420
 16777215
370
    15
  0
ENDBLK
  5
63
330
60
100
AcDbEntity
  8
0
100
AcDbBlockEnd
  0
BLOCK
  5
6A
330
68
100
AcDbEntity
  8
0
100
AcDbBlockBegin
  2
block 7
 70
     0
 10
0.0
 20
0.0
 30
0.0
  3
block 7
  1

  0
POLYLINE
  5
6C
330
68
100
AcDbEntity
  8
0
 62
     7
420
 16777215
370
    15
100
AcDb2dPolyline
 66
     1
 10
0.0
 20
0.0
 30
0.0
  0
VERTEX
  5
6D
330
6C
100
AcDbEntity
  8
0
 62
     7
420
 16777215
370
    15
100
AcDbVertex
100
AcDb2dVertex
 10
36.30416736594066
 20
72.99195475422437
 30
0.0
  0
VERTEX
  5
6E
330
6C
100
AcDbEntity
  8
0
 62
     7
420
 16777215
370
    15
100
AcDbVertex
100
AcDb2dVertex
 10
36.30416736594066
 20
79.94194647212424
 30
0.0
  0
SEQEND
  5
6F
330
6C
100
AcDbEntity
  8
0
 62
     7
420
 16777215
370
    15
  0
ENDBLK
  5
6B
330
68
100
AcDbEntity
  8
0
100
AcDbBlockEnd
  0
BLOCK
  5
72
330
70
100
AcDbEntity
  8
0
100
AcDbBlockBegin
  2
block 8
 70
     0
 10
0.0
 20
0.0
 30
0.0
  3
block 8
  1

  0
POLYLINE
  5
74
330
70
100
AcDbEntity
  8
0
 62
     7
420
 16777215
370
    15
100
AcDb2dPolyline
 66
     1
 10
0.0
 20
0.0
 30
0.0
  0
VERTEX
  5
75
330
74
100
AcDbEntity
  8
0
 62
     7
420
 16777215
370
    15
100
AcDbVertex
100
AcDb2dVertex
 10
36.30416736594066
 20
79.94194647212424
 30
0.0
  0
VERTEX
  5
76
330
74
100
AcDbEntity
  8
0
 62
     7
420
 16777215
370
    15
100
AcDbVertex
100
AcDb2dVertex
 10
41.40416758144071
 20
79.94194647212424
 30
0.0
  0
SEQEND
  5
77
330
74
100
AcDbEntity
  8
0
 62
     7
420
 16777215
370
    15
  0
ENDBLK
  5
73
330
70
100
AcDbEntity
  8
0
100
AcDbBlockEnd
  0
BLOCK
  5
7A
330
78
100
AcDbEntity
  8
0
100
AcDbBlockBegin
  2
block 9
 70
     0
 10
0.0
 20
0.0
 30
0.0
  3
block 9
  1

  0
POLYLINE
  5
7C
330
78
100
AcDbEntity
  8
0
 62
     7
420
 16777215
370
    15
100
AcDb2dPolyline
 66
     1
 10
0.0
 20
0.0
 30
0.0
  0
VERTEX
  5
7D
330
7C
100
AcDbEntity
  8
0
 62
     7
420
 16777215
370
    15
100
AcDbVertex
100
AcDb2dVertex
 10
41.40416758144071
 20
79.94194647212424
 30
0.0
  0
VERTEX
  5
7E
330
7C
100
AcDbEntity
  8
0
 62
     7
420
 16777215
370
    15
100
AcDbVertex
100
AcDb2dVertex
 10
41.40416758144071
 20
78.69194635072421
 30
0.0
  0
SEQEND
  5
7F
330
7C
100
AcDbEntity
  8
0
 62
     7
420
 16777215
370
    15
  0
ENDBLK
  5
7B
330
78
100
AcDbEntity
  8
0
100
AcDbBlockEnd
  0
BLOCK
  5
82
330
80
100
AcDbEntity
  8
0
100
AcDbBlockBegin
  2
block 10
 70
     0
 10
0.0
 20
0.0
 30
0.0
  3
block 10
  1

  0
POLYLINE
  5
84
330
80
100
AcDbEntity
  8
0
 62
     7
420
 16777215
370
    15
100
AcDb2dPolyline
 66
     1
 10
0.0
 20
0.0
 30
0.0
  0
VERTEX
  5
85
330
84
100
AcDbEntity
  8
0
 62
     7
420
 16777215
370
    15
100
AcDbVertex
100
AcDb2dVertex
 10
41.40416758144071
 20
78.69194635072421
 30
0.0
  0
VERTEX
  5
86
330
84
100
AcDbEntity
  8
0
 62
     7
420
 16777215
370
    15
100
AcDbVertex
100
AcDb2dVertex
 10
43.90416674764049
 20
78.69194635072421
 30
0.0
  0
SEQEND
  5
87
330
84
100
AcDbEntity
  8
0
 62
     7
420
 16777215
370
    15
  0
ENDBLK
  5
83
330
80
100
AcDbEntity
  8
0
100
AcDbBlockEnd
  0
BLOCK
  5
8A
330
88
100
AcDbEntity
  8
0
100
AcDbBlockBegin
  2
block 11
 70
     0
 10
0.0
 20
0.0
 30
0.0
  3
block 11
  1

  0
POLYLINE
  5
8C
330
88
100
AcDbEntity
  8
0
 62
     7
420
 16777215
370
    15
100
AcDb2dPolyline
 66
     1
 10
0.0
 20
0.0
 30
0.0
  0
VERTEX
  5
8D
330
8C
100
AcDbEntity
  8
0
 62
     7
420
 16777215
370
    15
100
AcDbVertex
100
AcDb2dVertex
 10
43.90416674764049
 20
78.69194635072421
 30
0.0
  0
VERTEX
  5
8E
330
8C
100
AcDbEntity
  8
0
 62
     7
420
 16777215
370
    15
100
AcDbVertex
100
AcDb2dVertex
 10
43.90416674764049
 20
79.94194647212424
 30
0.0
  0
SEQEND
  5
8F
330
8C
100
AcDbEntity
  8
0
 62
     7
420
 16777215
370
    15
  0
ENDBLK
  5
8B
330
88
100
AcDbEntity
  8
0
100
AcDbBlockEnd
  0
BLOCK
  5
92
330
90
100
AcDbEntity
  8
0
100
AcDbBlockBegin
  2
block 12
 70
     0
 10
0.0
 20
0.0
 30
0.0
  3
block 12
  1

  0
POLYLINE
  5
94
330
90
100
AcDbEntity
  8
0
 62
     7
420
 16777215
370
    15
100
AcDb2dPolyline
 66
     1
 10
0.0
 20
0.0
 30
0.0
  0
VERTEX
  5
95
330
94
100
AcDbEntity
  8
0
 62
     7
420
 16777215
370
    15
100
AcDbVertex
100
AcDb2dVertex
 10
43.90416674764049
 20
79.94194647212424
 30
0.0
  0
VERTEX
  5
96
330
94
100
AcDbEntity
  8
0
 62
     7
420
 16777215
370
    15
100
AcDbVertex
100
AcDb2dVertex
 10
46.40416699054067
 20
79.94194647212424
 30
0.0
  0
SEQEND
  5
97
330
94
100
AcDbEntity
  8
0
 62
     7
420
 16777215
370
    15
  0
ENDBLK
  5
93
330
90
100
AcDbEntity
  8
0
100
AcDbBlockEnd
  0
BLOCK
  5
9A
330
98
100
AcDbEntity
  8
0
100
AcDbBlockBegin
  2
block 13
 70
     0
 10
0.0
 20
0.0
 30
0.0
  3
block 13
  1

  0
POLYLINE
  5
9C
330
98
100
AcDbEntity
  8
0
 62
     7
420
 16777215
370
    15
100
AcDb2dPolyline
 66
     1
 10
0.0
 20
0.0
 30
0.0
  0
VERTEX
  5
9D
330
9C
100
AcDbEntity
  8
0
 62
     7
420
 16777215
370
    15
100
AcDbVertex
100
AcDb2dVertex
 10
46.40416699054067
 20
79.94194647212424
 30
0.0
  0
VERTEX
  5
9E
330
9C
100
AcDbEntity
  8
0
 62
     7
420
 16777215
370
    15
100
AcDbVertex
100
AcDb2dVertex
 10
46.40416699054067
 20
83.04194401722415
 30
0.0
  0
SEQEND
  5
9F
330
9C
100
AcDbEntity
  8
0
 62
     7
420
 16777215
370
    15
  0
ENDBLK
  5
9B
330
98
100
AcDbEntity
  8
0
100
AcDbBlockEnd
  0
BLOCK
  5
A2
330
A0
100
AcDbEntity
  8
0
100
AcDbBlockBegin
  2
block 14
 70
     0
 10
0.0
 20
0.0
 30
0.0
  3
block 14
  1

  0
POLYLINE
  5
A4
330
A0
100
AcDbEntity
  8
0
 62
     7
420
 16777215
370
    15
100
AcDb2dPolyline
 66
     1
 10
0.0
 20
0.0
 30
0.0
  0
VERTEX
  5
A5
330
A4
100
AcDbEntity
  8
0
 62
     7
420
 16777215
370
    15
100
AcDbVertex
100
AcDb2dVertex
 10
46.40416699054067
 20
83.04194401722415
 30
0.0
  0
VERTEX
  5
A6
330
A4
100
AcDbEntity
  8
0
 62
     7
420
 16777215
370
    15
100
AcDbVertex
100
AcDb2dVertex
 10
43.90416674764049
 20
83.04194401722415
 30
0.0
  0
SEQEND
  5
A7
330
A4
100
AcDbEntity
  8
0
 62
     7
420
 16777215
370
    15
  0
ENDBLK
  5
A3
330
A0
100
AcDbEntity
  8
0
100
AcDbBlockEnd
  0
BLOCK
  5
AA
330
A8
100
AcDbEntity
  8
0
100
AcDbBlockBegin
  2
block 15
 70
     0
 10
0.0
 20
0.0
 30
0.0
  3
block 15
  1

  0
POLYLINE
  5
AC
330
A8
100
AcDbEntity
  8
0
 62
     7
420
 16777215
370
    15
100
AcDb2dPolyline
 66
     1
 10
0.0
 20
0.0
 30
0.0
  0
VERTEX
  5
AD
330
AC
100
AcDbEntity
  8
0
 62
     7
420
 16777215
370
    15
100
AcDbVertex
100
AcDb2dVertex
 10
43.90416674764049
 20
83.04194401722415
 30
0.0
  0
VERTEX
  5
AE
330
AC
100
AcDbEntity
  8
0
 62
     7
420
 16777215
370
    15
100
AcDbVertex
100
AcDb2dVertex
 10
43.90416674764049
 20
84.29194413862419
 30
0.0
  0
SEQEND
  5
AF
330
AC
100
AcDbEntity
  8
0
 62
     7
420
 16777215
370
    15
  0
ENDBLK
  5
AB
330
A8
100
AcDbEntity
  8
0
100
AcDbBlockEnd
  0
BLOCK
  5
B2
330
B0
100
AcDbEntity
  8
0
100
AcDbBlockBegin
  2
block 16
 70
     0
 10
0.0
 20
0.0
 30
0.0
  3
block 16
  1

  0
POLYLINE
  5
B4
330
B0
100
AcDbEntity
  8
0
 62
     7
420
 16777215
370
    15
100
AcDb2dPolyline
 66
     1
 10
0.0
 20
0.0
 30
0.0
  0
VERTEX
  5
B5
330
B4
100
AcDbEntity
  8
0
 62
     7
420
 16777215
370
    15
100
AcDbVertex
100
AcDb2dVertex
 10
43.90416674764049
 20
84.29194413862419
 30
0.0
  0
VERTEX
  5
B6
330
B4
100
AcDbEntity
  8
0
 62
     7
420
 16777215
370
    15
100
AcDbVertex
100
AcDb2dVertex
 10
41.40416758144071
 20
84.29194413862419
 30
0.0
  0
SEQEND
  5
B7
330
B4
100
AcDbEntity
  8
0
 62
     7
420
 16777215
370
    15
  0
ENDBLK
  5
B3
330
B0
100
AcDbEntity
  8
0
100
AcDbBlockEnd
  0
BLOCK
  5
BA
330
B8
100
AcDbEntity
  8
0
100
AcDbBlockBegin
  2
block 17
 70
     0
 10
0.0
 20
0.0
 30
0.0
  3
block 17
  1

  0
POLYLINE
  5
BC
330
B8
100
AcDbEntity
  8
0
 62
     7
420
 16777215
370
    15
100
AcDb2dPolyline
 66
     1
 10
0.0
 20
0.0
 30
0.0
  0
VERTEX
  5
BD
330
BC
100
AcDbEntity
  8
0
 62
     7
420
 16777215
370
    15
100
AcDbVertex
100
AcDb2dVertex
 10
41.40416758144071
 20
84.29194413862419
 30
0.0
  0
VERTEX
  5
BE
330
BC
100
AcDbEntity
  8
0
 62
     7
420
 16777215
370
    15
100
AcDbVertex
100
AcDb2dVertex
 10
41.40416758144071
 20
83.04194401722415
 30
0.0
  0
SEQEND
  5
BF
330
BC
100
AcDbEntity
  8
0
 62
     7
420
 16777215
370
    15
  0
ENDBLK
  5
BB
330
B8
100
AcDbEntity
  8
0
100
AcDbBlockEnd
  0
BLOCK
  5
C2
330
C0
100
AcDbEntity
  8
0
100
AcDbBlockBegin
  2
block 18
 70
     0
 10
0.0
 20
0.0
 30
0.0
  3
block 18
  1

  0
POLYLINE
  5
C4
330
C0
100
AcDbEntity
  8
0
 62
     7
420
 16777215
370
    15
100
AcDb2dPolyline
 66
     1
 10
0.0
 20
0.0
 30
0.0
  0
VERTEX
  5
C5
330
C4
100
AcDbEntity
  8
0
 62
     7
420
 16777215
370
    15
100
AcDbVertex
100
AcDb2dVertex
 10
41.40416758144071
 20
83.04194401722415
 30
0.0
  0
VERTEX
  5
C6
330
C4
100
AcDbEntity
  8
0
 62
     7
420
 16777215
370
    15
100
AcDbVertex
100
AcDb2dVertex
 10
36.30416736594066
 20
83.04194401722415
 30
0.0
  0
SEQEND
  5
C7
330
C4
100
AcDbEntity
  8
0
 62
     7
420
 16777215
370
    15
  0
ENDBLK
  5
C3
330
C0
100
AcDbEntity
  8
0
100
AcDbBlockEnd
  0
BLOCK
  5
CA
330
C8
100
AcDbEntity
  8
0
100
AcDbBlockBegin
  2
block 19
 70
     0
 10
0.0
 20
0.0
 30
0.0
  3
block 19
  1

  0
POLYLINE
  5
CC
330
C8
100
AcDbEntity
  8
0
 62
     7
420
 16777215
370
    15
100
AcDb2dPolyline
 66
     1
 10
0.0
 20
0.0
 30
0.0
  0
VERTEX
  5
CD
330
CC
100
AcDbEntity
  8
0
 62
     7
420
 16777215
370
    15
100
AcDbVertex
100
AcDb2dVertex
 10
36.30416736594066
 20
83.04194401722415
 30
0.0
  0
VERTEX
  5
CE
330
CC
100
AcDbEntity
  8
0
 62
     7
420
 16777215
370
    15
100
AcDbVertex
100
AcDb2dVertex
 10
36.30416736594066
 20
89.99195296052406
 30
0.0
  0
SEQEND
  5
CF
330
CC
100
AcDbEntity
  8
0
 62
     7
420
 16777215
370
    15
  0
ENDBLK
  5
CB
330
C8
100
AcDbEntity
  8
0
100
AcDbBlockEnd
  0
BLOCK
  5
D2
330
D0
100
AcDbEntity
  8
0
100
AcDbBlockBegin
  2
block 20
 70
     0
 10
0.0
 20
0.0
 30
0.0
  3
block 20
  1

  0
POLYLINE
  5
D4
330
D0
100
AcDbEntity
  8
0
 62
     7
420
 16777215
370
    15
100
AcDb2dPolyline
 66
     1
 10
0.0
 20
0.0
 30
0.0
  0
VERTEX
  5
D5
330
D4
100
AcDbEntity
  8
0
 62
     7
420
 16777215
370
    15
100
AcDbVertex
100
AcDb2dVertex
 10
36.30416736594066
 20
89.99195296052406
 30
0.0
  0
VERTEX
  5
D6
330
D4
100
AcDbEntity
  8
0
 62
     7
420
 16777215
370
    15
100
AcDbVertex
100
AcDb2dVertex
 10
30.30416796734047
 20
89.99195296052406
 30
0.0
  0
SEQEND
  5
D7
330
D4
100
AcDbEntity
  8
0
 62
     7
420
 16777215
370
    15
  0
ENDBLK
  5
D3
330
D0
100
AcDbEntity
  8
0
100
AcDbBlockEnd
  0
BLOCK
  5
DA
330
D8
100
AcDbEntity
  8
0
100
AcDbBlockBegin
  2
block 21
 70
     0
 10
0.0
 20
0.0
 30
0.0
  3
block 21
  1

  0
POLYLINE
  5
DC
330
D8
100
AcDbEntity
  8
0
 62
     7
420
 16777215
370
    15
100
AcDb2dPolyline
 66
     1
 10
0.0
 20
0.0
 30
0.0
  0
VERTEX
  5
DD
330
DC
100
AcDbEntity
  8
0
 62
     7
420
 16777215
370
    15
100
AcDbVertex
100
AcDb2dVertex
 10
30.30416796734047
 20
89.99195296052406
 30
0.0
  0
VERTEX
  5
DE
330
DC
100
AcDbEntity
  8
0
 62
     7
420
 16777215
370
    15
100
AcDbVertex
100
AcDb2dVertex
 10
30.30416796734047
 20
101.9919506811242
 30
0.0
  0
SEQEND
  5
DF
330
DC
100
AcDbEntity
  8
0
 62
     7
420
 16777215
370
    15
  0
ENDBLK
  5
DB
330
D8
100
AcDbEntity
  8
0
100
AcDbBlockEnd
  0
BLOCK
  5
E2
330
E0
100
AcDbEntity
  8
0
100
AcDbBlockBegin
  2
block 22
 70
     0
 10
0.0
 20
0.0
 30
0.0
  3
block 22
  1

  0
POLYLINE
  5
E4
330
E0
100
AcDbEntity
  8
0
 62
     7
420
 16777215
370
    15
100
AcDb2dPolyline
 66
     1
 10
0.0
 20
0.0
 30
0.0
  0
VERTEX
  5
E5
330
E4
100
AcDbEntity
  8
0
 62
     7
420
 16777215
370
    15
100
AcDbVertex
100
AcDb2dVertex
 10
30.30416796734047
 20
101.9919506811242
 30
0.0
  0
VERTEX
  5
E6
330
E4
100
AcDbEntity
  8
0
 62
     7
420
 16777215
370
    15
100
AcDbVertex
100
AcDb2dVertex
 10
36.30416736594066
 20
101.9919506811242
 30
0.0
  0
SEQEND
  5
E7
330
E4
100
AcDbEntity
  8
0
 62
     7
420
 16777215
370
    15
  0
ENDBLK
  5
E3
330
E0
100
AcDbEntity
  8
0
100
AcDbBlockEnd
  0
BLOCK
  5
EA
330
E8
100
AcDbEntity
  8
0
100
AcDbBlockBegin
  2
block 23
 70
     0
 10
0.0
 20
0.0
 30
0.0
  3
block 23
  1

  0
POLYLINE
  5
EC
330
E8
100
AcDbEntity
  8
0
 62
     7
420
 16777215
370
    15
100
AcDb2dPolyline
 66
     1
 10
0.0
 20
0.0
 30
0.0
  0
VERTEX
  5
ED
330
EC
100
AcDbEntity
  8
0
 62
     7
420
 16777215
370
    15
100
AcDbVertex
100
AcDb2dVertex
 10
36.30416736594066
 20
101.9919506811242
 30
0.0
  0
VERTEX
  5
EE
330
EC
100
AcDbEntity
  8
0
 62
     7
420
 16777215
370
    15
100
AcDbVertex
100
AcDb2dVertex
 10
36.30416736594066
 20
113.9919484018243
 30
0.0
  0
SEQEND
  5
EF
330
EC
100
AcDbEntity
  8
0
 62
     7
420
 16777215
370
    15
  0
ENDBLK
  5
EB
330
E8
100
AcDbEntity
  8
0
100
AcDbBlockEnd
  0
BLOCK
  5
F2
330
F0
100
AcDbEntity
  8
0
100
AcDbBlockBegin
  2
block 24
 70
     0
 10
0.0
 20
0.0
 30
0.0
  3
block 24
  1

  0
POLYLINE
  5
F4
330
F0
100
AcDbEntity
  8
0
 62
     7
420
 16777215
370
    15
100
AcDb2dPolyline
 66
     1
 10
0.0
 20
0.0
 30
0.0
  0
VERTEX
  5
F5
330
F4
100
AcDbEntity
  8
0
 62
     7
420
 16777215
370
    15
100
AcDbVertex
100
AcDb2dVertex
 10
36.30416736594066
 20
113.9919484018243
 30
0.0
  0
VERTEX
  5
F6
330
F4
100
AcDbEntity
  8
0
 62
     7
420
 16777215
370
    15
100
AcDbVertex
100
AcDb2dVertex
 10
30.30416796734047
 20
113.9919484018243
 30
0.0
  0
SEQEND
  5
F7
330
F4
100
AcDbEntity
  8
0
 62
     7
420
 16777215
370
    15
  0
ENDBLK
  5
F3
330
F0
100
AcDbEntity
  8
0
100
AcDbBlockEnd
  0
BLOCK
  5
FA
330
F8
100
AcDbEntity
  8
0
100
AcDbBlockBegin
  2
block 25
 70
     0
 10
0.0
 20
0.0
 30
0.0
  3
block 25
  1

  0
POLYLINE
  5
FC
330
F8
100
AcDbEntity
  8
0
 62
     7
420
 16777215
370
    15
100
AcDb2dPolyline
 66
     1
 10
0.0
 20
0.0
 30
0.0
  0
VERTEX
  5
FD
330
FC
100
AcDbEntity
  8
0
 62
     7
420
 16777215
370
    15
100
AcDbVertex
100
AcDb2dVertex
 10
30.30416796734047
 20
113.9919484018243
 30
0.0
  0
VERTEX
  5
FE
330
FC
100
AcDbEntity
  8
0
 62
     7
420
 16777215
370
    15
100
AcDbVertex
100
AcDb2dVertex
 10
30.30416796734047
 20
125.9919461224238
 30
0.0
  0
SEQEND
  5
FF
330
FC
100
AcDbEntity
  8
0
 62
     7
420
 16777215
370
    15
  0
ENDBLK
  5
FB
330
F8
100
AcDbEntity
  8
0
100
AcDbBlockEnd
  0
BLOCK
  5
102
330
100
100
AcDbEntity
  8
0
100
AcDbBlockBegin
  2
block 26
 70
     0
 10
0.0
 20
0.0
 30
0.0
  3
block 26
  1

  0
POLYLINE
  5
104
330
100
100
AcDbEntity
  8
0
 62
     7
420
 16777215
370
    15
100
AcDb2dPolyline
 66
     1
 10
0.0
 20
0.0
 30
0.0
  0
VERTEX
  5
105
330
104
100
AcDbEntity
  8
0
 62
     7
420
 16777215
370
    15
100
AcDbVertex
100
AcDb2dVertex
 10
30.30416796734047
 20
125.9919461224238
 30
0.0
  0
VERTEX
  5
106
330
104
100
AcDbEntity
  8
0
 62
     7
420
 16777215
370
    15
100
AcDbVertex
100
AcDb2dVertex
 10
36.30416736594066
 20
125.9919461224238
 30
0.0
  0
SEQEND
  5
107
330
104
100
AcDbEntity
  8
0
 62
     7
420
 16777215
370
    15
  0
ENDBLK
  5
103
330
100
100
AcDbEntity
  8
0
100
AcDbBlockEnd
  0
BLOCK
  5
10A
330
108
100
AcDbEntity
  8
0
100
AcDbBlockBegin
  2
block 27
 70
     0
 10
0.0
 20
0.0
 30
0.0
  3
block 27
  1

  0
POLYLINE
  5
10C
330
108
100
AcDbEntity
  8
0
 62
     7
420
 16777215
370
    15
100
AcDb2dPolyline
 66
     1
 10
0.0
 20
0.0
 30
0.0
  0
VERTEX
  5
10D
330
10C
100
AcDbEntity
  8
0
 62
     7
420
 16777215
370
    15
100
AcDbVertex
100
AcDb2dVertex
 10
36.30416736594066
 20
125.9919461224238
 30
0.0
  0
VERTEX
  5
10E
330
10C
100
AcDbEntity
  8
0
 62
     7
420
 16777215
370
    15
100
AcDbVertex
100
AcDb2dVertex
 10
36.30416736594066
 20
137.9919524557242
 30
0.0
  0
SEQEND
  5
10F
330
10C
100
AcDbEntity
  8
0
 62
     7
420
 16777215
370
    15
  0
ENDBLK
  5
10B
330
108
100
AcDbEntity
  8
0
100
AcDbBlockEnd
  0
BLOCK
  5
112
330
110
100
AcDbEntity
  8
0
100
AcDbBlockBegin
  2
block 28
 70
     0
 10
0.0
 20
0.0
 30
0.0
  3
block 28
  1

  0
POLYLINE
  5
114
330
110
100
AcDbEntity
  8
0
 62
     7
420
 16777215
370
    15
100
AcDb2dPolyline
 66
     1
 10
0.0
 20
0.0
 30
0.0
  0
VERTEX
  5
115
330
114
100
AcDbEntity
  8
0
 62
     7
420
 16777215
370
    15
100
AcDbVertex
100
AcDb2dVertex
 10
36.30416736594066
 20
137.9919524557242
 30
0.0
  0
VERTEX
  5
116
330
114
100
AcDbEntity
  8
0
 62
     7
420
 16777215
370
    15
100
AcDbVertex
100
AcDb2dVertex
 10
30.30416796734047
 20
137.9919524557242
 30
0.0
  0
SEQEND
  5
117
330
114
100
AcDbEntity
  8
0
 62
     7
420
 16777215
370
    15
  0
ENDBLK
  5
113
330
110
100
AcDbEntity
  8
0
100
AcDbBlockEnd
  0
BLOCK
  5
11A
330
118
100
AcDbEntity
  8
0
100
AcDbBlockBegin
  2
block 29
 70
     0
 10
0.0
 20
0.0
 30
0.0
  3
block 29
  1

  0
POLYLINE
  5
11C
330
118
100
AcDbEntity
  8
0
 62
     7
420
 16777215
370
    15
100
AcDb2dPolyline
 66
     1
 10
0.0
 20
0.0
 30
0.0
  0
VERTEX
  5
11D
330
11C
100
AcDbEntity
  8
0
 62
     7
420
 16777215
370
    15
100
AcDbVertex
100
AcDb2dVertex
 10
30.30416796734047
 20
137.9919524557242
 30
0.0
  0
VERTEX
  5
11E
330
11C
100
AcDbEntity
  8
0
 62
     7
420
 16777215
370
    15
100
AcDbVertex
100
AcDb2dVertex
 10
30.30416796734047
 20
149.9919501764241
 30
0.0
  0
SEQEND
  5
11F
330
11C
100
AcDbEntity
  8
0
 62
     7
420
 16777215
370
    15
  0
ENDBLK
  5
11B
330
118
100
AcDbEntity
  8
0
100
AcDbBlockEnd
  0
BLOCK
  5
122
330
120
100
AcDbEntity
  8
0
100
AcDbBlockBegin
  2
block 30
 70
     0
 10
0.0
 20
0.0
 30
0.0
  3
block 30
  1

  0
POLYLINE
  5
124
330
120
100
AcDbEntity
  8
0
 62
     7
420
 16777215
370
    15
100
AcDb2dPolyline
 66
     1
 10
0.0
 20
0.0
 30
0.0
  0
VERTEX
  5
125
330
124
100
AcDbEntity
  8
0
 62
     7
420
 16777215
370
    15
100
AcDbVertex
100
AcDb2dVertex
 10
30.30416796734047
 20
149.9919501764241
 30
0.0
  0
VERTEX
  5
126
330
124
100
AcDbEntity
  8
0
 62
     7
420
 16777215
370
    15
100
AcDbVertex
100
AcDb2dVertex
 10
36.30416736594066
 20
149.9919501764241
 30
0.0
  0
SEQEND
  5
127
330
124
100
AcDbEntity
  8
0
 62
     7
420
 16777215
370
    15
  0
ENDBLK
  5
123
330
120
100
AcDbEntity
  8
0
100
AcDbBlockEnd
  0
BLOCK
  5
12A
330
128
100
AcDbEntity
  8
0
100
AcDbBlockBegin
  2
block 31
 70
     0
 10
0.0
 20
0.0
 30
0.0
  3
block 31
  1

  0
POLYLINE
  5
12C
330
128
100
AcDbEntity
  8
0
 62
     7
420
 16777215
370
    15
100
AcDb2dPolyline
 66
     1
 10
0.0
 20
0.0
 30
0.0
  0
VERTEX
  5
12D
330
12C
100
AcDbEntity
  8
0
 62
     7
420
 16777215
370
    15
100
AcDbVertex
100
AcDb2dVertex
 10
36.30416736594066
 20
149.9919501764241
 30
0.0
  0
VERTEX
  5
12E
330
12C
100
AcDbEntity
  8
0
 62
     7
420
 16777215
370
    15
100
AcDbVertex
100
AcDb2dVertex
 10
36.30416736594066
 20
161.9919478970242
 30
0.0
  0
SEQEND
  5
12F
330
12C
100
AcDbEntity
  8
0
 62
     7
420
 16777215
370
    15
  0
ENDBLK
  5
12B
330
128
100
AcDbEntity
  8
0
100
AcDbBlockEnd
  0
BLOCK
  5
132
330
130
100
AcDbEntity
  8
0
100
AcDbBlockBegin
  2
block 32
 70
     0
 10
0.0
 20
0.0
 30
0.0
  3
block 32
  1

  0
POLYLINE
  5
134
330
130
100
AcDbEntity
  8
0
 62
     7
420
 16777215
370
    15
100
AcDb2dPolyline
 66
     1
 10
0.0
 20
0.0
 30
0.0
  0
VERTEX
  5
135
330
134
100
AcDbEntity
  8
0
 62
     7
420
 16777215
370
    15
100
AcDbVertex
100
AcDb2dVertex
 10
36.30416736594066
 20
161.9919478970242
 30
0.0
  0
VERTEX
  5
136
330
134
100
AcDbEntity
  8
0
 62
     7
420
 16777215
370
    15
100
AcDbVertex
100
AcDb2dVertex
 10
30.30416796734047
 20
161.9919478970242
 30
0.0
  0
SEQEND
  5
137
330
134
100
AcDbEntity
  8
0
 62
     7
420
 16777215
370
    15
  0
ENDBLK
  5
133
330
130
100
AcDbEntity
  8
0
100
AcDbBlockEnd
  0
BLOCK
  5
13A
330
138
100
AcDbEntity
  8
0
100
AcDbBlockBegin
  2
block 33
 70
     0
 10
0.0
 20
0.0
 30
0.0
  3
block 33
  1

  0
POLYLINE
  5
13C
330
138
100
AcDbEntity
  8
0
 62
     7
420
 16777215
370
    15
100
AcDb2dPolyline
 66
     1
 10
0.0
 20
0.0
 30
0.0
  0
VERTEX
  5
13D
330
13C
100
AcDbEntity
  8
0
 62
     7
420
 16777215
370
    15
100
AcDbVertex
100
AcDb2dVertex
 10
30.30416796734047
 20
161.9919478970242
 30
0.0
  0
VERTEX
  5
13E
330
13C
100
AcDbEntity
  8
0
 62
     7
420
 16777215
370
    15
100
AcDbVertex
100
AcDb2dVertex
 10
30.30416796734047
 20
173.991945617624
 30
0.0
  0
SEQEND
  5
13F
330
13C
100
AcDbEntity
  8
0
 62
     7
420
 16777215
370
    15
  0
ENDBLK
  5
13B
330
138
100
AcDbEntity
  8
0
100
AcDbBlockEnd
  0
BLOCK
  5
142
330
140
100
AcDbEntity
  8
0
100
AcDbBlockBegin
  2
block 34
 70
     0
 10
0.0
 20
0.0
 30
0.0
  3
block 34
  1

  0
POLYLINE
  5
144
330
140
100
AcDbEntity
  8
0
 62
     7
420
 16777215
370
    15
100
AcDb2dPolyline
 66
     1
 10
0.0
 20
0.0
 30
0.0
  0
VERTEX
  5
145
330
144
100
AcDbEntity
  8
0
 62
     7
420
 16777215
370
    15
100
AcDbVertex
100
AcDb2dVertex
 10
30.30416796734047
 20
173.991945617624
 30
0.0
  0
VERTEX
  5
146
330
144
100
AcDbEntity
  8
0
 62
     7
420
 16777215
370
    15
100
AcDbVertex
100
AcDb2dVertex
 10
36.30416736594066
 20
173.991945617624
 30
0.0
  0
SEQEND
  5
147
330
144
100
AcDbEntity
  8
0
 62
     7
420
 16777215
370
    15
  0
ENDBLK
  5
143
330
140
100
AcDbEntity
  8
0
100
AcDbBlockEnd
  0
BLOCK
  5
14A
330
148
100
AcDbEntity
  8
0
100
AcDbBlockBegin
  2
block 35
 70
     0
 10
0.0
 20
0.0
 30
0.0
  3
block 35
  1

  0
POLYLINE
  5
14C
330
148
100
AcDbEntity
  8
0
 62
     7
420
 16777215
370
    15
100
AcDb2dPolyline
 66
     1
 10
0.0
 20
0.0
 30
0.0
  0
VERTEX
  5
14D
330
14C
100
AcDbEntity
  8
0
 62
     7
420
 16777215
370
    15
100
AcDbVertex
100
AcDb2dVertex
 10
36.30416736594066
 20
173.991945617624
 30
0.0
  0
VERTEX
  5
14E
330
14C
100
AcDbEntity
  8
0
 62
     7
420
 16777215
370
    15
100
AcDbVertex
100
AcDb2dVertex
 10
36.30416736594066
 20
185.991947644624
 30
0.0
  0
SEQEND
  5
14F
330
14C
100
AcDbEntity
  8
0
 62
     7
420
 16777215
370
    15
  0
ENDBLK
  5
14B
330
148
100
AcDbEntity
  8
0
100
AcDbBlockEnd
  0
BLOCK
  5
152
330
150
100
AcDbEntity
  8
0
100
AcDbBlockBegin
  2
block 36
 70
     0
 10
0.0
 20
0.0
 30
0.0
  3
block 36
  1

  0
POLYLINE
  5
154
330
150
100
AcDbEntity
  8
0
 62
     7
420
 16777215
370
    15
100
AcDb2dPolyline
 66
     1
 10
0.0
 20
0.0
 30
0.0
  0
VERTEX
  5
155
330
154
100
AcDbEntity
  8
0
 62
     7
420
 16777215
370
    15
100
AcDbVertex
100
AcDb2dVertex
 10
36.30416736594066
 20
185.991947644624
 30
0.0
  0
VERTEX
  5
156
330
154
100
AcDbEntity
  8
0
 62
     7
420
 16777215
370
    15
100
AcDbVertex
100
AcDb2dVertex
 10
30.30416796734047
 20
185.991947644624
 30
0.0
  0
SEQEND
  5
157
330
154
100
AcDbEntity
  8
0
 62
     7
420
 16777215
370
    15
  0
ENDBLK
  5
153
330
150
100
AcDbEntity
  8
0
100
AcDbBlockEnd
  0
BLOCK
  5
15A
330
158
100
AcDbEntity
  8
0
100
AcDbBlockBegin
  2
block 37
 70
     0
 10
0.0
 20
0.0
 30
0.0
  3
block 37
  1

  0
POLYLINE
  5
15C
330
158
100
AcDbEntity
  8
0
 62
     7
420
 16777215
370
    15
100
AcDb2dPolyline
 66
     1
 10
0.0
 20
0.0
 30
0.0
  0
VERTEX
  5
15D
330
15C
100
AcDbEntity
  8
0
 62
     7
420
 16777215
370
    15
100
AcDbVertex
100
AcDb2dVertex
 10
30.30416796734047
 20
185.991947644624
 30
0.0
  0
VERTEX
  5
15E
330
15C
100
AcDbEntity
  8
0
 62
     7
420
 16777215
370
    15
100
AcDbVertex
100
AcDb2dVertex
 10
30.30416796734047
 20
197.991945365224
 30
0.0
  0
SEQEND
  5
15F
330
15C
100
AcDbEntity
  8
0
 62
     7
420
 16777215
370
    15
  0
ENDBLK
  5
15B
330
158
100
AcDbEntity
  8
0
100
AcDbBlockEnd
  0
BLOCK
  5
162
330
160
100
AcDbEntity
  8
0
100
AcDbBlockBegin
  2
block 38
 70
     0
 10
0.0
 20
0.0
 30
0.0
  3
block 38
  1

  0
POLYLINE
  5
164
330
160
100
AcDbEntity
  8
0
 62
     7
420
 16777215
370
    15
100
AcDb2dPolyline
 66
     1
 10
0.0
 20
0.0
 30
0.0
  0
VERTEX
  5
165
330
164
100
AcDbEntity
  8
0
 62
     7
420
 16777215
370
    15
100
AcDbVertex
100
AcDb2dVertex
 10
30.30416796734047
 20
197.991945365224
 30
0.0
  0
VERTEX
  5
166
330
164
100
AcDbEntity
  8
0
 62
     7
420
 16777215
370
    15
100
AcDbVertex
100
AcDb2dVertex
 10
36.30416736594066
 20
197.991945365224
 30
0.0
  0
SEQEND
  5
167
330
164
100
AcDbEntity
  8
0
 62
     7
420
 16777215
370
    15
  0
ENDBLK
  5
163
330
160
100
AcDbEntity
  8
0
100
AcDbBlockEnd
  0
BLOCK
  5
16A
330
168
100
AcDbEntity
  8
0
100
AcDbBlockBegin
  2
block 39
 70
     0
 10
0.0
 20
0.0
 30
0.0
  3
block 39
  1

  0
POLYLINE
  5
16C
330
168
100
AcDbEntity
  8
0
 62
     7
420
 16777215
370
    15
100
AcDb2dPolyline
 66
     1
 10
0.0
 20
0.0
 30
0.0
  0
VERTEX
  5
16D
330
16C
100
AcDbEntity
  8
0
 62
     7
420
 16777215
370
    15
100
AcDbVertex
100
AcDb2dVertex
 10
36.30416736594066
 20
197.991945365224
 30
0.0
  0
VERTEX
  5
16E
330
16C
100
AcDbEntity
  8
0
 62
     7
420
 16777215
370
    15
100
AcDbVertex
100
AcDb2dVertex
 10
36.30416736594066
 20
209.9919430859242
 30
0.0
  0
SEQEND
  5
16F
330
16C
100
AcDbEntity
  8
0
 62
     7
420
 16777215
370
    15
  0
ENDBLK
  5
16B
330
168
100
AcDbEntity
  8
0
100
AcDbBlockEnd
  0
BLOCK
  5
172
330
170
100
AcDbEntity
  8
0
100
AcDbBlockBegin
  2
block 40
 70
     0
 10
0.0
 20
0.0
 30
0.0
  3
block 40
  1

  0
POLYLINE
  5
174
330
170
100
AcDbEntity
  8
0
 62
     7
420
 16777215
370
    15
100
AcDb2dPolyline
 66
     1
 10
0.0
 20
0.0
 30
0.0
  0
VERTEX
  5
175
330
174
100
AcDbEntity
  8
0
 62
     7
420
 16777215
370
    15
100
AcDbVertex
100
AcDb2dVertex
 10
36.30416736594066
 20
209.9919430859242
 30
0.0
  0
VERTEX
  5
176
330
174
100
AcDbEntity
  8
0
 62
     7
420
 16777215
370
    15
100
AcDbVertex
100
AcDb2dVertex
 10
30.30416796734047
 20
209.9919430859242
 30
0.0
  0
SEQEND
  5
177
330
174
100
AcDbEntity
  8
0
 62
     7
420
 16777215
370
    15
  0
ENDBLK
  5
173
330
170
100
AcDbEntity
  8
0
100
AcDbBlockEnd
  0
BLOCK
  5
17A
330
178
100
AcDbEntity
  8
0
100
AcDbBlockBegin
  2
block 41
 70
     0
 10
0.0
 20
0.0
 30
0.0
  3
block 41
  1

  0
POLYLINE
  5
17C
330
178
100
AcDbEntity
  8
0
 62
     7
420
 16777215
370
    15
100
AcDb2dPolyline
 66
     1
 10
0.0
 20
0.0
 30
0.0
  0
VERTEX
  5
17D
330
17C
100
AcDbEntity
  8
0
 62
     7
420
 16777215
370
    15
100
AcDbVertex
100
AcDb2dVertex
 10
30.30416796734047
 20
209.9919430859242
 30
0.0
  0
VERTEX
  5
17E
330
17C
100
AcDbEntity
  8
0
 62
     7
420
 16777215
370
    15
100
AcDbVertex
100
AcDb2dVertex
 10
30.30416796734047
 20
221.9919429597243
 30
0.0
  0
SEQEND
  5
17F
330
17C
100
AcDbEntity
  8
0
 62
     7
420
 16777215
370
    15
  0
ENDBLK
  5
17B
330
178
100
AcDbEntity
  8
0
100
AcDbBlockEnd
  0
BLOCK
  5
182
330
180
100
AcDbEntity
  8
0
100
AcDbBlockBegin
  2
block 42
 70
     0
 10
0.0
 20
0.0
 30
0.0
  3
block 42
  1

  0
POLYLINE
  5
184
330
180
100
AcDbEntity
  8
0
 62
     7
420
 16777215
370
    15
100
AcDb2dPolyline
 66
     1
 10
0.0
 20
0.0
 30
0.0
  0
VERTEX
  5
185
330
184
100
AcDbEntity
  8
0
 62
     7
420
 16777215
370
    15
100
AcDbVertex
100
AcDb2dVertex
 10
30.30416796734047
 20
221.9919429597243
 30
0.0
  0
VERTEX
  5
186
330
184
100
AcDbEntity
  8
0
 62
     7
420
 16777215
370
    15
100
AcDbVertex
100
AcDb2dVertex
 10
36.30416736594066
 20
221.9919429597243
 30
0.0
  0
SEQEND
  5
187
330
184
100
AcDbEntity
  8
0
 62
     7
420
 16777215
370
    15
  0
ENDBLK
  5
183
330
180
100
AcDbEntity
  8
0
100
AcDbBlockEnd
  0
BLOCK
  5
18A
330
188
100
AcDbEntity
  8
0
100
AcDbBlockBegin
  2
block 43
 70
     0
 10
0.0
 20
0.0
 30
0.0
  3
block 43
  1

  0
POLYLINE
  5
18C
330
188
100
AcDbEntity
  8
0
 62
     7
420
 16777215
370
    15
100
AcDb2dPolyline
 66
     1
 10
0.0
 20
0.0
 30
0.0
  0
VERTEX
  5
18D
330
18C
100
AcDbEntity
  8
0
 62
     7
420
 16777215
370
    15
100
AcDbVertex
100
AcDb2dVertex
 10
36.30416736594066
 20
221.9919429597243
 30
0.0
  0
VERTEX
  5
18E
330
18C
100
AcDbEntity
  8
0
 62
     7
420
 16777215
370
    15
100
AcDbVertex
100
AcDb2dVertex
 10
36.30416736594066
 20
228.9419432903242
 30
0.0
  0
SEQEND
  5
18F
330
18C
100
AcDbEntity
  8
0
 62
     7
420
 16777215
370
    15
  0
ENDBLK
  5
18B
330
188
100
AcDbEntity
  8
0
100
AcDbBlockEnd
  0
BLOCK
  5
192
330
190
100
AcDbEntity
  8
0
100
AcDbBlockBegin
  2
block 44
 70
     0
 10
0.0
 20
0.0
 30
0.0
  3
block 44
  1

  0
POLYLINE
  5
194
330
190
100
AcDbEntity
  8
0
 62
     7
420
 16777215
370
    15
100
AcDb2dPolyline
 66
     1
 10
0.0
 20
0.0
 30
0.0
  0
VERTEX
  5
195
330
194
100
AcDbEntity
  8
0
 62
     7
420
 16777215
370
    15
100
AcDbVertex
100
AcDb2dVertex
 10
36.30416736594066
 20
228.9419432903242
 30
0.0
  0
VERTEX
  5
196
330
194
100
AcDbEntity
  8
0
 62
     7
420
 16777215
370
    15
100
AcDbVertex
100
AcDb2dVertex
 10
41.40416758144071
 20
228.9419432903242
 30
0.0
  0
SEQEND
  5
197
330
194
100
AcDbEntity
  8
0
 62
     7
420
 16777215
370
    15
  0
ENDBLK
  5
193
330
190
100
AcDbEntity
  8
0
100
AcDbBlockEnd
  0
BLOCK
  5
19A
330
198
100
AcDbEntity
  8
0
100
AcDbBlockBegin
  2
block 45
 70
     0
 10
0.0
 20
0.0
 30
0.0
  3
block 45
  1

  0
POLYLINE
  5
19C
330
198
100
AcDbEntity
  8
0
 62
     7
420
 16777215
370
    15
100
AcDb2dPolyline
 66
     1
 10
0.0
 20
0.0
 30
0.0
  0
VERTEX
  5
19D
330
19C
100
AcDbEntity
  8
0
 62
     7
420
 16777215
370
    15
100
AcDbVertex
100
AcDb2dVertex
 10
41.40416758144071
 20
228.9419432903242
 30
0.0
  0
VERTEX
  5
19E
330
19C
100
AcDbEntity
  8
0
 62
     7
420
 16777215
370
    15
100
AcDbVertex
100
AcDb2dVertex
 10
41.40416758144071
 20
227.6919431689241
 30
0.0
  0
SEQEND
  5
19F
330
19C
100
AcDbEntity
  8
0
 62
     7
420
 16777215
370
    15
  0
ENDBLK
  5
19B
330
198
100
AcDbEntity
  8
0
100
AcDbBlockEnd
  0
BLOCK
  5
1A2
330
1A0
100
AcDbEntity
  8
0
100
AcDbBlockBegin
  2
block 46
 70
     0
 10
0.0
 20
0.0
 30
0.0
  3
block 46
  1

  0
POLYLINE
  5
1A4
330
1A0
100
AcDbEntity
  8
0
 62
     7
420
 16777215
370
    15
100
AcDb2dPolyline
 66
     1
 10
0.0
 20
0.0
 30
0.0
  0
VERTEX
  5
1A5
330
1A4
100
AcDbEntity
  8
0
 62
     7
420
 16777215
370
    15
100
AcDbVertex
100
AcDb2dVertex
 10
41.40416758144071
 20
227.6919431689241
 30
0.0
  0
VERTEX
  5
1A6
330
1A4
100
AcDbEntity
  8
0
 62
     7
420
 16777215
370
    15
100
AcDbVertex
100
AcDb2dVertex
 10
43.90416674764049
 20
227.6919431689241
 30
0.0
  0
SEQEND
  5
1A7
330
1A4
100
AcDbEntity
  8
0
 62
     7
420
 16777215
370
    15
  0
ENDBLK
  5
1A3
330
1A0
100
AcDbEntity
  8
0
100
AcDbBlockEnd
  0
BLOCK
  5
1AA
330
1A8
100
AcDbEntity
  8
0
100
AcDbBlockBegin
  2
block 47
 70
     0
 10
0.0
 20
0.0
 30
0.0
  3
block 47
  1

  0
POLYLINE
  5
1AC
330
1A8
100
AcDbEntity
  8
0
 62
     7
420
 16777215
370
    15
100
AcDb2dPolyline
 66
     1
 10
0.0
 20
0.0
 30
0.0
  0
VERTEX
  5
1AD
330
1AC
100
AcDbEntity
  8
0
 62
     7
420
 16777215
370
    15
100
AcDbVertex
100
AcDb2dVertex
 10
43.90416674764049
 20
227.6919431689241
 30
0.0
  0
VERTEX
  5
1AE
330
1AC
100
AcDbEntity
  8
0
 62
     7
420
 16777215
370
    15
100
AcDbVertex
100
AcDb2dVertex
 10
43.90416674764049
 20
228.9419432903242
 30
0.0
  0
SEQEND
  5
1AF
330
1AC
100
AcDbEntity
  8
0
 62
     7
420
 16777215
370
    15
  0
ENDBLK
  5
1AB
330
1A8
100
AcDbEntity
  8
0
100
AcDbBlockEnd
  0
BLOCK
  5
1B2
330
1B0
100
AcDbEntity
  8
0
100
AcDbBlockBegin
  2
block 48
 70
     0
 10
0.0
 20
0.0
 30
0.0
  3
block 48
  1

  0
POLYLINE
  5
1B4
330
1B0
100
AcDbEntity
  8
0
 62
     7
420
 16777215
370
    15
100
AcDb2dPolyline
 66
     1
 10
0.0
 20
0.0
 30
0.0
  0
VERTEX
  5
1B5
330
1B4
100
AcDbEntity
  8
0
 62
     7
420
 16777215
370
    15
100
AcDbVertex
100
AcDb2dVertex
 10
43.90416674764049
 20
228.9419432903242
 30
0.0
  0
VERTEX
  5
1B6
330
1B4
100
AcDbEntity
  8
0
 62
     7
420
 16777215
370
    15
100
AcDbVertex
100
AcDb2dVertex
 10
46.40416699054067
 20
228.9419432903242
 30
0.0
  0
SEQEND
  5
1B7
330
1B4
100
AcDbEntity
  8
0
 62
     7
420
 16777215
370
    15
  0
ENDBLK
  5
1B3
330
1B0
100
AcDbEntity
  8
0
100
AcDbBlockEnd
  0
BLOCK
  5
1BA
330
1B8
100
AcDbEntity
  8
0
100
AcDbBlockBegin
  2
block 49
 70
     0
 10
0.0
 20
0.0
 30
0.0
  3
block 49
  1

  0
POLYLINE
  5
1BC
330
1B8
100
AcDbEntity
  8
0
 62
     7
420
 16777215
370
    15
100
AcDb2dPolyline
 66
     1
 10
0.0
 20
0.0
 30
0.0
  0
VERTEX
  5
1BD
330
1BC
100
AcDbEntity
  8
0
 62
     7
420
 16777215
370
    15
100
AcDbVertex
100
AcDb2dVertex
 10
46.40416699054067
 20
228.9419432903242
 30
0.0
  0
VERTEX
  5
1BE
330
1BC
100
AcDbEntity
  8
0
 62
     7
420
 16777215
370
    15
100
AcDbVertex
100
AcDb2dVertex
 10
46.40416699054067
 20
232.041942988624
 30
0.0
  0
SEQEND
  5
1BF
330
1BC
100
AcDbEntity
  8
0
 62
     7
420
 16777215
370
    15
  0
ENDBLK
  5
1BB
330
1B8
100
AcDbEntity
  8
0
100
AcDbBlockEnd
  0
BLOCK
  5
1C2
330
1C0
100
AcDbEntity
  8
0
100
AcDbBlockBegin
  2
block 50
 70
     0
 10
0.0
 20
0.0
 30
0.0
  3
block 50
  1

  0
POLYLINE
  5
1C4
330
1C0
100
AcDbEntity
  8
0
 62
     7
420
 16777215
370
    15
100
AcDb2dPolyline
 66
     1
 10
0.0
 20
0.0
 30
0.0
  0
VERTEX
  5
1C5
330
1C4
100
AcDbEntity
  8
0
 62
     7
420
 16777215
370
    15
100
AcDbVertex
100
AcDb2dVertex
 10
46.40416699054067
 20
232.041942988624
 30
0.0
  0
VERTEX
  5
1C6
330
1C4
100
AcDbEntity
  8
0
 62
     7
420
 16777215
370
    15
100
AcDbVertex
100
AcDb2dVertex
 10
43.90416674764049
 20
232.041942988624
 30
0.0
  0
SEQEND
  5
1C7
330
1C4
100
AcDbEntity
  8
0
 62
     7
420
 16777215
370
    15
  0
ENDBLK
  5
1C3
330
1C0
100
AcDbEntity
  8
0
100
AcDbBlockEnd
  0
BLOCK
  5
1CA
330
1C8
100
AcDbEntity
  8
0
100
AcDbBlockBegin
  2
block 51
 70
     0
 10
0.0
 20
0.0
 30
0.0
  3
block 51
  1

  0
POLYLINE
  5
1CC
330
1C8
100
AcDbEntity
  8
0
 62
     7
420
 16777215
370
    15
100
AcDb2dPolyline
 66
     1
 10
0.0
 20
0.0
 30
0.0
  0
VERTEX
  5
1CD
330
1CC
100
AcDbEntity
  8
0
 62
     7
420
 16777215
370
    15
100
AcDbVertex
100
AcDb2dVertex
 10
43.90416674764049
 20
232.041942988624
 30
0.0
  0
VERTEX
  5
1CE
330
1CC
100
AcDbEntity
  8
0
 62
     7
420
 16777215
370
    15
100
AcDbVertex
100
AcDb2dVertex
 10
43.90416674764049
 20
233.2919431100241
 30
0.0
  0
SEQEND
  5
1CF
330
1CC
100
AcDbEntity
  8
0
 62
     7
420
 16777215
370
    15
  0
ENDBLK
  5
1CB
330
1C8
100
AcDbEntity
  8
0
100
AcDbBlockEnd
  0
BLOCK
  5
1D2
330
1D0
100
AcDbEntity
  8
0
100
AcDbBlockBegin
  2
block 52
 70
     0
 10
0.0
 20
0.0
 30
0.0
  3
block 52
  1

  0
POLYLINE
  5
1D4
330
1D0
100
AcDbEntity
  8
0
 62
     7
420
 16777215
370
    15
100
AcDb2dPolyline
 66
     1
 10
0.0
 20
0.0
 30
0.0
  0
VERTEX
  5
1D5
330
1D4
100
AcDbEntity
  8
0
 62
     7
420
 16777215
370
    15
100
AcDbVertex
100
AcDb2dVertex
 10
43.90416674764049
 20
233.2919431100241
 30
0.0
  0
VERTEX
  5
1D6
330
1D4
100
AcDbEntity
  8
0
 62
     7
420
 16777215
370
    15
100
AcDbVertex
100
AcDb2dVertex
 10
41.40416758144071
 20
233.2919431100241
 30
0.0
  0
SEQEND
  5
1D7
330
1D4
100
AcDbEntity
  8
0
 62
     7
420
 16777215
370
    15
  0
ENDBLK
  5
1D3
330
1D0
100
AcDbEntity
  8
0
100
AcDbBlockEnd
  0
BLOCK
  5
1DA
330
1D8
100
AcDbEntity
  8
0
100
AcDbBlockBegin
  2
block 53
 70
     0
 10
0.0
 20
0.0
 30
0.0
  3
block 53
  1

  0
POLYLINE
  5
1DC
330
1D8
100
AcDbEntity
  8
0
 62
     7
420
 16777215
370
    15
100
AcDb2dPolyline
 66
     1
 10
0.0
 20
0.0
 30
0.0
  0
VERTEX
  5
1DD
330
1DC
100
AcDbEntity
  8
0
 62
     7
420
 16777215
370
    15
100
AcDbVertex
100
AcDb2dVertex
 10
41.40416758144071
 20
233.2919431100241
 30
0.0
  0
VERTEX
  5
1DE
330
1DC
100
AcDbEntity
  8
0
 62
     7
420
 16777215
370
    15
100
AcDbVertex
100
AcDb2dVertex
 10
41.40416758144071
 20
232.041942988624
 30
0.0
  0
SEQEND
  5
1DF
330
1DC
100
AcDbEntity
  8
0
 62
     7
420
 16777215
370
    15
  0
ENDBLK
  5
1DB
330
1D8
100
AcDbEntity
  8
0
100
AcDbBlockEnd
  0
BLOCK
  5
1E2
330
1E0
100
AcDbEntity
  8
0
100
AcDbBlockBegin
  2
block 54
 70
     0
 10
0.0
 20
0.0
 30
0.0
  3
block 54
  1

  0
POLYLINE
  5
1E4
330
1E0
100
AcDbEntity
  8
0
 62
     7
420
 16777215
370
    15
100
AcDb2dPolyline
 66
     1
 10
0.0
 20
0.0
 30
0.0
  0
VERTEX
  5
1E5
330
1E4
100
AcDbEntity
  8
0
 62
     7
420
 16777215
370
    15
100
AcDbVertex
100
AcDb2dVertex
 10
41.40416758144071
 20
232.041942988624
 30
0.0
  0
VERTEX
  5
1E6
330
1E4
100
AcDbEntity
  8
0
 62
     7
420
 16777215
370
    15
100
AcDbVertex
100
AcDb2dVertex
 10
36.30416736594066
 20
232.041942988624
 30
0.0
  0
SEQEND
  5
1E7
330
1E4
100
AcDbEntity
  8
0
 62
     7
420
 16777215
370
    15
  0
ENDBLK
  5
1E3
330
1E0
100
AcDbEntity
  8
0
100
AcDbBlockEnd
  0
BLOCK
  5
1EA
330
1E8
100
AcDbEntity
  8
0
100
AcDbBlockBegin
  2
block 55
 70
     0
 10
0.0
 20
0.0
 30
0.0
  3
block 55
  1

  0
POLYLINE
  5
1EC
330
1E8
100
AcDbEntity
  8
0
 62
     7
420
 16777215
370
    15
100
AcDb2dPolyline
 66
     1
 10
0.0
 20
0.0
 30
0.0
  0
VERTEX
  5
1ED
330
1EC
100
AcDbEntity
  8
0
 62
     7
420
 16777215
370
    15
100
AcDbVertex
100
AcDb2dVertex
 10
36.30416736594066
 20
232.041942988624
 30
0.0
  0
VERTEX
  5
1EE
330
1EC
100
AcDbEntity
  8
0
 62
     7
420
 16777215
370
    15
100
AcDbVertex
100
AcDb2dVertex
 10
36.30416736594066
 20
238.9919422426243
 30
0.0
  0
SEQEND
  5
1EF
330
1EC
100
AcDbEntity
  8
0
 62
     7
420
 16777215
370
    15
  0
ENDBLK
  5
1EB
330
1E8
100
AcDbEntity
  8
0
100
AcDbBlockEnd
  0
BLOCK
  5
1F2
330
1F0
100
AcDbEntity
  8
0
100
AcDbBlockBegin
  2
block 56
 70
     0
 10
0.0
 20
0.0
 30
0.0
  3
block 56
  1

  0
POLYLINE
  5
1F4
330
1F0
100
AcDbEntity
  8
0
 62
     7
420
 16777215
370
    15
100
AcDb2dPolyline
 66
     1
 10
0.0
 20
0.0
 30
0.0
  0
VERTEX
  5
1F5
330
1F4
100
AcDbEntity
  8
0
 62
     7
420
 16777215
370
    15
100
AcDbVertex
100
AcDb2dVertex
 10
36.30416736594066
 20
238.9919422426243
 30
0.0
  0
VERTEX
  5
1F6
330
1F4
100
AcDbEntity
  8
0
 62
     7
420
 16777215
370
    15
100
AcDbVertex
100
AcDb2dVertex
 10
30.30416796734047
 20
238.9919422426243
 30
0.0
  0
SEQEND
  5
1F7
330
1F4
100
AcDbEntity
  8
0
 62
     7
420
 16777215
370
    15
  0
ENDBLK
  5
1F3
330
1F0
100
AcDbEntity
  8
0
100
AcDbBlockEnd
  0
BLOCK
  5
1FA
330
1F8
100
AcDbEntity
  8
0
100
AcDbBlockBegin
  2
block 57
 70
     0
 10
0.0
 20
0.0
 30
0.0
  3
block 57
  1

  0
POLYLINE
  5
1FC
330
1F8
100
AcDbEntity
  8
0
 62
     7
420
 16777215
370
    15
100
AcDb2dPolyline
 66
     1
 10
0.0
 20
0.0
 30
0.0
  0
VERTEX
  5
1FD
330
1FC
100
AcDbEntity
  8
0
 62
     7
420
 16777215
370
    15
100
AcDbVertex
100
AcDb2dVertex
 10
30.30416796734047
 20
238.9919422426243
 30
0.0
  0
VERTEX
  5
1FE
330
1FC
100
AcDbEntity
  8
0
 62
     7
420
 16777215
370
    15
100
AcDbVertex
100
AcDb2dVertex
 10
30.30416796734047
 20
249.9919421269241
 30
0.0
  0
SEQEND
  5
1FF
330
1FC
100
AcDbEntity
  8
0
 62
     7
420
 16777215
370
    15
  0
ENDBLK
  5
1FB
330
1F8
100
AcDbEntity
  8
0
100
AcDbBlockEnd
  0
BLOCK
  5
202
330
200
100
AcDbEntity
  8
0
100
AcDbBlockBegin
  2
block 58
 70
     0
 10
0.0
 20
0.0
 30
0.0
  3
block 58
  1

  0
POLYLINE
  5
204
330
200
100
AcDbEntity
  8
0
 62
     7
420
 16777215
370
    15
100
AcDb2dPolyline
 66
     1
 10
0.0
 20
0.0
 30
0.0
  0
VERTEX
  5
205
330
204
100
AcDbEntity
  8
0
 62
     7
420
 16777215
370
    15
100
AcDbVertex
100
AcDb2dVertex
 10
30.30416796734047
 20
249.9919421269241
 30
0.0
  0
VERTEX
  5
206
330
204
100
AcDbEntity
  8
0
 62
     7
420
 16777215
370
    15
100
AcDbVertex
100
AcDb2dVertex
 10
46.80416698634076
 20
249.9919421269241
 30
0.0
  0
SEQEND
  5
207
330
204
100
AcDbEntity
  8
0
 62
     7
420
 16777215
370
    15
  0
ENDBLK
  5
203
330
200
100
AcDbEntity
  8
0
100
AcDbBlockEnd
  0
BLOCK
  5
20A
330
208
100
AcDbEntity
  8
0
100
AcDbBlockBegin
  2
block 59
 70
     0
 10
0.0
 20
0.0
 30
0.0
  3
block 59
  1

  0
POLYLINE
  5
20C
330
208
100
AcDbEntity
  8
0
 62
     7
420
 16777215
370
    15
100
AcDb2dPolyline
 66
     1
 10
0.0
 20
0.0
 30
0.0
  0
VERTEX
  5
20D
330
20C
100
AcDbEntity
  8
0
 62
     7
420
 16777215
370
    15
100
AcDbVertex
100
AcDb2dVertex
 10
46.80416698634076
 20
249.9919421269241
 30
0.0
  0
VERTEX
  5
20E
330
20C
100
AcDbEntity
  8
0
 62
     7
420
 16777215
370
    15
100
AcDbVertex
100
AcDb2dVertex
 10
46.80416698634076
 20
255.9919415255243
 30
0.0
  0
SEQEND
  5
20F
330
20C
100
AcDbEntity
  8
0
 62
     7
420
 16777215
370
    15
  0
ENDBLK
  5
20B
330
208
100
AcDbEntity
  8
0
100
AcDbBlockEnd
  0
BLOCK
  5
212
330
210
100
AcDbEntity
  8
0
100
AcDbBlockBegin
  2
block 60
 70
     0
 10
0.0
 20
0.0
 30
0.0
  3
block 60
  1

  0
POLYLINE
  5
214
330
210
100
AcDbEntity
  8
0
 62
     7
420
 16777215
370
    15
100
AcDb2dPolyline
 66
     1
 10
0.0
 20
0.0
 30
0.0
  0
VERTEX
  5
215
330
214
100
AcDbEntity
  8
0
 62
     7
420
 16777215
370
    15
100
AcDbVertex
100
AcDb2dVertex
 10
46.80416698634076
 20
255.9919415255243
 30
0.0
  0
VERTEX
  5
216
330
214
100
AcDbEntity
  8
0
 62
     7
420
 16777215
370
    15
100
AcDbVertex
100
AcDb2dVertex
 10
53.5042511171406
 20
255.9920108727241
 30
0.0
  0
SEQEND
  5
217
330
214
100
AcDbEntity
  8
0
 62
     7
420
 16777215
370
    15
  0
ENDBLK
  5
213
330
210
100
AcDbEntity
  8
0
100
AcDbBlockEnd
  0
BLOCK
  5
21A
330
218
100
AcDbEntity
  8
0
100
AcDbBlockBegin
  2
block 61
 70
     0
 10
0.0
 20
0.0
 30
0.0
  3
block 61
  1

  0
POLYLINE
  5
21C
330
218
100
AcDbEntity
  8
0
 62
     7
420
 16777215
370
    15
100
AcDb2dPolyline
 66
     1
 10
0.0
 20
0.0
 30
0.0
  0
VERTEX
  5
21D
330
21C
100
AcDbEntity
  8
0
 62
     7
420
 16777215
370
    15
100
AcDbVertex
100
AcDb2dVertex
 10
53.5042511171406
 20
255.9920108727241
 30
0.0
  0
VERTEX
  5
21E
330
21C
100
AcDbEntity
  8
0
 62
     7
420
 16777215
370
    15
100
AcDbVertex
100
AcDb2dVertex
 10
53.5042511171406
 20
254.001963673524
 30
0.0
  0
SEQEND
  5
21F
330
21C
100
AcDbEntity
  8
0
 62
     7
420
 16777215
370
    15
  0
ENDBLK
  5
21B
330
218
100
AcDbEntity
  8
0
100
AcDbBlockEnd
  0
BLOCK
  5
222
330
220
100
AcDbEntity
  8
0
100
AcDbBlockBegin
  2
block 62
 70
     0
 10
0.0
 20
0.0
 30
0.0
  3
block 62
  1

  0
POLYLINE
  5
224
330
220
100
AcDbEntity
  8
0
 62
     7
420
 16777215
370
    15
100
AcDb2dPolyline
 66
     1
 10
0.0
 20
0.0
 30
0.0
  0
VERTEX
  5
225
330
224
100
AcDbEntity
  8
0
 62
     7
420
 16777215
370
    15
100
AcDbVertex
100
AcDb2dVertex
 10
56.60425242394059
 20
255.9920108727241
 30
0.0
  0
VERTEX
  5
226
330
224
100
AcDbEntity
  8
0
 62
     7
420
 16777215
370
    15
100
AcDbVertex
100
AcDb2dVertex
 10
56.60425242394059
 20
254.0019620212241
 30
0.0
  0
SEQEND
  5
227
330
224
100
AcDbEntity
  8
0
 62
     7
420
 16777215
370
    15
  0
ENDBLK
  5
223
330
220
100
AcDbEntity
  8
0
100
AcDbBlockEnd
  0
BLOCK
  5
22A
330
228
100
AcDbEntity
  8
0
100
AcDbBlockBegin
  2
block 63
 70
     0
 10
0.0
 20
0.0
 30
0.0
  3
block 63
  1

  0
POLYLINE
  5
22C
330
228
100
AcDbEntity
  8
0
 62
     7
420
 16777215
370
    15
100
AcDb2dPolyline
 66
     1
 10
0.0
 20
0.0
 30
0.0
  0
VERTEX
  5
22D
330
22C
100
AcDbEntity
  8
0
 62
     7
420
 16777215
370
    15
100
AcDbVertex
100
AcDb2dVertex
 10
56.60425242394059
 20
255.9920108727241
 30
0.0
  0
VERTEX
  5
22E
330
22C
100
AcDbEntity
  8
0
 62
     7
420
 16777215
370
    15
100
AcDbVertex
100
AcDb2dVertex
 10
63.30416600534073
 20
255.9919415255243
 30
0.0
  0
SEQEND
  5
22F
330
22C
100
AcDbEntity
  8
0
 62
     7
420
 16777215
370
    15
  0
ENDBLK
  5
22B
330
228
100
AcDbEntity
  8
0
100
AcDbBlockEnd
  0
BLOCK
  5
232
330
230
100
AcDbEntity
  8
0
100
AcDbBlockBegin
  2
block 64
 70
     0
 10
0.0
 20
0.0
 30
0.0
  3
block 64
  1

  0
POLYLINE
  5
234
330
230
100
AcDbEntity
  8
0
 62
     7
420
 16777215
370
    15
100
AcDb2dPolyline
 66
     1
 10
0.0
 20
0.0
 30
0.0
  0
VERTEX
  5
235
330
234
100
AcDbEntity
  8
0
 62
     7
420
 16777215
370
    15
100
AcDbVertex
100
AcDb2dVertex
 10
63.30416600534073
 20
255.9919415255243
 30
0.0
  0
VERTEX
  5
236
330
234
100
AcDbEntity
  8
0
 62
     7
420
 16777215
370
    15
100
AcDbVertex
100
AcDb2dVertex
 10
63.30416600534073
 20
249.9919421269241
 30
0.0
  0
SEQEND
  5
237
330
234
100
AcDbEntity
  8
0
 62
     7
420
 16777215
370
    15
  0
ENDBLK
  5
233
330
230
100
AcDbEntity
  8
0
100
AcDbBlockEnd
  0
BLOCK
  5
23A
330
238
100
AcDbEntity
  8
0
100
AcDbBlockBegin
  2
block 65
 70
     0
 10
0.0
 20
0.0
 30
0.0
  3
block 65
  1

  0
POLYLINE
  5
23C
330
238
100
AcDbEntity
  8
0
 62
     7
420
 16777215
370
    15
100
AcDb2dPolyline
 66
     1
 10
0.0
 20
0.0
 30
0.0
  0
VERTEX
  5
23D
330
23C
100
AcDbEntity
  8
0
 62
     7
420
 16777215
370
    15
100
AcDbVertex
100
AcDb2dVertex
 10
63.30416600534073
 20
249.9919421269241
 30
0.0
  0
VERTEX
  5
23E
330
23C
100
AcDbEntity
  8
0
 62
     7
420
 16777215
370
    15
100
AcDbVertex
100
AcDb2dVertex
 10
75.3041637260406
 20
249.9919421269241
 30
0.0
  0
SEQEND
  5
23F
330
23C
100
AcDbEntity
  8
0
 62
     7
420
 16777215
370
    15
  0
ENDBLK
  5
23B
330
238
100
AcDbEntity
  8
0
100
AcDbBlockEnd
  0
BLOCK
  5
242
330
240
100
AcDbEntity
  8
0
100
AcDbBlockBegin
  2
block 66
 70
     0
 10
0.0
 20
0.0
 30
0.0
  3
block 66
  1

  0
POLYLINE
  5
244
330
240
100
AcDbEntity
  8
0
 62
     7
420
 16777215
370
    15
100
AcDb2dPolyline
 66
     1
 10
0.0
 20
0.0
 30
0.0
  0
VERTEX
  5
245
330
244
100
AcDbEntity
  8
0
 62
     7
420
 16777215
370
    15
100
AcDbVertex
100
AcDb2dVertex
 10
75.3041637260406
 20
249.9919421269241
 30
0.0
  0
VERTEX
  5
246
330
244
100
AcDbEntity
  8
0
 62
     7
420
 16777215
370
    15
100
AcDbVertex
100
AcDb2dVertex
 10
75.3041637260406
 20
255.9919415255243
 30
0.0
  0
SEQEND
  5
247
330
244
100
AcDbEntity
  8
0
 62
     7
420
 16777215
370
    15
  0
ENDBLK
  5
243
330
240
100
AcDbEntity
  8
0
100
AcDbBlockEnd
  0
BLOCK
  5
24A
330
248
100
AcDbEntity
  8
0
100
AcDbBlockBegin
  2
block 67
 70
     0
 10
0.0
 20
0.0
 30
0.0
  3
block 67
  1

  0
POLYLINE
  5
24C
330
248
100
AcDbEntity
  8
0
 62
     7
420
 16777215
370
    15
100
AcDb2dPolyline
 66
     1
 10
0.0
 20
0.0
 30
0.0
  0
VERTEX
  5
24D
330
24C
100
AcDbEntity
  8
0
 62
     7
420
 16777215
370
    15
100
AcDbVertex
100
AcDb2dVertex
 10
75.3041637260406
 20
255.9919415255243
 30
0.0
  0
VERTEX
  5
24E
330
24C
100
AcDbEntity
  8
0
 62
     7
420
 16777215
370
    15
100
AcDbVertex
100
AcDb2dVertex
 10
87.30416575304059
 20
255.9919415255243
 30
0.0
  0
SEQEND
  5
24F
330
24C
100
AcDbEntity
  8
0
 62
     7
420
 16777215
370
    15
  0
ENDBLK
  5
24B
330
248
100
AcDbEntity
  8
0
100
AcDbBlockEnd
  0
BLOCK
  5
252
330
250
100
AcDbEntity
  8
0
100
AcDbBlockBegin
  2
block 68
 70
     0
 10
0.0
 20
0.0
 30
0.0
  3
block 68
  1

  0
POLYLINE
  5
254
330
250
100
AcDbEntity
  8
0
 62
     7
420
 16777215
370
    15
100
AcDb2dPolyline
 66
     1
 10
0.0
 20
0.0
 30
0.0
  0
VERTEX
  5
255
330
254
100
AcDbEntity
  8
0
 62
     7
420
 16777215
370
    15
100
AcDbVertex
100
AcDb2dVertex
 10
87.30416575304059
 20
255.9919415255243
 30
0.0
  0
VERTEX
  5
256
330
254
100
AcDbEntity
  8
0
 62
     7
420
 16777215
370
    15
100
AcDbVertex
100
AcDb2dVertex
 10
87.30416575304059
 20
249.9919421269241
 30
0.0
  0
SEQEND
  5
257
330
254
100
AcDbEntity
  8
0
 62
     7
420
 16777215
370
    15
  0
ENDBLK
  5
253
330
250
100
AcDbEntity
  8
0
100
AcDbBlockEnd
  0
BLOCK
  5
25A
330
258
100
AcDbEntity
  8
0
100
AcDbBlockBegin
  2
block 69
 70
     0
 10
0.0
 20
0.0
 30
0.0
  3
block 69
  1

  0
POLYLINE
  5
25C
330
258
100
AcDbEntity
  8
0
 62
     7
420
 16777215
370
    15
100
AcDb2dPolyline
 66
     1
 10
0.0
 20
0.0
 30
0.0
  0
VERTEX
  5
25D
330
25C
100
AcDbEntity
  8
0
 62
     7
420
 16777215
370
    15
100
AcDbVertex
100
AcDb2dVertex
 10
87.30416575304059
 20
249.9919421269241
 30
0.0
  0
VERTEX
  5
25E
330
25C
100
AcDbEntity
  8
0
 62
     7
420
 16777215
370
    15
100
AcDbVertex
100
AcDb2dVertex
 10
99.30416347364068
 20
249.9919421269241
 30
0.0
  0
SEQEND
  5
25F
330
25C
100
AcDbEntity
  8
0
 62
     7
420
 16777215
370
    15
  0
ENDBLK
  5
25B
330
258
100
AcDbEntity
  8
0
100
AcDbBlockEnd
  0
BLOCK
  5
262
330
260
100
AcDbEntity
  8
0
100
AcDbBlockBegin
  2
block 70
 70
     0
 10
0.0
 20
0.0
 30
0.0
  3
block 70
  1

  0
POLYLINE
  5
264
330
260
100
AcDbEntity
  8
0
 62
     7
420
 16777215
370
    15
100
AcDb2dPolyline
 66
     1
 10
0.0
 20
0.0
 30
0.0
  0
VERTEX
  5
265
330
264
100
AcDbEntity
  8
0
 62
     7
420
 16777215
370
    15
100
AcDbVertex
100
AcDb2dVertex
 10
99.30416347364068
 20
249.9919421269241
 30
0.0
  0
VERTEX
  5
266
330
264
100
AcDbEntity
  8
0
 62
     7
420
 16777215
370
    15
100
AcDbVertex
100
AcDb2dVertex
 10
99.30416347364068
 20
255.9919415255243
 30
0.0
  0
SEQEND
  5
267
330
264
100
AcDbEntity
  8
0
 62
     7
420
 16777215
370
    15
  0
ENDBLK
  5
263
330
260
100
AcDbEntity
  8
0
100
AcDbBlockEnd
  0
BLOCK
  5
26A
330
268
100
AcDbEntity
  8
0
100
AcDbBlockBegin
  2
block 71
 70
     0
 10
0.0
 20
0.0
 30
0.0
  3
block 71
  1

  0
POLYLINE
  5
26C
330
268
100
AcDbEntity
  8
0
 62
     7
420
 16777215
370
    15
100
AcDb2dPolyline
 66
     1
 10
0.0
 20
0.0
 30
0.0
  0
VERTEX
  5
26D
330
26C
100
AcDbEntity
  8
0
 62
     7
420
 16777215
370
    15
100
AcDbVertex
100
AcDb2dVertex
 10
99.30416347364068
 20
255.9919415255243
 30
0.0
  0
VERTEX
  5
26E
330
26C
100
AcDbEntity
  8
0
 62
     7
420
 16777215
370
    15
100
AcDbVertex
100
AcDb2dVertex
 10
111.3041655006404
 20
255.9919415255243
 30
0.0
  0
SEQEND
  5
26F
330
26C
100
AcDbEntity
  8
0
 62
     7
420
 16777215
370
    15
  0
ENDBLK
  5
26B
330
268
100
AcDbEntity
  8
0
100
AcDbBlockEnd
  0
BLOCK
  5
272
330
270
100
AcDbEntity
  8
0
100
AcDbBlockBegin
  2
block 72
 70
     0
 10
0.0
 20
0.0
 30
0.0
  3
block 72
  1

  0
POLYLINE
  5
274
330
270
100
AcDbEntity
  8
0
 62
     7
420
 16777215
370
    15
100
AcDb2dPolyline
 66
     1
 10
0.0
 20
0.0
 30
0.0
  0
VERTEX
  5
275
330
274
100
AcDbEntity
  8
0
 62
     7
420
 16777215
370
    15
100
AcDbVertex
100
AcDb2dVertex
 10
111.3041655006404
 20
255.9919415255243
 30
0.0
  0
VERTEX
  5
276
330
274
100
AcDbEntity
  8
0
 62
     7
420
 16777215
370
    15
100
AcDbVertex
100
AcDb2dVertex
 10
111.3041655006404
 20
249.9919421269241
 30
0.0
  0
SEQEND
  5
277
330
274
100
AcDbEntity
  8
0
 62
     7
420
 16777215
370
    15
  0
ENDBLK
  5
273
330
270
100
AcDbEntity
  8
0
100
AcDbBlockEnd
  0
BLOCK
  5
27A
330
278
100
AcDbEntity
  8
0
100
AcDbBlockBegin
  2
block 73
 70
     0
 10
0.0
 20
0.0
 30
0.0
  3
block 73
  1

  0
POLYLINE
  5
27C
330
278
100
AcDbEntity
  8
0
 62
     7
420
 16777215
370
    15
100
AcDb2dPolyline
 66
     1
 10
0.0
 20
0.0
 30
0.0
  0
VERTEX
  5
27D
330
27C
100
AcDbEntity
  8
0
 62
     7
420
 16777215
370
    15
100
AcDbVertex
100
AcDb2dVertex
 10
111.3041655006404
 20
249.9919421269241
 30
0.0
  0
VERTEX
  5
27E
330
27C
100
AcDbEntity
  8
0
 62
     7
420
 16777215
370
    15
100
AcDbVertex
100
AcDb2dVertex
 10
123.3041632212404
 20
249.9919421269241
 30
0.0
  0
SEQEND
  5
27F
330
27C
100
AcDbEntity
  8
0
 62
     7
420
 16777215
370
    15
  0
ENDBLK
  5
27B
330
278
100
AcDbEntity
  8
0
100
AcDbBlockEnd
  0
BLOCK
  5
282
330
280
100
AcDbEntity
  8
0
100
AcDbBlockBegin
  2
block 74
 70
     0
 10
0.0
 20
0.0
 30
0.0
  3
block 74
  1

  0
POLYLINE
  5
284
330
280
100
AcDbEntity
  8
0
 62
     7
420
 16777215
370
    15
100
AcDb2dPolyline
 66
     1
 10
0.0
 20
0.0
 30
0.0
  0
VERTEX
  5
285
330
284
100
AcDbEntity
  8
0
 62
     7
420
 16777215
370
    15
100
AcDbVertex
100
AcDb2dVertex
 10
123.3041632212404
 20
249.9919421269241
 30
0.0
  0
VERTEX
  5
286
330
284
100
AcDbEntity
  8
0
 62
     7
420
 16777215
370
    15
100
AcDbVertex
100
AcDb2dVertex
 10
123.3041632212404
 20
255.9919415255243
 30
0.0
  0
SEQEND
  5
287
330
284
100
AcDbEntity
  8
0
 62
     7
420
 16777215
370
    15
  0
ENDBLK
  5
283
330
280
100
AcDbEntity
  8
0
100
AcDbBlockEnd
  0
BLOCK
  5
28A
330
288
100
AcDbEntity
  8
0
100
AcDbBlockBegin
  2
block 75
 70
     0
 10
0.0
 20
0.0
 30
0.0
  3
block 75
  1

  0
POLYLINE
  5
28C
330
288
100
AcDbEntity
  8
0
 62
     7
420
 16777215
370
    15
100
AcDb2dPolyline
 66
     1
 10
0.0
 20
0.0
 30
0.0
  0
VERTEX
  5
28D
330
28C
100
AcDbEntity
  8
0
 62
     7
420
 16777215
370
    15
100
AcDbVertex
100
AcDb2dVertex
 10
123.3041632212404
 20
255.9919415255243
 30
0.0
  0
VERTEX
  5
28E
330
28C
100
AcDbEntity
  8
0
 62
     7
420
 16777215
370
    15
100
AcDbVertex
100
AcDb2dVertex
 10
135.3041609418405
 20
255.9919415255243
 30
0.0
  0
SEQEND
  5
28F
330
28C
100
AcDbEntity
  8
0
 62
     7
420
 16777215
370
    15
  0
ENDBLK
  5
28B
330
288
100
AcDbEntity
  8
0
100
AcDbBlockEnd
  0
BLOCK
  5
292
330
290
100
AcDbEntity
  8
0
100
AcDbBlockBegin
  2
block 76
 70
     0
 10
0.0
 20
0.0
 30
0.0
  3
block 76
  1

  0
POLYLINE
  5
294
330
290
100
AcDbEntity
  8
0
 62
     7
420
 16777215
370
    15
100
AcDb2dPolyline
 66
     1
 10
0.0
 20
0.0
 30
0.0
  0
VERTEX
  5
295
330
294
100
AcDbEntity
  8
0
 62
     7
420
 16777215
370
    15
100
AcDbVertex
100
AcDb2dVertex
 10
135.3041609418405
 20
255.9919415255243
 30
0.0
  0
VERTEX
  5
296
330
294
100
AcDbEntity
  8
0
 62
     7
420
 16777215
370
    15
100
AcDbVertex
100
AcDb2dVertex
 10
135.3041609418405
 20
249.9919421269241
 30
0.0
  0
SEQEND
  5
297
330
294
100
AcDbEntity
  8
0
 62
     7
420
 16777215
370
    15
  0
ENDBLK
  5
293
330
290
100
AcDbEntity
  8
0
100
AcDbBlockEnd
  0
BLOCK
  5
29A
330
298
100
AcDbEntity
  8
0
100
AcDbBlockBegin
  2
block 77
 70
     0
 10
0.0
 20
0.0
 30
0.0
  3
block 77
  1

  0
POLYLINE
  5
29C
330
298
100
AcDbEntity
  8
0
 62
     7
420
 16777215
370
    15
100
AcDb2dPolyline
 66
     1
 10
0.0
 20
0.0
 30
0.0
  0
VERTEX
  5
29D
330
29C
100
AcDbEntity
  8
0
 62
     7
420
 16777215
370
    15
100
AcDbVertex
100
AcDb2dVertex
 10
135.3041609418405
 20
249.9919421269241
 30
0.0
  0
VERTEX
  5
29E
330
29C
100
AcDbEntity
  8
0
 62
     7
420
 16777215
370
    15
100
AcDbVertex
100
AcDb2dVertex
 10
147.3041586624406
 20
249.9919421269241
 30
0.0
  0
SEQEND
  5
29F
330
29C
100
AcDbEntity
  8
0
 62
     7
420
 16777215
370
    15
  0
ENDBLK
  5
29B
330
298
100
AcDbEntity
  8
0
100
AcDbBlockEnd
  0
BLOCK
  5
2A2
330
2A0
100
AcDbEntity
  8
0
100
AcDbBlockBegin
  2
block 78
 70
     0
 10
0.0
 20
0.0
 30
0.0
  3
block 78
  1

  0
POLYLINE
  5
2A4
330
2A0
100
AcDbEntity
  8
0
 62
     7
420
 16777215
370
    15
100
AcDb2dPolyline
 66
     1
 10
0.0
 20
0.0
 30
0.0
  0
VERTEX
  5
2A5
330
2A4
100
AcDbEntity
  8
0
 62
     7
420
 16777215
370
    15
100
AcDbVertex
100
AcDb2dVertex
 10
147.3041586624406
 20
249.9919421269241
 30
0.0
  0
VERTEX
  5
2A6
330
2A4
100
AcDbEntity
  8
0
 62
     7
420
 16777215
370
    15
100
AcDbVertex
100
AcDb2dVertex
 10
147.3041586624406
 20
255.9919415255243
 30
0.0
  0
SEQEND
  5
2A7
330
2A4
100
AcDbEntity
  8
0
 62
     7
420
 16777215
370
    15
  0
ENDBLK
  5
2A3
330
2A0
100
AcDbEntity
  8
0
100
AcDbBlockEnd
  0
BLOCK
  5
2AA
330
2A8
100
AcDbEntity
  8
0
100
AcDbBlockBegin
  2
block 79
 70
     0
 10
0.0
 20
0.0
 30
0.0
  3
block 79
  1

  0
POLYLINE
  5
2AC
330
2A8
100
AcDbEntity
  8
0
 62
     7
420
 16777215
370
    15
100
AcDb2dPolyline
 66
     1
 10
0.0
 20
0.0
 30
0.0
  0
VERTEX
  5
2AD
330
2AC
100
AcDbEntity
  8
0
 62
     7
420
 16777215
370
    15
100
AcDbVertex
100
AcDb2dVertex
 10
147.3041586624406
 20
255.9919415255243
 30
0.0
  0
VERTEX
  5
2AE
330
2AC
100
AcDbEntity
  8
0
 62
     7
420
 16777215
370
    15
100
AcDbVertex
100
AcDb2dVertex
 10
154.0042511171406
 20
255.9920108727241
 30
0.0
  0
SEQEND
  5
2AF
330
2AC
100
AcDbEntity
  8
0
 62
     7
420
 16777215
370
    15
  0
ENDBLK
  5
2AB
330
2A8
100
AcDbEntity
  8
0
100
AcDbBlockEnd
  0
BLOCK
  5
2B2
330
2B0
100
AcDbEntity
  8
0
100
AcDbBlockBegin
  2
block 80
 70
     0
 10
0.0
 20
0.0
 30
0.0
  3
block 80
  1

  0
POLYLINE
  5
2B4
330
2B0
100
AcDbEntity
  8
0
 62
     7
420
 16777215
370
    15
100
AcDb2dPolyline
 66
     1
 10
0.0
 20
0.0
 30
0.0
  0
VERTEX
  5
2B5
330
2B4
100
AcDbEntity
  8
0
 62
     7
420
 16777215
370
    15
100
AcDbVertex
100
AcDb2dVertex
 10
154.0042511171406
 20
255.9920108727241
 30
0.0
  0
VERTEX
  5
2B6
330
2B4
100
AcDbEntity
  8
0
 62
     7
420
 16777215
370
    15
100
AcDbVertex
100
AcDb2dVertex
 10
154.0042511171406
 20
254.001963673524
 30
0.0
  0
SEQEND
  5
2B7
330
2B4
100
AcDbEntity
  8
0
 62
     7
420
 16777215
370
    15
  0
ENDBLK
  5
2B3
330
2B0
100
AcDbEntity
  8
0
100
AcDbBlockEnd
  0
BLOCK
  5
2BA
330
2B8
100
AcDbEntity
  8
0
100
AcDbBlockBegin
  2
block 81
 70
     0
 10
0.0
 20
0.0
 30
0.0
  3
block 81
  1

  0
POLYLINE
  5
2BC
330
2B8
100
AcDbEntity
  8
0
 62
     7
420
 16777215
370
    15
100
AcDb2dPolyline
 66
     1
 10
0.0
 20
0.0
 30
0.0
  0
VERTEX
  5
2BD
330
2BC
100
AcDbEntity
  8
0
 62
     7
420
 16777215
370
    15
100
AcDbVertex
100
AcDb2dVertex
 10
157.1042524239406
 20
255.9920108727241
 30
0.0
  0
VERTEX
  5
2BE
330
2BC
100
AcDbEntity
  8
0
 62
     7
420
 16777215
370
    15
100
AcDbVertex
100
AcDb2dVertex
 10
157.1042524239406
 20
254.0019620212241
 30
0.0
  0
SEQEND
  5
2BF
330
2BC
100
AcDbEntity
  8
0
 62
     7
420
 16777215
370
    15
  0
ENDBLK
  5
2BB
330
2B8
100
AcDbEntity
  8
0
100
AcDbBlockEnd
  0
BLOCK
  5
2C2
330
2C0
100
AcDbEntity
  8
0
100
AcDbBlockBegin
  2
block 82
 70
     0
 10
0.0
 20
0.0
 30
0.0
  3
block 82
  1

  0
POLYLINE
  5
2C4
330
2C0
100
AcDbEntity
  8
0
 62
     7
420
 16777215
370
    15
100
AcDb2dPolyline
 66
     1
 10
0.0
 20
0.0
 30
0.0
  0
VERTEX
  5
2C5
330
2C4
100
AcDbEntity
  8
0
 62
     7
420
 16777215
370
    15
100
AcDbVertex
100
AcDb2dVertex
 10
157.1042524239406
 20
255.9920108727241
 30
0.0
  0
VERTEX
  5
2C6
330
2C4
100
AcDbEntity
  8
0
 62
     7
420
 16777215
370
    15
100
AcDbVertex
100
AcDb2dVertex
 10
163.8041619878408
 20
255.9919415255243
 30
0.0
  0
SEQEND
  5
2C7
330
2C4
100
AcDbEntity
  8
0
 62
     7
420
 16777215
370
    15
  0
ENDBLK
  5
2C3
330
2C0
100
AcDbEntity
  8
0
100
AcDbBlockEnd
  0
BLOCK
  5
2CA
330
2C8
100
AcDbEntity
  8
0
100
AcDbBlockBegin
  2
block 83
 70
     0
 10
0.0
 20
0.0
 30
0.0
  3
block 83
  1

  0
POLYLINE
  5
2CC
330
2C8
100
AcDbEntity
  8
0
 62
     7
420
 16777215
370
    15
100
AcDb2dPolyline
 66
     1
 10
0.0
 20
0.0
 30
0.0
  0
VERTEX
  5
2CD
330
2CC
100
AcDbEntity
  8
0
 62
     7
420
 16777215
370
    15
100
AcDbVertex
100
AcDb2dVertex
 10
163.8041619878408
 20
255.9919415255243
 30
0.0
  0
VERTEX
  5
2CE
330
2CC
100
AcDbEntity
  8
0
 62
     7
420
 16777215
370
    15
100
AcDbVertex
100
AcDb2dVertex
 10
163.8041619878408
 20
249.9919421269241
 30
0.0
  0
SEQEND
  5
2CF
330
2CC
100
AcDbEntity
  8
0
 62
     7
420
 16777215
370
    15
  0
ENDBLK
  5
2CB
330
2C8
100
AcDbEntity
  8
0
100
AcDbBlockEnd
  0
BLOCK
  5
2D2
330
2D0
100
AcDbEntity
  8
0
100
AcDbBlockBegin
  2
block 84
 70
     0
 10
0.0
 20
0.0
 30
0.0
  3
block 84
  1

  0
POLYLINE
  5
2D4
330
2D0
100
AcDbEntity
  8
0
 62
     7
420
 16777215
370
    15
100
AcDb2dPolyline
 66
     1
 10
0.0
 20
0.0
 30
0.0
  0
VERTEX
  5
2D5
330
2D4
100
AcDbEntity
  8
0
 62
     7
420
 16777215
370
    15
100
AcDbVertex
100
AcDb2dVertex
 10
163.8041619878408
 20
249.9919421269241
 30
0.0
  0
VERTEX
  5
2D6
330
2D4
100
AcDbEntity
  8
0
 62
     7
420
 16777215
370
    15
100
AcDbVertex
100
AcDb2dVertex
 10
180.3041653133405
 20
249.9919421269241
 30
0.0
  0
SEQEND
  5
2D7
330
2D4
100
AcDbEntity
  8
0
 62
     7
420
 16777215
370
    15
  0
ENDBLK
  5
2D3
330
2D0
100
AcDbEntity
  8
0
100
AcDbBlockEnd
  0
BLOCK
  5
2DA
330
2D8
100
AcDbEntity
  8
0
100
AcDbBlockBegin
  2
block 85
 70
     0
 10
0.0
 20
0.0
 30
0.0
  3
block 85
  1

  0
POLYLINE
  5
2DC
330
2D8
100
AcDbEntity
  8
0
 62
     7
420
 16777215
370
    15
100
AcDb2dPolyline
 66
     1
 10
0.0
 20
0.0
 30
0.0
  0
VERTEX
  5
2DD
330
2DC
100
AcDbEntity
  8
0
 62
     7
420
 16777215
370
    15
100
AcDbVertex
100
AcDb2dVertex
 10
180.3041653133405
 20
249.9919421269241
 30
0.0
  0
VERTEX
  5
2DE
330
2DC
100
AcDbEntity
  8
0
 62
     7
420
 16777215
370
    15
100
AcDbVertex
100
AcDb2dVertex
 10
180.3041653133405
 20
238.9919422426243
 30
0.0
  0
SEQEND
  5
2DF
330
2DC
100
AcDbEntity
  8
0
 62
     7
420
 16777215
370
    15
  0
ENDBLK
  5
2DB
330
2D8
100
AcDbEntity
  8
0
100
AcDbBlockEnd
  0
BLOCK
  5
2E2
330
2E0
100
AcDbEntity
  8
0
100
AcDbBlockBegin
  2
block 86
 70
     0
 10
0.0
 20
0.0
 30
0.0
  3
block 86
  1

  0
POLYLINE
  5
2E4
330
2E0
100
AcDbEntity
  8
0
 62
     7
420
 16777215
370
    15
100
AcDb2dPolyline
 66
     1
 10
0.0
 20
0.0
 30
0.0
  0
VERTEX
  5
2E5
330
2E4
100
AcDbEntity
  8
0
 62
     7
420
 16777215
370
    15
100
AcDbVertex
100
AcDb2dVertex
 10
180.3041653133405
 20
238.9919422426243
 30
0.0
  0
VERTEX
  5
2E6
330
2E4
100
AcDbEntity
  8
0
 62
     7
420
 16777215
370
    15
100
AcDbVertex
100
AcDb2dVertex
 10
174.3041578402409
 20
238.9919422426243
 30
0.0
  0
SEQEND
  5
2E7
330
2E4
100
AcDbEntity
  8
0
 62
     7
420
 16777215
370
    15
  0
ENDBLK
  5
2E3
330
2E0
100
AcDbEntity
  8
0
100
AcDbBlockEnd
  0
BLOCK
  5
2EA
330
2E8
100
AcDbEntity
  8
0
100
AcDbBlockBegin
  2
block 87
 70
     0
 10
0.0
 20
0.0
 30
0.0
  3
block 87
  1

  0
POLYLINE
  5
2EC
330
2E8
100
AcDbEntity
  8
0
 62
     7
420
 16777215
370
    15
100
AcDb2dPolyline
 66
     1
 10
0.0
 20
0.0
 30
0.0
  0
VERTEX
  5
2ED
330
2EC
100
AcDbEntity
  8
0
 62
     7
420
 16777215
370
    15
100
AcDbVertex
100
AcDb2dVertex
 10
174.3041578402409
 20
238.9919422426243
 30
0.0
  0
VERTEX
  5
2EE
330
2EC
100
AcDbEntity
  8
0
 62
     7
420
 16777215
370
    15
100
AcDbVertex
100
AcDb2dVertex
 10
174.3041578402409
 20
232.041942988624
 30
0.0
  0
SEQEND
  5
2EF
330
2EC
100
AcDbEntity
  8
0
 62
     7
420
 16777215
370
    15
  0
ENDBLK
  5
2EB
330
2E8
100
AcDbEntity
  8
0
100
AcDbBlockEnd
  0
BLOCK
  5
2F2
330
2F0
100
AcDbEntity
  8
0
100
AcDbBlockBegin
  2
block 88
 70
     0
 10
0.0
 20
0.0
 30
0.0
  3
block 88
  1

  0
POLYLINE
  5
2F4
330
2F0
100
AcDbEntity
  8
0
 62
     7
420
 16777215
370
    15
100
AcDb2dPolyline
 66
     1
 10
0.0
 20
0.0
 30
0.0
  0
VERTEX
  5
2F5
330
2F4
100
AcDbEntity
  8
0
 62
     7
420
 16777215
370
    15
100
AcDbVertex
100
AcDb2dVertex
 10
174.3041578402409
 20
232.041942988624
 30
0.0
  0
VERTEX
  5
2F6
330
2F4
100
AcDbEntity
  8
0
 62
     7
420
 16777215
370
    15
100
AcDbVertex
100
AcDb2dVertex
 10
169.2041635460409
 20
232.041942988624
 30
0.0
  0
SEQEND
  5
2F7
330
2F4
100
AcDbEntity
  8
0
 62
     7
420
 16777215
370
    15
  0
ENDBLK
  5
2F3
330
2F0
100
AcDbEntity
  8
0
100
AcDbBlockEnd
  0
BLOCK
  5
2FA
330
2F8
100
AcDbEntity
  8
0
100
AcDbBlockBegin
  2
block 89
 70
     0
 10
0.0
 20
0.0
 30
0.0
  3
block 89
  1

  0
POLYLINE
  5
2FC
330
2F8
100
AcDbEntity
  8
0
 62
     7
420
 16777215
370
    15
100
AcDb2dPolyline
 66
     1
 10
0.0
 20
0.0
 30
0.0
  0
VERTEX
  5
2FD
330
2FC
100
AcDbEntity
  8
0
 62
     7
420
 16777215
370
    15
100
AcDbVertex
100
AcDb2dVertex
 10
169.2041635460409
 20
232.041942988624
 30
0.0
  0
VERTEX
  5
2FE
330
2FC
100
AcDbEntity
  8
0
 62
     7
420
 16777215
370
    15
100
AcDbVertex
100
AcDb2dVertex
 10
169.2041635460409
 20
233.2919431100241
 30
0.0
  0
SEQEND
  5
2FF
330
2FC
100
AcDbEntity
  8
0
 62
     7
420
 16777215
370
    15
  0
ENDBLK
  5
2FB
330
2F8
100
AcDbEntity
  8
0
100
AcDbBlockEnd
  0
BLOCK
  5
302
330
300
100
AcDbEntity
  8
0
100
AcDbBlockBegin
  2
block 90
 70
     0
 10
0.0
 20
0.0
 30
0.0
  3
block 90
  1

  0
POLYLINE
  5
304
330
300
100
AcDbEntity
  8
0
 62
     7
420
 16777215
370
    15
100
AcDb2dPolyline
 66
     1
 10
0.0
 20
0.0
 30
0.0
  0
VERTEX
  5
305
330
304
100
AcDbEntity
  8
0
 62
     7
420
 16777215
370
    15
100
AcDbVertex
100
AcDb2dVertex
 10
169.2041635460409
 20
233.2919431100241
 30
0.0
  0
VERTEX
  5
306
330
304
100
AcDbEntity
  8
0
 62
     7
420
 16777215
370
    15
100
AcDbVertex
100
AcDb2dVertex
 10
166.7041633031407
 20
233.2919431100241
 30
0.0
  0
SEQEND
  5
307
330
304
100
AcDbEntity
  8
0
 62
     7
420
 16777215
370
    15
  0
ENDBLK
  5
303
330
300
100
AcDbEntity
  8
0
100
AcDbBlockEnd
  0
BLOCK
  5
30A
330
308
100
AcDbEntity
  8
0
100
AcDbBlockBegin
  2
block 91
 70
     0
 10
0.0
 20
0.0
 30
0.0
  3
block 91
  1

  0
POLYLINE
  5
30C
330
308
100
AcDbEntity
  8
0
 62
     7
420
 16777215
370
    15
100
AcDb2dPolyline
 66
     1
 10
0.0
 20
0.0
 30
0.0
  0
VERTEX
  5
30D
330
30C
100
AcDbEntity
  8
0
 62
     7
420
 16777215
370
    15
100
AcDbVertex
100
AcDb2dVertex
 10
166.7041633031407
 20
233.2919431100241
 30
0.0
  0
VERTEX
  5
30E
330
30C
100
AcDbEntity
  8
0
 62
     7
420
 16777215
370
    15
100
AcDbVertex
100
AcDb2dVertex
 10
166.7041633031407
 20
232.041942988624
 30
0.0
  0
SEQEND
  5
30F
330
30C
100
AcDbEntity
  8
0
 62
     7
420
 16777215
370
    15
  0
ENDBLK
  5
30B
330
308
100
AcDbEntity
  8
0
100
AcDbBlockEnd
  0
BLOCK
  5
312
330
310
100
AcDbEntity
  8
0
100
AcDbBlockBegin
  2
block 92
 70
     0
 10
0.0
 20
0.0
 30
0.0
  3
block 92
  1

  0
POLYLINE
  5
314
330
310
100
AcDbEntity
  8
0
 62
     7
420
 16777215
370
    15
100
AcDb2dPolyline
 66
     1
 10
0.0
 20
0.0
 30
0.0
  0
VERTEX
  5
315
330
314
100
AcDbEntity
  8
0
 62
     7
420
 16777215
370
    15
100
AcDbVertex
100
AcDb2dVertex
 10
166.7041633031407
 20
232.041942988624
 30
0.0
  0
VERTEX
  5
316
330
314
100
AcDbEntity
  8
0
 62
     7
420
 16777215
370
    15
100
AcDbVertex
100
AcDb2dVertex
 10
164.2041630602406
 20
232.041942988624
 30
0.0
  0
SEQEND
  5
317
330
314
100
AcDbEntity
  8
0
 62
     7
420
 16777215
370
    15
  0
ENDBLK
  5
313
330
310
100
AcDbEntity
  8
0
100
AcDbBlockEnd
  0
BLOCK
  5
31A
330
318
100
AcDbEntity
  8
0
100
AcDbBlockBegin
  2
block 93
 70
     0
 10
0.0
 20
0.0
 30
0.0
  3
block 93
  1

  0
POLYLINE
  5
31C
330
318
100
AcDbEntity
  8
0
 62
     7
420
 16777215
370
    15
100
AcDb2dPolyline
 66
     1
 10
0.0
 20
0.0
 30
0.0
  0
VERTEX
  5
31D
330
31C
100
AcDbEntity
  8
0
 62
     7
420
 16777215
370
    15
100
AcDbVertex
100
AcDb2dVertex
 10
164.2041630602406
 20
232.041942988624
 30
0.0
  0
VERTEX
  5
31E
330
31C
100
AcDbEntity
  8
0
 62
     7
420
 16777215
370
    15
100
AcDbVertex
100
AcDb2dVertex
 10
164.2041630602406
 20
228.9419432903242
 30
0.0
  0
SEQEND
  5
31F
330
31C
100
AcDbEntity
  8
0
 62
     7
420
 16777215
370
    15
  0
ENDBLK
  5
31B
330
318
100
AcDbEntity
  8
0
100
AcDbBlockEnd
  0
BLOCK
  5
322
330
320
100
AcDbEntity
  8
0
100
AcDbBlockBegin
  2
block 94
 70
     0
 10
0.0
 20
0.0
 30
0.0
  3
block 94
  1

  0
POLYLINE
  5
324
330
320
100
AcDbEntity
  8
0
 62
     7
420
 16777215
370
    15
100
AcDb2dPolyline
 66
     1
 10
0.0
 20
0.0
 30
0.0
  0
VERTEX
  5
325
330
324
100
AcDbEntity
  8
0
 62
     7
420
 16777215
370
    15
100
AcDbVertex
100
AcDb2dVertex
 10
164.2041630602406
 20
228.9419432903242
 30
0.0
  0
VERTEX
  5
326
330
324
100
AcDbEntity
  8
0
 62
     7
420
 16777215
370
    15
100
AcDbVertex
100
AcDb2dVertex
 10
166.7041633031407
 20
228.9419432903242
 30
0.0
  0
SEQEND
  5
327
330
324
100
AcDbEntity
  8
0
 62
     7
420
 16777215
370
    15
  0
ENDBLK
  5
323
330
320
100
AcDbEntity
  8
0
100
AcDbBlockEnd
  0
BLOCK
  5
32A
330
328
100
AcDbEntity
  8
0
100
AcDbBlockBegin
  2
block 95
 70
     0
 10
0.0
 20
0.0
 30
0.0
  3
block 95
  1

  0
POLYLINE
  5
32C
330
328
100
AcDbEntity
  8
0
 62
     7
420
 16777215
370
    15
100
AcDb2dPolyline
 66
     1
 10
0.0
 20
0.0
 30
0.0
  0
VERTEX
  5
32D
330
32C
100
AcDbEntity
  8
0
 62
     7
420
 16777215
370
    15
100
AcDbVertex
100
AcDb2dVertex
 10
166.7041633031407
 20
228.9419432903242
 30
0.0
  0
VERTEX
  5
32E
330
32C
100
AcDbEntity
  8
0
 62
     7
420
 16777215
370
    15
100
AcDbVertex
100
AcDb2dVertex
 10
166.7041633031407
 20
227.6919431689241
 30
0.0
  0
SEQEND
  5
32F
330
32C
100
AcDbEntity
  8
0
 62
     7
420
 16777215
370
    15
  0
ENDBLK
  5
32B
330
328
100
AcDbEntity
  8
0
100
AcDbBlockEnd
  0
BLOCK
  5
332
330
330
100
AcDbEntity
  8
0
100
AcDbBlockBegin
  2
block 96
 70
     0
 10
0.0
 20
0.0
 30
0.0
  3
block 96
  1

  0
POLYLINE
  5
334
330
330
100
AcDbEntity
  8
0
 62
     7
420
 16777215
370
    15
100
AcDb2dPolyline
 66
     1
 10
0.0
 20
0.0
 30
0.0
  0
VERTEX
  5
335
330
334
100
AcDbEntity
  8
0
 62
     7
420
 16777215
370
    15
100
AcDbVertex
100
AcDb2dVertex
 10
166.7041633031407
 20
227.6919431689241
 30
0.0
  0
VERTEX
  5
336
330
334
100
AcDbEntity
  8
0
 62
     7
420
 16777215
370
    15
100
AcDbVertex
100
AcDb2dVertex
 10
169.2041635460409
 20
227.6919431689241
 30
0.0
  0
SEQEND
  5
337
330
334
100
AcDbEntity
  8
0
 62
     7
420
 16777215
370
    15
  0
ENDBLK
  5
333
330
330
100
AcDbEntity
  8
0
100
AcDbBlockEnd
  0
BLOCK
  5
33A
330
338
100
AcDbEntity
  8
0
100
AcDbBlockBegin
  2
block 97
 70
     0
 10
0.0
 20
0.0
 30
0.0
  3
block 97
  1

  0
POLYLINE
  5
33C
330
338
100
AcDbEntity
  8
0
 62
     7
420
 16777215
370
    15
100
AcDb2dPolyline
 66
     1
 10
0.0
 20
0.0
 30
0.0
  0
VERTEX
  5
33D
330
33C
100
AcDbEntity
  8
0
 62
     7
420
 16777215
370
    15
100
AcDbVertex
100
AcDb2dVertex
 10
169.2041635460409
 20
227.6919431689241
 30
0.0
  0
VERTEX
  5
33E
330
33C
100
AcDbEntity
  8
0
 62
     7
420
 16777215
370
    15
100
AcDbVertex
100
AcDb2dVertex
 10
169.2041635460409
 20
228.9419432903242
 30
0.0
  0
SEQEND
  5
33F
330
33C
100
AcDbEntity
  8
0
 62
     7
420
 16777215
370
    15
  0
ENDBLK
  5
33B
330
338
100
AcDbEntity
  8
0
100
AcDbBlockEnd
  0
BLOCK
  5
342
330
340
100
AcDbEntity
  8
0
100
AcDbBlockBegin
  2
block 98
 70
     0
 10
0.0
 20
0.0
 30
0.0
  3
block 98
  1

  0
POLYLINE
  5
344
330
340
100
AcDbEntity
  8
0
 62
     7
420
 16777215
370
    15
100
AcDb2dPolyline
 66
     1
 10
0.0
 20
0.0
 30
0.0
  0
VERTEX
  5
345
330
344
100
AcDbEntity
  8
0
 62
     7
420
 16777215
370
    15
100
AcDbVertex
100
AcDb2dVertex
 10
169.2041635460409
 20
228.9419432903242
 30
0.0
  0
VERTEX
  5
346
330
344
100
AcDbEntity
  8
0
 62
     7
420
 16777215
370
    15
100
AcDbVertex
100
AcDb2dVertex
 10
174.3041578402409
 20
228.9419432903242
 30
0.0
  0
SEQEND
  5
347
330
344
100
AcDbEntity
  8
0
 62
     7
420
 16777215
370
    15
  0
ENDBLK
  5
343
330
340
100
AcDbEntity
  8
0
100
AcDbBlockEnd
  0
BLOCK
  5
34A
330
348
100
AcDbEntity
  8
0
100
AcDbBlockBegin
  2
block 99
 70
     0
 10
0.0
 20
0.0
 30
0.0
  3
block 99
  1

  0
POLYLINE
  5
34C
330
348
100
AcDbEntity
  8
0
 62
     7
420
 16777215
370
    15
100
AcDb2dPolyline
 66
     1
 10
0.0
 20
0.0
 30
0.0
  0
VERTEX
  5
34D
330
34C
100
AcDbEntity
  8
0
 62
     7
420
 16777215
370
    15
100
AcDbVertex
100
AcDb2dVertex
 10
174.3041578402409
 20
228.9419432903242
 30
0.0
  0
VERTEX
  5
34E
330
34C
100
AcDbEntity
  8
0
 62
     7
420
 16777215
370
    15
100
AcDbVertex
100
AcDb2dVertex
 10
174.3041578402409
 20
221.9919429597243
 30
0.0
  0
SEQEND
  5
34F
330
34C
100
AcDbEntity
  8
0
 62
     7
420
 16777215
370
    15
  0
ENDBLK
  5
34B
330
348
100
AcDbEntity
  8
0
100
AcDbBlockEnd
  0
BLOCK
  5
352
330
350
100
AcDbEntity
  8
0
100
AcDbBlockBegin
  2
block 100
 70
     0
 10
0.0
 20
0.0
 30
0.0
  3
block 100
  1

  0
POLYLINE
  5
354
330
350
100
AcDbEntity
  8
0
 62
     7
420
 16777215
370
    15
100
AcDb2dPolyline
 66
     1
 10
0.0
 20
0.0
 30
0.0
  0
VERTEX
  5
355
330
354
100
AcDbEntity
  8
0
 62
     7
420
 16777215
370
    15
100
AcDbVertex
100
AcDb2dVertex
 10
174.3041578402409
 20
221.9919429597243
 30
0.0
  0
VERTEX
  5
356
330
354
100
AcDbEntity
  8
0
 62
     7
420
 16777215
370
    15
100
AcDbVertex
100
AcDb2dVertex
 10
180.3041653133405
 20
221.9919429597243
 30
0.0
  0
SEQEND
  5
357
330
354
100
AcDbEntity
  8
0
 62
     7
420
 16777215
370
    15
  0
ENDBLK
  5
353
330
350
100
AcDbEntity
  8
0
100
AcDbBlockEnd
  0
BLOCK
  5
35A
330
358
100
AcDbEntity
  8
0
100
AcDbBlockBegin
  2
block 101
 70
     0
 10
0.0
 20
0.0
 30
0.0
  3
block 101
  1

  0
POLYLINE
  5
35C
330
358
100
AcDbEntity
  8
0
 62
     7
420
 16777215
370
    15
100
AcDb2dPolyline
 66
     1
 10
0.0
 20
0.0
 30
0.0
  0
VERTEX
  5
35D
330
35C
100
AcDbEntity
  8
0
 62
     7
420
 16777215
370
    15
100
AcDbVertex
100
AcDb2dVertex
 10
180.3041653133405
 20
221.9919429597243
 30
0.0
  0
VERTEX
  5
35E
330
35C
100
AcDbEntity
  8
0
 62
     7
420
 16777215
370
    15
100
AcDbVertex
100
AcDb2dVertex
 10
180.3041653133405
 20
209.9919430859242
 30
0.0
  0
SEQEND
  5
35F
330
35C
100
AcDbEntity
  8
0
 62
     7
420
 16777215
370
    15
  0
ENDBLK
  5
35B
330
358
100
AcDbEntity
  8
0
100
AcDbBlockEnd
  0
BLOCK
  5
362
330
360
100
AcDbEntity
  8
0
100
AcDbBlockBegin
  2
block 102
 70
     0
 10
0.0
 20
0.0
 30
0.0
  3
block 102
  1

  0
POLYLINE
  5
364
330
360
100
AcDbEntity
  8
0
 62
     7
420
 16777215
370
    15
100
AcDb2dPolyline
 66
     1
 10
0.0
 20
0.0
 30
0.0
  0
VERTEX
  5
365
330
364
100
AcDbEntity
  8
0
 62
     7
420
 16777215
370
    15
100
AcDbVertex
100
AcDb2dVertex
 10
180.3041653133405
 20
209.9919430859242
 30
0.0
  0
VERTEX
  5
366
330
364
100
AcDbEntity
  8
0
 62
     7
420
 16777215
370
    15
100
AcDbVertex
100
AcDb2dVertex
 10
174.3041578402409
 20
209.9919430859242
 30
0.0
  0
SEQEND
  5
367
330
364
100
AcDbEntity
  8
0
 62
     7
420
 16777215
370
    15
  0
ENDBLK
  5
363
330
360
100
AcDbEntity
  8
0
100
AcDbBlockEnd
  0
BLOCK
  5
36A
330
368
100
AcDbEntity
  8
0
100
AcDbBlockBegin
  2
block 103
 70
     0
 10
0.0
 20
0.0
 30
0.0
  3
block 103
  1

  0
POLYLINE
  5
36C
330
368
100
AcDbEntity
  8
0
 62
     7
420
 16777215
370
    15
100
AcDb2dPolyline
 66
     1
 10
0.0
 20
0.0
 30
0.0
  0
VERTEX
  5
36D
330
36C
100
AcDbEntity
  8
0
 62
     7
420
 16777215
370
    15
100
AcDbVertex
100
AcDb2dVertex
 10
174.3041578402409
 20
209.9919430859242
 30
0.0
  0
VERTEX
  5
36E
330
36C
100
AcDbEntity
  8
0
 62
     7
420
 16777215
370
    15
100
AcDbVertex
100
AcDb2dVertex
 10
174.3041578402409
 20
197.991945365224
 30
0.0
  0
SEQEND
  5
36F
330
36C
100
AcDbEntity
  8
0
 62
     7
420
 16777215
370
    15
  0
ENDBLK
  5
36B
330
368
100
AcDbEntity
  8
0
100
AcDbBlockEnd
  0
BLOCK
  5
372
330
370
100
AcDbEntity
  8
0
100
AcDbBlockBegin
  2
block 104
 70
     0
 10
0.0
 20
0.0
 30
0.0
  3
block 104
  1

  0
POLYLINE
  5
374
330
370
100
AcDbEntity
  8
0
 62
     7
420
 16777215
370
    15
100
AcDb2dPolyline
 66
     1
 10
0.0
 20
0.0
 30
0.0
  0
VERTEX
  5
375
330
374
100
AcDbEntity
  8
0
 62
     7
420
 16777215
370
    15
100
AcDbVertex
100
AcDb2dVertex
 10
174.3041578402409
 20
197.991945365224
 30
0.0
  0
VERTEX
  5
376
330
374
100
AcDbEntity
  8
0
 62
     7
420
 16777215
370
    15
100
AcDbVertex
100
AcDb2dVertex
 10
180.3041653133405
 20
197.991945365224
 30
0.0
  0
SEQEND
  5
377
330
374
100
AcDbEntity
  8
0
 62
     7
420
 16777215
370
    15
  0
ENDBLK
  5
373
330
370
100
AcDbEntity
  8
0
100
AcDbBlockEnd
  0
BLOCK
  5
37A
330
378
100
AcDbEntity
  8
0
100
AcDbBlockBegin
  2
block 105
 70
     0
 10
0.0
 20
0.0
 30
0.0
  3
block 105
  1

  0
POLYLINE
  5
37C
330
378
100
AcDbEntity
  8
0
 62
     7
420
 16777215
370
    15
100
AcDb2dPolyline
 66
     1
 10
0.0
 20
0.0
 30
0.0
  0
VERTEX
  5
37D
330
37C
100
AcDbEntity
  8
0
 62
     7
420
 16777215
370
    15
100
AcDbVertex
100
AcDb2dVertex
 10
180.3041653133405
 20
197.991945365224
 30
0.0
  0
VERTEX
  5
37E
330
37C
100
AcDbEntity
  8
0
 62
     7
420
 16777215
370
    15
100
AcDbVertex
100
AcDb2dVertex
 10
180.3041653133405
 20
185.991947644624
 30
0.0
  0
SEQEND
  5
37F
330
37C
100
AcDbEntity
  8
0
 62
     7
420
 16777215
370
    15
  0
ENDBLK
  5
37B
330
378
100
AcDbEntity
  8
0
100
AcDbBlockEnd
  0
BLOCK
  5
382
330
380
100
AcDbEntity
  8
0
100
AcDbBlockBegin
  2
block 106
 70
     0
 10
0.0
 20
0.0
 30
0.0
  3
block 106
  1

  0
POLYLINE
  5
384
330
380
100
AcDbEntity
  8
0
 62
     7
420
 16777215
370
    15
100
AcDb2dPolyline
 66
     1
 10
0.0
 20
0.0
 30
0.0
  0
VERTEX
  5
385
330
384
100
AcDbEntity
  8
0
 62
     7
420
 16777215
370
    15
100
AcDbVertex
100
AcDb2dVertex
 10
180.3041653133405
 20
185.991947644624
 30
0.0
  0
VERTEX
  5
386
330
384
100
AcDbEntity
  8
0
 62
     7
420
 16777215
370
    15
100
AcDbVertex
100
AcDb2dVertex
 10
174.3041578402409
 20
185.991947644624
 30
0.0
  0
SEQEND
  5
387
330
384
100
AcDbEntity
  8
0
 62
     7
420
 16777215
370
    15
  0
ENDBLK
  5
383
330
380
100
AcDbEntity
  8
0
100
AcDbBlockEnd
  0
BLOCK
  5
38A
330
388
100
AcDbEntity
  8
0
100
AcDbBlockBegin
  2
block 107
 70
     0
 10
0.0
 20
0.0
 30
0.0
  3
block 107
  1

  0
POLYLINE
  5
38C
330
388
100
AcDbEntity
  8
0
 62
     7
420
 16777215
370
    15
100
AcDb2dPolyline
 66
     1
 10
0.0
 20
0.0
 30
0.0
  0
VERTEX
  5
38D
330
38C
100
AcDbEntity
  8
0
 62
     7
420
 16777215
370
    15
100
AcDbVertex
100
AcDb2dVertex
 10
174.3041578402409
 20
185.991947644624
 30
0.0
  0
VERTEX
  5
38E
330
38C
100
AcDbEntity
  8
0
 62
     7
420
 16777215
370
    15
100
AcDbVertex
100
AcDb2dVertex
 10
174.3041578402409
 20
173.991945617624
 30
0.0
  0
SEQEND
  5
38F
330
38C
100
AcDbEntity
  8
0
 62
     7
420
 16777215
370
    15
  0
ENDBLK
  5
38B
330
388
100
AcDbEntity
  8
0
100
AcDbBlockEnd
  0
BLOCK
  5
392
330
390
100
AcDbEntity
  8
0
100
AcDbBlockBegin
  2
block 108
 70
     0
 10
0.0
 20
0.0
 30
0.0
  3
block 108
  1

  0
POLYLINE
  5
394
330
390
100
AcDbEntity
  8
0
 62
     7
420
 16777215
370
    15
100
AcDb2dPolyline
 66
     1
 10
0.0
 20
0.0
 30
0.0
  0
VERTEX
  5
395
330
394
100
AcDbEntity
  8
0
 62
     7
420
 16777215
370
    15
100
AcDbVertex
100
AcDb2dVertex
 10
174.3041578402409
 20
173.991945617624
 30
0.0
  0
VERTEX
  5
396
330
394
100
AcDbEntity
  8
0
 62
     7
420
 16777215
370
    15
100
AcDbVertex
100
AcDb2dVertex
 10
180.3041653133405
 20
173.991945617624
 30
0.0
  0
SEQEND
  5
397
330
394
100
AcDbEntity
  8
0
 62
     7
420
 16777215
370
    15
  0
ENDBLK
  5
393
330
390
100
AcDbEntity
  8
0
100
AcDbBlockEnd
  0
BLOCK
  5
39A
330
398
100
AcDbEntity
  8
0
100
AcDbBlockBegin
  2
block 109
 70
     0
 10
0.0
 20
0.0
 30
0.0
  3
block 109
  1

  0
POLYLINE
  5
39C
330
398
100
AcDbEntity
  8
0
 62
     7
420
 16777215
370
    15
100
AcDb2dPolyline
 66
     1
 10
0.0
 20
0.0
 30
0.0
  0
VERTEX
  5
39D
330
39C
100
AcDbEntity
  8
0
 62
     7
420
 16777215
370
    15
100
AcDbVertex
100
AcDb2dVertex
 10
180.3041653133405
 20
173.991945617624
 30
0.0
  0
VERTEX
  5
39E
330
39C
100
AcDbEntity
  8
0
 62
     7
420
 16777215
370
    15
100
AcDbVertex
100
AcDb2dVertex
 10
180.3041653133405
 20
161.9919478970242
 30
0.0
  0
SEQEND
  5
39F
330
39C
100
AcDbEntity
  8
0
 62
     7
420
 16777215
370
    15
  0
ENDBLK
  5
39B
330
398
100
AcDbEntity
  8
0
100
AcDbBlockEnd
  0
BLOCK
  5
3A2
330
3A0
100
AcDbEntity
  8
0
100
AcDbBlockBegin
  2
block 110
 70
     0
 10
0.0
 20
0.0
 30
0.0
  3
block 110
  1

  0
POLYLINE
  5
3A4
330
3A0
100
AcDbEntity
  8
0
 62
     7
420
 16777215
370
    15
100
AcDb2dPolyline
 66
     1
 10
0.0
 20
0.0
 30
0.0
  0
VERTEX
  5
3A5
330
3A4
100
AcDbEntity
  8
0
 62
     7
420
 16777215
370
    15
100
AcDbVertex
100
AcDb2dVertex
 10
180.3041653133405
 20
161.9919478970242
 30
0.0
  0
VERTEX
  5
3A6
330
3A4
100
AcDbEntity
  8
0
 62
     7
420
 16777215
370
    15
100
AcDbVertex
100
AcDb2dVertex
 10
174.3041578402409
 20
161.9919478970242
 30
0.0
  0
SEQEND
  5
3A7
330
3A4
100
AcDbEntity
  8
0
 62
     7
420
 16777215
370
    15
  0
ENDBLK
  5
3A3
330
3A0
100
AcDbEntity
  8
0
100
AcDbBlockEnd
  0
BLOCK
  5
3AA
330
3A8
100
AcDbEntity
  8
0
100
AcDbBlockBegin
  2
block 111
 70
     0
 10
0.0
 20
0.0
 30
0.0
  3
block 111
  1

  0
POLYLINE
  5
3AC
330
3A8
100
AcDbEntity
  8
0
 62
     7
420
 16777215
370
    15
100
AcDb2dPolyline
 66
     1
 10
0.0
 20
0.0
 30
0.0
  0
VERTEX
  5
3AD
330
3AC
100
AcDbEntity
  8
0
 62
     7
420
 16777215
370
    15
100
AcDbVertex
100
AcDb2dVertex
 10
174.3041578402409
 20
161.9919478970242
 30
0.0
  0
VERTEX
  5
3AE
330
3AC
100
AcDbEntity
  8
0
 62
     7
420
 16777215
370
    15
100
AcDbVertex
100
AcDb2dVertex
 10
174.3041578402409
 20
149.9919501764241
 30
0.0
  0
SEQEND
  5
3AF
330
3AC
100
AcDbEntity
  8
0
 62
     7
420
 16777215
370
    15
  0
ENDBLK
  5
3AB
330
3A8
100
AcDbEntity
  8
0
100
AcDbBlockEnd
  0
BLOCK
  5
3B2
330
3B0
100
AcDbEntity
  8
0
100
AcDbBlockBegin
  2
block 112
 70
     0
 10
0.0
 20
0.0
 30
0.0
  3
block 112
  1

  0
POLYLINE
  5
3B4
330
3B0
100
AcDbEntity
  8
0
 62
     7
420
 16777215
370
    15
100
AcDb2dPolyline
 66
     1
 10
0.0
 20
0.0
 30
0.0
  0
VERTEX
  5
3B5
330
3B4
100
AcDbEntity
  8
0
 62
     7
420
 16777215
370
    15
100
AcDbVertex
100
AcDb2dVertex
 10
174.3041578402409
 20
149.9919501764241
 30
0.0
  0
VERTEX
  5
3B6
330
3B4
100
AcDbEntity
  8
0
 62
     7
420
 16777215
370
    15
100
AcDbVertex
100
AcDb2dVertex
 10
180.3041653133405
 20
149.9919501764241
 30
0.0
  0
SEQEND
  5
3B7
330
3B4
100
AcDbEntity
  8
0
 62
     7
420
 16777215
370
    15
  0
ENDBLK
  5
3B3
330
3B0
100
AcDbEntity
  8
0
100
AcDbBlockEnd
  0
BLOCK
  5
3BA
330
3B8
100
AcDbEntity
  8
0
100
AcDbBlockBegin
  2
block 113
 70
     0
 10
0.0
 20
0.0
 30
0.0
  3
block 113
  1

  0
POLYLINE
  5
3BC
330
3B8
100
AcDbEntity
  8
0
 62
     7
420
 16777215
370
    15
100
AcDb2dPolyline
 66
     1
 10
0.0
 20
0.0
 30
0.0
  0
VERTEX
  5
3BD
330
3BC
100
AcDbEntity
  8
0
 62
     7
420
 16777215
370
    15
100
AcDbVertex
100
AcDb2dVertex
 10
180.3041653133405
 20
149.9919501764241
 30
0.0
  0
VERTEX
  5
3BE
330
3BC
100
AcDbEntity
  8
0
 62
     7
420
 16777215
370
    15
100
AcDbVertex
100
AcDb2dVertex
 10
180.3041653133405
 20
137.9919524557242
 30
0.0
  0
SEQEND
  5
3BF
330
3BC
100
AcDbEntity
  8
0
 62
     7
420
 16777215
370
    15
  0
ENDBLK
  5
3BB
330
3B8
100
AcDbEntity
  8
0
100
AcDbBlockEnd
  0
BLOCK
  5
3C2
330
3C0
100
AcDbEntity
  8
0
100
AcDbBlockBegin
  2
block 114
 70
     0
 10
0.0
 20
0.0
 30
0.0
  3
block 114
  1

  0
POLYLINE
  5
3C4
330
3C0
100
AcDbEntity
  8
0
 62
     7
420
 16777215
370
    15
100
AcDb2dPolyline
 66
     1
 10
0.0
 20
0.0
 30
0.0
  0
VERTEX
  5
3C5
330
3C4
100
AcDbEntity
  8
0
 62
     7
420
 16777215
370
    15
100
AcDbVertex
100
AcDb2dVertex
 10
180.3041653133405
 20
137.9919524557242
 30
0.0
  0
VERTEX
  5
3C6
330
3C4
100
AcDbEntity
  8
0
 62
     7
420
 16777215
370
    15
100
AcDbVertex
100
AcDb2dVertex
 10
174.3041578402409
 20
137.9919524557242
 30
0.0
  0
SEQEND
  5
3C7
330
3C4
100
AcDbEntity
  8
0
 62
     7
420
 16777215
370
    15
  0
ENDBLK
  5
3C3
330
3C0
100
AcDbEntity
  8
0
100
AcDbBlockEnd
  0
BLOCK
  5
3CA
330
3C8
100
AcDbEntity
  8
0
100
AcDbBlockBegin
  2
block 115
 70
     0
 10
0.0
 20
0.0
 30
0.0
  3
block 115
  1

  0
POLYLINE
  5
3CC
330
3C8
100
AcDbEntity
  8
0
 62
     7
420
 16777215
370
    15
100
AcDb2dPolyline
 66
     1
 10
0.0
 20
0.0
 30
0.0
  0
VERTEX
  5
3CD
330
3CC
100
AcDbEntity
  8
0
 62
     7
420
 16777215
370
    15
100
AcDbVertex
100
AcDb2dVertex
 10
174.3041578402409
 20
137.9919524557242
 30
0.0
  0
VERTEX
  5
3CE
330
3CC
100
AcDbEntity
  8
0
 62
     7
420
 16777215
370
    15
100
AcDbVertex
100
AcDb2dVertex
 10
174.3041578402409
 20
125.9919461224238
 30
0.0
  0
SEQEND
  5
3CF
330
3CC
100
AcDbEntity
  8
0
 62
     7
420
 16777215
370
    15
  0
ENDBLK
  5
3CB
330
3C8
100
AcDbEntity
  8
0
100
AcDbBlockEnd
  0
BLOCK
  5
3D2
330
3D0
100
AcDbEntity
  8
0
100
AcDbBlockBegin
  2
block 116
 70
     0
 10
0.0
 20
0.0
 30
0.0
  3
block 116
  1

  0
POLYLINE
  5
3D4
330
3D0
100
AcDbEntity
  8
0
 62
     7
420
 16777215
370
    15
100
AcDb2dPolyline
 66
     1
 10
0.0
 20
0.0
 30
0.0
  0
VERTEX
  5
3D5
330
3D4
100
AcDbEntity
  8
0
 62
     7
420
 16777215
370
    15
100
AcDbVertex
100
AcDb2dVertex
 10
174.3041578402409
 20
125.9919461224238
 30
0.0
  0
VERTEX
  5
3D6
330
3D4
100
AcDbEntity
  8
0
 62
     7
420
 16777215
370
    15
100
AcDbVertex
100
AcDb2dVertex
 10
180.3041653133405
 20
125.9919461224238
 30
0.0
  0
SEQEND
  5
3D7
330
3D4
100
AcDbEntity
  8
0
 62
     7
420
 16777215
370
    15
  0
ENDBLK
  5
3D3
330
3D0
100
AcDbEntity
  8
0
100
AcDbBlockEnd
  0
BLOCK
  5
3DA
330
3D8
100
AcDbEntity
  8
0
100
AcDbBlockBegin
  2
block 117
 70
     0
 10
0.0
 20
0.0
 30
0.0
  3
block 117
  1

  0
POLYLINE
  5
3DC
330
3D8
100
AcDbEntity
  8
0
 62
     7
420
 16777215
370
    15
100
AcDb2dPolyline
 66
     1
 10
0.0
 20
0.0
 30
0.0
  0
VERTEX
  5
3DD
330
3DC
100
AcDbEntity
  8
0
 62
     7
420
 16777215
370
    15
100
AcDbVertex
100
AcDb2dVertex
 10
180.3041653133405
 20
125.9919461224238
 30
0.0
  0
VERTEX
  5
3DE
330
3DC
100
AcDbEntity
  8
0
 62
     7
420
 16777215
370
    15
100
AcDbVertex
100
AcDb2dVertex
 10
180.3041653133405
 20
113.9919484018243
 30
0.0
  0
SEQEND
  5
3DF
330
3DC
100
AcDbEntity
  8
0
 62
     7
420
 16777215
370
    15
  0
ENDBLK
  5
3DB
330
3D8
100
AcDbEntity
  8
0
100
AcDbBlockEnd
  0
BLOCK
  5
3E2
330
3E0
100
AcDbEntity
  8
0
100
AcDbBlockBegin
  2
block 118
 70
     0
 10
0.0
 20
0.0
 30
0.0
  3
block 118
  1

  0
POLYLINE
  5
3E4
330
3E0
100
AcDbEntity
  8
0
 62
     7
420
 16777215
370
    15
100
AcDb2dPolyline
 66
     1
 10
0.0
 20
0.0
 30
0.0
  0
VERTEX
  5
3E5
330
3E4
100
AcDbEntity
  8
0
 62
     7
420
 16777215
370
    15
100
AcDbVertex
100
AcDb2dVertex
 10
180.3041653133405
 20
113.9919484018243
 30
0.0
  0
VERTEX
  5
3E6
330
3E4
100
AcDbEntity
  8
0
 62
     7
420
 16777215
370
    15
100
AcDbVertex
100
AcDb2dVertex
 10
174.3041578402409
 20
113.9919484018243
 30
0.0
  0
SEQEND
  5
3E7
330
3E4
100
AcDbEntity
  8
0
 62
     7
420
 16777215
370
    15
  0
ENDBLK
  5
3E3
330
3E0
100
AcDbEntity
  8
0
100
AcDbBlockEnd
  0
BLOCK
  5
3EA
330
3E8
100
AcDbEntity
  8
0
100
AcDbBlockBegin
  2
block 119
 70
     0
 10
0.0
 20
0.0
 30
0.0
  3
block 119
  1

  0
POLYLINE
  5
3EC
330
3E8
100
AcDbEntity
  8
0
 62
     7
420
 16777215
370
    15
100
AcDb2dPolyline
 66
     1
 10
0.0
 20
0.0
 30
0.0
  0
VERTEX
  5
3ED
330
3EC
100
AcDbEntity
  8
0
 62
     7
420
 16777215
370
    15
100
AcDbVertex
100
AcDb2dVertex
 10
174.3041578402409
 20
113.9919484018243
 30
0.0
  0
VERTEX
  5
3EE
330
3EC
100
AcDbEntity
  8
0
 62
     7
420
 16777215
370
    15
100
AcDbVertex
100
AcDb2dVertex
 10
174.3041578402409
 20
101.9919506811242
 30
0.0
  0
SEQEND
  5
3EF
330
3EC
100
AcDbEntity
  8
0
 62
     7
420
 16777215
370
    15
  0
ENDBLK
  5
3EB
330
3E8
100
AcDbEntity
  8
0
100
AcDbBlockEnd
  0
BLOCK
  5
3F2
330
3F0
100
AcDbEntity
  8
0
100
AcDbBlockBegin
  2
block 120
 70
     0
 10
0.0
 20
0.0
 30
0.0
  3
block 120
  1

  0
POLYLINE
  5
3F4
330
3F0
100
AcDbEntity
  8
0
 62
     7
420
 16777215
370
    15
100
AcDb2dPolyline
 66
     1
 10
0.0
 20
0.0
 30
0.0
  0
VERTEX
  5
3F5
330
3F4
100
AcDbEntity
  8
0
 62
     7
420
 16777215
370
    15
100
AcDbVertex
100
AcDb2dVertex
 10
174.3041578402409
 20
101.9919506811242
 30
0.0
  0
VERTEX
  5
3F6
330
3F4
100
AcDbEntity
  8
0
 62
     7
420
 16777215
370
    15
100
AcDbVertex
100
AcDb2dVertex
 10
180.3041653133405
 20
101.9919506811242
 30
0.0
  0
SEQEND
  5
3F7
330
3F4
100
AcDbEntity
  8
0
 62
     7
420
 16777215
370
    15
  0
ENDBLK
  5
3F3
330
3F0
100
AcDbEntity
  8
0
100
AcDbBlockEnd
  0
BLOCK
  5
3FA
330
3F8
100
AcDbEntity
  8
0
100
AcDbBlockBegin
  2
block 121
 70
     0
 10
0.0
 20
0.0
 30
0.0
  3
block 121
  1

  0
POLYLINE
  5
3FC
330
3F8
100
AcDbEntity
  8
0
 62
     7
420
 16777215
370
    15
100
AcDb2dPolyline
 66
     1
 10
0.0
 20
0.0
 30
0.0
  0
VERTEX
  5
3FD
330
3FC
100
AcDbEntity
  8
0
 62
     7
420
 16777215
370
    15
100
AcDbVertex
100
AcDb2dVertex
 10
180.3041653133405
 20
101.9919506811242
 30
0.0
  0
VERTEX
  5
3FE
330
3FC
100
AcDbEntity
  8
0
 62
     7
420
 16777215
370
    15
100
AcDbVertex
100
AcDb2dVertex
 10
180.3041653133405
 20
89.99195296052406
 30
0.0
  0
SEQEND
  5
3FF
330
3FC
100
AcDbEntity
  8
0
 62
     7
420
 16777215
370
    15
  0
ENDBLK
  5
3FB
330
3F8
100
AcDbEntity
  8
0
100
AcDbBlockEnd
  0
BLOCK
  5
402
330
400
100
AcDbEntity
  8
0
100
AcDbBlockBegin
  2
block 122
 70
     0
 10
0.0
 20
0.0
 30
0.0
  3
block 122
  1

  0
POLYLINE
  5
404
330
400
100
AcDbEntity
  8
0
 62
     7
420
 16777215
370
    15
100
AcDb2dPolyline
 66
     1
 10
0.0
 20
0.0
 30
0.0
  0
VERTEX
  5
405
330
404
100
AcDbEntity
  8
0
 62
     7
420
 16777215
370
    15
100
AcDbVertex
100
AcDb2dVertex
 10
180.3041653133405
 20
89.99195296052406
 30
0.0
  0
VERTEX
  5
406
330
404
100
AcDbEntity
  8
0
 62
     7
420
 16777215
370
    15
100
AcDbVertex
100
AcDb2dVertex
 10
174.3041578402409
 20
89.99195296052406
 30
0.0
  0
SEQEND
  5
407
330
404
100
AcDbEntity
  8
0
 62
     7
420
 16777215
370
    15
  0
ENDBLK
  5
403
330
400
100
AcDbEntity
  8
0
100
AcDbBlockEnd
  0
BLOCK
  5
40A
330
408
100
AcDbEntity
  8
0
100
AcDbBlockBegin
  2
block 123
 70
     0
 10
0.0
 20
0.0
 30
0.0
  3
block 123
  1

  0
POLYLINE
  5
40C
330
408
100
AcDbEntity
  8
0
 62
     7
420
 16777215
370
    15
100
AcDb2dPolyline
 66
     1
 10
0.0
 20
0.0
 30
0.0
  0
VERTEX
  5
40D
330
40C
100
AcDbEntity
  8
0
 62
     7
420
 16777215
370
    15
100
AcDbVertex
100
AcDb2dVertex
 10
174.3041578402409
 20
89.99195296052406
 30
0.0
  0
VERTEX
  5
40E
330
40C
100
AcDbEntity
  8
0
 62
     7
420
 16777215
370
    15
100
AcDbVertex
100
AcDb2dVertex
 10
174.3041578402409
 20
83.04194401722415
 30
0.0
  0
SEQEND
  5
40F
330
40C
100
AcDbEntity
  8
0
 62
     7
420
 16777215
370
    15
  0
ENDBLK
  5
40B
330
408
100
AcDbEntity
  8
0
100
AcDbBlockEnd
  0
BLOCK
  5
412
330
410
100
AcDbEntity
  8
0
100
AcDbBlockBegin
  2
block 124
 70
     0
 10
0.0
 20
0.0
 30
0.0
  3
block 124
  1

  0
POLYLINE
  5
414
330
410
100
AcDbEntity
  8
0
 62
     7
420
 16777215
370
    15
100
AcDb2dPolyline
 66
     1
 10
0.0
 20
0.0
 30
0.0
  0
VERTEX
  5
415
330
414
100
AcDbEntity
  8
0
 62
     7
420
 16777215
370
    15
100
AcDbVertex
100
AcDb2dVertex
 10
174.3041578402409
 20
83.04194401722415
 30
0.0
  0
VERTEX
  5
416
330
414
100
AcDbEntity
  8
0
 62
     7
420
 16777215
370
    15
100
AcDbVertex
100
AcDb2dVertex
 10
169.2041635460409
 20
83.04194401722415
 30
0.0
  0
SEQEND
  5
417
330
414
100
AcDbEntity
  8
0
 62
     7
420
 16777215
370
    15
  0
ENDBLK
  5
413
330
410
100
AcDbEntity
  8
0
100
AcDbBlockEnd
  0
BLOCK
  5
41A
330
418
100
AcDbEntity
  8
0
100
AcDbBlockBegin
  2
block 125
 70
     0
 10
0.0
 20
0.0
 30
0.0
  3
block 125
  1

  0
POLYLINE
  5
41C
330
418
100
AcDbEntity
  8
0
 62
     7
420
 16777215
370
    15
100
AcDb2dPolyline
 66
     1
 10
0.0
 20
0.0
 30
0.0
  0
VERTEX
  5
41D
330
41C
100
AcDbEntity
  8
0
 62
     7
420
 16777215
370
    15
100
AcDbVertex
100
AcDb2dVertex
 10
169.2041635460409
 20
83.04194401722415
 30
0.0
  0
VERTEX
  5
41E
330
41C
100
AcDbEntity
  8
0
 62
     7
420
 16777215
370
    15
100
AcDbVertex
100
AcDb2dVertex
 10
169.2041635460409
 20
84.29194413862419
 30
0.0
  0
SEQEND
  5
41F
330
41C
100
AcDbEntity
  8
0
 62
     7
420
 16777215
370
    15
  0
ENDBLK
  5
41B
330
418
100
AcDbEntity
  8
0
100
AcDbBlockEnd
  0
BLOCK
  5
422
330
420
100
AcDbEntity
  8
0
100
AcDbBlockBegin
  2
block 126
 70
     0
 10
0.0
 20
0.0
 30
0.0
  3
block 126
  1

  0
POLYLINE
  5
424
330
420
100
AcDbEntity
  8
0
 62
     7
420
 16777215
370
    15
100
AcDb2dPolyline
 66
     1
 10
0.0
 20
0.0
 30
0.0
  0
VERTEX
  5
425
330
424
100
AcDbEntity
  8
0
 62
     7
420
 16777215
370
    15
100
AcDbVertex
100
AcDb2dVertex
 10
169.2041635460409
 20
84.29194413862419
 30
0.0
  0
VERTEX
  5
426
330
424
100
AcDbEntity
  8
0
 62
     7
420
 16777215
370
    15
100
AcDbVertex
100
AcDb2dVertex
 10
166.7041633031407
 20
84.29194413862419
 30
0.0
  0
SEQEND
  5
427
330
424
100
AcDbEntity
  8
0
 62
     7
420
 16777215
370
    15
  0
ENDBLK
  5
423
330
420
100
AcDbEntity
  8
0
100
AcDbBlockEnd
  0
BLOCK
  5
42A
330
428
100
AcDbEntity
  8
0
100
AcDbBlockBegin
  2
block 127
 70
     0
 10
0.0
 20
0.0
 30
0.0
  3
block 127
  1

  0
POLYLINE
  5
42C
330
428
100
AcDbEntity
  8
0
 62
     7
420
 16777215
370
    15
100
AcDb2dPolyline
 66
     1
 10
0.0
 20
0.0
 30
0.0
  0
VERTEX
  5
42D
330
42C
100
AcDbEntity
  8
0
 62
     7
420
 16777215
370
    15
100
AcDbVertex
100
AcDb2dVertex
 10
166.7041633031407
 20
84.29194413862419
 30
0.0
  0
VERTEX
  5
42E
330
42C
100
AcDbEntity
  8
0
 62
     7
420
 16777215
370
    15
100
AcDbVertex
100
AcDb2dVertex
 10
166.7041633031407
 20
83.04194401722415
 30
0.0
  0
SEQEND
  5
42F
330
42C
100
AcDbEntity
  8
0
 62
     7
420
 16777215
370
    15
  0
ENDBLK
  5
42B
330
428
100
AcDbEntity
  8
0
100
AcDbBlockEnd
  0
BLOCK
  5
432
330
430
100
AcDbEntity
  8
0
100
AcDbBlockBegin
  2
block 128
 70
     0
 10
0.0
 20
0.0
 30
0.0
  3
block 128
  1

  0
POLYLINE
  5
434
330
430
100
AcDbEntity
  8
0
 62
     7
420
 16777215
370
    15
100
AcDb2dPolyline
 66
     1
 10
0.0
 20
0.0
 30
0.0
  0
VERTEX
  5
435
330
434
100
AcDbEntity
  8
0
 62
     7
420
 16777215
370
    15
100
AcDbVertex
100
AcDb2dVertex
 10
166.7041633031407
 20
83.04194401722415
 30
0.0
  0
VERTEX
  5
436
330
434
100
AcDbEntity
  8
0
 62
     7
420
 16777215
370
    15
100
AcDbVertex
100
AcDb2dVertex
 10
164.2041630602406
 20
83.04194401722415
 30
0.0
  0
SEQEND
  5
437
330
434
100
AcDbEntity
  8
0
 62
     7
420
 16777215
370
    15
  0
ENDBLK
  5
433
330
430
100
AcDbEntity
  8
0
100
AcDbBlockEnd
  0
BLOCK
  5
43A
330
438
100
AcDbEntity
  8
0
100
AcDbBlockBegin
  2
block 129
 70
     0
 10
0.0
 20
0.0
 30
0.0
  3
block 129
  1

  0
POLYLINE
  5
43C
330
438
100
AcDbEntity
  8
0
 62
     7
420
 16777215
370
    15
100
AcDb2dPolyline
 66
     1
 10
0.0
 20
0.0
 30
0.0
  0
VERTEX
  5
43D
330
43C
100
AcDbEntity
  8
0
 62
     7
420
 16777215
370
    15
100
AcDbVertex
100
AcDb2dVertex
 10
164.2041630602406
 20
83.04194401722415
 30
0.0
  0
VERTEX
  5
43E
330
43C
100
AcDbEntity
  8
0
 62
     7
420
 16777215
370
    15
100
AcDbVertex
100
AcDb2dVertex
 10
164.2041630602406
 20
79.94194647212424
 30
0.0
  0
SEQEND
  5
43F
330
43C
100
AcDbEntity
  8
0
 62
     7
420
 16777215
370
    15
  0
ENDBLK
  5
43B
330
438
100
AcDbEntity
  8
0
100
AcDbBlockEnd
  0
BLOCK
  5
442
330
440
100
AcDbEntity
  8
0
100
AcDbBlockBegin
  2
block 130
 70
     0
 10
0.0
 20
0.0
 30
0.0
  3
block 130
  1

  0
POLYLINE
  5
444
330
440
100
AcDbEntity
  8
0
 62
     7
420
 16777215
370
    15
100
AcDb2dPolyline
 66
     1
 10
0.0
 20
0.0
 30
0.0
  0
VERTEX
  5
445
330
444
100
AcDbEntity
  8
0
 62
     7
420
 16777215
370
    15
100
AcDbVertex
100
AcDb2dVertex
 10
164.2041630602406
 20
79.94194647212424
 30
0.0
  0
VERTEX
  5
446
330
444
100
AcDbEntity
  8
0
 62
     7
420
 16777215
370
    15
100
AcDbVertex
100
AcDb2dVertex
 10
166.7041633031407
 20
79.94194647212424
 30
0.0
  0
SEQEND
  5
447
330
444
100
AcDbEntity
  8
0
 62
     7
420
 16777215
370
    15
  0
ENDBLK
  5
443
330
440
100
AcDbEntity
  8
0
100
AcDbBlockEnd
  0
BLOCK
  5
44A
330
448
100
AcDbEntity
  8
0
100
AcDbBlockBegin
  2
block 131
 70
     0
 10
0.0
 20
0.0
 30
0.0
  3
block 131
  1

  0
POLYLINE
  5
44C
330
448
100
AcDbEntity
  8
0
 62
     7
420
 16777215
370
    15
100
AcDb2dPolyline
 66
     1
 10
0.0
 20
0.0
 30
0.0
  0
VERTEX
  5
44D
330
44C
100
AcDbEntity
  8
0
 62
     7
420
 16777215
370
    15
100
AcDbVertex
100
AcDb2dVertex
 10
166.7041633031407
 20
79.94194647212424
 30
0.0
  0
VERTEX
  5
44E
330
44C
100
AcDbEntity
  8
0
 62
     7
420
 16777215
370
    15
100
AcDbVertex
100
AcDb2dVertex
 10
166.7041633031407
 20
78.69194635072421
 30
0.0
  0
SEQEND
  5
44F
330
44C
100
AcDbEntity
  8
0
 62
     7
420
 16777215
370
    15
  0
ENDBLK
  5
44B
330
448
100
AcDbEntity
  8
0
100
AcDbBlockEnd
  0
BLOCK
  5
452
330
450
100
AcDbEntity
  8
0
100
AcDbBlockBegin
  2
block 132
 70
     0
 10
0.0
 20
0.0
 30
0.0
  3
block 132
  1

  0
POLYLINE
  5
454
330
450
100
AcDbEntity
  8
0
 62
     7
420
 16777215
370
    15
100
AcDb2dPolyline
 66
     1
 10
0.0
 20
0.0
 30
0.0
  0
VERTEX
  5
455
330
454
100
AcDbEntity
  8
0
 62
     7
420
 16777215
370
    15
100
AcDbVertex
100
AcDb2dVertex
 10
166.7041633031407
 20
78.69194635072421
 30
0.0
  0
VERTEX
  5
456
330
454
100
AcDbEntity
  8
0
 62
     7
420
 16777215
370
    15
100
AcDbVertex
100
AcDb2dVertex
 10
169.2041635460409
 20
78.69194635072421
 30
0.0
  0
SEQEND
  5
457
330
454
100
AcDbEntity
  8
0
 62
     7
420
 16777215
370
    15
  0
ENDBLK
  5
453
330
450
100
AcDbEntity
  8
0
100
AcDbBlockEnd
  0
BLOCK
  5
45A
330
458
100
AcDbEntity
  8
0
100
AcDbBlockBegin
  2
block 133
 70
     0
 10
0.0
 20
0.0
 30
0.0
  3
block 133
  1

  0
POLYLINE
  5
45C
330
458
100
AcDbEntity
  8
0
 62
     7
420
 16777215
370
    15
100
AcDb2dPolyline
 66
     1
 10
0.0
 20
0.0
 30
0.0
  0
VERTEX
  5
45D
330
45C
100
AcDbEntity
  8
0
 62
     7
420
 16777215
370
    15
100
AcDbVertex
100
AcDb2dVertex
 10
169.2041635460409
 20
78.69194635072421
 30
0.0
  0
VERTEX
  5
45E
330
45C
100
AcDbEntity
  8
0
 62
     7
420
 16777215
370
    15
100
AcDbVertex
100
AcDb2dVertex
 10
169.2041635460409
 20
79.94194647212424
 30
0.0
  0
SEQEND
  5
45F
330
45C
100
AcDbEntity
  8
0
 62
     7
420
 16777215
370
    15
  0
ENDBLK
  5
45B
330
458
100
AcDbEntity
  8
0
100
AcDbBlockEnd
  0
BLOCK
  5
462
330
460
100
AcDbEntity
  8
0
100
AcDbBlockBegin
  2
block 134
 70
     0
 10
0.0
 20
0.0
 30
0.0
  3
block 134
  1

  0
POLYLINE
  5
464
330
460
100
AcDbEntity
  8
0
 62
     7
420
 16777215
370
    15
100
AcDb2dPolyline
 66
     1
 10
0.0
 20
0.0
 30
0.0
  0
VERTEX
  5
465
330
464
100
AcDbEntity
  8
0
 62
     7
420
 16777215
370
    15
100
AcDbVertex
100
AcDb2dVertex
 10
169.2041635460409
 20
79.94194647212424
 30
0.0
  0
VERTEX
  5
466
330
464
100
AcDbEntity
  8
0
 62
     7
420
 16777215
370
    15
100
AcDbVertex
100
AcDb2dVertex
 10
174.3041578402409
 20
79.94194647212424
 30
0.0
  0
SEQEND
  5
467
330
464
100
AcDbEntity
  8
0
 62
     7
420
 16777215
370
    15
  0
ENDBLK
  5
463
330
460
100
AcDbEntity
  8
0
100
AcDbBlockEnd
  0
BLOCK
  5
46A
330
468
100
AcDbEntity
  8
0
100
AcDbBlockBegin
  2
block 135
 70
     0
 10
0.0
 20
0.0
 30
0.0
  3
block 135
  1

  0
POLYLINE
  5
46C
330
468
100
AcDbEntity
  8
0
 62
     7
420
 16777215
370
    15
100
AcDb2dPolyline
 66
     1
 10
0.0
 20
0.0
 30
0.0
  0
VERTEX
  5
46D
330
46C
100
AcDbEntity
  8
0
 62
     7
420
 16777215
370
    15
100
AcDbVertex
100
AcDb2dVertex
 10
174.3041578402409
 20
79.94194647212424
 30
0.0
  0
VERTEX
  5
46E
330
46C
100
AcDbEntity
  8
0
 62
     7
420
 16777215
370
    15
100
AcDbVertex
100
AcDb2dVertex
 10
174.3041578402409
 20
72.99195475422437
 30
0.0
  0
SEQEND
  5
46F
330
46C
100
AcDbEntity
  8
0
 62
     7
420
 16777215
370
    15
  0
ENDBLK
  5
46B
330
468
100
AcDbEntity
  8
0
100
AcDbBlockEnd
  0
BLOCK
  5
472
330
470
100
AcDbEntity
  8
0
100
AcDbBlockBegin
  2
block 136
 70
     0
 10
0.0
 20
0.0
 30
0.0
  3
block 136
  1

  0
POLYLINE
  5
474
330
470
100
AcDbEntity
  8
0
 62
     7
420
 16777215
370
    15
100
AcDb2dPolyline
 66
     1
 10
0.0
 20
0.0
 30
0.0
  0
VERTEX
  5
475
330
474
100
AcDbEntity
  8
0
 62
     7
420
 16777215
370
    15
100
AcDbVertex
100
AcDb2dVertex
 10
174.3041578402409
 20
72.99195475422437
 30
0.0
  0
VERTEX
  5
476
330
474
100
AcDbEntity
  8
0
 62
     7
420
 16777215
370
    15
100
AcDbVertex
100
AcDb2dVertex
 10
180.3041653133405
 20
72.99195475422437
 30
0.0
  0
SEQEND
  5
477
330
474
100
AcDbEntity
  8
0
 62
     7
420
 16777215
370
    15
  0
ENDBLK
  5
473
330
470
100
AcDbEntity
  8
0
100
AcDbBlockEnd
  0
BLOCK
  5
47A
330
478
100
AcDbEntity
  8
0
100
AcDbBlockBegin
  2
block 137
 70
     0
 10
0.0
 20
0.0
 30
0.0
  3
block 137
  1

  0
POLYLINE
  5
47C
330
478
100
AcDbEntity
  8
0
 62
     7
420
 16777215
370
    15
100
AcDb2dPolyline
 66
     1
 10
0.0
 20
0.0
 30
0.0
  0
VERTEX
  5
47D
330
47C
100
AcDbEntity
  8
0
 62
     7
420
 16777215
370
    15
100
AcDbVertex
100
AcDb2dVertex
 10
180.3041653133405
 20
72.99195475422437
 30
0.0
  0
VERTEX
  5
47E
330
47C
100
AcDbEntity
  8
0
 62
     7
420
 16777215
370
    15
100
AcDbVertex
100
AcDb2dVertex
 10
180.3041653133405
 20
61.99194679542394
 30
0.0
  0
SEQEND
  5
47F
330
47C
100
AcDbEntity
  8
0
 62
     7
420
 16777215
370
    15
  0
ENDBLK
  5
47B
330
478
100
AcDbEntity
  8
0
100
AcDbBlockEnd
  0
BLOCK
  5
482
330
480
100
AcDbEntity
  8
0
100
AcDbBlockBegin
  2
block 138
 70
     0
 10
0.0
 20
0.0
 30
0.0
  3
block 138
  1

  0
POLYLINE
  5
484
330
480
100
AcDbEntity
  8
0
 62
     7
420
 16777215
370
    15
100
AcDb2dPolyline
 66
     1
 10
0.0
 20
0.0
 30
0.0
  0
VERTEX
  5
485
330
484
100
AcDbEntity
  8
0
 62
     7
420
 16777215
370
    15
100
AcDbVertex
100
AcDb2dVertex
 10
180.3041653133405
 20
61.99194679542394
 30
0.0
  0
VERTEX
  5
486
330
484
100
AcDbEntity
  8
0
 62
     7
420
 16777215
370
    15
100
AcDbVertex
100
AcDb2dVertex
 10
163.8041619878408
 20
61.99194679542394
 30
0.0
  0
SEQEND
  5
487
330
484
100
AcDbEntity
  8
0
 62
     7
420
 16777215
370
    15
  0
ENDBLK
  5
483
330
480
100
AcDbEntity
  8
0
100
AcDbBlockEnd
  0
BLOCK
  5
48A
330
488
100
AcDbEntity
  8
0
100
AcDbBlockBegin
  2
block 139
 70
     0
 10
0.0
 20
0.0
 30
0.0
  3
block 139
  1

  0
POLYLINE
  5
48C
330
488
100
AcDbEntity
  8
0
 62
     7
420
 16777215
370
    15
100
AcDb2dPolyline
 66
     1
 10
0.0
 20
0.0
 30
0.0
  0
VERTEX
  5
48D
330
48C
100
AcDbEntity
  8
0
 62
     7
420
 16777215
370
    15
100
AcDbVertex
100
AcDb2dVertex
 10
163.8041619878408
 20
61.99194679542394
 30
0.0
  0
VERTEX
  5
48E
330
48C
100
AcDbEntity
  8
0
 62
     7
420
 16777215
370
    15
100
AcDbVertex
100
AcDb2dVertex
 10
163.8041619878408
 20
55.99195654782392
 30
0.0
  0
SEQEND
  5
48F
330
48C
100
AcDbEntity
  8
0
 62
     7
420
 16777215
370
    15
  0
ENDBLK
  5
48B
330
488
100
AcDbEntity
  8
0
100
AcDbBlockEnd
  0
BLOCK
  5
492
330
490
100
AcDbEntity
  8
0
100
AcDbBlockBegin
  2
block 140
 70
     0
 10
0.0
 20
0.0
 30
0.0
  3
block 140
  1

  0
POLYLINE
  5
494
330
490
100
AcDbEntity
  8
0
 62
     7
420
 16777215
370
    15
100
AcDb2dPolyline
 66
     1
 10
0.0
 20
0.0
 30
0.0
  0
VERTEX
  5
495
330
494
100
AcDbEntity
  8
0
 62
     7
420
 16777215
370
    15
100
AcDbVertex
100
AcDb2dVertex
 10
163.8041619878408
 20
55.99195654782392
 30
0.0
  0
VERTEX
  5
496
330
494
100
AcDbEntity
  8
0
 62
     7
420
 16777215
370
    15
100
AcDbVertex
100
AcDb2dVertex
 10
157.1042524239406
 20
55.99187338122396
 30
0.0
  0
SEQEND
  5
497
330
494
100
AcDbEntity
  8
0
 62
     7
420
 16777215
370
    15
  0
ENDBLK
  5
493
330
490
100
AcDbEntity
  8
0
100
AcDbBlockEnd
  0
BLOCK
  5
49A
330
498
100
AcDbEntity
  8
0
100
AcDbBlockBegin
  2
block 141
 70
     0
 10
0.0
 20
0.0
 30
0.0
  3
block 141
  1

  0
POLYLINE
  5
49C
330
498
100
AcDbEntity
  8
0
 62
     7
420
 16777215
370
    15
100
AcDb2dPolyline
 66
     1
 10
0.0
 20
0.0
 30
0.0
  0
VERTEX
  5
49D
330
49C
100
AcDbEntity
  8
0
 62
     7
420
 16777215
370
    15
100
AcDbVertex
100
AcDb2dVertex
 10
157.1042524239406
 20
55.99187338122396
 30
0.0
  0
VERTEX
  5
49E
330
49C
100
AcDbEntity
  8
0
 62
     7
420
 16777215
370
    15
100
AcDbVertex
100
AcDb2dVertex
 10
157.1042524239406
 20
57.98192223272397
 30
0.0
  0
SEQEND
  5
49F
330
49C
100
AcDbEntity
  8
0
 62
     7
420
 16777215
370
    15
  0
ENDBLK
  5
49B
330
498
100
AcDbEntity
  8
0
100
AcDbBlockEnd
  0
BLOCK
  5
4A2
330
4A0
100
AcDbEntity
  8
0
100
AcDbBlockBegin
  2
block 142
 70
     0
 10
0.0
 20
0.0
 30
0.0
  3
block 142
  1

  0
POLYLINE
  5
4A4
330
4A0
100
AcDbEntity
  8
0
 62
     7
420
 16777215
370
    15
100
AcDb2dPolyline
 66
     1
 10
0.0
 20
0.0
 30
0.0
  0
VERTEX
  5
4A5
330
4A4
100
AcDbEntity
  8
0
 62
     7
420
 16777215
370
    15
100
AcDbVertex
100
AcDb2dVertex
 10
154.0042511171406
 20
55.99187338122396
 30
0.0
  0
VERTEX
  5
4A6
330
4A4
100
AcDbEntity
  8
0
 62
     7
420
 16777215
370
    15
100
AcDbVertex
100
AcDb2dVertex
 10
154.0042511171406
 20
57.98192058042402
 30
0.0
  0
SEQEND
  5
4A7
330
4A4
100
AcDbEntity
  8
0
 62
     7
420
 16777215
370
    15
  0
ENDBLK
  5
4A3
330
4A0
100
AcDbEntity
  8
0
100
AcDbBlockEnd
  0
BLOCK
  5
4AA
330
4A8
100
AcDbEntity
  8
0
100
AcDbBlockBegin
  2
block 143
 70
     0
 10
0.0
 20
0.0
 30
0.0
  3
block 143
  1

  0
POLYLINE
  5
4AC
330
4A8
100
AcDbEntity
  8
0
 62
     7
420
 16777215
370
    15
100
AcDb2dPolyline
 66
     1
 10
0.0
 20
0.0
 30
0.0
  0
VERTEX
  5
4AD
330
4AC
100
AcDbEntity
  8
0
 62
     7
420
 16777215
370
    15
100
AcDbVertex
100
AcDb2dVertex
 10
154.0042511171406
 20
55.99187338122396
 30
0.0
  0
VERTEX
  5
4AE
330
4AC
100
AcDbEntity
  8
0
 62
     7
420
 16777215
370
    15
100
AcDbVertex
100
AcDb2dVertex
 10
147.3041586624406
 20
55.99195654782392
 30
0.0
  0
SEQEND
  5
4AF
330
4AC
100
AcDbEntity
  8
0
 62
     7
420
 16777215
370
    15
  0
ENDBLK
  5
4AB
330
4A8
100
AcDbEntity
  8
0
100
AcDbBlockEnd
  0
BLOCK
  5
4B2
330
4B0
100
AcDbEntity
  8
0
100
AcDbBlockBegin
  2
block 144
 70
     0
 10
0.0
 20
0.0
 30
0.0
  3
block 144
  1

  0
POLYLINE
  5
4B4
330
4B0
100
AcDbEntity
  8
0
 62
     7
420
 16777215
370
    15
100
AcDb2dPolyline
 66
     1
 10
0.0
 20
0.0
 30
0.0
  0
VERTEX
  5
4B5
330
4B4
100
AcDbEntity
  8
0
 62
     7
420
 16777215
370
    15
100
AcDbVertex
100
AcDb2dVertex
 10
147.3041586624406
 20
55.99195654782392
 30
0.0
  0
VERTEX
  5
4B6
330
4B4
100
AcDbEntity
  8
0
 62
     7
420
 16777215
370
    15
100
AcDbVertex
100
AcDb2dVertex
 10
147.3041586624406
 20
61.99194679542394
 30
0.0
  0
SEQEND
  5
4B7
330
4B4
100
AcDbEntity
  8
0
 62
     7
420
 16777215
370
    15
  0
ENDBLK
  5
4B3
330
4B0
100
AcDbEntity
  8
0
100
AcDbBlockEnd
  0
BLOCK
  5
4BA
330
4B8
100
AcDbEntity
  8
0
100
AcDbBlockBegin
  2
block 145
 70
     0
 10
0.0
 20
0.0
 30
0.0
  3
block 145
  1

  0
POLYLINE
  5
4BC
330
4B8
100
AcDbEntity
  8
0
 62
     7
420
 16777215
370
    15
100
AcDb2dPolyline
 66
     1
 10
0.0
 20
0.0
 30
0.0
  0
VERTEX
  5
4BD
330
4BC
100
AcDbEntity
  8
0
 62
     7
420
 16777215
370
    15
100
AcDbVertex
100
AcDb2dVertex
 10
147.3041586624406
 20
61.99194679542394
 30
0.0
  0
VERTEX
  5
4BE
330
4BC
100
AcDbEntity
  8
0
 62
     7
420
 16777215
370
    15
100
AcDbVertex
100
AcDb2dVertex
 10
135.3041609418405
 20
61.99194679542394
 30
0.0
  0
SEQEND
  5
4BF
330
4BC
100
AcDbEntity
  8
0
 62
     7
420
 16777215
370
    15
  0
ENDBLK
  5
4BB
330
4B8
100
AcDbEntity
  8
0
100
AcDbBlockEnd
  0
BLOCK
  5
4C2
330
4C0
100
AcDbEntity
  8
0
100
AcDbBlockBegin
  2
block 146
 70
     0
 10
0.0
 20
0.0
 30
0.0
  3
block 146
  1

  0
POLYLINE
  5
4C4
330
4C0
100
AcDbEntity
  8
0
 62
     7
420
 16777215
370
    15
100
AcDb2dPolyline
 66
     1
 10
0.0
 20
0.0
 30
0.0
  0
VERTEX
  5
4C5
330
4C4
100
AcDbEntity
  8
0
 62
     7
420
 16777215
370
    15
100
AcDbVertex
100
AcDb2dVertex
 10
135.3041609418405
 20
61.99194679542394
 30
0.0
  0
VERTEX
  5
4C6
330
4C4
100
AcDbEntity
  8
0
 62
     7
420
 16777215
370
    15
100
AcDbVertex
100
AcDb2dVertex
 10
135.3041609418405
 20
55.99195654782392
 30
0.0
  0
SEQEND
  5
4C7
330
4C4
100
AcDbEntity
  8
0
 62
     7
420
 16777215
370
    15
  0
ENDBLK
  5
4C3
330
4C0
100
AcDbEntity
  8
0
100
AcDbBlockEnd
  0
BLOCK
  5
4CA
330
4C8
100
AcDbEntity
  8
0
100
AcDbBlockBegin
  2
block 147
 70
     0
 10
0.0
 20
0.0
 30
0.0
  3
block 147
  1

  0
POLYLINE
  5
4CC
330
4C8
100
AcDbEntity
  8
0
 62
     7
420
 16777215
370
    15
100
AcDb2dPolyline
 66
     1
 10
0.0
 20
0.0
 30
0.0
  0
VERTEX
  5
4CD
330
4CC
100
AcDbEntity
  8
0
 62
     7
420
 16777215
370
    15
100
AcDbVertex
100
AcDb2dVertex
 10
135.3041609418405
 20
55.99195654782392
 30
0.0
  0
VERTEX
  5
4CE
330
4CC
100
AcDbEntity
  8
0
 62
     7
420
 16777215
370
    15
100
AcDbVertex
100
AcDb2dVertex
 10
123.3041632212404
 20
55.99195654782392
 30
0.0
  0
SEQEND
  5
4CF
330
4CC
100
AcDbEntity
  8
0
 62
     7
420
 16777215
370
    15
  0
ENDBLK
  5
4CB
330
4C8
100
AcDbEntity
  8
0
100
AcDbBlockEnd
  0
BLOCK
  5
4D2
330
4D0
100
AcDbEntity
  8
0
100
AcDbBlockBegin
  2
block 148
 70
     0
 10
0.0
 20
0.0
 30
0.0
  3
block 148
  1

  0
POLYLINE
  5
4D4
330
4D0
100
AcDbEntity
  8
0
 62
     7
420
 16777215
370
    15
100
AcDb2dPolyline
 66
     1
 10
0.0
 20
0.0
 30
0.0
  0
VERTEX
  5
4D5
330
4D4
100
AcDbEntity
  8
0
 62
     7
420
 16777215
370
    15
100
AcDbVertex
100
AcDb2dVertex
 10
123.3041632212404
 20
55.99195654782392
 30
0.0
  0
VERTEX
  5
4D6
330
4D4
100
AcDbEntity
  8
0
 62
     7
420
 16777215
370
    15
100
AcDbVertex
100
AcDb2dVertex
 10
123.3041632212404
 20
61.99194679542394
 30
0.0
  0
SEQEND
  5
4D7
330
4D4
100
AcDbEntity
  8
0
 62
     7
420
 16777215
370
    15
  0
ENDBLK
  5
4D3
330
4D0
100
AcDbEntity
  8
0
100
AcDbBlockEnd
  0
BLOCK
  5
4DA
330
4D8
100
AcDbEntity
  8
0
100
AcDbBlockBegin
  2
block 149
 70
     0
 10
0.0
 20
0.0
 30
0.0
  3
block 149
  1

  0
POLYLINE
  5
4DC
330
4D8
100
AcDbEntity
  8
0
 62
     7
420
 16777215
370
    15
100
AcDb2dPolyline
 66
     1
 10
0.0
 20
0.0
 30
0.0
  0
VERTEX
  5
4DD
330
4DC
100
AcDbEntity
  8
0
 62
     7
420
 16777215
370
    15
100
AcDbVertex
100
AcDb2dVertex
 10
123.3041632212404
 20
61.99194679542394
 30
0.0
  0
VERTEX
  5
4DE
330
4DC
100
AcDbEntity
  8
0
 62
     7
420
 16777215
370
    15
100
AcDbVertex
100
AcDb2dVertex
 10
111.3041655006404
 20
61.99194679542394
 30
0.0
  0
SEQEND
  5
4DF
330
4DC
100
AcDbEntity
  8
0
 62
     7
420
 16777215
370
    15
  0
ENDBLK
  5
4DB
330
4D8
100
AcDbEntity
  8
0
100
AcDbBlockEnd
  0
BLOCK
  5
4E2
330
4E0
100
AcDbEntity
  8
0
100
AcDbBlockBegin
  2
block 150
 70
     0
 10
0.0
 20
0.0
 30
0.0
  3
block 150
  1

  0
POLYLINE
  5
4E4
330
4E0
100
AcDbEntity
  8
0
 62
     7
420
 16777215
370
    15
100
AcDb2dPolyline
 66
     1
 10
0.0
 20
0.0
 30
0.0
  0
VERTEX
  5
4E5
330
4E4
100
AcDbEntity
  8
0
 62
     7
420
 16777215
370
    15
100
AcDbVertex
100
AcDb2dVertex
 10
111.3041655006404
 20
61.99194679542394
 30
0.0
  0
VERTEX
  5
4E6
330
4E4
100
AcDbEntity
  8
0
 62
     7
420
 16777215
370
    15
100
AcDbVertex
100
AcDb2dVertex
 10
111.3041655006404
 20
55.99195654782392
 30
0.0
  0
SEQEND
  5
4E7
330
4E4
100
AcDbEntity
  8
0
 62
     7
420
 16777215
370
    15
  0
ENDBLK
  5
4E3
330
4E0
100
AcDbEntity
  8
0
100
AcDbBlockEnd
  0
BLOCK
  5
4EA
330
4E8
100
AcDbEntity
  8
0
100
AcDbBlockBegin
  2
block 151
 70
     0
 10
0.0
 20
0.0
 30
0.0
  3
block 151
  1

  0
POLYLINE
  5
4EC
330
4E8
100
AcDbEntity
  8
0
 62
     7
420
 16777215
370
    15
100
AcDb2dPolyline
 66
     1
 10
0.0
 20
0.0
 30
0.0
  0
VERTEX
  5
4ED
330
4EC
100
AcDbEntity
  8
0
 62
     7
420
 16777215
370
    15
100
AcDbVertex
100
AcDb2dVertex
 10
111.3041655006404
 20
55.99195654782392
 30
0.0
  0
VERTEX
  5
4EE
330
4EC
100
AcDbEntity
  8
0
 62
     7
420
 16777215
370
    15
100
AcDbVertex
100
AcDb2dVertex
 10
99.30416347364068
 20
55.99195654782392
 30
0.0
  0
SEQEND
  5
4EF
330
4EC
100
AcDbEntity
  8
0
 62
     7
420
 16777215
370
    15
  0
ENDBLK
  5
4EB
330
4E8
100
AcDbEntity
  8
0
100
AcDbBlockEnd
  0
BLOCK
  5
4F2
330
4F0
100
AcDbEntity
  8
0
100
AcDbBlockBegin
  2
block 152
 70
     0
 10
0.0
 20
0.0
 30
0.0
  3
block 152
  1

  0
POLYLINE
  5
4F4
330
4F0
100
AcDbEntity
  8
0
 62
     7
420
 16777215
370
    15
100
AcDb2dPolyline
 66
     1
 10
0.0
 20
0.0
 30
0.0
  0
VERTEX
  5
4F5
330
4F4
100
AcDbEntity
  8
0
 62
     7
420
 16777215
370
    15
100
AcDbVertex
100
AcDb2dVertex
 10
99.30416347364068
 20
55.99195654782392
 30
0.0
  0
VERTEX
  5
4F6
330
4F4
100
AcDbEntity
  8
0
 62
     7
420
 16777215
370
    15
100
AcDbVertex
100
AcDb2dVertex
 10
99.30416347364068
 20
61.99194679542394
 30
0.0
  0
SEQEND
  5
4F7
330
4F4
100
AcDbEntity
  8
0
 62
     7
420
 16777215
370
    15
  0
ENDBLK
  5
4F3
330
4F0
100
AcDbEntity
  8
0
100
AcDbBlockEnd
  0
BLOCK
  5
4FA
330
4F8
100
AcDbEntity
  8
0
100
AcDbBlockBegin
  2
block 153
 70
     0
 10
0.0
 20
0.0
 30
0.0
  3
block 153
  1

  0
POLYLINE
  5
4FC
330
4F8
100
AcDbEntity
  8
0
 62
     7
420
 16777215
370
    15
100
AcDb2dPolyline
 66
     1
 10
0.0
 20
0.0
 30
0.0
  0
VERTEX
  5
4FD
330
4FC
100
AcDbEntity
  8
0
 62
     7
420
 16777215
370
    15
100
AcDbVertex
100
AcDb2dVertex
 10
99.30416347364068
 20
61.99194679542394
 30
0.0
  0
VERTEX
  5
4FE
330
4FC
100
AcDbEntity
  8
0
 62
     7
420
 16777215
370
    15
100
AcDbVertex
100
AcDb2dVertex
 10
87.30416575304059
 20
61.99194679542394
 30
0.0
  0
SEQEND
  5
4FF
330
4FC
100
AcDbEntity
  8
0
 62
     7
420
 16777215
370
    15
  0
ENDBLK
  5
4FB
330
4F8
100
AcDbEntity
  8
0
100
AcDbBlockEnd
  0
BLOCK
  5
502
330
500
100
AcDbEntity
  8
0
100
AcDbBlockBegin
  2
block 154
 70
     0
 10
0.0
 20
0.0
 30
0.0
  3
block 154
  1

  0
POLYLINE
  5
504
330
500
100
AcDbEntity
  8
0
 62
     7
420
 16777215
370
    15
100
AcDb2dPolyline
 66
     1
 10
0.0
 20
0.0
 30
0.0
  0
VERTEX
  5
505
330
504
100
AcDbEntity
  8
0
 62
     7
420
 16777215
370
    15
100
AcDbVertex
100
AcDb2dVertex
 10
87.30416575304059
 20
61.99194679542394
 30
0.0
  0
VERTEX
  5
506
330
504
100
AcDbEntity
  8
0
 62
     7
420
 16777215
370
    15
100
AcDbVertex
100
AcDb2dVertex
 10
87.30416575304059
 20
55.99195654782392
 30
0.0
  0
SEQEND
  5
507
330
504
100
AcDbEntity
  8
0
 62
     7
420
 16777215
370
    15
  0
ENDBLK
  5
503
330
500
100
AcDbEntity
  8
0
100
AcDbBlockEnd
  0
BLOCK
  5
50A
330
508
100
AcDbEntity
  8
0
100
AcDbBlockBegin
  2
block 155
 70
     0
 10
0.0
 20
0.0
 30
0.0
  3
block 155
  1

  0
POLYLINE
  5
50C
330
508
100
AcDbEntity
  8
0
 62
     7
420
 16777215
370
    15
100
AcDb2dPolyline
 66
     1
 10
0.0
 20
0.0
 30
0.0
  0
VERTEX
  5
50D
330
50C
100
AcDbEntity
  8
0
 62
     7
420
 16777215
370
    15
100
AcDbVertex
100
AcDb2dVertex
 10
87.30416575304059
 20
55.99195654782392
 30
0.0
  0
VERTEX
  5
50E
330
50C
100
AcDbEntity
  8
0
 62
     7
420
 16777215
370
    15
100
AcDbVertex
100
AcDb2dVertex
 10
75.3041637260406
 20
55.99195654782392
 30
0.0
  0
SEQEND
  5
50F
330
50C
100
AcDbEntity
  8
0
 62
     7
420
 16777215
370
    15
  0
ENDBLK
  5
50B
330
508
100
AcDbEntity
  8
0
100
AcDbBlockEnd
  0
BLOCK
  5
512
330
510
100
AcDbEntity
  8
0
100
AcDbBlockBegin
  2
block 156
 70
     0
 10
0.0
 20
0.0
 30
0.0
  3
block 156
  1

  0
POLYLINE
  5
514
330
510
100
AcDbEntity
  8
0
 62
     7
420
 16777215
370
    15
100
AcDb2dPolyline
 66
     1
 10
0.0
 20
0.0
 30
0.0
  0
VERTEX
  5
515
330
514
100
AcDbEntity
  8
0
 62
     7
420
 16777215
370
    15
100
AcDbVertex
100
AcDb2dVertex
 10
75.3041637260406
 20
55.99195654782392
 30
0.0
  0
VERTEX
  5
516
330
514
100
AcDbEntity
  8
0
 62
     7
420
 16777215
370
    15
100
AcDbVertex
100
AcDb2dVertex
 10
75.3041637260406
 20
61.99194679542394
 30
0.0
  0
SEQEND
  5
517
330
514
100
AcDbEntity
  8
0
 62
     7
420
 16777215
370
    15
  0
ENDBLK
  5
513
330
510
100
AcDbEntity
  8
0
100
AcDbBlockEnd
  0
BLOCK
  5
51A
330
518
100
AcDbEntity
  8
0
100
AcDbBlockBegin
  2
block 157
 70
     0
 10
0.0
 20
0.0
 30
0.0
  3
block 157
  1

  0
POLYLINE
  5
51C
330
518
100
AcDbEntity
  8
0
 62
     7
420
 16777215
370
    15
100
AcDb2dPolyline
 66
     1
 10
0.0
 20
0.0
 30
0.0
  0
VERTEX
  5
51D
330
51C
100
AcDbEntity
  8
0
 62
     7
420
 16777215
370
    15
100
AcDbVertex
100
AcDb2dVertex
 10
75.3041637260406
 20
61.99194679542394
 30
0.0
  0
VERTEX
  5
51E
330
51C
100
AcDbEntity
  8
0
 62
     7
420
 16777215
370
    15
100
AcDbVertex
100
AcDb2dVertex
 10
63.30416600534073
 20
61.99194679542394
 30
0.0
  0
SEQEND
  5
51F
330
51C
100
AcDbEntity
  8
0
 62
     7
420
 16777215
370
    15
  0
ENDBLK
  5
51B
330
518
100
AcDbEntity
  8
0
100
AcDbBlockEnd
  0
BLOCK
  5
522
330
520
100
AcDbEntity
  8
0
100
AcDbBlockBegin
  2
block 158
 70
     0
 10
0.0
 20
0.0
 30
0.0
  3
block 158
  1

  0
POLYLINE
  5
524
330
520
100
AcDbEntity
  8
0
 62
     7
420
 16777215
370
    15
100
AcDb2dPolyline
 66
     1
 10
0.0
 20
0.0
 30
0.0
  0
VERTEX
  5
525
330
524
100
AcDbEntity
  8
0
 62
     7
420
 16777215
370
    15
100
AcDbVertex
100
AcDb2dVertex
 10
63.30416600534073
 20
61.99194679542394
 30
0.0
  0
VERTEX
  5
526
330
524
100
AcDbEntity
  8
0
 62
     7
420
 16777215
370
    15
100
AcDbVertex
100
AcDb2dVertex
 10
63.30416600534073
 20
55.99195654782392
 30
0.0
  0
SEQEND
  5
527
330
524
100
AcDbEntity
  8
0
 62
     7
420
 16777215
370
    15
  0
ENDBLK
  5
523
330
520
100
AcDbEntity
  8
0
100
AcDbBlockEnd
  0
BLOCK
  5
52A
330
528
100
AcDbEntity
  8
0
100
AcDbBlockBegin
  2
block 159
 70
     0
 10
0.0
 20
0.0
 30
0.0
  3
block 159
  1

  0
POLYLINE
  5
52C
330
528
100
AcDbEntity
  8
0
 62
     7
420
 16777215
370
    15
100
AcDb2dPolyline
 66
     1
 10
0.0
 20
0.0
 30
0.0
  0
VERTEX
  5
52D
330
52C
100
AcDbEntity
  8
0
 62
     7
420
 16777215
370
    15
100
AcDbVertex
100
AcDb2dVertex
 10
63.30416600534073
 20
55.99195654782392
 30
0.0
  0
VERTEX
  5
52E
330
52C
100
AcDbEntity
  8
0
 62
     7
420
 16777215
370
    15
100
AcDbVertex
100
AcDb2dVertex
 10
56.60425242394059
 20
55.99187338122396
 30
0.0
  0
SEQEND
  5
52F
330
52C
100
AcDbEntity
  8
0
 62
     7
420
 16777215
370
    15
  0
ENDBLK
  5
52B
330
528
100
AcDbEntity
  8
0
100
AcDbBlockEnd
  0
BLOCK
  5
532
330
530
100
AcDbEntity
  8
0
100
AcDbBlockBegin
  2
block 160
 70
     0
 10
0.0
 20
0.0
 30
0.0
  3
block 160
  1

  0
POLYLINE
  5
534
330
530
100
AcDbEntity
  8
0
 62
     7
420
 16777215
370
    15
100
AcDb2dPolyline
 66
     1
 10
0.0
 20
0.0
 30
0.0
  0
VERTEX
  5
535
330
534
100
AcDbEntity
  8
0
 62
     7
420
 16777215
370
    15
100
AcDbVertex
100
AcDb2dVertex
 10
56.60425242394059
 20
55.99187338122396
 30
0.0
  0
VERTEX
  5
536
330
534
100
AcDbEntity
  8
0
 62
     7
420
 16777215
370
    15
100
AcDbVertex
100
AcDb2dVertex
 10
56.60425242394059
 20
57.98192223272397
 30
0.0
  0
SEQEND
  5
537
330
534
100
AcDbEntity
  8
0
 62
     7
420
 16777215
370
    15
  0
ENDBLK
  5
533
330
530
100
AcDbEntity
  8
0
100
AcDbBlockEnd
  0
BLOCK
  5
53A
330
538
100
AcDbEntity
  8
0
100
AcDbBlockBegin
  2
block 161
 70
     0
 10
0.0
 20
0.0
 30
0.0
  3
block 161
  1

  0
POLYLINE
  5
53C
330
538
100
AcDbEntity
  8
0
 62
     7
420
 16777215
370
    15
100
AcDb2dPolyline
 66
     1
 10
0.0
 20
0.0
 30
0.0
  0
VERTEX
  5
53D
330
53C
100
AcDbEntity
  8
0
 62
     7
420
 16777215
370
    15
100
AcDbVertex
100
AcDb2dVertex
 10
53.5042511171406
 20
55.99187338122396
 30
0.0
  0
VERTEX
  5
53E
330
53C
100
AcDbEntity
  8
0
 62
     7
420
 16777215
370
    15
100
AcDbVertex
100
AcDb2dVertex
 10
53.5042511171406
 20
57.98192058042402
 30
0.0
  0
SEQEND
  5
53F
330
53C
100
AcDbEntity
  8
0
 62
     7
420
 16777215
370
    15
  0
ENDBLK
  5
53B
330
538
100
AcDbEntity
  8
0
100
AcDbBlockEnd
  0
BLOCK
  5
542
330
540
100
AcDbEntity
  8
0
100
AcDbBlockBegin
  2
block 162
 70
     0
 10
0.0
 20
0.0
 30
0.0
  3
block 162
  1

  0
SPLINE
  5
544
330
540
100
AcDbEntity
  8
0
 62
     7
420
 16777215
370
    15
100
AcDbSpline
210
0.0
220
0.0
230
1.0
 70
     8
 71
     3
 72
    14
 73
    10
 74
     0
 42
0.0000000001
 43
0.0000000001
 12
1.0
 22
0.0
 32
0.0
 13
1.0
 23
0.0
 33
0.0
 40
0.0
 40
0.0
 40
0.0
 40
0.0
 40
1.0
 40
1.0
 40
1.0
 40
2.0
 40
2.0
 40
2.0
 40
3.0
 40
3.0
 40
3.0
 40
3.0
 10
53.50425111712136
 20
254.0019636735259
 30
0.0
 10
52.9464697532617
 20
253.1459222477095
 30
0.0
 10
53.18825730632258
 20
251.9997924221644
 30
0.0
 10
54.04429873213898
 20
251.4420110583047
 30
0.0
 10
54.90034015795538
 20
250.8842296944454
 30
0.0
 10
56.04646998350021
 20
251.1260172475063
 30
0.0
 10
56.60425134735987
 20
251.9820586733223
 30
0.0
 10
57.00425239228688
 20
252.5959505797458
 30
0.0
 10
57.00425281447929
 20
253.3880696884349
 30
0.0
 10
56.60425242395086
 20
254.0019620212523
 30
0.0
  0
ENDBLK
  5
543
330
540
100
AcDbEntity
  8
0
100
AcDbBlockEnd
  0
BLOCK
  5
547
330
545
100
AcDbEntity
  8
0
100
AcDbBlockBegin
  2
block 163
 70
     0
 10
0.0
 20
0.0
 30
0.0
  3
block 163
  1

  0
SPLINE
  5
549
330
545
100
AcDbEntity
  8
0
 62
     7
420
 16777215
370
    15
100
AcDbSpline
210
0.0
220
0.0
230
1.0
 70
     8
 71
     3
 72
    14
 73
    10
 74
     0
 42
0.0000000001
 43
0.0000000001
 12
1.0
 22
0.0
 32
0.0
 13
1.0
 23
0.0
 33
0.0
 40
0.0
 40
0.0
 40
0.0
 40
0.0
 40
1.0
 40
1.0
 40
1.0
 40
2.0
 40
2.0
 40
2.0
 40
3.0
 40
3.0
 40
3.0
 40
3.0
 10
154.0042511171214
 20
254.0019636735259
 30
0.0
 10
153.446469753262
 20
253.1459222477095
 30
0.0
 10
153.6882573063226
 20
251.9997924221644
 30
0.0
 10
154.544298732139
 20
251.4420110583047
 30
0.0
 10
155.4003401579554
 20
250.8842296944454
 30
0.0
 10
156.5464699835002
 20
251.126017247506
 30
0.0
 10
157.1042513473602
 20
251.9820586733223
 30
0.0
 10
157.5042523922869
 20
252.5959505797458
 30
0.0
 10
157.5042528144793
 20
253.3880696884349
 30
0.0
 10
157.1042524239509
 20
254.0019620212523
 30
0.0
  0
ENDBLK
  5
548
330
545
100
AcDbEntity
  8
0
100
AcDbBlockEnd
  0
BLOCK
  5
54C
330
54A
100
AcDbEntity
  8
0
100
AcDbBlockBegin
  2
block 164
 70
     0
 10
0.0
 20
0.0
 30
0.0
  3
block 164
  1

  0
SPLINE
  5
54E
330
54A
100
AcDbEntity
  8
0
 62
     7
420
 16777215
370
    15
100
AcDbSpline
210
0.0
220
0.0
230
1.0
 70
     8
 71
     3
 72
    14
 73
    10
 74
     0
 42
0.0000000001
 43
0.0000000001
 12
1.0
 22
0.0
 32
0.0
 13
1.0
 23
0.0
 33
0.0
 40
0.0
 40
0.0
 40
0.0
 40
0.0
 40
1.0
 40
1.0
 40
1.0
 40
2.0
 40
2.0
 40
2.0
 40
3.0
 40
3.0
 40
3.0
 40
3.0
 10
157.1042524239509
 20
57.98192223269638
 30
0.0
 10
157.6620328752847
 20
58.83796425309699
 30
0.0
 10
157.4202441004695
 20
59.9840938209002
 30
0.0
 10
156.564202080069
 20
60.54187427223398
 30
0.0
 10
155.7081600596677
 20
61.09965472356841
 30
0.0
 10
154.5620304918645
 20
60.85786594875331
 30
0.0
 10
154.0042500405307
 20
60.00182392835205
 30
0.0
 10
153.6042496500016
 20
59.38793159553501
 30
0.0
 10
153.6042500721947
 20
58.59581248684617
 30
0.0
 10
154.0042511171214
 20
57.98192058042275
 30
0.0
  0
ENDBLK
  5
54D
330
54A
100
AcDbEntity
  8
0
100
AcDbBlockEnd
  0
BLOCK
  5
551
330
54F
100
AcDbEntity
  8
0
100
AcDbBlockBegin
  2
block 165
 70
     0
 10
0.0
 20
0.0
 30
0.0
  3
block 165
  1

  0
SPLINE
  5
553
330
54F
100
AcDbEntity
  8
0
 62
     7
420
 16777215
370
    15
100
AcDbSpline
210
0.0
220
0.0
230
1.0
 70
     8
 71
     3
 72
    14
 73
    10
 74
     0
 42
0.0000000001
 43
0.0000000001
 12
1.0
 22
0.0
 32
0.0
 13
1.0
 23
0.0
 33
0.0
 40
0.0
 40
0.0
 40
0.0
 40
0.0
 40
1.0
 40
1.0
 40
1.0
 40
2.0
 40
2.0
 40
2.0
 40
3.0
 40
3.0
 40
3.0
 40
3.0
 10
56.60425242395086
 20
57.98192223269638
 30
0.0
 10
57.16203287528465
 20
58.83796425309699
 30
0.0
 10
56.92024410046954
 20
59.9840938209002
 30
0.0
 10
56.0642020800686
 20
60.54187427223398
 30
0.0
 10
55.20816005966768
 20
61.09965472356841
 30
0.0
 10
54.06203049186479
 20
60.85786594875331
 30
0.0
 10
53.50425004053069
 20
60.00182392835205
 30
0.0
 10
53.10424965000194
 20
59.38793159553501
 30
0.0
 10
53.10425007219435
 20
58.59581248684617
 30
0.0
 10
53.50425111712136
 20
57.98192058042275
 30
0.0
  0
ENDBLK
  5
552
330
54F
100
AcDbEntity
  8
0
100
AcDbBlockEnd
  0
ENDSEC
  0
SECTION
  2
ENTITIES
  0
INSERT
  5
41
330
1F
100
AcDbEntity
  8
0
100
AcDbBlockReference
  2
block 2
 10
0.0
 20
0.0
 30
0.0
  0
INSERT
  5
49
330
1F
100
AcDbEntity
  8
0
100
AcDbBlockReference
  2
block 3
 10
0.0
 20
0.0
 30
0.0
  0
INSERT
  5
51
330
1F
100
AcDbEntity
  8
0
100
AcDbBlockReference
  2
block 4
 10
0.0
 20
0.0
 30
0.0
  0
INSERT
  5
59
330
1F
100
AcDbEntity
  8
0
100
AcDbBlockReference
  2
block 5
 10
0.0
 20
0.0
 30
0.0
  0
INSERT
  5
61
330
1F
100
AcDbEntity
  8
0
100
AcDbBlockReference
  2
block 6
 10
0.0
 20
0.0
 30
0.0
  0
INSERT
  5
69
330
1F
100
AcDbEntity
  8
0
100
AcDbBlockReference
  2
block 7
 10
0.0
 20
0.0
 30
0.0
  0
INSERT
  5
71
330
1F
100
AcDbEntity
  8
0
100
AcDbBlockReference
  2
block 8
 10
0.0
 20
0.0
 30
0.0
  0
INSERT
  5
79
330
1F
100
AcDbEntity
  8
0
100
AcDbBlockReference
  2
block 9
 10
0.0
 20
0.0
 30
0.0
  0
INSERT
  5
81
330
1F
100
AcDbEntity
  8
0
100
AcDbBlockReference
  2
block 10
 10
0.0
 20
0.0
 30
0.0
  0
INSERT
  5
89
330
1F
100
AcDbEntity
  8
0
100
AcDbBlockReference
  2
block 11
 10
0.0
 20
0.0
 30
0.0
  0
INSERT
  5
91
330
1F
100
AcDbEntity
  8
0
100
AcDbBlockReference
  2
block 12
 10
0.0
 20
0.0
 30
0.0
  0
INSERT
  5
99
330
1F
100
AcDbEntity
  8
0
100
AcDbBlockReference
  2
block 13
 10
0.0
 20
0.0
 30
0.0
  0
INSERT
  5
A1
330
1F
100
AcDbEntity
  8
0
100
AcDbBlockReference
  2
block 14
 10
0.0
 20
0.0
 30
0.0
  0
INSERT
  5
A9
330
1F
100
AcDbEntity
  8
0
100
AcDbBlockReference
  2
block 15
 10
0.0
 20
0.0
 30
0.0
  0
INSERT
  5
B1
330
1F
100
AcDbEntity
  8
0
100
AcDbBlockReference
  2
block 16
 10
0.0
 20
0.0
 30
0.0
  0
INSERT
  5
B9
330
1F
100
AcDbEntity
  8
0
100
AcDbBlockReference
  2
block 17
 10
0.0
 20
0.0
 30
0.0
  0
INSERT
  5
C1
330
1F
100
AcDbEntity
  8
0
100
AcDbBlockReference
  2
block 18
 10
0.0
 20
0.0
 30
0.0
  0
INSERT
  5
C9
330
1F
100
AcDbEntity
  8
0
100
AcDbBlockReference
  2
block 19
 10
0.0
 20
0.0
 30
0.0
  0
INSERT
  5
D1
330
1F
100
AcDbEntity
  8
0
100
AcDbBlockReference
  2
block 20
 10
0.0
 20
0.0
 30
0.0
  0
INSERT
  5
D9
330
1F
100
AcDbEntity
  8
0
100
AcDbBlockReference
  2
block 21
 10
0.0
 20
0.0
 30
0.0
  0
INSERT
  5
E1
330
1F
100
AcDbEntity
  8
0
100
AcDbBlockReference
  2
block 22
 10
0.0
 20
0.0
 30
0.0
  0
INSERT
  5
E9
330
1F
100
AcDbEntity
  8
0
100
AcDbBlockReference
  2
block 23
 10
0.0
 20
0.0
 30
0.0
  0
INSERT
  5
F1
330
1F
100
AcDbEntity
  8
0
100
AcDbBlockReference
  2
block 24
 10
0.0
 20
0.0
 30
0.0
  0
INSERT
  5
F9
330
1F
100
AcDbEntity
  8
0
100
AcDbBlockReference
  2
block 25
 10
0.0
 20
0.0
 30
0.0
  0
INSERT
  5
101
330
1F
100
AcDbEntity
  8
0
100
AcDbBlockReference
  2
block 26
 10
0.0
 20
0.0
 30
0.0
  0
INSERT
  5
109
330
1F
100
AcDbEntity
  8
0
100
AcDbBlockReference
  2
block 27
 10
0.0
 20
0.0
 30
0.0
  0
INSERT
  5
111
330
1F
100
AcDbEntity
  8
0
100
AcDbBlockReference
  2
block 28
 10
0.0
 20
0.0
 30
0.0
  0
INSERT
  5
119
330
1F
100
AcDbEntity
  8
0
100
AcDbBlockReference
  2
block 29
 10
0.0
 20
0.0
 30
0.0
  0
INSERT
  5
121
330
1F
100
AcDbEntity
  8
0
100
AcDbBlockReference
  2
block 30
 10
0.0
 20
0.0
 30
0.0
  0
INSERT
  5
129
330
1F
100
AcDbEntity
  8
0
100
AcDbBlockReference
  2
block 31
 10
0.0
 20
0.0
 30
0.0
  0
INSERT
  5
131
330
1F
100
AcDbEntity
  8
0
100
AcDbBlockReference
  2
block 32
 10
0.0
 20
0.0
 30
0.0
  0
INSERT
  5
139
330
1F
100
AcDbEntity
  8
0
100
AcDbBlockReference
  2
block 33
 10
0.0
 20
0.0
 30
0.0
  0
INSERT
  5
141
330
1F
100
AcDbEntity
  8
0
100
AcDbBlockReference
  2
block 34
 10
0.0
 20
0.0
 30
0.0
  0
INSERT
  5
149
330
1F
100
AcDbEntity
  8
0
100
AcDbBlockReference
  2
block 35
 10
0.0
 20
0.0
 30
0.0
  0
INSERT
  5
151
330
1F
100
AcDbEntity
  8
0
100
AcDbBlockReference
  2
block 36
 10
0.0
 20
0.0
 30
0.0
  0
INSERT
  5
159
330
1F
100
AcDbEntity
  8
0
100
AcDbBlockReference
  2
block 37
 10
0.0
 20
0.0
 30
0.0
  0
INSERT
  5
161
330
1F
100
AcDbEntity
  8
0
100
AcDbBlockReference
  2
block 38
 10
0.0
 20
0.0
 30
0.0
  0
INSERT
  5
169
330
1F
100
AcDbEntity
  8
0
100
AcDbBlockReference
  2
block 39
 10
0.0
 20
0.0
 30
0.0
  0
INSERT
  5
171
330
1F
100
AcDbEntity
  8
0
100
AcDbBlockReference
  2
block 40
 10
0.0
 20
0.0
 30
0.0
  0
INSERT
  5
179
330
1F
100
AcDbEntity
  8
0
100
AcDbBlockReference
  2
block 41
 10
0.0
 20
0.0
 30
0.0
  0
INSERT
  5
181
330
1F
100
AcDbEntity
  8
0
100
AcDbBlockReference
  2
block 42
 10
0.0
 20
0.0
 30
0.0
  0
INSERT
  5
189
330
1F
100
AcDbEntity
  8
0
100
AcDbBlockReference
  2
block 43
 10
0.0
 20
0.0
 30
0.0
  0
INSERT
  5
191
330
1F
100
AcDbEntity
  8
0
100
AcDbBlockReference
  2
block 44
 10
0.0
 20
0.0
 30
0.0
  0
INSERT
  5
199
330
1F
100
AcDbEntity
  8
0
100
AcDbBlockReference
  2
block 45
 10
0.0
 20
0.0
 30
0.0
  0
INSERT
  5
1A1
330
1F
100
AcDbEntity
  8
0
100
AcDbBlockReference
  2
block 46
 10
0.0
 20
0.0
 30
0.0
  0
INSERT
  5
1A9
330
1F
100
AcDbEntity
  8
0
100
AcDbBlockReference
  2
block 47
 10
0.0
 20
0.0
 30
0.0
  0
INSERT
  5
1B1
330
1F
100
AcDbEntity
  8
0
100
AcDbBlockReference
  2
block 48
 10
0.0
 20
0.0
 30
0.0
  0
INSERT
  5
1B9
330
1F
100
AcDbEntity
  8
0
100
AcDbBlockReference
  2
block 49
 10
0.0
 20
0.0
 30
0.0
  0
INSERT
  5
1C1
330
1F
100
AcDbEntity
  8
0
100
AcDbBlockReference
  2
block 50
 10
0.0
 20
0.0
 30
0.0
  0
INSERT
  5
1C9
330
1F
100
AcDbEntity
  8
0
100
AcDbBlockReference
  2
block 51
 10
0.0
 20
0.0
 30
0.0
  0
INSERT
  5
1D1
330
1F
100
AcDbEntity
  8
0
100
AcDbBlockReference
  2
block 52
 10
0.0
 20
0.0
 30
0.0
  0
INSERT
  5
1D9
330
1F
100
AcDbEntity
  8
0
100
AcDbBlockReference
  2
block 53
 10
0.0
 20
0.0
 30
0.0
  0
INSERT
  5
1E1
330
1F
100
AcDbEntity
  8
0
100
AcDbBlockReference
  2
block 54
 10
0.0
 20
0.0
 30
0.0
  0
INSERT
  5
1E9
330
1F
100
AcDbEntity
  8
0
100
AcDbBlockReference
  2
block 55
 10
0.0
 20
0.0
 30
0.0
  0
INSERT
  5
1F1
330
1F
100
AcDbEntity
  8
0
100
AcDbBlockReference
  2
block 56
 10
0.0
 20
0.0
 30
0.0
  0
INSERT
  5
1F9
330
1F
100
AcDbEntity
  8
0
100
AcDbBlockReference
  2
block 57
 10
0.0
 20
0.0
 30
0.0
  0
INSERT
  5
201
330
1F
100
AcDbEntity
  8
0
100
AcDbBlockReference
  2
block 58
 10
0.0
 20
0.0
 30
0.0
  0
INSERT
  5
209
330
1F
100
AcDbEntity
  8
0
100
AcDbBlockReference
  2
block 59
 10
0.0
 20
0.0
 30
0.0
  0
INSERT
  5
211
330
1F
100
AcDbEntity
  8
0
100
AcDbBlockReference
  2
block 60
 10
0.0
 20
0.0
 30
0.0
  0
INSERT
  5
219
330
1F
100
AcDbEntity
  8
0
100
AcDbBlockReference
  2
block 61
 10
0.0
 20
0.0
 30
0.0
  0
INSERT
  5
221
330
1F
100
AcDbEntity
  8
0
100
AcDbBlockReference
  2
block 62
 10
0.0
 20
0.0
 30
0.0
  0
INSERT
  5
229
330
1F
100
AcDbEntity
  8
0
100
AcDbBlockReference
  2
block 63
 10
0.0
 20
0.0
 30
0.0
  0
INSERT
  5
231
330
1F
100
AcDbEntity
  8
0
100
AcDbBlockReference
  2
block 64
 10
0.0
 20
0.0
 30
0.0
  0
INSERT
  5
239
330
1F
100
AcDbEntity
  8
0
100
AcDbBlockReference
  2
block 65
 10
0.0
 20
0.0
 30
0.0
  0
INSERT
  5
241
330
1F
100
AcDbEntity
  8
0
100
AcDbBlockReference
  2
block 66
 10
0.0
 20
0.0
 30
0.0
  0
INSERT
  5
249
330
1F
100
AcDbEntity
  8
0
100
AcDbBlockReference
  2
block 67
 10
0.0
 20
0.0
 30
0.0
  0
INSERT
  5
251
330
1F
100
AcDbEntity
  8
0
100
AcDbBlockReference
  2
block 68
 10
0.0
 20
0.0
 30
0.0
  0
INSERT
  5
259
330
1F
100
AcDbEntity
  8
0
100
AcDbBlockReference
  2
block 69
 10
0.0
 20
0.0
 30
0.0
  0
INSERT
  5
261
330
1F
100
AcDbEntity
  8
0
100
AcDbBlockReference
  2
block 70
 10
0.0
 20
0.0
 30
0.0
  0
INSERT
  5
269
330
1F
100
AcDbEntity
  8
0
100
AcDbBlockReference
  2
block 71
 10
0.0
 20
0.0
 30
0.0
  0
INSERT
  5
271
330
1F
100
AcDbEntity
  8
0
100
AcDbBlockReference
  2
block 72
 10
0.0
 20
0.0
 30
0.0
  0
INSERT
  5
279
330
1F
100
AcDbEntity
  8
0
100
AcDbBlockReference
  2
block 73
 10
0.0
 20
0.0
 30
0.0
  0
INSERT
  5
281
330
1F
100
AcDbEntity
  8
0
100
AcDbBlockReference
  2
block 74
 10
0.0
 20
0.0
 30
0.0
  0
INSERT
  5
289
330
1F
100
AcDbEntity
  8
0
100
AcDbBlockReference
  2
block 75
 10
0.0
 20
0.0
 30
0.0
  0
INSERT
  5
291
330
1F
100
AcDbEntity
  8
0
100
AcDbBlockReference
  2
block 76
 10
0.0
 20
0.0
 30
0.0
  0
INSERT
  5
299
330
1F
100
AcDbEntity
  8
0
100
AcDbBlockReference
  2
block 77
 10
0.0
 20
0.0
 30
0.0
  0
INSERT
  5
2A1
330
1F
100
AcDbEntity
  8
0
100
AcDbBlockReference
  2
block 78
 10
0.0
 20
0.0
 30
0.0
  0
INSERT
  5
2A9
330
1F
100
AcDbEntity
  8
0
100
AcDbBlockReference
  2
block 79
 10
0.0
 20
0.0
 30
0.0
  0
INSERT
  5
2B1
330
1F
100
AcDbEntity
  8
0
100
AcDbBlockReference
  2
block 80
 10
0.0
 20
0.0
 30
0.0
  0
INSERT
  5
2B9
330
1F
100
AcDbEntity
  8
0
100
AcDbBlockReference
  2
block 81
 10
0.0
 20
0.0
 30
0.0
  0
INSERT
  5
2C1
330
1F
100
AcDbEntity
  8
0
100
AcDbBlockReference
  2
block 82
 10
0.0
 20
0.0
 30
0.0
  0
INSERT
  5
2C9
330
1F
100
AcDbEntity
  8
0
100
AcDbBlockReference
  2
block 83
 10
0.0
 20
0.0
 30
0.0
  0
INSERT
  5
2D1
330
1F
100
AcDbEntity
  8
0
100
AcDbBlockReference
  2
block 84
 10
0.0
 20
0.0
 30
0.0
  0
INSERT
  5
2D9
330
1F
100
AcDbEntity
  8
0
100
AcDbBlockReference
  2
block 85
 10
0.0
 20
0.0
 30
0.0
  0
INSERT
  5
2E1
330
1F
100
AcDbEntity
  8
0
100
AcDbBlockReference
  2
block 86
 10
0.0
 20
0.0
 30
0.0
  0
INSERT
  5
2E9
330
1F
100
AcDbEntity
  8
0
100
AcDbBlockReference
  2
block 87
 10
0.0
 20
0.0
 30
0.0
  0
INSERT
  5
2F1
330
1F
100
AcDbEntity
  8
0
100
AcDbBlockReference
  2
block 88
 10
0.0
 20
0.0
 30
0.0
  0
INSERT
  5
2F9
330
1F
100
AcDbEntity
  8
0
100
AcDbBlockReference
  2
block 89
 10
0.0
 20
0.0
 30
0.0
  0
INSERT
  5
301
330
1F
100
AcDbEntity
  8
0
100
AcDbBlockReference
  2
block 90
 10
0.0
 20
0.0
 30
0.0
  0
INSERT
  5
309
330
1F
100
AcDbEntity
  8
0
100
AcDbBlockReference
  2
block 91
 10
0.0
 20
0.0
 30
0.0
  0
INSERT
  5
311
330
1F
100
AcDbEntity
  8
0
100
AcDbBlockReference
  2
block 92
 10
0.0
 20
0.0
 30
0.0
  0
INSERT
  5
319
330
1F
100
AcDbEntity
  8
0
100
AcDbBlockReference
  2
block 93
 10
0.0
 20
0.0
 30
0.0
  0
INSERT
  5
321
330
1F
100
AcDbEntity
  8
0
100
AcDbBlockReference
  2
block 94
 10
0.0
 20
0.0
 30
0.0
  0
INSERT
  5
329
330
1F
100
AcDbEntity
  8
0
100
AcDbBlockReference
  2
block 95
 10
0.0
 20
0.0
 30
0.0
  0
INSERT
  5
331
330
1F
100
AcDbEntity
  8
0
100
AcDbBlockReference
  2
block 96
 10
0.0
 20
0.0
 30
0.0
  0
INSERT
  5
339
330
1F
100
AcDbEntity
  8
0
100
AcDbBlockReference
  2
block 97
 10
0.0
 20
0.0
 30
0.0
  0
INSERT
  5
341
330
1F
100
AcDbEntity
  8
0
100
AcDbBlockReference
  2
block 98
 10
0.0
 20
0.0
 30
0.0
  0
INSERT
  5
349
330
1F
100
AcDbEntity
  8
0
100
AcDbBlockReference
  2
block 99
 10
0.0
 20
0.0
 30
0.0
  0
INSERT
  5
351
330
1F
100
AcDbEntity
  8
0
100
AcDbBlockReference
  2
block 100
 10
0.0
 20
0.0
 30
0.0
  0
INSERT
  5
359
330
1F
100
AcDbEntity
  8
0
100
AcDbBlockReference
  2
block 101
 10
0.0
 20
0.0
 30
0.0
  0
INSERT
  5
361
330
1F
100
AcDbEntity
  8
0
100
AcDbBlockReference
  2
block 102
 10
0.0
 20
0.0
 30
0.0
  0
INSERT
  5
369
330
1F
100
AcDbEntity
  8
0
100
AcDbBlockReference
  2
block 103
 10
0.0
 20
0.0
 30
0.0
  0
INSERT
  5
371
330
1F
100
AcDbEntity
  8
0
100
AcDbBlockReference
  2
block 104
 10
0.0
 20
0.0
 30
0.0
  0
INSERT
  5
379
330
1F
100
AcDbEntity
  8
0
100
AcDbBlockReference
  2
block 105
 10
0.0
 20
0.0
 30
0.0
  0
INSERT
  5
381
330
1F
100
AcDbEntity
  8
0
100
AcDbBlockReference
  2
block 106
 10
0.0
 20
0.0
 30
0.0
  0
INSERT
  5
389
330
1F
100
AcDbEntity
  8
0
100
AcDbBlockReference
  2
block 107
 10
0.0
 20
0.0
 30
0.0
  0
INSERT
  5
391
330
1F
100
AcDbEntity
  8
0
100
AcDbBlockReference
  2
block 108
 10
0.0
 20
0.0
 30
0.0
  0
INSERT
  5
399
330
1F
100
AcDbEntity
  8
0
100
AcDbBlockReference
  2
block 109
 10
0.0
 20
0.0
 30
0.0
  0
INSERT
  5
3A1
330
1F
100
AcDbEntity
  8
0
100
AcDbBlockReference
  2
block 110
 10
0.0
 20
0.0
 30
0.0
  0
INSERT
  5
3A9
330
1F
100
AcDbEntity
  8
0
100
AcDbBlockReference
  2
block 111
 10
0.0
 20
0.0
 30
0.0
  0
INSERT
  5
3B1
330
1F
100
AcDbEntity
  8
0
100
AcDbBlockReference
  2
block 112
 10
0.0
 20
0.0
 30
0.0
  0
INSERT
  5
3B9
330
1F
100
AcDbEntity
  8
0
100
AcDbBlockReference
  2
block 113
 10
0.0
 20
0.0
 30
0.0
  0
INSERT
  5
3C1
330
1F
100
AcDbEntity
  8
0
100
AcDbBlockReference
  2
block 114
 10
0.0
 20
0.0
 30
0.0
  0
INSERT
  5
3C9
330
1F
100
AcDbEntity
  8
0
100
AcDbBlockReference
  2
block 115
 10
0.0
 20
0.0
 30
0.0
  0
INSERT
  5
3D1
330
1F
100
AcDbEntity
  8
0
100
AcDbBlockReference
  2
block 116
 10
0.0
 20
0.0
 30
0.0
  0
INSERT
  5
3D9
330
1F
100
AcDbEntity
  8
0
100
AcDbBlockReference
  2
block 117
 10
0.0
 20
0.0
 30
0.0
  0
INSERT
  5
3E1
330
1F
100
AcDbEntity
  8
0
100
AcDbBlockReference
  2
block 118
 10
0.0
 20
0.0
 30
0.0
  0
INSERT
  5
3E9
330
1F
100
AcDbEntity
  8
0
100
AcDbBlockReference
  2
block 119
 10
0.0
 20
0.0
 30
0.0
  0
INSERT
  5
3F1
330
1F
100
AcDbEntity
  8
0
100
AcDbBlockReference
  2
block 120
 10
0.0
 20
0.0
 30
0.0
  0
INSERT
  5
3F9
330
1F
100
AcDbEntity
  8
0
100
AcDbBlockReference
  2
block 121
 10
0.0
 20
0.0
 30
0.0
  0
INSERT
  5
401
330
1F
100
AcDbEntity
  8
0
100
AcDbBlockReference
  2
block 122
 10
0.0
 20
0.0
 30
0.0
  0
INSERT
  5
409
330
1F
100
AcDbEntity
  8
0
100
AcDbBlockReference
  2
block 123
 10
0.0
 20
0.0
 30
0.0
  0
INSERT
  5
411
330
1F
100
AcDbEntity
  8
0
100
AcDbBlockReference
  2
block 124
 10
0.0
 20
0.0
 30
0.0
  0
INSERT
  5
419
330
1F
100
AcDbEntity
  8
0
100
AcDbBlockReference
  2
block 125
 10
0.0
 20
0.0
 30
0.0
  0
INSERT
  5
421
330
1F
100
AcDbEntity
  8
0
100
AcDbBlockReference
  2
block 126
 10
0.0
 20
0.0
 30
0.0
  0
INSERT
  5
429
330
1F
100
AcDbEntity
  8
0
100
AcDbBlockReference
  2
block 127
 10
0.0
 20
0.0
 30
0.0
  0
INSERT
  5
431
330
1F
100
AcDbEntity
  8
0
100
AcDbBlockReference
  2
block 128
 10
0.0
 20
0.0
 30
0.0
  0
INSERT
  5
439
330
1F
100
AcDbEntity
  8
0
100
AcDbBlockReference
  2
block 129
 10
0.0
 20
0.0
 30
0.0
  0
INSERT
  5
441
330
1F
100
AcDbEntity
  8
0
100
AcDbBlockReference
  2
block 130
 10
0.0
 20
0.0
 30
0.0
  0
INSERT
  5
449
330
1F
100
AcDbEntity
  8
0
100
AcDbBlockReference
  2
block 131
 10
0.0
 20
0.0
 30
0.0
  0
INSERT
  5
451
330
1F
100
AcDbEntity
  8
0
100
AcDbBlockReference
  2
block 132
 10
0.0
 20
0.0
 30
0.0
  0
INSERT
  5
459
330
1F
100
AcDbEntity
  8
0
100
AcDbBlockReference
  2
block 133
 10
0.0
 20
0.0
 30
0.0
  0
INSERT
  5
461
330
1F
100
AcDbEntity
  8
0
100
AcDbBlockReference
  2
block 134
 10
0.0
 20
0.0
 30
0.0
  0
INSERT
  5
469
330
1F
100
AcDbEntity
  8
0
100
AcDbBlockReference
  2
block 135
 10
0.0
 20
0.0
 30
0.0
  0
INSERT
  5
471
330
1F
100
AcDbEntity
  8
0
100
AcDbBlockReference
  2
block 136
 10
0.0
 20
0.0
 30
0.0
  0
INSERT
  5
479
330
1F
100
AcDbEntity
  8
0
100
AcDbBlockReference
  2
block 137
 10
0.0
 20
0.0
 30
0.0
  0
INSERT
  5
481
330
1F
100
AcDbEntity
  8
0
100
AcDbBlockReference
  2
block 138
 10
0.0
 20
0.0
 30
0.0
  0
INSERT
  5
489
330
1F
100
AcDbEntity
  8
0
100
AcDbBlockReference
  2
block 139
 10
0.0
 20
0.0
 30
0.0
  0
INSERT
  5
491
330
1F
100
AcDbEntity
  8
0
100
AcDbBlockReference
  2
block 140
 10
0.0
 20
0.0
 30
0.0
  0
INSERT
  5
499
330
1F
100
AcDbEntity
  8
0
100
AcDbBlockReference
  2
block 141
 10
0.0
 20
0.0
 30
0.0
  0
INSERT
  5
4A1
330
1F
100
AcDbEntity
  8
0
100
AcDbBlockReference
  2
block 142
 10
0.0
 20
0.0
 30
0.0
  0
INSERT
  5
4A9
330
1F
100
AcDbEntity
  8
0
100
AcDbBlockReference
  2
block 143
 10
0.0
 20
0.0
 30
0.0
  0
INSERT
  5
4B1
330
1F
100
AcDbEntity
  8
0
100
AcDbBlockReference
  2
block 144
 10
0.0
 20
0.0
 30
0.0
  0
INSERT
  5
4B9
330
1F
100
AcDbEntity
  8
0
100
AcDbBlockReference
  2
block 145
 10
0.0
 20
0.0
 30
0.0
  0
INSERT
  5
4C1
330
1F
100
AcDbEntity
  8
0
100
AcDbBlockReference
  2
block 146
 10
0.0
 20
0.0
 30
0.0
  0
INSERT
  5
4C9
330
1F
100
AcDbEntity
  8
0
100
AcDbBlockReference
  2
block 147
 10
0.0
 20
0.0
 30
0.0
  0
INSERT
  5
4D1
330
1F
100
AcDbEntity
  8
0
100
AcDbBlockReference
  2
block 148
 10
0.0
 20
0.0
 30
0.0
  0
INSERT
  5
4D9
330
1F
100
AcDbEntity
  8
0
100
AcDbBlockReference
  2
block 149
 10
0.0
 20
0.0
 30
0.0
  0
INSERT
  5
4E1
330
1F
100
AcDbEntity
  8
0
100
AcDbBlockReference
  2
block 150
 10
0.0
 20
0.0
 30
0.0
  0
INSERT
  5
4E9
330
1F
100
AcDbEntity
  8
0
100
AcDbBlockReference
  2
block 151
 10
0.0
 20
0.0
 30
0.0
  0
INSERT
  5
4F1
330
1F
100
AcDbEntity
  8
0
100
AcDbBlockReference
  2
block 152
 10
0.0
 20
0.0
 30
0.0
  0
INSERT
  5
4F9
330
1F
100
AcDbEntity
  8
0
100
AcDbBlockReference
  2
block 153
 10
0.0
 20
0.0
 30
0.0
  0
INSERT
  5
501
330
1F
100
AcDbEntity
  8
0
100
AcDbBlockReference
  2
block 154
 10
0.0
 20
0.0
 30
0.0
  0
INSERT
  5
509
330
1F
100
AcDbEntity
  8
0
100
AcDbBlockReference
  2
block 155
 10
0.0
 20
0.0
 30
0.0
  0
INSERT
  5
511
330
1F
100
AcDbEntity
  8
0
100
AcDbBlockReference
  2
block 156
 10
0.0
 20
0.0
 30
0.0
  0
INSERT
  5
519
330
1F
100
AcDbEntity
  8
0
100
AcDbBlockReference
  2
block 157
 10
0.0
 20
0.0
 30
0.0
  0
INSERT
  5
521
330
1F
100
AcDbEntity
  8
0
100
AcDbBlockReference
  2
block 158
 10
0.0
 20
0.0
 30
0.0
  0
INSERT
  5
529
330
1F
100
AcDbEntity
  8
0
100
AcDbBlockReference
  2
block 159
 10
0.0
 20
0.0
 30
0.0
  0
INSERT
  5
531
330
1F
100
AcDbEntity
  8
0
100
AcDbBlockReference
  2
block 160
 10
0.0
 20
0.0
 30
0.0
  0
INSERT
  5
539
330
1F
100
AcDbEntity
  8
0
100
AcDbBlockReference
  2
block 161
 10
0.0
 20
0.0
 30
0.0
  0
INSERT
  5
541
330
1F
100
AcDbEntity
  8
0
100
AcDbBlockReference
  2
block 162
 10
0.0
 20
0.0
 30
0.0
  0
INSERT
  5
546
330
1F
100
AcDbEntity
  8
0
100
AcDbBlockReference
  2
block 163
 10
0.0
 20
0.0
 30
0.0
  0
INSERT
  5
54B
330
1F
100
AcDbEntity
  8
0
100
AcDbBlockReference
  2
block 164
 10
0.0
 20
0.0
 30
0.0
  0
INSERT
  5
550
330
1F
100
AcDbEntity
  8
0
100
AcDbBlockReference
  2
block 165
 10
0.0
 20
0.0
 30
0.0
  0
ENDSEC
  0
SECTION
  2
OBJECTS
  0
DICTIONARY
  5
C
330
0
100
AcDbDictionary
281
     1
  3
ACAD_GROUP
350
D
  3
ACAD_LAYOUT
350
1A
  3
ACAD_MATERIAL
350
3B
  3
ACAD_MLEADERSTYLE
350
555
  3
ACAD_MLINESTYLE
350
17
  3
ACAD_PLOTSETTINGS
350
19
  3
ACAD_PLOTSTYLENAME
350
E
  3
ACAD_TABLESTYLE
350
554
  3
ACAD_VISUALSTYLE
350
2A
  0
SUN
  5
3F
330
29
100
AcDbSun
 90
        1
290
     0
 63
     7
421
 16777215
 40
1.0
291
     1
 91
  2455826
 92
 54000000
292
     0
 70
     2
 71
   256
280
     1
  0
DICTIONARY
  5
D
102
{ACAD_REACTORS
330
C
102
}
330
C
100
AcDbDictionary
281
     1
  0
DICTIONARY
  5
1A
102
{ACAD_REACTORS
330
C
102
}
330
C
100
AcDbDictionary
281
     1
  3
Layout1
350
1E
  3
Layout2
350
26
  3
Model
350
22
  0
DICTIONARY
  5
3B
102
{ACAD_REACTORS
330
C
102
}
330
C
100
AcDbDictionary
281
     1
  3
ByBlock
350
3D
  3
ByLayer
350
3C
  3
Global
350
3E
  0
DICTIONARY
  5
555
102
{ACAD_REACTORS
330
C
102
}
330
C
100
AcDbDictionary
281
     1
  0
DICTIONARY
  5
17
102
{ACAD_REACTORS
330
C
102
}
330
C
100
AcDbDictionary
281
     1
  3
Standard
350
18
  0
DICTIONARY
  5
19
102
{ACAD_REACTORS
330
C
102
}
330
C
100
AcDbDictionary
281
     1
  0
ACDBDICTIONARYWDFLT
  5
E
102
{ACAD_REACTORS
330
C
102
}
330
C
100
AcDbDictionary
281
     1
  3
Normal
350
F
100
AcDbDictionaryWithDefault
340
F
  0
DICTIONARY
  5
554
102
{ACAD_REACTORS
330
C
102
}
330
C
100
AcDbDictionary
281
     1
  0
DICTIONARY
  5
2A
102
{ACAD_REACTORS
330
C
102
}
330
C
100
AcDbDictionary
281
     1
  3
2dWireframe
350
2F
  3
3D Hidden
350
31
  3
3dWireframe
350
30
  3
Basic
350
32
  3
Brighten
350
36
  3
ColorChange
350
3A
  3
Conceptual
350
34
  3
Dim
350
35
  3
Facepattern
350
39
  3
Flat
350
2B
  3
FlatWithEdges
350
2C
  3
Gouraud
350
2D
  3
GouraudWithEdges
350
2E
  3
Linepattern
350
38
  3
Realistic
350
33
  3
Thicken
350
37
  0
LAYOUT
  5
1E
102
{ACAD_REACTORS
330
1A
102
}
330
1A
100
AcDbPlotSettings
  1

  2
none_device
  4

  6

 40
0.0
 41
0.0
 42
0.0
 43
0.0
 44
0.0
 45
0.0
 46
0.0
 47
0.0
 48
0.0
 49
0.0
140
0.0
141
0.0
142
1.0
143
1.0
 70
   688
 72
     0
 73
     0
 74
     5
  7

 75
    16
 76
     0
 77
     2
 78
   300
147
1.0
148
0.0
149
0.0
100
AcDbLayout
  1
Layout1
 70
     1
 71
     1
 10
0.0
 20
0.0
 11
12.0
 21
9.0
 12
0.0
 22
0.0
 32
0.0
 14
1.000000000000000E+20
 24
1.000000000000000E+20
 34
1.000000000000000E+20
 15
-1.000000000000000E+20
 25
-1.000000000000000E+20
 35
-1.000000000000000E+20
146
0.0
 13
0.0
 23
0.0
 33
0.0
 16
1.0
 26
0.0
 36
0.0
 17
0.0
 27
1.0
 37
0.0
 76
     0
330
1B
  0
LAYOUT
  5
26
102
{ACAD_REACTORS
330
1A
102
}
330
1A
100
AcDbPlotSettings
  1

  2
none_device
  4

  6

 40
0.0
 41
0.0
 42
0.0
 43
0.0
 44
0.0
 45
0.0
 46
0.0
 47
0.0
 48
0.0
 49
0.0
140
0.0
141
0.0
142
1.0
143
1.0
 70
   688
 72
     0
 73
     0
 74
     5
  7

 75
    16
 76
     0
 77
     2
 78
   300
147
1.0
148
0.0
149
0.0
100
AcDbLayout
  1
Layout2
 70
     1
 71
     2
 10
0.0
 20
0.0
 11
0.0
 21
0.0
 12
0.0
 22
0.0
 32
0.0
 14
0.0
 24
0.0
 34
0.0
 15
0.0
 25
0.0
 35
0.0
146
0.0
 13
0.0
 23
0.0
 33
0.0
 16
1.0
 26
0.0
 36
0.0
 17
0.0
 27
1.0
 37
0.0
 76
     0
330
23
  0
LAYOUT
  5
22
102
{ACAD_REACTORS
330
1A
102
}
330
1A
100
AcDbPlotSettings
  1

  2
none_device
  4

  6

 40
0.0
 41
0.0
 42
0.0
 43
0.0
 44
0.0
 45
0.0
 46
0.0
 47
0.0
 48
0.0
 49
0.0
140
0.0
141
0.0
142
1.0
143
1.0
 70
  1712
 72
     0
 73
     0
 74
     0
  7

 75
     0
 76
     0
 77
     2
 78
   300
147
1.0
148
0.0
149
0.0
100
AcDbLayout
  1
Model
 70
     1
 71
     0
 10
0.0
 20
0.0
 11
12.0
 21
9.0
 12
0.0
 22
0.0
 32
0.0
 14
1.000000000000000E+20
 24
1.000000000000000E+20
 34
1.000000000000000E+20
 15
-1.000000000000000E+20
 25
-1.000000000000000E+20
 35
-1.000000000000000E+20
146
0.0
 13
0.0
 23
0.0
 33
0.0
 16
1.0
 26
0.0
 36
0.0
 17
0.0
 27
1.0
 37
0.0
 76
     0
330
1F
331
29
  0
MATERIAL
  5
3D
102
{ACAD_REACTORS
330
3B
102
}
330
3B
100
AcDbMaterial
  1
ByBlock
 72
     1
 94
      127
  0
MATERIAL
  5
3C
102
{ACAD_REACTORS
330
3B
102
}
330
3B
100
AcDbMaterial
  1
ByLayer
 72
     1
 94
      127
  0
MATERIAL
  5
3E
102
{ACAD_REACTORS
330
3B
102
}
330
3B
100
AcDbMaterial
  1
Global
 72
     1
 94
      127
  0
MLINESTYLE
  5
18
102
{ACAD_REACTORS
330
17
102
}
330
17
100
AcDbMlineStyle
  2
Standard
 70
     0
  3

 62
   256
 51
90.0
 52
90.0
 71
     2
 49
0.5
 62
   256
  6
BYLAYER
 49
-0.5
 62
   256
  6
BYLAYER
  0
ACDBPLACEHOLDER
  5
F
102
{ACAD_REACTORS
330
E
102
}
330
E
  0
VISUALSTYLE
  5
2F
102
{ACAD_REACTORS
330
2A
102
}
330
2A
100
AcDbVisualStyle
  2
2dWireframe
 70
     4
177
     2
291
     0
 71
     0
176
     1
 72
     2
176
     1
 73
     0
176
     1
 90
        0
176
     1
 40
-0.6
176
     1
 41
-30.0
176
     1
 62
     5
 63
     7
421
 16777215
176
     1
 74
     1
176
     1
 91
        4
176
     1
 64
     7
176
     1
 65
   257
176
     1
 75
     1
176
     1
175
     1
176
     1
 42
1.0
176
     1
 92
        0
176
     1
 66
   257
176
     1
 43
1.0
176
     1
 76
     1
176
     1
 77
     6
176
     1
 78
     2
176
     1
 67
     7
176
     1
 79
     5
176
     1
170
     0
176
     1
171
     0
176
     1
290
     0
176
     1
 93
        1
176
     1
 44
0.0
176
     1
173
     0
176
     1
  0
VISUALSTYLE
  5
31
102
{ACAD_REACTORS
330
2A
102
}
330
2A
100
AcDbVisualStyle
  2
3D Hidden
 70
     6
177
     2
291
     0
 71
     1
176
     1
 72
     2
176
     1
 73
     2
176
     1
 90
        0
176
     1
 40
-0.6
176
     1
 41
-30.0
176
     1
 62
     5
 63
     7
421
 16777215
176
     1
 74
     2
176
     1
 91
        2
176
     1
 64
     7
176
     1
 65
   257
176
     1
 75
     2
176
     1
175
     1
176
     1
 42
40.0
176
     1
 92
        0
176
     1
 66
   257
176
     1
 43
1.0
176
     1
 76
     1
176
     1
 77
     6
176
     1
 78
     2
176
     1
 67
     7
176
     1
 79
     3
176
     1
170
     0
176
     1
171
     0
176
     1
290
     0
176
     1
 93
        1
176
     1
 44
0.0
176
     1
173
     0
176
     1
  0
VISUALSTYLE
  5
30
102
{ACAD_REACTORS
330
2A
102
}
330
2A
100
AcDbVisualStyle
  2
3dWireframe
 70
     5
177
     2
291
     0
 71
     0
176
     1
 72
     2
176
     1
 73
     0
176
     1
 90
        0
176
     1
 40
-0.6
176
     1
 41
-30.0
176
     1
 62
     5
 63
     7
421
 16777215
176
     1
 74
     1
176
     1
 91
        4
176
     1
 64
     7
176
     1
 65
   257
176
     1
 75
     1
176
     1
175
     1
176
     1
 42
1.0
176
     1
 92
        0
176
     1
 66
   257
176
     1
 43
1.0
176
     1
 76
     1
176
     1
 77
     6
176
     1
 78
     2
176
     1
 67
     7
176
     1
 79
     5
176
     1
170
     0
176
     1
171
     0
176
     1
290
     0
176
     1
 93
        1
176
     1
 44
0.0
176
     1
173
     0
176
     1
  0
VISUALSTYLE
  5
32
102
{ACAD_REACTORS
330
2A
102
}
330
2A
100
AcDbVisualStyle
  2
Basic
 70
     7
177
     2
291
     1
 71
     1
176
     1
 72
     0
176
     1
 73
     1
176
     1
 90
        0
176
     1
 40
-0.6
176
     1
 41
-30.0
176
     1
 62
     5
 63
     7
421
 16777215
176
     1
 74
     0
176
     1
 91
        4
176
     1
 64
     7
176
     1
 65
   257
176
     1
 75
     1
176
     1
175
     1
176
     1
 42
1.0
176
     1
 92
        8
176
     1
 66
     7
176
     1
 43
1.0
176
     1
 76
     1
176
     1
 77
     6
176
     1
 78
     2
176
     1
 67
     7
176
     1
 79
     5
176
     1
170
     0
176
     1
171
     0
176
     1
290
     0
176
     1
 93
        1
176
     1
 44
0.0
176
     1
173
     0
176
     1
  0
VISUALSTYLE
  5
36
102
{ACAD_REACTORS
330
2A
102
}
330
2A
100
AcDbVisualStyle
  2
Brighten
 70
    12
177
     2
291
     1
 71
     2
176
     1
 72
     2
176
     1
 73
     0
176
     1
 90
        0
176
     1
 40
-0.6
176
     1
 41
-30.0
176
     1
 62
     5
 63
     7
421
 16777215
176
     1
 74
     1
176
     1
 91
        4
176
     1
 64
     7
176
     1
 65
   257
176
     1
 75
     1
176
     1
175
     1
176
     1
 42
1.0
176
     1
 92
        8
176
     1
 66
     7
176
     1
 43
1.0
176
     1
 76
     1
176
     1
 77
     6
176
     1
 78
     2
176
     1
 67
     7
176
     1
 79
     5
176
     1
170
     0
176
     1
171
     0
176
     1
290
     0
176
     1
 93
        1
176
     1
 44
50.0
176
     1
173
     0
176
     1
  0
VISUALSTYLE
  5
3A
102
{ACAD_REACTORS
330
2A
102
}
330
2A
100
AcDbVisualStyle
  2
ColorChange
 70
    16
177
     2
291
     1
 71
     2
176
     1
 72
     2
176
     1
 73
     3
176
     1
 90
        0
176
     1
 40
-0.6
176
     1
 41
-30.0
176
     1
 62
     5
 63
     8
421
  8421504
176
     1
 74
     1
176
     1
 91
        4
176
     1
 64
     7
176
     1
 65
   257
176
     1
 75
     1
176
     1
175
     1
176
     1
 42
1.0
176
     1
 92
        8
176
     1
 66
     8
424
  8421504
176
     1
 43
1.0
176
     1
 76
     1
176
     1
 77
     6
176
     1
 78
     2
176
     1
 67
     7
176
     1
 79
     5
176
     1
170
     0
176
     1
171
     0
176
     1
290
     0
176
     1
 93
        1
176
     1
 44
0.0
176
     1
173
     0
176
     1
  0
VISUALSTYLE
  5
34
102
{ACAD_REACTORS
330
2A
102
}
330
2A
100
AcDbVisualStyle
  2
Conceptual
 70
     9
177
     2
291
     0
 71
     3
176
     1
 72
     2
176
     1
 73
     0
176
     1
 90
        0
176
     1
 40
-0.6
176
     1
 41
-30.0
176
     1
 62
     5
 63
     7
421
 16777215
176
     1
 74
     2
176
     1
 91
        2
176
     1
 64
     7
176
     1
 65
   257
176
     1
 75
     1
176
     1
175
     1
176
     1
 42
40.0
176
     1
 92
        8
176
     1
 66
     7
176
     1
 43
1.0
176
     1
 76
     1
176
     1
 77
     6
176
     1
 78
     2
176
     1
 67
     7
176
     1
 79
     3
176
     1
170
     0
176
     1
171
     0
176
     1
290
     0
176
     1
 93
        1
176
     1
 44
0.0
176
     1
173
     0
176
     1
  0
VISUALSTYLE
  5
35
102
{ACAD_REACTORS
330
2A
102
}
330
2A
100
AcDbVisualStyle
  2
Dim
 70
    11
177
     2
291
     1
 71
     2
176
     1
 72
     2
176
     1
 73
     0
176
     1
 90
        0
176
     1
 40
-0.6
176
     1
 41
-30.0
176
     1
 62
     5
 63
     7
421
 16777215
176
     1
 74
     1
176
     1
 91
        4
176
     1
 64
     7
176
     1
 65
   257
176
     1
 75
     1
176
     1
175
     1
176
     1
 42
1.0
176
     1
 92
        8
176
     1
 66
     7
176
     1
 43
1.0
176
     1
 76
     1
176
     1
 77
     6
176
     1
 78
     2
176
     1
 67
     7
176
     1
 79
     5
176
     1
170
     0
176
     1
171
     0
176
     1
290
     0
176
     1
 93
        1
176
     1
 44
-50.0
176
     1
173
     0
176
     1
  0
VISUALSTYLE
  5
39
102
{ACAD_REACTORS
330
2A
102
}
330
2A
100
AcDbVisualStyle
  2
Facepattern
 70
    15
177
     2
291
     1
 71
     2
176
     1
 72
     2
176
     1
 73
     0
176
     1
 90
        0
176
     1
 40
-0.6
176
     1
 41
-30.0
176
     1
 62
     5
 63
     7
421
 16777215
176
     1
 74
     1
176
     1
 91
        4
176
     1
 64
     7
176
     1
 65
   257
176
     1
 75
     1
176
     1
175
     1
176
     1
 42
1.0
176
     1
 92
        8
176
     1
 66
     7
176
     1
 43
1.0
176
     1
 76
     1
176
     1
 77
     6
176
     1
 78
     2
176
     1
 67
     7
176
     1
 79
     5
176
     1
170
     0
176
     1
171
     0
176
     1
290
     0
176
     1
 93
        1
176
     1
 44
0.0
176
     1
173
     0
176
     1
  0
VISUALSTYLE
  5
2B
102
{ACAD_REACTORS
330
2A
102
}
330
2A
100
AcDbVisualStyle
  2
Flat
 70
     0
177
     2
291
     1
 71
     2
176
     1
 72
     1
176
     1
 73
     1
176
     1
 90
        2
176
     1
 40
-0.6
176
     1
 41
30.0
176
     1
 62
     5
 63
     7
421
 16777215
176
     1
 74
     0
176
     1
 91
        4
176
     1
 64
     7
176
     1
 65
   257
176
     1
 75
     1
176
     1
175
     1
176
     1
 42
1.0
176
     1
 92
        8
176
     1
 66
     7
176
     1
 43
1.0
176
     1
 76
     1
176
     1
 77
     6
176
     1
 78
     2
176
     1
 67
     7
176
     1
 79
     5
176
     1
170
     0
176
     1
171
     0
176
     1
290
     0
176
     1
 93
       13
176
     1
 44
0.0
176
     1
173
     0
176
     1
  0
VISUALSTYLE
  5
2C
102
{ACAD_REACTORS
330
2A
102
}
330
2A
100
AcDbVisualStyle
  2
FlatWithEdges
 70
     1
177
     2
291
     1
 71
     2
176
     1
 72
     1
176
     1
 73
     1
176
     1
 90
        2
176
     1
 40
-0.6
176
     1
 41
30.0
176
     1
 62
     5
 63
     7
421
 16777215
176
     1
 74
     1
176
     1
 91
        4
176
     1
 64
     7
176
     1
 65
   257
176
     1
 75
     1
176
     1
175
     1
176
     1
 42
1.0
176
     1
 92
        0
176
     1
 66
   257
176
     1
 43
1.0
176
     1
 76
     1
176
     1
 77
     6
176
     1
 78
     2
176
     1
 67
     7
176
     1
 79
     5
176
     1
170
     0
176
     1
171
     0
176
     1
290
     0
176
     1
 93
       13
176
     1
 44
0.0
176
     1
173
     0
176
     1
  0
VISUALSTYLE
  5
2D
102
{ACAD_REACTORS
330
2A
102
}
330
2A
100
AcDbVisualStyle
  2
Gouraud
 70
     2
177
     2
291
     1
 71
     2
176
     1
 72
     2
176
     1
 73
     1
176
     1
 90
        2
176
     1
 40
-0.6
176
     1
 41
30.0
176
     1
 62
     5
 63
     7
421
 16777215
176
     1
 74
     0
176
     1
 91
        4
176
     1
 64
     7
176
     1
 65
   257
176
     1
 75
     1
176
     1
175
     1
176
     1
 42
1.0
176
     1
 92
        0
176
     1
 66
     7
176
     1
 43
1.0
176
     1
 76
     1
176
     1
 77
     6
176
     1
 78
     2
176
     1
 67
     7
176
     1
 79
     5
176
     1
170
     0
176
     1
171
     0
176
     1
290
     0
176
     1
 93
       13
176
     1
 44
0.0
176
     1
173
     0
176
     1
  0
VISUALSTYLE
  5
2E
102
{ACAD_REACTORS
330
2A
102
}
330
2A
100
AcDbVisualStyle
  2
GouraudWithEdges
 70
     3
177
     2
291
     1
 71
     2
176
     1
 72
     2
176
     1
 73
     1
176
     1
 90
        2
176
     1
 40
-0.6
176
     1
 41
30.0
176
     1
 62
     5
 63
     7
421
 16777215
176
     1
 74
     1
176
     1
 91
        4
176
     1
 64
     7
176
     1
 65
   257
176
     1
 75
     1
176
     1
175
     1
176
     1
 42
1.0
176
     1
 92
        0
176
     1
 66
   257
176
     1
 43
1.0
176
     1
 76
     1
176
     1
 77
     6
176
     1
 78
     2
176
     1
 67
     7
176
     1
 79
     5
176
     1
170
     0
176
     1
171
     0
176
     1
290
     0
176
     1
 93
       13
176
     1
 44
0.0
176
     1
173
     0
176
     1
  0
VISUALSTYLE
  5
38
102
{ACAD_REACTORS
330
2A
102
}
330
2A
100
AcDbVisualStyle
  2
Linepattern
 70
    14
177
     2
291
     1
 71
     2
176
     1
 72
     2
176
     1
 73
     0
176
     1
 90
        0
176
     1
 40
-0.6
176
     1
 41
-30.0
176
     1
 62
     5
 63
     7
421
 16777215
176
     1
 74
     1
176
     1
 91
        4
176
     1
 64
     7
176
     1
 65
   257
176
     1
 75
     7
176
     1
175
     7
176
     1
 42
1.0
176
     1
 92
        8
176
     1
 66
     7
176
     1
 43
1.0
176
     1
 76
     1
176
     1
 77
     6
176
     1
 78
     2
176
     1
 67
     7
176
     1
 79
     5
176
     1
170
     0
176
     1
171
     0
176
     1
290
     0
176
     1
 93
        1
176
     1
 44
0.0
176
     1
173
     0
176
     1
  0
VISUALSTYLE
  5
33
102
{ACAD_REACTORS
330
2A
102
}
330
2A
100
AcDbVisualStyle
  2
Realistic
 70
     8
177
     2
291
     0
 71
     2
176
     1
 72
     2
176
     1
 73
     0
176
     1
 90
        0
176
     1
 40
-0.6
176
     1
 41
-30.0
176
     1
 62
     5
 63
     7
421
 16777215
176
     1
 74
     1
176
     1
 91
        0
176
     1
 64
     7
176
     1
 65
   257
176
     1
 75
     1
176
     1
175
     1
176
     1
 42
1.0
176
     1
 92
        8
176
     1
 66
     8
424
  7895160
176
     1
 43
1.0
176
     1
 76
     1
176
     1
 77
     6
176
     1
 78
     2
176
     1
 67
     7
176
     1
 79
     5
176
     1
170
     0
176
     1
171
     0
176
     1
290
     0
176
     1
 93
       13
176
     1
 44
0.0
176
     1
173
     0
176
     1
  0
VISUALSTYLE
  5
37
102
{ACAD_REACTORS
330
2A
102
}
330
2A
100
AcDbVisualStyle
  2
Thicken
 70
    13
177
     2
291
     1
 71
     2
176
     1
 72
     2
176
     1
 73
     0
176
     1
 90
        0
176
     1
 40
-0.6
176
     1
 41
-30.0
176
     1
 62
     5
 63
     7
421
 16777215
176
     1
 74
     1
176
     1
 91
        4
176
     1
 64
     7
176
     1
 65
   257
176
     1
 75
     1
176
     1
175
     1
176
     1
 42
1.0
176
     1
 92
       12
176
     1
 66
     7
176
     1
 43
1.0
176
     1
 76
     1
176
     1
 77
     6
176
     1
 78
     2
176
     1
 67
     7
176
     1
 79
     5
176
     1
170
     0
176
     1
171
     0
176
     1
290
     0
176
     1
 93
        1
176
     1
 44
0.0
176
     1
173
     0
176
     1
  0
ENDSEC
  0
EOF
