  0
SECTION
  2
HEADER
  9
$ACADVER
  1
AC1024
  9
$ACADMAINTVER
 70
     6
  9
$DWGCODEPAGE
  3
UNDEFINED
  9
$INSBASE
 10
0.0
 20
0.0
 30
0.0
  9
$EXTMIN
 10
1.000000000000000E+20
 20
1.000000000000000E+20
 30
1.000000000000000E+20
  9
$EXTMAX
 10
-1.000000000000000E+20
 20
-1.000000000000000E+20
 30
-1.000000000000000E+20
  9
$LIMMIN
 10
0.0
 20
0.0
  9
$LIMMAX
 10
12.0
 20
9.0
  9
$ORTHOMODE
 70
     0
  9
$REGENMODE
 70
     1
  9
$FILLMODE
 70
     1
  9
$QTEXTMODE
 70
     0
  9
$MIRRTEXT
 70
     1
  9
$LTSCALE
 40
1.0
  9
$ATTMODE
 70
     1
  9
$TEXTSIZE
 40
0.2
  9
$TRACEWID
 40
0.05
  9
$TEXTSTYLE
  7
Standard
  9
$CLAYER
  8
0
  9
$CELTYPE
  6
ByLayer
  9
$CECOLOR
 62
   256
  9
$CELTSCALE
 40
1.0
  9
$DISPSILH
 70
     0
  9
$DIMSCALE
 40
1.0
  9
$DIMASZ
 40
0.18
  9
$DIMEXO
 40
0.0625
  9
$DIMDLI
 40
0.38
  9
$DIMRND
 40
0.0
  9
$DIMDLE
 40
0.0
  9
$DIMEXE
 40
0.18
  9
$DIMTP
 40
0.0
  9
$DIMTM
 40
0.0
  9
$DIMTXT
 40
0.18
  9
$DIMCEN
 40
0.09
  9
$DIMTSZ
 40
0.0
  9
$DIMTOL
 70
     0
  9
$DIMLIM
 70
     0
  9
$DIMTIH
 70
     1
  9
$DIMTOH
 70
     1
  9
$DIMSE1
 70
     0
  9
$DIMSE2
 70
     0
  9
$DIMTAD
 70
     0
  9
$DIMZIN
 70
     0
  9
$DIMBLK
  1

  9
$DIMASO
 70
     1
  9
$DIMSHO
 70
     1
  9
$DIMPOST
  1

  9
$DIMAPOST
  1

  9
$DIMALT
 70
     0
  9
$DIMALTD
 70
     2
  9
$DIMALTF
 40
25.4
  9
$DIMLFAC
 40
1.0
  9
$DIMTOFL
 70
     0
  9
$DIMTVP
 40
0.0
  9
$DIMTIX
 70
     0
  9
$DIMSOXD
 70
     0
  9
$DIMSAH
 70
     0
  9
$DIMBLK1
  1

  9
$DIMBLK2
  1

  9
$DIMSTYLE
  2
Standard
  9
$DIMCLRD
 70
     0
  9
$DIMCLRE
 70
     0
  9
$DIMCLRT
 70
     0
  9
$DIMTFAC
 40
1.0
  9
$DIMGAP
 40
0.09
  9
$DIMJUST
 70
     0
  9
$DIMSD1
 70
     0
  9
$DIMSD2
 70
     0
  9
$DIMTOLJ
 70
     1
  9
$DIMTZIN
 70
     0
  9
$DIMALTZ
 70
     0
  9
$DIMALTTZ
 70
     0
  9
$DIMUPT
 70
     0
  9
$DIMDEC
 70
     4
  9
$DIMTDEC
 70
     4
  9
$DIMALTU
 70
     2
  9
$DIMALTTD
 70
     2
  9
$DIMTXSTY
  7
Standard
  9
$DIMAUNIT
 70
     0
  9
$DIMADEC
 70
     0
  9
$DIMALTRND
 40
0.0
  9
$DIMAZIN
 70
     0
  9
$DIMDSEP
 70
    46
  9
$DIMATFIT
 70
     3
  9
$DIMFRAC
 70
     0
  9
$DIMLDRBLK
  1

  9
$DIMLUNIT
 70
     2
  9
$DIMLWD
 70
    -2
  9
$DIMLWE
 70
    -2
  9
$DIMTMOVE
 70
     0
  9
$DIMFXL
 40
1.0
  9
$DIMFXLON
 70
     0
  9
$DIMJOGANG
 40
0.7853981633974483
  9
$DIMTFILL
 70
     0
  9
$DIMTFILLCLR
 70
     0
  9
$DIMARCSYM
 70
     0
  9
$DIMLTYPE
  6

  9
$DIMLTEX1
  6

  9
$DIMLTEX2
  6

  9
$DIMTXTDIRECTION
 70
     0
  9
$LUNITS
 70
     2
  9
$LUPREC
 70
     4
  9
$SKETCHINC
 40
0.1
  9
$FILLETRAD
 40
0.5
  9
$AUNITS
 70
     0
  9
$AUPREC
 70
     0
  9
$MENU
  1
.
  9
$ELEVATION
 40
0.0
  9
$PELEVATION
 40
0.0
  9
$THICKNESS
 40
0.0
  9
$LIMCHECK
 70
     0
  9
$CHAMFERA
 40
0.5
  9
$CHAMFERB
 40
0.5
  9
$CHAMFERC
 40
1.0
  9
$CHAMFERD
 40
0.0
  9
$SKPOLY
 70
     0
  9
$TDCREATE
 40
2458241.655925914
  9
$TDUCREATE
 40
2458241.614259259
  9
$TDUPDATE
 40
2458241.655925914
  9
$TDUUPDATE
 40
2458241.614259259
  9
$TDINDWG
 40
0.0000000116
  9
$TDUSRTIMER
 40
0.0000000116
  9
$USRTIMER
 70
     1
  9
$ANGBASE
 50
0.0
  9
$ANGDIR
 70
     0
  9
$PDMODE
 70
     0
  9
$PDSIZE
 40
0.0
  9
$PLINEWID
 40
0.0
  9
$SPLFRAME
 70
     0
  9
$SPLINETYPE
 70
     6
  9
$SPLINESEGS
 70
     8
  9
$HANDSEED
  5
6B
  9
$SURFTAB1
 70
     6
  9
$SURFTAB2
 70
     6
  9
$SURFTYPE
 70
     6
  9
$SURFU
 70
     6
  9
$SURFV
 70
     6
  9
$UCSBASE
  2

  9
$UCSNAME
  2

  9
$UCSORG
 10
0.0
 20
0.0
 30
0.0
  9
$UCSXDIR
 10
1.0
 20
0.0
 30
0.0
  9
$UCSYDIR
 10
0.0
 20
1.0
 30
0.0
  9
$UCSORTHOREF
  2

  9
$UCSORTHOVIEW
 70
     0
  9
$UCSORGTOP
 10
0.0
 20
0.0
 30
0.0
  9
$UCSORGBOTTOM
 10
0.0
 20
0.0
 30
0.0
  9
$UCSORGLEFT
 10
0.0
 20
0.0
 30
0.0
  9
$UCSORGRIGHT
 10
0.0
 20
0.0
 30
0.0
  9
$UCSORGFRONT
 10
0.0
 20
0.0
 30
0.0
  9
$UCSORGBACK
 10
0.0
 20
0.0
 30
0.0
  9
$PUCSBASE
  2

  9
$PUCSNAME
  2

  9
$PUCSORG
 10
0.0
 20
0.0
 30
0.0
  9
$PUCSXDIR
 10
1.0
 20
0.0
 30
0.0
  9
$PUCSYDIR
 10
0.0
 20
1.0
 30
0.0
  9
$PUCSORTHOREF
  2

  9
$PUCSORTHOVIEW
 70
     0
  9
$PUCSORGTOP
 10
0.0
 20
0.0
 30
0.0
  9
$PUCSORGBOTTOM
 10
0.0
 20
0.0
 30
0.0
  9
$PUCSORGLEFT
 10
0.0
 20
0.0
 30
0.0
  9
$PUCSORGRIGHT
 10
0.0
 20
0.0
 30
0.0
  9
$PUCSORGFRONT
 10
0.0
 20
0.0
 30
0.0
  9
$PUCSORGBACK
 10
0.0
 20
0.0
 30
0.0
  9
$USERI1
 70
     0
  9
$USERI2
 70
     0
  9
$USERI3
 70
     0
  9
$USERI4
 70
     0
  9
$USERI5
 70
     0
  9
$USERR1
 40
0.0
  9
$USERR2
 40
0.0
  9
$USERR3
 40
0.0
  9
$USERR4
 40
0.0
  9
$USERR5
 40
0.0
  9
$WORLDVIEW
 70
     1
  9
$SHADEDGE
 70
     3
  9
$SHADEDIF
 70
    70
  9
$TILEMODE
 70
     1
  9
$MAXACTVP
 70
    64
  9
$PINSBASE
 10
0.0
 20
0.0
 30
0.0
  9
$PLIMCHECK
 70
     0
  9
$PEXTMIN
 10
1.000000000000000E+20
 20
1.000000000000000E+20
 30
1.000000000000000E+20
  9
$PEXTMAX
 10
-1.000000000000000E+20
 20
-1.000000000000000E+20
 30
-1.000000000000000E+20
  9
$PLIMMIN
 10
0.0
 20
0.0
  9
$PLIMMAX
 10
12.0
 20
9.0
  9
$UNITMODE
 70
     0
  9
$VISRETAIN
 70
     1
  9
$PLINEGEN
 70
     0
  9
$PSLTSCALE
 70
     1
  9
$TREEDEPTH
 70
  3020
  9
$CMLSTYLE
  2
Standard
  9
$CMLJUST
 70
     0
  9
$CMLSCALE
 40
1.0
  9
$PROXYGRAPHICS
 70
     1
  9
$MEASUREMENT
 70
     0
  9
$CELWEIGHT
370
    -1
  9
$ENDCAPS
280
     0
  9
$JOINSTYLE
280
     0
  9
$LWDISPLAY
290
     1
  9
$INSUNITS
 70
     1
  9
$HYPERLINKBASE
  1

  9
$STYLESHEET
  1

  9
$XEDIT
290
     1
  9
$CEPSNTYPE
380
     0
  9
$PSTYLEMODE
290
     1
  9
$FINGERPRINTGUID
  2
{A3355F19-C195-054B-105B-18E77A30321A}
  9
$VERSIONGUID
  2
{FAEB1C32-E019-11D5-929B-00C0DF256EC4}
  9
$EXTNAMES
290
     1
  9
$PSVPSCALE
 40
0.0
  9
$OLESTARTUP
290
     0
  9
$SORTENTS
280
   127
  9
$INDEXCTL
280
     0
  9
$HIDETEXT
280
     1
  9
$XCLIPFRAME
280
     2
  9
$HALOGAP
280
     0
  9
$OBSCOLOR
 70
   257
  9
$OBSLTYPE
280
     0
  9
$INTERSECTIONDISPLAY
280
     0
  9
$INTERSECTIONCOLOR
 70
   257
  9
$DIMASSOC
280
     2
  9
$PROJECTNAME
  1

  9
$CAMERADISPLAY
290
     0
  9
$LENSLENGTH
 40
50.0
  9
$CAMERAHEIGHT
 40
0.0
  9
$STEPSPERSEC
 40
2.0
  9
$STEPSIZE
 40
6.0
  9
$3DDWFPREC
 40
2.0
  9
$PSOLWIDTH
 40
0.25
  9
$PSOLHEIGHT
 40
4.0
  9
$LOFTANG1
 40
1.570796326794897
  9
$LOFTANG2
 40
1.570796326794897
  9
$LOFTMAG1
 40
0.0
  9
$LOFTMAG2
 40
0.0
  9
$LOFTPARAM
 70
     7
  9
$LOFTNORMALS
280
     1
  9
$LATITUDE
 40
37.795
  9
$LONGITUDE
 40
-122.394
  9
$NORTHDIRECTION
 40
0.0
  9
$TIMEZONE
 70
 -8000
  9
$LIGHTGLYPHDISPLAY
280
     1
  9
$TILEMODELIGHTSYNCH
280
     1
  9
$CMATERIAL
347
3C
  9
$SOLIDHIST
280
     1
  9
$SHOWHIST
280
     1
  9
$DWFFRAME
280
     2
  9
$DGNFRAME
280
     2
  9
$REALWORLDSCALE
290
     1
  9
$INTERFERECOLOR
 62
   256
  9
$CSHADOW
280
     0
  9
$SHADOWPLANELOCATION
 40
0.0
  0
ENDSEC
  0
SECTION
  2
CLASSES
  0
CLASS
  1
ACDBDICTIONARYWDFLT
  2
AcDbDictionaryWithDefault
  3
ObjectDBX Classes
 90
        0
 91
        4
280
     0
281
     0
  0
CLASS
  1
VISUALSTYLE
  2
AcDbVisualStyle
  3
ObjectDBX Classes
 90
     4095
 91
        4
280
     0
281
     0
  0
CLASS
  1
MATERIAL
  2
AcDbMaterial
  3
ObjectDBX Classes
 90
     1153
 91
        4
280
     0
281
     0
  0
CLASS
  1
SUN
  2
AcDbSun
  3
SCENEOE
 90
     1024
 91
        4
280
     0
281
     0
  0
ENDSEC
  0
SECTION
  2
TABLES
  0
TABLE
  2
VPORT
  5
8
330
0
100
AcDbSymbolTable
 70
     1
  0
VPORT
  5
29
330
8
100
AcDbSymbolTableRecord
100
AcDbViewportTableRecord
  2
*Active
 70
     0
 10
0.0
 20
0.0
 11
1.0
 21
1.0
 12
0.0
 22
0.0
 13
0.0
 23
0.0
 14
0.5
 24
0.5
 15
0.5
 25
0.5
 16
0.0
 26
0.0
 36
1.0
 17
229.2091531801651
 27
-0.0000012631062702
 37
0.0
 40
200.0000207571203
 41
0.2499999968422347
 42
50.0
 43
0.0
 44
0.0
 50
0.0
 51
0.0
 71
     0
 72
   100
 73
     1
 74
     3
 75
     0
 76
     0
 77
     0
 78
     0
281
     0
 65
     1
110
0.0
120
0.0
130
0.0
111
1.0
121
0.0
131
0.0
112
0.0
122
1.0
132
0.0
 79
     0
146
0.0
 60
     3
 61
     5
292
     1
282
     1
141
0.0
142
0.0
 63
   250
361
3F
  0
ENDTAB
  0
TABLE
  2
LTYPE
  5
5
330
0
100
AcDbSymbolTable
 70
     1
  0
LTYPE
  5
14
330
5
100
AcDbSymbolTableRecord
100
AcDbLinetypeTableRecord
  2
ByBlock
 70
     0
  3

 72
    65
 73
     0
 40
0.0
  0
LTYPE
  5
15
330
5
100
AcDbSymbolTableRecord
100
AcDbLinetypeTableRecord
  2
ByLayer
 70
     0
  3

 72
    65
 73
     0
 40
0.0
  0
LTYPE
  5
16
330
5
100
AcDbSymbolTableRecord
100
AcDbLinetypeTableRecord
  2
Continuous
 70
     0
  3
Solid line
 72
    65
 73
     0
 40
0.0
  0
ENDTAB
  0
TABLE
  2
LAYER
  5
2
330
0
100
AcDbSymbolTable
 70
     2
  0
LAYER
  5
10
330
2
100
AcDbSymbolTableRecord
100
AcDbLayerTableRecord
  2
0
 70
     0
 62
     7
  6
Continuous
370
    -3
390
F
347
3E
  0
LAYER
  5
40
330
2
100
AcDbSymbolTableRecord
100
AcDbLayerTableRecord
  2
Ebene 1
 70
     0
 62
     7
  6
Continuous
370
    -3
390
F
347
3E
  0
ENDTAB
  0
TABLE
  2
STYLE
  5
3
330
0
100
AcDbSymbolTable
 70
     1
  0
STYLE
  5
11
330
3
100
AcDbSymbolTableRecord
100
AcDbTextStyleTableRecord
  2
Standard
 70
     0
 40
0.0
 41
1.0
 50
0.0
 71
     0
 42
0.2
  3
txt
  4

  0
ENDTAB
  0
TABLE
  2
VIEW
  5
6
330
0
100
AcDbSymbolTable
 70
     0
  0
ENDTAB
  0
TABLE
  2
UCS
  5
7
330
0
100
AcDbSymbolTable
 70
     0
  0
ENDTAB
  0
TABLE
  2
APPID
  5
9
330
0
100
AcDbSymbolTable
 70
     1
  0
APPID
  5
12
330
9
100
AcDbSymbolTableRecord
100
AcDbRegAppTableRecord
  2
ACAD
 70
     0
  0
ENDTAB
  0
TABLE
  2
DIMSTYLE
  5
A
330
0
100
AcDbSymbolTable
 70
     1
100
AcDbDimStyleTable
  0
DIMSTYLE
105
27
330
A
100
AcDbSymbolTableRecord
100
AcDbDimStyleTableRecord
  2
Standard
 70
     0
178
     0
340
11
  0
ENDTAB
  0
TABLE
  2
BLOCK_RECORD
  5
1
330
0
100
AcDbSymbolTable
 70
     4
  0
BLOCK_RECORD
  5
1F
330
1
100
AcDbSymbolTableRecord
100
AcDbBlockTableRecord
  2
*Model_Space
340
22
 70
     0
280
     1
281
     0
  0
BLOCK_RECORD
  5
1B
330
1
100
AcDbSymbolTableRecord
100
AcDbBlockTableRecord
  2
*Paper_Space
340
1E
 70
     0
280
     1
281
     0
  0
BLOCK_RECORD
  5
23
330
1
100
AcDbSymbolTableRecord
100
AcDbBlockTableRecord
  2
*Paper_Space0
340
26
 70
     0
280
     1
281
     0
  0
BLOCK_RECORD
  5
45
330
1
100
AcDbSymbolTableRecord
100
AcDbBlockTableRecord
  2
block 2
340
0
102
{BLKREFS
331
46
102
}
 70
     0
280
     1
281
     0
  0
BLOCK_RECORD
  5
51
330
1
100
AcDbSymbolTableRecord
100
AcDbBlockTableRecord
  2
block 3
340
0
102
{BLKREFS
331
52
102
}
 70
     0
280
     1
281
     0
  0
BLOCK_RECORD
  5
5D
330
1
100
AcDbSymbolTableRecord
100
AcDbBlockTableRecord
  2
block 4
340
0
102
{BLKREFS
331
5E
102
}
 70
     0
280
     1
281
     0
  0
ENDTAB
  0
ENDSEC
  0
SECTION
  2
BLOCKS
  0
BLOCK
  5
20
330
1F
100
AcDbEntity
  8
0
100
AcDbBlockBegin
  2
*Model_Space
 70
     0
 10
0.0
 20
0.0
 30
0.0
  3
*Model_Space
  1

  0
ENDBLK
  5
21
330
1F
100
AcDbEntity
  8
0
100
AcDbBlockEnd
  0
BLOCK
  5
1C
330
1B
100
AcDbEntity
 67
     1
  8
0
100
AcDbBlockBegin
  2
*Paper_Space
 70
     0
 10
0.0
 20
0.0
 30
0.0
  3
*Paper_Space
  1

  0
ENDBLK
  5
1D
330
1B
100
AcDbEntity
 67
     1
  8
0
100
AcDbBlockEnd
  0
BLOCK
  5
24
330
23
100
AcDbEntity
  8
0
100
AcDbBlockBegin
  2
*Paper_Space0
 70
     0
 10
0.0
 20
0.0
 30
0.0
  3
*Paper_Space0
  1

  0
ENDBLK
  5
25
330
23
100
AcDbEntity
  8
0
100
AcDbBlockEnd
  0
BLOCK
  5
47
330
45
100
AcDbEntity
  8
0
100
AcDbBlockBegin
  2
block 2
 70
     0
 10
0.0
 20
0.0
 30
0.0
  3
block 2
  1

  0
SPLINE
  5
49
330
45
100
AcDbEntity
  8
Ebene 1
 62
   179
420
  1842203
370
    35
100
AcDbSpline
210
0.0
220
0.0
230
1.0
 70
    11
 71
     3
 72
    17
 73
    13
 74
     0
 42
0.0000000001
 43
0.0000000001
 12
1.0
 22
0.0
 32
0.0
 13
1.0
 23
0.0
 33
0.0
 40
0.0
 40
0.0
 40
0.0
 40
0.0
 40
1.0
 40
1.0
 40
1.0
 40
2.0
 40
2.0
 40
2.0
 40
3.0
 40
3.0
 40
3.0
 40
4.0
 40
4.0
 40
4.0
 40
4.0
 10
240.7091616367755
 20
10.00001527527765
 30
0.0
 10
240.7091616367755
 20
9.171587219929325
 30
0.0
 10
240.0375785983534
 20
8.50000416454172
 30
0.0
 10
239.2091505639328
 20
8.50000416454172
 30
0.0
 10
238.3807225295122
 20
8.50000416454172
 30
0.0
 10
237.7091747688671
 20
9.171587219929325
 30
0.0
 10
237.7091747688671
 20
10.00001527527765
 30
0.0
 10
237.7091747688671
 20
10.8284433306263
 30
0.0
 10
238.3807225295122
 20
11.49999110823606
 30
0.0
 10
239.2091505639328
 20
11.49999110823606
 30
0.0
 10
240.0375785983534
 20
11.49999110823606
 30
0.0
 10
240.7091616367755
 20
10.8284433306263
 30
0.0
 10
240.7091616367755
 20
10.00001527527765
 30
0.0
  0
SPLINE
  5
4A
330
45
100
AcDbEntity
  8
Ebene 1
 62
   179
420
  1842203
370
    35
100
AcDbSpline
210
0.0
220
0.0
230
1.0
 70
    11
 71
     3
 72
    17
 73
    13
 74
     0
 42
0.0000000001
 43
0.0000000001
 12
1.0
 22
0.0
 32
0.0
 13
1.0
 23
0.0
 33
0.0
 40
0.0
 40
0.0
 40
0.0
 40
0.0
 40
1.0
 40
1.0
 40
1.0
 40
2.0
 40
2.0
 40
2.0
 40
3.0
 40
3.0
 40
3.0
 40
4.0
 40
4.0
 40
4.0
 40
4.0
 10
220.7091668692401
 20
10.00001527527765
 30
0.0
 10
220.7091668692401
 20
9.171587219929325
 30
0.0
 10
220.037583830818
 20
8.50000416454172
 30
0.0
 10
219.2091557963974
 20
8.50000416454172
 30
0.0
 10
218.3807332787379
 20
8.50000416454172
 30
0.0
 10
217.7091447235548
 20
9.171587219929325
 30
0.0
 10
217.7091447235548
 20
10.00001527527765
 30
0.0
 10
217.7091447235548
 20
10.8284433306263
 30
0.0
 10
218.3807332787379
 20
11.49999110823606
 30
0.0
 10
219.2091557963974
 20
11.49999110823606
 30
0.0
 10
220.037583830818
 20
11.49999110823606
 30
0.0
 10
220.7091668692401
 20
10.8284433306263
 30
0.0
 10
220.7091668692401
 20
10.00001527527765
 30
0.0
  0
SPLINE
  5
4B
330
45
100
AcDbEntity
  8
Ebene 1
 62
   179
420
  1842203
370
    35
100
AcDbSpline
210
0.0
220
0.0
230
1.0
 70
    11
 71
     3
 72
    17
 73
    13
 74
     0
 42
0.0000000001
 43
0.0000000001
 12
1.0
 22
0.0
 32
0.0
 13
1.0
 23
0.0
 33
0.0
 40
0.0
 40
0.0
 40
0.0
 40
0.0
 40
1.0
 40
1.0
 40
1.0
 40
2.0
 40
2.0
 40
2.0
 40
3.0
 40
3.0
 40
3.0
 40
4.0
 40
4.0
 40
4.0
 40
4.0
 10
240.7091616367755
 20
-10.00001527527765
 30
0.0
 10
240.7091616367755
 20
-10.8284433306263
 30
0.0
 10
240.0375785983534
 20
-11.49999110823606
 30
0.0
 10
239.2091505639328
 20
-11.49999110823606
 30
0.0
 10
238.3807225295122
 20
-11.49999110823606
 30
0.0
 10
237.7091747688671
 20
-10.8284433306263
 30
0.0
 10
237.7091747688671
 20
-10.00001527527765
 30
0.0
 10
237.7091747688671
 20
-9.171587219929325
 30
0.0
 10
238.3807225295122
 20
-8.50000416454172
 30
0.0
 10
239.2091505639328
 20
-8.50000416454172
 30
0.0
 10
240.0375785983534
 20
-8.50000416454172
 30
0.0
 10
240.7091616367755
 20
-9.171587219929325
 30
0.0
 10
240.7091616367755
 20
-10.00001527527765
 30
0.0
  0
SPLINE
  5
4C
330
45
100
AcDbEntity
  8
Ebene 1
 62
   179
420
  1842203
370
    35
100
AcDbSpline
210
0.0
220
0.0
230
1.0
 70
    11
 71
     3
 72
    17
 73
    13
 74
     0
 42
0.0000000001
 43
0.0000000001
 12
1.0
 22
0.0
 32
0.0
 13
1.0
 23
0.0
 33
0.0
 40
0.0
 40
0.0
 40
0.0
 40
0.0
 40
1.0
 40
1.0
 40
1.0
 40
2.0
 40
2.0
 40
2.0
 40
3.0
 40
3.0
 40
3.0
 40
4.0
 40
4.0
 40
4.0
 40
4.0
 10
220.7091668692401
 20
-10.00001527527765
 30
0.0
 10
220.7091668692401
 20
-10.8284433306263
 30
0.0
 10
220.037583830818
 20
-11.49999110823606
 30
0.0
 10
219.2091557963974
 20
-11.49999110823606
 30
0.0
 10
218.3807332787379
 20
-11.49999110823606
 30
0.0
 10
217.7091447235548
 20
-10.8284433306263
 30
0.0
 10
217.7091447235548
 20
-10.00001527527765
 30
0.0
 10
217.7091447235548
 20
-9.171587219929325
 30
0.0
 10
218.3807332787379
 20
-8.50000416454172
 30
0.0
 10
219.2091557963974
 20
-8.50000416454172
 30
0.0
 10
220.037583830818
 20
-8.50000416454172
 30
0.0
 10
220.7091668692401
 20
-9.171587219929325
 30
0.0
 10
220.7091668692401
 20
-10.00001527527765
 30
0.0
  0
SPLINE
  5
4D
330
45
100
AcDbEntity
  8
Ebene 1
 62
   179
420
  1842203
370
    35
100
AcDbSpline
210
0.0
220
0.0
230
1.0
 70
    11
 71
     3
 72
    17
 73
    13
 74
     0
 42
0.0000000001
 43
0.0000000001
 12
1.0
 22
0.0
 32
0.0
 13
1.0
 23
0.0
 33
0.0
 40
0.0
 40
0.0
 40
0.0
 40
0.0
 40
1.0
 40
1.0
 40
1.0
 40
2.0
 40
2.0
 40
2.0
 40
3.0
 40
3.0
 40
3.0
 40
4.0
 40
4.0
 40
4.0
 40
4.0
 10
244.4119523756427
 20
-1.060661666401398
 30
0.0
 10
243.8261648905874
 20
-1.646445638477248
 30
0.0
 10
242.8764165814842
 20
-1.646445638477248
 30
0.0
 10
242.2906290964289
 20
-1.060661666401398
 30
0.0
 10
241.7048416113736
 20
-0.4748741665478604
 30
0.0
 10
241.7048416113736
 20
0.4748741665478604
 30
0.0
 10
242.2906290964289
 20
1.060661666401398
 30
0.0
 10
242.8764165814842
 20
1.646445638477248
 30
0.0
 10
243.8261648905874
 20
1.646445638477248
 30
0.0
 10
244.4119523756427
 20
1.060661666401398
 30
0.0
 10
244.997739860698
 20
0.4748741665478604
 30
0.0
 10
244.997739860698
 20
-0.4748741665478604
 30
0.0
 10
244.4119523756427
 20
-1.060661666401398
 30
0.0
  0
SPLINE
  5
4E
330
45
100
AcDbEntity
  8
Ebene 1
 62
   179
420
  1842203
370
    35
100
AcDbSpline
210
0.0
220
0.0
230
1.0
 70
    11
 71
     3
 72
    17
 73
    13
 74
     0
 42
0.0000000001
 43
0.0000000001
 12
1.0
 22
0.0
 32
0.0
 13
1.0
 23
0.0
 33
0.0
 40
0.0
 40
0.0
 40
0.0
 40
0.0
 40
1.0
 40
1.0
 40
1.0
 40
2.0
 40
2.0
 40
2.0
 40
3.0
 40
3.0
 40
3.0
 40
4.0
 40
4.0
 40
4.0
 40
4.0
 10
230.2698324586605
 20
13.08145860784069
 30
0.0
 10
229.6840449736052
 20
12.49570638576499
 30
0.0
 10
228.7342966645019
 20
12.49570638576499
 30
0.0
 10
228.1485091794466
 20
13.08145860784069
 30
0.0
 10
227.5627216943913
 20
13.66724610769422
 30
0.0
 10
227.5627216943913
 20
14.61699444079027
 30
0.0
 10
228.1485091794466
 20
15.2027819406438
 30
0.0
 10
228.7342966645019
 20
15.78856944049734
 30
0.0
 10
229.6840449736052
 20
15.78856944049734
 30
0.0
 10
230.2698324586605
 20
15.2027819406438
 30
0.0
 10
230.8556199437158
 20
14.61699444079027
 30
0.0
 10
230.8556199437158
 20
13.66724610769422
 30
0.0
 10
230.2698324586605
 20
13.08145860784069
 30
0.0
  0
SPLINE
  5
4F
330
45
100
AcDbEntity
  8
Ebene 1
 62
   179
420
  1842203
370
    35
100
AcDbSpline
210
0.0
220
0.0
230
1.0
 70
    11
 71
     3
 72
    17
 73
    13
 74
     0
 42
0.0000000001
 43
0.0000000001
 12
1.0
 22
0.0
 32
0.0
 13
1.0
 23
0.0
 33
0.0
 40
0.0
 40
0.0
 40
0.0
 40
0.0
 40
1.0
 40
1.0
 40
1.0
 40
2.0
 40
2.0
 40
2.0
 40
3.0
 40
3.0
 40
3.0
 40
4.0
 40
4.0
 40
4.0
 40
4.0
 10
230.2698324586605
 20
-15.2027819406438
 30
0.0
 10
229.6840449736052
 20
-15.78856944049734
 30
0.0
 10
228.7342966645019
 20
-15.78856944049734
 30
0.0
 10
228.1485091794466
 20
-15.2027819406438
 30
0.0
 10
227.5627216943913
 20
-14.61699444079027
 30
0.0
 10
227.5627216943913
 20
-13.66724610769422
 30
0.0
 10
228.1485091794466
 20
-13.08145860784069
 30
0.0
 10
228.7342966645019
 20
-12.49570638576499
 30
0.0
 10
229.6840449736052
 20
-12.49570638576499
 30
0.0
 10
230.2698324586605
 20
-13.08145860784069
 30
0.0
 10
230.8556199437158
 20
-13.66724610769422
 30
0.0
 10
230.8556199437158
 20
-14.61699444079027
 30
0.0
 10
230.2698324586605
 20
-15.2027819406438
 30
0.0
  0
SPLINE
  5
50
330
45
100
AcDbEntity
  8
Ebene 1
 62
   179
420
  1842203
370
    35
100
AcDbSpline
210
0.0
220
0.0
230
1.0
 70
    11
 71
     3
 72
    17
 73
    13
 74
     0
 42
0.0000000001
 43
0.0000000001
 12
1.0
 22
0.0
 32
0.0
 13
1.0
 23
0.0
 33
0.0
 40
0.0
 40
0.0
 40
0.0
 40
0.0
 40
1.0
 40
1.0
 40
1.0
 40
2.0
 40
2.0
 40
2.0
 40
3.0
 40
3.0
 40
3.0
 40
4.0
 40
4.0
 40
4.0
 40
4.0
 10
216.1276772639014
 20
-1.060661666401398
 30
0.0
 10
215.541889778846
 20
-1.646445638477248
 30
0.0
 10
214.5921414697428
 20
-1.646445638477248
 30
0.0
 10
214.0063539846875
 20
-1.060661666401398
 30
0.0
 10
213.4205664996322
 20
-0.4748741665478604
 30
0.0
 10
213.4205664996322
 20
0.4748741665478604
 30
0.0
 10
214.0063539846875
 20
1.060661666401398
 30
0.0
 10
214.5921414697428
 20
1.646445638477248
 30
0.0
 10
215.541889778846
 20
1.646445638477248
 30
0.0
 10
216.1276772639014
 20
1.060661666401398
 30
0.0
 10
216.7134647489567
 20
0.4748741665478604
 30
0.0
 10
216.7134647489567
 20
-0.4748741665478604
 30
0.0
 10
216.1276772639014
 20
-1.060661666401398
 30
0.0
  0
ENDBLK
  5
48
330
45
100
AcDbEntity
  8
0
100
AcDbBlockEnd
  0
BLOCK
  5
53
330
51
100
AcDbEntity
  8
0
100
AcDbBlockBegin
  2
block 3
 70
     0
 10
0.0
 20
0.0
 30
0.0
  3
block 3
  1

  0
SPLINE
  5
55
330
51
100
AcDbEntity
  8
Ebene 1
 62
   179
420
  1842203
370
    35
100
AcDbSpline
210
0.0
220
0.0
230
1.0
 70
    11
 71
     3
 72
    17
 73
    13
 74
     0
 42
0.0000000001
 43
0.0000000001
 12
1.0
 22
0.0
 32
0.0
 13
1.0
 23
0.0
 33
0.0
 40
0.0
 40
0.0
 40
0.0
 40
0.0
 40
1.0
 40
1.0
 40
1.0
 40
2.0
 40
2.0
 40
2.0
 40
3.0
 40
3.0
 40
3.0
 40
4.0
 40
4.0
 40
4.0
 40
4.0
 10
240.7091616367755
 20
50.00000455772695
 30
0.0
 10
240.7091616367755
 20
49.17157776548489
 30
0.0
 10
240.0375785983534
 20
48.49999348488431
 30
0.0
 10
239.2091505639328
 20
48.49999348488431
 30
0.0
 10
238.3807225295122
 20
48.49999348488431
 30
0.0
 10
237.7091747688671
 20
49.17157776548489
 30
0.0
 10
237.7091747688671
 20
50.00000455772695
 30
0.0
 10
237.7091747688671
 20
50.82843259214754
 30
0.0
 10
238.3807225295122
 20
51.50001563056959
 30
0.0
 10
239.2091505639328
 20
51.50001563056959
 30
0.0
 10
240.0375785983534
 20
51.50001563056959
 30
0.0
 10
240.7091616367755
 20
50.82843259214754
 30
0.0
 10
240.7091616367755
 20
50.00000455772695
 30
0.0
  0
SPLINE
  5
56
330
51
100
AcDbEntity
  8
Ebene 1
 62
   179
420
  1842203
370
    35
100
AcDbSpline
210
0.0
220
0.0
230
1.0
 70
    11
 71
     3
 72
    17
 73
    13
 74
     0
 42
0.0000000001
 43
0.0000000001
 12
1.0
 22
0.0
 32
0.0
 13
1.0
 23
0.0
 33
0.0
 40
0.0
 40
0.0
 40
0.0
 40
0.0
 40
1.0
 40
1.0
 40
1.0
 40
2.0
 40
2.0
 40
2.0
 40
3.0
 40
3.0
 40
3.0
 40
4.0
 40
4.0
 40
4.0
 40
4.0
 10
220.7091668692401
 20
50.00000455772695
 30
0.0
 10
220.7091668692401
 20
49.17157776548489
 30
0.0
 10
220.037583830818
 20
48.49999348488431
 30
0.0
 10
219.2091557963974
 20
48.49999348488431
 30
0.0
 10
218.3807332787379
 20
48.49999348488431
 30
0.0
 10
217.7091447235548
 20
49.17157776548489
 30
0.0
 10
217.7091447235548
 20
50.00000455772695
 30
0.0
 10
217.7091447235548
 20
50.82843259214754
 30
0.0
 10
218.3807332787379
 20
51.50001563056959
 30
0.0
 10
219.2091557963974
 20
51.50001563056959
 30
0.0
 10
220.037583830818
 20
51.50001563056959
 30
0.0
 10
220.7091668692401
 20
50.82843259214754
 30
0.0
 10
220.7091668692401
 20
50.00000455772695
 30
0.0
  0
SPLINE
  5
57
330
51
100
AcDbEntity
  8
Ebene 1
 62
   179
420
  1842203
370
    35
100
AcDbSpline
210
0.0
220
0.0
230
1.0
 70
    11
 71
     3
 72
    17
 73
    13
 74
     0
 42
0.0000000001
 43
0.0000000001
 12
1.0
 22
0.0
 32
0.0
 13
1.0
 23
0.0
 33
0.0
 40
0.0
 40
0.0
 40
0.0
 40
0.0
 40
1.0
 40
1.0
 40
1.0
 40
2.0
 40
2.0
 40
2.0
 40
3.0
 40
3.0
 40
3.0
 40
4.0
 40
4.0
 40
4.0
 40
4.0
 10
240.7091616367755
 20
30.00001054805544
 30
0.0
 10
240.7091616367755
 20
29.17158249270711
 30
0.0
 10
240.0375785983534
 20
28.4999994373195
 30
0.0
 10
239.2091505639328
 20
28.4999994373195
 30
0.0
 10
238.3807225295122
 20
28.4999994373195
 30
0.0
 10
237.7091747688671
 20
29.17158249270711
 30
0.0
 10
237.7091747688671
 20
30.00001054805544
 30
0.0
 10
237.7091747688671
 20
30.82843860340408
 30
0.0
 10
238.3807225295122
 20
31.49998638101384
 30
0.0
 10
239.2091505639328
 20
31.49998638101384
 30
0.0
 10
240.0375785983534
 20
31.49998638101384
 30
0.0
 10
240.7091616367755
 20
30.82843860340408
 30
0.0
 10
240.7091616367755
 20
30.00001054805544
 30
0.0
  0
SPLINE
  5
58
330
51
100
AcDbEntity
  8
Ebene 1
 62
   179
420
  1842203
370
    35
100
AcDbSpline
210
0.0
220
0.0
230
1.0
 70
    11
 71
     3
 72
    17
 73
    13
 74
     0
 42
0.0000000001
 43
0.0000000001
 12
1.0
 22
0.0
 32
0.0
 13
1.0
 23
0.0
 33
0.0
 40
0.0
 40
0.0
 40
0.0
 40
0.0
 40
1.0
 40
1.0
 40
1.0
 40
2.0
 40
2.0
 40
2.0
 40
3.0
 40
3.0
 40
3.0
 40
4.0
 40
4.0
 40
4.0
 40
4.0
 10
220.7091668692401
 20
30.00001054805544
 30
0.0
 10
220.7091668692401
 20
29.17158249270711
 30
0.0
 10
220.037583830818
 20
28.4999994373195
 30
0.0
 10
219.2091557963974
 20
28.4999994373195
 30
0.0
 10
218.3807332787379
 20
28.4999994373195
 30
0.0
 10
217.7091447235548
 20
29.17158249270711
 30
0.0
 10
217.7091447235548
 20
30.00001054805544
 30
0.0
 10
217.7091447235548
 20
30.82843860340408
 30
0.0
 10
218.3807332787379
 20
31.49998638101384
 30
0.0
 10
219.2091557963974
 20
31.49998638101384
 30
0.0
 10
220.037583830818
 20
31.49998638101384
 30
0.0
 10
220.7091668692401
 20
30.82843860340408
 30
0.0
 10
220.7091668692401
 20
30.00001054805544
 30
0.0
  0
SPLINE
  5
59
330
51
100
AcDbEntity
  8
Ebene 1
 62
   179
420
  1842203
370
    35
100
AcDbSpline
210
0.0
220
0.0
230
1.0
 70
    11
 71
     3
 72
    17
 73
    13
 74
     0
 42
0.0000000001
 43
0.0000000001
 12
1.0
 22
0.0
 32
0.0
 13
1.0
 23
0.0
 33
0.0
 40
0.0
 40
0.0
 40
0.0
 40
0.0
 40
1.0
 40
1.0
 40
1.0
 40
2.0
 40
2.0
 40
2.0
 40
3.0
 40
3.0
 40
3.0
 40
4.0
 40
4.0
 40
4.0
 40
4.0
 10
244.4119523756427
 20
38.93932789546387
 30
0.0
 10
243.8261648905874
 20
38.35354041040856
 30
0.0
 10
242.8764165814842
 20
38.35354041040856
 30
0.0
 10
242.2906290964289
 20
38.93932789546387
 30
0.0
 10
241.7048416113736
 20
39.52511538051919
 30
0.0
 10
241.7048416113736
 20
40.47486368962242
 30
0.0
 10
242.2906290964289
 20
41.06065117467774
 30
0.0
 10
242.8764165814842
 20
41.64643865973306
 30
0.0
 10
243.8261648905874
 20
41.64643865973306
 30
0.0
 10
244.4119523756427
 20
41.06065117467774
 30
0.0
 10
244.997739860698
 20
40.47486368962242
 30
0.0
 10
244.997739860698
 20
39.52511538051919
 30
0.0
 10
244.4119523756427
 20
38.93932789546387
 30
0.0
  0
SPLINE
  5
5A
330
51
100
AcDbEntity
  8
Ebene 1
 62
   179
420
  1842203
370
    35
100
AcDbSpline
210
0.0
220
0.0
230
1.0
 70
    11
 71
     3
 72
    17
 73
    13
 74
     0
 42
0.0000000001
 43
0.0000000001
 12
1.0
 22
0.0
 32
0.0
 13
1.0
 23
0.0
 33
0.0
 40
0.0
 40
0.0
 40
0.0
 40
0.0
 40
1.0
 40
1.0
 40
1.0
 40
2.0
 40
2.0
 40
2.0
 40
3.0
 40
3.0
 40
3.0
 40
4.0
 40
4.0
 40
4.0
 40
4.0
 10
230.2698324586605
 20
53.08148309022299
 30
0.0
 10
229.6840449736052
 20
52.49569560516768
 30
0.0
 10
228.7342966645019
 20
52.49569560516768
 30
0.0
 10
228.1485091794466
 20
53.08148309022299
 30
0.0
 10
227.5627216943913
 20
53.66727057527831
 30
0.0
 10
227.5627216943913
 20
54.61701888438154
 30
0.0
 10
228.1485091794466
 20
55.20280636943686
 30
0.0
 10
228.7342966645019
 20
55.78859385449217
 30
0.0
 10
229.6840449736052
 20
55.78859385449217
 30
0.0
 10
230.2698324586605
 20
55.20280636943686
 30
0.0
 10
230.8556199437158
 20
54.61701888438154
 30
0.0
 10
230.8556199437158
 20
53.66727057527831
 30
0.0
 10
230.2698324586605
 20
53.08148309022299
 30
0.0
  0
SPLINE
  5
5B
330
51
100
AcDbEntity
  8
Ebene 1
 62
   179
420
  1842203
370
    35
100
AcDbSpline
210
0.0
220
0.0
230
1.0
 70
    11
 71
     3
 72
    17
 73
    13
 74
     0
 42
0.0000000001
 43
0.0000000001
 12
1.0
 22
0.0
 32
0.0
 13
1.0
 23
0.0
 33
0.0
 40
0.0
 40
0.0
 40
0.0
 40
0.0
 40
1.0
 40
1.0
 40
1.0
 40
2.0
 40
2.0
 40
2.0
 40
3.0
 40
3.0
 40
3.0
 40
4.0
 40
4.0
 40
4.0
 40
4.0
 10
230.2698324586605
 20
24.79720860491176
 30
0.0
 10
229.6840449736052
 20
24.21142110505822
 30
0.0
 10
228.7342966645019
 20
24.21142110505822
 30
0.0
 10
228.1485091794466
 20
24.79720860491176
 30
0.0
 10
227.5627216943913
 20
25.3829961047653
 30
0.0
 10
227.5627216943913
 20
26.33274443786134
 30
0.0
 10
228.1485091794466
 20
26.91853193771488
 30
0.0
 10
228.7342966645019
 20
27.50431943756842
 30
0.0
 10
229.6840449736052
 20
27.50431943756842
 30
0.0
 10
230.2698324586605
 20
26.91853193771488
 30
0.0
 10
230.8556199437158
 20
26.33274443786134
 30
0.0
 10
230.8556199437158
 20
25.3829961047653
 30
0.0
 10
230.2698324586605
 20
24.79720860491176
 30
0.0
  0
SPLINE
  5
5C
330
51
100
AcDbEntity
  8
Ebene 1
 62
   179
420
  1842203
370
    35
100
AcDbSpline
210
0.0
220
0.0
230
1.0
 70
    11
 71
     3
 72
    17
 73
    13
 74
     0
 42
0.0000000001
 43
0.0000000001
 12
1.0
 22
0.0
 32
0.0
 13
1.0
 23
0.0
 33
0.0
 40
0.0
 40
0.0
 40
0.0
 40
0.0
 40
1.0
 40
1.0
 40
1.0
 40
2.0
 40
2.0
 40
2.0
 40
3.0
 40
3.0
 40
3.0
 40
4.0
 40
4.0
 40
4.0
 40
4.0
 10
216.1276772639014
 20
38.93932789546387
 30
0.0
 10
215.541889778846
 20
38.35354041040856
 30
0.0
 10
214.5921414697428
 20
38.35354041040856
 30
0.0
 10
214.0063539846875
 20
38.93932789546387
 30
0.0
 10
213.4205664996322
 20
39.52511538051919
 30
0.0
 10
213.4205664996322
 20
40.47486368962242
 30
0.0
 10
214.0063539846875
 20
41.06065117467774
 30
0.0
 10
214.5921414697428
 20
41.64643865973306
 30
0.0
 10
215.541889778846
 20
41.64643865973306
 30
0.0
 10
216.1276772639014
 20
41.06065117467774
 30
0.0
 10
216.7134647489567
 20
40.47486368962242
 30
0.0
 10
216.7134647489567
 20
39.52511538051919
 30
0.0
 10
216.1276772639014
 20
38.93932789546387
 30
0.0
  0
ENDBLK
  5
54
330
51
100
AcDbEntity
  8
0
100
AcDbBlockEnd
  0
BLOCK
  5
5F
330
5D
100
AcDbEntity
  8
0
100
AcDbBlockBegin
  2
block 4
 70
     0
 10
0.0
 20
0.0
 30
0.0
  3
block 4
  1

  0
SPLINE
  5
61
330
5D
100
AcDbEntity
  8
Ebene 1
 62
   179
420
  1842203
370
    35
100
AcDbSpline
210
0.0
220
0.0
230
1.0
 70
    11
 71
     3
 72
    17
 73
    13
 74
     0
 42
0.0000000001
 43
0.0000000001
 12
1.0
 22
0.0
 32
0.0
 13
1.0
 23
0.0
 33
0.0
 40
0.0
 40
0.0
 40
0.0
 40
0.0
 40
1.0
 40
1.0
 40
1.0
 40
2.0
 40
2.0
 40
2.0
 40
3.0
 40
3.0
 40
3.0
 40
4.0
 40
4.0
 40
4.0
 40
4.0
 10
240.7091616367755
 20
-30.00001054805544
 30
0.0
 10
240.7091616367755
 20
-30.82843860340408
 30
0.0
 10
240.0375785983534
 20
-31.49998638101384
 30
0.0
 10
239.2091505639328
 20
-31.49998638101384
 30
0.0
 10
238.3807225295122
 20
-31.49998638101384
 30
0.0
 10
237.7091747688671
 20
-30.82843860340408
 30
0.0
 10
237.7091747688671
 20
-30.00001054805544
 30
0.0
 10
237.7091747688671
 20
-29.17158249270711
 30
0.0
 10
238.3807225295122
 20
-28.4999994373195
 30
0.0
 10
239.2091505639328
 20
-28.4999994373195
 30
0.0
 10
240.0375785983534
 20
-28.4999994373195
 30
0.0
 10
240.7091616367755
 20
-29.17158249270711
 30
0.0
 10
240.7091616367755
 20
-30.00001054805544
 30
0.0
  0
SPLINE
  5
62
330
5D
100
AcDbEntity
  8
Ebene 1
 62
   179
420
  1842203
370
    35
100
AcDbSpline
210
0.0
220
0.0
230
1.0
 70
    11
 71
     3
 72
    17
 73
    13
 74
     0
 42
0.0000000001
 43
0.0000000001
 12
1.0
 22
0.0
 32
0.0
 13
1.0
 23
0.0
 33
0.0
 40
0.0
 40
0.0
 40
0.0
 40
0.0
 40
1.0
 40
1.0
 40
1.0
 40
2.0
 40
2.0
 40
2.0
 40
3.0
 40
3.0
 40
3.0
 40
4.0
 40
4.0
 40
4.0
 40
4.0
 10
220.7091668692401
 20
-30.00001054805544
 30
0.0
 10
220.7091668692401
 20
-30.82843860340408
 30
0.0
 10
220.037583830818
 20
-31.49998638101384
 30
0.0
 10
219.2091557963974
 20
-31.49998638101384
 30
0.0
 10
218.3807332787379
 20
-31.49998638101384
 30
0.0
 10
217.7091447235548
 20
-30.82843860340408
 30
0.0
 10
217.7091447235548
 20
-30.00001054805544
 30
0.0
 10
217.7091447235548
 20
-29.17158249270711
 30
0.0
 10
218.3807332787379
 20
-28.4999994373195
 30
0.0
 10
219.2091557963974
 20
-28.4999994373195
 30
0.0
 10
220.037583830818
 20
-28.4999994373195
 30
0.0
 10
220.7091668692401
 20
-29.17158249270711
 30
0.0
 10
220.7091668692401
 20
-30.00001054805544
 30
0.0
  0
SPLINE
  5
63
330
5D
100
AcDbEntity
  8
Ebene 1
 62
   179
420
  1842203
370
    35
100
AcDbSpline
210
0.0
220
0.0
230
1.0
 70
    11
 71
     3
 72
    17
 73
    13
 74
     0
 42
0.0000000001
 43
0.0000000001
 12
1.0
 22
0.0
 32
0.0
 13
1.0
 23
0.0
 33
0.0
 40
0.0
 40
0.0
 40
0.0
 40
0.0
 40
1.0
 40
1.0
 40
1.0
 40
2.0
 40
2.0
 40
2.0
 40
3.0
 40
3.0
 40
3.0
 40
4.0
 40
4.0
 40
4.0
 40
4.0
 10
240.7091616367755
 20
-50.00000582083322
 30
0.0
 10
240.7091616367755
 20
-50.82843387618154
 30
0.0
 10
240.0375785983534
 20
-51.50001693156947
 30
0.0
 10
239.2091505639328
 20
-51.50001693156947
 30
0.0
 10
238.3807225295122
 20
-51.50001693156947
 30
0.0
 10
237.7091747688671
 20
-50.82843387618154
 30
0.0
 10
237.7091747688671
 20
-50.00000582083322
 30
0.0
 10
237.7091747688671
 20
-49.17157776548489
 30
0.0
 10
238.3807225295122
 20
-48.49999471009728
 30
0.0
 10
239.2091505639328
 20
-48.49999471009728
 30
0.0
 10
240.0375785983534
 20
-48.49999471009728
 30
0.0
 10
240.7091616367755
 20
-49.17157776548489
 30
0.0
 10
240.7091616367755
 20
-50.00000582083322
 30
0.0
  0
SPLINE
  5
64
330
5D
100
AcDbEntity
  8
Ebene 1
 62
   179
420
  1842203
370
    35
100
AcDbSpline
210
0.0
220
0.0
230
1.0
 70
    11
 71
     3
 72
    17
 73
    13
 74
     0
 42
0.0000000001
 43
0.0000000001
 12
1.0
 22
0.0
 32
0.0
 13
1.0
 23
0.0
 33
0.0
 40
0.0
 40
0.0
 40
0.0
 40
0.0
 40
1.0
 40
1.0
 40
1.0
 40
2.0
 40
2.0
 40
2.0
 40
3.0
 40
3.0
 40
3.0
 40
4.0
 40
4.0
 40
4.0
 40
4.0
 10
220.7091668692401
 20
-50.00000582083322
 30
0.0
 10
220.7091668692401
 20
-50.82843387618154
 30
0.0
 10
220.037583830818
 20
-51.50001693156947
 30
0.0
 10
219.2091557963974
 20
-51.50001693156947
 30
0.0
 10
218.3807332787379
 20
-51.50001693156947
 30
0.0
 10
217.7091447235548
 20
-50.82843387618154
 30
0.0
 10
217.7091447235548
 20
-50.00000582083322
 30
0.0
 10
217.7091447235548
 20
-49.17157776548489
 30
0.0
 10
218.3807332787379
 20
-48.49999471009728
 30
0.0
 10
219.2091557963974
 20
-48.49999471009728
 30
0.0
 10
220.037583830818
 20
-48.49999471009728
 30
0.0
 10
220.7091668692401
 20
-49.17157776548489
 30
0.0
 10
220.7091668692401
 20
-50.00000582083322
 30
0.0
  0
SPLINE
  5
65
330
5D
100
AcDbEntity
  8
Ebene 1
 62
   179
420
  1842203
370
    35
100
AcDbSpline
210
0.0
220
0.0
230
1.0
 70
    11
 71
     3
 72
    17
 73
    13
 74
     0
 42
0.0000000001
 43
0.0000000001
 12
1.0
 22
0.0
 32
0.0
 13
1.0
 23
0.0
 33
0.0
 40
0.0
 40
0.0
 40
0.0
 40
0.0
 40
1.0
 40
1.0
 40
1.0
 40
2.0
 40
2.0
 40
2.0
 40
3.0
 40
3.0
 40
3.0
 40
4.0
 40
4.0
 40
4.0
 40
4.0
 10
244.4119523756427
 20
-41.06065221195696
 30
0.0
 10
243.8261648905874
 20
-41.6464397118105
 30
0.0
 10
242.8764165814842
 20
-41.6464397118105
 30
0.0
 10
242.2906290964289
 20
-41.06065221195696
 30
0.0
 10
241.7048416113736
 20
-40.47486471210343
 30
0.0
 10
241.7048416113736
 20
-39.52511637900771
 30
0.0
 10
242.2906290964289
 20
-38.93932887915417
 30
0.0
 10
242.8764165814842
 20
-38.35354137930063
 30
0.0
 10
243.8261648905874
 20
-38.35354137930063
 30
0.0
 10
244.4119523756427
 20
-38.93932887915417
 30
0.0
 10
244.997739860698
 20
-39.52511637900771
 30
0.0
 10
244.997739860698
 20
-40.47486471210343
 30
0.0
 10
244.4119523756427
 20
-41.06065221195696
 30
0.0
  0
SPLINE
  5
66
330
5D
100
AcDbEntity
  8
Ebene 1
 62
   179
420
  1842203
370
    35
100
AcDbSpline
210
0.0
220
0.0
230
1.0
 70
    11
 71
     3
 72
    17
 73
    13
 74
     0
 42
0.0000000001
 43
0.0000000001
 12
1.0
 22
0.0
 32
0.0
 13
1.0
 23
0.0
 33
0.0
 40
0.0
 40
0.0
 40
0.0
 40
0.0
 40
1.0
 40
1.0
 40
1.0
 40
2.0
 40
2.0
 40
2.0
 40
3.0
 40
3.0
 40
3.0
 40
4.0
 40
4.0
 40
4.0
 40
4.0
 10
230.2698324586605
 20
-26.91853193771488
 30
0.0
 10
229.6840449736052
 20
-27.50431943756842
 30
0.0
 10
228.7342966645019
 20
-27.50431943756842
 30
0.0
 10
228.1485091794466
 20
-26.91853193771488
 30
0.0
 10
227.5627216943913
 20
-26.33274443786134
 30
0.0
 10
227.5627216943913
 20
-25.3829961047653
 30
0.0
 10
228.1485091794466
 20
-24.79720860491176
 30
0.0
 10
228.7342966645019
 20
-24.21142110505822
 30
0.0
 10
229.6840449736052
 20
-24.21142110505822
 30
0.0
 10
230.2698324586605
 20
-24.79720860491176
 30
0.0
 10
230.8556199437158
 20
-25.3829961047653
 30
0.0
 10
230.8556199437158
 20
-26.33274443786134
 30
0.0
 10
230.2698324586605
 20
-26.91853193771488
 30
0.0
  0
SPLINE
  5
67
330
5D
100
AcDbEntity
  8
Ebene 1
 62
   179
420
  1842203
370
    35
100
AcDbSpline
210
0.0
220
0.0
230
1.0
 70
    11
 71
     3
 72
    17
 73
    13
 74
     0
 42
0.0000000001
 43
0.0000000001
 12
1.0
 22
0.0
 32
0.0
 13
1.0
 23
0.0
 33
0.0
 40
0.0
 40
0.0
 40
0.0
 40
0.0
 40
1.0
 40
1.0
 40
1.0
 40
2.0
 40
2.0
 40
2.0
 40
3.0
 40
3.0
 40
3.0
 40
4.0
 40
4.0
 40
4.0
 40
4.0
 10
230.2698324586605
 20
-55.20280776397721
 30
0.0
 10
229.6840449736052
 20
-55.78859526383075
 30
0.0
 10
228.7342966645019
 20
-55.78859526383075
 30
0.0
 10
228.1485091794466
 20
-55.20280776397721
 30
0.0
 10
227.5627216943913
 20
-54.61702026412367
 30
0.0
 10
227.5627216943913
 20
-53.66727193102795
 30
0.0
 10
228.1485091794466
 20
-53.08148443117377
 30
0.0
 10
228.7342966645019
 20
-52.49569693132023
 30
0.0
 10
229.6840449736052
 20
-52.49569693132023
 30
0.0
 10
230.2698324586605
 20
-53.08148443117377
 30
0.0
 10
230.8556199437158
 20
-53.66727193102795
 30
0.0
 10
230.8556199437158
 20
-54.61702026412367
 30
0.0
 10
230.2698324586605
 20
-55.20280776397721
 30
0.0
  0
SPLINE
  5
68
330
5D
100
AcDbEntity
  8
Ebene 1
 62
   179
420
  1842203
370
    35
100
AcDbSpline
210
0.0
220
0.0
230
1.0
 70
    11
 71
     3
 72
    17
 73
    13
 74
     0
 42
0.0000000001
 43
0.0000000001
 12
1.0
 22
0.0
 32
0.0
 13
1.0
 23
0.0
 33
0.0
 40
0.0
 40
0.0
 40
0.0
 40
0.0
 40
1.0
 40
1.0
 40
1.0
 40
2.0
 40
2.0
 40
2.0
 40
3.0
 40
3.0
 40
3.0
 40
4.0
 40
4.0
 40
4.0
 40
4.0
 10
216.1276772639014
 20
-41.06065221195696
 30
0.0
 10
215.541889778846
 20
-41.6464397118105
 30
0.0
 10
214.5921414697428
 20
-41.6464397118105
 30
0.0
 10
214.0063539846875
 20
-41.06065221195696
 30
0.0
 10
213.4205664996322
 20
-40.47486471210343
 30
0.0
 10
213.4205664996322
 20
-39.52511637900771
 30
0.0
 10
214.0063539846875
 20
-38.93932887915417
 30
0.0
 10
214.5921414697428
 20
-38.35354137930063
 30
0.0
 10
215.541889778846
 20
-38.35354137930063
 30
0.0
 10
216.1276772639014
 20
-38.93932887915417
 30
0.0
 10
216.7134647489567
 20
-39.52511637900771
 30
0.0
 10
216.7134647489567
 20
-40.47486471210343
 30
0.0
 10
216.1276772639014
 20
-41.06065221195696
 30
0.0
  0
ENDBLK
  5
60
330
5D
100
AcDbEntity
  8
0
100
AcDbBlockEnd
  0
ENDSEC
  0
SECTION
  2
ENTITIES
  0
SPLINE
  5
41
330
1F
100
AcDbEntity
  8
Ebene 1
 62
   179
420
  1842203
370
    35
100
AcDbSpline
210
0.0
220
0.0
230
1.0
 70
    11
 71
     3
 72
    17
 73
    13
 74
     0
 42
0.0000000001
 43
0.0000000001
 12
1.0
 22
0.0
 32
0.0
 13
1.0
 23
0.0
 33
0.0
 40
0.0
 40
0.0
 40
0.0
 40
0.0
 40
1.0
 40
1.0
 40
1.0
 40
2.0
 40
2.0
 40
2.0
 40
3.0
 40
3.0
 40
3.0
 40
4.0
 40
4.0
 40
4.0
 40
4.0
 10
239.2091505639328
 20
0.0
 30
0.0
 10
239.2091505639328
 20
5.522841943063859
 30
0.0
 10
234.7320126225986
 20
10.00001527527765
 30
0.0
 10
229.2091708190536
 20
10.00001527527765
 30
0.0
 10
223.6863290155085
 20
10.00001527527765
 30
0.0
 10
219.2091557963974
 20
5.522841943063859
 30
0.0
 10
219.2091557963974
 20
0.0
 30
0.0
 10
219.2091557963974
 20
-5.522841943063859
 30
0.0
 10
223.6863290155085
 20
-10.00001527527765
 30
0.0
 10
229.2091708190536
 20
-10.00001527527765
 30
0.0
 10
234.7320126225986
 20
-10.00001527527765
 30
0.0
 10
239.2091505639328
 20
-5.522841943063859
 30
0.0
 10
239.2091505639328
 20
0.0
 30
0.0
  0
SPLINE
  5
42
330
1F
100
AcDbEntity
  8
Ebene 1
 62
   179
420
  1842203
370
    35
100
AcDbSpline
210
0.0
220
0.0
230
1.0
 70
    11
 71
     3
 72
    17
 73
    13
 74
     0
 42
0.0000000001
 43
0.0000000001
 12
1.0
 22
0.0
 32
0.0
 13
1.0
 23
0.0
 33
0.0
 40
0.0
 40
0.0
 40
0.0
 40
0.0
 40
1.0
 40
1.0
 40
1.0
 40
2.0
 40
2.0
 40
2.0
 40
3.0
 40
3.0
 40
3.0
 40
4.0
 40
4.0
 40
4.0
 40
4.0
 10
239.2091505639328
 20
39.9999895350708
 30
0.0
 10
239.2091505639328
 20
45.52283133861582
 30
0.0
 10
234.7320126225986
 20
50.00000455772695
 30
0.0
 10
229.2091708190536
 20
50.00000455772695
 30
0.0
 10
223.6863290155085
 20
50.00000455772695
 30
0.0
 10
219.2091557963974
 20
45.52283133861582
 30
0.0
 10
219.2091557963974
 20
39.9999895350708
 30
0.0
 10
219.2091557963974
 20
34.47714860249171
 30
0.0
 10
223.6863290155085
 20
30.00001054805544
 30
0.0
 10
229.2091708190536
 20
30.00001054805544
 30
0.0
 10
234.7320126225986
 20
30.00001054805544
 30
0.0
 10
239.2091505639328
 20
34.47714860249171
 30
0.0
 10
239.2091505639328
 20
39.9999895350708
 30
0.0
  0
SPLINE
  5
43
330
1F
100
AcDbEntity
  8
Ebene 1
 62
   179
420
  1842203
370
    35
100
AcDbSpline
210
0.0
220
0.0
230
1.0
 70
    11
 71
     3
 72
    17
 73
    13
 74
     0
 42
0.0000000001
 43
0.0000000001
 12
1.0
 22
0.0
 32
0.0
 13
1.0
 23
0.0
 33
0.0
 40
0.0
 40
0.0
 40
0.0
 40
0.0
 40
1.0
 40
1.0
 40
1.0
 40
2.0
 40
2.0
 40
2.0
 40
3.0
 40
3.0
 40
3.0
 40
4.0
 40
4.0
 40
4.0
 40
4.0
 10
239.2091505639328
 20
-39.99999054555557
 30
0.0
 10
239.2091505639328
 20
-34.47714860249171
 30
0.0
 10
234.7320126225986
 20
-30.00001054805544
 30
0.0
 10
229.2091708190536
 20
-30.00001054805544
 30
0.0
 10
223.6863290155085
 20
-30.00001054805544
 30
0.0
 10
219.2091557963974
 20
-34.47714860249171
 30
0.0
 10
219.2091557963974
 20
-39.99999054555557
 30
0.0
 10
219.2091557963974
 20
-45.52283248861942
 30
0.0
 10
223.6863290155085
 20
-50.00000582083322
 30
0.0
 10
229.2091708190536
 20
-50.00000582083322
 30
0.0
 10
234.7320126225986
 20
-50.00000582083322
 30
0.0
 10
239.2091505639328
 20
-45.52283248861942
 30
0.0
 10
239.2091505639328
 20
-39.99999054555557
 30
0.0
  0
SPLINE
  5
44
330
1F
100
AcDbEntity
  8
Ebene 1
 62
   179
420
  1842203
370
    35
100
AcDbSpline
210
0.0
220
0.0
230
1.0
 70
    11
 71
     3
 72
   182
 73
   178
 74
     0
 42
0.0000000001
 43
0.0000000001
 12
1.0
 22
0.0
 32
0.0
 13
1.0
 23
0.0
 33
0.0
 40
0.0
 40
0.0
 40
0.0
 40
0.0
 40
1.0
 40
1.0
 40
1.0
 40
2.0
 40
2.0
 40
2.0
 40
3.0
 40
3.0
 40
3.0
 40
4.0
 40
4.0
 40
4.0
 40
5.0
 40
5.0
 40
5.0
 40
6.0
 40
6.0
 40
6.0
 40
7.0
 40
7.0
 40
7.0
 40
8.0
 40
8.0
 40
8.0
 40
9.0
 40
9.0
 40
9.0
 40
10.0
 40
10.0
 40
10.0
 40
11.0
 40
11.0
 40
11.0
 40
12.0
 40
12.0
 40
12.0
 40
13.0
 40
13.0
 40
13.0
 40
14.0
 40
14.0
 40
14.0
 40
15.0
 40
15.0
 40
15.0
 40
16.0
 40
16.0
 40
16.0
 40
17.0
 40
17.0
 40
17.0
 40
18.0
 40
18.0
 40
18.0
 40
19.0
 40
19.0
 40
19.0
 40
20.0
 40
20.0
 40
20.0
 40
21.0
 40
21.0
 40
21.0
 40
22.0
 40
22.0
 40
22.0
 40
23.0
 40
23.0
 40
23.0
 40
24.0
 40
24.0
 40
24.0
 40
25.0
 40
25.0
 40
25.0
 40
26.0
 40
26.0
 40
26.0
 40
27.0
 40
27.0
 40
27.0
 40
28.0
 40
28.0
 40
28.0
 40
29.0
 40
29.0
 40
29.0
 40
30.0
 40
30.0
 40
30.0
 40
31.0
 40
31.0
 40
31.0
 40
32.0
 40
32.0
 40
32.0
 40
33.0
 40
33.0
 40
33.0
 40
34.0
 40
34.0
 40
34.0
 40
35.0
 40
35.0
 40
35.0
 40
36.0
 40
36.0
 40
36.0
 40
37.0
 40
37.0
 40
37.0
 40
38.0
 40
38.0
 40
38.0
 40
39.0
 40
39.0
 40
39.0
 40
40.0
 40
40.0
 40
40.0
 40
41.0
 40
41.0
 40
41.0
 40
42.0
 40
42.0
 40
42.0
 40
43.0
 40
43.0
 40
43.0
 40
44.0
 40
44.0
 40
44.0
 40
45.0
 40
45.0
 40
45.0
 40
46.0
 40
46.0
 40
46.0
 40
47.0
 40
47.0
 40
47.0
 40
48.0
 40
48.0
 40
48.0
 40
49.0
 40
49.0
 40
49.0
 40
50.0
 40
50.0
 40
50.0
 40
51.0
 40
51.0
 40
51.0
 40
52.0
 40
52.0
 40
52.0
 40
53.0
 40
53.0
 40
53.0
 40
54.0
 40
54.0
 40
54.0
 40
55.0
 40
55.0
 40
55.0
 40
56.0
 40
56.0
 40
56.0
 40
57.0
 40
57.0
 40
57.0
 40
58.0
 40
58.0
 40
58.0
 40
59.0
 40
59.0
 40
59.0
 40
59.0
 10
249.1745580874719
 20
1.151593666378812
 30
0.0
 10
249.1694780876015
 20
1.239445916356831
 30
0.0
 10
249.1605175322745
 20
1.326130471890677
 30
0.0
 10
249.1544144768746
 20
1.413679332979846
 30
0.0
 10
249.133812255178
 20
1.710238444016941
 30
0.0
 10
249.1082358669417
 20
2.005287666165485
 30
0.0
 10
249.0748278122384
 20
2.298121443869958
 30
0.0
 10
249.0635389236375
 20
2.396521749400734
 30
0.0
 10
249.049851146209
 20
2.494082443820964
 30
0.0
 10
249.0371221599632
 20
2.592052360463243
 30
0.0
 10
249.0000804933053
 20
2.879114693724526
 30
0.0
 10
248.9574233707892
 20
3.164261443653219
 30
0.0
 10
248.9083582711059
 20
3.447404415804882
 30
0.0
 10
248.893111983541
 20
3.534727499116258
 30
0.0
 10
248.8775192061611
 20
3.62182833242785
 30
0.0
 10
248.8612208732436
 20
3.708717499072721
 30
0.0
 10
248.8036122636021
 20
4.016304443440303
 30
0.0
 10
248.7388422652546
 20
4.321139721141794
 30
0.0
 10
248.6673694893002
 20
4.623611387733118
 30
0.0
 10
248.6541050451942
 20
4.679385554385718
 30
0.0
 10
248.642040045502
 20
4.735547776593918
 30
0.0
 10
248.6282527156204
 20
4.791145554357637
 30
0.0
 10
247.5012625746056
 20
9.380502219877114
 30
0.0
 10
244.793693199237
 20
13.34759416332964
 30
0.0
 10
241.111328293182
 20
16.07904666264702
 30
0.0
 10
239.9082149905426
 20
17.04075416240655
 30
0.0
 10
239.184038829093
 20
18.48044027315778
 30
0.0
 10
239.184038829093
 20
20.02588916166028
 30
0.0
 10
239.184038829093
 20
20.02588916166028
 30
0.0
 10
239.184038829093
 20
20.13711999496588
 30
0.0
 10
239.184038829093
 20
20.13711999496588
 30
0.0
 10
239.184038829093
 20
21.71911666123682
 30
0.0
 10
239.9380952675581
 20
23.19623249420091
 30
0.0
 10
241.1946896799442
 20
24.15737554951627
 30
0.0
 10
245.9761690024029
 20
27.81472860415745
 30
0.0
 10
249.209165586589
 20
33.55071888050127
 30
0.0
 10
249.209165586589
 20
39.99960147952515
 30
0.0
 10
249.209165586589
 20
51.13990008420134
 30
0.0
 10
240.1008669300721
 20
60.15280763204069
 30
0.0
 10
228.9249082761022
 20
59.99762220722286
 30
0.0
 10
218.3377594297397
 20
59.85058291752887
 30
0.0
 10
209.7892485367193
 20
51.64553646019037
 30
0.0
 10
209.2372571619129
 20
41.07176367439423
 30
0.0
 10
208.8743193933944
 20
34.11936138035907
 30
0.0
 10
212.0639243120208
 20
27.89124610413844
 30
0.0
 10
217.1524966822005
 20
24.04085304954521
 30
0.0
 10
218.0761041586373
 20
23.34200027194223
 30
0.0
 10
218.7635269188775
 20
22.35648027218862
 30
0.0
 10
219.0442321894938
 20
21.2328124946918
 30
0.0
 10
219.5451766211581
 20
19.2273766618599
 30
0.0
 10
218.7855049738723
 20
17.18027777348264
 30
0.0
 10
217.1986400143566
 20
15.98668944044781
 30
0.0
 10
213.9815184297655
 20
13.56691610771947
 30
0.0
 10
211.5256912701967
 20
10.19563055300659
 30
0.0
 10
210.2309263032289
 20
6.294649165093023
 30
0.0
 10
210.210112414871
 20
6.232454442886319
 30
0.0
 10
210.1905332487039
 20
6.169801109568655
 30
0.0
 10
210.1703190825529
 20
6.107359442917712
 30
0.0
 10
210.0907324179167
 20
5.859074442979702
 30
0.0
 10
210.0128743643474
 20
5.610189720819691
 30
0.0
 10
209.9426715883607
 20
5.357812498660548
 30
0.0
 10
209.9068293670529
 20
5.229824720914809
 30
0.0
 10
209.8761729789461
 20
5.099861387613863
 30
0.0
 10
209.8428354797966
 20
4.970921109868361
 30
0.0
 10
209.7778185370109
 20
4.717026943265292
 30
0.0
 10
209.7143538164078
 20
4.462709443328782
 30
0.0
 10
209.6590735400403
 20
4.205040554504179
 30
0.0
 10
209.5963496527516
 20
3.9150572212433
 30
0.0
 10
209.5386352097796
 20
3.623309999094256
 30
0.0
 10
209.4888582666051
 20
3.328938110278769
 30
0.0
 10
209.469243822661
 20
3.212362693641432
 30
0.0
 10
209.4541449341574
 20
3.094436138115346
 30
0.0
 10
209.4365766012722
 20
2.977193971478014
 30
0.0
 10
209.3971360467229
 20
2.715559860432245
 30
0.0
 10
209.3617524365145
 20
2.452849777164432
 30
0.0
 10
209.3326482705903
 20
2.188114749452819
 30
0.0
 10
209.319454382038
 20
2.067926888371757
 30
0.0
 10
209.3081654934372
 20
1.947326277290958
 30
0.0
 10
209.2972293826051
 20
1.826510471765749
 30
0.0
 10
209.2726054943444
 20
1.557168166277433
 30
0.0
 10
209.254019392131
 20
1.286382999678559
 30
0.0
 10
209.240396884055
 20
1.014154971968808
 30
0.0
 10
209.2345407730933
 20
0.8982286664420646
 30
0.0
 10
209.2276616066021
 20
0.7826445553600191
 30
0.0
 10
209.2237810511456
 20
0.6662031942780261
 30
0.0
 10
209.2216996623098
 20
0.6004665831832785
 30
0.0
 10
209.2159493846787
 20
0.5356330831993821
 30
0.0
 10
209.2144677180498
 20
0.4697447776602099
 30
0.0
 10
209.210939940362
 20
0.3143500471436386
 30
0.0
 10
209.2181013290682
 20
0.161474149959668
 30
0.0
 10
209.218171884622
 20
0.0068752861094801
 30
0.0
 10
209.2179954957376
 20
-0.1486277471849295
 30
0.0
 10
209.2106929959239
 20
-0.302451205480029
 30
0.0
 10
209.214114940281
 20
-0.4587733887743313
 30
0.0
 10
209.2156671624637
 20
-0.5251132498687686
 30
0.0
 10
209.221346884541
 20
-0.5903983054079303
 30
0.0
 10
209.2234988289305
 20
-0.656586472057943
 30
0.0
 10
209.2272082810262
 20
-0.772572749806983
 30
0.0
 10
209.2341174397707
 20
-0.8876947220003791
 30
0.0
 10
209.2397971618481
 20
-1.003187110860297
 30
0.0
 10
209.2543316059217
 20
-1.29884311078654
 30
0.0
 10
209.2757804942634
 20
-1.594365055157118
 30
0.0
 10
209.3029443824593
 20
-1.889128527305573
 30
0.0
 10
209.3118749476723
 20
-1.985891943947831
 30
0.0
 10
209.3211477153282
 20
-2.082493082812602
 30
0.0
 10
209.331589937284
 20
-2.178843749455443
 30
0.0
 10
209.3606235476544
 20
-2.443945666055568
 30
0.0
 10
209.3960071578628
 20
-2.706997943767758
 30
0.0
 10
209.4353771568584
 20
-2.968977777035593
 30
0.0
 10
209.4529454897435
 20
-3.086431610339645
 30
0.0
 10
209.4679385449166
 20
-3.204576888087828
 30
0.0
 10
209.4874824333068
 20
-3.321346332503126
 30
0.0
 10
209.5372593764814
 20
-3.615795832429348
 30
0.0
 10
209.5949032638997
 20
-3.907543054578714
 30
0.0
 10
209.6575213178577
 20
-4.197596943394952
 30
0.0
 10
209.7130485386633
 20
-4.457241387774442
 30
0.0
 10
209.7768660370352
 20
-4.71349916548832
 30
0.0
 10
209.8425179798047
 20
-4.969263054313396
 30
0.0
 10
209.8752204789704
 20
-5.09605138761481
 30
0.0
 10
209.9053124226471
 20
-5.223827498694147
 30
0.0
 10
209.9405249475149
 20
-5.349628054218278
 30
0.0
 10
210.0107929755116
 20
-5.602957776377186
 30
0.0
 10
210.0887568624115
 20
-5.852724442981279
 30
0.0
 10
210.1685904714859
 20
-6.101891387363372
 30
0.0
 10
210.1883813043143
 20
-6.163239442903511
 30
0.0
 10
210.2076782482665
 20
-6.224799165110372
 30
0.0
 10
210.227998247748
 20
-6.285864998428431
 30
0.0
 10
211.5148257149183
 20
-10.16860777523578
 30
0.0
 10
213.9516082798457
 20
-13.52719332995148
 30
0.0
 10
217.1444886268492
 20
-15.94583777379118
 30
0.0
 10
218.0704597143369
 20
-16.64723055139386
 30
0.0
 10
218.7626802522324
 20
-17.6328916622585
 30
0.0
 10
219.044196911717
 20
-18.75987555086558
 30
0.0
 10
219.5451766211581
 20
-20.76531138369748
 30
0.0
 10
218.7855049738723
 20
-22.81244554985258
 30
0.0
 10
217.1986400143566
 20
-24.00606916066525
 30
0.0
 10
211.9941448693566
 20
-27.92059721524223
 30
0.0
 10
208.7621713407
 20
-34.31642304697657
 30
0.0
 10
209.2594116057921
 20
-41.43639582297439
 30
0.0
 10
209.9609860586212
 20
-51.48216637601821
 30
0.0
 10
218.2040919331498
 20
-59.51452831845489
 30
0.0
 10
228.2636558431757
 20
-59.97779609611639
 30
0.0
 10
239.739269717075
 20
-60.50625720709589
 30
0.0
 10
249.209165586589
 20
-51.35883526493809
 30
0.0
 10
249.209165586589
 20
-39.99956721222244
 30
0.0
 10
249.209165586589
 20
-33.46439415830056
 30
0.0
 10
246.0747351109994
 20
-27.66130554864018
 30
0.0
 10
241.2271805124486
 20
-24.01167832733031
 30
0.0
 10
239.9518536005404
 20
-23.05152304979255
 30
0.0
 10
239.184038829093
 20
-21.56322416127586
 30
0.0
 10
239.184038829093
 20
-19.96683416167495
 30
0.0
 10
239.184038829093
 20
-19.96683416167495
 30
0.0
 10
239.184038829093
 20
-19.85560332836934
 30
0.0
 10
239.184038829093
 20
-19.85560332836934
 30
0.0
 10
239.184038829093
 20
-19.75333305061722
 30
0.0
 10
239.1872430644917
 20
-19.65152138397605
 30
0.0
 10
239.193522508776
 20
-19.55027416177905
 30
0.0
 10
239.280376395449
 20
-18.15376805101709
 30
0.0
 10
240.0329572095824
 20
-16.88073416244661
 30
0.0
 10
241.1544730143035
 20
-16.04405110710002
 30
0.0
 10
245.7389259528999
 20
-12.62390583017745
 30
0.0
 10
248.8066814301905
 20
-7.286483887067214
 30
0.0
 10
249.1694780876015
 20
-1.217940583028946
 30
0.0
 10
249.170183643139
 20
-1.206768110809409
 30
0.0
 10
249.1712772542222
 20
-1.195676777478938
 30
0.0
 10
249.1719828097598
 20
-1.184504305259402
 30
0.0
 10
249.1946311425153
 20
-0.7945613886902856
 30
0.0
 10
249.209165586589
 20
-0.4024665276770811
 30
0.0
 10
249.209165586589
 20
-0.0068403611095369
 30
0.0
 10
249.209165586589
 20
-0.0044933305544377
 30
0.0
 10
249.2089249376977
 20
-0.0021896916662458
 30
0.0
 10
249.2089249376977
 20
0.0001573388888534
 30
0.0
 10
249.2089249376977
 20
0.0023967722215877
 30
0.0
 10
249.209165586589
 20
0.0045928138877356
 30
0.0
 10
249.209165586589
 20
0.0068537666648146
 30
0.0
 10
249.209165586589
 20
0.3912834721244814
 30
0.0
 10
249.1959364202598
 20
0.7725268886957586
 30
0.0
 10
249.1745580874719
 20
1.151593666378812
 30
0.0
  0
INSERT
  5
46
330
1F
100
AcDbEntity
  8
Ebene 1
100
AcDbBlockReference
  2
block 2
 10
0.0
 20
0.0
 30
0.0
  0
INSERT
  5
52
330
1F
100
AcDbEntity
  8
Ebene 1
100
AcDbBlockReference
  2
block 3
 10
0.0
 20
0.0
 30
0.0
  0
INSERT
  5
5E
330
1F
100
AcDbEntity
  8
Ebene 1
100
AcDbBlockReference
  2
block 4
 10
0.0
 20
0.0
 30
0.0
  0
ENDSEC
  0
SECTION
  2
OBJECTS
  0
DICTIONARY
  5
C
330
0
100
AcDbDictionary
281
     1
  3
ACAD_GROUP
350
D
  3
ACAD_LAYOUT
350
1A
  3
ACAD_MATERIAL
350
3B
  3
ACAD_MLEADERSTYLE
350
6A
  3
ACAD_MLINESTYLE
350
17
  3
ACAD_PLOTSETTINGS
350
19
  3
ACAD_PLOTSTYLENAME
350
E
  3
ACAD_TABLESTYLE
350
69
  3
ACAD_VISUALSTYLE
350
2A
  0
SUN
  5
3F
330
29
100
AcDbSun
 90
        1
290
     0
 63
     7
421
 16777215
 40
1.0
291
     1
 91
  2455826
 92
 54000000
292
     0
 70
     2
 71
   256
280
     1
  0
DICTIONARY
  5
D
102
{ACAD_REACTORS
330
C
102
}
330
C
100
AcDbDictionary
281
     1
  0
DICTIONARY
  5
1A
102
{ACAD_REACTORS
330
C
102
}
330
C
100
AcDbDictionary
281
     1
  3
Layout1
350
1E
  3
Layout2
350
26
  3
Model
350
22
  0
DICTIONARY
  5
3B
102
{ACAD_REACTORS
330
C
102
}
330
C
100
AcDbDictionary
281
     1
  3
ByBlock
350
3D
  3
ByLayer
350
3C
  3
Global
350
3E
  0
DICTIONARY
  5
6A
102
{ACAD_REACTORS
330
C
102
}
330
C
100
AcDbDictionary
281
     1
  0
DICTIONARY
  5
17
102
{ACAD_REACTORS
330
C
102
}
330
C
100
AcDbDictionary
281
     1
  3
Standard
350
18
  0
DICTIONARY
  5
19
102
{ACAD_REACTORS
330
C
102
}
330
C
100
AcDbDictionary
281
     1
  0
ACDBDICTIONARYWDFLT
  5
E
102
{ACAD_REACTORS
330
C
102
}
330
C
100
AcDbDictionary
281
     1
  3
Normal
350
F
100
AcDbDictionaryWithDefault
340
F
  0
DICTIONARY
  5
69
102
{ACAD_REACTORS
330
C
102
}
330
C
100
AcDbDictionary
281
     1
  0
DICTIONARY
  5
2A
102
{ACAD_REACTORS
330
C
102
}
330
C
100
AcDbDictionary
281
     1
  3
2dWireframe
350
2F
  3
3D Hidden
350
31
  3
3dWireframe
350
30
  3
Basic
350
32
  3
Brighten
350
36
  3
ColorChange
350
3A
  3
Conceptual
350
34
  3
Dim
350
35
  3
Facepattern
350
39
  3
Flat
350
2B
  3
FlatWithEdges
350
2C
  3
Gouraud
350
2D
  3
GouraudWithEdges
350
2E
  3
Linepattern
350
38
  3
Realistic
350
33
  3
Thicken
350
37
  0
LAYOUT
  5
1E
102
{ACAD_REACTORS
330
1A
102
}
330
1A
100
AcDbPlotSettings
  1

  2
none_device
  4

  6

 40
0.0
 41
0.0
 42
0.0
 43
0.0
 44
0.0
 45
0.0
 46
0.0
 47
0.0
 48
0.0
 49
0.0
140
0.0
141
0.0
142
1.0
143
1.0
 70
   688
 72
     0
 73
     0
 74
     5
  7

 75
    16
 76
     0
 77
     2
 78
   300
147
1.0
148
0.0
149
0.0
100
AcDbLayout
  1
Layout1
 70
     1
 71
     1
 10
0.0
 20
0.0
 11
12.0
 21
9.0
 12
0.0
 22
0.0
 32
0.0
 14
1.000000000000000E+20
 24
1.000000000000000E+20
 34
1.000000000000000E+20
 15
-1.000000000000000E+20
 25
-1.000000000000000E+20
 35
-1.000000000000000E+20
146
0.0
 13
0.0
 23
0.0
 33
0.0
 16
1.0
 26
0.0
 36
0.0
 17
0.0
 27
1.0
 37
0.0
 76
     0
330
1B
  0
LAYOUT
  5
26
102
{ACAD_REACTORS
330
1A
102
}
330
1A
100
AcDbPlotSettings
  1

  2
none_device
  4

  6

 40
0.0
 41
0.0
 42
0.0
 43
0.0
 44
0.0
 45
0.0
 46
0.0
 47
0.0
 48
0.0
 49
0.0
140
0.0
141
0.0
142
1.0
143
1.0
 70
   688
 72
     0
 73
     0
 74
     5
  7

 75
    16
 76
     0
 77
     2
 78
   300
147
1.0
148
0.0
149
0.0
100
AcDbLayout
  1
Layout2
 70
     1
 71
     2
 10
0.0
 20
0.0
 11
0.0
 21
0.0
 12
0.0
 22
0.0
 32
0.0
 14
0.0
 24
0.0
 34
0.0
 15
0.0
 25
0.0
 35
0.0
146
0.0
 13
0.0
 23
0.0
 33
0.0
 16
1.0
 26
0.0
 36
0.0
 17
0.0
 27
1.0
 37
0.0
 76
     0
330
23
  0
LAYOUT
  5
22
102
{ACAD_REACTORS
330
1A
102
}
330
1A
100
AcDbPlotSettings
  1

  2
none_device
  4

  6

 40
0.0
 41
0.0
 42
0.0
 43
0.0
 44
0.0
 45
0.0
 46
0.0
 47
0.0
 48
0.0
 49
0.0
140
0.0
141
0.0
142
1.0
143
1.0
 70
  1712
 72
     0
 73
     0
 74
     0
  7

 75
     0
 76
     0
 77
     2
 78
   300
147
1.0
148
0.0
149
0.0
100
AcDbLayout
  1
Model
 70
     1
 71
     0
 10
0.0
 20
0.0
 11
12.0
 21
9.0
 12
0.0
 22
0.0
 32
0.0
 14
1.000000000000000E+20
 24
1.000000000000000E+20
 34
1.000000000000000E+20
 15
-1.000000000000000E+20
 25
-1.000000000000000E+20
 35
-1.000000000000000E+20
146
0.0
 13
0.0
 23
0.0
 33
0.0
 16
1.0
 26
0.0
 36
0.0
 17
0.0
 27
1.0
 37
0.0
 76
     0
330
1F
331
29
  0
MATERIAL
  5
3D
102
{ACAD_REACTORS
330
3B
102
}
330
3B
100
AcDbMaterial
  1
ByBlock
 72
     1
 94
      127
  0
MATERIAL
  5
3C
102
{ACAD_REACTORS
330
3B
102
}
330
3B
100
AcDbMaterial
  1
ByLayer
 72
     1
 94
      127
  0
MATERIAL
  5
3E
102
{ACAD_REACTORS
330
3B
102
}
330
3B
100
AcDbMaterial
  1
Global
 72
     1
 94
      127
  0
MLINESTYLE
  5
18
102
{ACAD_REACTORS
330
17
102
}
330
17
100
AcDbMlineStyle
  2
Standard
 70
     0
  3

 62
   256
 51
90.0
 52
90.0
 71
     2
 49
0.5
 62
   256
  6
BYLAYER
 49
-0.5
 62
   256
  6
BYLAYER
  0
ACDBPLACEHOLDER
  5
F
102
{ACAD_REACTORS
330
E
102
}
330
E
  0
VISUALSTYLE
  5
2F
102
{ACAD_REACTORS
330
2A
102
}
330
2A
100
AcDbVisualStyle
  2
2dWireframe
 70
     4
177
     2
291
     0
 71
     0
176
     1
 72
     2
176
     1
 73
     0
176
     1
 90
        0
176
     1
 40
-0.6
176
     1
 41
-30.0
176
     1
 62
     5
 63
     7
421
 16777215
176
     1
 74
     1
176
     1
 91
        4
176
     1
 64
     7
176
     1
 65
   257
176
     1
 75
     1
176
     1
175
     1
176
     1
 42
1.0
176
     1
 92
        0
176
     1
 66
   257
176
     1
 43
1.0
176
     1
 76
     1
176
     1
 77
     6
176
     1
 78
     2
176
     1
 67
     7
176
     1
 79
     5
176
     1
170
     0
176
     1
171
     0
176
     1
290
     0
176
     1
 93
        1
176
     1
 44
0.0
176
     1
173
     0
176
     1
  0
VISUALSTYLE
  5
31
102
{ACAD_REACTORS
330
2A
102
}
330
2A
100
AcDbVisualStyle
  2
3D Hidden
 70
     6
177
     2
291
     0
 71
     1
176
     1
 72
     2
176
     1
 73
     2
176
     1
 90
        0
176
     1
 40
-0.6
176
     1
 41
-30.0
176
     1
 62
     5
 63
     7
421
 16777215
176
     1
 74
     2
176
     1
 91
        2
176
     1
 64
     7
176
     1
 65
   257
176
     1
 75
     2
176
     1
175
     1
176
     1
 42
40.0
176
     1
 92
        0
176
     1
 66
   257
176
     1
 43
1.0
176
     1
 76
     1
176
     1
 77
     6
176
     1
 78
     2
176
     1
 67
     7
176
     1
 79
     3
176
     1
170
     0
176
     1
171
     0
176
     1
290
     0
176
     1
 93
        1
176
     1
 44
0.0
176
     1
173
     0
176
     1
  0
VISUALSTYLE
  5
30
102
{ACAD_REACTORS
330
2A
102
}
330
2A
100
AcDbVisualStyle
  2
3dWireframe
 70
     5
177
     2
291
     0
 71
     0
176
     1
 72
     2
176
     1
 73
     0
176
     1
 90
        0
176
     1
 40
-0.6
176
     1
 41
-30.0
176
     1
 62
     5
 63
     7
421
 16777215
176
     1
 74
     1
176
     1
 91
        4
176
     1
 64
     7
176
     1
 65
   257
176
     1
 75
     1
176
     1
175
     1
176
     1
 42
1.0
176
     1
 92
        0
176
     1
 66
   257
176
     1
 43
1.0
176
     1
 76
     1
176
     1
 77
     6
176
     1
 78
     2
176
     1
 67
     7
176
     1
 79
     5
176
     1
170
     0
176
     1
171
     0
176
     1
290
     0
176
     1
 93
        1
176
     1
 44
0.0
176
     1
173
     0
176
     1
  0
VISUALSTYLE
  5
32
102
{ACAD_REACTORS
330
2A
102
}
330
2A
100
AcDbVisualStyle
  2
Basic
 70
     7
177
     2
291
     1
 71
     1
176
     1
 72
     0
176
     1
 73
     1
176
     1
 90
        0
176
     1
 40
-0.6
176
     1
 41
-30.0
176
     1
 62
     5
 63
     7
421
 16777215
176
     1
 74
     0
176
     1
 91
        4
176
     1
 64
     7
176
     1
 65
   257
176
     1
 75
     1
176
     1
175
     1
176
     1
 42
1.0
176
     1
 92
        8
176
     1
 66
     7
176
     1
 43
1.0
176
     1
 76
     1
176
     1
 77
     6
176
     1
 78
     2
176
     1
 67
     7
176
     1
 79
     5
176
     1
170
     0
176
     1
171
     0
176
     1
290
     0
176
     1
 93
        1
176
     1
 44
0.0
176
     1
173
     0
176
     1
  0
VISUALSTYLE
  5
36
102
{ACAD_REACTORS
330
2A
102
}
330
2A
100
AcDbVisualStyle
  2
Brighten
 70
    12
177
     2
291
     1
 71
     2
176
     1
 72
     2
176
     1
 73
     0
176
     1
 90
        0
176
     1
 40
-0.6
176
     1
 41
-30.0
176
     1
 62
     5
 63
     7
421
 16777215
176
     1
 74
     1
176
     1
 91
        4
176
     1
 64
     7
176
     1
 65
   257
176
     1
 75
     1
176
     1
175
     1
176
     1
 42
1.0
176
     1
 92
        8
176
     1
 66
     7
176
     1
 43
1.0
176
     1
 76
     1
176
     1
 77
     6
176
     1
 78
     2
176
     1
 67
     7
176
     1
 79
     5
176
     1
170
     0
176
     1
171
     0
176
     1
290
     0
176
     1
 93
        1
176
     1
 44
50.0
176
     1
173
     0
176
     1
  0
VISUALSTYLE
  5
3A
102
{ACAD_REACTORS
330
2A
102
}
330
2A
100
AcDbVisualStyle
  2
ColorChange
 70
    16
177
     2
291
     1
 71
     2
176
     1
 72
     2
176
     1
 73
     3
176
     1
 90
        0
176
     1
 40
-0.6
176
     1
 41
-30.0
176
     1
 62
     5
 63
     8
421
  8421504
176
     1
 74
     1
176
     1
 91
        4
176
     1
 64
     7
176
     1
 65
   257
176
     1
 75
     1
176
     1
175
     1
176
     1
 42
1.0
176
     1
 92
        8
176
     1
 66
     8
424
  8421504
176
     1
 43
1.0
176
     1
 76
     1
176
     1
 77
     6
176
     1
 78
     2
176
     1
 67
     7
176
     1
 79
     5
176
     1
170
     0
176
     1
171
     0
176
     1
290
     0
176
     1
 93
        1
176
     1
 44
0.0
176
     1
173
     0
176
     1
  0
VISUALSTYLE
  5
34
102
{ACAD_REACTORS
330
2A
102
}
330
2A
100
AcDbVisualStyle
  2
Conceptual
 70
     9
177
     2
291
     0
 71
     3
176
     1
 72
     2
176
     1
 73
     0
176
     1
 90
        0
176
     1
 40
-0.6
176
     1
 41
-30.0
176
     1
 62
     5
 63
     7
421
 16777215
176
     1
 74
     2
176
     1
 91
        2
176
     1
 64
     7
176
     1
 65
   257
176
     1
 75
     1
176
     1
175
     1
176
     1
 42
40.0
176
     1
 92
        8
176
     1
 66
     7
176
     1
 43
1.0
176
     1
 76
     1
176
     1
 77
     6
176
     1
 78
     2
176
     1
 67
     7
176
     1
 79
     3
176
     1
170
     0
176
     1
171
     0
176
     1
290
     0
176
     1
 93
        1
176
     1
 44
0.0
176
     1
173
     0
176
     1
  0
VISUALSTYLE
  5
35
102
{ACAD_REACTORS
330
2A
102
}
330
2A
100
AcDbVisualStyle
  2
Dim
 70
    11
177
     2
291
     1
 71
     2
176
     1
 72
     2
176
     1
 73
     0
176
     1
 90
        0
176
     1
 40
-0.6
176
     1
 41
-30.0
176
     1
 62
     5
 63
     7
421
 16777215
176
     1
 74
     1
176
     1
 91
        4
176
     1
 64
     7
176
     1
 65
   257
176
     1
 75
     1
176
     1
175
     1
176
     1
 42
1.0
176
     1
 92
        8
176
     1
 66
     7
176
     1
 43
1.0
176
     1
 76
     1
176
     1
 77
     6
176
     1
 78
     2
176
     1
 67
     7
176
     1
 79
     5
176
     1
170
     0
176
     1
171
     0
176
     1
290
     0
176
     1
 93
        1
176
     1
 44
-50.0
176
     1
173
     0
176
     1
  0
VISUALSTYLE
  5
39
102
{ACAD_REACTORS
330
2A
102
}
330
2A
100
AcDbVisualStyle
  2
Facepattern
 70
    15
177
     2
291
     1
 71
     2
176
     1
 72
     2
176
     1
 73
     0
176
     1
 90
        0
176
     1
 40
-0.6
176
     1
 41
-30.0
176
     1
 62
     5
 63
     7
421
 16777215
176
     1
 74
     1
176
     1
 91
        4
176
     1
 64
     7
176
     1
 65
   257
176
     1
 75
     1
176
     1
175
     1
176
     1
 42
1.0
176
     1
 92
        8
176
     1
 66
     7
176
     1
 43
1.0
176
     1
 76
     1
176
     1
 77
     6
176
     1
 78
     2
176
     1
 67
     7
176
     1
 79
     5
176
     1
170
     0
176
     1
171
     0
176
     1
290
     0
176
     1
 93
        1
176
     1
 44
0.0
176
     1
173
     0
176
     1
  0
VISUALSTYLE
  5
2B
102
{ACAD_REACTORS
330
2A
102
}
330
2A
100
AcDbVisualStyle
  2
Flat
 70
     0
177
     2
291
     1
 71
     2
176
     1
 72
     1
176
     1
 73
     1
176
     1
 90
        2
176
     1
 40
-0.6
176
     1
 41
30.0
176
     1
 62
     5
 63
     7
421
 16777215
176
     1
 74
     0
176
     1
 91
        4
176
     1
 64
     7
176
     1
 65
   257
176
     1
 75
     1
176
     1
175
     1
176
     1
 42
1.0
176
     1
 92
        8
176
     1
 66
     7
176
     1
 43
1.0
176
     1
 76
     1
176
     1
 77
     6
176
     1
 78
     2
176
     1
 67
     7
176
     1
 79
     5
176
     1
170
     0
176
     1
171
     0
176
     1
290
     0
176
     1
 93
       13
176
     1
 44
0.0
176
     1
173
     0
176
     1
  0
VISUALSTYLE
  5
2C
102
{ACAD_REACTORS
330
2A
102
}
330
2A
100
AcDbVisualStyle
  2
FlatWithEdges
 70
     1
177
     2
291
     1
 71
     2
176
     1
 72
     1
176
     1
 73
     1
176
     1
 90
        2
176
     1
 40
-0.6
176
     1
 41
30.0
176
     1
 62
     5
 63
     7
421
 16777215
176
     1
 74
     1
176
     1
 91
        4
176
     1
 64
     7
176
     1
 65
   257
176
     1
 75
     1
176
     1
175
     1
176
     1
 42
1.0
176
     1
 92
        0
176
     1
 66
   257
176
     1
 43
1.0
176
     1
 76
     1
176
     1
 77
     6
176
     1
 78
     2
176
     1
 67
     7
176
     1
 79
     5
176
     1
170
     0
176
     1
171
     0
176
     1
290
     0
176
     1
 93
       13
176
     1
 44
0.0
176
     1
173
     0
176
     1
  0
VISUALSTYLE
  5
2D
102
{ACAD_REACTORS
330
2A
102
}
330
2A
100
AcDbVisualStyle
  2
Gouraud
 70
     2
177
     2
291
     1
 71
     2
176
     1
 72
     2
176
     1
 73
     1
176
     1
 90
        2
176
     1
 40
-0.6
176
     1
 41
30.0
176
     1
 62
     5
 63
     7
421
 16777215
176
     1
 74
     0
176
     1
 91
        4
176
     1
 64
     7
176
     1
 65
   257
176
     1
 75
     1
176
     1
175
     1
176
     1
 42
1.0
176
     1
 92
        0
176
     1
 66
     7
176
     1
 43
1.0
176
     1
 76
     1
176
     1
 77
     6
176
     1
 78
     2
176
     1
 67
     7
176
     1
 79
     5
176
     1
170
     0
176
     1
171
     0
176
     1
290
     0
176
     1
 93
       13
176
     1
 44
0.0
176
     1
173
     0
176
     1
  0
VISUALSTYLE
  5
2E
102
{ACAD_REACTORS
330
2A
102
}
330
2A
100
AcDbVisualStyle
  2
GouraudWithEdges
 70
     3
177
     2
291
     1
 71
     2
176
     1
 72
     2
176
     1
 73
     1
176
     1
 90
        2
176
     1
 40
-0.6
176
     1
 41
30.0
176
     1
 62
     5
 63
     7
421
 16777215
176
     1
 74
     1
176
     1
 91
        4
176
     1
 64
     7
176
     1
 65
   257
176
     1
 75
     1
176
     1
175
     1
176
     1
 42
1.0
176
     1
 92
        0
176
     1
 66
   257
176
     1
 43
1.0
176
     1
 76
     1
176
     1
 77
     6
176
     1
 78
     2
176
     1
 67
     7
176
     1
 79
     5
176
     1
170
     0
176
     1
171
     0
176
     1
290
     0
176
     1
 93
       13
176
     1
 44
0.0
176
     1
173
     0
176
     1
  0
VISUALSTYLE
  5
38
102
{ACAD_REACTORS
330
2A
102
}
330
2A
100
AcDbVisualStyle
  2
Linepattern
 70
    14
177
     2
291
     1
 71
     2
176
     1
 72
     2
176
     1
 73
     0
176
     1
 90
        0
176
     1
 40
-0.6
176
     1
 41
-30.0
176
     1
 62
     5
 63
     7
421
 16777215
176
     1
 74
     1
176
     1
 91
        4
176
     1
 64
     7
176
     1
 65
   257
176
     1
 75
     7
176
     1
175
     7
176
     1
 42
1.0
176
     1
 92
        8
176
     1
 66
     7
176
     1
 43
1.0
176
     1
 76
     1
176
     1
 77
     6
176
     1
 78
     2
176
     1
 67
     7
176
     1
 79
     5
176
     1
170
     0
176
     1
171
     0
176
     1
290
     0
176
     1
 93
        1
176
     1
 44
0.0
176
     1
173
     0
176
     1
  0
VISUALSTYLE
  5
33
102
{ACAD_REACTORS
330
2A
102
}
330
2A
100
AcDbVisualStyle
  2
Realistic
 70
     8
177
     2
291
     0
 71
     2
176
     1
 72
     2
176
     1
 73
     0
176
     1
 90
        0
176
     1
 40
-0.6
176
     1
 41
-30.0
176
     1
 62
     5
 63
     7
421
 16777215
176
     1
 74
     1
176
     1
 91
        0
176
     1
 64
     7
176
     1
 65
   257
176
     1
 75
     1
176
     1
175
     1
176
     1
 42
1.0
176
     1
 92
        8
176
     1
 66
     8
424
  7895160
176
     1
 43
1.0
176
     1
 76
     1
176
     1
 77
     6
176
     1
 78
     2
176
     1
 67
     7
176
     1
 79
     5
176
     1
170
     0
176
     1
171
     0
176
     1
290
     0
176
     1
 93
       13
176
     1
 44
0.0
176
     1
173
     0
176
     1
  0
VISUALSTYLE
  5
37
102
{ACAD_REACTORS
330
2A
102
}
330
2A
100
AcDbVisualStyle
  2
Thicken
 70
    13
177
     2
291
     1
 71
     2
176
     1
 72
     2
176
     1
 73
     0
176
     1
 90
        0
176
     1
 40
-0.6
176
     1
 41
-30.0
176
     1
 62
     5
 63
     7
421
 16777215
176
     1
 74
     1
176
     1
 91
        4
176
     1
 64
     7
176
     1
 65
   257
176
     1
 75
     1
176
     1
175
     1
176
     1
 42
1.0
176
     1
 92
       12
176
     1
 66
     7
176
     1
 43
1.0
176
     1
 76
     1
176
     1
 77
     6
176
     1
 78
     2
176
     1
 67
     7
176
     1
 79
     5
176
     1
170
     0
176
     1
171
     0
176
     1
290
     0
176
     1
 93
        1
176
     1
 44
0.0
176
     1
173
     0
176
     1
  0
ENDSEC
  0
EOF
