999
DXF generated by OpenJsCad
  0
SECTION
  2
HEADER
  0
ENDSEC
  0
SECTION
  2
TABLES
  0
TABLE
  2
LTYPE
  70
1
  0
LTYPE
  2
CONTINUOUS
  3
Solid Line
  72
65
  73
0
  40
0.0
  0
ENDTAB
  0
TABLE
  2
LAYER
  70
1
  0
LAYER
  2
OpenJsCad
  62
7
  6
continuous
  0
ENDTAB
  0
TABLE
  2
STYLE
  70
0
  0
ENDTAB
  0
TABLE
  2
VIEW
  70
0
  0
ENDTAB
  0
ENDSEC
  0
SECTION
  2
BLOCKS
  0
ENDSEC
  0
SECTION
  2
ENTITIES
  0
LWPOLYLINE
  8
OpenJsCad
  90
321
  70
1
 10
-0.0783982791906217
 20
-3.9922784434617253
 30
0.0
 10
-1.1102230246251565e-16
 20
-3.9999999999999964
 30
0.0
 10
0.0783982791906232
 20
-3.9922784434617293
 30
0.0
 10
0.1570392630362747
 20
-3.9969161449628934
 30
0.0
 10
0.23507395310779056
 20
-3.9861226394680065
 30
0.0
 10
0.31383638291137933
 20
-3.98766933493251
 30
0.0
 10
0.3913871600285043
 20
-3.973820523288377
 30
0.0
 10
0.47014958983134897
 20
-3.972273827819708
 30
0.0
 10
0.5470968763144515
 20
-3.955391063877934
 30
0.0
 10
0.625737860160923
 20
-3.9507533623805506
 30
0.0
 10
0.7019630088738786
 20
-3.9308626781511937
 30
0.0
 10
0.780361288064513
 20
-3.9231411216129213
 30
0.0
 10
0.8557467653521027
 20
-3.9002731870855736
 30
0.0
 10
0.9337814554236198
 20
-3.8894796815907076
 30
0.0
 10
1.0082110223440426
 20
-3.8636697574632657
 30
0.0
 10
1.085761799460296
 20
-3.8498209458145918
 30
0.0
 10
1.1591206910157443
 20
-3.821108829118321
 30
0.0
 10
1.2360679774997894
 20
-3.804226065180615
 30
0.0
 10
1.3082430795971478
 20
-3.772656027919628
 30
0.0
 10
1.3844682283099734
 20
-3.752765343689939
 30
0.0
 10
1.4553482521727859
 20
-3.718386064572486
 30
0.0
 10
1.5307337294603598
 20
-3.695518130045144
 30
0.0
 10
1.6002093832294206
 20
-3.6583826194281257
 30
0.0
 10
1.6746389501496923
 20
-3.6325726953002957
 30
0.0
 10
1.742603107402596
 20
-3.5927382134494326
 30
0.0
 10
1.8159619989581857
 20
-3.5640260967534676
 30
0.0
 10
1.8823098638905351
 20
-3.52155406555241
 30
0.0
 10
1.9544849659878196
 20
-3.4899840282911865
 30
0.0
 10
2.0191142350004903
 20
-3.444939936533076
 30
0.0
 10
2.089994258863795
 20
-3.4105606574163696
 30
0.0
 10
2.152805278309355
 20
-3.3630139598272035
 30
0.0
 10
2.2222809320784087
 20
-3.3258784492101827
 30
0.0
 10
2.2831768519169815
 20
-3.275902459350659
 30
0.0
 10
2.3511410091698917
 20
-3.236067977499792
 30
0.0
 10
2.4100279323069094
 20
-3.1837397547239212
 30
0.0
 10
2.476375797239338
 20
-3.1412677235229807
 30
0.0
 10
2.5331629243075584
 20
-3.0866679541575044
 30
0.0
 10
2.5977921933207355
 20
-3.0416238624001264
 30
0.0
 10
2.6523919626423074
 20
-2.984836735289701
 30
0.0
 10
2.715202982131766
 20
-2.937290037742741
 30
0.0
 10
2.7675312049076157
 20
-2.878403114605712
 30
0.0
 10
2.8284271247461916
 20
-2.828427124746191
 30
0.0
 10
2.8784031146057076
 20
-2.7675312049076126
 30
0.0
 10
2.9372900377427436
 20
-2.7152029821317685
 30
0.0
 10
2.9848367353319025
 20
-2.6523919626862162
 30
0.0
 10
3.0416238624001224
 20
-2.597792193320737
 30
0.0
 10
3.086667954149982
 20
-2.5331629243023195
 30
0.0
 10
3.1412677235229762
 20
-2.4763757972393354
 30
0.0
 10
3.1837397547315263
 20
-2.4100279323117775
 30
0.0
 10
3.2360679774997894
 20
-2.351141009169893
 30
0.0
 10
3.2759024593506605
 20
-2.2831768519169757
 30
0.0
 10
3.325878449210178
 20
-2.2222809320784047
 30
0.0
 10
3.3630139598272026
 20
-2.1528052783093488
 30
0.0
 10
3.410560657416368
 20
-2.089994258863793
 30
0.0
 10
3.4449399365337774
 20
-2.019114235000983
 30
0.0
 10
3.489984028292267
 20
-1.9544849659882937
 30
0.0
 10
3.5215540655534783
 20
-1.8823098638910278
 30
0.0
 10
3.564026096753473
 20
-1.8159619989581886
 30
0.0
 10
3.592738213448283
 20
-1.7426031074021597
 30
0.0
 10
3.6325726953003263
 20
-1.6746389501497132
 30
0.0
 10
3.658382619428122
 20
-1.6002093832294202
 30
0.0
 10
3.6955181300451456
 20
-1.530733729460362
 30
0.0
 10
3.7183860645724907
 20
-1.4553482521727714
 30
0.0
 10
3.752765343689938
 20
-1.3844682283099738
 30
0.0
 10
3.7726560279194103
 20
-1.3082430795970321
 30
0.0
 10
3.804226065180614
 20
-1.2360679774997896
 30
0.0
 10
3.8211088291185042
 20
-1.1591206910158425
 30
0.0
 10
3.8498209458145887
 20
-1.0857617994602973
 30
0.0
 10
3.8636697574634846
 20
-1.0082110223440295
 30
0.0
 10
3.8894796815907067
 20
-0.9337814554236223
 30
0.0
 10
3.900273187085576
 20
-0.8557467653520903
 30
0.0
 10
3.9231411216129186
 20
-0.7803612880645142
 30
0.0
 10
3.9308626781512044
 20
-0.7019630088738887
 30
0.0
 10
3.9507533623805497
 20
-0.6257378601609233
 30
0.0
 10
3.95539106388169
 20
-0.5470968763152758
 30
0.0
 10
3.972273827819706
 20
-0.4701495898313504
 30
0.0
 10
3.973820523284208
 20
-0.39138716002775953
 30
0.0
 10
3.987669334932512
 20
-0.31383638291138216
 30
0.0
 10
3.9861226394483658
 20
-0.23507395310818302
 30
0.0
 10
3.9969161449628943
 20
-0.15703926303627574
 30
0.0
 10
3.992278443461728
 20
-0.07839827919062692
 30
0.0
 10
3.9999999999999982
 20
4.996003610813204e-16
 30
0.0
 10
3.992278443461725
 20
0.0783982791906232
 30
0.0
 10
3.9969161449628907
 20
0.15703926303627505
 30
0.0
 10
3.986122639468007
 20
0.23507395310779533
 30
0.0
 10
3.9876693349325123
 20
0.31383638291138083
 30
0.0
 10
3.9738205232843073
 20
0.3913871600277767
 30
0.0
 10
3.9722738278240244
 20
0.4701495898322958
 30
0.0
 10
3.9553910638856005
 20
0.5470968763161221
 30
0.0
 10
3.950753362380553
 20
0.6257378601609225
 30
0.0
 10
3.930862678151188
 20
0.7019630088738962
 30
0.0
 10
3.9231411216129173
 20
0.7803612880645125
 30
0.0
 10
3.90027318708557
 20
0.8557467653521023
 30
0.0
 10
3.889479681590704
 20
0.933781455423619
 30
0.0
 10
3.8636697574629206
 20
1.0082110223439238
 30
0.0
 10
3.8498209458145882
 20
1.0857617994602948
 30
0.0
 10
3.8211088291189177
 20
1.159120691015976
 30
0.0
 10
3.804226065180615
 20
1.236067977499789
 30
0.0
 10
3.7726560279165637
 20
1.3082430795958193
 30
0.0
 10
3.752765343689938
 20
1.3844682283099725
 30
0.0
 10
3.718386064572492
 20
1.4553482521727772
 30
0.0
 10
3.6955181300451483
 20
1.5307337294603596
 30
0.0
 10
3.6583826194281275
 20
1.6002093832294166
 30
0.0
 10
3.6325726953003272
 20
1.6746389501497112
 30
0.0
 10
3.5927382134494787
 20
1.7426031074026285
 30
0.0
 10
3.5640260967534734
 20
1.8159619989581866
 30
0.0
 10
3.5215540655521664
 20
1.8823098638903768
 30
0.0
 10
3.489984028291186
 20
1.954484965987819
 30
0.0
 10
3.4449399365364863
 20
2.0191142350028626
 30
0.0
 10
3.4105606574163705
 20
2.089994258863793
 30
0.0
 10
3.363013959827205
 20
2.152805278309359
 30
0.0
 10
3.3258784492101845
 20
2.2222809320784123
 30
0.0
 10
3.2759024593506596
 20
2.2831768519169846
 30
0.0
 10
3.2360679774997867
 20
2.3511410091698917
 30
0.0
 10
3.1837397547239283
 20
2.410027932306916
 30
0.0
 10
3.141267723522979
 20
2.476375797239336
 30
0.0
 10
3.086667954157789
 20
2.5331629243078138
 30
0.0
 10
3.041623862400124
 20
2.597792193320734
 30
0.0
 10
2.9848367353298983
 20
2.652391962684123
 30
0.0
 10
2.9372900377183186
 20
2.7152029821042794
 30
0.0
 10
2.8784031146057107
 20
2.7675312049076144
 30
0.0
 10
2.8284271247461894
 20
2.8284271247461894
 30
0.0
 10
2.7675312049076166
 20
2.8784031146057134
 30
0.0
 10
2.71520298213177
 20
2.937290037742745
 30
0.0
 10
2.652391962686238
 20
2.984836735331941
 30
0.0
 10
2.597792193320736
 20
3.0416238624001224
 30
0.0
 10
2.5331629243073635
 20
3.0866679541572277
 30
0.0
 10
2.4763757972393377
 20
3.1412677235229785
 30
0.0
 10
2.4100279323034814
 20
3.183739754718562
 30
0.0
 10
2.351141009169894
 20
3.2360679774997894
 30
0.0
 10
2.2831768519169855
 20
3.275902459350659
 30
0.0
 10
2.222280932078409
 20
3.325878449210181
 30
0.0
 10
2.1528052783093563
 20
3.3630139598272084
 30
0.0
 10
2.089994258863796
 20
3.4105606574163696
 30
0.0
 10
2.019114235000987
 20
3.4449399365337787
 30
0.0
 10
1.9544849659878207
 20
3.489984028291188
 30
0.0
 10
1.882309863890202
 20
3.521554065551599
 30
0.0
 10
1.8159619989581888
 20
3.564026096753472
 30
0.0
 10
1.7426031074013597
 20
3.5927382134462342
 30
0.0
 10
1.674638950149713
 20
3.6325726953003254
 30
0.0
 10
1.6002093832294255
 20
3.6583826194281244
 30
0.0
 10
1.5307337294603607
 20
3.695518130045151
 30
0.0
 10
1.4553482521727643
 20
3.7183860645724915
 30
0.0
 10
1.3844682283099725
 20
3.752765343689936
 30
0.0
 10
1.3082430795969748
 20
3.772656027919153
 30
0.0
 10
1.2360679774997885
 20
3.804226065180613
 30
0.0
 10
1.1591206910157896
 20
3.821108829118257
 30
0.0
 10
1.0857617994602964
 20
3.8498209458145864
 30
0.0
 10
1.008211022343265
 20
3.8636697574592596
 30
0.0
 10
0.9337814554236205
 20
3.8894796815907067
 30
0.0
 10
0.855746765352104
 20
3.9002731870855727
 30
0.0
 10
0.7803612880645125
 20
3.9231411216129204
 30
0.0
 10
0.701963008873885
 20
3.930862678151175
 30
0.0
 10
0.6257378601609236
 20
3.950753362380553
 30
0.0
 10
0.5470968763152714
 20
3.9553910638816756
 30
0.0
 10
0.47014958983135047
 20
3.9722738278197047
 30
0.0
 10
0.3913871600277581
 20
3.9738205232837487
 30
0.0
 10
0.31383638291138216
 20
3.987669334932512
 30
0.0
 10
0.23507395310784698
 20
3.9861226394654206
 30
0.0
 10
0.1570392630362762
 20
3.996916144962894
 30
0.0
 10
0.07839827919063519
 20
3.9922784434617307
 30
0.0
 10
1.1102230246251565e-16
 20
4.000000000000005
 30
0.0
 10
-0.07839827919062325
 20
3.9922784434617244
 30
0.0
 10
-0.1570392630362745
 20
3.9969161449628925
 30
0.0
 10
-0.23507395310778617
 20
3.9861226394679634
 30
0.0
 10
-0.31383638291138016
 20
3.9876693349325123
 30
0.0
 10
-0.3913871600276905
 20
3.9738205232838215
 30
0.0
 10
-0.47014958983134847
 20
3.972273827819707
 30
0.0
 10
-0.5470968763153137
 20
3.9553910638819185
 30
0.0
 10
-0.6257378601609224
 20
3.9507533623805524
 30
0.0
 10
-0.7019630088738926
 20
3.9308626781511906
 30
0.0
 10
-0.7803612880645128
 20
3.92314112161292
 30
0.0
 10
-0.8557467653521029
 20
3.90027318708557
 30
0.0
 10
-0.9337814554236226
 20
3.88947968159071
 30
0.0
 10
-1.0082110223439074
 20
3.863669757462859
 30
0.0
 10
-1.0857617994602973
 20
3.849820945814589
 30
0.0
 10
-1.1591206910158633
 20
3.821108829118631
 30
0.0
 10
-1.2360679774997898
 20
3.804226065180617
 30
0.0
 10
-1.3082430795960147
 20
3.772656027917029
 30
0.0
 10
-1.3844682283099723
 20
3.752765343689937
 30
0.0
 10
-1.455348252172781
 20
3.718386064572485
 30
0.0
 10
-1.5307337294603565
 20
3.6955181300451425
 30
0.0
 10
-1.6002093832294104
 20
3.658382619428121
 30
0.0
 10
-1.6746389501497132
 20
3.632572695300327
 30
0.0
 10
-1.7426031074026214
 20
3.5927382134494565
 30
0.0
 10
-1.8159619989581868
 20
3.5640260967534703
 30
0.0
 10
-1.8823098638905778
 20
3.521554065552483
 30
0.0
 10
-1.954484965987819
 20
3.4899840282911883
 30
0.0
 10
-2.01911423500185
 20
3.4449399365350386
 30
0.0
 10
-2.0899942588637943
 20
3.410560657416372
 30
0.0
 10
-2.15280527830936
 20
3.363013959827194
 30
0.0
 10
-2.222280932078407
 20
3.3258784492101774
 30
0.0
 10
-2.2831768519169815
 20
3.2759024593506623
 30
0.0
 10
-2.351141009169892
 20
3.2360679774997907
 30
0.0
 10
-2.4100279323069156
 20
3.1837397547239332
 30
0.0
 10
-2.476375797239336
 20
3.1412677235229802
 30
0.0
 10
-2.533162924307694
 20
3.086667954157652
 30
0.0
 10
-2.597792193320732
 20
3.041623862400123
 30
0.0
 10
-2.652391962688537
 20
2.9848367353341425
 30
0.0
 10
-2.715202982131766
 20
2.9372900377427427
 30
0.0
 10
-2.767531204907609
 20
2.8784031146057183
 30
0.0
 10
-2.8284271247461916
 20
2.8284271247461916
 30
0.0
 10
-2.8784031146057107
 20
2.767531204907613
 30
0.0
 10
-2.9372900377427418
 20
2.715202982131767
 30
0.0
 10
-2.984836735331916
 20
2.6523919626862096
 30
0.0
 10
-3.041623862400125
 20
2.5977921933207346
 30
0.0
 10
-3.086667954157832
 20
2.533162924307786
 30
0.0
 10
-3.141267723522979
 20
2.4763757972393368
 30
0.0
 10
-3.1837397547264215
 20
2.410027932308508
 30
0.0
 10
-3.23606797749979
 20
2.351141009169893
 30
0.0
 10
-3.2759024593506556
 20
2.2831768519169886
 30
0.0
 10
-3.3258784492101805
 20
2.2222809320784087
 30
0.0
 10
-3.363013959827202
 20
2.152805278309352
 30
0.0
 10
-3.4105606574163683
 20
2.089994258863796
 30
0.0
 10
-3.4449399365338604
 20
2.019114235001029
 30
0.0
 10
-3.4899840282911905
 20
1.9544849659878207
 30
0.0
 10
-3.521554065552755
 20
1.8823098638907068
 30
0.0
 10
-3.5640260967534716
 20
1.8159619989581863
 30
0.0
 10
-3.5927382134481065
 20
1.7426031074020945
 30
0.0
 10
-3.6325726953003263
 20
1.6746389501497132
 30
0.0
 10
-3.6583826194281204
 20
1.600209383229419
 30
0.0
 10
-3.695518130045145
 20
1.5307337294603576
 30
0.0
 10
-3.7183860645725
 20
1.4553482521727696
 30
0.0
 10
-3.752765343689934
 20
1.3844682283099714
 30
0.0
 10
-3.7726560279193344
 20
1.3082430795970224
 30
0.0
 10
-3.8042260651806146
 20
1.2360679774997907
 30
0.0
 10
-3.82110882911851
 20
1.1591206910158443
 30
0.0
 10
-3.8498209458145887
 20
1.0857617994602973
 30
0.0
 10
-3.863669757459245
 20
1.0082110223432608
 30
0.0
 10
-3.8894796815907045
 20
0.9337814554236208
 30
0.0
 10
-3.90027318708558
 20
0.8557467653521121
 30
0.0
 10
-3.923141121612929
 20
0.7803612880645163
 30
0.0
 10
-3.9308626781511977
 20
0.7019630088738849
 30
0.0
 10
-3.950753362380549
 20
0.6257378601609234
 30
0.0
 10
-3.9553910638817076
 20
0.5470968763152759
 30
0.0
 10
-3.9722738278197016
 20
0.47014958983134997
 30
0.0
 10
-3.973820523283705
 20
0.3913871600277555
 30
0.0
 10
-3.9876693349325127
 20
0.31383638291138033
 30
0.0
 10
-3.9861226394696803
 20
0.23507395310775947
 30
0.0
 10
-3.9969161449628934
 20
0.15703926303627513
 30
0.0
 10
-3.9922784434617298
 20
0.07839827919062559
 30
0.0
 10
-4.000000000000001
 20
0
 30
0.0
 10
-3.992278443461728
 20
-0.07839827919062314
 30
0.0
 10
-3.9969161449628925
 20
-0.15703926303627497
 30
0.0
 10
-3.9861226394679714
 20
-0.2350739531077891
 30
0.0
 10
-3.9876693349325127
 20
-0.31383638291137983
 30
0.0
 10
-3.9738205232843895
 20
-0.39138716002779383
 30
0.0
 10
-3.9722738278197065
 20
-0.47014958983135036
 30
0.0
 10
-3.9553910638798793
 20
-0.5470968763148748
 30
0.0
 10
-3.950753362380552
 20
-0.6257378601609234
 30
0.0
 10
-3.9308626781511937
 20
-0.7019630088738817
 30
0.0
 10
-3.9231411216129217
 20
-0.7803612880645134
 30
0.0
 10
-3.9002731870855714
 20
-0.8557467653520993
 30
0.0
 10
-3.88947968159071
 20
-0.9337814554236218
 30
0.0
 10
-3.863669757462931
 20
-1.0082110223439333
 30
0.0
 10
-3.8498209458145887
 20
-1.0857617994602957
 30
0.0
 10
-3.8211088291185478
 20
-1.1591206910158374
 30
0.0
 10
-3.804226065180615
 20
-1.2360679774997891
 30
0.0
 10
-3.772656027917799
 20
-1.3082430795963558
 30
0.0
 10
-3.7527653436899358
 20
-1.3844682283099714
 30
0.0
 10
-3.718386064572489
 20
-1.4553482521727714
 30
0.0
 10
-3.695518130045143
 20
-1.5307337294603576
 30
0.0
 10
-3.658382619428126
 20
-1.6002093832294162
 30
0.0
 10
-3.6325726953003272
 20
-1.6746389501497116
 30
0.0
 10
-3.5927382134494508
 20
-1.7426031074026138
 30
0.0
 10
-3.5640260967534707
 20
-1.8159619989581866
 30
0.0
 10
-3.521554065552336
 20
-1.8823098638904792
 30
0.0
 10
-3.489984028291188
 20
-1.954484965987819
 30
0.0
 10
-3.444939936531476
 20
-2.0191142349993694
 30
0.0
 10
-3.410560657416368
 20
-2.089994258863795
 30
0.0
 10
-3.363013959827205
 20
-2.152805278309356
 30
0.0
 10
-3.325878449210184
 20
-2.22228093207841
 30
0.0
 10
-3.275902459350662
 20
-2.2831768519169815
 30
0.0
 10
-3.2360679774997907
 20
-2.3511410091698925
 30
0.0
 10
-3.183739754723924
 20
-2.41002793230691
 30
0.0
 10
-3.141267723522978
 20
-2.4763757972393345
 30
0.0
 10
-3.0866679541572766
 20
-2.533162924307327
 30
0.0
 10
-3.0416238624001255
 20
-2.5977921933207346
 30
0.0
 10
-2.9848367353450094
 20
-2.65239196269983
 30
0.0
 10
-2.937290037742742
 20
-2.7152029821317663
 30
0.0
 10
-2.8784031146057116
 20
-2.767531204907619
 30
0.0
 10
-2.8284271247461925
 20
-2.8284271247461925
 30
0.0
 10
-2.7675312049076113
 20
-2.8784031146057103
 30
0.0
 10
-2.715202982131768
 20
-2.937290037742742
 30
0.0
 10
-2.6523919626861887
 20
-2.984836735331879
 30
0.0
 10
-2.597792193320734
 20
-3.0416238624001237
 30
0.0
 10
-2.5331629243085487
 20
-3.0866679541589206
 30
0.0
 10
-2.4763757972393385
 20
-3.1412677235229793
 30
0.0
 10
-2.4100279323060807
 20
-3.1837397547226236
 30
0.0
 10
-2.351141009169893
 20
-3.236067977499789
 30
0.0
 10
-2.2831768519169735
 20
-3.275902459350661
 30
0.0
 10
-2.2222809320784047
 20
-3.325878449210176
 30
0.0
 10
-2.1528052783093514
 20
-3.3630139598272035
 30
0.0
 10
-2.0899942588637987
 20
-3.4105606574163723
 30
0.0
 10
-2.019114235001094
 20
-3.444939936534
 30
0.0
 10
-1.9544849659878194
 20
-3.489984028291188
 30
0.0
 10
-1.8823098638905131
 20
-3.521554065552313
 30
0.0
 10
-1.8159619989581877
 20
-3.564026096753472
 30
0.0
 10
-1.7426031074023614
 20
-3.5927382134487935
 30
0.0
 10
-1.674638950149711
 20
-3.632572695300323
 30
0.0
 10
-1.6002093832294073
 20
-3.658382619428128
 30
0.0
 10
-1.53073372946036
 20
-3.695518130045145
 30
0.0
 10
-1.4553482521727736
 20
-3.71838606457251
 30
0.0
 10
-1.3844682283099723
 20
-3.752765343689933
 30
0.0
 10
-1.3082430795970041
 20
-3.7726560279192607
 30
0.0
 10
-1.2360679774997911
 20
-3.8042260651806155
 30
0.0
 10
-1.1591206910158531
 20
-3.8211088291185664
 30
0.0
 10
-1.085761799460297
 20
-3.8498209458145904
 30
0.0
 10
-1.0082110223438714
 20
-3.8636697574626657
 30
0.0
 10
-0.9337814554236221
 20
-3.889479681590709
 30
0.0
 10
-0.8557467653520949
 20
-3.9002731870855767
 30
0.0
 10
-0.7803612880645145
 20
-3.923141121612918
 30
0.0
 10
-0.7019630088738902
 20
-3.9308626781511893
 30
0.0
 10
-0.6257378601609243
 20
-3.9507533623805537
 30
0.0
 10
-0.5470968763152717
 20
-3.9553910638817045
 30
0.0
 10
-0.47014958983134897
 20
-3.972273827819702
 30
0.0
 10
-0.3913871600277626
 20
-3.9738205232840476
 30
0.0
 10
-0.31383638291138016
 20
-3.9876693349325105
 30
0.0
 10
-0.23507395310742363
 20
-3.9861226394869127
 30
0.0
 10
-0.1570392630362758
 20
-3.9969161449628934
 30
0.0
 10
-0.0783982791906217
 20
-3.9922784434617253
 30
0.0
  0
LWPOLYLINE
  8
OpenJsCad
  90
621
  70
1
 10
12.141411934208586
 20
-3.944983877501639
 30
0.0
 10
12.699999999999998
 20
-3.999999999999999
 30
0.0
 10
13.480361288064513
 20
-3.9231411216129217
 30
0.0
 10
14.23073372946036
 20
-3.6955181300451465
 30
0.0
 10
14.922280932078406
 20
-3.325878449210182
 30
0.0
 10
15.52842712474619
 20
-2.8284271247461907
 30
0.0
 10
15.874999999999998
 20
-2.4061268543762635
 30
0.0
 10
16.221572875253806
 20
-2.82842712474619
 30
0.0
 10
16.82771906792159
 20
-3.325878449210181
 30
0.0
 10
17.519266270539635
 20
-3.695518130045146
 30
0.0
 10
18.26963871193548
 20
-3.9231411216129213
 30
0.0
 10
19.049999999999997
 20
-4
 30
0.0
 10
19.83036128806451
 20
-3.9231411216129217
 30
0.0
 10
20.580733729460356
 20
-3.6955181300451465
 30
0.0
 10
21.272280932078406
 20
-3.325878449210182
 30
0.0
 10
21.878427124746185
 20
-2.8284271247461907
 30
0.0
 10
22.024999999999995
 20
-2.6498275594938523
 30
0.0
 10
22.17157287525381
 20
-2.8284271247461934
 30
0.0
 10
22.77771906792159
 20
-3.325878449210181
 30
0.0
 10
23.469266270539638
 20
-3.695518130045146
 30
0.0
 10
24.219638711935485
 20
-3.9231411216129213
 30
0.0
 10
25
 20
-4
 30
0.0
 10
25.2
 20
-3.9803017193285672
 30
0.0
 10
25.4
 20
-4
 30
0.0
 10
26.18036128806451
 20
-3.9231411216129217
 30
0.0
 10
26.930733729460357
 20
-3.6955181300451465
 30
0.0
 10
27.622280932078407
 20
-3.325878449210182
 30
0.0
 10
28.228427124746187
 20
-2.8284271247461907
 30
0.0
 10
28.725878449210178
 20
-2.2222809320784087
 30
0.0
 10
29.095518130045143
 20
-1.5307337294603616
 30
0.0
 10
29.32314112161292
 20
-0.7803612880645149
 30
0.0
 10
29.4
 20
0
 30
0.0
 10
29.32314112161292
 20
0.780361288064513
 30
0.0
 10
29.095518130045146
 20
1.5307337294603591
 30
0.0
 10
28.725878449210178
 20
2.2222809320784087
 30
0.0
 10
28.22842712474619
 20
2.82842712474619
 30
0.0
 10
27.622280932078407
 20
3.325878449210181
 30
0.0
 10
26.930733729460357
 20
3.695518130045147
 30
0.0
 10
26.18036128806451
 20
3.9231411216129217
 30
0.0
 10
25.4
 20
4
 30
0.0
 10
25.2
 20
3.9803017193285672
 30
0.0
 10
25
 20
4
 30
0.0
 10
24.219638711935488
 20
3.9231411216129217
 30
0.0
 10
23.46926627053964
 20
3.695518130045147
 30
0.0
 10
22.77771906792159
 20
3.3258784492101814
 30
0.0
 10
22.17157287525381
 20
2.8284271247461903
 30
0.0
 10
22.025000000000002
 20
2.649827559493854
 30
0.0
 10
21.878427124746192
 20
2.82842712474619
 30
0.0
 10
21.272280932078406
 20
3.325878449210181
 30
0.0
 10
20.580733729460356
 20
3.695518130045147
 30
0.0
 10
19.83036128806451
 20
3.9231411216129217
 30
0.0
 10
19.049999999999997
 20
4
 30
0.0
 10
18.269638711935485
 20
3.9231411216129217
 30
0.0
 10
17.51926627053964
 20
3.695518130045147
 30
0.0
 10
16.82771906792159
 20
3.3258784492101814
 30
0.0
 10
16.221572875253806
 20
2.8284271247461903
 30
0.0
 10
15.874999999999998
 20
2.4061268543762635
 30
0.0
 10
15.528427124746191
 20
2.82842712474619
 30
0.0
 10
14.922280932078408
 20
3.325878449210181
 30
0.0
 10
14.230733729460358
 20
3.695518130045147
 30
0.0
 10
13.480361288064513
 20
3.9231411216129217
 30
0.0
 10
12.7
 20
4
 30
0.0
 10
12.141411934208598
 20
3.944983877501641
 30
0.0
 10
12.625656837731727
 20
4.228804726614619
 30
0.0
 10
13.211805866304575
 20
4.749669721982642
 30
0.0
 10
13.6850764859782
 20
5.374878445250614
 30
0.0
 10
14.027281172251767
 20
6.080404475804434
 30
0.0
 10
14.225269190942383
 20
6.839134843953484
 30
0.0
 10
14.257430665849537
 20
7.3844933643306785
 30
0.0
 10
14.786035882681823
 20
7.246555693791059
 30
0.0
 10
15.568813005879022
 20
7.200392911208719
 30
0.0
 10
16.345555198266364
 20
7.307829374580905
 30
0.0
 10
17.086412692992457
 20
7.564736360871286
 30
0.0
 10
17.76291475201264
 20
7.961241078671822
 30
0.0
 10
18.34906378058549
 20
8.482106074039843
 30
0.0
 10
18.822334400259113
 20
9.107314797307817
 30
0.0
 10
19.164539086532685
 20
9.812840827861638
 30
0.0
 10
19.362527105223297
 20
10.571571196010687
 30
0.0
 10
19.376128861696856
 20
10.802214653948099
 30
0.0
 10
19.59968699921276
 20
10.743877944931274
 30
0.0
 10
20.38246412240996
 20
10.697715162348938
 30
0.0
 10
21.159206314797306
 20
10.805151625721122
 30
0.0
 10
21.900063809523395
 20
11.062058612011501
 30
0.0
 10
22.57656586854358
 20
11.458563329812039
 30
0.0
 10
22.726790908544384
 20
11.59205662409369
 30
0.0
 10
22.900172666293557
 20
11.693677430729027
 30
0.0
 10
23.486321694866405
 20
12.214542426097049
 30
0.0
 10
23.959592314540032
 20
12.839751149365021
 30
0.0
 10
24.3017970008136
 20
13.545277179918845
 30
0.0
 10
24.499785019504213
 20
14.30400754806789
 30
0.0
 10
24.545947802086555
 20
15.08678467126509
 30
0.0
 10
24.43851133871437
 20
15.863526863652433
 30
0.0
 10
24.181604352423992
 20
16.604384358378528
 30
0.0
 10
23.785099634623453
 20
17.28088641739871
 30
0.0
 10
23.26423463925543
 20
17.86703544597156
 30
0.0
 10
22.63902591598746
 20
18.340306065645187
 30
0.0
 10
21.933499885433637
 20
18.682510751918752
 30
0.0
 10
21.174769517284588
 20
18.88049877060937
 30
0.0
 10
20.39199239408739
 20
18.92666155319171
 30
0.0
 10
19.615250201700043
 20
18.819225089819522
 30
0.0
 10
18.87439270697395
 20
18.56231810352914
 30
0.0
 10
18.19789064795377
 20
18.165813385728605
 30
0.0
 10
18.04766560795297
 20
18.032320091446955
 30
0.0
 10
17.874283850203792
 20
17.930699284811617
 30
0.0
 10
17.288134821630944
 20
17.409834289443594
 30
0.0
 10
16.81486420195732
 20
16.784625566175624
 30
0.0
 10
16.47265951568375
 20
16.0790995356218
 30
0.0
 10
16.274671496993133
 20
15.320369167472752
 30
0.0
 10
16.261069740519574
 20
15.089725709535344
 30
0.0
 10
16.037511603003672
 20
15.148062418552165
 30
0.0
 10
15.254734479806473
 20
15.194225201134504
 30
0.0
 10
14.477992287419124
 20
15.086788737762319
 30
0.0
 10
13.737134792693034
 20
14.829881751471936
 30
0.0
 10
13.060632733672854
 20
14.433377033671402
 30
0.0
 10
12.474483705100006
 20
13.91251203830338
 30
0.0
 10
12.001213085426379
 20
13.287303315035409
 30
0.0
 10
11.65900839915281
 20
12.581777284481584
 30
0.0
 10
11.461020380462195
 20
11.823046916332533
 30
0.0
 10
11.428858905555042
 20
11.277688395955343
 30
0.0
 10
10.900253688722756
 20
11.41562606649496
 30
0.0
 10
10.117476565525557
 20
11.461788849077301
 30
0.0
 10
9.340734373138211
 20
11.354352385705116
 30
0.0
 10
8.59987687841212
 20
11.097445399414735
 30
0.0
 10
7.923374819391939
 20
10.700940681614199
 30
0.0
 10
7.503805246754517
 20
10.32810187636965
 30
0.0
 10
7.728741893742447
 20
10.84234977944866
 30
0.0
 10
7.896789656381538
 20
11.6082681671171
 30
0.0
 10
7.912185163494344
 20
12.39225413985983
 30
0.0
 10
7.7743367743764225
 20
13.164179556408744
 30
0.0
 10
7.488541925315305
 20
13.894379755906636
 30
0.0
 10
7.194007409589595
 20
14.35448810756136
 30
0.0
 10
7.702735741800934
 20
14.5536005386692
 30
0.0
 10
8.363149540082084
 20
14.976358911899693
 30
0.0
 10
8.92839760524287
 20
15.519834442101935
 30
0.0
 10
9.376757771133935
 20
16.16314166943485
 30
0.0
 10
9.690999808023362
 20
16.88155865792288
 30
0.0
 10
9.859047570662453
 20
17.647477045591323
 30
0.0
 10
9.87444307777526
 20
18.431463018334053
 30
0.0
 10
9.736594688657338
 20
19.203388434882967
 30
0.0
 10
9.45079983959622
 20
19.933588634380857
 30
0.0
 10
9.326235068623328
 20
20.128178023354057
 30
0.0
 10
9.541386858331876
 20
20.212386810625365
 30
0.0
 10
10.201800656613022
 20
20.635145183855858
 30
0.0
 10
10.767048721773808
 20
21.178620714058102
 30
0.0
 10
11.215408887664873
 20
21.821927941391017
 30
0.0
 10
11.5296509245543
 20
22.540344929879048
 30
0.0
 10
11.572720145236913
 20
22.73664333662552
 30
0.0
 10
11.653257722304279
 20
22.920767536397108
 30
0.0
 10
11.82130548494337
 20
23.686685924065547
 30
0.0
 10
11.836700992056176
 20
24.470671896808277
 30
0.0
 10
11.698852602938254
 20
25.242597313357194
 30
0.0
 10
11.413057753877137
 20
25.97279751285508
 30
0.0
 10
10.990299380646643
 20
26.633211311136236
 30
0.0
 10
10.446823850444401
 20
27.19845937629702
 30
0.0
 10
9.803516623111486
 20
27.646819542188087
 30
0.0
 10
9.085099634623454
 20
27.961061579077512
 30
0.0
 10
8.319181246955015
 20
28.129109341716603
 30
0.0
 10
7.535195274212285
 20
28.144504848829413
 30
0.0
 10
6.763269857663367
 20
28.006656459711486
 30
0.0
 10
6.033069658165478
 20
27.72086161065037
 30
0.0
 10
5.372655859884329
 20
27.29810323741988
 30
0.0
 10
4.807407794723542
 20
26.75462770721763
 30
0.0
 10
4.359047628832475
 20
26.111320479884714
 30
0.0
 10
4.044805591943051
 20
25.392903491396687
 30
0.0
 10
4.001736371260439
 20
25.196605084650216
 30
0.0
 10
3.921198794193072
 20
25.012480884878627
 30
0.0
 10
3.7531510315539816
 20
24.24656249721019
 30
0.0
 10
3.7377555244411744
 20
23.46257652446746
 30
0.0
 10
3.8756039135590967
 20
22.690651107918544
 30
0.0
 10
4.161398762620214
 20
21.96045090842065
 30
0.0
 10
4.285963533593105
 20
21.76586151944745
 30
0.0
 10
4.070811743884563
 20
21.68165273217615
 30
0.0
 10
3.4103979456034126
 20
21.258894358945653
 30
0.0
 10
2.8451498804426243
 20
20.715418828743406
 30
0.0
 10
2.3967897145515593
 20
20.07211160141049
 30
0.0
 10
2.082547677662134
 20
19.35369461292246
 30
0.0
 10
1.9144999150230433
 20
18.58777622525402
 30
0.0
 10
1.8991044079102362
 20
17.80379025251129
 30
0.0
 10
2.0369527970281585
 20
17.031864835962377
 30
0.0
 10
2.3227476460892755
 20
16.301664636464483
 30
0.0
 10
2.6172821618149853
 20
15.84155628480976
 30
0.0
 10
2.108553829603646
 20
15.642443853701923
 30
0.0
 10
1.4481400313224966
 20
15.219685480471428
 30
0.0
 10
0.8828919661617083
 20
14.676209950269184
 30
0.0
 10
0.4345318002706442
 20
14.03290272293627
 30
0.0
 10
0.12028976338121833
 20
13.314485734448239
 30
0.0
 10
9.645062526431047e-16
 20
12.766235997736015
 30
0.0
 10
-0.12028976338121655
 20
13.31448573444824
 30
0.0
 10
-0.434531800270642
 20
14.03290272293627
 30
0.0
 10
-0.8828919661617074
 20
14.676209950269186
 30
0.0
 10
-1.4481400313224935
 20
15.219685480471428
 30
0.0
 10
-2.1085538296036432
 20
15.642443853701923
 30
0.0
 10
-2.617282161814983
 20
15.841556284809762
 30
0.0
 10
-2.322747646089274
 20
16.301664636464487
 30
0.0
 10
-2.0369527970281567
 20
17.031864835962374
 30
0.0
 10
-1.899104407910234
 20
17.80379025251129
 30
0.0
 10
-1.9144999150230406
 20
18.58777622525402
 30
0.0
 10
-2.0825476776621317
 20
19.353694612922464
 30
0.0
 10
-2.396789714551557
 20
20.07211160141049
 30
0.0
 10
-2.8451498804426216
 20
20.715418828743406
 30
0.0
 10
-3.4103979456034086
 20
21.258894358945653
 30
0.0
 10
-4.0708117438845575
 20
21.681652732176143
 30
0.0
 10
-4.285963533593101
 20
21.765861519447448
 30
0.0
 10
-4.161398762620209
 20
21.960450908420654
 30
0.0
 10
-3.875603913559094
 20
22.69065110791854
 30
0.0
 10
-3.7377555244411713
 20
23.46257652446746
 30
0.0
 10
-3.753151031553978
 20
24.24656249721019
 30
0.0
 10
-3.921198794193069
 20
25.01248088487863
 30
0.0
 10
-4.001736371260435
 20
25.19660508465022
 30
0.0
 10
-4.044805591943048
 20
25.39290349139669
 30
0.0
 10
-4.359047628832473
 20
26.111320479884718
 30
0.0
 10
-4.807407794723538
 20
26.754627707217633
 30
0.0
 10
-5.3726558598843255
 20
27.29810323741988
 30
0.0
 10
-6.0330696581654735
 20
27.72086161065037
 30
0.0
 10
-6.763269857663365
 20
28.006656459711486
 30
0.0
 10
-7.535195274212279
 20
28.14450484882941
 30
0.0
 10
-8.31918124695501
 20
28.129109341716607
 30
0.0
 10
-9.085099634623452
 20
27.961061579077516
 30
0.0
 10
-9.80351662311148
 20
27.64681954218809
 30
0.0
 10
-10.446823850444396
 20
27.198459376297023
 30
0.0
 10
-10.990299380646642
 20
26.633211311136236
 30
0.0
 10
-11.413057753877133
 20
25.972797512855088
 30
0.0
 10
-11.698852602938253
 20
25.2425973133572
 30
0.0
 10
-11.836700992056173
 20
24.47067189680828
 30
0.0
 10
-11.821305484943368
 20
23.68668592406555
 30
0.0
 10
-11.653257722304277
 20
22.92076753639711
 30
0.0
 10
-11.57272014523691
 20
22.736643336625523
 30
0.0
 10
-11.529650924554298
 20
22.54034492987905
 30
0.0
 10
-11.215408887664873
 20
21.821927941391024
 30
0.0
 10
-10.767048721773808
 20
21.17862071405811
 30
0.0
 10
-10.20180065661302
 20
20.63514518385586
 30
0.0
 10
-9.54138685833187
 20
20.212386810625368
 30
0.0
 10
-9.32623506862333
 20
20.128178023354067
 30
0.0
 10
-9.450799839596218
 20
19.933588634380865
 30
0.0
 10
-9.736594688657334
 20
19.203388434882974
 30
0.0
 10
-9.874443077775258
 20
18.431463018334053
 30
0.0
 10
-9.859047570662451
 20
17.647477045591323
 30
0.0
 10
-9.69099980802336
 20
16.881558657922884
 30
0.0
 10
-9.376757771133935
 20
16.163141669434857
 30
0.0
 10
-8.928397605242871
 20
15.519834442101942
 30
0.0
 10
-8.363149540082082
 20
14.976358911899693
 30
0.0
 10
-7.702735741800932
 20
14.553600538669203
 30
0.0
 10
-7.194007409589594
 20
14.354488107561362
 30
0.0
 10
-7.488541925315302
 20
13.894379755906641
 30
0.0
 10
-7.77433677437642
 20
13.164179556408747
 30
0.0
 10
-7.912185163494343
 20
12.392254139859832
 30
0.0
 10
-7.896789656381536
 20
11.6082681671171
 30
0.0
 10
-7.728741893742446
 20
10.84234977944866
 30
0.0
 10
-7.503805246754513
 20
10.328101876369647
 30
0.0
 10
-7.92337481939194
 20
10.7009406816142
 30
0.0
 10
-8.59987687841212
 20
11.097445399414735
 30
0.0
 10
-9.340734373138211
 20
11.354352385705116
 30
0.0
 10
-10.117476565525555
 20
11.461788849077301
 30
0.0
 10
-10.900253688722755
 20
11.415626066494962
 30
0.0
 10
-11.428858905555042
 20
11.277688395955344
 30
0.0
 10
-11.461020380462195
 20
11.823046916332535
 30
0.0
 10
-11.65900839915281
 20
12.581777284481586
 30
0.0
 10
-12.001213085426375
 20
13.287303315035407
 30
0.0
 10
-12.474483705100003
 20
13.91251203830338
 30
0.0
 10
-13.060632733672854
 20
14.433377033671404
 30
0.0
 10
-13.737134792693034
 20
14.82988175147194
 30
0.0
 10
-14.477992287419124
 20
15.086788737762319
 30
0.0
 10
-15.254734479806473
 20
15.194225201134506
 30
0.0
 10
-16.03751160300367
 20
15.148062418552165
 30
0.0
 10
-16.261069740519574
 20
15.08972570953534
 30
0.0
 10
-16.27467149699313
 20
15.320369167472757
 30
0.0
 10
-16.47265951568375
 20
16.079099535621804
 30
0.0
 10
-16.814864201957317
 20
16.784625566175624
 30
0.0
 10
-17.28813482163094
 20
17.409834289443598
 30
0.0
 10
-17.874283850203792
 20
17.93069928481162
 30
0.0
 10
-18.04766560795297
 20
18.03232009144696
 30
0.0
 10
-18.19789064795377
 20
18.16581338572861
 30
0.0
 10
-18.87439270697395
 20
18.562318103529144
 30
0.0
 10
-19.615250201700043
 20
18.819225089819525
 30
0.0
 10
-20.39199239408739
 20
18.926661553191714
 30
0.0
 10
-21.174769517284584
 20
18.88049877060937
 30
0.0
 10
-21.933499885433637
 20
18.682510751918755
 30
0.0
 10
-22.639025915987453
 20
18.340306065645187
 30
0.0
 10
-23.26423463925543
 20
17.867035445971563
 30
0.0
 10
-23.785099634623453
 20
17.280886417398712
 30
0.0
 10
-24.181604352423992
 20
16.60438435837853
 30
0.0
 10
-24.43851133871437
 20
15.863526863652442
 30
0.0
 10
-24.545947802086555
 20
15.086784671265093
 30
0.0
 10
-24.499785019504216
 20
14.304007548067899
 30
0.0
 10
-24.3017970008136
 20
13.545277179918848
 30
0.0
 10
-23.959592314540032
 20
12.839751149365025
 30
0.0
 10
-23.486321694866405
 20
12.214542426097053
 30
0.0
 10
-22.900172666293557
 20
11.69367743072903
 30
0.0
 10
-22.726790908544384
 20
11.592056624093694
 30
0.0
 10
-22.57656586854358
 20
11.45856332981204
 30
0.0
 10
-21.9000638095234
 20
11.062058612011507
 30
0.0
 10
-21.15920631479731
 20
10.805151625721123
 30
0.0
 10
-20.38246412240996
 20
10.697715162348938
 30
0.0
 10
-19.59968699921276
 20
10.74387794493128
 30
0.0
 10
-19.376128861696863
 20
10.802214653948106
 30
0.0
 10
-19.3625271052233
 20
10.571571196010694
 30
0.0
 10
-19.164539086532685
 20
9.812840827861642
 30
0.0
 10
-18.822334400259113
 20
9.107314797307819
 30
0.0
 10
-18.34906378058549
 20
8.482106074039846
 30
0.0
 10
-17.76291475201264
 20
7.961241078671824
 30
0.0
 10
-17.08641269299246
 20
7.564736360871288
 30
0.0
 10
-16.345555198266368
 20
7.3078293745809075
 30
0.0
 10
-15.568813005879022
 20
7.20039291120872
 30
0.0
 10
-14.786035882681823
 20
7.246555693791061
 30
0.0
 10
-14.257430665849537
 20
7.38449336433068
 30
0.0
 10
-14.225269190942385
 20
6.839134843953488
 30
0.0
 10
-14.027281172251769
 20
6.080404475804438
 30
0.0
 10
-13.685076485978202
 20
5.374878445250613
 30
0.0
 10
-13.211805866304575
 20
4.749669721982643
 30
0.0
 10
-12.625656837731725
 20
4.22880472661462
 30
0.0
 10
-12.141411934208595
 20
3.944983877501641
 30
0.0
 10
-12.7
 20
4.000000000000002
 30
0.0
 10
-13.480361288064513
 20
3.9231411216129235
 30
0.0
 10
-14.23073372946036
 20
3.6955181300451483
 30
0.0
 10
-14.922280932078406
 20
3.3258784492101836
 30
0.0
 10
-15.52842712474619
 20
2.8284271247461925
 30
0.0
 10
-15.874999999999998
 20
2.4061268543762653
 30
0.0
 10
-16.221572875253806
 20
2.8284271247461916
 30
0.0
 10
-16.82771906792159
 20
3.325878449210183
 30
0.0
 10
-17.519266270539635
 20
3.6955181300451483
 30
0.0
 10
-18.26963871193548
 20
3.9231411216129235
 30
0.0
 10
-19.049999999999997
 20
4.000000000000003
 30
0.0
 10
-19.83036128806451
 20
3.923141121612924
 30
0.0
 10
-20.580733729460356
 20
3.695518130045149
 30
0.0
 10
-21.272280932078406
 20
3.3258784492101845
 30
0.0
 10
-21.878427124746185
 20
2.8284271247461934
 30
0.0
 10
-22.024999999999995
 20
2.649827559493855
 30
0.0
 10
-22.17157287525381
 20
2.828427124746196
 30
0.0
 10
-22.77771906792159
 20
3.3258784492101836
 30
0.0
 10
-23.469266270539638
 20
3.6955181300451487
 30
0.0
 10
-24.219638711935485
 20
3.9231411216129244
 30
0.0
 10
-25
 20
4.000000000000003
 30
0.0
 10
-25.2
 20
3.9803017193285704
 30
0.0
 10
-25.4
 20
4.0000000000000036
 30
0.0
 10
-26.18036128806451
 20
3.923141121612925
 30
0.0
 10
-26.930733729460357
 20
3.6955181300451496
 30
0.0
 10
-27.622280932078407
 20
3.3258784492101854
 30
0.0
 10
-28.228427124746187
 20
2.8284271247461943
 30
0.0
 10
-28.725878449210178
 20
2.2222809320784123
 30
0.0
 10
-29.095518130045143
 20
1.5307337294603651
 30
0.0
 10
-29.32314112161292
 20
0.7803612880645184
 30
0.0
 10
-29.4
 20
3.600461589493218e-15
 30
0.0
 10
-29.32314112161292
 20
-0.7803612880645094
 30
0.0
 10
-29.095518130045146
 20
-1.5307337294603556
 30
0.0
 10
-28.725878449210178
 20
-2.222280932078405
 30
0.0
 10
-28.22842712474619
 20
-2.8284271247461863
 30
0.0
 10
-27.622280932078407
 20
-3.3258784492101774
 30
0.0
 10
-26.930733729460357
 20
-3.695518130045144
 30
0.0
 10
-26.18036128806451
 20
-3.9231411216129186
 30
0.0
 10
-25.4
 20
-3.999999999999997
 30
0.0
 10
-25.2
 20
-3.980301719328564
 30
0.0
 10
-25
 20
-3.999999999999997
 30
0.0
 10
-24.219638711935488
 20
-3.9231411216129186
 30
0.0
 10
-23.46926627053964
 20
-3.6955181300451443
 30
0.0
 10
-22.77771906792159
 20
-3.3258784492101787
 30
0.0
 10
-22.17157287525381
 20
-2.8284271247461876
 30
0.0
 10
-22.025000000000002
 20
-2.6498275594938514
 30
0.0
 10
-21.878427124746192
 20
-2.828427124746187
 30
0.0
 10
-21.272280932078406
 20
-3.3258784492101783
 30
0.0
 10
-20.580733729460356
 20
-3.6955181300451443
 30
0.0
 10
-19.83036128806451
 20
-3.9231411216129195
 30
0.0
 10
-19.049999999999997
 20
-3.999999999999998
 30
0.0
 10
-18.269638711935485
 20
-3.9231411216129195
 30
0.0
 10
-17.51926627053964
 20
-3.6955181300451447
 30
0.0
 10
-16.82771906792159
 20
-3.325878449210179
 30
0.0
 10
-16.221572875253806
 20
-2.8284271247461885
 30
0.0
 10
-15.874999999999998
 20
-2.4061268543762617
 30
0.0
 10
-15.528427124746191
 20
-2.828427124746188
 30
0.0
 10
-14.922280932078408
 20
-3.325878449210179
 30
0.0
 10
-14.230733729460358
 20
-3.695518130045145
 30
0.0
 10
-13.480361288064513
 20
-3.92314112161292
 30
0.0
 10
-12.7
 20
-3.9999999999999982
 30
0.0
 10
-12.141411934208595
 20
-3.944983877501639
 30
0.0
 10
-12.625656837731725
 20
-4.228804726614618
 30
0.0
 10
-13.211805866304575
 20
-4.74966972198264
 30
0.0
 10
-13.6850764859782
 20
-5.374878445250612
 30
0.0
 10
-14.027281172251767
 20
-6.080404475804432
 30
0.0
 10
-14.225269190942383
 20
-6.839134843953482
 30
0.0
 10
-14.257430665849537
 20
-7.384493364330677
 30
0.0
 10
-14.786035882681823
 20
-7.246555693791057
 30
0.0
 10
-15.568813005879022
 20
-7.200392911208717
 30
0.0
 10
-16.345555198266364
 20
-7.307829374580901
 30
0.0
 10
-17.086412692992457
 20
-7.564736360871284
 30
0.0
 10
-17.76291475201264
 20
-7.96124107867182
 30
0.0
 10
-18.34906378058549
 20
-8.48210607403984
 30
0.0
 10
-18.822334400259113
 20
-9.107314797307815
 30
0.0
 10
-19.164539086532685
 20
-9.812840827861637
 30
0.0
 10
-19.362527105223297
 20
-10.571571196010684
 30
0.0
 10
-19.376128861696856
 20
-10.802214653948097
 30
0.0
 10
-19.59968699921276
 20
-10.74387794493127
 30
0.0
 10
-20.38246412240996
 20
-10.697715162348935
 30
0.0
 10
-21.159206314797306
 20
-10.805151625721118
 30
0.0
 10
-21.900063809523395
 20
-11.062058612011498
 30
0.0
 10
-22.57656586854358
 20
-11.458563329812035
 30
0.0
 10
-22.72679090854438
 20
-11.592056624093686
 30
0.0
 10
-22.900172666293557
 20
-11.693677430729025
 30
0.0
 10
-23.486321694866405
 20
-12.214542426097045
 30
0.0
 10
-23.959592314540032
 20
-12.839751149365018
 30
0.0
 10
-24.3017970008136
 20
-13.545277179918841
 30
0.0
 10
-24.499785019504213
 20
-14.304007548067887
 30
0.0
 10
-24.545947802086555
 20
-15.086784671265086
 30
0.0
 10
-24.438511338714367
 20
-15.86352686365243
 30
0.0
 10
-24.181604352423992
 20
-16.604384358378525
 30
0.0
 10
-23.785099634623453
 20
-17.280886417398705
 30
0.0
 10
-23.26423463925543
 20
-17.867035445971556
 30
0.0
 10
-22.63902591598746
 20
-18.340306065645184
 30
0.0
 10
-21.933499885433637
 20
-18.68251075191875
 30
0.0
 10
-21.174769517284588
 20
-18.880498770609364
 30
0.0
 10
-20.39199239408739
 20
-18.926661553191707
 30
0.0
 10
-19.615250201700043
 20
-18.81922508981952
 30
0.0
 10
-18.87439270697395
 20
-18.562318103529137
 30
0.0
 10
-18.19789064795377
 20
-18.165813385728605
 30
0.0
 10
-18.047665607952972
 20
-18.03232009144695
 30
0.0
 10
-17.874283850203792
 20
-17.930699284811617
 30
0.0
 10
-17.288134821630944
 20
-17.409834289443594
 30
0.0
 10
-16.81486420195732
 20
-16.78462556617562
 30
0.0
 10
-16.47265951568375
 20
-16.079099535621797
 30
0.0
 10
-16.274671496993133
 20
-15.320369167472748
 30
0.0
 10
-16.261069740519574
 20
-15.08972570953534
 30
0.0
 10
-16.037511603003672
 20
-15.148062418552163
 30
0.0
 10
-15.254734479806473
 20
-15.1942252011345
 30
0.0
 10
-14.477992287419124
 20
-15.086788737762316
 30
0.0
 10
-13.737134792693034
 20
-14.829881751471934
 30
0.0
 10
-13.060632733672856
 20
-14.4333770336714
 30
0.0
 10
-12.474483705100006
 20
-13.912512038303378
 30
0.0
 10
-12.001213085426379
 20
-13.287303315035405
 30
0.0
 10
-11.65900839915281
 20
-12.581777284481582
 30
0.0
 10
-11.461020380462195
 20
-11.823046916332531
 30
0.0
 10
-11.428858905555042
 20
-11.277688395955341
 30
0.0
 10
-10.900253688722756
 20
-11.415626066494958
 30
0.0
 10
-10.117476565525557
 20
-11.461788849077298
 30
0.0
 10
-9.340734373138211
 20
-11.354352385705113
 30
0.0
 10
-8.59987687841212
 20
-11.097445399414733
 30
0.0
 10
-7.92337481939194
 20
-10.700940681614197
 30
0.0
 10
-7.503805246754517
 20
-10.328101876369649
 30
0.0
 10
-7.72874189374245
 20
-10.84234977944866
 30
0.0
 10
-7.896789656381539
 20
-11.6082681671171
 30
0.0
 10
-7.912185163494346
 20
-12.39225413985983
 30
0.0
 10
-7.7743367743764225
 20
-13.164179556408744
 30
0.0
 10
-7.488541925315306
 20
-13.894379755906636
 30
0.0
 10
-7.194007409589597
 20
-14.35448810756136
 30
0.0
 10
-7.702735741800936
 20
-14.5536005386692
 30
0.0
 10
-8.363149540082086
 20
-14.976358911899693
 30
0.0
 10
-8.928397605242871
 20
-15.519834442101933
 30
0.0
 10
-9.376757771133937
 20
-16.16314166943485
 30
0.0
 10
-9.690999808023363
 20
-16.88155865792288
 30
0.0
 10
-9.859047570662455
 20
-17.647477045591323
 30
0.0
 10
-9.874443077775261
 20
-18.431463018334053
 30
0.0
 10
-9.73659468865734
 20
-19.203388434882967
 30
0.0
 10
-9.450799839596222
 20
-19.933588634380857
 30
0.0
 10
-9.32623506862333
 20
-20.128178023354057
 30
0.0
 10
-9.541386858331878
 20
-20.212386810625365
 30
0.0
 10
-10.201800656613024
 20
-20.635145183855858
 30
0.0
 10
-10.767048721773811
 20
-21.178620714058102
 30
0.0
 10
-11.215408887664877
 20
-21.821927941391017
 30
0.0
 10
-11.529650924554304
 20
-22.540344929879048
 30
0.0
 10
-11.572720145236914
 20
-22.73664333662552
 30
0.0
 10
-11.653257722304282
 20
-22.920767536397108
 30
0.0
 10
-11.821305484943373
 20
-23.686685924065543
 30
0.0
 10
-11.83670099205618
 20
-24.470671896808277
 30
0.0
 10
-11.698852602938258
 20
-25.242597313357194
 30
0.0
 10
-11.413057753877139
 20
-25.97279751285508
 30
0.0
 10
-10.990299380646647
 20
-26.633211311136236
 30
0.0
 10
-10.446823850444403
 20
-27.19845937629702
 30
0.0
 10
-9.80351662311149
 20
-27.646819542188087
 30
0.0
 10
-9.085099634623457
 20
-27.961061579077512
 30
0.0
 10
-8.319181246955019
 20
-28.129109341716603
 30
0.0
 10
-7.535195274212288
 20
-28.144504848829413
 30
0.0
 10
-6.763269857663371
 20
-28.006656459711486
 30
0.0
 10
-6.0330696581654815
 20
-27.72086161065037
 30
0.0
 10
-5.372655859884333
 20
-27.29810323741988
 30
0.0
 10
-4.807407794723545
 20
-26.75462770721763
 30
0.0
 10
-4.359047628832479
 20
-26.111320479884718
 30
0.0
 10
-4.044805591943053
 20
-25.392903491396687
 30
0.0
 10
-4.001736371260441
 20
-25.196605084650216
 30
0.0
 10
-3.921198794193075
 20
-25.012480884878627
 30
0.0
 10
-3.753151031553984
 20
-24.246562497210192
 30
0.0
 10
-3.737755524441177
 20
-23.46257652446746
 30
0.0
 10
-3.8756039135590994
 20
-22.690651107918544
 30
0.0
 10
-4.161398762620216
 20
-21.96045090842065
 30
0.0
 10
-4.285963533593107
 20
-21.76586151944745
 30
0.0
 10
-4.0708117438845655
 20
-21.68165273217615
 30
0.0
 10
-3.4103979456034144
 20
-21.258894358945653
 30
0.0
 10
-2.845149880442626
 20
-20.715418828743406
 30
0.0
 10
-2.396789714551562
 20
-20.07211160141049
 30
0.0
 10
-2.0825476776621357
 20
-19.35369461292246
 30
0.0
 10
-1.914499915023045
 20
-18.587776225254025
 30
0.0
 10
-1.899104407910238
 20
-17.80379025251129
 30
0.0
 10
-2.0369527970281602
 20
-17.031864835962377
 30
0.0
 10
-2.3227476460892773
 20
-16.301664636464483
 30
0.0
 10
-2.617282161814987
 20
-15.84155628480976
 30
0.0
 10
-2.1085538296036477
 20
-15.642443853701923
 30
0.0
 10
-1.4481400313224984
 20
-15.219685480471428
 30
0.0
 10
-0.8828919661617101
 20
-14.676209950269184
 30
0.0
 10
-0.434531800270646
 20
-14.03290272293627
 30
0.0
 10
-0.12028976338121966
 20
-13.314485734448239
 30
0.0
 10
-2.2967738821932926e-15
 20
-12.766235997736015
 30
0.0
 10
0.12028976338121522
 20
-13.314485734448242
 30
0.0
 10
0.4345318002706411
 20
-14.032902722936269
 30
0.0
 10
0.8828919661617056
 20
-14.676209950269186
 30
0.0
 10
1.4481400313224917
 20
-15.219685480471428
 30
0.0
 10
2.1085538296036415
 20
-15.642443853701922
 30
0.0
 10
2.6172821618149813
 20
-15.841556284809762
 30
0.0
 10
2.3227476460892724
 20
-16.301664636464487
 30
0.0
 10
2.036952797028155
 20
-17.031864835962374
 30
0.0
 10
1.8991044079102322
 20
-17.80379025251129
 30
0.0
 10
1.914499915023038
 20
-18.58777622525402
 30
0.0
 10
2.082547677662129
 20
-19.353694612922464
 30
0.0
 10
2.3967897145515544
 20
-20.07211160141049
 30
0.0
 10
2.84514988044262
 20
-20.715418828743406
 30
0.0
 10
3.410397945603406
 20
-21.258894358945653
 30
0.0
 10
4.070811743884555
 20
-21.681652732176143
 30
0.0
 10
4.285963533593099
 20
-21.765861519447444
 30
0.0
 10
4.161398762620206
 20
-21.960450908420654
 30
0.0
 10
3.8756039135590923
 20
-22.69065110791854
 30
0.0
 10
3.7377555244411687
 20
-23.46257652446746
 30
0.0
 10
3.7531510315539753
 20
-24.24656249721019
 30
0.0
 10
3.9211987941930664
 20
-25.01248088487863
 30
0.0
 10
4.001736371260433
 20
-25.19660508465022
 30
0.0
 10
4.044805591943045
 20
-25.39290349139669
 30
0.0
 10
4.359047628832469
 20
-26.111320479884718
 30
0.0
 10
4.807407794723536
 20
-26.754627707217633
 30
0.0
 10
5.372655859884322
 20
-27.29810323741988
 30
0.0
 10
6.03306965816547
 20
-27.72086161065037
 30
0.0
 10
6.763269857663362
 20
-28.006656459711486
 30
0.0
 10
7.535195274212276
 20
-28.14450484882941
 30
0.0
 10
8.319181246955008
 20
-28.129109341716607
 30
0.0
 10
9.085099634623448
 20
-27.961061579077516
 30
0.0
 10
9.803516623111479
 20
-27.64681954218809
 30
0.0
 10
10.446823850444394
 20
-27.198459376297023
 30
0.0
 10
10.990299380646638
 20
-26.633211311136236
 30
0.0
 10
11.41305775387713
 20
-25.972797512855088
 30
0.0
 10
11.69885260293825
 20
-25.2425973133572
 30
0.0
 10
11.836700992056173
 20
-24.47067189680828
 30
0.0
 10
11.821305484943364
 20
-23.68668592406555
 30
0.0
 10
11.653257722304275
 20
-22.92076753639711
 30
0.0
 10
11.572720145236907
 20
-22.736643336625523
 30
0.0
 10
11.529650924554296
 20
-22.54034492987905
 30
0.0
 10
11.21540888766487
 20
-21.821927941391024
 30
0.0
 10
10.767048721773804
 20
-21.17862071405811
 30
0.0
 10
10.201800656613019
 20
-20.63514518385586
 30
0.0
 10
9.541386858331869
 20
-20.212386810625368
 30
0.0
 10
9.326235068623328
 20
-20.128178023354067
 30
0.0
 10
9.450799839596217
 20
-19.933588634380865
 30
0.0
 10
9.736594688657332
 20
-19.203388434882974
 30
0.0
 10
9.874443077775256
 20
-18.431463018334053
 30
0.0
 10
9.85904757066245
 20
-17.647477045591323
 30
0.0
 10
9.690999808023358
 20
-16.881558657922884
 30
0.0
 10
9.376757771133933
 20
-16.163141669434857
 30
0.0
 10
8.928397605242868
 20
-15.519834442101942
 30
0.0
 10
8.36314954008208
 20
-14.976358911899693
 30
0.0
 10
7.702735741800931
 20
-14.553600538669203
 30
0.0
 10
7.1940074095895925
 20
-14.354488107561362
 30
0.0
 10
7.4885419253153005
 20
-13.894379755906641
 30
0.0
 10
7.774336774376418
 20
-13.164179556408747
 30
0.0
 10
7.912185163494342
 20
-12.392254139859832
 30
0.0
 10
7.896789656381536
 20
-11.608268167117101
 30
0.0
 10
7.728741893742445
 20
-10.84234977944866
 30
0.0
 10
7.5038052467545135
 20
-10.32810187636965
 30
0.0
 10
7.923374819391936
 20
-10.700940681614199
 30
0.0
 10
8.599876878412115
 20
-11.097445399414736
 30
0.0
 10
9.340734373138208
 20
-11.354352385705118
 30
0.0
 10
10.11747656552555
 20
-11.461788849077301
 30
0.0
 10
10.900253688722751
 20
-11.415626066494962
 30
0.0
 10
11.428858905555039
 20
-11.277688395955344
 30
0.0
 10
11.461020380462191
 20
-11.823046916332537
 30
0.0
 10
11.659008399152807
 20
-12.581777284481587
 30
0.0
 10
12.001213085426372
 20
-13.287303315035409
 30
0.0
 10
12.474483705099999
 20
-13.91251203830338
 30
0.0
 10
13.060632733672849
 20
-14.433377033671405
 30
0.0
 10
13.73713479269303
 20
-14.82988175147194
 30
0.0
 10
14.477992287419118
 20
-15.08678873776232
 30
0.0
 10
15.254734479806466
 20
-15.194225201134508
 30
0.0
 10
16.037511603003665
 20
-15.148062418552167
 30
0.0
 10
16.261069740519563
 20
-15.08972570953534
 30
0.0
 10
16.274671496993125
 20
-15.320369167472757
 30
0.0
 10
16.472659515683745
 20
-16.079099535621804
 30
0.0
 10
16.81486420195731
 20
-16.784625566175627
 30
0.0
 10
17.288134821630937
 20
-17.409834289443598
 30
0.0
 10
17.87428385020379
 20
-17.930699284811624
 30
0.0
 10
18.04766560795296
 20
-18.03232009144696
 30
0.0
 10
18.197890647953766
 20
-18.16581338572861
 30
0.0
 10
18.874392706973946
 20
-18.562318103529147
 30
0.0
 10
19.615250201700036
 20
-18.81922508981953
 30
0.0
 10
20.39199239408738
 20
-18.926661553191714
 30
0.0
 10
21.17476951728458
 20
-18.88049877060937
 30
0.0
 10
21.93349988543363
 20
-18.68251075191876
 30
0.0
 10
22.63902591598745
 20
-18.34030606564519
 30
0.0
 10
23.264234639255424
 20
-17.867035445971567
 30
0.0
 10
23.785099634623446
 20
-17.280886417398715
 30
0.0
 10
24.181604352423985
 20
-16.604384358378535
 30
0.0
 10
24.438511338714363
 20
-15.863526863652446
 30
0.0
 10
24.54594780208655
 20
-15.086784671265097
 30
0.0
 10
24.49978501950421
 20
-14.304007548067899
 30
0.0
 10
24.301797000813593
 20
-13.54527717991885
 30
0.0
 10
23.959592314540025
 20
-12.839751149365028
 30
0.0
 10
23.4863216948664
 20
-12.214542426097056
 30
0.0
 10
22.900172666293553
 20
-11.693677430729032
 30
0.0
 10
22.726790908544377
 20
-11.592056624093695
 30
0.0
 10
22.576565868543575
 20
-11.458563329812044
 30
0.0
 10
21.900063809523395
 20
-11.06205861201151
 30
0.0
 10
21.159206314797302
 20
-10.805151625721129
 30
0.0
 10
20.382464122409957
 20
-10.697715162348942
 30
0.0
 10
19.599686999212757
 20
-10.743877944931281
 30
0.0
 10
19.37612886169686
 20
-10.802214653948107
 30
0.0
 10
19.362527105223297
 20
-10.571571196010696
 30
0.0
 10
19.164539086532677
 20
-9.812840827861645
 30
0.0
 10
18.82233440025911
 20
-9.10731479730782
 30
0.0
 10
18.349063780585485
 20
-8.48210607403985
 30
0.0
 10
17.762914752012634
 20
-7.961241078671827
 30
0.0
 10
17.086412692992457
 20
-7.564736360871292
 30
0.0
 10
16.345555198266364
 20
-7.30782937458091
 30
0.0
 10
15.568813005879019
 20
-7.200392911208725
 30
0.0
 10
14.78603588268182
 20
-7.246555693791063
 30
0.0
 10
14.257430665849533
 20
-7.384493364330683
 30
0.0
 10
14.225269190942381
 20
-6.83913484395349
 30
0.0
 10
14.027281172251765
 20
-6.080404475804441
 30
0.0
 10
13.685076485978199
 20
-5.374878445250616
 30
0.0
 10
13.211805866304573
 20
-4.749669721982645
 30
0.0
 10
12.625656837731723
 20
-4.228804726614622
 30
0.0
 10
12.141411934208586
 20
-3.944983877501639
 30
0.0
  0
LWPOLYLINE
  8
OpenJsCad
  90
121
  70
1
 10
10.852442614161589
 20
3.5261723575784316
 30
0.0
 10
10.477719067921592
 20
3.3258784492101823
 30
0.0
 10
9.87157287525381
 20
2.8284271247461903
 30
0.0
 10
9.374121550789818
 20
2.2222809320784087
 30
0.0
 10
9.004481869954851
 20
1.5307337294603596
 30
0.0
 10
8.776858878387078
 20
0.7803612880645144
 30
0.0
 10
8.7
 20
4.898587196589413e-16
 30
0.0
 10
8.776858878387078
 20
-0.7803612880645134
 30
0.0
 10
9.004481869954851
 20
-1.5307337294603587
 30
0.0
 10
9.374121550789818
 20
-2.222280932078408
 30
0.0
 10
9.871572875253808
 20
-2.82842712474619
 30
0.0
 10
10.47771906792159
 20
-3.325878449210181
 30
0.0
 10
10.852442614161596
 20
-3.526172357578435
 30
0.0
 10
10.431555091598105
 20
-3.46795655915152
 30
0.0
 10
9.648777968400907
 20
-3.51411934173386
 30
0.0
 10
8.890047600251858
 20
-3.7121073604244748
 30
0.0
 10
8.184521569698035
 20
-4.0543120466980405
 30
0.0
 10
7.559312846430064
 20
-4.527582666371668
 30
0.0
 10
7.03844785106204
 20
-5.1137316949445175
 30
0.0
 10
6.641943133261504
 20
-5.790233753964698
 30
0.0
 10
6.385036146971123
 20
-6.531091248690788
 30
0.0
 10
6.277599683598938
 20
-7.3078334410781345
 30
0.0
 10
6.323762466181277
 20
-8.090610564275332
 30
0.0
 10
6.521750484871893
 20
-8.849340932424383
 30
0.0
 10
6.707178396509619
 20
-9.23163908233068
 30
0.0
 10
6.400891625801169
 20
-8.937150033425471
 30
0.0
 10
5.740477827520017
 20
-8.51439166019498
 30
0.0
 10
5.010277628022127
 20
-8.22859681113386
 30
0.0
 10
4.23835221147321
 20
-8.090748422015938
 30
0.0
 10
3.454366238730481
 20
-8.106143929128745
 30
0.0
 10
2.6884478510620413
 20
-8.274191691767836
 30
0.0
 10
1.97003086257401
 20
-8.588433728657261
 30
0.0
 10
1.3267236352410956
 20
-9.036793894548325
 30
0.0
 10
0.7832481050388513
 20
-9.602041959709112
 30
0.0
 10
0.36048973180835864
 20
-10.26245575799026
 30
0.0
 10
0.07469488274724068
 20
-10.992655957488154
 30
0.0
 10
-1.5543122344752192e-15
 20
-11.410933449504498
 30
0.0
 10
-0.07469488274724356
 20
-10.992655957488154
 30
0.0
 10
-0.36048973180836175
 20
-10.262455757990264
 30
0.0
 10
-0.783248105038854
 20
-9.602041959709114
 30
0.0
 10
-1.326723635241098
 20
-9.036793894548326
 30
0.0
 10
-1.9700308625740122
 20
-8.588433728657261
 30
0.0
 10
-2.688447851062043
 20
-8.274191691767834
 30
0.0
 10
-3.454366238730483
 20
-8.106143929128745
 30
0.0
 10
-4.238352211473212
 20
-8.090748422015936
 30
0.0
 10
-5.010277628022129
 20
-8.22859681113386
 30
0.0
 10
-5.74047782752002
 20
-8.514391660194976
 30
0.0
 10
-6.400891625801169
 20
-8.93715003342547
 30
0.0
 10
-6.707178396509621
 20
-9.231639082330677
 30
0.0
 10
-6.521750484871895
 20
-8.84934093242438
 30
0.0
 10
-6.323762466181281
 20
-8.09061056427533
 30
0.0
 10
-6.27759968359894
 20
-7.307833441078133
 30
0.0
 10
-6.3850361469711245
 20
-6.531091248690786
 30
0.0
 10
-6.641943133261506
 20
-5.790233753964696
 30
0.0
 10
-7.038447851062042
 20
-5.113731694944515
 30
0.0
 10
-7.559312846430065
 20
-4.527582666371665
 30
0.0
 10
-8.184521569698035
 20
-4.054312046698039
 30
0.0
 10
-8.890047600251858
 20
-3.712107360424471
 30
0.0
 10
-9.648777968400907
 20
-3.5141193417338554
 30
0.0
 10
-10.431555091598106
 20
-3.4679565591515153
 30
0.0
 10
-10.852442614161587
 20
-3.526172357578429
 30
0.0
 10
-10.477719067921592
 20
-3.3258784492101805
 30
0.0
 10
-9.87157287525381
 20
-2.828427124746189
 30
0.0
 10
-9.374121550789818
 20
-2.2222809320784074
 30
0.0
 10
-9.004481869954851
 20
-1.5307337294603585
 30
0.0
 10
-8.776858878387078
 20
-0.7803612880645133
 30
0.0
 10
-8.7
 20
5.75583995599256e-16
 30
0.0
 10
-8.776858878387078
 20
0.7803612880645145
 30
0.0
 10
-9.004481869954851
 20
1.5307337294603598
 30
0.0
 10
-9.374121550789818
 20
2.222280932078409
 30
0.0
 10
-9.871572875253808
 20
2.828427124746191
 30
0.0
 10
-10.47771906792159
 20
3.3258784492101823
 30
0.0
 10
-10.852442614161589
 20
3.5261723575784316
 30
0.0
 10
-10.431555091598108
 20
3.467956559151518
 30
0.0
 10
-9.648777968400909
 20
3.5141193417338585
 30
0.0
 10
-8.89004760025186
 20
3.712107360424472
 30
0.0
 10
-8.184521569698036
 20
4.05431204669804
 30
0.0
 10
-7.559312846430066
 20
4.527582666371666
 30
0.0
 10
-7.038447851062042
 20
5.113731694944517
 30
0.0
 10
-6.641943133261506
 20
5.790233753964697
 30
0.0
 10
-6.385036146971125
 20
6.531091248690787
 30
0.0
 10
-6.27759968359894
 20
7.307833441078134
 30
0.0
 10
-6.32376246618128
 20
8.090610564275332
 30
0.0
 10
-6.521750484871895
 20
8.849340932424383
 30
0.0
 10
-6.707178396509624
 20
9.231639082330682
 30
0.0
 10
-6.400891625801169
 20
8.937150033425471
 30
0.0
 10
-5.740477827520019
 20
8.51439166019498
 30
0.0
 10
-5.010277628022129
 20
8.22859681113386
 30
0.0
 10
-4.238352211473211
 20
8.090748422015936
 30
0.0
 10
-3.4543662387304823
 20
8.106143929128745
 30
0.0
 10
-2.688447851062042
 20
8.274191691767836
 30
0.0
 10
-1.9700308625740113
 20
8.588433728657261
 30
0.0
 10
-1.3267236352410965
 20
9.036793894548325
 30
0.0
 10
-0.7832481050388522
 20
9.602041959709114
 30
0.0
 10
-0.3604897318083595
 20
10.26245575799026
 30
0.0
 10
-0.07469488274724201
 20
10.992655957488154
 30
0.0
 10
6.661338147750939e-16
 20
11.410933449504498
 30
0.0
 10
0.07469488274724267
 20
10.992655957488154
 30
0.0
 10
0.36048973180836086
 20
10.262455757990264
 30
0.0
 10
0.7832481050388527
 20
9.602041959709114
 30
0.0
 10
1.3267236352410972
 20
9.036793894548326
 30
0.0
 10
1.9700308625740113
 20
8.588433728657261
 30
0.0
 10
2.688447851062042
 20
8.274191691767834
 30
0.0
 10
3.4543662387304823
 20
8.106143929128745
 30
0.0
 10
4.238352211473211
 20
8.090748422015938
 30
0.0
 10
5.010277628022128
 20
8.22859681113386
 30
0.0
 10
5.740477827520019
 20
8.514391660194976
 30
0.0
 10
6.400891625801168
 20
8.93715003342547
 30
0.0
 10
6.7071783965096206
 20
9.231639082330679
 30
0.0
 10
6.521750484871895
 20
8.849340932424381
 30
0.0
 10
6.323762466181281
 20
8.090610564275332
 30
0.0
 10
6.27759968359894
 20
7.307833441078134
 30
0.0
 10
6.3850361469711245
 20
6.531091248690787
 30
0.0
 10
6.641943133261506
 20
5.790233753964697
 30
0.0
 10
7.038447851062042
 20
5.113731694944516
 30
0.0
 10
7.559312846430065
 20
4.527582666371666
 30
0.0
 10
8.184521569698036
 20
4.05431204669804
 30
0.0
 10
8.890047600251858
 20
3.712107360424472
 30
0.0
 10
9.648777968400907
 20
3.514119341733857
 30
0.0
 10
10.431555091598106
 20
3.4679565591515162
 30
0.0
 10
10.852442614161589
 20
3.5261723575784316
 30
0.0
  0
LWPOLYLINE
  8
OpenJsCad
  90
41
  70
1
 10
37.31963871193548
 20
-3.9231411216129213
 30
0.0
 10
38.099999999999994
 20
-4
 30
0.0
 10
38.880361288064506
 20
-3.9231411216129217
 30
0.0
 10
39.05
 20
-3.8716817809358695
 30
0.0
 10
39.21963871193549
 20
-3.9231411216129213
 30
0.0
 10
40
 20
-4
 30
0.0
 10
40.78036128806451
 20
-3.9231411216129217
 30
0.0
 10
41.53073372946036
 20
-3.6955181300451465
 30
0.0
 10
42.222280932078405
 20
-3.325878449210182
 30
0.0
 10
42.82842712474619
 20
-2.8284271247461907
 30
0.0
 10
43.32587844921018
 20
-2.2222809320784087
 30
0.0
 10
43.695518130045144
 20
-1.5307337294603616
 30
0.0
 10
43.92314112161292
 20
-0.7803612880645149
 30
0.0
 10
44
 20
0
 30
0.0
 10
43.92314112161292
 20
0.780361288064513
 30
0.0
 10
43.695518130045144
 20
1.5307337294603591
 30
0.0
 10
43.32587844921018
 20
2.2222809320784087
 30
0.0
 10
42.82842712474619
 20
2.82842712474619
 30
0.0
 10
42.22228093207841
 20
3.325878449210181
 30
0.0
 10
41.53073372946036
 20
3.695518130045147
 30
0.0
 10
40.78036128806451
 20
3.9231411216129217
 30
0.0
 10
40
 20
4
 30
0.0
 10
39.21963871193549
 20
3.9231411216129217
 30
0.0
 10
39.050000000000004
 20
3.8716817809358695
 30
0.0
 10
38.880361288064506
 20
3.9231411216129235
 30
0.0
 10
38.099999999999994
 20
4
 30
0.0
 10
37.31963871193548
 20
3.9231411216129217
 30
0.0
 10
36.569266270539636
 20
3.695518130045147
 30
0.0
 10
35.87771906792159
 20
3.3258784492101814
 30
0.0
 10
35.2715728752538
 20
2.8284271247461903
 30
0.0
 10
34.774121550789815
 20
2.2222809320784087
 30
0.0
 10
34.40448186995485
 20
1.5307337294603596
 30
0.0
 10
34.17685887838707
 20
0.7803612880645144
 30
0.0
 10
34.099999999999994
 20
4.898587196589413e-16
 30
0.0
 10
34.17685887838707
 20
-0.7803612880645134
 30
0.0
 10
34.40448186995485
 20
-1.5307337294603587
 30
0.0
 10
34.774121550789815
 20
-2.222280932078408
 30
0.0
 10
35.2715728752538
 20
-2.82842712474619
 30
0.0
 10
35.87771906792159
 20
-3.325878449210181
 30
0.0
 10
36.569266270539636
 20
-3.695518130045146
 30
0.0
 10
37.31963871193548
 20
-3.9231411216129213
 30
0.0
  0
LWPOLYLINE
  8
OpenJsCad
  90
37
  70
1
 10
49.21963871193549
 20
-3.9231411216129213
 30
0.0
 10
50
 20
-4
 30
0.0
 10
50.4
 20
-3.960603438657134
 30
0.0
 10
50.8
 20
-4
 30
0.0
 10
51.58036128806451
 20
-3.9231411216129217
 30
0.0
 10
52.330733729460356
 20
-3.6955181300451465
 30
0.0
 10
53.0222809320784
 20
-3.325878449210182
 30
0.0
 10
53.62842712474619
 20
-2.8284271247461907
 30
0.0
 10
54.12587844921018
 20
-2.2222809320784087
 30
0.0
 10
54.49551813004514
 20
-1.5307337294603616
 30
0.0
 10
54.72314112161292
 20
-0.7803612880645149
 30
0.0
 10
54.8
 20
0
 30
0.0
 10
54.72314112161292
 20
0.780361288064513
 30
0.0
 10
54.49551813004514
 20
1.5307337294603591
 30
0.0
 10
54.12587844921018
 20
2.2222809320784087
 30
0.0
 10
53.62842712474619
 20
2.82842712474619
 30
0.0
 10
53.02228093207841
 20
3.325878449210181
 30
0.0
 10
52.330733729460356
 20
3.695518130045147
 30
0.0
 10
51.58036128806451
 20
3.9231411216129217
 30
0.0
 10
50.8
 20
4
 30
0.0
 10
50.4
 20
3.9606034386571345
 30
0.0
 10
50
 20
4
 30
0.0
 10
49.21963871193549
 20
3.9231411216129217
 30
0.0
 10
48.46926627053964
 20
3.695518130045147
 30
0.0
 10
47.777719067921595
 20
3.3258784492101814
 30
0.0
 10
47.17157287525381
 20
2.8284271247461903
 30
0.0
 10
46.67412155078982
 20
2.2222809320784087
 30
0.0
 10
46.304481869954856
 20
1.5307337294603596
 30
0.0
 10
46.07685887838708
 20
0.7803612880645144
 30
0.0
 10
46
 20
4.898587196589413e-16
 30
0.0
 10
46.07685887838708
 20
-0.7803612880645134
 30
0.0
 10
46.304481869954856
 20
-1.5307337294603587
 30
0.0
 10
46.67412155078982
 20
-2.222280932078408
 30
0.0
 10
47.17157287525381
 20
-2.82842712474619
 30
0.0
 10
47.777719067921595
 20
-3.325878449210181
 30
0.0
 10
48.46926627053964
 20
-3.695518130045146
 30
0.0
 10
49.21963871193549
 20
-3.9231411216129213
 30
0.0
  0
LWPOLYLINE
  8
OpenJsCad
  90
33
  70
1
 10
75.41963871193548
 20
-3.9231411216129213
 30
0.0
 10
76.19999999999999
 20
-4
 30
0.0
 10
76.9803612880645
 20
-3.9231411216129217
 30
0.0
 10
77.73073372946035
 20
-3.6955181300451465
 30
0.0
 10
78.4222809320784
 20
-3.325878449210182
 30
0.0
 10
79.02842712474617
 20
-2.8284271247461907
 30
0.0
 10
79.52587844921017
 20
-2.2222809320784087
 30
0.0
 10
79.89551813004513
 20
-1.5307337294603616
 30
0.0
 10
80.1231411216129
 20
-0.7803612880645149
 30
0.0
 10
80.19999999999999
 20
0
 30
0.0
 10
80.12314112161292
 20
0.780361288064513
 30
0.0
 10
79.89551813004513
 20
1.5307337294603591
 30
0.0
 10
79.52587844921017
 20
2.2222809320784087
 30
0.0
 10
79.02842712474617
 20
2.82842712474619
 30
0.0
 10
78.4222809320784
 20
3.325878449210181
 30
0.0
 10
77.73073372946035
 20
3.695518130045147
 30
0.0
 10
76.9803612880645
 20
3.9231411216129217
 30
0.0
 10
76.19999999999999
 20
4
 30
0.0
 10
75.41963871193548
 20
3.9231411216129217
 30
0.0
 10
74.66926627053962
 20
3.695518130045147
 30
0.0
 10
73.97771906792158
 20
3.3258784492101814
 30
0.0
 10
73.3715728752538
 20
2.8284271247461903
 30
0.0
 10
72.87412155078981
 20
2.2222809320784087
 30
0.0
 10
72.50448186995484
 20
1.5307337294603596
 30
0.0
 10
72.27685887838706
 20
0.7803612880645144
 30
0.0
 10
72.19999999999999
 20
4.898587196589413e-16
 30
0.0
 10
72.27685887838706
 20
-0.7803612880645134
 30
0.0
 10
72.50448186995484
 20
-1.5307337294603587
 30
0.0
 10
72.87412155078981
 20
-2.222280932078408
 30
0.0
 10
73.3715728752538
 20
-2.82842712474619
 30
0.0
 10
73.97771906792158
 20
-3.325878449210181
 30
0.0
 10
74.66926627053962
 20
-3.695518130045146
 30
0.0
 10
75.41963871193548
 20
-3.9231411216129213
 30
0.0
  0
LWPOLYLINE
  8
OpenJsCad
  90
41
  70
1
 10
99.21963871193549
 20
-3.9231411216129213
 30
0.0
 10
100
 20
-4
 30
0.0
 10
100.78036128806451
 20
-3.9231411216129217
 30
0.0
 10
100.80000000000004
 20
-3.9171837834769683
 30
0.0
 10
100.81963871193548
 20
-3.9231411216129213
 30
0.0
 10
101.6
 20
-4
 30
0.0
 10
102.3803612880645
 20
-3.9231411216129217
 30
0.0
 10
103.13073372946036
 20
-3.6955181300451465
 30
0.0
 10
103.8222809320784
 20
-3.325878449210182
 30
0.0
 10
104.42842712474618
 20
-2.8284271247461907
 30
0.0
 10
104.92587844921017
 20
-2.2222809320784087
 30
0.0
 10
105.29551813004514
 20
-1.5307337294603616
 30
0.0
 10
105.52314112161291
 20
-0.7803612880645149
 30
0.0
 10
105.6
 20
0
 30
0.0
 10
105.52314112161292
 20
0.780361288064513
 30
0.0
 10
105.29551813004514
 20
1.5307337294603591
 30
0.0
 10
104.92587844921017
 20
2.2222809320784087
 30
0.0
 10
104.42842712474618
 20
2.82842712474619
 30
0.0
 10
103.8222809320784
 20
3.325878449210181
 30
0.0
 10
103.13073372946036
 20
3.695518130045147
 30
0.0
 10
102.3803612880645
 20
3.9231411216129217
 30
0.0
 10
101.6
 20
4
 30
0.0
 10
100.81963871193548
 20
3.9231411216129217
 30
0.0
 10
100.80000000000003
 20
3.9171837834769647
 30
0.0
 10
100.78036128806451
 20
3.9231411216129217
 30
0.0
 10
100
 20
4
 30
0.0
 10
99.21963871193549
 20
3.9231411216129217
 30
0.0
 10
98.46926627053963
 20
3.695518130045147
 30
0.0
 10
97.7777190679216
 20
3.3258784492101814
 30
0.0
 10
97.17157287525382
 20
2.8284271247461903
 30
0.0
 10
96.67412155078982
 20
2.2222809320784087
 30
0.0
 10
96.30448186995486
 20
1.5307337294603596
 30
0.0
 10
96.07685887838707
 20
0.7803612880645144
 30
0.0
 10
96
 20
4.898587196589413e-16
 30
0.0
 10
96.07685887838707
 20
-0.7803612880645134
 30
0.0
 10
96.30448186995486
 20
-1.5307337294603587
 30
0.0
 10
96.67412155078982
 20
-2.222280932078408
 30
0.0
 10
97.17157287525382
 20
-2.82842712474619
 30
0.0
 10
97.7777190679216
 20
-3.325878449210181
 30
0.0
 10
98.46926627053963
 20
-3.695518130045146
 30
0.0
 10
99.21963871193549
 20
-3.9231411216129213
 30
0.0
  0
LWPOLYLINE
  8
OpenJsCad
  90
41
  70
1
 10
32.49818643583521
 20
18.7620454170429
 30
0.0
 10
33.17468849485539
 20
19.158550134843434
 30
0.0
 10
33.760837523428236
 20
19.679415130211456
 30
0.0
 10
33.867831082745255
 20
19.820757744432093
 30
0.0
 10
34.03531872514761
 20
19.878837396398602
 30
0.0
 10
34.71182078416779
 20
20.275342114199137
 30
0.0
 10
35.29796981274064
 20
20.79620710956716
 30
0.0
 10
35.77124043241427
 20
21.42141583283513
 30
0.0
 10
36.113445118687835
 20
22.12694186338895
 30
0.0
 10
36.31143313737845
 20
22.885672231538003
 30
0.0
 10
36.357595919960794
 20
23.6684493547352
 30
0.0
 10
36.250159456588605
 20
24.445191547122544
 30
0.0
 10
35.99325247029822
 20
25.186049041848634
 30
0.0
 10
35.59674775249769
 20
25.862551100868817
 30
0.0
 10
35.07588275712967
 20
26.448700129441665
 30
0.0
 10
34.45067403386169
 20
26.921970749115292
 30
0.0
 10
33.74514800330787
 20
27.26417543538886
 30
0.0
 10
32.98641763515882
 20
27.46216345407948
 30
0.0
 10
32.20364051196162
 20
27.50832623666182
 30
0.0
 10
31.426898319574274
 20
27.400889773289634
 30
0.0
 10
30.686040824848185
 20
27.14398278699925
 30
0.0
 10
30.009538765828005
 20
26.747478069198717
 30
0.0
 10
29.423389737255157
 20
26.22661307383069
 30
0.0
 10
29.316396177938138
 20
26.08527045961006
 30
0.0
 10
29.14890853553578
 20
26.02719080764355
 30
0.0
 10
28.4724064765156
 20
25.630686089843014
 30
0.0
 10
27.886257447942754
 20
25.109821094474988
 30
0.0
 10
27.412986828269126
 20
24.48461237120702
 30
0.0
 10
27.070782141995558
 20
23.779086340653198
 30
0.0
 10
26.872794123304942
 20
23.02035597250415
 30
0.0
 10
26.826631340722603
 20
22.23757884930695
 30
0.0
 10
26.934067804094788
 20
21.460836656919604
 30
0.0
 10
27.190974790385166
 20
20.719979162193514
 30
0.0
 10
27.587479508185705
 20
20.04347710317333
 30
0.0
 10
28.108344503553727
 20
19.457328074600483
 30
0.0
 10
28.733553226821698
 20
18.984057454926855
 30
0.0
 10
29.43907925737552
 20
18.641852768653287
 30
0.0
 10
30.19780962552457
 20
18.44386474996267
 30
0.0
 10
30.98058674872177
 20
18.397701967380332
 30
0.0
 10
31.757328941109115
 20
18.505138430752517
 30
0.0
 10
32.49818643583521
 20
18.7620454170429
 30
0.0
  0
LWPOLYLINE
  8
OpenJsCad
  90
37
  70
1
 10
42.125488668897084
 20
25.756689919323335
 30
0.0
 10
42.801990727917264
 20
26.153194637123867
 30
0.0
 10
43.102440807918875
 20
26.42018122568717
 30
0.0
 10
43.44920432341722
 20
26.623422838957843
 30
0.0
 10
44.03535335199007
 20
27.14428783432587
 30
0.0
 10
44.5086239716637
 20
27.769496557593836
 30
0.0
 10
44.850828657937264
 20
28.47502258814766
 30
0.0
 10
45.04881667662788
 20
29.23375295629671
 30
0.0
 10
45.09497945921022
 20
30.016530079493908
 30
0.0
 10
44.987542995838034
 20
30.793272271881253
 30
0.0
 10
44.73063600954765
 20
31.534129766607347
 30
0.0
 10
44.33413129174712
 20
32.21063182562752
 30
0.0
 10
43.8132662963791
 20
32.79678085420038
 30
0.0
 10
43.18805757311112
 20
33.270051473874
 30
0.0
 10
42.4825315425573
 20
33.61225616014757
 30
0.0
 10
41.72380117440825
 20
33.81024417883818
 30
0.0
 10
40.94102405121106
 20
33.856406961420525
 30
0.0
 10
40.164281858823706
 20
33.74897049804834
 30
0.0
 10
39.42342436409761
 20
33.49206351175796
 30
0.0
 10
38.74692230507743
 20
33.09555879395742
 30
0.0
 10
38.44647222507583
 20
32.828572205394124
 30
0.0
 10
38.09970870957748
 20
32.62533059212345
 30
0.0
 10
37.51355968100463
 20
32.104465596755425
 30
0.0
 10
37.040289061331
 20
31.479256873487454
 30
0.0
 10
36.69808437505744
 20
30.77373084293363
 30
0.0
 10
36.50009635636682
 20
30.015000474784582
 30
0.0
 10
36.45393357378448
 20
29.232223351587383
 30
0.0
 10
36.561370037156664
 20
28.455481159200037
 30
0.0
 10
36.81827702344705
 20
27.714623664473947
 30
0.0
 10
37.214781741247585
 20
27.038121605453764
 30
0.0
 10
37.73564673661561
 20
26.451972576880916
 30
0.0
 10
38.36085545988358
 20
25.97870195720729
 30
0.0
 10
39.06638149043741
 20
25.63649727093372
 30
0.0
 10
39.825111858586446
 20
25.438509252243108
 30
0.0
 10
40.60788898178365
 20
25.392346469660765
 30
0.0
 10
41.38463117417099
 20
25.499782933032954
 30
0.0
 10
42.125488668897084
 20
25.756689919323335
 30
0.0
  0
LWPOLYLINE
  8
OpenJsCad
  90
33
  70
1
 10
63.3217339215207
 20
41.15666352938612
 30
0.0
 10
63.99823598054088
 20
41.55316824718666
 30
0.0
 10
64.58438500911373
 20
42.07403324255468
 30
0.0
 10
65.05765562878736
 20
42.69924196582266
 30
0.0
 10
65.39986031506092
 20
43.40476799637647
 30
0.0
 10
65.59784833375153
 20
44.163498364525516
 30
0.0
 10
65.64401111633387
 20
44.94627548772272
 30
0.0
 10
65.53657465296169
 20
45.72301768011006
 30
0.0
 10
65.27966766667132
 20
46.463875174836154
 30
0.0
 10
64.88316294887078
 20
47.14037723385634
 30
0.0
 10
64.36229795350276
 20
47.72652626242919
 30
0.0
 10
63.73708923023477
 20
48.19979688210281
 30
0.0
 10
63.03156319968095
 20
48.542001568376385
 30
0.0
 10
62.27283283153191
 20
48.739989587066994
 30
0.0
 10
61.49005570833471
 20
48.786152369649336
 30
0.0
 10
60.71331351594737
 20
48.678715906277155
 30
0.0
 10
59.97245602122128
 20
48.42180891998677
 30
0.0
 10
59.2959539622011
 20
48.025304202186234
 30
0.0
 10
58.70980493362825
 20
47.50443920681822
 30
0.0
 10
58.23653431395461
 20
46.87923048355024
 30
0.0
 10
57.89432962768105
 20
46.17370445299642
 30
0.0
 10
57.69634160899044
 20
45.41497408484737
 30
0.0
 10
57.650178826408094
 20
44.63219696165017
 30
0.0
 10
57.757615289780276
 20
43.85545476926282
 30
0.0
 10
58.01452227607066
 20
43.11459727453673
 30
0.0
 10
58.4110269938712
 20
42.438095215516555
 30
0.0
 10
58.93189198923921
 20
41.8519461869437
 30
0.0
 10
59.55710071250719
 20
41.37867556727008
 30
0.0
 10
60.26262674306102
 20
41.03647088099651
 30
0.0
 10
61.021357111210065
 20
40.838482862305895
 30
0.0
 10
61.804134234407265
 20
40.79232007972355
 30
0.0
 10
62.5808764267946
 20
40.89975654309574
 30
0.0
 10
63.3217339215207
 20
41.15666352938612
 30
0.0
  0
LWPOLYLINE
  8
OpenJsCad
  90
41
  70
1
 10
82.57633838764445
 20
55.14595253394699
 30
0.0
 10
83.25284044666464
 20
55.54245725174752
 30
0.0
 10
83.8389894752375
 20
56.06332224711554
 30
0.0
 10
83.85137589144173
 20
56.0796851801585
 30
0.0
 10
83.87076557864437
 20
56.08640893761494
 30
0.0
 10
84.54726763766455
 20
56.48291365541547
 30
0.0
 10
85.1334166662374
 20
57.003778650783495
 30
0.0
 10
85.60668728591104
 20
57.628987374051476
 30
0.0
 10
85.9488919721846
 20
58.33451340460529
 30
0.0
 10
86.1468799908752
 20
59.09324377275434
 30
0.0
 10
86.19304277345755
 20
59.87602089595154
 30
0.0
 10
86.08560631008537
 20
60.65276308833889
 30
0.0
 10
85.82869932379498
 20
61.39362058306498
 30
0.0
 10
85.43219460599444
 20
62.07012264208516
 30
0.0
 10
84.91132961062642
 20
62.656271670658015
 30
0.0
 10
84.28612088735845
 20
63.129542290331635
 30
0.0
 10
83.58059485680464
 20
63.4717469766052
 30
0.0
 10
82.82186448865558
 20
63.66973499529582
 30
0.0
 10
82.03908736545839
 20
63.715897777878155
 30
0.0
 10
81.26234517307104
 20
63.60846131450597
 30
0.0
 10
80.52148767834495
 20
63.35155432821559
 30
0.0
 10
79.84498561932476
 20
62.95504961041506
 30
0.0
 10
79.25883659075191
 20
62.43418461504704
 30
0.0
 10
79.24645017454773
 20
62.417821682004124
 30
0.0
 10
79.22706048734503
 20
62.41109792454764
 30
0.0
 10
78.55055842832485
 20
62.01459320674711
 30
0.0
 10
77.96440939975201
 20
61.493728211379086
 30
0.0
 10
77.49113878007837
 20
60.868519488111104
 30
0.0
 10
77.14893409380481
 20
60.16299345755729
 30
0.0
 10
76.9509460751142
 20
59.40426308940824
 30
0.0
 10
76.90478329253186
 20
58.62148596621104
 30
0.0
 10
77.01221975590404
 20
57.84474377382369
 30
0.0
 10
77.2691267421944
 20
57.103886279097594
 30
0.0
 10
77.66563145999496
 20
56.42738422007742
 30
0.0
 10
78.18649645536297
 20
55.841235191504566
 30
0.0
 10
78.81170517863096
 20
55.367964571830946
 30
0.0
 10
79.51723120918477
 20
55.02575988555738
 30
0.0
 10
80.27596157733383
 20
54.82777186686676
 30
0.0
 10
81.05873870053101
 20
54.781609084284426
 30
0.0
 10
81.83548089291837
 20
54.88904554765661
 30
0.0
 10
82.57633838764445
 20
55.14595253394699
 30
0.0
  0
LWPOLYLINE
  8
OpenJsCad
  90
41
  70
1
 10
15.263531513976684
 20
34.280768304857524
 30
0.0
 10
15.57777355086611
 20
34.99918529334555
 30
0.0
 10
15.7458213135052
 20
35.765103681014
 30
0.0
 10
15.749301817121982
 20
35.94234149420469
 30
0.0
 10
15.850663803289086
 20
36.08777568581832
 30
0.0
 10
16.164905840178513
 20
36.806192674306345
 30
0.0
 10
16.332953602817604
 20
37.57211106197479
 30
0.0
 10
16.34834910993041
 20
38.35609703471752
 30
0.0
 10
16.210500720812487
 20
39.12802245126643
 30
0.0
 10
15.924705871751371
 20
39.85822265076433
 30
0.0
 10
15.501947498520877
 20
40.518636449045474
 30
0.0
 10
14.958471968318634
 20
41.08388451420626
 30
0.0
 10
14.31516474098572
 20
41.53224468009733
 30
0.0
 10
13.596747752497688
 20
41.84648671698675
 30
0.0
 10
12.830829364829249
 20
42.014534479625844
 30
0.0
 10
12.046843392086517
 20
42.02992998673865
 30
0.0
 10
11.274917975537601
 20
41.89208159762073
 30
0.0
 10
10.544717776039711
 20
41.60628674855961
 30
0.0
 10
9.884303977758563
 20
41.183528375329125
 30
0.0
 10
9.319055912597774
 20
40.640052845126874
 30
0.0
 10
8.870695746706708
 20
39.996745617793955
 30
0.0
 10
8.556453709817283
 20
39.27832862930593
 30
0.0
 10
8.388405947178192
 20
38.51241024163749
 30
0.0
 10
8.384925443561416
 20
38.335172428446796
 30
0.0
 10
8.283563457394305
 20
38.189738236833165
 30
0.0
 10
7.9693214205048815
 20
37.471321248345134
 30
0.0
 10
7.801273657865791
 20
36.70540286067669
 30
0.0
 10
7.7858781507529855
 20
35.921416887933965
 30
0.0
 10
7.923726539870908
 20
35.149491471385055
 30
0.0
 10
8.209521388932023
 20
34.419291271887154
 30
0.0
 10
8.632279762162517
 20
33.75887747360601
 30
0.0
 10
9.175755292364762
 20
33.193629408445226
 30
0.0
 10
9.819062519697674
 20
32.74526924255416
 30
0.0
 10
10.537479508185706
 20
32.43102720566473
 30
0.0
 10
11.303397895854145
 20
32.26297944302564
 30
0.0
 10
12.087383868596877
 20
32.247583935912836
 30
0.0
 10
12.859309285145791
 20
32.385432325030756
 30
0.0
 10
13.589509484643681
 20
32.671227174091875
 30
0.0
 10
14.249923282924833
 20
33.09398554732237
 30
0.0
 10
14.81517134808562
 20
33.63746107752461
 30
0.0
 10
15.263531513976684
 20
34.280768304857524
 30
0.0
  0
LWPOLYLINE
  8
OpenJsCad
  90
37
  70
1
 10
18.94083374703856
 20
45.59834084876986
 30
0.0
 10
19.255075783927985
 20
46.31675783725788
 30
0.0
 10
19.34121422529321
 20
46.709354650750825
 30
0.0
 10
19.502289379427943
 20
47.077603050294
 30
0.0
 10
19.670337142067034
 20
47.843521437962444
 30
0.0
 10
19.68573264917984
 20
48.62750741070518
 30
0.0
 10
19.54788426006192
 20
49.39943282725409
 30
0.0
 10
19.2620894110008
 20
50.12963302675199
 30
0.0
 10
18.839331037770307
 20
50.79004682503313
 30
0.0
 10
18.295855507568067
 20
51.35529489019392
 30
0.0
 10
17.652548280235152
 20
51.803655056084985
 30
0.0
 10
16.934131291747118
 20
52.11789709297441
 30
0.0
 10
16.168212904078683
 20
52.2859448556135
 30
0.0
 10
15.38422693133595
 20
52.30134036272631
 30
0.0
 10
14.612301514787033
 20
52.16349197360839
 30
0.0
 10
13.882101315289141
 20
51.87769712454727
 30
0.0
 10
13.221687517007995
 20
51.45493875131678
 30
0.0
 10
12.656439451847206
 20
50.91146322111453
 30
0.0
 10
12.208079285956142
 20
50.26815599378161
 30
0.0
 10
11.893837249066715
 20
49.54973900529359
 30
0.0
 10
11.807698807701492
 20
49.157142191800645
 30
0.0
 10
11.646623653566758
 20
48.78889379225747
 30
0.0
 10
11.478575890927669
 20
48.022975404589026
 30
0.0
 10
11.463180383814862
 20
47.2389894318463
 30
0.0
 10
11.601028772932786
 20
46.46706401529738
 30
0.0
 10
11.8868236219939
 20
45.73686381579949
 30
0.0
 10
12.309581995224393
 20
45.07645001751835
 30
0.0
 10
12.853057525426639
 20
44.51120195235756
 30
0.0
 10
13.49636475275955
 20
44.062841786466485
 30
0.0
 10
14.214781741247583
 20
43.74859974957706
 30
0.0
 10
14.980700128916022
 20
43.58055198693797
 30
0.0
 10
15.764686101658754
 20
43.56515647982517
 30
0.0
 10
16.536611518207668
 20
43.70300486894309
 30
0.0
 10
17.266811717705558
 20
43.98879971800421
 30
0.0
 10
17.92722551598671
 20
44.411558091234696
 30
0.0
 10
18.492473581147497
 20
44.95503362143695
 30
0.0
 10
18.94083374703856
 20
45.59834084876986
 30
0.0
  0
LWPOLYLINE
  8
OpenJsCad
  90
33
  70
1
 10
27.03707899966218
 20
70.51602157570287
 30
0.0
 10
27.351321036551607
 20
71.2344385641909
 30
0.0
 10
27.519368799190698
 20
72.00035695185933
 30
0.0
 10
27.534764306303504
 20
72.78434292460207
 30
0.0
 10
27.39691591718558
 20
73.55626834115098
 30
0.0
 10
27.11112106812446
 20
74.28646854064887
 30
0.0
 10
26.688362694893968
 20
74.94688233893002
 30
0.0
 10
26.144887164691728
 20
75.51213040409081
 30
0.0
 10
25.501579937358812
 20
75.96049056998186
 30
0.0
 10
24.783162948870782
 20
76.2747326068713
 30
0.0
 10
24.017244561202347
 20
76.4427803695104
 30
0.0
 10
23.233258588459613
 20
76.45817587662319
 30
0.0
 10
22.461333171910695
 20
76.32032748750528
 30
0.0
 10
21.7311329724128
 20
76.03453263844416
 30
0.0
 10
21.070719174131654
 20
75.61177426521367
 30
0.0
 10
20.50547110897087
 20
75.06829873501144
 30
0.0
 10
20.057110943079802
 20
74.42499150767851
 30
0.0
 10
19.742868906190377
 20
73.70657451919047
 30
0.0
 10
19.574821143551286
 20
72.94065613152205
 30
0.0
 10
19.55942563643848
 20
72.1566701587793
 30
0.0
 10
19.697274025556403
 20
71.3847447422304
 30
0.0
 10
19.983068874617523
 20
70.65454454273251
 30
0.0
 10
20.405827247848016
 20
69.99413074445135
 30
0.0
 10
20.949302778050257
 20
69.42888267929057
 30
0.0
 10
21.592610005383168
 20
68.9805225133995
 30
0.0
 10
22.311026993871202
 20
68.66628047651007
 30
0.0
 10
23.07694538153964
 20
68.49823271387098
 30
0.0
 10
23.86093135428237
 20
68.48283720675819
 30
0.0
 10
24.63285677083129
 20
68.6206855958761
 30
0.0
 10
25.363056970329183
 20
68.90648044493722
 30
0.0
 10
26.02347076861033
 20
69.32923881816771
 30
0.0
 10
26.588718833771114
 20
69.87271434836994
 30
0.0
 10
27.03707899966218
 20
70.51602157570287
 30
0.0
  0
LWPOLYLINE
  8
OpenJsCad
  90
41
  70
1
 10
34.39168346578593
 20
93.15116666352753
 30
0.0
 10
34.705925502675356
 20
93.86958365201556
 30
0.0
 10
34.87397326531445
 20
94.635502039684
 30
0.0
 10
34.87437619579619
 20
94.65602048336717
 30
0.0
 10
34.886110656785846
 20
94.67285708959977
 30
0.0
 10
35.20035269367527
 20
95.3912740780878
 30
0.0
 10
35.36840045631436
 20
96.15719246575624
 30
0.0
 10
35.383795963427175
 20
96.94117843849898
 30
0.0
 10
35.24594757430925
 20
97.71310385504789
 30
0.0
 10
34.960152725248136
 20
98.44330405454578
 30
0.0
 10
34.537394352017635
 20
99.10371785282693
 30
0.0
 10
33.99391882181539
 20
99.66896591798772
 30
0.0
 10
33.35061159448247
 20
100.11732608387877
 30
0.0
 10
32.63219460599445
 20
100.4315681207682
 30
0.0
 10
31.866276218326014
 20
100.59961588340731
 30
0.0
 10
31.082290245583277
 20
100.6150113905201
 30
0.0
 10
30.310364829034363
 20
100.47716300140219
 30
0.0
 10
29.580164629536473
 20
100.19136815234107
 30
0.0
 10
28.91975083125532
 20
99.76860977911058
 30
0.0
 10
28.354502766094537
 20
99.22513424890835
 30
0.0
 10
27.90614260020347
 20
98.58182702157542
 30
0.0
 10
27.591900563314045
 20
97.86341003308738
 30
0.0
 10
27.423852800674954
 20
97.09749164541896
 30
0.0
 10
27.423449870193238
 20
97.07697320173584
 30
0.0
 10
27.411715409203556
 20
97.06013659550318
 30
0.0
 10
27.09747337231413
 20
96.34171960701514
 30
0.0
 10
26.92942560967504
 20
95.57580121934672
 30
0.0
 10
26.914030102562233
 20
94.79181524660397
 30
0.0
 10
27.051878491680156
 20
94.01988983005506
 30
0.0
 10
27.337673340741276
 20
93.28968963055718
 30
0.0
 10
27.76043171397177
 20
92.62927583227602
 30
0.0
 10
28.30390724417401
 20
92.06402776711522
 30
0.0
 10
28.94721447150692
 20
91.61566760122416
 30
0.0
 10
29.665631459994955
 20
91.30142556433474
 30
0.0
 10
30.431549847663394
 20
91.13337780169563
 30
0.0
 10
31.215535820406124
 20
91.11798229458284
 30
0.0
 10
31.987461236955042
 20
91.25583068370076
 30
0.0
 10
32.717661436452936
 20
91.54162553276188
 30
0.0
 10
33.378075234734084
 20
91.96438390599238
 30
0.0
 10
33.943323299894864
 20
92.50785943619461
 30
0.0
 10
34.39168346578593
 20
93.15116666352753
 30
0.0
  0
LWPOLYLINE
  8
OpenJsCad
  90
41
  70
1
 10
-7.801273657865788
 20
36.7054028606767
 30
0.0
 10
-7.969321420504878
 20
37.471321248345134
 30
0.0
 10
-8.283563457394303
 20
38.189738236833165
 30
0.0
 10
-8.384925443561409
 20
38.33517242844679
 30
0.0
 10
-8.388405947178189
 20
38.5124102416375
 30
0.0
 10
-8.55645370981728
 20
39.27832862930593
 30
0.0
 10
-8.870695746706703
 20
39.99674561779396
 30
0.0
 10
-9.31905591259777
 20
40.64005284512688
 30
0.0
 10
-9.884303977758556
 20
41.183528375329125
 30
0.0
 10
-10.544717776039706
 20
41.60628674855962
 30
0.0
 10
-11.274917975537596
 20
41.89208159762074
 30
0.0
 10
-12.04684339208651
 20
42.02992998673866
 30
0.0
 10
-12.830829364829242
 20
42.01453447962585
 30
0.0
 10
-13.596747752497683
 20
41.84648671698676
 30
0.0
 10
-14.315164740985713
 20
41.532244680097335
 30
0.0
 10
-14.958471968318626
 20
41.08388451420627
 30
0.0
 10
-15.501947498520872
 20
40.51863644904548
 30
0.0
 10
-15.924705871751364
 20
39.85822265076434
 30
0.0
 10
-16.210500720812483
 20
39.128022451266446
 30
0.0
 10
-16.348349109930407
 20
38.35609703471753
 30
0.0
 10
-16.332953602817597
 20
37.572111061974795
 30
0.0
 10
-16.16490584017851
 20
36.80619267430636
 30
0.0
 10
-15.850663803289084
 20
36.08777568581833
 30
0.0
 10
-15.749301817121978
 20
35.94234149420471
 30
0.0
 10
-15.7458213135052
 20
35.765103681014
 30
0.0
 10
-15.577773550866107
 20
34.99918529334556
 30
0.0
 10
-15.263531513976682
 20
34.28076830485753
 30
0.0
 10
-14.815171348085617
 20
33.63746107752461
 30
0.0
 10
-14.249923282924831
 20
33.09398554732237
 30
0.0
 10
-13.58950948464368
 20
32.671227174091875
 30
0.0
 10
-12.85930928514579
 20
32.385432325030756
 30
0.0
 10
-12.087383868596874
 20
32.247583935912836
 30
0.0
 10
-11.303397895854143
 20
32.26297944302564
 30
0.0
 10
-10.537479508185703
 20
32.43102720566473
 30
0.0
 10
-9.819062519697672
 20
32.74526924255416
 30
0.0
 10
-9.175755292364759
 20
33.193629408445226
 30
0.0
 10
-8.632279762162513
 20
33.75887747360601
 30
0.0
 10
-8.209521388932021
 20
34.419291271887154
 30
0.0
 10
-7.923726539870905
 20
35.149491471385055
 30
0.0
 10
-7.78587815075298
 20
35.921416887933965
 30
0.0
 10
-7.801273657865788
 20
36.7054028606767
 30
0.0
  0
LWPOLYLINE
  8
OpenJsCad
  90
37
  70
1
 10
-11.478575890927662
 20
48.02297540458903
 30
0.0
 10
-11.646623653566753
 20
48.78889379225747
 30
0.0
 10
-11.807698807701485
 20
49.15714219180065
 30
0.0
 10
-11.89383724906671
 20
49.54973900529359
 30
0.0
 10
-12.208079285956135
 20
50.26815599378162
 30
0.0
 10
-12.656439451847202
 20
50.91146322111454
 30
0.0
 10
-13.221687517007986
 20
51.45493875131678
 30
0.0
 10
-13.882101315289137
 20
51.877697124547275
 30
0.0
 10
-14.612301514787026
 20
52.163491973608394
 30
0.0
 10
-15.384226931335942
 20
52.301340362726314
 30
0.0
 10
-16.168212904078672
 20
52.28594485561351
 30
0.0
 10
-16.934131291747114
 20
52.11789709297442
 30
0.0
 10
-17.652548280235145
 20
51.80365505608499
 30
0.0
 10
-18.295855507568056
 20
51.355294890193925
 30
0.0
 10
-18.839331037770304
 20
50.79004682503314
 30
0.0
 10
-19.262089411000797
 20
50.129633026751996
 30
0.0
 10
-19.547884260061917
 20
49.3994328272541
 30
0.0
 10
-19.685732649179837
 20
48.627507410705185
 30
0.0
 10
-19.67033714206703
 20
47.84352143796245
 30
0.0
 10
-19.50228937942794
 20
47.077603050294016
 30
0.0
 10
-19.341214225293207
 20
46.70935465075083
 30
0.0
 10
-19.255075783927982
 20
46.316757837257896
 30
0.0
 10
-18.940833747038557
 20
45.598340848769865
 30
0.0
 10
-18.492473581147493
 20
44.95503362143695
 30
0.0
 10
-17.927225515986706
 20
44.4115580912347
 30
0.0
 10
-17.266811717705554
 20
43.98879971800421
 30
0.0
 10
-16.536611518207664
 20
43.70300486894309
 30
0.0
 10
-15.764686101658748
 20
43.56515647982517
 30
0.0
 10
-14.980700128916018
 20
43.58055198693798
 30
0.0
 10
-14.214781741247577
 20
43.74859974957707
 30
0.0
 10
-13.496364752759547
 20
44.06284178646649
 30
0.0
 10
-12.853057525426633
 20
44.51120195235756
 30
0.0
 10
-12.309581995224388
 20
45.07645001751835
 30
0.0
 10
-11.886823621993894
 20
45.73686381579949
 30
0.0
 10
-11.601028772932779
 20
46.46706401529739
 30
0.0
 10
-11.463180383814857
 20
47.2389894318463
 30
0.0
 10
-11.478575890927662
 20
48.02297540458903
 30
0.0
  0
LWPOLYLINE
  8
OpenJsCad
  90
33
  70
1
 10
-19.57482114355128
 20
72.94065613152205
 30
0.0
 10
-19.74286890619037
 20
73.70657451919048
 30
0.0
 10
-20.057110943079795
 20
74.42499150767853
 30
0.0
 10
-20.505471108970863
 20
75.06829873501144
 30
0.0
 10
-21.070719174131646
 20
75.61177426521367
 30
0.0
 10
-21.731132972412794
 20
76.03453263844416
 30
0.0
 10
-22.461333171910685
 20
76.32032748750528
 30
0.0
 10
-23.233258588459602
 20
76.4581758766232
 30
0.0
 10
-24.01724456120233
 20
76.4427803695104
 30
0.0
 10
-24.783162948870775
 20
76.27473260687131
 30
0.0
 10
-25.501579937358805
 20
75.96049056998189
 30
0.0
 10
-26.144887164691717
 20
75.51213040409083
 30
0.0
 10
-26.688362694893964
 20
74.94688233893002
 30
0.0
 10
-27.111121068124454
 20
74.28646854064887
 30
0.0
 10
-27.396915917185574
 20
73.55626834115098
 30
0.0
 10
-27.534764306303497
 20
72.78434292460207
 30
0.0
 10
-27.51936879919069
 20
72.00035695185935
 30
0.0
 10
-27.3513210365516
 20
71.23443856419091
 30
0.0
 10
-27.037078999662175
 20
70.51602157570287
 30
0.0
 10
-26.588718833771104
 20
69.87271434836995
 30
0.0
 10
-26.023470768610323
 20
69.32923881816772
 30
0.0
 10
-25.363056970329172
 20
68.90648044493723
 30
0.0
 10
-24.632856770831282
 20
68.62068559587611
 30
0.0
 10
-23.860931354282368
 20
68.48283720675819
 30
0.0
 10
-23.076945381539634
 20
68.49823271387098
 30
0.0
 10
-22.311026993871195
 20
68.66628047651008
 30
0.0
 10
-21.59261000538316
 20
68.9805225133995
 30
0.0
 10
-20.949302778050253
 20
69.42888267929057
 30
0.0
 10
-20.405827247848006
 20
69.99413074445137
 30
0.0
 10
-19.983068874617512
 20
70.65454454273252
 30
0.0
 10
-19.697274025556396
 20
71.38474474223041
 30
0.0
 10
-19.55942563643847
 20
72.15667015877932
 30
0.0
 10
-19.57482114355128
 20
72.94065613152205
 30
0.0
  0
LWPOLYLINE
  8
OpenJsCad
  90
41
  70
1
 10
-26.92942560967503
 20
95.57580121934672
 30
0.0
 10
-27.09747337231412
 20
96.34171960701515
 30
0.0
 10
-27.411715409203545
 20
97.0601365955032
 30
0.0
 10
-27.42344987019323
 20
97.07697320173587
 30
0.0
 10
-27.423852800674943
 20
97.09749164541896
 30
0.0
 10
-27.591900563314034
 20
97.86341003308739
 30
0.0
 10
-27.90614260020346
 20
98.58182702157544
 30
0.0
 10
-28.354502766094527
 20
99.22513424890835
 30
0.0
 10
-28.919750831255307
 20
99.76860977911058
 30
0.0
 10
-29.58016462953646
 20
100.19136815234107
 30
0.0
 10
-30.310364829034352
 20
100.47716300140219
 30
0.0
 10
-31.082290245583266
 20
100.61501139052011
 30
0.0
 10
-31.866276218325996
 20
100.59961588340731
 30
0.0
 10
-32.632194605994435
 20
100.43156812076822
 30
0.0
 10
-33.350611594482466
 20
100.1173260838788
 30
0.0
 10
-33.993918821815384
 20
99.66896591798773
 30
0.0
 10
-34.53739435201763
 20
99.10371785282693
 30
0.0
 10
-34.960152725248115
 20
98.44330405454578
 30
0.0
 10
-35.245947574309234
 20
97.71310385504789
 30
0.0
 10
-35.38379596342716
 20
96.94117843849898
 30
0.0
 10
-35.368400456314355
 20
96.15719246575625
 30
0.0
 10
-35.20035269367526
 20
95.39127407808782
 30
0.0
 10
-34.88611065678584
 20
94.67285708959977
 30
0.0
 10
-34.874376195796174
 20
94.65602048336717
 30
0.0
 10
-34.87397326531444
 20
94.63550203968401
 30
0.0
 10
-34.70592550267535
 20
93.86958365201558
 30
0.0
 10
-34.391683465785924
 20
93.15116666352753
 30
0.0
 10
-33.94332329989486
 20
92.50785943619462
 30
0.0
 10
-33.37807523473407
 20
91.96438390599239
 30
0.0
 10
-32.71766143645292
 20
91.5416255327619
 30
0.0
 10
-31.987461236955035
 20
91.25583068370078
 30
0.0
 10
-31.215535820406117
 20
91.11798229458286
 30
0.0
 10
-30.431549847663383
 20
91.13337780169564
 30
0.0
 10
-29.665631459994945
 20
91.30142556433475
 30
0.0
 10
-28.94721447150691
 20
91.61566760122417
 30
0.0
 10
-28.303907244174002
 20
92.06402776711523
 30
0.0
 10
-27.76043171397176
 20
92.62927583227604
 30
0.0
 10
-27.337673340741265
 20
93.28968963055719
 30
0.0
 10
-27.051878491680146
 20
94.01988983005508
 30
0.0
 10
-26.914030102562222
 20
94.79181524660399
 30
0.0
 10
-26.92942560967503
 20
95.57580121934672
 30
0.0
  0
LWPOLYLINE
  8
OpenJsCad
  90
41
  70
1
 10
-27.886257447942754
 20
25.109821094474995
 30
0.0
 10
-28.4724064765156
 20
25.630686089843017
 30
0.0
 10
-29.14890853553578
 20
26.02719080764355
 30
0.0
 10
-29.316396177938135
 20
26.08527045961006
 30
0.0
 10
-29.423389737255157
 20
26.226613073830695
 30
0.0
 10
-30.009538765828005
 20
26.74747806919872
 30
0.0
 10
-30.686040824848185
 20
27.143982786999253
 30
0.0
 10
-31.426898319574274
 20
27.400889773289638
 30
0.0
 10
-32.20364051196162
 20
27.50832623666182
 30
0.0
 10
-32.98641763515882
 20
27.462163454079484
 30
0.0
 10
-33.74514800330787
 20
27.264175435388868
 30
0.0
 10
-34.45067403386169
 20
26.9219707491153
 30
0.0
 10
-35.07588275712967
 20
26.448700129441676
 30
0.0
 10
-35.59674775249769
 20
25.862551100868824
 30
0.0
 10
-35.99325247029822
 20
25.186049041848644
 30
0.0
 10
-36.250159456588605
 20
24.44519154712255
 30
0.0
 10
-36.357595919960794
 20
23.668449354735206
 30
0.0
 10
-36.31143313737845
 20
22.88567223153801
 30
0.0
 10
-36.113445118687835
 20
22.12694186338896
 30
0.0
 10
-35.77124043241427
 20
21.421415832835134
 30
0.0
 10
-35.29796981274064
 20
20.796207109567163
 30
0.0
 10
-34.71182078416779
 20
20.27534211419914
 30
0.0
 10
-34.03531872514761
 20
19.878837396398605
 30
0.0
 10
-33.86783108274526
 20
19.8207577444321
 30
0.0
 10
-33.760837523428236
 20
19.679415130211456
 30
0.0
 10
-33.17468849485539
 20
19.158550134843438
 30
0.0
 10
-32.49818643583521
 20
18.762045417042906
 30
0.0
 10
-31.757328941109115
 20
18.50513843075252
 30
0.0
 10
-30.98058674872177
 20
18.397701967380335
 30
0.0
 10
-30.19780962552457
 20
18.443864749962675
 30
0.0
 10
-29.43907925737552
 20
18.64185276865329
 30
0.0
 10
-28.733553226821698
 20
18.98405745492686
 30
0.0
 10
-28.108344503553727
 20
19.457328074600483
 30
0.0
 10
-27.587479508185705
 20
20.043477103173334
 30
0.0
 10
-27.190974790385166
 20
20.719979162193514
 30
0.0
 10
-26.934067804094788
 20
21.460836656919607
 30
0.0
 10
-26.826631340722603
 20
22.237578849306953
 30
0.0
 10
-26.872794123304942
 20
23.02035597250415
 30
0.0
 10
-27.070782141995558
 20
23.7790863406532
 30
0.0
 10
-27.412986828269126
 20
24.48461237120702
 30
0.0
 10
-27.886257447942754
 20
25.109821094474995
 30
0.0
  0
LWPOLYLINE
  8
OpenJsCad
  90
37
  70
1
 10
-37.51355968100463
 20
32.10446559675543
 30
0.0
 10
-38.09970870957748
 20
32.62533059212345
 30
0.0
 10
-38.44647222507583
 20
32.82857220539413
 30
0.0
 10
-38.74692230507743
 20
33.09555879395743
 30
0.0
 10
-39.42342436409761
 20
33.49206351175796
 30
0.0
 10
-40.164281858823706
 20
33.748970498048344
 30
0.0
 10
-40.94102405121105
 20
33.85640696142053
 30
0.0
 10
-41.72380117440825
 20
33.81024417883819
 30
0.0
 10
-42.4825315425573
 20
33.612256160147574
 30
0.0
 10
-43.18805757311112
 20
33.27005147387401
 30
0.0
 10
-43.8132662963791
 20
32.79678085420038
 30
0.0
 10
-44.33413129174712
 20
32.21063182562753
 30
0.0
 10
-44.73063600954765
 20
31.53412976660735
 30
0.0
 10
-44.987542995838034
 20
30.79327227188126
 30
0.0
 10
-45.09497945921022
 20
30.016530079493915
 30
0.0
 10
-45.04881667662788
 20
29.23375295629672
 30
0.0
 10
-44.85082865793727
 20
28.47502258814767
 30
0.0
 10
-44.5086239716637
 20
27.769496557593843
 30
0.0
 10
-44.03535335199007
 20
27.144287834325873
 30
0.0
 10
-43.44920432341722
 20
26.62342283895785
 30
0.0
 10
-43.102440807918875
 20
26.420181225687177
 30
0.0
 10
-42.801990727917264
 20
26.15319463712387
 30
0.0
 10
-42.125488668897084
 20
25.75668991932334
 30
0.0
 10
-41.384631174171
 20
25.499782933032954
 30
0.0
 10
-40.60788898178365
 20
25.392346469660772
 30
0.0
 10
-39.825111858586446
 20
25.438509252243108
 30
0.0
 10
-39.06638149043741
 20
25.636497270933727
 30
0.0
 10
-38.36085545988358
 20
25.978701957207296
 30
0.0
 10
-37.73564673661561
 20
26.451972576880916
 30
0.0
 10
-37.214781741247585
 20
27.03812160545377
 30
0.0
 10
-36.81827702344705
 20
27.714623664473947
 30
0.0
 10
-36.561370037156664
 20
28.455481159200044
 30
0.0
 10
-36.45393357378448
 20
29.23222335158739
 30
0.0
 10
-36.50009635636682
 20
30.015000474784586
 30
0.0
 10
-36.69808437505744
 20
30.773730842933638
 30
0.0
 10
-37.040289061331
 20
31.479256873487458
 30
0.0
 10
-37.51355968100463
 20
32.10446559675543
 30
0.0
  0
LWPOLYLINE
  8
OpenJsCad
  90
33
  70
1
 10
-58.70980493362825
 20
47.504439206818226
 30
0.0
 10
-59.2959539622011
 20
48.02530420218625
 30
0.0
 10
-59.97245602122128
 20
48.42180891998678
 30
0.0
 10
-60.71331351594737
 20
48.67871590627716
 30
0.0
 10
-61.49005570833471
 20
48.78615236964934
 30
0.0
 10
-62.27283283153191
 20
48.73998958706701
 30
0.0
 10
-63.03156319968095
 20
48.54200156837639
 30
0.0
 10
-63.73708923023477
 20
48.199796882102824
 30
0.0
 10
-64.36229795350275
 20
47.72652626242919
 30
0.0
 10
-64.88316294887078
 20
47.14037723385635
 30
0.0
 10
-65.27966766667133
 20
46.463875174836176
 30
0.0
 10
-65.53657465296169
 20
45.723017680110075
 30
0.0
 10
-65.64401111633387
 20
44.94627548772273
 30
0.0
 10
-65.59784833375153
 20
44.16349836452553
 30
0.0
 10
-65.39986031506092
 20
43.40476799637648
 30
0.0
 10
-65.05765562878736
 20
42.699241965822665
 30
0.0
 10
-64.58438500911373
 20
42.074033242554684
 30
0.0
 10
-63.99823598054088
 20
41.55316824718666
 30
0.0
 10
-63.3217339215207
 20
41.15666352938613
 30
0.0
 10
-62.5808764267946
 20
40.89975654309575
 30
0.0
 10
-61.804134234407265
 20
40.79232007972357
 30
0.0
 10
-61.021357111210065
 20
40.8384828623059
 30
0.0
 10
-60.26262674306102
 20
41.03647088099652
 30
0.0
 10
-59.55710071250719
 20
41.37867556727009
 30
0.0
 10
-58.93189198923921
 20
41.85194618694371
 30
0.0
 10
-58.4110269938712
 20
42.43809521551656
 30
0.0
 10
-58.01452227607066
 20
43.114597274536735
 30
0.0
 10
-57.757615289780276
 20
43.855454769262835
 30
0.0
 10
-57.650178826408094
 20
44.63219696165018
 30
0.0
 10
-57.69634160899044
 20
45.41497408484738
 30
0.0
 10
-57.89432962768105
 20
46.17370445299643
 30
0.0
 10
-58.23653431395461
 20
46.879230483550245
 30
0.0
 10
-58.70980493362825
 20
47.504439206818226
 30
0.0
  0
LWPOLYLINE
  8
OpenJsCad
  90
41
  70
1
 10
-77.96440939975201
 20
61.49372821137909
 30
0.0
 10
-78.55055842832485
 20
62.01459320674711
 30
0.0
 10
-79.22706048734503
 20
62.411097924547654
 30
0.0
 10
-79.24645017454773
 20
62.417821682004146
 30
0.0
 10
-79.25883659075191
 20
62.43418461504705
 30
0.0
 10
-79.84498561932476
 20
62.955049610415074
 30
0.0
 10
-80.52148767834494
 20
63.351554328215606
 30
0.0
 10
-81.26234517307104
 20
63.60846131450599
 30
0.0
 10
-82.03908736545837
 20
63.71589777787817
 30
0.0
 10
-82.82186448865558
 20
63.669734995295826
 30
0.0
 10
-83.58059485680464
 20
63.47174697660522
 30
0.0
 10
-84.28612088735845
 20
63.12954229033165
 30
0.0
 10
-84.91132961062641
 20
62.656271670658015
 30
0.0
 10
-85.43219460599444
 20
62.070122642085174
 30
0.0
 10
-85.82869932379499
 20
61.393620583064994
 30
0.0
 10
-86.08560631008537
 20
60.6527630883389
 30
0.0
 10
-86.19304277345755
 20
59.876020895951555
 30
0.0
 10
-86.1468799908752
 20
59.09324377275435
 30
0.0
 10
-85.94889197218458
 20
58.3345134046053
 30
0.0
 10
-85.60668728591104
 20
57.62898737405149
 30
0.0
 10
-85.13341666623741
 20
57.00377865078351
 30
0.0
 10
-84.54726763766455
 20
56.48291365541549
 30
0.0
 10
-83.87076557864438
 20
56.086408937614955
 30
0.0
 10
-83.8513758914417
 20
56.0796851801585
 30
0.0
 10
-83.8389894752375
 20
56.06332224711556
 30
0.0
 10
-83.25284044666464
 20
55.542457251747535
 30
0.0
 10
-82.57633838764447
 20
55.145952533946996
 30
0.0
 10
-81.83548089291837
 20
54.889045547656615
 30
0.0
 10
-81.05873870053102
 20
54.78160908428443
 30
0.0
 10
-80.27596157733383
 20
54.827771866866776
 30
0.0
 10
-79.51723120918477
 20
55.02575988555739
 30
0.0
 10
-78.81170517863096
 20
55.36796457183096
 30
0.0
 10
-78.18649645536297
 20
55.84123519150458
 30
0.0
 10
-77.66563145999496
 20
56.42738422007743
 30
0.0
 10
-77.2691267421944
 20
57.10388627909761
 30
0.0
 10
-77.01221975590404
 20
57.8447437738237
 30
0.0
 10
-76.90478329253186
 20
58.621485966211054
 30
0.0
 10
-76.9509460751142
 20
59.40426308940825
 30
0.0
 10
-77.1489340938048
 20
60.1629934575573
 30
0.0
 10
-77.49113878007837
 20
60.86851948811111
 30
0.0
 10
-77.96440939975201
 20
61.49372821137909
 30
0.0
  0
LWPOLYLINE
  8
OpenJsCad
  90
41
  70
1
 10
-37.31963871193548
 20
3.9231411216129257
 30
0.0
 10
-38.099999999999994
 20
4.000000000000004
 30
0.0
 10
-38.880361288064506
 20
3.9231411216129266
 30
0.0
 10
-39.05
 20
3.8716817809358743
 30
0.0
 10
-39.21963871193549
 20
3.923141121612926
 30
0.0
 10
-40
 20
4.000000000000005
 30
0.0
 10
-40.78036128806451
 20
3.9231411216129266
 30
0.0
 10
-41.53073372946036
 20
3.6955181300451514
 30
0.0
 10
-42.222280932078405
 20
3.325878449210187
 30
0.0
 10
-42.82842712474619
 20
2.828427124746196
 30
0.0
 10
-43.32587844921018
 20
2.222280932078414
 30
0.0
 10
-43.695518130045144
 20
1.530733729460367
 30
0.0
 10
-43.92314112161292
 20
0.7803612880645202
 30
0.0
 10
-44
 20
5.3884459162483544e-15
 30
0.0
 10
-43.92314112161292
 20
-0.7803612880645077
 30
0.0
 10
-43.695518130045144
 20
-1.5307337294603538
 30
0.0
 10
-43.32587844921018
 20
-2.2222809320784034
 30
0.0
 10
-42.82842712474619
 20
-2.8284271247461845
 30
0.0
 10
-42.22228093207841
 20
-3.3258784492101756
 30
0.0
 10
-41.53073372946036
 20
-3.695518130045142
 30
0.0
 10
-40.78036128806451
 20
-3.923141121612917
 30
0.0
 10
-40
 20
-3.999999999999995
 30
0.0
 10
-39.21963871193549
 20
-3.923141121612917
 30
0.0
 10
-39.050000000000004
 20
-3.8716817809358646
 30
0.0
 10
-38.880361288064506
 20
-3.9231411216129186
 30
0.0
 10
-38.099999999999994
 20
-3.999999999999995
 30
0.0
 10
-37.31963871193548
 20
-3.9231411216129173
 30
0.0
 10
-36.569266270539636
 20
-3.6955181300451425
 30
0.0
 10
-35.87771906792159
 20
-3.325878449210177
 30
0.0
 10
-35.2715728752538
 20
-2.828427124746186
 30
0.0
 10
-34.774121550789815
 20
-2.2222809320784043
 30
0.0
 10
-34.40448186995485
 20
-1.5307337294603554
 30
0.0
 10
-34.17685887838707
 20
-0.7803612880645102
 30
0.0
 10
-34.099999999999994
 20
3.6861868654335325e-15
 30
0.0
 10
-34.17685887838707
 20
0.7803612880645177
 30
0.0
 10
-34.40448186995485
 20
1.530733729460363
 30
0.0
 10
-34.774121550789815
 20
2.2222809320784123
 30
0.0
 10
-35.2715728752538
 20
2.8284271247461943
 30
0.0
 10
-35.87771906792159
 20
3.3258784492101854
 30
0.0
 10
-36.569266270539636
 20
3.6955181300451505
 30
0.0
 10
-37.31963871193548
 20
3.9231411216129257
 30
0.0
  0
LWPOLYLINE
  8
OpenJsCad
  90
37
  70
1
 10
-49.21963871193549
 20
3.9231411216129275
 30
0.0
 10
-50
 20
4.000000000000006
 30
0.0
 10
-50.4
 20
3.9606034386571403
 30
0.0
 10
-50.8
 20
4.000000000000006
 30
0.0
 10
-51.58036128806451
 20
3.923141121612928
 30
0.0
 10
-52.330733729460356
 20
3.6955181300451527
 30
0.0
 10
-53.0222809320784
 20
3.3258784492101885
 30
0.0
 10
-53.62842712474619
 20
2.8284271247461974
 30
0.0
 10
-54.12587844921018
 20
2.2222809320784154
 30
0.0
 10
-54.49551813004514
 20
1.5307337294603682
 30
0.0
 10
-54.72314112161292
 20
0.7803612880645215
 30
0.0
 10
-54.8
 20
6.711064459327495e-15
 30
0.0
 10
-54.72314112161292
 20
-0.7803612880645063
 30
0.0
 10
-54.49551813004514
 20
-1.5307337294603525
 30
0.0
 10
-54.12587844921018
 20
-2.222280932078402
 30
0.0
 10
-53.62842712474619
 20
-2.828427124746183
 30
0.0
 10
-53.02228093207841
 20
-3.3258784492101743
 30
0.0
 10
-52.330733729460356
 20
-3.6955181300451407
 30
0.0
 10
-51.58036128806451
 20
-3.9231411216129155
 30
0.0
 10
-50.8
 20
-3.999999999999994
 30
0.0
 10
-50.4
 20
-3.9606034386571283
 30
0.0
 10
-50
 20
-3.999999999999994
 30
0.0
 10
-49.21963871193549
 20
-3.9231411216129155
 30
0.0
 10
-48.46926627053964
 20
-3.695518130045141
 30
0.0
 10
-47.777719067921595
 20
-3.3258784492101756
 30
0.0
 10
-47.17157287525381
 20
-2.8284271247461845
 30
0.0
 10
-46.67412155078982
 20
-2.222280932078403
 30
0.0
 10
-46.304481869954856
 20
-1.5307337294603538
 30
0.0
 10
-46.07685887838708
 20
-0.7803612880645088
 30
0.0
 10
-46
 20
5.143516556418883e-15
 30
0.0
 10
-46.07685887838708
 20
0.7803612880645191
 30
0.0
 10
-46.304481869954856
 20
1.5307337294603645
 30
0.0
 10
-46.67412155078982
 20
2.2222809320784136
 30
0.0
 10
-47.17157287525381
 20
2.8284271247461956
 30
0.0
 10
-47.777719067921595
 20
3.3258784492101867
 30
0.0
 10
-48.46926627053964
 20
3.695518130045152
 30
0.0
 10
-49.21963871193549
 20
3.9231411216129275
 30
0.0
  0
LWPOLYLINE
  8
OpenJsCad
  90
33
  70
1
 10
-75.41963871193548
 20
3.9231411216129306
 30
0.0
 10
-76.19999999999999
 20
4.00000000000001
 30
0.0
 10
-76.9803612880645
 20
3.923141121612931
 30
0.0
 10
-77.73073372946035
 20
3.695518130045156
 30
0.0
 10
-78.4222809320784
 20
3.3258784492101916
 30
0.0
 10
-79.02842712474617
 20
2.8284271247462005
 30
0.0
 10
-79.52587844921017
 20
2.2222809320784185
 30
0.0
 10
-79.89551813004513
 20
1.5307337294603713
 30
0.0
 10
-80.1231411216129
 20
0.7803612880645246
 30
0.0
 10
-80.19999999999999
 20
9.821667329161771e-15
 30
0.0
 10
-80.12314112161292
 20
-0.7803612880645032
 30
0.0
 10
-79.89551813004513
 20
-1.5307337294603494
 30
0.0
 10
-79.52587844921017
 20
-2.222280932078399
 30
0.0
 10
-79.02842712474617
 20
-2.82842712474618
 30
0.0
 10
-78.4222809320784
 20
-3.325878449210171
 30
0.0
 10
-77.73073372946035
 20
-3.6955181300451376
 30
0.0
 10
-76.9803612880645
 20
-3.9231411216129124
 30
0.0
 10
-76.19999999999999
 20
-3.9999999999999907
 30
0.0
 10
-75.41963871193548
 20
-3.9231411216129124
 30
0.0
 10
-74.66926627053962
 20
-3.6955181300451376
 30
0.0
 10
-73.97771906792158
 20
-3.3258784492101725
 30
0.0
 10
-73.3715728752538
 20
-2.8284271247461814
 30
0.0
 10
-72.87412155078981
 20
-2.2222809320784
 30
0.0
 10
-72.50448186995484
 20
-1.5307337294603507
 30
0.0
 10
-72.27685887838706
 20
-0.7803612880645056
 30
0.0
 10
-72.19999999999999
 20
8.352091170184948e-15
 30
0.0
 10
-72.27685887838706
 20
0.7803612880645223
 30
0.0
 10
-72.50448186995484
 20
1.5307337294603676
 30
0.0
 10
-72.87412155078981
 20
2.2222809320784167
 30
0.0
 10
-73.3715728752538
 20
2.8284271247461987
 30
0.0
 10
-73.97771906792158
 20
3.32587844921019
 30
0.0
 10
-74.66926627053962
 20
3.6955181300451554
 30
0.0
 10
-75.41963871193548
 20
3.9231411216129306
 30
0.0
  0
LWPOLYLINE
  8
OpenJsCad
  90
41
  70
1
 10
-99.21963871193549
 20
3.9231411216129333
 30
0.0
 10
-100
 20
4.000000000000012
 30
0.0
 10
-100.78036128806451
 20
3.923141121612934
 30
0.0
 10
-100.80000000000004
 20
3.9171837834769807
 30
0.0
 10
-100.81963871193548
 20
3.9231411216129337
 30
0.0
 10
-101.6
 20
4.000000000000012
 30
0.0
 10
-102.3803612880645
 20
3.923141121612934
 30
0.0
 10
-103.13073372946036
 20
3.695518130045159
 30
0.0
 10
-103.8222809320784
 20
3.3258784492101947
 30
0.0
 10
-104.42842712474618
 20
2.8284271247462036
 30
0.0
 10
-104.92587844921017
 20
2.2222809320784216
 30
0.0
 10
-105.29551813004514
 20
1.5307337294603744
 30
0.0
 10
-105.52314112161291
 20
0.7803612880645278
 30
0.0
 10
-105.6
 20
1.293227019899605e-14
 30
0.0
 10
-105.52314112161292
 20
-0.7803612880645001
 30
0.0
 10
-105.29551813004514
 20
-1.5307337294603462
 30
0.0
 10
-104.92587844921017
 20
-2.222280932078396
 30
0.0
 10
-104.42842712474618
 20
-2.828427124746177
 30
0.0
 10
-103.8222809320784
 20
-3.325878449210168
 30
0.0
 10
-103.13073372946036
 20
-3.6955181300451345
 30
0.0
 10
-102.3803612880645
 20
-3.9231411216129093
 30
0.0
 10
-101.6
 20
-3.9999999999999876
 30
0.0
 10
-100.81963871193548
 20
-3.9231411216129093
 30
0.0
 10
-100.80000000000003
 20
-3.9171837834769523
 30
0.0
 10
-100.78036128806451
 20
-3.9231411216129093
 30
0.0
 10
-100
 20
-3.9999999999999876
 30
0.0
 10
-99.21963871193549
 20
-3.9231411216129097
 30
0.0
 10
-98.46926627053963
 20
-3.695518130045135
 30
0.0
 10
-97.7777190679216
 20
-3.3258784492101694
 30
0.0
 10
-97.17157287525382
 20
-2.8284271247461783
 30
0.0
 10
-96.67412155078982
 20
-2.2222809320783967
 30
0.0
 10
-96.30448186995486
 20
-1.5307337294603478
 30
0.0
 10
-96.07685887838707
 20
-0.7803612880645027
 30
0.0
 10
-96
 20
1.126675055215565e-14
 30
0.0
 10
-96.07685887838707
 20
0.7803612880645252
 30
0.0
 10
-96.30448186995486
 20
1.5307337294603705
 30
0.0
 10
-96.67412155078982
 20
2.22228093207842
 30
0.0
 10
-97.17157287525382
 20
2.828427124746202
 30
0.0
 10
-97.7777190679216
 20
3.325878449210193
 30
0.0
 10
-98.46926627053963
 20
3.695518130045158
 30
0.0
 10
-99.21963871193549
 20
3.9231411216129333
 30
0.0
  0
LWPOLYLINE
  8
OpenJsCad
  90
41
  70
1
 10
-32.49818643583521
 20
-18.762045417042895
 30
0.0
 10
-33.17468849485539
 20
-19.15855013484343
 30
0.0
 10
-33.760837523428236
 20
-19.679415130211453
 30
0.0
 10
-33.867831082745255
 20
-19.820757744432086
 30
0.0
 10
-34.03531872514761
 20
-19.8788373963986
 30
0.0
 10
-34.71182078416779
 20
-20.27534211419913
 30
0.0
 10
-35.29796981274064
 20
-20.796207109567156
 30
0.0
 10
-35.77124043241426
 20
-21.421415832835123
 30
0.0
 10
-36.113445118687835
 20
-22.126941863388947
 30
0.0
 10
-36.31143313737845
 20
-22.885672231537995
 30
0.0
 10
-36.357595919960794
 20
-23.668449354735195
 30
0.0
 10
-36.250159456588605
 20
-24.44519154712254
 30
0.0
 10
-35.99325247029822
 20
-25.18604904184863
 30
0.0
 10
-35.59674775249769
 20
-25.862551100868814
 30
0.0
 10
-35.07588275712967
 20
-26.44870012944166
 30
0.0
 10
-34.45067403386169
 20
-26.92197074911529
 30
0.0
 10
-33.74514800330787
 20
-27.264175435388857
 30
0.0
 10
-32.98641763515882
 20
-27.462163454079473
 30
0.0
 10
-32.20364051196162
 20
-27.508326236661816
 30
0.0
 10
-31.426898319574274
 20
-27.400889773289627
 30
0.0
 10
-30.686040824848185
 20
-27.143982786999246
 30
0.0
 10
-30.009538765828005
 20
-26.74747806919871
 30
0.0
 10
-29.423389737255157
 20
-26.226613073830688
 30
0.0
 10
-29.316396177938138
 20
-26.085270459610058
 30
0.0
 10
-29.14890853553578
 20
-26.027190807643546
 30
0.0
 10
-28.4724064765156
 20
-25.63068608984301
 30
0.0
 10
-27.886257447942754
 20
-25.109821094474984
 30
0.0
 10
-27.412986828269126
 20
-24.484612371207017
 30
0.0
 10
-27.070782141995558
 20
-23.779086340653194
 30
0.0
 10
-26.872794123304942
 20
-23.020355972504145
 30
0.0
 10
-26.826631340722603
 20
-22.237578849306946
 30
0.0
 10
-26.934067804094788
 20
-21.4608366569196
 30
0.0
 10
-27.190974790385166
 20
-20.71997916219351
 30
0.0
 10
-27.587479508185705
 20
-20.043477103173327
 30
0.0
 10
-28.108344503553727
 20
-19.45732807460048
 30
0.0
 10
-28.733553226821698
 20
-18.98405745492685
 30
0.0
 10
-29.43907925737552
 20
-18.641852768653283
 30
0.0
 10
-30.19780962552457
 20
-18.44386474996267
 30
0.0
 10
-30.98058674872177
 20
-18.39770196738033
 30
0.0
 10
-31.757328941109115
 20
-18.505138430752517
 30
0.0
 10
-32.49818643583521
 20
-18.762045417042895
 30
0.0
  0
LWPOLYLINE
  8
OpenJsCad
  90
37
  70
1
 10
-42.125488668897084
 20
-25.75668991932333
 30
0.0
 10
-42.801990727917264
 20
-26.15319463712386
 30
0.0
 10
-43.102440807918875
 20
-26.420181225687163
 30
0.0
 10
-43.44920432341722
 20
-26.62342283895784
 30
0.0
 10
-44.03535335199007
 20
-27.144287834325862
 30
0.0
 10
-44.508623971663695
 20
-27.769496557593833
 30
0.0
 10
-44.850828657937264
 20
-28.475022588147652
 30
0.0
 10
-45.04881667662788
 20
-29.233752956296705
 30
0.0
 10
-45.09497945921022
 20
-30.0165300794939
 30
0.0
 10
-44.987542995838034
 20
-30.793272271881246
 30
0.0
 10
-44.73063600954765
 20
-31.53412976660734
 30
0.0
 10
-44.33413129174712
 20
-32.21063182562752
 30
0.0
 10
-43.8132662963791
 20
-32.79678085420037
 30
0.0
 10
-43.18805757311112
 20
-33.27005147387399
 30
0.0
 10
-42.4825315425573
 20
-33.61225616014756
 30
0.0
 10
-41.72380117440825
 20
-33.81024417883818
 30
0.0
 10
-40.94102405121106
 20
-33.85640696142052
 30
0.0
 10
-40.164281858823706
 20
-33.74897049804834
 30
0.0
 10
-39.42342436409761
 20
-33.492063511757955
 30
0.0
 10
-38.74692230507743
 20
-33.09555879395742
 30
0.0
 10
-38.44647222507583
 20
-32.82857220539412
 30
0.0
 10
-38.09970870957748
 20
-32.62533059212344
 30
0.0
 10
-37.51355968100463
 20
-32.10446559675542
 30
0.0
 10
-37.040289061331
 20
-31.479256873487447
 30
0.0
 10
-36.69808437505744
 20
-30.773730842933627
 30
0.0
 10
-36.50009635636682
 20
-30.015000474784575
 30
0.0
 10
-36.45393357378448
 20
-29.23222335158738
 30
0.0
 10
-36.561370037156664
 20
-28.455481159200033
 30
0.0
 10
-36.81827702344705
 20
-27.71462366447394
 30
0.0
 10
-37.214781741247585
 20
-27.03812160545376
 30
0.0
 10
-37.73564673661561
 20
-26.45197257688091
 30
0.0
 10
-38.36085545988358
 20
-25.978701957207285
 30
0.0
 10
-39.0663814904374
 20
-25.636497270933717
 30
0.0
 10
-39.825111858586446
 20
-25.4385092522431
 30
0.0
 10
-40.60788898178365
 20
-25.39234646966076
 30
0.0
 10
-41.38463117417099
 20
-25.499782933032947
 30
0.0
 10
-42.125488668897084
 20
-25.75668991932333
 30
0.0
  0
LWPOLYLINE
  8
OpenJsCad
  90
33
  70
1
 10
-63.3217339215207
 20
-41.15666352938611
 30
0.0
 10
-63.99823598054088
 20
-41.55316824718665
 30
0.0
 10
-64.58438500911373
 20
-42.07403324255467
 30
0.0
 10
-65.05765562878736
 20
-42.69924196582265
 30
0.0
 10
-65.39986031506092
 20
-43.404767996376464
 30
0.0
 10
-65.59784833375153
 20
-44.16349836452551
 30
0.0
 10
-65.64401111633387
 20
-44.94627548772271
 30
0.0
 10
-65.53657465296169
 20
-45.723017680110054
 30
0.0
 10
-65.27966766667132
 20
-46.46387517483615
 30
0.0
 10
-64.88316294887078
 20
-47.14037723385633
 30
0.0
 10
-64.36229795350276
 20
-47.72652626242918
 30
0.0
 10
-63.73708923023477
 20
-48.1997968821028
 30
0.0
 10
-63.03156319968095
 20
-48.54200156837637
 30
0.0
 10
-62.27283283153191
 20
-48.73998958706699
 30
0.0
 10
-61.49005570833471
 20
-48.78615236964933
 30
0.0
 10
-60.71331351594737
 20
-48.67871590627715
 30
0.0
 10
-59.97245602122128
 20
-48.421808919986766
 30
0.0
 10
-59.2959539622011
 20
-48.025304202186234
 30
0.0
 10
-58.70980493362825
 20
-47.504439206818205
 30
0.0
 10
-58.23653431395461
 20
-46.87923048355023
 30
0.0
 10
-57.89432962768105
 20
-46.17370445299641
 30
0.0
 10
-57.69634160899044
 20
-45.414974084847366
 30
0.0
 10
-57.650178826408094
 20
-44.632196961650166
 30
0.0
 10
-57.757615289780276
 20
-43.85545476926281
 30
0.0
 10
-58.01452227607066
 20
-43.11459727453672
 30
0.0
 10
-58.4110269938712
 20
-42.43809521551655
 30
0.0
 10
-58.93189198923921
 20
-41.85194618694369
 30
0.0
 10
-59.55710071250719
 20
-41.37867556727007
 30
0.0
 10
-60.26262674306101
 20
-41.036470880996504
 30
0.0
 10
-61.021357111210065
 20
-40.83848286230589
 30
0.0
 10
-61.804134234407265
 20
-40.792320079723545
 30
0.0
 10
-62.5808764267946
 20
-40.899756543095734
 30
0.0
 10
-63.3217339215207
 20
-41.15666352938611
 30
0.0
  0
LWPOLYLINE
  8
OpenJsCad
  90
41
  70
1
 10
-82.57633838764445
 20
-55.145952533946975
 30
0.0
 10
-83.25284044666464
 20
-55.54245725174751
 30
0.0
 10
-83.83898947523748
 20
-56.06332224711553
 30
0.0
 10
-83.85137589144173
 20
-56.079685180158485
 30
0.0
 10
-83.87076557864437
 20
-56.08640893761493
 30
0.0
 10
-84.54726763766455
 20
-56.48291365541547
 30
0.0
 10
-85.1334166662374
 20
-57.00377865078349
 30
0.0
 10
-85.60668728591104
 20
-57.62898737405147
 30
0.0
 10
-85.94889197218458
 20
-58.33451340460528
 30
0.0
 10
-86.1468799908752
 20
-59.09324377275433
 30
0.0
 10
-86.19304277345755
 20
-59.87602089595153
 30
0.0
 10
-86.08560631008537
 20
-60.65276308833887
 30
0.0
 10
-85.82869932379498
 20
-61.393620583064966
 30
0.0
 10
-85.43219460599444
 20
-62.070122642085146
 30
0.0
 10
-84.91132961062642
 20
-62.656271670658
 30
0.0
 10
-84.28612088735845
 20
-63.12954229033162
 30
0.0
 10
-83.58059485680464
 20
-63.47174697660519
 30
0.0
 10
-82.82186448865558
 20
-63.669734995295805
 30
0.0
 10
-82.03908736545839
 20
-63.71589777787815
 30
0.0
 10
-81.26234517307104
 20
-63.608461314505966
 30
0.0
 10
-80.52148767834495
 20
-63.351554328215585
 30
0.0
 10
-79.84498561932476
 20
-62.955049610415045
 30
0.0
 10
-79.25883659075193
 20
-62.43418461504702
 30
0.0
 10
-79.24645017454773
 20
-62.41782168200412
 30
0.0
 10
-79.22706048734504
 20
-62.411097924547626
 30
0.0
 10
-78.55055842832485
 20
-62.014593206747094
 30
0.0
 10
-77.96440939975201
 20
-61.49372821137907
 30
0.0
 10
-77.49113878007837
 20
-60.86851948811109
 30
0.0
 10
-77.14893409380481
 20
-60.16299345755728
 30
0.0
 10
-76.9509460751142
 20
-59.40426308940823
 30
0.0
 10
-76.90478329253186
 20
-58.62148596621103
 30
0.0
 10
-77.01221975590404
 20
-57.84474377382368
 30
0.0
 10
-77.2691267421944
 20
-57.10388627909759
 30
0.0
 10
-77.66563145999496
 20
-56.427384220077414
 30
0.0
 10
-78.18649645536297
 20
-55.84123519150456
 30
0.0
 10
-78.81170517863096
 20
-55.36796457183094
 30
0.0
 10
-79.51723120918477
 20
-55.02575988555737
 30
0.0
 10
-80.27596157733383
 20
-54.827771866866755
 30
0.0
 10
-81.05873870053101
 20
-54.78160908428441
 30
0.0
 10
-81.83548089291837
 20
-54.88904554765659
 30
0.0
 10
-82.57633838764445
 20
-55.145952533946975
 30
0.0
  0
LWPOLYLINE
  8
OpenJsCad
  90
41
  70
1
 10
-15.263531513976687
 20
-34.280768304857524
 30
0.0
 10
-15.577773550866114
 20
-34.99918529334555
 30
0.0
 10
-15.745821313505203
 20
-35.765103681014
 30
0.0
 10
-15.749301817121985
 20
-35.94234149420469
 30
0.0
 10
-15.85066380328909
 20
-36.08777568581832
 30
0.0
 10
-16.164905840178516
 20
-36.806192674306345
 30
0.0
 10
-16.332953602817607
 20
-37.57211106197479
 30
0.0
 10
-16.348349109930414
 20
-38.35609703471752
 30
0.0
 10
-16.21050072081249
 20
-39.12802245126643
 30
0.0
 10
-15.924705871751376
 20
-39.85822265076433
 30
0.0
 10
-15.501947498520883
 20
-40.518636449045474
 30
0.0
 10
-14.958471968318639
 20
-41.08388451420626
 30
0.0
 10
-14.315164740985725
 20
-41.53224468009733
 30
0.0
 10
-13.596747752497693
 20
-41.84648671698675
 30
0.0
 10
-12.830829364829254
 20
-42.014534479625844
 30
0.0
 10
-12.046843392086522
 20
-42.02992998673865
 30
0.0
 10
-11.274917975537607
 20
-41.89208159762073
 30
0.0
 10
-10.544717776039718
 20
-41.60628674855961
 30
0.0
 10
-9.884303977758568
 20
-41.183528375329125
 30
0.0
 10
-9.31905591259778
 20
-40.640052845126874
 30
0.0
 10
-8.870695746706716
 20
-39.996745617793955
 30
0.0
 10
-8.556453709817287
 20
-39.27832862930593
 30
0.0
 10
-8.388405947178196
 20
-38.51241024163749
 30
0.0
 10
-8.38492544356142
 20
-38.335172428446796
 30
0.0
 10
-8.283563457394308
 20
-38.189738236833165
 30
0.0
 10
-7.969321420504885
 20
-37.471321248345134
 30
0.0
 10
-7.801273657865795
 20
-36.70540286067669
 30
0.0
 10
-7.785878150752989
 20
-35.921416887933965
 30
0.0
 10
-7.923726539870912
 20
-35.149491471385055
 30
0.0
 10
-8.209521388932027
 20
-34.419291271887154
 30
0.0
 10
-8.63227976216252
 20
-33.75887747360601
 30
0.0
 10
-9.175755292364766
 20
-33.193629408445226
 30
0.0
 10
-9.819062519697678
 20
-32.74526924255416
 30
0.0
 10
-10.53747950818571
 20
-32.43102720566473
 30
0.0
 10
-11.303397895854149
 20
-32.26297944302564
 30
0.0
 10
-12.08738386859688
 20
-32.247583935912836
 30
0.0
 10
-12.859309285145795
 20
-32.385432325030756
 30
0.0
 10
-13.589509484643685
 20
-32.671227174091875
 30
0.0
 10
-14.249923282924836
 20
-33.09398554732237
 30
0.0
 10
-14.815171348085624
 20
-33.63746107752461
 30
0.0
 10
-15.263531513976687
 20
-34.280768304857524
 30
0.0
  0
LWPOLYLINE
  8
OpenJsCad
  90
37
  70
1
 10
-18.940833747038567
 20
-45.59834084876986
 30
0.0
 10
-19.255075783927992
 20
-46.31675783725788
 30
0.0
 10
-19.341214225293218
 20
-46.709354650750825
 30
0.0
 10
-19.50228937942795
 20
-47.077603050294
 30
0.0
 10
-19.67033714206704
 20
-47.843521437962444
 30
0.0
 10
-19.685732649179847
 20
-48.62750741070518
 30
0.0
 10
-19.547884260061924
 20
-49.39943282725409
 30
0.0
 10
-19.262089411000808
 20
-50.12963302675199
 30
0.0
 10
-18.839331037770314
 20
-50.79004682503313
 30
0.0
 10
-18.29585550756807
 20
-51.35529489019392
 30
0.0
 10
-17.65254828023516
 20
-51.803655056084985
 30
0.0
 10
-16.934131291747125
 20
-52.11789709297441
 30
0.0
 10
-16.16821290407869
 20
-52.2859448556135
 30
0.0
 10
-15.384226931335954
 20
-52.30134036272631
 30
0.0
 10
-14.61230151478704
 20
-52.16349197360839
 30
0.0
 10
-13.882101315289148
 20
-51.87769712454727
 30
0.0
 10
-13.221687517008002
 20
-51.45493875131678
 30
0.0
 10
-12.656439451847213
 20
-50.91146322111453
 30
0.0
 10
-12.208079285956146
 20
-50.26815599378161
 30
0.0
 10
-11.89383724906672
 20
-49.54973900529359
 30
0.0
 10
-11.807698807701497
 20
-49.157142191800645
 30
0.0
 10
-11.646623653566763
 20
-48.78889379225747
 30
0.0
 10
-11.478575890927672
 20
-48.022975404589026
 30
0.0
 10
-11.463180383814867
 20
-47.2389894318463
 30
0.0
 10
-11.60102877293279
 20
-46.46706401529738
 30
0.0
 10
-11.886823621993905
 20
-45.73686381579949
 30
0.0
 10
-12.309581995224399
 20
-45.07645001751835
 30
0.0
 10
-12.853057525426644
 20
-44.51120195235756
 30
0.0
 10
-13.496364752759556
 20
-44.062841786466485
 30
0.0
 10
-14.214781741247588
 20
-43.74859974957706
 30
0.0
 10
-14.980700128916027
 20
-43.58055198693797
 30
0.0
 10
-15.764686101658759
 20
-43.56515647982517
 30
0.0
 10
-16.536611518207675
 20
-43.70300486894309
 30
0.0
 10
-17.266811717705565
 20
-43.98879971800421
 30
0.0
 10
-17.927225515986716
 20
-44.411558091234696
 30
0.0
 10
-18.4924735811475
 20
-44.95503362143695
 30
0.0
 10
-18.940833747038567
 20
-45.59834084876986
 30
0.0
  0
LWPOLYLINE
  8
OpenJsCad
  90
33
  70
1
 10
-27.03707899966219
 20
-70.51602157570287
 30
0.0
 10
-27.351321036551614
 20
-71.2344385641909
 30
0.0
 10
-27.519368799190705
 20
-72.00035695185933
 30
0.0
 10
-27.534764306303515
 20
-72.78434292460207
 30
0.0
 10
-27.39691591718559
 20
-73.55626834115098
 30
0.0
 10
-27.111121068124472
 20
-74.28646854064887
 30
0.0
 10
-26.688362694893982
 20
-74.94688233893002
 30
0.0
 10
-26.14488716469174
 20
-75.5121304040908
 30
0.0
 10
-25.50157993735882
 20
-75.96049056998186
 30
0.0
 10
-24.783162948870793
 20
-76.2747326068713
 30
0.0
 10
-24.017244561202357
 20
-76.4427803695104
 30
0.0
 10
-23.233258588459623
 20
-76.45817587662319
 30
0.0
 10
-22.461333171910702
 20
-76.32032748750528
 30
0.0
 10
-21.731132972412812
 20
-76.03453263844416
 30
0.0
 10
-21.070719174131664
 20
-75.61177426521367
 30
0.0
 10
-20.50547110897088
 20
-75.06829873501144
 30
0.0
 10
-20.05711094307981
 20
-74.42499150767851
 30
0.0
 10
-19.742868906190385
 20
-73.70657451919047
 30
0.0
 10
-19.574821143551294
 20
-72.94065613152205
 30
0.0
 10
-19.559425636438487
 20
-72.1566701587793
 30
0.0
 10
-19.69727402555641
 20
-71.3847447422304
 30
0.0
 10
-19.98306887461753
 20
-70.65454454273251
 30
0.0
 10
-20.405827247848023
 20
-69.99413074445135
 30
0.0
 10
-20.949302778050264
 20
-69.42888267929057
 30
0.0
 10
-21.592610005383175
 20
-68.9805225133995
 30
0.0
 10
-22.31102699387121
 20
-68.66628047651007
 30
0.0
 10
-23.076945381539648
 20
-68.49823271387098
 30
0.0
 10
-23.86093135428238
 20
-68.48283720675819
 30
0.0
 10
-24.632856770831296
 20
-68.6206855958761
 30
0.0
 10
-25.36305697032919
 20
-68.90648044493722
 30
0.0
 10
-26.023470768610338
 20
-69.32923881816771
 30
0.0
 10
-26.58871883377112
 20
-69.87271434836994
 30
0.0
 10
-27.03707899966219
 20
-70.51602157570287
 30
0.0
  0
LWPOLYLINE
  8
OpenJsCad
  90
41
  70
1
 10
-34.391683465785945
 20
-93.15116666352753
 30
0.0
 10
-34.70592550267537
 20
-93.86958365201556
 30
0.0
 10
-34.87397326531446
 20
-94.635502039684
 30
0.0
 10
-34.8743761957962
 20
-94.65602048336717
 30
0.0
 10
-34.88611065678586
 20
-94.67285708959977
 30
0.0
 10
-35.200352693675285
 20
-95.3912740780878
 30
0.0
 10
-35.368400456314376
 20
-96.15719246575624
 30
0.0
 10
-35.38379596342718
 20
-96.94117843849898
 30
0.0
 10
-35.24594757430926
 20
-97.71310385504789
 30
0.0
 10
-34.960152725248136
 20
-98.44330405454578
 30
0.0
 10
-34.53739435201765
 20
-99.10371785282693
 30
0.0
 10
-33.993918821815406
 20
-99.6689659179877
 30
0.0
 10
-33.35061159448249
 20
-100.11732608387877
 30
0.0
 10
-32.632194605994464
 20
-100.4315681207682
 30
0.0
 10
-31.86627621832603
 20
-100.59961588340731
 30
0.0
 10
-31.08229024558329
 20
-100.6150113905201
 30
0.0
 10
-30.310364829034377
 20
-100.47716300140219
 30
0.0
 10
-29.58016462953648
 20
-100.19136815234107
 30
0.0
 10
-28.919750831255335
 20
-99.76860977911058
 30
0.0
 10
-28.354502766094548
 20
-99.22513424890835
 30
0.0
 10
-27.90614260020348
 20
-98.58182702157542
 30
0.0
 10
-27.591900563314056
 20
-97.86341003308738
 30
0.0
 10
-27.423852800674965
 20
-97.09749164541896
 30
0.0
 10
-27.423449870193252
 20
-97.07697320173584
 30
0.0
 10
-27.411715409203566
 20
-97.06013659550318
 30
0.0
 10
-27.09747337231414
 20
-96.34171960701514
 30
0.0
 10
-26.92942560967505
 20
-95.57580121934672
 30
0.0
 10
-26.914030102562243
 20
-94.79181524660397
 30
0.0
 10
-27.051878491680167
 20
-94.01988983005506
 30
0.0
 10
-27.337673340741286
 20
-93.28968963055718
 30
0.0
 10
-27.760431713971776
 20
-92.62927583227602
 30
0.0
 10
-28.30390724417402
 20
-92.06402776711522
 30
0.0
 10
-28.947214471506932
 20
-91.61566760122416
 30
0.0
 10
-29.665631459994966
 20
-91.30142556433474
 30
0.0
 10
-30.431549847663405
 20
-91.13337780169563
 30
0.0
 10
-31.215535820406135
 20
-91.11798229458284
 30
0.0
 10
-31.987461236955053
 20
-91.25583068370076
 30
0.0
 10
-32.71766143645294
 20
-91.54162553276188
 30
0.0
 10
-33.37807523473409
 20
-91.96438390599238
 30
0.0
 10
-33.94332329989488
 20
-92.50785943619461
 30
0.0
 10
-34.391683465785945
 20
-93.15116666352753
 30
0.0
  0
LWPOLYLINE
  8
OpenJsCad
  90
41
  70
1
 10
7.801273657865782
 20
-36.7054028606767
 30
0.0
 10
7.969321420504873
 20
-37.471321248345134
 30
0.0
 10
8.283563457394298
 20
-38.189738236833165
 30
0.0
 10
8.384925443561405
 20
-38.33517242844679
 30
0.0
 10
8.388405947178185
 20
-38.5124102416375
 30
0.0
 10
8.556453709817275
 20
-39.27832862930593
 30
0.0
 10
8.8706957467067
 20
-39.99674561779396
 30
0.0
 10
9.319055912597765
 20
-40.64005284512688
 30
0.0
 10
9.88430397775855
 20
-41.183528375329125
 30
0.0
 10
10.5447177760397
 20
-41.60628674855962
 30
0.0
 10
11.27491797553759
 20
-41.89208159762074
 30
0.0
 10
12.046843392086506
 20
-42.02992998673866
 30
0.0
 10
12.830829364829237
 20
-42.01453447962585
 30
0.0
 10
13.596747752497677
 20
-41.84648671698676
 30
0.0
 10
14.315164740985708
 20
-41.532244680097335
 30
0.0
 10
14.958471968318623
 20
-41.08388451420627
 30
0.0
 10
15.501947498520867
 20
-40.51863644904548
 30
0.0
 10
15.92470587175136
 20
-39.85822265076434
 30
0.0
 10
16.21050072081248
 20
-39.128022451266446
 30
0.0
 10
16.3483491099304
 20
-38.35609703471753
 30
0.0
 10
16.332953602817593
 20
-37.572111061974795
 30
0.0
 10
16.164905840178506
 20
-36.80619267430636
 30
0.0
 10
15.850663803289079
 20
-36.08777568581833
 30
0.0
 10
15.749301817121975
 20
-35.94234149420471
 30
0.0
 10
15.745821313505195
 20
-35.765103681014
 30
0.0
 10
15.577773550866102
 20
-34.99918529334556
 30
0.0
 10
15.263531513976677
 20
-34.28076830485753
 30
0.0
 10
14.815171348085613
 20
-33.63746107752461
 30
0.0
 10
14.249923282924826
 20
-33.09398554732237
 30
0.0
 10
13.589509484643676
 20
-32.671227174091875
 30
0.0
 10
12.859309285145786
 20
-32.385432325030756
 30
0.0
 10
12.08738386859687
 20
-32.247583935912836
 30
0.0
 10
11.30339789585414
 20
-32.26297944302564
 30
0.0
 10
10.5374795081857
 20
-32.43102720566473
 30
0.0
 10
9.819062519697669
 20
-32.74526924255416
 30
0.0
 10
9.175755292364755
 20
-33.193629408445226
 30
0.0
 10
8.63227976216251
 20
-33.75887747360601
 30
0.0
 10
8.209521388932018
 20
-34.419291271887154
 30
0.0
 10
7.923726539870899
 20
-35.149491471385055
 30
0.0
 10
7.785878150752977
 20
-35.921416887933965
 30
0.0
 10
7.801273657865782
 20
-36.7054028606767
 30
0.0
  0
LWPOLYLINE
  8
OpenJsCad
  90
37
  70
1
 10
11.478575890927658
 20
-48.02297540458903
 30
0.0
 10
11.646623653566747
 20
-48.78889379225747
 30
0.0
 10
11.807698807701481
 20
-49.15714219180065
 30
0.0
 10
11.893837249066705
 20
-49.54973900529359
 30
0.0
 10
12.208079285956128
 20
-50.26815599378162
 30
0.0
 10
12.656439451847195
 20
-50.91146322111454
 30
0.0
 10
13.221687517007979
 20
-51.45493875131678
 30
0.0
 10
13.88210131528913
 20
-51.877697124547275
 30
0.0
 10
14.612301514787022
 20
-52.163491973608394
 30
0.0
 10
15.384226931335935
 20
-52.301340362726314
 30
0.0
 10
16.168212904078665
 20
-52.28594485561351
 30
0.0
 10
16.934131291747107
 20
-52.11789709297442
 30
0.0
 10
17.652548280235138
 20
-51.80365505608499
 30
0.0
 10
18.29585550756805
 20
-51.355294890193925
 30
0.0
 10
18.8393310377703
 20
-50.79004682503314
 30
0.0
 10
19.26208941100079
 20
-50.129633026751996
 30
0.0
 10
19.54788426006191
 20
-49.3994328272541
 30
0.0
 10
19.68573264917983
 20
-48.627507410705185
 30
0.0
 10
19.670337142067023
 20
-47.84352143796245
 30
0.0
 10
19.502289379427936
 20
-47.077603050294016
 30
0.0
 10
19.3412142252932
 20
-46.70935465075083
 30
0.0
 10
19.25507578392798
 20
-46.316757837257896
 30
0.0
 10
18.94083374703855
 20
-45.598340848769865
 30
0.0
 10
18.492473581147486
 20
-44.95503362143695
 30
0.0
 10
17.9272255159867
 20
-44.4115580912347
 30
0.0
 10
17.266811717705547
 20
-43.98879971800421
 30
0.0
 10
16.53661151820766
 20
-43.70300486894309
 30
0.0
 10
15.764686101658743
 20
-43.56515647982517
 30
0.0
 10
14.980700128916013
 20
-43.58055198693798
 30
0.0
 10
14.214781741247572
 20
-43.74859974957707
 30
0.0
 10
13.496364752759542
 20
-44.06284178646649
 30
0.0
 10
12.853057525426628
 20
-44.51120195235756
 30
0.0
 10
12.309581995224383
 20
-45.07645001751835
 30
0.0
 10
11.88682362199389
 20
-45.73686381579949
 30
0.0
 10
11.601028772932775
 20
-46.46706401529739
 30
0.0
 10
11.463180383814851
 20
-47.2389894318463
 30
0.0
 10
11.478575890927658
 20
-48.02297540458903
 30
0.0
  0
LWPOLYLINE
  8
OpenJsCad
  90
33
  70
1
 10
19.57482114355127
 20
-72.94065613152205
 30
0.0
 10
19.74286890619036
 20
-73.70657451919048
 30
0.0
 10
20.057110943079785
 20
-74.42499150767853
 30
0.0
 10
20.505471108970855
 20
-75.06829873501144
 30
0.0
 10
21.070719174131636
 20
-75.61177426521367
 30
0.0
 10
21.731132972412784
 20
-76.03453263844416
 30
0.0
 10
22.461333171910677
 20
-76.32032748750528
 30
0.0
 10
23.23325858845959
 20
-76.4581758766232
 30
0.0
 10
24.01724456120232
 20
-76.4427803695104
 30
0.0
 10
24.783162948870764
 20
-76.27473260687131
 30
0.0
 10
25.501579937358798
 20
-75.96049056998189
 30
0.0
 10
26.14488716469171
 20
-75.51213040409083
 30
0.0
 10
26.688362694893957
 20
-74.94688233893002
 30
0.0
 10
27.111121068124444
 20
-74.28646854064887
 30
0.0
 10
27.396915917185563
 20
-73.55626834115098
 30
0.0
 10
27.53476430630349
 20
-72.78434292460207
 30
0.0
 10
27.51936879919068
 20
-72.00035695185935
 30
0.0
 10
27.35132103655159
 20
-71.23443856419091
 30
0.0
 10
27.037078999662164
 20
-70.51602157570287
 30
0.0
 10
26.588718833771097
 20
-69.87271434836995
 30
0.0
 10
26.023470768610313
 20
-69.32923881816772
 30
0.0
 10
25.363056970329165
 20
-68.90648044493723
 30
0.0
 10
24.632856770831275
 20
-68.62068559587611
 30
0.0
 10
23.860931354282357
 20
-68.48283720675819
 30
0.0
 10
23.076945381539627
 20
-68.49823271387098
 30
0.0
 10
22.311026993871188
 20
-68.66628047651008
 30
0.0
 10
21.592610005383154
 20
-68.9805225133995
 30
0.0
 10
20.949302778050242
 20
-69.42888267929057
 30
0.0
 10
20.405827247848
 20
-69.99413074445137
 30
0.0
 10
19.983068874617505
 20
-70.65454454273252
 30
0.0
 10
19.697274025556386
 20
-71.38474474223041
 30
0.0
 10
19.559425636438462
 20
-72.15667015877932
 30
0.0
 10
19.57482114355127
 20
-72.94065613152205
 30
0.0
  0
LWPOLYLINE
  8
OpenJsCad
  90
41
  70
1
 10
26.929425609675018
 20
-95.57580121934672
 30
0.0
 10
27.09747337231411
 20
-96.34171960701515
 30
0.0
 10
27.411715409203534
 20
-97.0601365955032
 30
0.0
 10
27.423449870193217
 20
-97.07697320173587
 30
0.0
 10
27.423852800674933
 20
-97.09749164541896
 30
0.0
 10
27.591900563314024
 20
-97.86341003308739
 30
0.0
 10
27.90614260020345
 20
-98.58182702157544
 30
0.0
 10
28.354502766094516
 20
-99.22513424890835
 30
0.0
 10
28.9197508312553
 20
-99.76860977911058
 30
0.0
 10
29.580164629536444
 20
-100.19136815234107
 30
0.0
 10
30.310364829034338
 20
-100.47716300140219
 30
0.0
 10
31.082290245583252
 20
-100.61501139052011
 30
0.0
 10
31.866276218325982
 20
-100.59961588340731
 30
0.0
 10
32.63219460599443
 20
-100.43156812076822
 30
0.0
 10
33.35061159448246
 20
-100.1173260838788
 30
0.0
 10
33.99391882181537
 20
-99.66896591798773
 30
0.0
 10
34.537394352017614
 20
-99.10371785282693
 30
0.0
 10
34.9601527252481
 20
-98.44330405454578
 30
0.0
 10
35.24594757430923
 20
-97.71310385504789
 30
0.0
 10
35.383795963427154
 20
-96.94117843849898
 30
0.0
 10
35.36840045631434
 20
-96.15719246575625
 30
0.0
 10
35.200352693675256
 20
-95.39127407808782
 30
0.0
 10
34.886110656785824
 20
-94.67285708959977
 30
0.0
 10
34.87437619579616
 20
-94.65602048336717
 30
0.0
 10
34.873973265314426
 20
-94.63550203968401
 30
0.0
 10
34.70592550267534
 20
-93.86958365201558
 30
0.0
 10
34.39168346578591
 20
-93.15116666352753
 30
0.0
 10
33.94332329989485
 20
-92.50785943619462
 30
0.0
 10
33.37807523473406
 20
-91.96438390599239
 30
0.0
 10
32.717661436452914
 20
-91.5416255327619
 30
0.0
 10
31.987461236955024
 20
-91.25583068370078
 30
0.0
 10
31.215535820406107
 20
-91.11798229458286
 30
0.0
 10
30.431549847663373
 20
-91.13337780169564
 30
0.0
 10
29.665631459994934
 20
-91.30142556433475
 30
0.0
 10
28.9472144715069
 20
-91.61566760122417
 30
0.0
 10
28.303907244173992
 20
-92.06402776711523
 30
0.0
 10
27.760431713971748
 20
-92.62927583227604
 30
0.0
 10
27.337673340741254
 20
-93.28968963055719
 30
0.0
 10
27.051878491680135
 20
-94.01988983005508
 30
0.0
 10
26.91403010256221
 20
-94.79181524660399
 30
0.0
 10
26.929425609675018
 20
-95.57580121934672
 30
0.0
  0
LWPOLYLINE
  8
OpenJsCad
  90
41
  70
1
 10
27.886257447942743
 20
-25.109821094475
 30
0.0
 10
28.47240647651559
 20
-25.63068608984302
 30
0.0
 10
29.14890853553577
 20
-26.027190807643557
 30
0.0
 10
29.316396177938124
 20
-26.08527045961006
 30
0.0
 10
29.42338973725515
 20
-26.226613073830702
 30
0.0
 10
30.009538765827998
 20
-26.747478069198724
 30
0.0
 10
30.686040824848178
 20
-27.143982786999256
 30
0.0
 10
31.426898319574267
 20
-27.400889773289638
 30
0.0
 10
32.20364051196161
 20
-27.508326236661826
 30
0.0
 10
32.986417635158816
 20
-27.462163454079487
 30
0.0
 10
33.745148003307854
 20
-27.26417543538887
 30
0.0
 10
34.45067403386168
 20
-26.921970749115303
 30
0.0
 10
35.075882757129655
 20
-26.44870012944168
 30
0.0
 10
35.59674775249768
 20
-25.862551100868828
 30
0.0
 10
35.99325247029821
 20
-25.186049041848648
 30
0.0
 10
36.2501594565886
 20
-24.445191547122555
 30
0.0
 10
36.35759591996078
 20
-23.66844935473521
 30
0.0
 10
36.311433137378444
 20
-22.885672231538013
 30
0.0
 10
36.11344511868783
 20
-22.126941863388964
 30
0.0
 10
35.77124043241426
 20
-21.421415832835137
 30
0.0
 10
35.29796981274063
 20
-20.796207109567167
 30
0.0
 10
34.711820784167784
 20
-20.275342114199145
 30
0.0
 10
34.035318725147604
 20
-19.878837396398612
 30
0.0
 10
33.867831082745255
 20
-19.820757744432107
 30
0.0
 10
33.76083752342823
 20
-19.679415130211467
 30
0.0
 10
33.174688494855374
 20
-19.15855013484344
 30
0.0
 10
32.4981864358352
 20
-18.76204541704291
 30
0.0
 10
31.757328941109108
 20
-18.505138430752524
 30
0.0
 10
30.980586748721763
 20
-18.39770196738034
 30
0.0
 10
30.19780962552456
 20
-18.443864749962678
 30
0.0
 10
29.439079257375514
 20
-18.641852768653294
 30
0.0
 10
28.73355322682169
 20
-18.984057454926862
 30
0.0
 10
28.10834450355372
 20
-19.457328074600486
 30
0.0
 10
27.587479508185694
 20
-20.043477103173338
 30
0.0
 10
27.19097479038516
 20
-20.719979162193518
 30
0.0
 10
26.93406780409478
 20
-21.46083665691961
 30
0.0
 10
26.826631340722596
 20
-22.237578849306956
 30
0.0
 10
26.87279412330493
 20
-23.020355972504152
 30
0.0
 10
27.07078214199555
 20
-23.7790863406532
 30
0.0
 10
27.41298682826912
 20
-24.484612371207024
 30
0.0
 10
27.886257447942743
 20
-25.109821094475
 30
0.0
  0
LWPOLYLINE
  8
OpenJsCad
  90
37
  70
1
 10
37.51355968100462
 20
-32.10446559675543
 30
0.0
 10
38.09970870957747
 20
-32.625330592123454
 30
0.0
 10
38.446472225075816
 20
-32.82857220539413
 30
0.0
 10
38.746922305077426
 20
-33.09555879395743
 30
0.0
 10
39.423424364097606
 20
-33.49206351175797
 30
0.0
 10
40.16428185882369
 20
-33.74897049804835
 30
0.0
 10
40.94102405121104
 20
-33.85640696142053
 30
0.0
 10
41.723801174408244
 20
-33.8102441788382
 30
0.0
 10
42.48253154255728
 20
-33.61225616014758
 30
0.0
 10
43.18805757311111
 20
-33.27005147387402
 30
0.0
 10
43.81326629637908
 20
-32.796780854200385
 30
0.0
 10
44.334131291747106
 20
-32.21063182562754
 30
0.0
 10
44.73063600954764
 20
-31.534129766607357
 30
0.0
 10
44.98754299583803
 20
-30.793272271881268
 30
0.0
 10
45.09497945921021
 20
-30.01653007949392
 30
0.0
 10
45.04881667662787
 20
-29.233752956296726
 30
0.0
 10
44.85082865793726
 20
-28.475022588147674
 30
0.0
 10
44.50862397166369
 20
-27.769496557593847
 30
0.0
 10
44.03535335199006
 20
-27.14428783432588
 30
0.0
 10
43.44920432341721
 20
-26.623422838957854
 30
0.0
 10
43.10244080791886
 20
-26.42018122568718
 30
0.0
 10
42.80199072791726
 20
-26.153194637123878
 30
0.0
 10
42.12548866889708
 20
-25.756689919323346
 30
0.0
 10
41.384631174170984
 20
-25.49978293303296
 30
0.0
 10
40.60788898178364
 20
-25.392346469660776
 30
0.0
 10
39.82511185858644
 20
-25.438509252243115
 30
0.0
 10
39.066381490437394
 20
-25.63649727093373
 30
0.0
 10
38.360855459883574
 20
-25.9787019572073
 30
0.0
 10
37.73564673661559
 20
-26.451972576880923
 30
0.0
 10
37.21478174124757
 20
-27.038121605453775
 30
0.0
 10
36.81827702344704
 20
-27.714623664473955
 30
0.0
 10
36.56137003715666
 20
-28.455481159200048
 30
0.0
 10
36.45393357378447
 20
-29.232223351587393
 30
0.0
 10
36.50009635636681
 20
-30.01500047478459
 30
0.0
 10
36.69808437505743
 20
-30.773730842933638
 30
0.0
 10
37.04028906133099
 20
-31.47925687348746
 30
0.0
 10
37.51355968100462
 20
-32.10446559675543
 30
0.0
  0
LWPOLYLINE
  8
OpenJsCad
  90
33
  70
1
 10
58.70980493362823
 20
-47.50443920681823
 30
0.0
 10
59.295953962201075
 20
-48.02530420218625
 30
0.0
 10
59.972456021221255
 20
-48.42180891998679
 30
0.0
 10
60.71331351594735
 20
-48.67871590627717
 30
0.0
 10
61.490055708334694
 20
-48.78615236964936
 30
0.0
 10
62.272832831531886
 20
-48.739989587067015
 30
0.0
 10
63.03156319968094
 20
-48.5420015683764
 30
0.0
 10
63.73708923023476
 20
-48.19979688210284
 30
0.0
 10
64.36229795350272
 20
-47.7265262624292
 30
0.0
 10
64.88316294887076
 20
-47.140377233856356
 30
0.0
 10
65.2796676666713
 20
-46.46387517483618
 30
0.0
 10
65.53657465296168
 20
-45.72301768011009
 30
0.0
 10
65.64401111633386
 20
-44.94627548772274
 30
0.0
 10
65.59784833375151
 20
-44.16349836452554
 30
0.0
 10
65.3998603150609
 20
-43.40476799637649
 30
0.0
 10
65.05765562878734
 20
-42.69924196582267
 30
0.0
 10
64.58438500911372
 20
-42.07403324255469
 30
0.0
 10
63.99823598054086
 20
-41.553168247186676
 30
0.0
 10
63.32173392152068
 20
-41.15666352938614
 30
0.0
 10
62.58087642679459
 20
-40.899756543095755
 30
0.0
 10
61.80413423440725
 20
-40.792320079723574
 30
0.0
 10
61.02135711121005
 20
-40.838482862305916
 30
0.0
 10
60.262626743061006
 20
-41.036470880996525
 30
0.0
 10
59.55710071250718
 20
-41.3786755672701
 30
0.0
 10
58.9318919892392
 20
-41.851946186943714
 30
0.0
 10
58.41102699387118
 20
-42.43809521551657
 30
0.0
 10
58.01452227607064
 20
-43.11459727453674
 30
0.0
 10
57.75761528978026
 20
-43.85545476926284
 30
0.0
 10
57.65017882640808
 20
-44.63219696165019
 30
0.0
 10
57.69634160899042
 20
-45.414974084847394
 30
0.0
 10
57.89432962768104
 20
-46.17370445299644
 30
0.0
 10
58.23653431395459
 20
-46.87923048355025
 30
0.0
 10
58.70980493362823
 20
-47.50443920681823
 30
0.0
  0
LWPOLYLINE
  8
OpenJsCad
  90
41
  70
1
 10
77.96440939975197
 20
-61.49372821137911
 30
0.0
 10
78.55055842832483
 20
-62.01459320674712
 30
0.0
 10
79.227060487345
 20
-62.41109792454766
 30
0.0
 10
79.24645017454772
 20
-62.41782168200416
 30
0.0
 10
79.25883659075188
 20
-62.43418461504706
 30
0.0
 10
79.84498561932475
 20
-62.955049610415074
 30
0.0
 10
80.52148767834491
 20
-63.35155432821562
 30
0.0
 10
81.26234517307101
 20
-63.608461314505995
 30
0.0
 10
82.03908736545834
 20
-63.71589777787818
 30
0.0
 10
82.82186448865555
 20
-63.66973499529584
 30
0.0
 10
83.58059485680461
 20
-63.471746976605225
 30
0.0
 10
84.28612088735842
 20
-63.12954229033166
 30
0.0
 10
84.9113296106264
 20
-62.65627167065803
 30
0.0
 10
85.43219460599443
 20
-62.07012264208518
 30
0.0
 10
85.82869932379496
 20
-61.39362058306501
 30
0.0
 10
86.08560631008534
 20
-60.652763088338915
 30
0.0
 10
86.19304277345752
 20
-59.87602089595156
 30
0.0
 10
86.14687999087518
 20
-59.09324377275436
 30
0.0
 10
85.94889197218457
 20
-58.33451340460532
 30
0.0
 10
85.60668728591101
 20
-57.6289873740515
 30
0.0
 10
85.13341666623738
 20
-57.003778650783524
 30
0.0
 10
84.54726763766453
 20
-56.4829136554155
 30
0.0
 10
83.87076557864435
 20
-56.08640893761496
 30
0.0
 10
83.85137589144169
 20
-56.07968518015851
 30
0.0
 10
83.83898947523747
 20
-56.063322247115565
 30
0.0
 10
83.25284044666462
 20
-55.54245725174755
 30
0.0
 10
82.57633838764444
 20
-55.14595253394701
 30
0.0
 10
81.83548089291834
 20
-54.88904554765663
 30
0.0
 10
81.05873870053101
 20
-54.78160908428445
 30
0.0
 10
80.2759615773338
 20
-54.82777186686678
 30
0.0
 10
79.51723120918474
 20
-55.0257598855574
 30
0.0
 10
78.81170517863093
 20
-55.367964571830974
 30
0.0
 10
78.18649645536296
 20
-55.84123519150459
 30
0.0
 10
77.66563145999493
 20
-56.42738422007744
 30
0.0
 10
77.26912674219439
 20
-57.103886279097615
 30
0.0
 10
77.01221975590401
 20
-57.844743773823716
 30
0.0
 10
76.90478329253183
 20
-58.62148596621106
 30
0.0
 10
76.95094607511417
 20
-59.40426308940826
 30
0.0
 10
77.14893409380478
 20
-60.16299345755731
 30
0.0
 10
77.49113878007834
 20
-60.868519488111126
 30
0.0
 10
77.96440939975197
 20
-61.49372821137911
 30
0.0
  0
ENDSEC
  0
EOF
