999
DXF generated by OpenJsCad
  0
SECTION
  2
HEADER
  0
ENDSEC
  0
SECTION
  2
TABLES
  0
TABLE
  2
LTYPE
  70
1
  0
LTYPE
  2
CONTINUOUS
  3
Solid Line
  72
65
  73
0
  40
0.0
  0
ENDTAB
  0
TABLE
  2
LAYER
  70
1
  0
LAYER
  2
OpenJsCad
  62
7
  6
continuous
  0
ENDTAB
  0
TABLE
  2
STYLE
  70
0
  0
ENDTAB
  0
TABLE
  2
VIEW
  70
0
  0
ENDTAB
  0
ENDSEC
  0
SECTION
  2
BLOCKS
  0
ENDSEC
  0
SECTION
  2
ENTITIES
  0
LWPOLYLINE
  8
OpenJsCad
  90
33
  70
1
 10
-0.7803612880645147
 20
-3.9231411216129213
 30
0.0
 10
-7.347880794884119e-16
 20
-4
 30
0.0
 10
0.7803612880645132
 20
-3.9231411216129217
 30
0.0
 10
1.53073372946036
 20
-3.6955181300451465
 30
0.0
 10
2.2222809320784074
 20
-3.325878449210182
 30
0.0
 10
2.8284271247461894
 20
-2.8284271247461907
 30
0.0
 10
3.325878449210181
 20
-2.2222809320784087
 30
0.0
 10
3.695518130045146
 20
-1.5307337294603616
 30
0.0
 10
3.9231411216129213
 20
-0.7803612880645149
 30
0.0
 10
4
 20
0
 30
0.0
 10
3.9231411216129217
 20
0.780361288064513
 30
0.0
 10
3.695518130045147
 20
1.5307337294603591
 30
0.0
 10
3.325878449210181
 20
2.2222809320784087
 30
0.0
 10
2.8284271247461903
 20
2.82842712474619
 30
0.0
 10
2.222280932078409
 20
3.325878449210181
 30
0.0
 10
1.5307337294603593
 20
3.695518130045147
 30
0.0
 10
0.7803612880645133
 20
3.9231411216129217
 30
0.0
 10
2.4492935982947064e-16
 20
4
 30
0.0
 10
-0.7803612880645128
 20
3.9231411216129217
 30
0.0
 10
-1.530733729460359
 20
3.695518130045147
 30
0.0
 10
-2.222280932078408
 20
3.3258784492101814
 30
0.0
 10
-2.82842712474619
 20
2.8284271247461903
 30
0.0
 10
-3.3258784492101814
 20
2.2222809320784087
 30
0.0
 10
-3.695518130045147
 20
1.5307337294603596
 30
0.0
 10
-3.9231411216129217
 20
0.7803612880645144
 30
0.0
 10
-4
 20
4.898587196589413e-16
 30
0.0
 10
-3.9231411216129217
 20
-0.7803612880645134
 30
0.0
 10
-3.6955181300451474
 20
-1.5307337294603587
 30
0.0
 10
-3.325878449210182
 20
-2.222280932078408
 30
0.0
 10
-2.8284271247461907
 20
-2.82842712474619
 30
0.0
 10
-2.2222809320784087
 20
-3.325878449210181
 30
0.0
 10
-1.5307337294603613
 20
-3.695518130045146
 30
0.0
 10
-0.7803612880645147
 20
-3.9231411216129213
 30
0.0
  0
LWPOLYLINE
  8
OpenJsCad
  90
75
  70
1
 10
11.919638711935484
 20
-3.9231411216129213
 30
0.0
 10
12.7
 20
-4
 30
0.0
 10
13.480361288064513
 20
-3.9231411216129217
 30
0.0
 10
14.23073372946036
 20
-3.6955181300451465
 30
0.0
 10
14.922280932078406
 20
-3.325878449210182
 30
0.0
 10
15.52842712474619
 20
-2.8284271247461907
 30
0.0
 10
15.874999999999998
 20
-2.4061268543762635
 30
0.0
 10
16.221572875253806
 20
-2.82842712474619
 30
0.0
 10
16.82771906792159
 20
-3.325878449210181
 30
0.0
 10
17.519266270539635
 20
-3.695518130045146
 30
0.0
 10
18.26963871193548
 20
-3.9231411216129213
 30
0.0
 10
19.049999999999997
 20
-4
 30
0.0
 10
19.83036128806451
 20
-3.9231411216129217
 30
0.0
 10
20.580733729460356
 20
-3.6955181300451465
 30
0.0
 10
21.272280932078406
 20
-3.325878449210182
 30
0.0
 10
21.878427124746185
 20
-2.8284271247461907
 30
0.0
 10
22.024999999999995
 20
-2.6498275594938523
 30
0.0
 10
22.17157287525381
 20
-2.8284271247461934
 30
0.0
 10
22.77771906792159
 20
-3.325878449210181
 30
0.0
 10
23.469266270539638
 20
-3.695518130045146
 30
0.0
 10
24.219638711935485
 20
-3.9231411216129213
 30
0.0
 10
25
 20
-4
 30
0.0
 10
25.4
 20
-4
 30
0.0
 10
26.18036128806451
 20
-3.9231411216129217
 30
0.0
 10
26.930733729460357
 20
-3.6955181300451465
 30
0.0
 10
27.622280932078407
 20
-3.325878449210182
 30
0.0
 10
28.228427124746187
 20
-2.8284271247461907
 30
0.0
 10
28.725878449210178
 20
-2.2222809320784087
 30
0.0
 10
29.095518130045143
 20
-1.5307337294603616
 30
0.0
 10
29.32314112161292
 20
-0.7803612880645149
 30
0.0
 10
29.4
 20
0
 30
0.0
 10
29.32314112161292
 20
0.780361288064513
 30
0.0
 10
29.095518130045146
 20
1.5307337294603591
 30
0.0
 10
28.725878449210178
 20
2.2222809320784087
 30
0.0
 10
28.22842712474619
 20
2.82842712474619
 30
0.0
 10
27.622280932078407
 20
3.325878449210181
 30
0.0
 10
26.930733729460357
 20
3.695518130045147
 30
0.0
 10
26.18036128806451
 20
3.9231411216129217
 30
0.0
 10
25.4
 20
4
 30
0.0
 10
25
 20
4
 30
0.0
 10
24.219638711935488
 20
3.9231411216129217
 30
0.0
 10
23.46926627053964
 20
3.695518130045147
 30
0.0
 10
22.77771906792159
 20
3.3258784492101814
 30
0.0
 10
22.17157287525381
 20
2.8284271247461903
 30
0.0
 10
22.025000000000002
 20
2.649827559493854
 30
0.0
 10
21.878427124746192
 20
2.82842712474619
 30
0.0
 10
21.272280932078406
 20
3.325878449210181
 30
0.0
 10
20.580733729460356
 20
3.695518130045147
 30
0.0
 10
19.83036128806451
 20
3.9231411216129217
 30
0.0
 10
19.049999999999997
 20
4
 30
0.0
 10
18.269638711935485
 20
3.9231411216129217
 30
0.0
 10
17.51926627053964
 20
3.695518130045147
 30
0.0
 10
16.82771906792159
 20
3.3258784492101814
 30
0.0
 10
16.221572875253806
 20
2.8284271247461903
 30
0.0
 10
15.874999999999998
 20
2.4061268543762635
 30
0.0
 10
15.528427124746191
 20
2.82842712474619
 30
0.0
 10
14.922280932078408
 20
3.325878449210181
 30
0.0
 10
14.230733729460358
 20
3.695518130045147
 30
0.0
 10
13.480361288064513
 20
3.9231411216129217
 30
0.0
 10
12.7
 20
4
 30
0.0
 10
11.919638711935487
 20
3.9231411216129217
 30
0.0
 10
11.16926627053964
 20
3.695518130045147
 30
0.0
 10
10.47771906792159
 20
3.3258784492101814
 30
0.0
 10
9.87157287525381
 20
2.8284271247461903
 30
0.0
 10
9.374121550789818
 20
2.2222809320784087
 30
0.0
 10
9.004481869954851
 20
1.5307337294603596
 30
0.0
 10
8.776858878387078
 20
0.7803612880645144
 30
0.0
 10
8.7
 20
4.898587196589413e-16
 30
0.0
 10
8.776858878387078
 20
-0.7803612880645134
 30
0.0
 10
9.004481869954851
 20
-1.5307337294603587
 30
0.0
 10
9.374121550789818
 20
-2.222280932078408
 30
0.0
 10
9.871572875253808
 20
-2.82842712474619
 30
0.0
 10
10.47771906792159
 20
-3.325878449210181
 30
0.0
 10
11.169266270539637
 20
-3.695518130045146
 30
0.0
 10
11.919638711935484
 20
-3.9231411216129213
 30
0.0
  0
LWPOLYLINE
  8
OpenJsCad
  90
35
  70
1
 10
-50.8
 20
-4
 30
0.0
 10
-50
 20
-4
 30
0.0
 10
-49.21963871193549
 20
-3.9231411216129155
 30
0.0
 10
-48.46926627053964
 20
-3.695518130045141
 30
0.0
 10
-47.777719067921595
 20
-3.3258784492101756
 30
0.0
 10
-47.17157287525381
 20
-2.8284271247461845
 30
0.0
 10
-46.67412155078982
 20
-2.222280932078403
 30
0.0
 10
-46.304481869954856
 20
-1.5307337294603538
 30
0.0
 10
-46.07685887838708
 20
-0.7803612880645088
 30
0.0
 10
-46
 20
5.143516556418883e-15
 30
0.0
 10
-46.07685887838708
 20
0.7803612880645191
 30
0.0
 10
-46.304481869954856
 20
1.5307337294603645
 30
0.0
 10
-46.67412155078982
 20
2.2222809320784136
 30
0.0
 10
-47.17157287525381
 20
2.8284271247461956
 30
0.0
 10
-47.777719067921595
 20
3.3258784492101867
 30
0.0
 10
-48.46926627053964
 20
3.695518130045152
 30
0.0
 10
-49.21963871193549
 20
3.9231411216129275
 30
0.0
 10
-50
 20
4
 30
0.0
 10
-50.8
 20
4
 30
0.0
 10
-51.58036128806451
 20
3.923141121612928
 30
0.0
 10
-52.330733729460356
 20
3.6955181300451527
 30
0.0
 10
-53.0222809320784
 20
3.3258784492101885
 30
0.0
 10
-53.62842712474619
 20
2.8284271247461974
 30
0.0
 10
-54.12587844921018
 20
2.2222809320784154
 30
0.0
 10
-54.49551813004514
 20
1.5307337294603682
 30
0.0
 10
-54.72314112161292
 20
0.7803612880645215
 30
0.0
 10
-54.8
 20
6.711064459327495e-15
 30
0.0
 10
-54.72314112161292
 20
-0.7803612880645063
 30
0.0
 10
-54.49551813004514
 20
-1.5307337294603525
 30
0.0
 10
-54.12587844921018
 20
-2.222280932078402
 30
0.0
 10
-53.62842712474619
 20
-2.828427124746183
 30
0.0
 10
-53.02228093207841
 20
-3.3258784492101743
 30
0.0
 10
-52.330733729460356
 20
-3.6955181300451407
 30
0.0
 10
-51.58036128806451
 20
-3.9231411216129155
 30
0.0
 10
-50.8
 20
-4
 30
0.0
  0
LWPOLYLINE
  8
OpenJsCad
  90
75
  70
1
 10
-25.4
 20
-4
 30
0.0
 10
-25
 20
-4
 30
0.0
 10
-24.219638711935488
 20
-3.9231411216129186
 30
0.0
 10
-23.46926627053964
 20
-3.6955181300451443
 30
0.0
 10
-22.77771906792159
 20
-3.3258784492101787
 30
0.0
 10
-22.17157287525381
 20
-2.8284271247461876
 30
0.0
 10
-22.025000000000002
 20
-2.6498275594938514
 30
0.0
 10
-21.878427124746192
 20
-2.828427124746187
 30
0.0
 10
-21.272280932078406
 20
-3.3258784492101783
 30
0.0
 10
-20.580733729460356
 20
-3.6955181300451443
 30
0.0
 10
-19.83036128806451
 20
-3.9231411216129195
 30
0.0
 10
-19.049999999999997
 20
-3.999999999999998
 30
0.0
 10
-18.269638711935485
 20
-3.9231411216129195
 30
0.0
 10
-17.51926627053964
 20
-3.6955181300451447
 30
0.0
 10
-16.82771906792159
 20
-3.325878449210179
 30
0.0
 10
-16.221572875253806
 20
-2.8284271247461885
 30
0.0
 10
-15.874999999999998
 20
-2.4061268543762617
 30
0.0
 10
-15.528427124746191
 20
-2.828427124746188
 30
0.0
 10
-14.922280932078408
 20
-3.325878449210179
 30
0.0
 10
-14.230733729460358
 20
-3.695518130045145
 30
0.0
 10
-13.480361288064513
 20
-3.92314112161292
 30
0.0
 10
-12.7
 20
-3.9999999999999982
 30
0.0
 10
-11.919638711935487
 20
-3.9231411216129204
 30
0.0
 10
-11.16926627053964
 20
-3.6955181300451456
 30
0.0
 10
-10.47771906792159
 20
-3.32587844921018
 30
0.0
 10
-9.87157287525381
 20
-2.828427124746189
 30
0.0
 10
-9.374121550789818
 20
-2.2222809320784074
 30
0.0
 10
-9.004481869954851
 20
-1.5307337294603585
 30
0.0
 10
-8.776858878387078
 20
-0.7803612880645133
 30
0.0
 10
-8.7
 20
5.75583995599256e-16
 30
0.0
 10
-8.776858878387078
 20
0.7803612880645145
 30
0.0
 10
-9.004481869954851
 20
1.5307337294603598
 30
0.0
 10
-9.374121550789818
 20
2.222280932078409
 30
0.0
 10
-9.871572875253808
 20
2.828427124746191
 30
0.0
 10
-10.47771906792159
 20
3.3258784492101823
 30
0.0
 10
-11.169266270539637
 20
3.6955181300451474
 30
0.0
 10
-11.919638711935484
 20
3.9231411216129226
 30
0.0
 10
-12.7
 20
4.000000000000002
 30
0.0
 10
-13.480361288064513
 20
3.9231411216129235
 30
0.0
 10
-14.23073372946036
 20
3.6955181300451483
 30
0.0
 10
-14.922280932078406
 20
3.3258784492101836
 30
0.0
 10
-15.52842712474619
 20
2.8284271247461925
 30
0.0
 10
-15.874999999999998
 20
2.4061268543762653
 30
0.0
 10
-16.221572875253806
 20
2.8284271247461916
 30
0.0
 10
-16.82771906792159
 20
3.325878449210183
 30
0.0
 10
-17.519266270539635
 20
3.6955181300451483
 30
0.0
 10
-18.26963871193548
 20
3.9231411216129235
 30
0.0
 10
-19.049999999999997
 20
4.000000000000003
 30
0.0
 10
-19.83036128806451
 20
3.923141121612924
 30
0.0
 10
-20.580733729460356
 20
3.695518130045149
 30
0.0
 10
-21.272280932078406
 20
3.3258784492101845
 30
0.0
 10
-21.878427124746185
 20
2.8284271247461934
 30
0.0
 10
-22.024999999999995
 20
2.649827559493855
 30
0.0
 10
-22.17157287525381
 20
2.828427124746196
 30
0.0
 10
-22.77771906792159
 20
3.3258784492101836
 30
0.0
 10
-23.469266270539638
 20
3.6955181300451487
 30
0.0
 10
-24.219638711935485
 20
3.9231411216129244
 30
0.0
 10
-25
 20
4
 30
0.0
 10
-25.4
 20
4
 30
0.0
 10
-26.18036128806451
 20
3.923141121612925
 30
0.0
 10
-26.930733729460357
 20
3.6955181300451496
 30
0.0
 10
-27.622280932078407
 20
3.3258784492101854
 30
0.0
 10
-28.228427124746187
 20
2.8284271247461943
 30
0.0
 10
-28.725878449210178
 20
2.2222809320784123
 30
0.0
 10
-29.095518130045143
 20
1.5307337294603651
 30
0.0
 10
-29.32314112161292
 20
0.7803612880645184
 30
0.0
 10
-29.4
 20
3.600461589493218e-15
 30
0.0
 10
-29.32314112161292
 20
-0.7803612880645094
 30
0.0
 10
-29.095518130045146
 20
-1.5307337294603556
 30
0.0
 10
-28.725878449210178
 20
-2.222280932078405
 30
0.0
 10
-28.22842712474619
 20
-2.8284271247461863
 30
0.0
 10
-27.622280932078407
 20
-3.3258784492101774
 30
0.0
 10
-26.930733729460357
 20
-3.695518130045144
 30
0.0
 10
-26.18036128806451
 20
-3.9231411216129186
 30
0.0
 10
-25.4
 20
-4
 30
0.0
  0
LWPOLYLINE
  8
OpenJsCad
  90
35
  70
1
 10
50
 20
-4
 30
0.0
 10
50.8
 20
-4
 30
0.0
 10
51.58036128806451
 20
-3.9231411216129217
 30
0.0
 10
52.330733729460356
 20
-3.6955181300451465
 30
0.0
 10
53.0222809320784
 20
-3.325878449210182
 30
0.0
 10
53.62842712474619
 20
-2.8284271247461907
 30
0.0
 10
54.12587844921018
 20
-2.2222809320784087
 30
0.0
 10
54.49551813004514
 20
-1.5307337294603616
 30
0.0
 10
54.72314112161292
 20
-0.7803612880645149
 30
0.0
 10
54.8
 20
0
 30
0.0
 10
54.72314112161292
 20
0.780361288064513
 30
0.0
 10
54.49551813004514
 20
1.5307337294603591
 30
0.0
 10
54.12587844921018
 20
2.2222809320784087
 30
0.0
 10
53.62842712474619
 20
2.82842712474619
 30
0.0
 10
53.02228093207841
 20
3.325878449210181
 30
0.0
 10
52.330733729460356
 20
3.695518130045147
 30
0.0
 10
51.58036128806451
 20
3.9231411216129217
 30
0.0
 10
50.8
 20
4
 30
0.0
 10
50
 20
4
 30
0.0
 10
49.21963871193549
 20
3.9231411216129217
 30
0.0
 10
48.46926627053964
 20
3.695518130045147
 30
0.0
 10
47.777719067921595
 20
3.3258784492101814
 30
0.0
 10
47.17157287525381
 20
2.8284271247461903
 30
0.0
 10
46.67412155078982
 20
2.2222809320784087
 30
0.0
 10
46.304481869954856
 20
1.5307337294603596
 30
0.0
 10
46.07685887838708
 20
0.7803612880645144
 30
0.0
 10
46
 20
4.898587196589413e-16
 30
0.0
 10
46.07685887838708
 20
-0.7803612880645134
 30
0.0
 10
46.304481869954856
 20
-1.5307337294603587
 30
0.0
 10
46.67412155078982
 20
-2.222280932078408
 30
0.0
 10
47.17157287525381
 20
-2.82842712474619
 30
0.0
 10
47.777719067921595
 20
-3.325878449210181
 30
0.0
 10
48.46926627053964
 20
-3.695518130045146
 30
0.0
 10
49.21963871193549
 20
-3.9231411216129213
 30
0.0
 10
50
 20
-4
 30
0.0
  0
LWPOLYLINE
  8
OpenJsCad
  90
41
  70
1
 10
37.31963871193548
 20
-3.9231411216129213
 30
0.0
 10
38.099999999999994
 20
-4
 30
0.0
 10
38.880361288064506
 20
-3.9231411216129217
 30
0.0
 10
39.05
 20
-3.8716817809358695
 30
0.0
 10
39.21963871193549
 20
-3.9231411216129213
 30
0.0
 10
40
 20
-4
 30
0.0
 10
40.78036128806451
 20
-3.9231411216129217
 30
0.0
 10
41.53073372946036
 20
-3.6955181300451465
 30
0.0
 10
42.222280932078405
 20
-3.325878449210182
 30
0.0
 10
42.82842712474619
 20
-2.8284271247461907
 30
0.0
 10
43.32587844921018
 20
-2.2222809320784087
 30
0.0
 10
43.695518130045144
 20
-1.5307337294603616
 30
0.0
 10
43.92314112161292
 20
-0.7803612880645149
 30
0.0
 10
44
 20
0
 30
0.0
 10
43.92314112161292
 20
0.780361288064513
 30
0.0
 10
43.695518130045144
 20
1.5307337294603591
 30
0.0
 10
43.32587844921018
 20
2.2222809320784087
 30
0.0
 10
42.82842712474619
 20
2.82842712474619
 30
0.0
 10
42.22228093207841
 20
3.325878449210181
 30
0.0
 10
41.53073372946036
 20
3.695518130045147
 30
0.0
 10
40.78036128806451
 20
3.9231411216129217
 30
0.0
 10
40
 20
4
 30
0.0
 10
39.21963871193549
 20
3.9231411216129217
 30
0.0
 10
39.050000000000004
 20
3.8716817809358695
 30
0.0
 10
38.880361288064506
 20
3.9231411216129235
 30
0.0
 10
38.099999999999994
 20
4
 30
0.0
 10
37.31963871193548
 20
3.9231411216129217
 30
0.0
 10
36.569266270539636
 20
3.695518130045147
 30
0.0
 10
35.87771906792159
 20
3.3258784492101814
 30
0.0
 10
35.2715728752538
 20
2.8284271247461903
 30
0.0
 10
34.774121550789815
 20
2.2222809320784087
 30
0.0
 10
34.40448186995485
 20
1.5307337294603596
 30
0.0
 10
34.17685887838707
 20
0.7803612880645144
 30
0.0
 10
34.099999999999994
 20
4.898587196589413e-16
 30
0.0
 10
34.17685887838707
 20
-0.7803612880645134
 30
0.0
 10
34.40448186995485
 20
-1.5307337294603587
 30
0.0
 10
34.774121550789815
 20
-2.222280932078408
 30
0.0
 10
35.2715728752538
 20
-2.82842712474619
 30
0.0
 10
35.87771906792159
 20
-3.325878449210181
 30
0.0
 10
36.569266270539636
 20
-3.695518130045146
 30
0.0
 10
37.31963871193548
 20
-3.9231411216129213
 30
0.0
  0
LWPOLYLINE
  8
OpenJsCad
  90
33
  70
1
 10
75.41963871193548
 20
-3.9231411216129213
 30
0.0
 10
76.19999999999999
 20
-4
 30
0.0
 10
76.9803612880645
 20
-3.9231411216129217
 30
0.0
 10
77.73073372946035
 20
-3.6955181300451465
 30
0.0
 10
78.4222809320784
 20
-3.325878449210182
 30
0.0
 10
79.02842712474617
 20
-2.8284271247461907
 30
0.0
 10
79.52587844921017
 20
-2.2222809320784087
 30
0.0
 10
79.89551813004513
 20
-1.5307337294603616
 30
0.0
 10
80.1231411216129
 20
-0.7803612880645149
 30
0.0
 10
80.19999999999999
 20
0
 30
0.0
 10
80.12314112161292
 20
0.780361288064513
 30
0.0
 10
79.89551813004513
 20
1.5307337294603591
 30
0.0
 10
79.52587844921017
 20
2.2222809320784087
 30
0.0
 10
79.02842712474617
 20
2.82842712474619
 30
0.0
 10
78.4222809320784
 20
3.325878449210181
 30
0.0
 10
77.73073372946035
 20
3.695518130045147
 30
0.0
 10
76.9803612880645
 20
3.9231411216129217
 30
0.0
 10
76.19999999999999
 20
4
 30
0.0
 10
75.41963871193548
 20
3.9231411216129217
 30
0.0
 10
74.66926627053962
 20
3.695518130045147
 30
0.0
 10
73.97771906792158
 20
3.3258784492101814
 30
0.0
 10
73.3715728752538
 20
2.8284271247461903
 30
0.0
 10
72.87412155078981
 20
2.2222809320784087
 30
0.0
 10
72.50448186995484
 20
1.5307337294603596
 30
0.0
 10
72.27685887838706
 20
0.7803612880645144
 30
0.0
 10
72.19999999999999
 20
4.898587196589413e-16
 30
0.0
 10
72.27685887838706
 20
-0.7803612880645134
 30
0.0
 10
72.50448186995484
 20
-1.5307337294603587
 30
0.0
 10
72.87412155078981
 20
-2.222280932078408
 30
0.0
 10
73.3715728752538
 20
-2.82842712474619
 30
0.0
 10
73.97771906792158
 20
-3.325878449210181
 30
0.0
 10
74.66926627053962
 20
-3.695518130045146
 30
0.0
 10
75.41963871193548
 20
-3.9231411216129213
 30
0.0
  0
LWPOLYLINE
  8
OpenJsCad
  90
41
  70
1
 10
99.21963871193549
 20
-3.9231411216129213
 30
0.0
 10
100
 20
-4
 30
0.0
 10
100.78036128806451
 20
-3.9231411216129217
 30
0.0
 10
100.80000000000004
 20
-3.9171837834769683
 30
0.0
 10
100.81963871193548
 20
-3.9231411216129213
 30
0.0
 10
101.6
 20
-4
 30
0.0
 10
102.3803612880645
 20
-3.9231411216129217
 30
0.0
 10
103.13073372946036
 20
-3.6955181300451465
 30
0.0
 10
103.8222809320784
 20
-3.325878449210182
 30
0.0
 10
104.42842712474618
 20
-2.8284271247461907
 30
0.0
 10
104.92587844921017
 20
-2.2222809320784087
 30
0.0
 10
105.29551813004514
 20
-1.5307337294603616
 30
0.0
 10
105.52314112161291
 20
-0.7803612880645149
 30
0.0
 10
105.6
 20
0
 30
0.0
 10
105.52314112161292
 20
0.780361288064513
 30
0.0
 10
105.29551813004514
 20
1.5307337294603591
 30
0.0
 10
104.92587844921017
 20
2.2222809320784087
 30
0.0
 10
104.42842712474618
 20
2.82842712474619
 30
0.0
 10
103.8222809320784
 20
3.325878449210181
 30
0.0
 10
103.13073372946036
 20
3.695518130045147
 30
0.0
 10
102.3803612880645
 20
3.9231411216129217
 30
0.0
 10
101.6
 20
4
 30
0.0
 10
100.81963871193548
 20
3.9231411216129217
 30
0.0
 10
100.80000000000003
 20
3.9171837834769647
 30
0.0
 10
100.78036128806451
 20
3.9231411216129217
 30
0.0
 10
100
 20
4
 30
0.0
 10
99.21963871193549
 20
3.9231411216129217
 30
0.0
 10
98.46926627053963
 20
3.695518130045147
 30
0.0
 10
97.7777190679216
 20
3.3258784492101814
 30
0.0
 10
97.17157287525382
 20
2.8284271247461903
 30
0.0
 10
96.67412155078982
 20
2.2222809320784087
 30
0.0
 10
96.30448186995486
 20
1.5307337294603596
 30
0.0
 10
96.07685887838707
 20
0.7803612880645144
 30
0.0
 10
96
 20
4.898587196589413e-16
 30
0.0
 10
96.07685887838707
 20
-0.7803612880645134
 30
0.0
 10
96.30448186995486
 20
-1.5307337294603587
 30
0.0
 10
96.67412155078982
 20
-2.222280932078408
 30
0.0
 10
97.17157287525382
 20
-2.82842712474619
 30
0.0
 10
97.7777190679216
 20
-3.325878449210181
 30
0.0
 10
98.46926627053963
 20
-3.695518130045146
 30
0.0
 10
99.21963871193549
 20
-3.9231411216129213
 30
0.0
  0
LWPOLYLINE
  8
OpenJsCad
  90
75
  70
1
 10
11.20253705314756
 20
5.6543776718589704
 30
0.0
 10
11.808683245815343
 20
6.151828996322962
 30
0.0
 10
12.306134570279335
 20
6.757975188990744
 30
0.0
 10
12.675774251114301
 20
7.449522391608793
 30
0.0
 10
12.903397242682075
 20
8.199894833004636
 30
0.0
 10
12.980256121069154
 20
8.980256121069152
 30
0.0
 10
12.926708766460955
 20
9.523931536211927
 30
0.0
 10
13.470384181603729
 20
9.470384181603727
 30
0.0
 10
14.250745469668242
 20
9.547243059990805
 30
0.0
 10
15.001117911064085
 20
9.774866051558577
 30
0.0
 10
15.692665113682136
 20
10.144505732393545
 30
0.0
 10
16.29881130634992
 20
10.641957056857537
 30
0.0
 10
16.79626263081391
 20
11.248103249525318
 30
0.0
 10
17.165902311648875
 20
11.939650452143367
 30
0.0
 10
17.393525303216652
 20
12.690022893539213
 30
0.0
 10
17.47038418160373
 20
13.470384181603725
 30
0.0
 10
17.44773789192681
 20
13.700315819340602
 30
0.0
 10
17.677669529663692
 20
13.677669529663682
 30
0.0
 10
18.4580308177282
 20
13.754528408050767
 30
0.0
 10
19.208403259124044
 20
13.98215139961854
 30
0.0
 10
19.899950461742094
 20
14.351791080453504
 30
0.0
 10
20.50609665440988
 20
14.849242404917495
 30
0.0
 10
20.788939366884502
 20
15.13208511739212
 30
0.0
 10
21.286390691348487
 20
15.738231310059895
 30
0.0
 10
21.65603037218345
 20
16.429778512677945
 30
0.0
 10
21.88365336375123
 20
17.180150954073792
 30
0.0
 10
21.960512242138307
 20
17.960512242138304
 30
0.0
 10
21.88365336375123
 20
18.740873530202816
 30
0.0
 10
21.656030372183455
 20
19.49124597159866
 30
0.0
 10
21.28639069134849
 20
20.182793174216712
 30
0.0
 10
20.7889393668845
 20
20.788939366884495
 30
0.0
 10
20.182793174216716
 20
21.286390691348487
 30
0.0
 10
19.49124597159867
 20
21.65603037218345
 30
0.0
 10
18.74087353020282
 20
21.883653363751225
 30
0.0
 10
17.960512242138307
 20
21.960512242138304
 30
0.0
 10
17.180150954073795
 20
21.883653363751225
 30
0.0
 10
16.42977851267795
 20
21.65603037218345
 30
0.0
 10
15.738231310059897
 20
21.286390691348487
 30
0.0
 10
15.132085117392117
 20
20.788939366884495
 30
0.0
 10
14.849242404917499
 20
20.506096654409877
 30
0.0
 10
14.351791080453511
 20
19.899950461742097
 30
0.0
 10
13.982151399618543
 20
19.208403259124047
 30
0.0
 10
13.754528408050767
 20
18.4580308177282
 30
0.0
 10
13.677669529663689
 20
17.677669529663685
 30
0.0
 10
13.700315819340608
 20
17.447737891926813
 30
0.0
 10
13.470384181603732
 20
17.47038418160373
 30
0.0
 10
12.690022893539217
 20
17.39352530321665
 30
0.0
 10
11.93965045214337
 20
17.16590231164887
 30
0.0
 10
11.24810324952532
 20
16.796262630813906
 30
0.0
 10
10.641957056857539
 20
16.29881130634992
 30
0.0
 10
10.144505732393549
 20
15.692665113682136
 30
0.0
 10
9.774866051558583
 20
15.001117911064087
 30
0.0
 10
9.547243059990809
 20
14.250745469668242
 30
0.0
 10
9.470384181603729
 20
13.470384181603727
 30
0.0
 10
9.52393153621193
 20
12.926708766460953
 30
0.0
 10
8.980256121069155
 20
12.980256121069154
 30
0.0
 10
8.199894833004642
 20
12.903397242682075
 30
0.0
 10
7.449522391608793
 20
12.6757742511143
 30
0.0
 10
6.757975188990747
 20
12.306134570279333
 30
0.0
 10
6.151828996322964
 20
11.808683245815342
 30
0.0
 10
5.654377671858974
 20
11.202537053147562
 30
0.0
 10
5.2847379910240075
 20
10.510989850529512
 30
0.0
 10
5.057114999456232
 20
9.760617409133665
 30
0.0
 10
4.980256121069154
 20
8.980256121069154
 30
0.0
 10
5.057114999456232
 20
8.19989483300464
 30
0.0
 10
5.284737991024006
 20
7.449522391608793
 30
0.0
 10
5.654377671858971
 20
6.757975188990745
 30
0.0
 10
6.151828996322964
 20
6.151828996322962
 30
0.0
 10
6.757975188990745
 20
5.654377671858971
 30
0.0
 10
7.449522391608793
 20
5.284737991024005
 30
0.0
 10
8.19989483300464
 20
5.057114999456231
 30
0.0
 10
8.980256121069152
 20
4.980256121069151
 30
0.0
 10
9.760617409133667
 20
5.05711499945623
 30
0.0
 10
10.510989850529509
 20
5.284737991024004
 30
0.0
 10
11.20253705314756
 20
5.6543776718589704
 30
0.0
  0
LWPOLYLINE
  8
OpenJsCad
  90
35
  70
1
 10
38.18376618407357
 20
32.526911934581186
 30
0.0
 10
38.74945160902281
 20
33.09259735953043
 30
0.0
 10
39.246902933486794
 20
33.6987435521982
 30
0.0
 10
39.616542614321766
 20
34.39029075481625
 30
0.0
 10
39.844165605889536
 20
35.14066319621209
 30
0.0
 10
39.921024484276614
 20
35.92102448427661
 30
0.0
 10
39.844165605889536
 20
36.701385772341126
 30
0.0
 10
39.616542614321766
 20
37.451758213736966
 30
0.0
 10
39.246902933486794
 20
38.14330541635502
 30
0.0
 10
38.749451609022806
 20
38.7494516090228
 30
0.0
 10
38.14330541635502
 20
39.246902933486794
 30
0.0
 10
37.45175821373697
 20
39.61654261432176
 30
0.0
 10
36.70138577234113
 20
39.84416560588953
 30
0.0
 10
35.921024484276614
 20
39.92102448427661
 30
0.0
 10
35.1406631962121
 20
39.844165605889536
 30
0.0
 10
34.390290754816256
 20
39.61654261432176
 30
0.0
 10
33.69874355219821
 20
39.24690293348679
 30
0.0
 10
33.09259735953043
 20
38.74945160902281
 30
0.0
 10
32.526911934581186
 20
38.18376618407357
 30
0.0
 10
32.0294606101172
 20
37.57761999140578
 30
0.0
 10
31.659820929282237
 20
36.886072788787736
 30
0.0
 10
31.43219793771446
 20
36.13570034739189
 30
0.0
 10
31.355339059327378
 20
35.35533905932737
 30
0.0
 10
31.43219793771446
 20
34.57497777126286
 30
0.0
 10
31.659820929282237
 20
33.82460532986702
 30
0.0
 10
32.0294606101172
 20
33.133058127248965
 30
0.0
 10
32.526911934581186
 20
32.526911934581186
 30
0.0
 10
33.13305812724897
 20
32.02946061011719
 30
0.0
 10
33.824605329867026
 20
31.65982092928223
 30
0.0
 10
34.574977771262866
 20
31.432197937714452
 30
0.0
 10
35.35533905932738
 20
31.35533905932737
 30
0.0
 10
36.1357003473919
 20
31.432197937714452
 30
0.0
 10
36.88607278878774
 20
31.65982092928223
 30
0.0
 10
37.57761999140578
 20
32.0294606101172
 30
0.0
 10
38.18376618407357
 20
32.526911934581186
 30
0.0
  0
LWPOLYLINE
  8
OpenJsCad
  90
75
  70
1
 10
-15.13208511739212
 20
-20.788939366884502
 30
0.0
 10
-14.849242404917511
 20
-20.506096654409895
 30
0.0
 10
-14.351791080453511
 20
-19.899950461742097
 30
0.0
 10
-13.982151399618546
 20
-19.208403259124047
 30
0.0
 10
-13.75452840805077
 20
-18.4580308177282
 30
0.0
 10
-13.67766952966369
 20
-17.677669529663685
 30
0.0
 10
-13.700315819340611
 20
-17.447737891926813
 30
0.0
 10
-13.470384181603736
 20
-17.47038418160373
 30
0.0
 10
-12.690022893539219
 20
-17.39352530321665
 30
0.0
 10
-11.939650452143372
 20
-17.165902311648875
 30
0.0
 10
-11.248103249525322
 20
-16.796262630813906
 30
0.0
 10
-10.641957056857542
 20
-16.29881130634992
 30
0.0
 10
-10.144505732393553
 20
-15.692665113682137
 30
0.0
 10
-9.774866051558584
 20
-15.001117911064087
 30
0.0
 10
-9.547243059990809
 20
-14.250745469668242
 30
0.0
 10
-9.47038418160373
 20
-13.470384181603727
 30
0.0
 10
-9.523931536211931
 20
-12.926708766460953
 30
0.0
 10
-8.980256121069157
 20
-12.980256121069154
 30
0.0
 10
-8.199894833004644
 20
-12.903397242682075
 30
0.0
 10
-7.449522391608795
 20
-12.6757742511143
 30
0.0
 10
-6.757975188990747
 20
-12.306134570279335
 30
0.0
 10
-6.1518289963229655
 20
-11.808683245815342
 30
0.0
 10
-5.654377671858976
 20
-11.202537053147562
 30
0.0
 10
-5.284737991024009
 20
-10.510989850529512
 30
0.0
 10
-5.057114999456233
 20
-9.760617409133665
 30
0.0
 10
-4.9802561210691545
 20
-8.980256121069154
 30
0.0
 10
-5.057114999456233
 20
-8.19989483300464
 30
0.0
 10
-5.284737991024006
 20
-7.449522391608793
 30
0.0
 10
-5.654377671858972
 20
-6.757975188990745
 30
0.0
 10
-6.151828996322965
 20
-6.151828996322962
 30
0.0
 10
-6.757975188990746
 20
-5.654377671858971
 30
0.0
 10
-7.449522391608794
 20
-5.284737991024005
 30
0.0
 10
-8.19989483300464
 20
-5.057114999456231
 30
0.0
 10
-8.980256121069154
 20
-4.98025612106915
 30
0.0
 10
-9.760617409133667
 20
-5.05711499945623
 30
0.0
 10
-10.510989850529512
 20
-5.284737991024003
 30
0.0
 10
-11.20253705314756
 20
-5.65437767185897
 30
0.0
 10
-11.808683245815345
 20
-6.151828996322961
 30
0.0
 10
-12.306134570279335
 20
-6.757975188990743
 30
0.0
 10
-12.675774251114301
 20
-7.449522391608793
 30
0.0
 10
-12.903397242682075
 20
-8.199894833004636
 30
0.0
 10
-12.980256121069155
 20
-8.98025612106915
 30
0.0
 10
-12.926708766460957
 20
-9.523931536211927
 30
0.0
 10
-13.47038418160373
 20
-9.470384181603727
 30
0.0
 10
-14.250745469668244
 20
-9.547243059990805
 30
0.0
 10
-15.001117911064089
 20
-9.774866051558577
 30
0.0
 10
-15.692665113682137
 20
-10.144505732393544
 30
0.0
 10
-16.298811306349922
 20
-10.641957056857535
 30
0.0
 10
-16.79626263081391
 20
-11.248103249525316
 30
0.0
 10
-17.16590231164888
 20
-11.939650452143367
 30
0.0
 10
-17.393525303216652
 20
-12.690022893539213
 30
0.0
 10
-17.47038418160373
 20
-13.470384181603723
 30
0.0
 10
-17.447737891926813
 20
-13.7003158193406
 30
0.0
 10
-17.677669529663692
 20
-13.677669529663682
 30
0.0
 10
-18.458030817728204
 20
-13.754528408050765
 30
0.0
 10
-19.208403259124047
 20
-13.98215139961854
 30
0.0
 10
-19.8999504617421
 20
-14.351791080453502
 30
0.0
 10
-20.50609665440988
 20
-14.849242404917497
 30
0.0
 10
-20.788939366884502
 20
-15.13208511739212
 30
0.0
 10
-21.28639069134849
 20
-15.738231310059895
 30
0.0
 10
-21.656030372183455
 20
-16.42977851267794
 30
0.0
 10
-21.883653363751232
 20
-17.18015095407379
 30
0.0
 10
-21.96051224213831
 20
-17.960512242138304
 30
0.0
 10
-21.883653363751232
 20
-18.740873530202816
 30
0.0
 10
-21.65603037218346
 20
-19.49124597159866
 30
0.0
 10
-21.286390691348494
 20
-20.182793174216712
 30
0.0
 10
-20.788939366884502
 20
-20.788939366884495
 30
0.0
 10
-20.18279317421672
 20
-21.286390691348487
 30
0.0
 10
-19.491245971598673
 20
-21.65603037218345
 30
0.0
 10
-18.740873530202823
 20
-21.883653363751225
 30
0.0
 10
-17.96051224213831
 20
-21.960512242138304
 30
0.0
 10
-17.1801509540738
 20
-21.883653363751225
 30
0.0
 10
-16.429778512677952
 20
-21.65603037218345
 30
0.0
 10
-15.7382313100599
 20
-21.286390691348487
 30
0.0
 10
-15.13208511739212
 20
-20.788939366884502
 30
0.0
  0
LWPOLYLINE
  8
OpenJsCad
  90
35
  70
1
 10
-33.09259735953043
 20
-38.74945160902281
 30
0.0
 10
-32.526911934581214
 20
-38.1837661840736
 30
0.0
 10
-32.029460610117205
 20
-37.57761999140578
 30
0.0
 10
-31.659820929282237
 20
-36.886072788787736
 30
0.0
 10
-31.432197937714466
 20
-36.13570034739189
 30
0.0
 10
-31.355339059327385
 20
-35.35533905932737
 30
0.0
 10
-31.43219793771446
 20
-34.57497777126286
 30
0.0
 10
-31.659820929282237
 20
-33.82460532986702
 30
0.0
 10
-32.0294606101172
 20
-33.133058127248965
 30
0.0
 10
-32.52691193458119
 20
-32.526911934581186
 30
0.0
 10
-33.13305812724897
 20
-32.02946061011719
 30
0.0
 10
-33.824605329867026
 20
-31.65982092928223
 30
0.0
 10
-34.574977771262866
 20
-31.432197937714452
 30
0.0
 10
-35.355339059327385
 20
-31.35533905932737
 30
0.0
 10
-36.135700347391904
 20
-31.432197937714452
 30
0.0
 10
-36.88607278878774
 20
-31.659820929282226
 30
0.0
 10
-37.57761999140579
 20
-32.0294606101172
 30
0.0
 10
-38.18376618407357
 20
-32.526911934581186
 30
0.0
 10
-38.74945160902281
 20
-33.09259735953043
 30
0.0
 10
-39.2469029334868
 20
-33.6987435521982
 30
0.0
 10
-39.616542614321766
 20
-34.39029075481625
 30
0.0
 10
-39.84416560588954
 20
-35.14066319621209
 30
0.0
 10
-39.92102448427662
 20
-35.92102448427661
 30
0.0
 10
-39.844165605889536
 20
-36.701385772341126
 30
0.0
 10
-39.616542614321766
 20
-37.451758213736966
 30
0.0
 10
-39.2469029334868
 20
-38.14330541635502
 30
0.0
 10
-38.74945160902281
 20
-38.7494516090228
 30
0.0
 10
-38.14330541635503
 20
-39.246902933486794
 30
0.0
 10
-37.45175821373697
 20
-39.61654261432176
 30
0.0
 10
-36.70138577234113
 20
-39.84416560588953
 30
0.0
 10
-35.92102448427662
 20
-39.92102448427661
 30
0.0
 10
-35.14066319621211
 20
-39.844165605889536
 30
0.0
 10
-34.390290754816256
 20
-39.61654261432176
 30
0.0
 10
-33.698743552198216
 20
-39.24690293348679
 30
0.0
 10
-33.09259735953043
 20
-38.74945160902281
 30
0.0
  0
LWPOLYLINE
  8
OpenJsCad
  90
41
  70
1
 10
29.163049295285866
 20
23.614889913997274
 30
0.0
 10
29.769195487953645
 20
24.112341238461262
 30
0.0
 10
30.26664681241764
 20
24.718487431129045
 30
0.0
 10
30.350212247230843
 20
24.874827363438516
 30
0.0
 10
30.506552179540314
 20
24.95839279825172
 30
0.0
 10
31.112698372208094
 20
25.455844122715707
 30
0.0
 10
31.610149696672085
 20
26.061990315383486
 30
0.0
 10
31.979789377507046
 20
26.75353751800154
 30
0.0
 10
32.207412369074824
 20
27.503909959397383
 30
0.0
 10
32.28427124746191
 20
28.2842712474619
 30
0.0
 10
32.207412369074824
 20
29.06463253552641
 30
0.0
 10
31.97978937750705
 20
29.815004976922253
 30
0.0
 10
31.610149696672085
 20
30.506552179540307
 30
0.0
 10
31.112698372208094
 20
31.112698372208087
 30
0.0
 10
30.50655217954031
 20
31.61014969667208
 30
0.0
 10
29.81500497692226
 20
31.979789377507043
 30
0.0
 10
29.064632535526414
 20
32.20741236907482
 30
0.0
 10
28.284271247461906
 20
32.2842712474619
 30
0.0
 10
27.503909959397394
 20
32.207412369074824
 30
0.0
 10
26.753537518001544
 20
31.979789377507046
 30
0.0
 10
26.061990315383493
 20
31.610149696672078
 30
0.0
 10
25.45584412271571
 20
31.11269837220809
 30
0.0
 10
24.958392798251722
 20
30.50655217954031
 30
0.0
 10
24.874827363438524
 20
30.350212247230843
 30
0.0
 10
24.71848743112905
 20
30.266646812417637
 30
0.0
 10
24.11234123846127
 20
29.769195487953645
 30
0.0
 10
23.614889913997278
 20
29.163049295285866
 30
0.0
 10
23.245250233162313
 20
28.471502092667812
 30
0.0
 10
23.01762724159454
 20
27.72112965127197
 30
0.0
 10
22.940768363207457
 20
26.940768363207454
 30
0.0
 10
23.017627241594536
 20
26.160407075142942
 30
0.0
 10
23.245250233162313
 20
25.410034633747095
 30
0.0
 10
23.614889913997278
 20
24.71848743112905
 30
0.0
 10
24.11234123846127
 20
24.112341238461266
 30
0.0
 10
24.718487431129052
 20
23.614889913997274
 30
0.0
 10
25.4100346337471
 20
23.24525023316231
 30
0.0
 10
26.160407075142945
 20
23.017627241594532
 30
0.0
 10
26.940768363207457
 20
22.940768363207454
 30
0.0
 10
27.721129651271973
 20
23.017627241594536
 30
0.0
 10
28.471502092667816
 20
23.24525023316231
 30
0.0
 10
29.163049295285866
 20
23.614889913997274
 30
0.0
  0
LWPOLYLINE
  8
OpenJsCad
  90
33
  70
1
 10
56.10381765849333
 20
50.55565827720473
 30
0.0
 10
56.709963851161106
 20
51.053109601668716
 30
0.0
 10
57.207415175625094
 20
51.6592557943365
 30
0.0
 10
57.57705485646007
 20
52.35080299695455
 30
0.0
 10
57.804677848027836
 20
53.10117543835039
 30
0.0
 10
57.881536726414915
 20
53.88153672641491
 30
0.0
 10
57.804677848027836
 20
54.661898014479426
 30
0.0
 10
57.577054856460066
 20
55.412270455875266
 30
0.0
 10
57.207415175625094
 20
56.10381765849331
 30
0.0
 10
56.709963851161106
 20
56.7099638511611
 30
0.0
 10
56.10381765849333
 20
57.207415175625094
 30
0.0
 10
55.41227045587527
 20
57.57705485646006
 30
0.0
 10
54.66189801447943
 20
57.80467784802783
 30
0.0
 10
53.881536726414915
 20
57.88153672641491
 30
0.0
 10
53.101175438350396
 20
57.80467784802783
 30
0.0
 10
52.35080299695456
 20
57.57705485646006
 30
0.0
 10
51.65925579433651
 20
57.20741517562509
 30
0.0
 10
51.05310960166872
 20
56.7099638511611
 30
0.0
 10
50.55565827720474
 20
56.10381765849331
 30
0.0
 10
50.18601859636976
 20
55.412270455875266
 30
0.0
 10
49.95839560480199
 20
54.661898014479426
 30
0.0
 10
49.88153672641492
 20
53.881536726414915
 30
0.0
 10
49.958395604802
 20
53.101175438350396
 30
0.0
 10
50.18601859636977
 20
52.350802996954556
 30
0.0
 10
50.55565827720473
 20
51.659255794336495
 30
0.0
 10
51.05310960166873
 20
51.053109601668716
 30
0.0
 10
51.6592557943365
 20
50.55565827720472
 30
0.0
 10
52.35080299695456
 20
50.18601859636976
 30
0.0
 10
53.1011754383504
 20
49.95839560480199
 30
0.0
 10
53.88153672641492
 20
49.881536726414915
 30
0.0
 10
54.66189801447943
 20
49.958395604801986
 30
0.0
 10
55.41227045587527
 20
50.186018596369756
 30
0.0
 10
56.10381765849333
 20
50.55565827720473
 30
0.0
  0
LWPOLYLINE
  8
OpenJsCad
  90
41
  70
1
 10
72.93295905073317
 20
67.38479966944456
 30
0.0
 10
73.53910524340094
 20
67.88225099390856
 30
0.0
 10
74.03655656786495
 20
68.48839718657634
 30
0.0
 10
74.04623076005456
 20
68.50649632715347
 30
0.0
 10
74.06432990063165
 20
68.51617051934304
 30
0.0
 10
74.67047609329941
 20
69.01362184380703
 30
0.0
 10
75.16792741776341
 20
69.61976803647481
 30
0.0
 10
75.53756709859839
 20
70.31131523909286
 30
0.0
 10
75.76519009016616
 20
71.0616876804887
 30
0.0
 10
75.84204896855323
 20
71.84204896855321
 30
0.0
 10
75.76519009016616
 20
72.62241025661773
 30
0.0
 10
75.53756709859837
 20
73.37278269801358
 30
0.0
 10
75.1679274177634
 20
74.06432990063162
 30
0.0
 10
74.67047609329941
 20
74.67047609329941
 30
0.0
 10
74.06432990063165
 20
75.1679274177634
 30
0.0
 10
73.3727826980136
 20
75.53756709859836
 30
0.0
 10
72.62241025661774
 20
75.76519009016614
 30
0.0
 10
71.84204896855323
 20
75.84204896855321
 30
0.0
 10
71.06168768048872
 20
75.76519009016614
 30
0.0
 10
70.31131523909288
 20
75.53756709859837
 30
0.0
 10
69.61976803647481
 20
75.16792741776341
 30
0.0
 10
69.01362184380704
 20
74.6704760932994
 30
0.0
 10
68.51617051934305
 20
74.06432990063163
 30
0.0
 10
68.50649632715349
 20
74.04623076005454
 30
0.0
 10
68.48839718657635
 20
74.03655656786493
 30
0.0
 10
67.88225099390857
 20
73.53910524340093
 30
0.0
 10
67.38479966944458
 20
72.93295905073316
 30
0.0
 10
67.01515998860961
 20
72.2414118481151
 30
0.0
 10
66.78753699704184
 20
71.49103940671927
 30
0.0
 10
66.71067811865476
 20
70.71067811865476
 30
0.0
 10
66.78753699704183
 20
69.93031683059024
 30
0.0
 10
67.01515998860961
 20
69.17994438919439
 30
0.0
 10
67.38479966944458
 20
68.48839718657632
 30
0.0
 10
67.88225099390857
 20
67.88225099390856
 30
0.0
 10
68.48839718657634
 20
67.38479966944456
 30
0.0
 10
69.17994438919439
 20
67.01515998860961
 30
0.0
 10
69.93031683059024
 20
66.78753699704183
 30
0.0
 10
70.71067811865476
 20
66.71067811865476
 30
0.0
 10
71.49103940671928
 20
66.78753699704183
 30
0.0
 10
72.24141184811512
 20
67.0151599886096
 30
0.0
 10
72.93295905073317
 20
67.38479966944456
 30
0.0
  0
LWPOLYLINE
  8
OpenJsCad
  90
75
  70
1
 10
3.923141121612922
 20
11.919638711935484
 30
0.0
 10
4.000000000000001
 20
12.7
 30
0.0
 10
3.9231411216129226
 20
13.480361288064513
 30
0.0
 10
3.6955181300451474
 20
14.23073372946036
 30
0.0
 10
3.3258784492101827
 20
14.922280932078406
 30
0.0
 10
2.8284271247461916
 20
15.52842712474619
 30
0.0
 10
2.4061268543762644
 20
15.874999999999998
 30
0.0
 10
2.8284271247461907
 20
16.221572875253806
 30
0.0
 10
3.325878449210182
 20
16.82771906792159
 30
0.0
 10
3.695518130045147
 20
17.519266270539635
 30
0.0
 10
3.9231411216129226
 20
18.26963871193548
 30
0.0
 10
4.000000000000001
 20
19.049999999999997
 30
0.0
 10
3.923141121612923
 20
19.83036128806451
 30
0.0
 10
3.695518130045148
 20
20.580733729460356
 30
0.0
 10
3.325878449210183
 20
21.272280932078406
 30
0.0
 10
2.828427124746192
 20
21.878427124746185
 30
0.0
 10
2.6498275594938536
 20
22.024999999999995
 30
0.0
 10
2.8284271247461947
 20
22.17157287525381
 30
0.0
 10
3.3258784492101823
 20
22.77771906792159
 30
0.0
 10
3.6955181300451474
 20
23.469266270539638
 30
0.0
 10
3.9231411216129226
 20
24.219638711935485
 30
0.0
 10
4.000000000000002
 20
25
 30
0.0
 10
4.000000000000002
 20
25.4
 30
0.0
 10
3.9231411216129235
 20
26.18036128806451
 30
0.0
 10
3.6955181300451483
 20
26.930733729460357
 30
0.0
 10
3.3258784492101836
 20
27.622280932078407
 30
0.0
 10
2.8284271247461925
 20
28.228427124746187
 30
0.0
 10
2.2222809320784105
 20
28.725878449210178
 30
0.0
 10
1.5307337294603633
 20
29.095518130045143
 30
0.0
 10
0.7803612880645167
 20
29.32314112161292
 30
0.0
 10
1.800230794746609e-15
 20
29.4
 30
0.0
 10
-0.7803612880645112
 20
29.32314112161292
 30
0.0
 10
-1.5307337294603574
 20
29.095518130045146
 30
0.0
 10
-2.222280932078407
 20
28.725878449210178
 30
0.0
 10
-2.828427124746188
 20
28.22842712474619
 30
0.0
 10
-3.325878449210179
 20
27.622280932078407
 30
0.0
 10
-3.695518130045145
 20
26.930733729460357
 30
0.0
 10
-3.92314112161292
 20
26.18036128806451
 30
0.0
 10
-3.9999999999999982
 20
25.4
 30
0.0
 10
-3.9999999999999987
 20
25
 30
0.0
 10
-3.9231411216129204
 20
24.219638711935488
 30
0.0
 10
-3.6955181300451456
 20
23.46926627053964
 30
0.0
 10
-3.32587844921018
 20
22.77771906792159
 30
0.0
 10
-2.828427124746189
 20
22.17157287525381
 30
0.0
 10
-2.6498275594938527
 20
22.025000000000002
 30
0.0
 10
-2.8284271247461885
 20
21.878427124746192
 30
0.0
 10
-3.3258784492101796
 20
21.272280932078406
 30
0.0
 10
-3.6955181300451456
 20
20.580733729460356
 30
0.0
 10
-3.9231411216129204
 20
19.83036128806451
 30
0.0
 10
-3.9999999999999987
 20
19.049999999999997
 30
0.0
 10
-3.9231411216129204
 20
18.269638711935485
 30
0.0
 10
-3.695518130045146
 20
17.51926627053964
 30
0.0
 10
-3.3258784492101805
 20
16.82771906792159
 30
0.0
 10
-2.8284271247461894
 20
16.221572875253806
 30
0.0
 10
-2.4061268543762626
 20
15.874999999999998
 30
0.0
 10
-2.828427124746189
 20
15.528427124746191
 30
0.0
 10
-3.32587844921018
 20
14.922280932078408
 30
0.0
 10
-3.695518130045146
 20
14.230733729460358
 30
0.0
 10
-3.923141121612921
 20
13.480361288064513
 30
0.0
 10
-3.999999999999999
 20
12.7
 30
0.0
 10
-3.923141121612921
 20
11.919638711935487
 30
0.0
 10
-3.695518130045146
 20
11.16926627053964
 30
0.0
 10
-3.325878449210181
 20
10.47771906792159
 30
0.0
 10
-2.82842712474619
 20
9.87157287525381
 30
0.0
 10
-2.2222809320784083
 20
9.374121550789818
 30
0.0
 10
-1.5307337294603591
 20
9.004481869954851
 30
0.0
 10
-0.7803612880645139
 20
8.776858878387078
 30
0.0
 10
4.286263797015734e-17
 20
8.7
 30
0.0
 10
0.780361288064514
 20
8.776858878387078
 30
0.0
 10
1.5307337294603591
 20
9.004481869954851
 30
0.0
 10
2.2222809320784083
 20
9.374121550789818
 30
0.0
 10
2.8284271247461903
 20
9.871572875253808
 30
0.0
 10
3.3258784492101814
 20
10.47771906792159
 30
0.0
 10
3.695518130045147
 20
11.169266270539637
 30
0.0
 10
3.923141121612922
 20
11.919638711935484
 30
0.0
  0
LWPOLYLINE
  8
OpenJsCad
  90
35
  70
1
 10
4.000000000000002
 20
-50.8
 30
0.0
 10
4.000000000000002
 20
-50
 30
0.0
 10
3.923141121612913
 20
-49.21963871193549
 30
0.0
 10
3.695518130045138
 20
-48.46926627053964
 30
0.0
 10
3.3258784492101725
 20
-47.777719067921595
 30
0.0
 10
2.8284271247461814
 20
-47.17157287525381
 30
0.0
 10
2.2222809320784003
 20
-46.67412155078982
 30
0.0
 10
1.5307337294603511
 20
-46.304481869954856
 30
0.0
 10
0.780361288064506
 20
-46.07685887838708
 30
0.0
 10
-7.960204194457796e-15
 20
-46
 30
0.0
 10
-0.7803612880645219
 20
-46.07685887838708
 30
0.0
 10
-1.5307337294603671
 20
-46.304481869954856
 30
0.0
 10
-2.2222809320784163
 20
-46.67412155078982
 30
0.0
 10
-2.8284271247461987
 20
-47.17157287525381
 30
0.0
 10
-3.32587844921019
 20
-47.777719067921595
 30
0.0
 10
-3.695518130045155
 20
-48.46926627053964
 30
0.0
 10
-3.92314112161293
 20
-49.21963871193549
 30
0.0
 10
-4.000000000000083
 20
-50
 30
0.0
 10
-4.0000000000000835
 20
-50.8
 30
0.0
 10
-3.923141121612931
 20
-51.58036128806451
 30
0.0
 10
-3.6955181300451563
 20
-52.330733729460356
 30
0.0
 10
-3.3258784492101916
 20
-53.0222809320784
 30
0.0
 10
-2.8284271247462005
 20
-53.62842712474619
 30
0.0
 10
-2.2222809320784185
 20
-54.12587844921018
 30
0.0
 10
-1.5307337294603716
 20
-54.49551813004514
 30
0.0
 10
-0.780361288064525
 20
-54.72314112161292
 30
0.0
 10
-1.0066596688991241e-14
 20
-54.8
 30
0.0
 10
0.7803612880645029
 20
-54.72314112161292
 30
0.0
 10
1.5307337294603491
 20
-54.49551813004514
 30
0.0
 10
2.222280932078399
 20
-54.12587844921018
 30
0.0
 10
2.82842712474618
 20
-53.62842712474619
 30
0.0
 10
3.325878449210171
 20
-53.02228093207841
 30
0.0
 10
3.695518130045137
 20
-52.330733729460356
 30
0.0
 10
3.9231411216129124
 20
-51.58036128806451
 30
0.0
 10
4.000000000000002
 20
-50.8
 30
0.0
  0
LWPOLYLINE
  8
OpenJsCad
  90
75
  70
1
 10
4.000000000000002
 20
-25.4
 30
0.0
 10
4.000000000000002
 20
-25
 30
0.0
 10
3.9231411216129173
 20
-24.219638711935488
 30
0.0
 10
3.6955181300451425
 20
-23.46926627053964
 30
0.0
 10
3.3258784492101774
 20
-22.77771906792159
 30
0.0
 10
2.8284271247461863
 20
-22.17157287525381
 30
0.0
 10
2.64982755949385
 20
-22.025000000000002
 30
0.0
 10
2.828427124746186
 20
-21.878427124746192
 30
0.0
 10
3.325878449210177
 20
-21.272280932078406
 30
0.0
 10
3.695518130045143
 20
-20.580733729460356
 30
0.0
 10
3.923141121612918
 20
-19.83036128806451
 30
0.0
 10
3.9999999999999964
 20
-19.049999999999997
 30
0.0
 10
3.923141121612918
 20
-18.269638711935485
 30
0.0
 10
3.695518130045144
 20
-17.51926627053964
 30
0.0
 10
3.3258784492101783
 20
-16.82771906792159
 30
0.0
 10
2.828427124746187
 20
-16.221572875253806
 30
0.0
 10
2.4061268543762604
 20
-15.874999999999998
 30
0.0
 10
2.828427124746187
 20
-15.528427124746191
 30
0.0
 10
3.3258784492101783
 20
-14.922280932078408
 30
0.0
 10
3.6955181300451443
 20
-14.230733729460358
 30
0.0
 10
3.923141121612919
 20
-13.480361288064513
 30
0.0
 10
3.999999999999998
 20
-12.7
 30
0.0
 10
3.9231411216129195
 20
-11.919638711935487
 30
0.0
 10
3.6955181300451447
 20
-11.16926627053964
 30
0.0
 10
3.3258784492101796
 20
-10.47771906792159
 30
0.0
 10
2.8284271247461885
 20
-9.87157287525381
 30
0.0
 10
2.222280932078407
 20
-9.374121550789818
 30
0.0
 10
1.530733729460358
 20
-9.004481869954851
 30
0.0
 10
0.7803612880645128
 20
-8.776858878387078
 30
0.0
 10
-1.1083053532283546e-15
 20
-8.7
 30
0.0
 10
-0.7803612880645151
 20
-8.776858878387078
 30
0.0
 10
-1.5307337294603602
 20
-9.004481869954851
 30
0.0
 10
-2.2222809320784096
 20
-9.374121550789818
 30
0.0
 10
-2.8284271247461916
 20
-9.871572875253808
 30
0.0
 10
-3.3258784492101827
 20
-10.47771906792159
 30
0.0
 10
-3.6955181300451483
 20
-11.169266270539637
 30
0.0
 10
-3.9231411216129235
 20
-11.919638711935484
 30
0.0
 10
-4.000000000000003
 20
-12.7
 30
0.0
 10
-3.9231411216129244
 20
-13.480361288064513
 30
0.0
 10
-3.695518130045149
 20
-14.23073372946036
 30
0.0
 10
-3.3258784492101845
 20
-14.922280932078406
 30
0.0
 10
-2.8284271247461934
 20
-15.52842712474619
 30
0.0
 10
-2.4061268543762666
 20
-15.874999999999998
 30
0.0
 10
-2.828427124746193
 20
-16.221572875253806
 30
0.0
 10
-3.325878449210184
 20
-16.82771906792159
 30
0.0
 10
-3.695518130045149
 20
-17.519266270539635
 30
0.0
 10
-3.923141121612925
 20
-18.26963871193548
 30
0.0
 10
-4.0000000000000036
 20
-19.049999999999997
 30
0.0
 10
-3.9231411216129253
 20
-19.83036128806451
 30
0.0
 10
-3.6955181300451505
 20
-20.580733729460356
 30
0.0
 10
-3.325878449210186
 20
-21.272280932078406
 30
0.0
 10
-2.8284271247461947
 20
-21.878427124746185
 30
0.0
 10
-2.6498275594938563
 20
-22.024999999999995
 30
0.0
 10
-2.8284271247461974
 20
-22.17157287525381
 30
0.0
 10
-3.325878449210185
 20
-22.77771906792159
 30
0.0
 10
-3.6955181300451505
 20
-23.469266270539638
 30
0.0
 10
-3.9231411216129257
 20
-24.219638711935485
 30
0.0
 10
-4.000000000000054
 20
-25
 30
0.0
 10
-4.000000000000055
 20
-25.4
 30
0.0
 10
-3.9231411216129266
 20
-26.18036128806451
 30
0.0
 10
-3.6955181300451514
 20
-26.930733729460357
 30
0.0
 10
-3.3258784492101867
 20
-27.622280932078407
 30
0.0
 10
-2.828427124746196
 20
-28.228427124746187
 30
0.0
 10
-2.222280932078414
 20
-28.725878449210178
 30
0.0
 10
-1.530733729460367
 20
-29.095518130045143
 30
0.0
 10
-0.7803612880645203
 20
-29.32314112161292
 30
0.0
 10
-5.400692384239827e-15
 20
-29.4
 30
0.0
 10
0.7803612880645076
 20
-29.32314112161292
 30
0.0
 10
1.5307337294603538
 20
-29.095518130045146
 30
0.0
 10
2.2222809320784034
 20
-28.725878449210178
 30
0.0
 10
2.8284271247461845
 20
-28.22842712474619
 30
0.0
 10
3.325878449210176
 20
-27.622280932078407
 30
0.0
 10
3.695518130045142
 20
-26.930733729460357
 30
0.0
 10
3.923141121612917
 20
-26.18036128806451
 30
0.0
 10
4.000000000000002
 20
-25.4
 30
0.0
  0
LWPOLYLINE
  8
OpenJsCad
  90
35
  70
1
 10
4.000000000000002
 20
50
 30
0.0
 10
4.000000000000002
 20
50.8
 30
0.0
 10
3.923141121612925
 20
51.58036128806451
 30
0.0
 10
3.6955181300451496
 20
52.330733729460356
 30
0.0
 10
3.325878449210185
 20
53.0222809320784
 30
0.0
 10
2.828427124746194
 20
53.62842712474619
 30
0.0
 10
2.222280932078412
 20
54.12587844921018
 30
0.0
 10
1.530733729460365
 20
54.49551813004514
 30
0.0
 10
0.7803612880645182
 20
54.72314112161292
 30
0.0
 10
3.3555322296637476e-15
 20
54.8
 30
0.0
 10
-0.7803612880645097
 20
54.72314112161292
 30
0.0
 10
-1.5307337294603558
 20
54.49551813004514
 30
0.0
 10
-2.2222809320784056
 20
54.12587844921018
 30
0.0
 10
-2.8284271247461867
 20
53.62842712474619
 30
0.0
 10
-3.325878449210178
 20
53.02228093207841
 30
0.0
 10
-3.695518130045144
 20
52.330733729460356
 30
0.0
 10
-3.9231411216129186
 20
51.58036128806451
 30
0.0
 10
-3.9999999999999702
 20
50.8
 30
0.0
 10
-3.999999999999971
 20
50
 30
0.0
 10
-3.9231411216129186
 20
49.21963871193549
 30
0.0
 10
-3.695518130045144
 20
48.46926627053964
 30
0.0
 10
-3.3258784492101783
 20
47.777719067921595
 30
0.0
 10
-2.828427124746187
 20
47.17157287525381
 30
0.0
 10
-2.222280932078406
 20
46.67412155078982
 30
0.0
 10
-1.5307337294603567
 20
46.304481869954856
 30
0.0
 10
-0.7803612880645117
 20
46.07685887838708
 30
0.0
 10
2.326828918379971e-15
 20
46
 30
0.0
 10
0.7803612880645162
 20
46.07685887838708
 30
0.0
 10
1.5307337294603616
 20
46.304481869954856
 30
0.0
 10
2.2222809320784105
 20
46.67412155078982
 30
0.0
 10
2.828427124746193
 20
47.17157287525381
 30
0.0
 10
3.325878449210184
 20
47.777719067921595
 30
0.0
 10
3.695518130045149
 20
48.46926627053964
 30
0.0
 10
3.9231411216129244
 20
49.21963871193549
 30
0.0
 10
4.000000000000002
 20
50
 30
0.0
  0
LWPOLYLINE
  8
OpenJsCad
  90
41
  70
1
 10
3.9231411216129235
 20
37.31963871193548
 30
0.0
 10
4.000000000000003
 20
38.099999999999994
 30
0.0
 10
3.923141121612924
 20
38.880361288064506
 30
0.0
 10
3.8716817809358717
 20
39.05
 30
0.0
 10
3.9231411216129235
 20
39.21963871193549
 30
0.0
 10
4.000000000000003
 20
40
 30
0.0
 10
3.9231411216129244
 20
40.78036128806451
 30
0.0
 10
3.695518130045149
 20
41.53073372946036
 30
0.0
 10
3.3258784492101845
 20
42.222280932078405
 30
0.0
 10
2.8284271247461934
 20
42.82842712474619
 30
0.0
 10
2.2222809320784114
 20
43.32587844921018
 30
0.0
 10
1.5307337294603642
 20
43.695518130045144
 30
0.0
 10
0.7803612880645175
 20
43.92314112161292
 30
0.0
 10
2.6942229581241772e-15
 20
44
 30
0.0
 10
-0.7803612880645103
 20
43.92314112161292
 30
0.0
 10
-1.5307337294603565
 20
43.695518130045144
 30
0.0
 10
-2.222280932078406
 20
43.32587844921018
 30
0.0
 10
-2.828427124746187
 20
42.82842712474619
 30
0.0
 10
-3.3258784492101783
 20
42.22228093207841
 30
0.0
 10
-3.6955181300451443
 20
41.53073372946036
 30
0.0
 10
-3.923141121612919
 20
40.78036128806451
 30
0.0
 10
-3.9999999999999973
 20
40
 30
0.0
 10
-3.9231411216129195
 20
39.21963871193549
 30
0.0
 10
-3.8716817809358672
 20
39.050000000000004
 30
0.0
 10
-3.9231411216129213
 20
38.880361288064506
 30
0.0
 10
-3.999999999999998
 20
38.099999999999994
 30
0.0
 10
-3.9231411216129195
 20
37.31963871193548
 30
0.0
 10
-3.6955181300451447
 20
36.569266270539636
 30
0.0
 10
-3.325878449210179
 20
35.87771906792159
 30
0.0
 10
-2.828427124746188
 20
35.2715728752538
 30
0.0
 10
-2.2222809320784065
 20
34.774121550789815
 30
0.0
 10
-1.5307337294603576
 20
34.40448186995485
 30
0.0
 10
-0.7803612880645123
 20
34.17685887838707
 30
0.0
 10
1.5981640728872956e-15
 20
34.099999999999994
 30
0.0
 10
0.7803612880645155
 20
34.17685887838707
 30
0.0
 10
1.5307337294603607
 20
34.40448186995485
 30
0.0
 10
2.22228093207841
 20
34.774121550789815
 30
0.0
 10
2.828427124746192
 20
35.2715728752538
 30
0.0
 10
3.325878449210183
 20
35.87771906792159
 30
0.0
 10
3.6955181300451483
 20
36.569266270539636
 30
0.0
 10
3.9231411216129235
 20
37.31963871193548
 30
0.0
  0
LWPOLYLINE
  8
OpenJsCad
  90
33
  70
1
 10
3.9231411216129257
 20
75.41963871193548
 30
0.0
 10
4.000000000000004
 20
76.19999999999999
 30
0.0
 10
3.9231411216129266
 20
76.9803612880645
 30
0.0
 10
3.6955181300451514
 20
77.73073372946035
 30
0.0
 10
3.3258784492101867
 20
78.4222809320784
 30
0.0
 10
2.8284271247461956
 20
79.02842712474617
 30
0.0
 10
2.2222809320784136
 20
79.52587844921017
 30
0.0
 10
1.5307337294603665
 20
79.89551813004513
 30
0.0
 10
0.7803612880645198
 20
80.1231411216129
 30
0.0
 10
4.9108336645808856e-15
 20
80.19999999999999
 30
0.0
 10
-0.7803612880645081
 20
80.12314112161292
 30
0.0
 10
-1.5307337294603542
 20
79.89551813004513
 30
0.0
 10
-2.222280932078404
 20
79.52587844921017
 30
0.0
 10
-2.828427124746185
 20
79.02842712474617
 30
0.0
 10
-3.325878449210176
 20
78.4222809320784
 30
0.0
 10
-3.695518130045142
 20
77.73073372946035
 30
0.0
 10
-3.923141121612917
 20
76.9803612880645
 30
0.0
 10
-3.999999999999995
 20
76.19999999999999
 30
0.0
 10
-3.9231411216129173
 20
75.41963871193548
 30
0.0
 10
-3.6955181300451425
 20
74.66926627053962
 30
0.0
 10
-3.325878449210177
 20
73.97771906792158
 30
0.0
 10
-2.828427124746186
 20
73.3715728752538
 30
0.0
 10
-2.2222809320784043
 20
72.87412155078981
 30
0.0
 10
-1.5307337294603551
 20
72.50448186995484
 30
0.0
 10
-0.78036128806451
 20
72.27685887838706
 30
0.0
 10
3.931116225263003e-15
 20
72.19999999999999
 30
0.0
 10
0.7803612880645179
 20
72.27685887838706
 30
0.0
 10
1.5307337294603631
 20
72.50448186995484
 30
0.0
 10
2.2222809320784123
 20
72.87412155078981
 30
0.0
 10
2.8284271247461943
 20
73.3715728752538
 30
0.0
 10
3.3258784492101854
 20
73.97771906792158
 30
0.0
 10
3.6955181300451505
 20
74.66926627053962
 30
0.0
 10
3.9231411216129257
 20
75.41963871193548
 30
0.0
  0
LWPOLYLINE
  8
OpenJsCad
  90
41
  70
1
 10
3.9231411216129275
 20
99.21963871193549
 30
0.0
 10
4.000000000000006
 20
100
 30
0.0
 10
3.923141121612928
 20
100.78036128806451
 30
0.0
 10
3.9171837834769745
 20
100.80000000000004
 30
0.0
 10
3.9231411216129275
 20
100.81963871193548
 30
0.0
 10
4.000000000000006
 20
101.6
 30
0.0
 10
3.923141121612928
 20
102.3803612880645
 30
0.0
 10
3.6955181300451527
 20
103.13073372946036
 30
0.0
 10
3.325878449210188
 20
103.8222809320784
 30
0.0
 10
2.828427124746197
 20
104.42842712474618
 30
0.0
 10
2.222280932078415
 20
104.92587844921017
 30
0.0
 10
1.530733729460368
 20
105.29551813004514
 30
0.0
 10
0.7803612880645213
 20
105.52314112161291
 30
0.0
 10
6.466135099498025e-15
 20
105.6
 30
0.0
 10
-0.7803612880645066
 20
105.52314112161292
 30
0.0
 10
-1.5307337294603527
 20
105.29551813004514
 30
0.0
 10
-2.2222809320784025
 20
104.92587844921017
 30
0.0
 10
-2.8284271247461836
 20
104.42842712474618
 30
0.0
 10
-3.3258784492101747
 20
103.8222809320784
 30
0.0
 10
-3.6955181300451407
 20
103.13073372946036
 30
0.0
 10
-3.9231411216129155
 20
102.3803612880645
 30
0.0
 10
-3.999999999999994
 20
101.6
 30
0.0
 10
-3.9231411216129155
 20
100.81963871193548
 30
0.0
 10
-3.9171837834769585
 20
100.80000000000003
 30
0.0
 10
-3.9231411216129155
 20
100.78036128806451
 30
0.0
 10
-3.999999999999994
 20
100
 30
0.0
 10
-3.9231411216129155
 20
99.21963871193549
 30
0.0
 10
-3.6955181300451407
 20
98.46926627053963
 30
0.0
 10
-3.3258784492101756
 20
97.7777190679216
 30
0.0
 10
-2.8284271247461845
 20
97.17157287525382
 30
0.0
 10
-2.222280932078403
 20
96.67412155078982
 30
0.0
 10
-1.5307337294603536
 20
96.30448186995486
 30
0.0
 10
-0.7803612880645086
 20
96.07685887838707
 30
0.0
 10
5.388445916248354e-15
 20
96
 30
0.0
 10
0.7803612880645193
 20
96.07685887838707
 30
0.0
 10
1.5307337294603647
 20
96.30448186995486
 30
0.0
 10
2.2222809320784136
 20
96.67412155078982
 30
0.0
 10
2.8284271247461956
 20
97.17157287525382
 30
0.0
 10
3.3258784492101867
 20
97.7777190679216
 30
0.0
 10
3.6955181300451523
 20
98.46926627053963
 30
0.0
 10
3.9231411216129275
 20
99.21963871193549
 30
0.0
  0
LWPOLYLINE
  8
OpenJsCad
  90
75
  70
1
 10
-5.6543776718589704
 20
11.20253705314756
 30
0.0
 10
-6.151828996322962
 20
11.808683245815343
 30
0.0
 10
-6.757975188990744
 20
12.306134570279335
 30
0.0
 10
-7.449522391608793
 20
12.675774251114301
 30
0.0
 10
-8.199894833004636
 20
12.903397242682075
 30
0.0
 10
-8.980256121069152
 20
12.980256121069154
 30
0.0
 10
-9.523931536211927
 20
12.926708766460955
 30
0.0
 10
-9.470384181603727
 20
13.470384181603729
 30
0.0
 10
-9.547243059990805
 20
14.250745469668242
 30
0.0
 10
-9.774866051558577
 20
15.001117911064085
 30
0.0
 10
-10.144505732393545
 20
15.692665113682136
 30
0.0
 10
-10.641957056857537
 20
16.29881130634992
 30
0.0
 10
-11.248103249525318
 20
16.79626263081391
 30
0.0
 10
-11.939650452143367
 20
17.165902311648875
 30
0.0
 10
-12.690022893539213
 20
17.393525303216652
 30
0.0
 10
-13.470384181603725
 20
17.47038418160373
 30
0.0
 10
-13.700315819340602
 20
17.44773789192681
 30
0.0
 10
-13.677669529663682
 20
17.677669529663692
 30
0.0
 10
-13.754528408050767
 20
18.4580308177282
 30
0.0
 10
-13.98215139961854
 20
19.208403259124044
 30
0.0
 10
-14.351791080453504
 20
19.899950461742094
 30
0.0
 10
-14.849242404917495
 20
20.50609665440988
 30
0.0
 10
-15.13208511739212
 20
20.788939366884502
 30
0.0
 10
-15.738231310059895
 20
21.286390691348487
 30
0.0
 10
-16.429778512677945
 20
21.65603037218345
 30
0.0
 10
-17.180150954073792
 20
21.88365336375123
 30
0.0
 10
-17.960512242138304
 20
21.960512242138307
 30
0.0
 10
-18.740873530202816
 20
21.88365336375123
 30
0.0
 10
-19.49124597159866
 20
21.656030372183455
 30
0.0
 10
-20.182793174216712
 20
21.28639069134849
 30
0.0
 10
-20.788939366884495
 20
20.7889393668845
 30
0.0
 10
-21.286390691348487
 20
20.182793174216716
 30
0.0
 10
-21.65603037218345
 20
19.49124597159867
 30
0.0
 10
-21.883653363751225
 20
18.74087353020282
 30
0.0
 10
-21.960512242138304
 20
17.960512242138307
 30
0.0
 10
-21.883653363751225
 20
17.180150954073795
 30
0.0
 10
-21.65603037218345
 20
16.42977851267795
 30
0.0
 10
-21.286390691348487
 20
15.738231310059897
 30
0.0
 10
-20.788939366884495
 20
15.132085117392117
 30
0.0
 10
-20.506096654409877
 20
14.849242404917499
 30
0.0
 10
-19.899950461742097
 20
14.351791080453511
 30
0.0
 10
-19.208403259124047
 20
13.982151399618543
 30
0.0
 10
-18.4580308177282
 20
13.754528408050767
 30
0.0
 10
-17.677669529663685
 20
13.677669529663689
 30
0.0
 10
-17.447737891926813
 20
13.700315819340608
 30
0.0
 10
-17.47038418160373
 20
13.470384181603732
 30
0.0
 10
-17.39352530321665
 20
12.690022893539217
 30
0.0
 10
-17.16590231164887
 20
11.93965045214337
 30
0.0
 10
-16.796262630813906
 20
11.24810324952532
 30
0.0
 10
-16.29881130634992
 20
10.641957056857539
 30
0.0
 10
-15.692665113682136
 20
10.144505732393549
 30
0.0
 10
-15.001117911064087
 20
9.774866051558583
 30
0.0
 10
-14.250745469668242
 20
9.547243059990809
 30
0.0
 10
-13.470384181603727
 20
9.470384181603729
 30
0.0
 10
-12.926708766460953
 20
9.52393153621193
 30
0.0
 10
-12.980256121069154
 20
8.980256121069155
 30
0.0
 10
-12.903397242682075
 20
8.199894833004642
 30
0.0
 10
-12.6757742511143
 20
7.449522391608793
 30
0.0
 10
-12.306134570279333
 20
6.757975188990747
 30
0.0
 10
-11.808683245815342
 20
6.151828996322964
 30
0.0
 10
-11.202537053147562
 20
5.654377671858974
 30
0.0
 10
-10.510989850529512
 20
5.2847379910240075
 30
0.0
 10
-9.760617409133665
 20
5.057114999456232
 30
0.0
 10
-8.980256121069154
 20
4.980256121069154
 30
0.0
 10
-8.19989483300464
 20
5.057114999456232
 30
0.0
 10
-7.449522391608793
 20
5.284737991024006
 30
0.0
 10
-6.757975188990745
 20
5.654377671858971
 30
0.0
 10
-6.151828996322962
 20
6.151828996322964
 30
0.0
 10
-5.654377671858971
 20
6.757975188990745
 30
0.0
 10
-5.284737991024005
 20
7.449522391608793
 30
0.0
 10
-5.057114999456231
 20
8.19989483300464
 30
0.0
 10
-4.980256121069151
 20
8.980256121069152
 30
0.0
 10
-5.05711499945623
 20
9.760617409133667
 30
0.0
 10
-5.284737991024004
 20
10.510989850529509
 30
0.0
 10
-5.6543776718589704
 20
11.20253705314756
 30
0.0
  0
LWPOLYLINE
  8
OpenJsCad
  90
35
  70
1
 10
-32.526911934581186
 20
38.18376618407357
 30
0.0
 10
-33.09259735953043
 20
38.74945160902281
 30
0.0
 10
-33.6987435521982
 20
39.246902933486794
 30
0.0
 10
-34.39029075481625
 20
39.616542614321766
 30
0.0
 10
-35.14066319621209
 20
39.844165605889536
 30
0.0
 10
-35.92102448427661
 20
39.921024484276614
 30
0.0
 10
-36.701385772341126
 20
39.844165605889536
 30
0.0
 10
-37.451758213736966
 20
39.616542614321766
 30
0.0
 10
-38.14330541635502
 20
39.246902933486794
 30
0.0
 10
-38.7494516090228
 20
38.749451609022806
 30
0.0
 10
-39.246902933486794
 20
38.14330541635502
 30
0.0
 10
-39.61654261432176
 20
37.45175821373697
 30
0.0
 10
-39.84416560588953
 20
36.70138577234113
 30
0.0
 10
-39.92102448427661
 20
35.921024484276614
 30
0.0
 10
-39.844165605889536
 20
35.1406631962121
 30
0.0
 10
-39.61654261432176
 20
34.390290754816256
 30
0.0
 10
-39.24690293348679
 20
33.69874355219821
 30
0.0
 10
-38.74945160902281
 20
33.09259735953043
 30
0.0
 10
-38.18376618407357
 20
32.526911934581186
 30
0.0
 10
-37.57761999140578
 20
32.0294606101172
 30
0.0
 10
-36.886072788787736
 20
31.659820929282237
 30
0.0
 10
-36.13570034739189
 20
31.43219793771446
 30
0.0
 10
-35.35533905932737
 20
31.355339059327378
 30
0.0
 10
-34.57497777126286
 20
31.43219793771446
 30
0.0
 10
-33.82460532986702
 20
31.659820929282237
 30
0.0
 10
-33.133058127248965
 20
32.0294606101172
 30
0.0
 10
-32.526911934581186
 20
32.526911934581186
 30
0.0
 10
-32.02946061011719
 20
33.13305812724897
 30
0.0
 10
-31.65982092928223
 20
33.824605329867026
 30
0.0
 10
-31.432197937714452
 20
34.574977771262866
 30
0.0
 10
-31.35533905932737
 20
35.35533905932738
 30
0.0
 10
-31.432197937714452
 20
36.1357003473919
 30
0.0
 10
-31.65982092928223
 20
36.88607278878774
 30
0.0
 10
-32.0294606101172
 20
37.57761999140578
 30
0.0
 10
-32.526911934581186
 20
38.18376618407357
 30
0.0
  0
LWPOLYLINE
  8
OpenJsCad
  90
75
  70
1
 10
20.788939366884502
 20
-15.13208511739212
 30
0.0
 10
20.50609665440988
 20
-14.849242404917497
 30
0.0
 10
19.899950461742108
 20
-14.351791080453495
 30
0.0
 10
19.208403259124058
 20
-13.982151399618527
 30
0.0
 10
18.45803081772821
 20
-13.754528408050753
 30
0.0
 10
17.677669529663696
 20
-13.677669529663675
 30
0.0
 10
17.447737891926824
 20
-13.700315819340593
 30
0.0
 10
17.47038418160374
 20
-13.47038418160372
 30
0.0
 10
17.39352530321666
 20
-12.690022893539203
 30
0.0
 10
17.165902311648882
 20
-11.939650452143356
 30
0.0
 10
16.796262630813917
 20
-11.248103249525307
 30
0.0
 10
16.298811306349926
 20
-10.641957056857526
 30
0.0
 10
15.692665113682144
 20
-10.144505732393537
 30
0.0
 10
15.001117911064094
 20
-9.77486605155857
 30
0.0
 10
14.25074546966825
 20
-9.547243059990794
 30
0.0
 10
13.470384181603734
 20
-9.470384181603718
 30
0.0
 10
12.92670876646096
 20
-9.523931536211919
 30
0.0
 10
12.98025612106916
 20
-8.980256121069145
 30
0.0
 10
12.903397242682079
 20
-8.199894833004631
 30
0.0
 10
12.675774251114305
 20
-7.4495223916087845
 30
0.0
 10
12.306134570279339
 20
-6.757975188990735
 30
0.0
 10
11.808683245815347
 20
-6.151828996322955
 30
0.0
 10
11.202537053147566
 20
-5.654377671858964
 30
0.0
 10
10.510989850529516
 20
-5.284737991023999
 30
0.0
 10
9.760617409133669
 20
-5.057114999456224
 30
0.0
 10
8.980256121069157
 20
-4.9802561210691465
 30
0.0
 10
8.199894833004644
 20
-5.057114999456225
 30
0.0
 10
7.449522391608798
 20
-5.284737991024
 30
0.0
 10
6.7579751889907484
 20
-5.654377671858967
 30
0.0
 10
6.151828996322967
 20
-6.151828996322958
 30
0.0
 10
5.654377671858976
 20
-6.7579751889907405
 30
0.0
 10
5.284737991024011
 20
-7.44952239160879
 30
0.0
 10
5.057114999456238
 20
-8.199894833004635
 30
0.0
 10
4.980256121069159
 20
-8.980256121069148
 30
0.0
 10
5.057114999456238
 20
-9.760617409133662
 30
0.0
 10
5.284737991024012
 20
-10.510989850529505
 30
0.0
 10
5.654377671858979
 20
-11.202537053147555
 30
0.0
 10
6.151828996322971
 20
-11.808683245815338
 30
0.0
 10
6.757975188990754
 20
-12.30613457027933
 30
0.0
 10
7.449522391608804
 20
-12.675774251114296
 30
0.0
 10
8.199894833004647
 20
-12.903397242682068
 30
0.0
 10
8.98025612106916
 20
-12.980256121069147
 30
0.0
 10
9.523931536211938
 20
-12.926708766460948
 30
0.0
 10
9.470384181603738
 20
-13.470384181603722
 30
0.0
 10
9.547243059990816
 20
-14.250745469668233
 30
0.0
 10
9.77486605155859
 20
-15.001117911064078
 30
0.0
 10
10.144505732393558
 20
-15.692665113682127
 30
0.0
 10
10.64195705685755
 20
-16.29881130634991
 30
0.0
 10
11.24810324952533
 20
-16.7962626308139
 30
0.0
 10
11.93965045214338
 20
-17.165902311648864
 30
0.0
 10
12.690022893539226
 20
-17.39352530321664
 30
0.0
 10
13.470384181603738
 20
-17.47038418160372
 30
0.0
 10
13.700315819340615
 20
-17.4477378919268
 30
0.0
 10
13.677669529663696
 20
-17.67766952966368
 30
0.0
 10
13.754528408050778
 20
-18.458030817728194
 30
0.0
 10
13.982151399618552
 20
-19.208403259124037
 30
0.0
 10
14.35179108045352
 20
-19.899950461742083
 30
0.0
 10
14.849242404917502
 20
-20.506096654409887
 30
0.0
 10
15.132085117392117
 20
-20.788939366884502
 30
0.0
 10
15.738231310059913
 20
-21.286390691348473
 30
0.0
 10
16.429778512677963
 20
-21.65603037218344
 30
0.0
 10
17.180150954073806
 20
-21.88365336375122
 30
0.0
 10
17.960512242138318
 20
-21.960512242138293
 30
0.0
 10
18.740873530202833
 20
-21.883653363751215
 30
0.0
 10
19.491245971598676
 20
-21.656030372183437
 30
0.0
 10
20.182793174216727
 20
-21.286390691348473
 30
0.0
 10
20.78893936688451
 20
-20.78893936688448
 30
0.0
 10
21.2863906913485
 20
-20.182793174216698
 30
0.0
 10
21.656030372183466
 20
-19.49124597159865
 30
0.0
 10
21.883653363751243
 20
-18.740873530202805
 30
0.0
 10
21.96051224213832
 20
-17.960512242138293
 30
0.0
 10
21.88365336375124
 20
-17.180150954073778
 30
0.0
 10
21.656030372183466
 20
-16.42977851267793
 30
0.0
 10
21.286390691348497
 20
-15.73823131005988
 30
0.0
 10
20.788939366884502
 20
-15.13208511739212
 30
0.0
  0
LWPOLYLINE
  8
OpenJsCad
  90
35
  70
1
 10
38.74945160902281
 20
-33.09259735953043
 30
0.0
 10
38.18376618407357
 20
-32.526911934581186
 30
0.0
 10
37.57761999140581
 20
-32.02946061011717
 30
0.0
 10
36.88607278878776
 20
-31.659820929282205
 30
0.0
 10
36.13570034739191
 20
-31.432197937714427
 30
0.0
 10
35.3553390593274
 20
-31.35533905932735
 30
0.0
 10
34.57497777126289
 20
-31.43219793771443
 30
0.0
 10
33.82460532986705
 20
-31.659820929282205
 30
0.0
 10
33.133058127248994
 20
-32.02946061011717
 30
0.0
 10
32.52691193458121
 20
-32.526911934581165
 30
0.0
 10
32.02946061011722
 20
-33.133058127248944
 30
0.0
 10
31.659820929282258
 20
-33.824605329867
 30
0.0
 10
31.432197937714484
 20
-34.57497777126284
 30
0.0
 10
31.3553390593274
 20
-35.35533905932735
 30
0.0
 10
31.43219793771448
 20
-36.13570034739187
 30
0.0
 10
31.659820929282258
 20
-36.886072788787715
 30
0.0
 10
32.029460610117226
 20
-37.57761999140577
 30
0.0
 10
32.526911934581186
 20
-38.18376618407357
 30
0.0
 10
33.09259735953043
 20
-38.74945160902281
 30
0.0
 10
33.69874355219823
 20
-39.24690293348677
 30
0.0
 10
34.390290754816284
 20
-39.61654261432174
 30
0.0
 10
35.140663196212124
 20
-39.84416560588951
 30
0.0
 10
35.92102448427664
 20
-39.921024484276586
 30
0.0
 10
36.701385772341155
 20
-39.84416560588951
 30
0.0
 10
37.451758213736994
 20
-39.61654261432173
 30
0.0
 10
38.14330541635505
 20
-39.246902933486766
 30
0.0
 10
38.74945160902283
 20
-38.74945160902278
 30
0.0
 10
39.24690293348682
 20
-38.14330541635499
 30
0.0
 10
39.61654261432179
 20
-37.45175821373694
 30
0.0
 10
39.84416560588956
 20
-36.70138577234109
 30
0.0
 10
39.92102448427664
 20
-35.921024484276586
 30
0.0
 10
39.84416560588956
 20
-35.140663196212074
 30
0.0
 10
39.61654261432178
 20
-34.39029075481623
 30
0.0
 10
39.246902933486815
 20
-33.698743552198174
 30
0.0
 10
38.74945160902281
 20
-33.09259735953043
 30
0.0
  0
LWPOLYLINE
  8
OpenJsCad
  90
41
  70
1
 10
-23.614889913997274
 20
29.163049295285866
 30
0.0
 10
-24.112341238461262
 20
29.769195487953645
 30
0.0
 10
-24.718487431129045
 20
30.26664681241764
 30
0.0
 10
-24.874827363438516
 20
30.350212247230843
 30
0.0
 10
-24.95839279825172
 20
30.506552179540314
 30
0.0
 10
-25.455844122715707
 20
31.112698372208094
 30
0.0
 10
-26.061990315383486
 20
31.610149696672085
 30
0.0
 10
-26.75353751800154
 20
31.979789377507046
 30
0.0
 10
-27.503909959397383
 20
32.207412369074824
 30
0.0
 10
-28.2842712474619
 20
32.28427124746191
 30
0.0
 10
-29.06463253552641
 20
32.207412369074824
 30
0.0
 10
-29.815004976922253
 20
31.97978937750705
 30
0.0
 10
-30.506552179540307
 20
31.610149696672085
 30
0.0
 10
-31.112698372208087
 20
31.112698372208094
 30
0.0
 10
-31.61014969667208
 20
30.50655217954031
 30
0.0
 10
-31.979789377507043
 20
29.81500497692226
 30
0.0
 10
-32.20741236907482
 20
29.064632535526414
 30
0.0
 10
-32.2842712474619
 20
28.284271247461906
 30
0.0
 10
-32.207412369074824
 20
27.503909959397394
 30
0.0
 10
-31.979789377507046
 20
26.753537518001544
 30
0.0
 10
-31.610149696672078
 20
26.061990315383493
 30
0.0
 10
-31.11269837220809
 20
25.45584412271571
 30
0.0
 10
-30.50655217954031
 20
24.958392798251722
 30
0.0
 10
-30.350212247230843
 20
24.874827363438524
 30
0.0
 10
-30.266646812417637
 20
24.71848743112905
 30
0.0
 10
-29.769195487953645
 20
24.11234123846127
 30
0.0
 10
-29.163049295285866
 20
23.614889913997278
 30
0.0
 10
-28.471502092667812
 20
23.245250233162313
 30
0.0
 10
-27.72112965127197
 20
23.01762724159454
 30
0.0
 10
-26.940768363207454
 20
22.940768363207457
 30
0.0
 10
-26.160407075142942
 20
23.017627241594536
 30
0.0
 10
-25.410034633747095
 20
23.245250233162313
 30
0.0
 10
-24.71848743112905
 20
23.614889913997278
 30
0.0
 10
-24.112341238461266
 20
24.11234123846127
 30
0.0
 10
-23.614889913997274
 20
24.718487431129052
 30
0.0
 10
-23.24525023316231
 20
25.4100346337471
 30
0.0
 10
-23.017627241594532
 20
26.160407075142945
 30
0.0
 10
-22.940768363207454
 20
26.940768363207457
 30
0.0
 10
-23.017627241594536
 20
27.721129651271973
 30
0.0
 10
-23.24525023316231
 20
28.471502092667816
 30
0.0
 10
-23.614889913997274
 20
29.163049295285866
 30
0.0
  0
LWPOLYLINE
  8
OpenJsCad
  90
33
  70
1
 10
-50.55565827720473
 20
56.10381765849333
 30
0.0
 10
-51.053109601668716
 20
56.709963851161106
 30
0.0
 10
-51.6592557943365
 20
57.207415175625094
 30
0.0
 10
-52.35080299695455
 20
57.57705485646007
 30
0.0
 10
-53.10117543835039
 20
57.804677848027836
 30
0.0
 10
-53.88153672641491
 20
57.881536726414915
 30
0.0
 10
-54.661898014479426
 20
57.804677848027836
 30
0.0
 10
-55.412270455875266
 20
57.577054856460066
 30
0.0
 10
-56.10381765849331
 20
57.207415175625094
 30
0.0
 10
-56.7099638511611
 20
56.709963851161106
 30
0.0
 10
-57.207415175625094
 20
56.10381765849333
 30
0.0
 10
-57.57705485646006
 20
55.41227045587527
 30
0.0
 10
-57.80467784802783
 20
54.66189801447943
 30
0.0
 10
-57.88153672641491
 20
53.881536726414915
 30
0.0
 10
-57.80467784802783
 20
53.101175438350396
 30
0.0
 10
-57.57705485646006
 20
52.35080299695456
 30
0.0
 10
-57.20741517562509
 20
51.65925579433651
 30
0.0
 10
-56.7099638511611
 20
51.05310960166872
 30
0.0
 10
-56.10381765849331
 20
50.55565827720474
 30
0.0
 10
-55.412270455875266
 20
50.18601859636976
 30
0.0
 10
-54.661898014479426
 20
49.95839560480199
 30
0.0
 10
-53.881536726414915
 20
49.88153672641492
 30
0.0
 10
-53.101175438350396
 20
49.958395604802
 30
0.0
 10
-52.350802996954556
 20
50.18601859636977
 30
0.0
 10
-51.659255794336495
 20
50.55565827720473
 30
0.0
 10
-51.053109601668716
 20
51.05310960166873
 30
0.0
 10
-50.55565827720472
 20
51.6592557943365
 30
0.0
 10
-50.18601859636976
 20
52.35080299695456
 30
0.0
 10
-49.95839560480199
 20
53.1011754383504
 30
0.0
 10
-49.881536726414915
 20
53.88153672641492
 30
0.0
 10
-49.958395604801986
 20
54.66189801447943
 30
0.0
 10
-50.186018596369756
 20
55.41227045587527
 30
0.0
 10
-50.55565827720473
 20
56.10381765849333
 30
0.0
  0
LWPOLYLINE
  8
OpenJsCad
  90
41
  70
1
 10
-67.38479966944456
 20
72.93295905073317
 30
0.0
 10
-67.88225099390856
 20
73.53910524340094
 30
0.0
 10
-68.48839718657634
 20
74.03655656786495
 30
0.0
 10
-68.50649632715347
 20
74.04623076005456
 30
0.0
 10
-68.51617051934304
 20
74.06432990063165
 30
0.0
 10
-69.01362184380703
 20
74.67047609329941
 30
0.0
 10
-69.61976803647481
 20
75.16792741776341
 30
0.0
 10
-70.31131523909286
 20
75.53756709859839
 30
0.0
 10
-71.0616876804887
 20
75.76519009016616
 30
0.0
 10
-71.84204896855321
 20
75.84204896855323
 30
0.0
 10
-72.62241025661773
 20
75.76519009016616
 30
0.0
 10
-73.37278269801358
 20
75.53756709859837
 30
0.0
 10
-74.06432990063162
 20
75.1679274177634
 30
0.0
 10
-74.67047609329941
 20
74.67047609329941
 30
0.0
 10
-75.1679274177634
 20
74.06432990063165
 30
0.0
 10
-75.53756709859836
 20
73.3727826980136
 30
0.0
 10
-75.76519009016614
 20
72.62241025661774
 30
0.0
 10
-75.84204896855321
 20
71.84204896855323
 30
0.0
 10
-75.76519009016614
 20
71.06168768048872
 30
0.0
 10
-75.53756709859837
 20
70.31131523909288
 30
0.0
 10
-75.16792741776341
 20
69.61976803647481
 30
0.0
 10
-74.6704760932994
 20
69.01362184380704
 30
0.0
 10
-74.06432990063163
 20
68.51617051934305
 30
0.0
 10
-74.04623076005454
 20
68.50649632715349
 30
0.0
 10
-74.03655656786493
 20
68.48839718657635
 30
0.0
 10
-73.53910524340093
 20
67.88225099390857
 30
0.0
 10
-72.93295905073316
 20
67.38479966944458
 30
0.0
 10
-72.2414118481151
 20
67.01515998860961
 30
0.0
 10
-71.49103940671927
 20
66.78753699704184
 30
0.0
 10
-70.71067811865476
 20
66.71067811865476
 30
0.0
 10
-69.93031683059024
 20
66.78753699704183
 30
0.0
 10
-69.17994438919439
 20
67.01515998860961
 30
0.0
 10
-68.48839718657632
 20
67.38479966944458
 30
0.0
 10
-67.88225099390856
 20
67.88225099390857
 30
0.0
 10
-67.38479966944456
 20
68.48839718657634
 30
0.0
 10
-67.01515998860961
 20
69.17994438919439
 30
0.0
 10
-66.78753699704183
 20
69.93031683059024
 30
0.0
 10
-66.71067811865476
 20
70.71067811865476
 30
0.0
 10
-66.78753699704183
 20
71.49103940671928
 30
0.0
 10
-67.0151599886096
 20
72.24141184811512
 30
0.0
 10
-67.38479966944456
 20
72.93295905073317
 30
0.0
  0
LWPOLYLINE
  8
OpenJsCad
  90
41
  70
1
 10
-37.31963871193548
 20
3.9231411216129257
 30
0.0
 10
-38.099999999999994
 20
4.000000000000004
 30
0.0
 10
-38.880361288064506
 20
3.9231411216129266
 30
0.0
 10
-39.05
 20
3.8716817809358743
 30
0.0
 10
-39.21963871193549
 20
3.923141121612926
 30
0.0
 10
-40
 20
4.000000000000005
 30
0.0
 10
-40.78036128806451
 20
3.9231411216129266
 30
0.0
 10
-41.53073372946036
 20
3.6955181300451514
 30
0.0
 10
-42.222280932078405
 20
3.325878449210187
 30
0.0
 10
-42.82842712474619
 20
2.828427124746196
 30
0.0
 10
-43.32587844921018
 20
2.222280932078414
 30
0.0
 10
-43.695518130045144
 20
1.530733729460367
 30
0.0
 10
-43.92314112161292
 20
0.7803612880645202
 30
0.0
 10
-44
 20
5.3884459162483544e-15
 30
0.0
 10
-43.92314112161292
 20
-0.7803612880645077
 30
0.0
 10
-43.695518130045144
 20
-1.5307337294603538
 30
0.0
 10
-43.32587844921018
 20
-2.2222809320784034
 30
0.0
 10
-42.82842712474619
 20
-2.8284271247461845
 30
0.0
 10
-42.22228093207841
 20
-3.3258784492101756
 30
0.0
 10
-41.53073372946036
 20
-3.695518130045142
 30
0.0
 10
-40.78036128806451
 20
-3.923141121612917
 30
0.0
 10
-40
 20
-3.999999999999995
 30
0.0
 10
-39.21963871193549
 20
-3.923141121612917
 30
0.0
 10
-39.050000000000004
 20
-3.8716817809358646
 30
0.0
 10
-38.880361288064506
 20
-3.9231411216129186
 30
0.0
 10
-38.099999999999994
 20
-3.999999999999995
 30
0.0
 10
-37.31963871193548
 20
-3.9231411216129173
 30
0.0
 10
-36.569266270539636
 20
-3.6955181300451425
 30
0.0
 10
-35.87771906792159
 20
-3.325878449210177
 30
0.0
 10
-35.2715728752538
 20
-2.828427124746186
 30
0.0
 10
-34.774121550789815
 20
-2.2222809320784043
 30
0.0
 10
-34.40448186995485
 20
-1.5307337294603554
 30
0.0
 10
-34.17685887838707
 20
-0.7803612880645102
 30
0.0
 10
-34.099999999999994
 20
3.6861868654335325e-15
 30
0.0
 10
-34.17685887838707
 20
0.7803612880645177
 30
0.0
 10
-34.40448186995485
 20
1.530733729460363
 30
0.0
 10
-34.774121550789815
 20
2.2222809320784123
 30
0.0
 10
-35.2715728752538
 20
2.8284271247461943
 30
0.0
 10
-35.87771906792159
 20
3.3258784492101854
 30
0.0
 10
-36.569266270539636
 20
3.6955181300451505
 30
0.0
 10
-37.31963871193548
 20
3.9231411216129257
 30
0.0
  0
LWPOLYLINE
  8
OpenJsCad
  90
33
  70
1
 10
-75.41963871193548
 20
3.9231411216129306
 30
0.0
 10
-76.19999999999999
 20
4.00000000000001
 30
0.0
 10
-76.9803612880645
 20
3.923141121612931
 30
0.0
 10
-77.73073372946035
 20
3.695518130045156
 30
0.0
 10
-78.4222809320784
 20
3.3258784492101916
 30
0.0
 10
-79.02842712474617
 20
2.8284271247462005
 30
0.0
 10
-79.52587844921017
 20
2.2222809320784185
 30
0.0
 10
-79.89551813004513
 20
1.5307337294603713
 30
0.0
 10
-80.1231411216129
 20
0.7803612880645246
 30
0.0
 10
-80.19999999999999
 20
9.821667329161771e-15
 30
0.0
 10
-80.12314112161292
 20
-0.7803612880645032
 30
0.0
 10
-79.89551813004513
 20
-1.5307337294603494
 30
0.0
 10
-79.52587844921017
 20
-2.222280932078399
 30
0.0
 10
-79.02842712474617
 20
-2.82842712474618
 30
0.0
 10
-78.4222809320784
 20
-3.325878449210171
 30
0.0
 10
-77.73073372946035
 20
-3.6955181300451376
 30
0.0
 10
-76.9803612880645
 20
-3.9231411216129124
 30
0.0
 10
-76.19999999999999
 20
-3.9999999999999907
 30
0.0
 10
-75.41963871193548
 20
-3.9231411216129124
 30
0.0
 10
-74.66926627053962
 20
-3.6955181300451376
 30
0.0
 10
-73.97771906792158
 20
-3.3258784492101725
 30
0.0
 10
-73.3715728752538
 20
-2.8284271247461814
 30
0.0
 10
-72.87412155078981
 20
-2.2222809320784
 30
0.0
 10
-72.50448186995484
 20
-1.5307337294603507
 30
0.0
 10
-72.27685887838706
 20
-0.7803612880645056
 30
0.0
 10
-72.19999999999999
 20
8.352091170184948e-15
 30
0.0
 10
-72.27685887838706
 20
0.7803612880645223
 30
0.0
 10
-72.50448186995484
 20
1.5307337294603676
 30
0.0
 10
-72.87412155078981
 20
2.2222809320784167
 30
0.0
 10
-73.3715728752538
 20
2.8284271247461987
 30
0.0
 10
-73.97771906792158
 20
3.32587844921019
 30
0.0
 10
-74.66926627053962
 20
3.6955181300451554
 30
0.0
 10
-75.41963871193548
 20
3.9231411216129306
 30
0.0
  0
LWPOLYLINE
  8
OpenJsCad
  90
41
  70
1
 10
-99.21963871193549
 20
3.9231411216129333
 30
0.0
 10
-100
 20
4.000000000000012
 30
0.0
 10
-100.78036128806451
 20
3.923141121612934
 30
0.0
 10
-100.80000000000004
 20
3.9171837834769807
 30
0.0
 10
-100.81963871193548
 20
3.9231411216129337
 30
0.0
 10
-101.6
 20
4.000000000000012
 30
0.0
 10
-102.3803612880645
 20
3.923141121612934
 30
0.0
 10
-103.13073372946036
 20
3.695518130045159
 30
0.0
 10
-103.8222809320784
 20
3.3258784492101947
 30
0.0
 10
-104.42842712474618
 20
2.8284271247462036
 30
0.0
 10
-104.92587844921017
 20
2.2222809320784216
 30
0.0
 10
-105.29551813004514
 20
1.5307337294603744
 30
0.0
 10
-105.52314112161291
 20
0.7803612880645278
 30
0.0
 10
-105.6
 20
1.293227019899605e-14
 30
0.0
 10
-105.52314112161292
 20
-0.7803612880645001
 30
0.0
 10
-105.29551813004514
 20
-1.5307337294603462
 30
0.0
 10
-104.92587844921017
 20
-2.222280932078396
 30
0.0
 10
-104.42842712474618
 20
-2.828427124746177
 30
0.0
 10
-103.8222809320784
 20
-3.325878449210168
 30
0.0
 10
-103.13073372946036
 20
-3.6955181300451345
 30
0.0
 10
-102.3803612880645
 20
-3.9231411216129093
 30
0.0
 10
-101.6
 20
-3.9999999999999876
 30
0.0
 10
-100.81963871193548
 20
-3.9231411216129093
 30
0.0
 10
-100.80000000000003
 20
-3.9171837834769523
 30
0.0
 10
-100.78036128806451
 20
-3.9231411216129093
 30
0.0
 10
-100
 20
-3.9999999999999876
 30
0.0
 10
-99.21963871193549
 20
-3.9231411216129097
 30
0.0
 10
-98.46926627053963
 20
-3.695518130045135
 30
0.0
 10
-97.7777190679216
 20
-3.3258784492101694
 30
0.0
 10
-97.17157287525382
 20
-2.8284271247461783
 30
0.0
 10
-96.67412155078982
 20
-2.2222809320783967
 30
0.0
 10
-96.30448186995486
 20
-1.5307337294603478
 30
0.0
 10
-96.07685887838707
 20
-0.7803612880645027
 30
0.0
 10
-96
 20
1.126675055215565e-14
 30
0.0
 10
-96.07685887838707
 20
0.7803612880645252
 30
0.0
 10
-96.30448186995486
 20
1.5307337294603705
 30
0.0
 10
-96.67412155078982
 20
2.22228093207842
 30
0.0
 10
-97.17157287525382
 20
2.828427124746202
 30
0.0
 10
-97.7777190679216
 20
3.325878449210193
 30
0.0
 10
-98.46926627053963
 20
3.695518130045158
 30
0.0
 10
-99.21963871193549
 20
3.9231411216129333
 30
0.0
  0
LWPOLYLINE
  8
OpenJsCad
  90
41
  70
1
 10
-29.163049295285873
 20
-23.614889913997274
 30
0.0
 10
-29.769195487953652
 20
-24.112341238461262
 30
0.0
 10
-30.266646812417644
 20
-24.718487431129045
 30
0.0
 10
-30.350212247230846
 20
-24.874827363438513
 30
0.0
 10
-30.506552179540314
 20
-24.95839279825172
 30
0.0
 10
-31.1126983722081
 20
-25.455844122715707
 30
0.0
 10
-31.61014969667209
 20
-26.061990315383486
 30
0.0
 10
-31.979789377507053
 20
-26.753537518001536
 30
0.0
 10
-32.20741236907483
 20
-27.503909959397383
 30
0.0
 10
-32.28427124746191
 20
-28.2842712474619
 30
0.0
 10
-32.20741236907483
 20
-29.06463253552641
 30
0.0
 10
-31.979789377507057
 20
-29.815004976922253
 30
0.0
 10
-31.61014969667209
 20
-30.506552179540307
 30
0.0
 10
-31.112698372208097
 20
-31.112698372208087
 30
0.0
 10
-30.506552179540314
 20
-31.61014969667208
 30
0.0
 10
-29.815004976922268
 20
-31.979789377507043
 30
0.0
 10
-29.06463253552642
 20
-32.20741236907482
 30
0.0
 10
-28.28427124746191
 20
-32.2842712474619
 30
0.0
 10
-27.503909959397397
 20
-32.207412369074824
 30
0.0
 10
-26.75353751800155
 20
-31.979789377507046
 30
0.0
 10
-26.061990315383497
 20
-31.610149696672078
 30
0.0
 10
-25.455844122715718
 20
-31.11269837220809
 30
0.0
 10
-24.958392798251726
 20
-30.50655217954031
 30
0.0
 10
-24.874827363438527
 20
-30.350212247230843
 30
0.0
 10
-24.718487431129052
 20
-30.266646812417637
 30
0.0
 10
-24.112341238461276
 20
-29.769195487953645
 30
0.0
 10
-23.61488991399728
 20
-29.163049295285866
 30
0.0
 10
-23.245250233162317
 20
-28.471502092667816
 30
0.0
 10
-23.017627241594543
 20
-27.72112965127197
 30
0.0
 10
-22.94076836320746
 20
-26.940768363207454
 30
0.0
 10
-23.01762724159454
 20
-26.160407075142942
 30
0.0
 10
-23.245250233162317
 20
-25.410034633747095
 30
0.0
 10
-23.61488991399728
 20
-24.71848743112905
 30
0.0
 10
-24.112341238461273
 20
-24.112341238461266
 30
0.0
 10
-24.718487431129056
 20
-23.614889913997274
 30
0.0
 10
-25.410034633747102
 20
-23.24525023316231
 30
0.0
 10
-26.16040707514295
 20
-23.017627241594532
 30
0.0
 10
-26.94076836320746
 20
-22.940768363207454
 30
0.0
 10
-27.721129651271976
 20
-23.017627241594536
 30
0.0
 10
-28.47150209266782
 20
-23.24525023316231
 30
0.0
 10
-29.163049295285873
 20
-23.614889913997274
 30
0.0
  0
LWPOLYLINE
  8
OpenJsCad
  90
33
  70
1
 10
-56.103817658493334
 20
-50.55565827720473
 30
0.0
 10
-56.70996385116112
 20
-51.053109601668716
 30
0.0
 10
-57.2074151756251
 20
-51.6592557943365
 30
0.0
 10
-57.57705485646008
 20
-52.35080299695455
 30
0.0
 10
-57.80467784802785
 20
-53.10117543835039
 30
0.0
 10
-57.88153672641492
 20
-53.88153672641491
 30
0.0
 10
-57.80467784802784
 20
-54.661898014479426
 30
0.0
 10
-57.57705485646007
 20
-55.412270455875266
 30
0.0
 10
-57.2074151756251
 20
-56.10381765849331
 30
0.0
 10
-56.70996385116111
 20
-56.7099638511611
 30
0.0
 10
-56.10381765849334
 20
-57.207415175625094
 30
0.0
 10
-55.41227045587528
 20
-57.57705485646006
 30
0.0
 10
-54.66189801447944
 20
-57.80467784802783
 30
0.0
 10
-53.88153672641492
 20
-57.88153672641491
 30
0.0
 10
-53.10117543835041
 20
-57.80467784802783
 30
0.0
 10
-52.35080299695457
 20
-57.57705485646006
 30
0.0
 10
-51.65925579433652
 20
-57.20741517562509
 30
0.0
 10
-51.05310960166874
 20
-56.7099638511611
 30
0.0
 10
-50.55565827720475
 20
-56.10381765849331
 30
0.0
 10
-50.18601859636977
 20
-55.412270455875266
 30
0.0
 10
-49.958395604802
 20
-54.661898014479426
 30
0.0
 10
-49.88153672641493
 20
-53.881536726414915
 30
0.0
 10
-49.95839560480201
 20
-53.101175438350396
 30
0.0
 10
-50.18601859636978
 20
-52.350802996954556
 30
0.0
 10
-50.555658277204735
 20
-51.659255794336495
 30
0.0
 10
-51.05310960166874
 20
-51.053109601668716
 30
0.0
 10
-51.65925579433651
 20
-50.55565827720472
 30
0.0
 10
-52.35080299695457
 20
-50.18601859636976
 30
0.0
 10
-53.10117543835041
 20
-49.95839560480199
 30
0.0
 10
-53.88153672641493
 20
-49.881536726414915
 30
0.0
 10
-54.66189801447944
 20
-49.958395604801986
 30
0.0
 10
-55.41227045587528
 20
-50.186018596369756
 30
0.0
 10
-56.103817658493334
 20
-50.55565827720473
 30
0.0
  0
LWPOLYLINE
  8
OpenJsCad
  90
41
  70
1
 10
-72.93295905073319
 20
-67.38479966944456
 30
0.0
 10
-73.53910524340095
 20
-67.88225099390856
 30
0.0
 10
-74.03655656786495
 20
-68.48839718657634
 30
0.0
 10
-74.04623076005457
 20
-68.50649632715347
 30
0.0
 10
-74.06432990063165
 20
-68.51617051934304
 30
0.0
 10
-74.67047609329943
 20
-69.01362184380703
 30
0.0
 10
-75.16792741776342
 20
-69.61976803647481
 30
0.0
 10
-75.53756709859839
 20
-70.31131523909286
 30
0.0
 10
-75.76519009016616
 20
-71.0616876804887
 30
0.0
 10
-75.84204896855324
 20
-71.84204896855321
 30
0.0
 10
-75.76519009016617
 20
-72.62241025661773
 30
0.0
 10
-75.53756709859839
 20
-73.37278269801358
 30
0.0
 10
-75.16792741776342
 20
-74.06432990063162
 30
0.0
 10
-74.67047609329943
 20
-74.67047609329941
 30
0.0
 10
-74.06432990063166
 20
-75.1679274177634
 30
0.0
 10
-73.37278269801361
 20
-75.53756709859836
 30
0.0
 10
-72.62241025661775
 20
-75.76519009016614
 30
0.0
 10
-71.84204896855324
 20
-75.84204896855321
 30
0.0
 10
-71.06168768048872
 20
-75.76519009016614
 30
0.0
 10
-70.31131523909288
 20
-75.53756709859837
 30
0.0
 10
-69.61976803647482
 20
-75.16792741776341
 30
0.0
 10
-69.01362184380706
 20
-74.6704760932994
 30
0.0
 10
-68.51617051934305
 20
-74.06432990063163
 30
0.0
 10
-68.50649632715349
 20
-74.04623076005454
 30
0.0
 10
-68.48839718657635
 20
-74.03655656786493
 30
0.0
 10
-67.88225099390858
 20
-73.53910524340093
 30
0.0
 10
-67.38479966944459
 20
-72.93295905073316
 30
0.0
 10
-67.01515998860961
 20
-72.2414118481151
 30
0.0
 10
-66.78753699704184
 20
-71.49103940671927
 30
0.0
 10
-66.71067811865477
 20
-70.71067811865476
 30
0.0
 10
-66.78753699704184
 20
-69.93031683059024
 30
0.0
 10
-67.01515998860962
 20
-69.17994438919439
 30
0.0
 10
-67.38479966944459
 20
-68.48839718657632
 30
0.0
 10
-67.88225099390857
 20
-67.88225099390856
 30
0.0
 10
-68.48839718657635
 20
-67.38479966944456
 30
0.0
 10
-69.1799443891944
 20
-67.01515998860961
 30
0.0
 10
-69.93031683059026
 20
-66.78753699704183
 30
0.0
 10
-70.71067811865477
 20
-66.71067811865476
 30
0.0
 10
-71.49103940671928
 20
-66.78753699704183
 30
0.0
 10
-72.24141184811512
 20
-67.0151599886096
 30
0.0
 10
-72.93295905073319
 20
-67.38479966944456
 30
0.0
  0
LWPOLYLINE
  8
OpenJsCad
  90
41
  70
1
 10
-3.923141121612928
 20
-37.31963871193548
 30
0.0
 10
-4.000000000000007
 20
-38.099999999999994
 30
0.0
 10
-3.923141121612929
 20
-38.880361288064506
 30
0.0
 10
-3.8716817809358766
 20
-39.05
 30
0.0
 10
-3.9231411216129284
 20
-39.21963871193549
 30
0.0
 10
-4.000000000000007
 20
-40
 30
0.0
 10
-3.9231411216129293
 20
-40.78036128806451
 30
0.0
 10
-3.695518130045154
 20
-41.53073372946036
 30
0.0
 10
-3.3258784492101894
 20
-42.222280932078405
 30
0.0
 10
-2.8284271247461987
 20
-42.82842712474619
 30
0.0
 10
-2.2222809320784167
 20
-43.32587844921018
 30
0.0
 10
-1.5307337294603696
 20
-43.695518130045144
 30
0.0
 10
-0.780361288064523
 20
-43.92314112161292
 30
0.0
 10
-8.082668874372531e-15
 20
-44
 30
0.0
 10
0.7803612880645049
 20
-43.92314112161292
 30
0.0
 10
1.5307337294603511
 20
-43.695518130045144
 30
0.0
 10
2.2222809320784007
 20
-43.32587844921018
 30
0.0
 10
2.828427124746182
 20
-42.82842712474619
 30
0.0
 10
3.3258784492101734
 20
-42.22228093207841
 30
0.0
 10
3.6955181300451394
 20
-41.53073372946036
 30
0.0
 10
3.923141121612914
 20
-40.78036128806451
 30
0.0
 10
3.9999999999999925
 20
-40
 30
0.0
 10
3.9231411216129146
 20
-39.21963871193549
 30
0.0
 10
3.8716817809358623
 20
-39.050000000000004
 30
0.0
 10
3.9231411216129164
 20
-38.880361288064506
 30
0.0
 10
3.999999999999993
 20
-38.099999999999994
 30
0.0
 10
3.923141121612915
 20
-37.31963871193548
 30
0.0
 10
3.6955181300451403
 20
-36.569266270539636
 30
0.0
 10
3.3258784492101747
 20
-35.87771906792159
 30
0.0
 10
2.8284271247461836
 20
-35.2715728752538
 30
0.0
 10
2.2222809320784025
 20
-34.774121550789815
 30
0.0
 10
1.5307337294603534
 20
-34.40448186995485
 30
0.0
 10
0.7803612880645081
 20
-34.17685887838707
 30
0.0
 10
-5.774209657979769e-15
 20
-34.099999999999994
 30
0.0
 10
-0.7803612880645198
 20
-34.17685887838707
 30
0.0
 10
-1.530733729460365
 20
-34.40448186995485
 30
0.0
 10
-2.222280932078414
 20
-34.774121550789815
 30
0.0
 10
-2.8284271247461965
 20
-35.2715728752538
 30
0.0
 10
-3.3258784492101876
 20
-35.87771906792159
 30
0.0
 10
-3.6955181300451527
 20
-36.569266270539636
 30
0.0
 10
-3.923141121612928
 20
-37.31963871193548
 30
0.0
  0
LWPOLYLINE
  8
OpenJsCad
  90
33
  70
1
 10
-3.923141121612935
 20
-75.41963871193548
 30
0.0
 10
-4.000000000000014
 20
-76.19999999999999
 30
0.0
 10
-3.923141121612936
 20
-76.9803612880645
 30
0.0
 10
-3.6955181300451607
 20
-77.73073372946035
 30
0.0
 10
-3.325878449210196
 20
-78.4222809320784
 30
0.0
 10
-2.8284271247462054
 20
-79.02842712474617
 30
0.0
 10
-2.2222809320784234
 20
-79.52587844921017
 30
0.0
 10
-1.5307337294603762
 20
-79.89551813004513
 30
0.0
 10
-0.7803612880645296
 20
-80.1231411216129
 30
0.0
 10
-1.4732500993742656e-14
 20
-80.19999999999999
 30
0.0
 10
0.7803612880644982
 20
-80.12314112161292
 30
0.0
 10
1.5307337294603445
 20
-79.89551813004513
 30
0.0
 10
2.222280932078394
 20
-79.52587844921017
 30
0.0
 10
2.828427124746175
 20
-79.02842712474617
 30
0.0
 10
3.3258784492101667
 20
-78.4222809320784
 30
0.0
 10
3.6955181300451327
 20
-77.73073372946035
 30
0.0
 10
3.9231411216129075
 20
-76.9803612880645
 30
0.0
 10
3.999999999999986
 20
-76.19999999999999
 30
0.0
 10
3.923141121612908
 20
-75.41963871193548
 30
0.0
 10
3.695518130045133
 20
-74.66926627053962
 30
0.0
 10
3.3258784492101676
 20
-73.97771906792158
 30
0.0
 10
2.828427124746177
 20
-73.3715728752538
 30
0.0
 10
2.2222809320783954
 20
-72.87412155078981
 30
0.0
 10
1.5307337294603462
 20
-72.50448186995484
 30
0.0
 10
0.7803612880645011
 20
-72.27685887838706
 30
0.0
 10
-1.2773066115106892e-14
 20
-72.19999999999999
 30
0.0
 10
-0.7803612880645268
 20
-72.27685887838706
 30
0.0
 10
-1.530733729460372
 20
-72.50448186995484
 30
0.0
 10
-2.222280932078421
 20
-72.87412155078981
 30
0.0
 10
-2.828427124746203
 20
-73.3715728752538
 30
0.0
 10
-3.3258784492101947
 20
-73.97771906792158
 30
0.0
 10
-3.69551813004516
 20
-74.66926627053962
 30
0.0
 10
-3.923141121612935
 20
-75.41963871193548
 30
0.0
  0
LWPOLYLINE
  8
OpenJsCad
  90
41
  70
1
 10
-3.9231411216129395
 20
-99.21963871193549
 30
0.0
 10
-4.000000000000019
 20
-100
 30
0.0
 10
-3.9231411216129404
 20
-100.78036128806451
 30
0.0
 10
-3.917183783476987
 20
-100.80000000000004
 30
0.0
 10
-3.92314112161294
 20
-100.81963871193548
 30
0.0
 10
-4.000000000000019
 20
-101.6
 30
0.0
 10
-3.9231411216129404
 20
-102.3803612880645
 30
0.0
 10
-3.6955181300451656
 20
-103.13073372946036
 30
0.0
 10
-3.325878449210201
 20
-103.8222809320784
 30
0.0
 10
-2.82842712474621
 20
-104.42842712474618
 30
0.0
 10
-2.222280932078428
 20
-104.92587844921017
 30
0.0
 10
-1.5307337294603809
 20
-105.29551813004514
 30
0.0
 10
-0.7803612880645343
 20
-105.52314112161291
 30
0.0
 10
-1.9398405298494072e-14
 20
-105.6
 30
0.0
 10
0.7803612880644936
 20
-105.52314112161292
 30
0.0
 10
1.5307337294603398
 20
-105.29551813004514
 30
0.0
 10
2.2222809320783896
 20
-104.92587844921017
 30
0.0
 10
2.8284271247461708
 20
-104.42842712474618
 30
0.0
 10
3.325878449210162
 20
-103.8222809320784
 30
0.0
 10
3.695518130045128
 20
-103.13073372946036
 30
0.0
 10
3.923141121612903
 20
-102.3803612880645
 30
0.0
 10
3.9999999999999813
 20
-101.6
 30
0.0
 10
3.923141121612903
 20
-100.81963871193548
 30
0.0
 10
3.917183783476946
 20
-100.80000000000003
 30
0.0
 10
3.923141121612903
 20
-100.78036128806451
 30
0.0
 10
3.999999999999982
 20
-100
 30
0.0
 10
3.9231411216129035
 20
-99.21963871193549
 30
0.0
 10
3.6955181300451287
 20
-98.46926627053963
 30
0.0
 10
3.3258784492101636
 20
-97.7777190679216
 30
0.0
 10
2.8284271247461725
 20
-97.17157287525382
 30
0.0
 10
2.222280932078391
 20
-96.67412155078982
 30
0.0
 10
1.5307337294603418
 20
-96.30448186995486
 30
0.0
 10
0.7803612880644968
 20
-96.07685887838707
 30
0.0
 10
-1.7145055188062946e-14
 20
-96
 30
0.0
 10
-0.7803612880645311
 20
-96.07685887838707
 30
0.0
 10
-1.5307337294603764
 20
-96.30448186995486
 30
0.0
 10
-2.2222809320784256
 20
-96.67412155078982
 30
0.0
 10
-2.8284271247462076
 20
-97.17157287525382
 30
0.0
 10
-3.3258784492101987
 20
-97.7777190679216
 30
0.0
 10
-3.6955181300451643
 20
-98.46926627053963
 30
0.0
 10
-3.9231411216129395
 20
-99.21963871193549
 30
0.0
  0
LWPOLYLINE
  8
OpenJsCad
  90
41
  70
1
 10
23.6148899139973
 20
-29.163049295285848
 30
0.0
 10
24.112341238461287
 20
-29.769195487953628
 30
0.0
 10
24.71848743112907
 20
-30.26664681241762
 30
0.0
 10
24.874827363438538
 20
-30.350212247230825
 30
0.0
 10
24.958392798251744
 20
-30.506552179540293
 30
0.0
 10
25.45584412271573
 20
-31.112698372208072
 30
0.0
 10
26.061990315383515
 20
-31.61014969667206
 30
0.0
 10
26.753537518001565
 20
-31.97978937750703
 30
0.0
 10
27.503909959397408
 20
-32.2074123690748
 30
0.0
 10
28.284271247461923
 20
-32.28427124746188
 30
0.0
 10
29.064632535526435
 20
-32.2074123690748
 30
0.0
 10
29.81500497692228
 20
-31.979789377507025
 30
0.0
 10
30.50655217954033
 20
-31.61014969667206
 30
0.0
 10
31.11269837220811
 20
-31.11269837220807
 30
0.0
 10
31.610149696672103
 20
-30.506552179540286
 30
0.0
 10
31.979789377507068
 20
-29.815004976922232
 30
0.0
 10
32.207412369074845
 20
-29.06463253552639
 30
0.0
 10
32.28427124746192
 20
-28.28427124746188
 30
0.0
 10
32.207412369074845
 20
-27.503909959397365
 30
0.0
 10
31.979789377507068
 20
-26.75353751800152
 30
0.0
 10
31.6101496966721
 20
-26.06199031538347
 30
0.0
 10
31.112698372208108
 20
-25.45584412271569
 30
0.0
 10
30.50655217954033
 20
-24.9583927982517
 30
0.0
 10
30.350212247230864
 20
-24.8748273634385
 30
0.0
 10
30.266646812417655
 20
-24.718487431129024
 30
0.0
 10
29.769195487953663
 20
-24.112341238461244
 30
0.0
 10
29.163049295285884
 20
-23.614889913997256
 30
0.0
 10
28.471502092667833
 20
-23.245250233162288
 30
0.0
 10
27.72112965127199
 20
-23.017627241594518
 30
0.0
 10
26.94076836320747
 20
-22.940768363207436
 30
0.0
 10
26.160407075142963
 20
-23.017627241594518
 30
0.0
 10
25.410034633747117
 20
-23.24525023316229
 30
0.0
 10
24.718487431129066
 20
-23.614889913997256
 30
0.0
 10
24.112341238461283
 20
-24.112341238461248
 30
0.0
 10
23.614889913997292
 20
-24.71848743112903
 30
0.0
 10
23.24525023316233
 20
-25.41003463374708
 30
0.0
 10
23.017627241594557
 20
-26.160407075142928
 30
0.0
 10
22.94076836320747
 20
-26.940768363207436
 30
0.0
 10
23.017627241594557
 20
-27.72112965127196
 30
0.0
 10
23.24525023316233
 20
-28.471502092667798
 30
0.0
 10
23.6148899139973
 20
-29.163049295285848
 30
0.0
  0
LWPOLYLINE
  8
OpenJsCad
  90
33
  70
1
 10
50.55565827720477
 20
-56.10381765849329
 30
0.0
 10
51.053109601668766
 20
-56.70996385116106
 30
0.0
 10
51.659255794336545
 20
-57.20741517562506
 30
0.0
 10
52.350802996954606
 20
-57.57705485646003
 30
0.0
 10
53.10117543835044
 20
-57.804677848027794
 30
0.0
 10
53.88153672641495
 20
-57.88153672641487
 30
0.0
 10
54.66189801447947
 20
-57.8046778480278
 30
0.0
 10
55.41227045587531
 20
-57.57705485646002
 30
0.0
 10
56.103817658493355
 20
-57.20741517562505
 30
0.0
 10
56.70996385116114
 20
-56.70996385116106
 30
0.0
 10
57.20741517562514
 20
-56.103817658493284
 30
0.0
 10
57.5770548564601
 20
-55.41227045587523
 30
0.0
 10
57.80467784802787
 20
-54.661898014479384
 30
0.0
 10
57.88153672641495
 20
-53.88153672641487
 30
0.0
 10
57.804677848027865
 20
-53.10117543835035
 30
0.0
 10
57.5770548564601
 20
-52.35080299695452
 30
0.0
 10
57.20741517562513
 20
-51.65925579433646
 30
0.0
 10
56.709963851161135
 20
-51.05310960166868
 30
0.0
 10
56.103817658493355
 20
-50.55565827720469
 30
0.0
 10
55.4122704558753
 20
-50.18601859636972
 30
0.0
 10
54.66189801447946
 20
-49.95839560480196
 30
0.0
 10
53.88153672641495
 20
-49.88153672641488
 30
0.0
 10
53.10117543835043
 20
-49.95839560480195
 30
0.0
 10
52.35080299695459
 20
-50.18601859636973
 30
0.0
 10
51.65925579433654
 20
-50.55565827720469
 30
0.0
 10
51.05310960166876
 20
-51.05310960166869
 30
0.0
 10
50.55565827720476
 20
-51.65925579433647
 30
0.0
 10
50.186018596369806
 20
-52.35080299695452
 30
0.0
 10
49.95839560480203
 20
-53.10117543835036
 30
0.0
 10
49.88153672641495
 20
-53.88153672641488
 30
0.0
 10
49.958395604802035
 20
-54.6618980144794
 30
0.0
 10
50.186018596369806
 20
-55.41227045587523
 30
0.0
 10
50.55565827720477
 20
-56.10381765849329
 30
0.0
  0
LWPOLYLINE
  8
OpenJsCad
  90
41
  70
1
 10
67.38479966944462
 20
-72.93295905073312
 30
0.0
 10
67.88225099390861
 20
-73.5391052434009
 30
0.0
 10
68.48839718657639
 20
-74.03655656786489
 30
0.0
 10
68.50649632715353
 20
-74.04623076005451
 30
0.0
 10
68.51617051934309
 20
-74.06432990063159
 30
0.0
 10
69.01362184380709
 20
-74.67047609329937
 30
0.0
 10
69.61976803647487
 20
-75.16792741776335
 30
0.0
 10
70.31131523909292
 20
-75.53756709859833
 30
0.0
 10
71.06168768048876
 20
-75.7651900901661
 30
0.0
 10
71.84204896855327
 20
-75.84204896855317
 30
0.0
 10
72.62241025661778
 20
-75.7651900901661
 30
0.0
 10
73.37278269801364
 20
-75.53756709859832
 30
0.0
 10
74.06432990063169
 20
-75.16792741776335
 30
0.0
 10
74.67047609329947
 20
-74.67047609329936
 30
0.0
 10
75.16792741776345
 20
-74.06432990063159
 30
0.0
 10
75.53756709859842
 20
-73.37278269801354
 30
0.0
 10
75.7651900901662
 20
-72.62241025661768
 30
0.0
 10
75.84204896855327
 20
-71.84204896855317
 30
0.0
 10
75.7651900901662
 20
-71.06168768048866
 30
0.0
 10
75.53756709859843
 20
-70.31131523909282
 30
0.0
 10
75.16792741776347
 20
-69.61976803647475
 30
0.0
 10
74.67047609329946
 20
-69.01362184380697
 30
0.0
 10
74.06432990063169
 20
-68.51617051934299
 30
0.0
 10
74.0462307600546
 20
-68.50649632715343
 30
0.0
 10
74.03655656786499
 20
-68.4883971865763
 30
0.0
 10
73.53910524340098
 20
-67.8822509939085
 30
0.0
 10
72.93295905073322
 20
-67.38479966944452
 30
0.0
 10
72.24141184811516
 20
-67.01515998860955
 30
0.0
 10
71.49103940671932
 20
-66.78753699704178
 30
0.0
 10
70.7106781186548
 20
-66.71067811865471
 30
0.0
 10
69.93031683059029
 20
-66.78753699704178
 30
0.0
 10
69.17994438919443
 20
-67.01515998860957
 30
0.0
 10
68.48839718657638
 20
-67.3847996694445
 30
0.0
 10
67.88225099390861
 20
-67.88225099390851
 30
0.0
 10
67.38479966944462
 20
-68.48839718657628
 30
0.0
 10
67.01515998860965
 20
-69.17994438919435
 30
0.0
 10
66.78753699704187
 20
-69.9303168305902
 30
0.0
 10
66.7106781186548
 20
-70.71067811865471
 30
0.0
 10
66.78753699704188
 20
-71.49103940671922
 30
0.0
 10
67.01515998860965
 20
-72.24141184811506
 30
0.0
 10
67.38479966944462
 20
-72.93295905073312
 30
0.0
  0
ENDSEC
  0
EOF
