  0
SECTION
  2
BLOCKS
  0
ENDSEC
  0
SECTION
  2
ENTITIES
  0
LINE
  8
0
 10
562.517
 20
0.636261
 11
565
 21
1.74167
  0
LINE
  8
0
 10
565
 20
1.74167
 11
567.199
 21
3.33911
  0
LINE
  8
0
 10
567.199
 20
3.33911
 11
569.017
 21
5.35878
  0
LINE
  8
0
 10
569.017
 20
5.35878
 11
570.376
 21
7.71242
  0
LINE
  8
0
 10
570.376
 20
7.71242
 11
571.216
 21
10.2971
  0
LINE
  8
0
 10
571.216
 20
10.2971
 11
571.5
 21
13
  0
LINE
  8
0
 10
571.5
 20
13
 11
571.5
 21
368
  0
LINE
  8
0
 10
571.5
 20
368
 11
571.216
 21
370.703
  0
LINE
  8
0
 10
571.216
 20
370.703
 11
570.376
 21
373.288
  0
LINE
  8
0
 10
570.376
 20
373.288
 11
569.017
 21
375.641
  0
LINE
  8
0
 10
569.017
 20
375.641
 11
567.199
 21
377.661
  0
LINE
  8
0
 10
567.199
 20
377.661
 11
565
 21
379.258
  0
LINE
  8
0
 10
565
 20
379.258
 11
562.517
 21
380.364
  0
LINE
  8
0
 10
562.517
 20
380.364
 11
559.859
 21
380.929
  0
LINE
  8
0
 10
559.859
 20
380.929
 11
11.6411
 21
380.929
  0
LINE
  8
0
 10
11.6411
 20
380.929
 11
8.98277
 21
380.364
  0
LINE
  8
0
 10
8.98277
 20
380.364
 11
6.5
 21
379.258
  0
LINE
  8
0
 10
6.5
 20
379.258
 11
4.3013
 21
377.661
  0
LINE
  8
0
 10
4.3013
 20
377.661
 11
2.48277
 21
375.641
  0
LINE
  8
0
 10
2.48277
 20
375.641
 11
1.1239
 21
373.288
  0
LINE
  8
0
 10
1.1239
 20
373.288
 11
0.284073
 21
370.703
  0
LINE
  8
0
 10
0.284073
 20
370.703
 11
0
 21
368
  0
LINE
  8
0
 10
0
 20
368
 11
0
 21
13
  0
LINE
  8
0
 10
0
 20
13
 11
0.284073
 21
10.2971
  0
LINE
  8
0
 10
0.284073
 20
10.2971
 11
1.1239
 21
7.71242
  0
LINE
  8
0
 10
1.1239
 20
7.71242
 11
2.48277
 21
5.35878
  0
LINE
  8
0
 10
2.48277
 20
5.35878
 11
4.3013
 21
3.33911
  0
LINE
  8
0
 10
4.3013
 20
3.33911
 11
6.5
 21
1.74167
  0
LINE
  8
0
 10
6.5
 20
1.74167
 11
8.98277
 21
0.636261
  0
LINE
  8
0
 10
8.98277
 20
0.636261
 11
11.6411
 21
0.0712128
  0
LINE
  8
0
 10
11.6411
 20
0.0712128
 11
559.859
 21
0.0712128
  0
LINE
  8
0
 10
559.859
 20
0.0712128
 11
562.517
 21
0.636261
  0
LINE
  8
0
 10
550.2
 20
358.053
 11
548.809
 21
359.305
  0
LINE
  8
0
 10
548.809
 20
359.305
 11
548.048
 21
361.014
  0
LINE
  8
0
 10
548.048
 20
361.014
 11
548.048
 21
362.886
  0
LINE
  8
0
 10
548.048
 20
362.886
 11
548.809
 21
364.595
  0
LINE
  8
0
 10
548.809
 20
364.595
 11
550.2
 21
365.847
  0
LINE
  8
0
 10
550.2
 20
365.847
 11
551.98
 21
366.425
  0
LINE
  8
0
 10
551.98
 20
366.425
 11
553.841
 21
366.23
  0
LINE
  8
0
 10
553.841
 20
366.23
 11
555.461
 21
365.294
  0
LINE
  8
0
 10
555.461
 20
365.294
 11
556.561
 21
363.78
  0
LINE
  8
0
 10
556.561
 20
363.78
 11
556.95
 21
361.95
  0
LINE
  8
0
 10
556.95
 20
361.95
 11
556.561
 21
360.12
  0
LINE
  8
0
 10
556.561
 20
360.12
 11
555.461
 21
358.606
  0
LINE
  8
0
 10
555.461
 20
358.606
 11
553.841
 21
357.67
  0
LINE
  8
0
 10
553.841
 20
357.67
 11
551.98
 21
357.475
  0
LINE
  8
0
 10
551.98
 20
357.475
 11
550.2
 21
358.053
  0
LINE
  8
0
 10
512.1
 20
358.053
 11
510.709
 21
359.305
  0
LINE
  8
0
 10
510.709
 20
359.305
 11
509.948
 21
361.014
  0
LINE
  8
0
 10
509.948
 20
361.014
 11
509.948
 21
362.886
  0
LINE
  8
0
 10
509.948
 20
362.886
 11
510.709
 21
364.595
  0
LINE
  8
0
 10
510.709
 20
364.595
 11
512.1
 21
365.847
  0
LINE
  8
0
 10
512.1
 20
365.847
 11
513.88
 21
366.425
  0
LINE
  8
0
 10
513.88
 20
366.425
 11
515.741
 21
366.23
  0
LINE
  8
0
 10
515.741
 20
366.23
 11
517.361
 21
365.294
  0
LINE
  8
0
 10
517.361
 20
365.294
 11
518.461
 21
363.78
  0
LINE
  8
0
 10
518.461
 20
363.78
 11
518.85
 21
361.95
  0
LINE
  8
0
 10
518.85
 20
361.95
 11
518.461
 21
360.12
  0
LINE
  8
0
 10
518.461
 20
360.12
 11
517.361
 21
358.606
  0
LINE
  8
0
 10
517.361
 20
358.606
 11
515.741
 21
357.67
  0
LINE
  8
0
 10
515.741
 20
357.67
 11
513.88
 21
357.475
  0
LINE
  8
0
 10
513.88
 20
357.475
 11
512.1
 21
358.053
  0
LINE
  8
0
 10
474
 20
358.053
 11
472.609
 21
359.305
  0
LINE
  8
0
 10
472.609
 20
359.305
 11
471.848
 21
361.014
  0
LINE
  8
0
 10
471.848
 20
361.014
 11
471.848
 21
362.886
  0
LINE
  8
0
 10
471.848
 20
362.886
 11
472.609
 21
364.595
  0
LINE
  8
0
 10
472.609
 20
364.595
 11
474
 21
365.847
  0
LINE
  8
0
 10
474
 20
365.847
 11
475.78
 21
366.425
  0
LINE
  8
0
 10
475.78
 20
366.425
 11
477.641
 21
366.23
  0
LINE
  8
0
 10
477.641
 20
366.23
 11
479.261
 21
365.294
  0
LINE
  8
0
 10
479.261
 20
365.294
 11
480.361
 21
363.78
  0
LINE
  8
0
 10
480.361
 20
363.78
 11
480.75
 21
361.95
  0
LINE
  8
0
 10
480.75
 20
361.95
 11
480.361
 21
360.12
  0
LINE
  8
0
 10
480.361
 20
360.12
 11
479.261
 21
358.606
  0
LINE
  8
0
 10
479.261
 20
358.606
 11
477.641
 21
357.67
  0
LINE
  8
0
 10
477.641
 20
357.67
 11
475.78
 21
357.475
  0
LINE
  8
0
 10
475.78
 20
357.475
 11
474
 21
358.053
  0
LINE
  8
0
 10
435.9
 20
358.053
 11
434.509
 21
359.305
  0
LINE
  8
0
 10
434.509
 20
359.305
 11
433.748
 21
361.014
  0
LINE
  8
0
 10
433.748
 20
361.014
 11
433.748
 21
362.886
  0
LINE
  8
0
 10
433.748
 20
362.886
 11
434.509
 21
364.595
  0
LINE
  8
0
 10
434.509
 20
364.595
 11
435.9
 21
365.847
  0
LINE
  8
0
 10
435.9
 20
365.847
 11
437.68
 21
366.425
  0
LINE
  8
0
 10
437.68
 20
366.425
 11
439.541
 21
366.23
  0
LINE
  8
0
 10
439.541
 20
366.23
 11
441.161
 21
365.294
  0
LINE
  8
0
 10
441.161
 20
365.294
 11
442.261
 21
363.78
  0
LINE
  8
0
 10
442.261
 20
363.78
 11
442.65
 21
361.95
  0
LINE
  8
0
 10
442.65
 20
361.95
 11
442.261
 21
360.12
  0
LINE
  8
0
 10
442.261
 20
360.12
 11
441.161
 21
358.606
  0
LINE
  8
0
 10
441.161
 20
358.606
 11
439.541
 21
357.67
  0
LINE
  8
0
 10
439.541
 20
357.67
 11
437.68
 21
357.475
  0
LINE
  8
0
 10
437.68
 20
357.475
 11
435.9
 21
358.053
  0
LINE
  8
0
 10
397.8
 20
358.053
 11
396.409
 21
359.305
  0
LINE
  8
0
 10
396.409
 20
359.305
 11
395.648
 21
361.014
  0
LINE
  8
0
 10
395.648
 20
361.014
 11
395.648
 21
362.886
  0
LINE
  8
0
 10
395.648
 20
362.886
 11
396.409
 21
364.595
  0
LINE
  8
0
 10
396.409
 20
364.595
 11
397.8
 21
365.847
  0
LINE
  8
0
 10
397.8
 20
365.847
 11
399.58
 21
366.425
  0
LINE
  8
0
 10
399.58
 20
366.425
 11
401.441
 21
366.23
  0
LINE
  8
0
 10
401.441
 20
366.23
 11
403.061
 21
365.294
  0
LINE
  8
0
 10
403.061
 20
365.294
 11
404.161
 21
363.78
  0
LINE
  8
0
 10
404.161
 20
363.78
 11
404.55
 21
361.95
  0
LINE
  8
0
 10
404.55
 20
361.95
 11
404.161
 21
360.12
  0
LINE
  8
0
 10
404.161
 20
360.12
 11
403.061
 21
358.606
  0
LINE
  8
0
 10
403.061
 20
358.606
 11
401.441
 21
357.67
  0
LINE
  8
0
 10
401.441
 20
357.67
 11
399.58
 21
357.475
  0
LINE
  8
0
 10
399.58
 20
357.475
 11
397.8
 21
358.053
  0
LINE
  8
0
 10
359.7
 20
358.053
 11
358.309
 21
359.305
  0
LINE
  8
0
 10
358.309
 20
359.305
 11
357.548
 21
361.014
  0
LINE
  8
0
 10
357.548
 20
361.014
 11
357.548
 21
362.886
  0
LINE
  8
0
 10
357.548
 20
362.886
 11
358.309
 21
364.595
  0
LINE
  8
0
 10
358.309
 20
364.595
 11
359.7
 21
365.847
  0
LINE
  8
0
 10
359.7
 20
365.847
 11
361.48
 21
366.425
  0
LINE
  8
0
 10
361.48
 20
366.425
 11
363.341
 21
366.23
  0
LINE
  8
0
 10
363.341
 20
366.23
 11
364.961
 21
365.294
  0
LINE
  8
0
 10
364.961
 20
365.294
 11
366.061
 21
363.78
  0
LINE
  8
0
 10
366.061
 20
363.78
 11
366.45
 21
361.95
  0
LINE
  8
0
 10
366.45
 20
361.95
 11
366.061
 21
360.12
  0
LINE
  8
0
 10
366.061
 20
360.12
 11
364.961
 21
358.606
  0
LINE
  8
0
 10
364.961
 20
358.606
 11
363.341
 21
357.67
  0
LINE
  8
0
 10
363.341
 20
357.67
 11
361.48
 21
357.475
  0
LINE
  8
0
 10
361.48
 20
357.475
 11
359.7
 21
358.053
  0
LINE
  8
0
 10
321.6
 20
358.053
 11
320.209
 21
359.305
  0
LINE
  8
0
 10
320.209
 20
359.305
 11
319.448
 21
361.014
  0
LINE
  8
0
 10
319.448
 20
361.014
 11
319.448
 21
362.886
  0
LINE
  8
0
 10
319.448
 20
362.886
 11
320.209
 21
364.595
  0
LINE
  8
0
 10
320.209
 20
364.595
 11
321.6
 21
365.847
  0
LINE
  8
0
 10
321.6
 20
365.847
 11
323.38
 21
366.425
  0
LINE
  8
0
 10
323.38
 20
366.425
 11
325.241
 21
366.23
  0
LINE
  8
0
 10
325.241
 20
366.23
 11
326.861
 21
365.294
  0
LINE
  8
0
 10
326.861
 20
365.294
 11
327.961
 21
363.78
  0
LINE
  8
0
 10
327.961
 20
363.78
 11
328.35
 21
361.95
  0
LINE
  8
0
 10
328.35
 20
361.95
 11
327.961
 21
360.12
  0
LINE
  8
0
 10
327.961
 20
360.12
 11
326.861
 21
358.606
  0
LINE
  8
0
 10
326.861
 20
358.606
 11
325.241
 21
357.67
  0
LINE
  8
0
 10
325.241
 20
357.67
 11
323.38
 21
357.475
  0
LINE
  8
0
 10
323.38
 20
357.475
 11
321.6
 21
358.053
  0
LINE
  8
0
 10
283.5
 20
358.053
 11
282.109
 21
359.305
  0
LINE
  8
0
 10
282.109
 20
359.305
 11
281.348
 21
361.014
  0
LINE
  8
0
 10
281.348
 20
361.014
 11
281.348
 21
362.886
  0
LINE
  8
0
 10
281.348
 20
362.886
 11
282.109
 21
364.595
  0
LINE
  8
0
 10
282.109
 20
364.595
 11
283.5
 21
365.847
  0
LINE
  8
0
 10
283.5
 20
365.847
 11
285.28
 21
366.425
  0
LINE
  8
0
 10
285.28
 20
366.425
 11
287.141
 21
366.23
  0
LINE
  8
0
 10
287.141
 20
366.23
 11
288.761
 21
365.294
  0
LINE
  8
0
 10
288.761
 20
365.294
 11
289.861
 21
363.78
  0
LINE
  8
0
 10
289.861
 20
363.78
 11
290.25
 21
361.95
  0
LINE
  8
0
 10
290.25
 20
361.95
 11
289.861
 21
360.12
  0
LINE
  8
0
 10
289.861
 20
360.12
 11
288.761
 21
358.606
  0
LINE
  8
0
 10
288.761
 20
358.606
 11
287.141
 21
357.67
  0
LINE
  8
0
 10
287.141
 20
357.67
 11
285.28
 21
357.475
  0
LINE
  8
0
 10
285.28
 20
357.475
 11
283.5
 21
358.053
  0
LINE
  8
0
 10
245.4
 20
358.053
 11
244.009
 21
359.305
  0
LINE
  8
0
 10
244.009
 20
359.305
 11
243.248
 21
361.014
  0
LINE
  8
0
 10
243.248
 20
361.014
 11
243.248
 21
362.886
  0
LINE
  8
0
 10
243.248
 20
362.886
 11
244.009
 21
364.595
  0
LINE
  8
0
 10
244.009
 20
364.595
 11
245.4
 21
365.847
  0
LINE
  8
0
 10
245.4
 20
365.847
 11
247.18
 21
366.425
  0
LINE
  8
0
 10
247.18
 20
366.425
 11
249.041
 21
366.23
  0
LINE
  8
0
 10
249.041
 20
366.23
 11
250.661
 21
365.294
  0
LINE
  8
0
 10
250.661
 20
365.294
 11
251.761
 21
363.78
  0
LINE
  8
0
 10
251.761
 20
363.78
 11
252.15
 21
361.95
  0
LINE
  8
0
 10
252.15
 20
361.95
 11
251.761
 21
360.12
  0
LINE
  8
0
 10
251.761
 20
360.12
 11
250.661
 21
358.606
  0
LINE
  8
0
 10
250.661
 20
358.606
 11
249.041
 21
357.67
  0
LINE
  8
0
 10
249.041
 20
357.67
 11
247.18
 21
357.475
  0
LINE
  8
0
 10
247.18
 20
357.475
 11
245.4
 21
358.053
  0
LINE
  8
0
 10
207.3
 20
358.053
 11
205.909
 21
359.305
  0
LINE
  8
0
 10
205.909
 20
359.305
 11
205.148
 21
361.014
  0
LINE
  8
0
 10
205.148
 20
361.014
 11
205.148
 21
362.886
  0
LINE
  8
0
 10
205.148
 20
362.886
 11
205.909
 21
364.595
  0
LINE
  8
0
 10
205.909
 20
364.595
 11
207.3
 21
365.847
  0
LINE
  8
0
 10
207.3
 20
365.847
 11
209.08
 21
366.425
  0
LINE
  8
0
 10
209.08
 20
366.425
 11
210.941
 21
366.23
  0
LINE
  8
0
 10
210.941
 20
366.23
 11
212.561
 21
365.294
  0
LINE
  8
0
 10
212.561
 20
365.294
 11
213.661
 21
363.78
  0
LINE
  8
0
 10
213.661
 20
363.78
 11
214.05
 21
361.95
  0
LINE
  8
0
 10
214.05
 20
361.95
 11
213.661
 21
360.12
  0
LINE
  8
0
 10
213.661
 20
360.12
 11
212.561
 21
358.606
  0
LINE
  8
0
 10
212.561
 20
358.606
 11
210.941
 21
357.67
  0
LINE
  8
0
 10
210.941
 20
357.67
 11
209.08
 21
357.475
  0
LINE
  8
0
 10
209.08
 20
357.475
 11
207.3
 21
358.053
  0
LINE
  8
0
 10
169.2
 20
358.053
 11
167.809
 21
359.305
  0
LINE
  8
0
 10
167.809
 20
359.305
 11
167.048
 21
361.014
  0
LINE
  8
0
 10
167.048
 20
361.014
 11
167.048
 21
362.886
  0
LINE
  8
0
 10
167.048
 20
362.886
 11
167.809
 21
364.595
  0
LINE
  8
0
 10
167.809
 20
364.595
 11
169.2
 21
365.847
  0
LINE
  8
0
 10
169.2
 20
365.847
 11
170.98
 21
366.425
  0
LINE
  8
0
 10
170.98
 20
366.425
 11
172.841
 21
366.23
  0
LINE
  8
0
 10
172.841
 20
366.23
 11
174.461
 21
365.294
  0
LINE
  8
0
 10
174.461
 20
365.294
 11
175.561
 21
363.78
  0
LINE
  8
0
 10
175.561
 20
363.78
 11
175.95
 21
361.95
  0
LINE
  8
0
 10
175.95
 20
361.95
 11
175.561
 21
360.12
  0
LINE
  8
0
 10
175.561
 20
360.12
 11
174.461
 21
358.606
  0
LINE
  8
0
 10
174.461
 20
358.606
 11
172.841
 21
357.67
  0
LINE
  8
0
 10
172.841
 20
357.67
 11
170.98
 21
357.475
  0
LINE
  8
0
 10
170.98
 20
357.475
 11
169.2
 21
358.053
  0
LINE
  8
0
 10
131.1
 20
358.053
 11
129.709
 21
359.305
  0
LINE
  8
0
 10
129.709
 20
359.305
 11
128.948
 21
361.014
  0
LINE
  8
0
 10
128.948
 20
361.014
 11
128.948
 21
362.886
  0
LINE
  8
0
 10
128.948
 20
362.886
 11
129.709
 21
364.595
  0
LINE
  8
0
 10
129.709
 20
364.595
 11
131.1
 21
365.847
  0
LINE
  8
0
 10
131.1
 20
365.847
 11
132.88
 21
366.425
  0
LINE
  8
0
 10
132.88
 20
366.425
 11
134.741
 21
366.23
  0
LINE
  8
0
 10
134.741
 20
366.23
 11
136.361
 21
365.294
  0
LINE
  8
0
 10
136.361
 20
365.294
 11
137.461
 21
363.78
  0
LINE
  8
0
 10
137.461
 20
363.78
 11
137.85
 21
361.95
  0
LINE
  8
0
 10
137.85
 20
361.95
 11
137.461
 21
360.12
  0
LINE
  8
0
 10
137.461
 20
360.12
 11
136.361
 21
358.606
  0
LINE
  8
0
 10
136.361
 20
358.606
 11
134.741
 21
357.67
  0
LINE
  8
0
 10
134.741
 20
357.67
 11
132.88
 21
357.475
  0
LINE
  8
0
 10
132.88
 20
357.475
 11
131.1
 21
358.053
  0
LINE
  8
0
 10
93
 20
358.053
 11
91.6094
 21
359.305
  0
LINE
  8
0
 10
91.6094
 20
359.305
 11
90.8483
 21
361.014
  0
LINE
  8
0
 10
90.8483
 20
361.014
 11
90.8483
 21
362.886
  0
LINE
  8
0
 10
90.8483
 20
362.886
 11
91.6094
 21
364.595
  0
LINE
  8
0
 10
91.6094
 20
364.595
 11
93
 21
365.847
  0
LINE
  8
0
 10
93
 20
365.847
 11
94.7796
 21
366.425
  0
LINE
  8
0
 10
94.7796
 20
366.425
 11
96.6406
 21
366.23
  0
LINE
  8
0
 10
96.6406
 20
366.23
 11
98.2611
 21
365.294
  0
LINE
  8
0
 10
98.2611
 20
365.294
 11
99.3609
 21
363.78
  0
LINE
  8
0
 10
99.3609
 20
363.78
 11
99.75
 21
361.95
  0
LINE
  8
0
 10
99.75
 20
361.95
 11
99.3609
 21
360.12
  0
LINE
  8
0
 10
99.3609
 20
360.12
 11
98.2611
 21
358.606
  0
LINE
  8
0
 10
98.2611
 20
358.606
 11
96.6406
 21
357.67
  0
LINE
  8
0
 10
96.6406
 20
357.67
 11
94.7796
 21
357.475
  0
LINE
  8
0
 10
94.7796
 20
357.475
 11
93
 21
358.053
  0
LINE
  8
0
 10
54.9
 20
358.053
 11
53.5094
 21
359.305
  0
LINE
  8
0
 10
53.5094
 20
359.305
 11
52.7483
 21
361.014
  0
LINE
  8
0
 10
52.7483
 20
361.014
 11
52.7483
 21
362.886
  0
LINE
  8
0
 10
52.7483
 20
362.886
 11
53.5094
 21
364.595
  0
LINE
  8
0
 10
53.5094
 20
364.595
 11
54.9
 21
365.847
  0
LINE
  8
0
 10
54.9
 20
365.847
 11
56.6796
 21
366.425
  0
LINE
  8
0
 10
56.6796
 20
366.425
 11
58.5406
 21
366.23
  0
LINE
  8
0
 10
58.5406
 20
366.23
 11
60.1611
 21
365.294
  0
LINE
  8
0
 10
60.1611
 20
365.294
 11
61.2609
 21
363.78
  0
LINE
  8
0
 10
61.2609
 20
363.78
 11
61.65
 21
361.95
  0
LINE
  8
0
 10
61.65
 20
361.95
 11
61.2609
 21
360.12
  0
LINE
  8
0
 10
61.2609
 20
360.12
 11
60.1611
 21
358.606
  0
LINE
  8
0
 10
60.1611
 20
358.606
 11
58.5406
 21
357.67
  0
LINE
  8
0
 10
58.5406
 20
357.67
 11
56.6796
 21
357.475
  0
LINE
  8
0
 10
56.6796
 20
357.475
 11
54.9
 21
358.053
  0
LINE
  8
0
 10
16.8
 20
358.053
 11
15.4094
 21
359.305
  0
LINE
  8
0
 10
15.4094
 20
359.305
 11
14.6483
 21
361.014
  0
LINE
  8
0
 10
14.6483
 20
361.014
 11
14.6483
 21
362.886
  0
LINE
  8
0
 10
14.6483
 20
362.886
 11
15.4094
 21
364.595
  0
LINE
  8
0
 10
15.4094
 20
364.595
 11
16.8
 21
365.847
  0
LINE
  8
0
 10
16.8
 20
365.847
 11
18.5796
 21
366.425
  0
LINE
  8
0
 10
18.5796
 20
366.425
 11
20.4406
 21
366.23
  0
LINE
  8
0
 10
20.4406
 20
366.23
 11
22.0611
 21
365.294
  0
LINE
  8
0
 10
22.0611
 20
365.294
 11
23.1609
 21
363.78
  0
LINE
  8
0
 10
23.1609
 20
363.78
 11
23.55
 21
361.95
  0
LINE
  8
0
 10
23.55
 20
361.95
 11
23.1609
 21
360.12
  0
LINE
  8
0
 10
23.1609
 20
360.12
 11
22.0611
 21
358.606
  0
LINE
  8
0
 10
22.0611
 20
358.606
 11
20.4406
 21
357.67
  0
LINE
  8
0
 10
20.4406
 20
357.67
 11
18.5796
 21
357.475
  0
LINE
  8
0
 10
18.5796
 20
357.475
 11
16.8
 21
358.053
  0
LINE
  8
0
 10
93
 20
319.953
 11
91.6094
 21
321.205
  0
LINE
  8
0
 10
91.6094
 20
321.205
 11
90.8483
 21
322.914
  0
LINE
  8
0
 10
90.8483
 20
322.914
 11
90.8483
 21
324.786
  0
LINE
  8
0
 10
90.8483
 20
324.786
 11
91.6094
 21
326.495
  0
LINE
  8
0
 10
91.6094
 20
326.495
 11
93
 21
327.747
  0
LINE
  8
0
 10
93
 20
327.747
 11
94.7796
 21
328.325
  0
LINE
  8
0
 10
94.7796
 20
328.325
 11
96.6406
 21
328.13
  0
LINE
  8
0
 10
96.6406
 20
328.13
 11
98.2611
 21
327.194
  0
LINE
  8
0
 10
98.2611
 20
327.194
 11
99.3609
 21
325.68
  0
LINE
  8
0
 10
99.3609
 20
325.68
 11
99.75
 21
323.85
  0
LINE
  8
0
 10
99.75
 20
323.85
 11
99.3609
 21
322.02
  0
LINE
  8
0
 10
99.3609
 20
322.02
 11
98.2611
 21
320.506
  0
LINE
  8
0
 10
98.2611
 20
320.506
 11
96.6406
 21
319.57
  0
LINE
  8
0
 10
96.6406
 20
319.57
 11
94.7796
 21
319.375
  0
LINE
  8
0
 10
94.7796
 20
319.375
 11
93
 21
319.953
  0
LINE
  8
0
 10
550.2
 20
319.953
 11
548.809
 21
321.205
  0
LINE
  8
0
 10
548.809
 20
321.205
 11
548.048
 21
322.914
  0
LINE
  8
0
 10
548.048
 20
322.914
 11
548.048
 21
324.786
  0
LINE
  8
0
 10
548.048
 20
324.786
 11
548.809
 21
326.495
  0
LINE
  8
0
 10
548.809
 20
326.495
 11
550.2
 21
327.747
  0
LINE
  8
0
 10
550.2
 20
327.747
 11
551.98
 21
328.325
  0
LINE
  8
0
 10
551.98
 20
328.325
 11
553.841
 21
328.13
  0
LINE
  8
0
 10
553.841
 20
328.13
 11
555.461
 21
327.194
  0
LINE
  8
0
 10
555.461
 20
327.194
 11
556.561
 21
325.68
  0
LINE
  8
0
 10
556.561
 20
325.68
 11
556.95
 21
323.85
  0
LINE
  8
0
 10
556.95
 20
323.85
 11
556.561
 21
322.02
  0
LINE
  8
0
 10
556.561
 20
322.02
 11
555.461
 21
320.506
  0
LINE
  8
0
 10
555.461
 20
320.506
 11
553.841
 21
319.57
  0
LINE
  8
0
 10
553.841
 20
319.57
 11
551.98
 21
319.375
  0
LINE
  8
0
 10
551.98
 20
319.375
 11
550.2
 21
319.953
  0
LINE
  8
0
 10
512.1
 20
319.953
 11
510.709
 21
321.205
  0
LINE
  8
0
 10
510.709
 20
321.205
 11
509.948
 21
322.914
  0
LINE
  8
0
 10
509.948
 20
322.914
 11
509.948
 21
324.786
  0
LINE
  8
0
 10
509.948
 20
324.786
 11
510.709
 21
326.495
  0
LINE
  8
0
 10
510.709
 20
326.495
 11
512.1
 21
327.747
  0
LINE
  8
0
 10
512.1
 20
327.747
 11
513.88
 21
328.325
  0
LINE
  8
0
 10
513.88
 20
328.325
 11
515.741
 21
328.13
  0
LINE
  8
0
 10
515.741
 20
328.13
 11
517.361
 21
327.194
  0
LINE
  8
0
 10
517.361
 20
327.194
 11
518.461
 21
325.68
  0
LINE
  8
0
 10
518.461
 20
325.68
 11
518.85
 21
323.85
  0
LINE
  8
0
 10
518.85
 20
323.85
 11
518.461
 21
322.02
  0
LINE
  8
0
 10
518.461
 20
322.02
 11
517.361
 21
320.506
  0
LINE
  8
0
 10
517.361
 20
320.506
 11
515.741
 21
319.57
  0
LINE
  8
0
 10
515.741
 20
319.57
 11
513.88
 21
319.375
  0
LINE
  8
0
 10
513.88
 20
319.375
 11
512.1
 21
319.953
  0
LINE
  8
0
 10
474
 20
319.953
 11
472.609
 21
321.205
  0
LINE
  8
0
 10
472.609
 20
321.205
 11
471.848
 21
322.914
  0
LINE
  8
0
 10
471.848
 20
322.914
 11
471.848
 21
324.786
  0
LINE
  8
0
 10
471.848
 20
324.786
 11
472.609
 21
326.495
  0
LINE
  8
0
 10
472.609
 20
326.495
 11
474
 21
327.747
  0
LINE
  8
0
 10
474
 20
327.747
 11
475.78
 21
328.325
  0
LINE
  8
0
 10
475.78
 20
328.325
 11
477.641
 21
328.13
  0
LINE
  8
0
 10
477.641
 20
328.13
 11
479.261
 21
327.194
  0
LINE
  8
0
 10
479.261
 20
327.194
 11
480.361
 21
325.68
  0
LINE
  8
0
 10
480.361
 20
325.68
 11
480.75
 21
323.85
  0
LINE
  8
0
 10
480.75
 20
323.85
 11
480.361
 21
322.02
  0
LINE
  8
0
 10
480.361
 20
322.02
 11
479.261
 21
320.506
  0
LINE
  8
0
 10
479.261
 20
320.506
 11
477.641
 21
319.57
  0
LINE
  8
0
 10
477.641
 20
319.57
 11
475.78
 21
319.375
  0
LINE
  8
0
 10
475.78
 20
319.375
 11
474
 21
319.953
  0
LINE
  8
0
 10
397.8
 20
319.953
 11
396.409
 21
321.205
  0
LINE
  8
0
 10
396.409
 20
321.205
 11
395.648
 21
322.914
  0
LINE
  8
0
 10
395.648
 20
322.914
 11
395.648
 21
324.786
  0
LINE
  8
0
 10
395.648
 20
324.786
 11
396.409
 21
326.495
  0
LINE
  8
0
 10
396.409
 20
326.495
 11
397.8
 21
327.747
  0
LINE
  8
0
 10
397.8
 20
327.747
 11
399.58
 21
328.325
  0
LINE
  8
0
 10
399.58
 20
328.325
 11
401.441
 21
328.13
  0
LINE
  8
0
 10
401.441
 20
328.13
 11
403.061
 21
327.194
  0
LINE
  8
0
 10
403.061
 20
327.194
 11
404.161
 21
325.68
  0
LINE
  8
0
 10
404.161
 20
325.68
 11
404.55
 21
323.85
  0
LINE
  8
0
 10
404.55
 20
323.85
 11
404.161
 21
322.02
  0
LINE
  8
0
 10
404.161
 20
322.02
 11
403.061
 21
320.506
  0
LINE
  8
0
 10
403.061
 20
320.506
 11
401.441
 21
319.57
  0
LINE
  8
0
 10
401.441
 20
319.57
 11
399.58
 21
319.375
  0
LINE
  8
0
 10
399.58
 20
319.375
 11
397.8
 21
319.953
  0
LINE
  8
0
 10
359.7
 20
319.953
 11
358.309
 21
321.205
  0
LINE
  8
0
 10
358.309
 20
321.205
 11
357.548
 21
322.914
  0
LINE
  8
0
 10
357.548
 20
322.914
 11
357.548
 21
324.786
  0
LINE
  8
0
 10
357.548
 20
324.786
 11
358.309
 21
326.495
  0
LINE
  8
0
 10
358.309
 20
326.495
 11
359.7
 21
327.747
  0
LINE
  8
0
 10
359.7
 20
327.747
 11
361.48
 21
328.325
  0
LINE
  8
0
 10
361.48
 20
328.325
 11
363.341
 21
328.13
  0
LINE
  8
0
 10
363.341
 20
328.13
 11
364.961
 21
327.194
  0
LINE
  8
0
 10
364.961
 20
327.194
 11
366.061
 21
325.68
  0
LINE
  8
0
 10
366.061
 20
325.68
 11
366.45
 21
323.85
  0
LINE
  8
0
 10
366.45
 20
323.85
 11
366.061
 21
322.02
  0
LINE
  8
0
 10
366.061
 20
322.02
 11
364.961
 21
320.506
  0
LINE
  8
0
 10
364.961
 20
320.506
 11
363.341
 21
319.57
  0
LINE
  8
0
 10
363.341
 20
319.57
 11
361.48
 21
319.375
  0
LINE
  8
0
 10
361.48
 20
319.375
 11
359.7
 21
319.953
  0
LINE
  8
0
 10
321.6
 20
319.953
 11
320.209
 21
321.205
  0
LINE
  8
0
 10
320.209
 20
321.205
 11
319.448
 21
322.914
  0
LINE
  8
0
 10
319.448
 20
322.914
 11
319.448
 21
324.786
  0
LINE
  8
0
 10
319.448
 20
324.786
 11
320.209
 21
326.495
  0
LINE
  8
0
 10
320.209
 20
326.495
 11
321.6
 21
327.747
  0
LINE
  8
0
 10
321.6
 20
327.747
 11
323.38
 21
328.325
  0
LINE
  8
0
 10
323.38
 20
328.325
 11
325.241
 21
328.13
  0
LINE
  8
0
 10
325.241
 20
328.13
 11
326.861
 21
327.194
  0
LINE
  8
0
 10
326.861
 20
327.194
 11
327.961
 21
325.68
  0
LINE
  8
0
 10
327.961
 20
325.68
 11
328.35
 21
323.85
  0
LINE
  8
0
 10
328.35
 20
323.85
 11
327.961
 21
322.02
  0
LINE
  8
0
 10
327.961
 20
322.02
 11
326.861
 21
320.506
  0
LINE
  8
0
 10
326.861
 20
320.506
 11
325.241
 21
319.57
  0
LINE
  8
0
 10
325.241
 20
319.57
 11
323.38
 21
319.375
  0
LINE
  8
0
 10
323.38
 20
319.375
 11
321.6
 21
319.953
  0
LINE
  8
0
 10
283.5
 20
319.953
 11
282.109
 21
321.205
  0
LINE
  8
0
 10
282.109
 20
321.205
 11
281.348
 21
322.914
  0
LINE
  8
0
 10
281.348
 20
322.914
 11
281.348
 21
324.786
  0
LINE
  8
0
 10
281.348
 20
324.786
 11
282.109
 21
326.495
  0
LINE
  8
0
 10
282.109
 20
326.495
 11
283.5
 21
327.747
  0
LINE
  8
0
 10
283.5
 20
327.747
 11
285.28
 21
328.325
  0
LINE
  8
0
 10
285.28
 20
328.325
 11
287.141
 21
328.13
  0
LINE
  8
0
 10
287.141
 20
328.13
 11
288.761
 21
327.194
  0
LINE
  8
0
 10
288.761
 20
327.194
 11
289.861
 21
325.68
  0
LINE
  8
0
 10
289.861
 20
325.68
 11
290.25
 21
323.85
  0
LINE
  8
0
 10
290.25
 20
323.85
 11
289.861
 21
322.02
  0
LINE
  8
0
 10
289.861
 20
322.02
 11
288.761
 21
320.506
  0
LINE
  8
0
 10
288.761
 20
320.506
 11
287.141
 21
319.57
  0
LINE
  8
0
 10
287.141
 20
319.57
 11
285.28
 21
319.375
  0
LINE
  8
0
 10
285.28
 20
319.375
 11
283.5
 21
319.953
  0
LINE
  8
0
 10
245.4
 20
319.953
 11
244.009
 21
321.205
  0
LINE
  8
0
 10
244.009
 20
321.205
 11
243.248
 21
322.914
  0
LINE
  8
0
 10
243.248
 20
322.914
 11
243.248
 21
324.786
  0
LINE
  8
0
 10
243.248
 20
324.786
 11
244.009
 21
326.495
  0
LINE
  8
0
 10
244.009
 20
326.495
 11
245.4
 21
327.747
  0
LINE
  8
0
 10
245.4
 20
327.747
 11
247.18
 21
328.325
  0
LINE
  8
0
 10
247.18
 20
328.325
 11
249.041
 21
328.13
  0
LINE
  8
0
 10
249.041
 20
328.13
 11
250.661
 21
327.194
  0
LINE
  8
0
 10
250.661
 20
327.194
 11
251.761
 21
325.68
  0
LINE
  8
0
 10
251.761
 20
325.68
 11
252.15
 21
323.85
  0
LINE
  8
0
 10
252.15
 20
323.85
 11
251.761
 21
322.02
  0
LINE
  8
0
 10
251.761
 20
322.02
 11
250.661
 21
320.506
  0
LINE
  8
0
 10
250.661
 20
320.506
 11
249.041
 21
319.57
  0
LINE
  8
0
 10
249.041
 20
319.57
 11
247.18
 21
319.375
  0
LINE
  8
0
 10
247.18
 20
319.375
 11
245.4
 21
319.953
  0
LINE
  8
0
 10
207.3
 20
319.953
 11
205.909
 21
321.205
  0
LINE
  8
0
 10
205.909
 20
321.205
 11
205.148
 21
322.914
  0
LINE
  8
0
 10
205.148
 20
322.914
 11
205.148
 21
324.786
  0
LINE
  8
0
 10
205.148
 20
324.786
 11
205.909
 21
326.495
  0
LINE
  8
0
 10
205.909
 20
326.495
 11
207.3
 21
327.747
  0
LINE
  8
0
 10
207.3
 20
327.747
 11
209.08
 21
328.325
  0
LINE
  8
0
 10
209.08
 20
328.325
 11
210.941
 21
328.13
  0
LINE
  8
0
 10
210.941
 20
328.13
 11
212.561
 21
327.194
  0
LINE
  8
0
 10
212.561
 20
327.194
 11
213.661
 21
325.68
  0
LINE
  8
0
 10
213.661
 20
325.68
 11
214.05
 21
323.85
  0
LINE
  8
0
 10
214.05
 20
323.85
 11
213.661
 21
322.02
  0
LINE
  8
0
 10
213.661
 20
322.02
 11
212.561
 21
320.506
  0
LINE
  8
0
 10
212.561
 20
320.506
 11
210.941
 21
319.57
  0
LINE
  8
0
 10
210.941
 20
319.57
 11
209.08
 21
319.375
  0
LINE
  8
0
 10
209.08
 20
319.375
 11
207.3
 21
319.953
  0
LINE
  8
0
 10
169.2
 20
319.953
 11
167.809
 21
321.205
  0
LINE
  8
0
 10
167.809
 20
321.205
 11
167.048
 21
322.914
  0
LINE
  8
0
 10
167.048
 20
322.914
 11
167.048
 21
324.786
  0
LINE
  8
0
 10
167.048
 20
324.786
 11
167.809
 21
326.495
  0
LINE
  8
0
 10
167.809
 20
326.495
 11
169.2
 21
327.747
  0
LINE
  8
0
 10
169.2
 20
327.747
 11
170.98
 21
328.325
  0
LINE
  8
0
 10
170.98
 20
328.325
 11
172.841
 21
328.13
  0
LINE
  8
0
 10
172.841
 20
328.13
 11
174.461
 21
327.194
  0
LINE
  8
0
 10
174.461
 20
327.194
 11
175.561
 21
325.68
  0
LINE
  8
0
 10
175.561
 20
325.68
 11
175.95
 21
323.85
  0
LINE
  8
0
 10
175.95
 20
323.85
 11
175.561
 21
322.02
  0
LINE
  8
0
 10
175.561
 20
322.02
 11
174.461
 21
320.506
  0
LINE
  8
0
 10
174.461
 20
320.506
 11
172.841
 21
319.57
  0
LINE
  8
0
 10
172.841
 20
319.57
 11
170.98
 21
319.375
  0
LINE
  8
0
 10
170.98
 20
319.375
 11
169.2
 21
319.953
  0
LINE
  8
0
 10
131.1
 20
319.953
 11
129.709
 21
321.205
  0
LINE
  8
0
 10
129.709
 20
321.205
 11
128.948
 21
322.914
  0
LINE
  8
0
 10
128.948
 20
322.914
 11
128.948
 21
324.786
  0
LINE
  8
0
 10
128.948
 20
324.786
 11
129.709
 21
326.495
  0
LINE
  8
0
 10
129.709
 20
326.495
 11
131.1
 21
327.747
  0
LINE
  8
0
 10
131.1
 20
327.747
 11
132.88
 21
328.325
  0
LINE
  8
0
 10
132.88
 20
328.325
 11
134.741
 21
328.13
  0
LINE
  8
0
 10
134.741
 20
328.13
 11
136.361
 21
327.194
  0
LINE
  8
0
 10
136.361
 20
327.194
 11
137.461
 21
325.68
  0
LINE
  8
0
 10
137.461
 20
325.68
 11
137.85
 21
323.85
  0
LINE
  8
0
 10
137.85
 20
323.85
 11
137.461
 21
322.02
  0
LINE
  8
0
 10
137.461
 20
322.02
 11
136.361
 21
320.506
  0
LINE
  8
0
 10
136.361
 20
320.506
 11
134.741
 21
319.57
  0
LINE
  8
0
 10
134.741
 20
319.57
 11
132.88
 21
319.375
  0
LINE
  8
0
 10
132.88
 20
319.375
 11
131.1
 21
319.953
  0
LINE
  8
0
 10
54.9
 20
319.953
 11
53.5094
 21
321.205
  0
LINE
  8
0
 10
53.5094
 20
321.205
 11
52.7483
 21
322.914
  0
LINE
  8
0
 10
52.7483
 20
322.914
 11
52.7483
 21
324.786
  0
LINE
  8
0
 10
52.7483
 20
324.786
 11
53.5094
 21
326.495
  0
LINE
  8
0
 10
53.5094
 20
326.495
 11
54.9
 21
327.747
  0
LINE
  8
0
 10
54.9
 20
327.747
 11
56.6796
 21
328.325
  0
LINE
  8
0
 10
56.6796
 20
328.325
 11
58.5406
 21
328.13
  0
LINE
  8
0
 10
58.5406
 20
328.13
 11
60.1611
 21
327.194
  0
LINE
  8
0
 10
60.1611
 20
327.194
 11
61.2609
 21
325.68
  0
LINE
  8
0
 10
61.2609
 20
325.68
 11
61.65
 21
323.85
  0
LINE
  8
0
 10
61.65
 20
323.85
 11
61.2609
 21
322.02
  0
LINE
  8
0
 10
61.2609
 20
322.02
 11
60.1611
 21
320.506
  0
LINE
  8
0
 10
60.1611
 20
320.506
 11
58.5406
 21
319.57
  0
LINE
  8
0
 10
58.5406
 20
319.57
 11
56.6796
 21
319.375
  0
LINE
  8
0
 10
56.6796
 20
319.375
 11
54.9
 21
319.953
  0
LINE
  8
0
 10
16.8
 20
319.953
 11
15.4094
 21
321.205
  0
LINE
  8
0
 10
15.4094
 20
321.205
 11
14.6483
 21
322.914
  0
LINE
  8
0
 10
14.6483
 20
322.914
 11
14.6483
 21
324.786
  0
LINE
  8
0
 10
14.6483
 20
324.786
 11
15.4094
 21
326.495
  0
LINE
  8
0
 10
15.4094
 20
326.495
 11
16.8
 21
327.747
  0
LINE
  8
0
 10
16.8
 20
327.747
 11
18.5796
 21
328.325
  0
LINE
  8
0
 10
18.5796
 20
328.325
 11
20.4406
 21
328.13
  0
LINE
  8
0
 10
20.4406
 20
328.13
 11
22.0611
 21
327.194
  0
LINE
  8
0
 10
22.0611
 20
327.194
 11
23.1609
 21
325.68
  0
LINE
  8
0
 10
23.1609
 20
325.68
 11
23.55
 21
323.85
  0
LINE
  8
0
 10
23.55
 20
323.85
 11
23.1609
 21
322.02
  0
LINE
  8
0
 10
23.1609
 20
322.02
 11
22.0611
 21
320.506
  0
LINE
  8
0
 10
22.0611
 20
320.506
 11
20.4406
 21
319.57
  0
LINE
  8
0
 10
20.4406
 20
319.57
 11
18.5796
 21
319.375
  0
LINE
  8
0
 10
18.5796
 20
319.375
 11
16.8
 21
319.953
  0
LINE
  8
0
 10
435.9
 20
319.953
 11
434.509
 21
321.205
  0
LINE
  8
0
 10
434.509
 20
321.205
 11
433.748
 21
322.914
  0
LINE
  8
0
 10
433.748
 20
322.914
 11
433.748
 21
324.786
  0
LINE
  8
0
 10
433.748
 20
324.786
 11
434.509
 21
326.495
  0
LINE
  8
0
 10
434.509
 20
326.495
 11
435.9
 21
327.747
  0
LINE
  8
0
 10
435.9
 20
327.747
 11
437.68
 21
328.325
  0
LINE
  8
0
 10
437.68
 20
328.325
 11
439.541
 21
328.13
  0
LINE
  8
0
 10
439.541
 20
328.13
 11
441.161
 21
327.194
  0
LINE
  8
0
 10
441.161
 20
327.194
 11
442.261
 21
325.68
  0
LINE
  8
0
 10
442.261
 20
325.68
 11
442.65
 21
323.85
  0
LINE
  8
0
 10
442.65
 20
323.85
 11
442.261
 21
322.02
  0
LINE
  8
0
 10
442.261
 20
322.02
 11
441.161
 21
320.506
  0
LINE
  8
0
 10
441.161
 20
320.506
 11
439.541
 21
319.57
  0
LINE
  8
0
 10
439.541
 20
319.57
 11
437.68
 21
319.375
  0
LINE
  8
0
 10
437.68
 20
319.375
 11
435.9
 21
319.953
  0
LINE
  8
0
 10
93
 20
281.853
 11
91.6094
 21
283.105
  0
LINE
  8
0
 10
91.6094
 20
283.105
 11
90.8483
 21
284.814
  0
LINE
  8
0
 10
90.8483
 20
284.814
 11
90.8483
 21
286.686
  0
LINE
  8
0
 10
90.8483
 20
286.686
 11
91.6094
 21
288.395
  0
LINE
  8
0
 10
91.6094
 20
288.395
 11
93
 21
289.647
  0
LINE
  8
0
 10
93
 20
289.647
 11
94.7796
 21
290.225
  0
LINE
  8
0
 10
94.7796
 20
290.225
 11
96.6406
 21
290.03
  0
LINE
  8
0
 10
96.6406
 20
290.03
 11
98.2611
 21
289.094
  0
LINE
  8
0
 10
98.2611
 20
289.094
 11
99.3609
 21
287.58
  0
LINE
  8
0
 10
99.3609
 20
287.58
 11
99.75
 21
285.75
  0
LINE
  8
0
 10
99.75
 20
285.75
 11
99.3609
 21
283.92
  0
LINE
  8
0
 10
99.3609
 20
283.92
 11
98.2611
 21
282.406
  0
LINE
  8
0
 10
98.2611
 20
282.406
 11
96.6406
 21
281.47
  0
LINE
  8
0
 10
96.6406
 20
281.47
 11
94.7796
 21
281.275
  0
LINE
  8
0
 10
94.7796
 20
281.275
 11
93
 21
281.853
  0
LINE
  8
0
 10
550.2
 20
281.853
 11
548.809
 21
283.105
  0
LINE
  8
0
 10
548.809
 20
283.105
 11
548.048
 21
284.814
  0
LINE
  8
0
 10
548.048
 20
284.814
 11
548.048
 21
286.686
  0
LINE
  8
0
 10
548.048
 20
286.686
 11
548.809
 21
288.395
  0
LINE
  8
0
 10
548.809
 20
288.395
 11
550.2
 21
289.647
  0
LINE
  8
0
 10
550.2
 20
289.647
 11
551.98
 21
290.225
  0
LINE
  8
0
 10
551.98
 20
290.225
 11
553.841
 21
290.03
  0
LINE
  8
0
 10
553.841
 20
290.03
 11
555.461
 21
289.094
  0
LINE
  8
0
 10
555.461
 20
289.094
 11
556.561
 21
287.58
  0
LINE
  8
0
 10
556.561
 20
287.58
 11
556.95
 21
285.75
  0
LINE
  8
0
 10
556.95
 20
285.75
 11
556.561
 21
283.92
  0
LINE
  8
0
 10
556.561
 20
283.92
 11
555.461
 21
282.406
  0
LINE
  8
0
 10
555.461
 20
282.406
 11
553.841
 21
281.47
  0
LINE
  8
0
 10
553.841
 20
281.47
 11
551.98
 21
281.275
  0
LINE
  8
0
 10
551.98
 20
281.275
 11
550.2
 21
281.853
  0
LINE
  8
0
 10
512.1
 20
281.853
 11
510.709
 21
283.105
  0
LINE
  8
0
 10
510.709
 20
283.105
 11
509.948
 21
284.814
  0
LINE
  8
0
 10
509.948
 20
284.814
 11
509.948
 21
286.686
  0
LINE
  8
0
 10
509.948
 20
286.686
 11
510.709
 21
288.395
  0
LINE
  8
0
 10
510.709
 20
288.395
 11
512.1
 21
289.647
  0
LINE
  8
0
 10
512.1
 20
289.647
 11
513.88
 21
290.225
  0
LINE
  8
0
 10
513.88
 20
290.225
 11
515.741
 21
290.03
  0
LINE
  8
0
 10
515.741
 20
290.03
 11
517.361
 21
289.094
  0
LINE
  8
0
 10
517.361
 20
289.094
 11
518.461
 21
287.58
  0
LINE
  8
0
 10
518.461
 20
287.58
 11
518.85
 21
285.75
  0
LINE
  8
0
 10
518.85
 20
285.75
 11
518.461
 21
283.92
  0
LINE
  8
0
 10
518.461
 20
283.92
 11
517.361
 21
282.406
  0
LINE
  8
0
 10
517.361
 20
282.406
 11
515.741
 21
281.47
  0
LINE
  8
0
 10
515.741
 20
281.47
 11
513.88
 21
281.275
  0
LINE
  8
0
 10
513.88
 20
281.275
 11
512.1
 21
281.853
  0
LINE
  8
0
 10
474
 20
281.853
 11
472.609
 21
283.105
  0
LINE
  8
0
 10
472.609
 20
283.105
 11
471.848
 21
284.814
  0
LINE
  8
0
 10
471.848
 20
284.814
 11
471.848
 21
286.686
  0
LINE
  8
0
 10
471.848
 20
286.686
 11
472.609
 21
288.395
  0
LINE
  8
0
 10
472.609
 20
288.395
 11
474
 21
289.647
  0
LINE
  8
0
 10
474
 20
289.647
 11
475.78
 21
290.225
  0
LINE
  8
0
 10
475.78
 20
290.225
 11
477.641
 21
290.03
  0
LINE
  8
0
 10
477.641
 20
290.03
 11
479.261
 21
289.094
  0
LINE
  8
0
 10
479.261
 20
289.094
 11
480.361
 21
287.58
  0
LINE
  8
0
 10
480.361
 20
287.58
 11
480.75
 21
285.75
  0
LINE
  8
0
 10
480.75
 20
285.75
 11
480.361
 21
283.92
  0
LINE
  8
0
 10
480.361
 20
283.92
 11
479.261
 21
282.406
  0
LINE
  8
0
 10
479.261
 20
282.406
 11
477.641
 21
281.47
  0
LINE
  8
0
 10
477.641
 20
281.47
 11
475.78
 21
281.275
  0
LINE
  8
0
 10
475.78
 20
281.275
 11
474
 21
281.853
  0
LINE
  8
0
 10
435.9
 20
281.853
 11
434.509
 21
283.105
  0
LINE
  8
0
 10
434.509
 20
283.105
 11
433.748
 21
284.814
  0
LINE
  8
0
 10
433.748
 20
284.814
 11
433.748
 21
286.686
  0
LINE
  8
0
 10
433.748
 20
286.686
 11
434.509
 21
288.395
  0
LINE
  8
0
 10
434.509
 20
288.395
 11
435.9
 21
289.647
  0
LINE
  8
0
 10
435.9
 20
289.647
 11
437.68
 21
290.225
  0
LINE
  8
0
 10
437.68
 20
290.225
 11
439.541
 21
290.03
  0
LINE
  8
0
 10
439.541
 20
290.03
 11
441.161
 21
289.094
  0
LINE
  8
0
 10
441.161
 20
289.094
 11
442.261
 21
287.58
  0
LINE
  8
0
 10
442.261
 20
287.58
 11
442.65
 21
285.75
  0
LINE
  8
0
 10
442.65
 20
285.75
 11
442.261
 21
283.92
  0
LINE
  8
0
 10
442.261
 20
283.92
 11
441.161
 21
282.406
  0
LINE
  8
0
 10
441.161
 20
282.406
 11
439.541
 21
281.47
  0
LINE
  8
0
 10
439.541
 20
281.47
 11
437.68
 21
281.275
  0
LINE
  8
0
 10
437.68
 20
281.275
 11
435.9
 21
281.853
  0
LINE
  8
0
 10
397.8
 20
281.853
 11
396.409
 21
283.105
  0
LINE
  8
0
 10
396.409
 20
283.105
 11
395.648
 21
284.814
  0
LINE
  8
0
 10
395.648
 20
284.814
 11
395.648
 21
286.686
  0
LINE
  8
0
 10
395.648
 20
286.686
 11
396.409
 21
288.395
  0
LINE
  8
0
 10
396.409
 20
288.395
 11
397.8
 21
289.647
  0
LINE
  8
0
 10
397.8
 20
289.647
 11
399.58
 21
290.225
  0
LINE
  8
0
 10
399.58
 20
290.225
 11
401.441
 21
290.03
  0
LINE
  8
0
 10
401.441
 20
290.03
 11
403.061
 21
289.094
  0
LINE
  8
0
 10
403.061
 20
289.094
 11
404.161
 21
287.58
  0
LINE
  8
0
 10
404.161
 20
287.58
 11
404.55
 21
285.75
  0
LINE
  8
0
 10
404.55
 20
285.75
 11
404.161
 21
283.92
  0
LINE
  8
0
 10
404.161
 20
283.92
 11
403.061
 21
282.406
  0
LINE
  8
0
 10
403.061
 20
282.406
 11
401.441
 21
281.47
  0
LINE
  8
0
 10
401.441
 20
281.47
 11
399.58
 21
281.275
  0
LINE
  8
0
 10
399.58
 20
281.275
 11
397.8
 21
281.853
  0
LINE
  8
0
 10
359.7
 20
281.853
 11
358.309
 21
283.105
  0
LINE
  8
0
 10
358.309
 20
283.105
 11
357.548
 21
284.814
  0
LINE
  8
0
 10
357.548
 20
284.814
 11
357.548
 21
286.686
  0
LINE
  8
0
 10
357.548
 20
286.686
 11
358.309
 21
288.395
  0
LINE
  8
0
 10
358.309
 20
288.395
 11
359.7
 21
289.647
  0
LINE
  8
0
 10
359.7
 20
289.647
 11
361.48
 21
290.225
  0
LINE
  8
0
 10
361.48
 20
290.225
 11
363.341
 21
290.03
  0
LINE
  8
0
 10
363.341
 20
290.03
 11
364.961
 21
289.094
  0
LINE
  8
0
 10
364.961
 20
289.094
 11
366.061
 21
287.58
  0
LINE
  8
0
 10
366.061
 20
287.58
 11
366.45
 21
285.75
  0
LINE
  8
0
 10
366.45
 20
285.75
 11
366.061
 21
283.92
  0
LINE
  8
0
 10
366.061
 20
283.92
 11
364.961
 21
282.406
  0
LINE
  8
0
 10
364.961
 20
282.406
 11
363.341
 21
281.47
  0
LINE
  8
0
 10
363.341
 20
281.47
 11
361.48
 21
281.275
  0
LINE
  8
0
 10
361.48
 20
281.275
 11
359.7
 21
281.853
  0
LINE
  8
0
 10
283.5
 20
281.853
 11
282.109
 21
283.105
  0
LINE
  8
0
 10
282.109
 20
283.105
 11
281.348
 21
284.814
  0
LINE
  8
0
 10
281.348
 20
284.814
 11
281.348
 21
286.686
  0
LINE
  8
0
 10
281.348
 20
286.686
 11
282.109
 21
288.395
  0
LINE
  8
0
 10
282.109
 20
288.395
 11
283.5
 21
289.647
  0
LINE
  8
0
 10
283.5
 20
289.647
 11
285.28
 21
290.225
  0
LINE
  8
0
 10
285.28
 20
290.225
 11
287.141
 21
290.03
  0
LINE
  8
0
 10
287.141
 20
290.03
 11
288.761
 21
289.094
  0
LINE
  8
0
 10
288.761
 20
289.094
 11
289.861
 21
287.58
  0
LINE
  8
0
 10
289.861
 20
287.58
 11
290.25
 21
285.75
  0
LINE
  8
0
 10
290.25
 20
285.75
 11
289.861
 21
283.92
  0
LINE
  8
0
 10
289.861
 20
283.92
 11
288.761
 21
282.406
  0
LINE
  8
0
 10
288.761
 20
282.406
 11
287.141
 21
281.47
  0
LINE
  8
0
 10
287.141
 20
281.47
 11
285.28
 21
281.275
  0
LINE
  8
0
 10
285.28
 20
281.275
 11
283.5
 21
281.853
  0
LINE
  8
0
 10
207.3
 20
281.853
 11
205.909
 21
283.105
  0
LINE
  8
0
 10
205.909
 20
283.105
 11
205.148
 21
284.814
  0
LINE
  8
0
 10
205.148
 20
284.814
 11
205.148
 21
286.686
  0
LINE
  8
0
 10
205.148
 20
286.686
 11
205.909
 21
288.395
  0
LINE
  8
0
 10
205.909
 20
288.395
 11
207.3
 21
289.647
  0
LINE
  8
0
 10
207.3
 20
289.647
 11
209.08
 21
290.225
  0
LINE
  8
0
 10
209.08
 20
290.225
 11
210.941
 21
290.03
  0
LINE
  8
0
 10
210.941
 20
290.03
 11
212.561
 21
289.094
  0
LINE
  8
0
 10
212.561
 20
289.094
 11
213.661
 21
287.58
  0
LINE
  8
0
 10
213.661
 20
287.58
 11
214.05
 21
285.75
  0
LINE
  8
0
 10
214.05
 20
285.75
 11
213.661
 21
283.92
  0
LINE
  8
0
 10
213.661
 20
283.92
 11
212.561
 21
282.406
  0
LINE
  8
0
 10
212.561
 20
282.406
 11
210.941
 21
281.47
  0
LINE
  8
0
 10
210.941
 20
281.47
 11
209.08
 21
281.275
  0
LINE
  8
0
 10
209.08
 20
281.275
 11
207.3
 21
281.853
  0
LINE
  8
0
 10
169.2
 20
281.853
 11
167.809
 21
283.105
  0
LINE
  8
0
 10
167.809
 20
283.105
 11
167.048
 21
284.814
  0
LINE
  8
0
 10
167.048
 20
284.814
 11
167.048
 21
286.686
  0
LINE
  8
0
 10
167.048
 20
286.686
 11
167.809
 21
288.395
  0
LINE
  8
0
 10
167.809
 20
288.395
 11
169.2
 21
289.647
  0
LINE
  8
0
 10
169.2
 20
289.647
 11
170.98
 21
290.225
  0
LINE
  8
0
 10
170.98
 20
290.225
 11
172.841
 21
290.03
  0
LINE
  8
0
 10
172.841
 20
290.03
 11
174.461
 21
289.094
  0
LINE
  8
0
 10
174.461
 20
289.094
 11
175.561
 21
287.58
  0
LINE
  8
0
 10
175.561
 20
287.58
 11
175.95
 21
285.75
  0
LINE
  8
0
 10
175.95
 20
285.75
 11
175.561
 21
283.92
  0
LINE
  8
0
 10
175.561
 20
283.92
 11
174.461
 21
282.406
  0
LINE
  8
0
 10
174.461
 20
282.406
 11
172.841
 21
281.47
  0
LINE
  8
0
 10
172.841
 20
281.47
 11
170.98
 21
281.275
  0
LINE
  8
0
 10
170.98
 20
281.275
 11
169.2
 21
281.853
  0
LINE
  8
0
 10
131.1
 20
281.853
 11
129.709
 21
283.105
  0
LINE
  8
0
 10
129.709
 20
283.105
 11
128.948
 21
284.814
  0
LINE
  8
0
 10
128.948
 20
284.814
 11
128.948
 21
286.686
  0
LINE
  8
0
 10
128.948
 20
286.686
 11
129.709
 21
288.395
  0
LINE
  8
0
 10
129.709
 20
288.395
 11
131.1
 21
289.647
  0
LINE
  8
0
 10
131.1
 20
289.647
 11
132.88
 21
290.225
  0
LINE
  8
0
 10
132.88
 20
290.225
 11
134.741
 21
290.03
  0
LINE
  8
0
 10
134.741
 20
290.03
 11
136.361
 21
289.094
  0
LINE
  8
0
 10
136.361
 20
289.094
 11
137.461
 21
287.58
  0
LINE
  8
0
 10
137.461
 20
287.58
 11
137.85
 21
285.75
  0
LINE
  8
0
 10
137.85
 20
285.75
 11
137.461
 21
283.92
  0
LINE
  8
0
 10
137.461
 20
283.92
 11
136.361
 21
282.406
  0
LINE
  8
0
 10
136.361
 20
282.406
 11
134.741
 21
281.47
  0
LINE
  8
0
 10
134.741
 20
281.47
 11
132.88
 21
281.275
  0
LINE
  8
0
 10
132.88
 20
281.275
 11
131.1
 21
281.853
  0
LINE
  8
0
 10
321.6
 20
281.853
 11
320.209
 21
283.105
  0
LINE
  8
0
 10
320.209
 20
283.105
 11
319.448
 21
284.814
  0
LINE
  8
0
 10
319.448
 20
284.814
 11
319.448
 21
286.686
  0
LINE
  8
0
 10
319.448
 20
286.686
 11
320.209
 21
288.395
  0
LINE
  8
0
 10
320.209
 20
288.395
 11
321.6
 21
289.647
  0
LINE
  8
0
 10
321.6
 20
289.647
 11
323.38
 21
290.225
  0
LINE
  8
0
 10
323.38
 20
290.225
 11
325.241
 21
290.03
  0
LINE
  8
0
 10
325.241
 20
290.03
 11
326.861
 21
289.094
  0
LINE
  8
0
 10
326.861
 20
289.094
 11
327.961
 21
287.58
  0
LINE
  8
0
 10
327.961
 20
287.58
 11
328.35
 21
285.75
  0
LINE
  8
0
 10
328.35
 20
285.75
 11
327.961
 21
283.92
  0
LINE
  8
0
 10
327.961
 20
283.92
 11
326.861
 21
282.406
  0
LINE
  8
0
 10
326.861
 20
282.406
 11
325.241
 21
281.47
  0
LINE
  8
0
 10
325.241
 20
281.47
 11
323.38
 21
281.275
  0
LINE
  8
0
 10
323.38
 20
281.275
 11
321.6
 21
281.853
  0
LINE
  8
0
 10
54.9
 20
281.853
 11
53.5094
 21
283.105
  0
LINE
  8
0
 10
53.5094
 20
283.105
 11
52.7483
 21
284.814
  0
LINE
  8
0
 10
52.7483
 20
284.814
 11
52.7483
 21
286.686
  0
LINE
  8
0
 10
52.7483
 20
286.686
 11
53.5094
 21
288.395
  0
LINE
  8
0
 10
53.5094
 20
288.395
 11
54.9
 21
289.647
  0
LINE
  8
0
 10
54.9
 20
289.647
 11
56.6796
 21
290.225
  0
LINE
  8
0
 10
56.6796
 20
290.225
 11
58.5406
 21
290.03
  0
LINE
  8
0
 10
58.5406
 20
290.03
 11
60.1611
 21
289.094
  0
LINE
  8
0
 10
60.1611
 20
289.094
 11
61.2609
 21
287.58
  0
LINE
  8
0
 10
61.2609
 20
287.58
 11
61.65
 21
285.75
  0
LINE
  8
0
 10
61.65
 20
285.75
 11
61.2609
 21
283.92
  0
LINE
  8
0
 10
61.2609
 20
283.92
 11
60.1611
 21
282.406
  0
LINE
  8
0
 10
60.1611
 20
282.406
 11
58.5406
 21
281.47
  0
LINE
  8
0
 10
58.5406
 20
281.47
 11
56.6796
 21
281.275
  0
LINE
  8
0
 10
56.6796
 20
281.275
 11
54.9
 21
281.853
  0
LINE
  8
0
 10
16.8
 20
281.853
 11
15.4094
 21
283.105
  0
LINE
  8
0
 10
15.4094
 20
283.105
 11
14.6483
 21
284.814
  0
LINE
  8
0
 10
14.6483
 20
284.814
 11
14.6483
 21
286.686
  0
LINE
  8
0
 10
14.6483
 20
286.686
 11
15.4094
 21
288.395
  0
LINE
  8
0
 10
15.4094
 20
288.395
 11
16.8
 21
289.647
  0
LINE
  8
0
 10
16.8
 20
289.647
 11
18.5796
 21
290.225
  0
LINE
  8
0
 10
18.5796
 20
290.225
 11
20.4406
 21
290.03
  0
LINE
  8
0
 10
20.4406
 20
290.03
 11
22.0611
 21
289.094
  0
LINE
  8
0
 10
22.0611
 20
289.094
 11
23.1609
 21
287.58
  0
LINE
  8
0
 10
23.1609
 20
287.58
 11
23.55
 21
285.75
  0
LINE
  8
0
 10
23.55
 20
285.75
 11
23.1609
 21
283.92
  0
LINE
  8
0
 10
23.1609
 20
283.92
 11
22.0611
 21
282.406
  0
LINE
  8
0
 10
22.0611
 20
282.406
 11
20.4406
 21
281.47
  0
LINE
  8
0
 10
20.4406
 20
281.47
 11
18.5796
 21
281.275
  0
LINE
  8
0
 10
18.5796
 20
281.275
 11
16.8
 21
281.853
  0
LINE
  8
0
 10
245.4
 20
281.853
 11
244.009
 21
283.105
  0
LINE
  8
0
 10
244.009
 20
283.105
 11
243.248
 21
284.814
  0
LINE
  8
0
 10
243.248
 20
284.814
 11
243.248
 21
286.686
  0
LINE
  8
0
 10
243.248
 20
286.686
 11
244.009
 21
288.395
  0
LINE
  8
0
 10
244.009
 20
288.395
 11
245.4
 21
289.647
  0
LINE
  8
0
 10
245.4
 20
289.647
 11
247.18
 21
290.225
  0
LINE
  8
0
 10
247.18
 20
290.225
 11
249.041
 21
290.03
  0
LINE
  8
0
 10
249.041
 20
290.03
 11
250.661
 21
289.094
  0
LINE
  8
0
 10
250.661
 20
289.094
 11
251.761
 21
287.58
  0
LINE
  8
0
 10
251.761
 20
287.58
 11
252.15
 21
285.75
  0
LINE
  8
0
 10
252.15
 20
285.75
 11
251.761
 21
283.92
  0
LINE
  8
0
 10
251.761
 20
283.92
 11
250.661
 21
282.406
  0
LINE
  8
0
 10
250.661
 20
282.406
 11
249.041
 21
281.47
  0
LINE
  8
0
 10
249.041
 20
281.47
 11
247.18
 21
281.275
  0
LINE
  8
0
 10
247.18
 20
281.275
 11
245.4
 21
281.853
  0
LINE
  8
0
 10
245.4
 20
243.753
 11
244.009
 21
245.005
  0
LINE
  8
0
 10
244.009
 20
245.005
 11
243.248
 21
246.714
  0
LINE
  8
0
 10
243.248
 20
246.714
 11
243.248
 21
248.586
  0
LINE
  8
0
 10
243.248
 20
248.586
 11
244.009
 21
250.295
  0
LINE
  8
0
 10
244.009
 20
250.295
 11
245.4
 21
251.547
  0
LINE
  8
0
 10
245.4
 20
251.547
 11
247.18
 21
252.125
  0
LINE
  8
0
 10
247.18
 20
252.125
 11
249.041
 21
251.93
  0
LINE
  8
0
 10
249.041
 20
251.93
 11
250.661
 21
250.994
  0
LINE
  8
0
 10
250.661
 20
250.994
 11
251.761
 21
249.48
  0
LINE
  8
0
 10
251.761
 20
249.48
 11
252.15
 21
247.65
  0
LINE
  8
0
 10
252.15
 20
247.65
 11
251.761
 21
245.82
  0
LINE
  8
0
 10
251.761
 20
245.82
 11
250.661
 21
244.306
  0
LINE
  8
0
 10
250.661
 20
244.306
 11
249.041
 21
243.37
  0
LINE
  8
0
 10
249.041
 20
243.37
 11
247.18
 21
243.175
  0
LINE
  8
0
 10
247.18
 20
243.175
 11
245.4
 21
243.753
  0
LINE
  8
0
 10
550.2
 20
243.753
 11
548.809
 21
245.005
  0
LINE
  8
0
 10
548.809
 20
245.005
 11
548.048
 21
246.714
  0
LINE
  8
0
 10
548.048
 20
246.714
 11
548.048
 21
248.586
  0
LINE
  8
0
 10
548.048
 20
248.586
 11
548.809
 21
250.295
  0
LINE
  8
0
 10
548.809
 20
250.295
 11
550.2
 21
251.547
  0
LINE
  8
0
 10
550.2
 20
251.547
 11
551.98
 21
252.125
  0
LINE
  8
0
 10
551.98
 20
252.125
 11
553.841
 21
251.93
  0
LINE
  8
0
 10
553.841
 20
251.93
 11
555.461
 21
250.994
  0
LINE
  8
0
 10
555.461
 20
250.994
 11
556.561
 21
249.48
  0
LINE
  8
0
 10
556.561
 20
249.48
 11
556.95
 21
247.65
  0
LINE
  8
0
 10
556.95
 20
247.65
 11
556.561
 21
245.82
  0
LINE
  8
0
 10
556.561
 20
245.82
 11
555.461
 21
244.306
  0
LINE
  8
0
 10
555.461
 20
244.306
 11
553.841
 21
243.37
  0
LINE
  8
0
 10
553.841
 20
243.37
 11
551.98
 21
243.175
  0
LINE
  8
0
 10
551.98
 20
243.175
 11
550.2
 21
243.753
  0
LINE
  8
0
 10
512.1
 20
243.753
 11
510.709
 21
245.005
  0
LINE
  8
0
 10
510.709
 20
245.005
 11
509.948
 21
246.714
  0
LINE
  8
0
 10
509.948
 20
246.714
 11
509.948
 21
248.586
  0
LINE
  8
0
 10
509.948
 20
248.586
 11
510.709
 21
250.295
  0
LINE
  8
0
 10
510.709
 20
250.295
 11
512.1
 21
251.547
  0
LINE
  8
0
 10
512.1
 20
251.547
 11
513.88
 21
252.125
  0
LINE
  8
0
 10
513.88
 20
252.125
 11
515.741
 21
251.93
  0
LINE
  8
0
 10
515.741
 20
251.93
 11
517.361
 21
250.994
  0
LINE
  8
0
 10
517.361
 20
250.994
 11
518.461
 21
249.48
  0
LINE
  8
0
 10
518.461
 20
249.48
 11
518.85
 21
247.65
  0
LINE
  8
0
 10
518.85
 20
247.65
 11
518.461
 21
245.82
  0
LINE
  8
0
 10
518.461
 20
245.82
 11
517.361
 21
244.306
  0
LINE
  8
0
 10
517.361
 20
244.306
 11
515.741
 21
243.37
  0
LINE
  8
0
 10
515.741
 20
243.37
 11
513.88
 21
243.175
  0
LINE
  8
0
 10
513.88
 20
243.175
 11
512.1
 21
243.753
  0
LINE
  8
0
 10
474
 20
243.753
 11
472.609
 21
245.005
  0
LINE
  8
0
 10
472.609
 20
245.005
 11
471.848
 21
246.714
  0
LINE
  8
0
 10
471.848
 20
246.714
 11
471.848
 21
248.586
  0
LINE
  8
0
 10
471.848
 20
248.586
 11
472.609
 21
250.295
  0
LINE
  8
0
 10
472.609
 20
250.295
 11
474
 21
251.547
  0
LINE
  8
0
 10
474
 20
251.547
 11
475.78
 21
252.125
  0
LINE
  8
0
 10
475.78
 20
252.125
 11
477.641
 21
251.93
  0
LINE
  8
0
 10
477.641
 20
251.93
 11
479.261
 21
250.994
  0
LINE
  8
0
 10
479.261
 20
250.994
 11
480.361
 21
249.48
  0
LINE
  8
0
 10
480.361
 20
249.48
 11
480.75
 21
247.65
  0
LINE
  8
0
 10
480.75
 20
247.65
 11
480.361
 21
245.82
  0
LINE
  8
0
 10
480.361
 20
245.82
 11
479.261
 21
244.306
  0
LINE
  8
0
 10
479.261
 20
244.306
 11
477.641
 21
243.37
  0
LINE
  8
0
 10
477.641
 20
243.37
 11
475.78
 21
243.175
  0
LINE
  8
0
 10
475.78
 20
243.175
 11
474
 21
243.753
  0
LINE
  8
0
 10
435.9
 20
243.753
 11
434.509
 21
245.005
  0
LINE
  8
0
 10
434.509
 20
245.005
 11
433.748
 21
246.714
  0
LINE
  8
0
 10
433.748
 20
246.714
 11
433.748
 21
248.586
  0
LINE
  8
0
 10
433.748
 20
248.586
 11
434.509
 21
250.295
  0
LINE
  8
0
 10
434.509
 20
250.295
 11
435.9
 21
251.547
  0
LINE
  8
0
 10
435.9
 20
251.547
 11
437.68
 21
252.125
  0
LINE
  8
0
 10
437.68
 20
252.125
 11
439.541
 21
251.93
  0
LINE
  8
0
 10
439.541
 20
251.93
 11
441.161
 21
250.994
  0
LINE
  8
0
 10
441.161
 20
250.994
 11
442.261
 21
249.48
  0
LINE
  8
0
 10
442.261
 20
249.48
 11
442.65
 21
247.65
  0
LINE
  8
0
 10
442.65
 20
247.65
 11
442.261
 21
245.82
  0
LINE
  8
0
 10
442.261
 20
245.82
 11
441.161
 21
244.306
  0
LINE
  8
0
 10
441.161
 20
244.306
 11
439.541
 21
243.37
  0
LINE
  8
0
 10
439.541
 20
243.37
 11
437.68
 21
243.175
  0
LINE
  8
0
 10
437.68
 20
243.175
 11
435.9
 21
243.753
  0
LINE
  8
0
 10
397.8
 20
243.753
 11
396.409
 21
245.005
  0
LINE
  8
0
 10
396.409
 20
245.005
 11
395.648
 21
246.714
  0
LINE
  8
0
 10
395.648
 20
246.714
 11
395.648
 21
248.586
  0
LINE
  8
0
 10
395.648
 20
248.586
 11
396.409
 21
250.295
  0
LINE
  8
0
 10
396.409
 20
250.295
 11
397.8
 21
251.547
  0
LINE
  8
0
 10
397.8
 20
251.547
 11
399.58
 21
252.125
  0
LINE
  8
0
 10
399.58
 20
252.125
 11
401.441
 21
251.93
  0
LINE
  8
0
 10
401.441
 20
251.93
 11
403.061
 21
250.994
  0
LINE
  8
0
 10
403.061
 20
250.994
 11
404.161
 21
249.48
  0
LINE
  8
0
 10
404.161
 20
249.48
 11
404.55
 21
247.65
  0
LINE
  8
0
 10
404.55
 20
247.65
 11
404.161
 21
245.82
  0
LINE
  8
0
 10
404.161
 20
245.82
 11
403.061
 21
244.306
  0
LINE
  8
0
 10
403.061
 20
244.306
 11
401.441
 21
243.37
  0
LINE
  8
0
 10
401.441
 20
243.37
 11
399.58
 21
243.175
  0
LINE
  8
0
 10
399.58
 20
243.175
 11
397.8
 21
243.753
  0
LINE
  8
0
 10
359.7
 20
243.753
 11
358.309
 21
245.005
  0
LINE
  8
0
 10
358.309
 20
245.005
 11
357.548
 21
246.714
  0
LINE
  8
0
 10
357.548
 20
246.714
 11
357.548
 21
248.586
  0
LINE
  8
0
 10
357.548
 20
248.586
 11
358.309
 21
250.295
  0
LINE
  8
0
 10
358.309
 20
250.295
 11
359.7
 21
251.547
  0
LINE
  8
0
 10
359.7
 20
251.547
 11
361.48
 21
252.125
  0
LINE
  8
0
 10
361.48
 20
252.125
 11
363.341
 21
251.93
  0
LINE
  8
0
 10
363.341
 20
251.93
 11
364.961
 21
250.994
  0
LINE
  8
0
 10
364.961
 20
250.994
 11
366.061
 21
249.48
  0
LINE
  8
0
 10
366.061
 20
249.48
 11
366.45
 21
247.65
  0
LINE
  8
0
 10
366.45
 20
247.65
 11
366.061
 21
245.82
  0
LINE
  8
0
 10
366.061
 20
245.82
 11
364.961
 21
244.306
  0
LINE
  8
0
 10
364.961
 20
244.306
 11
363.341
 21
243.37
  0
LINE
  8
0
 10
363.341
 20
243.37
 11
361.48
 21
243.175
  0
LINE
  8
0
 10
361.48
 20
243.175
 11
359.7
 21
243.753
  0
LINE
  8
0
 10
283.5
 20
243.753
 11
282.109
 21
245.005
  0
LINE
  8
0
 10
282.109
 20
245.005
 11
281.348
 21
246.714
  0
LINE
  8
0
 10
281.348
 20
246.714
 11
281.348
 21
248.586
  0
LINE
  8
0
 10
281.348
 20
248.586
 11
282.109
 21
250.295
  0
LINE
  8
0
 10
282.109
 20
250.295
 11
283.5
 21
251.547
  0
LINE
  8
0
 10
283.5
 20
251.547
 11
285.28
 21
252.125
  0
LINE
  8
0
 10
285.28
 20
252.125
 11
287.141
 21
251.93
  0
LINE
  8
0
 10
287.141
 20
251.93
 11
288.761
 21
250.994
  0
LINE
  8
0
 10
288.761
 20
250.994
 11
289.861
 21
249.48
  0
LINE
  8
0
 10
289.861
 20
249.48
 11
290.25
 21
247.65
  0
LINE
  8
0
 10
290.25
 20
247.65
 11
289.861
 21
245.82
  0
LINE
  8
0
 10
289.861
 20
245.82
 11
288.761
 21
244.306
  0
LINE
  8
0
 10
288.761
 20
244.306
 11
287.141
 21
243.37
  0
LINE
  8
0
 10
287.141
 20
243.37
 11
285.28
 21
243.175
  0
LINE
  8
0
 10
285.28
 20
243.175
 11
283.5
 21
243.753
  0
LINE
  8
0
 10
207.3
 20
243.753
 11
205.909
 21
245.005
  0
LINE
  8
0
 10
205.909
 20
245.005
 11
205.148
 21
246.714
  0
LINE
  8
0
 10
205.148
 20
246.714
 11
205.148
 21
248.586
  0
LINE
  8
0
 10
205.148
 20
248.586
 11
205.909
 21
250.295
  0
LINE
  8
0
 10
205.909
 20
250.295
 11
207.3
 21
251.547
  0
LINE
  8
0
 10
207.3
 20
251.547
 11
209.08
 21
252.125
  0
LINE
  8
0
 10
209.08
 20
252.125
 11
210.941
 21
251.93
  0
LINE
  8
0
 10
210.941
 20
251.93
 11
212.561
 21
250.994
  0
LINE
  8
0
 10
212.561
 20
250.994
 11
213.661
 21
249.48
  0
LINE
  8
0
 10
213.661
 20
249.48
 11
214.05
 21
247.65
  0
LINE
  8
0
 10
214.05
 20
247.65
 11
213.661
 21
245.82
  0
LINE
  8
0
 10
213.661
 20
245.82
 11
212.561
 21
244.306
  0
LINE
  8
0
 10
212.561
 20
244.306
 11
210.941
 21
243.37
  0
LINE
  8
0
 10
210.941
 20
243.37
 11
209.08
 21
243.175
  0
LINE
  8
0
 10
209.08
 20
243.175
 11
207.3
 21
243.753
  0
LINE
  8
0
 10
169.2
 20
243.753
 11
167.809
 21
245.005
  0
LINE
  8
0
 10
167.809
 20
245.005
 11
167.048
 21
246.714
  0
LINE
  8
0
 10
167.048
 20
246.714
 11
167.048
 21
248.586
  0
LINE
  8
0
 10
167.048
 20
248.586
 11
167.809
 21
250.295
  0
LINE
  8
0
 10
167.809
 20
250.295
 11
169.2
 21
251.547
  0
LINE
  8
0
 10
169.2
 20
251.547
 11
170.98
 21
252.125
  0
LINE
  8
0
 10
170.98
 20
252.125
 11
172.841
 21
251.93
  0
LINE
  8
0
 10
172.841
 20
251.93
 11
174.461
 21
250.994
  0
LINE
  8
0
 10
174.461
 20
250.994
 11
175.561
 21
249.48
  0
LINE
  8
0
 10
175.561
 20
249.48
 11
175.95
 21
247.65
  0
LINE
  8
0
 10
175.95
 20
247.65
 11
175.561
 21
245.82
  0
LINE
  8
0
 10
175.561
 20
245.82
 11
174.461
 21
244.306
  0
LINE
  8
0
 10
174.461
 20
244.306
 11
172.841
 21
243.37
  0
LINE
  8
0
 10
172.841
 20
243.37
 11
170.98
 21
243.175
  0
LINE
  8
0
 10
170.98
 20
243.175
 11
169.2
 21
243.753
  0
LINE
  8
0
 10
131.1
 20
243.753
 11
129.709
 21
245.005
  0
LINE
  8
0
 10
129.709
 20
245.005
 11
128.948
 21
246.714
  0
LINE
  8
0
 10
128.948
 20
246.714
 11
128.948
 21
248.586
  0
LINE
  8
0
 10
128.948
 20
248.586
 11
129.709
 21
250.295
  0
LINE
  8
0
 10
129.709
 20
250.295
 11
131.1
 21
251.547
  0
LINE
  8
0
 10
131.1
 20
251.547
 11
132.88
 21
252.125
  0
LINE
  8
0
 10
132.88
 20
252.125
 11
134.741
 21
251.93
  0
LINE
  8
0
 10
134.741
 20
251.93
 11
136.361
 21
250.994
  0
LINE
  8
0
 10
136.361
 20
250.994
 11
137.461
 21
249.48
  0
LINE
  8
0
 10
137.461
 20
249.48
 11
137.85
 21
247.65
  0
LINE
  8
0
 10
137.85
 20
247.65
 11
137.461
 21
245.82
  0
LINE
  8
0
 10
137.461
 20
245.82
 11
136.361
 21
244.306
  0
LINE
  8
0
 10
136.361
 20
244.306
 11
134.741
 21
243.37
  0
LINE
  8
0
 10
134.741
 20
243.37
 11
132.88
 21
243.175
  0
LINE
  8
0
 10
132.88
 20
243.175
 11
131.1
 21
243.753
  0
LINE
  8
0
 10
93
 20
243.753
 11
91.6094
 21
245.005
  0
LINE
  8
0
 10
91.6094
 20
245.005
 11
90.8483
 21
246.714
  0
LINE
  8
0
 10
90.8483
 20
246.714
 11
90.8483
 21
248.586
  0
LINE
  8
0
 10
90.8483
 20
248.586
 11
91.6094
 21
250.295
  0
LINE
  8
0
 10
91.6094
 20
250.295
 11
93
 21
251.547
  0
LINE
  8
0
 10
93
 20
251.547
 11
94.7796
 21
252.125
  0
LINE
  8
0
 10
94.7796
 20
252.125
 11
96.6406
 21
251.93
  0
LINE
  8
0
 10
96.6406
 20
251.93
 11
98.2611
 21
250.994
  0
LINE
  8
0
 10
98.2611
 20
250.994
 11
99.3609
 21
249.48
  0
LINE
  8
0
 10
99.3609
 20
249.48
 11
99.75
 21
247.65
  0
LINE
  8
0
 10
99.75
 20
247.65
 11
99.3609
 21
245.82
  0
LINE
  8
0
 10
99.3609
 20
245.82
 11
98.2611
 21
244.306
  0
LINE
  8
0
 10
98.2611
 20
244.306
 11
96.6406
 21
243.37
  0
LINE
  8
0
 10
96.6406
 20
243.37
 11
94.7796
 21
243.175
  0
LINE
  8
0
 10
94.7796
 20
243.175
 11
93
 21
243.753
  0
LINE
  8
0
 10
54.9
 20
243.753
 11
53.5094
 21
245.005
  0
LINE
  8
0
 10
53.5094
 20
245.005
 11
52.7483
 21
246.714
  0
LINE
  8
0
 10
52.7483
 20
246.714
 11
52.7483
 21
248.586
  0
LINE
  8
0
 10
52.7483
 20
248.586
 11
53.5094
 21
250.295
  0
LINE
  8
0
 10
53.5094
 20
250.295
 11
54.9
 21
251.547
  0
LINE
  8
0
 10
54.9
 20
251.547
 11
56.6796
 21
252.125
  0
LINE
  8
0
 10
56.6796
 20
252.125
 11
58.5406
 21
251.93
  0
LINE
  8
0
 10
58.5406
 20
251.93
 11
60.1611
 21
250.994
  0
LINE
  8
0
 10
60.1611
 20
250.994
 11
61.2609
 21
249.48
  0
LINE
  8
0
 10
61.2609
 20
249.48
 11
61.65
 21
247.65
  0
LINE
  8
0
 10
61.65
 20
247.65
 11
61.2609
 21
245.82
  0
LINE
  8
0
 10
61.2609
 20
245.82
 11
60.1611
 21
244.306
  0
LINE
  8
0
 10
60.1611
 20
244.306
 11
58.5406
 21
243.37
  0
LINE
  8
0
 10
58.5406
 20
243.37
 11
56.6796
 21
243.175
  0
LINE
  8
0
 10
56.6796
 20
243.175
 11
54.9
 21
243.753
  0
LINE
  8
0
 10
16.8
 20
243.753
 11
15.4094
 21
245.005
  0
LINE
  8
0
 10
15.4094
 20
245.005
 11
14.6483
 21
246.714
  0
LINE
  8
0
 10
14.6483
 20
246.714
 11
14.6483
 21
248.586
  0
LINE
  8
0
 10
14.6483
 20
248.586
 11
15.4094
 21
250.295
  0
LINE
  8
0
 10
15.4094
 20
250.295
 11
16.8
 21
251.547
  0
LINE
  8
0
 10
16.8
 20
251.547
 11
18.5796
 21
252.125
  0
LINE
  8
0
 10
18.5796
 20
252.125
 11
20.4406
 21
251.93
  0
LINE
  8
0
 10
20.4406
 20
251.93
 11
22.0611
 21
250.994
  0
LINE
  8
0
 10
22.0611
 20
250.994
 11
23.1609
 21
249.48
  0
LINE
  8
0
 10
23.1609
 20
249.48
 11
23.55
 21
247.65
  0
LINE
  8
0
 10
23.55
 20
247.65
 11
23.1609
 21
245.82
  0
LINE
  8
0
 10
23.1609
 20
245.82
 11
22.0611
 21
244.306
  0
LINE
  8
0
 10
22.0611
 20
244.306
 11
20.4406
 21
243.37
  0
LINE
  8
0
 10
20.4406
 20
243.37
 11
18.5796
 21
243.175
  0
LINE
  8
0
 10
18.5796
 20
243.175
 11
16.8
 21
243.753
  0
LINE
  8
0
 10
321.6
 20
243.753
 11
320.209
 21
245.005
  0
LINE
  8
0
 10
320.209
 20
245.005
 11
319.448
 21
246.714
  0
LINE
  8
0
 10
319.448
 20
246.714
 11
319.448
 21
248.586
  0
LINE
  8
0
 10
319.448
 20
248.586
 11
320.209
 21
250.295
  0
LINE
  8
0
 10
320.209
 20
250.295
 11
321.6
 21
251.547
  0
LINE
  8
0
 10
321.6
 20
251.547
 11
323.38
 21
252.125
  0
LINE
  8
0
 10
323.38
 20
252.125
 11
325.241
 21
251.93
  0
LINE
  8
0
 10
325.241
 20
251.93
 11
326.861
 21
250.994
  0
LINE
  8
0
 10
326.861
 20
250.994
 11
327.961
 21
249.48
  0
LINE
  8
0
 10
327.961
 20
249.48
 11
328.35
 21
247.65
  0
LINE
  8
0
 10
328.35
 20
247.65
 11
327.961
 21
245.82
  0
LINE
  8
0
 10
327.961
 20
245.82
 11
326.861
 21
244.306
  0
LINE
  8
0
 10
326.861
 20
244.306
 11
325.241
 21
243.37
  0
LINE
  8
0
 10
325.241
 20
243.37
 11
323.38
 21
243.175
  0
LINE
  8
0
 10
323.38
 20
243.175
 11
321.6
 21
243.753
  0
LINE
  8
0
 10
16.8
 20
205.653
 11
15.4094
 21
206.905
  0
LINE
  8
0
 10
15.4094
 20
206.905
 11
14.6483
 21
208.614
  0
LINE
  8
0
 10
14.6483
 20
208.614
 11
14.6483
 21
210.486
  0
LINE
  8
0
 10
14.6483
 20
210.486
 11
15.4094
 21
212.195
  0
LINE
  8
0
 10
15.4094
 20
212.195
 11
16.8
 21
213.447
  0
LINE
  8
0
 10
16.8
 20
213.447
 11
18.5796
 21
214.025
  0
LINE
  8
0
 10
18.5796
 20
214.025
 11
20.4406
 21
213.83
  0
LINE
  8
0
 10
20.4406
 20
213.83
 11
22.0611
 21
212.894
  0
LINE
  8
0
 10
22.0611
 20
212.894
 11
23.1609
 21
211.38
  0
LINE
  8
0
 10
23.1609
 20
211.38
 11
23.55
 21
209.55
  0
LINE
  8
0
 10
23.55
 20
209.55
 11
23.1609
 21
207.72
  0
LINE
  8
0
 10
23.1609
 20
207.72
 11
22.0611
 21
206.206
  0
LINE
  8
0
 10
22.0611
 20
206.206
 11
20.4406
 21
205.27
  0
LINE
  8
0
 10
20.4406
 20
205.27
 11
18.5796
 21
205.075
  0
LINE
  8
0
 10
18.5796
 20
205.075
 11
16.8
 21
205.653
  0
LINE
  8
0
 10
550.2
 20
205.653
 11
548.809
 21
206.905
  0
LINE
  8
0
 10
548.809
 20
206.905
 11
548.048
 21
208.614
  0
LINE
  8
0
 10
548.048
 20
208.614
 11
548.048
 21
210.486
  0
LINE
  8
0
 10
548.048
 20
210.486
 11
548.809
 21
212.195
  0
LINE
  8
0
 10
548.809
 20
212.195
 11
550.2
 21
213.447
  0
LINE
  8
0
 10
550.2
 20
213.447
 11
551.98
 21
214.025
  0
LINE
  8
0
 10
551.98
 20
214.025
 11
553.841
 21
213.83
  0
LINE
  8
0
 10
553.841
 20
213.83
 11
555.461
 21
212.894
  0
LINE
  8
0
 10
555.461
 20
212.894
 11
556.561
 21
211.38
  0
LINE
  8
0
 10
556.561
 20
211.38
 11
556.95
 21
209.55
  0
LINE
  8
0
 10
556.95
 20
209.55
 11
556.561
 21
207.72
  0
LINE
  8
0
 10
556.561
 20
207.72
 11
555.461
 21
206.206
  0
LINE
  8
0
 10
555.461
 20
206.206
 11
553.841
 21
205.27
  0
LINE
  8
0
 10
553.841
 20
205.27
 11
551.98
 21
205.075
  0
LINE
  8
0
 10
551.98
 20
205.075
 11
550.2
 21
205.653
  0
LINE
  8
0
 10
512.1
 20
205.653
 11
510.709
 21
206.905
  0
LINE
  8
0
 10
510.709
 20
206.905
 11
509.948
 21
208.614
  0
LINE
  8
0
 10
509.948
 20
208.614
 11
509.948
 21
210.486
  0
LINE
  8
0
 10
509.948
 20
210.486
 11
510.709
 21
212.195
  0
LINE
  8
0
 10
510.709
 20
212.195
 11
512.1
 21
213.447
  0
LINE
  8
0
 10
512.1
 20
213.447
 11
513.88
 21
214.025
  0
LINE
  8
0
 10
513.88
 20
214.025
 11
515.741
 21
213.83
  0
LINE
  8
0
 10
515.741
 20
213.83
 11
517.361
 21
212.894
  0
LINE
  8
0
 10
517.361
 20
212.894
 11
518.461
 21
211.38
  0
LINE
  8
0
 10
518.461
 20
211.38
 11
518.85
 21
209.55
  0
LINE
  8
0
 10
518.85
 20
209.55
 11
518.461
 21
207.72
  0
LINE
  8
0
 10
518.461
 20
207.72
 11
517.361
 21
206.206
  0
LINE
  8
0
 10
517.361
 20
206.206
 11
515.741
 21
205.27
  0
LINE
  8
0
 10
515.741
 20
205.27
 11
513.88
 21
205.075
  0
LINE
  8
0
 10
513.88
 20
205.075
 11
512.1
 21
205.653
  0
LINE
  8
0
 10
474
 20
205.653
 11
472.609
 21
206.905
  0
LINE
  8
0
 10
472.609
 20
206.905
 11
471.848
 21
208.614
  0
LINE
  8
0
 10
471.848
 20
208.614
 11
471.848
 21
210.486
  0
LINE
  8
0
 10
471.848
 20
210.486
 11
472.609
 21
212.195
  0
LINE
  8
0
 10
472.609
 20
212.195
 11
474
 21
213.447
  0
LINE
  8
0
 10
474
 20
213.447
 11
475.78
 21
214.025
  0
LINE
  8
0
 10
475.78
 20
214.025
 11
477.641
 21
213.83
  0
LINE
  8
0
 10
477.641
 20
213.83
 11
479.261
 21
212.894
  0
LINE
  8
0
 10
479.261
 20
212.894
 11
480.361
 21
211.38
  0
LINE
  8
0
 10
480.361
 20
211.38
 11
480.75
 21
209.55
  0
LINE
  8
0
 10
480.75
 20
209.55
 11
480.361
 21
207.72
  0
LINE
  8
0
 10
480.361
 20
207.72
 11
479.261
 21
206.206
  0
LINE
  8
0
 10
479.261
 20
206.206
 11
477.641
 21
205.27
  0
LINE
  8
0
 10
477.641
 20
205.27
 11
475.78
 21
205.075
  0
LINE
  8
0
 10
475.78
 20
205.075
 11
474
 21
205.653
  0
LINE
  8
0
 10
435.9
 20
205.653
 11
434.509
 21
206.905
  0
LINE
  8
0
 10
434.509
 20
206.905
 11
433.748
 21
208.614
  0
LINE
  8
0
 10
433.748
 20
208.614
 11
433.748
 21
210.486
  0
LINE
  8
0
 10
433.748
 20
210.486
 11
434.509
 21
212.195
  0
LINE
  8
0
 10
434.509
 20
212.195
 11
435.9
 21
213.447
  0
LINE
  8
0
 10
435.9
 20
213.447
 11
437.68
 21
214.025
  0
LINE
  8
0
 10
437.68
 20
214.025
 11
439.541
 21
213.83
  0
LINE
  8
0
 10
439.541
 20
213.83
 11
441.161
 21
212.894
  0
LINE
  8
0
 10
441.161
 20
212.894
 11
442.261
 21
211.38
  0
LINE
  8
0
 10
442.261
 20
211.38
 11
442.65
 21
209.55
  0
LINE
  8
0
 10
442.65
 20
209.55
 11
442.261
 21
207.72
  0
LINE
  8
0
 10
442.261
 20
207.72
 11
441.161
 21
206.206
  0
LINE
  8
0
 10
441.161
 20
206.206
 11
439.541
 21
205.27
  0
LINE
  8
0
 10
439.541
 20
205.27
 11
437.68
 21
205.075
  0
LINE
  8
0
 10
437.68
 20
205.075
 11
435.9
 21
205.653
  0
LINE
  8
0
 10
397.8
 20
205.653
 11
396.409
 21
206.905
  0
LINE
  8
0
 10
396.409
 20
206.905
 11
395.648
 21
208.614
  0
LINE
  8
0
 10
395.648
 20
208.614
 11
395.648
 21
210.486
  0
LINE
  8
0
 10
395.648
 20
210.486
 11
396.409
 21
212.195
  0
LINE
  8
0
 10
396.409
 20
212.195
 11
397.8
 21
213.447
  0
LINE
  8
0
 10
397.8
 20
213.447
 11
399.58
 21
214.025
  0
LINE
  8
0
 10
399.58
 20
214.025
 11
401.441
 21
213.83
  0
LINE
  8
0
 10
401.441
 20
213.83
 11
403.061
 21
212.894
  0
LINE
  8
0
 10
403.061
 20
212.894
 11
404.161
 21
211.38
  0
LINE
  8
0
 10
404.161
 20
211.38
 11
404.55
 21
209.55
  0
LINE
  8
0
 10
404.55
 20
209.55
 11
404.161
 21
207.72
  0
LINE
  8
0
 10
404.161
 20
207.72
 11
403.061
 21
206.206
  0
LINE
  8
0
 10
403.061
 20
206.206
 11
401.441
 21
205.27
  0
LINE
  8
0
 10
401.441
 20
205.27
 11
399.58
 21
205.075
  0
LINE
  8
0
 10
399.58
 20
205.075
 11
397.8
 21
205.653
  0
LINE
  8
0
 10
359.7
 20
205.653
 11
358.309
 21
206.905
  0
LINE
  8
0
 10
358.309
 20
206.905
 11
357.548
 21
208.614
  0
LINE
  8
0
 10
357.548
 20
208.614
 11
357.548
 21
210.486
  0
LINE
  8
0
 10
357.548
 20
210.486
 11
358.309
 21
212.195
  0
LINE
  8
0
 10
358.309
 20
212.195
 11
359.7
 21
213.447
  0
LINE
  8
0
 10
359.7
 20
213.447
 11
361.48
 21
214.025
  0
LINE
  8
0
 10
361.48
 20
214.025
 11
363.341
 21
213.83
  0
LINE
  8
0
 10
363.341
 20
213.83
 11
364.961
 21
212.894
  0
LINE
  8
0
 10
364.961
 20
212.894
 11
366.061
 21
211.38
  0
LINE
  8
0
 10
366.061
 20
211.38
 11
366.45
 21
209.55
  0
LINE
  8
0
 10
366.45
 20
209.55
 11
366.061
 21
207.72
  0
LINE
  8
0
 10
366.061
 20
207.72
 11
364.961
 21
206.206
  0
LINE
  8
0
 10
364.961
 20
206.206
 11
363.341
 21
205.27
  0
LINE
  8
0
 10
363.341
 20
205.27
 11
361.48
 21
205.075
  0
LINE
  8
0
 10
361.48
 20
205.075
 11
359.7
 21
205.653
  0
LINE
  8
0
 10
283.5
 20
205.653
 11
282.109
 21
206.905
  0
LINE
  8
0
 10
282.109
 20
206.905
 11
281.348
 21
208.614
  0
LINE
  8
0
 10
281.348
 20
208.614
 11
281.348
 21
210.486
  0
LINE
  8
0
 10
281.348
 20
210.486
 11
282.109
 21
212.195
  0
LINE
  8
0
 10
282.109
 20
212.195
 11
283.5
 21
213.447
  0
LINE
  8
0
 10
283.5
 20
213.447
 11
285.28
 21
214.025
  0
LINE
  8
0
 10
285.28
 20
214.025
 11
287.141
 21
213.83
  0
LINE
  8
0
 10
287.141
 20
213.83
 11
288.761
 21
212.894
  0
LINE
  8
0
 10
288.761
 20
212.894
 11
289.861
 21
211.38
  0
LINE
  8
0
 10
289.861
 20
211.38
 11
290.25
 21
209.55
  0
LINE
  8
0
 10
290.25
 20
209.55
 11
289.861
 21
207.72
  0
LINE
  8
0
 10
289.861
 20
207.72
 11
288.761
 21
206.206
  0
LINE
  8
0
 10
288.761
 20
206.206
 11
287.141
 21
205.27
  0
LINE
  8
0
 10
287.141
 20
205.27
 11
285.28
 21
205.075
  0
LINE
  8
0
 10
285.28
 20
205.075
 11
283.5
 21
205.653
  0
LINE
  8
0
 10
245.4
 20
205.653
 11
244.009
 21
206.905
  0
LINE
  8
0
 10
244.009
 20
206.905
 11
243.248
 21
208.614
  0
LINE
  8
0
 10
243.248
 20
208.614
 11
243.248
 21
210.486
  0
LINE
  8
0
 10
243.248
 20
210.486
 11
244.009
 21
212.195
  0
LINE
  8
0
 10
244.009
 20
212.195
 11
245.4
 21
213.447
  0
LINE
  8
0
 10
245.4
 20
213.447
 11
247.18
 21
214.025
  0
LINE
  8
0
 10
247.18
 20
214.025
 11
249.041
 21
213.83
  0
LINE
  8
0
 10
249.041
 20
213.83
 11
250.661
 21
212.894
  0
LINE
  8
0
 10
250.661
 20
212.894
 11
251.761
 21
211.38
  0
LINE
  8
0
 10
251.761
 20
211.38
 11
252.15
 21
209.55
  0
LINE
  8
0
 10
252.15
 20
209.55
 11
251.761
 21
207.72
  0
LINE
  8
0
 10
251.761
 20
207.72
 11
250.661
 21
206.206
  0
LINE
  8
0
 10
250.661
 20
206.206
 11
249.041
 21
205.27
  0
LINE
  8
0
 10
249.041
 20
205.27
 11
247.18
 21
205.075
  0
LINE
  8
0
 10
247.18
 20
205.075
 11
245.4
 21
205.653
  0
LINE
  8
0
 10
207.3
 20
205.653
 11
205.909
 21
206.905
  0
LINE
  8
0
 10
205.909
 20
206.905
 11
205.148
 21
208.614
  0
LINE
  8
0
 10
205.148
 20
208.614
 11
205.148
 21
210.486
  0
LINE
  8
0
 10
205.148
 20
210.486
 11
205.909
 21
212.195
  0
LINE
  8
0
 10
205.909
 20
212.195
 11
207.3
 21
213.447
  0
LINE
  8
0
 10
207.3
 20
213.447
 11
209.08
 21
214.025
  0
LINE
  8
0
 10
209.08
 20
214.025
 11
210.941
 21
213.83
  0
LINE
  8
0
 10
210.941
 20
213.83
 11
212.561
 21
212.894
  0
LINE
  8
0
 10
212.561
 20
212.894
 11
213.661
 21
211.38
  0
LINE
  8
0
 10
213.661
 20
211.38
 11
214.05
 21
209.55
  0
LINE
  8
0
 10
214.05
 20
209.55
 11
213.661
 21
207.72
  0
LINE
  8
0
 10
213.661
 20
207.72
 11
212.561
 21
206.206
  0
LINE
  8
0
 10
212.561
 20
206.206
 11
210.941
 21
205.27
  0
LINE
  8
0
 10
210.941
 20
205.27
 11
209.08
 21
205.075
  0
LINE
  8
0
 10
209.08
 20
205.075
 11
207.3
 21
205.653
  0
LINE
  8
0
 10
169.2
 20
205.653
 11
167.809
 21
206.905
  0
LINE
  8
0
 10
167.809
 20
206.905
 11
167.048
 21
208.614
  0
LINE
  8
0
 10
167.048
 20
208.614
 11
167.048
 21
210.486
  0
LINE
  8
0
 10
167.048
 20
210.486
 11
167.809
 21
212.195
  0
LINE
  8
0
 10
167.809
 20
212.195
 11
169.2
 21
213.447
  0
LINE
  8
0
 10
169.2
 20
213.447
 11
170.98
 21
214.025
  0
LINE
  8
0
 10
170.98
 20
214.025
 11
172.841
 21
213.83
  0
LINE
  8
0
 10
172.841
 20
213.83
 11
174.461
 21
212.894
  0
LINE
  8
0
 10
174.461
 20
212.894
 11
175.561
 21
211.38
  0
LINE
  8
0
 10
175.561
 20
211.38
 11
175.95
 21
209.55
  0
LINE
  8
0
 10
175.95
 20
209.55
 11
175.561
 21
207.72
  0
LINE
  8
0
 10
175.561
 20
207.72
 11
174.461
 21
206.206
  0
LINE
  8
0
 10
174.461
 20
206.206
 11
172.841
 21
205.27
  0
LINE
  8
0
 10
172.841
 20
205.27
 11
170.98
 21
205.075
  0
LINE
  8
0
 10
170.98
 20
205.075
 11
169.2
 21
205.653
  0
LINE
  8
0
 10
131.1
 20
205.653
 11
129.709
 21
206.905
  0
LINE
  8
0
 10
129.709
 20
206.905
 11
128.948
 21
208.614
  0
LINE
  8
0
 10
128.948
 20
208.614
 11
128.948
 21
210.486
  0
LINE
  8
0
 10
128.948
 20
210.486
 11
129.709
 21
212.195
  0
LINE
  8
0
 10
129.709
 20
212.195
 11
131.1
 21
213.447
  0
LINE
  8
0
 10
131.1
 20
213.447
 11
132.88
 21
214.025
  0
LINE
  8
0
 10
132.88
 20
214.025
 11
134.741
 21
213.83
  0
LINE
  8
0
 10
134.741
 20
213.83
 11
136.361
 21
212.894
  0
LINE
  8
0
 10
136.361
 20
212.894
 11
137.461
 21
211.38
  0
LINE
  8
0
 10
137.461
 20
211.38
 11
137.85
 21
209.55
  0
LINE
  8
0
 10
137.85
 20
209.55
 11
137.461
 21
207.72
  0
LINE
  8
0
 10
137.461
 20
207.72
 11
136.361
 21
206.206
  0
LINE
  8
0
 10
136.361
 20
206.206
 11
134.741
 21
205.27
  0
LINE
  8
0
 10
134.741
 20
205.27
 11
132.88
 21
205.075
  0
LINE
  8
0
 10
132.88
 20
205.075
 11
131.1
 21
205.653
  0
LINE
  8
0
 10
93
 20
205.653
 11
91.6094
 21
206.905
  0
LINE
  8
0
 10
91.6094
 20
206.905
 11
90.8483
 21
208.614
  0
LINE
  8
0
 10
90.8483
 20
208.614
 11
90.8483
 21
210.486
  0
LINE
  8
0
 10
90.8483
 20
210.486
 11
91.6094
 21
212.195
  0
LINE
  8
0
 10
91.6094
 20
212.195
 11
93
 21
213.447
  0
LINE
  8
0
 10
93
 20
213.447
 11
94.7796
 21
214.025
  0
LINE
  8
0
 10
94.7796
 20
214.025
 11
96.6406
 21
213.83
  0
LINE
  8
0
 10
96.6406
 20
213.83
 11
98.2611
 21
212.894
  0
LINE
  8
0
 10
98.2611
 20
212.894
 11
99.3609
 21
211.38
  0
LINE
  8
0
 10
99.3609
 20
211.38
 11
99.75
 21
209.55
  0
LINE
  8
0
 10
99.75
 20
209.55
 11
99.3609
 21
207.72
  0
LINE
  8
0
 10
99.3609
 20
207.72
 11
98.2611
 21
206.206
  0
LINE
  8
0
 10
98.2611
 20
206.206
 11
96.6406
 21
205.27
  0
LINE
  8
0
 10
96.6406
 20
205.27
 11
94.7796
 21
205.075
  0
LINE
  8
0
 10
94.7796
 20
205.075
 11
93
 21
205.653
  0
LINE
  8
0
 10
54.9
 20
205.653
 11
53.5094
 21
206.905
  0
LINE
  8
0
 10
53.5094
 20
206.905
 11
52.7483
 21
208.614
  0
LINE
  8
0
 10
52.7483
 20
208.614
 11
52.7483
 21
210.486
  0
LINE
  8
0
 10
52.7483
 20
210.486
 11
53.5094
 21
212.195
  0
LINE
  8
0
 10
53.5094
 20
212.195
 11
54.9
 21
213.447
  0
LINE
  8
0
 10
54.9
 20
213.447
 11
56.6796
 21
214.025
  0
LINE
  8
0
 10
56.6796
 20
214.025
 11
58.5406
 21
213.83
  0
LINE
  8
0
 10
58.5406
 20
213.83
 11
60.1611
 21
212.894
  0
LINE
  8
0
 10
60.1611
 20
212.894
 11
61.2609
 21
211.38
  0
LINE
  8
0
 10
61.2609
 20
211.38
 11
61.65
 21
209.55
  0
LINE
  8
0
 10
61.65
 20
209.55
 11
61.2609
 21
207.72
  0
LINE
  8
0
 10
61.2609
 20
207.72
 11
60.1611
 21
206.206
  0
LINE
  8
0
 10
60.1611
 20
206.206
 11
58.5406
 21
205.27
  0
LINE
  8
0
 10
58.5406
 20
205.27
 11
56.6796
 21
205.075
  0
LINE
  8
0
 10
56.6796
 20
205.075
 11
54.9
 21
205.653
  0
LINE
  8
0
 10
321.6
 20
205.653
 11
320.209
 21
206.905
  0
LINE
  8
0
 10
320.209
 20
206.905
 11
319.448
 21
208.614
  0
LINE
  8
0
 10
319.448
 20
208.614
 11
319.448
 21
210.486
  0
LINE
  8
0
 10
319.448
 20
210.486
 11
320.209
 21
212.195
  0
LINE
  8
0
 10
320.209
 20
212.195
 11
321.6
 21
213.447
  0
LINE
  8
0
 10
321.6
 20
213.447
 11
323.38
 21
214.025
  0
LINE
  8
0
 10
323.38
 20
214.025
 11
325.241
 21
213.83
  0
LINE
  8
0
 10
325.241
 20
213.83
 11
326.861
 21
212.894
  0
LINE
  8
0
 10
326.861
 20
212.894
 11
327.961
 21
211.38
  0
LINE
  8
0
 10
327.961
 20
211.38
 11
328.35
 21
209.55
  0
LINE
  8
0
 10
328.35
 20
209.55
 11
327.961
 21
207.72
  0
LINE
  8
0
 10
327.961
 20
207.72
 11
326.861
 21
206.206
  0
LINE
  8
0
 10
326.861
 20
206.206
 11
325.241
 21
205.27
  0
LINE
  8
0
 10
325.241
 20
205.27
 11
323.38
 21
205.075
  0
LINE
  8
0
 10
323.38
 20
205.075
 11
321.6
 21
205.653
  0
LINE
  8
0
 10
245.4
 20
167.553
 11
244.009
 21
168.805
  0
LINE
  8
0
 10
244.009
 20
168.805
 11
243.248
 21
170.514
  0
LINE
  8
0
 10
243.248
 20
170.514
 11
243.248
 21
172.386
  0
LINE
  8
0
 10
243.248
 20
172.386
 11
244.009
 21
174.095
  0
LINE
  8
0
 10
244.009
 20
174.095
 11
245.4
 21
175.347
  0
LINE
  8
0
 10
245.4
 20
175.347
 11
247.18
 21
175.925
  0
LINE
  8
0
 10
247.18
 20
175.925
 11
249.041
 21
175.73
  0
LINE
  8
0
 10
249.041
 20
175.73
 11
250.661
 21
174.794
  0
LINE
  8
0
 10
250.661
 20
174.794
 11
251.761
 21
173.28
  0
LINE
  8
0
 10
251.761
 20
173.28
 11
252.15
 21
171.45
  0
LINE
  8
0
 10
252.15
 20
171.45
 11
251.761
 21
169.62
  0
LINE
  8
0
 10
251.761
 20
169.62
 11
250.661
 21
168.106
  0
LINE
  8
0
 10
250.661
 20
168.106
 11
249.041
 21
167.17
  0
LINE
  8
0
 10
249.041
 20
167.17
 11
247.18
 21
166.975
  0
LINE
  8
0
 10
247.18
 20
166.975
 11
245.4
 21
167.553
  0
LINE
  8
0
 10
512.1
 20
167.553
 11
510.709
 21
168.805
  0
LINE
  8
0
 10
510.709
 20
168.805
 11
509.948
 21
170.514
  0
LINE
  8
0
 10
509.948
 20
170.514
 11
509.948
 21
172.386
  0
LINE
  8
0
 10
509.948
 20
172.386
 11
510.709
 21
174.095
  0
LINE
  8
0
 10
510.709
 20
174.095
 11
512.1
 21
175.347
  0
LINE
  8
0
 10
512.1
 20
175.347
 11
513.88
 21
175.925
  0
LINE
  8
0
 10
513.88
 20
175.925
 11
515.741
 21
175.73
  0
LINE
  8
0
 10
515.741
 20
175.73
 11
517.361
 21
174.794
  0
LINE
  8
0
 10
517.361
 20
174.794
 11
518.461
 21
173.28
  0
LINE
  8
0
 10
518.461
 20
173.28
 11
518.85
 21
171.45
  0
LINE
  8
0
 10
518.85
 20
171.45
 11
518.461
 21
169.62
  0
LINE
  8
0
 10
518.461
 20
169.62
 11
517.361
 21
168.106
  0
LINE
  8
0
 10
517.361
 20
168.106
 11
515.741
 21
167.17
  0
LINE
  8
0
 10
515.741
 20
167.17
 11
513.88
 21
166.975
  0
LINE
  8
0
 10
513.88
 20
166.975
 11
512.1
 21
167.553
  0
LINE
  8
0
 10
474
 20
167.553
 11
472.609
 21
168.805
  0
LINE
  8
0
 10
472.609
 20
168.805
 11
471.848
 21
170.514
  0
LINE
  8
0
 10
471.848
 20
170.514
 11
471.848
 21
172.386
  0
LINE
  8
0
 10
471.848
 20
172.386
 11
472.609
 21
174.095
  0
LINE
  8
0
 10
472.609
 20
174.095
 11
474
 21
175.347
  0
LINE
  8
0
 10
474
 20
175.347
 11
475.78
 21
175.925
  0
LINE
  8
0
 10
475.78
 20
175.925
 11
477.641
 21
175.73
  0
LINE
  8
0
 10
477.641
 20
175.73
 11
479.261
 21
174.794
  0
LINE
  8
0
 10
479.261
 20
174.794
 11
480.361
 21
173.28
  0
LINE
  8
0
 10
480.361
 20
173.28
 11
480.75
 21
171.45
  0
LINE
  8
0
 10
480.75
 20
171.45
 11
480.361
 21
169.62
  0
LINE
  8
0
 10
480.361
 20
169.62
 11
479.261
 21
168.106
  0
LINE
  8
0
 10
479.261
 20
168.106
 11
477.641
 21
167.17
  0
LINE
  8
0
 10
477.641
 20
167.17
 11
475.78
 21
166.975
  0
LINE
  8
0
 10
475.78
 20
166.975
 11
474
 21
167.553
  0
LINE
  8
0
 10
435.9
 20
167.553
 11
434.509
 21
168.805
  0
LINE
  8
0
 10
434.509
 20
168.805
 11
433.748
 21
170.514
  0
LINE
  8
0
 10
433.748
 20
170.514
 11
433.748
 21
172.386
  0
LINE
  8
0
 10
433.748
 20
172.386
 11
434.509
 21
174.095
  0
LINE
  8
0
 10
434.509
 20
174.095
 11
435.9
 21
175.347
  0
LINE
  8
0
 10
435.9
 20
175.347
 11
437.68
 21
175.925
  0
LINE
  8
0
 10
437.68
 20
175.925
 11
439.541
 21
175.73
  0
LINE
  8
0
 10
439.541
 20
175.73
 11
441.161
 21
174.794
  0
LINE
  8
0
 10
441.161
 20
174.794
 11
442.261
 21
173.28
  0
LINE
  8
0
 10
442.261
 20
173.28
 11
442.65
 21
171.45
  0
LINE
  8
0
 10
442.65
 20
171.45
 11
442.261
 21
169.62
  0
LINE
  8
0
 10
442.261
 20
169.62
 11
441.161
 21
168.106
  0
LINE
  8
0
 10
441.161
 20
168.106
 11
439.541
 21
167.17
  0
LINE
  8
0
 10
439.541
 20
167.17
 11
437.68
 21
166.975
  0
LINE
  8
0
 10
437.68
 20
166.975
 11
435.9
 21
167.553
  0
LINE
  8
0
 10
397.8
 20
167.553
 11
396.409
 21
168.805
  0
LINE
  8
0
 10
396.409
 20
168.805
 11
395.648
 21
170.514
  0
LINE
  8
0
 10
395.648
 20
170.514
 11
395.648
 21
172.386
  0
LINE
  8
0
 10
395.648
 20
172.386
 11
396.409
 21
174.095
  0
LINE
  8
0
 10
396.409
 20
174.095
 11
397.8
 21
175.347
  0
LINE
  8
0
 10
397.8
 20
175.347
 11
399.58
 21
175.925
  0
LINE
  8
0
 10
399.58
 20
175.925
 11
401.441
 21
175.73
  0
LINE
  8
0
 10
401.441
 20
175.73
 11
403.061
 21
174.794
  0
LINE
  8
0
 10
403.061
 20
174.794
 11
404.161
 21
173.28
  0
LINE
  8
0
 10
404.161
 20
173.28
 11
404.55
 21
171.45
  0
LINE
  8
0
 10
404.55
 20
171.45
 11
404.161
 21
169.62
  0
LINE
  8
0
 10
404.161
 20
169.62
 11
403.061
 21
168.106
  0
LINE
  8
0
 10
403.061
 20
168.106
 11
401.441
 21
167.17
  0
LINE
  8
0
 10
401.441
 20
167.17
 11
399.58
 21
166.975
  0
LINE
  8
0
 10
399.58
 20
166.975
 11
397.8
 21
167.553
  0
LINE
  8
0
 10
359.7
 20
167.553
 11
358.309
 21
168.805
  0
LINE
  8
0
 10
358.309
 20
168.805
 11
357.548
 21
170.514
  0
LINE
  8
0
 10
357.548
 20
170.514
 11
357.548
 21
172.386
  0
LINE
  8
0
 10
357.548
 20
172.386
 11
358.309
 21
174.095
  0
LINE
  8
0
 10
358.309
 20
174.095
 11
359.7
 21
175.347
  0
LINE
  8
0
 10
359.7
 20
175.347
 11
361.48
 21
175.925
  0
LINE
  8
0
 10
361.48
 20
175.925
 11
363.341
 21
175.73
  0
LINE
  8
0
 10
363.341
 20
175.73
 11
364.961
 21
174.794
  0
LINE
  8
0
 10
364.961
 20
174.794
 11
366.061
 21
173.28
  0
LINE
  8
0
 10
366.061
 20
173.28
 11
366.45
 21
171.45
  0
LINE
  8
0
 10
366.45
 20
171.45
 11
366.061
 21
169.62
  0
LINE
  8
0
 10
366.061
 20
169.62
 11
364.961
 21
168.106
  0
LINE
  8
0
 10
364.961
 20
168.106
 11
363.341
 21
167.17
  0
LINE
  8
0
 10
363.341
 20
167.17
 11
361.48
 21
166.975
  0
LINE
  8
0
 10
361.48
 20
166.975
 11
359.7
 21
167.553
  0
LINE
  8
0
 10
321.6
 20
167.553
 11
320.209
 21
168.805
  0
LINE
  8
0
 10
320.209
 20
168.805
 11
319.448
 21
170.514
  0
LINE
  8
0
 10
319.448
 20
170.514
 11
319.448
 21
172.386
  0
LINE
  8
0
 10
319.448
 20
172.386
 11
320.209
 21
174.095
  0
LINE
  8
0
 10
320.209
 20
174.095
 11
321.6
 21
175.347
  0
LINE
  8
0
 10
321.6
 20
175.347
 11
323.38
 21
175.925
  0
LINE
  8
0
 10
323.38
 20
175.925
 11
325.241
 21
175.73
  0
LINE
  8
0
 10
325.241
 20
175.73
 11
326.861
 21
174.794
  0
LINE
  8
0
 10
326.861
 20
174.794
 11
327.961
 21
173.28
  0
LINE
  8
0
 10
327.961
 20
173.28
 11
328.35
 21
171.45
  0
LINE
  8
0
 10
328.35
 20
171.45
 11
327.961
 21
169.62
  0
LINE
  8
0
 10
327.961
 20
169.62
 11
326.861
 21
168.106
  0
LINE
  8
0
 10
326.861
 20
168.106
 11
325.241
 21
167.17
  0
LINE
  8
0
 10
325.241
 20
167.17
 11
323.38
 21
166.975
  0
LINE
  8
0
 10
323.38
 20
166.975
 11
321.6
 21
167.553
  0
LINE
  8
0
 10
283.5
 20
167.553
 11
282.109
 21
168.805
  0
LINE
  8
0
 10
282.109
 20
168.805
 11
281.348
 21
170.514
  0
LINE
  8
0
 10
281.348
 20
170.514
 11
281.348
 21
172.386
  0
LINE
  8
0
 10
281.348
 20
172.386
 11
282.109
 21
174.095
  0
LINE
  8
0
 10
282.109
 20
174.095
 11
283.5
 21
175.347
  0
LINE
  8
0
 10
283.5
 20
175.347
 11
285.28
 21
175.925
  0
LINE
  8
0
 10
285.28
 20
175.925
 11
287.141
 21
175.73
  0
LINE
  8
0
 10
287.141
 20
175.73
 11
288.761
 21
174.794
  0
LINE
  8
0
 10
288.761
 20
174.794
 11
289.861
 21
173.28
  0
LINE
  8
0
 10
289.861
 20
173.28
 11
290.25
 21
171.45
  0
LINE
  8
0
 10
290.25
 20
171.45
 11
289.861
 21
169.62
  0
LINE
  8
0
 10
289.861
 20
169.62
 11
288.761
 21
168.106
  0
LINE
  8
0
 10
288.761
 20
168.106
 11
287.141
 21
167.17
  0
LINE
  8
0
 10
287.141
 20
167.17
 11
285.28
 21
166.975
  0
LINE
  8
0
 10
285.28
 20
166.975
 11
283.5
 21
167.553
  0
LINE
  8
0
 10
207.3
 20
167.553
 11
205.909
 21
168.805
  0
LINE
  8
0
 10
205.909
 20
168.805
 11
205.148
 21
170.514
  0
LINE
  8
0
 10
205.148
 20
170.514
 11
205.148
 21
172.386
  0
LINE
  8
0
 10
205.148
 20
172.386
 11
205.909
 21
174.095
  0
LINE
  8
0
 10
205.909
 20
174.095
 11
207.3
 21
175.347
  0
LINE
  8
0
 10
207.3
 20
175.347
 11
209.08
 21
175.925
  0
LINE
  8
0
 10
209.08
 20
175.925
 11
210.941
 21
175.73
  0
LINE
  8
0
 10
210.941
 20
175.73
 11
212.561
 21
174.794
  0
LINE
  8
0
 10
212.561
 20
174.794
 11
213.661
 21
173.28
  0
LINE
  8
0
 10
213.661
 20
173.28
 11
214.05
 21
171.45
  0
LINE
  8
0
 10
214.05
 20
171.45
 11
213.661
 21
169.62
  0
LINE
  8
0
 10
213.661
 20
169.62
 11
212.561
 21
168.106
  0
LINE
  8
0
 10
212.561
 20
168.106
 11
210.941
 21
167.17
  0
LINE
  8
0
 10
210.941
 20
167.17
 11
209.08
 21
166.975
  0
LINE
  8
0
 10
209.08
 20
166.975
 11
207.3
 21
167.553
  0
LINE
  8
0
 10
169.2
 20
167.553
 11
167.809
 21
168.805
  0
LINE
  8
0
 10
167.809
 20
168.805
 11
167.048
 21
170.514
  0
LINE
  8
0
 10
167.048
 20
170.514
 11
167.048
 21
172.386
  0
LINE
  8
0
 10
167.048
 20
172.386
 11
167.809
 21
174.095
  0
LINE
  8
0
 10
167.809
 20
174.095
 11
169.2
 21
175.347
  0
LINE
  8
0
 10
169.2
 20
175.347
 11
170.98
 21
175.925
  0
LINE
  8
0
 10
170.98
 20
175.925
 11
172.841
 21
175.73
  0
LINE
  8
0
 10
172.841
 20
175.73
 11
174.461
 21
174.794
  0
LINE
  8
0
 10
174.461
 20
174.794
 11
175.561
 21
173.28
  0
LINE
  8
0
 10
175.561
 20
173.28
 11
175.95
 21
171.45
  0
LINE
  8
0
 10
175.95
 20
171.45
 11
175.561
 21
169.62
  0
LINE
  8
0
 10
175.561
 20
169.62
 11
174.461
 21
168.106
  0
LINE
  8
0
 10
174.461
 20
168.106
 11
172.841
 21
167.17
  0
LINE
  8
0
 10
172.841
 20
167.17
 11
170.98
 21
166.975
  0
LINE
  8
0
 10
170.98
 20
166.975
 11
169.2
 21
167.553
  0
LINE
  8
0
 10
131.1
 20
167.553
 11
129.709
 21
168.805
  0
LINE
  8
0
 10
129.709
 20
168.805
 11
128.948
 21
170.514
  0
LINE
  8
0
 10
128.948
 20
170.514
 11
128.948
 21
172.386
  0
LINE
  8
0
 10
128.948
 20
172.386
 11
129.709
 21
174.095
  0
LINE
  8
0
 10
129.709
 20
174.095
 11
131.1
 21
175.347
  0
LINE
  8
0
 10
131.1
 20
175.347
 11
132.88
 21
175.925
  0
LINE
  8
0
 10
132.88
 20
175.925
 11
134.741
 21
175.73
  0
LINE
  8
0
 10
134.741
 20
175.73
 11
136.361
 21
174.794
  0
LINE
  8
0
 10
136.361
 20
174.794
 11
137.461
 21
173.28
  0
LINE
  8
0
 10
137.461
 20
173.28
 11
137.85
 21
171.45
  0
LINE
  8
0
 10
137.85
 20
171.45
 11
137.461
 21
169.62
  0
LINE
  8
0
 10
137.461
 20
169.62
 11
136.361
 21
168.106
  0
LINE
  8
0
 10
136.361
 20
168.106
 11
134.741
 21
167.17
  0
LINE
  8
0
 10
134.741
 20
167.17
 11
132.88
 21
166.975
  0
LINE
  8
0
 10
132.88
 20
166.975
 11
131.1
 21
167.553
  0
LINE
  8
0
 10
93
 20
167.553
 11
91.6094
 21
168.805
  0
LINE
  8
0
 10
91.6094
 20
168.805
 11
90.8483
 21
170.514
  0
LINE
  8
0
 10
90.8483
 20
170.514
 11
90.8483
 21
172.386
  0
LINE
  8
0
 10
90.8483
 20
172.386
 11
91.6094
 21
174.095
  0
LINE
  8
0
 10
91.6094
 20
174.095
 11
93
 21
175.347
  0
LINE
  8
0
 10
93
 20
175.347
 11
94.7796
 21
175.925
  0
LINE
  8
0
 10
94.7796
 20
175.925
 11
96.6406
 21
175.73
  0
LINE
  8
0
 10
96.6406
 20
175.73
 11
98.2611
 21
174.794
  0
LINE
  8
0
 10
98.2611
 20
174.794
 11
99.3609
 21
173.28
  0
LINE
  8
0
 10
99.3609
 20
173.28
 11
99.75
 21
171.45
  0
LINE
  8
0
 10
99.75
 20
171.45
 11
99.3609
 21
169.62
  0
LINE
  8
0
 10
99.3609
 20
169.62
 11
98.2611
 21
168.106
  0
LINE
  8
0
 10
98.2611
 20
168.106
 11
96.6406
 21
167.17
  0
LINE
  8
0
 10
96.6406
 20
167.17
 11
94.7796
 21
166.975
  0
LINE
  8
0
 10
94.7796
 20
166.975
 11
93
 21
167.553
  0
LINE
  8
0
 10
54.9
 20
167.553
 11
53.5094
 21
168.805
  0
LINE
  8
0
 10
53.5094
 20
168.805
 11
52.7483
 21
170.514
  0
LINE
  8
0
 10
52.7483
 20
170.514
 11
52.7483
 21
172.386
  0
LINE
  8
0
 10
52.7483
 20
172.386
 11
53.5094
 21
174.095
  0
LINE
  8
0
 10
53.5094
 20
174.095
 11
54.9
 21
175.347
  0
LINE
  8
0
 10
54.9
 20
175.347
 11
56.6796
 21
175.925
  0
LINE
  8
0
 10
56.6796
 20
175.925
 11
58.5406
 21
175.73
  0
LINE
  8
0
 10
58.5406
 20
175.73
 11
60.1611
 21
174.794
  0
LINE
  8
0
 10
60.1611
 20
174.794
 11
61.2609
 21
173.28
  0
LINE
  8
0
 10
61.2609
 20
173.28
 11
61.65
 21
171.45
  0
LINE
  8
0
 10
61.65
 20
171.45
 11
61.2609
 21
169.62
  0
LINE
  8
0
 10
61.2609
 20
169.62
 11
60.1611
 21
168.106
  0
LINE
  8
0
 10
60.1611
 20
168.106
 11
58.5406
 21
167.17
  0
LINE
  8
0
 10
58.5406
 20
167.17
 11
56.6796
 21
166.975
  0
LINE
  8
0
 10
56.6796
 20
166.975
 11
54.9
 21
167.553
  0
LINE
  8
0
 10
16.8
 20
167.553
 11
15.4094
 21
168.805
  0
LINE
  8
0
 10
15.4094
 20
168.805
 11
14.6483
 21
170.514
  0
LINE
  8
0
 10
14.6483
 20
170.514
 11
14.6483
 21
172.386
  0
LINE
  8
0
 10
14.6483
 20
172.386
 11
15.4094
 21
174.095
  0
LINE
  8
0
 10
15.4094
 20
174.095
 11
16.8
 21
175.347
  0
LINE
  8
0
 10
16.8
 20
175.347
 11
18.5796
 21
175.925
  0
LINE
  8
0
 10
18.5796
 20
175.925
 11
20.4406
 21
175.73
  0
LINE
  8
0
 10
20.4406
 20
175.73
 11
22.0611
 21
174.794
  0
LINE
  8
0
 10
22.0611
 20
174.794
 11
23.1609
 21
173.28
  0
LINE
  8
0
 10
23.1609
 20
173.28
 11
23.55
 21
171.45
  0
LINE
  8
0
 10
23.55
 20
171.45
 11
23.1609
 21
169.62
  0
LINE
  8
0
 10
23.1609
 20
169.62
 11
22.0611
 21
168.106
  0
LINE
  8
0
 10
22.0611
 20
168.106
 11
20.4406
 21
167.17
  0
LINE
  8
0
 10
20.4406
 20
167.17
 11
18.5796
 21
166.975
  0
LINE
  8
0
 10
18.5796
 20
166.975
 11
16.8
 21
167.553
  0
LINE
  8
0
 10
550.2
 20
167.553
 11
548.809
 21
168.805
  0
LINE
  8
0
 10
548.809
 20
168.805
 11
548.048
 21
170.514
  0
LINE
  8
0
 10
548.048
 20
170.514
 11
548.048
 21
172.386
  0
LINE
  8
0
 10
548.048
 20
172.386
 11
548.809
 21
174.095
  0
LINE
  8
0
 10
548.809
 20
174.095
 11
550.2
 21
175.347
  0
LINE
  8
0
 10
550.2
 20
175.347
 11
551.98
 21
175.925
  0
LINE
  8
0
 10
551.98
 20
175.925
 11
553.841
 21
175.73
  0
LINE
  8
0
 10
553.841
 20
175.73
 11
555.461
 21
174.794
  0
LINE
  8
0
 10
555.461
 20
174.794
 11
556.561
 21
173.28
  0
LINE
  8
0
 10
556.561
 20
173.28
 11
556.95
 21
171.45
  0
LINE
  8
0
 10
556.95
 20
171.45
 11
556.561
 21
169.62
  0
LINE
  8
0
 10
556.561
 20
169.62
 11
555.461
 21
168.106
  0
LINE
  8
0
 10
555.461
 20
168.106
 11
553.841
 21
167.17
  0
LINE
  8
0
 10
553.841
 20
167.17
 11
551.98
 21
166.975
  0
LINE
  8
0
 10
551.98
 20
166.975
 11
550.2
 21
167.553
  0
LINE
  8
0
 10
435.9
 20
129.453
 11
434.509
 21
130.705
  0
LINE
  8
0
 10
434.509
 20
130.705
 11
433.748
 21
132.414
  0
LINE
  8
0
 10
433.748
 20
132.414
 11
433.748
 21
134.286
  0
LINE
  8
0
 10
433.748
 20
134.286
 11
434.509
 21
135.995
  0
LINE
  8
0
 10
434.509
 20
135.995
 11
435.9
 21
137.247
  0
LINE
  8
0
 10
435.9
 20
137.247
 11
437.68
 21
137.825
  0
LINE
  8
0
 10
437.68
 20
137.825
 11
439.541
 21
137.63
  0
LINE
  8
0
 10
439.541
 20
137.63
 11
441.161
 21
136.694
  0
LINE
  8
0
 10
441.161
 20
136.694
 11
442.261
 21
135.18
  0
LINE
  8
0
 10
442.261
 20
135.18
 11
442.65
 21
133.35
  0
LINE
  8
0
 10
442.65
 20
133.35
 11
442.261
 21
131.52
  0
LINE
  8
0
 10
442.261
 20
131.52
 11
441.161
 21
130.006
  0
LINE
  8
0
 10
441.161
 20
130.006
 11
439.541
 21
129.07
  0
LINE
  8
0
 10
439.541
 20
129.07
 11
437.68
 21
128.875
  0
LINE
  8
0
 10
437.68
 20
128.875
 11
435.9
 21
129.453
  0
LINE
  8
0
 10
550.2
 20
129.453
 11
548.809
 21
130.705
  0
LINE
  8
0
 10
548.809
 20
130.705
 11
548.048
 21
132.414
  0
LINE
  8
0
 10
548.048
 20
132.414
 11
548.048
 21
134.286
  0
LINE
  8
0
 10
548.048
 20
134.286
 11
548.809
 21
135.995
  0
LINE
  8
0
 10
548.809
 20
135.995
 11
550.2
 21
137.247
  0
LINE
  8
0
 10
550.2
 20
137.247
 11
551.98
 21
137.825
  0
LINE
  8
0
 10
551.98
 20
137.825
 11
553.841
 21
137.63
  0
LINE
  8
0
 10
553.841
 20
137.63
 11
555.461
 21
136.694
  0
LINE
  8
0
 10
555.461
 20
136.694
 11
556.561
 21
135.18
  0
LINE
  8
0
 10
556.561
 20
135.18
 11
556.95
 21
133.35
  0
LINE
  8
0
 10
556.95
 20
133.35
 11
556.561
 21
131.52
  0
LINE
  8
0
 10
556.561
 20
131.52
 11
555.461
 21
130.006
  0
LINE
  8
0
 10
555.461
 20
130.006
 11
553.841
 21
129.07
  0
LINE
  8
0
 10
553.841
 20
129.07
 11
551.98
 21
128.875
  0
LINE
  8
0
 10
551.98
 20
128.875
 11
550.2
 21
129.453
  0
LINE
  8
0
 10
512.1
 20
129.453
 11
510.709
 21
130.705
  0
LINE
  8
0
 10
510.709
 20
130.705
 11
509.948
 21
132.414
  0
LINE
  8
0
 10
509.948
 20
132.414
 11
509.948
 21
134.286
  0
LINE
  8
0
 10
509.948
 20
134.286
 11
510.709
 21
135.995
  0
LINE
  8
0
 10
510.709
 20
135.995
 11
512.1
 21
137.247
  0
LINE
  8
0
 10
512.1
 20
137.247
 11
513.88
 21
137.825
  0
LINE
  8
0
 10
513.88
 20
137.825
 11
515.741
 21
137.63
  0
LINE
  8
0
 10
515.741
 20
137.63
 11
517.361
 21
136.694
  0
LINE
  8
0
 10
517.361
 20
136.694
 11
518.461
 21
135.18
  0
LINE
  8
0
 10
518.461
 20
135.18
 11
518.85
 21
133.35
  0
LINE
  8
0
 10
518.85
 20
133.35
 11
518.461
 21
131.52
  0
LINE
  8
0
 10
518.461
 20
131.52
 11
517.361
 21
130.006
  0
LINE
  8
0
 10
517.361
 20
130.006
 11
515.741
 21
129.07
  0
LINE
  8
0
 10
515.741
 20
129.07
 11
513.88
 21
128.875
  0
LINE
  8
0
 10
513.88
 20
128.875
 11
512.1
 21
129.453
  0
LINE
  8
0
 10
474
 20
129.453
 11
472.609
 21
130.705
  0
LINE
  8
0
 10
472.609
 20
130.705
 11
471.848
 21
132.414
  0
LINE
  8
0
 10
471.848
 20
132.414
 11
471.848
 21
134.286
  0
LINE
  8
0
 10
471.848
 20
134.286
 11
472.609
 21
135.995
  0
LINE
  8
0
 10
472.609
 20
135.995
 11
474
 21
137.247
  0
LINE
  8
0
 10
474
 20
137.247
 11
475.78
 21
137.825
  0
LINE
  8
0
 10
475.78
 20
137.825
 11
477.641
 21
137.63
  0
LINE
  8
0
 10
477.641
 20
137.63
 11
479.261
 21
136.694
  0
LINE
  8
0
 10
479.261
 20
136.694
 11
480.361
 21
135.18
  0
LINE
  8
0
 10
480.361
 20
135.18
 11
480.75
 21
133.35
  0
LINE
  8
0
 10
480.75
 20
133.35
 11
480.361
 21
131.52
  0
LINE
  8
0
 10
480.361
 20
131.52
 11
479.261
 21
130.006
  0
LINE
  8
0
 10
479.261
 20
130.006
 11
477.641
 21
129.07
  0
LINE
  8
0
 10
477.641
 20
129.07
 11
475.78
 21
128.875
  0
LINE
  8
0
 10
475.78
 20
128.875
 11
474
 21
129.453
  0
LINE
  8
0
 10
397.8
 20
129.453
 11
396.409
 21
130.705
  0
LINE
  8
0
 10
396.409
 20
130.705
 11
395.648
 21
132.414
  0
LINE
  8
0
 10
395.648
 20
132.414
 11
395.648
 21
134.286
  0
LINE
  8
0
 10
395.648
 20
134.286
 11
396.409
 21
135.995
  0
LINE
  8
0
 10
396.409
 20
135.995
 11
397.8
 21
137.247
  0
LINE
  8
0
 10
397.8
 20
137.247
 11
399.58
 21
137.825
  0
LINE
  8
0
 10
399.58
 20
137.825
 11
401.441
 21
137.63
  0
LINE
  8
0
 10
401.441
 20
137.63
 11
403.061
 21
136.694
  0
LINE
  8
0
 10
403.061
 20
136.694
 11
404.161
 21
135.18
  0
LINE
  8
0
 10
404.161
 20
135.18
 11
404.55
 21
133.35
  0
LINE
  8
0
 10
404.55
 20
133.35
 11
404.161
 21
131.52
  0
LINE
  8
0
 10
404.161
 20
131.52
 11
403.061
 21
130.006
  0
LINE
  8
0
 10
403.061
 20
130.006
 11
401.441
 21
129.07
  0
LINE
  8
0
 10
401.441
 20
129.07
 11
399.58
 21
128.875
  0
LINE
  8
0
 10
399.58
 20
128.875
 11
397.8
 21
129.453
  0
LINE
  8
0
 10
359.7
 20
129.453
 11
358.309
 21
130.705
  0
LINE
  8
0
 10
358.309
 20
130.705
 11
357.548
 21
132.414
  0
LINE
  8
0
 10
357.548
 20
132.414
 11
357.548
 21
134.286
  0
LINE
  8
0
 10
357.548
 20
134.286
 11
358.309
 21
135.995
  0
LINE
  8
0
 10
358.309
 20
135.995
 11
359.7
 21
137.247
  0
LINE
  8
0
 10
359.7
 20
137.247
 11
361.48
 21
137.825
  0
LINE
  8
0
 10
361.48
 20
137.825
 11
363.341
 21
137.63
  0
LINE
  8
0
 10
363.341
 20
137.63
 11
364.961
 21
136.694
  0
LINE
  8
0
 10
364.961
 20
136.694
 11
366.061
 21
135.18
  0
LINE
  8
0
 10
366.061
 20
135.18
 11
366.45
 21
133.35
  0
LINE
  8
0
 10
366.45
 20
133.35
 11
366.061
 21
131.52
  0
LINE
  8
0
 10
366.061
 20
131.52
 11
364.961
 21
130.006
  0
LINE
  8
0
 10
364.961
 20
130.006
 11
363.341
 21
129.07
  0
LINE
  8
0
 10
363.341
 20
129.07
 11
361.48
 21
128.875
  0
LINE
  8
0
 10
361.48
 20
128.875
 11
359.7
 21
129.453
  0
LINE
  8
0
 10
321.6
 20
129.453
 11
320.209
 21
130.705
  0
LINE
  8
0
 10
320.209
 20
130.705
 11
319.448
 21
132.414
  0
LINE
  8
0
 10
319.448
 20
132.414
 11
319.448
 21
134.286
  0
LINE
  8
0
 10
319.448
 20
134.286
 11
320.209
 21
135.995
  0
LINE
  8
0
 10
320.209
 20
135.995
 11
321.6
 21
137.247
  0
LINE
  8
0
 10
321.6
 20
137.247
 11
323.38
 21
137.825
  0
LINE
  8
0
 10
323.38
 20
137.825
 11
325.241
 21
137.63
  0
LINE
  8
0
 10
325.241
 20
137.63
 11
326.861
 21
136.694
  0
LINE
  8
0
 10
326.861
 20
136.694
 11
327.961
 21
135.18
  0
LINE
  8
0
 10
327.961
 20
135.18
 11
328.35
 21
133.35
  0
LINE
  8
0
 10
328.35
 20
133.35
 11
327.961
 21
131.52
  0
LINE
  8
0
 10
327.961
 20
131.52
 11
326.861
 21
130.006
  0
LINE
  8
0
 10
326.861
 20
130.006
 11
325.241
 21
129.07
  0
LINE
  8
0
 10
325.241
 20
129.07
 11
323.38
 21
128.875
  0
LINE
  8
0
 10
323.38
 20
128.875
 11
321.6
 21
129.453
  0
LINE
  8
0
 10
283.5
 20
129.453
 11
282.109
 21
130.705
  0
LINE
  8
0
 10
282.109
 20
130.705
 11
281.348
 21
132.414
  0
LINE
  8
0
 10
281.348
 20
132.414
 11
281.348
 21
134.286
  0
LINE
  8
0
 10
281.348
 20
134.286
 11
282.109
 21
135.995
  0
LINE
  8
0
 10
282.109
 20
135.995
 11
283.5
 21
137.247
  0
LINE
  8
0
 10
283.5
 20
137.247
 11
285.28
 21
137.825
  0
LINE
  8
0
 10
285.28
 20
137.825
 11
287.141
 21
137.63
  0
LINE
  8
0
 10
287.141
 20
137.63
 11
288.761
 21
136.694
  0
LINE
  8
0
 10
288.761
 20
136.694
 11
289.861
 21
135.18
  0
LINE
  8
0
 10
289.861
 20
135.18
 11
290.25
 21
133.35
  0
LINE
  8
0
 10
290.25
 20
133.35
 11
289.861
 21
131.52
  0
LINE
  8
0
 10
289.861
 20
131.52
 11
288.761
 21
130.006
  0
LINE
  8
0
 10
288.761
 20
130.006
 11
287.141
 21
129.07
  0
LINE
  8
0
 10
287.141
 20
129.07
 11
285.28
 21
128.875
  0
LINE
  8
0
 10
285.28
 20
128.875
 11
283.5
 21
129.453
  0
LINE
  8
0
 10
245.4
 20
129.453
 11
244.009
 21
130.705
  0
LINE
  8
0
 10
244.009
 20
130.705
 11
243.248
 21
132.414
  0
LINE
  8
0
 10
243.248
 20
132.414
 11
243.248
 21
134.286
  0
LINE
  8
0
 10
243.248
 20
134.286
 11
244.009
 21
135.995
  0
LINE
  8
0
 10
244.009
 20
135.995
 11
245.4
 21
137.247
  0
LINE
  8
0
 10
245.4
 20
137.247
 11
247.18
 21
137.825
  0
LINE
  8
0
 10
247.18
 20
137.825
 11
249.041
 21
137.63
  0
LINE
  8
0
 10
249.041
 20
137.63
 11
250.661
 21
136.694
  0
LINE
  8
0
 10
250.661
 20
136.694
 11
251.761
 21
135.18
  0
LINE
  8
0
 10
251.761
 20
135.18
 11
252.15
 21
133.35
  0
LINE
  8
0
 10
252.15
 20
133.35
 11
251.761
 21
131.52
  0
LINE
  8
0
 10
251.761
 20
131.52
 11
250.661
 21
130.006
  0
LINE
  8
0
 10
250.661
 20
130.006
 11
249.041
 21
129.07
  0
LINE
  8
0
 10
249.041
 20
129.07
 11
247.18
 21
128.875
  0
LINE
  8
0
 10
247.18
 20
128.875
 11
245.4
 21
129.453
  0
LINE
  8
0
 10
207.3
 20
129.453
 11
205.909
 21
130.705
  0
LINE
  8
0
 10
205.909
 20
130.705
 11
205.148
 21
132.414
  0
LINE
  8
0
 10
205.148
 20
132.414
 11
205.148
 21
134.286
  0
LINE
  8
0
 10
205.148
 20
134.286
 11
205.909
 21
135.995
  0
LINE
  8
0
 10
205.909
 20
135.995
 11
207.3
 21
137.247
  0
LINE
  8
0
 10
207.3
 20
137.247
 11
209.08
 21
137.825
  0
LINE
  8
0
 10
209.08
 20
137.825
 11
210.941
 21
137.63
  0
LINE
  8
0
 10
210.941
 20
137.63
 11
212.561
 21
136.694
  0
LINE
  8
0
 10
212.561
 20
136.694
 11
213.661
 21
135.18
  0
LINE
  8
0
 10
213.661
 20
135.18
 11
214.05
 21
133.35
  0
LINE
  8
0
 10
214.05
 20
133.35
 11
213.661
 21
131.52
  0
LINE
  8
0
 10
213.661
 20
131.52
 11
212.561
 21
130.006
  0
LINE
  8
0
 10
212.561
 20
130.006
 11
210.941
 21
129.07
  0
LINE
  8
0
 10
210.941
 20
129.07
 11
209.08
 21
128.875
  0
LINE
  8
0
 10
209.08
 20
128.875
 11
207.3
 21
129.453
  0
LINE
  8
0
 10
169.2
 20
129.453
 11
167.809
 21
130.705
  0
LINE
  8
0
 10
167.809
 20
130.705
 11
167.048
 21
132.414
  0
LINE
  8
0
 10
167.048
 20
132.414
 11
167.048
 21
134.286
  0
LINE
  8
0
 10
167.048
 20
134.286
 11
167.809
 21
135.995
  0
LINE
  8
0
 10
167.809
 20
135.995
 11
169.2
 21
137.247
  0
LINE
  8
0
 10
169.2
 20
137.247
 11
170.98
 21
137.825
  0
LINE
  8
0
 10
170.98
 20
137.825
 11
172.841
 21
137.63
  0
LINE
  8
0
 10
172.841
 20
137.63
 11
174.461
 21
136.694
  0
LINE
  8
0
 10
174.461
 20
136.694
 11
175.561
 21
135.18
  0
LINE
  8
0
 10
175.561
 20
135.18
 11
175.95
 21
133.35
  0
LINE
  8
0
 10
175.95
 20
133.35
 11
175.561
 21
131.52
  0
LINE
  8
0
 10
175.561
 20
131.52
 11
174.461
 21
130.006
  0
LINE
  8
0
 10
174.461
 20
130.006
 11
172.841
 21
129.07
  0
LINE
  8
0
 10
172.841
 20
129.07
 11
170.98
 21
128.875
  0
LINE
  8
0
 10
170.98
 20
128.875
 11
169.2
 21
129.453
  0
LINE
  8
0
 10
131.1
 20
129.453
 11
129.709
 21
130.705
  0
LINE
  8
0
 10
129.709
 20
130.705
 11
128.948
 21
132.414
  0
LINE
  8
0
 10
128.948
 20
132.414
 11
128.948
 21
134.286
  0
LINE
  8
0
 10
128.948
 20
134.286
 11
129.709
 21
135.995
  0
LINE
  8
0
 10
129.709
 20
135.995
 11
131.1
 21
137.247
  0
LINE
  8
0
 10
131.1
 20
137.247
 11
132.88
 21
137.825
  0
LINE
  8
0
 10
132.88
 20
137.825
 11
134.741
 21
137.63
  0
LINE
  8
0
 10
134.741
 20
137.63
 11
136.361
 21
136.694
  0
LINE
  8
0
 10
136.361
 20
136.694
 11
137.461
 21
135.18
  0
LINE
  8
0
 10
137.461
 20
135.18
 11
137.85
 21
133.35
  0
LINE
  8
0
 10
137.85
 20
133.35
 11
137.461
 21
131.52
  0
LINE
  8
0
 10
137.461
 20
131.52
 11
136.361
 21
130.006
  0
LINE
  8
0
 10
136.361
 20
130.006
 11
134.741
 21
129.07
  0
LINE
  8
0
 10
134.741
 20
129.07
 11
132.88
 21
128.875
  0
LINE
  8
0
 10
132.88
 20
128.875
 11
131.1
 21
129.453
  0
LINE
  8
0
 10
93
 20
129.453
 11
91.6094
 21
130.705
  0
LINE
  8
0
 10
91.6094
 20
130.705
 11
90.8483
 21
132.414
  0
LINE
  8
0
 10
90.8483
 20
132.414
 11
90.8483
 21
134.286
  0
LINE
  8
0
 10
90.8483
 20
134.286
 11
91.6094
 21
135.995
  0
LINE
  8
0
 10
91.6094
 20
135.995
 11
93
 21
137.247
  0
LINE
  8
0
 10
93
 20
137.247
 11
94.7796
 21
137.825
  0
LINE
  8
0
 10
94.7796
 20
137.825
 11
96.6406
 21
137.63
  0
LINE
  8
0
 10
96.6406
 20
137.63
 11
98.2611
 21
136.694
  0
LINE
  8
0
 10
98.2611
 20
136.694
 11
99.3609
 21
135.18
  0
LINE
  8
0
 10
99.3609
 20
135.18
 11
99.75
 21
133.35
  0
LINE
  8
0
 10
99.75
 20
133.35
 11
99.3609
 21
131.52
  0
LINE
  8
0
 10
99.3609
 20
131.52
 11
98.2611
 21
130.006
  0
LINE
  8
0
 10
98.2611
 20
130.006
 11
96.6406
 21
129.07
  0
LINE
  8
0
 10
96.6406
 20
129.07
 11
94.7796
 21
128.875
  0
LINE
  8
0
 10
94.7796
 20
128.875
 11
93
 21
129.453
  0
LINE
  8
0
 10
54.9
 20
129.453
 11
53.5094
 21
130.705
  0
LINE
  8
0
 10
53.5094
 20
130.705
 11
52.7483
 21
132.414
  0
LINE
  8
0
 10
52.7483
 20
132.414
 11
52.7483
 21
134.286
  0
LINE
  8
0
 10
52.7483
 20
134.286
 11
53.5094
 21
135.995
  0
LINE
  8
0
 10
53.5094
 20
135.995
 11
54.9
 21
137.247
  0
LINE
  8
0
 10
54.9
 20
137.247
 11
56.6796
 21
137.825
  0
LINE
  8
0
 10
56.6796
 20
137.825
 11
58.5406
 21
137.63
  0
LINE
  8
0
 10
58.5406
 20
137.63
 11
60.1611
 21
136.694
  0
LINE
  8
0
 10
60.1611
 20
136.694
 11
61.2609
 21
135.18
  0
LINE
  8
0
 10
61.2609
 20
135.18
 11
61.65
 21
133.35
  0
LINE
  8
0
 10
61.65
 20
133.35
 11
61.2609
 21
131.52
  0
LINE
  8
0
 10
61.2609
 20
131.52
 11
60.1611
 21
130.006
  0
LINE
  8
0
 10
60.1611
 20
130.006
 11
58.5406
 21
129.07
  0
LINE
  8
0
 10
58.5406
 20
129.07
 11
56.6796
 21
128.875
  0
LINE
  8
0
 10
56.6796
 20
128.875
 11
54.9
 21
129.453
  0
LINE
  8
0
 10
16.8
 20
129.453
 11
15.4094
 21
130.705
  0
LINE
  8
0
 10
15.4094
 20
130.705
 11
14.6483
 21
132.414
  0
LINE
  8
0
 10
14.6483
 20
132.414
 11
14.6483
 21
134.286
  0
LINE
  8
0
 10
14.6483
 20
134.286
 11
15.4094
 21
135.995
  0
LINE
  8
0
 10
15.4094
 20
135.995
 11
16.8
 21
137.247
  0
LINE
  8
0
 10
16.8
 20
137.247
 11
18.5796
 21
137.825
  0
LINE
  8
0
 10
18.5796
 20
137.825
 11
20.4406
 21
137.63
  0
LINE
  8
0
 10
20.4406
 20
137.63
 11
22.0611
 21
136.694
  0
LINE
  8
0
 10
22.0611
 20
136.694
 11
23.1609
 21
135.18
  0
LINE
  8
0
 10
23.1609
 20
135.18
 11
23.55
 21
133.35
  0
LINE
  8
0
 10
23.55
 20
133.35
 11
23.1609
 21
131.52
  0
LINE
  8
0
 10
23.1609
 20
131.52
 11
22.0611
 21
130.006
  0
LINE
  8
0
 10
22.0611
 20
130.006
 11
20.4406
 21
129.07
  0
LINE
  8
0
 10
20.4406
 20
129.07
 11
18.5796
 21
128.875
  0
LINE
  8
0
 10
18.5796
 20
128.875
 11
16.8
 21
129.453
  0
LINE
  8
0
 10
550.2
 20
91.3529
 11
548.809
 21
92.605
  0
LINE
  8
0
 10
548.809
 20
92.605
 11
548.048
 21
94.3144
  0
LINE
  8
0
 10
548.048
 20
94.3144
 11
548.048
 21
96.1856
  0
LINE
  8
0
 10
548.048
 20
96.1856
 11
548.809
 21
97.895
  0
LINE
  8
0
 10
548.809
 20
97.895
 11
550.2
 21
99.1471
  0
LINE
  8
0
 10
550.2
 20
99.1471
 11
551.98
 21
99.7253
  0
LINE
  8
0
 10
551.98
 20
99.7253
 11
553.841
 21
99.5297
  0
LINE
  8
0
 10
553.841
 20
99.5297
 11
555.461
 21
98.5941
  0
LINE
  8
0
 10
555.461
 20
98.5941
 11
556.561
 21
97.0803
  0
LINE
  8
0
 10
556.561
 20
97.0803
 11
556.95
 21
95.25
  0
LINE
  8
0
 10
556.95
 20
95.25
 11
556.561
 21
93.4197
  0
LINE
  8
0
 10
556.561
 20
93.4197
 11
555.461
 21
91.9058
  0
LINE
  8
0
 10
555.461
 20
91.9058
 11
553.841
 21
90.9702
  0
LINE
  8
0
 10
553.841
 20
90.9702
 11
551.98
 21
90.7746
  0
LINE
  8
0
 10
551.98
 20
90.7746
 11
550.2
 21
91.3529
  0
LINE
  8
0
 10
512.1
 20
91.3529
 11
510.709
 21
92.605
  0
LINE
  8
0
 10
510.709
 20
92.605
 11
509.948
 21
94.3144
  0
LINE
  8
0
 10
509.948
 20
94.3144
 11
509.948
 21
96.1856
  0
LINE
  8
0
 10
509.948
 20
96.1856
 11
510.709
 21
97.895
  0
LINE
  8
0
 10
510.709
 20
97.895
 11
512.1
 21
99.1471
  0
LINE
  8
0
 10
512.1
 20
99.1471
 11
513.88
 21
99.7253
  0
LINE
  8
0
 10
513.88
 20
99.7253
 11
515.741
 21
99.5297
  0
LINE
  8
0
 10
515.741
 20
99.5297
 11
517.361
 21
98.5941
  0
LINE
  8
0
 10
517.361
 20
98.5941
 11
518.461
 21
97.0803
  0
LINE
  8
0
 10
518.461
 20
97.0803
 11
518.85
 21
95.25
  0
LINE
  8
0
 10
518.85
 20
95.25
 11
518.461
 21
93.4197
  0
LINE
  8
0
 10
518.461
 20
93.4197
 11
517.361
 21
91.9058
  0
LINE
  8
0
 10
517.361
 20
91.9058
 11
515.741
 21
90.9702
  0
LINE
  8
0
 10
515.741
 20
90.9702
 11
513.88
 21
90.7746
  0
LINE
  8
0
 10
513.88
 20
90.7746
 11
512.1
 21
91.3529
  0
LINE
  8
0
 10
474
 20
91.3529
 11
472.609
 21
92.605
  0
LINE
  8
0
 10
472.609
 20
92.605
 11
471.848
 21
94.3144
  0
LINE
  8
0
 10
471.848
 20
94.3144
 11
471.848
 21
96.1856
  0
LINE
  8
0
 10
471.848
 20
96.1856
 11
472.609
 21
97.895
  0
LINE
  8
0
 10
472.609
 20
97.895
 11
474
 21
99.1471
  0
LINE
  8
0
 10
474
 20
99.1471
 11
475.78
 21
99.7253
  0
LINE
  8
0
 10
475.78
 20
99.7253
 11
477.641
 21
99.5297
  0
LINE
  8
0
 10
477.641
 20
99.5297
 11
479.261
 21
98.5941
  0
LINE
  8
0
 10
479.261
 20
98.5941
 11
480.361
 21
97.0803
  0
LINE
  8
0
 10
480.361
 20
97.0803
 11
480.75
 21
95.25
  0
LINE
  8
0
 10
480.75
 20
95.25
 11
480.361
 21
93.4197
  0
LINE
  8
0
 10
480.361
 20
93.4197
 11
479.261
 21
91.9058
  0
LINE
  8
0
 10
479.261
 20
91.9058
 11
477.641
 21
90.9702
  0
LINE
  8
0
 10
477.641
 20
90.9702
 11
475.78
 21
90.7746
  0
LINE
  8
0
 10
475.78
 20
90.7746
 11
474
 21
91.3529
  0
LINE
  8
0
 10
93
 20
91.3529
 11
91.6094
 21
92.605
  0
LINE
  8
0
 10
91.6094
 20
92.605
 11
90.8483
 21
94.3144
  0
LINE
  8
0
 10
90.8483
 20
94.3144
 11
90.8483
 21
96.1856
  0
LINE
  8
0
 10
90.8483
 20
96.1856
 11
91.6094
 21
97.895
  0
LINE
  8
0
 10
91.6094
 20
97.895
 11
93
 21
99.1471
  0
LINE
  8
0
 10
93
 20
99.1471
 11
94.7796
 21
99.7253
  0
LINE
  8
0
 10
94.7796
 20
99.7253
 11
96.6406
 21
99.5297
  0
LINE
  8
0
 10
96.6406
 20
99.5297
 11
98.2611
 21
98.5941
  0
LINE
  8
0
 10
98.2611
 20
98.5941
 11
99.3609
 21
97.0803
  0
LINE
  8
0
 10
99.3609
 20
97.0803
 11
99.75
 21
95.25
  0
LINE
  8
0
 10
99.75
 20
95.25
 11
99.3609
 21
93.4197
  0
LINE
  8
0
 10
99.3609
 20
93.4197
 11
98.2611
 21
91.9058
  0
LINE
  8
0
 10
98.2611
 20
91.9058
 11
96.6406
 21
90.9702
  0
LINE
  8
0
 10
96.6406
 20
90.9702
 11
94.7796
 21
90.7746
  0
LINE
  8
0
 10
94.7796
 20
90.7746
 11
93
 21
91.3529
  0
LINE
  8
0
 10
435.9
 20
91.3529
 11
434.509
 21
92.605
  0
LINE
  8
0
 10
434.509
 20
92.605
 11
433.748
 21
94.3144
  0
LINE
  8
0
 10
433.748
 20
94.3144
 11
433.748
 21
96.1856
  0
LINE
  8
0
 10
433.748
 20
96.1856
 11
434.509
 21
97.895
  0
LINE
  8
0
 10
434.509
 20
97.895
 11
435.9
 21
99.1471
  0
LINE
  8
0
 10
435.9
 20
99.1471
 11
437.68
 21
99.7253
  0
LINE
  8
0
 10
437.68
 20
99.7253
 11
439.541
 21
99.5297
  0
LINE
  8
0
 10
439.541
 20
99.5297
 11
441.161
 21
98.5941
  0
LINE
  8
0
 10
441.161
 20
98.5941
 11
442.261
 21
97.0803
  0
LINE
  8
0
 10
442.261
 20
97.0803
 11
442.65
 21
95.25
  0
LINE
  8
0
 10
442.65
 20
95.25
 11
442.261
 21
93.4197
  0
LINE
  8
0
 10
442.261
 20
93.4197
 11
441.161
 21
91.9058
  0
LINE
  8
0
 10
441.161
 20
91.9058
 11
439.541
 21
90.9702
  0
LINE
  8
0
 10
439.541
 20
90.9702
 11
437.68
 21
90.7746
  0
LINE
  8
0
 10
437.68
 20
90.7746
 11
435.9
 21
91.3529
  0
LINE
  8
0
 10
397.8
 20
91.3529
 11
396.409
 21
92.605
  0
LINE
  8
0
 10
396.409
 20
92.605
 11
395.648
 21
94.3144
  0
LINE
  8
0
 10
395.648
 20
94.3144
 11
395.648
 21
96.1856
  0
LINE
  8
0
 10
395.648
 20
96.1856
 11
396.409
 21
97.895
  0
LINE
  8
0
 10
396.409
 20
97.895
 11
397.8
 21
99.1471
  0
LINE
  8
0
 10
397.8
 20
99.1471
 11
399.58
 21
99.7253
  0
LINE
  8
0
 10
399.58
 20
99.7253
 11
401.441
 21
99.5297
  0
LINE
  8
0
 10
401.441
 20
99.5297
 11
403.061
 21
98.5941
  0
LINE
  8
0
 10
403.061
 20
98.5941
 11
404.161
 21
97.0803
  0
LINE
  8
0
 10
404.161
 20
97.0803
 11
404.55
 21
95.25
  0
LINE
  8
0
 10
404.55
 20
95.25
 11
404.161
 21
93.4197
  0
LINE
  8
0
 10
404.161
 20
93.4197
 11
403.061
 21
91.9058
  0
LINE
  8
0
 10
403.061
 20
91.9058
 11
401.441
 21
90.9702
  0
LINE
  8
0
 10
401.441
 20
90.9702
 11
399.58
 21
90.7746
  0
LINE
  8
0
 10
399.58
 20
90.7746
 11
397.8
 21
91.3529
  0
LINE
  8
0
 10
359.7
 20
91.3529
 11
358.309
 21
92.605
  0
LINE
  8
0
 10
358.309
 20
92.605
 11
357.548
 21
94.3144
  0
LINE
  8
0
 10
357.548
 20
94.3144
 11
357.548
 21
96.1856
  0
LINE
  8
0
 10
357.548
 20
96.1856
 11
358.309
 21
97.895
  0
LINE
  8
0
 10
358.309
 20
97.895
 11
359.7
 21
99.1471
  0
LINE
  8
0
 10
359.7
 20
99.1471
 11
361.48
 21
99.7253
  0
LINE
  8
0
 10
361.48
 20
99.7253
 11
363.341
 21
99.5297
  0
LINE
  8
0
 10
363.341
 20
99.5297
 11
364.961
 21
98.5941
  0
LINE
  8
0
 10
364.961
 20
98.5941
 11
366.061
 21
97.0803
  0
LINE
  8
0
 10
366.061
 20
97.0803
 11
366.45
 21
95.25
  0
LINE
  8
0
 10
366.45
 20
95.25
 11
366.061
 21
93.4197
  0
LINE
  8
0
 10
366.061
 20
93.4197
 11
364.961
 21
91.9058
  0
LINE
  8
0
 10
364.961
 20
91.9058
 11
363.341
 21
90.9702
  0
LINE
  8
0
 10
363.341
 20
90.9702
 11
361.48
 21
90.7746
  0
LINE
  8
0
 10
361.48
 20
90.7746
 11
359.7
 21
91.3529
  0
LINE
  8
0
 10
283.5
 20
91.3529
 11
282.109
 21
92.605
  0
LINE
  8
0
 10
282.109
 20
92.605
 11
281.348
 21
94.3144
  0
LINE
  8
0
 10
281.348
 20
94.3144
 11
281.348
 21
96.1856
  0
LINE
  8
0
 10
281.348
 20
96.1856
 11
282.109
 21
97.895
  0
LINE
  8
0
 10
282.109
 20
97.895
 11
283.5
 21
99.1471
  0
LINE
  8
0
 10
283.5
 20
99.1471
 11
285.28
 21
99.7253
  0
LINE
  8
0
 10
285.28
 20
99.7253
 11
287.141
 21
99.5297
  0
LINE
  8
0
 10
287.141
 20
99.5297
 11
288.761
 21
98.5941
  0
LINE
  8
0
 10
288.761
 20
98.5941
 11
289.861
 21
97.0803
  0
LINE
  8
0
 10
289.861
 20
97.0803
 11
290.25
 21
95.25
  0
LINE
  8
0
 10
290.25
 20
95.25
 11
289.861
 21
93.4197
  0
LINE
  8
0
 10
289.861
 20
93.4197
 11
288.761
 21
91.9058
  0
LINE
  8
0
 10
288.761
 20
91.9058
 11
287.141
 21
90.9702
  0
LINE
  8
0
 10
287.141
 20
90.9702
 11
285.28
 21
90.7746
  0
LINE
  8
0
 10
285.28
 20
90.7746
 11
283.5
 21
91.3529
  0
LINE
  8
0
 10
207.3
 20
91.3529
 11
205.909
 21
92.605
  0
LINE
  8
0
 10
205.909
 20
92.605
 11
205.148
 21
94.3144
  0
LINE
  8
0
 10
205.148
 20
94.3144
 11
205.148
 21
96.1856
  0
LINE
  8
0
 10
205.148
 20
96.1856
 11
205.909
 21
97.895
  0
LINE
  8
0
 10
205.909
 20
97.895
 11
207.3
 21
99.1471
  0
LINE
  8
0
 10
207.3
 20
99.1471
 11
209.08
 21
99.7253
  0
LINE
  8
0
 10
209.08
 20
99.7253
 11
210.941
 21
99.5297
  0
LINE
  8
0
 10
210.941
 20
99.5297
 11
212.561
 21
98.5941
  0
LINE
  8
0
 10
212.561
 20
98.5941
 11
213.661
 21
97.0803
  0
LINE
  8
0
 10
213.661
 20
97.0803
 11
214.05
 21
95.25
  0
LINE
  8
0
 10
214.05
 20
95.25
 11
213.661
 21
93.4197
  0
LINE
  8
0
 10
213.661
 20
93.4197
 11
212.561
 21
91.9058
  0
LINE
  8
0
 10
212.561
 20
91.9058
 11
210.941
 21
90.9702
  0
LINE
  8
0
 10
210.941
 20
90.9702
 11
209.08
 21
90.7746
  0
LINE
  8
0
 10
209.08
 20
90.7746
 11
207.3
 21
91.3529
  0
LINE
  8
0
 10
169.2
 20
91.3529
 11
167.809
 21
92.605
  0
LINE
  8
0
 10
167.809
 20
92.605
 11
167.048
 21
94.3144
  0
LINE
  8
0
 10
167.048
 20
94.3144
 11
167.048
 21
96.1856
  0
LINE
  8
0
 10
167.048
 20
96.1856
 11
167.809
 21
97.895
  0
LINE
  8
0
 10
167.809
 20
97.895
 11
169.2
 21
99.1471
  0
LINE
  8
0
 10
169.2
 20
99.1471
 11
170.98
 21
99.7253
  0
LINE
  8
0
 10
170.98
 20
99.7253
 11
172.841
 21
99.5297
  0
LINE
  8
0
 10
172.841
 20
99.5297
 11
174.461
 21
98.5941
  0
LINE
  8
0
 10
174.461
 20
98.5941
 11
175.561
 21
97.0803
  0
LINE
  8
0
 10
175.561
 20
97.0803
 11
175.95
 21
95.25
  0
LINE
  8
0
 10
175.95
 20
95.25
 11
175.561
 21
93.4197
  0
LINE
  8
0
 10
175.561
 20
93.4197
 11
174.461
 21
91.9058
  0
LINE
  8
0
 10
174.461
 20
91.9058
 11
172.841
 21
90.9702
  0
LINE
  8
0
 10
172.841
 20
90.9702
 11
170.98
 21
90.7746
  0
LINE
  8
0
 10
170.98
 20
90.7746
 11
169.2
 21
91.3529
  0
LINE
  8
0
 10
131.1
 20
91.3529
 11
129.709
 21
92.605
  0
LINE
  8
0
 10
129.709
 20
92.605
 11
128.948
 21
94.3144
  0
LINE
  8
0
 10
128.948
 20
94.3144
 11
128.948
 21
96.1856
  0
LINE
  8
0
 10
128.948
 20
96.1856
 11
129.709
 21
97.895
  0
LINE
  8
0
 10
129.709
 20
97.895
 11
131.1
 21
99.1471
  0
LINE
  8
0
 10
131.1
 20
99.1471
 11
132.88
 21
99.7253
  0
LINE
  8
0
 10
132.88
 20
99.7253
 11
134.741
 21
99.5297
  0
LINE
  8
0
 10
134.741
 20
99.5297
 11
136.361
 21
98.5941
  0
LINE
  8
0
 10
136.361
 20
98.5941
 11
137.461
 21
97.0803
  0
LINE
  8
0
 10
137.461
 20
97.0803
 11
137.85
 21
95.25
  0
LINE
  8
0
 10
137.85
 20
95.25
 11
137.461
 21
93.4197
  0
LINE
  8
0
 10
137.461
 20
93.4197
 11
136.361
 21
91.9058
  0
LINE
  8
0
 10
136.361
 20
91.9058
 11
134.741
 21
90.9702
  0
LINE
  8
0
 10
134.741
 20
90.9702
 11
132.88
 21
90.7746
  0
LINE
  8
0
 10
132.88
 20
90.7746
 11
131.1
 21
91.3529
  0
LINE
  8
0
 10
54.9
 20
91.3529
 11
53.5094
 21
92.605
  0
LINE
  8
0
 10
53.5094
 20
92.605
 11
52.7483
 21
94.3144
  0
LINE
  8
0
 10
52.7483
 20
94.3144
 11
52.7483
 21
96.1856
  0
LINE
  8
0
 10
52.7483
 20
96.1856
 11
53.5094
 21
97.895
  0
LINE
  8
0
 10
53.5094
 20
97.895
 11
54.9
 21
99.1471
  0
LINE
  8
0
 10
54.9
 20
99.1471
 11
56.6796
 21
99.7253
  0
LINE
  8
0
 10
56.6796
 20
99.7253
 11
58.5406
 21
99.5297
  0
LINE
  8
0
 10
58.5406
 20
99.5297
 11
60.1611
 21
98.5941
  0
LINE
  8
0
 10
60.1611
 20
98.5941
 11
61.2609
 21
97.0803
  0
LINE
  8
0
 10
61.2609
 20
97.0803
 11
61.65
 21
95.25
  0
LINE
  8
0
 10
61.65
 20
95.25
 11
61.2609
 21
93.4197
  0
LINE
  8
0
 10
61.2609
 20
93.4197
 11
60.1611
 21
91.9058
  0
LINE
  8
0
 10
60.1611
 20
91.9058
 11
58.5406
 21
90.9702
  0
LINE
  8
0
 10
58.5406
 20
90.9702
 11
56.6796
 21
90.7746
  0
LINE
  8
0
 10
56.6796
 20
90.7746
 11
54.9
 21
91.3529
  0
LINE
  8
0
 10
16.8
 20
91.3529
 11
15.4094
 21
92.605
  0
LINE
  8
0
 10
15.4094
 20
92.605
 11
14.6483
 21
94.3144
  0
LINE
  8
0
 10
14.6483
 20
94.3144
 11
14.6483
 21
96.1856
  0
LINE
  8
0
 10
14.6483
 20
96.1856
 11
15.4094
 21
97.895
  0
LINE
  8
0
 10
15.4094
 20
97.895
 11
16.8
 21
99.1471
  0
LINE
  8
0
 10
16.8
 20
99.1471
 11
18.5796
 21
99.7253
  0
LINE
  8
0
 10
18.5796
 20
99.7253
 11
20.4406
 21
99.5297
  0
LINE
  8
0
 10
20.4406
 20
99.5297
 11
22.0611
 21
98.5941
  0
LINE
  8
0
 10
22.0611
 20
98.5941
 11
23.1609
 21
97.0803
  0
LINE
  8
0
 10
23.1609
 20
97.0803
 11
23.55
 21
95.25
  0
LINE
  8
0
 10
23.55
 20
95.25
 11
23.1609
 21
93.4197
  0
LINE
  8
0
 10
23.1609
 20
93.4197
 11
22.0611
 21
91.9058
  0
LINE
  8
0
 10
22.0611
 20
91.9058
 11
20.4406
 21
90.9702
  0
LINE
  8
0
 10
20.4406
 20
90.9702
 11
18.5796
 21
90.7746
  0
LINE
  8
0
 10
18.5796
 20
90.7746
 11
16.8
 21
91.3529
  0
LINE
  8
0
 10
321.6
 20
91.3529
 11
320.209
 21
92.605
  0
LINE
  8
0
 10
320.209
 20
92.605
 11
319.448
 21
94.3144
  0
LINE
  8
0
 10
319.448
 20
94.3144
 11
319.448
 21
96.1856
  0
LINE
  8
0
 10
319.448
 20
96.1856
 11
320.209
 21
97.895
  0
LINE
  8
0
 10
320.209
 20
97.895
 11
321.6
 21
99.1471
  0
LINE
  8
0
 10
321.6
 20
99.1471
 11
323.38
 21
99.7253
  0
LINE
  8
0
 10
323.38
 20
99.7253
 11
325.241
 21
99.5297
  0
LINE
  8
0
 10
325.241
 20
99.5297
 11
326.861
 21
98.5941
  0
LINE
  8
0
 10
326.861
 20
98.5941
 11
327.961
 21
97.0803
  0
LINE
  8
0
 10
327.961
 20
97.0803
 11
328.35
 21
95.25
  0
LINE
  8
0
 10
328.35
 20
95.25
 11
327.961
 21
93.4197
  0
LINE
  8
0
 10
327.961
 20
93.4197
 11
326.861
 21
91.9058
  0
LINE
  8
0
 10
326.861
 20
91.9058
 11
325.241
 21
90.9702
  0
LINE
  8
0
 10
325.241
 20
90.9702
 11
323.38
 21
90.7746
  0
LINE
  8
0
 10
323.38
 20
90.7746
 11
321.6
 21
91.3529
  0
LINE
  8
0
 10
245.4
 20
91.3529
 11
244.009
 21
92.605
  0
LINE
  8
0
 10
244.009
 20
92.605
 11
243.248
 21
94.3144
  0
LINE
  8
0
 10
243.248
 20
94.3144
 11
243.248
 21
96.1856
  0
LINE
  8
0
 10
243.248
 20
96.1856
 11
244.009
 21
97.895
  0
LINE
  8
0
 10
244.009
 20
97.895
 11
245.4
 21
99.1471
  0
LINE
  8
0
 10
245.4
 20
99.1471
 11
247.18
 21
99.7253
  0
LINE
  8
0
 10
247.18
 20
99.7253
 11
249.041
 21
99.5297
  0
LINE
  8
0
 10
249.041
 20
99.5297
 11
250.661
 21
98.5941
  0
LINE
  8
0
 10
250.661
 20
98.5941
 11
251.761
 21
97.0803
  0
LINE
  8
0
 10
251.761
 20
97.0803
 11
252.15
 21
95.25
  0
LINE
  8
0
 10
252.15
 20
95.25
 11
251.761
 21
93.4197
  0
LINE
  8
0
 10
251.761
 20
93.4197
 11
250.661
 21
91.9058
  0
LINE
  8
0
 10
250.661
 20
91.9058
 11
249.041
 21
90.9702
  0
LINE
  8
0
 10
249.041
 20
90.9702
 11
247.18
 21
90.7746
  0
LINE
  8
0
 10
247.18
 20
90.7746
 11
245.4
 21
91.3529
  0
LINE
  8
0
 10
435.9
 20
53.2529
 11
434.509
 21
54.505
  0
LINE
  8
0
 10
434.509
 20
54.505
 11
433.748
 21
56.2144
  0
LINE
  8
0
 10
433.748
 20
56.2144
 11
433.748
 21
58.0856
  0
LINE
  8
0
 10
433.748
 20
58.0856
 11
434.509
 21
59.795
  0
LINE
  8
0
 10
434.509
 20
59.795
 11
435.9
 21
61.0471
  0
LINE
  8
0
 10
435.9
 20
61.0471
 11
437.68
 21
61.6253
  0
LINE
  8
0
 10
437.68
 20
61.6253
 11
439.541
 21
61.4297
  0
LINE
  8
0
 10
439.541
 20
61.4297
 11
441.161
 21
60.4941
  0
LINE
  8
0
 10
441.161
 20
60.4941
 11
442.261
 21
58.9803
  0
LINE
  8
0
 10
442.261
 20
58.9803
 11
442.65
 21
57.15
  0
LINE
  8
0
 10
442.65
 20
57.15
 11
442.261
 21
55.3197
  0
LINE
  8
0
 10
442.261
 20
55.3197
 11
441.161
 21
53.8058
  0
LINE
  8
0
 10
441.161
 20
53.8058
 11
439.541
 21
52.8702
  0
LINE
  8
0
 10
439.541
 20
52.8702
 11
437.68
 21
52.6746
  0
LINE
  8
0
 10
437.68
 20
52.6746
 11
435.9
 21
53.2529
  0
LINE
  8
0
 10
550.2
 20
53.2529
 11
548.809
 21
54.505
  0
LINE
  8
0
 10
548.809
 20
54.505
 11
548.048
 21
56.2144
  0
LINE
  8
0
 10
548.048
 20
56.2144
 11
548.048
 21
58.0856
  0
LINE
  8
0
 10
548.048
 20
58.0856
 11
548.809
 21
59.795
  0
LINE
  8
0
 10
548.809
 20
59.795
 11
550.2
 21
61.0471
  0
LINE
  8
0
 10
550.2
 20
61.0471
 11
551.98
 21
61.6253
  0
LINE
  8
0
 10
551.98
 20
61.6253
 11
553.841
 21
61.4297
  0
LINE
  8
0
 10
553.841
 20
61.4297
 11
555.461
 21
60.4941
  0
LINE
  8
0
 10
555.461
 20
60.4941
 11
556.561
 21
58.9803
  0
LINE
  8
0
 10
556.561
 20
58.9803
 11
556.95
 21
57.15
  0
LINE
  8
0
 10
556.95
 20
57.15
 11
556.561
 21
55.3197
  0
LINE
  8
0
 10
556.561
 20
55.3197
 11
555.461
 21
53.8058
  0
LINE
  8
0
 10
555.461
 20
53.8058
 11
553.841
 21
52.8702
  0
LINE
  8
0
 10
553.841
 20
52.8702
 11
551.98
 21
52.6746
  0
LINE
  8
0
 10
551.98
 20
52.6746
 11
550.2
 21
53.2529
  0
LINE
  8
0
 10
512.1
 20
53.2529
 11
510.709
 21
54.505
  0
LINE
  8
0
 10
510.709
 20
54.505
 11
509.948
 21
56.2144
  0
LINE
  8
0
 10
509.948
 20
56.2144
 11
509.948
 21
58.0856
  0
LINE
  8
0
 10
509.948
 20
58.0856
 11
510.709
 21
59.795
  0
LINE
  8
0
 10
510.709
 20
59.795
 11
512.1
 21
61.0471
  0
LINE
  8
0
 10
512.1
 20
61.0471
 11
513.88
 21
61.6253
  0
LINE
  8
0
 10
513.88
 20
61.6253
 11
515.741
 21
61.4297
  0
LINE
  8
0
 10
515.741
 20
61.4297
 11
517.361
 21
60.4941
  0
LINE
  8
0
 10
517.361
 20
60.4941
 11
518.461
 21
58.9803
  0
LINE
  8
0
 10
518.461
 20
58.9803
 11
518.85
 21
57.15
  0
LINE
  8
0
 10
518.85
 20
57.15
 11
518.461
 21
55.3197
  0
LINE
  8
0
 10
518.461
 20
55.3197
 11
517.361
 21
53.8058
  0
LINE
  8
0
 10
517.361
 20
53.8058
 11
515.741
 21
52.8702
  0
LINE
  8
0
 10
515.741
 20
52.8702
 11
513.88
 21
52.6746
  0
LINE
  8
0
 10
513.88
 20
52.6746
 11
512.1
 21
53.2529
  0
LINE
  8
0
 10
474
 20
53.2529
 11
472.609
 21
54.505
  0
LINE
  8
0
 10
472.609
 20
54.505
 11
471.848
 21
56.2144
  0
LINE
  8
0
 10
471.848
 20
56.2144
 11
471.848
 21
58.0856
  0
LINE
  8
0
 10
471.848
 20
58.0856
 11
472.609
 21
59.795
  0
LINE
  8
0
 10
472.609
 20
59.795
 11
474
 21
61.0471
  0
LINE
  8
0
 10
474
 20
61.0471
 11
475.78
 21
61.6253
  0
LINE
  8
0
 10
475.78
 20
61.6253
 11
477.641
 21
61.4297
  0
LINE
  8
0
 10
477.641
 20
61.4297
 11
479.261
 21
60.4941
  0
LINE
  8
0
 10
479.261
 20
60.4941
 11
480.361
 21
58.9803
  0
LINE
  8
0
 10
480.361
 20
58.9803
 11
480.75
 21
57.15
  0
LINE
  8
0
 10
480.75
 20
57.15
 11
480.361
 21
55.3197
  0
LINE
  8
0
 10
480.361
 20
55.3197
 11
479.261
 21
53.8058
  0
LINE
  8
0
 10
479.261
 20
53.8058
 11
477.641
 21
52.8702
  0
LINE
  8
0
 10
477.641
 20
52.8702
 11
475.78
 21
52.6746
  0
LINE
  8
0
 10
475.78
 20
52.6746
 11
474
 21
53.2529
  0
LINE
  8
0
 10
397.8
 20
53.2529
 11
396.409
 21
54.505
  0
LINE
  8
0
 10
396.409
 20
54.505
 11
395.648
 21
56.2144
  0
LINE
  8
0
 10
395.648
 20
56.2144
 11
395.648
 21
58.0856
  0
LINE
  8
0
 10
395.648
 20
58.0856
 11
396.409
 21
59.795
  0
LINE
  8
0
 10
396.409
 20
59.795
 11
397.8
 21
61.0471
  0
LINE
  8
0
 10
397.8
 20
61.0471
 11
399.58
 21
61.6253
  0
LINE
  8
0
 10
399.58
 20
61.6253
 11
401.441
 21
61.4297
  0
LINE
  8
0
 10
401.441
 20
61.4297
 11
403.061
 21
60.4941
  0
LINE
  8
0
 10
403.061
 20
60.4941
 11
404.161
 21
58.9803
  0
LINE
  8
0
 10
404.161
 20
58.9803
 11
404.55
 21
57.15
  0
LINE
  8
0
 10
404.55
 20
57.15
 11
404.161
 21
55.3197
  0
LINE
  8
0
 10
404.161
 20
55.3197
 11
403.061
 21
53.8058
  0
LINE
  8
0
 10
403.061
 20
53.8058
 11
401.441
 21
52.8702
  0
LINE
  8
0
 10
401.441
 20
52.8702
 11
399.58
 21
52.6746
  0
LINE
  8
0
 10
399.58
 20
52.6746
 11
397.8
 21
53.2529
  0
LINE
  8
0
 10
359.7
 20
53.2529
 11
358.309
 21
54.505
  0
LINE
  8
0
 10
358.309
 20
54.505
 11
357.548
 21
56.2144
  0
LINE
  8
0
 10
357.548
 20
56.2144
 11
357.548
 21
58.0856
  0
LINE
  8
0
 10
357.548
 20
58.0856
 11
358.309
 21
59.795
  0
LINE
  8
0
 10
358.309
 20
59.795
 11
359.7
 21
61.0471
  0
LINE
  8
0
 10
359.7
 20
61.0471
 11
361.48
 21
61.6253
  0
LINE
  8
0
 10
361.48
 20
61.6253
 11
363.341
 21
61.4297
  0
LINE
  8
0
 10
363.341
 20
61.4297
 11
364.961
 21
60.4941
  0
LINE
  8
0
 10
364.961
 20
60.4941
 11
366.061
 21
58.9803
  0
LINE
  8
0
 10
366.061
 20
58.9803
 11
366.45
 21
57.15
  0
LINE
  8
0
 10
366.45
 20
57.15
 11
366.061
 21
55.3197
  0
LINE
  8
0
 10
366.061
 20
55.3197
 11
364.961
 21
53.8058
  0
LINE
  8
0
 10
364.961
 20
53.8058
 11
363.341
 21
52.8702
  0
LINE
  8
0
 10
363.341
 20
52.8702
 11
361.48
 21
52.6746
  0
LINE
  8
0
 10
361.48
 20
52.6746
 11
359.7
 21
53.2529
  0
LINE
  8
0
 10
283.5
 20
53.2529
 11
282.109
 21
54.505
  0
LINE
  8
0
 10
282.109
 20
54.505
 11
281.348
 21
56.2144
  0
LINE
  8
0
 10
281.348
 20
56.2144
 11
281.348
 21
58.0856
  0
LINE
  8
0
 10
281.348
 20
58.0856
 11
282.109
 21
59.795
  0
LINE
  8
0
 10
282.109
 20
59.795
 11
283.5
 21
61.0471
  0
LINE
  8
0
 10
283.5
 20
61.0471
 11
285.28
 21
61.6253
  0
LINE
  8
0
 10
285.28
 20
61.6253
 11
287.141
 21
61.4297
  0
LINE
  8
0
 10
287.141
 20
61.4297
 11
288.761
 21
60.4941
  0
LINE
  8
0
 10
288.761
 20
60.4941
 11
289.861
 21
58.9803
  0
LINE
  8
0
 10
289.861
 20
58.9803
 11
290.25
 21
57.15
  0
LINE
  8
0
 10
290.25
 20
57.15
 11
289.861
 21
55.3197
  0
LINE
  8
0
 10
289.861
 20
55.3197
 11
288.761
 21
53.8058
  0
LINE
  8
0
 10
288.761
 20
53.8058
 11
287.141
 21
52.8702
  0
LINE
  8
0
 10
287.141
 20
52.8702
 11
285.28
 21
52.6746
  0
LINE
  8
0
 10
285.28
 20
52.6746
 11
283.5
 21
53.2529
  0
LINE
  8
0
 10
207.3
 20
53.2529
 11
205.909
 21
54.505
  0
LINE
  8
0
 10
205.909
 20
54.505
 11
205.148
 21
56.2144
  0
LINE
  8
0
 10
205.148
 20
56.2144
 11
205.148
 21
58.0856
  0
LINE
  8
0
 10
205.148
 20
58.0856
 11
205.909
 21
59.795
  0
LINE
  8
0
 10
205.909
 20
59.795
 11
207.3
 21
61.0471
  0
LINE
  8
0
 10
207.3
 20
61.0471
 11
209.08
 21
61.6253
  0
LINE
  8
0
 10
209.08
 20
61.6253
 11
210.941
 21
61.4297
  0
LINE
  8
0
 10
210.941
 20
61.4297
 11
212.561
 21
60.4941
  0
LINE
  8
0
 10
212.561
 20
60.4941
 11
213.661
 21
58.9803
  0
LINE
  8
0
 10
213.661
 20
58.9803
 11
214.05
 21
57.15
  0
LINE
  8
0
 10
214.05
 20
57.15
 11
213.661
 21
55.3197
  0
LINE
  8
0
 10
213.661
 20
55.3197
 11
212.561
 21
53.8058
  0
LINE
  8
0
 10
212.561
 20
53.8058
 11
210.941
 21
52.8702
  0
LINE
  8
0
 10
210.941
 20
52.8702
 11
209.08
 21
52.6746
  0
LINE
  8
0
 10
209.08
 20
52.6746
 11
207.3
 21
53.2529
  0
LINE
  8
0
 10
169.2
 20
53.2529
 11
167.809
 21
54.505
  0
LINE
  8
0
 10
167.809
 20
54.505
 11
167.048
 21
56.2144
  0
LINE
  8
0
 10
167.048
 20
56.2144
 11
167.048
 21
58.0856
  0
LINE
  8
0
 10
167.048
 20
58.0856
 11
167.809
 21
59.795
  0
LINE
  8
0
 10
167.809
 20
59.795
 11
169.2
 21
61.0471
  0
LINE
  8
0
 10
169.2
 20
61.0471
 11
170.98
 21
61.6253
  0
LINE
  8
0
 10
170.98
 20
61.6253
 11
172.841
 21
61.4297
  0
LINE
  8
0
 10
172.841
 20
61.4297
 11
174.461
 21
60.4941
  0
LINE
  8
0
 10
174.461
 20
60.4941
 11
175.561
 21
58.9803
  0
LINE
  8
0
 10
175.561
 20
58.9803
 11
175.95
 21
57.15
  0
LINE
  8
0
 10
175.95
 20
57.15
 11
175.561
 21
55.3197
  0
LINE
  8
0
 10
175.561
 20
55.3197
 11
174.461
 21
53.8058
  0
LINE
  8
0
 10
174.461
 20
53.8058
 11
172.841
 21
52.8702
  0
LINE
  8
0
 10
172.841
 20
52.8702
 11
170.98
 21
52.6746
  0
LINE
  8
0
 10
170.98
 20
52.6746
 11
169.2
 21
53.2529
  0
LINE
  8
0
 10
131.1
 20
53.2529
 11
129.709
 21
54.505
  0
LINE
  8
0
 10
129.709
 20
54.505
 11
128.948
 21
56.2144
  0
LINE
  8
0
 10
128.948
 20
56.2144
 11
128.948
 21
58.0856
  0
LINE
  8
0
 10
128.948
 20
58.0856
 11
129.709
 21
59.795
  0
LINE
  8
0
 10
129.709
 20
59.795
 11
131.1
 21
61.0471
  0
LINE
  8
0
 10
131.1
 20
61.0471
 11
132.88
 21
61.6253
  0
LINE
  8
0
 10
132.88
 20
61.6253
 11
134.741
 21
61.4297
  0
LINE
  8
0
 10
134.741
 20
61.4297
 11
136.361
 21
60.4941
  0
LINE
  8
0
 10
136.361
 20
60.4941
 11
137.461
 21
58.9803
  0
LINE
  8
0
 10
137.461
 20
58.9803
 11
137.85
 21
57.15
  0
LINE
  8
0
 10
137.85
 20
57.15
 11
137.461
 21
55.3197
  0
LINE
  8
0
 10
137.461
 20
55.3197
 11
136.361
 21
53.8058
  0
LINE
  8
0
 10
136.361
 20
53.8058
 11
134.741
 21
52.8702
  0
LINE
  8
0
 10
134.741
 20
52.8702
 11
132.88
 21
52.6746
  0
LINE
  8
0
 10
132.88
 20
52.6746
 11
131.1
 21
53.2529
  0
LINE
  8
0
 10
93
 20
53.2529
 11
91.6094
 21
54.505
  0
LINE
  8
0
 10
91.6094
 20
54.505
 11
90.8483
 21
56.2144
  0
LINE
  8
0
 10
90.8483
 20
56.2144
 11
90.8483
 21
58.0856
  0
LINE
  8
0
 10
90.8483
 20
58.0856
 11
91.6094
 21
59.795
  0
LINE
  8
0
 10
91.6094
 20
59.795
 11
93
 21
61.0471
  0
LINE
  8
0
 10
93
 20
61.0471
 11
94.7796
 21
61.6253
  0
LINE
  8
0
 10
94.7796
 20
61.6253
 11
96.6406
 21
61.4297
  0
LINE
  8
0
 10
96.6406
 20
61.4297
 11
98.2611
 21
60.4941
  0
LINE
  8
0
 10
98.2611
 20
60.4941
 11
99.3609
 21
58.9803
  0
LINE
  8
0
 10
99.3609
 20
58.9803
 11
99.75
 21
57.15
  0
LINE
  8
0
 10
99.75
 20
57.15
 11
99.3609
 21
55.3197
  0
LINE
  8
0
 10
99.3609
 20
55.3197
 11
98.2611
 21
53.8058
  0
LINE
  8
0
 10
98.2611
 20
53.8058
 11
96.6406
 21
52.8702
  0
LINE
  8
0
 10
96.6406
 20
52.8702
 11
94.7796
 21
52.6746
  0
LINE
  8
0
 10
94.7796
 20
52.6746
 11
93
 21
53.2529
  0
LINE
  8
0
 10
54.9
 20
53.2529
 11
53.5094
 21
54.505
  0
LINE
  8
0
 10
53.5094
 20
54.505
 11
52.7483
 21
56.2144
  0
LINE
  8
0
 10
52.7483
 20
56.2144
 11
52.7483
 21
58.0856
  0
LINE
  8
0
 10
52.7483
 20
58.0856
 11
53.5094
 21
59.795
  0
LINE
  8
0
 10
53.5094
 20
59.795
 11
54.9
 21
61.0471
  0
LINE
  8
0
 10
54.9
 20
61.0471
 11
56.6796
 21
61.6253
  0
LINE
  8
0
 10
56.6796
 20
61.6253
 11
58.5406
 21
61.4297
  0
LINE
  8
0
 10
58.5406
 20
61.4297
 11
60.1611
 21
60.4941
  0
LINE
  8
0
 10
60.1611
 20
60.4941
 11
61.2609
 21
58.9803
  0
LINE
  8
0
 10
61.2609
 20
58.9803
 11
61.65
 21
57.15
  0
LINE
  8
0
 10
61.65
 20
57.15
 11
61.2609
 21
55.3197
  0
LINE
  8
0
 10
61.2609
 20
55.3197
 11
60.1611
 21
53.8058
  0
LINE
  8
0
 10
60.1611
 20
53.8058
 11
58.5406
 21
52.8702
  0
LINE
  8
0
 10
58.5406
 20
52.8702
 11
56.6796
 21
52.6746
  0
LINE
  8
0
 10
56.6796
 20
52.6746
 11
54.9
 21
53.2529
  0
LINE
  8
0
 10
16.8
 20
53.2529
 11
15.4094
 21
54.505
  0
LINE
  8
0
 10
15.4094
 20
54.505
 11
14.6483
 21
56.2144
  0
LINE
  8
0
 10
14.6483
 20
56.2144
 11
14.6483
 21
58.0856
  0
LINE
  8
0
 10
14.6483
 20
58.0856
 11
15.4094
 21
59.795
  0
LINE
  8
0
 10
15.4094
 20
59.795
 11
16.8
 21
61.0471
  0
LINE
  8
0
 10
16.8
 20
61.0471
 11
18.5796
 21
61.6253
  0
LINE
  8
0
 10
18.5796
 20
61.6253
 11
20.4406
 21
61.4297
  0
LINE
  8
0
 10
20.4406
 20
61.4297
 11
22.0611
 21
60.4941
  0
LINE
  8
0
 10
22.0611
 20
60.4941
 11
23.1609
 21
58.9803
  0
LINE
  8
0
 10
23.1609
 20
58.9803
 11
23.55
 21
57.15
  0
LINE
  8
0
 10
23.55
 20
57.15
 11
23.1609
 21
55.3197
  0
LINE
  8
0
 10
23.1609
 20
55.3197
 11
22.0611
 21
53.8058
  0
LINE
  8
0
 10
22.0611
 20
53.8058
 11
20.4406
 21
52.8702
  0
LINE
  8
0
 10
20.4406
 20
52.8702
 11
18.5796
 21
52.6746
  0
LINE
  8
0
 10
18.5796
 20
52.6746
 11
16.8
 21
53.2529
  0
LINE
  8
0
 10
321.6
 20
53.2529
 11
320.209
 21
54.505
  0
LINE
  8
0
 10
320.209
 20
54.505
 11
319.448
 21
56.2144
  0
LINE
  8
0
 10
319.448
 20
56.2144
 11
319.448
 21
58.0856
  0
LINE
  8
0
 10
319.448
 20
58.0856
 11
320.209
 21
59.795
  0
LINE
  8
0
 10
320.209
 20
59.795
 11
321.6
 21
61.0471
  0
LINE
  8
0
 10
321.6
 20
61.0471
 11
323.38
 21
61.6253
  0
LINE
  8
0
 10
323.38
 20
61.6253
 11
325.241
 21
61.4297
  0
LINE
  8
0
 10
325.241
 20
61.4297
 11
326.861
 21
60.4941
  0
LINE
  8
0
 10
326.861
 20
60.4941
 11
327.961
 21
58.9803
  0
LINE
  8
0
 10
327.961
 20
58.9803
 11
328.35
 21
57.15
  0
LINE
  8
0
 10
328.35
 20
57.15
 11
327.961
 21
55.3197
  0
LINE
  8
0
 10
327.961
 20
55.3197
 11
326.861
 21
53.8058
  0
LINE
  8
0
 10
326.861
 20
53.8058
 11
325.241
 21
52.8702
  0
LINE
  8
0
 10
325.241
 20
52.8702
 11
323.38
 21
52.6746
  0
LINE
  8
0
 10
323.38
 20
52.6746
 11
321.6
 21
53.2529
  0
LINE
  8
0
 10
245.4
 20
53.2529
 11
244.009
 21
54.505
  0
LINE
  8
0
 10
244.009
 20
54.505
 11
243.248
 21
56.2144
  0
LINE
  8
0
 10
243.248
 20
56.2144
 11
243.248
 21
58.0856
  0
LINE
  8
0
 10
243.248
 20
58.0856
 11
244.009
 21
59.795
  0
LINE
  8
0
 10
244.009
 20
59.795
 11
245.4
 21
61.0471
  0
LINE
  8
0
 10
245.4
 20
61.0471
 11
247.18
 21
61.6253
  0
LINE
  8
0
 10
247.18
 20
61.6253
 11
249.041
 21
61.4297
  0
LINE
  8
0
 10
249.041
 20
61.4297
 11
250.661
 21
60.4941
  0
LINE
  8
0
 10
250.661
 20
60.4941
 11
251.761
 21
58.9803
  0
LINE
  8
0
 10
251.761
 20
58.9803
 11
252.15
 21
57.15
  0
LINE
  8
0
 10
252.15
 20
57.15
 11
251.761
 21
55.3197
  0
LINE
  8
0
 10
251.761
 20
55.3197
 11
250.661
 21
53.8058
  0
LINE
  8
0
 10
250.661
 20
53.8058
 11
249.041
 21
52.8702
  0
LINE
  8
0
 10
249.041
 20
52.8702
 11
247.18
 21
52.6746
  0
LINE
  8
0
 10
247.18
 20
52.6746
 11
245.4
 21
53.2529
  0
LINE
  8
0
 10
16.8
 20
15.1529
 11
15.4094
 21
16.405
  0
LINE
  8
0
 10
15.4094
 20
16.405
 11
14.6483
 21
18.1144
  0
LINE
  8
0
 10
14.6483
 20
18.1144
 11
14.6483
 21
19.9856
  0
LINE
  8
0
 10
14.6483
 20
19.9856
 11
15.4094
 21
21.695
  0
LINE
  8
0
 10
15.4094
 20
21.695
 11
16.8
 21
22.9471
  0
LINE
  8
0
 10
16.8
 20
22.9471
 11
18.5796
 21
23.5253
  0
LINE
  8
0
 10
18.5796
 20
23.5253
 11
20.4406
 21
23.3297
  0
LINE
  8
0
 10
20.4406
 20
23.3297
 11
22.0611
 21
22.3941
  0
LINE
  8
0
 10
22.0611
 20
22.3941
 11
23.1609
 21
20.8803
  0
LINE
  8
0
 10
23.1609
 20
20.8803
 11
23.55
 21
19.05
  0
LINE
  8
0
 10
23.55
 20
19.05
 11
23.1609
 21
17.2197
  0
LINE
  8
0
 10
23.1609
 20
17.2197
 11
22.0611
 21
15.7058
  0
LINE
  8
0
 10
22.0611
 20
15.7058
 11
20.4406
 21
14.7702
  0
LINE
  8
0
 10
20.4406
 20
14.7702
 11
18.5796
 21
14.5746
  0
LINE
  8
0
 10
18.5796
 20
14.5746
 11
16.8
 21
15.1529
  0
LINE
  8
0
 10
550.2
 20
15.1529
 11
548.809
 21
16.405
  0
LINE
  8
0
 10
548.809
 20
16.405
 11
548.048
 21
18.1144
  0
LINE
  8
0
 10
548.048
 20
18.1144
 11
548.048
 21
19.9856
  0
LINE
  8
0
 10
548.048
 20
19.9856
 11
548.809
 21
21.695
  0
LINE
  8
0
 10
548.809
 20
21.695
 11
550.2
 21
22.9471
  0
LINE
  8
0
 10
550.2
 20
22.9471
 11
551.98
 21
23.5253
  0
LINE
  8
0
 10
551.98
 20
23.5253
 11
553.841
 21
23.3297
  0
LINE
  8
0
 10
553.841
 20
23.3297
 11
555.461
 21
22.3941
  0
LINE
  8
0
 10
555.461
 20
22.3941
 11
556.561
 21
20.8803
  0
LINE
  8
0
 10
556.561
 20
20.8803
 11
556.95
 21
19.05
  0
LINE
  8
0
 10
556.95
 20
19.05
 11
556.561
 21
17.2197
  0
LINE
  8
0
 10
556.561
 20
17.2197
 11
555.461
 21
15.7058
  0
LINE
  8
0
 10
555.461
 20
15.7058
 11
553.841
 21
14.7702
  0
LINE
  8
0
 10
553.841
 20
14.7702
 11
551.98
 21
14.5746
  0
LINE
  8
0
 10
551.98
 20
14.5746
 11
550.2
 21
15.1529
  0
LINE
  8
0
 10
512.1
 20
15.1529
 11
510.709
 21
16.405
  0
LINE
  8
0
 10
510.709
 20
16.405
 11
509.948
 21
18.1144
  0
LINE
  8
0
 10
509.948
 20
18.1144
 11
509.948
 21
19.9856
  0
LINE
  8
0
 10
509.948
 20
19.9856
 11
510.709
 21
21.695
  0
LINE
  8
0
 10
510.709
 20
21.695
 11
512.1
 21
22.9471
  0
LINE
  8
0
 10
512.1
 20
22.9471
 11
513.88
 21
23.5253
  0
LINE
  8
0
 10
513.88
 20
23.5253
 11
515.741
 21
23.3297
  0
LINE
  8
0
 10
515.741
 20
23.3297
 11
517.361
 21
22.3941
  0
LINE
  8
0
 10
517.361
 20
22.3941
 11
518.461
 21
20.8803
  0
LINE
  8
0
 10
518.461
 20
20.8803
 11
518.85
 21
19.05
  0
LINE
  8
0
 10
518.85
 20
19.05
 11
518.461
 21
17.2197
  0
LINE
  8
0
 10
518.461
 20
17.2197
 11
517.361
 21
15.7058
  0
LINE
  8
0
 10
517.361
 20
15.7058
 11
515.741
 21
14.7702
  0
LINE
  8
0
 10
515.741
 20
14.7702
 11
513.88
 21
14.5746
  0
LINE
  8
0
 10
513.88
 20
14.5746
 11
512.1
 21
15.1529
  0
LINE
  8
0
 10
474
 20
15.1529
 11
472.609
 21
16.405
  0
LINE
  8
0
 10
472.609
 20
16.405
 11
471.848
 21
18.1144
  0
LINE
  8
0
 10
471.848
 20
18.1144
 11
471.848
 21
19.9856
  0
LINE
  8
0
 10
471.848
 20
19.9856
 11
472.609
 21
21.695
  0
LINE
  8
0
 10
472.609
 20
21.695
 11
474
 21
22.9471
  0
LINE
  8
0
 10
474
 20
22.9471
 11
475.78
 21
23.5253
  0
LINE
  8
0
 10
475.78
 20
23.5253
 11
477.641
 21
23.3297
  0
LINE
  8
0
 10
477.641
 20
23.3297
 11
479.261
 21
22.3941
  0
LINE
  8
0
 10
479.261
 20
22.3941
 11
480.361
 21
20.8803
  0
LINE
  8
0
 10
480.361
 20
20.8803
 11
480.75
 21
19.05
  0
LINE
  8
0
 10
480.75
 20
19.05
 11
480.361
 21
17.2197
  0
LINE
  8
0
 10
480.361
 20
17.2197
 11
479.261
 21
15.7058
  0
LINE
  8
0
 10
479.261
 20
15.7058
 11
477.641
 21
14.7702
  0
LINE
  8
0
 10
477.641
 20
14.7702
 11
475.78
 21
14.5746
  0
LINE
  8
0
 10
475.78
 20
14.5746
 11
474
 21
15.1529
  0
LINE
  8
0
 10
435.9
 20
15.1529
 11
434.509
 21
16.405
  0
LINE
  8
0
 10
434.509
 20
16.405
 11
433.748
 21
18.1144
  0
LINE
  8
0
 10
433.748
 20
18.1144
 11
433.748
 21
19.9856
  0
LINE
  8
0
 10
433.748
 20
19.9856
 11
434.509
 21
21.695
  0
LINE
  8
0
 10
434.509
 20
21.695
 11
435.9
 21
22.9471
  0
LINE
  8
0
 10
435.9
 20
22.9471
 11
437.68
 21
23.5253
  0
LINE
  8
0
 10
437.68
 20
23.5253
 11
439.541
 21
23.3297
  0
LINE
  8
0
 10
439.541
 20
23.3297
 11
441.161
 21
22.3941
  0
LINE
  8
0
 10
441.161
 20
22.3941
 11
442.261
 21
20.8803
  0
LINE
  8
0
 10
442.261
 20
20.8803
 11
442.65
 21
19.05
  0
LINE
  8
0
 10
442.65
 20
19.05
 11
442.261
 21
17.2197
  0
LINE
  8
0
 10
442.261
 20
17.2197
 11
441.161
 21
15.7058
  0
LINE
  8
0
 10
441.161
 20
15.7058
 11
439.541
 21
14.7702
  0
LINE
  8
0
 10
439.541
 20
14.7702
 11
437.68
 21
14.5746
  0
LINE
  8
0
 10
437.68
 20
14.5746
 11
435.9
 21
15.1529
  0
LINE
  8
0
 10
397.8
 20
15.1529
 11
396.409
 21
16.405
  0
LINE
  8
0
 10
396.409
 20
16.405
 11
395.648
 21
18.1144
  0
LINE
  8
0
 10
395.648
 20
18.1144
 11
395.648
 21
19.9856
  0
LINE
  8
0
 10
395.648
 20
19.9856
 11
396.409
 21
21.695
  0
LINE
  8
0
 10
396.409
 20
21.695
 11
397.8
 21
22.9471
  0
LINE
  8
0
 10
397.8
 20
22.9471
 11
399.58
 21
23.5253
  0
LINE
  8
0
 10
399.58
 20
23.5253
 11
401.441
 21
23.3297
  0
LINE
  8
0
 10
401.441
 20
23.3297
 11
403.061
 21
22.3941
  0
LINE
  8
0
 10
403.061
 20
22.3941
 11
404.161
 21
20.8803
  0
LINE
  8
0
 10
404.161
 20
20.8803
 11
404.55
 21
19.05
  0
LINE
  8
0
 10
404.55
 20
19.05
 11
404.161
 21
17.2197
  0
LINE
  8
0
 10
404.161
 20
17.2197
 11
403.061
 21
15.7058
  0
LINE
  8
0
 10
403.061
 20
15.7058
 11
401.441
 21
14.7702
  0
LINE
  8
0
 10
401.441
 20
14.7702
 11
399.58
 21
14.5746
  0
LINE
  8
0
 10
399.58
 20
14.5746
 11
397.8
 21
15.1529
  0
LINE
  8
0
 10
359.7
 20
15.1529
 11
358.309
 21
16.405
  0
LINE
  8
0
 10
358.309
 20
16.405
 11
357.548
 21
18.1144
  0
LINE
  8
0
 10
357.548
 20
18.1144
 11
357.548
 21
19.9856
  0
LINE
  8
0
 10
357.548
 20
19.9856
 11
358.309
 21
21.695
  0
LINE
  8
0
 10
358.309
 20
21.695
 11
359.7
 21
22.9471
  0
LINE
  8
0
 10
359.7
 20
22.9471
 11
361.48
 21
23.5253
  0
LINE
  8
0
 10
361.48
 20
23.5253
 11
363.341
 21
23.3297
  0
LINE
  8
0
 10
363.341
 20
23.3297
 11
364.961
 21
22.3941
  0
LINE
  8
0
 10
364.961
 20
22.3941
 11
366.061
 21
20.8803
  0
LINE
  8
0
 10
366.061
 20
20.8803
 11
366.45
 21
19.05
  0
LINE
  8
0
 10
366.45
 20
19.05
 11
366.061
 21
17.2197
  0
LINE
  8
0
 10
366.061
 20
17.2197
 11
364.961
 21
15.7058
  0
LINE
  8
0
 10
364.961
 20
15.7058
 11
363.341
 21
14.7702
  0
LINE
  8
0
 10
363.341
 20
14.7702
 11
361.48
 21
14.5746
  0
LINE
  8
0
 10
361.48
 20
14.5746
 11
359.7
 21
15.1529
  0
LINE
  8
0
 10
321.6
 20
15.1529
 11
320.209
 21
16.405
  0
LINE
  8
0
 10
320.209
 20
16.405
 11
319.448
 21
18.1144
  0
LINE
  8
0
 10
319.448
 20
18.1144
 11
319.448
 21
19.9856
  0
LINE
  8
0
 10
319.448
 20
19.9856
 11
320.209
 21
21.695
  0
LINE
  8
0
 10
320.209
 20
21.695
 11
321.6
 21
22.9471
  0
LINE
  8
0
 10
321.6
 20
22.9471
 11
323.38
 21
23.5253
  0
LINE
  8
0
 10
323.38
 20
23.5253
 11
325.241
 21
23.3297
  0
LINE
  8
0
 10
325.241
 20
23.3297
 11
326.861
 21
22.3941
  0
LINE
  8
0
 10
326.861
 20
22.3941
 11
327.961
 21
20.8803
  0
LINE
  8
0
 10
327.961
 20
20.8803
 11
328.35
 21
19.05
  0
LINE
  8
0
 10
328.35
 20
19.05
 11
327.961
 21
17.2197
  0
LINE
  8
0
 10
327.961
 20
17.2197
 11
326.861
 21
15.7058
  0
LINE
  8
0
 10
326.861
 20
15.7058
 11
325.241
 21
14.7702
  0
LINE
  8
0
 10
325.241
 20
14.7702
 11
323.38
 21
14.5746
  0
LINE
  8
0
 10
323.38
 20
14.5746
 11
321.6
 21
15.1529
  0
LINE
  8
0
 10
283.5
 20
15.1529
 11
282.109
 21
16.405
  0
LINE
  8
0
 10
282.109
 20
16.405
 11
281.348
 21
18.1144
  0
LINE
  8
0
 10
281.348
 20
18.1144
 11
281.348
 21
19.9856
  0
LINE
  8
0
 10
281.348
 20
19.9856
 11
282.109
 21
21.695
  0
LINE
  8
0
 10
282.109
 20
21.695
 11
283.5
 21
22.9471
  0
LINE
  8
0
 10
283.5
 20
22.9471
 11
285.28
 21
23.5253
  0
LINE
  8
0
 10
285.28
 20
23.5253
 11
287.141
 21
23.3297
  0
LINE
  8
0
 10
287.141
 20
23.3297
 11
288.761
 21
22.3941
  0
LINE
  8
0
 10
288.761
 20
22.3941
 11
289.861
 21
20.8803
  0
LINE
  8
0
 10
289.861
 20
20.8803
 11
290.25
 21
19.05
  0
LINE
  8
0
 10
290.25
 20
19.05
 11
289.861
 21
17.2197
  0
LINE
  8
0
 10
289.861
 20
17.2197
 11
288.761
 21
15.7058
  0
LINE
  8
0
 10
288.761
 20
15.7058
 11
287.141
 21
14.7702
  0
LINE
  8
0
 10
287.141
 20
14.7702
 11
285.28
 21
14.5746
  0
LINE
  8
0
 10
285.28
 20
14.5746
 11
283.5
 21
15.1529
  0
LINE
  8
0
 10
245.4
 20
15.1529
 11
244.009
 21
16.405
  0
LINE
  8
0
 10
244.009
 20
16.405
 11
243.248
 21
18.1144
  0
LINE
  8
0
 10
243.248
 20
18.1144
 11
243.248
 21
19.9856
  0
LINE
  8
0
 10
243.248
 20
19.9856
 11
244.009
 21
21.695
  0
LINE
  8
0
 10
244.009
 20
21.695
 11
245.4
 21
22.9471
  0
LINE
  8
0
 10
245.4
 20
22.9471
 11
247.18
 21
23.5253
  0
LINE
  8
0
 10
247.18
 20
23.5253
 11
249.041
 21
23.3297
  0
LINE
  8
0
 10
249.041
 20
23.3297
 11
250.661
 21
22.3941
  0
LINE
  8
0
 10
250.661
 20
22.3941
 11
251.761
 21
20.8803
  0
LINE
  8
0
 10
251.761
 20
20.8803
 11
252.15
 21
19.05
  0
LINE
  8
0
 10
252.15
 20
19.05
 11
251.761
 21
17.2197
  0
LINE
  8
0
 10
251.761
 20
17.2197
 11
250.661
 21
15.7058
  0
LINE
  8
0
 10
250.661
 20
15.7058
 11
249.041
 21
14.7702
  0
LINE
  8
0
 10
249.041
 20
14.7702
 11
247.18
 21
14.5746
  0
LINE
  8
0
 10
247.18
 20
14.5746
 11
245.4
 21
15.1529
  0
LINE
  8
0
 10
207.3
 20
15.1529
 11
205.909
 21
16.405
  0
LINE
  8
0
 10
205.909
 20
16.405
 11
205.148
 21
18.1144
  0
LINE
  8
0
 10
205.148
 20
18.1144
 11
205.148
 21
19.9856
  0
LINE
  8
0
 10
205.148
 20
19.9856
 11
205.909
 21
21.695
  0
LINE
  8
0
 10
205.909
 20
21.695
 11
207.3
 21
22.9471
  0
LINE
  8
0
 10
207.3
 20
22.9471
 11
209.08
 21
23.5253
  0
LINE
  8
0
 10
209.08
 20
23.5253
 11
210.941
 21
23.3297
  0
LINE
  8
0
 10
210.941
 20
23.3297
 11
212.561
 21
22.3941
  0
LINE
  8
0
 10
212.561
 20
22.3941
 11
213.661
 21
20.8803
  0
LINE
  8
0
 10
213.661
 20
20.8803
 11
214.05
 21
19.05
  0
LINE
  8
0
 10
214.05
 20
19.05
 11
213.661
 21
17.2197
  0
LINE
  8
0
 10
213.661
 20
17.2197
 11
212.561
 21
15.7058
  0
LINE
  8
0
 10
212.561
 20
15.7058
 11
210.941
 21
14.7702
  0
LINE
  8
0
 10
210.941
 20
14.7702
 11
209.08
 21
14.5746
  0
LINE
  8
0
 10
209.08
 20
14.5746
 11
207.3
 21
15.1529
  0
LINE
  8
0
 10
169.2
 20
15.1529
 11
167.809
 21
16.405
  0
LINE
  8
0
 10
167.809
 20
16.405
 11
167.048
 21
18.1144
  0
LINE
  8
0
 10
167.048
 20
18.1144
 11
167.048
 21
19.9856
  0
LINE
  8
0
 10
167.048
 20
19.9856
 11
167.809
 21
21.695
  0
LINE
  8
0
 10
167.809
 20
21.695
 11
169.2
 21
22.9471
  0
LINE
  8
0
 10
169.2
 20
22.9471
 11
170.98
 21
23.5253
  0
LINE
  8
0
 10
170.98
 20
23.5253
 11
172.841
 21
23.3297
  0
LINE
  8
0
 10
172.841
 20
23.3297
 11
174.461
 21
22.3941
  0
LINE
  8
0
 10
174.461
 20
22.3941
 11
175.561
 21
20.8803
  0
LINE
  8
0
 10
175.561
 20
20.8803
 11
175.95
 21
19.05
  0
LINE
  8
0
 10
175.95
 20
19.05
 11
175.561
 21
17.2197
  0
LINE
  8
0
 10
175.561
 20
17.2197
 11
174.461
 21
15.7058
  0
LINE
  8
0
 10
174.461
 20
15.7058
 11
172.841
 21
14.7702
  0
LINE
  8
0
 10
172.841
 20
14.7702
 11
170.98
 21
14.5746
  0
LINE
  8
0
 10
170.98
 20
14.5746
 11
169.2
 21
15.1529
  0
LINE
  8
0
 10
131.1
 20
15.1529
 11
129.709
 21
16.405
  0
LINE
  8
0
 10
129.709
 20
16.405
 11
128.948
 21
18.1144
  0
LINE
  8
0
 10
128.948
 20
18.1144
 11
128.948
 21
19.9856
  0
LINE
  8
0
 10
128.948
 20
19.9856
 11
129.709
 21
21.695
  0
LINE
  8
0
 10
129.709
 20
21.695
 11
131.1
 21
22.9471
  0
LINE
  8
0
 10
131.1
 20
22.9471
 11
132.88
 21
23.5253
  0
LINE
  8
0
 10
132.88
 20
23.5253
 11
134.741
 21
23.3297
  0
LINE
  8
0
 10
134.741
 20
23.3297
 11
136.361
 21
22.3941
  0
LINE
  8
0
 10
136.361
 20
22.3941
 11
137.461
 21
20.8803
  0
LINE
  8
0
 10
137.461
 20
20.8803
 11
137.85
 21
19.05
  0
LINE
  8
0
 10
137.85
 20
19.05
 11
137.461
 21
17.2197
  0
LINE
  8
0
 10
137.461
 20
17.2197
 11
136.361
 21
15.7058
  0
LINE
  8
0
 10
136.361
 20
15.7058
 11
134.741
 21
14.7702
  0
LINE
  8
0
 10
134.741
 20
14.7702
 11
132.88
 21
14.5746
  0
LINE
  8
0
 10
132.88
 20
14.5746
 11
131.1
 21
15.1529
  0
LINE
  8
0
 10
93
 20
15.1529
 11
91.6094
 21
16.405
  0
LINE
  8
0
 10
91.6094
 20
16.405
 11
90.8483
 21
18.1144
  0
LINE
  8
0
 10
90.8483
 20
18.1144
 11
90.8483
 21
19.9856
  0
LINE
  8
0
 10
90.8483
 20
19.9856
 11
91.6094
 21
21.695
  0
LINE
  8
0
 10
91.6094
 20
21.695
 11
93
 21
22.9471
  0
LINE
  8
0
 10
93
 20
22.9471
 11
94.7796
 21
23.5253
  0
LINE
  8
0
 10
94.7796
 20
23.5253
 11
96.6406
 21
23.3297
  0
LINE
  8
0
 10
96.6406
 20
23.3297
 11
98.2611
 21
22.3941
  0
LINE
  8
0
 10
98.2611
 20
22.3941
 11
99.3609
 21
20.8803
  0
LINE
  8
0
 10
99.3609
 20
20.8803
 11
99.75
 21
19.05
  0
LINE
  8
0
 10
99.75
 20
19.05
 11
99.3609
 21
17.2197
  0
LINE
  8
0
 10
99.3609
 20
17.2197
 11
98.2611
 21
15.7058
  0
LINE
  8
0
 10
98.2611
 20
15.7058
 11
96.6406
 21
14.7702
  0
LINE
  8
0
 10
96.6406
 20
14.7702
 11
94.7796
 21
14.5746
  0
LINE
  8
0
 10
94.7796
 20
14.5746
 11
93
 21
15.1529
  0
LINE
  8
0
 10
54.9
 20
15.1529
 11
53.5094
 21
16.405
  0
LINE
  8
0
 10
53.5094
 20
16.405
 11
52.7483
 21
18.1144
  0
LINE
  8
0
 10
52.7483
 20
18.1144
 11
52.7483
 21
19.9856
  0
LINE
  8
0
 10
52.7483
 20
19.9856
 11
53.5094
 21
21.695
  0
LINE
  8
0
 10
53.5094
 20
21.695
 11
54.9
 21
22.9471
  0
LINE
  8
0
 10
54.9
 20
22.9471
 11
56.6796
 21
23.5253
  0
LINE
  8
0
 10
56.6796
 20
23.5253
 11
58.5406
 21
23.3297
  0
LINE
  8
0
 10
58.5406
 20
23.3297
 11
60.1611
 21
22.3941
  0
LINE
  8
0
 10
60.1611
 20
22.3941
 11
61.2609
 21
20.8803
  0
LINE
  8
0
 10
61.2609
 20
20.8803
 11
61.65
 21
19.05
  0
LINE
  8
0
 10
61.65
 20
19.05
 11
61.2609
 21
17.2197
  0
LINE
  8
0
 10
61.2609
 20
17.2197
 11
60.1611
 21
15.7058
  0
LINE
  8
0
 10
60.1611
 20
15.7058
 11
58.5406
 21
14.7702
  0
LINE
  8
0
 10
58.5406
 20
14.7702
 11
56.6796
 21
14.5746
  0
LINE
  8
0
 10
56.6796
 20
14.5746
 11
54.9
 21
15.1529
  0
ENDSEC
  0
SECTION
  2
OBJECTS
  0
DICTIONARY
  0
ENDSEC
  0
EOF
