  0
SECTION
  2
BLOCKS
  0
ENDSEC
  0
SECTION
  2
ENTITIES
  0
LINE
  8
0
 10
114.3
 20
114.3
 11
0
 21
114.3
  0
LINE
  8
0
 10
0
 20
114.3
 11
0
 21
0
  0
LINE
  8
0
 10
0
 20
0
 11
114.3
 21
0
  0
LINE
  8
0
 10
114.3
 20
0
 11
114.3
 21
114.3
  0
LINE
  8
0
 10
16.8
 20
91.3529
 11
15.4094
 21
92.605
  0
LINE
  8
0
 10
15.4094
 20
92.605
 11
14.6483
 21
94.3144
  0
LINE
  8
0
 10
14.6483
 20
94.3144
 11
14.6483
 21
96.1856
  0
LINE
  8
0
 10
14.6483
 20
96.1856
 11
15.4094
 21
97.895
  0
LINE
  8
0
 10
15.4094
 20
97.895
 11
16.8
 21
99.1471
  0
LINE
  8
0
 10
16.8
 20
99.1471
 11
18.5796
 21
99.7253
  0
LINE
  8
0
 10
18.5796
 20
99.7253
 11
20.4406
 21
99.5297
  0
LINE
  8
0
 10
20.4406
 20
99.5297
 11
22.0611
 21
98.5941
  0
LINE
  8
0
 10
22.0611
 20
98.5941
 11
23.1609
 21
97.0803
  0
LINE
  8
0
 10
23.1609
 20
97.0803
 11
23.55
 21
95.25
  0
LINE
  8
0
 10
23.55
 20
95.25
 11
23.1609
 21
93.4197
  0
LINE
  8
0
 10
23.1609
 20
93.4197
 11
22.0611
 21
91.9058
  0
LINE
  8
0
 10
22.0611
 20
91.9058
 11
20.4406
 21
90.9702
  0
LINE
  8
0
 10
20.4406
 20
90.9702
 11
18.5796
 21
90.7746
  0
LINE
  8
0
 10
18.5796
 20
90.7746
 11
16.8
 21
91.3529
  0
LINE
  8
0
 10
54.9
 20
91.3529
 11
53.5094
 21
92.605
  0
LINE
  8
0
 10
53.5094
 20
92.605
 11
52.7483
 21
94.3144
  0
LINE
  8
0
 10
52.7483
 20
94.3144
 11
52.7483
 21
96.1856
  0
LINE
  8
0
 10
52.7483
 20
96.1856
 11
53.5094
 21
97.895
  0
LINE
  8
0
 10
53.5094
 20
97.895
 11
54.9
 21
99.1471
  0
LINE
  8
0
 10
54.9
 20
99.1471
 11
56.6796
 21
99.7253
  0
LINE
  8
0
 10
56.6796
 20
99.7253
 11
58.5406
 21
99.5297
  0
LINE
  8
0
 10
58.5406
 20
99.5297
 11
60.1611
 21
98.5941
  0
LINE
  8
0
 10
60.1611
 20
98.5941
 11
61.2609
 21
97.0803
  0
LINE
  8
0
 10
61.2609
 20
97.0803
 11
61.65
 21
95.25
  0
LINE
  8
0
 10
61.65
 20
95.25
 11
61.2609
 21
93.4197
  0
LINE
  8
0
 10
61.2609
 20
93.4197
 11
60.1611
 21
91.9058
  0
LINE
  8
0
 10
60.1611
 20
91.9058
 11
58.5406
 21
90.9702
  0
LINE
  8
0
 10
58.5406
 20
90.9702
 11
56.6796
 21
90.7746
  0
LINE
  8
0
 10
56.6796
 20
90.7746
 11
54.9
 21
91.3529
  0
LINE
  8
0
 10
93
 20
91.3529
 11
91.6094
 21
92.605
  0
LINE
  8
0
 10
91.6094
 20
92.605
 11
90.8483
 21
94.3144
  0
LINE
  8
0
 10
90.8483
 20
94.3144
 11
90.8483
 21
96.1856
  0
LINE
  8
0
 10
90.8483
 20
96.1856
 11
91.6094
 21
97.895
  0
LINE
  8
0
 10
91.6094
 20
97.895
 11
93
 21
99.1471
  0
LINE
  8
0
 10
93
 20
99.1471
 11
94.7796
 21
99.7253
  0
LINE
  8
0
 10
94.7796
 20
99.7253
 11
96.6406
 21
99.5297
  0
LINE
  8
0
 10
96.6406
 20
99.5297
 11
98.2611
 21
98.5941
  0
LINE
  8
0
 10
98.2611
 20
98.5941
 11
99.3609
 21
97.0803
  0
LINE
  8
0
 10
99.3609
 20
97.0803
 11
99.75
 21
95.25
  0
LINE
  8
0
 10
99.75
 20
95.25
 11
99.3609
 21
93.4197
  0
LINE
  8
0
 10
99.3609
 20
93.4197
 11
98.2611
 21
91.9058
  0
LINE
  8
0
 10
98.2611
 20
91.9058
 11
96.6406
 21
90.9702
  0
LINE
  8
0
 10
96.6406
 20
90.9702
 11
94.7796
 21
90.7746
  0
LINE
  8
0
 10
94.7796
 20
90.7746
 11
93
 21
91.3529
  0
LINE
  8
0
 10
56.1361
 20
47.5031
 11
54.1525
 21
47.9247
  0
LINE
  8
0
 10
54.1525
 20
47.9247
 11
52.3
 21
48.7495
  0
LINE
  8
0
 10
52.3
 20
48.7495
 11
50.6594
 21
49.9415
  0
LINE
  8
0
 10
50.6594
 20
49.9415
 11
49.3025
 21
51.4485
  0
LINE
  8
0
 10
49.3025
 20
51.4485
 11
48.2886
 21
53.2047
  0
LINE
  8
0
 10
48.2886
 20
53.2047
 11
47.662
 21
55.1333
  0
LINE
  8
0
 10
47.662
 20
55.1333
 11
47.45
 21
57.15
  0
LINE
  8
0
 10
47.45
 20
57.15
 11
47.662
 21
59.1667
  0
LINE
  8
0
 10
47.662
 20
59.1667
 11
48.2886
 21
61.0953
  0
LINE
  8
0
 10
48.2886
 20
61.0953
 11
49.3025
 21
62.8515
  0
LINE
  8
0
 10
49.3025
 20
62.8515
 11
50.6594
 21
64.3585
  0
LINE
  8
0
 10
50.6594
 20
64.3585
 11
52.3
 21
65.5504
  0
LINE
  8
0
 10
52.3
 20
65.5504
 11
54.1525
 21
66.3752
  0
LINE
  8
0
 10
54.1525
 20
66.3752
 11
56.1361
 21
66.7969
  0
LINE
  8
0
 10
56.1361
 20
66.7969
 11
58.1639
 21
66.7969
  0
LINE
  8
0
 10
58.1639
 20
66.7969
 11
60.1475
 21
66.3752
  0
LINE
  8
0
 10
60.1475
 20
66.3752
 11
62
 21
65.5504
  0
LINE
  8
0
 10
62
 20
65.5504
 11
63.6406
 21
64.3585
  0
LINE
  8
0
 10
63.6406
 20
64.3585
 11
64.9975
 21
62.8515
  0
LINE
  8
0
 10
64.9975
 20
62.8515
 11
66.0114
 21
61.0953
  0
LINE
  8
0
 10
66.0114
 20
61.0953
 11
66.638
 21
59.1667
  0
LINE
  8
0
 10
66.638
 20
59.1667
 11
66.85
 21
57.15
  0
LINE
  8
0
 10
66.85
 20
57.15
 11
66.638
 21
55.1333
  0
LINE
  8
0
 10
66.638
 20
55.1333
 11
66.0114
 21
53.2047
  0
LINE
  8
0
 10
66.0114
 20
53.2047
 11
64.9975
 21
51.4485
  0
LINE
  8
0
 10
64.9975
 20
51.4485
 11
63.6406
 21
49.9415
  0
LINE
  8
0
 10
63.6406
 20
49.9415
 11
62
 21
48.7495
  0
LINE
  8
0
 10
62
 20
48.7495
 11
60.1475
 21
47.9247
  0
LINE
  8
0
 10
60.1475
 20
47.9247
 11
58.1639
 21
47.5031
  0
LINE
  8
0
 10
58.1639
 20
47.5031
 11
56.1361
 21
47.5031
  0
LINE
  8
0
 10
16.8
 20
53.2529
 11
15.4094
 21
54.505
  0
LINE
  8
0
 10
15.4094
 20
54.505
 11
14.6483
 21
56.2144
  0
LINE
  8
0
 10
14.6483
 20
56.2144
 11
14.6483
 21
58.0856
  0
LINE
  8
0
 10
14.6483
 20
58.0856
 11
15.4094
 21
59.795
  0
LINE
  8
0
 10
15.4094
 20
59.795
 11
16.8
 21
61.0471
  0
LINE
  8
0
 10
16.8
 20
61.0471
 11
18.5796
 21
61.6253
  0
LINE
  8
0
 10
18.5796
 20
61.6253
 11
20.4406
 21
61.4297
  0
LINE
  8
0
 10
20.4406
 20
61.4297
 11
22.0611
 21
60.4941
  0
LINE
  8
0
 10
22.0611
 20
60.4941
 11
23.1609
 21
58.9803
  0
LINE
  8
0
 10
23.1609
 20
58.9803
 11
23.55
 21
57.15
  0
LINE
  8
0
 10
23.55
 20
57.15
 11
23.1609
 21
55.3197
  0
LINE
  8
0
 10
23.1609
 20
55.3197
 11
22.0611
 21
53.8058
  0
LINE
  8
0
 10
22.0611
 20
53.8058
 11
20.4406
 21
52.8702
  0
LINE
  8
0
 10
20.4406
 20
52.8702
 11
18.5796
 21
52.6746
  0
LINE
  8
0
 10
18.5796
 20
52.6746
 11
16.8
 21
53.2529
  0
LINE
  8
0
 10
93
 20
53.2529
 11
91.6094
 21
54.505
  0
LINE
  8
0
 10
91.6094
 20
54.505
 11
90.8483
 21
56.2144
  0
LINE
  8
0
 10
90.8483
 20
56.2144
 11
90.8483
 21
58.0856
  0
LINE
  8
0
 10
90.8483
 20
58.0856
 11
91.6094
 21
59.795
  0
LINE
  8
0
 10
91.6094
 20
59.795
 11
93
 21
61.0471
  0
LINE
  8
0
 10
93
 20
61.0471
 11
94.7796
 21
61.6253
  0
LINE
  8
0
 10
94.7796
 20
61.6253
 11
96.6406
 21
61.4297
  0
LINE
  8
0
 10
96.6406
 20
61.4297
 11
98.2611
 21
60.4941
  0
LINE
  8
0
 10
98.2611
 20
60.4941
 11
99.3609
 21
58.9803
  0
LINE
  8
0
 10
99.3609
 20
58.9803
 11
99.75
 21
57.15
  0
LINE
  8
0
 10
99.75
 20
57.15
 11
99.3609
 21
55.3197
  0
LINE
  8
0
 10
99.3609
 20
55.3197
 11
98.2611
 21
53.8058
  0
LINE
  8
0
 10
98.2611
 20
53.8058
 11
96.6406
 21
52.8702
  0
LINE
  8
0
 10
96.6406
 20
52.8702
 11
94.7796
 21
52.6746
  0
LINE
  8
0
 10
94.7796
 20
52.6746
 11
93
 21
53.2529
  0
LINE
  8
0
 10
16.8
 20
15.1529
 11
15.4094
 21
16.405
  0
LINE
  8
0
 10
15.4094
 20
16.405
 11
14.6483
 21
18.1144
  0
LINE
  8
0
 10
14.6483
 20
18.1144
 11
14.6483
 21
19.9856
  0
LINE
  8
0
 10
14.6483
 20
19.9856
 11
15.4094
 21
21.695
  0
LINE
  8
0
 10
15.4094
 20
21.695
 11
16.8
 21
22.9471
  0
LINE
  8
0
 10
16.8
 20
22.9471
 11
18.5796
 21
23.5253
  0
LINE
  8
0
 10
18.5796
 20
23.5253
 11
20.4406
 21
23.3297
  0
LINE
  8
0
 10
20.4406
 20
23.3297
 11
22.0611
 21
22.3941
  0
LINE
  8
0
 10
22.0611
 20
22.3941
 11
23.1609
 21
20.8803
  0
LINE
  8
0
 10
23.1609
 20
20.8803
 11
23.55
 21
19.05
  0
LINE
  8
0
 10
23.55
 20
19.05
 11
23.1609
 21
17.2197
  0
LINE
  8
0
 10
23.1609
 20
17.2197
 11
22.0611
 21
15.7058
  0
LINE
  8
0
 10
22.0611
 20
15.7058
 11
20.4406
 21
14.7702
  0
LINE
  8
0
 10
20.4406
 20
14.7702
 11
18.5796
 21
14.5746
  0
LINE
  8
0
 10
18.5796
 20
14.5746
 11
16.8
 21
15.1529
  0
LINE
  8
0
 10
54.9
 20
15.1529
 11
53.5094
 21
16.405
  0
LINE
  8
0
 10
53.5094
 20
16.405
 11
52.7483
 21
18.1144
  0
LINE
  8
0
 10
52.7483
 20
18.1144
 11
52.7483
 21
19.9856
  0
LINE
  8
0
 10
52.7483
 20
19.9856
 11
53.5094
 21
21.695
  0
LINE
  8
0
 10
53.5094
 20
21.695
 11
54.9
 21
22.9471
  0
LINE
  8
0
 10
54.9
 20
22.9471
 11
56.6796
 21
23.5253
  0
LINE
  8
0
 10
56.6796
 20
23.5253
 11
58.5406
 21
23.3297
  0
LINE
  8
0
 10
58.5406
 20
23.3297
 11
60.1611
 21
22.3941
  0
LINE
  8
0
 10
60.1611
 20
22.3941
 11
61.2609
 21
20.8803
  0
LINE
  8
0
 10
61.2609
 20
20.8803
 11
61.65
 21
19.05
  0
LINE
  8
0
 10
61.65
 20
19.05
 11
61.2609
 21
17.2197
  0
LINE
  8
0
 10
61.2609
 20
17.2197
 11
60.1611
 21
15.7058
  0
LINE
  8
0
 10
60.1611
 20
15.7058
 11
58.5406
 21
14.7702
  0
LINE
  8
0
 10
58.5406
 20
14.7702
 11
56.6796
 21
14.5746
  0
LINE
  8
0
 10
56.6796
 20
14.5746
 11
54.9
 21
15.1529
  0
LINE
  8
0
 10
93
 20
15.1529
 11
91.6094
 21
16.405
  0
LINE
  8
0
 10
91.6094
 20
16.405
 11
90.8483
 21
18.1144
  0
LINE
  8
0
 10
90.8483
 20
18.1144
 11
90.8483
 21
19.9856
  0
LINE
  8
0
 10
90.8483
 20
19.9856
 11
91.6094
 21
21.695
  0
LINE
  8
0
 10
91.6094
 20
21.695
 11
93
 21
22.9471
  0
LINE
  8
0
 10
93
 20
22.9471
 11
94.7796
 21
23.5253
  0
LINE
  8
0
 10
94.7796
 20
23.5253
 11
96.6406
 21
23.3297
  0
LINE
  8
0
 10
96.6406
 20
23.3297
 11
98.2611
 21
22.3941
  0
LINE
  8
0
 10
98.2611
 20
22.3941
 11
99.3609
 21
20.8803
  0
LINE
  8
0
 10
99.3609
 20
20.8803
 11
99.75
 21
19.05
  0
LINE
  8
0
 10
99.75
 20
19.05
 11
99.3609
 21
17.2197
  0
LINE
  8
0
 10
99.3609
 20
17.2197
 11
98.2611
 21
15.7058
  0
LINE
  8
0
 10
98.2611
 20
15.7058
 11
96.6406
 21
14.7702
  0
LINE
  8
0
 10
96.6406
 20
14.7702
 11
94.7796
 21
14.5746
  0
LINE
  8
0
 10
94.7796
 20
14.5746
 11
93
 21
15.1529
  0
ENDSEC
  0
SECTION
  2
OBJECTS
  0
DICTIONARY
  0
ENDSEC
  0
EOF
