  0
SECTION
  2
BLOCKS
  0
ENDSEC
  0
SECTION
  2
ENTITIES
  0
LINE
  8
0
 10
181.517
 20
0.636261
 11
184
 21
1.74167
  0
LINE
  8
0
 10
184
 20
1.74167
 11
186.199
 21
3.33911
  0
LINE
  8
0
 10
186.199
 20
3.33911
 11
188.017
 21
5.35878
  0
LINE
  8
0
 10
188.017
 20
5.35878
 11
189.376
 21
7.71242
  0
LINE
  8
0
 10
189.376
 20
7.71242
 11
190.216
 21
10.2971
  0
LINE
  8
0
 10
190.216
 20
10.2971
 11
190.5
 21
13
  0
LINE
  8
0
 10
190.5
 20
13
 11
190.5
 21
368
  0
LINE
  8
0
 10
190.5
 20
368
 11
190.216
 21
370.703
  0
LINE
  8
0
 10
190.216
 20
370.703
 11
189.376
 21
373.288
  0
LINE
  8
0
 10
189.376
 20
373.288
 11
188.017
 21
375.641
  0
LINE
  8
0
 10
188.017
 20
375.641
 11
186.199
 21
377.661
  0
LINE
  8
0
 10
186.199
 20
377.661
 11
184
 21
379.258
  0
LINE
  8
0
 10
184
 20
379.258
 11
181.517
 21
380.364
  0
LINE
  8
0
 10
181.517
 20
380.364
 11
178.859
 21
380.929
  0
LINE
  8
0
 10
178.859
 20
380.929
 11
11.6411
 21
380.929
  0
LINE
  8
0
 10
11.6411
 20
380.929
 11
8.98277
 21
380.364
  0
LINE
  8
0
 10
8.98277
 20
380.364
 11
6.5
 21
379.258
  0
LINE
  8
0
 10
6.5
 20
379.258
 11
4.3013
 21
377.661
  0
LINE
  8
0
 10
4.3013
 20
377.661
 11
2.48277
 21
375.641
  0
LINE
  8
0
 10
2.48277
 20
375.641
 11
1.1239
 21
373.288
  0
LINE
  8
0
 10
1.1239
 20
373.288
 11
0.284073
 21
370.703
  0
LINE
  8
0
 10
0.284073
 20
370.703
 11
0
 21
368
  0
LINE
  8
0
 10
0
 20
368
 11
0
 21
13
  0
LINE
  8
0
 10
0
 20
13
 11
0.284073
 21
10.2971
  0
LINE
  8
0
 10
0.284073
 20
10.2971
 11
1.1239
 21
7.71242
  0
LINE
  8
0
 10
1.1239
 20
7.71242
 11
2.48277
 21
5.35878
  0
LINE
  8
0
 10
2.48277
 20
5.35878
 11
4.3013
 21
3.33911
  0
LINE
  8
0
 10
4.3013
 20
3.33911
 11
6.5
 21
1.74167
  0
LINE
  8
0
 10
6.5
 20
1.74167
 11
8.98277
 21
0.636261
  0
LINE
  8
0
 10
8.98277
 20
0.636261
 11
11.6411
 21
0.0712128
  0
LINE
  8
0
 10
11.6411
 20
0.0712128
 11
178.859
 21
0.0712128
  0
LINE
  8
0
 10
178.859
 20
0.0712128
 11
181.517
 21
0.636261
  0
LINE
  8
0
 10
169.2
 20
358.053
 11
167.809
 21
359.305
  0
LINE
  8
0
 10
167.809
 20
359.305
 11
167.048
 21
361.014
  0
LINE
  8
0
 10
167.048
 20
361.014
 11
167.048
 21
362.886
  0
LINE
  8
0
 10
167.048
 20
362.886
 11
167.809
 21
364.595
  0
LINE
  8
0
 10
167.809
 20
364.595
 11
169.2
 21
365.847
  0
LINE
  8
0
 10
169.2
 20
365.847
 11
170.98
 21
366.425
  0
LINE
  8
0
 10
170.98
 20
366.425
 11
172.841
 21
366.23
  0
LINE
  8
0
 10
172.841
 20
366.23
 11
174.461
 21
365.294
  0
LINE
  8
0
 10
174.461
 20
365.294
 11
175.561
 21
363.78
  0
LINE
  8
0
 10
175.561
 20
363.78
 11
175.95
 21
361.95
  0
LINE
  8
0
 10
175.95
 20
361.95
 11
175.561
 21
360.12
  0
LINE
  8
0
 10
175.561
 20
360.12
 11
174.461
 21
358.606
  0
LINE
  8
0
 10
174.461
 20
358.606
 11
172.841
 21
357.67
  0
LINE
  8
0
 10
172.841
 20
357.67
 11
170.98
 21
357.475
  0
LINE
  8
0
 10
170.98
 20
357.475
 11
169.2
 21
358.053
  0
LINE
  8
0
 10
131.1
 20
358.053
 11
129.709
 21
359.305
  0
LINE
  8
0
 10
129.709
 20
359.305
 11
128.948
 21
361.014
  0
LINE
  8
0
 10
128.948
 20
361.014
 11
128.948
 21
362.886
  0
LINE
  8
0
 10
128.948
 20
362.886
 11
129.709
 21
364.595
  0
LINE
  8
0
 10
129.709
 20
364.595
 11
131.1
 21
365.847
  0
LINE
  8
0
 10
131.1
 20
365.847
 11
132.88
 21
366.425
  0
LINE
  8
0
 10
132.88
 20
366.425
 11
134.741
 21
366.23
  0
LINE
  8
0
 10
134.741
 20
366.23
 11
136.361
 21
365.294
  0
LINE
  8
0
 10
136.361
 20
365.294
 11
137.461
 21
363.78
  0
LINE
  8
0
 10
137.461
 20
363.78
 11
137.85
 21
361.95
  0
LINE
  8
0
 10
137.85
 20
361.95
 11
137.461
 21
360.12
  0
LINE
  8
0
 10
137.461
 20
360.12
 11
136.361
 21
358.606
  0
LINE
  8
0
 10
136.361
 20
358.606
 11
134.741
 21
357.67
  0
LINE
  8
0
 10
134.741
 20
357.67
 11
132.88
 21
357.475
  0
LINE
  8
0
 10
132.88
 20
357.475
 11
131.1
 21
358.053
  0
LINE
  8
0
 10
93
 20
358.053
 11
91.6094
 21
359.305
  0
LINE
  8
0
 10
91.6094
 20
359.305
 11
90.8483
 21
361.014
  0
LINE
  8
0
 10
90.8483
 20
361.014
 11
90.8483
 21
362.886
  0
LINE
  8
0
 10
90.8483
 20
362.886
 11
91.6094
 21
364.595
  0
LINE
  8
0
 10
91.6094
 20
364.595
 11
93
 21
365.847
  0
LINE
  8
0
 10
93
 20
365.847
 11
94.7796
 21
366.425
  0
LINE
  8
0
 10
94.7796
 20
366.425
 11
96.6406
 21
366.23
  0
LINE
  8
0
 10
96.6406
 20
366.23
 11
98.2611
 21
365.294
  0
LINE
  8
0
 10
98.2611
 20
365.294
 11
99.3609
 21
363.78
  0
LINE
  8
0
 10
99.3609
 20
363.78
 11
99.75
 21
361.95
  0
LINE
  8
0
 10
99.75
 20
361.95
 11
99.3609
 21
360.12
  0
LINE
  8
0
 10
99.3609
 20
360.12
 11
98.2611
 21
358.606
  0
LINE
  8
0
 10
98.2611
 20
358.606
 11
96.6406
 21
357.67
  0
LINE
  8
0
 10
96.6406
 20
357.67
 11
94.7796
 21
357.475
  0
LINE
  8
0
 10
94.7796
 20
357.475
 11
93
 21
358.053
  0
LINE
  8
0
 10
54.9
 20
358.053
 11
53.5094
 21
359.305
  0
LINE
  8
0
 10
53.5094
 20
359.305
 11
52.7483
 21
361.014
  0
LINE
  8
0
 10
52.7483
 20
361.014
 11
52.7483
 21
362.886
  0
LINE
  8
0
 10
52.7483
 20
362.886
 11
53.5094
 21
364.595
  0
LINE
  8
0
 10
53.5094
 20
364.595
 11
54.9
 21
365.847
  0
LINE
  8
0
 10
54.9
 20
365.847
 11
56.6796
 21
366.425
  0
LINE
  8
0
 10
56.6796
 20
366.425
 11
58.5406
 21
366.23
  0
LINE
  8
0
 10
58.5406
 20
366.23
 11
60.1611
 21
365.294
  0
LINE
  8
0
 10
60.1611
 20
365.294
 11
61.2609
 21
363.78
  0
LINE
  8
0
 10
61.2609
 20
363.78
 11
61.65
 21
361.95
  0
LINE
  8
0
 10
61.65
 20
361.95
 11
61.2609
 21
360.12
  0
LINE
  8
0
 10
61.2609
 20
360.12
 11
60.1611
 21
358.606
  0
LINE
  8
0
 10
60.1611
 20
358.606
 11
58.5406
 21
357.67
  0
LINE
  8
0
 10
58.5406
 20
357.67
 11
56.6796
 21
357.475
  0
LINE
  8
0
 10
56.6796
 20
357.475
 11
54.9
 21
358.053
  0
LINE
  8
0
 10
16.8
 20
358.053
 11
15.4094
 21
359.305
  0
LINE
  8
0
 10
15.4094
 20
359.305
 11
14.6483
 21
361.014
  0
LINE
  8
0
 10
14.6483
 20
361.014
 11
14.6483
 21
362.886
  0
LINE
  8
0
 10
14.6483
 20
362.886
 11
15.4094
 21
364.595
  0
LINE
  8
0
 10
15.4094
 20
364.595
 11
16.8
 21
365.847
  0
LINE
  8
0
 10
16.8
 20
365.847
 11
18.5796
 21
366.425
  0
LINE
  8
0
 10
18.5796
 20
366.425
 11
20.4406
 21
366.23
  0
LINE
  8
0
 10
20.4406
 20
366.23
 11
22.0611
 21
365.294
  0
LINE
  8
0
 10
22.0611
 20
365.294
 11
23.1609
 21
363.78
  0
LINE
  8
0
 10
23.1609
 20
363.78
 11
23.55
 21
361.95
  0
LINE
  8
0
 10
23.55
 20
361.95
 11
23.1609
 21
360.12
  0
LINE
  8
0
 10
23.1609
 20
360.12
 11
22.0611
 21
358.606
  0
LINE
  8
0
 10
22.0611
 20
358.606
 11
20.4406
 21
357.67
  0
LINE
  8
0
 10
20.4406
 20
357.67
 11
18.5796
 21
357.475
  0
LINE
  8
0
 10
18.5796
 20
357.475
 11
16.8
 21
358.053
  0
LINE
  8
0
 10
169.2
 20
319.953
 11
167.809
 21
321.205
  0
LINE
  8
0
 10
167.809
 20
321.205
 11
167.048
 21
322.914
  0
LINE
  8
0
 10
167.048
 20
322.914
 11
167.048
 21
324.786
  0
LINE
  8
0
 10
167.048
 20
324.786
 11
167.809
 21
326.495
  0
LINE
  8
0
 10
167.809
 20
326.495
 11
169.2
 21
327.747
  0
LINE
  8
0
 10
169.2
 20
327.747
 11
170.98
 21
328.325
  0
LINE
  8
0
 10
170.98
 20
328.325
 11
172.841
 21
328.13
  0
LINE
  8
0
 10
172.841
 20
328.13
 11
174.461
 21
327.194
  0
LINE
  8
0
 10
174.461
 20
327.194
 11
175.561
 21
325.68
  0
LINE
  8
0
 10
175.561
 20
325.68
 11
175.95
 21
323.85
  0
LINE
  8
0
 10
175.95
 20
323.85
 11
175.561
 21
322.02
  0
LINE
  8
0
 10
175.561
 20
322.02
 11
174.461
 21
320.506
  0
LINE
  8
0
 10
174.461
 20
320.506
 11
172.841
 21
319.57
  0
LINE
  8
0
 10
172.841
 20
319.57
 11
170.98
 21
319.375
  0
LINE
  8
0
 10
170.98
 20
319.375
 11
169.2
 21
319.953
  0
LINE
  8
0
 10
131.1
 20
319.953
 11
129.709
 21
321.205
  0
LINE
  8
0
 10
129.709
 20
321.205
 11
128.948
 21
322.914
  0
LINE
  8
0
 10
128.948
 20
322.914
 11
128.948
 21
324.786
  0
LINE
  8
0
 10
128.948
 20
324.786
 11
129.709
 21
326.495
  0
LINE
  8
0
 10
129.709
 20
326.495
 11
131.1
 21
327.747
  0
LINE
  8
0
 10
131.1
 20
327.747
 11
132.88
 21
328.325
  0
LINE
  8
0
 10
132.88
 20
328.325
 11
134.741
 21
328.13
  0
LINE
  8
0
 10
134.741
 20
328.13
 11
136.361
 21
327.194
  0
LINE
  8
0
 10
136.361
 20
327.194
 11
137.461
 21
325.68
  0
LINE
  8
0
 10
137.461
 20
325.68
 11
137.85
 21
323.85
  0
LINE
  8
0
 10
137.85
 20
323.85
 11
137.461
 21
322.02
  0
LINE
  8
0
 10
137.461
 20
322.02
 11
136.361
 21
320.506
  0
LINE
  8
0
 10
136.361
 20
320.506
 11
134.741
 21
319.57
  0
LINE
  8
0
 10
134.741
 20
319.57
 11
132.88
 21
319.375
  0
LINE
  8
0
 10
132.88
 20
319.375
 11
131.1
 21
319.953
  0
LINE
  8
0
 10
93
 20
319.953
 11
91.6094
 21
321.205
  0
LINE
  8
0
 10
91.6094
 20
321.205
 11
90.8483
 21
322.914
  0
LINE
  8
0
 10
90.8483
 20
322.914
 11
90.8483
 21
324.786
  0
LINE
  8
0
 10
90.8483
 20
324.786
 11
91.6094
 21
326.495
  0
LINE
  8
0
 10
91.6094
 20
326.495
 11
93
 21
327.747
  0
LINE
  8
0
 10
93
 20
327.747
 11
94.7796
 21
328.325
  0
LINE
  8
0
 10
94.7796
 20
328.325
 11
96.6406
 21
328.13
  0
LINE
  8
0
 10
96.6406
 20
328.13
 11
98.2611
 21
327.194
  0
LINE
  8
0
 10
98.2611
 20
327.194
 11
99.3609
 21
325.68
  0
LINE
  8
0
 10
99.3609
 20
325.68
 11
99.75
 21
323.85
  0
LINE
  8
0
 10
99.75
 20
323.85
 11
99.3609
 21
322.02
  0
LINE
  8
0
 10
99.3609
 20
322.02
 11
98.2611
 21
320.506
  0
LINE
  8
0
 10
98.2611
 20
320.506
 11
96.6406
 21
319.57
  0
LINE
  8
0
 10
96.6406
 20
319.57
 11
94.7796
 21
319.375
  0
LINE
  8
0
 10
94.7796
 20
319.375
 11
93
 21
319.953
  0
LINE
  8
0
 10
54.9
 20
319.953
 11
53.5094
 21
321.205
  0
LINE
  8
0
 10
53.5094
 20
321.205
 11
52.7483
 21
322.914
  0
LINE
  8
0
 10
52.7483
 20
322.914
 11
52.7483
 21
324.786
  0
LINE
  8
0
 10
52.7483
 20
324.786
 11
53.5094
 21
326.495
  0
LINE
  8
0
 10
53.5094
 20
326.495
 11
54.9
 21
327.747
  0
LINE
  8
0
 10
54.9
 20
327.747
 11
56.6796
 21
328.325
  0
LINE
  8
0
 10
56.6796
 20
328.325
 11
58.5406
 21
328.13
  0
LINE
  8
0
 10
58.5406
 20
328.13
 11
60.1611
 21
327.194
  0
LINE
  8
0
 10
60.1611
 20
327.194
 11
61.2609
 21
325.68
  0
LINE
  8
0
 10
61.2609
 20
325.68
 11
61.65
 21
323.85
  0
LINE
  8
0
 10
61.65
 20
323.85
 11
61.2609
 21
322.02
  0
LINE
  8
0
 10
61.2609
 20
322.02
 11
60.1611
 21
320.506
  0
LINE
  8
0
 10
60.1611
 20
320.506
 11
58.5406
 21
319.57
  0
LINE
  8
0
 10
58.5406
 20
319.57
 11
56.6796
 21
319.375
  0
LINE
  8
0
 10
56.6796
 20
319.375
 11
54.9
 21
319.953
  0
LINE
  8
0
 10
16.8
 20
319.953
 11
15.4094
 21
321.205
  0
LINE
  8
0
 10
15.4094
 20
321.205
 11
14.6483
 21
322.914
  0
LINE
  8
0
 10
14.6483
 20
322.914
 11
14.6483
 21
324.786
  0
LINE
  8
0
 10
14.6483
 20
324.786
 11
15.4094
 21
326.495
  0
LINE
  8
0
 10
15.4094
 20
326.495
 11
16.8
 21
327.747
  0
LINE
  8
0
 10
16.8
 20
327.747
 11
18.5796
 21
328.325
  0
LINE
  8
0
 10
18.5796
 20
328.325
 11
20.4406
 21
328.13
  0
LINE
  8
0
 10
20.4406
 20
328.13
 11
22.0611
 21
327.194
  0
LINE
  8
0
 10
22.0611
 20
327.194
 11
23.1609
 21
325.68
  0
LINE
  8
0
 10
23.1609
 20
325.68
 11
23.55
 21
323.85
  0
LINE
  8
0
 10
23.55
 20
323.85
 11
23.1609
 21
322.02
  0
LINE
  8
0
 10
23.1609
 20
322.02
 11
22.0611
 21
320.506
  0
LINE
  8
0
 10
22.0611
 20
320.506
 11
20.4406
 21
319.57
  0
LINE
  8
0
 10
20.4406
 20
319.57
 11
18.5796
 21
319.375
  0
LINE
  8
0
 10
18.5796
 20
319.375
 11
16.8
 21
319.953
  0
LINE
  8
0
 10
131.1
 20
281.853
 11
129.709
 21
283.105
  0
LINE
  8
0
 10
129.709
 20
283.105
 11
128.948
 21
284.814
  0
LINE
  8
0
 10
128.948
 20
284.814
 11
128.948
 21
286.686
  0
LINE
  8
0
 10
128.948
 20
286.686
 11
129.709
 21
288.395
  0
LINE
  8
0
 10
129.709
 20
288.395
 11
131.1
 21
289.647
  0
LINE
  8
0
 10
131.1
 20
289.647
 11
132.88
 21
290.225
  0
LINE
  8
0
 10
132.88
 20
290.225
 11
134.741
 21
290.03
  0
LINE
  8
0
 10
134.741
 20
290.03
 11
136.361
 21
289.094
  0
LINE
  8
0
 10
136.361
 20
289.094
 11
137.461
 21
287.58
  0
LINE
  8
0
 10
137.461
 20
287.58
 11
137.85
 21
285.75
  0
LINE
  8
0
 10
137.85
 20
285.75
 11
137.461
 21
283.92
  0
LINE
  8
0
 10
137.461
 20
283.92
 11
136.361
 21
282.406
  0
LINE
  8
0
 10
136.361
 20
282.406
 11
134.741
 21
281.47
  0
LINE
  8
0
 10
134.741
 20
281.47
 11
132.88
 21
281.275
  0
LINE
  8
0
 10
132.88
 20
281.275
 11
131.1
 21
281.853
  0
LINE
  8
0
 10
169.2
 20
281.853
 11
167.809
 21
283.105
  0
LINE
  8
0
 10
167.809
 20
283.105
 11
167.048
 21
284.814
  0
LINE
  8
0
 10
167.048
 20
284.814
 11
167.048
 21
286.686
  0
LINE
  8
0
 10
167.048
 20
286.686
 11
167.809
 21
288.395
  0
LINE
  8
0
 10
167.809
 20
288.395
 11
169.2
 21
289.647
  0
LINE
  8
0
 10
169.2
 20
289.647
 11
170.98
 21
290.225
  0
LINE
  8
0
 10
170.98
 20
290.225
 11
172.841
 21
290.03
  0
LINE
  8
0
 10
172.841
 20
290.03
 11
174.461
 21
289.094
  0
LINE
  8
0
 10
174.461
 20
289.094
 11
175.561
 21
287.58
  0
LINE
  8
0
 10
175.561
 20
287.58
 11
175.95
 21
285.75
  0
LINE
  8
0
 10
175.95
 20
285.75
 11
175.561
 21
283.92
  0
LINE
  8
0
 10
175.561
 20
283.92
 11
174.461
 21
282.406
  0
LINE
  8
0
 10
174.461
 20
282.406
 11
172.841
 21
281.47
  0
LINE
  8
0
 10
172.841
 20
281.47
 11
170.98
 21
281.275
  0
LINE
  8
0
 10
170.98
 20
281.275
 11
169.2
 21
281.853
  0
LINE
  8
0
 10
93
 20
281.853
 11
91.6094
 21
283.105
  0
LINE
  8
0
 10
91.6094
 20
283.105
 11
90.8483
 21
284.814
  0
LINE
  8
0
 10
90.8483
 20
284.814
 11
90.8483
 21
286.686
  0
LINE
  8
0
 10
90.8483
 20
286.686
 11
91.6094
 21
288.395
  0
LINE
  8
0
 10
91.6094
 20
288.395
 11
93
 21
289.647
  0
LINE
  8
0
 10
93
 20
289.647
 11
94.7796
 21
290.225
  0
LINE
  8
0
 10
94.7796
 20
290.225
 11
96.6406
 21
290.03
  0
LINE
  8
0
 10
96.6406
 20
290.03
 11
98.2611
 21
289.094
  0
LINE
  8
0
 10
98.2611
 20
289.094
 11
99.3609
 21
287.58
  0
LINE
  8
0
 10
99.3609
 20
287.58
 11
99.75
 21
285.75
  0
LINE
  8
0
 10
99.75
 20
285.75
 11
99.3609
 21
283.92
  0
LINE
  8
0
 10
99.3609
 20
283.92
 11
98.2611
 21
282.406
  0
LINE
  8
0
 10
98.2611
 20
282.406
 11
96.6406
 21
281.47
  0
LINE
  8
0
 10
96.6406
 20
281.47
 11
94.7796
 21
281.275
  0
LINE
  8
0
 10
94.7796
 20
281.275
 11
93
 21
281.853
  0
LINE
  8
0
 10
54.9
 20
281.853
 11
53.5094
 21
283.105
  0
LINE
  8
0
 10
53.5094
 20
283.105
 11
52.7483
 21
284.814
  0
LINE
  8
0
 10
52.7483
 20
284.814
 11
52.7483
 21
286.686
  0
LINE
  8
0
 10
52.7483
 20
286.686
 11
53.5094
 21
288.395
  0
LINE
  8
0
 10
53.5094
 20
288.395
 11
54.9
 21
289.647
  0
LINE
  8
0
 10
54.9
 20
289.647
 11
56.6796
 21
290.225
  0
LINE
  8
0
 10
56.6796
 20
290.225
 11
58.5406
 21
290.03
  0
LINE
  8
0
 10
58.5406
 20
290.03
 11
60.1611
 21
289.094
  0
LINE
  8
0
 10
60.1611
 20
289.094
 11
61.2609
 21
287.58
  0
LINE
  8
0
 10
61.2609
 20
287.58
 11
61.65
 21
285.75
  0
LINE
  8
0
 10
61.65
 20
285.75
 11
61.2609
 21
283.92
  0
LINE
  8
0
 10
61.2609
 20
283.92
 11
60.1611
 21
282.406
  0
LINE
  8
0
 10
60.1611
 20
282.406
 11
58.5406
 21
281.47
  0
LINE
  8
0
 10
58.5406
 20
281.47
 11
56.6796
 21
281.275
  0
LINE
  8
0
 10
56.6796
 20
281.275
 11
54.9
 21
281.853
  0
LINE
  8
0
 10
16.8
 20
281.853
 11
15.4094
 21
283.105
  0
LINE
  8
0
 10
15.4094
 20
283.105
 11
14.6483
 21
284.814
  0
LINE
  8
0
 10
14.6483
 20
284.814
 11
14.6483
 21
286.686
  0
LINE
  8
0
 10
14.6483
 20
286.686
 11
15.4094
 21
288.395
  0
LINE
  8
0
 10
15.4094
 20
288.395
 11
16.8
 21
289.647
  0
LINE
  8
0
 10
16.8
 20
289.647
 11
18.5796
 21
290.225
  0
LINE
  8
0
 10
18.5796
 20
290.225
 11
20.4406
 21
290.03
  0
LINE
  8
0
 10
20.4406
 20
290.03
 11
22.0611
 21
289.094
  0
LINE
  8
0
 10
22.0611
 20
289.094
 11
23.1609
 21
287.58
  0
LINE
  8
0
 10
23.1609
 20
287.58
 11
23.55
 21
285.75
  0
LINE
  8
0
 10
23.55
 20
285.75
 11
23.1609
 21
283.92
  0
LINE
  8
0
 10
23.1609
 20
283.92
 11
22.0611
 21
282.406
  0
LINE
  8
0
 10
22.0611
 20
282.406
 11
20.4406
 21
281.47
  0
LINE
  8
0
 10
20.4406
 20
281.47
 11
18.5796
 21
281.275
  0
LINE
  8
0
 10
18.5796
 20
281.275
 11
16.8
 21
281.853
  0
LINE
  8
0
 10
169.2
 20
243.753
 11
167.809
 21
245.005
  0
LINE
  8
0
 10
167.809
 20
245.005
 11
167.048
 21
246.714
  0
LINE
  8
0
 10
167.048
 20
246.714
 11
167.048
 21
248.586
  0
LINE
  8
0
 10
167.048
 20
248.586
 11
167.809
 21
250.295
  0
LINE
  8
0
 10
167.809
 20
250.295
 11
169.2
 21
251.547
  0
LINE
  8
0
 10
169.2
 20
251.547
 11
170.98
 21
252.125
  0
LINE
  8
0
 10
170.98
 20
252.125
 11
172.841
 21
251.93
  0
LINE
  8
0
 10
172.841
 20
251.93
 11
174.461
 21
250.994
  0
LINE
  8
0
 10
174.461
 20
250.994
 11
175.561
 21
249.48
  0
LINE
  8
0
 10
175.561
 20
249.48
 11
175.95
 21
247.65
  0
LINE
  8
0
 10
175.95
 20
247.65
 11
175.561
 21
245.82
  0
LINE
  8
0
 10
175.561
 20
245.82
 11
174.461
 21
244.306
  0
LINE
  8
0
 10
174.461
 20
244.306
 11
172.841
 21
243.37
  0
LINE
  8
0
 10
172.841
 20
243.37
 11
170.98
 21
243.175
  0
LINE
  8
0
 10
170.98
 20
243.175
 11
169.2
 21
243.753
  0
LINE
  8
0
 10
131.1
 20
243.753
 11
129.709
 21
245.005
  0
LINE
  8
0
 10
129.709
 20
245.005
 11
128.948
 21
246.714
  0
LINE
  8
0
 10
128.948
 20
246.714
 11
128.948
 21
248.586
  0
LINE
  8
0
 10
128.948
 20
248.586
 11
129.709
 21
250.295
  0
LINE
  8
0
 10
129.709
 20
250.295
 11
131.1
 21
251.547
  0
LINE
  8
0
 10
131.1
 20
251.547
 11
132.88
 21
252.125
  0
LINE
  8
0
 10
132.88
 20
252.125
 11
134.741
 21
251.93
  0
LINE
  8
0
 10
134.741
 20
251.93
 11
136.361
 21
250.994
  0
LINE
  8
0
 10
136.361
 20
250.994
 11
137.461
 21
249.48
  0
LINE
  8
0
 10
137.461
 20
249.48
 11
137.85
 21
247.65
  0
LINE
  8
0
 10
137.85
 20
247.65
 11
137.461
 21
245.82
  0
LINE
  8
0
 10
137.461
 20
245.82
 11
136.361
 21
244.306
  0
LINE
  8
0
 10
136.361
 20
244.306
 11
134.741
 21
243.37
  0
LINE
  8
0
 10
134.741
 20
243.37
 11
132.88
 21
243.175
  0
LINE
  8
0
 10
132.88
 20
243.175
 11
131.1
 21
243.753
  0
LINE
  8
0
 10
93
 20
243.753
 11
91.6094
 21
245.005
  0
LINE
  8
0
 10
91.6094
 20
245.005
 11
90.8483
 21
246.714
  0
LINE
  8
0
 10
90.8483
 20
246.714
 11
90.8483
 21
248.586
  0
LINE
  8
0
 10
90.8483
 20
248.586
 11
91.6094
 21
250.295
  0
LINE
  8
0
 10
91.6094
 20
250.295
 11
93
 21
251.547
  0
LINE
  8
0
 10
93
 20
251.547
 11
94.7796
 21
252.125
  0
LINE
  8
0
 10
94.7796
 20
252.125
 11
96.6406
 21
251.93
  0
LINE
  8
0
 10
96.6406
 20
251.93
 11
98.2611
 21
250.994
  0
LINE
  8
0
 10
98.2611
 20
250.994
 11
99.3609
 21
249.48
  0
LINE
  8
0
 10
99.3609
 20
249.48
 11
99.75
 21
247.65
  0
LINE
  8
0
 10
99.75
 20
247.65
 11
99.3609
 21
245.82
  0
LINE
  8
0
 10
99.3609
 20
245.82
 11
98.2611
 21
244.306
  0
LINE
  8
0
 10
98.2611
 20
244.306
 11
96.6406
 21
243.37
  0
LINE
  8
0
 10
96.6406
 20
243.37
 11
94.7796
 21
243.175
  0
LINE
  8
0
 10
94.7796
 20
243.175
 11
93
 21
243.753
  0
LINE
  8
0
 10
54.9
 20
243.753
 11
53.5094
 21
245.005
  0
LINE
  8
0
 10
53.5094
 20
245.005
 11
52.7483
 21
246.714
  0
LINE
  8
0
 10
52.7483
 20
246.714
 11
52.7483
 21
248.586
  0
LINE
  8
0
 10
52.7483
 20
248.586
 11
53.5094
 21
250.295
  0
LINE
  8
0
 10
53.5094
 20
250.295
 11
54.9
 21
251.547
  0
LINE
  8
0
 10
54.9
 20
251.547
 11
56.6796
 21
252.125
  0
LINE
  8
0
 10
56.6796
 20
252.125
 11
58.5406
 21
251.93
  0
LINE
  8
0
 10
58.5406
 20
251.93
 11
60.1611
 21
250.994
  0
LINE
  8
0
 10
60.1611
 20
250.994
 11
61.2609
 21
249.48
  0
LINE
  8
0
 10
61.2609
 20
249.48
 11
61.65
 21
247.65
  0
LINE
  8
0
 10
61.65
 20
247.65
 11
61.2609
 21
245.82
  0
LINE
  8
0
 10
61.2609
 20
245.82
 11
60.1611
 21
244.306
  0
LINE
  8
0
 10
60.1611
 20
244.306
 11
58.5406
 21
243.37
  0
LINE
  8
0
 10
58.5406
 20
243.37
 11
56.6796
 21
243.175
  0
LINE
  8
0
 10
56.6796
 20
243.175
 11
54.9
 21
243.753
  0
LINE
  8
0
 10
16.8
 20
243.753
 11
15.4094
 21
245.005
  0
LINE
  8
0
 10
15.4094
 20
245.005
 11
14.6483
 21
246.714
  0
LINE
  8
0
 10
14.6483
 20
246.714
 11
14.6483
 21
248.586
  0
LINE
  8
0
 10
14.6483
 20
248.586
 11
15.4094
 21
250.295
  0
LINE
  8
0
 10
15.4094
 20
250.295
 11
16.8
 21
251.547
  0
LINE
  8
0
 10
16.8
 20
251.547
 11
18.5796
 21
252.125
  0
LINE
  8
0
 10
18.5796
 20
252.125
 11
20.4406
 21
251.93
  0
LINE
  8
0
 10
20.4406
 20
251.93
 11
22.0611
 21
250.994
  0
LINE
  8
0
 10
22.0611
 20
250.994
 11
23.1609
 21
249.48
  0
LINE
  8
0
 10
23.1609
 20
249.48
 11
23.55
 21
247.65
  0
LINE
  8
0
 10
23.55
 20
247.65
 11
23.1609
 21
245.82
  0
LINE
  8
0
 10
23.1609
 20
245.82
 11
22.0611
 21
244.306
  0
LINE
  8
0
 10
22.0611
 20
244.306
 11
20.4406
 21
243.37
  0
LINE
  8
0
 10
20.4406
 20
243.37
 11
18.5796
 21
243.175
  0
LINE
  8
0
 10
18.5796
 20
243.175
 11
16.8
 21
243.753
  0
LINE
  8
0
 10
54.9
 20
205.653
 11
53.5094
 21
206.905
  0
LINE
  8
0
 10
53.5094
 20
206.905
 11
52.7483
 21
208.614
  0
LINE
  8
0
 10
52.7483
 20
208.614
 11
52.7483
 21
210.486
  0
LINE
  8
0
 10
52.7483
 20
210.486
 11
53.5094
 21
212.195
  0
LINE
  8
0
 10
53.5094
 20
212.195
 11
54.9
 21
213.447
  0
LINE
  8
0
 10
54.9
 20
213.447
 11
56.6796
 21
214.025
  0
LINE
  8
0
 10
56.6796
 20
214.025
 11
58.5406
 21
213.83
  0
LINE
  8
0
 10
58.5406
 20
213.83
 11
60.1611
 21
212.894
  0
LINE
  8
0
 10
60.1611
 20
212.894
 11
61.2609
 21
211.38
  0
LINE
  8
0
 10
61.2609
 20
211.38
 11
61.65
 21
209.55
  0
LINE
  8
0
 10
61.65
 20
209.55
 11
61.2609
 21
207.72
  0
LINE
  8
0
 10
61.2609
 20
207.72
 11
60.1611
 21
206.206
  0
LINE
  8
0
 10
60.1611
 20
206.206
 11
58.5406
 21
205.27
  0
LINE
  8
0
 10
58.5406
 20
205.27
 11
56.6796
 21
205.075
  0
LINE
  8
0
 10
56.6796
 20
205.075
 11
54.9
 21
205.653
  0
LINE
  8
0
 10
93
 20
205.653
 11
91.6094
 21
206.905
  0
LINE
  8
0
 10
91.6094
 20
206.905
 11
90.8483
 21
208.614
  0
LINE
  8
0
 10
90.8483
 20
208.614
 11
90.8483
 21
210.486
  0
LINE
  8
0
 10
90.8483
 20
210.486
 11
91.6094
 21
212.195
  0
LINE
  8
0
 10
91.6094
 20
212.195
 11
93
 21
213.447
  0
LINE
  8
0
 10
93
 20
213.447
 11
94.7796
 21
214.025
  0
LINE
  8
0
 10
94.7796
 20
214.025
 11
96.6406
 21
213.83
  0
LINE
  8
0
 10
96.6406
 20
213.83
 11
98.2611
 21
212.894
  0
LINE
  8
0
 10
98.2611
 20
212.894
 11
99.3609
 21
211.38
  0
LINE
  8
0
 10
99.3609
 20
211.38
 11
99.75
 21
209.55
  0
LINE
  8
0
 10
99.75
 20
209.55
 11
99.3609
 21
207.72
  0
LINE
  8
0
 10
99.3609
 20
207.72
 11
98.2611
 21
206.206
  0
LINE
  8
0
 10
98.2611
 20
206.206
 11
96.6406
 21
205.27
  0
LINE
  8
0
 10
96.6406
 20
205.27
 11
94.7796
 21
205.075
  0
LINE
  8
0
 10
94.7796
 20
205.075
 11
93
 21
205.653
  0
LINE
  8
0
 10
169.2
 20
205.653
 11
167.809
 21
206.905
  0
LINE
  8
0
 10
167.809
 20
206.905
 11
167.048
 21
208.614
  0
LINE
  8
0
 10
167.048
 20
208.614
 11
167.048
 21
210.486
  0
LINE
  8
0
 10
167.048
 20
210.486
 11
167.809
 21
212.195
  0
LINE
  8
0
 10
167.809
 20
212.195
 11
169.2
 21
213.447
  0
LINE
  8
0
 10
169.2
 20
213.447
 11
170.98
 21
214.025
  0
LINE
  8
0
 10
170.98
 20
214.025
 11
172.841
 21
213.83
  0
LINE
  8
0
 10
172.841
 20
213.83
 11
174.461
 21
212.894
  0
LINE
  8
0
 10
174.461
 20
212.894
 11
175.561
 21
211.38
  0
LINE
  8
0
 10
175.561
 20
211.38
 11
175.95
 21
209.55
  0
LINE
  8
0
 10
175.95
 20
209.55
 11
175.561
 21
207.72
  0
LINE
  8
0
 10
175.561
 20
207.72
 11
174.461
 21
206.206
  0
LINE
  8
0
 10
174.461
 20
206.206
 11
172.841
 21
205.27
  0
LINE
  8
0
 10
172.841
 20
205.27
 11
170.98
 21
205.075
  0
LINE
  8
0
 10
170.98
 20
205.075
 11
169.2
 21
205.653
  0
LINE
  8
0
 10
16.8
 20
205.653
 11
15.4094
 21
206.905
  0
LINE
  8
0
 10
15.4094
 20
206.905
 11
14.6483
 21
208.614
  0
LINE
  8
0
 10
14.6483
 20
208.614
 11
14.6483
 21
210.486
  0
LINE
  8
0
 10
14.6483
 20
210.486
 11
15.4094
 21
212.195
  0
LINE
  8
0
 10
15.4094
 20
212.195
 11
16.8
 21
213.447
  0
LINE
  8
0
 10
16.8
 20
213.447
 11
18.5796
 21
214.025
  0
LINE
  8
0
 10
18.5796
 20
214.025
 11
20.4406
 21
213.83
  0
LINE
  8
0
 10
20.4406
 20
213.83
 11
22.0611
 21
212.894
  0
LINE
  8
0
 10
22.0611
 20
212.894
 11
23.1609
 21
211.38
  0
LINE
  8
0
 10
23.1609
 20
211.38
 11
23.55
 21
209.55
  0
LINE
  8
0
 10
23.55
 20
209.55
 11
23.1609
 21
207.72
  0
LINE
  8
0
 10
23.1609
 20
207.72
 11
22.0611
 21
206.206
  0
LINE
  8
0
 10
22.0611
 20
206.206
 11
20.4406
 21
205.27
  0
LINE
  8
0
 10
20.4406
 20
205.27
 11
18.5796
 21
205.075
  0
LINE
  8
0
 10
18.5796
 20
205.075
 11
16.8
 21
205.653
  0
LINE
  8
0
 10
131.1
 20
205.653
 11
129.709
 21
206.905
  0
LINE
  8
0
 10
129.709
 20
206.905
 11
128.948
 21
208.614
  0
LINE
  8
0
 10
128.948
 20
208.614
 11
128.948
 21
210.486
  0
LINE
  8
0
 10
128.948
 20
210.486
 11
129.709
 21
212.195
  0
LINE
  8
0
 10
129.709
 20
212.195
 11
131.1
 21
213.447
  0
LINE
  8
0
 10
131.1
 20
213.447
 11
132.88
 21
214.025
  0
LINE
  8
0
 10
132.88
 20
214.025
 11
134.741
 21
213.83
  0
LINE
  8
0
 10
134.741
 20
213.83
 11
136.361
 21
212.894
  0
LINE
  8
0
 10
136.361
 20
212.894
 11
137.461
 21
211.38
  0
LINE
  8
0
 10
137.461
 20
211.38
 11
137.85
 21
209.55
  0
LINE
  8
0
 10
137.85
 20
209.55
 11
137.461
 21
207.72
  0
LINE
  8
0
 10
137.461
 20
207.72
 11
136.361
 21
206.206
  0
LINE
  8
0
 10
136.361
 20
206.206
 11
134.741
 21
205.27
  0
LINE
  8
0
 10
134.741
 20
205.27
 11
132.88
 21
205.075
  0
LINE
  8
0
 10
132.88
 20
205.075
 11
131.1
 21
205.653
  0
LINE
  8
0
 10
169.2
 20
167.553
 11
167.809
 21
168.805
  0
LINE
  8
0
 10
167.809
 20
168.805
 11
167.048
 21
170.514
  0
LINE
  8
0
 10
167.048
 20
170.514
 11
167.048
 21
172.386
  0
LINE
  8
0
 10
167.048
 20
172.386
 11
167.809
 21
174.095
  0
LINE
  8
0
 10
167.809
 20
174.095
 11
169.2
 21
175.347
  0
LINE
  8
0
 10
169.2
 20
175.347
 11
170.98
 21
175.925
  0
LINE
  8
0
 10
170.98
 20
175.925
 11
172.841
 21
175.73
  0
LINE
  8
0
 10
172.841
 20
175.73
 11
174.461
 21
174.794
  0
LINE
  8
0
 10
174.461
 20
174.794
 11
175.561
 21
173.28
  0
LINE
  8
0
 10
175.561
 20
173.28
 11
175.95
 21
171.45
  0
LINE
  8
0
 10
175.95
 20
171.45
 11
175.561
 21
169.62
  0
LINE
  8
0
 10
175.561
 20
169.62
 11
174.461
 21
168.106
  0
LINE
  8
0
 10
174.461
 20
168.106
 11
172.841
 21
167.17
  0
LINE
  8
0
 10
172.841
 20
167.17
 11
170.98
 21
166.975
  0
LINE
  8
0
 10
170.98
 20
166.975
 11
169.2
 21
167.553
  0
LINE
  8
0
 10
131.1
 20
167.553
 11
129.709
 21
168.805
  0
LINE
  8
0
 10
129.709
 20
168.805
 11
128.948
 21
170.514
  0
LINE
  8
0
 10
128.948
 20
170.514
 11
128.948
 21
172.386
  0
LINE
  8
0
 10
128.948
 20
172.386
 11
129.709
 21
174.095
  0
LINE
  8
0
 10
129.709
 20
174.095
 11
131.1
 21
175.347
  0
LINE
  8
0
 10
131.1
 20
175.347
 11
132.88
 21
175.925
  0
LINE
  8
0
 10
132.88
 20
175.925
 11
134.741
 21
175.73
  0
LINE
  8
0
 10
134.741
 20
175.73
 11
136.361
 21
174.794
  0
LINE
  8
0
 10
136.361
 20
174.794
 11
137.461
 21
173.28
  0
LINE
  8
0
 10
137.461
 20
173.28
 11
137.85
 21
171.45
  0
LINE
  8
0
 10
137.85
 20
171.45
 11
137.461
 21
169.62
  0
LINE
  8
0
 10
137.461
 20
169.62
 11
136.361
 21
168.106
  0
LINE
  8
0
 10
136.361
 20
168.106
 11
134.741
 21
167.17
  0
LINE
  8
0
 10
134.741
 20
167.17
 11
132.88
 21
166.975
  0
LINE
  8
0
 10
132.88
 20
166.975
 11
131.1
 21
167.553
  0
LINE
  8
0
 10
93
 20
167.553
 11
91.6094
 21
168.805
  0
LINE
  8
0
 10
91.6094
 20
168.805
 11
90.8483
 21
170.514
  0
LINE
  8
0
 10
90.8483
 20
170.514
 11
90.8483
 21
172.386
  0
LINE
  8
0
 10
90.8483
 20
172.386
 11
91.6094
 21
174.095
  0
LINE
  8
0
 10
91.6094
 20
174.095
 11
93
 21
175.347
  0
LINE
  8
0
 10
93
 20
175.347
 11
94.7796
 21
175.925
  0
LINE
  8
0
 10
94.7796
 20
175.925
 11
96.6406
 21
175.73
  0
LINE
  8
0
 10
96.6406
 20
175.73
 11
98.2611
 21
174.794
  0
LINE
  8
0
 10
98.2611
 20
174.794
 11
99.3609
 21
173.28
  0
LINE
  8
0
 10
99.3609
 20
173.28
 11
99.75
 21
171.45
  0
LINE
  8
0
 10
99.75
 20
171.45
 11
99.3609
 21
169.62
  0
LINE
  8
0
 10
99.3609
 20
169.62
 11
98.2611
 21
168.106
  0
LINE
  8
0
 10
98.2611
 20
168.106
 11
96.6406
 21
167.17
  0
LINE
  8
0
 10
96.6406
 20
167.17
 11
94.7796
 21
166.975
  0
LINE
  8
0
 10
94.7796
 20
166.975
 11
93
 21
167.553
  0
LINE
  8
0
 10
54.9
 20
167.553
 11
53.5094
 21
168.805
  0
LINE
  8
0
 10
53.5094
 20
168.805
 11
52.7483
 21
170.514
  0
LINE
  8
0
 10
52.7483
 20
170.514
 11
52.7483
 21
172.386
  0
LINE
  8
0
 10
52.7483
 20
172.386
 11
53.5094
 21
174.095
  0
LINE
  8
0
 10
53.5094
 20
174.095
 11
54.9
 21
175.347
  0
LINE
  8
0
 10
54.9
 20
175.347
 11
56.6796
 21
175.925
  0
LINE
  8
0
 10
56.6796
 20
175.925
 11
58.5406
 21
175.73
  0
LINE
  8
0
 10
58.5406
 20
175.73
 11
60.1611
 21
174.794
  0
LINE
  8
0
 10
60.1611
 20
174.794
 11
61.2609
 21
173.28
  0
LINE
  8
0
 10
61.2609
 20
173.28
 11
61.65
 21
171.45
  0
LINE
  8
0
 10
61.65
 20
171.45
 11
61.2609
 21
169.62
  0
LINE
  8
0
 10
61.2609
 20
169.62
 11
60.1611
 21
168.106
  0
LINE
  8
0
 10
60.1611
 20
168.106
 11
58.5406
 21
167.17
  0
LINE
  8
0
 10
58.5406
 20
167.17
 11
56.6796
 21
166.975
  0
LINE
  8
0
 10
56.6796
 20
166.975
 11
54.9
 21
167.553
  0
LINE
  8
0
 10
16.8
 20
167.553
 11
15.4094
 21
168.805
  0
LINE
  8
0
 10
15.4094
 20
168.805
 11
14.6483
 21
170.514
  0
LINE
  8
0
 10
14.6483
 20
170.514
 11
14.6483
 21
172.386
  0
LINE
  8
0
 10
14.6483
 20
172.386
 11
15.4094
 21
174.095
  0
LINE
  8
0
 10
15.4094
 20
174.095
 11
16.8
 21
175.347
  0
LINE
  8
0
 10
16.8
 20
175.347
 11
18.5796
 21
175.925
  0
LINE
  8
0
 10
18.5796
 20
175.925
 11
20.4406
 21
175.73
  0
LINE
  8
0
 10
20.4406
 20
175.73
 11
22.0611
 21
174.794
  0
LINE
  8
0
 10
22.0611
 20
174.794
 11
23.1609
 21
173.28
  0
LINE
  8
0
 10
23.1609
 20
173.28
 11
23.55
 21
171.45
  0
LINE
  8
0
 10
23.55
 20
171.45
 11
23.1609
 21
169.62
  0
LINE
  8
0
 10
23.1609
 20
169.62
 11
22.0611
 21
168.106
  0
LINE
  8
0
 10
22.0611
 20
168.106
 11
20.4406
 21
167.17
  0
LINE
  8
0
 10
20.4406
 20
167.17
 11
18.5796
 21
166.975
  0
LINE
  8
0
 10
18.5796
 20
166.975
 11
16.8
 21
167.553
  0
LINE
  8
0
 10
169.2
 20
129.453
 11
167.809
 21
130.705
  0
LINE
  8
0
 10
167.809
 20
130.705
 11
167.048
 21
132.414
  0
LINE
  8
0
 10
167.048
 20
132.414
 11
167.048
 21
134.286
  0
LINE
  8
0
 10
167.048
 20
134.286
 11
167.809
 21
135.995
  0
LINE
  8
0
 10
167.809
 20
135.995
 11
169.2
 21
137.247
  0
LINE
  8
0
 10
169.2
 20
137.247
 11
170.98
 21
137.825
  0
LINE
  8
0
 10
170.98
 20
137.825
 11
172.841
 21
137.63
  0
LINE
  8
0
 10
172.841
 20
137.63
 11
174.461
 21
136.694
  0
LINE
  8
0
 10
174.461
 20
136.694
 11
175.561
 21
135.18
  0
LINE
  8
0
 10
175.561
 20
135.18
 11
175.95
 21
133.35
  0
LINE
  8
0
 10
175.95
 20
133.35
 11
175.561
 21
131.52
  0
LINE
  8
0
 10
175.561
 20
131.52
 11
174.461
 21
130.006
  0
LINE
  8
0
 10
174.461
 20
130.006
 11
172.841
 21
129.07
  0
LINE
  8
0
 10
172.841
 20
129.07
 11
170.98
 21
128.875
  0
LINE
  8
0
 10
170.98
 20
128.875
 11
169.2
 21
129.453
  0
LINE
  8
0
 10
131.1
 20
129.453
 11
129.709
 21
130.705
  0
LINE
  8
0
 10
129.709
 20
130.705
 11
128.948
 21
132.414
  0
LINE
  8
0
 10
128.948
 20
132.414
 11
128.948
 21
134.286
  0
LINE
  8
0
 10
128.948
 20
134.286
 11
129.709
 21
135.995
  0
LINE
  8
0
 10
129.709
 20
135.995
 11
131.1
 21
137.247
  0
LINE
  8
0
 10
131.1
 20
137.247
 11
132.88
 21
137.825
  0
LINE
  8
0
 10
132.88
 20
137.825
 11
134.741
 21
137.63
  0
LINE
  8
0
 10
134.741
 20
137.63
 11
136.361
 21
136.694
  0
LINE
  8
0
 10
136.361
 20
136.694
 11
137.461
 21
135.18
  0
LINE
  8
0
 10
137.461
 20
135.18
 11
137.85
 21
133.35
  0
LINE
  8
0
 10
137.85
 20
133.35
 11
137.461
 21
131.52
  0
LINE
  8
0
 10
137.461
 20
131.52
 11
136.361
 21
130.006
  0
LINE
  8
0
 10
136.361
 20
130.006
 11
134.741
 21
129.07
  0
LINE
  8
0
 10
134.741
 20
129.07
 11
132.88
 21
128.875
  0
LINE
  8
0
 10
132.88
 20
128.875
 11
131.1
 21
129.453
  0
LINE
  8
0
 10
93
 20
129.453
 11
91.6094
 21
130.705
  0
LINE
  8
0
 10
91.6094
 20
130.705
 11
90.8483
 21
132.414
  0
LINE
  8
0
 10
90.8483
 20
132.414
 11
90.8483
 21
134.286
  0
LINE
  8
0
 10
90.8483
 20
134.286
 11
91.6094
 21
135.995
  0
LINE
  8
0
 10
91.6094
 20
135.995
 11
93
 21
137.247
  0
LINE
  8
0
 10
93
 20
137.247
 11
94.7796
 21
137.825
  0
LINE
  8
0
 10
94.7796
 20
137.825
 11
96.6406
 21
137.63
  0
LINE
  8
0
 10
96.6406
 20
137.63
 11
98.2611
 21
136.694
  0
LINE
  8
0
 10
98.2611
 20
136.694
 11
99.3609
 21
135.18
  0
LINE
  8
0
 10
99.3609
 20
135.18
 11
99.75
 21
133.35
  0
LINE
  8
0
 10
99.75
 20
133.35
 11
99.3609
 21
131.52
  0
LINE
  8
0
 10
99.3609
 20
131.52
 11
98.2611
 21
130.006
  0
LINE
  8
0
 10
98.2611
 20
130.006
 11
96.6406
 21
129.07
  0
LINE
  8
0
 10
96.6406
 20
129.07
 11
94.7796
 21
128.875
  0
LINE
  8
0
 10
94.7796
 20
128.875
 11
93
 21
129.453
  0
LINE
  8
0
 10
54.9
 20
129.453
 11
53.5094
 21
130.705
  0
LINE
  8
0
 10
53.5094
 20
130.705
 11
52.7483
 21
132.414
  0
LINE
  8
0
 10
52.7483
 20
132.414
 11
52.7483
 21
134.286
  0
LINE
  8
0
 10
52.7483
 20
134.286
 11
53.5094
 21
135.995
  0
LINE
  8
0
 10
53.5094
 20
135.995
 11
54.9
 21
137.247
  0
LINE
  8
0
 10
54.9
 20
137.247
 11
56.6796
 21
137.825
  0
LINE
  8
0
 10
56.6796
 20
137.825
 11
58.5406
 21
137.63
  0
LINE
  8
0
 10
58.5406
 20
137.63
 11
60.1611
 21
136.694
  0
LINE
  8
0
 10
60.1611
 20
136.694
 11
61.2609
 21
135.18
  0
LINE
  8
0
 10
61.2609
 20
135.18
 11
61.65
 21
133.35
  0
LINE
  8
0
 10
61.65
 20
133.35
 11
61.2609
 21
131.52
  0
LINE
  8
0
 10
61.2609
 20
131.52
 11
60.1611
 21
130.006
  0
LINE
  8
0
 10
60.1611
 20
130.006
 11
58.5406
 21
129.07
  0
LINE
  8
0
 10
58.5406
 20
129.07
 11
56.6796
 21
128.875
  0
LINE
  8
0
 10
56.6796
 20
128.875
 11
54.9
 21
129.453
  0
LINE
  8
0
 10
16.8
 20
129.453
 11
15.4094
 21
130.705
  0
LINE
  8
0
 10
15.4094
 20
130.705
 11
14.6483
 21
132.414
  0
LINE
  8
0
 10
14.6483
 20
132.414
 11
14.6483
 21
134.286
  0
LINE
  8
0
 10
14.6483
 20
134.286
 11
15.4094
 21
135.995
  0
LINE
  8
0
 10
15.4094
 20
135.995
 11
16.8
 21
137.247
  0
LINE
  8
0
 10
16.8
 20
137.247
 11
18.5796
 21
137.825
  0
LINE
  8
0
 10
18.5796
 20
137.825
 11
20.4406
 21
137.63
  0
LINE
  8
0
 10
20.4406
 20
137.63
 11
22.0611
 21
136.694
  0
LINE
  8
0
 10
22.0611
 20
136.694
 11
23.1609
 21
135.18
  0
LINE
  8
0
 10
23.1609
 20
135.18
 11
23.55
 21
133.35
  0
LINE
  8
0
 10
23.55
 20
133.35
 11
23.1609
 21
131.52
  0
LINE
  8
0
 10
23.1609
 20
131.52
 11
22.0611
 21
130.006
  0
LINE
  8
0
 10
22.0611
 20
130.006
 11
20.4406
 21
129.07
  0
LINE
  8
0
 10
20.4406
 20
129.07
 11
18.5796
 21
128.875
  0
LINE
  8
0
 10
18.5796
 20
128.875
 11
16.8
 21
129.453
  0
LINE
  8
0
 10
16.8
 20
91.3529
 11
15.4094
 21
92.605
  0
LINE
  8
0
 10
15.4094
 20
92.605
 11
14.6483
 21
94.3144
  0
LINE
  8
0
 10
14.6483
 20
94.3144
 11
14.6483
 21
96.1856
  0
LINE
  8
0
 10
14.6483
 20
96.1856
 11
15.4094
 21
97.895
  0
LINE
  8
0
 10
15.4094
 20
97.895
 11
16.8
 21
99.1471
  0
LINE
  8
0
 10
16.8
 20
99.1471
 11
18.5796
 21
99.7253
  0
LINE
  8
0
 10
18.5796
 20
99.7253
 11
20.4406
 21
99.5297
  0
LINE
  8
0
 10
20.4406
 20
99.5297
 11
22.0611
 21
98.5941
  0
LINE
  8
0
 10
22.0611
 20
98.5941
 11
23.1609
 21
97.0803
  0
LINE
  8
0
 10
23.1609
 20
97.0803
 11
23.55
 21
95.25
  0
LINE
  8
0
 10
23.55
 20
95.25
 11
23.1609
 21
93.4197
  0
LINE
  8
0
 10
23.1609
 20
93.4197
 11
22.0611
 21
91.9058
  0
LINE
  8
0
 10
22.0611
 20
91.9058
 11
20.4406
 21
90.9702
  0
LINE
  8
0
 10
20.4406
 20
90.9702
 11
18.5796
 21
90.7746
  0
LINE
  8
0
 10
18.5796
 20
90.7746
 11
16.8
 21
91.3529
  0
LINE
  8
0
 10
169.2
 20
91.3529
 11
167.809
 21
92.605
  0
LINE
  8
0
 10
167.809
 20
92.605
 11
167.048
 21
94.3144
  0
LINE
  8
0
 10
167.048
 20
94.3144
 11
167.048
 21
96.1856
  0
LINE
  8
0
 10
167.048
 20
96.1856
 11
167.809
 21
97.895
  0
LINE
  8
0
 10
167.809
 20
97.895
 11
169.2
 21
99.1471
  0
LINE
  8
0
 10
169.2
 20
99.1471
 11
170.98
 21
99.7253
  0
LINE
  8
0
 10
170.98
 20
99.7253
 11
172.841
 21
99.5297
  0
LINE
  8
0
 10
172.841
 20
99.5297
 11
174.461
 21
98.5941
  0
LINE
  8
0
 10
174.461
 20
98.5941
 11
175.561
 21
97.0803
  0
LINE
  8
0
 10
175.561
 20
97.0803
 11
175.95
 21
95.25
  0
LINE
  8
0
 10
175.95
 20
95.25
 11
175.561
 21
93.4197
  0
LINE
  8
0
 10
175.561
 20
93.4197
 11
174.461
 21
91.9058
  0
LINE
  8
0
 10
174.461
 20
91.9058
 11
172.841
 21
90.9702
  0
LINE
  8
0
 10
172.841
 20
90.9702
 11
170.98
 21
90.7746
  0
LINE
  8
0
 10
170.98
 20
90.7746
 11
169.2
 21
91.3529
  0
LINE
  8
0
 10
93
 20
91.3529
 11
91.6094
 21
92.605
  0
LINE
  8
0
 10
91.6094
 20
92.605
 11
90.8483
 21
94.3144
  0
LINE
  8
0
 10
90.8483
 20
94.3144
 11
90.8483
 21
96.1856
  0
LINE
  8
0
 10
90.8483
 20
96.1856
 11
91.6094
 21
97.895
  0
LINE
  8
0
 10
91.6094
 20
97.895
 11
93
 21
99.1471
  0
LINE
  8
0
 10
93
 20
99.1471
 11
94.7796
 21
99.7253
  0
LINE
  8
0
 10
94.7796
 20
99.7253
 11
96.6406
 21
99.5297
  0
LINE
  8
0
 10
96.6406
 20
99.5297
 11
98.2611
 21
98.5941
  0
LINE
  8
0
 10
98.2611
 20
98.5941
 11
99.3609
 21
97.0803
  0
LINE
  8
0
 10
99.3609
 20
97.0803
 11
99.75
 21
95.25
  0
LINE
  8
0
 10
99.75
 20
95.25
 11
99.3609
 21
93.4197
  0
LINE
  8
0
 10
99.3609
 20
93.4197
 11
98.2611
 21
91.9058
  0
LINE
  8
0
 10
98.2611
 20
91.9058
 11
96.6406
 21
90.9702
  0
LINE
  8
0
 10
96.6406
 20
90.9702
 11
94.7796
 21
90.7746
  0
LINE
  8
0
 10
94.7796
 20
90.7746
 11
93
 21
91.3529
  0
LINE
  8
0
 10
54.9
 20
91.3529
 11
53.5094
 21
92.605
  0
LINE
  8
0
 10
53.5094
 20
92.605
 11
52.7483
 21
94.3144
  0
LINE
  8
0
 10
52.7483
 20
94.3144
 11
52.7483
 21
96.1856
  0
LINE
  8
0
 10
52.7483
 20
96.1856
 11
53.5094
 21
97.895
  0
LINE
  8
0
 10
53.5094
 20
97.895
 11
54.9
 21
99.1471
  0
LINE
  8
0
 10
54.9
 20
99.1471
 11
56.6796
 21
99.7253
  0
LINE
  8
0
 10
56.6796
 20
99.7253
 11
58.5406
 21
99.5297
  0
LINE
  8
0
 10
58.5406
 20
99.5297
 11
60.1611
 21
98.5941
  0
LINE
  8
0
 10
60.1611
 20
98.5941
 11
61.2609
 21
97.0803
  0
LINE
  8
0
 10
61.2609
 20
97.0803
 11
61.65
 21
95.25
  0
LINE
  8
0
 10
61.65
 20
95.25
 11
61.2609
 21
93.4197
  0
LINE
  8
0
 10
61.2609
 20
93.4197
 11
60.1611
 21
91.9058
  0
LINE
  8
0
 10
60.1611
 20
91.9058
 11
58.5406
 21
90.9702
  0
LINE
  8
0
 10
58.5406
 20
90.9702
 11
56.6796
 21
90.7746
  0
LINE
  8
0
 10
56.6796
 20
90.7746
 11
54.9
 21
91.3529
  0
LINE
  8
0
 10
131.1
 20
91.3529
 11
129.709
 21
92.605
  0
LINE
  8
0
 10
129.709
 20
92.605
 11
128.948
 21
94.3144
  0
LINE
  8
0
 10
128.948
 20
94.3144
 11
128.948
 21
96.1856
  0
LINE
  8
0
 10
128.948
 20
96.1856
 11
129.709
 21
97.895
  0
LINE
  8
0
 10
129.709
 20
97.895
 11
131.1
 21
99.1471
  0
LINE
  8
0
 10
131.1
 20
99.1471
 11
132.88
 21
99.7253
  0
LINE
  8
0
 10
132.88
 20
99.7253
 11
134.741
 21
99.5297
  0
LINE
  8
0
 10
134.741
 20
99.5297
 11
136.361
 21
98.5941
  0
LINE
  8
0
 10
136.361
 20
98.5941
 11
137.461
 21
97.0803
  0
LINE
  8
0
 10
137.461
 20
97.0803
 11
137.85
 21
95.25
  0
LINE
  8
0
 10
137.85
 20
95.25
 11
137.461
 21
93.4197
  0
LINE
  8
0
 10
137.461
 20
93.4197
 11
136.361
 21
91.9058
  0
LINE
  8
0
 10
136.361
 20
91.9058
 11
134.741
 21
90.9702
  0
LINE
  8
0
 10
134.741
 20
90.9702
 11
132.88
 21
90.7746
  0
LINE
  8
0
 10
132.88
 20
90.7746
 11
131.1
 21
91.3529
  0
LINE
  8
0
 10
169.2
 20
53.2529
 11
167.809
 21
54.505
  0
LINE
  8
0
 10
167.809
 20
54.505
 11
167.048
 21
56.2144
  0
LINE
  8
0
 10
167.048
 20
56.2144
 11
167.048
 21
58.0856
  0
LINE
  8
0
 10
167.048
 20
58.0856
 11
167.809
 21
59.795
  0
LINE
  8
0
 10
167.809
 20
59.795
 11
169.2
 21
61.0471
  0
LINE
  8
0
 10
169.2
 20
61.0471
 11
170.98
 21
61.6253
  0
LINE
  8
0
 10
170.98
 20
61.6253
 11
172.841
 21
61.4297
  0
LINE
  8
0
 10
172.841
 20
61.4297
 11
174.461
 21
60.4941
  0
LINE
  8
0
 10
174.461
 20
60.4941
 11
175.561
 21
58.9803
  0
LINE
  8
0
 10
175.561
 20
58.9803
 11
175.95
 21
57.15
  0
LINE
  8
0
 10
175.95
 20
57.15
 11
175.561
 21
55.3197
  0
LINE
  8
0
 10
175.561
 20
55.3197
 11
174.461
 21
53.8058
  0
LINE
  8
0
 10
174.461
 20
53.8058
 11
172.841
 21
52.8702
  0
LINE
  8
0
 10
172.841
 20
52.8702
 11
170.98
 21
52.6746
  0
LINE
  8
0
 10
170.98
 20
52.6746
 11
169.2
 21
53.2529
  0
LINE
  8
0
 10
131.1
 20
53.2529
 11
129.709
 21
54.505
  0
LINE
  8
0
 10
129.709
 20
54.505
 11
128.948
 21
56.2144
  0
LINE
  8
0
 10
128.948
 20
56.2144
 11
128.948
 21
58.0856
  0
LINE
  8
0
 10
128.948
 20
58.0856
 11
129.709
 21
59.795
  0
LINE
  8
0
 10
129.709
 20
59.795
 11
131.1
 21
61.0471
  0
LINE
  8
0
 10
131.1
 20
61.0471
 11
132.88
 21
61.6253
  0
LINE
  8
0
 10
132.88
 20
61.6253
 11
134.741
 21
61.4297
  0
LINE
  8
0
 10
134.741
 20
61.4297
 11
136.361
 21
60.4941
  0
LINE
  8
0
 10
136.361
 20
60.4941
 11
137.461
 21
58.9803
  0
LINE
  8
0
 10
137.461
 20
58.9803
 11
137.85
 21
57.15
  0
LINE
  8
0
 10
137.85
 20
57.15
 11
137.461
 21
55.3197
  0
LINE
  8
0
 10
137.461
 20
55.3197
 11
136.361
 21
53.8058
  0
LINE
  8
0
 10
136.361
 20
53.8058
 11
134.741
 21
52.8702
  0
LINE
  8
0
 10
134.741
 20
52.8702
 11
132.88
 21
52.6746
  0
LINE
  8
0
 10
132.88
 20
52.6746
 11
131.1
 21
53.2529
  0
LINE
  8
0
 10
93
 20
53.2529
 11
91.6094
 21
54.505
  0
LINE
  8
0
 10
91.6094
 20
54.505
 11
90.8483
 21
56.2144
  0
LINE
  8
0
 10
90.8483
 20
56.2144
 11
90.8483
 21
58.0856
  0
LINE
  8
0
 10
90.8483
 20
58.0856
 11
91.6094
 21
59.795
  0
LINE
  8
0
 10
91.6094
 20
59.795
 11
93
 21
61.0471
  0
LINE
  8
0
 10
93
 20
61.0471
 11
94.7796
 21
61.6253
  0
LINE
  8
0
 10
94.7796
 20
61.6253
 11
96.6406
 21
61.4297
  0
LINE
  8
0
 10
96.6406
 20
61.4297
 11
98.2611
 21
60.4941
  0
LINE
  8
0
 10
98.2611
 20
60.4941
 11
99.3609
 21
58.9803
  0
LINE
  8
0
 10
99.3609
 20
58.9803
 11
99.75
 21
57.15
  0
LINE
  8
0
 10
99.75
 20
57.15
 11
99.3609
 21
55.3197
  0
LINE
  8
0
 10
99.3609
 20
55.3197
 11
98.2611
 21
53.8058
  0
LINE
  8
0
 10
98.2611
 20
53.8058
 11
96.6406
 21
52.8702
  0
LINE
  8
0
 10
96.6406
 20
52.8702
 11
94.7796
 21
52.6746
  0
LINE
  8
0
 10
94.7796
 20
52.6746
 11
93
 21
53.2529
  0
LINE
  8
0
 10
54.9
 20
53.2529
 11
53.5094
 21
54.505
  0
LINE
  8
0
 10
53.5094
 20
54.505
 11
52.7483
 21
56.2144
  0
LINE
  8
0
 10
52.7483
 20
56.2144
 11
52.7483
 21
58.0856
  0
LINE
  8
0
 10
52.7483
 20
58.0856
 11
53.5094
 21
59.795
  0
LINE
  8
0
 10
53.5094
 20
59.795
 11
54.9
 21
61.0471
  0
LINE
  8
0
 10
54.9
 20
61.0471
 11
56.6796
 21
61.6253
  0
LINE
  8
0
 10
56.6796
 20
61.6253
 11
58.5406
 21
61.4297
  0
LINE
  8
0
 10
58.5406
 20
61.4297
 11
60.1611
 21
60.4941
  0
LINE
  8
0
 10
60.1611
 20
60.4941
 11
61.2609
 21
58.9803
  0
LINE
  8
0
 10
61.2609
 20
58.9803
 11
61.65
 21
57.15
  0
LINE
  8
0
 10
61.65
 20
57.15
 11
61.2609
 21
55.3197
  0
LINE
  8
0
 10
61.2609
 20
55.3197
 11
60.1611
 21
53.8058
  0
LINE
  8
0
 10
60.1611
 20
53.8058
 11
58.5406
 21
52.8702
  0
LINE
  8
0
 10
58.5406
 20
52.8702
 11
56.6796
 21
52.6746
  0
LINE
  8
0
 10
56.6796
 20
52.6746
 11
54.9
 21
53.2529
  0
LINE
  8
0
 10
16.8
 20
53.2529
 11
15.4094
 21
54.505
  0
LINE
  8
0
 10
15.4094
 20
54.505
 11
14.6483
 21
56.2144
  0
LINE
  8
0
 10
14.6483
 20
56.2144
 11
14.6483
 21
58.0856
  0
LINE
  8
0
 10
14.6483
 20
58.0856
 11
15.4094
 21
59.795
  0
LINE
  8
0
 10
15.4094
 20
59.795
 11
16.8
 21
61.0471
  0
LINE
  8
0
 10
16.8
 20
61.0471
 11
18.5796
 21
61.6253
  0
LINE
  8
0
 10
18.5796
 20
61.6253
 11
20.4406
 21
61.4297
  0
LINE
  8
0
 10
20.4406
 20
61.4297
 11
22.0611
 21
60.4941
  0
LINE
  8
0
 10
22.0611
 20
60.4941
 11
23.1609
 21
58.9803
  0
LINE
  8
0
 10
23.1609
 20
58.9803
 11
23.55
 21
57.15
  0
LINE
  8
0
 10
23.55
 20
57.15
 11
23.1609
 21
55.3197
  0
LINE
  8
0
 10
23.1609
 20
55.3197
 11
22.0611
 21
53.8058
  0
LINE
  8
0
 10
22.0611
 20
53.8058
 11
20.4406
 21
52.8702
  0
LINE
  8
0
 10
20.4406
 20
52.8702
 11
18.5796
 21
52.6746
  0
LINE
  8
0
 10
18.5796
 20
52.6746
 11
16.8
 21
53.2529
  0
LINE
  8
0
 10
16.8
 20
15.1529
 11
15.4094
 21
16.405
  0
LINE
  8
0
 10
15.4094
 20
16.405
 11
14.6483
 21
18.1144
  0
LINE
  8
0
 10
14.6483
 20
18.1144
 11
14.6483
 21
19.9856
  0
LINE
  8
0
 10
14.6483
 20
19.9856
 11
15.4094
 21
21.695
  0
LINE
  8
0
 10
15.4094
 20
21.695
 11
16.8
 21
22.9471
  0
LINE
  8
0
 10
16.8
 20
22.9471
 11
18.5796
 21
23.5253
  0
LINE
  8
0
 10
18.5796
 20
23.5253
 11
20.4406
 21
23.3297
  0
LINE
  8
0
 10
20.4406
 20
23.3297
 11
22.0611
 21
22.3941
  0
LINE
  8
0
 10
22.0611
 20
22.3941
 11
23.1609
 21
20.8803
  0
LINE
  8
0
 10
23.1609
 20
20.8803
 11
23.55
 21
19.05
  0
LINE
  8
0
 10
23.55
 20
19.05
 11
23.1609
 21
17.2197
  0
LINE
  8
0
 10
23.1609
 20
17.2197
 11
22.0611
 21
15.7058
  0
LINE
  8
0
 10
22.0611
 20
15.7058
 11
20.4406
 21
14.7702
  0
LINE
  8
0
 10
20.4406
 20
14.7702
 11
18.5796
 21
14.5746
  0
LINE
  8
0
 10
18.5796
 20
14.5746
 11
16.8
 21
15.1529
  0
LINE
  8
0
 10
169.2
 20
15.1529
 11
167.809
 21
16.405
  0
LINE
  8
0
 10
167.809
 20
16.405
 11
167.048
 21
18.1144
  0
LINE
  8
0
 10
167.048
 20
18.1144
 11
167.048
 21
19.9856
  0
LINE
  8
0
 10
167.048
 20
19.9856
 11
167.809
 21
21.695
  0
LINE
  8
0
 10
167.809
 20
21.695
 11
169.2
 21
22.9471
  0
LINE
  8
0
 10
169.2
 20
22.9471
 11
170.98
 21
23.5253
  0
LINE
  8
0
 10
170.98
 20
23.5253
 11
172.841
 21
23.3297
  0
LINE
  8
0
 10
172.841
 20
23.3297
 11
174.461
 21
22.3941
  0
LINE
  8
0
 10
174.461
 20
22.3941
 11
175.561
 21
20.8803
  0
LINE
  8
0
 10
175.561
 20
20.8803
 11
175.95
 21
19.05
  0
LINE
  8
0
 10
175.95
 20
19.05
 11
175.561
 21
17.2197
  0
LINE
  8
0
 10
175.561
 20
17.2197
 11
174.461
 21
15.7058
  0
LINE
  8
0
 10
174.461
 20
15.7058
 11
172.841
 21
14.7702
  0
LINE
  8
0
 10
172.841
 20
14.7702
 11
170.98
 21
14.5746
  0
LINE
  8
0
 10
170.98
 20
14.5746
 11
169.2
 21
15.1529
  0
LINE
  8
0
 10
131.1
 20
15.1529
 11
129.709
 21
16.405
  0
LINE
  8
0
 10
129.709
 20
16.405
 11
128.948
 21
18.1144
  0
LINE
  8
0
 10
128.948
 20
18.1144
 11
128.948
 21
19.9856
  0
LINE
  8
0
 10
128.948
 20
19.9856
 11
129.709
 21
21.695
  0
LINE
  8
0
 10
129.709
 20
21.695
 11
131.1
 21
22.9471
  0
LINE
  8
0
 10
131.1
 20
22.9471
 11
132.88
 21
23.5253
  0
LINE
  8
0
 10
132.88
 20
23.5253
 11
134.741
 21
23.3297
  0
LINE
  8
0
 10
134.741
 20
23.3297
 11
136.361
 21
22.3941
  0
LINE
  8
0
 10
136.361
 20
22.3941
 11
137.461
 21
20.8803
  0
LINE
  8
0
 10
137.461
 20
20.8803
 11
137.85
 21
19.05
  0
LINE
  8
0
 10
137.85
 20
19.05
 11
137.461
 21
17.2197
  0
LINE
  8
0
 10
137.461
 20
17.2197
 11
136.361
 21
15.7058
  0
LINE
  8
0
 10
136.361
 20
15.7058
 11
134.741
 21
14.7702
  0
LINE
  8
0
 10
134.741
 20
14.7702
 11
132.88
 21
14.5746
  0
LINE
  8
0
 10
132.88
 20
14.5746
 11
131.1
 21
15.1529
  0
LINE
  8
0
 10
93
 20
15.1529
 11
91.6094
 21
16.405
  0
LINE
  8
0
 10
91.6094
 20
16.405
 11
90.8483
 21
18.1144
  0
LINE
  8
0
 10
90.8483
 20
18.1144
 11
90.8483
 21
19.9856
  0
LINE
  8
0
 10
90.8483
 20
19.9856
 11
91.6094
 21
21.695
  0
LINE
  8
0
 10
91.6094
 20
21.695
 11
93
 21
22.9471
  0
LINE
  8
0
 10
93
 20
22.9471
 11
94.7796
 21
23.5253
  0
LINE
  8
0
 10
94.7796
 20
23.5253
 11
96.6406
 21
23.3297
  0
LINE
  8
0
 10
96.6406
 20
23.3297
 11
98.2611
 21
22.3941
  0
LINE
  8
0
 10
98.2611
 20
22.3941
 11
99.3609
 21
20.8803
  0
LINE
  8
0
 10
99.3609
 20
20.8803
 11
99.75
 21
19.05
  0
LINE
  8
0
 10
99.75
 20
19.05
 11
99.3609
 21
17.2197
  0
LINE
  8
0
 10
99.3609
 20
17.2197
 11
98.2611
 21
15.7058
  0
LINE
  8
0
 10
98.2611
 20
15.7058
 11
96.6406
 21
14.7702
  0
LINE
  8
0
 10
96.6406
 20
14.7702
 11
94.7796
 21
14.5746
  0
LINE
  8
0
 10
94.7796
 20
14.5746
 11
93
 21
15.1529
  0
LINE
  8
0
 10
54.9
 20
15.1529
 11
53.5094
 21
16.405
  0
LINE
  8
0
 10
53.5094
 20
16.405
 11
52.7483
 21
18.1144
  0
LINE
  8
0
 10
52.7483
 20
18.1144
 11
52.7483
 21
19.9856
  0
LINE
  8
0
 10
52.7483
 20
19.9856
 11
53.5094
 21
21.695
  0
LINE
  8
0
 10
53.5094
 20
21.695
 11
54.9
 21
22.9471
  0
LINE
  8
0
 10
54.9
 20
22.9471
 11
56.6796
 21
23.5253
  0
LINE
  8
0
 10
56.6796
 20
23.5253
 11
58.5406
 21
23.3297
  0
LINE
  8
0
 10
58.5406
 20
23.3297
 11
60.1611
 21
22.3941
  0
LINE
  8
0
 10
60.1611
 20
22.3941
 11
61.2609
 21
20.8803
  0
LINE
  8
0
 10
61.2609
 20
20.8803
 11
61.65
 21
19.05
  0
LINE
  8
0
 10
61.65
 20
19.05
 11
61.2609
 21
17.2197
  0
LINE
  8
0
 10
61.2609
 20
17.2197
 11
60.1611
 21
15.7058
  0
LINE
  8
0
 10
60.1611
 20
15.7058
 11
58.5406
 21
14.7702
  0
LINE
  8
0
 10
58.5406
 20
14.7702
 11
56.6796
 21
14.5746
  0
LINE
  8
0
 10
56.6796
 20
14.5746
 11
54.9
 21
15.1529
  0
ENDSEC
  0
SECTION
  2
OBJECTS
  0
DICTIONARY
  0
ENDSEC
  0
EOF
