  0
SECTION
  2
BLOCKS
  0
ENDSEC
  0
SECTION
  2
ENTITIES
  0
LINE
  8
0
 10
143.417
 20
0.636273
 11
145.9
 21
1.74168
  0
LINE
  8
0
 10
145.9
 20
1.74168
 11
148.099
 21
3.33912
  0
LINE
  8
0
 10
148.099
 20
3.33912
 11
149.917
 21
5.35879
  0
LINE
  8
0
 10
149.917
 20
5.35879
 11
151.276
 21
7.71243
  0
LINE
  8
0
 10
151.276
 20
7.71243
 11
152.116
 21
10.2972
  0
LINE
  8
0
 10
152.116
 20
10.2972
 11
152.4
 21
13
  0
LINE
  8
0
 10
152.4
 20
13
 11
152.4
 21
25.1
  0
LINE
  8
0
 10
152.4
 20
25.1
 11
152.116
 21
27.8028
  0
LINE
  8
0
 10
152.116
 20
27.8028
 11
151.276
 21
30.3876
  0
LINE
  8
0
 10
151.276
 20
30.3876
 11
149.917
 21
32.7412
  0
LINE
  8
0
 10
149.917
 20
32.7412
 11
148.099
 21
34.7609
  0
LINE
  8
0
 10
148.099
 20
34.7609
 11
145.9
 21
36.3583
  0
LINE
  8
0
 10
145.9
 20
36.3583
 11
143.417
 21
37.4637
  0
LINE
  8
0
 10
143.417
 20
37.4637
 11
140.759
 21
38.0288
  0
LINE
  8
0
 10
140.759
 20
38.0288
 11
11.6411
 21
38.0288
  0
LINE
  8
0
 10
11.6411
 20
38.0288
 11
8.98279
 21
37.4637
  0
LINE
  8
0
 10
8.98279
 20
37.4637
 11
6.5
 21
36.3583
  0
LINE
  8
0
 10
6.5
 20
36.3583
 11
4.3013
 21
34.7609
  0
LINE
  8
0
 10
4.3013
 20
34.7609
 11
2.48279
 21
32.7412
  0
LINE
  8
0
 10
2.48279
 20
32.7412
 11
1.12392
 21
30.3876
  0
LINE
  8
0
 10
1.12392
 20
30.3876
 11
0.284091
 21
27.8028
  0
LINE
  8
0
 10
0.284091
 20
27.8028
 11
3.05176e-06
 21
25.1
  0
LINE
  8
0
 10
3.05176e-06
 20
25.1
 11
3.05176e-06
 21
13
  0
LINE
  8
0
 10
3.05176e-06
 20
13
 11
0.284091
 21
10.2972
  0
LINE
  8
0
 10
0.284091
 20
10.2972
 11
1.12392
 21
7.71243
  0
LINE
  8
0
 10
1.12392
 20
7.71243
 11
2.48279
 21
5.35879
  0
LINE
  8
0
 10
2.48279
 20
5.35879
 11
4.3013
 21
3.33912
  0
LINE
  8
0
 10
4.3013
 20
3.33912
 11
6.5
 21
1.74168
  0
LINE
  8
0
 10
6.5
 20
1.74168
 11
8.98279
 21
0.636273
  0
LINE
  8
0
 10
8.98279
 20
0.636273
 11
11.6411
 21
0.071225
  0
LINE
  8
0
 10
11.6411
 20
0.071225
 11
140.759
 21
0.071225
  0
LINE
  8
0
 10
140.759
 20
0.071225
 11
143.417
 21
0.636273
  0
LINE
  8
0
 10
64.4322
 20
27.2822
 11
63.7
 21
29.05
  0
LINE
  8
0
 10
63.7
 20
29.05
 11
64.4322
 21
30.8178
  0
LINE
  8
0
 10
64.4322
 20
30.8178
 11
66.2
 21
31.55
  0
LINE
  8
0
 10
66.2
 20
31.55
 11
67.9678
 21
30.8178
  0
LINE
  8
0
 10
67.9678
 20
30.8178
 11
68.7
 21
29.05
  0
LINE
  8
0
 10
68.7
 20
29.05
 11
67.9678
 21
27.2822
  0
LINE
  8
0
 10
67.9678
 20
27.2822
 11
66.2
 21
26.55
  0
LINE
  8
0
 10
66.2
 20
26.55
 11
64.4322
 21
27.2822
  0
LINE
  8
0
 10
44.4322
 20
27.2822
 11
43.7
 21
29.05
  0
LINE
  8
0
 10
43.7
 20
29.05
 11
44.4322
 21
30.8178
  0
LINE
  8
0
 10
44.4322
 20
30.8178
 11
46.2
 21
31.55
  0
LINE
  8
0
 10
46.2
 20
31.55
 11
47.9678
 21
30.8178
  0
LINE
  8
0
 10
47.9678
 20
30.8178
 11
48.7
 21
29.05
  0
LINE
  8
0
 10
48.7
 20
29.05
 11
47.9678
 21
27.2822
  0
LINE
  8
0
 10
47.9678
 20
27.2822
 11
46.2
 21
26.55
  0
LINE
  8
0
 10
46.2
 20
26.55
 11
44.4322
 21
27.2822
  0
LINE
  8
0
 10
84.4322
 20
27.2822
 11
83.7
 21
29.05
  0
LINE
  8
0
 10
83.7
 20
29.05
 11
84.4322
 21
30.8178
  0
LINE
  8
0
 10
84.4322
 20
30.8178
 11
86.2
 21
31.55
  0
LINE
  8
0
 10
86.2
 20
31.55
 11
87.9678
 21
30.8178
  0
LINE
  8
0
 10
87.9678
 20
30.8178
 11
88.7
 21
29.05
  0
LINE
  8
0
 10
88.7
 20
29.05
 11
87.9678
 21
27.2822
  0
LINE
  8
0
 10
87.9678
 20
27.2822
 11
86.2
 21
26.55
  0
LINE
  8
0
 10
86.2
 20
26.55
 11
84.4322
 21
27.2822
  0
LINE
  8
0
 10
104.432
 20
27.2822
 11
103.7
 21
29.05
  0
LINE
  8
0
 10
103.7
 20
29.05
 11
104.432
 21
30.8178
  0
LINE
  8
0
 10
104.432
 20
30.8178
 11
106.2
 21
31.55
  0
LINE
  8
0
 10
106.2
 20
31.55
 11
107.968
 21
30.8178
  0
LINE
  8
0
 10
107.968
 20
30.8178
 11
108.7
 21
29.05
  0
LINE
  8
0
 10
108.7
 20
29.05
 11
107.968
 21
27.2822
  0
LINE
  8
0
 10
107.968
 20
27.2822
 11
106.2
 21
26.55
  0
LINE
  8
0
 10
106.2
 20
26.55
 11
104.432
 21
27.2822
  0
LINE
  8
0
 10
131.1
 20
15.1529
 11
129.709
 21
16.405
  0
LINE
  8
0
 10
129.709
 20
16.405
 11
128.948
 21
18.1144
  0
LINE
  8
0
 10
128.948
 20
18.1144
 11
128.948
 21
19.9856
  0
LINE
  8
0
 10
128.948
 20
19.9856
 11
129.709
 21
21.695
  0
LINE
  8
0
 10
129.709
 20
21.695
 11
131.1
 21
22.9471
  0
LINE
  8
0
 10
131.1
 20
22.9471
 11
132.88
 21
23.5253
  0
LINE
  8
0
 10
132.88
 20
23.5253
 11
134.741
 21
23.3297
  0
LINE
  8
0
 10
134.741
 20
23.3297
 11
136.361
 21
22.3941
  0
LINE
  8
0
 10
136.361
 20
22.3941
 11
137.461
 21
20.8803
  0
LINE
  8
0
 10
137.461
 20
20.8803
 11
137.85
 21
19.05
  0
LINE
  8
0
 10
137.85
 20
19.05
 11
137.461
 21
17.2197
  0
LINE
  8
0
 10
137.461
 20
17.2197
 11
136.361
 21
15.7059
  0
LINE
  8
0
 10
136.361
 20
15.7059
 11
134.741
 21
14.7703
  0
LINE
  8
0
 10
134.741
 20
14.7703
 11
132.88
 21
14.5747
  0
LINE
  8
0
 10
132.88
 20
14.5747
 11
131.1
 21
15.1529
  0
LINE
  8
0
 10
16.8
 20
15.1529
 11
15.4094
 21
16.405
  0
LINE
  8
0
 10
15.4094
 20
16.405
 11
14.6483
 21
18.1144
  0
LINE
  8
0
 10
14.6483
 20
18.1144
 11
14.6483
 21
19.9856
  0
LINE
  8
0
 10
14.6483
 20
19.9856
 11
15.4094
 21
21.695
  0
LINE
  8
0
 10
15.4094
 20
21.695
 11
16.8
 21
22.9471
  0
LINE
  8
0
 10
16.8
 20
22.9471
 11
18.5796
 21
23.5253
  0
LINE
  8
0
 10
18.5796
 20
23.5253
 11
20.4406
 21
23.3297
  0
LINE
  8
0
 10
20.4406
 20
23.3297
 11
22.0611
 21
22.3941
  0
LINE
  8
0
 10
22.0611
 20
22.3941
 11
23.161
 21
20.8803
  0
LINE
  8
0
 10
23.161
 20
20.8803
 11
23.55
 21
19.05
  0
LINE
  8
0
 10
23.55
 20
19.05
 11
23.161
 21
17.2197
  0
LINE
  8
0
 10
23.161
 20
17.2197
 11
22.0611
 21
15.7059
  0
LINE
  8
0
 10
22.0611
 20
15.7059
 11
20.4406
 21
14.7703
  0
LINE
  8
0
 10
20.4406
 20
14.7703
 11
18.5796
 21
14.5747
  0
LINE
  8
0
 10
18.5796
 20
14.5747
 11
16.8
 21
15.1529
  0
LINE
  8
0
 10
64.4322
 20
7.28224
 11
63.7
 21
9.05
  0
LINE
  8
0
 10
63.7
 20
9.05
 11
64.4322
 21
10.8178
  0
LINE
  8
0
 10
64.4322
 20
10.8178
 11
66.2
 21
11.55
  0
LINE
  8
0
 10
66.2
 20
11.55
 11
67.9678
 21
10.8178
  0
LINE
  8
0
 10
67.9678
 20
10.8178
 11
68.7
 21
9.05
  0
LINE
  8
0
 10
68.7
 20
9.05
 11
67.9678
 21
7.28224
  0
LINE
  8
0
 10
67.9678
 20
7.28224
 11
66.2
 21
6.55
  0
LINE
  8
0
 10
66.2
 20
6.55
 11
64.4322
 21
7.28224
  0
LINE
  8
0
 10
44.4322
 20
7.28224
 11
43.7
 21
9.05
  0
LINE
  8
0
 10
43.7
 20
9.05
 11
44.4322
 21
10.8178
  0
LINE
  8
0
 10
44.4322
 20
10.8178
 11
46.2
 21
11.55
  0
LINE
  8
0
 10
46.2
 20
11.55
 11
47.9678
 21
10.8178
  0
LINE
  8
0
 10
47.9678
 20
10.8178
 11
48.7
 21
9.05
  0
LINE
  8
0
 10
48.7
 20
9.05
 11
47.9678
 21
7.28224
  0
LINE
  8
0
 10
47.9678
 20
7.28224
 11
46.2
 21
6.55
  0
LINE
  8
0
 10
46.2
 20
6.55
 11
44.4322
 21
7.28224
  0
LINE
  8
0
 10
84.4322
 20
7.28224
 11
83.7
 21
9.05
  0
LINE
  8
0
 10
83.7
 20
9.05
 11
84.4322
 21
10.8178
  0
LINE
  8
0
 10
84.4322
 20
10.8178
 11
86.2
 21
11.55
  0
LINE
  8
0
 10
86.2
 20
11.55
 11
87.9678
 21
10.8178
  0
LINE
  8
0
 10
87.9678
 20
10.8178
 11
88.7
 21
9.05
  0
LINE
  8
0
 10
88.7
 20
9.05
 11
87.9678
 21
7.28224
  0
LINE
  8
0
 10
87.9678
 20
7.28224
 11
86.2
 21
6.55
  0
LINE
  8
0
 10
86.2
 20
6.55
 11
84.4322
 21
7.28224
  0
LINE
  8
0
 10
104.432
 20
7.28224
 11
103.7
 21
9.05
  0
LINE
  8
0
 10
103.7
 20
9.05
 11
104.432
 21
10.8178
  0
LINE
  8
0
 10
104.432
 20
10.8178
 11
106.2
 21
11.55
  0
LINE
  8
0
 10
106.2
 20
11.55
 11
107.968
 21
10.8178
  0
LINE
  8
0
 10
107.968
 20
10.8178
 11
108.7
 21
9.05
  0
LINE
  8
0
 10
108.7
 20
9.05
 11
107.968
 21
7.28224
  0
LINE
  8
0
 10
107.968
 20
7.28224
 11
106.2
 21
6.55
  0
LINE
  8
0
 10
106.2
 20
6.55
 11
104.432
 21
7.28224
  0
ENDSEC
  0
SECTION
  2
OBJECTS
  0
DICTIONARY
  0
ENDSEC
  0
EOF
