 0
SECTION
 2
ENTITIES
  0
POLYLINE
 8
Layer0
 66
     1
70
    8
 10
0.0
 20
 0.0
 30
0.0
  0
VERTEX
  8
MY3DLAYER
10
-98.3868541236986
20
141.100543937214
30
0.0
 70
     32
  0
VERTEX
  8
MY3DLAYER
10
-98.3868541236986
20
125.100543937214
30
0.0
 70
     32
  0
VERTEX
  8
MY3DLAYER
10
-106.386854123699
20
125.100543937214
30
0.0
 70
     32
  0
VERTEX
  8
MY3DLAYER
10
-106.386854123699
20
141.100543937214
30
0.0
 70
     32
  0
VERTEX
  8
MY3DLAYER
10
-98.3868541236986
20
141.100543937214
30
0.0
 70
     32
  0
SEQEND
  0
POLYLINE
 8
Layer0
 66
     1
70
    8
 10
0.0
 20
 0.0
 30
0.0
  0
VERTEX
  8
MY3DLAYER
10
-99.843520846411
20
134.954958224344
30
0.0
 70
     32
  0
VERTEX
  8
MY3DLAYER
10
-99.8243541236986
20
135.100543937214
30
0.0
 70
     32
  0
VERTEX
  8
MY3DLAYER
10
-99.843520846411
20
135.246129650084
30
0.0
 70
     32
  0
VERTEX
  8
MY3DLAYER
10
-99.8997148340699
20
135.381793937214
30
0.0
 70
     32
  0
VERTEX
  8
MY3DLAYER
10
-99.9891065592812
20
135.498291501632
30
0.0
 70
     32
  0
VERTEX
  8
MY3DLAYER
10
-100.105604123699
20
135.587683226843
30
0.0
 70
     32
  0
VERTEX
  8
MY3DLAYER
10
-100.241268410828
20
135.643877214502
30
0.0
 70
     32
  0
VERTEX
  8
MY3DLAYER
10
-100.386854123699
20
135.663043937214
30
0.0
 70
     32
  0
VERTEX
  8
MY3DLAYER
10
-100.532439836569
20
135.643877214502
30
0.0
 70
     32
  0
VERTEX
  8
MY3DLAYER
10
-100.668104123699
20
135.587683226843
30
0.0
 70
     32
  0
VERTEX
  8
MY3DLAYER
10
-100.784601688116
20
135.498291501632
30
0.0
 70
     32
  0
VERTEX
  8
MY3DLAYER
10
-100.873993413327
20
135.381793937214
30
0.0
 70
     32
  0
VERTEX
  8
MY3DLAYER
10
-100.930187400986
20
135.246129650084
30
0.0
 70
     32
  0
VERTEX
  8
MY3DLAYER
10
-100.949354123699
20
135.100543937214
30
0.0
 70
     32
  0
VERTEX
  8
MY3DLAYER
10
-100.930187400986
20
134.954958224344
30
0.0
 70
     32
  0
VERTEX
  8
MY3DLAYER
10
-100.873993413327
20
134.819293937214
30
0.0
 70
     32
  0
VERTEX
  8
MY3DLAYER
10
-100.784601688116
20
134.702796372797
30
0.0
 70
     32
  0
VERTEX
  8
MY3DLAYER
10
-100.668104123699
20
134.613404647585
30
0.0
 70
     32
  0
VERTEX
  8
MY3DLAYER
10
-100.532439836569
20
134.557210659927
30
0.0
 70
     32
  0
VERTEX
  8
MY3DLAYER
10
-100.386854123699
20
134.538043937214
30
0.0
 70
     32
  0
VERTEX
  8
MY3DLAYER
10
-100.241268410828
20
134.557210659927
30
0.0
 70
     32
  0
VERTEX
  8
MY3DLAYER
10
-100.105604123699
20
134.613404647585
30
0.0
 70
     32
  0
VERTEX
  8
MY3DLAYER
10
-99.9891065592812
20
134.702796372797
30
0.0
 70
     32
  0
VERTEX
  8
MY3DLAYER
10
-99.8997148340699
20
134.819293937214
30
0.0
 70
     32
  0
VERTEX
  8
MY3DLAYER
10
-99.843520846411
20
134.954958224344
30
0.0
 70
     32
  0
SEQEND
  0
POLYLINE
 8
Layer0
 66
     1
70
    8
 10
0.0
 20
 0.0
 30
0.0
  0
VERTEX
  8
MY3DLAYER
10
-100.532439836569
20
126.557210659927
30
0.0
 70
     32
  0
VERTEX
  8
MY3DLAYER
10
-100.386854123699
20
126.538043937214
30
0.0
 70
     32
  0
VERTEX
  8
MY3DLAYER
10
-100.241268410828
20
126.557210659927
30
0.0
 70
     32
  0
VERTEX
  8
MY3DLAYER
10
-100.105604123699
20
126.613404647585
30
0.0
 70
     32
  0
VERTEX
  8
MY3DLAYER
10
-99.9891065592812
20
126.702796372797
30
0.0
 70
     32
  0
VERTEX
  8
MY3DLAYER
10
-99.8997148340699
20
126.819293937214
30
0.0
 70
     32
  0
VERTEX
  8
MY3DLAYER
10
-99.843520846411
20
126.954958224344
30
0.0
 70
     32
  0
VERTEX
  8
MY3DLAYER
10
-99.8243541236986
20
127.100543937214
30
0.0
 70
     32
  0
VERTEX
  8
MY3DLAYER
10
-99.843520846411
20
127.246129650084
30
0.0
 70
     32
  0
VERTEX
  8
MY3DLAYER
10
-99.8997148340699
20
127.381793937214
30
0.0
 70
     32
  0
VERTEX
  8
MY3DLAYER
10
-99.9891065592812
20
127.498291501632
30
0.0
 70
     32
  0
VERTEX
  8
MY3DLAYER
10
-100.105604123699
20
127.587683226843
30
0.0
 70
     32
  0
VERTEX
  8
MY3DLAYER
10
-100.241268410828
20
127.643877214502
30
0.0
 70
     32
  0
VERTEX
  8
MY3DLAYER
10
-100.386854123699
20
127.663043937214
30
0.0
 70
     32
  0
VERTEX
  8
MY3DLAYER
10
-100.532439836569
20
127.643877214502
30
0.0
 70
     32
  0
VERTEX
  8
MY3DLAYER
10
-100.668104123699
20
127.587683226843
30
0.0
 70
     32
  0
VERTEX
  8
MY3DLAYER
10
-100.784601688116
20
127.498291501632
30
0.0
 70
     32
  0
VERTEX
  8
MY3DLAYER
10
-100.873993413327
20
127.381793937214
30
0.0
 70
     32
  0
VERTEX
  8
MY3DLAYER
10
-100.930187400986
20
127.246129650084
30
0.0
 70
     32
  0
VERTEX
  8
MY3DLAYER
10
-100.949354123699
20
127.100543937214
30
0.0
 70
     32
  0
VERTEX
  8
MY3DLAYER
10
-100.930187400986
20
126.954958224344
30
0.0
 70
     32
  0
VERTEX
  8
MY3DLAYER
10
-100.873993413327
20
126.819293937214
30
0.0
 70
     32
  0
VERTEX
  8
MY3DLAYER
10
-100.784601688116
20
126.702796372797
30
0.0
 70
     32
  0
VERTEX
  8
MY3DLAYER
10
-100.668104123699
20
126.613404647585
30
0.0
 70
     32
  0
VERTEX
  8
MY3DLAYER
10
-100.532439836569
20
126.557210659927
30
0.0
 70
     32
  0
SEQEND
  0
POLYLINE
 8
Layer0
 66
     1
70
    8
 10
0.0
 20
 0.0
 30
0.0
  0
VERTEX
  8
MY3DLAYER
10
-99.843520846411
20
130.954958224344
30
0.0
 70
     32
  0
VERTEX
  8
MY3DLAYER
10
-99.8243541236986
20
131.100543937214
30
0.0
 70
     32
  0
VERTEX
  8
MY3DLAYER
10
-99.843520846411
20
131.246129650084
30
0.0
 70
     32
  0
VERTEX
  8
MY3DLAYER
10
-99.8997148340699
20
131.381793937214
30
0.0
 70
     32
  0
VERTEX
  8
MY3DLAYER
10
-99.9891065592812
20
131.498291501632
30
0.0
 70
     32
  0
VERTEX
  8
MY3DLAYER
10
-100.105604123699
20
131.587683226843
30
0.0
 70
     32
  0
VERTEX
  8
MY3DLAYER
10
-100.241268410828
20
131.643877214502
30
0.0
 70
     32
  0
VERTEX
  8
MY3DLAYER
10
-100.386854123699
20
131.663043937214
30
0.0
 70
     32
  0
VERTEX
  8
MY3DLAYER
10
-100.532439836569
20
131.643877214502
30
0.0
 70
     32
  0
VERTEX
  8
MY3DLAYER
10
-100.668104123699
20
131.587683226843
30
0.0
 70
     32
  0
VERTEX
  8
MY3DLAYER
10
-100.784601688116
20
131.498291501632
30
0.0
 70
     32
  0
VERTEX
  8
MY3DLAYER
10
-100.873993413327
20
131.381793937214
30
0.0
 70
     32
  0
VERTEX
  8
MY3DLAYER
10
-100.930187400986
20
131.246129650084
30
0.0
 70
     32
  0
VERTEX
  8
MY3DLAYER
10
-100.949354123699
20
131.100543937214
30
0.0
 70
     32
  0
VERTEX
  8
MY3DLAYER
10
-100.930187400986
20
130.954958224344
30
0.0
 70
     32
  0
VERTEX
  8
MY3DLAYER
10
-100.873993413327
20
130.819293937214
30
0.0
 70
     32
  0
VERTEX
  8
MY3DLAYER
10
-100.784601688116
20
130.702796372797
30
0.0
 70
     32
  0
VERTEX
  8
MY3DLAYER
10
-100.668104123699
20
130.613404647585
30
0.0
 70
     32
  0
VERTEX
  8
MY3DLAYER
10
-100.532439836569
20
130.557210659927
30
0.0
 70
     32
  0
VERTEX
  8
MY3DLAYER
10
-100.386854123699
20
130.538043937214
30
0.0
 70
     32
  0
VERTEX
  8
MY3DLAYER
10
-100.241268410828
20
130.557210659927
30
0.0
 70
     32
  0
VERTEX
  8
MY3DLAYER
10
-100.105604123699
20
130.613404647585
30
0.0
 70
     32
  0
VERTEX
  8
MY3DLAYER
10
-99.9891065592812
20
130.702796372797
30
0.0
 70
     32
  0
VERTEX
  8
MY3DLAYER
10
-99.8997148340699
20
130.819293937214
30
0.0
 70
     32
  0
VERTEX
  8
MY3DLAYER
10
-99.843520846411
20
130.954958224344
30
0.0
 70
     32
  0
SEQEND
  0
POLYLINE
 8
Layer0
 66
     1
70
    8
 10
0.0
 20
 0.0
 30
0.0
  0
VERTEX
  8
MY3DLAYER
10
-99.843520846411
20
138.954958224344
30
0.0
 70
     32
  0
VERTEX
  8
MY3DLAYER
10
-99.8243541236986
20
139.100543937214
30
0.0
 70
     32
  0
VERTEX
  8
MY3DLAYER
10
-99.843520846411
20
139.246129650084
30
0.0
 70
     32
  0
VERTEX
  8
MY3DLAYER
10
-99.8997148340699
20
139.381793937214
30
0.0
 70
     32
  0
VERTEX
  8
MY3DLAYER
10
-99.9891065592812
20
139.498291501632
30
0.0
 70
     32
  0
VERTEX
  8
MY3DLAYER
10
-100.105604123699
20
139.587683226843
30
0.0
 70
     32
  0
VERTEX
  8
MY3DLAYER
10
-100.241268410828
20
139.643877214502
30
0.0
 70
     32
  0
VERTEX
  8
MY3DLAYER
10
-100.386854123699
20
139.663043937214
30
0.0
 70
     32
  0
VERTEX
  8
MY3DLAYER
10
-100.532439836569
20
139.643877214502
30
0.0
 70
     32
  0
VERTEX
  8
MY3DLAYER
10
-100.668104123699
20
139.587683226843
30
0.0
 70
     32
  0
VERTEX
  8
MY3DLAYER
10
-100.784601688116
20
139.498291501632
30
0.0
 70
     32
  0
VERTEX
  8
MY3DLAYER
10
-100.873993413327
20
139.381793937214
30
0.0
 70
     32
  0
VERTEX
  8
MY3DLAYER
10
-100.930187400986
20
139.246129650084
30
0.0
 70
     32
  0
VERTEX
  8
MY3DLAYER
10
-100.949354123699
20
139.100543937214
30
0.0
 70
     32
  0
VERTEX
  8
MY3DLAYER
10
-100.930187400986
20
138.954958224344
30
0.0
 70
     32
  0
VERTEX
  8
MY3DLAYER
10
-100.873993413327
20
138.819293937214
30
0.0
 70
     32
  0
VERTEX
  8
MY3DLAYER
10
-100.784601688116
20
138.702796372797
30
0.0
 70
     32
  0
VERTEX
  8
MY3DLAYER
10
-100.668104123699
20
138.613404647585
30
0.0
 70
     32
  0
VERTEX
  8
MY3DLAYER
10
-100.532439836569
20
138.557210659927
30
0.0
 70
     32
  0
VERTEX
  8
MY3DLAYER
10
-100.386854123699
20
138.538043937214
30
0.0
 70
     32
  0
VERTEX
  8
MY3DLAYER
10
-100.241268410828
20
138.557210659927
30
0.0
 70
     32
  0
VERTEX
  8
MY3DLAYER
10
-100.105604123699
20
138.613404647585
30
0.0
 70
     32
  0
VERTEX
  8
MY3DLAYER
10
-99.9891065592812
20
138.702796372797
30
0.0
 70
     32
  0
VERTEX
  8
MY3DLAYER
10
-99.8997148340699
20
138.819293937214
30
0.0
 70
     32
  0
VERTEX
  8
MY3DLAYER
10
-99.843520846411
20
138.954958224344
30
0.0
 70
     32
  0
SEQEND
  0
POLYLINE
 8
Layer0
 66
     1
70
    8
 10
0.0
 20
 0.0
 30
0.0
  0
VERTEX
  8
MY3DLAYER
10
-103.824354123699
20
139.100543937214
30
0.0
 70
     32
  0
VERTEX
  8
MY3DLAYER
10
-103.843520846411
20
139.246129650084
30
0.0
 70
     32
  0
VERTEX
  8
MY3DLAYER
10
-103.89971483407
20
139.381793937214
30
0.0
 70
     32
  0
VERTEX
  8
MY3DLAYER
10
-103.989106559281
20
139.498291501632
30
0.0
 70
     32
  0
VERTEX
  8
MY3DLAYER
10
-104.105604123699
20
139.587683226843
30
0.0
 70
     32
  0
VERTEX
  8
MY3DLAYER
10
-104.241268410828
20
139.643877214502
30
0.0
 70
     32
  0
VERTEX
  8
MY3DLAYER
10
-104.386854123699
20
139.663043937214
30
0.0
 70
     32
  0
VERTEX
  8
MY3DLAYER
10
-104.532439836569
20
139.643877214502
30
0.0
 70
     32
  0
VERTEX
  8
MY3DLAYER
10
-104.668104123699
20
139.587683226843
30
0.0
 70
     32
  0
VERTEX
  8
MY3DLAYER
10
-104.784601688116
20
139.498291501632
30
0.0
 70
     32
  0
VERTEX
  8
MY3DLAYER
10
-104.873993413327
20
139.381793937214
30
0.0
 70
     32
  0
VERTEX
  8
MY3DLAYER
10
-104.930187400986
20
139.246129650084
30
0.0
 70
     32
  0
VERTEX
  8
MY3DLAYER
10
-104.949354123699
20
139.100543937214
30
0.0
 70
     32
  0
VERTEX
  8
MY3DLAYER
10
-104.930187400986
20
138.954958224344
30
0.0
 70
     32
  0
VERTEX
  8
MY3DLAYER
10
-104.873993413327
20
138.819293937214
30
0.0
 70
     32
  0
VERTEX
  8
MY3DLAYER
10
-104.784601688116
20
138.702796372797
30
0.0
 70
     32
  0
VERTEX
  8
MY3DLAYER
10
-104.668104123699
20
138.613404647585
30
0.0
 70
     32
  0
VERTEX
  8
MY3DLAYER
10
-104.532439836569
20
138.557210659927
30
0.0
 70
     32
  0
VERTEX
  8
MY3DLAYER
10
-104.386854123699
20
138.538043937214
30
0.0
 70
     32
  0
VERTEX
  8
MY3DLAYER
10
-104.241268410828
20
138.557210659927
30
0.0
 70
     32
  0
VERTEX
  8
MY3DLAYER
10
-104.105604123699
20
138.613404647585
30
0.0
 70
     32
  0
VERTEX
  8
MY3DLAYER
10
-103.989106559281
20
138.702796372797
30
0.0
 70
     32
  0
VERTEX
  8
MY3DLAYER
10
-103.89971483407
20
138.819293937214
30
0.0
 70
     32
  0
VERTEX
  8
MY3DLAYER
10
-103.843520846411
20
138.954958224344
30
0.0
 70
     32
  0
VERTEX
  8
MY3DLAYER
10
-103.824354123699
20
139.100543937214
30
0.0
 70
     32
  0
SEQEND
  0
POLYLINE
 8
Layer0
 66
     1
70
    8
 10
0.0
 20
 0.0
 30
0.0
  0
VERTEX
  8
MY3DLAYER
10
-103.824354123699
20
135.100543937214
30
0.0
 70
     32
  0
VERTEX
  8
MY3DLAYER
10
-103.843520846411
20
135.246129650084
30
0.0
 70
     32
  0
VERTEX
  8
MY3DLAYER
10
-103.89971483407
20
135.381793937214
30
0.0
 70
     32
  0
VERTEX
  8
MY3DLAYER
10
-103.989106559281
20
135.498291501632
30
0.0
 70
     32
  0
VERTEX
  8
MY3DLAYER
10
-104.105604123699
20
135.587683226843
30
0.0
 70
     32
  0
VERTEX
  8
MY3DLAYER
10
-104.241268410828
20
135.643877214502
30
0.0
 70
     32
  0
VERTEX
  8
MY3DLAYER
10
-104.386854123699
20
135.663043937214
30
0.0
 70
     32
  0
VERTEX
  8
MY3DLAYER
10
-104.532439836569
20
135.643877214502
30
0.0
 70
     32
  0
VERTEX
  8
MY3DLAYER
10
-104.668104123699
20
135.587683226843
30
0.0
 70
     32
  0
VERTEX
  8
MY3DLAYER
10
-104.784601688116
20
135.498291501632
30
0.0
 70
     32
  0
VERTEX
  8
MY3DLAYER
10
-104.873993413327
20
135.381793937214
30
0.0
 70
     32
  0
VERTEX
  8
MY3DLAYER
10
-104.930187400986
20
135.246129650084
30
0.0
 70
     32
  0
VERTEX
  8
MY3DLAYER
10
-104.949354123699
20
135.100543937214
30
0.0
 70
     32
  0
VERTEX
  8
MY3DLAYER
10
-104.930187400986
20
134.954958224344
30
0.0
 70
     32
  0
VERTEX
  8
MY3DLAYER
10
-104.873993413327
20
134.819293937214
30
0.0
 70
     32
  0
VERTEX
  8
MY3DLAYER
10
-104.784601688116
20
134.702796372797
30
0.0
 70
     32
  0
VERTEX
  8
MY3DLAYER
10
-104.668104123699
20
134.613404647585
30
0.0
 70
     32
  0
VERTEX
  8
MY3DLAYER
10
-104.532439836569
20
134.557210659927
30
0.0
 70
     32
  0
VERTEX
  8
MY3DLAYER
10
-104.386854123699
20
134.538043937214
30
0.0
 70
     32
  0
VERTEX
  8
MY3DLAYER
10
-104.241268410828
20
134.557210659927
30
0.0
 70
     32
  0
VERTEX
  8
MY3DLAYER
10
-104.105604123699
20
134.613404647585
30
0.0
 70
     32
  0
VERTEX
  8
MY3DLAYER
10
-103.989106559281
20
134.702796372797
30
0.0
 70
     32
  0
VERTEX
  8
MY3DLAYER
10
-103.89971483407
20
134.819293937214
30
0.0
 70
     32
  0
VERTEX
  8
MY3DLAYER
10
-103.843520846411
20
134.954958224344
30
0.0
 70
     32
  0
VERTEX
  8
MY3DLAYER
10
-103.824354123699
20
135.100543937214
30
0.0
 70
     32
  0
SEQEND
  0
POLYLINE
 8
Layer0
 66
     1
70
    8
 10
0.0
 20
 0.0
 30
0.0
  0
VERTEX
  8
MY3DLAYER
10
-103.824354123699
20
131.100543937214
30
0.0
 70
     32
  0
VERTEX
  8
MY3DLAYER
10
-103.843520846411
20
131.246129650084
30
0.0
 70
     32
  0
VERTEX
  8
MY3DLAYER
10
-103.89971483407
20
131.381793937214
30
0.0
 70
     32
  0
VERTEX
  8
MY3DLAYER
10
-103.989106559281
20
131.498291501632
30
0.0
 70
     32
  0
VERTEX
  8
MY3DLAYER
10
-104.105604123699
20
131.587683226843
30
0.0
 70
     32
  0
VERTEX
  8
MY3DLAYER
10
-104.241268410828
20
131.643877214502
30
0.0
 70
     32
  0
VERTEX
  8
MY3DLAYER
10
-104.386854123699
20
131.663043937214
30
0.0
 70
     32
  0
VERTEX
  8
MY3DLAYER
10
-104.532439836569
20
131.643877214502
30
0.0
 70
     32
  0
VERTEX
  8
MY3DLAYER
10
-104.668104123699
20
131.587683226843
30
0.0
 70
     32
  0
VERTEX
  8
MY3DLAYER
10
-104.784601688116
20
131.498291501632
30
0.0
 70
     32
  0
VERTEX
  8
MY3DLAYER
10
-104.873993413327
20
131.381793937214
30
0.0
 70
     32
  0
VERTEX
  8
MY3DLAYER
10
-104.930187400986
20
131.246129650084
30
0.0
 70
     32
  0
VERTEX
  8
MY3DLAYER
10
-104.949354123699
20
131.100543937214
30
0.0
 70
     32
  0
VERTEX
  8
MY3DLAYER
10
-104.930187400986
20
130.954958224344
30
0.0
 70
     32
  0
VERTEX
  8
MY3DLAYER
10
-104.873993413327
20
130.819293937214
30
0.0
 70
     32
  0
VERTEX
  8
MY3DLAYER
10
-104.784601688116
20
130.702796372797
30
0.0
 70
     32
  0
VERTEX
  8
MY3DLAYER
10
-104.668104123699
20
130.613404647585
30
0.0
 70
     32
  0
VERTEX
  8
MY3DLAYER
10
-104.532439836569
20
130.557210659927
30
0.0
 70
     32
  0
VERTEX
  8
MY3DLAYER
10
-104.386854123699
20
130.538043937214
30
0.0
 70
     32
  0
VERTEX
  8
MY3DLAYER
10
-104.241268410828
20
130.557210659927
30
0.0
 70
     32
  0
VERTEX
  8
MY3DLAYER
10
-104.105604123699
20
130.613404647585
30
0.0
 70
     32
  0
VERTEX
  8
MY3DLAYER
10
-103.989106559281
20
130.702796372797
30
0.0
 70
     32
  0
VERTEX
  8
MY3DLAYER
10
-103.89971483407
20
130.819293937214
30
0.0
 70
     32
  0
VERTEX
  8
MY3DLAYER
10
-103.843520846411
20
130.954958224344
30
0.0
 70
     32
  0
VERTEX
  8
MY3DLAYER
10
-103.824354123699
20
131.100543937214
30
0.0
 70
     32
  0
SEQEND
  0
POLYLINE
 8
Layer0
 66
     1
70
    8
 10
0.0
 20
 0.0
 30
0.0
  0
VERTEX
  8
MY3DLAYER
10
-103.824354123699
20
127.100543937214
30
0.0
 70
     32
  0
VERTEX
  8
MY3DLAYER
10
-103.843520846411
20
127.246129650084
30
0.0
 70
     32
  0
VERTEX
  8
MY3DLAYER
10
-103.89971483407
20
127.381793937214
30
0.0
 70
     32
  0
VERTEX
  8
MY3DLAYER
10
-103.989106559281
20
127.498291501632
30
0.0
 70
     32
  0
VERTEX
  8
MY3DLAYER
10
-104.105604123699
20
127.587683226843
30
0.0
 70
     32
  0
VERTEX
  8
MY3DLAYER
10
-104.241268410828
20
127.643877214502
30
0.0
 70
     32
  0
VERTEX
  8
MY3DLAYER
10
-104.386854123699
20
127.663043937214
30
0.0
 70
     32
  0
VERTEX
  8
MY3DLAYER
10
-104.532439836569
20
127.643877214502
30
0.0
 70
     32
  0
VERTEX
  8
MY3DLAYER
10
-104.668104123699
20
127.587683226843
30
0.0
 70
     32
  0
VERTEX
  8
MY3DLAYER
10
-104.784601688116
20
127.498291501632
30
0.0
 70
     32
  0
VERTEX
  8
MY3DLAYER
10
-104.873993413327
20
127.381793937214
30
0.0
 70
     32
  0
VERTEX
  8
MY3DLAYER
10
-104.930187400986
20
127.246129650084
30
0.0
 70
     32
  0
VERTEX
  8
MY3DLAYER
10
-104.949354123699
20
127.100543937214
30
0.0
 70
     32
  0
VERTEX
  8
MY3DLAYER
10
-104.930187400986
20
126.954958224344
30
0.0
 70
     32
  0
VERTEX
  8
MY3DLAYER
10
-104.873993413327
20
126.819293937214
30
0.0
 70
     32
  0
VERTEX
  8
MY3DLAYER
10
-104.784601688116
20
126.702796372797
30
0.0
 70
     32
  0
VERTEX
  8
MY3DLAYER
10
-104.668104123699
20
126.613404647585
30
0.0
 70
     32
  0
VERTEX
  8
MY3DLAYER
10
-104.532439836569
20
126.557210659927
30
0.0
 70
     32
  0
VERTEX
  8
MY3DLAYER
10
-104.386854123699
20
126.538043937214
30
0.0
 70
     32
  0
VERTEX
  8
MY3DLAYER
10
-104.241268410828
20
126.557210659927
30
0.0
 70
     32
  0
VERTEX
  8
MY3DLAYER
10
-104.105604123699
20
126.613404647585
30
0.0
 70
     32
  0
VERTEX
  8
MY3DLAYER
10
-103.989106559281
20
126.702796372797
30
0.0
 70
     32
  0
VERTEX
  8
MY3DLAYER
10
-103.89971483407
20
126.819293937214
30
0.0
 70
     32
  0
VERTEX
  8
MY3DLAYER
10
-103.843520846411
20
126.954958224344
30
0.0
 70
     32
  0
VERTEX
  8
MY3DLAYER
10
-103.824354123699
20
127.100543937214
30
0.0
 70
     32
  0
SEQEND
 0
ENDSEC
 0
EOF
