999
dxflib 2.0.4.8
  0
SECTION
  2
HEADER
  9
$ACADVER
  1
AC1015
  9
$HANDSEED
  5
FFFF
  9
$USERR4
 40
0.0
  9
$DIMTAD
 70
1
  9
$VISRETAIN
 70
0
  9
$TILEMODE
 70
1
  9
$SHADEDIF
 70
70
  9
$USERR5
 40
0.0
  9
$UCSYDIR
 10
0.0
 20
1.0
 30
0.0
  9
$ATTREQ
 70
1
  9
$CHAMFERA
 40
0.5
  9
$MENU
  1
acad
  9
$CLAYER
  8
0
  9
$UCSXDIR
 10
1.0
 20
0.0
 30
0.0
  9
$CHAMFERB
 40
0.5
  9
$DIMASZ
 40
3.0
  9
$TRACEWID
 40
0.05
  9
$REGENMODE
 70
1
  9
$ORTHOMODE
 70
0
  9
$EXTMIN
 10
0.0000000221943424
 20
0.000000111660448
 30
0.0
  9
$PUCSYDIR
 10
0.0
 20
1.0
 30
0.0
  9
$ANGBASE
 50
0.0
  9
$USRTIMER
 70
1
  9
$SKETCHINC
 40
0.1
  9
$DIMGAP
 40
1.0
  9
$DIMTFAC
 40
0.6
  9
$DIMSAH
 70
0
  9
$DIMALT
 70
0
  9
$DIMSHO
 70
1
  9
$PUCSXDIR
 10
1.0
 20
0.0
 30
0.0
  9
$SURFTYPE
 70
6
  9
$SPLFRAME
 70
0
  9
$DIMTSZ
 40
0.0
  9
$LIMMIN
 10
0.0
 20
0.0
  9
$SURFTAB1
 70
6
  9
$SPLINESEGS
 70
8
  9
$BLIPMODE
 70
1
  9
$AUPREC
 70
0
  9
$LUNITS
 70
2
  9
$UNITMODE
 70
0
  9
$USERI1
 70
0
  9
$SURFTAB2
 70
6
  9
$SKPOLY
 70
0
  9
$ELEVATION
 40
0.0
  9
$DIMCEN
 40
0.0
  9
$DIMRND
 40
0.0
  9
$INSBASE
 10
0.0
 20
0.0
 30
0.0
  9
$USERI2
 70
0
  9
$UCSORG
 10
0.0
 20
0.0
 30
0.0
  9
$PELEVATION
 40
0.0
  9
$DIMEXO
 40
1.0
  9
$TEXTSIZE
 40
6.4000000000000012
  9
$DRAGMODE
 70
2
  9
$FILLMODE
 70
1
  9
$EXTMAX
 10
144.9999999999998
 20
62.5
 30
0.0
  9
$INSUNITS
 70
4
  9
$USERI3
 70
0
  9
$SURFU
 70
6
  9
$ANGDIR
 70
0
  9
$TDUSRTIMER
 40
0.0362588542
  9
$DIMZIN
 70
8
  9
$DIMDLE
 40
0.0
  9
$DIMSCALE
 40
1.0
  9
$WORLDVIEW
 70
1
  9
$USERI4
 70
0
  9
$SURFV
 70
6
  9
$OSMODE
 70
57
  9
$QTEXTMODE
 70
0
  9
$LIMMAX
 10
297.0
 20
210.0
  9
$USERI5
 70
0
  9
$HANDLING
 70
1
  9
$PDMODE
 70
0
  9
$LIMCHECK
 70
0
  9
$THICKNESS
 40
0.0
  9
$DIMSE1
 70
0
  9
$DIMLIM
 70
0
  9
$DIMTXT
 40
3.2000000000000002
  9
$ATTMODE
 70
1
  9
$PEXTMAX
 10
-100000000000000000000.0
 20
-100000000000000000000.0
 30
-100000000000000000000.0
  9
$PEXTMIN
 10
100000000000000000000.0
 20
100000000000000000000.0
 30
100000000000000000000.0
  9
$PUCSORG
 10
0.0
 20
0.0
 30
0.0
  9
$SPLINETYPE
 70
6
  9
$TDINDWG
 40
0.0362590394
  9
$LUPREC
 70
4
  9
$DIMSOXD
 70
0
  9
$DIMLFAC
 40
1.0
  9
$DIMSE2
 70
0
  9
$DIMTOH
 70
0
  9
$CELTYPE
  6
CONTINUOUS
  9
$PLIMCHECK
 70
0
  9
$PLINEWID
 40
0.0
  9
$DIMSTYLE
  2
MISUMI
  9
$DIMTVP
 40
1.0
  9
$DIMASO
 70
1
  9
$DIMTM
 40
0.0
  9
$DIMDLI
 40
0.0
  9
$CECOLOR
 62
7
  9
$PLIMMAX
 10
12.0
 20
9.0
  9
$PLIMMIN
 10
0.0
 20
0.0
  9
$MAXACTVP
 70
16
  9
$TDUPDATE
 40
2453776.6987556019
  9
$FILLETRAD
 40
0.0
  9
$DIMCLRT
 70
0
  9
$DIMALTD
 70
2
  9
$DIMTIH
 70
0
  9
$LTSCALE
 40
1.0
  9
$USERR1
 40
0.0
  9
$ATTDIA
 70
0
  9
$PDSIZE
 40
0.0
  9
$DIMCLRD
 70
0
  9
$DIMEXE
 40
1.0
  9
$PSLTSCALE
 70
1
  9
$PLINEGEN
 70
0
  9
$SHADEDGE
 70
3
  9
$USERR2
 40
0.0
  9
$COORDS
 70
0
  9
$TDCREATE
 40
2453626.7031788891
  9
$DIMCLRE
 70
0
  9
$DIMTOFL
 70
1
  9
$DIMALTF
 40
0.04
  9
$DIMTOL
 70
0
  9
$DIMTP
 40
0.0
  9
$TEXTSTYLE
  7
STANDARD
  9
$USERR3
 40
0.0
  9
$AUNITS
 70
0
  9
$DIMTIX
 70
1
  9
$MIRRTEXT
 70
1
  0
ENDSEC
  0
SECTION
  2
TABLES
  0
TABLE
  2
VPORT
  5
8
100
AcDbSymbolTable
 70
1
  0
VPORT
  5
30
100
AcDbSymbolTableRecord
100
AcDbViewportTableRecord
  2
*Active
 70
0
 10
0.0
 20
0.0
 11
1.0
 21
1.0
 12
286.30555555555549
 22
148.5
 13
0.0
 23
0.0
 14
10.0
 24
10.0
 15
10.0
 25
10.0
 16
0.0
 26
0.0
 36
1.0
 17
0.0
 27
0.0
 37
0.0
 40
297.0
 41
1.92798353909465
 42
50.0
 43
0.0
 44
0.0
 50
0.0
 51
0.0
 71
0
 72
100
 73
1
 74
3
 75
1
 76
1
 77
0
 78
0
281
0
 65
1
110
0.0
120
0.0
130
0.0
111
1.0
121
0.0
131
0.0
112
0.0
122
1.0
132
0.0
 79
0
146
0.0
  0
ENDTAB
  0
TABLE
  2
LTYPE
  5
5
100
AcDbSymbolTable
 70
21
  0
LTYPE
  5
14
100
AcDbSymbolTableRecord
100
AcDbLinetypeTableRecord
  2
ByBlock
 70
0
  3

 72
65
 73
0
 40
0.0
  0
LTYPE
  5
15
100
AcDbSymbolTableRecord
100
AcDbLinetypeTableRecord
  2
ByLayer
 70
0
  3

 72
65
 73
0
 40
0.0
  0
LTYPE
  5
16
100
AcDbSymbolTableRecord
100
AcDbLinetypeTableRecord
  2
CONTINUOUS
 70
0
  3
Solid line
 72
65
 73
0
 40
0.0
  0
LTYPE
  5
31
100
AcDbSymbolTableRecord
100
AcDbLinetypeTableRecord
  2
DOT
 70
0
  3
Dot . . . . . . . . . . . . . . . . . . . . . .
 72
65
 73
2
 40
6.3499999999999996
 49
0.0
 74
0
 49
-6.3499999999999996
 74
0
  0
LTYPE
  5
32
100
AcDbSymbolTableRecord
100
AcDbLinetypeTableRecord
  2
DOT2
 70
0
  3
Dot (.5x) .....................................
 72
65
 73
2
 40
3.1749999999999998
 49
0.0
 74
0
 49
-3.1749999999999998
 74
0
  0
LTYPE
  5
33
100
AcDbSymbolTableRecord
100
AcDbLinetypeTableRecord
  2
DOTX2
 70
0
  3
Dot (2x) .  .  .  .  .  .  .  .  .  .  .  .  .
 72
65
 73
2
 40
12.699999999999999
 49
0.0
 74
0
 49
-12.699999999999999
 74
0
  0
LTYPE
  5
34
100
AcDbSymbolTableRecord
100
AcDbLinetypeTableRecord
  2
DASHED
 70
0
  3
Dashed __ __ __ __ __ __ __ __ __ __ __ __ __ _
 72
65
 73
2
 40
19.050000000000001
 49
12.699999999999999
 74
0
 49
-6.3499999999999996
 74
0
  0
LTYPE
  5
35
100
AcDbSymbolTableRecord
100
AcDbLinetypeTableRecord
  2
DASHED2
 70
0
  3
Dashed (.5x) _ _ _ _ _ _ _ _ _ _ _ _ _ _ _ _ _
 72
65
 73
2
 40
9.5250000000000004
 49
6.3499999999999996
 74
0
 49
-3.1749999999999998
 74
0
  0
LTYPE
  5
36
100
AcDbSymbolTableRecord
100
AcDbLinetypeTableRecord
  2
DASHEDX2
 70
0
  3
Dashed (2x) ____  ____  ____  ____  ____  ___
 72
65
 73
2
 40
38.100000000000001
 49
25.399999999999999
 74
0
 49
-12.699999999999999
 74
0
  0
LTYPE
  5
37
100
AcDbSymbolTableRecord
100
AcDbLinetypeTableRecord
  2
DASHDOT
 70
0
  3
Dash dot __ . __ . __ . __ . __ . __ . __ . __
 72
65
 73
4
 40
25.399999999999999
 49
12.699999999999999
 74
0
 49
-6.3499999999999996
 74
0
 49
0.0
 74
0
 49
-6.3499999999999996
 74
0
  0
LTYPE
  5
38
100
AcDbSymbolTableRecord
100
AcDbLinetypeTableRecord
  2
DASHDOT2
 70
0
  3
Dash dot (.5x) _._._._._._._._._._._._._._._.
 72
65
 73
4
 40
12.699999999999999
 49
6.3499999999999996
 74
0
 49
-3.1749999999999998
 74
0
 49
0.0
 74
0
 49
-3.1749999999999998
 74
0
  0
LTYPE
  5
39
100
AcDbSymbolTableRecord
100
AcDbLinetypeTableRecord
  2
DASHDOTX2
 70
0
  3
Dash dot (2x) ____  .  ____  .  ____  .  ___
 72
65
 73
4
 40
50.799999999999997
 49
25.399999999999999
 74
0
 49
-12.699999999999999
 74
0
 49
0.0
 74
0
 49
-12.699999999999999
 74
0
  0
LTYPE
  5
3A
100
AcDbSymbolTableRecord
100
AcDbLinetypeTableRecord
  2
DIVIDE
 70
0
  3
Divide ____ . . ____ . . ____ . . ____ . . ____
 72
65
 73
6
 40
31.75
 49
12.699999999999999
 74
0
 49
-6.3499999999999996
 74
0
 49
0.0
 74
0
 49
-6.3499999999999996
 74
0
 49
0.0
 74
0
 49
-6.3499999999999996
 74
0
  0
LTYPE
  5
3B
100
AcDbSymbolTableRecord
100
AcDbLinetypeTableRecord
  2
DIVIDE2
 70
0
  3
Divide (.5x) __..__..__..__..__..__..__..__.._
 72
65
 73
6
 40
15.875
 49
6.3499999999999996
 74
0
 49
-3.1749999999999998
 74
0
 49
0.0
 74
0
 49
-3.1749999999999998
 74
0
 49
0.0
 74
0
 49
-3.1749999999999998
 74
0
  0
LTYPE
  5
3C
100
AcDbSymbolTableRecord
100
AcDbLinetypeTableRecord
  2
DIVIDEX2
 70
0
  3
Divide (2x) ________  .  .  ________  .  .  _
 72
65
 73
6
 40
63.5
 49
25.399999999999999
 74
0
 49
-12.699999999999999
 74
0
 49
0.0
 74
0
 49
-12.699999999999999
 74
0
 49
0.0
 74
0
 49
-12.699999999999999
 74
0
  0
LTYPE
  5
3D
100
AcDbSymbolTableRecord
100
AcDbLinetypeTableRecord
  2
CENTER
 70
0
  3
Center ____ _ ____ _ ____ _ ____ _ ____ _ ____
 72
65
 73
4
 40
50.799999999999997
 49
31.75
 74
0
 49
-6.3499999999999996
 74
0
 49
6.3499999999999996
 74
0
 49
-6.3499999999999996
 74
0
  0
LTYPE
  5
3E
100
AcDbSymbolTableRecord
100
AcDbLinetypeTableRecord
  2
CENTER2
 70
0
  3
Center (.5x) ___ _ ___ _ ___ _ ___ _ ___ _ ___
 72
65
 73
4
 40
28.574999999999999
 49
19.050000000000001
 74
0
 49
-3.1749999999999998
 74
0
 49
3.1749999999999998
 74
0
 49
-3.1749999999999998
 74
0
  0
LTYPE
  5
3F
100
AcDbSymbolTableRecord
100
AcDbLinetypeTableRecord
  2
CENTERX2
 70
0
  3
Center (2x) ________  __  ________  __  _____
 72
65
 73
4
 40
101.59999999999999
 49
63.5
 74
0
 49
-12.699999999999999
 74
0
 49
12.699999999999999
 74
0
 49
-12.699999999999999
 74
0
  0
LTYPE
  5
40
100
AcDbSymbolTableRecord
100
AcDbLinetypeTableRecord
  2
BORDER
 70
0
  3
Border __ __ . __ __ . __ __ . __ __ . __ __ .
 72
65
 73
6
 40
44.450000000000003
 49
12.699999999999999
 74
0
 49
-6.3499999999999996
 74
0
 49
12.699999999999999
 74
0
 49
-6.3499999999999996
 74
0
 49
0.0
 74
0
 49
-6.3499999999999996
 74
0
  0
LTYPE
  5
41
100
AcDbSymbolTableRecord
100
AcDbLinetypeTableRecord
  2
BORDER2
 70
0
  3
Border (.5x) __.__.__.__.__.__.__.__.__.__.__.
 72
65
 73
6
 40
22.225000000000001
 49
6.3499999999999996
 74
0
 49
-3.1749999999999998
 74
0
 49
6.3499999999999996
 74
0
 49
-3.1749999999999998
 74
0
 49
0.0
 74
0
 49
-3.1749999999999998
 74
0
  0
LTYPE
  5
42
100
AcDbSymbolTableRecord
100
AcDbLinetypeTableRecord
  2
BORDERX2
 70
0
  3
Border (2x) ____  ____  .  ____  ____  .  ___
 72
65
 73
6
 40
88.900000000000006
 49
25.399999999999999
 74
0
 49
-12.699999999999999
 74
0
 49
25.399999999999999
 74
0
 49
-12.699999999999999
 74
0
 49
0.0
 74
0
 49
-12.699999999999999
 74
0
  0
ENDTAB
  0
TABLE
  2
LAYER
  5
2
100
AcDbSymbolTable
 70
1
  0
LAYER
  5
10
100
AcDbSymbolTableRecord
100
AcDbLayerTableRecord
  2
0
 70
0
 62
7
  6
CONTINUOUS
390
F
  0
ENDTAB
  0
TABLE
  2
STYLE
  5
3
100
AcDbSymbolTable
 70
1
  0
STYLE
  5
11
100
AcDbSymbolTableRecord
100
AcDbTextStyleTableRecord
  2
Standard
 70
0
 40
0.0
 41
0.75
 50
0.0
 71
0
 42
2.5
  3
txt
  4

  0
ENDTAB
  0
TABLE
  2
VIEW
  5
6
100
AcDbSymbolTable
 70
0
  0
ENDTAB
  0
TABLE
  2
UCS
  5
7
100
AcDbSymbolTable
 70
0
  0
ENDTAB
  0
TABLE
  2
APPID
  5
9
100
AcDbSymbolTable
 70
1
  0
APPID
  5
12
100
AcDbSymbolTableRecord
100
AcDbRegAppTableRecord
  2
ACAD
 70
0
  0
ENDTAB
  0
TABLE
  2
DIMSTYLE
  5
A
100
AcDbSymbolTable
 70
1
100
AcDbDimStyleTable
 71
0
  0
DIMSTYLE
105
27
100
AcDbSymbolTableRecord
100
AcDbDimStyleTableRecord
  2
Standard
 41
3.0
 42
1.0
 43
3.75
 44
1.0
 70
0
 73
0
 74
0
 77
1
 78
8
140
3.2000000000000002
141
2.5
143
0.03937007874016
147
1.0
171
3
172
1
271
2
272
2
274
3
278
44
283
0
284
8
340
11
  0
ENDTAB
  0
TABLE
  2
BLOCK_RECORD
  5
1
100
AcDbSymbolTable
 70
1
  0
BLOCK_RECORD
  5
1F
100
AcDbSymbolTableRecord
100
AcDbBlockTableRecord
  2
*Model_Space
340
22
  0
BLOCK_RECORD
  5
1B
100
AcDbSymbolTableRecord
100
AcDbBlockTableRecord
  2
*Paper_Space
340
1E
  0
BLOCK_RECORD
  5
23
100
AcDbSymbolTableRecord
100
AcDbBlockTableRecord
  2
*Paper_Space0
340
26
  0
ENDTAB
  0
ENDSEC
  0
SECTION
  2
BLOCKS
  0
BLOCK
  5
20
100
AcDbEntity
  8
0
100
AcDbBlockBegin
  2
*Model_Space
 70
0
 10
0.0
 20
0.0
 30
0.0
  3
*Model_Space
  1

  0
ENDBLK
  5
21
100
AcDbEntity
  8
0
100
AcDbBlockEnd
  0
BLOCK
  5
1C
100
AcDbEntity
 67
1
  8
0
100
AcDbBlockBegin
  2
*Paper_Space
 70
0
 10
0.0
 20
0.0
 30
0.0
  3
*Paper_Space
  1

  0
ENDBLK
  5
1D
100
AcDbEntity
 67
1
  8
0
100
AcDbBlockEnd
  0
BLOCK
  5
24
100
AcDbEntity
  8
0
100
AcDbBlockBegin
  2
*Paper_Space0
 70
0
 10
0.0
 20
0.0
 30
0.0
  3
*Paper_Space0
  1

  0
ENDBLK
  5
25
100
AcDbEntity
  8
0
100
AcDbBlockEnd
  0
ENDSEC
  0
SECTION
  2
ENTITIES
  0
LINE
  5
43
100
AcDbEntity
100
AcDbLine
  8
0
 62
7
370
-1
  6
CONTINUOUS
 10
-12.939361250000042
 20
-4.0
 30
0.0
 11
-10.519615492270718
 21
-4.0000000000001208
 31
0.0
  0
LINE
  5
44
100
AcDbEntity
100
AcDbLine
  8
0
 62
7
370
-1
  6
CONTINUOUS
 10
-19.999999750000022
 20
-3.2999999999999616
 30
0.0
 11
-19.999999750000022
 21
-8.9999999999998934
 31
0.0
  0
LINE
  5
45
100
AcDbEntity
100
AcDbLine
  8
0
 62
7
370
-1
  6
CONTINUOUS
 10
-13.000000249999959
 20
-9.7000000000000526
 30
0.0
 11
-13.000000249999959
 21
-7.9999999999998934
 31
0.0
  0
LINE
  5
46
100
AcDbEntity
100
AcDbLine
  8
0
 62
7
370
-1
  6
CONTINUOUS
 10
-18.999999750000022
 20
-9.9999999999998934
 30
0.0
 11
-13.30000024999997
 21
-10.0
 31
0.0
  0
ARC
  5
47
100
AcDbEntity
  8
0
 62
7
370
-1
  6
CONTINUOUS
100
AcDbCircle
 10
-13.300000249999963
 20
-9.7000000000000526
 30
0.0
 40
0.3
100
AcDbArc
 50
269.99999999999881
 51
0.0
  0
LINE
  5
48
100
AcDbEntity
100
AcDbLine
  8
0
 62
7
370
-1
  6
CONTINUOUS
 10
-6.7000002499999827
 20
-10.0
 30
0.0
 11
6.7000002499999685
 21
-10.000000000000448
 31
0.0
  0
ARC
  5
49
100
AcDbEntity
  8
0
 62
7
370
-1
  6
CONTINUOUS
100
AcDbCircle
 10
-6.7000002499999685
 20
-9.7000000000000526
 30
0.0
 40
0.3
100
AcDbArc
 50
180.0
 51
269.99999999999801
  0
ARC
  5
4A
100
AcDbEntity
  8
0
 62
7
370
-1
  6
CONTINUOUS
100
AcDbCircle
 10
6.7000002499999827
 20
-9.7000000000005002
 30
0.0
 40
0.3
100
AcDbArc
 50
269.99999999999841
 51
0.0
  0
LINE
  5
4B
100
AcDbEntity
100
AcDbLine
  8
0
 62
7
370
-1
  6
CONTINUOUS
 10
4.0000002500000367
 20
-8.0000000000003411
 30
0.0
 11
7.0000002500000225
 21
-8.0000000000003411
 31
0.0
  0
LINE
  5
4C
100
AcDbEntity
100
AcDbLine
  8
0
 62
7
370
-1
  6
CONTINUOUS
 10
7.060681000014478
 20
-4.0000000000002274
 30
0.0
 11
9.4803850077289358
 21
-4.0000000000003482
 31
0.0
  0
LINE
  5
4D
100
AcDbEntity
100
AcDbLine
  8
0
 62
7
370
-1
  6
CONTINUOUS
 10
-1.6999999999999797
 20
-8.0000000000002274
 30
0.0
 11
1.6999997500000124
 21
-8.0000000000002274
 31
0.0
  0
ARC
  5
4E
100
AcDbEntity
  8
0
 62
7
370
-1
  6
CONTINUOUS
100
AcDbCircle
 10
-1.6999999999999655
 20
-7.70000000000028
 30
0.0
 40
0.3
100
AcDbArc
 50
180.0
 51
269.99999999999841
  0
ARC
  5
4F
100
AcDbEntity
  8
0
 62
7
370
-1
  6
CONTINUOUS
100
AcDbCircle
 10
-18.999999750000022
 20
-8.9999999999998934
 30
0.0
 40
1.0
100
AcDbArc
 50
180.0
 51
270.0
  0
LINE
  5
50
100
AcDbEntity
100
AcDbLine
  8
0
 62
7
370
-1
  6
CONTINUOUS
 10
-16.00000024999985
 20
-8.0
 30
0.0
 11
-13.000000249999959
 21
-7.9999999999998934
 31
0.0
  0
LINE
  5
51
100
AcDbEntity
100
AcDbLine
  8
0
 62
7
370
-1
  6
CONTINUOUS
 10
-19.999999750000022
 20
8.9999999999998792
 30
0.0
 11
-19.999999750000022
 21
3.2999999999997272
 31
0.0
  0
LINE
  5
52
100
AcDbEntity
100
AcDbLine
  8
0
 62
7
370
-1
  6
CONTINUOUS
 10
-13.000000249999959
 20
9.7000000000000526
 30
0.0
 11
-13.000000249999959
 21
8.0
 31
0.0
  0
ARC
  5
53
100
AcDbEntity
  8
0
 62
7
370
-1
  6
CONTINUOUS
100
AcDbCircle
 10
-13.300000249999963
 20
9.7000000000000526
 30
0.0
 40
0.3
100
AcDbArc
 50
0.0
 51
90.0
  0
LINE
  5
54
100
AcDbEntity
100
AcDbLine
  8
0
 62
7
370
-1
  6
CONTINUOUS
 10
-16.000008749999942
 20
-7.0606653500000292
 30
0.0
 11
-12.939345750000024
 21
-4.0000038499999917
 31
0.0
  0
LINE
  5
55
100
AcDbEntity
100
AcDbLine
  8
0
 62
7
370
-1
  6
CONTINUOUS
 10
-17.999999750000022
 20
-6.0
 30
0.0
 11
-17.999999750000022
 21
-3.0
 31
0.0
  0
LINE
  5
56
100
AcDbEntity
100
AcDbLine
  8
0
 62
7
370
-1
  6
CONTINUOUS
 10
-13.999999750000024
 20
-2.9393364999986105
 30
0.0
 11
-13.999999750000024
 21
-0.5196152422706817
 31
0.0
  0
LINE
  5
57
100
AcDbEntity
100
AcDbLine
  8
0
 62
7
370
-1
  6
CONTINUOUS
 10
-5.9999997500000237
 20
-2.9393319500007991
 30
0.0
 11
-5.9999997500000237
 21
2.9393349999998009
 31
0.0
  0
LINE
  5
58
100
AcDbEntity
100
AcDbLine
  8
0
 62
7
370
-1
  6
CONTINUOUS
 10
-17.060662550001652
 20
-6.0
 30
0.0
 11
-13.999999750000024
 21
-2.9393364999986105
 31
0.0
  0
LINE
  5
59
100
AcDbEntity
100
AcDbLine
  8
0
 62
7
370
-1
  6
CONTINUOUS
 10
-17.999999750000022
 20
-6.0
 30
0.0
 11
-17.060662550001652
 21
-6.0
 31
0.0
  0
LINE
  5
5A
100
AcDbEntity
100
AcDbLine
  8
0
 62
7
370
-1
  6
CONTINUOUS
 10
-16.00000024999985
 20
-7.0606602000000294
 30
0.0
 11
-16.00000024999985
 21
-8.0
 31
0.0
  0
LINE
  5
5B
100
AcDbEntity
100
AcDbLine
  8
0
 62
7
370
-1
  6
CONTINUOUS
 10
-19.699999750000018
 20
-3.0
 30
0.0
 11
-17.999999750000022
 21
-3.0
 31
0.0
  0
ARC
  5
5C
100
AcDbEntity
  8
0
 62
7
370
-1
  6
CONTINUOUS
100
AcDbCircle
 10
-19.699999750000018
 20
-3.2999999999999616
 30
0.0
 40
0.3
100
AcDbArc
 50
90.0
 51
180.0
  0
LINE
  5
5D
100
AcDbEntity
100
AcDbLine
  8
0
 62
7
370
-1
  6
CONTINUOUS
 10
-16.00000024999985
 20
7.0606365000197684
 30
0.0
 11
-12.939357250000379
 21
3.9999999999999996
 31
0.0
  0
LINE
  5
5E
100
AcDbEntity
100
AcDbLine
  8
0
 62
7
370
-1
  6
CONTINUOUS
 10
-17.06068025000004
 20
5.9999979999996711
 30
0.0
 11
-13.999999750000024
 21
2.9393180000024586
 31
0.0
  0
LINE
  5
5F
100
AcDbEntity
100
AcDbLine
  8
0
 62
7
370
-1
  6
CONTINUOUS
 10
-17.999999750000022
 20
5.9999999999998792
 30
0.0
 11
-17.999999750000022
 21
2.9999999999998934
 31
0.0
  0
LINE
  5
60
100
AcDbEntity
100
AcDbLine
  8
0
 62
7
370
-1
  6
CONTINUOUS
 10
-13.999999750000024
 20
2.9393180000024586
 30
0.0
 11
-13.999999750000024
 21
0.5196152422705609
 31
0.0
  0
LINE
  5
61
100
AcDbEntity
100
AcDbLine
  8
0
 62
7
370
-1
  6
CONTINUOUS
 10
-19.699999750000018
 20
2.9999999999997726
 30
0.0
 11
-17.999999750000022
 21
2.9999999999998934
 31
0.0
  0
ARC
  5
62
100
AcDbEntity
  8
0
 62
7
370
-1
  6
CONTINUOUS
100
AcDbCircle
 10
-19.699999750000018
 20
3.2999999999997272
 30
0.0
 40
0.3
100
AcDbArc
 50
180.0
 51
270.0
  0
LINE
  5
63
100
AcDbEntity
100
AcDbLine
  8
0
 62
7
370
-1
  6
CONTINUOUS
 10
-17.999999750000022
 20
5.9999999999998792
 30
0.0
 11
-17.06066875000004
 21
5.9999999999998792
 31
0.0
  0
LINE
  5
64
100
AcDbEntity
100
AcDbLine
  8
0
 62
7
370
-1
  6
CONTINUOUS
 10
-16.00000024999985
 20
8.0
 30
0.0
 11
-13.000000249999959
 21
8.0
 31
0.0
  0
LINE
  5
65
100
AcDbEntity
100
AcDbLine
  8
0
 62
7
370
-1
  6
CONTINUOUS
 10
-12.939357250000379
 20
3.9999999999999996
 30
0.0
 11
-10.519615492270171
 21
4.0000000000001066
 31
0.0
  0
LINE
  5
66
100
AcDbEntity
100
AcDbLine
  8
0
 62
7
370
-1
  6
CONTINUOUS
 10
-16.00000024999985
 20
8.0
 30
0.0
 11
-16.00000024999985
 21
7.0606365000197684
 31
0.0
  0
LINE
  5
67
100
AcDbEntity
100
AcDbLine
  8
0
 62
7
370
-1
  6
CONTINUOUS
 10
-18.999999750000022
 20
10.0
 30
0.0
 11
-13.300000249999963
 21
10.0
 31
0.0
  0
LINE
  5
68
100
AcDbEntity
100
AcDbLine
  8
0
 62
7
370
-1
  6
CONTINUOUS
 10
-6.7000002499999685
 20
10.0
 30
0.0
 11
6.7000002499999685
 21
10.0
 31
0.0
  0
ARC
  5
69
100
AcDbEntity
  8
0
 62
7
370
-1
  6
CONTINUOUS
100
AcDbCircle
 10
-6.7000002499999685
 20
9.7000000000000526
 30
0.0
 40
0.3
100
AcDbArc
 50
90.0
 51
180.0
  0
LINE
  5
6A
100
AcDbEntity
100
AcDbLine
  8
0
 62
7
370
-1
  6
CONTINUOUS
 10
-1.6999999999999655
 20
8.0
 30
0.0
 11
1.6999997500000408
 21
8.0
 31
0.0
  0
ARC
  5
6B
100
AcDbEntity
  8
0
 62
7
370
-1
  6
CONTINUOUS
100
AcDbCircle
 10
-18.999999750000022
 20
8.9999999999998792
 30
0.0
 40
1.0
100
AcDbArc
 50
90.0
 51
180.0
  0
LINE
  5
6C
100
AcDbEntity
100
AcDbLine
  8
0
 62
7
370
-1
  6
CONTINUOUS
 10
20.000000250000021
 20
-3.2999999999999616
 30
0.0
 11
20.000000250000021
 21
-9.0
 31
0.0
  0
ARC
  5
6D
100
AcDbEntity
  8
0
 62
7
370
-1
  6
CONTINUOUS
100
AcDbCircle
 10
19.700000250000038
 20
-3.2999999999999616
 30
0.0
 40
0.3
100
AcDbArc
 50
0.0
 51
90.000000000003254
  0
LINE
  5
6E
100
AcDbEntity
100
AcDbLine
  8
0
 62
7
370
-1
  6
CONTINUOUS
 10
18.000000250000021
 20
-3.0000000000001208
 30
0.0
 11
18.000000250000021
 21
-6.0000000000001208
 31
0.0
  0
LINE
  5
6F
100
AcDbEntity
100
AcDbLine
  8
0
 62
7
370
-1
  6
CONTINUOUS
 10
14.000000250000022
 20
-0.5196386249566487
 30
0.0
 11
14.000000250000037
 21
-2.9393539999482599
 31
0.0
  0
LINE
  5
70
100
AcDbEntity
100
AcDbLine
  8
0
 62
7
370
-1
  6
CONTINUOUS
 10
6.0000002500000225
 20
2.9393390000000181
 30
0.0
 11
6.0000002500000367
 21
-2.9393355000005386
 31
0.0
  0
LINE
  5
71
100
AcDbEntity
100
AcDbLine
  8
0
 62
7
370
-1
  6
CONTINUOUS
 10
13.000000249999951
 20
-9.7000000000000526
 30
0.0
 11
13.000000249999951
 21
-8.0
 31
0.0
  0
LINE
  5
72
100
AcDbEntity
100
AcDbLine
  8
0
 62
7
370
-1
  6
CONTINUOUS
 10
7.0000002499999798
 20
-9.7000000000005002
 30
0.0
 11
7.0000002499999798
 21
-8.0
 31
0.0
  0
LINE
  5
73
100
AcDbEntity
100
AcDbLine
  8
0
 62
7
370
-1
  6
CONTINUOUS
 10
-7.0000002499999727
 20
-9.7000000000000526
 30
0.0
 11
-7.0000002499999727
 21
-7.9999999999998934
 31
0.0
  0
LINE
  5
74
100
AcDbEntity
100
AcDbLine
  8
0
 62
7
370
-1
  6
CONTINUOUS
 10
-7.0000002499999727
 20
-7.9999999999998934
 30
0.0
 11
-4.0000002539999766
 21
-8.0
 31
0.0
  0
LINE
  5
75
100
AcDbEntity
100
AcDbLine
  8
0
 62
7
370
-1
  6
CONTINUOUS
 10
19.000000249999935
 20
-10.0
 30
0.0
 11
13.300000249999949
 21
-10.0
 31
0.0
  0
ARC
  5
76
100
AcDbEntity
  8
0
 62
7
370
-1
  6
CONTINUOUS
100
AcDbCircle
 10
13.300000249999949
 20
-9.7000000000000526
 30
0.0
 40
0.3
100
AcDbArc
 50
180.0
 51
270.0
  0
LINE
  5
77
100
AcDbEntity
100
AcDbLine
  8
0
 62
7
370
-1
  6
CONTINUOUS
 10
16.000000249999935
 20
-8.0
 30
0.0
 11
13.000000249999951
 21
-8.0
 31
0.0
  0
LINE
  5
78
100
AcDbEntity
100
AcDbLine
  8
0
 62
7
370
-1
  6
CONTINUOUS
 10
12.939336999995755
 20
-4.0000000000001208
 30
0.0
 11
10.519615492270356
 21
-4.0000000000001208
 31
0.0
  0
ARC
  5
79
100
AcDbEntity
  8
0
 62
7
370
-1
  6
CONTINUOUS
100
AcDbCircle
 10
19.000000249999935
 20
-9.0
 30
0.0
 40
1.0
100
AcDbArc
 50
270.0
 51
0.0
  0
LINE
  5
7A
100
AcDbEntity
100
AcDbLine
  8
0
 62
7
370
-1
  6
CONTINUOUS
 10
20.000000250000021
 20
8.9999999999998792
 30
0.0
 11
20.000000250000021
 21
3.2999999999997272
 31
0.0
  0
LINE
  5
7B
100
AcDbEntity
100
AcDbLine
  8
0
 62
7
370
-1
  6
CONTINUOUS
 10
13.000000249999951
 20
9.7000000000000526
 30
0.0
 11
13.000000249999951
 21
8.0
 31
0.0
  0
ARC
  5
7C
100
AcDbEntity
  8
0
 62
7
370
-1
  6
CONTINUOUS
100
AcDbCircle
 10
13.300000249999949
 20
9.7000000000000526
 30
0.0
 40
0.3
100
AcDbArc
 50
90.0
 51
180.0
  0
LINE
  5
7D
100
AcDbEntity
100
AcDbLine
  8
0
 62
7
370
-1
  6
CONTINUOUS
 10
7.0000002499999656
 20
9.7000000000000526
 30
0.0
 11
7.0000002499999798
 21
8.0
 31
0.0
  0
ARC
  5
7E
100
AcDbEntity
  8
0
 62
7
370
-1
  6
CONTINUOUS
100
AcDbCircle
 10
6.7000002499999685
 20
9.7000000000000526
 30
0.0
 40
0.3
100
AcDbArc
 50
0.0
 51
90.0
  0
LINE
  5
7F
100
AcDbEntity
100
AcDbLine
  8
0
 62
7
370
-1
  6
CONTINUOUS
 10
-7.0000002499999727
 20
9.7000000000000526
 30
0.0
 11
-7.0000002499999727
 21
8.0
 31
0.0
  0
LINE
  5
80
100
AcDbEntity
100
AcDbLine
  8
0
 62
7
370
-1
  6
CONTINUOUS
 10
4.0000002500000225
 20
8.0
 30
0.0
 11
7.0000002499999798
 21
8.0
 31
0.0
  0
LINE
  5
81
100
AcDbEntity
100
AcDbLine
  8
0
 62
7
370
-1
  6
CONTINUOUS
 10
7.0606602499982447
 20
3.9999999999999996
 30
0.0
 11
9.4803850077297032
 21
4.0000000000001066
 31
0.0
  0
LINE
  5
82
100
AcDbEntity
100
AcDbLine
  8
0
 62
7
370
-1
  6
CONTINUOUS
 10
2.0878707499999454
 20
-6.8514658000000281
 30
0.0
 11
6.0000002500000367
 21
-2.9393355000005386
 31
0.0
  0
LINE
  5
83
100
AcDbEntity
100
AcDbLine
  8
0
 62
7
370
-1
  6
CONTINUOUS
 10
4.0000132500000323
 20
-7.0606649999999718
 30
0.0
 11
7.060681000014478
 21
-4.0000000000002274
 31
0.0
  0
LINE
  5
84
100
AcDbEntity
100
AcDbLine
  8
0
 62
7
370
-1
  6
CONTINUOUS
 10
4.0000027500000161
 20
7.0606564999998227
 30
0.0
 11
7.0606602499982447
 21
3.9999999999999996
 31
0.0
  0
LINE
  5
85
100
AcDbEntity
100
AcDbLine
  8
0
 62
7
370
-1
  6
CONTINUOUS
 10
2.0878707499999454
 20
6.8514689999999518
 30
0.0
 11
6.0000002500000225
 21
2.9393390000000181
 31
0.0
  0
CIRCLE
  5
86
100
AcDbEntity
100
AcDbCircle
  8
0
 62
7
370
-1
  6
CONTINUOUS
 10
-10.000000249999973
 20
0.0
 30
0.0
 40
2.099999899999998
  0
LINE
  5
87
100
AcDbEntity
100
AcDbLine
  8
0
 62
7
370
-1
  6
CONTINUOUS
 10
-2.0878641500000352
 20
-6.8514765500000294
 30
0.0
 11
-5.9999997500000237
 21
-2.9393319500007991
 31
0.0
  0
LINE
  5
88
100
AcDbEntity
100
AcDbLine
  8
0
 62
7
370
-1
  6
CONTINUOUS
 10
-4.0000176139998782
 20
-7.0606649999999718
 30
0.0
 11
-7.0606834000126941
 21
-4.0
 31
0.0
  0
LINE
  5
89
100
AcDbEntity
100
AcDbLine
  8
0
 62
7
370
-1
  6
CONTINUOUS
 10
-4.0000002539999766
 20
-7.0606563999999707
 30
0.0
 11
-4.0000002539999766
 21
-8.0
 31
0.0
  0
ARC
  5
8A
100
AcDbEntity
  8
0
 62
7
370
-1
  6
CONTINUOUS
100
AcDbCircle
 10
-2.2999877500001187
 20
-7.0636051500000576
 30
0.0
 40
0.30000001
100
AcDbArc
 50
0.0
 51
45.000001000004083
  0
LINE
  5
8B
100
AcDbEntity
100
AcDbLine
  8
0
 62
7
370
-1
  6
CONTINUOUS
 10
-1.9999999999999769
 20
-7.70000000000028
 30
0.0
 11
-1.9999999999999769
 21
-7.0636051500000576
 31
0.0
  0
ARC
  5
8C
100
AcDbEntity
  8
0
 62
7
370
-1
  6
CONTINUOUS
100
AcDbCircle
 10
2.2999877499998522
 20
-7.0635994500000834
 30
0.0
 40
0.30000001
100
AcDbArc
 50
134.99999999999969
 51
180.000010000001
  0
LINE
  5
8D
100
AcDbEntity
100
AcDbLine
  8
0
 62
7
370
-1
  6
CONTINUOUS
 10
1.9999997500000237
 20
-7.70000000000028
 30
0.0
 11
1.9999997500000237
 21
-7.0635994500000834
 31
0.0
  0
ARC
  5
8E
100
AcDbEntity
  8
0
 62
7
370
-1
  6
CONTINUOUS
100
AcDbCircle
 10
1.6999997500000266
 20
-7.70000000000028
 30
0.0
 40
0.3
100
AcDbArc
 50
269.9999999999992
 51
0.0
  0
LINE
  5
8F
100
AcDbEntity
100
AcDbLine
  8
0
 62
7
370
-1
  6
CONTINUOUS
 10
4.0000002500000225
 20
-7.0606563999999707
 30
0.0
 11
4.0000002500000367
 21
-8.0000000000003411
 31
0.0
  0
LINE
  5
90
100
AcDbEntity
100
AcDbLine
  8
0
 62
7
370
-1
  6
CONTINUOUS
 10
-2.0878635499999572
 20
6.8514794999999822
 30
0.0
 11
-5.9999997500000237
 21
2.9393349999998009
 31
0.0
  0
LINE
  5
91
100
AcDbEntity
100
AcDbLine
  8
0
 62
7
370
-1
  6
CONTINUOUS
 10
-4.0000002499998626
 20
7.0606625699886081
 30
0.0
 11
-7.0606685500061719
 21
3.9999999999999996
 31
0.0
  0
LINE
  5
92
100
AcDbEntity
100
AcDbLine
  8
0
 62
7
370
-1
  6
CONTINUOUS
 10
-4.0000002499998626
 20
8.0000000000001066
 30
0.0
 11
-7.0000002499999727
 21
8.0
 31
0.0
  0
LINE
  5
93
100
AcDbEntity
100
AcDbLine
  8
0
 62
7
370
-1
  6
CONTINUOUS
 10
-7.0606685500061719
 20
3.9999999999999996
 30
0.0
 11
-9.4803850077294189
 21
4.0000000000001066
 31
0.0
  0
LINE
  5
94
100
AcDbEntity
100
AcDbLine
  8
0
 62
7
370
-1
  6
CONTINUOUS
 10
-1.9999999999999627
 20
7.7000000000000384
 30
0.0
 11
-1.9999999999999769
 21
7.063604499999883
 31
0.0
  0
ARC
  5
95
100
AcDbEntity
  8
0
 62
7
370
-1
  6
CONTINUOUS
100
AcDbCircle
 10
-1.6999999999999655
 20
7.7000000000000384
 30
0.0
 40
0.3
100
AcDbArc
 50
90.0
 51
180.0
  0
ARC
  5
96
100
AcDbEntity
  8
0
 62
7
370
-1
  6
CONTINUOUS
100
AcDbCircle
 10
-2.2999854276776457
 20
7.06360453806019
 30
0.0
 40
0.2999976876774562
100
AcDbArc
 50
314.99981628234531
 51
359.99999273095818
  0
LINE
  5
97
100
AcDbEntity
100
AcDbLine
  8
0
 62
7
370
-1
  6
CONTINUOUS
 10
1.9999997500000237
 20
7.7000000000000384
 30
0.0
 11
1.9999997500000237
 21
7.063599499999782
 31
0.0
  0
ARC
  5
98
100
AcDbEntity
  8
0
 62
7
370
-1
  6
CONTINUOUS
100
AcDbCircle
 10
1.6999997500000408
 20
7.7000000000000384
 30
0.0
 40
0.3
100
AcDbArc
 50
0.0
 51
90.0
  0
ARC
  5
99
100
AcDbEntity
  8
0
 62
7
370
-1
  6
CONTINUOUS
100
AcDbCircle
 10
2.2999854276777487
 20
7.0635995380603234
 30
0.0
 40
0.2999976876778877
100
AcDbArc
 50
179.9999972689952
 51
225.00018371761789
  0
LINE
  5
9A
100
AcDbEntity
100
AcDbLine
  8
0
 62
7
370
-1
  6
CONTINUOUS
 10
4.0000002500000225
 20
8.0
 30
0.0
 11
4.0000002500000225
 21
7.0606594999999288
 31
0.0
  0
CIRCLE
  5
9B
100
AcDbEntity
100
AcDbCircle
  8
0
 62
7
370
-1
  6
CONTINUOUS
 10
10.000000250000037
 20
0.0
 30
0.0
 40
2.099999899999998
  0
LINE
  5
9C
100
AcDbEntity
100
AcDbLine
  8
0
 62
7
370
-1
  6
CONTINUOUS
 10
16.000004250000124
 20
-7.0606649999999718
 30
0.0
 11
12.939336999995755
 21
-4.0000000000001208
 31
0.0
  0
LINE
  5
9D
100
AcDbEntity
100
AcDbLine
  8
0
 62
7
370
-1
  6
CONTINUOUS
 10
17.060665749999821
 20
-6.000005750000021
 30
0.0
 11
14.000000250000037
 21
-2.9393539999482599
 31
0.0
  0
LINE
  5
9E
100
AcDbEntity
100
AcDbLine
  8
0
 62
7
370
-1
  6
CONTINUOUS
 10
16.000000249999935
 20
-7.0606602000000294
 30
0.0
 11
16.000000249999935
 21
-8.0
 31
0.0
  0
LINE
  5
9F
100
AcDbEntity
100
AcDbLine
  8
0
 62
7
370
-1
  6
CONTINUOUS
 10
18.000000250000021
 20
-6.0000000000001208
 30
0.0
 11
17.060669250000039
 21
-6.0
 31
0.0
  0
LINE
  5
A0
100
AcDbEntity
100
AcDbLine
  8
0
 62
7
370
-1
  6
CONTINUOUS
 10
19.700000250000009
 20
-3.0
 30
0.0
 11
18.000000250000021
 21
-3.0000000000001208
 31
0.0
  0
LINE
  5
A1
100
AcDbEntity
100
AcDbLine
  8
0
 62
7
370
-1
  6
CONTINUOUS
 10
16.000000249999935
 20
8.0
 30
0.0
 11
13.000000249999951
 21
8.0
 31
0.0
  0
LINE
  5
A2
100
AcDbEntity
100
AcDbLine
  8
0
 62
7
370
-1
  6
CONTINUOUS
 10
16.000004250000124
 20
7.0606459999998989
 30
0.0
 11
12.939356750001943
 21
3.9999999999997722
 31
0.0
  0
LINE
  5
A3
100
AcDbEntity
100
AcDbLine
  8
0
 62
7
370
-1
  6
CONTINUOUS
 10
17.060675249999939
 20
5.9999969999998868
 30
0.0
 11
14.000000249999951
 21
2.9393349999998009
 31
0.0
  0
LINE
  5
A4
100
AcDbEntity
100
AcDbLine
  8
0
 62
7
370
-1
  6
CONTINUOUS
 10
13.999986749999943
 20
2.9393394999998534
 30
0.0
 11
13.999986749999943
 21
0.5196152422705609
 31
0.0
  0
LINE
  5
A5
100
AcDbEntity
100
AcDbLine
  8
0
 62
7
370
-1
  6
CONTINUOUS
 10
18.000000249999935
 20
5.9999999999998792
 30
0.0
 11
18.000000249999935
 21
2.9999999999998934
 31
0.0
  0
LINE
  5
A6
100
AcDbEntity
100
AcDbLine
  8
0
 62
7
370
-1
  6
CONTINUOUS
 10
19.700000250000038
 20
2.9999999999997726
 30
0.0
 11
18.000000249999935
 21
2.9999999999998934
 31
0.0
  0
ARC
  5
A7
100
AcDbEntity
  8
0
 62
7
370
-1
  6
CONTINUOUS
100
AcDbCircle
 10
19.700000250000038
 20
3.2999999999997272
 30
0.0
 40
0.3
100
AcDbArc
 50
270.0
 51
0.0
  0
LINE
  5
A8
100
AcDbEntity
100
AcDbLine
  8
0
 62
7
370
-1
  6
CONTINUOUS
 10
18.000000249999935
 20
5.9999999999998792
 30
0.0
 11
17.060669250000039
 21
5.9999999999998792
 31
0.0
  0
LINE
  5
A9
100
AcDbEntity
100
AcDbLine
  8
0
 62
7
370
-1
  6
CONTINUOUS
 10
16.000000249999935
 20
8.0
 30
0.0
 11
16.000000249999935
 21
7.0606574999999268
 31
0.0
  0
LINE
  5
AA
100
AcDbEntity
100
AcDbLine
  8
0
 62
7
370
-1
  6
CONTINUOUS
 10
19.000000249999935
 20
10.0
 30
0.0
 11
13.300000249999949
 21
10.0
 31
0.0
  0
ARC
  5
AB
100
AcDbEntity
  8
0
 62
7
370
-1
  6
CONTINUOUS
100
AcDbCircle
 10
19.000000249999935
 20
8.9999999999998792
 30
0.0
 40
1.0
100
AcDbArc
 50
0.0
 51
90.0
  0
LINE
  5
AC
100
AcDbEntity
100
AcDbLine
  8
0
 62
7
370
-1
  6
CONTINUOUS
 10
10.519615492270086
 20
3.9999999999996585
 30
0.0
 11
12.939356750001943
 21
3.9999999999997722
 31
0.0
  0
LINE
  5
AD
100
AcDbEntity
100
AcDbLine
  8
0
 62
7
370
-1
  6
CONTINUOUS
 10
-9.4803850077302432
 20
-3.9999999999998934
 30
0.0
 11
-7.0606834000126941
 21
-4.0
 31
0.0
  0
LINE
  5
AE
100
AcDbEntity
100
AcDbLine
  8
0
 62
7
370
-1
  6
CONTINUOUS
 10
-13.699999750000019
 20
0.0
 30
0.0
 11
-13.999999750000024
 21
0.5196152422705609
 31
0.0
  0
LINE
  5
AF
100
AcDbEntity
100
AcDbLine
  8
0
 62
7
370
-1
  6
CONTINUOUS
 10
-13.699999750000019
 20
0.0
 30
0.0
 11
-13.999999750000024
 21
-0.5196152422706817
 31
0.0
  0
LINE
  5
B0
100
AcDbEntity
100
AcDbLine
  8
0
 62
7
370
-1
  6
CONTINUOUS
 10
-4.0000002499998626
 20
8.0000000000001066
 30
0.0
 11
-4.0000002499998626
 21
7.0606625699886081
 31
0.0
  0
LINE
  5
B1
100
AcDbEntity
100
AcDbLine
  8
0
 62
7
370
-1
  6
CONTINUOUS
 10
13.69998674999996
 20
0.0
 30
0.0
 11
13.999986749999943
 21
0.5196152422705609
 31
0.0
  0
LINE
  5
B2
100
AcDbEntity
100
AcDbLine
  8
0
 62
7
370
-1
  6
CONTINUOUS
 10
13.69998674999996
 20
0.0
 30
0.0
 11
14.000000250000022
 21
-0.5196386249566487
 31
0.0
  0
LINE
  5
B3
100
AcDbEntity
100
AcDbLine
  8
0
 62
7
370
-1
  6
CONTINUOUS
 10
10.000000249999966
 20
3.7000000000001592
 30
0.0
 11
9.4803850077297032
 21
4.0000000000001066
 31
0.0
  0
LINE
  5
B4
100
AcDbEntity
100
AcDbLine
  8
0
 62
7
370
-1
  6
CONTINUOUS
 10
10.000000249999966
 20
3.7000000000001592
 30
0.0
 11
10.519615492270086
 21
3.9999999999996585
 31
0.0
  0
LINE
  5
B5
100
AcDbEntity
100
AcDbLine
  8
0
 62
7
370
-1
  6
CONTINUOUS
 10
10.000000249999866
 20
-3.7000000000001734
 30
0.0
 11
10.519615492270356
 21
-4.0000000000001208
 31
0.0
  0
LINE
  5
B6
100
AcDbEntity
100
AcDbLine
  8
0
 62
7
370
-1
  6
CONTINUOUS
 10
10.000000249999866
 20
-3.7000000000001734
 30
0.0
 11
9.4803850077289358
 21
-4.0000000000003482
 31
0.0
  0
LINE
  5
B7
100
AcDbEntity
100
AcDbLine
  8
0
 62
7
370
-1
  6
CONTINUOUS
 10
-10.000000249999973
 20
3.7000000000002728
 30
0.0
 11
-10.519615492270171
 21
4.0000000000001066
 31
0.0
  0
LINE
  5
B8
100
AcDbEntity
100
AcDbLine
  8
0
 62
7
370
-1
  6
CONTINUOUS
 10
-10.000000249999973
 20
3.7000000000002728
 30
0.0
 11
-9.4803850077294189
 21
4.0000000000001066
 31
0.0
  0
LINE
  5
B9
100
AcDbEntity
100
AcDbLine
  8
0
 62
7
370
-1
  6
CONTINUOUS
 10
-10.000000249999973
 20
-3.7000000000000526
 30
0.0
 11
-9.4803850077302432
 21
-3.9999999999998934
 31
0.0
  0
LINE
  5
BA
100
AcDbEntity
100
AcDbLine
  8
0
 62
7
370
-1
  6
CONTINUOUS
 10
-10.000000249999973
 20
-3.7000000000000526
 30
0.0
 11
-10.519615492270718
 21
-4.0000000000001208
 31
0.0
  0
ENDSEC
  0
SECTION
  2
OBJECTS
  0
DICTIONARY
  5
C
100
AcDbDictionary
280
0
281
1
  3
ACAD_GROUP
350
D
  3
ACAD_LAYOUT
350
1A
  3
ACAD_MLINESTYLE
350
17
  3
ACAD_PLOTSETTINGS
350
19
  3
ACAD_PLOTSTYLENAME
350
E
  3
AcDbVariableDictionary
350
BB
  0
DICTIONARY
  5
D
100
AcDbDictionary
280
0
281
1
  0
ACDBDICTIONARYWDFLT
  5
E
100
AcDbDictionary
281
1
  3
Normal
350
F
100
AcDbDictionaryWithDefault
340
F
  0
ACDBPLACEHOLDER
  5
F
  0
DICTIONARY
  5
17
100
AcDbDictionary
280
0
281
1
  3
Standard
350
18
  0
MLINESTYLE
  5
18
100
AcDbMlineStyle
  2
STANDARD
 70
0
  3

 62
256
 51
90.0
 52
90.0
 71
2
 49
0.5
 62
256
  6
BYLAYER
 49
-0.5
 62
256
  6
BYLAYER
  0
DICTIONARY
  5
19
100
AcDbDictionary
280
0
281
1
  0
DICTIONARY
  5
1A
100
AcDbDictionary
281
1
  3
Layout1
350
1E
  3
Layout2
350
26
  3
Model
350
22
  0
LAYOUT
  5
1E
100
AcDbPlotSettings
  1

  2
C:\Program Files\AutoCAD 2002\plotters\DWF ePlot (optimized for plotting).pc3
  4

  6

 40
0.0
 41
0.0
 42
0.0
 43
0.0
 44
0.0
 45
0.0
 46
0.0
 47
0.0
 48
0.0
 49
0.0
140
0.0
141
0.0
142
1.0
143
1.0
 70
688
 72
0
 73
0
 74
5
  7

 75
16
147
1.0
148
0.0
149
0.0
100
AcDbLayout
  1
Layout1
 70
1
 71
1
 10
0.0
 20
0.0
 11
420.0
 21
297.0
 12
0.0
 22
0.0
 32
0.0
 14
100000000000000000000.0
 24
100000000000000000000.0
 34
100000000000000000000.0
 15
-100000000000000000000.0
 25
-100000000000000000000.0
 35
-100000000000000000000.0
146
0.0
 13
0.0
 23
0.0
 33
0.0
 16
1.0
 26
0.0
 36
0.0
 17
0.0
 27
1.0
 37
0.0
 76
0
330
1B
  0
LAYOUT
  5
22
100
AcDbPlotSettings
  1

  2
C:\Program Files\AutoCAD 2002\plotters\DWF ePlot (optimized for plotting).pc3
  4

  6

 40
0.0
 41
0.0
 42
0.0
 43
0.0
 44
0.0
 45
0.0
 46
0.0
 47
0.0
 48
0.0
 49
0.0
140
0.0
141
0.0
142
1.0
143
1.0
 70
1712
 72
0
 73
0
 74
0
  7

 75
0
147
1.0
148
0.0
149
0.0
100
AcDbLayout
  1
Model
 70
1
 71
0
 10
0.0
 20
0.0
 11
12.0
 21
9.0
 12
0.0
 22
0.0
 32
0.0
 14
0.0
 24
0.0
 34
0.0
 15
0.0
 25
0.0
 35
0.0
146
0.0
 13
0.0
 23
0.0
 33
0.0
 16
1.0
 26
0.0
 36
0.0
 17
0.0
 27
1.0
 37
0.0
 76
0
330
1F
  0
LAYOUT
  5
26
100
AcDbPlotSettings
  1

  2
C:\Program Files\AutoCAD 2002\plotters\DWF ePlot (optimized for plotting).pc3
  4

  6

 40
0.0
 41
0.0
 42
0.0
 43
0.0
 44
0.0
 45
0.0
 46
0.0
 47
0.0
 48
0.0
 49
0.0
140
0.0
141
0.0
142
1.0
143
1.0
 70
688
 72
0
 73
0
 74
5
  7

 75
16
147
1.0
148
0.0
149
0.0
100
AcDbLayout
  1
Layout2
 70
1
 71
2
 10
0.0
 20
0.0
 11
12.0
 21
9.0
 12
0.0
 22
0.0
 32
0.0
 14
0.0
 24
0.0
 34
0.0
 15
0.0
 25
0.0
 35
0.0
146
0.0
 13
0.0
 23
0.0
 33
0.0
 16
1.0
 26
0.0
 36
0.0
 17
0.0
 27
1.0
 37
0.0
 76
0
330
23
  0
DICTIONARY
  5
BB
100
AcDbDictionary
281
1
  3
DIMASSOC
350
BD
  3
HIDETEXT
350
BC
  0
DICTIONARYVAR
  5
BC
100
DictionaryVariables
280
0
  1
2
  0
DICTIONARYVAR
  5
BD
100
DictionaryVariables
280
0
  1
1
  0
ENDSEC
  0
EOF
