  0
SECTION
  2
HEADER
  9
$ACADVER
  1
AC1015
  0
ENDSEC
  0
SECTION
  2
BLOCKS
  0
ENDSEC
  0
SECTION
  2
ENTITIES
  0
LWPOLYLINE
  8
0
  90
78
  70
1
 10
-12.500000
 20
-2.000000
 10
-12.500000
 20
0.000000
 10
-12.000000
 20
0.000000
 10
-12.000000
 20
0.010000
 10
-11.453000
 20
0.030000
 10
-10.735000
 20
0.163000
 10
-10.044000
 20
0.398000
 10
-9.395000
 20
0.732000
 10
-8.802000
 20
1.157000
 10
-8.276000
 20
1.663000
 10
-7.830000
 20
2.241000
 10
-7.473000
 20
2.878000
 10
-7.212000
 20
3.560000
 10
-7.053000
 20
4.272000
 10
-7.000000
 20
5.000000
 10
-7.000000
 20
21.876000
 10
-7.053000
 20
22.604000
 10
-7.212000
 20
23.316000
 10
-7.473000
 20
23.998000
 10
-7.744000
 20
24.482000
 10
-8.249000
 20
25.237000
 10
-8.800000
 20
26.355000
 10
-9.200000
 20
27.535000
 10
-9.444000
 20
28.757000
 10
-9.525000
 20
30.000000
 10
-9.444000
 20
31.243000
 10
-9.200000
 20
32.465000
 10
-8.800000
 20
33.645000
 10
-8.249000
 20
34.763000
 10
-7.557000
 20
35.798000
 10
-6.735000
 20
36.735000
 10
-5.798000
 20
37.557000
 10
-4.763000
 20
38.249000
 10
-3.645000
 20
38.800000
 10
-2.465000
 20
39.200000
 10
-1.243000
 20
39.444000
 10
0.000000
 20
39.525000
 10
1.243000
 20
39.444000
 10
2.465000
 20
39.200000
 10
3.645000
 20
38.800000
 10
4.763000
 20
38.249000
 10
5.798000
 20
37.557000
 10
6.735000
 20
36.735000
 10
7.557000
 20
35.798000
 10
8.249000
 20
34.763000
 10
8.800000
 20
33.645000
 10
9.200000
 20
32.465000
 10
9.444000
 20
31.243000
 10
9.525000
 20
30.000000
 10
9.444000
 20
28.757000
 10
9.200000
 20
27.535000
 10
8.800000
 20
26.355000
 10
8.249000
 20
25.237000
 10
7.843000
 20
24.629000
 10
7.640000
 20
24.323000
 10
7.330000
 20
23.662000
 10
7.120000
 20
22.963000
 10
7.013000
 20
22.241000
 10
7.013000
 20
21.876000
 10
7.000000
 20
21.876000
 10
7.000000
 20
5.000000
 10
7.013000
 20
5.000000
 10
7.013000
 20
4.635000
 10
7.120000
 20
3.913000
 10
7.330000
 20
3.214000
 10
7.640000
 20
2.553000
 10
8.043000
 20
1.944000
 10
8.530000
 20
1.400000
 10
9.091000
 20
0.934000
 10
9.714000
 20
0.553000
 10
10.386000
 20
0.268000
 10
11.092000
 20
0.083000
 10
11.817000
 20
0.003000
 10
12.000000
 20
0.010000
 10
12.000000
 20
0.000000
 10
12.500000
 20
0.000000
 10
12.500000
 20
-2.000000
 10
-12.500000
 20
-2.000000
  0
LWPOLYLINE
  8
0
  90
78
  70
1
 10
17.500000
 20
-2.000000
 10
17.500000
 20
0.000000
 10
18.000000
 20
0.000000
 10
18.000000
 20
0.010000
 10
18.547000
 20
0.030000
 10
19.265000
 20
0.163000
 10
19.956000
 20
0.398000
 10
20.605000
 20
0.732000
 10
21.198000
 20
1.157000
 10
21.724000
 20
1.663000
 10
22.170000
 20
2.241000
 10
22.527000
 20
2.878000
 10
22.788000
 20
3.560000
 10
22.947000
 20
4.272000
 10
23.000000
 20
5.000000
 10
23.000000
 20
21.876000
 10
22.947000
 20
22.604000
 10
22.788000
 20
23.316000
 10
22.527000
 20
23.998000
 10
22.256000
 20
24.482000
 10
21.751000
 20
25.237000
 10
21.200000
 20
26.355000
 10
20.800000
 20
27.535000
 10
20.556000
 20
28.757000
 10
20.475000
 20
30.000000
 10
20.556000
 20
31.243000
 10
20.800000
 20
32.465000
 10
21.200000
 20
33.645000
 10
21.751000
 20
34.763000
 10
22.443000
 20
35.798000
 10
23.265000
 20
36.735000
 10
24.202000
 20
37.557000
 10
25.237000
 20
38.249000
 10
26.355000
 20
38.800000
 10
27.535000
 20
39.200000
 10
28.757000
 20
39.444000
 10
30.000000
 20
39.525000
 10
31.243000
 20
39.444000
 10
32.465000
 20
39.200000
 10
33.645000
 20
38.800000
 10
34.763000
 20
38.249000
 10
35.798000
 20
37.557000
 10
36.735000
 20
36.735000
 10
37.557000
 20
35.798000
 10
38.249000
 20
34.763000
 10
38.800000
 20
33.645000
 10
39.200000
 20
32.465000
 10
39.444000
 20
31.243000
 10
39.525000
 20
30.000000
 10
39.444000
 20
28.757000
 10
39.200000
 20
27.535000
 10
38.800000
 20
26.355000
 10
38.249000
 20
25.237000
 10
37.843000
 20
24.629000
 10
37.640000
 20
24.323000
 10
37.330000
 20
23.662000
 10
37.120000
 20
22.963000
 10
37.013000
 20
22.241000
 10
37.013000
 20
21.876000
 10
37.000000
 20
21.876000
 10
37.000000
 20
5.000000
 10
37.013000
 20
5.000000
 10
37.013000
 20
4.635000
 10
37.120000
 20
3.913000
 10
37.330000
 20
3.214000
 10
37.640000
 20
2.553000
 10
38.043000
 20
1.944000
 10
38.530000
 20
1.400000
 10
39.091000
 20
0.934000
 10
39.714000
 20
0.553000
 10
40.386000
 20
0.268000
 10
41.092000
 20
0.083000
 10
41.817000
 20
0.003000
 10
42.000000
 20
0.010000
 10
42.000000
 20
0.000000
 10
42.500000
 20
0.000000
 10
42.500000
 20
-2.000000
 10
17.500000
 20
-2.000000
  0
LWPOLYLINE
  8
0
  90
78
  70
1
 10
47.500000
 20
-2.000000
 10
47.500000
 20
0.000000
 10
48.000000
 20
0.000000
 10
48.000000
 20
0.010000
 10
48.547000
 20
0.030000
 10
49.265000
 20
0.163000
 10
49.956000
 20
0.398000
 10
50.605000
 20
0.732000
 10
51.198000
 20
1.157000
 10
51.724000
 20
1.663000
 10
52.170000
 20
2.241000
 10
52.527000
 20
2.878000
 10
52.788000
 20
3.560000
 10
52.947000
 20
4.272000
 10
53.000000
 20
5.000000
 10
53.000000
 20
21.876000
 10
52.947000
 20
22.604000
 10
52.788000
 20
23.316000
 10
52.527000
 20
23.998000
 10
52.256000
 20
24.482000
 10
51.751000
 20
25.237000
 10
51.200000
 20
26.355000
 10
50.800000
 20
27.535000
 10
50.556000
 20
28.757000
 10
50.475000
 20
30.000000
 10
50.556000
 20
31.243000
 10
50.800000
 20
32.465000
 10
51.200000
 20
33.645000
 10
51.751000
 20
34.763000
 10
52.443000
 20
35.798000
 10
53.265000
 20
36.735000
 10
54.202000
 20
37.557000
 10
55.237000
 20
38.249000
 10
56.355000
 20
38.800000
 10
57.535000
 20
39.200000
 10
58.757000
 20
39.444000
 10
60.000000
 20
39.525000
 10
61.243000
 20
39.444000
 10
62.465000
 20
39.200000
 10
63.645000
 20
38.800000
 10
64.763000
 20
38.249000
 10
65.798000
 20
37.557000
 10
66.735000
 20
36.735000
 10
67.557000
 20
35.798000
 10
68.249000
 20
34.763000
 10
68.800000
 20
33.645000
 10
69.200000
 20
32.465000
 10
69.444000
 20
31.243000
 10
69.525000
 20
30.000000
 10
69.444000
 20
28.757000
 10
69.200000
 20
27.535000
 10
68.800000
 20
26.355000
 10
68.249000
 20
25.237000
 10
67.843000
 20
24.629000
 10
67.640000
 20
24.323000
 10
67.330000
 20
23.662000
 10
67.120000
 20
22.963000
 10
67.013000
 20
22.241000
 10
67.013000
 20
21.876000
 10
67.000000
 20
21.876000
 10
67.000000
 20
5.000000
 10
67.013000
 20
5.000000
 10
67.013000
 20
4.635000
 10
67.120000
 20
3.913000
 10
67.330000
 20
3.214000
 10
67.640000
 20
2.553000
 10
68.043000
 20
1.944000
 10
68.530000
 20
1.400000
 10
69.091000
 20
0.934000
 10
69.714000
 20
0.553000
 10
70.386000
 20
0.268000
 10
71.092000
 20
0.083000
 10
71.817000
 20
0.003000
 10
72.000000
 20
0.010000
 10
72.000000
 20
0.000000
 10
72.500000
 20
0.000000
 10
72.500000
 20
-2.000000
 10
47.500000
 20
-2.000000
  0
ENDSEC
  0
SECTION
  2
OBJECTS
  0
DICTIONARY
  0
ENDSEC
  0
EOF
