  0
SECTION
  2
HEADER
  9
$ACADVER
  1
AC1024
  9
$ACADMAINTVER
 70
     6
  9
$DWGCODEPAGE
  3
UNDEFINED
  9
$INSBASE
 10
0.0
 20
0.0
 30
0.0
  9
$EXTMIN
 10
1.000000000000000E+20
 20
1.000000000000000E+20
 30
1.000000000000000E+20
  9
$EXTMAX
 10
-1.000000000000000E+20
 20
-1.000000000000000E+20
 30
-1.000000000000000E+20
  9
$LIMMIN
 10
0.0
 20
0.0
  9
$LIMMAX
 10
12.0
 20
9.0
  9
$ORTHOMODE
 70
     0
  9
$REGENMODE
 70
     1
  9
$FILLMODE
 70
     1
  9
$QTEXTMODE
 70
     0
  9
$MIRRTEXT
 70
     1
  9
$LTSCALE
 40
1.0
  9
$ATTMODE
 70
     1
  9
$TEXTSIZE
 40
0.2
  9
$TRACEWID
 40
0.05
  9
$TEXTSTYLE
  7
Standard
  9
$CLAYER
  8
0
  9
$CELTYPE
  6
ByLayer
  9
$CECOLOR
 62
   256
  9
$CELTSCALE
 40
1.0
  9
$DISPSILH
 70
     0
  9
$DIMSCALE
 40
1.0
  9
$DIMASZ
 40
0.18
  9
$DIMEXO
 40
0.0625
  9
$DIMDLI
 40
0.38
  9
$DIMRND
 40
0.0
  9
$DIMDLE
 40
0.0
  9
$DIMEXE
 40
0.18
  9
$DIMTP
 40
0.0
  9
$DIMTM
 40
0.0
  9
$DIMTXT
 40
0.18
  9
$DIMCEN
 40
0.09
  9
$DIMTSZ
 40
0.0
  9
$DIMTOL
 70
     0
  9
$DIMLIM
 70
     0
  9
$DIMTIH
 70
     1
  9
$DIMTOH
 70
     1
  9
$DIMSE1
 70
     0
  9
$DIMSE2
 70
     0
  9
$DIMTAD
 70
     0
  9
$DIMZIN
 70
     0
  9
$DIMBLK
  1

  9
$DIMASO
 70
     1
  9
$DIMSHO
 70
     1
  9
$DIMPOST
  1

  9
$DIMAPOST
  1

  9
$DIMALT
 70
     0
  9
$DIMALTD
 70
     2
  9
$DIMALTF
 40
25.4
  9
$DIMLFAC
 40
1.0
  9
$DIMTOFL
 70
     0
  9
$DIMTVP
 40
0.0
  9
$DIMTIX
 70
     0
  9
$DIMSOXD
 70
     0
  9
$DIMSAH
 70
     0
  9
$DIMBLK1
  1

  9
$DIMBLK2
  1

  9
$DIMSTYLE
  2
Standard
  9
$DIMCLRD
 70
     0
  9
$DIMCLRE
 70
     0
  9
$DIMCLRT
 70
     0
  9
$DIMTFAC
 40
1.0
  9
$DIMGAP
 40
0.09
  9
$DIMJUST
 70
     0
  9
$DIMSD1
 70
     0
  9
$DIMSD2
 70
     0
  9
$DIMTOLJ
 70
     1
  9
$DIMTZIN
 70
     0
  9
$DIMALTZ
 70
     0
  9
$DIMALTTZ
 70
     0
  9
$DIMUPT
 70
     0
  9
$DIMDEC
 70
     4
  9
$DIMTDEC
 70
     4
  9
$DIMALTU
 70
     2
  9
$DIMALTTD
 70
     2
  9
$DIMTXSTY
  7
Standard
  9
$DIMAUNIT
 70
     0
  9
$DIMADEC
 70
     0
  9
$DIMALTRND
 40
0.0
  9
$DIMAZIN
 70
     0
  9
$DIMDSEP
 70
    46
  9
$DIMATFIT
 70
     3
  9
$DIMFRAC
 70
     0
  9
$DIMLDRBLK
  1

  9
$DIMLUNIT
 70
     2
  9
$DIMLWD
 70
    -2
  9
$DIMLWE
 70
    -2
  9
$DIMTMOVE
 70
     0
  9
$DIMFXL
 40
1.0
  9
$DIMFXLON
 70
     0
  9
$DIMJOGANG
 40
0.7853981633974483
  9
$DIMTFILL
 70
     0
  9
$DIMTFILLCLR
 70
     0
  9
$DIMARCSYM
 70
     0
  9
$DIMLTYPE
  6

  9
$DIMLTEX1
  6

  9
$DIMLTEX2
  6

  9
$DIMTXTDIRECTION
 70
     0
  9
$LUNITS
 70
     2
  9
$LUPREC
 70
     4
  9
$SKETCHINC
 40
0.1
  9
$FILLETRAD
 40
0.5
  9
$AUNITS
 70
     0
  9
$AUPREC
 70
     0
  9
$MENU
  1
.
  9
$ELEVATION
 40
0.0
  9
$PELEVATION
 40
0.0
  9
$THICKNESS
 40
0.0
  9
$LIMCHECK
 70
     0
  9
$CHAMFERA
 40
0.5
  9
$CHAMFERB
 40
0.5
  9
$CHAMFERC
 40
1.0
  9
$CHAMFERD
 40
0.0
  9
$SKPOLY
 70
     0
  9
$TDCREATE
 40
2458240.506666655
  9
$TDUCREATE
 40
2458240.465
  9
$TDUPDATE
 40
2458240.506666655
  9
$TDUUPDATE
 40
2458240.465
  9
$TDINDWG
 40
0.0000000116
  9
$TDUSRTIMER
 40
0.0000000116
  9
$USRTIMER
 70
     1
  9
$ANGBASE
 50
0.0
  9
$ANGDIR
 70
     0
  9
$PDMODE
 70
     0
  9
$PDSIZE
 40
0.0
  9
$PLINEWID
 40
0.0
  9
$SPLFRAME
 70
     0
  9
$SPLINETYPE
 70
     6
  9
$SPLINESEGS
 70
     8
  9
$HANDSEED
  5
79
  9
$SURFTAB1
 70
     6
  9
$SURFTAB2
 70
     6
  9
$SURFTYPE
 70
     6
  9
$SURFU
 70
     6
  9
$SURFV
 70
     6
  9
$UCSBASE
  2

  9
$UCSNAME
  2

  9
$UCSORG
 10
0.0
 20
0.0
 30
0.0
  9
$UCSXDIR
 10
1.0
 20
0.0
 30
0.0
  9
$UCSYDIR
 10
0.0
 20
1.0
 30
0.0
  9
$UCSORTHOREF
  2

  9
$UCSORTHOVIEW
 70
     0
  9
$UCSORGTOP
 10
0.0
 20
0.0
 30
0.0
  9
$UCSORGBOTTOM
 10
0.0
 20
0.0
 30
0.0
  9
$UCSORGLEFT
 10
0.0
 20
0.0
 30
0.0
  9
$UCSORGRIGHT
 10
0.0
 20
0.0
 30
0.0
  9
$UCSORGFRONT
 10
0.0
 20
0.0
 30
0.0
  9
$UCSORGBACK
 10
0.0
 20
0.0
 30
0.0
  9
$PUCSBASE
  2

  9
$PUCSNAME
  2

  9
$PUCSORG
 10
0.0
 20
0.0
 30
0.0
  9
$PUCSXDIR
 10
1.0
 20
0.0
 30
0.0
  9
$PUCSYDIR
 10
0.0
 20
1.0
 30
0.0
  9
$PUCSORTHOREF
  2

  9
$PUCSORTHOVIEW
 70
     0
  9
$PUCSORGTOP
 10
0.0
 20
0.0
 30
0.0
  9
$PUCSORGBOTTOM
 10
0.0
 20
0.0
 30
0.0
  9
$PUCSORGLEFT
 10
0.0
 20
0.0
 30
0.0
  9
$PUCSORGRIGHT
 10
0.0
 20
0.0
 30
0.0
  9
$PUCSORGFRONT
 10
0.0
 20
0.0
 30
0.0
  9
$PUCSORGBACK
 10
0.0
 20
0.0
 30
0.0
  9
$USERI1
 70
     0
  9
$USERI2
 70
     0
  9
$USERI3
 70
     0
  9
$USERI4
 70
     0
  9
$USERI5
 70
     0
  9
$USERR1
 40
0.0
  9
$USERR2
 40
0.0
  9
$USERR3
 40
0.0
  9
$USERR4
 40
0.0
  9
$USERR5
 40
0.0
  9
$WORLDVIEW
 70
     1
  9
$SHADEDGE
 70
     3
  9
$SHADEDIF
 70
    70
  9
$TILEMODE
 70
     1
  9
$MAXACTVP
 70
    64
  9
$PINSBASE
 10
0.0
 20
0.0
 30
0.0
  9
$PLIMCHECK
 70
     0
  9
$PEXTMIN
 10
1.000000000000000E+20
 20
1.000000000000000E+20
 30
1.000000000000000E+20
  9
$PEXTMAX
 10
-1.000000000000000E+20
 20
-1.000000000000000E+20
 30
-1.000000000000000E+20
  9
$PLIMMIN
 10
0.0
 20
0.0
  9
$PLIMMAX
 10
12.0
 20
9.0
  9
$UNITMODE
 70
     0
  9
$VISRETAIN
 70
     1
  9
$PLINEGEN
 70
     0
  9
$PSLTSCALE
 70
     1
  9
$TREEDEPTH
 70
  3020
  9
$CMLSTYLE
  2
Standard
  9
$CMLJUST
 70
     0
  9
$CMLSCALE
 40
1.0
  9
$PROXYGRAPHICS
 70
     1
  9
$MEASUREMENT
 70
     0
  9
$CELWEIGHT
370
    -1
  9
$ENDCAPS
280
     0
  9
$JOINSTYLE
280
     0
  9
$LWDISPLAY
290
     1
  9
$INSUNITS
 70
     1
  9
$HYPERLINKBASE
  1

  9
$STYLESHEET
  1

  9
$XEDIT
290
     1
  9
$CEPSNTYPE
380
     0
  9
$PSTYLEMODE
290
     1
  9
$FINGERPRINTGUID
  2
{0D4D9F62-792D-7D0E-F413-F0EAEB7A100D}
  9
$VERSIONGUID
  2
{FAEB1C32-E019-11D5-929B-00C0DF256EC4}
  9
$EXTNAMES
290
     1
  9
$PSVPSCALE
 40
0.0
  9
$OLESTARTUP
290
     0
  9
$SORTENTS
280
   127
  9
$INDEXCTL
280
     0
  9
$HIDETEXT
280
     1
  9
$XCLIPFRAME
280
     2
  9
$HALOGAP
280
     0
  9
$OBSCOLOR
 70
   257
  9
$OBSLTYPE
280
     0
  9
$INTERSECTIONDISPLAY
280
     0
  9
$INTERSECTIONCOLOR
 70
   257
  9
$DIMASSOC
280
     2
  9
$PROJECTNAME
  1

  9
$CAMERADISPLAY
290
     0
  9
$LENSLENGTH
 40
50.0
  9
$CAMERAHEIGHT
 40
0.0
  9
$STEPSPERSEC
 40
2.0
  9
$STEPSIZE
 40
6.0
  9
$3DDWFPREC
 40
2.0
  9
$PSOLWIDTH
 40
0.25
  9
$PSOLHEIGHT
 40
4.0
  9
$LOFTANG1
 40
1.570796326794897
  9
$LOFTANG2
 40
1.570796326794897
  9
$LOFTMAG1
 40
0.0
  9
$LOFTMAG2
 40
0.0
  9
$LOFTPARAM
 70
     7
  9
$LOFTNORMALS
280
     1
  9
$LATITUDE
 40
37.795
  9
$LONGITUDE
 40
-122.394
  9
$NORTHDIRECTION
 40
0.0
  9
$TIMEZONE
 70
 -8000
  9
$LIGHTGLYPHDISPLAY
280
     1
  9
$TILEMODELIGHTSYNCH
280
     1
  9
$CMATERIAL
347
3C
  9
$SOLIDHIST
280
     1
  9
$SHOWHIST
280
     1
  9
$DWFFRAME
280
     2
  9
$DGNFRAME
280
     2
  9
$REALWORLDSCALE
290
     1
  9
$INTERFERECOLOR
 62
   256
  9
$CSHADOW
280
     0
  9
$SHADOWPLANELOCATION
 40
0.0
  0
ENDSEC
  0
SECTION
  2
CLASSES
  0
CLASS
  1
ACDBDICTIONARYWDFLT
  2
AcDbDictionaryWithDefault
  3
ObjectDBX Classes
 90
        0
 91
        4
280
     0
281
     0
  0
CLASS
  1
VISUALSTYLE
  2
AcDbVisualStyle
  3
ObjectDBX Classes
 90
     4095
 91
        4
280
     0
281
     0
  0
CLASS
  1
MATERIAL
  2
AcDbMaterial
  3
ObjectDBX Classes
 90
     1153
 91
        4
280
     0
281
     0
  0
CLASS
  1
SUN
  2
AcDbSun
  3
SCENEOE
 90
     1024
 91
        4
280
     0
281
     0
  0
ENDSEC
  0
SECTION
  2
TABLES
  0
TABLE
  2
VPORT
  5
8
330
0
100
AcDbSymbolTable
 70
     1
  0
VPORT
  5
29
330
8
100
AcDbSymbolTableRecord
100
AcDbViewportTableRecord
  2
*Active
 70
     0
 10
0.0
 20
0.0
 11
1.0
 21
1.0
 12
0.0
 22
0.0
 13
0.0
 23
0.0
 14
0.5
 24
0.5
 15
0.5
 25
0.5
 16
0.0
 26
0.0
 36
1.0
 17
104.9999999737534
 27
148.4999999628701
 37
0.0
 40
296.9999999257402
 41
0.7070707070707533
 42
50.0
 43
0.0
 44
0.0
 50
0.0
 51
0.0
 71
     0
 72
   100
 73
     1
 74
     3
 75
     0
 76
     0
 77
     0
 78
     0
281
     0
 65
     1
110
0.0
120
0.0
130
0.0
111
1.0
121
0.0
131
0.0
112
0.0
122
1.0
132
0.0
 79
     0
146
0.0
 60
     3
 61
     5
292
     1
282
     1
141
0.0
142
0.0
 63
   250
361
3F
  0
ENDTAB
  0
TABLE
  2
LTYPE
  5
5
330
0
100
AcDbSymbolTable
 70
     1
  0
LTYPE
  5
14
330
5
100
AcDbSymbolTableRecord
100
AcDbLinetypeTableRecord
  2
ByBlock
 70
     0
  3

 72
    65
 73
     0
 40
0.0
  0
LTYPE
  5
15
330
5
100
AcDbSymbolTableRecord
100
AcDbLinetypeTableRecord
  2
ByLayer
 70
     0
  3

 72
    65
 73
     0
 40
0.0
  0
LTYPE
  5
16
330
5
100
AcDbSymbolTableRecord
100
AcDbLinetypeTableRecord
  2
Continuous
 70
     0
  3
Solid line
 72
    65
 73
     0
 40
0.0
  0
ENDTAB
  0
TABLE
  2
LAYER
  5
2
330
0
100
AcDbSymbolTable
 70
     2
  0
LAYER
  5
10
330
2
100
AcDbSymbolTableRecord
100
AcDbLayerTableRecord
  2
0
 70
     0
 62
     7
  6
Continuous
370
    -3
390
F
347
3E
  0
LAYER
  5
40
330
2
100
AcDbSymbolTableRecord
100
AcDbLayerTableRecord
  2
Layer 1
 70
     0
 62
     7
  6
Continuous
370
    -3
390
F
347
3E
  0
ENDTAB
  0
TABLE
  2
STYLE
  5
3
330
0
100
AcDbSymbolTable
 70
     1
  0
STYLE
  5
11
330
3
100
AcDbSymbolTableRecord
100
AcDbTextStyleTableRecord
  2
Standard
 70
     0
 40
0.0
 41
1.0
 50
0.0
 71
     0
 42
0.2
  3
txt
  4

  0
ENDTAB
  0
TABLE
  2
VIEW
  5
6
330
0
100
AcDbSymbolTable
 70
     0
  0
ENDTAB
  0
TABLE
  2
UCS
  5
7
330
0
100
AcDbSymbolTable
 70
     0
  0
ENDTAB
  0
TABLE
  2
APPID
  5
9
330
0
100
AcDbSymbolTable
 70
     1
  0
APPID
  5
12
330
9
100
AcDbSymbolTableRecord
100
AcDbRegAppTableRecord
  2
ACAD
 70
     0
  0
ENDTAB
  0
TABLE
  2
DIMSTYLE
  5
A
330
0
100
AcDbSymbolTable
 70
     1
100
AcDbDimStyleTable
  0
DIMSTYLE
105
27
330
A
100
AcDbSymbolTableRecord
100
AcDbDimStyleTableRecord
  2
Standard
 70
     0
178
     0
340
11
  0
ENDTAB
  0
TABLE
  2
BLOCK_RECORD
  5
1
330
0
100
AcDbSymbolTable
 70
     1
  0
BLOCK_RECORD
  5
1F
330
1
100
AcDbSymbolTableRecord
100
AcDbBlockTableRecord
  2
*Model_Space
340
22
 70
     0
280
     1
281
     0
  0
BLOCK_RECORD
  5
1B
330
1
100
AcDbSymbolTableRecord
100
AcDbBlockTableRecord
  2
*Paper_Space
340
1E
 70
     0
280
     1
281
     0
  0
BLOCK_RECORD
  5
23
330
1
100
AcDbSymbolTableRecord
100
AcDbBlockTableRecord
  2
*Paper_Space0
340
26
 70
     0
280
     1
281
     0
  0
ENDTAB
  0
ENDSEC
  0
SECTION
  2
BLOCKS
  0
BLOCK
  5
20
330
1F
100
AcDbEntity
  8
0
100
AcDbBlockBegin
  2
*Model_Space
 70
     0
 10
0.0
 20
0.0
 30
0.0
  3
*Model_Space
  1

  0
ENDBLK
  5
21
330
1F
100
AcDbEntity
  8
0
100
AcDbBlockEnd
  0
BLOCK
  5
1C
330
1B
100
AcDbEntity
 67
     1
  8
0
100
AcDbBlockBegin
  2
*Paper_Space
 70
     0
 10
0.0
 20
0.0
 30
0.0
  3
*Paper_Space
  1

  0
ENDBLK
  5
1D
330
1B
100
AcDbEntity
 67
     1
  8
0
100
AcDbBlockEnd
  0
BLOCK
  5
24
330
23
100
AcDbEntity
  8
0
100
AcDbBlockBegin
  2
*Paper_Space0
 70
     0
 10
0.0
 20
0.0
 30
0.0
  3
*Paper_Space0
  1

  0
ENDBLK
  5
25
330
23
100
AcDbEntity
  8
0
100
AcDbBlockEnd
  0
ENDSEC
  0
SECTION
  2
ENTITIES
  0
SPLINE
  5
41
330
1F
100
AcDbEntity
  8
Layer 1
 62
   179
420
  1907995
370
     9
100
AcDbSpline
210
0.0
220
0.0
230
1.0
 70
    11
 71
     3
 72
    29
 73
    25
 74
     0
 42
0.0000000001
 43
0.0000000001
 12
1.0
 22
0.0
 32
0.0
 13
1.0
 23
0.0
 33
0.0
 40
0.0
 40
0.0
 40
0.0
 40
0.0
 40
1.0
 40
1.0
 40
1.0
 40
2.0
 40
2.0
 40
2.0
 40
3.0
 40
3.0
 40
3.0
 40
4.0
 40
4.0
 40
4.0
 40
5.0
 40
5.0
 40
5.0
 40
6.0
 40
6.0
 40
6.0
 40
7.0
 40
7.0
 40
7.0
 40
8.0
 40
8.0
 40
8.0
 40
8.0
 10
160.5640401115148
 20
114.2376928272149
 30
0.0
 10
160.5640401115148
 20
108.7152036619288
 30
0.0
 10
156.0867962237454
 20
104.2379597741593
 30
0.0
 10
150.5643070584592
 20
104.2379597741593
 30
0.0
 10
150.5643070584592
 20
104.2379597741593
 30
0.0
 10
90.56381876211695
 20
104.2379597741593
 30
0.0
 10
90.56381876211695
 20
104.2379597741593
 30
0.0
 10
85.04133818595132
 20
104.2379597741593
 30
0.0
 10
80.56408596167583
 20
108.7152036619288
 30
0.0
 10
80.56408596167583
 20
114.2376928272149
 30
0.0
 10
80.56408596167583
 20
114.2376928272149
 30
0.0
 10
80.56408596167583
 20
174.2381372566592
 30
0.0
 10
80.56408596167583
 20
174.2381372566592
 30
0.0
 10
80.56408596167583
 20
179.7606264219453
 30
0.0
 10
85.04133818595132
 20
184.2378703097147
 30
0.0
 10
90.56381876211695
 20
184.2378703097147
 30
0.0
 10
90.56381876211695
 20
184.2378703097147
 30
0.0
 10
150.5643070584592
 20
184.2378703097147
 30
0.0
 10
150.5643070584592
 20
184.2378703097147
 30
0.0
 10
156.0867962237454
 20
184.2378703097147
 30
0.0
 10
160.5640401115148
 20
179.7606264219453
 30
0.0
 10
160.5640401115148
 20
174.2381372566592
 30
0.0
 10
160.5640401115148
 20
174.2381372566592
 30
0.0
 10
160.5640401115148
 20
114.2376928272149
 30
0.0
 10
160.5640401115148
 20
114.2376928272149
 30
0.0
  0
SPLINE
  5
42
330
1F
100
AcDbEntity
  8
Layer 1
 62
   179
420
  1907995
370
     9
100
AcDbSpline
210
0.0
220
0.0
230
1.0
 70
    11
 71
     3
 72
    17
 73
    13
 74
     0
 42
0.0000000001
 43
0.0000000001
 12
1.0
 22
0.0
 32
0.0
 13
1.0
 23
0.0
 33
0.0
 40
0.0
 40
0.0
 40
0.0
 40
0.0
 40
1.0
 40
1.0
 40
1.0
 40
2.0
 40
2.0
 40
2.0
 40
3.0
 40
3.0
 40
3.0
 40
4.0
 40
4.0
 40
4.0
 40
4.0
 10
90.56381876211695
 20
175.4880289230132
 30
0.0
 10
89.87343266861906
 20
175.4880289230132
 30
0.0
 10
89.31392712733768
 20
174.9285586453753
 30
0.0
 10
89.31392712733768
 20
174.2381372566592
 30
0.0
 10
89.31392712733768
 20
173.5477511457206
 30
0.0
 10
89.87343266861906
 20
172.9882808680826
 30
0.0
 10
90.56381876211695
 20
172.9882808680826
 30
0.0
 10
91.25420485561484
 20
172.9882808680826
 30
0.0
 10
91.81371039689623
 20
173.5477511457206
 30
0.0
 10
91.81371039689623
 20
174.2381372566592
 30
0.0
 10
91.81371039689623
 20
174.9285586453753
 30
0.0
 10
91.25420485561484
 20
175.4880289230132
 30
0.0
 10
90.56381876211695
 20
175.4880289230132
 30
0.0
  0
SPLINE
  5
43
330
1F
100
AcDbEntity
  8
Layer 1
 62
   179
420
  1907995
370
     9
100
AcDbSpline
210
0.0
220
0.0
230
1.0
 70
    11
 71
     3
 72
    17
 73
    13
 74
     0
 42
0.0000000001
 43
0.0000000001
 12
1.0
 22
0.0
 32
0.0
 13
1.0
 23
0.0
 33
0.0
 40
0.0
 40
0.0
 40
0.0
 40
0.0
 40
1.0
 40
1.0
 40
1.0
 40
2.0
 40
2.0
 40
2.0
 40
3.0
 40
3.0
 40
3.0
 40
4.0
 40
4.0
 40
4.0
 40
4.0
 10
90.56381876211695
 20
165.4882958699577
 30
0.0
 10
89.87343266861906
 20
165.4882958699577
 30
0.0
 10
89.31392712733768
 20
164.9281200367642
 30
0.0
 10
89.31392712733768
 20
164.2384042036036
 30
0.0
 10
89.31392712733768
 20
163.548018092665
 30
0.0
 10
89.87343266861906
 20
162.9878422594715
 30
0.0
 10
90.56381876211695
 20
162.9878422594715
 30
0.0
 10
91.25420485561484
 20
162.9878422594715
 30
0.0
 10
91.81371039689623
 20
163.548018092665
 30
0.0
 10
91.81371039689623
 20
164.2384042036036
 30
0.0
 10
91.81371039689623
 20
164.9281200367642
 30
0.0
 10
91.25420485561484
 20
165.4882958699577
 30
0.0
 10
90.56381876211695
 20
165.4882958699577
 30
0.0
  0
SPLINE
  5
44
330
1F
100
AcDbEntity
  8
Layer 1
 62
   179
420
  1907995
370
     9
100
AcDbSpline
210
0.0
220
0.0
230
1.0
 70
    11
 71
     3
 72
    17
 73
    13
 74
     0
 42
0.0000000001
 43
0.0000000001
 12
1.0
 22
0.0
 32
0.0
 13
1.0
 23
0.0
 33
0.0
 40
0.0
 40
0.0
 40
0.0
 40
0.0
 40
1.0
 40
1.0
 40
1.0
 40
2.0
 40
2.0
 40
2.0
 40
3.0
 40
3.0
 40
3.0
 40
4.0
 40
4.0
 40
4.0
 40
4.0
 10
90.56381876211695
 20
155.4878572613466
 30
0.0
 10
89.87343266861906
 20
155.4878572613466
 30
0.0
 10
89.31392712733768
 20
154.9283869837087
 30
0.0
 10
89.31392712733768
 20
154.23800087277
 30
0.0
 10
89.31392712733768
 20
153.5475794840539
 30
0.0
 10
89.87343266861906
 20
152.988109206416
 30
0.0
 10
90.56381876211695
 20
152.988109206416
 30
0.0
 10
91.25420485561484
 20
152.988109206416
 30
0.0
 10
91.81371039689623
 20
153.5475794840539
 30
0.0
 10
91.81371039689623
 20
154.23800087277
 30
0.0
 10
91.81371039689623
 20
154.9283869837087
 30
0.0
 10
91.25420485561484
 20
155.4878572613466
 30
0.0
 10
90.56381876211695
 20
155.4878572613466
 30
0.0
  0
SPLINE
  5
45
330
1F
100
AcDbEntity
  8
Layer 1
 62
   179
420
  1907995
370
     9
100
AcDbSpline
210
0.0
220
0.0
230
1.0
 70
    11
 71
     3
 72
    17
 73
    13
 74
     0
 42
0.0000000001
 43
0.0000000001
 12
1.0
 22
0.0
 32
0.0
 13
1.0
 23
0.0
 33
0.0
 40
0.0
 40
0.0
 40
0.0
 40
0.0
 40
1.0
 40
1.0
 40
1.0
 40
2.0
 40
2.0
 40
2.0
 40
3.0
 40
3.0
 40
3.0
 40
4.0
 40
4.0
 40
4.0
 40
4.0
 10
90.56381876211695
 20
145.488124208291
 30
0.0
 10
89.87343266861906
 20
145.488124208291
 30
0.0
 10
89.31392712733768
 20
144.9286539306531
 30
0.0
 10
89.31392712733768
 20
144.2382678197145
 30
0.0
 10
89.31392712733768
 20
143.5478464309983
 30
0.0
 10
89.87343266861906
 20
142.9883761533604
 30
0.0
 10
90.56381876211695
 20
142.9883761533604
 30
0.0
 10
91.25420485561484
 20
142.9883761533604
 30
0.0
 10
91.81371039689623
 20
143.5478464309983
 30
0.0
 10
91.81371039689623
 20
144.2382678197145
 30
0.0
 10
91.81371039689623
 20
144.9286539306531
 30
0.0
 10
91.25420485561484
 20
145.488124208291
 30
0.0
 10
90.56381876211695
 20
145.488124208291
 30
0.0
  0
SPLINE
  5
46
330
1F
100
AcDbEntity
  8
Layer 1
 62
   179
420
  1907995
370
     9
100
AcDbSpline
210
0.0
220
0.0
230
1.0
 70
    11
 71
     3
 72
    17
 73
    13
 74
     0
 42
0.0000000001
 43
0.0000000001
 12
1.0
 22
0.0
 32
0.0
 13
1.0
 23
0.0
 33
0.0
 40
0.0
 40
0.0
 40
0.0
 40
0.0
 40
1.0
 40
1.0
 40
1.0
 40
2.0
 40
2.0
 40
2.0
 40
3.0
 40
3.0
 40
3.0
 40
4.0
 40
4.0
 40
4.0
 40
4.0
 10
90.56381876211695
 20
135.4877208774574
 30
0.0
 10
89.87343266861906
 20
135.4877208774574
 30
0.0
 10
89.31392712733768
 20
134.928215322042
 30
0.0
 10
89.31392712733768
 20
134.237829211104
 30
0.0
 10
89.31392712733768
 20
133.5474431001647
 30
0.0
 10
89.87343266861906
 20
132.9879375447493
 30
0.0
 10
90.56381876211695
 20
132.9879375447493
 30
0.0
 10
91.25420485561484
 20
132.9879375447493
 30
0.0
 10
91.81371039689623
 20
133.5474431001647
 30
0.0
 10
91.81371039689623
 20
134.237829211104
 30
0.0
 10
91.81371039689623
 20
134.928215322042
 30
0.0
 10
91.25420485561484
 20
135.4877208774574
 30
0.0
 10
90.56381876211695
 20
135.4877208774574
 30
0.0
  0
SPLINE
  5
47
330
1F
100
AcDbEntity
  8
Layer 1
 62
   179
420
  1907995
370
     9
100
AcDbSpline
210
0.0
220
0.0
230
1.0
 70
    11
 71
     3
 72
    17
 73
    13
 74
     0
 42
0.0000000001
 43
0.0000000001
 12
1.0
 22
0.0
 32
0.0
 13
1.0
 23
0.0
 33
0.0
 40
0.0
 40
0.0
 40
0.0
 40
0.0
 40
1.0
 40
1.0
 40
1.0
 40
2.0
 40
2.0
 40
2.0
 40
3.0
 40
3.0
 40
3.0
 40
4.0
 40
4.0
 40
4.0
 40
4.0
 10
90.56381876211695
 20
125.4879878244025
 30
0.0
 10
89.87343266861906
 20
125.4879878244025
 30
0.0
 10
89.31392712733768
 20
124.9284822689864
 30
0.0
 10
89.31392712733768
 20
124.2380961580478
 30
0.0
 10
89.31392712733768
 20
123.5477100471098
 30
0.0
 10
89.87343266861906
 20
122.9882044916937
 30
0.0
 10
90.56381876211695
 20
122.9882044916937
 30
0.0
 10
91.25420485561484
 20
122.9882044916937
 30
0.0
 10
91.81371039689623
 20
123.5477100471098
 30
0.0
 10
91.81371039689623
 20
124.2380961580478
 30
0.0
 10
91.81371039689623
 20
124.9284822689864
 30
0.0
 10
91.25420485561484
 20
125.4879878244025
 30
0.0
 10
90.56381876211695
 20
125.4879878244025
 30
0.0
  0
SPLINE
  5
48
330
1F
100
AcDbEntity
  8
Layer 1
 62
   179
420
  1907995
370
     9
100
AcDbSpline
210
0.0
220
0.0
230
1.0
 70
    11
 71
     3
 72
    17
 73
    13
 74
     0
 42
0.0000000001
 43
0.0000000001
 12
1.0
 22
0.0
 32
0.0
 13
1.0
 23
0.0
 33
0.0
 40
0.0
 40
0.0
 40
0.0
 40
0.0
 40
1.0
 40
1.0
 40
1.0
 40
2.0
 40
2.0
 40
2.0
 40
3.0
 40
3.0
 40
3.0
 40
4.0
 40
4.0
 40
4.0
 40
4.0
 10
90.56381876211695
 20
115.4882547713463
 30
0.0
 10
89.87343266861906
 20
115.4882547713463
 30
0.0
 10
89.31392712733768
 20
114.9280789381535
 30
0.0
 10
89.31392712733768
 20
114.2383631049922
 30
0.0
 10
89.31392712733768
 20
113.5479769940536
 30
0.0
 10
89.87343266861906
 20
112.9878011608608
 30
0.0
 10
90.56381876211695
 20
112.9878011608608
 30
0.0
 10
91.25420485561484
 20
112.9878011608608
 30
0.0
 10
91.81371039689623
 20
113.5479769940536
 30
0.0
 10
91.81371039689623
 20
114.2383631049922
 30
0.0
 10
91.81371039689623
 20
114.9280789381535
 30
0.0
 10
91.25420485561484
 20
115.4882547713463
 30
0.0
 10
90.56381876211695
 20
115.4882547713463
 30
0.0
  0
SPLINE
  5
49
330
1F
100
AcDbEntity
  8
Layer 1
 62
   179
420
  1907995
370
     9
100
AcDbSpline
210
0.0
220
0.0
230
1.0
 70
    11
 71
     3
 72
    17
 73
    13
 74
     0
 42
0.0000000001
 43
0.0000000001
 12
1.0
 22
0.0
 32
0.0
 13
1.0
 23
0.0
 33
0.0
 40
0.0
 40
0.0
 40
0.0
 40
0.0
 40
1.0
 40
1.0
 40
1.0
 40
2.0
 40
2.0
 40
2.0
 40
3.0
 40
3.0
 40
3.0
 40
4.0
 40
4.0
 40
4.0
 40
4.0
 10
100.563560404293
 20
175.4880289230132
 30
0.0
 10
99.87317429335435
 20
175.4880289230132
 30
0.0
 10
99.31366873793891
 20
174.9285586453753
 30
0.0
 10
99.31366873793891
 20
174.2381372566592
 30
0.0
 10
99.31366873793891
 20
173.5477511457206
 30
0.0
 10
99.87317429335435
 20
172.9882808680826
 30
0.0
 10
100.563560404293
 20
172.9882808680826
 30
0.0
 10
101.2539465152316
 20
172.9882808680826
 30
0.0
 10
101.8134520706471
 20
173.5477511457206
 30
0.0
 10
101.8134520706471
 20
174.2381372566592
 30
0.0
 10
101.8134520706471
 20
174.9285586453753
 30
0.0
 10
101.2539465152316
 20
175.4880289230132
 30
0.0
 10
100.563560404293
 20
175.4880289230132
 30
0.0
  0
SPLINE
  5
4A
330
1F
100
AcDbEntity
  8
Layer 1
 62
   179
420
  1907995
370
     9
100
AcDbSpline
210
0.0
220
0.0
230
1.0
 70
    11
 71
     3
 72
    17
 73
    13
 74
     0
 42
0.0000000001
 43
0.0000000001
 12
1.0
 22
0.0
 32
0.0
 13
1.0
 23
0.0
 33
0.0
 40
0.0
 40
0.0
 40
0.0
 40
0.0
 40
1.0
 40
1.0
 40
1.0
 40
2.0
 40
2.0
 40
2.0
 40
3.0
 40
3.0
 40
3.0
 40
4.0
 40
4.0
 40
4.0
 40
4.0
 10
100.563560404293
 20
165.4882958699577
 30
0.0
 10
99.87317429335435
 20
165.4882958699577
 30
0.0
 10
99.31366873793891
 20
164.9281200367642
 30
0.0
 10
99.31366873793891
 20
164.2384042036036
 30
0.0
 10
99.31366873793891
 20
163.548018092665
 30
0.0
 10
99.87317429335435
 20
162.9878422594715
 30
0.0
 10
100.563560404293
 20
162.9878422594715
 30
0.0
 10
101.2539465152316
 20
162.9878422594715
 30
0.0
 10
101.8134520706471
 20
163.548018092665
 30
0.0
 10
101.8134520706471
 20
164.2384042036036
 30
0.0
 10
101.8134520706471
 20
164.9281200367642
 30
0.0
 10
101.2539465152316
 20
165.4882958699577
 30
0.0
 10
100.563560404293
 20
165.4882958699577
 30
0.0
  0
SPLINE
  5
4B
330
1F
100
AcDbEntity
  8
Layer 1
 62
   179
420
  1907995
370
     9
100
AcDbSpline
210
0.0
220
0.0
230
1.0
 70
    11
 71
     3
 72
    17
 73
    13
 74
     0
 42
0.0000000001
 43
0.0000000001
 12
1.0
 22
0.0
 32
0.0
 13
1.0
 23
0.0
 33
0.0
 40
0.0
 40
0.0
 40
0.0
 40
0.0
 40
1.0
 40
1.0
 40
1.0
 40
2.0
 40
2.0
 40
2.0
 40
3.0
 40
3.0
 40
3.0
 40
4.0
 40
4.0
 40
4.0
 40
4.0
 10
100.563560404293
 20
155.4878572613466
 30
0.0
 10
99.87317429335435
 20
155.4878572613466
 30
0.0
 10
99.31366873793891
 20
154.9283869837087
 30
0.0
 10
99.31366873793891
 20
154.23800087277
 30
0.0
 10
99.31366873793891
 20
153.5475794840539
 30
0.0
 10
99.87317429335435
 20
152.988109206416
 30
0.0
 10
100.563560404293
 20
152.988109206416
 30
0.0
 10
101.2539465152316
 20
152.988109206416
 30
0.0
 10
101.8134520706471
 20
153.5475794840539
 30
0.0
 10
101.8134520706471
 20
154.23800087277
 30
0.0
 10
101.8134520706471
 20
154.9283869837087
 30
0.0
 10
101.2539465152316
 20
155.4878572613466
 30
0.0
 10
100.563560404293
 20
155.4878572613466
 30
0.0
  0
SPLINE
  5
4C
330
1F
100
AcDbEntity
  8
Layer 1
 62
   179
420
  1907995
370
     9
100
AcDbSpline
210
0.0
220
0.0
230
1.0
 70
    11
 71
     3
 72
    17
 73
    13
 74
     0
 42
0.0000000001
 43
0.0000000001
 12
1.0
 22
0.0
 32
0.0
 13
1.0
 23
0.0
 33
0.0
 40
0.0
 40
0.0
 40
0.0
 40
0.0
 40
1.0
 40
1.0
 40
1.0
 40
2.0
 40
2.0
 40
2.0
 40
3.0
 40
3.0
 40
3.0
 40
4.0
 40
4.0
 40
4.0
 40
4.0
 10
100.563560404293
 20
145.488124208291
 30
0.0
 10
99.87317429335435
 20
145.488124208291
 30
0.0
 10
99.31366873793891
 20
144.9286539306531
 30
0.0
 10
99.31366873793891
 20
144.2382678197145
 30
0.0
 10
99.31366873793891
 20
143.5478464309983
 30
0.0
 10
99.87317429335435
 20
142.9883761533604
 30
0.0
 10
100.563560404293
 20
142.9883761533604
 30
0.0
 10
101.2539465152316
 20
142.9883761533604
 30
0.0
 10
101.8134520706471
 20
143.5478464309983
 30
0.0
 10
101.8134520706471
 20
144.2382678197145
 30
0.0
 10
101.8134520706471
 20
144.9286539306531
 30
0.0
 10
101.2539465152316
 20
145.488124208291
 30
0.0
 10
100.563560404293
 20
145.488124208291
 30
0.0
  0
SPLINE
  5
4D
330
1F
100
AcDbEntity
  8
Layer 1
 62
   179
420
  1907995
370
     9
100
AcDbSpline
210
0.0
220
0.0
230
1.0
 70
    11
 71
     3
 72
    17
 73
    13
 74
     0
 42
0.0000000001
 43
0.0000000001
 12
1.0
 22
0.0
 32
0.0
 13
1.0
 23
0.0
 33
0.0
 40
0.0
 40
0.0
 40
0.0
 40
0.0
 40
1.0
 40
1.0
 40
1.0
 40
2.0
 40
2.0
 40
2.0
 40
3.0
 40
3.0
 40
3.0
 40
4.0
 40
4.0
 40
4.0
 40
4.0
 10
100.563560404293
 20
135.4877208774574
 30
0.0
 10
99.87317429335435
 20
135.4877208774574
 30
0.0
 10
99.31366873793891
 20
134.928215322042
 30
0.0
 10
99.31366873793891
 20
134.237829211104
 30
0.0
 10
99.31366873793891
 20
133.5474431001647
 30
0.0
 10
99.87317429335435
 20
132.9879375447493
 30
0.0
 10
100.563560404293
 20
132.9879375447493
 30
0.0
 10
101.2539465152316
 20
132.9879375447493
 30
0.0
 10
101.8134520706471
 20
133.5474431001647
 30
0.0
 10
101.8134520706471
 20
134.237829211104
 30
0.0
 10
101.8134520706471
 20
134.928215322042
 30
0.0
 10
101.2539465152316
 20
135.4877208774574
 30
0.0
 10
100.563560404293
 20
135.4877208774574
 30
0.0
  0
SPLINE
  5
4E
330
1F
100
AcDbEntity
  8
Layer 1
 62
   179
420
  1907995
370
     9
100
AcDbSpline
210
0.0
220
0.0
230
1.0
 70
    11
 71
     3
 72
    17
 73
    13
 74
     0
 42
0.0000000001
 43
0.0000000001
 12
1.0
 22
0.0
 32
0.0
 13
1.0
 23
0.0
 33
0.0
 40
0.0
 40
0.0
 40
0.0
 40
0.0
 40
1.0
 40
1.0
 40
1.0
 40
2.0
 40
2.0
 40
2.0
 40
3.0
 40
3.0
 40
3.0
 40
4.0
 40
4.0
 40
4.0
 40
4.0
 10
100.563560404293
 20
125.4879878244025
 30
0.0
 10
99.87317429335435
 20
125.4879878244025
 30
0.0
 10
99.31366873793891
 20
124.9284822689864
 30
0.0
 10
99.31366873793891
 20
124.2380961580478
 30
0.0
 10
99.31366873793891
 20
123.5477100471098
 30
0.0
 10
99.87317429335435
 20
122.9882044916937
 30
0.0
 10
100.563560404293
 20
122.9882044916937
 30
0.0
 10
101.2539465152316
 20
122.9882044916937
 30
0.0
 10
101.8134520706471
 20
123.5477100471098
 30
0.0
 10
101.8134520706471
 20
124.2380961580478
 30
0.0
 10
101.8134520706471
 20
124.9284822689864
 30
0.0
 10
101.2539465152316
 20
125.4879878244025
 30
0.0
 10
100.563560404293
 20
125.4879878244025
 30
0.0
  0
SPLINE
  5
4F
330
1F
100
AcDbEntity
  8
Layer 1
 62
   179
420
  1907995
370
     9
100
AcDbSpline
210
0.0
220
0.0
230
1.0
 70
    11
 71
     3
 72
    17
 73
    13
 74
     0
 42
0.0000000001
 43
0.0000000001
 12
1.0
 22
0.0
 32
0.0
 13
1.0
 23
0.0
 33
0.0
 40
0.0
 40
0.0
 40
0.0
 40
0.0
 40
1.0
 40
1.0
 40
1.0
 40
2.0
 40
2.0
 40
2.0
 40
3.0
 40
3.0
 40
3.0
 40
4.0
 40
4.0
 40
4.0
 40
4.0
 10
100.563560404293
 20
115.4882547713463
 30
0.0
 10
99.87317429335435
 20
115.4882547713463
 30
0.0
 10
99.31366873793891
 20
114.9280789381535
 30
0.0
 10
99.31366873793891
 20
114.2383631049922
 30
0.0
 10
99.31366873793891
 20
113.5479769940536
 30
0.0
 10
99.87317429335435
 20
112.9878011608608
 30
0.0
 10
100.563560404293
 20
112.9878011608608
 30
0.0
 10
101.2539465152316
 20
112.9878011608608
 30
0.0
 10
101.8134520706471
 20
113.5479769940536
 30
0.0
 10
101.8134520706471
 20
114.2383631049922
 30
0.0
 10
101.8134520706471
 20
114.9280789381535
 30
0.0
 10
101.2539465152316
 20
115.4882547713463
 30
0.0
 10
100.563560404293
 20
115.4882547713463
 30
0.0
  0
SPLINE
  5
50
330
1F
100
AcDbEntity
  8
Layer 1
 62
   179
420
  1907995
370
     9
100
AcDbSpline
210
0.0
220
0.0
230
1.0
 70
    11
 71
     3
 72
    17
 73
    13
 74
     0
 42
0.0000000001
 43
0.0000000001
 12
1.0
 22
0.0
 32
0.0
 13
1.0
 23
0.0
 33
0.0
 40
0.0
 40
0.0
 40
0.0
 40
0.0
 40
1.0
 40
1.0
 40
1.0
 40
2.0
 40
2.0
 40
2.0
 40
3.0
 40
3.0
 40
3.0
 40
4.0
 40
4.0
 40
4.0
 40
4.0
 10
110.5639990129041
 20
175.4880289230132
 30
0.0
 10
109.8735776241879
 20
175.4880289230132
 30
0.0
 10
109.31410734655
 20
174.9285586453753
 30
0.0
 10
109.31410734655
 20
174.2381372566592
 30
0.0
 10
109.31410734655
 20
173.5477511457206
 30
0.0
 10
109.8735776241879
 20
172.9882808680826
 30
0.0
 10
110.5639990129041
 20
172.9882808680826
 30
0.0
 10
111.2543851238427
 20
172.9882808680826
 30
0.0
 10
111.8138554014806
 20
173.5477511457206
 30
0.0
 10
111.8138554014806
 20
174.2381372566592
 30
0.0
 10
111.8138554014806
 20
174.9285586453753
 30
0.0
 10
111.2543851238427
 20
175.4880289230132
 30
0.0
 10
110.5639990129041
 20
175.4880289230132
 30
0.0
  0
SPLINE
  5
51
330
1F
100
AcDbEntity
  8
Layer 1
 62
   179
420
  1907995
370
     9
100
AcDbSpline
210
0.0
220
0.0
230
1.0
 70
    11
 71
     3
 72
    17
 73
    13
 74
     0
 42
0.0000000001
 43
0.0000000001
 12
1.0
 22
0.0
 32
0.0
 13
1.0
 23
0.0
 33
0.0
 40
0.0
 40
0.0
 40
0.0
 40
0.0
 40
1.0
 40
1.0
 40
1.0
 40
2.0
 40
2.0
 40
2.0
 40
3.0
 40
3.0
 40
3.0
 40
4.0
 40
4.0
 40
4.0
 40
4.0
 10
110.5639990129041
 20
165.4882958699577
 30
0.0
 10
109.8735776241879
 20
165.4882958699577
 30
0.0
 10
109.31410734655
 20
164.9281200367642
 30
0.0
 10
109.31410734655
 20
164.2384042036036
 30
0.0
 10
109.31410734655
 20
163.548018092665
 30
0.0
 10
109.8735776241879
 20
162.9878422594715
 30
0.0
 10
110.5639990129041
 20
162.9878422594715
 30
0.0
 10
111.2543851238427
 20
162.9878422594715
 30
0.0
 10
111.8138554014806
 20
163.548018092665
 30
0.0
 10
111.8138554014806
 20
164.2384042036036
 30
0.0
 10
111.8138554014806
 20
164.9281200367642
 30
0.0
 10
111.2543851238427
 20
165.4882958699577
 30
0.0
 10
110.5639990129041
 20
165.4882958699577
 30
0.0
  0
SPLINE
  5
52
330
1F
100
AcDbEntity
  8
Layer 1
 62
   179
420
  1907995
370
     9
100
AcDbSpline
210
0.0
220
0.0
230
1.0
 70
    11
 71
     3
 72
    17
 73
    13
 74
     0
 42
0.0000000001
 43
0.0000000001
 12
1.0
 22
0.0
 32
0.0
 13
1.0
 23
0.0
 33
0.0
 40
0.0
 40
0.0
 40
0.0
 40
0.0
 40
1.0
 40
1.0
 40
1.0
 40
2.0
 40
2.0
 40
2.0
 40
3.0
 40
3.0
 40
3.0
 40
4.0
 40
4.0
 40
4.0
 40
4.0
 10
110.5639990129041
 20
155.4878572613466
 30
0.0
 10
109.8735776241879
 20
155.4878572613466
 30
0.0
 10
109.31410734655
 20
154.9283869837087
 30
0.0
 10
109.31410734655
 20
154.23800087277
 30
0.0
 10
109.31410734655
 20
153.5475794840539
 30
0.0
 10
109.8735776241879
 20
152.988109206416
 30
0.0
 10
110.5639990129041
 20
152.988109206416
 30
0.0
 10
111.2543851238427
 20
152.988109206416
 30
0.0
 10
111.8138554014806
 20
153.5475794840539
 30
0.0
 10
111.8138554014806
 20
154.23800087277
 30
0.0
 10
111.8138554014806
 20
154.9283869837087
 30
0.0
 10
111.2543851238427
 20
155.4878572613466
 30
0.0
 10
110.5639990129041
 20
155.4878572613466
 30
0.0
  0
SPLINE
  5
53
330
1F
100
AcDbEntity
  8
Layer 1
 62
   179
420
  1907995
370
     9
100
AcDbSpline
210
0.0
220
0.0
230
1.0
 70
    11
 71
     3
 72
    17
 73
    13
 74
     0
 42
0.0000000001
 43
0.0000000001
 12
1.0
 22
0.0
 32
0.0
 13
1.0
 23
0.0
 33
0.0
 40
0.0
 40
0.0
 40
0.0
 40
0.0
 40
1.0
 40
1.0
 40
1.0
 40
2.0
 40
2.0
 40
2.0
 40
3.0
 40
3.0
 40
3.0
 40
4.0
 40
4.0
 40
4.0
 40
4.0
 10
110.5639990129041
 20
145.488124208291
 30
0.0
 10
109.8735776241879
 20
145.488124208291
 30
0.0
 10
109.31410734655
 20
144.9286539306531
 30
0.0
 10
109.31410734655
 20
144.2382678197145
 30
0.0
 10
109.31410734655
 20
143.5478464309983
 30
0.0
 10
109.8735776241879
 20
142.9883761533604
 30
0.0
 10
110.5639990129041
 20
142.9883761533604
 30
0.0
 10
111.2543851238427
 20
142.9883761533604
 30
0.0
 10
111.8138554014806
 20
143.5478464309983
 30
0.0
 10
111.8138554014806
 20
144.2382678197145
 30
0.0
 10
111.8138554014806
 20
144.9286539306531
 30
0.0
 10
111.2543851238427
 20
145.488124208291
 30
0.0
 10
110.5639990129041
 20
145.488124208291
 30
0.0
  0
SPLINE
  5
54
330
1F
100
AcDbEntity
  8
Layer 1
 62
   179
420
  1907995
370
     9
100
AcDbSpline
210
0.0
220
0.0
230
1.0
 70
    11
 71
     3
 72
    17
 73
    13
 74
     0
 42
0.0000000001
 43
0.0000000001
 12
1.0
 22
0.0
 32
0.0
 13
1.0
 23
0.0
 33
0.0
 40
0.0
 40
0.0
 40
0.0
 40
0.0
 40
1.0
 40
1.0
 40
1.0
 40
2.0
 40
2.0
 40
2.0
 40
3.0
 40
3.0
 40
3.0
 40
4.0
 40
4.0
 40
4.0
 40
4.0
 10
110.5639990129041
 20
135.4877208774574
 30
0.0
 10
109.8735776241879
 20
135.4877208774574
 30
0.0
 10
109.31410734655
 20
134.928215322042
 30
0.0
 10
109.31410734655
 20
134.237829211104
 30
0.0
 10
109.31410734655
 20
133.5474431001647
 30
0.0
 10
109.8735776241879
 20
132.9879375447493
 30
0.0
 10
110.5639990129041
 20
132.9879375447493
 30
0.0
 10
111.2543851238427
 20
132.9879375447493
 30
0.0
 10
111.8138554014806
 20
133.5474431001647
 30
0.0
 10
111.8138554014806
 20
134.237829211104
 30
0.0
 10
111.8138554014806
 20
134.928215322042
 30
0.0
 10
111.2543851238427
 20
135.4877208774574
 30
0.0
 10
110.5639990129041
 20
135.4877208774574
 30
0.0
  0
SPLINE
  5
55
330
1F
100
AcDbEntity
  8
Layer 1
 62
   179
420
  1907995
370
     9
100
AcDbSpline
210
0.0
220
0.0
230
1.0
 70
    11
 71
     3
 72
    17
 73
    13
 74
     0
 42
0.0000000001
 43
0.0000000001
 12
1.0
 22
0.0
 32
0.0
 13
1.0
 23
0.0
 33
0.0
 40
0.0
 40
0.0
 40
0.0
 40
0.0
 40
1.0
 40
1.0
 40
1.0
 40
2.0
 40
2.0
 40
2.0
 40
3.0
 40
3.0
 40
3.0
 40
4.0
 40
4.0
 40
4.0
 40
4.0
 10
110.5639990129041
 20
125.4879878244025
 30
0.0
 10
109.8735776241879
 20
125.4879878244025
 30
0.0
 10
109.31410734655
 20
124.9284822689864
 30
0.0
 10
109.31410734655
 20
124.2380961580478
 30
0.0
 10
109.31410734655
 20
123.5477100471098
 30
0.0
 10
109.8735776241879
 20
122.9882044916937
 30
0.0
 10
110.5639990129041
 20
122.9882044916937
 30
0.0
 10
111.2543851238427
 20
122.9882044916937
 30
0.0
 10
111.8138554014806
 20
123.5477100471098
 30
0.0
 10
111.8138554014806
 20
124.2380961580478
 30
0.0
 10
111.8138554014806
 20
124.9284822689864
 30
0.0
 10
111.2543851238427
 20
125.4879878244025
 30
0.0
 10
110.5639990129041
 20
125.4879878244025
 30
0.0
  0
SPLINE
  5
56
330
1F
100
AcDbEntity
  8
Layer 1
 62
   179
420
  1907995
370
     9
100
AcDbSpline
210
0.0
220
0.0
230
1.0
 70
    11
 71
     3
 72
    17
 73
    13
 74
     0
 42
0.0000000001
 43
0.0000000001
 12
1.0
 22
0.0
 32
0.0
 13
1.0
 23
0.0
 33
0.0
 40
0.0
 40
0.0
 40
0.0
 40
0.0
 40
1.0
 40
1.0
 40
1.0
 40
2.0
 40
2.0
 40
2.0
 40
3.0
 40
3.0
 40
3.0
 40
4.0
 40
4.0
 40
4.0
 40
4.0
 10
110.5639990129041
 20
115.4882547713463
 30
0.0
 10
109.8735776241879
 20
115.4882547713463
 30
0.0
 10
109.31410734655
 20
114.9280789381535
 30
0.0
 10
109.31410734655
 20
114.2383631049922
 30
0.0
 10
109.31410734655
 20
113.5479769940536
 30
0.0
 10
109.8735776241879
 20
112.9878011608608
 30
0.0
 10
110.5639990129041
 20
112.9878011608608
 30
0.0
 10
111.2543851238427
 20
112.9878011608608
 30
0.0
 10
111.8138554014806
 20
113.5479769940536
 30
0.0
 10
111.8138554014806
 20
114.2383631049922
 30
0.0
 10
111.8138554014806
 20
114.9280789381535
 30
0.0
 10
111.2543851238427
 20
115.4882547713463
 30
0.0
 10
110.5639990129041
 20
115.4882547713463
 30
0.0
  0
SPLINE
  5
57
330
1F
100
AcDbEntity
  8
Layer 1
 62
   179
420
  1907995
370
     9
100
AcDbSpline
210
0.0
220
0.0
230
1.0
 70
    11
 71
     3
 72
    17
 73
    13
 74
     0
 42
0.0000000001
 43
0.0000000001
 12
1.0
 22
0.0
 32
0.0
 13
1.0
 23
0.0
 33
0.0
 40
0.0
 40
0.0
 40
0.0
 40
0.0
 40
1.0
 40
1.0
 40
1.0
 40
2.0
 40
2.0
 40
2.0
 40
3.0
 40
3.0
 40
3.0
 40
4.0
 40
4.0
 40
4.0
 40
4.0
 10
120.5637320659597
 20
175.4880289230132
 30
0.0
 10
119.8733106772435
 20
175.4880289230132
 30
0.0
 10
119.3138403996056
 20
174.9285586453753
 30
0.0
 10
119.3138403996056
 20
174.2381372566592
 30
0.0
 10
119.3138403996056
 20
173.5477511457206
 30
0.0
 10
119.8733106772435
 20
172.9882808680826
 30
0.0
 10
120.5637320659597
 20
172.9882808680826
 30
0.0
 10
121.2541181768983
 20
172.9882808680826
 30
0.0
 10
121.8135884545362
 20
173.5477511457206
 30
0.0
 10
121.8135884545362
 20
174.2381372566592
 30
0.0
 10
121.8135884545362
 20
174.9285586453753
 30
0.0
 10
121.2541181768983
 20
175.4880289230132
 30
0.0
 10
120.5637320659597
 20
175.4880289230132
 30
0.0
  0
SPLINE
  5
58
330
1F
100
AcDbEntity
  8
Layer 1
 62
   179
420
  1907995
370
     9
100
AcDbSpline
210
0.0
220
0.0
230
1.0
 70
    11
 71
     3
 72
    17
 73
    13
 74
     0
 42
0.0000000001
 43
0.0000000001
 12
1.0
 22
0.0
 32
0.0
 13
1.0
 23
0.0
 33
0.0
 40
0.0
 40
0.0
 40
0.0
 40
0.0
 40
1.0
 40
1.0
 40
1.0
 40
2.0
 40
2.0
 40
2.0
 40
3.0
 40
3.0
 40
3.0
 40
4.0
 40
4.0
 40
4.0
 40
4.0
 10
120.5637320659597
 20
165.4882958699577
 30
0.0
 10
119.8733106772435
 20
165.4882958699577
 30
0.0
 10
119.3138403996056
 20
164.9281200367642
 30
0.0
 10
119.3138403996056
 20
164.2384042036036
 30
0.0
 10
119.3138403996056
 20
163.548018092665
 30
0.0
 10
119.8733106772435
 20
162.9878422594715
 30
0.0
 10
120.5637320659597
 20
162.9878422594715
 30
0.0
 10
121.2541181768983
 20
162.9878422594715
 30
0.0
 10
121.8135884545362
 20
163.548018092665
 30
0.0
 10
121.8135884545362
 20
164.2384042036036
 30
0.0
 10
121.8135884545362
 20
164.9281200367642
 30
0.0
 10
121.2541181768983
 20
165.4882958699577
 30
0.0
 10
120.5637320659597
 20
165.4882958699577
 30
0.0
  0
SPLINE
  5
59
330
1F
100
AcDbEntity
  8
Layer 1
 62
   179
420
  1907995
370
     9
100
AcDbSpline
210
0.0
220
0.0
230
1.0
 70
    11
 71
     3
 72
    17
 73
    13
 74
     0
 42
0.0000000001
 43
0.0000000001
 12
1.0
 22
0.0
 32
0.0
 13
1.0
 23
0.0
 33
0.0
 40
0.0
 40
0.0
 40
0.0
 40
0.0
 40
1.0
 40
1.0
 40
1.0
 40
2.0
 40
2.0
 40
2.0
 40
3.0
 40
3.0
 40
3.0
 40
4.0
 40
4.0
 40
4.0
 40
4.0
 10
120.5637320659597
 20
155.4878572613466
 30
0.0
 10
119.8733106772435
 20
155.4878572613466
 30
0.0
 10
119.3138403996056
 20
154.9283869837087
 30
0.0
 10
119.3138403996056
 20
154.23800087277
 30
0.0
 10
119.3138403996056
 20
153.5475794840539
 30
0.0
 10
119.8733106772435
 20
152.988109206416
 30
0.0
 10
120.5637320659597
 20
152.988109206416
 30
0.0
 10
121.2541181768983
 20
152.988109206416
 30
0.0
 10
121.8135884545362
 20
153.5475794840539
 30
0.0
 10
121.8135884545362
 20
154.23800087277
 30
0.0
 10
121.8135884545362
 20
154.9283869837087
 30
0.0
 10
121.2541181768983
 20
155.4878572613466
 30
0.0
 10
120.5637320659597
 20
155.4878572613466
 30
0.0
  0
SPLINE
  5
5A
330
1F
100
AcDbEntity
  8
Layer 1
 62
   179
420
  1907995
370
     9
100
AcDbSpline
210
0.0
220
0.0
230
1.0
 70
    11
 71
     3
 72
    17
 73
    13
 74
     0
 42
0.0000000001
 43
0.0000000001
 12
1.0
 22
0.0
 32
0.0
 13
1.0
 23
0.0
 33
0.0
 40
0.0
 40
0.0
 40
0.0
 40
0.0
 40
1.0
 40
1.0
 40
1.0
 40
2.0
 40
2.0
 40
2.0
 40
3.0
 40
3.0
 40
3.0
 40
4.0
 40
4.0
 40
4.0
 40
4.0
 10
120.5637320659597
 20
145.488124208291
 30
0.0
 10
119.8733106772435
 20
145.488124208291
 30
0.0
 10
119.3138403996056
 20
144.9286539306531
 30
0.0
 10
119.3138403996056
 20
144.2382678197145
 30
0.0
 10
119.3138403996056
 20
143.5478464309983
 30
0.0
 10
119.8733106772435
 20
142.9883761533604
 30
0.0
 10
120.5637320659597
 20
142.9883761533604
 30
0.0
 10
121.2541181768983
 20
142.9883761533604
 30
0.0
 10
121.8135884545362
 20
143.5478464309983
 30
0.0
 10
121.8135884545362
 20
144.2382678197145
 30
0.0
 10
121.8135884545362
 20
144.9286539306531
 30
0.0
 10
121.2541181768983
 20
145.488124208291
 30
0.0
 10
120.5637320659597
 20
145.488124208291
 30
0.0
  0
SPLINE
  5
5B
330
1F
100
AcDbEntity
  8
Layer 1
 62
   179
420
  1907995
370
     9
100
AcDbSpline
210
0.0
220
0.0
230
1.0
 70
    11
 71
     3
 72
    17
 73
    13
 74
     0
 42
0.0000000001
 43
0.0000000001
 12
1.0
 22
0.0
 32
0.0
 13
1.0
 23
0.0
 33
0.0
 40
0.0
 40
0.0
 40
0.0
 40
0.0
 40
1.0
 40
1.0
 40
1.0
 40
2.0
 40
2.0
 40
2.0
 40
3.0
 40
3.0
 40
3.0
 40
4.0
 40
4.0
 40
4.0
 40
4.0
 10
120.5637320659597
 20
135.4877208774574
 30
0.0
 10
119.8733106772435
 20
135.4877208774574
 30
0.0
 10
119.3138403996056
 20
134.928215322042
 30
0.0
 10
119.3138403996056
 20
134.237829211104
 30
0.0
 10
119.3138403996056
 20
133.5474431001647
 30
0.0
 10
119.8733106772435
 20
132.9879375447493
 30
0.0
 10
120.5637320659597
 20
132.9879375447493
 30
0.0
 10
121.2541181768983
 20
132.9879375447493
 30
0.0
 10
121.8135884545362
 20
133.5474431001647
 30
0.0
 10
121.8135884545362
 20
134.237829211104
 30
0.0
 10
121.8135884545362
 20
134.928215322042
 30
0.0
 10
121.2541181768983
 20
135.4877208774574
 30
0.0
 10
120.5637320659597
 20
135.4877208774574
 30
0.0
  0
SPLINE
  5
5C
330
1F
100
AcDbEntity
  8
Layer 1
 62
   179
420
  1907995
370
     9
100
AcDbSpline
210
0.0
220
0.0
230
1.0
 70
    11
 71
     3
 72
    17
 73
    13
 74
     0
 42
0.0000000001
 43
0.0000000001
 12
1.0
 22
0.0
 32
0.0
 13
1.0
 23
0.0
 33
0.0
 40
0.0
 40
0.0
 40
0.0
 40
0.0
 40
1.0
 40
1.0
 40
1.0
 40
2.0
 40
2.0
 40
2.0
 40
3.0
 40
3.0
 40
3.0
 40
4.0
 40
4.0
 40
4.0
 40
4.0
 10
120.5637320659597
 20
125.4879878244025
 30
0.0
 10
119.8733106772435
 20
125.4879878244025
 30
0.0
 10
119.3138403996056
 20
124.9284822689864
 30
0.0
 10
119.3138403996056
 20
124.2380961580478
 30
0.0
 10
119.3138403996056
 20
123.5477100471098
 30
0.0
 10
119.8733106772435
 20
122.9882044916937
 30
0.0
 10
120.5637320659597
 20
122.9882044916937
 30
0.0
 10
121.2541181768983
 20
122.9882044916937
 30
0.0
 10
121.8135884545362
 20
123.5477100471098
 30
0.0
 10
121.8135884545362
 20
124.2380961580478
 30
0.0
 10
121.8135884545362
 20
124.9284822689864
 30
0.0
 10
121.2541181768983
 20
125.4879878244025
 30
0.0
 10
120.5637320659597
 20
125.4879878244025
 30
0.0
  0
SPLINE
  5
5D
330
1F
100
AcDbEntity
  8
Layer 1
 62
   179
420
  1907995
370
     9
100
AcDbSpline
210
0.0
220
0.0
230
1.0
 70
    11
 71
     3
 72
    17
 73
    13
 74
     0
 42
0.0000000001
 43
0.0000000001
 12
1.0
 22
0.0
 32
0.0
 13
1.0
 23
0.0
 33
0.0
 40
0.0
 40
0.0
 40
0.0
 40
0.0
 40
1.0
 40
1.0
 40
1.0
 40
2.0
 40
2.0
 40
2.0
 40
3.0
 40
3.0
 40
3.0
 40
4.0
 40
4.0
 40
4.0
 40
4.0
 10
120.5637320659597
 20
115.4882547713463
 30
0.0
 10
119.8733106772435
 20
115.4882547713463
 30
0.0
 10
119.3138403996056
 20
114.9280789381535
 30
0.0
 10
119.3138403996056
 20
114.2383631049922
 30
0.0
 10
119.3138403996056
 20
113.5479769940536
 30
0.0
 10
119.8733106772435
 20
112.9878011608608
 30
0.0
 10
120.5637320659597
 20
112.9878011608608
 30
0.0
 10
121.2541181768983
 20
112.9878011608608
 30
0.0
 10
121.8135884545362
 20
113.5479769940536
 30
0.0
 10
121.8135884545362
 20
114.2383631049922
 30
0.0
 10
121.8135884545362
 20
114.9280789381535
 30
0.0
 10
121.2541181768983
 20
115.4882547713463
 30
0.0
 10
120.5637320659597
 20
115.4882547713463
 30
0.0
  0
SPLINE
  5
5E
330
1F
100
AcDbEntity
  8
Layer 1
 62
   179
420
  1907995
370
     9
100
AcDbSpline
210
0.0
220
0.0
230
1.0
 70
    11
 71
     3
 72
    17
 73
    13
 74
     0
 42
0.0000000001
 43
0.0000000001
 12
1.0
 22
0.0
 32
0.0
 13
1.0
 23
0.0
 33
0.0
 40
0.0
 40
0.0
 40
0.0
 40
0.0
 40
1.0
 40
1.0
 40
1.0
 40
2.0
 40
2.0
 40
2.0
 40
3.0
 40
3.0
 40
3.0
 40
4.0
 40
4.0
 40
4.0
 40
4.0
 10
130.5641353967926
 20
175.4880289230132
 30
0.0
 10
129.8737492858546
 20
175.4880289230132
 30
0.0
 10
129.3142437304385
 20
174.9285586453753
 30
0.0
 10
129.3142437304385
 20
174.2381372566592
 30
0.0
 10
129.3142437304385
 20
173.5477511457206
 30
0.0
 10
129.8737492858546
 20
172.9882808680826
 30
0.0
 10
130.5641353967926
 20
172.9882808680826
 30
0.0
 10
131.2545215077312
 20
172.9882808680826
 30
0.0
 10
131.8140270631473
 20
173.5477511457206
 30
0.0
 10
131.8140270631473
 20
174.2381372566592
 30
0.0
 10
131.8140270631473
 20
174.9285586453753
 30
0.0
 10
131.2545215077312
 20
175.4880289230132
 30
0.0
 10
130.5641353967926
 20
175.4880289230132
 30
0.0
  0
SPLINE
  5
5F
330
1F
100
AcDbEntity
  8
Layer 1
 62
   179
420
  1907995
370
     9
100
AcDbSpline
210
0.0
220
0.0
230
1.0
 70
    11
 71
     3
 72
    17
 73
    13
 74
     0
 42
0.0000000001
 43
0.0000000001
 12
1.0
 22
0.0
 32
0.0
 13
1.0
 23
0.0
 33
0.0
 40
0.0
 40
0.0
 40
0.0
 40
0.0
 40
1.0
 40
1.0
 40
1.0
 40
2.0
 40
2.0
 40
2.0
 40
3.0
 40
3.0
 40
3.0
 40
4.0
 40
4.0
 40
4.0
 40
4.0
 10
130.5641353967926
 20
165.4882958699577
 30
0.0
 10
129.8737492858546
 20
165.4882958699577
 30
0.0
 10
129.3142437304385
 20
164.9281200367642
 30
0.0
 10
129.3142437304385
 20
164.2384042036036
 30
0.0
 10
129.3142437304385
 20
163.548018092665
 30
0.0
 10
129.8737492858546
 20
162.9878422594715
 30
0.0
 10
130.5641353967926
 20
162.9878422594715
 30
0.0
 10
131.2545215077312
 20
162.9878422594715
 30
0.0
 10
131.8140270631473
 20
163.548018092665
 30
0.0
 10
131.8140270631473
 20
164.2384042036036
 30
0.0
 10
131.8140270631473
 20
164.9281200367642
 30
0.0
 10
131.2545215077312
 20
165.4882958699577
 30
0.0
 10
130.5641353967926
 20
165.4882958699577
 30
0.0
  0
SPLINE
  5
60
330
1F
100
AcDbEntity
  8
Layer 1
 62
   179
420
  1907995
370
     9
100
AcDbSpline
210
0.0
220
0.0
230
1.0
 70
    11
 71
     3
 72
    17
 73
    13
 74
     0
 42
0.0000000001
 43
0.0000000001
 12
1.0
 22
0.0
 32
0.0
 13
1.0
 23
0.0
 33
0.0
 40
0.0
 40
0.0
 40
0.0
 40
0.0
 40
1.0
 40
1.0
 40
1.0
 40
2.0
 40
2.0
 40
2.0
 40
3.0
 40
3.0
 40
3.0
 40
4.0
 40
4.0
 40
4.0
 40
4.0
 10
130.5641353967926
 20
155.4878572613466
 30
0.0
 10
129.8737492858546
 20
155.4878572613466
 30
0.0
 10
129.3142437304385
 20
154.9283869837087
 30
0.0
 10
129.3142437304385
 20
154.23800087277
 30
0.0
 10
129.3142437304385
 20
153.5475794840539
 30
0.0
 10
129.8737492858546
 20
152.988109206416
 30
0.0
 10
130.5641353967926
 20
152.988109206416
 30
0.0
 10
131.2545215077312
 20
152.988109206416
 30
0.0
 10
131.8140270631473
 20
153.5475794840539
 30
0.0
 10
131.8140270631473
 20
154.23800087277
 30
0.0
 10
131.8140270631473
 20
154.9283869837087
 30
0.0
 10
131.2545215077312
 20
155.4878572613466
 30
0.0
 10
130.5641353967926
 20
155.4878572613466
 30
0.0
  0
SPLINE
  5
61
330
1F
100
AcDbEntity
  8
Layer 1
 62
   179
420
  1907995
370
     9
100
AcDbSpline
210
0.0
220
0.0
230
1.0
 70
    11
 71
     3
 72
    17
 73
    13
 74
     0
 42
0.0000000001
 43
0.0000000001
 12
1.0
 22
0.0
 32
0.0
 13
1.0
 23
0.0
 33
0.0
 40
0.0
 40
0.0
 40
0.0
 40
0.0
 40
1.0
 40
1.0
 40
1.0
 40
2.0
 40
2.0
 40
2.0
 40
3.0
 40
3.0
 40
3.0
 40
4.0
 40
4.0
 40
4.0
 40
4.0
 10
130.5641353967926
 20
145.488124208291
 30
0.0
 10
129.8737492858546
 20
145.488124208291
 30
0.0
 10
129.3142437304385
 20
144.9286539306531
 30
0.0
 10
129.3142437304385
 20
144.2382678197145
 30
0.0
 10
129.3142437304385
 20
143.5478464309983
 30
0.0
 10
129.8737492858546
 20
142.9883761533604
 30
0.0
 10
130.5641353967926
 20
142.9883761533604
 30
0.0
 10
131.2545215077312
 20
142.9883761533604
 30
0.0
 10
131.8140270631473
 20
143.5478464309983
 30
0.0
 10
131.8140270631473
 20
144.2382678197145
 30
0.0
 10
131.8140270631473
 20
144.9286539306531
 30
0.0
 10
131.2545215077312
 20
145.488124208291
 30
0.0
 10
130.5641353967926
 20
145.488124208291
 30
0.0
  0
SPLINE
  5
62
330
1F
100
AcDbEntity
  8
Layer 1
 62
   179
420
  1907995
370
     9
100
AcDbSpline
210
0.0
220
0.0
230
1.0
 70
    11
 71
     3
 72
    17
 73
    13
 74
     0
 42
0.0000000001
 43
0.0000000001
 12
1.0
 22
0.0
 32
0.0
 13
1.0
 23
0.0
 33
0.0
 40
0.0
 40
0.0
 40
0.0
 40
0.0
 40
1.0
 40
1.0
 40
1.0
 40
2.0
 40
2.0
 40
2.0
 40
3.0
 40
3.0
 40
3.0
 40
4.0
 40
4.0
 40
4.0
 40
4.0
 10
130.5641353967926
 20
135.4877208774574
 30
0.0
 10
129.8737492858546
 20
135.4877208774574
 30
0.0
 10
129.3142437304385
 20
134.928215322042
 30
0.0
 10
129.3142437304385
 20
134.237829211104
 30
0.0
 10
129.3142437304385
 20
133.5474431001647
 30
0.0
 10
129.8737492858546
 20
132.9879375447493
 30
0.0
 10
130.5641353967926
 20
132.9879375447493
 30
0.0
 10
131.2545215077312
 20
132.9879375447493
 30
0.0
 10
131.8140270631473
 20
133.5474431001647
 30
0.0
 10
131.8140270631473
 20
134.237829211104
 30
0.0
 10
131.8140270631473
 20
134.928215322042
 30
0.0
 10
131.2545215077312
 20
135.4877208774574
 30
0.0
 10
130.5641353967926
 20
135.4877208774574
 30
0.0
  0
SPLINE
  5
63
330
1F
100
AcDbEntity
  8
Layer 1
 62
   179
420
  1907995
370
     9
100
AcDbSpline
210
0.0
220
0.0
230
1.0
 70
    11
 71
     3
 72
    17
 73
    13
 74
     0
 42
0.0000000001
 43
0.0000000001
 12
1.0
 22
0.0
 32
0.0
 13
1.0
 23
0.0
 33
0.0
 40
0.0
 40
0.0
 40
0.0
 40
0.0
 40
1.0
 40
1.0
 40
1.0
 40
2.0
 40
2.0
 40
2.0
 40
3.0
 40
3.0
 40
3.0
 40
4.0
 40
4.0
 40
4.0
 40
4.0
 10
130.5641353967926
 20
125.4879878244025
 30
0.0
 10
129.8737492858546
 20
125.4879878244025
 30
0.0
 10
129.3142437304385
 20
124.9284822689864
 30
0.0
 10
129.3142437304385
 20
124.2380961580478
 30
0.0
 10
129.3142437304385
 20
123.5477100471098
 30
0.0
 10
129.8737492858546
 20
122.9882044916937
 30
0.0
 10
130.5641353967926
 20
122.9882044916937
 30
0.0
 10
131.2545215077312
 20
122.9882044916937
 30
0.0
 10
131.8140270631473
 20
123.5477100471098
 30
0.0
 10
131.8140270631473
 20
124.2380961580478
 30
0.0
 10
131.8140270631473
 20
124.9284822689864
 30
0.0
 10
131.2545215077312
 20
125.4879878244025
 30
0.0
 10
130.5641353967926
 20
125.4879878244025
 30
0.0
  0
SPLINE
  5
64
330
1F
100
AcDbEntity
  8
Layer 1
 62
   179
420
  1907995
370
     9
100
AcDbSpline
210
0.0
220
0.0
230
1.0
 70
    11
 71
     3
 72
    17
 73
    13
 74
     0
 42
0.0000000001
 43
0.0000000001
 12
1.0
 22
0.0
 32
0.0
 13
1.0
 23
0.0
 33
0.0
 40
0.0
 40
0.0
 40
0.0
 40
0.0
 40
1.0
 40
1.0
 40
1.0
 40
2.0
 40
2.0
 40
2.0
 40
3.0
 40
3.0
 40
3.0
 40
4.0
 40
4.0
 40
4.0
 40
4.0
 10
130.5641353967926
 20
115.4882547713463
 30
0.0
 10
129.8737492858546
 20
115.4882547713463
 30
0.0
 10
129.3142437304385
 20
114.9280789381535
 30
0.0
 10
129.3142437304385
 20
114.2383631049922
 30
0.0
 10
129.3142437304385
 20
113.5479769940536
 30
0.0
 10
129.8737492858546
 20
112.9878011608608
 30
0.0
 10
130.5641353967926
 20
112.9878011608608
 30
0.0
 10
131.2545215077312
 20
112.9878011608608
 30
0.0
 10
131.8140270631473
 20
113.5479769940536
 30
0.0
 10
131.8140270631473
 20
114.2383631049922
 30
0.0
 10
131.8140270631473
 20
114.9280789381535
 30
0.0
 10
131.2545215077312
 20
115.4882547713463
 30
0.0
 10
130.5641353967926
 20
115.4882547713463
 30
0.0
  0
SPLINE
  5
65
330
1F
100
AcDbEntity
  8
Layer 1
 62
   179
420
  1907995
370
     9
100
AcDbSpline
210
0.0
220
0.0
230
1.0
 70
    11
 71
     3
 72
    17
 73
    13
 74
     0
 42
0.0000000001
 43
0.0000000001
 12
1.0
 22
0.0
 32
0.0
 13
1.0
 23
0.0
 33
0.0
 40
0.0
 40
0.0
 40
0.0
 40
0.0
 40
1.0
 40
1.0
 40
1.0
 40
2.0
 40
2.0
 40
2.0
 40
3.0
 40
3.0
 40
3.0
 40
4.0
 40
4.0
 40
4.0
 40
4.0
 10
140.5638684498481
 20
175.4880289230132
 30
0.0
 10
139.8734823389102
 20
175.4880289230132
 30
0.0
 10
139.3140120612723
 20
174.9285586453753
 30
0.0
 10
139.3140120612723
 20
174.2381372566592
 30
0.0
 10
139.3140120612723
 20
173.5477511457206
 30
0.0
 10
139.8734823389102
 20
172.9882808680826
 30
0.0
 10
140.5638684498481
 20
172.9882808680826
 30
0.0
 10
141.2542898385649
 20
172.9882808680826
 30
0.0
 10
141.8137601162029
 20
173.5477511457206
 30
0.0
 10
141.8137601162029
 20
174.2381372566592
 30
0.0
 10
141.8137601162029
 20
174.9285586453753
 30
0.0
 10
141.2542898385649
 20
175.4880289230132
 30
0.0
 10
140.5638684498481
 20
175.4880289230132
 30
0.0
  0
SPLINE
  5
66
330
1F
100
AcDbEntity
  8
Layer 1
 62
   179
420
  1907995
370
     9
100
AcDbSpline
210
0.0
220
0.0
230
1.0
 70
    11
 71
     3
 72
    17
 73
    13
 74
     0
 42
0.0000000001
 43
0.0000000001
 12
1.0
 22
0.0
 32
0.0
 13
1.0
 23
0.0
 33
0.0
 40
0.0
 40
0.0
 40
0.0
 40
0.0
 40
1.0
 40
1.0
 40
1.0
 40
2.0
 40
2.0
 40
2.0
 40
3.0
 40
3.0
 40
3.0
 40
4.0
 40
4.0
 40
4.0
 40
4.0
 10
140.5638684498481
 20
165.4882958699577
 30
0.0
 10
139.8734823389102
 20
165.4882958699577
 30
0.0
 10
139.3140120612723
 20
164.9281200367642
 30
0.0
 10
139.3140120612723
 20
164.2384042036036
 30
0.0
 10
139.3140120612723
 20
163.548018092665
 30
0.0
 10
139.8734823389102
 20
162.9878422594715
 30
0.0
 10
140.5638684498481
 20
162.9878422594715
 30
0.0
 10
141.2542898385649
 20
162.9878422594715
 30
0.0
 10
141.8137601162029
 20
163.548018092665
 30
0.0
 10
141.8137601162029
 20
164.2384042036036
 30
0.0
 10
141.8137601162029
 20
164.9281200367642
 30
0.0
 10
141.2542898385649
 20
165.4882958699577
 30
0.0
 10
140.5638684498481
 20
165.4882958699577
 30
0.0
  0
SPLINE
  5
67
330
1F
100
AcDbEntity
  8
Layer 1
 62
   179
420
  1907995
370
     9
100
AcDbSpline
210
0.0
220
0.0
230
1.0
 70
    11
 71
     3
 72
    17
 73
    13
 74
     0
 42
0.0000000001
 43
0.0000000001
 12
1.0
 22
0.0
 32
0.0
 13
1.0
 23
0.0
 33
0.0
 40
0.0
 40
0.0
 40
0.0
 40
0.0
 40
1.0
 40
1.0
 40
1.0
 40
2.0
 40
2.0
 40
2.0
 40
3.0
 40
3.0
 40
3.0
 40
4.0
 40
4.0
 40
4.0
 40
4.0
 10
140.5638684498481
 20
155.4878572613466
 30
0.0
 10
139.8734823389102
 20
155.4878572613466
 30
0.0
 10
139.3140120612723
 20
154.9283869837087
 30
0.0
 10
139.3140120612723
 20
154.23800087277
 30
0.0
 10
139.3140120612723
 20
153.5475794840539
 30
0.0
 10
139.8734823389102
 20
152.988109206416
 30
0.0
 10
140.5638684498481
 20
152.988109206416
 30
0.0
 10
141.2542898385649
 20
152.988109206416
 30
0.0
 10
141.8137601162029
 20
153.5475794840539
 30
0.0
 10
141.8137601162029
 20
154.23800087277
 30
0.0
 10
141.8137601162029
 20
154.9283869837087
 30
0.0
 10
141.2542898385649
 20
155.4878572613466
 30
0.0
 10
140.5638684498481
 20
155.4878572613466
 30
0.0
  0
SPLINE
  5
68
330
1F
100
AcDbEntity
  8
Layer 1
 62
   179
420
  1907995
370
     9
100
AcDbSpline
210
0.0
220
0.0
230
1.0
 70
    11
 71
     3
 72
    17
 73
    13
 74
     0
 42
0.0000000001
 43
0.0000000001
 12
1.0
 22
0.0
 32
0.0
 13
1.0
 23
0.0
 33
0.0
 40
0.0
 40
0.0
 40
0.0
 40
0.0
 40
1.0
 40
1.0
 40
1.0
 40
2.0
 40
2.0
 40
2.0
 40
3.0
 40
3.0
 40
3.0
 40
4.0
 40
4.0
 40
4.0
 40
4.0
 10
140.5638684498481
 20
145.488124208291
 30
0.0
 10
139.8734823389102
 20
145.488124208291
 30
0.0
 10
139.3140120612723
 20
144.9286539306531
 30
0.0
 10
139.3140120612723
 20
144.2382678197145
 30
0.0
 10
139.3140120612723
 20
143.5478464309983
 30
0.0
 10
139.8734823389102
 20
142.9883761533604
 30
0.0
 10
140.5638684498481
 20
142.9883761533604
 30
0.0
 10
141.2542898385649
 20
142.9883761533604
 30
0.0
 10
141.8137601162029
 20
143.5478464309983
 30
0.0
 10
141.8137601162029
 20
144.2382678197145
 30
0.0
 10
141.8137601162029
 20
144.9286539306531
 30
0.0
 10
141.2542898385649
 20
145.488124208291
 30
0.0
 10
140.5638684498481
 20
145.488124208291
 30
0.0
  0
SPLINE
  5
69
330
1F
100
AcDbEntity
  8
Layer 1
 62
   179
420
  1907995
370
     9
100
AcDbSpline
210
0.0
220
0.0
230
1.0
 70
    11
 71
     3
 72
    17
 73
    13
 74
     0
 42
0.0000000001
 43
0.0000000001
 12
1.0
 22
0.0
 32
0.0
 13
1.0
 23
0.0
 33
0.0
 40
0.0
 40
0.0
 40
0.0
 40
0.0
 40
1.0
 40
1.0
 40
1.0
 40
2.0
 40
2.0
 40
2.0
 40
3.0
 40
3.0
 40
3.0
 40
4.0
 40
4.0
 40
4.0
 40
4.0
 10
140.5638684498481
 20
135.4877208774574
 30
0.0
 10
139.8734823389102
 20
135.4877208774574
 30
0.0
 10
139.3140120612723
 20
134.928215322042
 30
0.0
 10
139.3140120612723
 20
134.237829211104
 30
0.0
 10
139.3140120612723
 20
133.5474431001647
 30
0.0
 10
139.8734823389102
 20
132.9879375447493
 30
0.0
 10
140.5638684498481
 20
132.9879375447493
 30
0.0
 10
141.2542898385649
 20
132.9879375447493
 30
0.0
 10
141.8137601162029
 20
133.5474431001647
 30
0.0
 10
141.8137601162029
 20
134.237829211104
 30
0.0
 10
141.8137601162029
 20
134.928215322042
 30
0.0
 10
141.2542898385649
 20
135.4877208774574
 30
0.0
 10
140.5638684498481
 20
135.4877208774574
 30
0.0
  0
SPLINE
  5
6A
330
1F
100
AcDbEntity
  8
Layer 1
 62
   179
420
  1907995
370
     9
100
AcDbSpline
210
0.0
220
0.0
230
1.0
 70
    11
 71
     3
 72
    17
 73
    13
 74
     0
 42
0.0000000001
 43
0.0000000001
 12
1.0
 22
0.0
 32
0.0
 13
1.0
 23
0.0
 33
0.0
 40
0.0
 40
0.0
 40
0.0
 40
0.0
 40
1.0
 40
1.0
 40
1.0
 40
2.0
 40
2.0
 40
2.0
 40
3.0
 40
3.0
 40
3.0
 40
4.0
 40
4.0
 40
4.0
 40
4.0
 10
140.5638684498481
 20
125.4879878244025
 30
0.0
 10
139.8734823389102
 20
125.4879878244025
 30
0.0
 10
139.3140120612723
 20
124.9284822689864
 30
0.0
 10
139.3140120612723
 20
124.2380961580478
 30
0.0
 10
139.3140120612723
 20
123.5477100471098
 30
0.0
 10
139.8734823389102
 20
122.9882044916937
 30
0.0
 10
140.5638684498481
 20
122.9882044916937
 30
0.0
 10
141.2542898385649
 20
122.9882044916937
 30
0.0
 10
141.8137601162029
 20
123.5477100471098
 30
0.0
 10
141.8137601162029
 20
124.2380961580478
 30
0.0
 10
141.8137601162029
 20
124.9284822689864
 30
0.0
 10
141.2542898385649
 20
125.4879878244025
 30
0.0
 10
140.5638684498481
 20
125.4879878244025
 30
0.0
  0
SPLINE
  5
6B
330
1F
100
AcDbEntity
  8
Layer 1
 62
   179
420
  1907995
370
     9
100
AcDbSpline
210
0.0
220
0.0
230
1.0
 70
    11
 71
     3
 72
    17
 73
    13
 74
     0
 42
0.0000000001
 43
0.0000000001
 12
1.0
 22
0.0
 32
0.0
 13
1.0
 23
0.0
 33
0.0
 40
0.0
 40
0.0
 40
0.0
 40
0.0
 40
1.0
 40
1.0
 40
1.0
 40
2.0
 40
2.0
 40
2.0
 40
3.0
 40
3.0
 40
3.0
 40
4.0
 40
4.0
 40
4.0
 40
4.0
 10
140.5638684498481
 20
115.4882547713463
 30
0.0
 10
139.8734823389102
 20
115.4882547713463
 30
0.0
 10
139.3140120612723
 20
114.9280789381535
 30
0.0
 10
139.3140120612723
 20
114.2383631049922
 30
0.0
 10
139.3140120612723
 20
113.5479769940536
 30
0.0
 10
139.8734823389102
 20
112.9878011608608
 30
0.0
 10
140.5638684498481
 20
112.9878011608608
 30
0.0
 10
141.2542898385649
 20
112.9878011608608
 30
0.0
 10
141.8137601162029
 20
113.5479769940536
 30
0.0
 10
141.8137601162029
 20
114.2383631049922
 30
0.0
 10
141.8137601162029
 20
114.9280789381535
 30
0.0
 10
141.2542898385649
 20
115.4882547713463
 30
0.0
 10
140.5638684498481
 20
115.4882547713463
 30
0.0
  0
SPLINE
  5
6C
330
1F
100
AcDbEntity
  8
Layer 1
 62
   179
420
  1907995
370
     9
100
AcDbSpline
210
0.0
220
0.0
230
1.0
 70
    11
 71
     3
 72
    17
 73
    13
 74
     0
 42
0.0000000001
 43
0.0000000001
 12
1.0
 22
0.0
 32
0.0
 13
1.0
 23
0.0
 33
0.0
 40
0.0
 40
0.0
 40
0.0
 40
0.0
 40
1.0
 40
1.0
 40
1.0
 40
2.0
 40
2.0
 40
2.0
 40
3.0
 40
3.0
 40
3.0
 40
4.0
 40
4.0
 40
4.0
 40
4.0
 10
150.5636015029044
 20
175.4880289230132
 30
0.0
 10
149.8732153919657
 20
175.4880289230132
 30
0.0
 10
149.3137451143278
 20
174.9285586453753
 30
0.0
 10
149.3137451143278
 20
174.2381372566592
 30
0.0
 10
149.3137451143278
 20
173.5477511457206
 30
0.0
 10
149.8732153919657
 20
172.9882808680826
 30
0.0
 10
150.5636015029044
 20
172.9882808680826
 30
0.0
 10
151.2540228916205
 20
172.9882808680826
 30
0.0
 10
151.8134931692584
 20
173.5477511457206
 30
0.0
 10
151.8134931692584
 20
174.2381372566592
 30
0.0
 10
151.8134931692584
 20
174.9285586453753
 30
0.0
 10
151.2540228916205
 20
175.4880289230132
 30
0.0
 10
150.5636015029044
 20
175.4880289230132
 30
0.0
  0
SPLINE
  5
6D
330
1F
100
AcDbEntity
  8
Layer 1
 62
   179
420
  1907995
370
     9
100
AcDbSpline
210
0.0
220
0.0
230
1.0
 70
    11
 71
     3
 72
    17
 73
    13
 74
     0
 42
0.0000000001
 43
0.0000000001
 12
1.0
 22
0.0
 32
0.0
 13
1.0
 23
0.0
 33
0.0
 40
0.0
 40
0.0
 40
0.0
 40
0.0
 40
1.0
 40
1.0
 40
1.0
 40
2.0
 40
2.0
 40
2.0
 40
3.0
 40
3.0
 40
3.0
 40
4.0
 40
4.0
 40
4.0
 40
4.0
 10
150.5636015029044
 20
165.4882958699577
 30
0.0
 10
149.8732153919657
 20
165.4882958699577
 30
0.0
 10
149.3137451143278
 20
164.9281200367642
 30
0.0
 10
149.3137451143278
 20
164.2384042036036
 30
0.0
 10
149.3137451143278
 20
163.548018092665
 30
0.0
 10
149.8732153919657
 20
162.9878422594715
 30
0.0
 10
150.5636015029044
 20
162.9878422594715
 30
0.0
 10
151.2540228916205
 20
162.9878422594715
 30
0.0
 10
151.8134931692584
 20
163.548018092665
 30
0.0
 10
151.8134931692584
 20
164.2384042036036
 30
0.0
 10
151.8134931692584
 20
164.9281200367642
 30
0.0
 10
151.2540228916205
 20
165.4882958699577
 30
0.0
 10
150.5636015029044
 20
165.4882958699577
 30
0.0
  0
SPLINE
  5
6E
330
1F
100
AcDbEntity
  8
Layer 1
 62
   179
420
  1907995
370
     9
100
AcDbSpline
210
0.0
220
0.0
230
1.0
 70
    11
 71
     3
 72
    17
 73
    13
 74
     0
 42
0.0000000001
 43
0.0000000001
 12
1.0
 22
0.0
 32
0.0
 13
1.0
 23
0.0
 33
0.0
 40
0.0
 40
0.0
 40
0.0
 40
0.0
 40
1.0
 40
1.0
 40
1.0
 40
2.0
 40
2.0
 40
2.0
 40
3.0
 40
3.0
 40
3.0
 40
4.0
 40
4.0
 40
4.0
 40
4.0
 10
150.5636015029044
 20
155.4878572613466
 30
0.0
 10
149.8732153919657
 20
155.4878572613466
 30
0.0
 10
149.3137451143278
 20
154.9283869837087
 30
0.0
 10
149.3137451143278
 20
154.23800087277
 30
0.0
 10
149.3137451143278
 20
153.5475794840539
 30
0.0
 10
149.8732153919657
 20
152.988109206416
 30
0.0
 10
150.5636015029044
 20
152.988109206416
 30
0.0
 10
151.2540228916205
 20
152.988109206416
 30
0.0
 10
151.8134931692584
 20
153.5475794840539
 30
0.0
 10
151.8134931692584
 20
154.23800087277
 30
0.0
 10
151.8134931692584
 20
154.9283869837087
 30
0.0
 10
151.2540228916205
 20
155.4878572613466
 30
0.0
 10
150.5636015029044
 20
155.4878572613466
 30
0.0
  0
SPLINE
  5
6F
330
1F
100
AcDbEntity
  8
Layer 1
 62
   179
420
  1907995
370
     9
100
AcDbSpline
210
0.0
220
0.0
230
1.0
 70
    11
 71
     3
 72
    17
 73
    13
 74
     0
 42
0.0000000001
 43
0.0000000001
 12
1.0
 22
0.0
 32
0.0
 13
1.0
 23
0.0
 33
0.0
 40
0.0
 40
0.0
 40
0.0
 40
0.0
 40
1.0
 40
1.0
 40
1.0
 40
2.0
 40
2.0
 40
2.0
 40
3.0
 40
3.0
 40
3.0
 40
4.0
 40
4.0
 40
4.0
 40
4.0
 10
150.5636015029044
 20
145.488124208291
 30
0.0
 10
149.8732153919657
 20
145.488124208291
 30
0.0
 10
149.3137451143278
 20
144.9286539306531
 30
0.0
 10
149.3137451143278
 20
144.2382678197145
 30
0.0
 10
149.3137451143278
 20
143.5478464309983
 30
0.0
 10
149.8732153919657
 20
142.9883761533604
 30
0.0
 10
150.5636015029044
 20
142.9883761533604
 30
0.0
 10
151.2540228916205
 20
142.9883761533604
 30
0.0
 10
151.8134931692584
 20
143.5478464309983
 30
0.0
 10
151.8134931692584
 20
144.2382678197145
 30
0.0
 10
151.8134931692584
 20
144.9286539306531
 30
0.0
 10
151.2540228916205
 20
145.488124208291
 30
0.0
 10
150.5636015029044
 20
145.488124208291
 30
0.0
  0
SPLINE
  5
70
330
1F
100
AcDbEntity
  8
Layer 1
 62
   179
420
  1907995
370
     9
100
AcDbSpline
210
0.0
220
0.0
230
1.0
 70
    11
 71
     3
 72
    17
 73
    13
 74
     0
 42
0.0000000001
 43
0.0000000001
 12
1.0
 22
0.0
 32
0.0
 13
1.0
 23
0.0
 33
0.0
 40
0.0
 40
0.0
 40
0.0
 40
0.0
 40
1.0
 40
1.0
 40
1.0
 40
2.0
 40
2.0
 40
2.0
 40
3.0
 40
3.0
 40
3.0
 40
4.0
 40
4.0
 40
4.0
 40
4.0
 10
150.5636015029044
 20
135.4877208774574
 30
0.0
 10
149.8732153919657
 20
135.4877208774574
 30
0.0
 10
149.3137451143278
 20
134.928215322042
 30
0.0
 10
149.3137451143278
 20
134.237829211104
 30
0.0
 10
149.3137451143278
 20
133.5474431001647
 30
0.0
 10
149.8732153919657
 20
132.9879375447493
 30
0.0
 10
150.5636015029044
 20
132.9879375447493
 30
0.0
 10
151.2540228916205
 20
132.9879375447493
 30
0.0
 10
151.8134931692584
 20
133.5474431001647
 30
0.0
 10
151.8134931692584
 20
134.237829211104
 30
0.0
 10
151.8134931692584
 20
134.928215322042
 30
0.0
 10
151.2540228916205
 20
135.4877208774574
 30
0.0
 10
150.5636015029044
 20
135.4877208774574
 30
0.0
  0
SPLINE
  5
71
330
1F
100
AcDbEntity
  8
Layer 1
 62
   179
420
  1907995
370
     9
100
AcDbSpline
210
0.0
220
0.0
230
1.0
 70
    11
 71
     3
 72
    17
 73
    13
 74
     0
 42
0.0000000001
 43
0.0000000001
 12
1.0
 22
0.0
 32
0.0
 13
1.0
 23
0.0
 33
0.0
 40
0.0
 40
0.0
 40
0.0
 40
0.0
 40
1.0
 40
1.0
 40
1.0
 40
2.0
 40
2.0
 40
2.0
 40
3.0
 40
3.0
 40
3.0
 40
4.0
 40
4.0
 40
4.0
 40
4.0
 10
150.5636015029044
 20
125.4879878244025
 30
0.0
 10
149.8732153919657
 20
125.4879878244025
 30
0.0
 10
149.3137451143278
 20
124.9284822689864
 30
0.0
 10
149.3137451143278
 20
124.2380961580478
 30
0.0
 10
149.3137451143278
 20
123.5477100471098
 30
0.0
 10
149.8732153919657
 20
122.9882044916937
 30
0.0
 10
150.5636015029044
 20
122.9882044916937
 30
0.0
 10
151.2540228916205
 20
122.9882044916937
 30
0.0
 10
151.8134931692584
 20
123.5477100471098
 30
0.0
 10
151.8134931692584
 20
124.2380961580478
 30
0.0
 10
151.8134931692584
 20
124.9284822689864
 30
0.0
 10
151.2540228916205
 20
125.4879878244025
 30
0.0
 10
150.5636015029044
 20
125.4879878244025
 30
0.0
  0
SPLINE
  5
72
330
1F
100
AcDbEntity
  8
Layer 1
 62
   179
420
  1907995
370
     9
100
AcDbSpline
210
0.0
220
0.0
230
1.0
 70
    11
 71
     3
 72
    17
 73
    13
 74
     0
 42
0.0000000001
 43
0.0000000001
 12
1.0
 22
0.0
 32
0.0
 13
1.0
 23
0.0
 33
0.0
 40
0.0
 40
0.0
 40
0.0
 40
0.0
 40
1.0
 40
1.0
 40
1.0
 40
2.0
 40
2.0
 40
2.0
 40
3.0
 40
3.0
 40
3.0
 40
4.0
 40
4.0
 40
4.0
 40
4.0
 10
150.5636015029044
 20
115.4882547713463
 30
0.0
 10
149.8732153919657
 20
115.4882547713463
 30
0.0
 10
149.3137451143278
 20
114.9280789381535
 30
0.0
 10
149.3137451143278
 20
114.2383631049922
 30
0.0
 10
149.3137451143278
 20
113.5479769940536
 30
0.0
 10
149.8732153919657
 20
112.9878011608608
 30
0.0
 10
150.5636015029044
 20
112.9878011608608
 30
0.0
 10
151.2540228916205
 20
112.9878011608608
 30
0.0
 10
151.8134931692584
 20
113.5479769940536
 30
0.0
 10
151.8134931692584
 20
114.2383631049922
 30
0.0
 10
151.8134931692584
 20
114.9280789381535
 30
0.0
 10
151.2540228916205
 20
115.4882547713463
 30
0.0
 10
150.5636015029044
 20
115.4882547713463
 30
0.0
  0
POLYLINE
  5
73
330
1F
100
AcDbEntity
  8
Layer 1
 62
   179
420
  1907995
370
     9
100
AcDb2dPolyline
 66
     1
 10
0.0
 20
0.0
 30
0.0
  0
VERTEX
  5
74
330
73
100
AcDbEntity
  8
Layer 1
 62
   179
420
  1907995
370
     9
100
AcDbVertex
100
AcDb2dVertex
 10
90.56381876211695
 20
174.2381372566592
 30
0.0
  0
VERTEX
  5
76
330
73
100
AcDbEntity
  8
0
100
AcDbVertex
100
AcDb2dVertex
 10
90.56381876211695
 20
174.2381372566592
 30
0.0
  0
SEQEND
  5
75
330
73
100
AcDbEntity
  8
Layer 1
 62
   179
420
  1907995
370
     9
  0
ENDSEC
  0
SECTION
  2
OBJECTS
  0
DICTIONARY
  5
C
330
0
100
AcDbDictionary
281
     1
  3
ACAD_GROUP
350
D
  3
ACAD_LAYOUT
350
1A
  3
ACAD_MATERIAL
350
3B
  3
ACAD_MLEADERSTYLE
350
78
  3
ACAD_MLINESTYLE
350
17
  3
ACAD_PLOTSETTINGS
350
19
  3
ACAD_PLOTSTYLENAME
350
E
  3
ACAD_TABLESTYLE
350
77
  3
ACAD_VISUALSTYLE
350
2A
  0
SUN
  5
3F
330
29
100
AcDbSun
 90
        1
290
     0
 63
     7
421
 16777215
 40
1.0
291
     1
 91
  2455826
 92
 54000000
292
     0
 70
     2
 71
   256
280
     1
  0
DICTIONARY
  5
D
102
{ACAD_REACTORS
330
C
102
}
330
C
100
AcDbDictionary
281
     1
  0
DICTIONARY
  5
1A
102
{ACAD_REACTORS
330
C
102
}
330
C
100
AcDbDictionary
281
     1
  3
Layout1
350
1E
  3
Layout2
350
26
  3
Model
350
22
  0
DICTIONARY
  5
3B
102
{ACAD_REACTORS
330
C
102
}
330
C
100
AcDbDictionary
281
     1
  3
ByBlock
350
3D
  3
ByLayer
350
3C
  3
Global
350
3E
  0
DICTIONARY
  5
78
102
{ACAD_REACTORS
330
C
102
}
330
C
100
AcDbDictionary
281
     1
  0
DICTIONARY
  5
17
102
{ACAD_REACTORS
330
C
102
}
330
C
100
AcDbDictionary
281
     1
  3
Standard
350
18
  0
DICTIONARY
  5
19
102
{ACAD_REACTORS
330
C
102
}
330
C
100
AcDbDictionary
281
     1
  0
ACDBDICTIONARYWDFLT
  5
E
102
{ACAD_REACTORS
330
C
102
}
330
C
100
AcDbDictionary
281
     1
  3
Normal
350
F
100
AcDbDictionaryWithDefault
340
F
  0
DICTIONARY
  5
77
102
{ACAD_REACTORS
330
C
102
}
330
C
100
AcDbDictionary
281
     1
  0
DICTIONARY
  5
2A
102
{ACAD_REACTORS
330
C
102
}
330
C
100
AcDbDictionary
281
     1
  3
2dWireframe
350
2F
  3
3D Hidden
350
31
  3
3dWireframe
350
30
  3
Basic
350
32
  3
Brighten
350
36
  3
ColorChange
350
3A
  3
Conceptual
350
34
  3
Dim
350
35
  3
Facepattern
350
39
  3
Flat
350
2B
  3
FlatWithEdges
350
2C
  3
Gouraud
350
2D
  3
GouraudWithEdges
350
2E
  3
Linepattern
350
38
  3
Realistic
350
33
  3
Thicken
350
37
  0
LAYOUT
  5
1E
102
{ACAD_REACTORS
330
1A
102
}
330
1A
100
AcDbPlotSettings
  1

  2
none_device
  4

  6

 40
0.0
 41
0.0
 42
0.0
 43
0.0
 44
0.0
 45
0.0
 46
0.0
 47
0.0
 48
0.0
 49
0.0
140
0.0
141
0.0
142
1.0
143
1.0
 70
   688
 72
     0
 73
     0
 74
     5
  7

 75
    16
 76
     0
 77
     2
 78
   300
147
1.0
148
0.0
149
0.0
100
AcDbLayout
  1
Layout1
 70
     1
 71
     1
 10
0.0
 20
0.0
 11
12.0
 21
9.0
 12
0.0
 22
0.0
 32
0.0
 14
1.000000000000000E+20
 24
1.000000000000000E+20
 34
1.000000000000000E+20
 15
-1.000000000000000E+20
 25
-1.000000000000000E+20
 35
-1.000000000000000E+20
146
0.0
 13
0.0
 23
0.0
 33
0.0
 16
1.0
 26
0.0
 36
0.0
 17
0.0
 27
1.0
 37
0.0
 76
     0
330
1B
  0
LAYOUT
  5
26
102
{ACAD_REACTORS
330
1A
102
}
330
1A
100
AcDbPlotSettings
  1

  2
none_device
  4

  6

 40
0.0
 41
0.0
 42
0.0
 43
0.0
 44
0.0
 45
0.0
 46
0.0
 47
0.0
 48
0.0
 49
0.0
140
0.0
141
0.0
142
1.0
143
1.0
 70
   688
 72
     0
 73
     0
 74
     5
  7

 75
    16
 76
     0
 77
     2
 78
   300
147
1.0
148
0.0
149
0.0
100
AcDbLayout
  1
Layout2
 70
     1
 71
     2
 10
0.0
 20
0.0
 11
0.0
 21
0.0
 12
0.0
 22
0.0
 32
0.0
 14
0.0
 24
0.0
 34
0.0
 15
0.0
 25
0.0
 35
0.0
146
0.0
 13
0.0
 23
0.0
 33
0.0
 16
1.0
 26
0.0
 36
0.0
 17
0.0
 27
1.0
 37
0.0
 76
     0
330
23
  0
LAYOUT
  5
22
102
{ACAD_REACTORS
330
1A
102
}
330
1A
100
AcDbPlotSettings
  1

  2
none_device
  4

  6

 40
0.0
 41
0.0
 42
0.0
 43
0.0
 44
0.0
 45
0.0
 46
0.0
 47
0.0
 48
0.0
 49
0.0
140
0.0
141
0.0
142
1.0
143
1.0
 70
  1712
 72
     0
 73
     0
 74
     0
  7

 75
     0
 76
     0
 77
     2
 78
   300
147
1.0
148
0.0
149
0.0
100
AcDbLayout
  1
Model
 70
     1
 71
     0
 10
0.0
 20
0.0
 11
12.0
 21
9.0
 12
0.0
 22
0.0
 32
0.0
 14
1.000000000000000E+20
 24
1.000000000000000E+20
 34
1.000000000000000E+20
 15
-1.000000000000000E+20
 25
-1.000000000000000E+20
 35
-1.000000000000000E+20
146
0.0
 13
0.0
 23
0.0
 33
0.0
 16
1.0
 26
0.0
 36
0.0
 17
0.0
 27
1.0
 37
0.0
 76
     0
330
1F
331
29
  0
MATERIAL
  5
3D
102
{ACAD_REACTORS
330
3B
102
}
330
3B
100
AcDbMaterial
  1
ByBlock
 72
     1
 94
      127
  0
MATERIAL
  5
3C
102
{ACAD_REACTORS
330
3B
102
}
330
3B
100
AcDbMaterial
  1
ByLayer
 72
     1
 94
      127
  0
MATERIAL
  5
3E
102
{ACAD_REACTORS
330
3B
102
}
330
3B
100
AcDbMaterial
  1
Global
 72
     1
 94
      127
  0
MLINESTYLE
  5
18
102
{ACAD_REACTORS
330
17
102
}
330
17
100
AcDbMlineStyle
  2
Standard
 70
     0
  3

 62
   256
 51
90.0
 52
90.0
 71
     2
 49
0.5
 62
   256
  6
BYLAYER
 49
-0.5
 62
   256
  6
BYLAYER
  0
ACDBPLACEHOLDER
  5
F
102
{ACAD_REACTORS
330
E
102
}
330
E
  0
VISUALSTYLE
  5
2F
102
{ACAD_REACTORS
330
2A
102
}
330
2A
100
AcDbVisualStyle
  2
2dWireframe
 70
     4
177
     2
291
     0
 71
     0
176
     1
 72
     2
176
     1
 73
     0
176
     1
 90
        0
176
     1
 40
-0.6
176
     1
 41
-30.0
176
     1
 62
     5
 63
     7
421
 16777215
176
     1
 74
     1
176
     1
 91
        4
176
     1
 64
     7
176
     1
 65
   257
176
     1
 75
     1
176
     1
175
     1
176
     1
 42
1.0
176
     1
 92
        0
176
     1
 66
   257
176
     1
 43
1.0
176
     1
 76
     1
176
     1
 77
     6
176
     1
 78
     2
176
     1
 67
     7
176
     1
 79
     5
176
     1
170
     0
176
     1
171
     0
176
     1
290
     0
176
     1
 93
        1
176
     1
 44
0.0
176
     1
173
     0
176
     1
  0
VISUALSTYLE
  5
31
102
{ACAD_REACTORS
330
2A
102
}
330
2A
100
AcDbVisualStyle
  2
3D Hidden
 70
     6
177
     2
291
     0
 71
     1
176
     1
 72
     2
176
     1
 73
     2
176
     1
 90
        0
176
     1
 40
-0.6
176
     1
 41
-30.0
176
     1
 62
     5
 63
     7
421
 16777215
176
     1
 74
     2
176
     1
 91
        2
176
     1
 64
     7
176
     1
 65
   257
176
     1
 75
     2
176
     1
175
     1
176
     1
 42
40.0
176
     1
 92
        0
176
     1
 66
   257
176
     1
 43
1.0
176
     1
 76
     1
176
     1
 77
     6
176
     1
 78
     2
176
     1
 67
     7
176
     1
 79
     3
176
     1
170
     0
176
     1
171
     0
176
     1
290
     0
176
     1
 93
        1
176
     1
 44
0.0
176
     1
173
     0
176
     1
  0
VISUALSTYLE
  5
30
102
{ACAD_REACTORS
330
2A
102
}
330
2A
100
AcDbVisualStyle
  2
3dWireframe
 70
     5
177
     2
291
     0
 71
     0
176
     1
 72
     2
176
     1
 73
     0
176
     1
 90
        0
176
     1
 40
-0.6
176
     1
 41
-30.0
176
     1
 62
     5
 63
     7
421
 16777215
176
     1
 74
     1
176
     1
 91
        4
176
     1
 64
     7
176
     1
 65
   257
176
     1
 75
     1
176
     1
175
     1
176
     1
 42
1.0
176
     1
 92
        0
176
     1
 66
   257
176
     1
 43
1.0
176
     1
 76
     1
176
     1
 77
     6
176
     1
 78
     2
176
     1
 67
     7
176
     1
 79
     5
176
     1
170
     0
176
     1
171
     0
176
     1
290
     0
176
     1
 93
        1
176
     1
 44
0.0
176
     1
173
     0
176
     1
  0
VISUALSTYLE
  5
32
102
{ACAD_REACTORS
330
2A
102
}
330
2A
100
AcDbVisualStyle
  2
Basic
 70
     7
177
     2
291
     1
 71
     1
176
     1
 72
     0
176
     1
 73
     1
176
     1
 90
        0
176
     1
 40
-0.6
176
     1
 41
-30.0
176
     1
 62
     5
 63
     7
421
 16777215
176
     1
 74
     0
176
     1
 91
        4
176
     1
 64
     7
176
     1
 65
   257
176
     1
 75
     1
176
     1
175
     1
176
     1
 42
1.0
176
     1
 92
        8
176
     1
 66
     7
176
     1
 43
1.0
176
     1
 76
     1
176
     1
 77
     6
176
     1
 78
     2
176
     1
 67
     7
176
     1
 79
     5
176
     1
170
     0
176
     1
171
     0
176
     1
290
     0
176
     1
 93
        1
176
     1
 44
0.0
176
     1
173
     0
176
     1
  0
VISUALSTYLE
  5
36
102
{ACAD_REACTORS
330
2A
102
}
330
2A
100
AcDbVisualStyle
  2
Brighten
 70
    12
177
     2
291
     1
 71
     2
176
     1
 72
     2
176
     1
 73
     0
176
     1
 90
        0
176
     1
 40
-0.6
176
     1
 41
-30.0
176
     1
 62
     5
 63
     7
421
 16777215
176
     1
 74
     1
176
     1
 91
        4
176
     1
 64
     7
176
     1
 65
   257
176
     1
 75
     1
176
     1
175
     1
176
     1
 42
1.0
176
     1
 92
        8
176
     1
 66
     7
176
     1
 43
1.0
176
     1
 76
     1
176
     1
 77
     6
176
     1
 78
     2
176
     1
 67
     7
176
     1
 79
     5
176
     1
170
     0
176
     1
171
     0
176
     1
290
     0
176
     1
 93
        1
176
     1
 44
50.0
176
     1
173
     0
176
     1
  0
VISUALSTYLE
  5
3A
102
{ACAD_REACTORS
330
2A
102
}
330
2A
100
AcDbVisualStyle
  2
ColorChange
 70
    16
177
     2
291
     1
 71
     2
176
     1
 72
     2
176
     1
 73
     3
176
     1
 90
        0
176
     1
 40
-0.6
176
     1
 41
-30.0
176
     1
 62
     5
 63
     8
421
  8421504
176
     1
 74
     1
176
     1
 91
        4
176
     1
 64
     7
176
     1
 65
   257
176
     1
 75
     1
176
     1
175
     1
176
     1
 42
1.0
176
     1
 92
        8
176
     1
 66
     8
424
  8421504
176
     1
 43
1.0
176
     1
 76
     1
176
     1
 77
     6
176
     1
 78
     2
176
     1
 67
     7
176
     1
 79
     5
176
     1
170
     0
176
     1
171
     0
176
     1
290
     0
176
     1
 93
        1
176
     1
 44
0.0
176
     1
173
     0
176
     1
  0
VISUALSTYLE
  5
34
102
{ACAD_REACTORS
330
2A
102
}
330
2A
100
AcDbVisualStyle
  2
Conceptual
 70
     9
177
     2
291
     0
 71
     3
176
     1
 72
     2
176
     1
 73
     0
176
     1
 90
        0
176
     1
 40
-0.6
176
     1
 41
-30.0
176
     1
 62
     5
 63
     7
421
 16777215
176
     1
 74
     2
176
     1
 91
        2
176
     1
 64
     7
176
     1
 65
   257
176
     1
 75
     1
176
     1
175
     1
176
     1
 42
40.0
176
     1
 92
        8
176
     1
 66
     7
176
     1
 43
1.0
176
     1
 76
     1
176
     1
 77
     6
176
     1
 78
     2
176
     1
 67
     7
176
     1
 79
     3
176
     1
170
     0
176
     1
171
     0
176
     1
290
     0
176
     1
 93
        1
176
     1
 44
0.0
176
     1
173
     0
176
     1
  0
VISUALSTYLE
  5
35
102
{ACAD_REACTORS
330
2A
102
}
330
2A
100
AcDbVisualStyle
  2
Dim
 70
    11
177
     2
291
     1
 71
     2
176
     1
 72
     2
176
     1
 73
     0
176
     1
 90
        0
176
     1
 40
-0.6
176
     1
 41
-30.0
176
     1
 62
     5
 63
     7
421
 16777215
176
     1
 74
     1
176
     1
 91
        4
176
     1
 64
     7
176
     1
 65
   257
176
     1
 75
     1
176
     1
175
     1
176
     1
 42
1.0
176
     1
 92
        8
176
     1
 66
     7
176
     1
 43
1.0
176
     1
 76
     1
176
     1
 77
     6
176
     1
 78
     2
176
     1
 67
     7
176
     1
 79
     5
176
     1
170
     0
176
     1
171
     0
176
     1
290
     0
176
     1
 93
        1
176
     1
 44
-50.0
176
     1
173
     0
176
     1
  0
VISUALSTYLE
  5
39
102
{ACAD_REACTORS
330
2A
102
}
330
2A
100
AcDbVisualStyle
  2
Facepattern
 70
    15
177
     2
291
     1
 71
     2
176
     1
 72
     2
176
     1
 73
     0
176
     1
 90
        0
176
     1
 40
-0.6
176
     1
 41
-30.0
176
     1
 62
     5
 63
     7
421
 16777215
176
     1
 74
     1
176
     1
 91
        4
176
     1
 64
     7
176
     1
 65
   257
176
     1
 75
     1
176
     1
175
     1
176
     1
 42
1.0
176
     1
 92
        8
176
     1
 66
     7
176
     1
 43
1.0
176
     1
 76
     1
176
     1
 77
     6
176
     1
 78
     2
176
     1
 67
     7
176
     1
 79
     5
176
     1
170
     0
176
     1
171
     0
176
     1
290
     0
176
     1
 93
        1
176
     1
 44
0.0
176
     1
173
     0
176
     1
  0
VISUALSTYLE
  5
2B
102
{ACAD_REACTORS
330
2A
102
}
330
2A
100
AcDbVisualStyle
  2
Flat
 70
     0
177
     2
291
     1
 71
     2
176
     1
 72
     1
176
     1
 73
     1
176
     1
 90
        2
176
     1
 40
-0.6
176
     1
 41
30.0
176
     1
 62
     5
 63
     7
421
 16777215
176
     1
 74
     0
176
     1
 91
        4
176
     1
 64
     7
176
     1
 65
   257
176
     1
 75
     1
176
     1
175
     1
176
     1
 42
1.0
176
     1
 92
        8
176
     1
 66
     7
176
     1
 43
1.0
176
     1
 76
     1
176
     1
 77
     6
176
     1
 78
     2
176
     1
 67
     7
176
     1
 79
     5
176
     1
170
     0
176
     1
171
     0
176
     1
290
     0
176
     1
 93
       13
176
     1
 44
0.0
176
     1
173
     0
176
     1
  0
VISUALSTYLE
  5
2C
102
{ACAD_REACTORS
330
2A
102
}
330
2A
100
AcDbVisualStyle
  2
FlatWithEdges
 70
     1
177
     2
291
     1
 71
     2
176
     1
 72
     1
176
     1
 73
     1
176
     1
 90
        2
176
     1
 40
-0.6
176
     1
 41
30.0
176
     1
 62
     5
 63
     7
421
 16777215
176
     1
 74
     1
176
     1
 91
        4
176
     1
 64
     7
176
     1
 65
   257
176
     1
 75
     1
176
     1
175
     1
176
     1
 42
1.0
176
     1
 92
        0
176
     1
 66
   257
176
     1
 43
1.0
176
     1
 76
     1
176
     1
 77
     6
176
     1
 78
     2
176
     1
 67
     7
176
     1
 79
     5
176
     1
170
     0
176
     1
171
     0
176
     1
290
     0
176
     1
 93
       13
176
     1
 44
0.0
176
     1
173
     0
176
     1
  0
VISUALSTYLE
  5
2D
102
{ACAD_REACTORS
330
2A
102
}
330
2A
100
AcDbVisualStyle
  2
Gouraud
 70
     2
177
     2
291
     1
 71
     2
176
     1
 72
     2
176
     1
 73
     1
176
     1
 90
        2
176
     1
 40
-0.6
176
     1
 41
30.0
176
     1
 62
     5
 63
     7
421
 16777215
176
     1
 74
     0
176
     1
 91
        4
176
     1
 64
     7
176
     1
 65
   257
176
     1
 75
     1
176
     1
175
     1
176
     1
 42
1.0
176
     1
 92
        0
176
     1
 66
     7
176
     1
 43
1.0
176
     1
 76
     1
176
     1
 77
     6
176
     1
 78
     2
176
     1
 67
     7
176
     1
 79
     5
176
     1
170
     0
176
     1
171
     0
176
     1
290
     0
176
     1
 93
       13
176
     1
 44
0.0
176
     1
173
     0
176
     1
  0
VISUALSTYLE
  5
2E
102
{ACAD_REACTORS
330
2A
102
}
330
2A
100
AcDbVisualStyle
  2
GouraudWithEdges
 70
     3
177
     2
291
     1
 71
     2
176
     1
 72
     2
176
     1
 73
     1
176
     1
 90
        2
176
     1
 40
-0.6
176
     1
 41
30.0
176
     1
 62
     5
 63
     7
421
 16777215
176
     1
 74
     1
176
     1
 91
        4
176
     1
 64
     7
176
     1
 65
   257
176
     1
 75
     1
176
     1
175
     1
176
     1
 42
1.0
176
     1
 92
        0
176
     1
 66
   257
176
     1
 43
1.0
176
     1
 76
     1
176
     1
 77
     6
176
     1
 78
     2
176
     1
 67
     7
176
     1
 79
     5
176
     1
170
     0
176
     1
171
     0
176
     1
290
     0
176
     1
 93
       13
176
     1
 44
0.0
176
     1
173
     0
176
     1
  0
VISUALSTYLE
  5
38
102
{ACAD_REACTORS
330
2A
102
}
330
2A
100
AcDbVisualStyle
  2
Linepattern
 70
    14
177
     2
291
     1
 71
     2
176
     1
 72
     2
176
     1
 73
     0
176
     1
 90
        0
176
     1
 40
-0.6
176
     1
 41
-30.0
176
     1
 62
     5
 63
     7
421
 16777215
176
     1
 74
     1
176
     1
 91
        4
176
     1
 64
     7
176
     1
 65
   257
176
     1
 75
     7
176
     1
175
     7
176
     1
 42
1.0
176
     1
 92
        8
176
     1
 66
     7
176
     1
 43
1.0
176
     1
 76
     1
176
     1
 77
     6
176
     1
 78
     2
176
     1
 67
     7
176
     1
 79
     5
176
     1
170
     0
176
     1
171
     0
176
     1
290
     0
176
     1
 93
        1
176
     1
 44
0.0
176
     1
173
     0
176
     1
  0
VISUALSTYLE
  5
33
102
{ACAD_REACTORS
330
2A
102
}
330
2A
100
AcDbVisualStyle
  2
Realistic
 70
     8
177
     2
291
     0
 71
     2
176
     1
 72
     2
176
     1
 73
     0
176
     1
 90
        0
176
     1
 40
-0.6
176
     1
 41
-30.0
176
     1
 62
     5
 63
     7
421
 16777215
176
     1
 74
     1
176
     1
 91
        0
176
     1
 64
     7
176
     1
 65
   257
176
     1
 75
     1
176
     1
175
     1
176
     1
 42
1.0
176
     1
 92
        8
176
     1
 66
     8
424
  7895160
176
     1
 43
1.0
176
     1
 76
     1
176
     1
 77
     6
176
     1
 78
     2
176
     1
 67
     7
176
     1
 79
     5
176
     1
170
     0
176
     1
171
     0
176
     1
290
     0
176
     1
 93
       13
176
     1
 44
0.0
176
     1
173
     0
176
     1
  0
VISUALSTYLE
  5
37
102
{ACAD_REACTORS
330
2A
102
}
330
2A
100
AcDbVisualStyle
  2
Thicken
 70
    13
177
     2
291
     1
 71
     2
176
     1
 72
     2
176
     1
 73
     0
176
     1
 90
        0
176
     1
 40
-0.6
176
     1
 41
-30.0
176
     1
 62
     5
 63
     7
421
 16777215
176
     1
 74
     1
176
     1
 91
        4
176
     1
 64
     7
176
     1
 65
   257
176
     1
 75
     1
176
     1
175
     1
176
     1
 42
1.0
176
     1
 92
       12
176
     1
 66
     7
176
     1
 43
1.0
176
     1
 76
     1
176
     1
 77
     6
176
     1
 78
     2
176
     1
 67
     7
176
     1
 79
     5
176
     1
170
     0
176
     1
171
     0
176
     1
290
     0
176
     1
 93
        1
176
     1
 44
0.0
176
     1
173
     0
176
     1
  0
ENDSEC
  0
EOF
