  0
SECTION
  2
HEADER
  9
$ACADVER
  1
AC1009
  9
$EXTMIN
 10
0.0
 20
0.0
 30
0.0
  9
$EXTMAX
 10
1000.0
 20
1000.0
 30
0.0
  9
$FILLMODE
 70
 0
  9
$SPLFRAME
 70
 1
  0
ENDSEC
  0
SECTION
  2
TABLES
  0
TABLE
  2
LAYER
 70
1
  0
LAYER
  2
0
 70
     0
 62
     7
  6
CONTINUOUS
  0
ENDTAB
  0
ENDSEC
  0
SECTION
  2
ENTITIES
  0
LINE
  8
0
 62
     0
 10
0.763889
 20
2.55556
 30
0.0
 11
0.793349
 21
3.02951
 31
0.0
  0
LINE
  8
0
 62
     0
 10
0.793349
 20
3.02951
 30
0.0
 11
0.88189
 21
3.46528
 31
0.0
  0
LINE
  8
0
 62
     0
 10
0.88189
 20
3.46528
 30
0.0
 11
1.02946
 21
3.86285
 31
0.0
  0
LINE
  8
0
 62
     0
 10
1.02946
 20
3.86285
 30
0.0
 11
1.23611
 21
4.22222
 31
0.0
  0
LINE
  8
0
 62
     0
 10
1.23611
 20
4.22222
 30
0.0
 11
1.51036
 21
4.55735
 31
0.0
  0
LINE
  8
0
 62
     0
 10
1.51036
 20
4.55735
 30
0.0
 11
1.86111
 21
4.89583
 31
0.0
  0
LINE
  8
0
 62
     0
 10
1.86111
 20
4.89583
 30
0.0
 11
2.29861
 21
5.23785
 31
0.0
  0
LINE
  8
0
 62
     0
 10
2.29861
 20
5.23785
 30
0.0
 11
2.83333
 21
5.58333
 31
0.0
  0
LINE
  8
0
 62
     0
 10
2.83333
 20
5.58333
 30
0.0
 11
2.69444
 21
5.72222
 31
0.0
  0
LINE
  8
0
 62
     0
 10
2.69444
 20
5.72222
 30
0.0
 11
2.45481
 21
6.02263
 31
0.0
  0
LINE
  8
0
 62
     0
 10
2.45481
 20
6.02263
 30
0.0
 11
2.24994
 21
6.31256
 31
0.0
  0
LINE
  8
0
 62
     0
 10
2.24994
 20
6.31256
 30
0.0
 11
2.07981
 21
6.59207
 31
0.0
  0
LINE
  8
0
 62
     0
 10
2.07981
 20
6.59207
 30
0.0
 11
1.94444
 21
6.86111
 31
0.0
  0
LINE
  8
0
 62
     0
 10
1.94444
 20
6.86111
 30
0.0
 11
1.85331
 21
7.09467
 31
0.0
  0
LINE
  8
0
 62
     0
 10
1.85331
 20
7.09467
 30
0.0
 11
1.78819
 21
7.33686
 31
0.0
  0
LINE
  8
0
 62
     0
 10
1.78819
 20
7.33686
 30
0.0
 11
1.74914
 21
7.58772
 31
0.0
  0
LINE
  8
0
 62
     0
 10
1.74914
 20
7.58772
 30
0.0
 11
1.73611
 21
7.84722
 31
0.0
  0
LINE
  8
0
 62
     0
 10
1.73611
 20
7.84722
 30
0.0
 11
1.7584
 21
8.204
 31
0.0
  0
LINE
  8
0
 62
     0
 10
1.7584
 20
8.204
 30
0.0
 11
1.82547
 21
8.53125
 31
0.0
  0
LINE
  8
0
 62
     0
 10
1.82547
 20
8.53125
 30
0.0
 11
1.93722
 21
8.829
 31
0.0
  0
LINE
  8
0
 62
     0
 10
1.93722
 20
8.829
 30
0.0
 11
2.09369
 21
9.09722
 31
0.0
  0
LINE
  8
0
 62
     0
 10
2.09369
 20
9.09722
 30
0.0
 11
2.29486
 21
9.33594
 31
0.0
  0
LINE
  8
0
 62
     0
 10
2.29486
 20
9.33594
 30
0.0
 11
2.54075
 21
9.54514
 31
0.0
  0
LINE
  8
0
 62
     0
 10
2.54075
 20
9.54514
 30
0.0
 11
2.83132
 21
9.72483
 31
0.0
  0
LINE
  8
0
 62
     0
 10
2.83132
 20
9.72483
 30
0.0
 11
3.16667
 21
9.875
 31
0.0
  0
LINE
  8
0
 62
     0
 10
3.16667
 20
9.875
 30
0.0
 11
3.38281
 21
9.94183
 31
0.0
  0
LINE
  8
0
 62
     0
 10
3.38281
 20
9.94183
 30
0.0
 11
3.61458
 21
9.98958
 31
0.0
  0
LINE
  8
0
 62
     0
 10
3.61458
 20
9.98958
 30
0.0
 11
3.86197
 21
10.0182
 31
0.0
  0
LINE
  8
0
 62
     0
 10
3.86197
 20
10.0182
 30
0.0
 11
4.125
 21
10.0278
 31
0.0
  0
LINE
  8
0
 62
     0
 10
4.125
 20
10.0278
 30
0.0
 11
4.39279
 21
10.0182
 31
0.0
  0
LINE
  8
0
 62
     0
 10
4.39279
 20
10.0182
 30
0.0
 11
4.64757
 21
9.98958
 31
0.0
  0
LINE
  8
0
 62
     0
 10
4.64757
 20
9.98958
 30
0.0
 11
4.88932
 21
9.94183
 31
0.0
  0
LINE
  8
0
 62
     0
 10
4.88932
 20
9.94183
 30
0.0
 11
5.11806
 21
9.875
 31
0.0
  0
LINE
  8
0
 62
     0
 10
5.11806
 20
9.875
 30
0.0
 11
5.33371
 21
9.78906
 31
0.0
  0
LINE
  8
0
 62
     0
 10
5.33371
 20
9.78906
 30
0.0
 11
5.5364
 21
9.68403
 31
0.0
  0
LINE
  8
0
 62
     0
 10
5.5364
 20
9.68403
 30
0.0
 11
5.72607
 21
9.55989
 31
0.0
  0
LINE
  8
0
 62
     0
 10
5.72607
 20
9.55989
 30
0.0
 11
5.90278
 21
9.41667
 31
0.0
  0
LINE
  8
0
 62
     0
 10
5.90278
 20
9.41667
 30
0.0
 11
6.17622
 21
9.11025
 31
0.0
  0
LINE
  8
0
 62
     0
 10
6.17622
 20
9.11025
 30
0.0
 11
6.37153
 21
8.77431
 31
0.0
  0
LINE
  8
0
 62
     0
 10
6.37153
 20
8.77431
 30
0.0
 11
6.48872
 21
8.40886
 31
0.0
  0
LINE
  8
0
 62
     0
 10
6.48872
 20
8.40886
 30
0.0
 11
6.52778
 21
8.01389
 31
0.0
  0
LINE
  8
0
 62
     0
 10
6.52778
 20
8.01389
 30
0.0
 11
6.50694
 21
7.7066
 31
0.0
  0
LINE
  8
0
 62
     0
 10
6.50694
 20
7.7066
 30
0.0
 11
6.44444
 21
7.40972
 31
0.0
  0
LINE
  8
0
 62
     0
 10
6.44444
 20
7.40972
 30
0.0
 11
6.34028
 21
7.12326
 31
0.0
  0
LINE
  8
0
 62
     0
 10
6.34028
 20
7.12326
 30
0.0
 11
6.19444
 21
6.84722
 31
0.0
  0
LINE
  8
0
 62
     0
 10
6.19444
 20
6.84722
 30
0.0
 11
6.00694
 21
6.5816
 31
0.0
  0
LINE
  8
0
 62
     0
 10
6.00694
 20
6.5816
 30
0.0
 11
5.77778
 21
6.32639
 31
0.0
  0
LINE
  8
0
 62
     0
 10
5.77778
 20
6.32639
 30
0.0
 11
5.50694
 21
6.0816
 31
0.0
  0
LINE
  8
0
 62
     0
 10
5.50694
 20
6.0816
 30
0.0
 11
5.19444
 21
5.84722
 31
0.0
  0
LINE
  8
0
 62
     0
 10
5.19444
 20
5.84722
 30
0.0
 11
4.79167
 21
5.58333
 31
0.0
  0
LINE
  8
0
 62
     0
 10
4.79167
 20
5.58333
 30
0.0
 11
4.34722
 21
5.31944
 31
0.0
  0
LINE
  8
0
 62
     0
 10
4.34722
 20
5.31944
 30
0.0
 11
6.59722
 21
2.69444
 31
0.0
  0
LINE
  8
0
 62
     0
 10
6.59722
 20
2.69444
 30
0.0
 11
6.6779
 21
2.85417
 31
0.0
  0
LINE
  8
0
 62
     0
 10
6.6779
 20
2.85417
 30
0.0
 11
6.76731
 21
3.04167
 31
0.0
  0
LINE
  8
0
 62
     0
 10
6.76731
 20
3.04167
 30
0.0
 11
6.8654
 21
3.25694
 31
0.0
  0
LINE
  8
0
 62
     0
 10
6.8654
 20
3.25694
 30
0.0
 11
6.97222
 21
3.5
 31
0.0
  0
LINE
  8
0
 62
     0
 10
6.97222
 20
3.5
 30
0.0
 11
7.63889
 21
5.11111
 31
0.0
  0
LINE
  8
0
 62
     0
 10
7.63889
 20
5.11111
 30
0.0
 11
8.75
 21
5.11111
 31
0.0
  0
LINE
  8
0
 62
     0
 10
8.75
 20
5.11111
 30
0.0
 11
7.94444
 21
3.13889
 31
0.0
  0
LINE
  8
0
 62
     0
 10
7.94444
 20
3.13889
 30
0.0
 11
7.822
 21
2.85156
 31
0.0
  0
LINE
  8
0
 62
     0
 10
7.822
 20
2.85156
 30
0.0
 11
7.67703
 21
2.54514
 31
0.0
  0
LINE
  8
0
 62
     0
 10
7.67703
 20
2.54514
 30
0.0
 11
7.5095
 21
2.21961
 31
0.0
  0
LINE
  8
0
 62
     0
 10
7.5095
 20
2.21961
 30
0.0
 11
7.31944
 21
1.875
 31
0.0
  0
LINE
  8
0
 62
     0
 10
7.31944
 20
1.875
 30
0.0
 11
8.93056
 21
-0
 31
0.0
  0
LINE
  8
0
 62
     0
 10
8.93056
 20
-0
 30
0.0
 11
7.625
 21
-0
 31
0.0
  0
LINE
  8
0
 62
     0
 10
7.625
 20
-0
 30
0.0
 11
6.69444
 21
1.06944
 31
0.0
  0
LINE
  8
0
 62
     0
 10
6.69444
 20
1.06944
 30
0.0
 11
6.41971
 21
0.786242
 31
0.0
  0
LINE
  8
0
 62
     0
 10
6.41971
 20
0.786242
 30
0.0
 11
6.13021
 21
0.540799
 31
0.0
  0
LINE
  8
0
 62
     0
 10
6.13021
 20
0.540799
 30
0.0
 11
5.82596
 21
0.333117
 31
0.0
  0
LINE
  8
0
 62
     0
 10
5.82596
 20
0.333117
 30
0.0
 11
5.50694
 21
0.163194
 31
0.0
  0
LINE
  8
0
 62
     0
 10
5.50694
 20
0.163194
 30
0.0
 11
5.17318
 21
0.0310331
 31
0.0
  0
LINE
  8
0
 62
     0
 10
5.17318
 20
0.0310331
 30
0.0
 11
4.82465
 21
-0.0633681
 31
0.0
  0
LINE
  8
0
 62
     0
 10
4.82465
 20
-0.0633681
 30
0.0
 11
4.46137
 21
-0.120009
 31
0.0
  0
LINE
  8
0
 62
     0
 10
4.46137
 20
-0.120009
 30
0.0
 11
4.08333
 21
-0.138889
 31
0.0
  0
LINE
  8
0
 62
     0
 10
4.08333
 20
-0.138889
 30
0.0
 11
3.68056
 21
-0.138889
 31
0.0
  0
LINE
  8
0
 62
     0
 10
3.68056
 20
-0.138889
 30
0.0
 11
3.38103
 21
-0.127821
 31
0.0
  0
LINE
  8
0
 62
     0
 10
3.38103
 20
-0.127821
 30
0.0
 11
3.09369
 21
-0.0946181
 31
0.0
  0
LINE
  8
0
 62
     0
 10
3.09369
 20
-0.0946181
 30
0.0
 11
2.81853
 21
-0.0392794
 31
0.0
  0
LINE
  8
0
 62
     0
 10
2.81853
 20
-0.0392794
 30
0.0
 11
2.5555
 21
0.0381944
 31
0.0
  0
LINE
  8
0
 62
     0
 10
2.5555
 20
0.0381944
 30
0.0
 11
2.30464
 21
0.137804
 31
0.0
  0
LINE
  8
0
 62
     0
 10
2.30464
 20
0.137804
 30
0.0
 11
2.06592
 21
0.259549
 31
0.0
  0
LINE
  8
0
 62
     0
 10
2.06592
 20
0.259549
 30
0.0
 11
1.83936
 21
0.403429
 31
0.0
  0
LINE
  8
0
 62
     0
 10
1.83936
 20
0.403429
 30
0.0
 11
1.625
 21
0.569444
 31
0.0
  0
LINE
  8
0
 62
     0
 10
1.625
 20
0.569444
 30
0.0
 11
1.42318
 21
0.764594
 31
0.0
  0
LINE
  8
0
 62
     0
 10
1.42318
 20
0.764594
 30
0.0
 11
1.24826
 21
0.974881
 31
0.0
  0
LINE
  8
0
 62
     0
 10
1.24826
 20
0.974881
 30
0.0
 11
1.10026
 21
1.20036
 31
0.0
  0
LINE
  8
0
 62
     0
 10
1.10026
 20
1.20036
 30
0.0
 11
0.979167
 21
1.44103
 31
0.0
  0
LINE
  8
0
 62
     0
 10
0.979167
 20
1.44103
 30
0.0
 11
0.884983
 21
1.69689
 31
0.0
  0
LINE
  8
0
 62
     0
 10
0.884983
 20
1.69689
 30
0.0
 11
0.817708
 21
1.96793
 31
0.0
  0
LINE
  8
0
 62
     0
 10
0.817708
 20
1.96793
 30
0.0
 11
0.777344
 21
2.25418
 31
0.0
  0
LINE
  8
0
 62
     0
 10
0.777344
 20
2.25418
 30
0.0
 11
0.763889
 21
2.55556
 31
0.0
  0
LINE
  8
0
 62
     0
 10
4.06944
 20
0.875
 30
0.0
 11
4.35215
 21
0.890192
 31
0.0
  0
LINE
  8
0
 62
     0
 10
4.35215
 20
0.890192
 30
0.0
 11
4.62408
 21
0.935764
 31
0.0
  0
LINE
  8
0
 62
     0
 10
4.62408
 20
0.935764
 30
0.0
 11
4.88514
 21
1.01172
 31
0.0
  0
LINE
  8
0
 62
     0
 10
4.88514
 20
1.01172
 30
0.0
 11
5.13536
 21
1.11806
 31
0.0
  0
LINE
  8
0
 62
     0
 10
5.13536
 20
1.11806
 30
0.0
 11
5.37472
 21
1.25478
 31
0.0
  0
LINE
  8
0
 62
     0
 10
5.37472
 20
1.25478
 30
0.0
 11
5.60325
 21
1.42188
 31
0.0
  0
LINE
  8
0
 62
     0
 10
5.60325
 20
1.42188
 30
0.0
 11
5.8209
 21
1.61936
 31
0.0
  0
LINE
  8
0
 62
     0
 10
5.8209
 20
1.61936
 30
0.0
 11
6.02778
 21
1.84722
 31
0.0
  0
LINE
  8
0
 62
     0
 10
6.02778
 20
1.84722
 30
0.0
 11
3.47222
 21
4.81944
 31
0.0
  0
LINE
  8
0
 62
     0
 10
3.47222
 20
4.81944
 30
0.0
 11
3.05729
 21
4.55821
 31
0.0
  0
LINE
  8
0
 62
     0
 10
3.05729
 20
4.55821
 30
0.0
 11
2.71528
 21
4.30208
 31
0.0
  0
LINE
  8
0
 62
     0
 10
2.71528
 20
4.30208
 30
0.0
 11
2.44613
 21
4.05122
 31
0.0
  0
LINE
  8
0
 62
     0
 10
2.44613
 20
4.05122
 30
0.0
 11
2.25
 21
3.80556
 31
0.0
  0
LINE
  8
0
 62
     0
 10
2.25
 20
3.80556
 30
0.0
 11
2.11025
 21
3.54953
 31
0.0
  0
LINE
  8
0
 62
     0
 10
2.11025
 20
3.54953
 30
0.0
 11
2.01042
 21
3.26736
 31
0.0
  0
LINE
  8
0
 62
     0
 10
2.01042
 20
3.26736
 30
0.0
 11
1.95053
 21
2.95919
 31
0.0
  0
LINE
  8
0
 62
     0
 10
1.95053
 20
2.95919
 30
0.0
 11
1.93056
 21
2.625
 31
0.0
  0
LINE
  8
0
 62
     0
 10
1.93056
 20
2.625
 30
0.0
 11
1.93918
 21
2.42563
 31
0.0
  0
LINE
  8
0
 62
     0
 10
1.93918
 20
2.42563
 30
0.0
 11
1.96522
 21
2.23703
 31
0.0
  0
LINE
  8
0
 62
     0
 10
1.96522
 20
2.23703
 30
0.0
 11
2.00863
 21
2.05931
 31
0.0
  0
LINE
  8
0
 62
     0
 10
2.00863
 20
2.05931
 30
0.0
 11
2.06939
 21
1.89242
 31
0.0
  0
LINE
  8
0
 62
     0
 10
2.06939
 20
1.89242
 30
0.0
 11
2.14751
 21
1.73639
 31
0.0
  0
LINE
  8
0
 62
     0
 10
2.14751
 20
1.73639
 30
0.0
 11
2.243
 21
1.59119
 31
0.0
  0
LINE
  8
0
 62
     0
 10
2.243
 20
1.59119
 30
0.0
 11
2.35585
 21
1.45687
 31
0.0
  0
LINE
  8
0
 62
     0
 10
2.35585
 20
1.45687
 30
0.0
 11
2.48611
 21
1.33333
 31
0.0
  0
LINE
  8
0
 62
     0
 10
2.48611
 20
1.33333
 30
0.0
 11
2.77778
 21
1.13281
 31
0.0
  0
LINE
  8
0
 62
     0
 10
2.77778
 20
1.13281
 30
0.0
 11
3.09722
 21
0.989583
 31
0.0
  0
LINE
  8
0
 62
     0
 10
3.09722
 20
0.989583
 30
0.0
 11
3.44444
 21
0.903646
 31
0.0
  0
LINE
  8
0
 62
     0
 10
3.44444
 20
0.903646
 30
0.0
 11
3.81944
 21
0.875
 31
0.0
  0
LINE
  8
0
 62
     0
 10
3.81944
 20
0.875
 30
0.0
 11
4.06944
 21
0.875
 31
0.0
  0
LINE
  8
0
 62
     0
 10
3.70833
 20
6.05556
 30
0.0
 11
3.92882
 21
6.17361
 31
0.0
  0
LINE
  8
0
 62
     0
 10
3.92882
 20
6.17361
 30
0.0
 11
4.11806
 21
6.27778
 31
0.0
  0
LINE
  8
0
 62
     0
 10
4.11806
 20
6.27778
 30
0.0
 11
4.27251
 21
6.36811
 31
0.0
  0
LINE
  8
0
 62
     0
 10
4.27251
 20
6.36811
 30
0.0
 11
4.38889
 21
6.44444
 31
0.0
  0
LINE
  8
0
 62
     0
 10
4.38889
 20
6.44444
 30
0.0
 11
4.58333
 21
6.56082
 31
0.0
  0
LINE
  8
0
 62
     0
 10
4.58333
 20
6.56082
 30
0.0
 11
4.75
 21
6.6875
 31
0.0
  0
LINE
  8
0
 62
     0
 10
4.75
 20
6.6875
 30
0.0
 11
5.01389
 21
6.94444
 31
0.0
  0
LINE
  8
0
 62
     0
 10
5.01389
 20
6.94444
 30
0.0
 11
5.19618
 21
7.16846
 31
0.0
  0
LINE
  8
0
 62
     0
 10
5.19618
 20
7.16846
 30
0.0
 11
5.32639
 21
7.40978
 31
0.0
  0
LINE
  8
0
 62
     0
 10
5.32639
 20
7.40978
 30
0.0
 11
5.40451
 21
7.66846
 31
0.0
  0
LINE
  8
0
 62
     0
 10
5.40451
 20
7.66846
 30
0.0
 11
5.43056
 21
7.94444
 31
0.0
  0
LINE
  8
0
 62
     0
 10
5.43056
 20
7.94444
 30
0.0
 11
5.40533
 21
8.20751
 31
0.0
  0
LINE
  8
0
 62
     0
 10
5.40533
 20
8.20751
 30
0.0
 11
5.32981
 21
8.44103
 31
0.0
  0
LINE
  8
0
 62
     0
 10
5.32981
 20
8.44103
 30
0.0
 11
5.20394
 21
8.64501
 31
0.0
  0
LINE
  8
0
 62
     0
 10
5.20394
 20
8.64501
 30
0.0
 11
5.02778
 21
8.81944
 31
0.0
  0
LINE
  8
0
 62
     0
 10
5.02778
 20
8.81944
 30
0.0
 11
4.82639
 21
8.96186
 31
0.0
  0
LINE
  8
0
 62
     0
 10
4.82639
 20
8.96186
 30
0.0
 11
4.61111
 21
9.05556
 31
0.0
  0
LINE
  8
0
 62
     0
 10
4.61111
 20
9.05556
 30
0.0
 11
4.38536
 21
9.10764
 31
0.0
  0
LINE
  8
0
 62
     0
 10
4.38536
 20
9.10764
 30
0.0
 11
4.15278
 21
9.125
 31
0.0
  0
LINE
  8
0
 62
     0
 10
4.15278
 20
9.125
 30
0.0
 11
3.93961
 21
9.11313
 31
0.0
  0
LINE
  8
0
 62
     0
 10
3.93961
 20
9.11313
 30
0.0
 11
3.74474
 21
9.07731
 31
0.0
  0
LINE
  8
0
 62
     0
 10
3.74474
 20
9.07731
 30
0.0
 11
3.56808
 21
9.01764
 31
0.0
  0
LINE
  8
0
 62
     0
 10
3.56808
 20
9.01764
 30
0.0
 11
3.40972
 21
8.93408
 31
0.0
  0
LINE
  8
0
 62
     0
 10
3.40972
 20
8.93408
 30
0.0
 11
3.26953
 21
8.82667
 31
0.0
  0
LINE
  8
0
 62
     0
 10
3.26953
 20
8.82667
 30
0.0
 11
3.14757
 21
8.69536
 31
0.0
  0
LINE
  8
0
 62
     0
 10
3.14757
 20
8.69536
 30
0.0
 11
3.04383
 21
8.54021
 31
0.0
  0
LINE
  8
0
 62
     0
 10
3.04383
 20
8.54021
 30
0.0
 11
2.95833
 21
8.36111
 31
0.0
  0
LINE
  8
0
 62
     0
 10
2.95833
 20
8.36111
 30
0.0
 11
2.88536
 21
8.12853
 31
0.0
  0
LINE
  8
0
 62
     0
 10
2.88536
 20
8.12853
 30
0.0
 11
2.86111
 21
7.84722
 31
0.0
  0
LINE
  8
0
 62
     0
 10
2.86111
 20
7.84722
 30
0.0
 11
2.90278
 21
7.44276
 31
0.0
  0
LINE
  8
0
 62
     0
 10
2.90278
 20
7.44276
 30
0.0
 11
3.02778
 21
7.03472
 31
0.0
  0
LINE
  8
0
 62
     0
 10
3.02778
 20
7.03472
 30
0.0
 11
3.24306
 21
6.62674
 31
0.0
  0
LINE
  8
0
 62
     0
 10
3.24306
 20
6.62674
 30
0.0
 11
3.55556
 21
6.22222
 31
0.0
  0
LINE
  8
0
 62
     0
 10
3.55556
 20
6.22222
 30
0.0
 11
3.70833
 21
6.05556
 31
0.0
  0
ENDSEC
  0
EOF
