  0
SECTION
  2
HEADER
  9
$ACADVER
  1
AC1009
  9
$EXTMIN
 10
0.0
 20
0.0
 30
0.0
  9
$EXTMAX
 10
1000.0
 20
1000.0
 30
0.0
  9
$FILLMODE
 70
 0
  9
$SPLFRAME
 70
 1
  0
ENDSEC
  0
SECTION
  2
TABLES
  0
TABLE
  2
LAYER
 70
1
  0
LAYER
  2
0
 70
     0
 62
     7
  6
CONTINUOUS
  0
ENDTAB
  0
ENDSEC
  0
SECTION
  2
ENTITIES
  0
LINE
  8
0
 62
     0
 10
4.01389
 20
-1.59722
 30
0.0
 11
3.76346
 21
-1.59153
 31
0.0
  0
LINE
  8
0
 62
     0
 10
3.76346
 20
-1.59153
 30
0.0
 11
3.53993
 21
-1.5746
 31
0.0
  0
LINE
  8
0
 62
     0
 10
3.53993
 20
-1.5746
 30
0.0
 11
3.34332
 21
-1.54639
 31
0.0
  0
LINE
  8
0
 62
     0
 10
3.34332
 20
-1.54639
 30
0.0
 11
3.17361
 21
-1.50694
 31
0.0
  0
LINE
  8
0
 62
     0
 10
3.17361
 20
-1.50694
 30
0.0
 11
3.02208
 21
-1.45269
 31
0.0
  0
LINE
  8
0
 62
     0
 10
3.02208
 20
-1.45269
 30
0.0
 11
2.88015
 21
-1.38021
 31
0.0
  0
LINE
  8
0
 62
     0
 10
2.88015
 20
-1.38021
 30
0.0
 11
2.74778
 21
-1.28944
 31
0.0
  0
LINE
  8
0
 62
     0
 10
2.74778
 20
-1.28944
 30
0.0
 11
2.625
 21
-1.18056
 31
0.0
  0
LINE
  8
0
 62
     0
 10
2.625
 20
-1.18056
 30
0.0
 11
2.43403
 21
-0.940918
 31
0.0
  0
LINE
  8
0
 62
     0
 10
2.43403
 20
-0.940918
 30
0.0
 11
2.30556
 21
-0.666667
 31
0.0
  0
LINE
  8
0
 62
     0
 10
2.30556
 20
-0.666667
 30
0.0
 11
2.26297
 21
-0.505208
 31
0.0
  0
LINE
  8
0
 62
     0
 10
2.26297
 20
-0.505208
 30
0.0
 11
2.23258
 21
-0.3125
 31
0.0
  0
LINE
  8
0
 62
     0
 10
2.23258
 20
-0.3125
 30
0.0
 11
2.21436
 21
-0.0885417
 31
0.0
  0
LINE
  8
0
 62
     0
 10
2.21436
 20
-0.0885417
 30
0.0
 11
2.20833
 21
0.166667
 31
0.0
  0
LINE
  8
0
 62
     0
 10
2.20833
 20
0.166667
 30
0.0
 11
2.20833
 21
2.77778
 31
0.0
  0
LINE
  8
0
 62
     0
 10
2.20833
 20
2.77778
 30
0.0
 11
2.19743
 21
2.91189
 31
0.0
  0
LINE
  8
0
 62
     0
 10
2.19743
 20
2.91189
 30
0.0
 11
2.16488
 21
3.03646
 31
0.0
  0
LINE
  8
0
 62
     0
 10
2.16488
 20
3.03646
 30
0.0
 11
2.11062
 21
3.15147
 31
0.0
  0
LINE
  8
0
 62
     0
 10
2.11062
 20
3.15147
 30
0.0
 11
2.03472
 21
3.25694
 31
0.0
  0
LINE
  8
0
 62
     0
 10
2.03472
 20
3.25694
 30
0.0
 11
1.87326
 21
3.44271
 31
0.0
  0
LINE
  8
0
 62
     0
 10
1.87326
 20
3.44271
 30
0.0
 11
1.73611
 21
3.59722
 31
0.0
  0
LINE
  8
0
 62
     0
 10
1.73611
 20
3.59722
 30
0.0
 11
1.61892
 21
3.70053
 31
0.0
  0
LINE
  8
0
 62
     0
 10
1.61892
 20
3.70053
 30
0.0
 11
1.47569
 21
3.77431
 31
0.0
  0
LINE
  8
0
 62
     0
 10
1.47569
 20
3.77431
 30
0.0
 11
1.30642
 21
3.81858
 31
0.0
  0
LINE
  8
0
 62
     0
 10
1.30642
 20
3.81858
 30
0.0
 11
1.11111
 21
3.83333
 31
0.0
  0
LINE
  8
0
 62
     0
 10
1.11111
 20
3.83333
 30
0.0
 11
0.763889
 21
3.83333
 31
0.0
  0
LINE
  8
0
 62
     0
 10
0.763889
 20
3.83333
 30
0.0
 11
0.763889
 21
4.72222
 31
0.0
  0
LINE
  8
0
 62
     0
 10
0.763889
 20
4.72222
 30
0.0
 11
1.11111
 21
4.72222
 31
0.0
  0
LINE
  8
0
 62
     0
 10
1.11111
 20
4.72222
 30
0.0
 11
1.30724
 21
4.73785
 31
0.0
  0
LINE
  8
0
 62
     0
 10
1.30724
 20
4.73785
 30
0.0
 11
1.47917
 21
4.78472
 31
0.0
  0
LINE
  8
0
 62
     0
 10
1.47917
 20
4.78472
 30
0.0
 11
1.62326
 21
4.8559
 31
0.0
  0
LINE
  8
0
 62
     0
 10
1.62326
 20
4.8559
 30
0.0
 11
1.73611
 21
4.94444
 31
0.0
  0
LINE
  8
0
 62
     0
 10
1.73611
 20
4.94444
 30
0.0
 11
1.87326
 21
5.09896
 31
0.0
  0
LINE
  8
0
 62
     0
 10
1.87326
 20
5.09896
 30
0.0
 11
2.03472
 21
5.28472
 31
0.0
  0
LINE
  8
0
 62
     0
 10
2.03472
 20
5.28472
 30
0.0
 11
2.11062
 21
5.39111
 31
0.0
  0
LINE
  8
0
 62
     0
 10
2.11062
 20
5.39111
 30
0.0
 11
2.16488
 21
5.50874
 31
0.0
  0
LINE
  8
0
 62
     0
 10
2.16488
 20
5.50874
 30
0.0
 11
2.19743
 21
5.63764
 31
0.0
  0
LINE
  8
0
 62
     0
 10
2.19743
 20
5.63764
 30
0.0
 11
2.20833
 21
5.77778
 31
0.0
  0
LINE
  8
0
 62
     0
 10
2.20833
 20
5.77778
 30
0.0
 11
2.20833
 21
8.375
 31
0.0
  0
LINE
  8
0
 62
     0
 10
2.20833
 20
8.375
 30
0.0
 11
2.21436
 21
8.63069
 31
0.0
  0
LINE
  8
0
 62
     0
 10
2.21436
 20
8.63069
 30
0.0
 11
2.23258
 21
8.85596
 31
0.0
  0
LINE
  8
0
 62
     0
 10
2.23258
 20
8.85596
 30
0.0
 11
2.26297
 21
9.05083
 31
0.0
  0
LINE
  8
0
 62
     0
 10
2.26297
 20
9.05083
 30
0.0
 11
2.30556
 21
9.21528
 31
0.0
  0
LINE
  8
0
 62
     0
 10
2.30556
 20
9.21528
 30
0.0
 11
2.43403
 21
9.49479
 31
0.0
  0
LINE
  8
0
 62
     0
 10
2.43403
 20
9.49479
 30
0.0
 11
2.625
 21
9.73611
 31
0.0
  0
LINE
  8
0
 62
     0
 10
2.625
 20
9.73611
 30
0.0
 11
2.75472
 21
9.84461
 31
0.0
  0
LINE
  8
0
 62
     0
 10
2.75472
 20
9.84461
 30
0.0
 11
2.90799
 21
9.93403
 31
0.0
  0
LINE
  8
0
 62
     0
 10
2.90799
 20
9.93403
 30
0.0
 11
3.08464
 21
10.0043
 31
0.0
  0
LINE
  8
0
 62
     0
 10
3.08464
 20
10.0043
 30
0.0
 11
3.28472
 21
10.0556
 31
0.0
  0
LINE
  8
0
 62
     0
 10
3.28472
 20
10.0556
 30
0.0
 11
3.73438
 21
10.1181
 31
0.0
  0
LINE
  8
0
 62
     0
 10
3.73438
 20
10.1181
 30
0.0
 11
4.23611
 21
10.1389
 31
0.0
  0
LINE
  8
0
 62
     0
 10
4.23611
 20
10.1389
 30
0.0
 11
4.73611
 21
10.1389
 31
0.0
  0
LINE
  8
0
 62
     0
 10
4.73611
 20
10.1389
 30
0.0
 11
4.73611
 21
9.25
 31
0.0
  0
LINE
  8
0
 62
     0
 10
4.73611
 20
9.25
 30
0.0
 11
4.43056
 21
9.25
 31
0.0
  0
LINE
  8
0
 62
     0
 10
4.43056
 20
9.25
 30
0.0
 11
4.07813
 21
9.24138
 31
0.0
  0
LINE
  8
0
 62
     0
 10
4.07813
 20
9.24138
 30
0.0
 11
3.77083
 21
9.21528
 31
0.0
  0
LINE
  8
0
 62
     0
 10
3.77083
 20
9.21528
 30
0.0
 11
3.64014
 21
9.19314
 31
0.0
  0
LINE
  8
0
 62
     0
 10
3.64014
 20
9.19314
 30
0.0
 11
3.53299
 21
9.16146
 31
0.0
  0
LINE
  8
0
 62
     0
 10
3.53299
 20
9.16146
 30
0.0
 11
3.44922
 21
9.12022
 31
0.0
  0
LINE
  8
0
 62
     0
 10
3.44922
 20
9.12022
 30
0.0
 11
3.38889
 21
9.06944
 31
0.0
  0
LINE
  8
0
 62
     0
 10
3.38889
 20
9.06944
 30
0.0
 11
3.29856
 21
8.93061
 31
0.0
  0
LINE
  8
0
 62
     0
 10
3.29856
 20
8.93061
 30
0.0
 11
3.25
 21
8.76389
 31
0.0
  0
LINE
  8
0
 62
     0
 10
3.25
 20
8.76389
 30
0.0
 11
3.23785
 21
8.66058
 31
0.0
  0
LINE
  8
0
 62
     0
 10
3.23785
 20
8.66058
 30
0.0
 11
3.22917
 21
8.53125
 31
0.0
  0
LINE
  8
0
 62
     0
 10
3.22917
 20
8.53125
 30
0.0
 11
3.22396
 21
8.37592
 31
0.0
  0
LINE
  8
0
 62
     0
 10
3.22396
 20
8.37592
 30
0.0
 11
3.22222
 21
8.19444
 31
0.0
  0
LINE
  8
0
 62
     0
 10
3.22222
 20
8.19444
 30
0.0
 11
3.22222
 21
5.63889
 31
0.0
  0
LINE
  8
0
 62
     0
 10
3.22222
 20
5.63889
 30
0.0
 11
3.19439
 21
5.36632
 31
0.0
  0
LINE
  8
0
 62
     0
 10
3.19439
 20
5.36632
 30
0.0
 11
3.11111
 21
5.13194
 31
0.0
  0
LINE
  8
0
 62
     0
 10
3.11111
 20
5.13194
 30
0.0
 11
2.98432
 21
4.93061
 31
0.0
  0
LINE
  8
0
 62
     0
 10
2.98432
 20
4.93061
 30
0.0
 11
2.82639
 21
4.75694
 31
0.0
  0
LINE
  8
0
 62
     0
 10
2.82639
 20
4.75694
 30
0.0
 11
2.64231
 21
4.60938
 31
0.0
  0
LINE
  8
0
 62
     0
 10
2.64231
 20
4.60938
 30
0.0
 11
2.4375
 21
4.48611
 31
0.0
  0
LINE
  8
0
 62
     0
 10
2.4375
 20
4.48611
 30
0.0
 11
2.02778
 21
4.27778
 31
0.0
  0
LINE
  8
0
 62
     0
 10
2.02778
 20
4.27778
 30
0.0
 11
2.4375
 21
4.0625
 31
0.0
  0
LINE
  8
0
 62
     0
 10
2.4375
 20
4.0625
 30
0.0
 11
2.64236
 21
3.93403
 31
0.0
  0
LINE
  8
0
 62
     0
 10
2.64236
 20
3.93403
 30
0.0
 11
2.82639
 21
3.78472
 31
0.0
  0
LINE
  8
0
 62
     0
 10
2.82639
 20
3.78472
 30
0.0
 11
2.98438
 21
3.61111
 31
0.0
  0
LINE
  8
0
 62
     0
 10
2.98438
 20
3.61111
 30
0.0
 11
3.11111
 21
3.40972
 31
0.0
  0
LINE
  8
0
 62
     0
 10
3.11111
 20
3.40972
 30
0.0
 11
3.19439
 21
3.1754
 31
0.0
  0
LINE
  8
0
 62
     0
 10
3.19439
 20
3.1754
 30
0.0
 11
3.22222
 21
2.90278
 31
0.0
  0
LINE
  8
0
 62
     0
 10
3.22222
 20
2.90278
 30
0.0
 11
3.22222
 21
0.347222
 31
0.0
  0
LINE
  8
0
 62
     0
 10
3.22222
 20
0.347222
 30
0.0
 11
3.22396
 21
0.165799
 31
0.0
  0
LINE
  8
0
 62
     0
 10
3.22396
 20
0.165799
 30
0.0
 11
3.22917
 21
0.0104167
 31
0.0
  0
LINE
  8
0
 62
     0
 10
3.22917
 20
0.0104167
 30
0.0
 11
3.23785
 21
-0.118869
 31
0.0
  0
LINE
  8
0
 62
     0
 10
3.23785
 20
-0.118869
 30
0.0
 11
3.25
 21
-0.222222
 31
0.0
  0
LINE
  8
0
 62
     0
 10
3.25
 20
-0.222222
 30
0.0
 11
3.29861
 21
-0.388889
 31
0.0
  0
LINE
  8
0
 62
     0
 10
3.29861
 20
-0.388889
 30
0.0
 11
3.38889
 21
-0.527778
 31
0.0
  0
LINE
  8
0
 62
     0
 10
3.38889
 20
-0.527778
 30
0.0
 11
3.44922
 21
-0.572917
 31
0.0
  0
LINE
  8
0
 62
     0
 10
3.44922
 20
-0.572917
 30
0.0
 11
3.53299
 21
-0.611111
 31
0.0
  0
LINE
  8
0
 62
     0
 10
3.53299
 20
-0.611111
 30
0.0
 11
3.64014
 21
-0.642361
 31
0.0
  0
LINE
  8
0
 62
     0
 10
3.64014
 20
-0.642361
 30
0.0
 11
3.77083
 21
-0.666667
 31
0.0
  0
LINE
  8
0
 62
     0
 10
3.77083
 20
-0.666667
 30
0.0
 11
4.07813
 21
-0.697917
 31
0.0
  0
LINE
  8
0
 62
     0
 10
4.07813
 20
-0.697917
 30
0.0
 11
4.43056
 21
-0.708333
 31
0.0
  0
LINE
  8
0
 62
     0
 10
4.43056
 20
-0.708333
 30
0.0
 11
4.73611
 21
-0.708333
 31
0.0
  0
LINE
  8
0
 62
     0
 10
4.73611
 20
-0.708333
 30
0.0
 11
4.73611
 21
-1.59722
 31
0.0
  0
LINE
  8
0
 62
     0
 10
4.73611
 20
-1.59722
 30
0.0
 11
4.01389
 21
-1.59722
 31
0.0
  0
ENDSEC
  0
EOF
