  0
SECTION
  2
HEADER
  9
$ACADVER
  1
AC1009
  9
$EXTMIN
 10
0.0
 20
0.0
 30
0.0
  9
$EXTMAX
 10
1000.0
 20
1000.0
 30
0.0
  9
$FILLMODE
 70
 0
  9
$SPLFRAME
 70
 1
  0
ENDSEC
  0
SECTION
  2
TABLES
  0
TABLE
  2
LAYER
 70
1
  0
LAYER
  2
0
 70
     0
 62
     7
  6
CONTINUOUS
  0
ENDTAB
  0
ENDSEC
  0
SECTION
  2
ENTITIES
  0
LINE
  8
0
 62
     0
 10
4.41667
 20
8.09722
 30
0.0
 11
4.38194
 21
8.36376
 31
0.0
  0
LINE
  8
0
 62
     0
 10
4.38194
 20
8.36376
 30
0.0
 11
4.30556
 21
8.60769
 31
0.0
  0
LINE
  8
0
 62
     0
 10
4.30556
 20
8.60769
 30
0.0
 11
4.18744
 21
8.82904
 31
0.0
  0
LINE
  8
0
 62
     0
 10
4.18744
 20
8.82904
 30
0.0
 11
4.02778
 21
9.02778
 31
0.0
  0
LINE
  8
0
 62
     0
 10
4.02778
 20
9.02778
 30
0.0
 11
3.83507
 21
9.19183
 31
0.0
  0
LINE
  8
0
 62
     0
 10
3.83507
 20
9.19183
 30
0.0
 11
3.61806
 21
9.30903
 31
0.0
  0
LINE
  8
0
 62
     0
 10
3.61806
 20
9.30903
 30
0.0
 11
3.37674
 21
9.37933
 31
0.0
  0
LINE
  8
0
 62
     0
 10
3.37674
 20
9.37933
 30
0.0
 11
3.11111
 21
9.40278
 31
0.0
  0
LINE
  8
0
 62
     0
 10
3.11111
 20
9.40278
 30
0.0
 11
2.84369
 21
9.37674
 31
0.0
  0
LINE
  8
0
 62
     0
 10
2.84369
 20
9.37674
 30
0.0
 11
2.59722
 21
9.29861
 31
0.0
  0
LINE
  8
0
 62
     0
 10
2.59722
 20
9.29861
 30
0.0
 11
2.37668
 21
9.1754
 31
0.0
  0
LINE
  8
0
 62
     0
 10
2.37668
 20
9.1754
 30
0.0
 11
2.1875
 21
9.01389
 31
0.0
  0
LINE
  8
0
 62
     0
 10
2.1875
 20
9.01389
 30
0.0
 11
2.03299
 21
8.81944
 31
0.0
  0
LINE
  8
0
 62
     0
 10
2.03299
 20
8.81944
 30
0.0
 11
1.91667
 21
8.59722
 31
0.0
  0
LINE
  8
0
 62
     0
 10
1.91667
 20
8.59722
 30
0.0
 11
1.84369
 21
8.35422
 31
0.0
  0
LINE
  8
0
 62
     0
 10
1.84369
 20
8.35422
 30
0.0
 11
1.81944
 21
8.09722
 31
0.0
  0
LINE
  8
0
 62
     0
 10
1.81944
 20
8.09722
 30
0.0
 11
1.84239
 21
7.81944
 31
0.0
  0
LINE
  8
0
 62
     0
 10
1.84239
 20
7.81944
 30
0.0
 11
1.9114
 21
7.56944
 31
0.0
  0
LINE
  8
0
 62
     0
 10
1.9114
 20
7.56944
 30
0.0
 11
2.02642
 21
7.34722
 31
0.0
  0
LINE
  8
0
 62
     0
 10
2.02642
 20
7.34722
 30
0.0
 11
2.1875
 21
7.15278
 31
0.0
  0
LINE
  8
0
 62
     0
 10
2.1875
 20
7.15278
 30
0.0
 11
2.38325
 21
6.99485
 31
0.0
  0
LINE
  8
0
 62
     0
 10
2.38325
 20
6.99485
 30
0.0
 11
2.60243
 21
6.882
 31
0.0
  0
LINE
  8
0
 62
     0
 10
2.60243
 20
6.882
 30
0.0
 11
2.84506
 21
6.81429
 31
0.0
  0
LINE
  8
0
 62
     0
 10
2.84506
 20
6.81429
 30
0.0
 11
3.11111
 21
6.79167
 31
0.0
  0
LINE
  8
0
 62
     0
 10
3.11111
 20
6.79167
 30
0.0
 11
3.37804
 21
6.81467
 31
0.0
  0
LINE
  8
0
 62
     0
 10
3.37804
 20
6.81467
 30
0.0
 11
3.62326
 21
6.88368
 31
0.0
  0
LINE
  8
0
 62
     0
 10
3.62326
 20
6.88368
 30
0.0
 11
3.84679
 21
6.99869
 31
0.0
  0
LINE
  8
0
 62
     0
 10
3.84679
 20
6.99869
 30
0.0
 11
4.04861
 21
7.15972
 31
0.0
  0
LINE
  8
0
 62
     0
 10
4.04861
 20
7.15972
 30
0.0
 11
4.21485
 21
7.35639
 31
0.0
  0
LINE
  8
0
 62
     0
 10
4.21485
 20
7.35639
 30
0.0
 11
4.3316
 21
7.57818
 31
0.0
  0
LINE
  8
0
 62
     0
 10
4.3316
 20
7.57818
 30
0.0
 11
4.39887
 21
7.82514
 31
0.0
  0
LINE
  8
0
 62
     0
 10
4.39887
 20
7.82514
 30
0.0
 11
4.41667
 21
8.09722
 31
0.0
  0
LINE
  8
0
 62
     0
 10
5.34722
 20
8.09722
 30
0.0
 11
5.33594
 21
7.87196
 31
0.0
  0
LINE
  8
0
 62
     0
 10
5.33594
 20
7.87196
 30
0.0
 11
5.30208
 21
7.65451
 31
0.0
  0
LINE
  8
0
 62
     0
 10
5.30208
 20
7.65451
 30
0.0
 11
5.24567
 21
7.44488
 31
0.0
  0
LINE
  8
0
 62
     0
 10
5.24567
 20
7.44488
 30
0.0
 11
5.16667
 21
7.24306
 31
0.0
  0
LINE
  8
0
 62
     0
 10
5.16667
 20
7.24306
 30
0.0
 11
5.06808
 21
7.05214
 31
0.0
  0
LINE
  8
0
 62
     0
 10
5.06808
 20
7.05214
 30
0.0
 11
4.95307
 21
6.87506
 31
0.0
  0
LINE
  8
0
 62
     0
 10
4.95307
 20
6.87506
 30
0.0
 11
4.82156
 21
6.71186
 31
0.0
  0
LINE
  8
0
 62
     0
 10
4.82156
 20
6.71186
 30
0.0
 11
4.67361
 21
6.5625
 31
0.0
  0
LINE
  8
0
 62
     0
 10
4.67361
 20
6.5625
 30
0.0
 11
4.33849
 21
6.30729
 31
0.0
  0
LINE
  8
0
 62
     0
 10
4.33849
 20
6.30729
 30
0.0
 11
3.95833
 21
6.11111
 31
0.0
  0
LINE
  8
0
 62
     0
 10
3.95833
 20
6.11111
 30
0.0
 11
3.54514
 21
5.98611
 31
0.0
  0
LINE
  8
0
 62
     0
 10
3.54514
 20
5.98611
 30
0.0
 11
3.11111
 21
5.94444
 31
0.0
  0
LINE
  8
0
 62
     0
 10
3.11111
 20
5.94444
 30
0.0
 11
2.67708
 21
5.98611
 31
0.0
  0
LINE
  8
0
 62
     0
 10
2.67708
 20
5.98611
 30
0.0
 11
2.26389
 21
6.11111
 31
0.0
  0
LINE
  8
0
 62
     0
 10
2.26389
 20
6.11111
 30
0.0
 11
1.88542
 21
6.30729
 31
0.0
  0
LINE
  8
0
 62
     0
 10
1.88542
 20
6.30729
 30
0.0
 11
1.55556
 21
6.5625
 31
0.0
  0
LINE
  8
0
 62
     0
 10
1.55556
 20
6.5625
 30
0.0
 11
1.41054
 21
6.71186
 31
0.0
  0
LINE
  8
0
 62
     0
 10
1.41054
 20
6.71186
 30
0.0
 11
1.28125
 21
6.87506
 31
0.0
  0
LINE
  8
0
 62
     0
 10
1.28125
 20
6.87506
 30
0.0
 11
1.16753
 21
7.05214
 31
0.0
  0
LINE
  8
0
 62
     0
 10
1.16753
 20
7.05214
 30
0.0
 11
1.06944
 21
7.24306
 31
0.0
  0
LINE
  8
0
 62
     0
 10
1.06944
 20
7.24306
 30
0.0
 11
0.990397
 21
7.44488
 31
0.0
  0
LINE
  8
0
 62
     0
 10
0.990397
 20
7.44488
 30
0.0
 11
0.933974
 21
7.65451
 31
0.0
  0
LINE
  8
0
 62
     0
 10
0.933974
 20
7.65451
 30
0.0
 11
0.900119
 21
7.87196
 31
0.0
  0
LINE
  8
0
 62
     0
 10
0.900119
 20
7.87196
 30
0.0
 11
0.888889
 21
8.09722
 31
0.0
  0
LINE
  8
0
 62
     0
 10
0.888889
 20
8.09722
 30
0.0
 11
0.900119
 21
8.32249
 31
0.0
  0
LINE
  8
0
 62
     0
 10
0.900119
 20
8.32249
 30
0.0
 11
0.933974
 21
8.53993
 31
0.0
  0
LINE
  8
0
 62
     0
 10
0.933974
 20
8.53993
 30
0.0
 11
0.990397
 21
8.74957
 31
0.0
  0
LINE
  8
0
 62
     0
 10
0.990397
 20
8.74957
 30
0.0
 11
1.06944
 21
8.95139
 31
0.0
  0
LINE
  8
0
 62
     0
 10
1.06944
 20
8.95139
 30
0.0
 11
1.1671
 21
9.14236
 31
0.0
  0
LINE
  8
0
 62
     0
 10
1.1671
 20
9.14236
 30
0.0
 11
1.27951
 21
9.31944
 31
0.0
  0
LINE
  8
0
 62
     0
 10
1.27951
 20
9.31944
 30
0.0
 11
1.40668
 21
9.48264
 31
0.0
  0
LINE
  8
0
 62
     0
 10
1.40668
 20
9.48264
 30
0.0
 11
1.54861
 21
9.63194
 31
0.0
  0
LINE
  8
0
 62
     0
 10
1.54861
 20
9.63194
 30
0.0
 11
1.70437
 21
9.76699
 31
0.0
  0
LINE
  8
0
 62
     0
 10
1.70437
 20
9.76699
 30
0.0
 11
1.87326
 21
9.88721
 31
0.0
  0
LINE
  8
0
 62
     0
 10
1.87326
 20
9.88721
 30
0.0
 11
2.05512
 21
9.99268
 31
0.0
  0
LINE
  8
0
 62
     0
 10
2.05512
 20
9.99268
 30
0.0
 11
2.25
 21
10.0833
 31
0.0
  0
LINE
  8
0
 62
     0
 10
2.25
 20
10.0833
 30
0.0
 11
2.45481
 21
10.1563
 31
0.0
  0
LINE
  8
0
 62
     0
 10
2.45481
 20
10.1563
 30
0.0
 11
2.66661
 21
10.2083
 31
0.0
  0
LINE
  8
0
 62
     0
 10
2.66661
 20
10.2083
 30
0.0
 11
2.88536
 21
10.2396
 31
0.0
  0
LINE
  8
0
 62
     0
 10
2.88536
 20
10.2396
 30
0.0
 11
3.11111
 21
10.25
 31
0.0
  0
LINE
  8
0
 62
     0
 10
3.11111
 20
10.25
 30
0.0
 11
3.55556
 21
10.2101
 31
0.0
  0
LINE
  8
0
 62
     0
 10
3.55556
 20
10.2101
 30
0.0
 11
3.97222
 21
10.0903
 31
0.0
  0
LINE
  8
0
 62
     0
 10
3.97222
 20
10.0903
 30
0.0
 11
4.16749
 21
10.0022
 31
0.0
  0
LINE
  8
0
 62
     0
 10
4.16749
 20
10.0022
 30
0.0
 11
4.35064
 21
9.89757
 31
0.0
  0
LINE
  8
0
 62
     0
 10
4.35064
 20
9.89757
 30
0.0
 11
4.52165
 21
9.77647
 31
0.0
  0
LINE
  8
0
 62
     0
 10
4.52165
 20
9.77647
 30
0.0
 11
4.68056
 21
9.63889
 31
0.0
  0
LINE
  8
0
 62
     0
 10
4.68056
 20
9.63889
 30
0.0
 11
4.82553
 21
9.48654
 31
0.0
  0
LINE
  8
0
 62
     0
 10
4.82553
 20
9.48654
 30
0.0
 11
4.95486
 21
9.32118
 31
0.0
  0
LINE
  8
0
 62
     0
 10
4.95486
 20
9.32118
 30
0.0
 11
5.06853
 21
9.14279
 31
0.0
  0
LINE
  8
0
 62
     0
 10
5.06853
 20
9.14279
 30
0.0
 11
5.16667
 21
8.95139
 31
0.0
  0
LINE
  8
0
 62
     0
 10
5.16667
 20
8.95139
 30
0.0
 11
5.24567
 21
8.74957
 31
0.0
  0
LINE
  8
0
 62
     0
 10
5.24567
 20
8.74957
 30
0.0
 11
5.30208
 21
8.53993
 31
0.0
  0
LINE
  8
0
 62
     0
 10
5.30208
 20
8.53993
 30
0.0
 11
5.33594
 21
8.32249
 31
0.0
  0
LINE
  8
0
 62
     0
 10
5.33594
 20
8.32249
 30
0.0
 11
5.34722
 21
8.09722
 31
0.0
  0
ENDSEC
  0
EOF
