  0
SECTION
  2
HEADER
  9
$ACADVER
  1
AC1009
  9
$EXTMIN
 10
0.0
 20
0.0
 30
0.0
  9
$EXTMAX
 10
1000.0
 20
1000.0
 30
0.0
  9
$FILLMODE
 70
 0
  9
$SPLFRAME
 70
 1
  0
ENDSEC
  0
SECTION
  2
TABLES
  0
TABLE
  2
LAYER
 70
1
  0
LAYER
  2
0
 70
     0
 62
     7
  6
CONTINUOUS
  0
ENDTAB
  0
ENDSEC
  0
SECTION
  2
ENTITIES
  0
LINE
  8
0
 62
     0
 10
2.66667
 20
7.66667
 30
0.0
 11
2.868
 21
7.68278
 31
0.0
  0
LINE
  8
0
 62
     0
 10
2.868
 20
7.68278
 30
0.0
 11
3.0555
 21
7.73096
 31
0.0
  0
LINE
  8
0
 62
     0
 10
3.0555
 20
7.73096
 30
0.0
 11
3.22911
 21
7.81125
 31
0.0
  0
LINE
  8
0
 62
     0
 10
3.22911
 20
7.81125
 30
0.0
 11
3.38889
 21
7.92361
 31
0.0
  0
LINE
  8
0
 62
     0
 10
3.38889
 20
7.92361
 30
0.0
 11
3.52257
 21
8.06293
 31
0.0
  0
LINE
  8
0
 62
     0
 10
3.52257
 20
8.06293
 30
0.0
 11
3.61806
 21
8.22396
 31
0.0
  0
LINE
  8
0
 62
     0
 10
3.61806
 20
8.22396
 30
0.0
 11
3.67535
 21
8.40668
 31
0.0
  0
LINE
  8
0
 62
     0
 10
3.67535
 20
8.40668
 30
0.0
 11
3.69444
 21
8.61111
 31
0.0
  0
LINE
  8
0
 62
     0
 10
3.69444
 20
8.61111
 30
0.0
 11
3.67665
 21
8.80425
 31
0.0
  0
LINE
  8
0
 62
     0
 10
3.67665
 20
8.80425
 30
0.0
 11
3.62326
 21
8.9809
 31
0.0
  0
LINE
  8
0
 62
     0
 10
3.62326
 20
8.9809
 30
0.0
 11
3.53429
 21
9.14106
 31
0.0
  0
LINE
  8
0
 62
     0
 10
3.53429
 20
9.14106
 30
0.0
 11
3.40972
 21
9.28472
 31
0.0
  0
LINE
  8
0
 62
     0
 10
3.40972
 20
9.28472
 30
0.0
 11
3.25819
 21
9.40321
 31
0.0
  0
LINE
  8
0
 62
     0
 10
3.25819
 20
9.40321
 30
0.0
 11
3.08854
 21
9.48785
 31
0.0
  0
LINE
  8
0
 62
     0
 10
3.08854
 20
9.48785
 30
0.0
 11
2.90061
 21
9.53863
 31
0.0
  0
LINE
  8
0
 62
     0
 10
2.90061
 20
9.53863
 30
0.0
 11
2.69444
 21
9.55556
 31
0.0
  0
LINE
  8
0
 62
     0
 10
2.69444
 20
9.55556
 30
0.0
 11
2.45221
 21
9.53782
 31
0.0
  0
LINE
  8
0
 62
     0
 10
2.45221
 20
9.53782
 30
0.0
 11
2.23953
 21
9.48443
 31
0.0
  0
LINE
  8
0
 62
     0
 10
2.23953
 20
9.48443
 30
0.0
 11
2.05638
 21
9.39546
 31
0.0
  0
LINE
  8
0
 62
     0
 10
2.05638
 20
9.39546
 30
0.0
 11
1.90278
 21
9.27083
 31
0.0
  0
LINE
  8
0
 62
     0
 10
1.90278
 20
9.27083
 30
0.0
 11
1.78125
 21
9.12283
 31
0.0
  0
LINE
  8
0
 62
     0
 10
1.78125
 20
9.12283
 30
0.0
 11
1.69444
 21
8.96354
 31
0.0
  0
LINE
  8
0
 62
     0
 10
1.69444
 20
8.96354
 30
0.0
 11
1.64236
 21
8.79297
 31
0.0
  0
LINE
  8
0
 62
     0
 10
1.64236
 20
8.79297
 30
0.0
 11
1.625
 21
8.61111
 31
0.0
  0
LINE
  8
0
 62
     0
 10
1.625
 20
8.61111
 30
0.0
 11
1.64236
 21
8.42931
 31
0.0
  0
LINE
  8
0
 62
     0
 10
1.64236
 20
8.42931
 30
0.0
 11
1.69444
 21
8.25874
 31
0.0
  0
LINE
  8
0
 62
     0
 10
1.69444
 20
8.25874
 30
0.0
 11
1.78125
 21
8.09944
 31
0.0
  0
LINE
  8
0
 62
     0
 10
1.78125
 20
8.09944
 30
0.0
 11
1.90278
 21
7.95139
 31
0.0
  0
LINE
  8
0
 62
     0
 10
1.90278
 20
7.95139
 30
0.0
 11
2.05464
 21
7.82682
 31
0.0
  0
LINE
  8
0
 62
     0
 10
2.05464
 20
7.82682
 30
0.0
 11
2.23264
 21
7.73785
 31
0.0
  0
LINE
  8
0
 62
     0
 10
2.23264
 20
7.73785
 30
0.0
 11
2.43664
 21
7.68446
 31
0.0
  0
LINE
  8
0
 62
     0
 10
2.43664
 20
7.68446
 30
0.0
 11
2.66667
 21
7.66667
 31
0.0
  0
LINE
  8
0
 62
     0
 10
2.63889
 20
4.69444
 30
0.0
 11
2.87847
 21
4.71354
 31
0.0
  0
LINE
  8
0
 62
     0
 10
2.87847
 20
4.71354
 30
0.0
 11
3.09722
 21
4.77083
 31
0.0
  0
LINE
  8
0
 62
     0
 10
3.09722
 20
4.77083
 30
0.0
 11
3.29514
 21
4.86632
 31
0.0
  0
LINE
  8
0
 62
     0
 10
3.29514
 20
4.86632
 30
0.0
 11
3.47222
 21
5
 31
0.0
  0
LINE
  8
0
 62
     0
 10
3.47222
 20
5
 30
0.0
 11
3.61806
 21
5.16411
 31
0.0
  0
LINE
  8
0
 62
     0
 10
3.61806
 20
5.16411
 30
0.0
 11
3.72222
 21
5.35075
 31
0.0
  0
LINE
  8
0
 62
     0
 10
3.72222
 20
5.35075
 30
0.0
 11
3.78472
 21
5.55994
 31
0.0
  0
LINE
  8
0
 62
     0
 10
3.78472
 20
5.55994
 30
0.0
 11
3.80556
 21
5.79167
 31
0.0
  0
LINE
  8
0
 62
     0
 10
3.80556
 20
5.79167
 30
0.0
 11
3.78863
 21
6.01389
 31
0.0
  0
LINE
  8
0
 62
     0
 10
3.78863
 20
6.01389
 30
0.0
 11
3.73785
 21
6.22222
 31
0.0
  0
LINE
  8
0
 62
     0
 10
3.73785
 20
6.22222
 30
0.0
 11
3.65321
 21
6.41667
 31
0.0
  0
LINE
  8
0
 62
     0
 10
3.65321
 20
6.41667
 30
0.0
 11
3.53472
 21
6.59722
 31
0.0
  0
LINE
  8
0
 62
     0
 10
3.53472
 20
6.59722
 30
0.0
 11
3.37978
 21
6.74918
 31
0.0
  0
LINE
  8
0
 62
     0
 10
3.37978
 20
6.74918
 30
0.0
 11
3.18576
 21
6.85769
 31
0.0
  0
LINE
  8
0
 62
     0
 10
3.18576
 20
6.85769
 30
0.0
 11
2.95269
 21
6.92279
 31
0.0
  0
LINE
  8
0
 62
     0
 10
2.95269
 20
6.92279
 30
0.0
 11
2.68056
 21
6.94444
 31
0.0
  0
LINE
  8
0
 62
     0
 10
2.68056
 20
6.94444
 30
0.0
 11
2.41667
 21
6.92019
 31
0.0
  0
LINE
  8
0
 62
     0
 10
2.41667
 20
6.92019
 30
0.0
 11
2.18056
 21
6.84722
 31
0.0
  0
LINE
  8
0
 62
     0
 10
2.18056
 20
6.84722
 30
0.0
 11
1.97396
 21
6.73438
 31
0.0
  0
LINE
  8
0
 62
     0
 10
1.97396
 20
6.73438
 30
0.0
 11
1.79861
 21
6.59028
 31
0.0
  0
LINE
  8
0
 62
     0
 10
1.79861
 20
6.59028
 30
0.0
 11
1.65619
 21
6.4184
 31
0.0
  0
LINE
  8
0
 62
     0
 10
1.65619
 20
6.4184
 30
0.0
 11
1.54861
 21
6.22222
 31
0.0
  0
LINE
  8
0
 62
     0
 10
1.54861
 20
6.22222
 30
0.0
 11
1.4809
 21
6.01047
 31
0.0
  0
LINE
  8
0
 62
     0
 10
1.4809
 20
6.01047
 30
0.0
 11
1.45833
 21
5.79167
 31
0.0
  0
LINE
  8
0
 62
     0
 10
1.45833
 20
5.79167
 30
0.0
 11
1.477
 21
5.57688
 31
0.0
  0
LINE
  8
0
 62
     0
 10
1.477
 20
5.57688
 30
0.0
 11
1.53299
 21
5.37679
 31
0.0
  0
LINE
  8
0
 62
     0
 10
1.53299
 20
5.37679
 30
0.0
 11
1.62631
 21
5.19146
 31
0.0
  0
LINE
  8
0
 62
     0
 10
1.62631
 20
5.19146
 30
0.0
 11
1.75694
 21
5.02083
 31
0.0
  0
LINE
  8
0
 62
     0
 10
1.75694
 20
5.02083
 30
0.0
 11
1.92399
 21
4.87804
 31
0.0
  0
LINE
  8
0
 62
     0
 10
1.92399
 20
4.87804
 30
0.0
 11
2.12668
 21
4.77604
 31
0.0
  0
LINE
  8
0
 62
     0
 10
2.12668
 20
4.77604
 30
0.0
 11
2.36496
 21
4.71485
 31
0.0
  0
LINE
  8
0
 62
     0
 10
2.36496
 20
4.71485
 30
0.0
 11
2.63889
 21
4.69444
 31
0.0
  0
LINE
  8
0
 62
     0
 10
2.69444
 20
10.2083
 30
0.0
 11
3.02257
 21
10.1841
 31
0.0
  0
LINE
  8
0
 62
     0
 10
3.02257
 20
10.1841
 30
0.0
 11
3.34028
 21
10.1111
 31
0.0
  0
LINE
  8
0
 62
     0
 10
3.34028
 20
10.1111
 30
0.0
 11
3.63536
 21
9.98958
 31
0.0
  0
LINE
  8
0
 62
     0
 10
3.63536
 20
9.98958
 30
0.0
 11
3.89583
 21
9.81944
 31
0.0
  0
LINE
  8
0
 62
     0
 10
3.89583
 20
9.81944
 30
0.0
 11
4.11458
 21
9.5989
 31
0.0
  0
LINE
  8
0
 62
     0
 10
4.11458
 20
9.5989
 30
0.0
 11
4.28472
 21
9.32639
 31
0.0
  0
LINE
  8
0
 62
     0
 10
4.28472
 20
9.32639
 30
0.0
 11
4.34853
 21
9.16976
 31
0.0
  0
LINE
  8
0
 62
     0
 10
4.34853
 20
9.16976
 30
0.0
 11
4.3941
 21
8.99832
 31
0.0
  0
LINE
  8
0
 62
     0
 10
4.3941
 20
8.99832
 30
0.0
 11
4.42144
 21
8.81213
 31
0.0
  0
LINE
  8
0
 62
     0
 10
4.42144
 20
8.81213
 30
0.0
 11
4.43056
 21
8.61111
 31
0.0
  0
LINE
  8
0
 62
     0
 10
4.43056
 20
8.61111
 30
0.0
 11
4.41883
 21
8.39063
 31
0.0
  0
LINE
  8
0
 62
     0
 10
4.41883
 20
8.39063
 30
0.0
 11
4.38368
 21
8.1875
 31
0.0
  0
LINE
  8
0
 62
     0
 10
4.38368
 20
8.1875
 30
0.0
 11
4.32508
 21
8.00174
 31
0.0
  0
LINE
  8
0
 62
     0
 10
4.32508
 20
8.00174
 30
0.0
 11
4.24306
 21
7.83333
 31
0.0
  0
LINE
  8
0
 62
     0
 10
4.24306
 20
7.83333
 30
0.0
 11
4.14279
 21
7.68142
 31
0.0
  0
LINE
  8
0
 62
     0
 10
4.14279
 20
7.68142
 30
0.0
 11
4.02951
 21
7.54514
 31
0.0
  0
LINE
  8
0
 62
     0
 10
4.02951
 20
7.54514
 30
0.0
 11
3.90321
 21
7.42447
 31
0.0
  0
LINE
  8
0
 62
     0
 10
3.90321
 20
7.42447
 30
0.0
 11
3.76389
 21
7.31944
 31
0.0
  0
LINE
  8
0
 62
     0
 10
3.76389
 20
7.31944
 30
0.0
 11
3.94228
 21
7.20404
 31
0.0
  0
LINE
  8
0
 62
     0
 10
3.94228
 20
7.20404
 30
0.0
 11
4.10243
 21
7.06603
 31
0.0
  0
LINE
  8
0
 62
     0
 10
4.10243
 20
7.06603
 30
0.0
 11
4.24436
 21
6.90543
 31
0.0
  0
LINE
  8
0
 62
     0
 10
4.24436
 20
6.90543
 30
0.0
 11
4.36806
 21
6.72222
 31
0.0
  0
LINE
  8
0
 62
     0
 10
4.36806
 20
6.72222
 30
0.0
 11
4.46832
 21
6.51822
 31
0.0
  0
LINE
  8
0
 62
     0
 10
4.46832
 20
6.51822
 30
0.0
 11
4.53993
 21
6.29514
 31
0.0
  0
LINE
  8
0
 62
     0
 10
4.53993
 20
6.29514
 30
0.0
 11
4.5829
 21
6.05294
 31
0.0
  0
LINE
  8
0
 62
     0
 10
4.5829
 20
6.05294
 30
0.0
 11
4.59722
 21
5.79167
 31
0.0
  0
LINE
  8
0
 62
     0
 10
4.59722
 20
5.79167
 30
0.0
 11
4.58632
 21
5.57644
 31
0.0
  0
LINE
  8
0
 62
     0
 10
4.58632
 20
5.57644
 30
0.0
 11
4.55376
 21
5.37506
 31
0.0
  0
LINE
  8
0
 62
     0
 10
4.55376
 20
5.37506
 30
0.0
 11
4.49951
 21
5.18756
 31
0.0
  0
LINE
  8
0
 62
     0
 10
4.49951
 20
5.18756
 30
0.0
 11
4.42361
 21
5.01389
 31
0.0
  0
LINE
  8
0
 62
     0
 10
4.42361
 20
5.01389
 30
0.0
 11
4.22396
 21
4.7066
 31
0.0
  0
LINE
  8
0
 62
     0
 10
4.22396
 20
4.7066
 30
0.0
 11
3.97222
 21
4.45139
 31
0.0
  0
LINE
  8
0
 62
     0
 10
3.97222
 20
4.45139
 30
0.0
 11
3.67535
 21
4.25174
 31
0.0
  0
LINE
  8
0
 62
     0
 10
3.67535
 20
4.25174
 30
0.0
 11
3.34028
 21
4.11111
 31
0.0
  0
LINE
  8
0
 62
     0
 10
3.34028
 20
4.11111
 30
0.0
 11
2.98785
 21
4.02783
 31
0.0
  0
LINE
  8
0
 62
     0
 10
2.98785
 20
4.02783
 30
0.0
 11
2.63889
 21
4
 31
0.0
  0
LINE
  8
0
 62
     0
 10
2.63889
 20
4
 30
0.0
 11
2.24826
 21
4.02783
 31
0.0
  0
LINE
  8
0
 62
     0
 10
2.24826
 20
4.02783
 30
0.0
 11
1.88194
 21
4.11111
 31
0.0
  0
LINE
  8
0
 62
     0
 10
1.88194
 20
4.11111
 30
0.0
 11
1.54861
 21
4.25174
 31
0.0
  0
LINE
  8
0
 62
     0
 10
1.54861
 20
4.25174
 30
0.0
 11
1.25694
 21
4.45139
 31
0.0
  0
LINE
  8
0
 62
     0
 10
1.25694
 20
4.45139
 30
0.0
 11
1.01389
 21
4.7066
 31
0.0
  0
LINE
  8
0
 62
     0
 10
1.01389
 20
4.7066
 30
0.0
 11
0.826389
 21
5.01389
 31
0.0
  0
LINE
  8
0
 62
     0
 10
0.826389
 20
5.01389
 30
0.0
 11
0.756456
 21
5.18756
 31
0.0
  0
LINE
  8
0
 62
     0
 10
0.756456
 20
5.18756
 30
0.0
 11
0.706543
 21
5.37506
 31
0.0
  0
LINE
  8
0
 62
     0
 10
0.706543
 20
5.37506
 30
0.0
 11
0.676594
 21
5.57644
 31
0.0
  0
LINE
  8
0
 62
     0
 10
0.676594
 20
5.57644
 30
0.0
 11
0.666667
 21
5.79167
 31
0.0
  0
LINE
  8
0
 62
     0
 10
0.666667
 20
5.79167
 30
0.0
 11
0.680989
 21
6.05257
 31
0.0
  0
LINE
  8
0
 62
     0
 10
0.680989
 20
6.05257
 30
0.0
 11
0.723958
 21
6.29346
 31
0.0
  0
LINE
  8
0
 62
     0
 10
0.723958
 20
6.29346
 30
0.0
 11
0.795572
 21
6.51438
 31
0.0
  0
LINE
  8
0
 62
     0
 10
0.795572
 20
6.51438
 30
0.0
 11
0.895833
 21
6.71528
 31
0.0
  0
LINE
  8
0
 62
     0
 10
0.895833
 20
6.71528
 30
0.0
 11
1.02127
 21
6.89632
 31
0.0
  0
LINE
  8
0
 62
     0
 10
1.02127
 20
6.89632
 30
0.0
 11
1.1684
 21
7.05735
 31
0.0
  0
LINE
  8
0
 62
     0
 10
1.1684
 20
7.05735
 30
0.0
 11
1.33724
 21
7.1984
 31
0.0
  0
LINE
  8
0
 62
     0
 10
1.33724
 20
7.1984
 30
0.0
 11
1.52778
 21
7.31944
 31
0.0
  0
LINE
  8
0
 62
     0
 10
1.52778
 20
7.31944
 30
0.0
 11
1.38926
 21
7.42447
 31
0.0
  0
LINE
  8
0
 62
     0
 10
1.38926
 20
7.42447
 30
0.0
 11
1.26557
 21
7.54514
 31
0.0
  0
LINE
  8
0
 62
     0
 10
1.26557
 20
7.54514
 30
0.0
 11
1.15663
 21
7.68147
 31
0.0
  0
LINE
  8
0
 62
     0
 10
1.15663
 20
7.68147
 30
0.0
 11
1.0625
 21
7.83333
 31
0.0
  0
LINE
  8
0
 62
     0
 10
1.0625
 20
7.83333
 30
0.0
 11
0.986544
 21
8.00174
 31
0.0
  0
LINE
  8
0
 62
     0
 10
0.986544
 20
8.00174
 30
0.0
 11
0.932292
 21
8.1875
 31
0.0
  0
LINE
  8
0
 62
     0
 10
0.932292
 20
8.1875
 30
0.0
 11
0.899739
 21
8.39063
 31
0.0
  0
LINE
  8
0
 62
     0
 10
0.899739
 20
8.39063
 30
0.0
 11
0.888889
 21
8.61111
 31
0.0
  0
LINE
  8
0
 62
     0
 10
0.888889
 20
8.61111
 30
0.0
 11
0.898003
 21
8.81213
 31
0.0
  0
LINE
  8
0
 62
     0
 10
0.898003
 20
8.81213
 30
0.0
 11
0.925347
 21
8.99832
 31
0.0
  0
LINE
  8
0
 62
     0
 10
0.925347
 20
8.99832
 30
0.0
 11
0.970919
 21
9.16976
 31
0.0
  0
LINE
  8
0
 62
     0
 10
0.970919
 20
9.16976
 30
0.0
 11
1.03472
 21
9.32639
 31
0.0
  0
LINE
  8
0
 62
     0
 10
1.03472
 20
9.32639
 30
0.0
 11
1.20481
 21
9.59896
 31
0.0
  0
LINE
  8
0
 62
     0
 10
1.20481
 20
9.59896
 30
0.0
 11
1.42361
 21
9.81944
 31
0.0
  0
LINE
  8
0
 62
     0
 10
1.42361
 20
9.81944
 30
0.0
 11
1.6875
 21
9.98958
 31
0.0
  0
LINE
  8
0
 62
     0
 10
1.6875
 20
9.98958
 30
0.0
 11
1.99306
 21
10.1111
 31
0.0
  0
LINE
  8
0
 62
     0
 10
1.99306
 20
10.1111
 30
0.0
 11
2.3316
 21
10.1841
 31
0.0
  0
LINE
  8
0
 62
     0
 10
2.3316
 20
10.1841
 30
0.0
 11
2.69444
 21
10.2083
 31
0.0
  0
ENDSEC
  0
EOF
