  0
SECTION
  2
HEADER
  9
$ACADVER
  1
AC1009
  9
$EXTMIN
 10
0.0
 20
0.0
 30
0.0
  9
$EXTMAX
 10
1000.0
 20
1000.0
 30
0.0
  9
$FILLMODE
 70
 0
  9
$SPLFRAME
 70
 1
  0
ENDSEC
  0
SECTION
  2
TABLES
  0
TABLE
  2
LAYER
 70
1
  0
LAYER
  2
0
 70
     0
 62
     7
  6
CONTINUOUS
  0
ENDTAB
  0
ENDSEC
  0
SECTION
  2
ENTITIES
  0
LINE
  8
0
 62
     0
 10
1.81944
 20
2.25
 30
0.0
 11
1.85932
 21
1.97054
 31
0.0
  0
LINE
  8
0
 62
     0
 10
1.85932
 20
1.97054
 30
0.0
 11
1.97917
 21
1.71528
 31
0.0
  0
LINE
  8
0
 62
     0
 10
1.97917
 20
1.71528
 30
0.0
 11
2.16319
 21
1.48958
 31
0.0
  0
LINE
  8
0
 62
     0
 10
2.16319
 20
1.48958
 30
0.0
 11
2.39583
 21
1.29861
 31
0.0
  0
LINE
  8
0
 62
     0
 10
2.39583
 20
1.29861
 30
0.0
 11
2.67182
 21
1.14415
 31
0.0
  0
LINE
  8
0
 62
     0
 10
2.67182
 20
1.14415
 30
0.0
 11
2.98611
 21
1.02778
 31
0.0
  0
LINE
  8
0
 62
     0
 10
2.98611
 20
1.02778
 30
0.0
 11
3.32286
 21
0.954861
 31
0.0
  0
LINE
  8
0
 62
     0
 10
3.32286
 20
0.954861
 30
0.0
 11
3.66667
 21
0.930556
 31
0.0
  0
LINE
  8
0
 62
     0
 10
3.66667
 20
0.930556
 30
0.0
 11
3.91064
 21
0.94081
 31
0.0
  0
LINE
  8
0
 62
     0
 10
3.91064
 20
0.94081
 30
0.0
 11
4.14274
 21
0.971408
 31
0.0
  0
LINE
  8
0
 62
     0
 10
4.14274
 20
0.971408
 30
0.0
 11
4.3629
 21
1.02241
 31
0.0
  0
LINE
  8
0
 62
     0
 10
4.3629
 20
1.02241
 30
0.0
 11
4.57113
 21
1.0938
 31
0.0
  0
LINE
  8
0
 62
     0
 10
4.57113
 20
1.0938
 30
0.0
 11
4.76742
 21
1.1856
 31
0.0
  0
LINE
  8
0
 62
     0
 10
4.76742
 20
1.1856
 30
0.0
 11
4.95176
 21
1.2978
 31
0.0
  0
LINE
  8
0
 62
     0
 10
4.95176
 20
1.2978
 30
0.0
 11
5.12418
 21
1.43039
 31
0.0
  0
LINE
  8
0
 62
     0
 10
5.12418
 20
1.43039
 30
0.0
 11
5.28472
 21
1.58333
 31
0.0
  0
LINE
  8
0
 62
     0
 10
5.28472
 20
1.58333
 30
0.0
 11
5.42958
 21
1.75478
 31
0.0
  0
LINE
  8
0
 62
     0
 10
5.42958
 20
1.75478
 30
0.0
 11
5.55512
 21
1.94271
 31
0.0
  0
LINE
  8
0
 62
     0
 10
5.55512
 20
1.94271
 30
0.0
 11
5.66135
 21
2.14714
 31
0.0
  0
LINE
  8
0
 62
     0
 10
5.66135
 20
2.14714
 30
0.0
 11
5.74826
 21
2.36806
 31
0.0
  0
LINE
  8
0
 62
     0
 10
5.74826
 20
2.36806
 30
0.0
 11
5.81586
 21
2.60547
 31
0.0
  0
LINE
  8
0
 62
     0
 10
5.81586
 20
2.60547
 30
0.0
 11
5.86415
 21
2.85938
 31
0.0
  0
LINE
  8
0
 62
     0
 10
5.86415
 20
2.85938
 30
0.0
 11
5.89312
 21
3.12978
 31
0.0
  0
LINE
  8
0
 62
     0
 10
5.89312
 20
3.12978
 30
0.0
 11
5.90278
 21
3.41667
 31
0.0
  0
LINE
  8
0
 62
     0
 10
5.90278
 20
3.41667
 30
0.0
 11
5.89318
 21
3.66146
 31
0.0
  0
LINE
  8
0
 62
     0
 10
5.89318
 20
3.66146
 30
0.0
 11
5.86453
 21
3.89583
 31
0.0
  0
LINE
  8
0
 62
     0
 10
5.86453
 20
3.89583
 30
0.0
 11
5.81679
 21
4.11979
 31
0.0
  0
LINE
  8
0
 62
     0
 10
5.81679
 20
4.11979
 30
0.0
 11
5.75
 21
4.33333
 31
0.0
  0
LINE
  8
0
 62
     0
 10
5.75
 20
4.33333
 30
0.0
 11
5.66667
 21
4.53472
 31
0.0
  0
LINE
  8
0
 62
     0
 10
5.66667
 20
4.53472
 30
0.0
 11
5.56944
 21
4.72222
 31
0.0
  0
LINE
  8
0
 62
     0
 10
5.56944
 20
4.72222
 30
0.0
 11
5.45833
 21
4.89583
 31
0.0
  0
LINE
  8
0
 62
     0
 10
5.45833
 20
4.89583
 30
0.0
 11
5.33333
 21
5.05556
 31
0.0
  0
LINE
  8
0
 62
     0
 10
5.33333
 20
5.05556
 30
0.0
 11
5.19482
 21
5.20014
 31
0.0
  0
LINE
  8
0
 62
     0
 10
5.19482
 20
5.20014
 30
0.0
 11
5.04335
 21
5.32818
 31
0.0
  0
LINE
  8
0
 62
     0
 10
5.04335
 20
5.32818
 30
0.0
 11
4.87885
 21
5.43972
 31
0.0
  0
LINE
  8
0
 62
     0
 10
4.87885
 20
5.43972
 30
0.0
 11
4.70139
 21
5.53472
 31
0.0
  0
LINE
  8
0
 62
     0
 10
4.70139
 20
5.53472
 30
0.0
 11
4.5134
 21
5.61068
 31
0.0
  0
LINE
  8
0
 62
     0
 10
4.5134
 20
5.61068
 30
0.0
 11
4.31765
 21
5.66493
 31
0.0
  0
LINE
  8
0
 62
     0
 10
4.31765
 20
5.66493
 30
0.0
 11
4.1141
 21
5.69749
 31
0.0
  0
LINE
  8
0
 62
     0
 10
4.1141
 20
5.69749
 30
0.0
 11
3.90278
 21
5.70833
 31
0.0
  0
LINE
  8
0
 62
     0
 10
3.90278
 20
5.70833
 30
0.0
 11
3.54335
 21
5.69618
 31
0.0
  0
LINE
  8
0
 62
     0
 10
3.54335
 20
5.69618
 30
0.0
 11
3.22911
 21
5.65972
 31
0.0
  0
LINE
  8
0
 62
     0
 10
3.22911
 20
5.65972
 30
0.0
 11
2.96001
 21
5.59896
 31
0.0
  0
LINE
  8
0
 62
     0
 10
2.96001
 20
5.59896
 30
0.0
 11
2.73611
 21
5.51389
 31
0.0
  0
LINE
  8
0
 62
     0
 10
2.73611
 20
5.51389
 30
0.0
 11
2.54167
 21
5.40631
 31
0.0
  0
LINE
  8
0
 62
     0
 10
2.54167
 20
5.40631
 30
0.0
 11
2.36111
 21
5.27778
 31
0.0
  0
LINE
  8
0
 62
     0
 10
2.36111
 20
5.27778
 30
0.0
 11
2.19444
 21
5.12847
 31
0.0
  0
LINE
  8
0
 62
     0
 10
2.19444
 20
5.12847
 30
0.0
 11
2.04167
 21
4.95833
 31
0.0
  0
LINE
  8
0
 62
     0
 10
2.04167
 20
4.95833
 30
0.0
 11
0.972222
 21
4.94444
 31
0.0
  0
LINE
  8
0
 62
     0
 10
0.972222
 20
4.94444
 30
0.0
 11
1.48611
 21
10.1389
 31
0.0
  0
LINE
  8
0
 62
     0
 10
1.48611
 20
10.1389
 30
0.0
 11
6.54167
 21
10.1389
 31
0.0
  0
LINE
  8
0
 62
     0
 10
6.54167
 20
10.1389
 30
0.0
 11
6.54167
 21
9.09722
 31
0.0
  0
LINE
  8
0
 62
     0
 10
6.54167
 20
9.09722
 30
0.0
 11
2.48611
 21
9.09722
 31
0.0
  0
LINE
  8
0
 62
     0
 10
2.48611
 20
9.09722
 30
0.0
 11
2.23611
 21
6.06944
 31
0.0
  0
LINE
  8
0
 62
     0
 10
2.23611
 20
6.06944
 30
0.0
 11
2.5625
 21
6.36111
 31
0.0
  0
LINE
  8
0
 62
     0
 10
2.5625
 20
6.36111
 30
0.0
 11
2.73438
 21
6.47569
 31
0.0
  0
LINE
  8
0
 62
     0
 10
2.73438
 20
6.47569
 30
0.0
 11
2.93056
 21
6.56944
 31
0.0
  0
LINE
  8
0
 62
     0
 10
2.93056
 20
6.56944
 30
0.0
 11
3.15451
 21
6.64236
 31
0.0
  0
LINE
  8
0
 62
     0
 10
3.15451
 20
6.64236
 30
0.0
 11
3.40972
 21
6.69444
 31
0.0
  0
LINE
  8
0
 62
     0
 10
3.40972
 20
6.69444
 30
0.0
 11
3.71001
 21
6.72569
 31
0.0
  0
LINE
  8
0
 62
     0
 10
3.71001
 20
6.72569
 30
0.0
 11
4.06944
 21
6.73611
 31
0.0
  0
LINE
  8
0
 62
     0
 10
4.06944
 20
6.73611
 30
0.0
 11
4.37674
 21
6.72179
 31
0.0
  0
LINE
  8
0
 62
     0
 10
4.37674
 20
6.72179
 30
0.0
 11
4.67361
 21
6.67882
 31
0.0
  0
LINE
  8
0
 62
     0
 10
4.67361
 20
6.67882
 30
0.0
 11
4.96007
 21
6.60721
 31
0.0
  0
LINE
  8
0
 62
     0
 10
4.96007
 20
6.60721
 30
0.0
 11
5.23611
 21
6.50694
 31
0.0
  0
LINE
  8
0
 62
     0
 10
5.23611
 20
6.50694
 30
0.0
 11
5.49826
 21
6.38021
 31
0.0
  0
LINE
  8
0
 62
     0
 10
5.49826
 20
6.38021
 30
0.0
 11
5.74306
 21
6.22917
 31
0.0
  0
LINE
  8
0
 62
     0
 10
5.74306
 20
6.22917
 30
0.0
 11
5.97049
 21
6.05382
 31
0.0
  0
LINE
  8
0
 62
     0
 10
5.97049
 20
6.05382
 30
0.0
 11
6.18056
 21
5.85417
 31
0.0
  0
LINE
  8
0
 62
     0
 10
6.18056
 20
5.85417
 30
0.0
 11
6.37104
 21
5.63026
 31
0.0
  0
LINE
  8
0
 62
     0
 10
6.37104
 20
5.63026
 30
0.0
 11
6.53988
 21
5.382
 31
0.0
  0
LINE
  8
0
 62
     0
 10
6.53988
 20
5.382
 30
0.0
 11
6.68701
 21
5.10943
 31
0.0
  0
LINE
  8
0
 62
     0
 10
6.68701
 20
5.10943
 30
0.0
 11
6.8125
 21
4.8125
 31
0.0
  0
LINE
  8
0
 62
     0
 10
6.8125
 20
4.8125
 30
0.0
 11
6.91276
 21
4.49349
 31
0.0
  0
LINE
  8
0
 62
     0
 10
6.91276
 20
4.49349
 30
0.0
 11
6.98438
 21
4.15451
 31
0.0
  0
LINE
  8
0
 62
     0
 10
6.98438
 20
4.15451
 30
0.0
 11
7.02735
 21
3.79557
 31
0.0
  0
LINE
  8
0
 62
     0
 10
7.02735
 20
3.79557
 30
0.0
 11
7.04167
 21
3.41667
 31
0.0
  0
LINE
  8
0
 62
     0
 10
7.04167
 20
3.41667
 30
0.0
 11
7.02783
 21
3.00846
 31
0.0
  0
LINE
  8
0
 62
     0
 10
7.02783
 20
3.00846
 30
0.0
 11
6.98649
 21
2.62414
 31
0.0
  0
LINE
  8
0
 62
     0
 10
6.98649
 20
2.62414
 30
0.0
 11
6.91758
 21
2.26367
 31
0.0
  0
LINE
  8
0
 62
     0
 10
6.91758
 20
2.26367
 30
0.0
 11
6.82113
 21
1.92708
 31
0.0
  0
LINE
  8
0
 62
     0
 10
6.82113
 20
1.92708
 30
0.0
 11
6.6971
 21
1.61436
 31
0.0
  0
LINE
  8
0
 62
     0
 10
6.6971
 20
1.61436
 30
0.0
 11
6.54551
 21
1.32552
 31
0.0
  0
LINE
  8
0
 62
     0
 10
6.54551
 20
1.32552
 30
0.0
 11
6.36638
 21
1.06055
 31
0.0
  0
LINE
  8
0
 62
     0
 10
6.36638
 20
1.06055
 30
0.0
 11
6.15972
 21
0.819444
 31
0.0
  0
LINE
  8
0
 62
     0
 10
6.15972
 20
0.819444
 30
0.0
 11
5.9274
 21
0.6046
 31
0.0
  0
LINE
  8
0
 62
     0
 10
5.9274
 20
0.6046
 30
0.0
 11
5.67144
 21
0.418403
 31
0.0
  0
LINE
  8
0
 62
     0
 10
5.67144
 20
0.418403
 30
0.0
 11
5.39182
 21
0.26085
 31
0.0
  0
LINE
  8
0
 62
     0
 10
5.39182
 20
0.26085
 30
0.0
 11
5.08854
 21
0.131944
 31
0.0
  0
LINE
  8
0
 62
     0
 10
5.08854
 20
0.131944
 30
0.0
 11
4.76161
 21
0.031684
 31
0.0
  0
LINE
  8
0
 62
     0
 10
4.76161
 20
0.031684
 30
0.0
 11
4.41103
 21
-0.0399306
 31
0.0
  0
LINE
  8
0
 62
     0
 10
4.41103
 20
-0.0399306
 30
0.0
 11
4.03678
 21
-0.0828993
 31
0.0
  0
LINE
  8
0
 62
     0
 10
4.03678
 20
-0.0828993
 30
0.0
 11
3.63889
 21
-0.0972222
 31
0.0
  0
LINE
  8
0
 62
     0
 10
3.63889
 20
-0.0972222
 30
0.0
 11
3.31381
 21
-0.0872396
 31
0.0
  0
LINE
  8
0
 62
     0
 10
3.31381
 20
-0.0872396
 30
0.0
 11
3.00521
 21
-0.0572917
 31
0.0
  0
LINE
  8
0
 62
     0
 10
3.00521
 20
-0.0572917
 30
0.0
 11
2.71311
 21
-0.00737847
 31
0.0
  0
LINE
  8
0
 62
     0
 10
2.71311
 20
-0.00737847
 30
0.0
 11
2.4375
 21
0.0625
 31
0.0
  0
LINE
  8
0
 62
     0
 10
2.4375
 20
0.0625
 30
0.0
 11
2.17919
 21
0.151096
 31
0.0
  0
LINE
  8
0
 62
     0
 10
2.17919
 20
0.151096
 30
0.0
 11
1.93924
 21
0.256999
 31
0.0
  0
LINE
  8
0
 62
     0
 10
1.93924
 20
0.256999
 30
0.0
 11
1.71744
 21
0.380263
 31
0.0
  0
LINE
  8
0
 62
     0
 10
1.71744
 20
0.380263
 30
0.0
 11
1.51389
 21
0.520833
 31
0.0
  0
LINE
  8
0
 62
     0
 10
1.51389
 20
0.520833
 30
0.0
 11
1.33068
 21
0.678819
 31
0.0
  0
LINE
  8
0
 62
     0
 10
1.33068
 20
0.678819
 30
0.0
 11
1.17008
 21
0.854167
 31
0.0
  0
LINE
  8
0
 62
     0
 10
1.17008
 20
0.854167
 30
0.0
 11
1.03206
 21
1.04688
 31
0.0
  0
LINE
  8
0
 62
     0
 10
1.03206
 20
1.04688
 30
0.0
 11
0.916667
 21
1.25694
 31
0.0
  0
LINE
  8
0
 62
     0
 10
0.916667
 20
1.25694
 30
0.0
 11
0.825521
 21
1.48307
 31
0.0
  0
LINE
  8
0
 62
     0
 10
0.825521
 20
1.48307
 30
0.0
 11
0.760417
 21
1.72396
 31
0.0
  0
LINE
  8
0
 62
     0
 10
0.760417
 20
1.72396
 30
0.0
 11
0.721354
 21
1.9796
 31
0.0
  0
LINE
  8
0
 62
     0
 10
0.721354
 20
1.9796
 30
0.0
 11
0.708333
 21
2.25
 31
0.0
  0
LINE
  8
0
 62
     0
 10
0.708333
 20
2.25
 30
0.0
 11
1.81944
 21
2.25
 31
0.0
  0
ENDSEC
  0
EOF
