  0
SECTION
  2
HEADER
  9
$ACADVER
  1
AC1009
  9
$EXTMIN
 10
0.0
 20
0.0
 30
0.0
  9
$EXTMAX
 10
1000.0
 20
1000.0
 30
0.0
  9
$FILLMODE
 70
 0
  9
$SPLFRAME
 70
 1
  0
ENDSEC
  0
SECTION
  2
TABLES
  0
TABLE
  2
LAYER
 70
1
  0
LAYER
  2
0
 70
     0
 62
     7
  6
CONTINUOUS
  0
ENDTAB
  0
ENDSEC
  0
SECTION
  2
ENTITIES
  0
LINE
  8
0
 62
     0
 10
5.94444
 20
0.930556
 30
0.0
 11
5.68614
 21
0.70101
 31
0.0
  0
LINE
  8
0
 62
     0
 10
5.68614
 20
0.70101
 30
0.0
 11
5.4114
 21
0.498318
 31
0.0
  0
LINE
  8
0
 62
     0
 10
5.4114
 20
0.498318
 30
0.0
 11
5.12017
 21
0.322538
 31
0.0
  0
LINE
  8
0
 62
     0
 10
5.12017
 20
0.322538
 30
0.0
 11
4.8125
 21
0.173611
 31
0.0
  0
LINE
  8
0
 62
     0
 10
4.8125
 20
0.173611
 30
0.0
 11
4.49436
 21
0.0551215
 31
0.0
  0
LINE
  8
0
 62
     0
 10
4.49436
 20
0.0551215
 30
0.0
 11
4.17188
 21
-0.0295139
 31
0.0
  0
LINE
  8
0
 62
     0
 10
4.17188
 20
-0.0295139
 30
0.0
 11
3.84506
 21
-0.0802951
 31
0.0
  0
LINE
  8
0
 62
     0
 10
3.84506
 20
-0.0802951
 30
0.0
 11
3.51389
 21
-0.0972222
 31
0.0
  0
LINE
  8
0
 62
     0
 10
3.51389
 20
-0.0972222
 30
0.0
 11
3.04428
 21
-0.0693901
 31
0.0
  0
LINE
  8
0
 62
     0
 10
3.04428
 20
-0.0693901
 30
0.0
 11
2.62153
 21
0.0139432
 31
0.0
  0
LINE
  8
0
 62
     0
 10
2.62153
 20
0.0139432
 30
0.0
 11
2.24561
 21
0.152832
 31
0.0
  0
LINE
  8
0
 62
     0
 10
2.24561
 20
0.152832
 30
0.0
 11
1.91667
 21
0.347222
 31
0.0
  0
LINE
  8
0
 62
     0
 10
1.91667
 20
0.347222
 30
0.0
 11
1.91667
 21
-3.05556
 31
0.0
  0
LINE
  8
0
 62
     0
 10
1.91667
 20
-3.05556
 30
0.0
 11
0.763889
 21
-3.05556
 31
0.0
  0
LINE
  8
0
 62
     0
 10
0.763889
 20
-3.05556
 30
0.0
 11
0.763889
 21
7.72222
 31
0.0
  0
LINE
  8
0
 62
     0
 10
0.763889
 20
7.72222
 30
0.0
 11
1.91667
 21
7.72222
 31
0.0
  0
LINE
  8
0
 62
     0
 10
1.91667
 20
7.72222
 30
0.0
 11
1.91667
 21
3.54167
 31
0.0
  0
LINE
  8
0
 62
     0
 10
1.91667
 20
3.54167
 30
0.0
 11
1.94314
 21
2.98617
 31
0.0
  0
LINE
  8
0
 62
     0
 10
1.94314
 20
2.98617
 30
0.0
 11
2.02257
 21
2.48617
 31
0.0
  0
LINE
  8
0
 62
     0
 10
2.02257
 20
2.48617
 30
0.0
 11
2.15494
 21
2.04172
 31
0.0
  0
LINE
  8
0
 62
     0
 10
2.15494
 20
2.04172
 30
0.0
 11
2.34028
 21
1.65278
 31
0.0
  0
LINE
  8
0
 62
     0
 10
2.34028
 20
1.65278
 30
0.0
 11
2.45167
 21
1.4835
 31
0.0
  0
LINE
  8
0
 62
     0
 10
2.45167
 20
1.4835
 30
0.0
 11
2.57417
 21
1.33681
 31
0.0
  0
LINE
  8
0
 62
     0
 10
2.57417
 20
1.33681
 30
0.0
 11
2.70774
 21
1.21267
 31
0.0
  0
LINE
  8
0
 62
     0
 10
2.70774
 20
1.21267
 30
0.0
 11
2.85243
 21
1.11111
 31
0.0
  0
LINE
  8
0
 62
     0
 10
2.85243
 20
1.11111
 30
0.0
 11
3.00814
 21
1.03212
 31
0.0
  0
LINE
  8
0
 62
     0
 10
3.00814
 20
1.03212
 30
0.0
 11
3.17492
 21
0.975694
 31
0.0
  0
LINE
  8
0
 62
     0
 10
3.17492
 20
0.975694
 30
0.0
 11
3.35275
 21
0.94184
 31
0.0
  0
LINE
  8
0
 62
     0
 10
3.35275
 20
0.94184
 30
0.0
 11
3.54167
 21
0.930556
 31
0.0
  0
LINE
  8
0
 62
     0
 10
3.54167
 20
0.930556
 30
0.0
 11
3.89063
 21
0.948785
 31
0.0
  0
LINE
  8
0
 62
     0
 10
3.89063
 20
0.948785
 30
0.0
 11
4.22917
 21
1.00347
 31
0.0
  0
LINE
  8
0
 62
     0
 10
4.22917
 20
1.00347
 30
0.0
 11
4.55729
 21
1.09462
 31
0.0
  0
LINE
  8
0
 62
     0
 10
4.55729
 20
1.09462
 30
0.0
 11
4.875
 21
1.22222
 31
0.0
  0
LINE
  8
0
 62
     0
 10
4.875
 20
1.22222
 30
0.0
 11
5.17622
 21
1.38026
 31
0.0
  0
LINE
  8
0
 62
     0
 10
5.17622
 20
1.38026
 30
0.0
 11
5.45486
 21
1.56256
 31
0.0
  0
LINE
  8
0
 62
     0
 10
5.45486
 20
1.56256
 30
0.0
 11
5.71094
 21
1.76915
 31
0.0
  0
LINE
  8
0
 62
     0
 10
5.71094
 20
1.76915
 30
0.0
 11
5.94444
 21
2
 31
0.0
  0
LINE
  8
0
 62
     0
 10
5.94444
 20
2
 30
0.0
 11
5.94444
 21
7.72222
 31
0.0
  0
LINE
  8
0
 62
     0
 10
5.94444
 20
7.72222
 30
0.0
 11
7.09722
 21
7.72222
 31
0.0
  0
LINE
  8
0
 62
     0
 10
7.09722
 20
7.72222
 30
0.0
 11
7.09722
 21
-0
 31
0.0
  0
LINE
  8
0
 62
     0
 10
7.09722
 20
-0
 30
0.0
 11
5.94444
 21
-0
 31
0.0
  0
LINE
  8
0
 62
     0
 10
5.94444
 20
-0
 30
0.0
 11
5.94444
 21
0.930556
 31
0.0
  0
ENDSEC
  0
EOF
