  0
SECTION
  2
HEADER
  9
$ACADVER
  1
AC1009
  9
$EXTMIN
 10
0.0
 20
0.0
 30
0.0
  9
$EXTMAX
 10
1000.0
 20
1000.0
 30
0.0
  9
$FILLMODE
 70
 0
  9
$SPLFRAME
 70
 1
  0
ENDSEC
  0
SECTION
  2
TABLES
  0
TABLE
  2
LAYER
 70
1
  0
LAYER
  2
0
 70
     0
 62
     7
  6
CONTINUOUS
  0
ENDTAB
  0
ENDSEC
  0
SECTION
  2
ENTITIES
  0
LINE
  8
0
 62
     0
 10
3.875
 20
9.19444
 30
0.0
 11
3.65711
 21
9.18451
 31
0.0
  0
LINE
  8
0
 62
     0
 10
3.65711
 20
9.18451
 30
0.0
 11
3.44792
 21
9.15457
 31
0.0
  0
LINE
  8
0
 62
     0
 10
3.44792
 20
9.15457
 30
0.0
 11
3.24739
 21
9.10465
 31
0.0
  0
LINE
  8
0
 62
     0
 10
3.24739
 20
9.10465
 30
0.0
 11
3.05556
 21
9.03472
 31
0.0
  0
LINE
  8
0
 62
     0
 10
3.05556
 20
9.03472
 30
0.0
 11
2.7066
 21
8.84549
 31
0.0
  0
LINE
  8
0
 62
     0
 10
2.7066
 20
8.84549
 30
0.0
 11
2.40972
 21
8.59722
 31
0.0
  0
LINE
  8
0
 62
     0
 10
2.40972
 20
8.59722
 30
0.0
 11
2.28162
 21
8.45101
 31
0.0
  0
LINE
  8
0
 62
     0
 10
2.28162
 20
8.45101
 30
0.0
 11
2.16835
 21
8.28999
 31
0.0
  0
LINE
  8
0
 62
     0
 10
2.16835
 20
8.28999
 30
0.0
 11
2.06982
 21
8.11421
 31
0.0
  0
LINE
  8
0
 62
     0
 10
2.06982
 20
8.11421
 30
0.0
 11
1.98611
 21
7.92361
 31
0.0
  0
LINE
  8
0
 62
     0
 10
1.98611
 20
7.92361
 30
0.0
 11
1.91928
 21
7.72097
 31
0.0
  0
LINE
  8
0
 62
     0
 10
1.91928
 20
7.72097
 30
0.0
 11
1.87153
 21
7.50874
 31
0.0
  0
LINE
  8
0
 62
     0
 10
1.87153
 20
7.50874
 30
0.0
 11
1.84289
 21
7.28694
 31
0.0
  0
LINE
  8
0
 62
     0
 10
1.84289
 20
7.28694
 30
0.0
 11
1.83333
 21
7.05556
 31
0.0
  0
LINE
  8
0
 62
     0
 10
1.83333
 20
7.05556
 30
0.0
 11
1.86279
 21
6.62153
 31
0.0
  0
LINE
  8
0
 62
     0
 10
1.86279
 20
6.62153
 30
0.0
 11
1.95139
 21
6.20833
 31
0.0
  0
LINE
  8
0
 62
     0
 10
1.95139
 20
6.20833
 30
0.0
 11
2.10069
 21
5.82818
 31
0.0
  0
LINE
  8
0
 62
     0
 10
2.10069
 20
5.82818
 30
0.0
 11
2.3125
 21
5.49306
 31
0.0
  0
LINE
  8
0
 62
     0
 10
2.3125
 20
5.49306
 30
0.0
 11
2.44271
 21
5.34511
 31
0.0
  0
LINE
  8
0
 62
     0
 10
2.44271
 20
5.34511
 30
0.0
 11
2.59028
 21
5.2136
 31
0.0
  0
LINE
  8
0
 62
     0
 10
2.59028
 20
5.2136
 30
0.0
 11
2.75521
 21
5.09858
 31
0.0
  0
LINE
  8
0
 62
     0
 10
2.75521
 20
5.09858
 30
0.0
 11
2.9375
 21
5
 31
0.0
  0
LINE
  8
0
 62
     0
 10
2.9375
 20
5
 30
0.0
 11
3.1384
 21
4.921
 31
0.0
  0
LINE
  8
0
 62
     0
 10
3.1384
 20
4.921
 30
0.0
 11
3.35932
 21
4.86458
 31
0.0
  0
LINE
  8
0
 62
     0
 10
3.35932
 20
4.86458
 30
0.0
 11
3.60021
 21
4.83072
 31
0.0
  0
LINE
  8
0
 62
     0
 10
3.60021
 20
4.83072
 30
0.0
 11
3.86111
 21
4.81944
 31
0.0
  0
LINE
  8
0
 62
     0
 10
3.86111
 20
4.81944
 30
0.0
 11
4.10411
 21
4.83117
 31
0.0
  0
LINE
  8
0
 62
     0
 10
4.10411
 20
4.83117
 30
0.0
 11
4.33328
 21
4.86632
 31
0.0
  0
LINE
  8
0
 62
     0
 10
4.33328
 20
4.86632
 30
0.0
 11
4.54856
 21
4.92492
 31
0.0
  0
LINE
  8
0
 62
     0
 10
4.54856
 20
4.92492
 30
0.0
 11
4.75
 21
5.00694
 31
0.0
  0
LINE
  8
0
 62
     0
 10
4.75
 20
5.00694
 30
0.0
 11
4.93664
 21
5.1085
 31
0.0
  0
LINE
  8
0
 62
     0
 10
4.93664
 20
5.1085
 30
0.0
 11
5.10764
 21
5.22569
 31
0.0
  0
LINE
  8
0
 62
     0
 10
5.10764
 20
5.22569
 30
0.0
 11
5.26297
 21
5.3585
 31
0.0
  0
LINE
  8
0
 62
     0
 10
5.26297
 20
5.3585
 30
0.0
 11
5.40278
 21
5.50694
 31
0.0
  0
LINE
  8
0
 62
     0
 10
5.40278
 20
5.50694
 30
0.0
 11
5.52647
 21
5.66889
 31
0.0
  0
LINE
  8
0
 62
     0
 10
5.52647
 20
5.66889
 30
0.0
 11
5.63368
 21
5.84207
 31
0.0
  0
LINE
  8
0
 62
     0
 10
5.63368
 20
5.84207
 30
0.0
 11
5.72439
 21
6.02653
 31
0.0
  0
LINE
  8
0
 62
     0
 10
5.72439
 20
6.02653
 30
0.0
 11
5.79861
 21
6.22222
 31
0.0
  0
LINE
  8
0
 62
     0
 10
5.79861
 20
6.22222
 30
0.0
 11
5.89751
 21
6.62847
 31
0.0
  0
LINE
  8
0
 62
     0
 10
5.89751
 20
6.62847
 30
0.0
 11
5.93056
 21
7.04167
 31
0.0
  0
LINE
  8
0
 62
     0
 10
5.93056
 20
7.04167
 30
0.0
 11
5.89751
 21
7.46186
 31
0.0
  0
LINE
  8
0
 62
     0
 10
5.89751
 20
7.46186
 30
0.0
 11
5.79861
 21
7.86111
 31
0.0
  0
LINE
  8
0
 62
     0
 10
5.79861
 20
7.86111
 30
0.0
 11
5.63542
 21
8.22749
 31
0.0
  0
LINE
  8
0
 62
     0
 10
5.63542
 20
8.22749
 30
0.0
 11
5.40972
 21
8.54861
 31
0.0
  0
LINE
  8
0
 62
     0
 10
5.40972
 20
8.54861
 30
0.0
 11
5.27344
 21
8.69011
 31
0.0
  0
LINE
  8
0
 62
     0
 10
5.27344
 20
8.69011
 30
0.0
 11
5.12153
 21
8.81597
 31
0.0
  0
LINE
  8
0
 62
     0
 10
5.12153
 20
8.81597
 30
0.0
 11
4.95394
 21
8.92626
 31
0.0
  0
LINE
  8
0
 62
     0
 10
4.95394
 20
8.92626
 30
0.0
 11
4.77083
 21
9.02083
 31
0.0
  0
LINE
  8
0
 62
     0
 10
4.77083
 20
9.02083
 30
0.0
 11
4.57161
 21
9.09679
 31
0.0
  0
LINE
  8
0
 62
     0
 10
4.57161
 20
9.09679
 30
0.0
 11
4.3559
 21
9.15104
 31
0.0
  0
LINE
  8
0
 62
     0
 10
4.3559
 20
9.15104
 30
0.0
 11
4.12369
 21
9.1836
 31
0.0
  0
LINE
  8
0
 62
     0
 10
4.12369
 20
9.1836
 30
0.0
 11
3.875
 21
9.19444
 31
0.0
  0
LINE
  8
0
 62
     0
 10
3.875
 20
3.77778
 30
0.0
 11
3.52208
 21
3.7921
 31
0.0
  0
LINE
  8
0
 62
     0
 10
3.52208
 20
3.7921
 30
0.0
 11
3.18571
 21
3.83507
 31
0.0
  0
LINE
  8
0
 62
     0
 10
3.18571
 20
3.83507
 30
0.0
 11
2.86583
 21
3.90668
 31
0.0
  0
LINE
  8
0
 62
     0
 10
2.86583
 20
3.90668
 30
0.0
 11
2.5625
 21
4.00694
 31
0.0
  0
LINE
  8
0
 62
     0
 10
2.5625
 20
4.00694
 30
0.0
 11
2.27821
 21
4.13411
 31
0.0
  0
LINE
  8
0
 62
     0
 10
2.27821
 20
4.13411
 30
0.0
 11
2.01563
 21
4.28646
 31
0.0
  0
LINE
  8
0
 62
     0
 10
2.01563
 20
4.28646
 30
0.0
 11
1.77474
 21
4.46397
 31
0.0
  0
LINE
  8
0
 62
     0
 10
1.77474
 20
4.46397
 30
0.0
 11
1.55556
 21
4.66667
 31
0.0
  0
LINE
  8
0
 62
     0
 10
1.55556
 20
4.66667
 30
0.0
 11
1.35894
 21
4.89285
 31
0.0
  0
LINE
  8
0
 62
     0
 10
1.35894
 20
4.89285
 30
0.0
 11
1.18576
 21
5.14068
 31
0.0
  0
LINE
  8
0
 62
     0
 10
1.18576
 20
5.14068
 30
0.0
 11
1.03603
 21
5.41021
 31
0.0
  0
LINE
  8
0
 62
     0
 10
1.03603
 20
5.41021
 30
0.0
 11
0.909722
 21
5.70139
 31
0.0
  0
LINE
  8
0
 62
     0
 10
0.909722
 20
5.70139
 30
0.0
 11
0.809461
 21
6.01258
 31
0.0
  0
LINE
  8
0
 62
     0
 10
0.809461
 20
6.01258
 30
0.0
 11
0.737847
 21
6.34201
 31
0.0
  0
LINE
  8
0
 62
     0
 10
0.737847
 20
6.34201
 30
0.0
 11
0.694878
 21
6.68967
 31
0.0
  0
LINE
  8
0
 62
     0
 10
0.694878
 20
6.68967
 30
0.0
 11
0.680556
 21
7.05556
 31
0.0
  0
LINE
  8
0
 62
     0
 10
0.680556
 20
7.05556
 30
0.0
 11
0.697917
 21
7.47006
 31
0.0
  0
LINE
  8
0
 62
     0
 10
0.697917
 20
7.47006
 30
0.0
 11
0.75
 21
7.85243
 31
0.0
  0
LINE
  8
0
 62
     0
 10
0.75
 20
7.85243
 30
0.0
 11
0.836806
 21
8.20269
 31
0.0
  0
LINE
  8
0
 62
     0
 10
0.836806
 20
8.20269
 30
0.0
 11
0.958333
 21
8.52083
 31
0.0
  0
LINE
  8
0
 62
     0
 10
0.958333
 20
8.52083
 30
0.0
 11
1.10758
 21
8.80908
 31
0.0
  0
LINE
  8
0
 62
     0
 10
1.10758
 20
8.80908
 30
0.0
 11
1.27778
 21
9.0695
 31
0.0
  0
LINE
  8
0
 62
     0
 10
1.27778
 20
9.0695
 30
0.0
 11
1.46875
 21
9.30214
 31
0.0
  0
LINE
  8
0
 62
     0
 10
1.46875
 20
9.30214
 30
0.0
 11
1.68056
 21
9.50694
 31
0.0
  0
LINE
  8
0
 62
     0
 10
1.68056
 20
9.50694
 30
0.0
 11
1.91097
 21
9.68489
 31
0.0
  0
LINE
  8
0
 62
     0
 10
1.91097
 20
9.68489
 30
0.0
 11
2.15793
 21
9.83681
 31
0.0
  0
LINE
  8
0
 62
     0
 10
2.15793
 20
9.83681
 30
0.0
 11
2.42139
 21
9.96272
 31
0.0
  0
LINE
  8
0
 62
     0
 10
2.42139
 20
9.96272
 30
0.0
 11
2.70139
 21
10.0625
 31
0.0
  0
LINE
  8
0
 62
     0
 10
2.70139
 20
10.0625
 30
0.0
 11
3.28299
 21
10.1927
 31
0.0
  0
LINE
  8
0
 62
     0
 10
3.28299
 20
10.1927
 30
0.0
 11
3.875
 21
10.2361
 31
0.0
  0
LINE
  8
0
 62
     0
 10
3.875
 20
10.2361
 30
0.0
 11
4.19749
 21
10.2253
 31
0.0
  0
LINE
  8
0
 62
     0
 10
4.19749
 20
10.2253
 30
0.0
 11
4.51215
 21
10.1927
 31
0.0
  0
LINE
  8
0
 62
     0
 10
4.51215
 20
10.1927
 30
0.0
 11
4.81901
 21
10.1385
 31
0.0
  0
LINE
  8
0
 62
     0
 10
4.81901
 20
10.1385
 30
0.0
 11
5.11806
 21
10.0625
 31
0.0
  0
LINE
  8
0
 62
     0
 10
5.11806
 20
10.0625
 30
0.0
 11
5.4036
 21
9.96229
 31
0.0
  0
LINE
  8
0
 62
     0
 10
5.4036
 20
9.96229
 30
0.0
 11
5.67008
 21
9.83513
 31
0.0
  0
LINE
  8
0
 62
     0
 10
5.67008
 20
9.83513
 30
0.0
 11
5.91749
 21
9.68104
 31
0.0
  0
LINE
  8
0
 62
     0
 10
5.91749
 20
9.68104
 30
0.0
 11
6.14583
 21
9.5
 31
0.0
  0
LINE
  8
0
 62
     0
 10
6.14583
 20
9.5
 30
0.0
 11
6.35331
 21
9.29167
 31
0.0
  0
LINE
  8
0
 62
     0
 10
6.35331
 20
9.29167
 30
0.0
 11
6.53819
 21
9.05556
 31
0.0
  0
LINE
  8
0
 62
     0
 10
6.53819
 20
9.05556
 30
0.0
 11
6.70053
 21
8.79167
 31
0.0
  0
LINE
  8
0
 62
     0
 10
6.70053
 20
8.79167
 30
0.0
 11
6.84028
 21
8.5
 31
0.0
  0
LINE
  8
0
 62
     0
 10
6.84028
 20
8.5
 30
0.0
 11
6.95264
 21
8.178
 31
0.0
  0
LINE
  8
0
 62
     0
 10
6.95264
 20
8.178
 30
0.0
 11
7.03293
 21
7.82297
 31
0.0
  0
LINE
  8
0
 62
     0
 10
7.03293
 20
7.82297
 30
0.0
 11
7.08111
 21
7.43494
 31
0.0
  0
LINE
  8
0
 62
     0
 10
7.08111
 20
7.43494
 30
0.0
 11
7.09722
 21
7.01389
 31
0.0
  0
LINE
  8
0
 62
     0
 10
7.09722
 20
7.01389
 30
0.0
 11
7.08501
 21
6.75694
 31
0.0
  0
LINE
  8
0
 62
     0
 10
7.08501
 20
6.75694
 30
0.0
 11
7.04861
 21
6.48611
 31
0.0
  0
LINE
  8
0
 62
     0
 10
7.04861
 20
6.48611
 30
0.0
 11
6.91667
 21
5.9375
 31
0.0
  0
LINE
  8
0
 62
     0
 10
6.91667
 20
5.9375
 30
0.0
 11
6.72917
 21
5.41667
 31
0.0
  0
LINE
  8
0
 62
     0
 10
6.72917
 20
5.41667
 30
0.0
 11
6.62674
 21
5.18408
 31
0.0
  0
LINE
  8
0
 62
     0
 10
6.62674
 20
5.18408
 30
0.0
 11
6.52778
 21
4.98611
 31
0.0
  0
LINE
  8
0
 62
     0
 10
6.52778
 20
4.98611
 30
0.0
 11
3.69444
 21
-0
 31
0.0
  0
LINE
  8
0
 62
     0
 10
3.69444
 20
-0
 30
0.0
 11
2.29167
 21
-0
 31
0.0
  0
LINE
  8
0
 62
     0
 10
2.29167
 20
-0
 30
0.0
 11
4.56944
 21
3.90278
 31
0.0
  0
LINE
  8
0
 62
     0
 10
4.56944
 20
3.90278
 30
0.0
 11
4.43056
 21
3.86111
 31
0.0
  0
LINE
  8
0
 62
     0
 10
4.43056
 20
3.86111
 30
0.0
 11
4.26389
 21
3.81944
 31
0.0
  0
LINE
  8
0
 62
     0
 10
4.26389
 20
3.81944
 30
0.0
 11
4.07633
 21
3.78819
 31
0.0
  0
LINE
  8
0
 62
     0
 10
4.07633
 20
3.78819
 30
0.0
 11
3.875
 21
3.77778
 31
0.0
  0
ENDSEC
  0
EOF
