  0
SECTION
  2
HEADER
  9
$ACADVER
  1
AC1009
  9
$EXTMIN
 10
0.0
 20
0.0
 30
0.0
  9
$EXTMAX
 10
1000.0
 20
1000.0
 30
0.0
  9
$FILLMODE
 70
 0
  9
$SPLFRAME
 70
 1
  0
ENDSEC
  0
SECTION
  2
TABLES
  0
TABLE
  2
LAYER
 70
1
  0
LAYER
  2
0
 70
     0
 62
     7
  6
CONTINUOUS
  0
ENDTAB
  0
ENDSEC
  0
SECTION
  2
ENTITIES
  0
LINE
  8
0
 62
     0
 10
3.63889
 20
4.22222
 30
0.0
 11
5.68056
 21
4.22222
 31
0.0
  0
LINE
  8
0
 62
     0
 10
5.68056
 20
4.22222
 30
0.0
 11
6.11111
 21
6.41667
 31
0.0
  0
LINE
  8
0
 62
     0
 10
6.11111
 20
6.41667
 30
0.0
 11
4.08333
 21
6.41667
 31
0.0
  0
LINE
  8
0
 62
     0
 10
4.08333
 20
6.41667
 30
0.0
 11
3.63889
 21
4.22222
 31
0.0
  0
LINE
  8
0
 62
     0
 10
4.27778
 20
7.40278
 30
0.0
 11
6.30556
 21
7.40278
 31
0.0
  0
LINE
  8
0
 62
     0
 10
6.30556
 20
7.40278
 30
0.0
 11
6.86111
 21
10.1389
 31
0.0
  0
LINE
  8
0
 62
     0
 10
6.86111
 20
10.1389
 30
0.0
 11
7.875
 21
10.1389
 31
0.0
  0
LINE
  8
0
 62
     0
 10
7.875
 20
10.1389
 30
0.0
 11
7.31944
 21
7.40278
 31
0.0
  0
LINE
  8
0
 62
     0
 10
7.31944
 20
7.40278
 30
0.0
 11
9.02778
 21
7.40278
 31
0.0
  0
LINE
  8
0
 62
     0
 10
9.02778
 20
7.40278
 30
0.0
 11
9.02778
 21
6.43056
 31
0.0
  0
LINE
  8
0
 62
     0
 10
9.02778
 20
6.43056
 30
0.0
 11
7.125
 21
6.41667
 31
0.0
  0
LINE
  8
0
 62
     0
 10
7.125
 20
6.41667
 30
0.0
 11
6.69444
 21
4.22222
 31
0.0
  0
LINE
  8
0
 62
     0
 10
6.69444
 20
4.22222
 30
0.0
 11
8.34722
 21
4.22222
 31
0.0
  0
LINE
  8
0
 62
     0
 10
8.34722
 20
4.22222
 30
0.0
 11
8.34722
 21
3.23611
 31
0.0
  0
LINE
  8
0
 62
     0
 10
8.34722
 20
3.23611
 30
0.0
 11
6.5
 21
3.22222
 31
0.0
  0
LINE
  8
0
 62
     0
 10
6.5
 20
3.22222
 30
0.0
 11
5.86111
 21
-0
 31
0.0
  0
LINE
  8
0
 62
     0
 10
5.86111
 20
-0
 30
0.0
 11
4.84722
 21
-0
 31
0.0
  0
LINE
  8
0
 62
     0
 10
4.84722
 20
-0
 30
0.0
 11
5.48611
 21
3.22222
 31
0.0
  0
LINE
  8
0
 62
     0
 10
5.48611
 20
3.22222
 30
0.0
 11
3.44444
 21
3.22222
 31
0.0
  0
LINE
  8
0
 62
     0
 10
3.44444
 20
3.22222
 30
0.0
 11
2.80556
 21
-0
 31
0.0
  0
LINE
  8
0
 62
     0
 10
2.80556
 20
-0
 30
0.0
 11
1.79167
 21
-0
 31
0.0
  0
LINE
  8
0
 62
     0
 10
1.79167
 20
-0
 30
0.0
 11
2.43056
 21
3.22222
 31
0.0
  0
LINE
  8
0
 62
     0
 10
2.43056
 20
3.22222
 30
0.0
 11
0.763889
 21
3.22222
 31
0.0
  0
LINE
  8
0
 62
     0
 10
0.763889
 20
3.22222
 30
0.0
 11
0.763889
 21
4.22222
 31
0.0
  0
LINE
  8
0
 62
     0
 10
0.763889
 20
4.22222
 30
0.0
 11
2.625
 21
4.22222
 31
0.0
  0
LINE
  8
0
 62
     0
 10
2.625
 20
4.22222
 30
0.0
 11
3.05556
 21
6.40278
 31
0.0
  0
LINE
  8
0
 62
     0
 10
3.05556
 20
6.40278
 30
0.0
 11
1.43056
 21
6.40278
 31
0.0
  0
LINE
  8
0
 62
     0
 10
1.43056
 20
6.40278
 30
0.0
 11
1.43056
 21
7.40278
 31
0.0
  0
LINE
  8
0
 62
     0
 10
1.43056
 20
7.40278
 30
0.0
 11
3.25
 21
7.40278
 31
0.0
  0
LINE
  8
0
 62
     0
 10
3.25
 20
7.40278
 30
0.0
 11
3.79167
 21
10.1389
 31
0.0
  0
LINE
  8
0
 62
     0
 10
3.79167
 20
10.1389
 30
0.0
 11
4.81944
 21
10.1389
 31
0.0
  0
LINE
  8
0
 62
     0
 10
4.81944
 20
10.1389
 30
0.0
 11
4.27778
 21
7.40278
 31
0.0
  0
ENDSEC
  0
EOF
