  0
SECTION
  2
HEADER
  9
$ACADVER
  1
AC1009
  9
$EXTMIN
 10
0.0
 20
0.0
 30
0.0
  9
$EXTMAX
 10
1000.0
 20
1000.0
 30
0.0
  9
$FILLMODE
 70
 0
  9
$SPLFRAME
 70
 1
  0
ENDSEC
  0
SECTION
  2
TABLES
  0
TABLE
  2
LAYER
 70
1
  0
LAYER
  2
0
 70
     0
 62
     7
  6
CONTINUOUS
  0
ENDTAB
  0
ENDSEC
  0
SECTION
  2
ENTITIES
  0
LINE
  8
0
 62
     0
 10
11.5972
 20
4.59722
 30
0.0
 11
11.5328
 21
5.00006
 31
0.0
  0
LINE
  8
0
 62
     0
 10
11.5328
 20
5.00006
 30
0.0
 11
11.3958
 21
5.40278
 31
0.0
  0
LINE
  8
0
 62
     0
 10
11.3958
 20
5.40278
 30
0.0
 11
11.1944
 21
5.78478
 31
0.0
  0
LINE
  8
0
 62
     0
 10
11.1944
 20
5.78478
 30
0.0
 11
10.9375
 21
6.125
 31
0.0
  0
LINE
  8
0
 62
     0
 10
10.9375
 20
6.125
 30
0.0
 11
10.6284
 21
6.41493
 31
0.0
  0
LINE
  8
0
 62
     0
 10
10.6284
 20
6.41493
 30
0.0
 11
10.2708
 21
6.64583
 31
0.0
  0
LINE
  8
0
 62
     0
 10
10.2708
 20
6.64583
 30
0.0
 11
10.0768
 21
6.734
 31
0.0
  0
LINE
  8
0
 62
     0
 10
10.0768
 20
6.734
 30
0.0
 11
9.87674
 21
6.79693
 31
0.0
  0
LINE
  8
0
 62
     0
 10
9.87674
 20
6.79693
 30
0.0
 11
9.67057
 21
6.83469
 31
0.0
  0
LINE
  8
0
 62
     0
 10
9.67057
 20
6.83469
 30
0.0
 11
9.45833
 21
6.84722
 31
0.0
  0
LINE
  8
0
 62
     0
 10
9.45833
 20
6.84722
 30
0.0
 11
9.24778
 21
6.83599
 31
0.0
  0
LINE
  8
0
 62
     0
 10
9.24778
 20
6.83599
 30
0.0
 11
9.04682
 21
6.80214
 31
0.0
  0
LINE
  8
0
 62
     0
 10
9.04682
 20
6.80214
 30
0.0
 11
8.85542
 21
6.74571
 31
0.0
  0
LINE
  8
0
 62
     0
 10
8.85542
 20
6.74571
 30
0.0
 11
8.67361
 21
6.66667
 31
0.0
  0
LINE
  8
0
 62
     0
 10
8.67361
 20
6.66667
 30
0.0
 11
8.34201
 21
6.45486
 31
0.0
  0
LINE
  8
0
 62
     0
 10
8.34201
 20
6.45486
 30
0.0
 11
8.05556
 21
6.18056
 31
0.0
  0
LINE
  8
0
 62
     0
 10
8.05556
 20
6.18056
 30
0.0
 11
7.81418
 21
5.84896
 31
0.0
  0
LINE
  8
0
 62
     0
 10
7.81418
 20
5.84896
 30
0.0
 11
7.61806
 21
5.46528
 31
0.0
  0
LINE
  8
0
 62
     0
 10
7.61806
 20
5.46528
 30
0.0
 11
7.47038
 21
5.0434
 31
0.0
  0
LINE
  8
0
 62
     0
 10
7.47038
 20
5.0434
 30
0.0
 11
7.375
 21
4.59722
 31
0.0
  0
LINE
  8
0
 62
     0
 10
7.375
 20
4.59722
 30
0.0
 11
11.5972
 21
4.59722
 31
0.0
  0
LINE
  8
0
 62
     0
 10
4.02778
 20
0.902778
 30
0.0
 11
4.28424
 21
0.917589
 31
0.0
  0
LINE
  8
0
 62
     0
 10
4.28424
 20
0.917589
 30
0.0
 11
4.52599
 21
0.96186
 31
0.0
  0
LINE
  8
0
 62
     0
 10
4.52599
 20
0.96186
 30
0.0
 11
4.75299
 21
1.03564
 31
0.0
  0
LINE
  8
0
 62
     0
 10
4.75299
 20
1.03564
 30
0.0
 11
4.96528
 21
1.13889
 31
0.0
  0
LINE
  8
0
 62
     0
 10
4.96528
 20
1.13889
 30
0.0
 11
5.16189
 21
1.26736
 31
0.0
  0
LINE
  8
0
 62
     0
 10
5.16189
 20
1.26736
 30
0.0
 11
5.34201
 21
1.41667
 31
0.0
  0
LINE
  8
0
 62
     0
 10
5.34201
 20
1.41667
 30
0.0
 11
5.50564
 21
1.58686
 31
0.0
  0
LINE
  8
0
 62
     0
 10
5.50564
 20
1.58686
 30
0.0
 11
5.65278
 21
1.77778
 31
0.0
  0
LINE
  8
0
 62
     0
 10
5.65278
 20
1.77778
 30
0.0
 11
5.78293
 21
1.98742
 31
0.0
  0
LINE
  8
0
 62
     0
 10
5.78293
 20
1.98742
 30
0.0
 11
5.89578
 21
2.21354
 31
0.0
  0
LINE
  8
0
 62
     0
 10
5.89578
 20
2.21354
 30
0.0
 11
5.99126
 21
2.45617
 31
0.0
  0
LINE
  8
0
 62
     0
 10
5.99126
 20
2.45617
 30
0.0
 11
6.06944
 21
2.71528
 31
0.0
  0
LINE
  8
0
 62
     0
 10
6.06944
 20
2.71528
 30
0.0
 11
6.17361
 21
3.26563
 31
0.0
  0
LINE
  8
0
 62
     0
 10
6.17361
 20
3.26563
 30
0.0
 11
6.20833
 21
3.84722
 31
0.0
  0
LINE
  8
0
 62
     0
 10
6.20833
 20
3.84722
 30
0.0
 11
6.17361
 21
4.39936
 31
0.0
  0
LINE
  8
0
 62
     0
 10
6.17361
 20
4.39936
 30
0.0
 11
6.06944
 21
4.94444
 31
0.0
  0
LINE
  8
0
 62
     0
 10
6.06944
 20
4.94444
 30
0.0
 11
5.99169
 21
5.20747
 31
0.0
  0
LINE
  8
0
 62
     0
 10
5.99169
 20
5.20747
 30
0.0
 11
5.89751
 21
5.45486
 31
0.0
  0
LINE
  8
0
 62
     0
 10
5.89751
 20
5.45486
 30
0.0
 11
5.78683
 21
5.68664
 31
0.0
  0
LINE
  8
0
 62
     0
 10
5.78683
 20
5.68664
 30
0.0
 11
5.65972
 21
5.90278
 31
0.0
  0
LINE
  8
0
 62
     0
 10
5.65972
 20
5.90278
 30
0.0
 11
5.51563
 21
6.10118
 31
0.0
  0
LINE
  8
0
 62
     0
 10
5.51563
 20
6.10118
 30
0.0
 11
5.35417
 21
6.27957
 31
0.0
  0
LINE
  8
0
 62
     0
 10
5.35417
 20
6.27957
 30
0.0
 11
5.17535
 21
6.43799
 31
0.0
  0
LINE
  8
0
 62
     0
 10
5.17535
 20
6.43799
 30
0.0
 11
4.97917
 21
6.57639
 31
0.0
  0
LINE
  8
0
 62
     0
 10
4.97917
 20
6.57639
 30
0.0
 11
4.76687
 21
6.68881
 31
0.0
  0
LINE
  8
0
 62
     0
 10
4.76687
 20
6.68881
 30
0.0
 11
4.53988
 21
6.7691
 31
0.0
  0
LINE
  8
0
 62
     0
 10
4.53988
 20
6.7691
 30
0.0
 11
4.29812
 21
6.81728
 31
0.0
  0
LINE
  8
0
 62
     0
 10
4.29812
 20
6.81728
 30
0.0
 11
4.04167
 21
6.83333
 31
0.0
  0
LINE
  8
0
 62
     0
 10
4.04167
 20
6.83333
 30
0.0
 11
3.77946
 21
6.81771
 31
0.0
  0
LINE
  8
0
 62
     0
 10
3.77946
 20
6.81771
 30
0.0
 11
3.53467
 21
6.77083
 31
0.0
  0
LINE
  8
0
 62
     0
 10
3.53467
 20
6.77083
 30
0.0
 11
3.30724
 21
6.69271
 31
0.0
  0
LINE
  8
0
 62
     0
 10
3.30724
 20
6.69271
 30
0.0
 11
3.09722
 21
6.58333
 31
0.0
  0
LINE
  8
0
 62
     0
 10
3.09722
 20
6.58333
 30
0.0
 11
2.9036
 21
6.44792
 31
0.0
  0
LINE
  8
0
 62
     0
 10
2.9036
 20
6.44792
 30
0.0
 11
2.72564
 21
6.29167
 31
0.0
  0
LINE
  8
0
 62
     0
 10
2.72564
 20
6.29167
 30
0.0
 11
2.56332
 21
6.11458
 31
0.0
  0
LINE
  8
0
 62
     0
 10
2.56332
 20
6.11458
 30
0.0
 11
2.41667
 21
5.91667
 31
0.0
  0
LINE
  8
0
 62
     0
 10
2.41667
 20
5.91667
 30
0.0
 11
2.28646
 21
5.70101
 31
0.0
  0
LINE
  8
0
 62
     0
 10
2.28646
 20
5.70101
 30
0.0
 11
2.17361
 21
5.47054
 31
0.0
  0
LINE
  8
0
 62
     0
 10
2.17361
 20
5.47054
 30
0.0
 11
2.07813
 21
5.22532
 31
0.0
  0
LINE
  8
0
 62
     0
 10
2.07813
 20
5.22532
 30
0.0
 11
2
 21
4.96528
 31
0.0
  0
LINE
  8
0
 62
     0
 10
2
 20
4.96528
 30
0.0
 11
1.89578
 21
4.42188
 31
0.0
  0
LINE
  8
0
 62
     0
 10
1.89578
 20
4.42188
 30
0.0
 11
1.86111
 21
3.86111
 31
0.0
  0
LINE
  8
0
 62
     0
 10
1.86111
 20
3.86111
 30
0.0
 11
1.89578
 21
3.28999
 31
0.0
  0
LINE
  8
0
 62
     0
 10
1.89578
 20
3.28999
 30
0.0
 11
2
 21
2.74306
 31
0.0
  0
LINE
  8
0
 62
     0
 10
2
 20
2.74306
 30
0.0
 11
2.07769
 21
2.4835
 31
0.0
  0
LINE
  8
0
 62
     0
 10
2.07769
 20
2.4835
 30
0.0
 11
2.17188
 21
2.23958
 31
0.0
  0
LINE
  8
0
 62
     0
 10
2.17188
 20
2.23958
 30
0.0
 11
2.28256
 21
2.01133
 31
0.0
  0
LINE
  8
0
 62
     0
 10
2.28256
 20
2.01133
 30
0.0
 11
2.40972
 21
1.79861
 31
0.0
  0
LINE
  8
0
 62
     0
 10
2.40972
 20
1.79861
 30
0.0
 11
2.55376
 21
1.60417
 31
0.0
  0
LINE
  8
0
 62
     0
 10
2.55376
 20
1.60417
 30
0.0
 11
2.71522
 21
1.43056
 31
0.0
  0
LINE
  8
0
 62
     0
 10
2.71522
 20
1.43056
 30
0.0
 11
2.89404
 21
1.27783
 31
0.0
  0
LINE
  8
0
 62
     0
 10
2.89404
 20
1.27783
 30
0.0
 11
3.09028
 21
1.14583
 31
0.0
  0
LINE
  8
0
 62
     0
 10
3.09028
 20
1.14583
 30
0.0
 11
3.30251
 21
1.0395
 31
0.0
  0
LINE
  8
0
 62
     0
 10
3.30251
 20
1.0395
 30
0.0
 11
3.52951
 21
0.963542
 31
0.0
  0
LINE
  8
0
 62
     0
 10
3.52951
 20
0.963542
 30
0.0
 11
3.77126
 21
0.917969
 31
0.0
  0
LINE
  8
0
 62
     0
 10
3.77126
 20
0.917969
 30
0.0
 11
4.02778
 21
0.902778
 31
0.0
  0
LINE
  8
0
 62
     0
 10
12.6944
 20
3.72222
 30
0.0
 11
7.31944
 21
3.72222
 31
0.0
  0
LINE
  8
0
 62
     0
 10
7.31944
 20
3.72222
 30
0.0
 11
7.33594
 21
3.34901
 31
0.0
  0
LINE
  8
0
 62
     0
 10
7.33594
 20
3.34901
 30
0.0
 11
7.37153
 21
3.00694
 31
0.0
  0
LINE
  8
0
 62
     0
 10
7.37153
 20
3.00694
 30
0.0
 11
7.42622
 21
2.69618
 31
0.0
  0
LINE
  8
0
 62
     0
 10
7.42622
 20
2.69618
 30
0.0
 11
7.5
 21
2.41667
 31
0.0
  0
LINE
  8
0
 62
     0
 10
7.5
 20
2.41667
 30
0.0
 11
7.59196
 21
2.16542
 31
0.0
  0
LINE
  8
0
 62
     0
 10
7.59196
 20
2.16542
 30
0.0
 11
7.70133
 21
1.93929
 31
0.0
  0
LINE
  8
0
 62
     0
 10
7.70133
 20
1.93929
 30
0.0
 11
7.82807
 21
1.73833
 31
0.0
  0
LINE
  8
0
 62
     0
 10
7.82807
 20
1.73833
 30
0.0
 11
7.97222
 21
1.5625
 31
0.0
  0
LINE
  8
0
 62
     0
 10
7.97222
 20
1.5625
 30
0.0
 11
8.13325
 21
1.41058
 31
0.0
  0
LINE
  8
0
 62
     0
 10
8.13325
 20
1.41058
 30
0.0
 11
8.31076
 21
1.28125
 31
0.0
  0
LINE
  8
0
 62
     0
 10
8.31076
 20
1.28125
 30
0.0
 11
8.50478
 21
1.17448
 31
0.0
  0
LINE
  8
0
 62
     0
 10
8.50478
 20
1.17448
 30
0.0
 11
8.71528
 21
1.09028
 31
0.0
  0
LINE
  8
0
 62
     0
 10
8.71528
 20
1.09028
 30
0.0
 11
8.94135
 21
1.02647
 31
0.0
  0
LINE
  8
0
 62
     0
 10
8.94135
 20
1.02647
 30
0.0
 11
9.18224
 21
0.980903
 31
0.0
  0
LINE
  8
0
 62
     0
 10
9.18224
 20
0.980903
 30
0.0
 11
9.43787
 21
0.953558
 31
0.0
  0
LINE
  8
0
 62
     0
 10
9.43787
 20
0.953558
 30
0.0
 11
9.70833
 21
0.944444
 31
0.0
  0
LINE
  8
0
 62
     0
 10
9.70833
 20
0.944444
 30
0.0
 11
10.1141
 21
0.95535
 31
0.0
  0
LINE
  8
0
 62
     0
 10
10.1141
 20
0.95535
 30
0.0
 11
10.4982
 21
0.987901
 31
0.0
  0
LINE
  8
0
 62
     0
 10
10.4982
 20
0.987901
 30
0.0
 11
10.8606
 21
1.04216
 31
0.0
  0
LINE
  8
0
 62
     0
 10
10.8606
 20
1.04216
 30
0.0
 11
11.2014
 21
1.11806
 31
0.0
  0
LINE
  8
0
 62
     0
 10
11.2014
 20
1.11806
 30
0.0
 11
11.523
 21
1.21311
 31
0.0
  0
LINE
  8
0
 62
     0
 10
11.523
 20
1.21311
 30
0.0
 11
11.8281
 21
1.32465
 31
0.0
  0
LINE
  8
0
 62
     0
 10
11.8281
 20
1.32465
 30
0.0
 11
12.1168
 21
1.45269
 31
0.0
  0
LINE
  8
0
 62
     0
 10
12.1168
 20
1.45269
 30
0.0
 11
12.3889
 21
1.59722
 31
0.0
  0
LINE
  8
0
 62
     0
 10
12.3889
 20
1.59722
 30
0.0
 11
12.3889
 21
0.444444
 31
0.0
  0
LINE
  8
0
 62
     0
 10
12.3889
 20
0.444444
 30
0.0
 11
12.1145
 21
0.331651
 31
0.0
  0
LINE
  8
0
 62
     0
 10
12.1145
 20
0.331651
 30
0.0
 11
11.8194
 21
0.229167
 31
0.0
  0
LINE
  8
0
 62
     0
 10
11.8194
 20
0.229167
 30
0.0
 11
11.5034
 21
0.137153
 31
0.0
  0
LINE
  8
0
 62
     0
 10
11.5034
 20
0.137153
 30
0.0
 11
11.1667
 21
0.0555556
 31
0.0
  0
LINE
  8
0
 62
     0
 10
11.1667
 20
0.0555556
 30
0.0
 11
10.8134
 21
-0.0112305
 31
0.0
  0
LINE
  8
0
 62
     0
 10
10.8134
 20
-0.0112305
 30
0.0
 11
10.4479
 21
-0.0589735
 31
0.0
  0
LINE
  8
0
 62
     0
 10
10.4479
 20
-0.0589735
 30
0.0
 11
10.0703
 21
-0.0876193
 31
0.0
  0
LINE
  8
0
 62
     0
 10
10.0703
 20
-0.0876193
 30
0.0
 11
9.68056
 21
-0.0972222
 31
0.0
  0
LINE
  8
0
 62
     0
 10
9.68056
 20
-0.0972222
 30
0.0
 11
9.21392
 21
-0.0750868
 31
0.0
  0
LINE
  8
0
 62
     0
 10
9.21392
 20
-0.0750868
 30
0.0
 11
8.77251
 21
-0.00868056
 31
0.0
  0
LINE
  8
0
 62
     0
 10
8.77251
 20
-0.00868056
 30
0.0
 11
8.35628
 21
0.101997
 31
0.0
  0
LINE
  8
0
 62
     0
 10
8.35628
 20
0.101997
 30
0.0
 11
7.96528
 21
0.256944
 31
0.0
  0
LINE
  8
0
 62
     0
 10
7.96528
 20
0.256944
 30
0.0
 11
7.60547
 21
0.458767
 31
0.0
  0
LINE
  8
0
 62
     0
 10
7.60547
 20
0.458767
 30
0.0
 11
7.28299
 21
0.710069
 31
0.0
  0
LINE
  8
0
 62
     0
 10
7.28299
 20
0.710069
 30
0.0
 11
6.99783
 21
1.01085
 31
0.0
  0
LINE
  8
0
 62
     0
 10
6.99783
 20
1.01085
 30
0.0
 11
6.75
 21
1.36111
 31
0.0
  0
LINE
  8
0
 62
     0
 10
6.75
 20
1.36111
 30
0.0
 11
6.50472
 21
1.01085
 31
0.0
  0
LINE
  8
0
 62
     0
 10
6.50472
 20
1.01085
 30
0.0
 11
6.22738
 21
0.710069
 31
0.0
  0
LINE
  8
0
 62
     0
 10
6.22738
 20
0.710069
 30
0.0
 11
5.91792
 21
0.458767
 31
0.0
  0
LINE
  8
0
 62
     0
 10
5.91792
 20
0.458767
 30
0.0
 11
5.57639
 21
0.256944
 31
0.0
  0
LINE
  8
0
 62
     0
 10
5.57639
 20
0.256944
 30
0.0
 11
5.21137
 21
0.101997
 31
0.0
  0
LINE
  8
0
 62
     0
 10
5.21137
 20
0.101997
 30
0.0
 11
4.8316
 21
-0.00868056
 31
0.0
  0
LINE
  8
0
 62
     0
 10
4.8316
 20
-0.00868056
 30
0.0
 11
4.43707
 21
-0.0750868
 31
0.0
  0
LINE
  8
0
 62
     0
 10
4.43707
 20
-0.0750868
 30
0.0
 11
4.02778
 21
-0.0972222
 31
0.0
  0
LINE
  8
0
 62
     0
 10
4.02778
 20
-0.0972222
 30
0.0
 11
3.69222
 21
-0.0820313
 31
0.0
  0
LINE
  8
0
 62
     0
 10
3.69222
 20
-0.0820313
 30
0.0
 11
3.36626
 21
-0.0364583
 31
0.0
  0
LINE
  8
0
 62
     0
 10
3.36626
 20
-0.0364583
 30
0.0
 11
3.04986
 21
0.0394965
 31
0.0
  0
LINE
  8
0
 62
     0
 10
3.04986
 20
0.0394965
 30
0.0
 11
2.74306
 21
0.145833
 31
0.0
  0
LINE
  8
0
 62
     0
 10
2.74306
 20
0.145833
 30
0.0
 11
2.45008
 21
0.28304
 31
0.0
  0
LINE
  8
0
 62
     0
 10
2.45008
 20
0.28304
 30
0.0
 11
2.17535
 21
0.451389
 31
0.0
  0
LINE
  8
0
 62
     0
 10
2.17535
 20
0.451389
 30
0.0
 11
1.91883
 21
0.651042
 31
0.0
  0
LINE
  8
0
 62
     0
 10
1.91883
 20
0.651042
 30
0.0
 11
1.68056
 21
0.881944
 31
0.0
  0
LINE
  8
0
 62
     0
 10
1.68056
 20
0.881944
 30
0.0
 11
1.46354
 21
1.14415
 31
0.0
  0
LINE
  8
0
 62
     0
 10
1.46354
 20
1.14415
 30
0.0
 11
1.27083
 21
1.4375
 31
0.0
  0
LINE
  8
0
 62
     0
 10
1.27083
 20
1.4375
 30
0.0
 11
1.10243
 21
1.76215
 31
0.0
  0
LINE
  8
0
 62
     0
 10
1.10243
 20
1.76215
 30
0.0
 11
0.958333
 21
2.11806
 31
0.0
  0
LINE
  8
0
 62
     0
 10
0.958333
 20
2.11806
 30
0.0
 11
0.842828
 21
2.50483
 31
0.0
  0
LINE
  8
0
 62
     0
 10
0.842828
 20
2.50483
 30
0.0
 11
0.760363
 21
2.92193
 31
0.0
  0
LINE
  8
0
 62
     0
 10
0.760363
 20
2.92193
 30
0.0
 11
0.710883
 21
3.36942
 31
0.0
  0
LINE
  8
0
 62
     0
 10
0.710883
 20
3.36942
 30
0.0
 11
0.694444
 21
3.84722
 31
0.0
  0
LINE
  8
0
 62
     0
 10
0.694444
 20
3.84722
 30
0.0
 11
0.710883
 21
4.30126
 31
0.0
  0
LINE
  8
0
 62
     0
 10
0.710883
 20
4.30126
 30
0.0
 11
0.760363
 21
4.73269
 31
0.0
  0
LINE
  8
0
 62
     0
 10
0.760363
 20
4.73269
 30
0.0
 11
0.842828
 21
5.14154
 31
0.0
  0
LINE
  8
0
 62
     0
 10
0.842828
 20
5.14154
 30
0.0
 11
0.958333
 21
5.52778
 31
0.0
  0
LINE
  8
0
 62
     0
 10
0.958333
 20
5.52778
 30
0.0
 11
1.10243
 21
5.88803
 31
0.0
  0
LINE
  8
0
 62
     0
 10
1.10243
 20
5.88803
 30
0.0
 11
1.27083
 21
6.21875
 31
0.0
  0
LINE
  8
0
 62
     0
 10
1.27083
 20
6.21875
 30
0.0
 11
1.46354
 21
6.51997
 31
0.0
  0
LINE
  8
0
 62
     0
 10
1.46354
 20
6.51997
 30
0.0
 11
1.68056
 21
6.79167
 31
0.0
  0
LINE
  8
0
 62
     0
 10
1.68056
 20
6.79167
 30
0.0
 11
1.91883
 21
7.0339
 31
0.0
  0
LINE
  8
0
 62
     0
 10
1.91883
 20
7.0339
 30
0.0
 11
2.17535
 21
7.24658
 31
0.0
  0
LINE
  8
0
 62
     0
 10
2.17535
 20
7.24658
 30
0.0
 11
2.45008
 21
7.42974
 31
0.0
  0
LINE
  8
0
 62
     0
 10
2.45008
 20
7.42974
 30
0.0
 11
2.74306
 21
7.58333
 31
0.0
  0
LINE
  8
0
 62
     0
 10
2.74306
 20
7.58333
 30
0.0
 11
3.04986
 21
7.70486
 31
0.0
  0
LINE
  8
0
 62
     0
 10
3.04986
 20
7.70486
 30
0.0
 11
3.36626
 21
7.79167
 31
0.0
  0
LINE
  8
0
 62
     0
 10
3.36626
 20
7.79167
 30
0.0
 11
3.69222
 21
7.84375
 31
0.0
  0
LINE
  8
0
 62
     0
 10
3.69222
 20
7.84375
 30
0.0
 11
4.02778
 21
7.86111
 31
0.0
  0
LINE
  8
0
 62
     0
 10
4.02778
 20
7.86111
 30
0.0
 11
4.44314
 21
7.83556
 31
0.0
  0
LINE
  8
0
 62
     0
 10
4.44314
 20
7.83556
 30
0.0
 11
4.84201
 21
7.75874
 31
0.0
  0
LINE
  8
0
 62
     0
 10
4.84201
 20
7.75874
 30
0.0
 11
5.22439
 21
7.63069
 31
0.0
  0
LINE
  8
0
 62
     0
 10
5.22439
 20
7.63069
 30
0.0
 11
5.59028
 21
7.45139
 31
0.0
  0
LINE
  8
0
 62
     0
 10
5.59028
 20
7.45139
 30
0.0
 11
5.93181
 21
7.22439
 31
0.0
  0
LINE
  8
0
 62
     0
 10
5.93181
 20
7.22439
 30
0.0
 11
6.24126
 21
6.95313
 31
0.0
  0
LINE
  8
0
 62
     0
 10
6.24126
 20
6.95313
 30
0.0
 11
6.51861
 21
6.63764
 31
0.0
  0
LINE
  8
0
 62
     0
 10
6.51861
 20
6.63764
 30
0.0
 11
6.76389
 21
6.27778
 31
0.0
  0
LINE
  8
0
 62
     0
 10
6.76389
 20
6.27778
 30
0.0
 11
7.00211
 21
6.63764
 31
0.0
  0
LINE
  8
0
 62
     0
 10
7.00211
 20
6.63764
 30
0.0
 11
7.27251
 21
6.95313
 31
0.0
  0
LINE
  8
0
 62
     0
 10
7.27251
 20
6.95313
 30
0.0
 11
7.57503
 21
7.22439
 31
0.0
  0
LINE
  8
0
 62
     0
 10
7.57503
 20
7.22439
 30
0.0
 11
7.90972
 21
7.45139
 31
0.0
  0
LINE
  8
0
 62
     0
 10
7.90972
 20
7.45139
 30
0.0
 11
8.26953
 21
7.63069
 31
0.0
  0
LINE
  8
0
 62
     0
 10
8.26953
 20
7.63069
 30
0.0
 11
8.64757
 21
7.75874
 31
0.0
  0
LINE
  8
0
 62
     0
 10
8.64757
 20
7.75874
 30
0.0
 11
9.04383
 21
7.83556
 31
0.0
  0
LINE
  8
0
 62
     0
 10
9.04383
 20
7.83556
 30
0.0
 11
9.45833
 21
7.86111
 31
0.0
  0
LINE
  8
0
 62
     0
 10
9.45833
 20
7.86111
 30
0.0
 11
9.79297
 21
7.84506
 31
0.0
  0
LINE
  8
0
 62
     0
 10
9.79297
 20
7.84506
 30
0.0
 11
10.1163
 21
7.79688
 31
0.0
  0
LINE
  8
0
 62
     0
 10
10.1163
 20
7.79688
 30
0.0
 11
10.4284
 21
7.71658
 31
0.0
  0
LINE
  8
0
 62
     0
 10
10.4284
 20
7.71658
 30
0.0
 11
10.7292
 21
7.60417
 31
0.0
  0
LINE
  8
0
 62
     0
 10
10.7292
 20
7.60417
 30
0.0
 11
11.0147
 21
7.46229
 31
0.0
  0
LINE
  8
0
 62
     0
 10
11.0147
 20
7.46229
 30
0.0
 11
11.2812
 21
7.29346
 31
0.0
  0
LINE
  8
0
 62
     0
 10
11.2812
 20
7.29346
 30
0.0
 11
11.5286
 21
7.09771
 31
0.0
  0
LINE
  8
0
 62
     0
 10
11.5286
 20
7.09771
 30
0.0
 11
11.7569
 21
6.875
 31
0.0
  0
LINE
  8
0
 62
     0
 10
11.7569
 20
6.875
 30
0.0
 11
11.964
 21
6.62674
 31
0.0
  0
LINE
  8
0
 62
     0
 10
11.964
 20
6.62674
 30
0.0
 11
12.1476
 21
6.35417
 31
0.0
  0
LINE
  8
0
 62
     0
 10
12.1476
 20
6.35417
 30
0.0
 11
12.3077
 21
6.05729
 31
0.0
  0
LINE
  8
0
 62
     0
 10
12.3077
 20
6.05729
 30
0.0
 11
12.4444
 21
5.73611
 31
0.0
  0
LINE
  8
0
 62
     0
 10
12.4444
 20
5.73611
 30
0.0
 11
12.5538
 21
5.39322
 31
0.0
  0
LINE
  8
0
 62
     0
 10
12.5538
 20
5.39322
 30
0.0
 11
12.6319
 21
5.03125
 31
0.0
  0
LINE
  8
0
 62
     0
 10
12.6319
 20
5.03125
 30
0.0
 11
12.6788
 21
4.65017
 31
0.0
  0
LINE
  8
0
 62
     0
 10
12.6788
 20
4.65017
 30
0.0
 11
12.6944
 21
4.25
 31
0.0
  0
LINE
  8
0
 62
     0
 10
12.6944
 20
4.25
 30
0.0
 11
12.6944
 21
3.72222
 31
0.0
  0
ENDSEC
  0
EOF
