  0
SECTION
  2
HEADER
  9
$ACADVER
  1
AC1009
  9
$EXTMIN
 10
0.0
 20
0.0
 30
0.0
  9
$EXTMAX
 10
1000.0
 20
1000.0
 30
0.0
  9
$FILLMODE
 70
 0
  9
$SPLFRAME
 70
 1
  0
ENDSEC
  0
SECTION
  2
TABLES
  0
TABLE
  2
LAYER
 70
1
  0
LAYER
  2
0
 70
     0
 62
     7
  6
CONTINUOUS
  0
ENDTAB
  0
ENDSEC
  0
SECTION
  2
ENTITIES
  0
LINE
  8
0
 62
     0
 10
4.04167
 20
11.3611
 30
0.0
 11
5.125
 21
9.47222
 31
0.0
  0
LINE
  8
0
 62
     0
 10
5.125
 20
9.47222
 30
0.0
 11
4.15278
 21
9.47222
 31
0.0
  0
LINE
  8
0
 62
     0
 10
4.15278
 20
9.47222
 30
0.0
 11
2.80556
 21
11.3611
 31
0.0
  0
LINE
  8
0
 62
     0
 10
2.80556
 20
11.3611
 30
0.0
 11
4.04167
 21
11.3611
 31
0.0
  0
LINE
  8
0
 62
     0
 10
3.95833
 20
0.902778
 30
0.0
 11
4.21479
 21
0.917589
 31
0.0
  0
LINE
  8
0
 62
     0
 10
4.21479
 20
0.917589
 30
0.0
 11
4.45654
 21
0.96186
 31
0.0
  0
LINE
  8
0
 62
     0
 10
4.45654
 20
0.96186
 30
0.0
 11
4.68354
 21
1.03564
 31
0.0
  0
LINE
  8
0
 62
     0
 10
4.68354
 20
1.03564
 30
0.0
 11
4.89583
 21
1.13889
 31
0.0
  0
LINE
  8
0
 62
     0
 10
4.89583
 20
1.13889
 30
0.0
 11
5.09244
 21
1.26736
 31
0.0
  0
LINE
  8
0
 62
     0
 10
5.09244
 20
1.26736
 30
0.0
 11
5.27257
 21
1.41667
 31
0.0
  0
LINE
  8
0
 62
     0
 10
5.27257
 20
1.41667
 30
0.0
 11
5.43619
 21
1.58686
 31
0.0
  0
LINE
  8
0
 62
     0
 10
5.43619
 20
1.58686
 30
0.0
 11
5.58333
 21
1.77778
 31
0.0
  0
LINE
  8
0
 62
     0
 10
5.58333
 20
1.77778
 30
0.0
 11
5.71349
 21
1.98742
 31
0.0
  0
LINE
  8
0
 62
     0
 10
5.71349
 20
1.98742
 30
0.0
 11
5.82633
 21
2.21354
 31
0.0
  0
LINE
  8
0
 62
     0
 10
5.82633
 20
2.21354
 30
0.0
 11
5.92182
 21
2.45617
 31
0.0
  0
LINE
  8
0
 62
     0
 10
5.92182
 20
2.45617
 30
0.0
 11
6
 21
2.71528
 31
0.0
  0
LINE
  8
0
 62
     0
 10
6
 20
2.71528
 30
0.0
 11
6.10417
 21
3.26563
 31
0.0
  0
LINE
  8
0
 62
     0
 10
6.10417
 20
3.26563
 30
0.0
 11
6.13889
 21
3.84722
 31
0.0
  0
LINE
  8
0
 62
     0
 10
6.13889
 20
3.84722
 30
0.0
 11
6.10417
 21
4.39936
 31
0.0
  0
LINE
  8
0
 62
     0
 10
6.10417
 20
4.39936
 30
0.0
 11
6
 21
4.94444
 31
0.0
  0
LINE
  8
0
 62
     0
 10
6
 20
4.94444
 30
0.0
 11
5.92225
 21
5.20747
 31
0.0
  0
LINE
  8
0
 62
     0
 10
5.92225
 20
5.20747
 30
0.0
 11
5.82807
 21
5.45486
 31
0.0
  0
LINE
  8
0
 62
     0
 10
5.82807
 20
5.45486
 30
0.0
 11
5.71739
 21
5.68664
 31
0.0
  0
LINE
  8
0
 62
     0
 10
5.71739
 20
5.68664
 30
0.0
 11
5.59028
 21
5.90278
 31
0.0
  0
LINE
  8
0
 62
     0
 10
5.59028
 20
5.90278
 30
0.0
 11
5.44618
 21
6.10118
 31
0.0
  0
LINE
  8
0
 62
     0
 10
5.44618
 20
6.10118
 30
0.0
 11
5.28472
 21
6.27957
 31
0.0
  0
LINE
  8
0
 62
     0
 10
5.28472
 20
6.27957
 30
0.0
 11
5.1059
 21
6.43799
 31
0.0
  0
LINE
  8
0
 62
     0
 10
5.1059
 20
6.43799
 30
0.0
 11
4.90972
 21
6.57639
 31
0.0
  0
LINE
  8
0
 62
     0
 10
4.90972
 20
6.57639
 30
0.0
 11
4.69743
 21
6.68881
 31
0.0
  0
LINE
  8
0
 62
     0
 10
4.69743
 20
6.68881
 30
0.0
 11
4.47043
 21
6.7691
 31
0.0
  0
LINE
  8
0
 62
     0
 10
4.47043
 20
6.7691
 30
0.0
 11
4.22868
 21
6.81728
 31
0.0
  0
LINE
  8
0
 62
     0
 10
4.22868
 20
6.81728
 30
0.0
 11
3.97222
 21
6.83333
 31
0.0
  0
LINE
  8
0
 62
     0
 10
3.97222
 20
6.83333
 30
0.0
 11
3.71001
 21
6.81771
 31
0.0
  0
LINE
  8
0
 62
     0
 10
3.71001
 20
6.81771
 30
0.0
 11
3.46522
 21
6.77083
 31
0.0
  0
LINE
  8
0
 62
     0
 10
3.46522
 20
6.77083
 30
0.0
 11
3.23779
 21
6.69271
 31
0.0
  0
LINE
  8
0
 62
     0
 10
3.23779
 20
6.69271
 30
0.0
 11
3.02778
 21
6.58333
 31
0.0
  0
LINE
  8
0
 62
     0
 10
3.02778
 20
6.58333
 30
0.0
 11
2.83415
 21
6.44792
 31
0.0
  0
LINE
  8
0
 62
     0
 10
2.83415
 20
6.44792
 30
0.0
 11
2.65619
 21
6.29167
 31
0.0
  0
LINE
  8
0
 62
     0
 10
2.65619
 20
6.29167
 30
0.0
 11
2.49388
 21
6.11458
 31
0.0
  0
LINE
  8
0
 62
     0
 10
2.49388
 20
6.11458
 30
0.0
 11
2.34722
 21
5.91667
 31
0.0
  0
LINE
  8
0
 62
     0
 10
2.34722
 20
5.91667
 30
0.0
 11
2.21701
 21
5.70101
 31
0.0
  0
LINE
  8
0
 62
     0
 10
2.21701
 20
5.70101
 30
0.0
 11
2.10417
 21
5.47054
 31
0.0
  0
LINE
  8
0
 62
     0
 10
2.10417
 20
5.47054
 30
0.0
 11
2.00868
 21
5.22532
 31
0.0
  0
LINE
  8
0
 62
     0
 10
2.00868
 20
5.22532
 30
0.0
 11
1.93056
 21
4.96528
 31
0.0
  0
LINE
  8
0
 62
     0
 10
1.93056
 20
4.96528
 30
0.0
 11
1.82633
 21
4.42188
 31
0.0
  0
LINE
  8
0
 62
     0
 10
1.82633
 20
4.42188
 30
0.0
 11
1.79167
 21
3.86111
 31
0.0
  0
LINE
  8
0
 62
     0
 10
1.79167
 20
3.86111
 30
0.0
 11
1.82633
 21
3.28999
 31
0.0
  0
LINE
  8
0
 62
     0
 10
1.82633
 20
3.28999
 30
0.0
 11
1.93056
 21
2.74306
 31
0.0
  0
LINE
  8
0
 62
     0
 10
1.93056
 20
2.74306
 30
0.0
 11
2.00825
 21
2.4835
 31
0.0
  0
LINE
  8
0
 62
     0
 10
2.00825
 20
2.4835
 30
0.0
 11
2.10243
 21
2.23958
 31
0.0
  0
LINE
  8
0
 62
     0
 10
2.10243
 20
2.23958
 30
0.0
 11
2.21311
 21
2.01133
 31
0.0
  0
LINE
  8
0
 62
     0
 10
2.21311
 20
2.01133
 30
0.0
 11
2.34028
 21
1.79861
 31
0.0
  0
LINE
  8
0
 62
     0
 10
2.34028
 20
1.79861
 30
0.0
 11
2.48432
 21
1.60417
 31
0.0
  0
LINE
  8
0
 62
     0
 10
2.48432
 20
1.60417
 30
0.0
 11
2.64578
 21
1.43056
 31
0.0
  0
LINE
  8
0
 62
     0
 10
2.64578
 20
1.43056
 30
0.0
 11
2.8246
 21
1.27783
 31
0.0
  0
LINE
  8
0
 62
     0
 10
2.8246
 20
1.27783
 30
0.0
 11
3.02083
 21
1.14583
 31
0.0
  0
LINE
  8
0
 62
     0
 10
3.02083
 20
1.14583
 30
0.0
 11
3.23307
 21
1.0395
 31
0.0
  0
LINE
  8
0
 62
     0
 10
3.23307
 20
1.0395
 30
0.0
 11
3.46007
 21
0.963542
 31
0.0
  0
LINE
  8
0
 62
     0
 10
3.46007
 20
0.963542
 30
0.0
 11
3.70182
 21
0.917969
 31
0.0
  0
LINE
  8
0
 62
     0
 10
3.70182
 20
0.917969
 30
0.0
 11
3.95833
 21
0.902778
 31
0.0
  0
LINE
  8
0
 62
     0
 10
3.95833
 20
7.86111
 30
0.0
 11
4.29428
 21
7.84375
 31
0.0
  0
LINE
  8
0
 62
     0
 10
4.29428
 20
7.84375
 30
0.0
 11
4.62153
 21
7.79167
 31
0.0
  0
LINE
  8
0
 62
     0
 10
4.62153
 20
7.79167
 30
0.0
 11
4.94011
 21
7.70486
 31
0.0
  0
LINE
  8
0
 62
     0
 10
4.94011
 20
7.70486
 30
0.0
 11
5.25
 21
7.58333
 31
0.0
  0
LINE
  8
0
 62
     0
 10
5.25
 20
7.58333
 30
0.0
 11
5.54596
 21
7.42974
 31
0.0
  0
LINE
  8
0
 62
     0
 10
5.54596
 20
7.42974
 30
0.0
 11
5.82286
 21
7.24658
 31
0.0
  0
LINE
  8
0
 62
     0
 10
5.82286
 20
7.24658
 30
0.0
 11
6.08068
 21
7.0339
 31
0.0
  0
LINE
  8
0
 62
     0
 10
6.08068
 20
7.0339
 30
0.0
 11
6.31944
 21
6.79167
 31
0.0
  0
LINE
  8
0
 62
     0
 10
6.31944
 20
6.79167
 30
0.0
 11
6.5364
 21
6.51997
 31
0.0
  0
LINE
  8
0
 62
     0
 10
6.5364
 20
6.51997
 30
0.0
 11
6.72911
 21
6.21875
 31
0.0
  0
LINE
  8
0
 62
     0
 10
6.72911
 20
6.21875
 30
0.0
 11
6.89751
 21
5.88803
 31
0.0
  0
LINE
  8
0
 62
     0
 10
6.89751
 20
5.88803
 30
0.0
 11
7.04167
 21
5.52778
 31
0.0
  0
LINE
  8
0
 62
     0
 10
7.04167
 20
5.52778
 30
0.0
 11
7.15711
 21
5.14154
 31
0.0
  0
LINE
  8
0
 62
     0
 10
7.15711
 20
5.14154
 30
0.0
 11
7.23958
 21
4.73269
 31
0.0
  0
LINE
  8
0
 62
     0
 10
7.23958
 20
4.73269
 30
0.0
 11
7.28906
 21
4.30126
 31
0.0
  0
LINE
  8
0
 62
     0
 10
7.28906
 20
4.30126
 30
0.0
 11
7.30556
 21
3.84722
 31
0.0
  0
LINE
  8
0
 62
     0
 10
7.30556
 20
3.84722
 30
0.0
 11
7.28906
 21
3.36942
 31
0.0
  0
LINE
  8
0
 62
     0
 10
7.28906
 20
3.36942
 30
0.0
 11
7.23958
 21
2.92193
 31
0.0
  0
LINE
  8
0
 62
     0
 10
7.23958
 20
2.92193
 30
0.0
 11
7.15711
 21
2.50483
 31
0.0
  0
LINE
  8
0
 62
     0
 10
7.15711
 20
2.50483
 30
0.0
 11
7.04167
 21
2.11806
 31
0.0
  0
LINE
  8
0
 62
     0
 10
7.04167
 20
2.11806
 30
0.0
 11
6.89751
 21
1.76215
 31
0.0
  0
LINE
  8
0
 62
     0
 10
6.89751
 20
1.76215
 30
0.0
 11
6.72911
 21
1.4375
 31
0.0
  0
LINE
  8
0
 62
     0
 10
6.72911
 20
1.4375
 30
0.0
 11
6.5364
 21
1.14415
 31
0.0
  0
LINE
  8
0
 62
     0
 10
6.5364
 20
1.14415
 30
0.0
 11
6.31944
 21
0.881944
 31
0.0
  0
LINE
  8
0
 62
     0
 10
6.31944
 20
0.881944
 30
0.0
 11
6.08068
 21
0.651042
 31
0.0
  0
LINE
  8
0
 62
     0
 10
6.08068
 20
0.651042
 30
0.0
 11
5.82286
 21
0.451389
 31
0.0
  0
LINE
  8
0
 62
     0
 10
5.82286
 20
0.451389
 30
0.0
 11
5.54596
 21
0.28304
 31
0.0
  0
LINE
  8
0
 62
     0
 10
5.54596
 20
0.28304
 30
0.0
 11
5.25
 21
0.145833
 31
0.0
  0
LINE
  8
0
 62
     0
 10
5.25
 20
0.145833
 30
0.0
 11
4.94011
 21
0.0394965
 31
0.0
  0
LINE
  8
0
 62
     0
 10
4.94011
 20
0.0394965
 30
0.0
 11
4.62153
 21
-0.0364583
 31
0.0
  0
LINE
  8
0
 62
     0
 10
4.62153
 20
-0.0364583
 30
0.0
 11
4.29428
 21
-0.0820313
 31
0.0
  0
LINE
  8
0
 62
     0
 10
4.29428
 20
-0.0820313
 30
0.0
 11
3.95833
 21
-0.0972222
 31
0.0
  0
LINE
  8
0
 62
     0
 10
3.95833
 20
-0.0972222
 30
0.0
 11
3.62278
 21
-0.0820313
 31
0.0
  0
LINE
  8
0
 62
     0
 10
3.62278
 20
-0.0820313
 30
0.0
 11
3.29682
 21
-0.0364583
 31
0.0
  0
LINE
  8
0
 62
     0
 10
3.29682
 20
-0.0364583
 30
0.0
 11
2.98042
 21
0.0394965
 31
0.0
  0
LINE
  8
0
 62
     0
 10
2.98042
 20
0.0394965
 30
0.0
 11
2.67361
 21
0.145833
 31
0.0
  0
LINE
  8
0
 62
     0
 10
2.67361
 20
0.145833
 30
0.0
 11
2.38064
 21
0.28304
 31
0.0
  0
LINE
  8
0
 62
     0
 10
2.38064
 20
0.28304
 30
0.0
 11
2.1059
 21
0.451389
 31
0.0
  0
LINE
  8
0
 62
     0
 10
2.1059
 20
0.451389
 30
0.0
 11
1.84939
 21
0.651042
 31
0.0
  0
LINE
  8
0
 62
     0
 10
1.84939
 20
0.651042
 30
0.0
 11
1.61111
 21
0.881944
 31
0.0
  0
LINE
  8
0
 62
     0
 10
1.61111
 20
0.881944
 30
0.0
 11
1.3941
 21
1.14415
 31
0.0
  0
LINE
  8
0
 62
     0
 10
1.3941
 20
1.14415
 30
0.0
 11
1.20139
 21
1.4375
 31
0.0
  0
LINE
  8
0
 62
     0
 10
1.20139
 20
1.4375
 30
0.0
 11
1.03299
 21
1.76215
 31
0.0
  0
LINE
  8
0
 62
     0
 10
1.03299
 20
1.76215
 30
0.0
 11
0.888889
 21
2.11806
 31
0.0
  0
LINE
  8
0
 62
     0
 10
0.888889
 20
2.11806
 30
0.0
 11
0.773383
 21
2.50483
 31
0.0
  0
LINE
  8
0
 62
     0
 10
0.773383
 20
2.50483
 30
0.0
 11
0.690918
 21
2.92193
 31
0.0
  0
LINE
  8
0
 62
     0
 10
0.690918
 20
2.92193
 30
0.0
 11
0.641439
 21
3.36942
 31
0.0
  0
LINE
  8
0
 62
     0
 10
0.641439
 20
3.36942
 30
0.0
 11
0.625
 21
3.84722
 31
0.0
  0
LINE
  8
0
 62
     0
 10
0.625
 20
3.84722
 30
0.0
 11
0.641439
 21
4.30126
 31
0.0
  0
LINE
  8
0
 62
     0
 10
0.641439
 20
4.30126
 30
0.0
 11
0.690918
 21
4.73269
 31
0.0
  0
LINE
  8
0
 62
     0
 10
0.690918
 20
4.73269
 30
0.0
 11
0.773383
 21
5.14154
 31
0.0
  0
LINE
  8
0
 62
     0
 10
0.773383
 20
5.14154
 30
0.0
 11
0.888889
 21
5.52778
 31
0.0
  0
LINE
  8
0
 62
     0
 10
0.888889
 20
5.52778
 30
0.0
 11
1.03299
 21
5.88803
 31
0.0
  0
LINE
  8
0
 62
     0
 10
1.03299
 20
5.88803
 30
0.0
 11
1.20139
 21
6.21875
 31
0.0
  0
LINE
  8
0
 62
     0
 10
1.20139
 20
6.21875
 30
0.0
 11
1.3941
 21
6.51997
 31
0.0
  0
LINE
  8
0
 62
     0
 10
1.3941
 20
6.51997
 30
0.0
 11
1.61111
 21
6.79167
 31
0.0
  0
LINE
  8
0
 62
     0
 10
1.61111
 20
6.79167
 30
0.0
 11
1.84939
 21
7.0339
 31
0.0
  0
LINE
  8
0
 62
     0
 10
1.84939
 20
7.0339
 30
0.0
 11
2.1059
 21
7.24658
 31
0.0
  0
LINE
  8
0
 62
     0
 10
2.1059
 20
7.24658
 30
0.0
 11
2.38064
 21
7.42974
 31
0.0
  0
LINE
  8
0
 62
     0
 10
2.38064
 20
7.42974
 30
0.0
 11
2.67361
 21
7.58333
 31
0.0
  0
LINE
  8
0
 62
     0
 10
2.67361
 20
7.58333
 30
0.0
 11
2.98042
 21
7.70486
 31
0.0
  0
LINE
  8
0
 62
     0
 10
2.98042
 20
7.70486
 30
0.0
 11
3.29682
 21
7.79167
 31
0.0
  0
LINE
  8
0
 62
     0
 10
3.29682
 20
7.79167
 30
0.0
 11
3.62278
 21
7.84375
 31
0.0
  0
LINE
  8
0
 62
     0
 10
3.62278
 20
7.84375
 30
0.0
 11
3.95833
 21
7.86111
 31
0.0
  0
ENDSEC
  0
EOF
