  0
SECTION
  2
HEADER
  9
$ACADVER
  1
AC1009
  9
$EXTMIN
 10
0.0
 20
0.0
 30
0.0
  9
$EXTMAX
 10
1000.0
 20
1000.0
 30
0.0
  9
$FILLMODE
 70
 0
  9
$SPLFRAME
 70
 1
  0
ENDSEC
  0
SECTION
  2
TABLES
  0
TABLE
  2
LAYER
 70
1
  0
LAYER
  2
0
 70
     0
 62
     7
  6
CONTINUOUS
  0
ENDTAB
  0
ENDSEC
  0
SECTION
  2
ENTITIES
  0
LINE
  8
0
 62
     0
 10
2.25
 20
4.23611
 30
0.0
 11
2.25
 21
9.13889
 31
0.0
  0
LINE
  8
0
 62
     0
 10
2.25
 20
9.13889
 30
0.0
 11
1.04167
 21
8.51389
 31
0.0
  0
LINE
  8
0
 62
     0
 10
1.04167
 20
8.51389
 30
0.0
 11
1.04167
 21
9.41667
 31
0.0
  0
LINE
  8
0
 62
     0
 10
1.04167
 20
9.41667
 30
0.0
 11
2.40278
 21
10.1389
 31
0.0
  0
LINE
  8
0
 62
     0
 10
2.40278
 20
10.1389
 30
0.0
 11
3.05556
 21
10.1389
 31
0.0
  0
LINE
  8
0
 62
     0
 10
3.05556
 20
10.1389
 30
0.0
 11
3.05556
 21
4.23611
 31
0.0
  0
LINE
  8
0
 62
     0
 10
3.05556
 20
4.23611
 30
0.0
 11
2.25
 21
4.23611
 31
0.0
  0
LINE
  8
0
 62
     0
 10
11.2778
 20
0.0138889
 30
0.0
 11
7.59722
 21
0.0138889
 31
0.0
  0
LINE
  8
0
 62
     0
 10
7.59722
 20
0.0138889
 30
0.0
 11
7.59722
 21
0.777778
 31
0.0
  0
LINE
  8
0
 62
     0
 10
7.59722
 20
0.777778
 30
0.0
 11
9.98611
 21
3.38889
 31
0.0
  0
LINE
  8
0
 62
     0
 10
9.98611
 20
3.38889
 30
0.0
 11
10.0881
 21
3.50174
 31
0.0
  0
LINE
  8
0
 62
     0
 10
10.0881
 20
3.50174
 30
0.0
 11
10.1719
 21
3.60417
 31
0.0
  0
LINE
  8
0
 62
     0
 10
10.1719
 20
3.60417
 30
0.0
 11
10.2374
 21
3.69624
 31
0.0
  0
LINE
  8
0
 62
     0
 10
10.2374
 20
3.69624
 30
0.0
 11
10.2847
 21
3.77778
 31
0.0
  0
LINE
  8
0
 62
     0
 10
10.2847
 20
3.77778
 30
0.0
 11
10.342
 21
3.96528
 31
0.0
  0
LINE
  8
0
 62
     0
 10
10.342
 20
3.96528
 30
0.0
 11
10.3611
 21
4.22222
 31
0.0
  0
LINE
  8
0
 62
     0
 10
10.3611
 20
4.22222
 30
0.0
 11
10.3476
 21
4.39974
 31
0.0
  0
LINE
  8
0
 62
     0
 10
10.3476
 20
4.39974
 30
0.0
 11
10.3072
 21
4.57118
 31
0.0
  0
LINE
  8
0
 62
     0
 10
10.3072
 20
4.57118
 30
0.0
 11
10.24
 21
4.73654
 31
0.0
  0
LINE
  8
0
 62
     0
 10
10.24
 20
4.73654
 30
0.0
 11
10.1458
 21
4.89583
 31
0.0
  0
LINE
  8
0
 62
     0
 10
10.1458
 20
4.89583
 30
0.0
 11
10.0204
 21
5.03256
 31
0.0
  0
LINE
  8
0
 62
     0
 10
10.0204
 20
5.03256
 30
0.0
 11
9.85938
 21
5.13021
 31
0.0
  0
LINE
  8
0
 62
     0
 10
9.85938
 20
5.13021
 30
0.0
 11
9.66276
 21
5.18881
 31
0.0
  0
LINE
  8
0
 62
     0
 10
9.66276
 20
5.18881
 30
0.0
 11
9.43056
 21
5.20833
 31
0.0
  0
LINE
  8
0
 62
     0
 10
9.43056
 20
5.20833
 30
0.0
 11
9.20269
 21
5.18799
 31
0.0
  0
LINE
  8
0
 62
     0
 10
9.20269
 20
5.18799
 30
0.0
 11
9.00521
 21
5.12679
 31
0.0
  0
LINE
  8
0
 62
     0
 10
9.00521
 20
5.12679
 30
0.0
 11
8.83811
 21
5.02479
 31
0.0
  0
LINE
  8
0
 62
     0
 10
8.83811
 20
5.02479
 30
0.0
 11
8.70139
 21
4.88194
 31
0.0
  0
LINE
  8
0
 62
     0
 10
8.70139
 20
4.88194
 30
0.0
 11
8.595
 21
4.71311
 31
0.0
  0
LINE
  8
0
 62
     0
 10
8.595
 20
4.71311
 30
0.0
 11
8.51904
 21
4.53299
 31
0.0
  0
LINE
  8
0
 62
     0
 10
8.51904
 20
4.53299
 30
0.0
 11
8.47347
 21
4.34158
 31
0.0
  0
LINE
  8
0
 62
     0
 10
8.47347
 20
4.34158
 30
0.0
 11
8.45833
 21
4.13889
 31
0.0
  0
LINE
  8
0
 62
     0
 10
8.45833
 20
4.13889
 30
0.0
 11
7.63889
 21
4.13889
 31
0.0
  0
LINE
  8
0
 62
     0
 10
7.63889
 20
4.13889
 30
0.0
 11
7.66667
 21
4.44965
 31
0.0
  0
LINE
  8
0
 62
     0
 10
7.66667
 20
4.44965
 30
0.0
 11
7.75
 21
4.77083
 31
0.0
  0
LINE
  8
0
 62
     0
 10
7.75
 20
4.77083
 30
0.0
 11
7.88715
 21
5.08339
 31
0.0
  0
LINE
  8
0
 62
     0
 10
7.88715
 20
5.08339
 30
0.0
 11
8.07639
 21
5.36806
 31
0.0
  0
LINE
  8
0
 62
     0
 10
8.07639
 20
5.36806
 30
0.0
 11
8.19179
 21
5.49744
 31
0.0
  0
LINE
  8
0
 62
     0
 10
8.19179
 20
5.49744
 30
0.0
 11
8.32292
 21
5.61464
 31
0.0
  0
LINE
  8
0
 62
     0
 10
8.32292
 20
5.61464
 30
0.0
 11
8.46961
 21
5.71967
 31
0.0
  0
LINE
  8
0
 62
     0
 10
8.46961
 20
5.71967
 30
0.0
 11
8.63194
 21
5.8125
 31
0.0
  0
LINE
  8
0
 62
     0
 10
8.63194
 20
5.8125
 30
0.0
 11
8.8094
 21
5.88846
 31
0.0
  0
LINE
  8
0
 62
     0
 10
8.8094
 20
5.88846
 30
0.0
 11
9.00168
 21
5.94271
 31
0.0
  0
LINE
  8
0
 62
     0
 10
9.00168
 20
5.94271
 30
0.0
 11
9.20871
 21
5.97526
 31
0.0
  0
LINE
  8
0
 62
     0
 10
9.20871
 20
5.97526
 30
0.0
 11
9.43056
 21
5.98611
 31
0.0
  0
LINE
  8
0
 62
     0
 10
9.43056
 20
5.98611
 30
0.0
 11
9.81592
 21
5.94965
 31
0.0
  0
LINE
  8
0
 62
     0
 10
9.81592
 20
5.94965
 30
0.0
 11
10.1667
 21
5.84028
 31
0.0
  0
LINE
  8
0
 62
     0
 10
10.1667
 20
5.84028
 30
0.0
 11
10.4757
 21
5.6684
 31
0.0
  0
LINE
  8
0
 62
     0
 10
10.4757
 20
5.6684
 30
0.0
 11
10.7361
 21
5.44444
 31
0.0
  0
LINE
  8
0
 62
     0
 10
10.7361
 20
5.44444
 30
0.0
 11
10.9444
 21
5.17708
 31
0.0
  0
LINE
  8
0
 62
     0
 10
10.9444
 20
5.17708
 30
0.0
 11
11.0972
 21
4.875
 31
0.0
  0
LINE
  8
0
 62
     0
 10
11.0972
 20
4.875
 30
0.0
 11
11.191
 21
4.55214
 31
0.0
  0
LINE
  8
0
 62
     0
 10
11.191
 20
4.55214
 30
0.0
 11
11.2222
 21
4.22222
 31
0.0
  0
LINE
  8
0
 62
     0
 10
11.2222
 20
4.22222
 30
0.0
 11
11.191
 21
3.88374
 31
0.0
  0
LINE
  8
0
 62
     0
 10
11.191
 20
3.88374
 30
0.0
 11
11.0972
 21
3.59028
 31
0.0
  0
LINE
  8
0
 62
     0
 10
11.0972
 20
3.59028
 30
0.0
 11
11.0225
 21
3.45014
 31
0.0
  0
LINE
  8
0
 62
     0
 10
11.0225
 20
3.45014
 30
0.0
 11
10.9236
 21
3.3004
 31
0.0
  0
LINE
  8
0
 62
     0
 10
10.9236
 20
3.3004
 30
0.0
 11
10.8003
 21
3.14111
 31
0.0
  0
LINE
  8
0
 62
     0
 10
10.8003
 20
3.14111
 30
0.0
 11
10.6528
 21
2.97222
 31
0.0
  0
LINE
  8
0
 62
     0
 10
10.6528
 20
2.97222
 30
0.0
 11
8.59722
 21
0.777778
 31
0.0
  0
LINE
  8
0
 62
     0
 10
8.59722
 20
0.777778
 30
0.0
 11
11.2778
 21
0.777778
 31
0.0
  0
LINE
  8
0
 62
     0
 10
11.2778
 20
0.777778
 30
0.0
 11
11.2778
 21
0.0138889
 31
0.0
  0
LINE
  8
0
 62
     0
 10
3.72222
 20
-0
 30
0.0
 11
2.69444
 21
-0
 31
0.0
  0
LINE
  8
0
 62
     0
 10
2.69444
 20
-0
 30
0.0
 11
7.98611
 21
10.1389
 31
0.0
  0
LINE
  8
0
 62
     0
 10
7.98611
 20
10.1389
 30
0.0
 11
9.02778
 21
10.1389
 31
0.0
  0
LINE
  8
0
 62
     0
 10
9.02778
 20
10.1389
 30
0.0
 11
3.72222
 21
-0
 31
0.0
  0
ENDSEC
  0
EOF
