  0
SECTION
  2
HEADER
  9
$ACADVER
  1
AC1009
  9
$EXTMIN
 10
0.0
 20
0.0
 30
0.0
  9
$EXTMAX
 10
1000.0
 20
1000.0
 30
0.0
  9
$FILLMODE
 70
 0
  9
$SPLFRAME
 70
 1
  0
ENDSEC
  0
SECTION
  2
TABLES
  0
TABLE
  2
LAYER
 70
1
  0
LAYER
  2
0
 70
     0
 62
     7
  6
CONTINUOUS
  0
ENDTAB
  0
ENDSEC
  0
SECTION
  2
ENTITIES
  0
LINE
  8
0
 62
     0
 10
4.77778
 20
5.25
 30
0.0
 11
5.00125
 21
5.25911
 31
0.0
  0
LINE
  8
0
 62
     0
 10
5.00125
 20
5.25911
 30
0.0
 11
5.21349
 21
5.28646
 31
0.0
  0
LINE
  8
0
 62
     0
 10
5.21349
 20
5.28646
 30
0.0
 11
5.41444
 21
5.33203
 31
0.0
  0
LINE
  8
0
 62
     0
 10
5.41444
 20
5.33203
 30
0.0
 11
5.60417
 21
5.39583
 31
0.0
  0
LINE
  8
0
 62
     0
 10
5.60417
 20
5.39583
 30
0.0
 11
5.78168
 21
5.47613
 31
0.0
  0
LINE
  8
0
 62
     0
 10
5.78168
 20
5.47613
 30
0.0
 11
5.94618
 21
5.57118
 31
0.0
  0
LINE
  8
0
 62
     0
 10
5.94618
 20
5.57118
 30
0.0
 11
6.0976
 21
5.68099
 31
0.0
  0
LINE
  8
0
 62
     0
 10
6.0976
 20
5.68099
 30
0.0
 11
6.23611
 21
5.80556
 31
0.0
  0
LINE
  8
0
 62
     0
 10
6.23611
 20
5.80556
 30
0.0
 11
6.47049
 21
6.09207
 31
0.0
  0
LINE
  8
0
 62
     0
 10
6.47049
 20
6.09207
 30
0.0
 11
6.64583
 21
6.42361
 31
0.0
  0
LINE
  8
0
 62
     0
 10
6.64583
 20
6.42361
 30
0.0
 11
6.75521
 21
6.7934
 31
0.0
  0
LINE
  8
0
 62
     0
 10
6.75521
 20
6.7934
 30
0.0
 11
6.79167
 21
7.19444
 31
0.0
  0
LINE
  8
0
 62
     0
 10
6.79167
 20
7.19444
 30
0.0
 11
6.78125
 21
7.38547
 31
0.0
  0
LINE
  8
0
 62
     0
 10
6.78125
 20
7.38547
 30
0.0
 11
6.75
 21
7.5695
 31
0.0
  0
LINE
  8
0
 62
     0
 10
6.75
 20
7.5695
 30
0.0
 11
6.69792
 21
7.74658
 31
0.0
  0
LINE
  8
0
 62
     0
 10
6.69792
 20
7.74658
 30
0.0
 11
6.625
 21
7.91667
 31
0.0
  0
LINE
  8
0
 62
     0
 10
6.625
 20
7.91667
 30
0.0
 11
6.42882
 21
8.22917
 31
0.0
  0
LINE
  8
0
 62
     0
 10
6.42882
 20
8.22917
 30
0.0
 11
6.17361
 21
8.5
 31
0.0
  0
LINE
  8
0
 62
     0
 10
6.17361
 20
8.5
 30
0.0
 11
5.86626
 21
8.72222
 31
0.0
  0
LINE
  8
0
 62
     0
 10
5.86626
 20
8.72222
 30
0.0
 11
5.51389
 21
8.88889
 31
0.0
  0
LINE
  8
0
 62
     0
 10
5.51389
 20
8.88889
 30
0.0
 11
5.12847
 21
8.99311
 31
0.0
  0
LINE
  8
0
 62
     0
 10
5.12847
 20
8.99311
 30
0.0
 11
4.72222
 21
9.02778
 31
0.0
  0
LINE
  8
0
 62
     0
 10
4.72222
 20
9.02778
 30
0.0
 11
2.27778
 21
9.02778
 31
0.0
  0
LINE
  8
0
 62
     0
 10
2.27778
 20
9.02778
 30
0.0
 11
2.27778
 21
5.25
 31
0.0
  0
LINE
  8
0
 62
     0
 10
2.27778
 20
5.25
 30
0.0
 11
4.77778
 21
5.25
 31
0.0
  0
LINE
  8
0
 62
     0
 10
2.27778
 20
-0
 30
0.0
 11
1.08333
 21
-0
 31
0.0
  0
LINE
  8
0
 62
     0
 10
1.08333
 20
-0
 30
0.0
 11
1.08333
 21
10.1389
 31
0.0
  0
LINE
  8
0
 62
     0
 10
1.08333
 20
10.1389
 30
0.0
 11
4.79167
 21
10.1389
 31
0.0
  0
LINE
  8
0
 62
     0
 10
4.79167
 20
10.1389
 30
0.0
 11
5.12586
 21
10.1251
 31
0.0
  0
LINE
  8
0
 62
     0
 10
5.12586
 20
10.1251
 30
0.0
 11
5.44792
 21
10.0834
 31
0.0
  0
LINE
  8
0
 62
     0
 10
5.44792
 20
10.0834
 30
0.0
 11
5.75781
 21
10.0139
 31
0.0
  0
LINE
  8
0
 62
     0
 10
5.75781
 20
10.0139
 30
0.0
 11
6.05556
 21
9.91667
 31
0.0
  0
LINE
  8
0
 62
     0
 10
6.05556
 20
9.91667
 30
0.0
 11
6.33762
 21
9.79514
 31
0.0
  0
LINE
  8
0
 62
     0
 10
6.33762
 20
9.79514
 30
0.0
 11
6.60064
 21
9.65278
 31
0.0
  0
LINE
  8
0
 62
     0
 10
6.60064
 20
9.65278
 30
0.0
 11
6.84457
 21
9.48964
 31
0.0
  0
LINE
  8
0
 62
     0
 10
6.84457
 20
9.48964
 30
0.0
 11
7.06944
 21
9.30556
 31
0.0
  0
LINE
  8
0
 62
     0
 10
7.06944
 20
9.30556
 30
0.0
 11
7.27257
 21
9.102
 31
0.0
  0
LINE
  8
0
 62
     0
 10
7.27257
 20
9.102
 30
0.0
 11
7.45139
 21
8.88021
 31
0.0
  0
LINE
  8
0
 62
     0
 10
7.45139
 20
8.88021
 30
0.0
 11
7.6059
 21
8.64025
 31
0.0
  0
LINE
  8
0
 62
     0
 10
7.6059
 20
8.64025
 30
0.0
 11
7.73611
 21
8.38194
 31
0.0
  0
LINE
  8
0
 62
     0
 10
7.73611
 20
8.38194
 30
0.0
 11
7.83936
 21
8.10981
 31
0.0
  0
LINE
  8
0
 62
     0
 10
7.83936
 20
8.10981
 30
0.0
 11
7.91314
 21
7.82813
 31
0.0
  0
LINE
  8
0
 62
     0
 10
7.91314
 20
7.82813
 30
0.0
 11
7.95742
 21
7.53689
 31
0.0
  0
LINE
  8
0
 62
     0
 10
7.95742
 20
7.53689
 30
0.0
 11
7.97222
 21
7.23611
 31
0.0
  0
LINE
  8
0
 62
     0
 10
7.97222
 20
7.23611
 30
0.0
 11
7.95703
 21
6.90929
 31
0.0
  0
LINE
  8
0
 62
     0
 10
7.95703
 20
6.90929
 30
0.0
 11
7.91146
 21
6.59549
 31
0.0
  0
LINE
  8
0
 62
     0
 10
7.91146
 20
6.59549
 30
0.0
 11
7.8355
 21
6.29471
 31
0.0
  0
LINE
  8
0
 62
     0
 10
7.8355
 20
6.29471
 30
0.0
 11
7.72917
 21
6.00694
 31
0.0
  0
LINE
  8
0
 62
     0
 10
7.72917
 20
6.00694
 30
0.0
 11
7.595
 21
5.73481
 31
0.0
  0
LINE
  8
0
 62
     0
 10
7.595
 20
5.73481
 30
0.0
 11
7.43571
 21
5.4809
 31
0.0
  0
LINE
  8
0
 62
     0
 10
7.43571
 20
5.4809
 30
0.0
 11
7.25125
 21
5.24522
 31
0.0
  0
LINE
  8
0
 62
     0
 10
7.25125
 20
5.24522
 30
0.0
 11
7.04167
 21
5.02778
 31
0.0
  0
LINE
  8
0
 62
     0
 10
7.04167
 20
5.02778
 30
0.0
 11
6.80903
 21
4.83072
 31
0.0
  0
LINE
  8
0
 62
     0
 10
6.80903
 20
4.83072
 30
0.0
 11
6.55556
 21
4.65625
 31
0.0
  0
LINE
  8
0
 62
     0
 10
6.55556
 20
4.65625
 30
0.0
 11
6.28119
 21
4.50433
 31
0.0
  0
LINE
  8
0
 62
     0
 10
6.28119
 20
4.50433
 30
0.0
 11
5.98611
 21
4.375
 31
0.0
  0
LINE
  8
0
 62
     0
 10
5.98611
 20
4.375
 30
0.0
 11
5.67275
 21
4.27175
 31
0.0
  0
LINE
  8
0
 62
     0
 10
5.67275
 20
4.27175
 30
0.0
 11
5.34375
 21
4.19797
 31
0.0
  0
LINE
  8
0
 62
     0
 10
5.34375
 20
4.19797
 30
0.0
 11
4.99908
 21
4.15369
 31
0.0
  0
LINE
  8
0
 62
     0
 10
4.99908
 20
4.15369
 30
0.0
 11
4.63889
 21
4.13889
 31
0.0
  0
LINE
  8
0
 62
     0
 10
4.63889
 20
4.13889
 30
0.0
 11
2.27778
 21
4.13889
 31
0.0
  0
LINE
  8
0
 62
     0
 10
2.27778
 20
4.13889
 30
0.0
 11
2.27778
 21
-0
 31
0.0
  0
ENDSEC
  0
EOF
