  0
SECTION
  2
HEADER
  9
$ACADVER
  1
AC1009
  9
$EXTMIN
 10
0.0
 20
0.0
 30
0.0
  9
$EXTMAX
 10
1000.0
 20
1000.0
 30
0.0
  9
$FILLMODE
 70
 0
  9
$SPLFRAME
 70
 1
  0
ENDSEC
  0
SECTION
  2
TABLES
  0
TABLE
  2
LAYER
 70
1
  0
LAYER
  2
0
 70
     0
 62
     7
  6
CONTINUOUS
  0
ENDTAB
  0
ENDSEC
  0
SECTION
  2
ENTITIES
  0
LINE
  8
0
 62
     0
 10
3.48611
 20
-1.59722
 30
0.0
 11
3.11106
 21
-1.25868
 31
0.0
  0
LINE
  8
0
 62
     0
 10
3.11106
 20
-1.25868
 30
0.0
 11
2.76389
 21
-0.881944
 31
0.0
  0
LINE
  8
0
 62
     0
 10
2.76389
 20
-0.881944
 30
0.0
 11
2.4375
 21
-0.470486
 31
0.0
  0
LINE
  8
0
 62
     0
 10
2.4375
 20
-0.470486
 30
0.0
 11
2.125
 21
-0.0277778
 31
0.0
  0
LINE
  8
0
 62
     0
 10
2.125
 20
-0.0277778
 30
0.0
 11
1.87674
 21
0.383735
 31
0.0
  0
LINE
  8
0
 62
     0
 10
1.87674
 20
0.383735
 30
0.0
 11
1.63194
 21
0.840278
 31
0.0
  0
LINE
  8
0
 62
     0
 10
1.63194
 20
0.840278
 30
0.0
 11
1.40099
 21
1.34375
 31
0.0
  0
LINE
  8
0
 62
     0
 10
1.40099
 20
1.34375
 30
0.0
 11
1.19444
 21
1.89583
 31
0.0
  0
LINE
  8
0
 62
     0
 10
1.19444
 20
1.89583
 30
0.0
 11
1.0191
 21
2.49485
 31
0.0
  0
LINE
  8
0
 62
     0
 10
1.0191
 20
2.49485
 30
0.0
 11
0.881944
 21
3.13889
 31
0.0
  0
LINE
  8
0
 62
     0
 10
0.881944
 20
3.13889
 30
0.0
 11
0.793349
 21
3.82639
 31
0.0
  0
LINE
  8
0
 62
     0
 10
0.793349
 20
3.82639
 30
0.0
 11
0.763889
 21
4.55556
 31
0.0
  0
LINE
  8
0
 62
     0
 10
0.763889
 20
4.55556
 30
0.0
 11
0.793349
 21
5.28472
 31
0.0
  0
LINE
  8
0
 62
     0
 10
0.793349
 20
5.28472
 30
0.0
 11
0.881944
 21
5.97222
 31
0.0
  0
LINE
  8
0
 62
     0
 10
0.881944
 20
5.97222
 30
0.0
 11
1.01736
 21
6.61806
 31
0.0
  0
LINE
  8
0
 62
     0
 10
1.01736
 20
6.61806
 30
0.0
 11
1.1875
 21
7.22222
 31
0.0
  0
LINE
  8
0
 62
     0
 10
1.1875
 20
7.22222
 30
0.0
 11
1.39063
 21
7.78299
 31
0.0
  0
LINE
  8
0
 62
     0
 10
1.39063
 20
7.78299
 30
0.0
 11
1.625
 21
8.29861
 31
0.0
  0
LINE
  8
0
 62
     0
 10
1.625
 20
8.29861
 30
0.0
 11
1.875
 21
8.76915
 31
0.0
  0
LINE
  8
0
 62
     0
 10
1.875
 20
8.76915
 30
0.0
 11
2.125
 21
9.19444
 31
0.0
  0
LINE
  8
0
 62
     0
 10
2.125
 20
9.19444
 30
0.0
 11
2.43403
 21
9.65625
 31
0.0
  0
LINE
  8
0
 62
     0
 10
2.43403
 20
9.65625
 30
0.0
 11
2.76389
 21
10.0833
 31
0.0
  0
LINE
  8
0
 62
     0
 10
2.76389
 20
10.0833
 30
0.0
 11
3.11453
 21
10.4757
 31
0.0
  0
LINE
  8
0
 62
     0
 10
3.11453
 20
10.4757
 30
0.0
 11
3.48611
 21
10.8333
 31
0.0
  0
LINE
  8
0
 62
     0
 10
3.48611
 20
10.8333
 30
0.0
 11
4.91667
 21
10.8333
 31
0.0
  0
LINE
  8
0
 62
     0
 10
4.91667
 20
10.8333
 30
0.0
 11
4.50168
 21
10.4601
 31
0.0
  0
LINE
  8
0
 62
     0
 10
4.50168
 20
10.4601
 30
0.0
 11
4.11806
 21
10.0625
 31
0.0
  0
LINE
  8
0
 62
     0
 10
4.11806
 20
10.0625
 30
0.0
 11
3.75515
 21
9.63368
 31
0.0
  0
LINE
  8
0
 62
     0
 10
3.75515
 20
9.63368
 30
0.0
 11
3.40278
 21
9.16667
 31
0.0
  0
LINE
  8
0
 62
     0
 10
3.40278
 20
9.16667
 30
0.0
 11
3.11632
 21
8.73964
 31
0.0
  0
LINE
  8
0
 62
     0
 10
3.11632
 20
8.73964
 30
0.0
 11
2.84028
 21
8.26389
 31
0.0
  0
LINE
  8
0
 62
     0
 10
2.84028
 20
8.26389
 30
0.0
 11
2.58507
 21
7.74485
 31
0.0
  0
LINE
  8
0
 62
     0
 10
2.58507
 20
7.74485
 30
0.0
 11
2.36111
 21
7.1875
 31
0.0
  0
LINE
  8
0
 62
     0
 10
2.36111
 20
7.1875
 30
0.0
 11
2.17182
 21
6.59028
 31
0.0
  0
LINE
  8
0
 62
     0
 10
2.17182
 20
6.59028
 30
0.0
 11
2.02083
 21
5.95139
 31
0.0
  0
LINE
  8
0
 62
     0
 10
2.02083
 20
5.95139
 30
0.0
 11
1.92188
 21
5.27951
 31
0.0
  0
LINE
  8
0
 62
     0
 10
1.92188
 20
5.27951
 30
0.0
 11
1.88889
 21
4.58333
 31
0.0
  0
LINE
  8
0
 62
     0
 10
1.88889
 20
4.58333
 30
0.0
 11
1.92188
 21
3.86806
 31
0.0
  0
LINE
  8
0
 62
     0
 10
1.92188
 20
3.86806
 30
0.0
 11
2.02083
 21
3.19444
 31
0.0
  0
LINE
  8
0
 62
     0
 10
2.02083
 20
3.19444
 30
0.0
 11
2.17182
 21
2.56082
 31
0.0
  0
LINE
  8
0
 62
     0
 10
2.17182
 20
2.56082
 30
0.0
 11
2.36111
 21
1.96528
 31
0.0
  0
LINE
  8
0
 62
     0
 10
2.36111
 20
1.96528
 30
0.0
 11
2.58507
 21
1.41146
 31
0.0
  0
LINE
  8
0
 62
     0
 10
2.58507
 20
1.41146
 30
0.0
 11
2.84028
 21
0.902778
 31
0.0
  0
LINE
  8
0
 62
     0
 10
2.84028
 20
0.902778
 30
0.0
 11
3.11632
 21
0.441026
 31
0.0
  0
LINE
  8
0
 62
     0
 10
3.11632
 20
0.441026
 30
0.0
 11
3.40278
 21
0.0277778
 31
0.0
  0
LINE
  8
0
 62
     0
 10
3.40278
 20
0.0277778
 30
0.0
 11
3.75521
 21
-0.418349
 31
0.0
  0
LINE
  8
0
 62
     0
 10
3.75521
 20
-0.418349
 30
0.0
 11
4.11806
 21
-0.840278
 31
0.0
  0
LINE
  8
0
 62
     0
 10
4.11806
 20
-0.840278
 30
0.0
 11
4.50174
 21
-1.23438
 31
0.0
  0
LINE
  8
0
 62
     0
 10
4.50174
 20
-1.23438
 30
0.0
 11
4.91667
 21
-1.59722
 31
0.0
  0
LINE
  8
0
 62
     0
 10
4.91667
 20
-1.59722
 30
0.0
 11
3.48611
 21
-1.59722
 31
0.0
  0
ENDSEC
  0
EOF
