  0
SECTION
  2
HEADER
  9
$ACADVER
  1
AC1009
  9
$EXTMIN
 10
0.0
 20
0.0
 30
0.0
  9
$EXTMAX
 10
1000.0
 20
1000.0
 30
0.0
  9
$FILLMODE
 70
 0
  9
$SPLFRAME
 70
 1
  0
ENDSEC
  0
SECTION
  2
TABLES
  0
TABLE
  2
LAYER
 70
1
  0
LAYER
  2
0
 70
     0
 62
     7
  6
CONTINUOUS
  0
ENDTAB
  0
ENDSEC
  0
SECTION
  2
ENTITIES
  0
LINE
  8
0
 62
     0
 10
0.763889
 20
-1.59722
 30
0.0
 11
1.17095
 21
-1.2404
 31
0.0
  0
LINE
  8
0
 62
     0
 10
1.17095
 20
-1.2404
 30
0.0
 11
1.55897
 21
-0.85064
 31
0.0
  0
LINE
  8
0
 62
     0
 10
1.55897
 20
-0.85064
 30
0.0
 11
1.9279
 21
-0.427897
 31
0.0
  0
LINE
  8
0
 62
     0
 10
1.9279
 20
-0.427897
 30
0.0
 11
2.27778
 21
0.0277778
 31
0.0
  0
LINE
  8
0
 62
     0
 10
2.27778
 20
0.0277778
 30
0.0
 11
2.55376
 21
0.441026
 31
0.0
  0
LINE
  8
0
 62
     0
 10
2.55376
 20
0.441026
 30
0.0
 11
2.82639
 21
0.902778
 31
0.0
  0
LINE
  8
0
 62
     0
 10
2.82639
 20
0.902778
 30
0.0
 11
3.08333
 21
1.41146
 31
0.0
  0
LINE
  8
0
 62
     0
 10
3.08333
 20
1.41146
 30
0.0
 11
3.3125
 21
1.96528
 31
0.0
  0
LINE
  8
0
 62
     0
 10
3.3125
 20
1.96528
 30
0.0
 11
3.50694
 21
2.56082
 31
0.0
  0
LINE
  8
0
 62
     0
 10
3.50694
 20
2.56082
 30
0.0
 11
3.65972
 21
3.19444
 31
0.0
  0
LINE
  8
0
 62
     0
 10
3.65972
 20
3.19444
 30
0.0
 11
3.75863
 21
3.86806
 31
0.0
  0
LINE
  8
0
 62
     0
 10
3.75863
 20
3.86806
 30
0.0
 11
3.79167
 21
4.58333
 31
0.0
  0
LINE
  8
0
 62
     0
 10
3.79167
 20
4.58333
 30
0.0
 11
3.75863
 21
5.28825
 31
0.0
  0
LINE
  8
0
 62
     0
 10
3.75863
 20
5.28825
 30
0.0
 11
3.65972
 21
5.95833
 31
0.0
  0
LINE
  8
0
 62
     0
 10
3.65972
 20
5.95833
 30
0.0
 11
3.50694
 21
6.59201
 31
0.0
  0
LINE
  8
0
 62
     0
 10
3.50694
 20
6.59201
 30
0.0
 11
3.3125
 21
7.1875
 31
0.0
  0
LINE
  8
0
 62
     0
 10
3.3125
 20
7.1875
 30
0.0
 11
3.08333
 21
7.74485
 31
0.0
  0
LINE
  8
0
 62
     0
 10
3.08333
 20
7.74485
 30
0.0
 11
2.82639
 21
8.26389
 31
0.0
  0
LINE
  8
0
 62
     0
 10
2.82639
 20
8.26389
 30
0.0
 11
2.55376
 21
8.73964
 31
0.0
  0
LINE
  8
0
 62
     0
 10
2.55376
 20
8.73964
 30
0.0
 11
2.27778
 21
9.16667
 31
0.0
  0
LINE
  8
0
 62
     0
 10
2.27778
 20
9.16667
 30
0.0
 11
1.9279
 21
9.63547
 31
0.0
  0
LINE
  8
0
 62
     0
 10
1.9279
 20
9.63547
 30
0.0
 11
1.55897
 21
10.0695
 31
0.0
  0
LINE
  8
0
 62
     0
 10
1.55897
 20
10.0695
 30
0.0
 11
1.17095
 21
10.4688
 31
0.0
  0
LINE
  8
0
 62
     0
 10
1.17095
 20
10.4688
 30
0.0
 11
0.763889
 21
10.8333
 31
0.0
  0
LINE
  8
0
 62
     0
 10
0.763889
 20
10.8333
 30
0.0
 11
2.19444
 21
10.8333
 31
0.0
  0
LINE
  8
0
 62
     0
 10
2.19444
 20
10.8333
 30
0.0
 11
2.56597
 21
10.4757
 31
0.0
  0
LINE
  8
0
 62
     0
 10
2.56597
 20
10.4757
 30
0.0
 11
2.91667
 21
10.0833
 31
0.0
  0
LINE
  8
0
 62
     0
 10
2.91667
 20
10.0833
 30
0.0
 11
3.24647
 21
9.65625
 31
0.0
  0
LINE
  8
0
 62
     0
 10
3.24647
 20
9.65625
 30
0.0
 11
3.55556
 21
9.19444
 31
0.0
  0
LINE
  8
0
 62
     0
 10
3.55556
 20
9.19444
 30
0.0
 11
3.80556
 21
8.76915
 31
0.0
  0
LINE
  8
0
 62
     0
 10
3.80556
 20
8.76915
 30
0.0
 11
4.05556
 21
8.29861
 31
0.0
  0
LINE
  8
0
 62
     0
 10
4.05556
 20
8.29861
 30
0.0
 11
4.28993
 21
7.78299
 31
0.0
  0
LINE
  8
0
 62
     0
 10
4.28993
 20
7.78299
 30
0.0
 11
4.49306
 21
7.22222
 31
0.0
  0
LINE
  8
0
 62
     0
 10
4.49306
 20
7.22222
 30
0.0
 11
4.66314
 21
6.61806
 31
0.0
  0
LINE
  8
0
 62
     0
 10
4.66314
 20
6.61806
 30
0.0
 11
4.79861
 21
5.97222
 31
0.0
  0
LINE
  8
0
 62
     0
 10
4.79861
 20
5.97222
 30
0.0
 11
4.88715
 21
5.28472
 31
0.0
  0
LINE
  8
0
 62
     0
 10
4.88715
 20
5.28472
 30
0.0
 11
4.91667
 21
4.55556
 31
0.0
  0
LINE
  8
0
 62
     0
 10
4.91667
 20
4.55556
 30
0.0
 11
4.88715
 21
3.82639
 31
0.0
  0
LINE
  8
0
 62
     0
 10
4.88715
 20
3.82639
 30
0.0
 11
4.79861
 21
3.13889
 31
0.0
  0
LINE
  8
0
 62
     0
 10
4.79861
 20
3.13889
 30
0.0
 11
4.6614
 21
2.49485
 31
0.0
  0
LINE
  8
0
 62
     0
 10
4.6614
 20
2.49485
 30
0.0
 11
4.48611
 21
1.89583
 31
0.0
  0
LINE
  8
0
 62
     0
 10
4.48611
 20
1.89583
 30
0.0
 11
4.27951
 21
1.34375
 31
0.0
  0
LINE
  8
0
 62
     0
 10
4.27951
 20
1.34375
 30
0.0
 11
4.04861
 21
0.840278
 31
0.0
  0
LINE
  8
0
 62
     0
 10
4.04861
 20
0.840278
 30
0.0
 11
3.80376
 21
0.383735
 31
0.0
  0
LINE
  8
0
 62
     0
 10
3.80376
 20
0.383735
 30
0.0
 11
3.55556
 21
-0.0277778
 31
0.0
  0
LINE
  8
0
 62
     0
 10
3.55556
 20
-0.0277778
 30
0.0
 11
3.243
 21
-0.470486
 31
0.0
  0
LINE
  8
0
 62
     0
 10
3.243
 20
-0.470486
 30
0.0
 11
2.91667
 21
-0.881944
 31
0.0
  0
LINE
  8
0
 62
     0
 10
2.91667
 20
-0.881944
 30
0.0
 11
2.56944
 21
-1.25868
 31
0.0
  0
LINE
  8
0
 62
     0
 10
2.56944
 20
-1.25868
 30
0.0
 11
2.19444
 21
-1.59722
 31
0.0
  0
LINE
  8
0
 62
     0
 10
2.19444
 20
-1.59722
 30
0.0
 11
0.763889
 21
-1.59722
 31
0.0
  0
ENDSEC
  0
EOF
