  0
SECTION
  2
HEADER
  9
$ACADVER
  1
AC1009
  9
$EXTMIN
 10
0.0
 20
0.0
 30
0.0
  9
$EXTMAX
 10
1000.0
 20
1000.0
 30
0.0
  9
$FILLMODE
 70
 0
  9
$SPLFRAME
 70
 1
  0
ENDSEC
  0
SECTION
  2
TABLES
  0
TABLE
  2
LAYER
 70
1
  0
LAYER
  2
0
 70
     0
 62
     7
  6
CONTINUOUS
  0
ENDTAB
  0
ENDSEC
  0
SECTION
  2
ENTITIES
  0
LINE
  8
0
 62
     0
 10
7.23611
 20
2.05556
 30
0.0
 11
7.43012
 21
2.35894
 31
0.0
  0
LINE
  8
0
 62
     0
 10
7.43012
 20
2.35894
 30
0.0
 11
7.59549
 21
2.68576
 31
0.0
  0
LINE
  8
0
 62
     0
 10
7.59549
 20
2.68576
 30
0.0
 11
7.73221
 21
3.03603
 31
0.0
  0
LINE
  8
0
 62
     0
 10
7.73221
 20
3.03603
 30
0.0
 11
7.84028
 21
3.40972
 31
0.0
  0
LINE
  8
0
 62
     0
 10
7.84028
 20
3.40972
 30
0.0
 11
7.92231
 21
3.80251
 31
0.0
  0
LINE
  8
0
 62
     0
 10
7.92231
 20
3.80251
 30
0.0
 11
7.9809
 21
4.21007
 31
0.0
  0
LINE
  8
0
 62
     0
 10
7.9809
 20
4.21007
 30
0.0
 11
8.01606
 21
4.63238
 31
0.0
  0
LINE
  8
0
 62
     0
 10
8.01606
 20
4.63238
 30
0.0
 11
8.02778
 21
5.06944
 31
0.0
  0
LINE
  8
0
 62
     0
 10
8.02778
 20
5.06944
 30
0.0
 11
7.98785
 21
5.83507
 31
0.0
  0
LINE
  8
0
 62
     0
 10
7.98785
 20
5.83507
 30
0.0
 11
7.86806
 21
6.57639
 31
0.0
  0
LINE
  8
0
 62
     0
 10
7.86806
 20
6.57639
 30
0.0
 11
7.77556
 21
6.93056
 31
0.0
  0
LINE
  8
0
 62
     0
 10
7.77556
 20
6.93056
 30
0.0
 11
7.65793
 21
7.26389
 31
0.0
  0
LINE
  8
0
 62
     0
 10
7.65793
 20
7.26389
 30
0.0
 11
7.51514
 21
7.57639
 31
0.0
  0
LINE
  8
0
 62
     0
 10
7.51514
 20
7.57639
 30
0.0
 11
7.34722
 21
7.86806
 31
0.0
  0
LINE
  8
0
 62
     0
 10
7.34722
 20
7.86806
 30
0.0
 11
7.15321
 21
8.13547
 31
0.0
  0
LINE
  8
0
 62
     0
 10
7.15321
 20
8.13547
 30
0.0
 11
6.93229
 21
8.37506
 31
0.0
  0
LINE
  8
0
 62
     0
 10
6.93229
 20
8.37506
 30
0.0
 11
6.68446
 21
8.58686
 31
0.0
  0
LINE
  8
0
 62
     0
 10
6.68446
 20
8.58686
 30
0.0
 11
6.40972
 21
8.77083
 31
0.0
  0
LINE
  8
0
 62
     0
 10
6.40972
 20
8.77083
 30
0.0
 11
6.10542
 21
8.91971
 31
0.0
  0
LINE
  8
0
 62
     0
 10
6.10542
 20
8.91971
 30
0.0
 11
5.76904
 21
9.02604
 31
0.0
  0
LINE
  8
0
 62
     0
 10
5.76904
 20
9.02604
 30
0.0
 11
5.40056
 21
9.08985
 31
0.0
  0
LINE
  8
0
 62
     0
 10
5.40056
 20
9.08985
 30
0.0
 11
5
 21
9.11111
 31
0.0
  0
LINE
  8
0
 62
     0
 10
5
 20
9.11111
 30
0.0
 11
4.59896
 21
9.09076
 31
0.0
  0
LINE
  8
0
 62
     0
 10
4.59896
 20
9.09076
 30
0.0
 11
4.22917
 21
9.02957
 31
0.0
  0
LINE
  8
0
 62
     0
 10
4.22917
 20
9.02957
 30
0.0
 11
3.89063
 21
8.92757
 31
0.0
  0
LINE
  8
0
 62
     0
 10
3.89063
 20
8.92757
 30
0.0
 11
3.58333
 21
8.78472
 31
0.0
  0
LINE
  8
0
 62
     0
 10
3.58333
 20
8.78472
 30
0.0
 11
3.30512
 21
8.60764
 31
0.0
  0
LINE
  8
0
 62
     0
 10
3.30512
 20
8.60764
 30
0.0
 11
3.05382
 21
8.40278
 31
0.0
  0
LINE
  8
0
 62
     0
 10
3.05382
 20
8.40278
 30
0.0
 11
2.82943
 21
8.17014
 31
0.0
  0
LINE
  8
0
 62
     0
 10
2.82943
 20
8.17014
 30
0.0
 11
2.63194
 21
7.90972
 31
0.0
  0
LINE
  8
0
 62
     0
 10
2.63194
 20
7.90972
 30
0.0
 11
2.46089
 21
7.625
 31
0.0
  0
LINE
  8
0
 62
     0
 10
2.46089
 20
7.625
 30
0.0
 11
2.31597
 21
7.31944
 31
0.0
  0
LINE
  8
0
 62
     0
 10
2.31597
 20
7.31944
 30
0.0
 11
2.19706
 21
6.99306
 31
0.0
  0
LINE
  8
0
 62
     0
 10
2.19706
 20
6.99306
 30
0.0
 11
2.10417
 21
6.64583
 31
0.0
  0
LINE
  8
0
 62
     0
 10
2.10417
 20
6.64583
 30
0.0
 11
2.03424
 21
6.28347
 31
0.0
  0
LINE
  8
0
 62
     0
 10
2.03424
 20
6.28347
 30
0.0
 11
1.98432
 21
5.91151
 31
0.0
  0
LINE
  8
0
 62
     0
 10
1.98432
 20
5.91151
 30
0.0
 11
1.95437
 21
5.53
 31
0.0
  0
LINE
  8
0
 62
     0
 10
1.95437
 20
5.53
 30
0.0
 11
1.94444
 21
5.13889
 31
0.0
  0
LINE
  8
0
 62
     0
 10
1.94444
 20
5.13889
 30
0.0
 11
1.95437
 21
4.734
 31
0.0
  0
LINE
  8
0
 62
     0
 10
1.95437
 20
4.734
 30
0.0
 11
1.98432
 21
4.3386
 31
0.0
  0
LINE
  8
0
 62
     0
 10
1.98432
 20
4.3386
 30
0.0
 11
2.03424
 21
3.95275
 31
0.0
  0
LINE
  8
0
 62
     0
 10
2.03424
 20
3.95275
 30
0.0
 11
2.10417
 21
3.57639
 31
0.0
  0
LINE
  8
0
 62
     0
 10
2.10417
 20
3.57639
 30
0.0
 11
2.19661
 21
3.21571
 31
0.0
  0
LINE
  8
0
 62
     0
 10
2.19661
 20
3.21571
 30
0.0
 11
2.31424
 21
2.87674
 31
0.0
  0
LINE
  8
0
 62
     0
 10
2.31424
 20
2.87674
 30
0.0
 11
2.45703
 21
2.55946
 31
0.0
  0
LINE
  8
0
 62
     0
 10
2.45703
 20
2.55946
 30
0.0
 11
2.625
 21
2.26389
 31
0.0
  0
LINE
  8
0
 62
     0
 10
2.625
 20
2.26389
 30
0.0
 11
2.81896
 21
1.99354
 31
0.0
  0
LINE
  8
0
 62
     0
 10
2.81896
 20
1.99354
 30
0.0
 11
3.03988
 21
1.75174
 31
0.0
  0
LINE
  8
0
 62
     0
 10
3.03988
 20
1.75174
 30
0.0
 11
3.28771
 21
1.53862
 31
0.0
  0
LINE
  8
0
 62
     0
 10
3.28771
 20
1.53862
 30
0.0
 11
3.5625
 21
1.35417
 31
0.0
  0
LINE
  8
0
 62
     0
 10
3.5625
 20
1.35417
 30
0.0
 11
3.86675
 21
1.20535
 31
0.0
  0
LINE
  8
0
 62
     0
 10
3.86675
 20
1.20535
 30
0.0
 11
4.20313
 21
1.09901
 31
0.0
  0
LINE
  8
0
 62
     0
 10
4.20313
 20
1.09901
 30
0.0
 11
4.57161
 21
1.03521
 31
0.0
  0
LINE
  8
0
 62
     0
 10
4.57161
 20
1.03521
 30
0.0
 11
4.97222
 21
1.01389
 31
0.0
  0
LINE
  8
0
 62
     0
 10
4.97222
 20
1.01389
 30
0.0
 11
5.36892
 21
1.03391
 31
0.0
  0
LINE
  8
0
 62
     0
 10
5.36892
 20
1.03391
 30
0.0
 11
5.73958
 21
1.0938
 31
0.0
  0
LINE
  8
0
 62
     0
 10
5.73958
 20
1.0938
 30
0.0
 11
6.08419
 21
1.19363
 31
0.0
  0
LINE
  8
0
 62
     0
 10
6.08419
 20
1.19363
 30
0.0
 11
6.40278
 21
1.33333
 31
0.0
  0
LINE
  8
0
 62
     0
 10
6.40278
 20
1.33333
 30
0.0
 11
5.75
 21
1.98611
 31
0.0
  0
LINE
  8
0
 62
     0
 10
5.75
 20
1.98611
 30
0.0
 11
6.52778
 21
2.76389
 31
0.0
  0
LINE
  8
0
 62
     0
 10
6.52778
 20
2.76389
 30
0.0
 11
7.23611
 21
2.05556
 31
0.0
  0
LINE
  8
0
 62
     0
 10
9.29167
 20
-0
 30
0.0
 11
8.51389
 21
-0.777778
 31
0.0
  0
LINE
  8
0
 62
     0
 10
8.51389
 20
-0.777778
 30
0.0
 11
7.25
 21
0.486111
 31
0.0
  0
LINE
  8
0
 62
     0
 10
7.25
 20
0.486111
 30
0.0
 11
6.99522
 21
0.338163
 31
0.0
  0
LINE
  8
0
 62
     0
 10
6.99522
 20
0.338163
 30
0.0
 11
6.7309
 21
0.213542
 31
0.0
  0
LINE
  8
0
 62
     0
 10
6.7309
 20
0.213542
 30
0.0
 11
6.45703
 21
0.112413
 31
0.0
  0
LINE
  8
0
 62
     0
 10
6.45703
 20
0.112413
 30
0.0
 11
6.17361
 21
0.0347222
 31
0.0
  0
LINE
  8
0
 62
     0
 10
6.17361
 20
0.0347222
 30
0.0
 11
5.58501
 21
-0.0641818
 31
0.0
  0
LINE
  8
0
 62
     0
 10
5.58501
 20
-0.0641818
 30
0.0
 11
4.97222
 21
-0.0972222
 31
0.0
  0
LINE
  8
0
 62
     0
 10
4.97222
 20
-0.0972222
 30
0.0
 11
4.55989
 21
-0.0802951
 31
0.0
  0
LINE
  8
0
 62
     0
 10
4.55989
 20
-0.0802951
 30
0.0
 11
4.15625
 21
-0.0295139
 31
0.0
  0
LINE
  8
0
 62
     0
 10
4.15625
 20
-0.0295139
 30
0.0
 11
3.76128
 21
0.0551215
 31
0.0
  0
LINE
  8
0
 62
     0
 10
3.76128
 20
0.0551215
 30
0.0
 11
3.375
 21
0.173611
 31
0.0
  0
LINE
  8
0
 62
     0
 10
3.375
 20
0.173611
 30
0.0
 11
3.00385
 21
0.330729
 31
0.0
  0
LINE
  8
0
 62
     0
 10
3.00385
 20
0.330729
 30
0.0
 11
2.65446
 21
0.53125
 31
0.0
  0
LINE
  8
0
 62
     0
 10
2.65446
 20
0.53125
 30
0.0
 11
2.32676
 21
0.775174
 31
0.0
  0
LINE
  8
0
 62
     0
 10
2.32676
 20
0.775174
 30
0.0
 11
2.02083
 21
1.0625
 31
0.0
  0
LINE
  8
0
 62
     0
 10
2.02083
 20
1.0625
 30
0.0
 11
1.74044
 21
1.39546
 31
0.0
  0
LINE
  8
0
 62
     0
 10
1.74044
 20
1.39546
 30
0.0
 11
1.48958
 21
1.7761
 31
0.0
  0
LINE
  8
0
 62
     0
 10
1.48958
 20
1.7761
 30
0.0
 11
1.26823
 21
2.20449
 31
0.0
  0
LINE
  8
0
 62
     0
 10
1.26823
 20
2.20449
 30
0.0
 11
1.07639
 21
2.68056
 31
0.0
  0
LINE
  8
0
 62
     0
 10
1.07639
 20
2.68056
 30
0.0
 11
0.921442
 21
3.20919
 31
0.0
  0
LINE
  8
0
 62
     0
 10
0.921442
 20
3.20919
 30
0.0
 11
0.810764
 21
3.79514
 31
0.0
  0
LINE
  8
0
 62
     0
 10
0.810764
 20
3.79514
 30
0.0
 11
0.744358
 21
4.43836
 31
0.0
  0
LINE
  8
0
 62
     0
 10
0.744358
 20
4.43836
 30
0.0
 11
0.722222
 21
5.13889
 31
0.0
  0
LINE
  8
0
 62
     0
 10
0.722222
 20
5.13889
 30
0.0
 11
0.744358
 21
5.77653
 31
0.0
  0
LINE
  8
0
 62
     0
 10
0.744358
 20
5.77653
 30
0.0
 11
0.810764
 21
6.36985
 31
0.0
  0
LINE
  8
0
 62
     0
 10
0.810764
 20
6.36985
 30
0.0
 11
0.921442
 21
6.91889
 31
0.0
  0
LINE
  8
0
 62
     0
 10
0.921442
 20
6.91889
 30
0.0
 11
1.07639
 21
7.42361
 31
0.0
  0
LINE
  8
0
 62
     0
 10
1.07639
 20
7.42361
 30
0.0
 11
1.26779
 21
7.88542
 31
0.0
  0
LINE
  8
0
 62
     0
 10
1.26779
 20
7.88542
 30
0.0
 11
1.48785
 21
8.30556
 31
0.0
  0
LINE
  8
0
 62
     0
 10
1.48785
 20
8.30556
 30
0.0
 11
1.73654
 21
8.68408
 31
0.0
  0
LINE
  8
0
 62
     0
 10
1.73654
 20
8.68408
 30
0.0
 11
2.01389
 21
9.02083
 31
0.0
  0
LINE
  8
0
 62
     0
 10
2.01389
 20
9.02083
 30
0.0
 11
2.31728
 21
9.3164
 31
0.0
  0
LINE
  8
0
 62
     0
 10
2.31728
 20
9.3164
 30
0.0
 11
2.6441
 21
9.57118
 31
0.0
  0
LINE
  8
0
 62
     0
 10
2.6441
 20
9.57118
 30
0.0
 11
2.99436
 21
9.78515
 31
0.0
  0
LINE
  8
0
 62
     0
 10
2.99436
 20
9.78515
 30
0.0
 11
3.36806
 21
9.95833
 31
0.0
  0
LINE
  8
0
 62
     0
 10
3.36806
 20
9.95833
 30
0.0
 11
3.75738
 21
10.0921
 31
0.0
  0
LINE
  8
0
 62
     0
 10
3.75738
 20
10.0921
 30
0.0
 11
4.15451
 21
10.1876
 31
0.0
  0
LINE
  8
0
 62
     0
 10
4.15451
 20
10.1876
 30
0.0
 11
4.55946
 21
10.2448
 31
0.0
  0
LINE
  8
0
 62
     0
 10
4.55946
 20
10.2448
 30
0.0
 11
4.97222
 21
10.2639
 31
0.0
  0
LINE
  8
0
 62
     0
 10
4.97222
 20
10.2639
 30
0.0
 11
5.38542
 21
10.2444
 31
0.0
  0
LINE
  8
0
 62
     0
 10
5.38542
 20
10.2444
 30
0.0
 11
5.79167
 21
10.1858
 31
0.0
  0
LINE
  8
0
 62
     0
 10
5.79167
 20
10.1858
 30
0.0
 11
6.19097
 21
10.0881
 31
0.0
  0
LINE
  8
0
 62
     0
 10
6.19097
 20
10.0881
 30
0.0
 11
6.58333
 21
9.95139
 31
0.0
  0
LINE
  8
0
 62
     0
 10
6.58333
 20
9.95139
 30
0.0
 11
6.96044
 21
9.77517
 31
0.0
  0
LINE
  8
0
 62
     0
 10
6.96044
 20
9.77517
 30
0.0
 11
7.31424
 21
9.55903
 31
0.0
  0
LINE
  8
0
 62
     0
 10
7.31424
 20
9.55903
 30
0.0
 11
7.64453
 21
9.30294
 31
0.0
  0
LINE
  8
0
 62
     0
 10
7.64453
 20
9.30294
 30
0.0
 11
7.95139
 21
9.00694
 31
0.0
  0
LINE
  8
0
 62
     0
 10
7.95139
 20
9.00694
 30
0.0
 11
8.23172
 21
8.66976
 31
0.0
  0
LINE
  8
0
 62
     0
 10
8.23172
 20
8.66976
 30
0.0
 11
8.48258
 21
8.28999
 31
0.0
  0
LINE
  8
0
 62
     0
 10
8.48258
 20
8.28999
 30
0.0
 11
8.70394
 21
7.86768
 31
0.0
  0
LINE
  8
0
 62
     0
 10
8.70394
 20
7.86768
 30
0.0
 11
8.89583
 21
7.40278
 31
0.0
  0
LINE
  8
0
 62
     0
 10
8.89583
 20
7.40278
 30
0.0
 11
9.05078
 21
6.89497
 31
0.0
  0
LINE
  8
0
 62
     0
 10
9.05078
 20
6.89497
 30
0.0
 11
9.16146
 21
6.34375
 31
0.0
  0
LINE
  8
0
 62
     0
 10
9.16146
 20
6.34375
 30
0.0
 11
9.22786
 21
5.74914
 31
0.0
  0
LINE
  8
0
 62
     0
 10
9.22786
 20
5.74914
 30
0.0
 11
9.25
 21
5.11111
 31
0.0
  0
LINE
  8
0
 62
     0
 10
9.25
 20
5.11111
 30
0.0
 11
9.23047
 21
4.44401
 31
0.0
  0
LINE
  8
0
 62
     0
 10
9.23047
 20
4.44401
 30
0.0
 11
9.17188
 21
3.8316
 31
0.0
  0
LINE
  8
0
 62
     0
 10
9.17188
 20
3.8316
 30
0.0
 11
9.07422
 21
3.27393
 31
0.0
  0
LINE
  8
0
 62
     0
 10
9.07422
 20
3.27393
 30
0.0
 11
8.9375
 21
2.77083
 31
0.0
  0
LINE
  8
0
 62
     0
 10
8.9375
 20
2.77083
 30
0.0
 11
8.76774
 21
2.31554
 31
0.0
  0
LINE
  8
0
 62
     0
 10
8.76774
 20
2.31554
 30
0.0
 11
8.57112
 21
1.90104
 31
0.0
  0
LINE
  8
0
 62
     0
 10
8.57112
 20
1.90104
 30
0.0
 11
8.3476
 21
1.52735
 31
0.0
  0
LINE
  8
0
 62
     0
 10
8.3476
 20
1.52735
 30
0.0
 11
8.09722
 21
1.19444
 31
0.0
  0
LINE
  8
0
 62
     0
 10
8.09722
 20
1.19444
 30
0.0
 11
9.29167
 21
-0
 31
0.0
  0
ENDSEC
  0
EOF
