  0
SECTION
  2
HEADER
  9
$ACADVER
  1
AC1009
  9
$EXTMIN
 10
0.0
 20
0.0
 30
0.0
  9
$EXTMAX
 10
1000.0
 20
1000.0
 30
0.0
  9
$FILLMODE
 70
 0
  9
$SPLFRAME
 70
 1
  0
ENDSEC
  0
SECTION
  2
TABLES
  0
TABLE
  2
LAYER
 70
1
  0
LAYER
  2
0
 70
     0
 62
     7
  6
CONTINUOUS
  0
ENDTAB
  0
ENDSEC
  0
SECTION
  2
ENTITIES
  0
LINE
  8
0
 62
     0
 10
0.555556
 20
0.555556
 30
0.0
 11
0.828125
 21
0.421875
 31
0.0
  0
LINE
  8
0
 62
     0
 10
0.828125
 20
0.421875
 30
0.0
 11
1.14583
 21
0.298611
 31
0.0
  0
LINE
  8
0
 62
     0
 10
1.14583
 20
0.298611
 30
0.0
 11
1.49653
 21
0.1875
 31
0.0
  0
LINE
  8
0
 62
     0
 10
1.49653
 20
0.1875
 30
0.0
 11
1.86806
 21
0.0902778
 31
0.0
  0
LINE
  8
0
 62
     0
 10
1.86806
 20
0.0902778
 30
0.0
 11
2.25342
 21
0.0104167
 31
0.0
  0
LINE
  8
0
 62
     0
 10
2.25342
 20
0.0104167
 30
0.0
 11
2.64583
 21
-0.0486111
 31
0.0
  0
LINE
  8
0
 62
     0
 10
2.64583
 20
-0.0486111
 30
0.0
 11
3.03299
 21
-0.0850151
 31
0.0
  0
LINE
  8
0
 62
     0
 10
3.03299
 20
-0.0850151
 30
0.0
 11
3.40278
 21
-0.0972222
 31
0.0
  0
LINE
  8
0
 62
     0
 10
3.40278
 20
-0.0972222
 30
0.0
 11
3.75608
 21
-0.0872396
 31
0.0
  0
LINE
  8
0
 62
     0
 10
3.75608
 20
-0.0872396
 30
0.0
 11
4.09375
 21
-0.0572917
 31
0.0
  0
LINE
  8
0
 62
     0
 10
4.09375
 20
-0.0572917
 30
0.0
 11
4.41575
 21
-0.00737847
 31
0.0
  0
LINE
  8
0
 62
     0
 10
4.41575
 20
-0.00737847
 30
0.0
 11
4.72222
 21
0.0625
 31
0.0
  0
LINE
  8
0
 62
     0
 10
4.72222
 20
0.0625
 30
0.0
 11
5.00999
 21
0.151531
 31
0.0
  0
LINE
  8
0
 62
     0
 10
5.00999
 20
0.151531
 30
0.0
 11
5.27604
 21
0.258681
 31
0.0
  0
LINE
  8
0
 62
     0
 10
5.27604
 20
0.258681
 30
0.0
 11
5.5204
 21
0.384114
 31
0.0
  0
LINE
  8
0
 62
     0
 10
5.5204
 20
0.384114
 30
0.0
 11
5.74306
 21
0.527778
 31
0.0
  0
LINE
  8
0
 62
     0
 10
5.74306
 20
0.527778
 30
0.0
 11
5.94265
 21
0.688857
 31
0.0
  0
LINE
  8
0
 62
     0
 10
5.94265
 20
0.688857
 30
0.0
 11
6.118
 21
0.866374
 31
0.0
  0
LINE
  8
0
 62
     0
 10
6.118
 20
0.866374
 30
0.0
 11
6.26904
 21
1.06038
 31
0.0
  0
LINE
  8
0
 62
     0
 10
6.26904
 20
1.06038
 30
0.0
 11
6.39583
 21
1.27083
 31
0.0
  0
LINE
  8
0
 62
     0
 10
6.39583
 20
1.27083
 30
0.0
 11
6.4961
 21
1.49789
 31
0.0
  0
LINE
  8
0
 62
     0
 10
6.4961
 20
1.49789
 30
0.0
 11
6.56771
 21
1.74137
 31
0.0
  0
LINE
  8
0
 62
     0
 10
6.56771
 20
1.74137
 30
0.0
 11
6.61068
 21
2.00136
 31
0.0
  0
LINE
  8
0
 62
     0
 10
6.61068
 20
2.00136
 30
0.0
 11
6.625
 21
2.27778
 31
0.0
  0
LINE
  8
0
 62
     0
 10
6.625
 20
2.27778
 30
0.0
 11
6.61328
 21
2.53413
 31
0.0
  0
LINE
  8
0
 62
     0
 10
6.61328
 20
2.53413
 30
0.0
 11
6.57813
 21
2.77522
 31
0.0
  0
LINE
  8
0
 62
     0
 10
6.57813
 20
2.77522
 30
0.0
 11
6.51953
 21
3.00114
 31
0.0
  0
LINE
  8
0
 62
     0
 10
6.51953
 20
3.00114
 30
0.0
 11
6.4375
 21
3.21186
 31
0.0
  0
LINE
  8
0
 62
     0
 10
6.4375
 20
3.21186
 30
0.0
 11
6.33203
 21
3.40739
 31
0.0
  0
LINE
  8
0
 62
     0
 10
6.33203
 20
3.40739
 30
0.0
 11
6.20313
 21
3.58772
 31
0.0
  0
LINE
  8
0
 62
     0
 10
6.20313
 20
3.58772
 30
0.0
 11
6.05078
 21
3.75288
 31
0.0
  0
LINE
  8
0
 62
     0
 10
6.05078
 20
3.75288
 30
0.0
 11
5.875
 21
3.90278
 31
0.0
  0
LINE
  8
0
 62
     0
 10
5.875
 20
3.90278
 30
0.0
 11
5.67751
 21
4.03624
 31
0.0
  0
LINE
  8
0
 62
     0
 10
5.67751
 20
4.03624
 30
0.0
 11
5.46007
 21
4.15192
 31
0.0
  0
LINE
  8
0
 62
     0
 10
5.46007
 20
4.15192
 30
0.0
 11
5.22265
 21
4.24978
 31
0.0
  0
LINE
  8
0
 62
     0
 10
5.22265
 20
4.24978
 30
0.0
 11
4.96528
 21
4.32986
 31
0.0
  0
LINE
  8
0
 62
     0
 10
4.96528
 20
4.32986
 30
0.0
 11
4.68793
 21
4.39214
 31
0.0
  0
LINE
  8
0
 62
     0
 10
4.68793
 20
4.39214
 30
0.0
 11
4.39063
 21
4.43664
 31
0.0
  0
LINE
  8
0
 62
     0
 10
4.39063
 20
4.43664
 30
0.0
 11
4.07335
 21
4.46332
 31
0.0
  0
LINE
  8
0
 62
     0
 10
4.07335
 20
4.46332
 30
0.0
 11
3.73611
 21
4.47222
 31
0.0
  0
LINE
  8
0
 62
     0
 10
3.73611
 20
4.47222
 30
0.0
 11
3.43744
 21
4.47792
 31
0.0
  0
LINE
  8
0
 62
     0
 10
3.43744
 20
4.47792
 30
0.0
 11
3.16661
 21
4.49485
 31
0.0
  0
LINE
  8
0
 62
     0
 10
3.16661
 20
4.49485
 30
0.0
 11
2.92356
 21
4.52306
 31
0.0
  0
LINE
  8
0
 62
     0
 10
2.92356
 20
4.52306
 30
0.0
 11
2.70833
 21
4.5625
 31
0.0
  0
LINE
  8
0
 62
     0
 10
2.70833
 20
4.5625
 30
0.0
 11
2.51822
 21
4.61197
 31
0.0
  0
LINE
  8
0
 62
     0
 10
2.51822
 20
4.61197
 30
0.0
 11
2.35069
 21
4.67014
 31
0.0
  0
LINE
  8
0
 62
     0
 10
2.35069
 20
4.67014
 30
0.0
 11
2.20572
 21
4.73697
 31
0.0
  0
LINE
  8
0
 62
     0
 10
2.20572
 20
4.73697
 30
0.0
 11
2.08333
 21
4.8125
 31
0.0
  0
LINE
  8
0
 62
     0
 10
2.08333
 20
4.8125
 30
0.0
 11
1.89578
 21
4.98617
 31
0.0
  0
LINE
  8
0
 62
     0
 10
1.89578
 20
4.98617
 30
0.0
 11
1.77778
 21
5.1875
 31
0.0
  0
LINE
  8
0
 62
     0
 10
1.77778
 20
5.1875
 30
0.0
 11
1.71528
 21
5.40804
 31
0.0
  0
LINE
  8
0
 62
     0
 10
1.71528
 20
5.40804
 30
0.0
 11
1.69444
 21
5.63889
 31
0.0
  0
LINE
  8
0
 62
     0
 10
1.69444
 20
5.63889
 30
0.0
 11
1.72353
 21
5.91581
 31
0.0
  0
LINE
  8
0
 62
     0
 10
1.72353
 20
5.91581
 30
0.0
 11
1.81076
 21
6.16319
 31
0.0
  0
LINE
  8
0
 62
     0
 10
1.81076
 20
6.16319
 30
0.0
 11
1.95617
 21
6.38108
 31
0.0
  0
LINE
  8
0
 62
     0
 10
1.95617
 20
6.38108
 30
0.0
 11
2.15972
 21
6.56944
 31
0.0
  0
LINE
  8
0
 62
     0
 10
2.15972
 20
6.56944
 30
0.0
 11
2.41531
 21
6.7214
 31
0.0
  0
LINE
  8
0
 62
     0
 10
2.41531
 20
6.7214
 30
0.0
 11
2.71696
 21
6.82992
 31
0.0
  0
LINE
  8
0
 62
     0
 10
2.71696
 20
6.82992
 30
0.0
 11
3.06461
 21
6.89501
 31
0.0
  0
LINE
  8
0
 62
     0
 10
3.06461
 20
6.89501
 30
0.0
 11
3.45833
 21
6.91667
 31
0.0
  0
LINE
  8
0
 62
     0
 10
3.45833
 20
6.91667
 30
0.0
 11
3.77604
 21
6.90451
 31
0.0
  0
LINE
  8
0
 62
     0
 10
3.77604
 20
6.90451
 30
0.0
 11
4.11806
 21
6.86806
 31
0.0
  0
LINE
  8
0
 62
     0
 10
4.11806
 20
6.86806
 30
0.0
 11
4.82639
 21
6.72917
 31
0.0
  0
LINE
  8
0
 62
     0
 10
4.82639
 20
6.72917
 30
0.0
 11
5.17188
 21
6.63026
 31
0.0
  0
LINE
  8
0
 62
     0
 10
5.17188
 20
6.63026
 30
0.0
 11
5.5
 21
6.51389
 31
0.0
  0
LINE
  8
0
 62
     0
 10
5.5
 20
6.51389
 30
0.0
 11
5.79861
 21
6.37847
 31
0.0
  0
LINE
  8
0
 62
     0
 10
5.79861
 20
6.37847
 30
0.0
 11
6.05556
 21
6.22222
 31
0.0
  0
LINE
  8
0
 62
     0
 10
6.05556
 20
6.22222
 30
0.0
 11
6.05556
 21
7.375
 31
0.0
  0
LINE
  8
0
 62
     0
 10
6.05556
 20
7.375
 30
0.0
 11
5.81244
 21
7.48264
 31
0.0
  0
LINE
  8
0
 62
     0
 10
5.81244
 20
7.48264
 30
0.0
 11
5.52778
 21
7.58333
 31
0.0
  0
LINE
  8
0
 62
     0
 10
5.52778
 20
7.58333
 30
0.0
 11
5.21175
 21
7.67367
 31
0.0
  0
LINE
  8
0
 62
     0
 10
5.21175
 20
7.67367
 30
0.0
 11
4.875
 21
7.75
 31
0.0
  0
LINE
  8
0
 62
     0
 10
4.875
 20
7.75
 30
0.0
 11
4.16667
 21
7.86111
 31
0.0
  0
LINE
  8
0
 62
     0
 10
4.16667
 20
7.86111
 30
0.0
 11
3.8125
 21
7.89236
 31
0.0
  0
LINE
  8
0
 62
     0
 10
3.8125
 20
7.89236
 30
0.0
 11
3.47222
 21
7.90278
 31
0.0
  0
LINE
  8
0
 62
     0
 10
3.47222
 20
7.90278
 30
0.0
 11
3.14714
 21
7.89154
 31
0.0
  0
LINE
  8
0
 62
     0
 10
3.14714
 20
7.89154
 30
0.0
 11
2.83854
 21
7.85769
 31
0.0
  0
LINE
  8
0
 62
     0
 10
2.83854
 20
7.85769
 30
0.0
 11
2.54644
 21
7.80126
 31
0.0
  0
LINE
  8
0
 62
     0
 10
2.54644
 20
7.80126
 30
0.0
 11
2.27083
 21
7.72222
 31
0.0
  0
LINE
  8
0
 62
     0
 10
2.27083
 20
7.72222
 30
0.0
 11
2.01383
 21
7.62369
 31
0.0
  0
LINE
  8
0
 62
     0
 10
2.01383
 20
7.62369
 30
0.0
 11
1.77778
 21
7.50868
 31
0.0
  0
LINE
  8
0
 62
     0
 10
1.77778
 20
7.50868
 30
0.0
 11
1.5625
 21
7.37717
 31
0.0
  0
LINE
  8
0
 62
     0
 10
1.5625
 20
7.37717
 30
0.0
 11
1.36806
 21
7.22917
 31
0.0
  0
LINE
  8
0
 62
     0
 10
1.36806
 20
7.22917
 30
0.0
 11
1.19439
 21
7.06597
 31
0.0
  0
LINE
  8
0
 62
     0
 10
1.19439
 20
7.06597
 30
0.0
 11
1.04167
 21
6.88889
 31
0.0
  0
LINE
  8
0
 62
     0
 10
1.04167
 20
6.88889
 30
0.0
 11
0.909722
 21
6.69792
 31
0.0
  0
LINE
  8
0
 62
     0
 10
0.909722
 20
6.69792
 30
0.0
 11
0.798611
 21
6.49306
 31
0.0
  0
LINE
  8
0
 62
     0
 10
0.798611
 20
6.49306
 30
0.0
 11
0.710449
 21
6.2774
 31
0.0
  0
LINE
  8
0
 62
     0
 10
0.710449
 20
6.2774
 30
0.0
 11
0.647515
 21
6.05382
 31
0.0
  0
LINE
  8
0
 62
     0
 10
0.647515
 20
6.05382
 30
0.0
 11
0.609754
 21
5.82249
 31
0.0
  0
LINE
  8
0
 62
     0
 10
0.609754
 20
5.82249
 30
0.0
 11
0.597222
 21
5.58333
 31
0.0
  0
LINE
  8
0
 62
     0
 10
0.597222
 20
5.58333
 30
0.0
 11
0.608615
 21
5.32937
 31
0.0
  0
LINE
  8
0
 62
     0
 10
0.608615
 20
5.32937
 30
0.0
 11
0.642794
 21
5.09179
 31
0.0
  0
LINE
  8
0
 62
     0
 10
0.642794
 20
5.09179
 30
0.0
 11
0.699761
 21
4.87061
 31
0.0
  0
LINE
  8
0
 62
     0
 10
0.699761
 20
4.87061
 30
0.0
 11
0.779514
 21
4.66581
 31
0.0
  0
LINE
  8
0
 62
     0
 10
0.779514
 20
4.66581
 30
0.0
 11
0.882053
 21
4.47738
 31
0.0
  0
LINE
  8
0
 62
     0
 10
0.882053
 20
4.47738
 30
0.0
 11
1.00738
 21
4.30533
 31
0.0
  0
LINE
  8
0
 62
     0
 10
1.00738
 20
4.30533
 30
0.0
 11
1.15549
 21
4.14968
 31
0.0
  0
LINE
  8
0
 62
     0
 10
1.15549
 20
4.14968
 30
0.0
 11
1.32639
 21
4.01042
 31
0.0
  0
LINE
  8
0
 62
     0
 10
1.32639
 20
4.01042
 30
0.0
 11
1.52007
 21
3.88753
 31
0.0
  0
LINE
  8
0
 62
     0
 10
1.52007
 20
3.88753
 30
0.0
 11
1.73654
 21
3.78103
 31
0.0
  0
LINE
  8
0
 62
     0
 10
1.73654
 20
3.78103
 30
0.0
 11
1.97581
 21
3.69092
 31
0.0
  0
LINE
  8
0
 62
     0
 10
1.97581
 20
3.69092
 30
0.0
 11
2.23785
 21
3.61719
 31
0.0
  0
LINE
  8
0
 62
     0
 10
2.23785
 20
3.61719
 30
0.0
 11
2.52268
 21
3.55985
 31
0.0
  0
LINE
  8
0
 62
     0
 10
2.52268
 20
3.55985
 30
0.0
 11
2.83029
 21
3.51887
 31
0.0
  0
LINE
  8
0
 62
     0
 10
2.83029
 20
3.51887
 30
0.0
 11
3.16069
 21
3.49431
 31
0.0
  0
LINE
  8
0
 62
     0
 10
3.16069
 20
3.49431
 30
0.0
 11
3.51389
 21
3.48611
 31
0.0
  0
LINE
  8
0
 62
     0
 10
3.51389
 20
3.48611
 30
0.0
 11
3.98264
 21
3.46614
 31
0.0
  0
LINE
  8
0
 62
     0
 10
3.98264
 20
3.46614
 30
0.0
 11
4.38889
 21
3.40625
 31
0.0
  0
LINE
  8
0
 62
     0
 10
4.38889
 20
3.40625
 30
0.0
 11
4.73264
 21
3.30642
 31
0.0
  0
LINE
  8
0
 62
     0
 10
4.73264
 20
3.30642
 30
0.0
 11
5.01389
 21
3.16667
 31
0.0
  0
LINE
  8
0
 62
     0
 10
5.01389
 20
3.16667
 30
0.0
 11
5.23264
 21
2.9905
 31
0.0
  0
LINE
  8
0
 62
     0
 10
5.23264
 20
2.9905
 30
0.0
 11
5.38889
 21
2.78131
 31
0.0
  0
LINE
  8
0
 62
     0
 10
5.38889
 20
2.78131
 30
0.0
 11
5.48264
 21
2.53911
 31
0.0
  0
LINE
  8
0
 62
     0
 10
5.48264
 20
2.53911
 30
0.0
 11
5.51389
 21
2.26389
 31
0.0
  0
LINE
  8
0
 62
     0
 10
5.51389
 20
2.26389
 30
0.0
 11
5.50456
 21
2.10232
 31
0.0
  0
LINE
  8
0
 62
     0
 10
5.50456
 20
2.10232
 30
0.0
 11
5.47656
 21
1.95096
 31
0.0
  0
LINE
  8
0
 62
     0
 10
5.47656
 20
1.95096
 30
0.0
 11
5.4299
 21
1.80979
 31
0.0
  0
LINE
  8
0
 62
     0
 10
5.4299
 20
1.80979
 30
0.0
 11
5.36458
 21
1.67882
 31
0.0
  0
LINE
  8
0
 62
     0
 10
5.36458
 20
1.67882
 30
0.0
 11
5.2806
 21
1.55806
 31
0.0
  0
LINE
  8
0
 62
     0
 10
5.2806
 20
1.55806
 30
0.0
 11
5.17794
 21
1.44749
 31
0.0
  0
LINE
  8
0
 62
     0
 10
5.17794
 20
1.44749
 30
0.0
 11
5.05664
 21
1.34711
 31
0.0
  0
LINE
  8
0
 62
     0
 10
5.05664
 20
1.34711
 30
0.0
 11
4.91667
 21
1.25694
 31
0.0
  0
LINE
  8
0
 62
     0
 10
4.91667
 20
1.25694
 30
0.0
 11
4.59717
 21
1.10813
 31
0.0
  0
LINE
  8
0
 62
     0
 10
4.59717
 20
1.10813
 30
0.0
 11
4.23606
 21
1.00179
 31
0.0
  0
LINE
  8
0
 62
     0
 10
4.23606
 20
1.00179
 30
0.0
 11
3.83328
 21
0.937989
 31
0.0
  0
LINE
  8
0
 62
     0
 10
3.83328
 20
0.937989
 30
0.0
 11
3.38889
 21
0.916667
 31
0.0
  0
LINE
  8
0
 62
     0
 10
3.38889
 20
0.916667
 30
0.0
 11
3.01731
 21
0.932292
 31
0.0
  0
LINE
  8
0
 62
     0
 10
3.01731
 20
0.932292
 30
0.0
 11
2.625
 21
0.979167
 31
0.0
  0
LINE
  8
0
 62
     0
 10
2.625
 20
0.979167
 30
0.0
 11
2.22569
 21
1.05556
 31
0.0
  0
LINE
  8
0
 62
     0
 10
2.22569
 20
1.05556
 30
0.0
 11
1.83333
 21
1.15972
 31
0.0
  0
LINE
  8
0
 62
     0
 10
1.83333
 20
1.15972
 30
0.0
 11
1.45828
 21
1.28819
 31
0.0
  0
LINE
  8
0
 62
     0
 10
1.45828
 20
1.28819
 30
0.0
 11
1.11111
 21
1.4375
 31
0.0
  0
LINE
  8
0
 62
     0
 10
1.11111
 20
1.4375
 30
0.0
 11
0.805556
 21
1.60596
 31
0.0
  0
LINE
  8
0
 62
     0
 10
0.805556
 20
1.60596
 30
0.0
 11
0.555556
 21
1.79167
 31
0.0
  0
LINE
  8
0
 62
     0
 10
0.555556
 20
1.79167
 30
0.0
 11
0.555556
 21
0.555556
 31
0.0
  0
LINE
  8
0
 62
     0
 10
3.65278
 20
9.04167
 30
0.0
 11
3.02778
 21
9.04167
 31
0.0
  0
LINE
  8
0
 62
     0
 10
3.02778
 20
9.04167
 30
0.0
 11
1.26389
 21
11.3333
 31
0.0
  0
LINE
  8
0
 62
     0
 10
1.26389
 20
11.3333
 30
0.0
 11
2.16667
 21
11.3333
 31
0.0
  0
LINE
  8
0
 62
     0
 10
2.16667
 20
11.3333
 30
0.0
 11
3.33333
 21
9.83333
 31
0.0
  0
LINE
  8
0
 62
     0
 10
3.33333
 20
9.83333
 30
0.0
 11
4.51389
 21
11.3194
 31
0.0
  0
LINE
  8
0
 62
     0
 10
4.51389
 20
11.3194
 30
0.0
 11
5.41667
 21
11.3194
 31
0.0
  0
LINE
  8
0
 62
     0
 10
5.41667
 20
11.3194
 30
0.0
 11
3.65278
 21
9.04167
 31
0.0
  0
ENDSEC
  0
EOF
