  0
SECTION
  2
HEADER
  9
$ACADVER
  1
AC1009
  9
$EXTMIN
 10
0.0
 20
0.0
 30
0.0
  9
$EXTMAX
 10
1000.0
 20
1000.0
 30
0.0
  9
$FILLMODE
 70
 0
  9
$SPLFRAME
 70
 1
  0
ENDSEC
  0
SECTION
  2
TABLES
  0
TABLE
  2
LAYER
 70
1
  0
LAYER
  2
0
 70
     0
 62
     7
  6
CONTINUOUS
  0
ENDTAB
  0
ENDSEC
  0
SECTION
  2
ENTITIES
  0
LINE
  8
0
 62
     0
 10
3.875
 20
0.944444
 30
0.0
 11
4.09896
 21
0.954428
 31
0.0
  0
LINE
  8
0
 62
     0
 10
4.09896
 20
0.954428
 30
0.0
 11
4.3125
 21
0.984375
 31
0.0
  0
LINE
  8
0
 62
     0
 10
4.3125
 20
0.984375
 30
0.0
 11
4.51563
 21
1.03429
 31
0.0
  0
LINE
  8
0
 62
     0
 10
4.51563
 20
1.03429
 30
0.0
 11
4.70833
 21
1.10417
 31
0.0
  0
LINE
  8
0
 62
     0
 10
4.70833
 20
1.10417
 30
0.0
 11
4.88932
 21
1.19233
 31
0.0
  0
LINE
  8
0
 62
     0
 10
4.88932
 20
1.19233
 30
0.0
 11
5.05729
 21
1.29693
 31
0.0
  0
LINE
  8
0
 62
     0
 10
5.05729
 20
1.29693
 30
0.0
 11
5.21224
 21
1.41803
 31
0.0
  0
LINE
  8
0
 62
     0
 10
5.21224
 20
1.41803
 30
0.0
 11
5.35417
 21
1.55556
 31
0.0
  0
LINE
  8
0
 62
     0
 10
5.35417
 20
1.55556
 30
0.0
 11
5.48178
 21
1.70876
 31
0.0
  0
LINE
  8
0
 62
     0
 10
5.48178
 20
1.70876
 30
0.0
 11
5.59375
 21
1.87674
 31
0.0
  0
LINE
  8
0
 62
     0
 10
5.59375
 20
1.87674
 30
0.0
 11
5.69011
 21
2.05946
 31
0.0
  0
LINE
  8
0
 62
     0
 10
5.69011
 20
2.05946
 30
0.0
 11
5.77083
 21
2.25694
 31
0.0
  0
LINE
  8
0
 62
     0
 10
5.77083
 20
2.25694
 30
0.0
 11
5.88021
 21
2.68582
 31
0.0
  0
LINE
  8
0
 62
     0
 10
5.88021
 20
2.68582
 30
0.0
 11
5.91667
 21
3.15278
 31
0.0
  0
LINE
  8
0
 62
     0
 10
5.91667
 20
3.15278
 30
0.0
 11
5.89063
 21
3.60069
 31
0.0
  0
LINE
  8
0
 62
     0
 10
5.89063
 20
3.60069
 30
0.0
 11
5.8125
 21
4.02778
 31
0.0
  0
LINE
  8
0
 62
     0
 10
5.8125
 20
4.02778
 30
0.0
 11
5.75211
 21
4.23008
 31
0.0
  0
LINE
  8
0
 62
     0
 10
5.75211
 20
4.23008
 30
0.0
 11
5.67529
 21
4.42019
 31
0.0
  0
LINE
  8
0
 62
     0
 10
5.67529
 20
4.42019
 30
0.0
 11
5.58197
 21
4.59814
 31
0.0
  0
LINE
  8
0
 62
     0
 10
5.58197
 20
4.59814
 30
0.0
 11
5.47222
 21
4.76389
 31
0.0
  0
LINE
  8
0
 62
     0
 10
5.47222
 20
4.76389
 30
0.0
 11
5.34506
 21
4.91536
 31
0.0
  0
LINE
  8
0
 62
     0
 10
5.34506
 20
4.91536
 30
0.0
 11
5.19965
 21
5.05035
 31
0.0
  0
LINE
  8
0
 62
     0
 10
5.19965
 20
5.05035
 30
0.0
 11
5.03597
 21
5.16883
 31
0.0
  0
LINE
  8
0
 62
     0
 10
5.03597
 20
5.16883
 30
0.0
 11
4.85417
 21
5.27083
 31
0.0
  0
LINE
  8
0
 62
     0
 10
4.85417
 20
5.27083
 30
0.0
 11
4.65321
 21
5.35286
 31
0.0
  0
LINE
  8
0
 62
     0
 10
4.65321
 20
5.35286
 30
0.0
 11
4.43229
 21
5.41146
 31
0.0
  0
LINE
  8
0
 62
     0
 10
4.43229
 20
5.41146
 30
0.0
 11
4.1914
 21
5.44661
 31
0.0
  0
LINE
  8
0
 62
     0
 10
4.1914
 20
5.44661
 30
0.0
 11
3.93056
 21
5.45833
 31
0.0
  0
LINE
  8
0
 62
     0
 10
3.93056
 20
5.45833
 30
0.0
 11
3.68093
 21
5.44581
 31
0.0
  0
LINE
  8
0
 62
     0
 10
3.68093
 20
5.44581
 30
0.0
 11
3.44613
 21
5.40804
 31
0.0
  0
LINE
  8
0
 62
     0
 10
3.44613
 20
5.40804
 30
0.0
 11
3.22607
 21
5.34511
 31
0.0
  0
LINE
  8
0
 62
     0
 10
3.22607
 20
5.34511
 30
0.0
 11
3.02083
 21
5.25694
 31
0.0
  0
LINE
  8
0
 62
     0
 10
3.02083
 20
5.25694
 30
0.0
 11
2.83117
 21
5.14887
 31
0.0
  0
LINE
  8
0
 62
     0
 10
2.83117
 20
5.14887
 30
0.0
 11
2.65799
 21
5.02604
 31
0.0
  0
LINE
  8
0
 62
     0
 10
2.65799
 20
5.02604
 30
0.0
 11
2.50131
 21
4.88846
 31
0.0
  0
LINE
  8
0
 62
     0
 10
2.50131
 20
4.88846
 30
0.0
 11
2.36111
 21
4.73611
 31
0.0
  0
LINE
  8
0
 62
     0
 10
2.36111
 20
4.73611
 30
0.0
 11
2.12847
 21
4.39415
 31
0.0
  0
LINE
  8
0
 62
     0
 10
2.12847
 20
4.39415
 30
0.0
 11
1.95833
 21
4.00694
 31
0.0
  0
LINE
  8
0
 62
     0
 10
1.95833
 20
4.00694
 30
0.0
 11
1.85411
 21
3.59201
 31
0.0
  0
LINE
  8
0
 62
     0
 10
1.85411
 20
3.59201
 30
0.0
 11
1.81944
 21
3.16667
 31
0.0
  0
LINE
  8
0
 62
     0
 10
1.81944
 20
3.16667
 30
0.0
 11
1.85069
 21
2.73264
 31
0.0
  0
LINE
  8
0
 62
     0
 10
1.85069
 20
2.73264
 30
0.0
 11
1.94444
 21
2.31944
 31
0.0
  0
LINE
  8
0
 62
     0
 10
1.94444
 20
2.31944
 30
0.0
 11
2.01519
 21
2.12418
 31
0.0
  0
LINE
  8
0
 62
     0
 10
2.01519
 20
2.12418
 30
0.0
 11
2.10243
 21
1.94103
 31
0.0
  0
LINE
  8
0
 62
     0
 10
2.10243
 20
1.94103
 30
0.0
 11
2.20617
 21
1.77001
 31
0.0
  0
LINE
  8
0
 62
     0
 10
2.20617
 20
1.77001
 30
0.0
 11
2.32639
 21
1.61111
 31
0.0
  0
LINE
  8
0
 62
     0
 10
2.32639
 20
1.61111
 30
0.0
 11
2.46263
 21
1.46614
 31
0.0
  0
LINE
  8
0
 62
     0
 10
2.46263
 20
1.46614
 30
0.0
 11
2.61458
 21
1.33681
 31
0.0
  0
LINE
  8
0
 62
     0
 10
2.61458
 20
1.33681
 30
0.0
 11
2.78211
 21
1.22314
 31
0.0
  0
LINE
  8
0
 62
     0
 10
2.78211
 20
1.22314
 30
0.0
 11
2.96528
 21
1.125
 31
0.0
  0
LINE
  8
0
 62
     0
 10
2.96528
 20
1.125
 30
0.0
 11
3.16531
 21
1.04601
 31
0.0
  0
LINE
  8
0
 62
     0
 10
3.16531
 20
1.04601
 30
0.0
 11
3.38368
 21
0.989583
 31
0.0
  0
LINE
  8
0
 62
     0
 10
3.38368
 20
0.989583
 30
0.0
 11
3.62022
 21
0.955729
 31
0.0
  0
LINE
  8
0
 62
     0
 10
3.62022
 20
0.955729
 30
0.0
 11
3.875
 21
0.944444
 31
0.0
  0
LINE
  8
0
 62
     0
 10
3.91667
 20
6.5
 30
0.0
 11
4.26303
 21
6.48525
 31
0.0
  0
LINE
  8
0
 62
     0
 10
4.26303
 20
6.48525
 30
0.0
 11
4.59375
 21
6.44097
 31
0.0
  0
LINE
  8
0
 62
     0
 10
4.59375
 20
6.44097
 30
0.0
 11
4.90886
 21
6.36719
 31
0.0
  0
LINE
  8
0
 62
     0
 10
4.90886
 20
6.36719
 30
0.0
 11
5.20833
 21
6.26389
 31
0.0
  0
LINE
  8
0
 62
     0
 10
5.20833
 20
6.26389
 30
0.0
 11
5.4891
 21
6.13331
 31
0.0
  0
LINE
  8
0
 62
     0
 10
5.4891
 20
6.13331
 30
0.0
 11
5.74821
 21
5.97749
 31
0.0
  0
LINE
  8
0
 62
     0
 10
5.74821
 20
5.97749
 30
0.0
 11
5.98562
 21
5.7965
 31
0.0
  0
LINE
  8
0
 62
     0
 10
5.98562
 20
5.7965
 30
0.0
 11
6.20139
 21
5.59028
 31
0.0
  0
LINE
  8
0
 62
     0
 10
6.20139
 20
5.59028
 30
0.0
 11
6.39497
 21
5.36029
 31
0.0
  0
LINE
  8
0
 62
     0
 10
6.39497
 20
5.36029
 30
0.0
 11
6.56597
 21
5.10769
 31
0.0
  0
LINE
  8
0
 62
     0
 10
6.56597
 20
5.10769
 30
0.0
 11
6.71442
 21
4.83251
 31
0.0
  0
LINE
  8
0
 62
     0
 10
6.71442
 20
4.83251
 30
0.0
 11
6.84028
 21
4.53472
 31
0.0
  0
LINE
  8
0
 62
     0
 10
6.84028
 20
4.53472
 30
0.0
 11
6.94054
 21
4.21658
 31
0.0
  0
LINE
  8
0
 62
     0
 10
6.94054
 20
4.21658
 30
0.0
 11
7.01215
 21
3.88021
 31
0.0
  0
LINE
  8
0
 62
     0
 10
7.01215
 20
3.88021
 30
0.0
 11
7.05512
 21
3.52561
 31
0.0
  0
LINE
  8
0
 62
     0
 10
7.05512
 20
3.52561
 30
0.0
 11
7.06944
 21
3.15278
 31
0.0
  0
LINE
  8
0
 62
     0
 10
7.06944
 20
3.15278
 30
0.0
 11
7.05251
 21
2.73139
 31
0.0
  0
LINE
  8
0
 62
     0
 10
7.05251
 20
2.73139
 30
0.0
 11
7.00174
 21
2.34207
 31
0.0
  0
LINE
  8
0
 62
     0
 10
7.00174
 20
2.34207
 30
0.0
 11
6.9171
 21
1.98486
 31
0.0
  0
LINE
  8
0
 62
     0
 10
6.9171
 20
1.98486
 30
0.0
 11
6.79861
 21
1.65972
 31
0.0
  0
LINE
  8
0
 62
     0
 10
6.79861
 20
1.65972
 30
0.0
 11
6.65229
 21
1.36502
 31
0.0
  0
LINE
  8
0
 62
     0
 10
6.65229
 20
1.36502
 30
0.0
 11
6.48432
 21
1.09896
 31
0.0
  0
LINE
  8
0
 62
     0
 10
6.48432
 20
1.09896
 30
0.0
 11
6.29465
 21
0.8616
 31
0.0
  0
LINE
  8
0
 62
     0
 10
6.29465
 20
0.8616
 30
0.0
 11
6.08333
 21
0.652778
 31
0.0
  0
LINE
  8
0
 62
     0
 10
6.08333
 20
0.652778
 30
0.0
 11
5.85286
 21
0.471354
 31
0.0
  0
LINE
  8
0
 62
     0
 10
5.85286
 20
0.471354
 30
0.0
 11
5.6059
 21
0.315972
 31
0.0
  0
LINE
  8
0
 62
     0
 10
5.6059
 20
0.315972
 30
0.0
 11
5.34244
 21
0.186686
 31
0.0
  0
LINE
  8
0
 62
     0
 10
5.34244
 20
0.186686
 30
0.0
 11
5.0625
 21
0.0833333
 31
0.0
  0
LINE
  8
0
 62
     0
 10
5.0625
 20
0.0833333
 30
0.0
 11
4.47738
 21
-0.0520833
 31
0.0
  0
LINE
  8
0
 62
     0
 10
4.47738
 20
-0.0520833
 30
0.0
 11
3.875
 21
-0.0972222
 31
0.0
  0
LINE
  8
0
 62
     0
 10
3.875
 20
-0.0972222
 30
0.0
 11
3.54639
 21
-0.0859375
 31
0.0
  0
LINE
  8
0
 62
     0
 10
3.54639
 20
-0.0859375
 30
0.0
 11
3.22738
 21
-0.0520833
 31
0.0
  0
LINE
  8
0
 62
     0
 10
3.22738
 20
-0.0520833
 30
0.0
 11
2.91792
 21
0.00434028
 31
0.0
  0
LINE
  8
0
 62
     0
 10
2.91792
 20
0.00434028
 30
0.0
 11
2.61806
 21
0.0833333
 31
0.0
  0
LINE
  8
0
 62
     0
 10
2.61806
 20
0.0833333
 30
0.0
 11
2.33247
 21
0.187121
 31
0.0
  0
LINE
  8
0
 62
     0
 10
2.33247
 20
0.187121
 30
0.0
 11
2.06597
 21
0.317763
 31
0.0
  0
LINE
  8
0
 62
     0
 10
2.06597
 20
0.317763
 30
0.0
 11
1.81858
 21
0.475315
 31
0.0
  0
LINE
  8
0
 62
     0
 10
1.81858
 20
0.475315
 30
0.0
 11
1.59028
 21
0.659722
 31
0.0
  0
LINE
  8
0
 62
     0
 10
1.59028
 20
0.659722
 30
0.0
 11
1.38325
 21
0.871961
 31
0.0
  0
LINE
  8
0
 62
     0
 10
1.38325
 20
0.871961
 30
0.0
 11
1.19965
 21
1.11285
 31
0.0
  0
LINE
  8
0
 62
     0
 10
1.19965
 20
1.11285
 30
0.0
 11
1.0395
 21
1.38238
 31
0.0
  0
LINE
  8
0
 62
     0
 10
1.0395
 20
1.38238
 30
0.0
 11
0.902778
 21
1.68056
 31
0.0
  0
LINE
  8
0
 62
     0
 10
0.902778
 20
1.68056
 30
0.0
 11
0.793403
 21
2.00956
 31
0.0
  0
LINE
  8
0
 62
     0
 10
0.793403
 20
2.00956
 30
0.0
 11
0.715278
 21
2.37153
 31
0.0
  0
LINE
  8
0
 62
     0
 10
0.715278
 20
2.37153
 30
0.0
 11
0.668403
 21
2.7665
 31
0.0
  0
LINE
  8
0
 62
     0
 10
0.668403
 20
2.7665
 30
0.0
 11
0.652778
 21
3.19444
 31
0.0
  0
LINE
  8
0
 62
     0
 10
0.652778
 20
3.19444
 30
0.0
 11
0.666613
 21
3.45313
 31
0.0
  0
LINE
  8
0
 62
     0
 10
0.666613
 20
3.45313
 30
0.0
 11
0.708333
 21
3.72917
 31
0.0
  0
LINE
  8
0
 62
     0
 10
0.708333
 20
3.72917
 30
0.0
 11
0.847222
 21
4.29861
 31
0.0
  0
LINE
  8
0
 62
     0
 10
0.847222
 20
4.29861
 30
0.0
 11
0.9375
 21
4.57644
 31
0.0
  0
LINE
  8
0
 62
     0
 10
0.9375
 20
4.57644
 30
0.0
 11
1.04167
 21
4.84028
 31
0.0
  0
LINE
  8
0
 62
     0
 10
1.04167
 20
4.84028
 30
0.0
 11
1.15278
 21
5.08165
 31
0.0
  0
LINE
  8
0
 62
     0
 10
1.15278
 20
5.08165
 30
0.0
 11
1.26389
 21
5.29167
 31
0.0
  0
LINE
  8
0
 62
     0
 10
1.26389
 20
5.29167
 30
0.0
 11
4.05556
 21
10.1389
 31
0.0
  0
LINE
  8
0
 62
     0
 10
4.05556
 20
10.1389
 30
0.0
 11
5.45833
 21
10.1389
 31
0.0
  0
LINE
  8
0
 62
     0
 10
5.45833
 20
10.1389
 30
0.0
 11
3.22222
 21
6.375
 31
0.0
  0
LINE
  8
0
 62
     0
 10
3.22222
 20
6.375
 30
0.0
 11
3.36106
 21
6.41667
 31
0.0
  0
LINE
  8
0
 62
     0
 10
3.36106
 20
6.41667
 30
0.0
 11
3.52778
 21
6.45833
 31
0.0
  0
LINE
  8
0
 62
     0
 10
3.52778
 20
6.45833
 30
0.0
 11
3.71528
 21
6.48958
 31
0.0
  0
LINE
  8
0
 62
     0
 10
3.71528
 20
6.48958
 30
0.0
 11
3.91667
 21
6.5
 31
0.0
  0
ENDSEC
  0
EOF
