  0
SECTION
  2
HEADER
  9
$ACADVER
  1
AC1009
  9
$EXTMIN
 10
0.0
 20
0.0
 30
0.0
  9
$EXTMAX
 10
1000.0
 20
1000.0
 30
0.0
  9
$FILLMODE
 70
 0
  9
$SPLFRAME
 70
 1
  0
ENDSEC
  0
SECTION
  2
TABLES
  0
TABLE
  2
LAYER
 70
1
  0
LAYER
  2
0
 70
     0
 62
     7
  6
CONTINUOUS
  0
ENDTAB
  0
ENDSEC
  0
SECTION
  2
ENTITIES
  0
LINE
  8
0
 62
     0
 10
4.41667
 20
10.1389
 30
0.0
 11
4.41667
 21
9.375
 31
0.0
  0
LINE
  8
0
 62
     0
 10
4.41667
 20
9.375
 30
0.0
 11
2.75
 21
7.70833
 31
0.0
  0
LINE
  8
0
 62
     0
 10
2.75
 20
7.70833
 30
0.0
 11
2.84722
 21
7.70833
 31
0.0
  0
LINE
  8
0
 62
     0
 10
2.84722
 20
7.70833
 30
0.0
 11
3.20742
 21
7.67888
 31
0.0
  0
LINE
  8
0
 62
     0
 10
3.20742
 20
7.67888
 30
0.0
 11
3.53814
 21
7.59033
 31
0.0
  0
LINE
  8
0
 62
     0
 10
3.53814
 20
7.59033
 30
0.0
 11
3.83936
 21
7.44276
 31
0.0
  0
LINE
  8
0
 62
     0
 10
3.83936
 20
7.44276
 30
0.0
 11
4.11111
 21
7.23611
 31
0.0
  0
LINE
  8
0
 62
     0
 10
4.11111
 20
7.23611
 30
0.0
 11
4.23156
 21
7.11046
 31
0.0
  0
LINE
  8
0
 62
     0
 10
4.23156
 20
7.11046
 30
0.0
 11
4.33594
 21
6.96961
 31
0.0
  0
LINE
  8
0
 62
     0
 10
4.33594
 20
6.96961
 30
0.0
 11
4.42426
 21
6.81358
 31
0.0
  0
LINE
  8
0
 62
     0
 10
4.42426
 20
6.81358
 30
0.0
 11
4.49653
 21
6.64236
 31
0.0
  0
LINE
  8
0
 62
     0
 10
4.49653
 20
6.64236
 30
0.0
 11
4.55274
 21
6.45594
 31
0.0
  0
LINE
  8
0
 62
     0
 10
4.55274
 20
6.45594
 30
0.0
 11
4.59289
 21
6.25433
 31
0.0
  0
LINE
  8
0
 62
     0
 10
4.59289
 20
6.25433
 30
0.0
 11
4.61697
 21
6.03754
 31
0.0
  0
LINE
  8
0
 62
     0
 10
4.61697
 20
6.03754
 30
0.0
 11
4.625
 21
5.80556
 31
0.0
  0
LINE
  8
0
 62
     0
 10
4.625
 20
5.80556
 30
0.0
 11
4.61604
 21
5.59289
 31
0.0
  0
LINE
  8
0
 62
     0
 10
4.61604
 20
5.59289
 30
0.0
 11
4.58936
 21
5.39236
 31
0.0
  0
LINE
  8
0
 62
     0
 10
4.58936
 20
5.39236
 30
0.0
 11
4.54486
 21
5.204
 31
0.0
  0
LINE
  8
0
 62
     0
 10
4.54486
 20
5.204
 30
0.0
 11
4.48258
 21
5.02778
 31
0.0
  0
LINE
  8
0
 62
     0
 10
4.48258
 20
5.02778
 30
0.0
 11
4.4025
 21
4.86372
 31
0.0
  0
LINE
  8
0
 62
     0
 10
4.4025
 20
4.86372
 30
0.0
 11
4.30464
 21
4.71181
 31
0.0
  0
LINE
  8
0
 62
     0
 10
4.30464
 20
4.71181
 30
0.0
 11
4.18896
 21
4.57206
 31
0.0
  0
LINE
  8
0
 62
     0
 10
4.18896
 20
4.57206
 30
0.0
 11
4.05556
 21
4.44444
 31
0.0
  0
LINE
  8
0
 62
     0
 10
4.05556
 20
4.44444
 30
0.0
 11
3.9069
 21
4.33057
 31
0.0
  0
LINE
  8
0
 62
     0
 10
3.9069
 20
4.33057
 30
0.0
 11
3.74567
 21
4.23182
 31
0.0
  0
LINE
  8
0
 62
     0
 10
3.74567
 20
4.23182
 30
0.0
 11
3.57183
 21
4.14828
 31
0.0
  0
LINE
  8
0
 62
     0
 10
3.57183
 20
4.14828
 30
0.0
 11
3.38542
 21
4.07992
 31
0.0
  0
LINE
  8
0
 62
     0
 10
3.38542
 20
4.07992
 30
0.0
 11
3.18642
 21
4.02675
 31
0.0
  0
LINE
  8
0
 62
     0
 10
3.18642
 20
4.02675
 30
0.0
 11
2.97483
 21
3.98876
 31
0.0
  0
LINE
  8
0
 62
     0
 10
2.97483
 20
3.98876
 30
0.0
 11
2.75065
 21
3.96599
 31
0.0
  0
LINE
  8
0
 62
     0
 10
2.75065
 20
3.96599
 30
0.0
 11
2.51389
 21
3.95833
 31
0.0
  0
LINE
  8
0
 62
     0
 10
2.51389
 20
3.95833
 30
0.0
 11
2.10064
 21
3.98568
 31
0.0
  0
LINE
  8
0
 62
     0
 10
2.10064
 20
3.98568
 30
0.0
 11
1.73606
 21
4.06771
 31
0.0
  0
LINE
  8
0
 62
     0
 10
1.73606
 20
4.06771
 30
0.0
 11
1.42008
 21
4.20443
 31
0.0
  0
LINE
  8
0
 62
     0
 10
1.42008
 20
4.20443
 30
0.0
 11
1.15278
 21
4.39583
 31
0.0
  0
LINE
  8
0
 62
     0
 10
1.15278
 20
4.39583
 30
0.0
 11
0.940104
 21
4.63411
 31
0.0
  0
LINE
  8
0
 62
     0
 10
0.940104
 20
4.63411
 30
0.0
 11
0.788194
 21
4.91146
 31
0.0
  0
LINE
  8
0
 62
     0
 10
0.788194
 20
4.91146
 30
0.0
 11
0.697049
 21
5.22786
 31
0.0
  0
LINE
  8
0
 62
     0
 10
0.697049
 20
5.22786
 30
0.0
 11
0.666667
 21
5.58333
 31
0.0
  0
LINE
  8
0
 62
     0
 10
0.666667
 20
5.58333
 30
0.0
 11
1.41667
 21
5.58333
 31
0.0
  0
LINE
  8
0
 62
     0
 10
1.41667
 20
5.58333
 30
0.0
 11
1.43881
 21
5.35726
 31
0.0
  0
LINE
  8
0
 62
     0
 10
1.43881
 20
5.35726
 30
0.0
 11
1.50521
 21
5.16493
 31
0.0
  0
LINE
  8
0
 62
     0
 10
1.50521
 20
5.16493
 30
0.0
 11
1.61589
 21
5.00651
 31
0.0
  0
LINE
  8
0
 62
     0
 10
1.61589
 20
5.00651
 30
0.0
 11
1.77083
 21
4.88194
 31
0.0
  0
LINE
  8
0
 62
     0
 10
1.77083
 20
4.88194
 30
0.0
 11
1.95617
 21
4.78782
 31
0.0
  0
LINE
  8
0
 62
     0
 10
1.95617
 20
4.78782
 30
0.0
 11
2.15799
 21
4.72054
 31
0.0
  0
LINE
  8
0
 62
     0
 10
2.15799
 20
4.72054
 30
0.0
 11
2.37631
 21
4.68018
 31
0.0
  0
LINE
  8
0
 62
     0
 10
2.37631
 20
4.68018
 30
0.0
 11
2.61111
 21
4.66667
 31
0.0
  0
LINE
  8
0
 62
     0
 10
2.61111
 20
4.66667
 30
0.0
 11
2.88715
 21
4.68408
 31
0.0
  0
LINE
  8
0
 62
     0
 10
2.88715
 20
4.68408
 30
0.0
 11
3.13194
 21
4.73617
 31
0.0
  0
LINE
  8
0
 62
     0
 10
3.13194
 20
4.73617
 30
0.0
 11
3.34549
 21
4.82297
 31
0.0
  0
LINE
  8
0
 62
     0
 10
3.34549
 20
4.82297
 30
0.0
 11
3.52778
 21
4.94444
 31
0.0
  0
LINE
  8
0
 62
     0
 10
3.52778
 20
4.94444
 30
0.0
 11
3.67361
 21
5.10243
 31
0.0
  0
LINE
  8
0
 62
     0
 10
3.67361
 20
5.10243
 30
0.0
 11
3.77778
 21
5.29861
 31
0.0
  0
LINE
  8
0
 62
     0
 10
3.77778
 20
5.29861
 30
0.0
 11
3.84028
 21
5.53299
 31
0.0
  0
LINE
  8
0
 62
     0
 10
3.84028
 20
5.53299
 30
0.0
 11
3.86111
 21
5.80556
 31
0.0
  0
LINE
  8
0
 62
     0
 10
3.86111
 20
5.80556
 30
0.0
 11
3.84289
 21
6.08599
 31
0.0
  0
LINE
  8
0
 62
     0
 10
3.84289
 20
6.08599
 30
0.0
 11
3.78819
 21
6.32986
 31
0.0
  0
LINE
  8
0
 62
     0
 10
3.78819
 20
6.32986
 30
0.0
 11
3.69706
 21
6.53733
 31
0.0
  0
LINE
  8
0
 62
     0
 10
3.69706
 20
6.53733
 30
0.0
 11
3.56944
 21
6.70833
 31
0.0
  0
LINE
  8
0
 62
     0
 10
3.56944
 20
6.70833
 30
0.0
 11
3.40881
 21
6.84207
 31
0.0
  0
LINE
  8
0
 62
     0
 10
3.40881
 20
6.84207
 30
0.0
 11
3.21869
 21
6.93756
 31
0.0
  0
LINE
  8
0
 62
     0
 10
3.21869
 20
6.93756
 30
0.0
 11
2.99908
 21
6.99485
 31
0.0
  0
LINE
  8
0
 62
     0
 10
2.99908
 20
6.99485
 30
0.0
 11
2.75
 21
7.01389
 31
0.0
  0
LINE
  8
0
 62
     0
 10
2.75
 20
7.01389
 30
0.0
 11
2.46528
 21
7.00868
 31
0.0
  0
LINE
  8
0
 62
     0
 10
2.46528
 20
7.00868
 30
0.0
 11
2.25
 21
6.99306
 31
0.0
  0
LINE
  8
0
 62
     0
 10
2.25
 20
6.99306
 30
0.0
 11
2.08328
 21
6.96007
 31
0.0
  0
LINE
  8
0
 62
     0
 10
2.08328
 20
6.96007
 30
0.0
 11
1.94444
 21
6.90278
 31
0.0
  0
LINE
  8
0
 62
     0
 10
1.94444
 20
6.90278
 30
0.0
 11
1.625
 21
7.5
 31
0.0
  0
LINE
  8
0
 62
     0
 10
1.625
 20
7.5
 30
0.0
 11
3.41667
 21
9.375
 31
0.0
  0
LINE
  8
0
 62
     0
 10
3.41667
 20
9.375
 30
0.0
 11
1.09722
 21
9.375
 31
0.0
  0
LINE
  8
0
 62
     0
 10
1.09722
 20
9.375
 30
0.0
 11
1.09722
 21
10.1389
 31
0.0
  0
LINE
  8
0
 62
     0
 10
1.09722
 20
10.1389
 30
0.0
 11
4.41667
 21
10.1389
 31
0.0
  0
ENDSEC
  0
EOF
