  0
SECTION
  2
HEADER
  9
$ACADVER
  1
AC1009
  9
$EXTMIN
 10
0.0
 20
0.0
 30
0.0
  9
$EXTMAX
 10
1000.0
 20
1000.0
 30
0.0
  9
$FILLMODE
 70
 0
  9
$SPLFRAME
 70
 1
  0
ENDSEC
  0
SECTION
  2
TABLES
  0
TABLE
  2
LAYER
 70
1
  0
LAYER
  2
0
 70
     0
 62
     7
  6
CONTINUOUS
  0
ENDTAB
  0
ENDSEC
  0
SECTION
  2
ENTITIES
  0
LINE
  8
0
 62
     0
 10
1.04167
 20
11.3611
 30
0.0
 11
1.05729
 21
11.6198
 31
0.0
  0
LINE
  8
0
 62
     0
 10
1.05729
 20
11.6198
 30
0.0
 11
1.10417
 21
11.8958
 31
0.0
  0
LINE
  8
0
 62
     0
 10
1.10417
 20
11.8958
 30
0.0
 11
1.19271
 21
12.1703
 31
0.0
  0
LINE
  8
0
 62
     0
 10
1.19271
 20
12.1703
 30
0.0
 11
1.33333
 21
12.4236
 31
0.0
  0
LINE
  8
0
 62
     0
 10
1.33333
 20
12.4236
 30
0.0
 11
1.52778
 21
12.6459
 31
0.0
  0
LINE
  8
0
 62
     0
 10
1.52778
 20
12.6459
 30
0.0
 11
1.77778
 21
12.8264
 31
0.0
  0
LINE
  8
0
 62
     0
 10
1.77778
 20
12.8264
 30
0.0
 11
1.92529
 21
12.8963
 31
0.0
  0
LINE
  8
0
 62
     0
 10
1.92529
 20
12.8963
 30
0.0
 11
2.09022
 21
12.9462
 31
0.0
  0
LINE
  8
0
 62
     0
 10
2.09022
 20
12.9462
 30
0.0
 11
2.27251
 21
12.9762
 31
0.0
  0
LINE
  8
0
 62
     0
 10
2.27251
 20
12.9762
 30
0.0
 11
2.47222
 21
12.9861
 31
0.0
  0
LINE
  8
0
 62
     0
 10
2.47222
 20
12.9861
 30
0.0
 11
2.67275
 21
12.9762
 31
0.0
  0
LINE
  8
0
 62
     0
 10
2.67275
 20
12.9762
 30
0.0
 11
2.85764
 21
12.9462
 31
0.0
  0
LINE
  8
0
 62
     0
 10
2.85764
 20
12.9462
 30
0.0
 11
3.02692
 21
12.8963
 31
0.0
  0
LINE
  8
0
 62
     0
 10
3.02692
 20
12.8963
 30
0.0
 11
3.18056
 21
12.8264
 31
0.0
  0
LINE
  8
0
 62
     0
 10
3.18056
 20
12.8264
 30
0.0
 11
3.4566
 21
12.6597
 31
0.0
  0
LINE
  8
0
 62
     0
 10
3.4566
 20
12.6597
 30
0.0
 11
3.70139
 21
12.4792
 31
0.0
  0
LINE
  8
0
 62
     0
 10
3.70139
 20
12.4792
 30
0.0
 11
3.92535
 21
12.3003
 31
0.0
  0
LINE
  8
0
 62
     0
 10
3.92535
 20
12.3003
 30
0.0
 11
4.13889
 21
12.1389
 31
0.0
  0
LINE
  8
0
 62
     0
 10
4.13889
 20
12.1389
 30
0.0
 11
4.35417
 21
12.0244
 31
0.0
  0
LINE
  8
0
 62
     0
 10
4.35417
 20
12.0244
 30
0.0
 11
4.58333
 21
11.9861
 31
0.0
  0
LINE
  8
0
 62
     0
 10
4.58333
 20
11.9861
 30
0.0
 11
4.76557
 21
12.0104
 31
0.0
  0
LINE
  8
0
 62
     0
 10
4.76557
 20
12.0104
 30
0.0
 11
4.92361
 21
12.0833
 31
0.0
  0
LINE
  8
0
 62
     0
 10
4.92361
 20
12.0833
 30
0.0
 11
5.05724
 21
12.1928
 31
0.0
  0
LINE
  8
0
 62
     0
 10
5.05724
 20
12.1928
 30
0.0
 11
5.16667
 21
12.3264
 31
0.0
  0
LINE
  8
0
 62
     0
 10
5.16667
 20
12.3264
 30
0.0
 11
5.25174
 21
12.4792
 31
0.0
  0
LINE
  8
0
 62
     0
 10
5.25174
 20
12.4792
 30
0.0
 11
5.3125
 21
12.6458
 31
0.0
  0
LINE
  8
0
 62
     0
 10
5.3125
 20
12.6458
 30
0.0
 11
5.3489
 21
12.8177
 31
0.0
  0
LINE
  8
0
 62
     0
 10
5.3489
 20
12.8177
 30
0.0
 11
5.36111
 21
12.9861
 31
0.0
  0
LINE
  8
0
 62
     0
 10
5.36111
 20
12.9861
 30
0.0
 11
6.125
 21
12.9861
 31
0.0
  0
LINE
  8
0
 62
     0
 10
6.125
 20
12.9861
 30
0.0
 11
6.09549
 21
12.7067
 31
0.0
  0
LINE
  8
0
 62
     0
 10
6.09549
 20
12.7067
 30
0.0
 11
6.00694
 21
12.4236
 31
0.0
  0
LINE
  8
0
 62
     0
 10
6.00694
 20
12.4236
 30
0.0
 11
5.86626
 21
12.151
 31
0.0
  0
LINE
  8
0
 62
     0
 10
5.86626
 20
12.151
 30
0.0
 11
5.68056
 21
11.9028
 31
0.0
  0
LINE
  8
0
 62
     0
 10
5.68056
 20
11.9028
 30
0.0
 11
5.45481
 21
11.6874
 31
0.0
  0
LINE
  8
0
 62
     0
 10
5.45481
 20
11.6874
 30
0.0
 11
5.19444
 21
11.5139
 31
0.0
  0
LINE
  8
0
 62
     0
 10
5.19444
 20
11.5139
 30
0.0
 11
4.90972
 21
11.3994
 31
0.0
  0
LINE
  8
0
 62
     0
 10
4.90972
 20
11.3994
 30
0.0
 11
4.61111
 21
11.3611
 31
0.0
  0
LINE
  8
0
 62
     0
 10
4.61111
 20
11.3611
 30
0.0
 11
4.36197
 21
11.3711
 31
0.0
  0
LINE
  8
0
 62
     0
 10
4.36197
 20
11.3711
 30
0.0
 11
4.14236
 21
11.401
 31
0.0
  0
LINE
  8
0
 62
     0
 10
4.14236
 20
11.401
 30
0.0
 11
3.95225
 21
11.451
 31
0.0
  0
LINE
  8
0
 62
     0
 10
3.95225
 20
11.451
 30
0.0
 11
3.79167
 21
11.5208
 31
0.0
  0
LINE
  8
0
 62
     0
 10
3.79167
 20
11.5208
 30
0.0
 11
3.52425
 21
11.6876
 31
0.0
  0
LINE
  8
0
 62
     0
 10
3.52425
 20
11.6876
 30
0.0
 11
3.30556
 21
11.8681
 31
0.0
  0
LINE
  8
0
 62
     0
 10
3.30556
 20
11.8681
 30
0.0
 11
2.92361
 21
12.2153
 31
0.0
  0
LINE
  8
0
 62
     0
 10
2.92361
 20
12.2153
 30
0.0
 11
2.82156
 21
12.2852
 31
0.0
  0
LINE
  8
0
 62
     0
 10
2.82156
 20
12.2852
 30
0.0
 11
2.70307
 21
12.3351
 31
0.0
  0
LINE
  8
0
 62
     0
 10
2.70307
 20
12.3351
 30
0.0
 11
2.56808
 21
12.3651
 31
0.0
  0
LINE
  8
0
 62
     0
 10
2.56808
 20
12.3651
 30
0.0
 11
2.41667
 21
12.375
 31
0.0
  0
LINE
  8
0
 62
     0
 10
2.41667
 20
12.375
 30
0.0
 11
2.22917
 21
12.349
 31
0.0
  0
LINE
  8
0
 62
     0
 10
2.22917
 20
12.349
 30
0.0
 11
2.08333
 21
12.2708
 31
0.0
  0
LINE
  8
0
 62
     0
 10
2.08333
 20
12.2708
 30
0.0
 11
1.97217
 21
12.1545
 31
0.0
  0
LINE
  8
0
 62
     0
 10
1.97217
 20
12.1545
 30
0.0
 11
1.88889
 21
12.0139
 31
0.0
  0
LINE
  8
0
 62
     0
 10
1.88889
 20
12.0139
 30
0.0
 11
1.8316
 21
11.8542
 31
0.0
  0
LINE
  8
0
 62
     0
 10
1.8316
 20
11.8542
 30
0.0
 11
1.79861
 21
11.6806
 31
0.0
  0
LINE
  8
0
 62
     0
 10
1.79861
 20
11.6806
 30
0.0
 11
1.78299
 21
11.5104
 31
0.0
  0
LINE
  8
0
 62
     0
 10
1.78299
 20
11.5104
 30
0.0
 11
1.77778
 21
11.3611
 31
0.0
  0
LINE
  8
0
 62
     0
 10
1.77778
 20
11.3611
 30
0.0
 11
1.04167
 21
11.3611
 31
0.0
  0
ENDSEC
  0
EOF
